<?xml version="1.0" standalone="no"?>
<!DOCTYPE svg PUBLIC "-//W3C//DTD SVG 1.1//EN" "http://www.w3.org/Graphics/SVG/1.1/DTD/svg11.dtd" >
<svg xmlns="http://www.w3.org/2000/svg">
<metadata>
This is a custom SVG webfont generated by Font Squirrel.
</metadata>
<defs>
<font id="webfontZedlJYGp" horiz-adv-x="556" >
<font-face units-per-em="1000" ascent="733" descent="-267" />
<missing-glyph horiz-adv-x="250" />
<glyph unicode="A&#x300;" horiz-adv-x="722" d="M462 705h46l87 -625q6 -33 13 -40t43 -12l26 -3v-28q-102 3 -122 3t-122 -3v28l44 3q43 3 43 27q0 6 -2 22q0 2 -0.5 4t-1.5 3v2v3l-25 188h-246l-102 -175q-26 -45 -26 -55q0 -7 9.5 -12.5t21.5 -6.5l52 -3v-28q-86 3 -107 3q-20 0 -112 -3v30l20 5q26 6 43.5 22 t44.5 58zM449 601l-179 -288h216zM525 728l-162 101q-28 17 -28 37q0 13 11.5 22t26.5 9q13 0 33 -18l153 -151h-34z" />
<glyph unicode="A&#x301;" horiz-adv-x="722" d="M462 705h46l87 -625q6 -33 13 -40t43 -12l26 -3v-28q-102 3 -122 3t-122 -3v28l44 3q43 3 43 27q0 6 -2 22q0 2 -0.5 4t-1.5 3v2v3l-25 188h-246l-102 -175q-26 -45 -26 -55q0 -7 9.5 -12.5t21.5 -6.5l52 -3v-28q-86 3 -107 3q-20 0 -112 -3v30l20 5q26 6 43.5 22 t44.5 58zM449 601l-179 -288h216zM371 728l153 151q18 18 33 18t26.5 -9.5t11.5 -21.5q0 -20 -28 -37l-162 -101h-34z" />
<glyph unicode="A&#x302;" horiz-adv-x="722" d="M462 705h46l87 -625q6 -33 13 -40t43 -12l26 -3v-28q-102 3 -122 3t-122 -3v28l44 3q43 3 43 27q0 6 -2 22q0 2 -0.5 4t-1.5 3v2v3l-25 188h-246l-102 -175q-26 -45 -26 -55q0 -7 9.5 -12.5t21.5 -6.5l52 -3v-28q-86 3 -107 3q-20 0 -112 -3v30l20 5q26 6 43.5 22 t44.5 58zM449 601l-179 -288h216zM511 889l88 -169h-36l-82 104l-137 -104h-39l157 169h49z" />
<glyph unicode="A&#x303;" horiz-adv-x="722" d="M462 705h46l87 -625q6 -33 13 -40t43 -12l26 -3v-28q-102 3 -122 3t-122 -3v28l44 3q43 3 43 27q0 6 -2 22q0 2 -0.5 4t-1.5 3v2v3l-25 188h-246l-102 -175q-26 -45 -26 -55q0 -7 9.5 -12.5t21.5 -6.5l52 -3v-28q-86 3 -107 3q-20 0 -112 -3v30l20 5q26 6 43.5 22 t44.5 58zM449 601l-179 -288h216zM341 745h-29q15 55 38 79t60 24q27 0 63 -14l60 -24q12 -5 27 -5t25.5 9t25.5 34h28q-9 -49 -34.5 -76t-62.5 -27q-23 0 -64 16l-38 15l-2 1q-2 0 -7 3q-22 9 -38 9q-19 0 -30 -9.5t-22 -34.5z" />
<glyph unicode="A&#x308;" horiz-adv-x="722" d="M462 705h46l87 -625q6 -33 13 -40t43 -12l26 -3v-28q-102 3 -122 3t-122 -3v28l44 3q43 3 43 27q0 6 -2 22q0 2 -0.5 4t-1.5 3v2v3l-25 188h-246l-102 -175q-26 -45 -26 -55q0 -7 9.5 -12.5t21.5 -6.5l52 -3v-28q-86 3 -107 3q-20 0 -112 -3v30l20 5q26 6 43.5 22 t44.5 58zM449 601l-179 -288h216zM377 847q19 0 34.5 -15t15.5 -34q0 -20 -15.5 -35.5t-34.5 -15.5t-34.5 15.5t-15.5 35.5q0 19 15 34t35 15zM577 847q19 0 34.5 -15t15.5 -34q0 -20 -15.5 -35.5t-34.5 -15.5t-34.5 15.5t-15.5 35.5q0 19 15 34t35 15z" />
<glyph unicode="A&#x30a;" horiz-adv-x="722" d="M462 705h46l87 -625q6 -33 13 -40t43 -12l26 -3v-28q-102 3 -122 3t-122 -3v28l44 3q43 3 43 27q0 6 -2 22q0 2 -0.5 4t-1.5 3v2v3l-25 188h-246l-102 -175q-26 -45 -26 -55q0 -7 9.5 -12.5t21.5 -6.5l52 -3v-28q-86 3 -107 3q-20 0 -112 -3v30l20 5q26 6 43.5 22 t44.5 58zM449 601l-179 -288h216zM509 928q41 0 70 -29.5t29 -70.5q0 -42 -29.5 -71t-70.5 -29q-42 0 -71 29t-29 71t29.5 71t71.5 29zM508 892q-28 0 -45 -17.5t-17 -46.5t17 -46.5t45 -17.5t45 17.5t17 46.5t-17 46.5t-45 17.5z" />
<glyph unicode="C&#x327;" horiz-adv-x="667" d="M597 519v84q-78 50 -179 50q-120 0 -190 -72q-95 -97 -95 -272q0 -133 62.5 -203.5t180.5 -70.5q58 0 105.5 16t118.5 59l10 -7l-10 -36q-67 -46 -126 -65.5t-131 -19.5q-143 0 -220.5 78.5t-77.5 223.5q0 230 177 350q107 72 234 72q88 0 195 -41q-20 -66 -27 -146h-27z M217 -104l-9 8l61 96h38l-44 -64q22 2 24 2q38 0 60 -19t22 -51q0 -38 -33.5 -61t-89.5 -23q-36 0 -88 20l17 29q45 -14 69 -14q23 0 38 12.5t15 32.5q0 17 -13 27.5t-34 10.5q-13 0 -26 -4z" />
<glyph unicode="E&#x300;" horiz-adv-x="611" d="M221 334l-43 -253q-2 -18 -2 -31v-4q80 -7 132 -7q102 0 147 9q16 4 24.5 15t16.5 38l16 60h27l-5 -26q-13 -73 -16 -99l-4 -36l-33 -1q-66 -2 -72 -2h-10l-215 3q-51 0 -113 -2l-41 -1l5 26q33 5 45 11.5t15 20.5l87 504q9 54 9 76q0 26 -35 27l-54 2l3 28l45 -1 q51 -2 115 -2q69 0 78 1l120 1q24 1 38 1q37 0 69 -3q-17 -57 -21 -152h-24l-8 89q-2 24 -104 24q-22 0 -86 -2l-47 -2q-5 -10 -9 -32l-42 -238h37q98 0 219 6l4 -7l-19 -45l-26 1q-72 3 -106 3h-117zM450 728l-162 101q-28 17 -28 37q0 13 11.5 22t26.5 9q13 0 33 -18 l153 -151h-34z" />
<glyph unicode="E&#x301;" horiz-adv-x="611" d="M221 334l-43 -253q-2 -18 -2 -31v-4q80 -7 132 -7q102 0 147 9q16 4 24.5 15t16.5 38l16 60h27l-5 -26q-13 -73 -16 -99l-4 -36l-33 -1q-66 -2 -72 -2h-10l-215 3q-51 0 -113 -2l-41 -1l5 26q33 5 45 11.5t15 20.5l87 504q9 54 9 76q0 26 -35 27l-54 2l3 28l45 -1 q51 -2 115 -2q69 0 78 1l120 1q24 1 38 1q37 0 69 -3q-17 -57 -21 -152h-24l-8 89q-2 24 -104 24q-22 0 -86 -2l-47 -2q-5 -10 -9 -32l-42 -238h37q98 0 219 6l4 -7l-19 -45l-26 1q-72 3 -106 3h-117zM296 728l153 151q18 18 33 18t26.5 -9.5t11.5 -21.5q0 -20 -28 -37 l-162 -101h-34z" />
<glyph unicode="E&#x302;" horiz-adv-x="611" d="M221 334l-43 -253q-2 -18 -2 -31v-4q80 -7 132 -7q102 0 147 9q16 4 24.5 15t16.5 38l16 60h27l-5 -26q-13 -73 -16 -99l-4 -36l-33 -1q-66 -2 -72 -2h-10l-215 3q-51 0 -113 -2l-41 -1l5 26q33 5 45 11.5t15 20.5l87 504q9 54 9 76q0 26 -35 27l-54 2l3 28l45 -1 q51 -2 115 -2q69 0 78 1l120 1q24 1 38 1q37 0 69 -3q-17 -57 -21 -152h-24l-8 89q-2 24 -104 24q-22 0 -86 -2l-47 -2q-5 -10 -9 -32l-42 -238h37q98 0 219 6l4 -7l-19 -45l-26 1q-72 3 -106 3h-117zM436 889l88 -169h-36l-82 104l-137 -104h-39l157 169h49z" />
<glyph unicode="E&#x308;" horiz-adv-x="611" d="M221 334l-43 -253q-2 -18 -2 -31v-4q80 -7 132 -7q102 0 147 9q16 4 24.5 15t16.5 38l16 60h27l-5 -26q-13 -73 -16 -99l-4 -36l-33 -1q-66 -2 -72 -2h-10l-215 3q-51 0 -113 -2l-41 -1l5 26q33 5 45 11.5t15 20.5l87 504q9 54 9 76q0 26 -35 27l-54 2l3 28l45 -1 q51 -2 115 -2q69 0 78 1l120 1q24 1 38 1q37 0 69 -3q-17 -57 -21 -152h-24l-8 89q-2 24 -104 24q-22 0 -86 -2l-47 -2q-5 -10 -9 -32l-42 -238h37q98 0 219 6l4 -7l-19 -45l-26 1q-72 3 -106 3h-117zM302 847q19 0 34.5 -15t15.5 -34q0 -20 -15.5 -35.5t-34.5 -15.5 t-34.5 15.5t-15.5 35.5q0 19 15 34t35 15zM502 847q19 0 34.5 -15t15.5 -34q0 -20 -15.5 -35.5t-34.5 -15.5t-34.5 15.5t-15.5 35.5q0 19 15 34t35 15z" />
<glyph unicode="I&#x300;" horiz-adv-x="333" d="M103 664l3 28l64 -2q43 -1 78 -1l97 3h9l-3 -28l-35 -3q-29 -3 -37.5 -11t-13.5 -37l-89 -535q-2 -8 -2 -21q0 -15 8 -21t28 -8l52 -3l-3 -28h-32l-94 3l-94 -3h-32l3 28l36 3q30 2 38.5 16t19.5 81l72 434q9 51 9 77q0 25 -35 26zM304 728l-162 101q-28 17 -28 37 q0 13 11.5 22t26.5 9q13 0 33 -18l153 -151h-34z" />
<glyph unicode="I&#x301;" horiz-adv-x="333" d="M103 664l3 28l64 -2q43 -1 78 -1l97 3h9l-3 -28l-35 -3q-29 -3 -37.5 -11t-13.5 -37l-89 -535q-2 -8 -2 -21q0 -15 8 -21t28 -8l52 -3l-3 -28h-32l-94 3l-94 -3h-32l3 28l36 3q30 2 38.5 16t19.5 81l72 434q9 51 9 77q0 25 -35 26zM150 728l153 151q18 18 33 18 t26.5 -9.5t11.5 -21.5q0 -20 -28 -37l-162 -101h-34z" />
<glyph unicode="I&#x302;" horiz-adv-x="333" d="M103 664l3 28l64 -2q43 -1 78 -1l97 3h9l-3 -28l-35 -3q-29 -3 -37.5 -11t-13.5 -37l-89 -535q-2 -8 -2 -21q0 -15 8 -21t28 -8l52 -3l-3 -28h-32l-94 3l-94 -3h-32l3 28l36 3q30 2 38.5 16t19.5 81l72 434q9 51 9 77q0 25 -35 26zM290 889l88 -169h-36l-82 104 l-137 -104h-39l157 169h49z" />
<glyph unicode="I&#x308;" horiz-adv-x="333" d="M103 664l3 28l64 -2q43 -1 78 -1l97 3h9l-3 -28l-35 -3q-29 -3 -37.5 -11t-13.5 -37l-89 -535q-2 -8 -2 -21q0 -15 8 -21t28 -8l52 -3l-3 -28h-32l-94 3l-94 -3h-32l3 28l36 3q30 2 38.5 16t19.5 81l72 434q9 51 9 77q0 25 -35 26zM156 847q19 0 34.5 -15t15.5 -34 q0 -20 -15.5 -35.5t-34.5 -15.5t-34.5 15.5t-15.5 35.5q0 19 15 34t35 15zM356 847q19 0 34.5 -15t15.5 -34q0 -20 -15.5 -35.5t-34.5 -15.5t-34.5 15.5t-15.5 35.5q0 19 15 34t35 15z" />
<glyph unicode="N&#x303;" horiz-adv-x="778" d="M237 692l345 -589l80 489q5 32 5 46q0 23 -36 24l-47 2l5 28h19l86 -3l89 3h21l-5 -28l-37 -2q-28 -2 -36 -18.5t-24 -101.5l-94 -553h-50l-338 577l-80 -464q-3 -16 -3 -30q0 -25 9.5 -33.5t39.5 -10.5l42 -3l-5 -28q-97 3 -110 3l-111 -3l5 28l31 3q27 3 36 15.5 t18 58.5l88 474q1 4 3 18q1 2 1 5q1 3 1 7q0 15 -30 39q-19 15 -50 17l-35 2l5 28l16 -1q10 0 20 -0.5t15 -1t6 -0.5h14h10zM348 745h-29q15 55 38 79t60 24q27 0 63 -14l60 -24q12 -5 27 -5t25.5 9t25.5 34h28q-9 -49 -34.5 -76t-62.5 -27q-23 0 -64 16l-38 15l-2 1 q-3 0 -7 3q-22 9 -38 9q-19 0 -30 -9.5t-22 -34.5z" />
<glyph unicode="O&#x300;" horiz-adv-x="778" d="M464 706q135 0 209.5 -73.5t74.5 -207.5q0 -119 -55 -222t-149 -161q-95 -60 -221 -60q-132 0 -201 74t-69 216q0 188 116.5 311t294.5 123zM433 664q-113 0 -183 -71q-52 -52 -80.5 -135t-28.5 -181q0 -125 55.5 -189t163.5 -64q118 0 192 76q51 53 79.5 134t28.5 175 q0 166 -97 223q-53 32 -130 32zM534 728l-162 101q-28 17 -28 37q0 13 11.5 22t26.5 9q13 0 33 -18l153 -151h-34z" />
<glyph unicode="O&#x301;" horiz-adv-x="778" d="M464 706q135 0 209.5 -73.5t74.5 -207.5q0 -119 -55 -222t-149 -161q-95 -60 -221 -60q-132 0 -201 74t-69 216q0 188 116.5 311t294.5 123zM433 664q-113 0 -183 -71q-52 -52 -80.5 -135t-28.5 -181q0 -125 55.5 -189t163.5 -64q118 0 192 76q51 53 79.5 134t28.5 175 q0 166 -97 223q-53 32 -130 32zM380 728l153 151q18 18 33 18t26.5 -9.5t11.5 -21.5q0 -20 -28 -37l-162 -101h-34z" />
<glyph unicode="O&#x302;" horiz-adv-x="778" d="M464 706q135 0 209.5 -73.5t74.5 -207.5q0 -119 -55 -222t-149 -161q-95 -60 -221 -60q-132 0 -201 74t-69 216q0 188 116.5 311t294.5 123zM433 664q-113 0 -183 -71q-52 -52 -80.5 -135t-28.5 -181q0 -125 55.5 -189t163.5 -64q118 0 192 76q51 53 79.5 134t28.5 175 q0 166 -97 223q-53 32 -130 32zM520 889l88 -169h-36l-82 104l-137 -104h-39l157 169h49z" />
<glyph unicode="O&#x303;" horiz-adv-x="778" d="M464 706q135 0 209.5 -73.5t74.5 -207.5q0 -119 -55 -222t-149 -161q-95 -60 -221 -60q-132 0 -201 74t-69 216q0 188 116.5 311t294.5 123zM433 664q-113 0 -183 -71q-52 -52 -80.5 -135t-28.5 -181q0 -125 55.5 -189t163.5 -64q118 0 192 76q51 53 79.5 134t28.5 175 q0 166 -97 223q-53 32 -130 32zM350 745h-29q15 55 38 79t60 24q27 0 63 -14l60 -24q12 -5 27 -5t25.5 9t25.5 34h28q-9 -49 -34.5 -76t-62.5 -27q-23 0 -64 16l-38 15l-2 1q-3 0 -7 3q-22 9 -38 9q-19 0 -30 -9.5t-22 -34.5z" />
<glyph unicode="O&#x308;" horiz-adv-x="778" d="M464 706q135 0 209.5 -73.5t74.5 -207.5q0 -119 -55 -222t-149 -161q-95 -60 -221 -60q-132 0 -201 74t-69 216q0 188 116.5 311t294.5 123zM433 664q-113 0 -183 -71q-52 -52 -80.5 -135t-28.5 -181q0 -125 55.5 -189t163.5 -64q118 0 192 76q51 53 79.5 134t28.5 175 q0 166 -97 223q-53 32 -130 32zM386 847q19 0 34.5 -15t15.5 -34q0 -20 -15.5 -35.5t-34.5 -15.5t-34.5 15.5t-15.5 35.5q0 19 15 34t35 15zM586 847q19 0 34.5 -15t15.5 -34q0 -20 -15.5 -35.5t-34.5 -15.5t-34.5 15.5t-15.5 35.5q0 19 15 34t35 15z" />
<glyph unicode="U&#x300;" horiz-adv-x="778" d="M795 664l-36 -3q-29 -3 -38 -11.5t-13 -36.5l-85 -507q-6 -43 -6 -56q0 -18 32 -21l60 -4l-5 -28l-32 1q-13 0 -27.5 0.5t-21.5 1t-9 0.5l-62 -3h-22l-5 5q19 79 27 127q-39 -45 -68.5 -68.5t-74.5 -45.5q-68 -34 -133 -34q-84 0 -131.5 43.5t-47.5 119.5q0 30 6 62 l64 375q7 37 7 58q0 13 -7 17.5t-27 5.5l-52 2l3 28l32 -1q56 -2 58 -2q4 0 58 2l31 1l-88 -477q-7 -39 -7 -61q0 -53 37.5 -84t101.5 -31q58 0 113 29q38 19 65.5 42t63.5 67l71 445q1 4 1 12q0 27 -35 28l-48 2l3 28l63 -2q44 -1 80 -1l91 3h16zM446 728l-162 101 q-28 17 -28 37q0 13 11.5 22t26.5 9q13 0 33 -18l153 -151h-34z" />
<glyph unicode="U&#x301;" horiz-adv-x="778" d="M795 664l-36 -3q-29 -3 -38 -11.5t-13 -36.5l-85 -507q-6 -43 -6 -56q0 -18 32 -21l60 -4l-5 -28l-32 1q-13 0 -27.5 0.5t-21.5 1t-9 0.5l-62 -3h-22l-5 5q19 79 27 127q-39 -45 -68.5 -68.5t-74.5 -45.5q-68 -34 -133 -34q-84 0 -131.5 43.5t-47.5 119.5q0 30 6 62 l64 375q7 37 7 58q0 13 -7 17.5t-27 5.5l-52 2l3 28l32 -1q56 -2 58 -2q4 0 58 2l31 1l-88 -477q-7 -39 -7 -61q0 -53 37.5 -84t101.5 -31q58 0 113 29q38 19 65.5 42t63.5 67l71 445q1 4 1 12q0 27 -35 28l-48 2l3 28l63 -2q44 -1 80 -1l91 3h16zM292 728l153 151 q18 18 33 18t26.5 -9.5t11.5 -21.5q0 -20 -28 -37l-162 -101h-34z" />
<glyph unicode="U&#x302;" horiz-adv-x="778" d="M795 664l-36 -3q-29 -3 -38 -11.5t-13 -36.5l-85 -507q-6 -43 -6 -56q0 -18 32 -21l60 -4l-5 -28l-32 1q-13 0 -27.5 0.5t-21.5 1t-9 0.5l-62 -3h-22l-5 5q19 79 27 127q-39 -45 -68.5 -68.5t-74.5 -45.5q-68 -34 -133 -34q-84 0 -131.5 43.5t-47.5 119.5q0 30 6 62 l64 375q7 37 7 58q0 13 -7 17.5t-27 5.5l-52 2l3 28l32 -1q56 -2 58 -2q4 0 58 2l31 1l-88 -477q-7 -39 -7 -61q0 -53 37.5 -84t101.5 -31q58 0 113 29q38 19 65.5 42t63.5 67l71 445q1 4 1 12q0 27 -35 28l-48 2l3 28l63 -2q44 -1 80 -1l91 3h16zM432 889l88 -169h-36 l-82 104l-137 -104h-39l157 169h49z" />
<glyph unicode="U&#x308;" horiz-adv-x="778" d="M795 664l-36 -3q-29 -3 -38 -11.5t-13 -36.5l-85 -507q-6 -43 -6 -56q0 -18 32 -21l60 -4l-5 -28l-32 1q-13 0 -27.5 0.5t-21.5 1t-9 0.5l-62 -3h-22l-5 5q19 79 27 127q-39 -45 -68.5 -68.5t-74.5 -45.5q-68 -34 -133 -34q-84 0 -131.5 43.5t-47.5 119.5q0 30 6 62 l64 375q7 37 7 58q0 13 -7 17.5t-27 5.5l-52 2l3 28l32 -1q56 -2 58 -2q4 0 58 2l31 1l-88 -477q-7 -39 -7 -61q0 -53 37.5 -84t101.5 -31q58 0 113 29q38 19 65.5 42t63.5 67l71 445q1 4 1 12q0 27 -35 28l-48 2l3 28l63 -2q44 -1 80 -1l91 3h16zM298 847q19 0 34.5 -15 t15.5 -34q0 -20 -15.5 -35.5t-34.5 -15.5t-34.5 15.5t-15.5 35.5q0 19 15 34t35 15zM498 847q19 0 34.5 -15t15.5 -34q0 -20 -15.5 -35.5t-34.5 -15.5t-34.5 15.5t-15.5 35.5q0 19 15 34t35 15z" />
<glyph unicode="Y&#x301;" horiz-adv-x="667" d="M52 647l15 11q25 16 51 37q6 4 9 7l4 3q69 -1 114 -83.5t101 -311.5q39 104 128 226q56 75 101 111t100 50l-6 -71q-44 -8 -80 -33.5t-79 -80.5q-55 -69 -98 -146.5t-50 -119.5l-26 -168q-2 -10 -2 -21q0 -15 8 -21t28 -8l49 -3l-3 -28h-26l-97 3q-7 0 -17.5 -0.5t-30 -1 t-38.5 -0.5l-53 -1l4 28l48 3q30 2 37.5 15t20.5 82l21 126l1 6v1q0 14 -22 92t-40 127q-31 84 -60 121t-64 37q-14 0 -45 -12zM324 728l153 151q18 18 33 18t26.5 -9.5t11.5 -21.5q0 -20 -28 -37l-162 -101h-34z" />
<glyph unicode="a&#x300;" horiz-adv-x="444" d="M402 472l-92 -379q-1 -3 -1 -11q0 -23 15 -23q19 0 62 36q1 1 13 11l7 -21q-113 -94 -146 -94q-24 0 -24 35q0 26 6 51l29 127q-73 -103 -135 -159q-63 -56 -98 -56q-14 0 -24 22.5t-10 55.5q0 59 21 140t54 147q19 37 46 62t74 48q37 18 75 18q33 0 85 -19l33 18z M319 414q-56 19 -85 19q-36 0 -56.5 -16t-38.5 -57q-26 -60 -44.5 -136.5t-18.5 -124.5q0 -40 18 -40q24 0 65.5 39.5t84.5 102.5q26 39 42.5 85.5t32.5 127.5zM332 518l-162 101q-28 17 -28 37q0 13 11.5 22t26.5 9q13 0 33 -18l153 -151h-34z" />
<glyph unicode="a&#x301;" horiz-adv-x="444" d="M402 472l-92 -379q-1 -3 -1 -11q0 -23 15 -23q19 0 62 36q1 1 13 11l7 -21q-113 -94 -146 -94q-24 0 -24 35q0 26 6 51l29 127q-73 -103 -135 -159q-63 -56 -98 -56q-14 0 -24 22.5t-10 55.5q0 59 21 140t54 147q19 37 46 62t74 48q37 18 75 18q33 0 85 -19l33 18z M319 414q-56 19 -85 19q-36 0 -56.5 -16t-38.5 -57q-26 -60 -44.5 -136.5t-18.5 -124.5q0 -40 18 -40q24 0 65.5 39.5t84.5 102.5q26 39 42.5 85.5t32.5 127.5zM178 518l153 151q18 18 33 18t26.5 -9.5t11.5 -21.5q0 -20 -28 -37l-162 -101h-34z" />
<glyph unicode="a&#x302;" horiz-adv-x="444" d="M402 472l-92 -379q-1 -3 -1 -11q0 -23 15 -23q19 0 62 36q1 1 13 11l7 -21q-113 -94 -146 -94q-24 0 -24 35q0 26 6 51l29 127q-73 -103 -135 -159q-63 -56 -98 -56q-14 0 -24 22.5t-10 55.5q0 59 21 140t54 147q19 37 46 62t74 48q37 18 75 18q33 0 85 -19l33 18z M319 414q-56 19 -85 19q-36 0 -56.5 -16t-38.5 -57q-26 -60 -44.5 -136.5t-18.5 -124.5q0 -40 18 -40q24 0 65.5 39.5t84.5 102.5q26 39 42.5 85.5t32.5 127.5zM318 679l88 -169h-36l-82 104l-137 -104h-39l157 169h49z" />
<glyph unicode="a&#x303;" horiz-adv-x="444" d="M402 472l-92 -379q-1 -3 -1 -11q0 -23 15 -23q19 0 62 36q1 1 13 11l7 -21q-113 -94 -146 -94q-24 0 -24 35q0 26 6 51l29 127q-73 -103 -135 -159q-63 -56 -98 -56q-14 0 -24 22.5t-10 55.5q0 59 21 140t54 147q19 37 46 62t74 48q37 18 75 18q33 0 85 -19l33 18z M319 414q-56 19 -85 19q-36 0 -56.5 -16t-38.5 -57q-26 -60 -44.5 -136.5t-18.5 -124.5q0 -40 18 -40q24 0 65.5 39.5t84.5 102.5q26 39 42.5 85.5t32.5 127.5zM148 535h-29q15 55 38 79t60 24q27 0 63 -14l60 -24q12 -5 27 -5t25.5 9t25.5 34h28q-9 -49 -34.5 -76 t-62.5 -27q-23 0 -64 16l-38 15l-2 1q-3 0 -7 3q-22 9 -38 9q-19 0 -30 -9.5t-22 -34.5z" />
<glyph unicode="a&#x308;" horiz-adv-x="444" d="M402 472l-92 -379q-1 -3 -1 -11q0 -23 15 -23q19 0 62 36q1 1 13 11l7 -21q-113 -94 -146 -94q-24 0 -24 35q0 26 6 51l29 127q-73 -103 -135 -159q-63 -56 -98 -56q-14 0 -24 22.5t-10 55.5q0 59 21 140t54 147q19 37 46 62t74 48q37 18 75 18q33 0 85 -19l33 18z M319 414q-56 19 -85 19q-36 0 -56.5 -16t-38.5 -57q-26 -60 -44.5 -136.5t-18.5 -124.5q0 -40 18 -40q24 0 65.5 39.5t84.5 102.5q26 39 42.5 85.5t32.5 127.5zM184 637q19 0 34.5 -15t15.5 -34q0 -20 -15.5 -35.5t-34.5 -15.5t-34.5 15.5t-15.5 35.5q0 19 15 34t35 15z M384 637q19 0 34.5 -15t15.5 -34q0 -20 -15.5 -35.5t-34.5 -15.5t-34.5 15.5t-15.5 35.5q0 19 15 34t35 15z" />
<glyph unicode="a&#x30a;" horiz-adv-x="444" d="M402 472l-92 -379q-1 -3 -1 -11q0 -23 15 -23q19 0 62 36q1 1 13 11l7 -21q-113 -94 -146 -94q-24 0 -24 35q0 26 6 51l29 127q-73 -103 -135 -159q-63 -56 -98 -56q-14 0 -24 22.5t-10 55.5q0 59 21 140t54 147q19 37 46 62t74 48q37 18 75 18q33 0 85 -19l33 18z M319 414q-56 19 -85 19q-36 0 -56.5 -16t-38.5 -57q-26 -60 -44.5 -136.5t-18.5 -124.5q0 -40 18 -40q24 0 65.5 39.5t84.5 102.5q26 39 42.5 85.5t32.5 127.5zM316 718q41 0 70 -29.5t29 -70.5q0 -42 -29.5 -71t-70.5 -29q-42 0 -71 29t-29 71t29.5 71t71.5 29zM315 682 q-28 0 -45 -17.5t-17 -46.5t17 -46.5t45 -17.5t45 17.5t17 46.5t-17 46.5t-45 17.5z" />
<glyph unicode="c&#x327;" horiz-adv-x="407" d="M342 330v60q0 18 -23.5 30.5t-57.5 12.5q-45 0 -76 -24q-37 -29 -60.5 -99t-23.5 -151q0 -119 85 -119q48 0 145 65l15 10l8 -20l-50 -41q-79 -65 -157 -65q-122 0 -122 147q0 79 26 150.5t67 108.5q42 38 91.5 62.5t83.5 24.5q58 0 96 -24q-13 -37 -24 -128h-23z M87 -104l-9 8l61 96h38l-44 -64q22 2 24 2q38 0 60 -19t22 -51q0 -38 -33.5 -61t-89.5 -23q-36 0 -88 20l17 29q45 -14 69 -14q23 0 38 12.5t15 32.5q0 17 -13 27.5t-34 10.5q-13 0 -26 -4z" />
<glyph unicode="e&#x300;" horiz-adv-x="389" d="M328 111l8 -19q-69 -56 -115.5 -79.5t-89.5 -23.5q-54 0 -85 33t-31 91q0 50 19 124.5t41 111.5q29 48 97.5 90.5t117.5 42.5q38 0 61 -21.5t23 -56.5q0 -91 -124 -145q-43 -19 -69 -25l-82 -20q-8 -46 -8 -81q0 -45 20.5 -71t55.5 -26q56 0 137 58zM113 274l-9 -37 q70 16 109 35t63 51t24 65q0 24 -13 38t-35 14q-42 0 -73 -28q-41 -37 -66 -138zM304 518l-162 101q-28 17 -28 37q0 13 11.5 22t26.5 9q13 0 33 -18l153 -151h-34z" />
<glyph unicode="e&#x301;" horiz-adv-x="389" d="M328 111l8 -19q-69 -56 -115.5 -79.5t-89.5 -23.5q-54 0 -85 33t-31 91q0 50 19 124.5t41 111.5q29 48 97.5 90.5t117.5 42.5q38 0 61 -21.5t23 -56.5q0 -91 -124 -145q-43 -19 -69 -25l-82 -20q-8 -46 -8 -81q0 -45 20.5 -71t55.5 -26q56 0 137 58zM113 274l-9 -37 q70 16 109 35t63 51t24 65q0 24 -13 38t-35 14q-42 0 -73 -28q-41 -37 -66 -138zM150 518l153 151q18 18 33 18t26.5 -9.5t11.5 -21.5q0 -20 -28 -37l-162 -101h-34z" />
<glyph unicode="e&#x302;" horiz-adv-x="389" d="M328 111l8 -19q-69 -56 -115.5 -79.5t-89.5 -23.5q-54 0 -85 33t-31 91q0 50 19 124.5t41 111.5q29 48 97.5 90.5t117.5 42.5q38 0 61 -21.5t23 -56.5q0 -91 -124 -145q-43 -19 -69 -25l-82 -20q-8 -46 -8 -81q0 -45 20.5 -71t55.5 -26q56 0 137 58zM113 274l-9 -37 q70 16 109 35t63 51t24 65q0 24 -13 38t-35 14q-42 0 -73 -28q-41 -37 -66 -138zM290 679l88 -169h-36l-82 104l-137 -104h-39l157 169h49z" />
<glyph unicode="e&#x308;" horiz-adv-x="389" d="M328 111l8 -19q-69 -56 -115.5 -79.5t-89.5 -23.5q-54 0 -85 33t-31 91q0 50 19 124.5t41 111.5q29 48 97.5 90.5t117.5 42.5q38 0 61 -21.5t23 -56.5q0 -91 -124 -145q-43 -19 -69 -25l-82 -20q-8 -46 -8 -81q0 -45 20.5 -71t55.5 -26q56 0 137 58zM113 274l-9 -37 q70 16 109 35t63 51t24 65q0 24 -13 38t-35 14q-42 0 -73 -28q-41 -37 -66 -138zM156 637q19 0 34.5 -15t15.5 -34q0 -20 -15.5 -35.5t-34.5 -15.5t-34.5 15.5t-15.5 35.5q0 19 15 34t35 15zM356 637q19 0 34.5 -15t15.5 -34q0 -20 -15.5 -35.5t-34.5 -15.5t-34.5 15.5 t-15.5 35.5q0 19 15 34t35 15z" />
<glyph unicode="i&#x300;" horiz-adv-x="278" d="M34 388l28 20q105 74 134 74q25 0 25 -26q0 -12 -6 -36l-77 -304q-7 -29 -7 -40q0 -20 13 -20q15 0 61 30l26 17l10 -18q-73 -55 -106.5 -74.5t-53.5 -19.5q-30 0 -30 39q0 27 13 77l66 240q8 28 8 44q0 21 -17 21q-12 0 -48 -23l-32 -21zM249 518l-162 101 q-28 17 -28 37q0 13 11.5 22t26.5 9q13 0 33 -18l153 -151h-34z" />
<glyph unicode="i&#x301;" horiz-adv-x="278" d="M34 388l28 20q105 74 134 74q25 0 25 -26q0 -12 -6 -36l-77 -304q-7 -29 -7 -40q0 -20 13 -20q15 0 61 30l26 17l10 -18q-73 -55 -106.5 -74.5t-53.5 -19.5q-30 0 -30 39q0 27 13 77l66 240q8 28 8 44q0 21 -17 21q-12 0 -48 -23l-32 -21zM95 518l153 151q18 18 33 18 t26.5 -9.5t11.5 -21.5q0 -20 -28 -37l-162 -101h-34z" />
<glyph unicode="i&#x302;" horiz-adv-x="278" d="M34 388l28 20q105 74 134 74q25 0 25 -26q0 -12 -6 -36l-77 -304q-7 -29 -7 -40q0 -20 13 -20q15 0 61 30l26 17l10 -18q-73 -55 -106.5 -74.5t-53.5 -19.5q-30 0 -30 39q0 27 13 77l66 240q8 28 8 44q0 21 -17 21q-12 0 -48 -23l-32 -21zM235 679l88 -169h-36l-82 104 l-137 -104h-39l157 169h49z" />
<glyph unicode="i&#x308;" horiz-adv-x="278" d="M34 388l28 20q105 74 134 74q25 0 25 -26q0 -12 -6 -36l-77 -304q-7 -29 -7 -40q0 -20 13 -20q15 0 61 30l26 17l10 -18q-73 -55 -106.5 -74.5t-53.5 -19.5q-30 0 -30 39q0 27 13 77l66 240q8 28 8 44q0 21 -17 21q-12 0 -48 -23l-32 -21zM101 637q19 0 34.5 -15 t15.5 -34q0 -20 -15.5 -35.5t-34.5 -15.5t-34.5 15.5t-15.5 35.5q0 19 15 34t35 15zM301 637q19 0 34.5 -15t15.5 -34q0 -20 -15.5 -35.5t-34.5 -15.5t-34.5 15.5t-15.5 35.5q0 19 15 34t35 15z" />
<glyph unicode="n&#x303;" d="M24 388l28 20q104 74 133 74q23 0 23 -33q0 -14 -6 -41l-38 -161q69 97 118 142q44 41 91.5 67t78.5 26t31 -36q0 -28 -11 -74l-66 -276q-2 -8 -2 -20q0 -20 13 -20q15 0 61 30l26 17l10 -18q-73 -55 -106.5 -74.5t-53.5 -19.5q-30 0 -30 40q0 23 13 76l52 212 q11 44 11 71q0 24 -17 24q-34 0 -84 -41.5t-90 -104.5q-34 -51 -53 -108t-33 -152q-26 -5 -70 -17l-7 11q31 107 56.5 228t25.5 159q0 25 -18 25q-7 0 -47 -25l-32 -21zM204 535h-29q15 55 38 79t60 24q27 0 63 -14l60 -24q12 -5 27 -5t25.5 9t25.5 34h28q-9 -49 -34.5 -76 t-62.5 -27q-23 0 -64 16l-38 15l-2 1q-3 0 -7 3q-22 9 -38 9q-19 0 -30 -9.5t-22 -34.5z" />
<glyph unicode="o&#x300;" horiz-adv-x="444" d="M278 482q62 0 97.5 -40t35.5 -111q0 -76 -30 -153t-76 -121q-73 -68 -160 -68q-62 0 -95 42t-33 121q0 92 32.5 165t93.5 116q69 49 135 49zM241 444q-40 0 -60 -17q-37 -30 -62.5 -110.5t-25.5 -165.5q0 -59 24 -91.5t68 -32.5q47 0 75 33q33 40 54 111.5t21 143.5 q0 129 -94 129zM332 518l-162 101q-28 17 -28 37q0 13 11.5 22t26.5 9q13 0 33 -18l153 -151h-34z" />
<glyph unicode="o&#x301;" horiz-adv-x="444" d="M278 482q62 0 97.5 -40t35.5 -111q0 -76 -30 -153t-76 -121q-73 -68 -160 -68q-62 0 -95 42t-33 121q0 92 32.5 165t93.5 116q69 49 135 49zM241 444q-40 0 -60 -17q-37 -30 -62.5 -110.5t-25.5 -165.5q0 -59 24 -91.5t68 -32.5q47 0 75 33q33 40 54 111.5t21 143.5 q0 129 -94 129zM178 518l153 151q18 18 33 18t26.5 -9.5t11.5 -21.5q0 -20 -28 -37l-162 -101h-34z" />
<glyph unicode="o&#x302;" horiz-adv-x="444" d="M278 482q62 0 97.5 -40t35.5 -111q0 -76 -30 -153t-76 -121q-73 -68 -160 -68q-62 0 -95 42t-33 121q0 92 32.5 165t93.5 116q69 49 135 49zM241 444q-40 0 -60 -17q-37 -30 -62.5 -110.5t-25.5 -165.5q0 -59 24 -91.5t68 -32.5q47 0 75 33q33 40 54 111.5t21 143.5 q0 129 -94 129zM318 679l88 -169h-36l-82 104l-137 -104h-39l157 169h49z" />
<glyph unicode="o&#x303;" horiz-adv-x="444" d="M278 482q62 0 97.5 -40t35.5 -111q0 -76 -30 -153t-76 -121q-73 -68 -160 -68q-62 0 -95 42t-33 121q0 92 32.5 165t93.5 116q69 49 135 49zM241 444q-40 0 -60 -17q-37 -30 -62.5 -110.5t-25.5 -165.5q0 -59 24 -91.5t68 -32.5q47 0 75 33q33 40 54 111.5t21 143.5 q0 129 -94 129zM148 535h-29q15 55 38 79t60 24q27 0 63 -14l60 -24q12 -5 27 -5t25.5 9t25.5 34h28q-9 -49 -34.5 -76t-62.5 -27q-23 0 -64 16l-38 15l-2 1q-3 0 -7 3q-22 9 -38 9q-19 0 -30 -9.5t-22 -34.5z" />
<glyph unicode="o&#x308;" horiz-adv-x="444" d="M278 482q62 0 97.5 -40t35.5 -111q0 -76 -30 -153t-76 -121q-73 -68 -160 -68q-62 0 -95 42t-33 121q0 92 32.5 165t93.5 116q69 49 135 49zM241 444q-40 0 -60 -17q-37 -30 -62.5 -110.5t-25.5 -165.5q0 -59 24 -91.5t68 -32.5q47 0 75 33q33 40 54 111.5t21 143.5 q0 129 -94 129zM184 637q19 0 34.5 -15t15.5 -34q0 -20 -15.5 -35.5t-34.5 -15.5t-34.5 15.5t-15.5 35.5q0 19 15 34t35 15zM384 637q19 0 34.5 -15t15.5 -34q0 -20 -15.5 -35.5t-34.5 -15.5t-34.5 15.5t-15.5 35.5q0 19 15 34t35 15z" />
<glyph unicode="u&#x300;" d="M333 97l37 142q-63 -103 -142 -176.5t-126 -73.5q-15 0 -25 12t-10 29q0 29 4 47l63 297q2 8 2 18q0 8 -5 14t-12 6q-12 0 -48 -23l-32 -21l-7 20l28 20q103 74 132 74q23 0 23 -31q0 -16 -5 -43l-57 -271q-7 -35 -7 -52q0 -26 13 -26q30 0 81.5 47t95.5 115 q48 73 71 193l10 51l68 17l7 -9q-45 -174 -84 -357l-1 -6q-5 -25 -5 -34q0 -17 13 -17q21 0 61 27l26 17l10 -18q-73 -55 -106.5 -74.5t-53.5 -19.5q-30 0 -30 40q0 28 11 66zM388 518l-162 101q-28 17 -28 37q0 13 11.5 22t26.5 9q13 0 33 -18l153 -151h-34z" />
<glyph unicode="u&#x301;" d="M333 97l37 142q-63 -103 -142 -176.5t-126 -73.5q-15 0 -25 12t-10 29q0 29 4 47l63 297q2 8 2 18q0 8 -5 14t-12 6q-12 0 -48 -23l-32 -21l-7 20l28 20q103 74 132 74q23 0 23 -31q0 -16 -5 -43l-57 -271q-7 -35 -7 -52q0 -26 13 -26q30 0 81.5 47t95.5 115 q48 73 71 193l10 51l68 17l7 -9q-45 -174 -84 -357l-1 -6q-5 -25 -5 -34q0 -17 13 -17q21 0 61 27l26 17l10 -18q-73 -55 -106.5 -74.5t-53.5 -19.5q-30 0 -30 40q0 28 11 66zM234 518l153 151q18 18 33 18t26.5 -9.5t11.5 -21.5q0 -20 -28 -37l-162 -101h-34z" />
<glyph unicode="u&#x302;" d="M333 97l37 142q-63 -103 -142 -176.5t-126 -73.5q-15 0 -25 12t-10 29q0 29 4 47l63 297q2 8 2 18q0 8 -5 14t-12 6q-12 0 -48 -23l-32 -21l-7 20l28 20q103 74 132 74q23 0 23 -31q0 -16 -5 -43l-57 -271q-7 -35 -7 -52q0 -26 13 -26q30 0 81.5 47t95.5 115 q48 73 71 193l10 51l68 17l7 -9q-45 -174 -84 -357l-1 -6q-5 -25 -5 -34q0 -17 13 -17q21 0 61 27l26 17l10 -18q-73 -55 -106.5 -74.5t-53.5 -19.5q-30 0 -30 40q0 28 11 66zM374 679l88 -169h-36l-82 104l-137 -104h-39l157 169h49z" />
<glyph unicode="u&#x308;" d="M333 97l37 142q-63 -103 -142 -176.5t-126 -73.5q-15 0 -25 12t-10 29q0 29 4 47l63 297q2 8 2 18q0 8 -5 14t-12 6q-12 0 -48 -23l-32 -21l-7 20l28 20q103 74 132 74q23 0 23 -31q0 -16 -5 -43l-57 -271q-7 -35 -7 -52q0 -26 13 -26q30 0 81.5 47t95.5 115 q48 73 71 193l10 51l68 17l7 -9q-45 -174 -84 -357l-1 -6q-5 -25 -5 -34q0 -17 13 -17q21 0 61 27l26 17l10 -18q-73 -55 -106.5 -74.5t-53.5 -19.5q-30 0 -30 40q0 28 11 66zM240 637q19 0 34.5 -15t15.5 -34q0 -20 -15.5 -35.5t-34.5 -15.5t-34.5 15.5t-15.5 35.5 q0 19 15 34t35 15zM440 637q19 0 34.5 -15t15.5 -34q0 -20 -15.5 -35.5t-34.5 -15.5t-34.5 15.5t-15.5 35.5q0 19 15 34t35 15z" />
<glyph unicode="y&#x301;" horiz-adv-x="500" d="M-7 -180l48 34l10 -4q-2 -18 -2 -22q0 -26 18 -44t44 -18q53 0 93 58.5t78 191.5l49 171q-56 -85 -112 -141.5t-84 -56.5q-19 0 -31 20t-12 51l1 40l17 243q1 8 1 15q0 52 -22 52q-6 0 -21 -9l-4 -3l-50 -30l-11 18l82 56q58 40 75 40q24 0 24 -63q0 -35 -4 -97l-15 -194 l-1 -13v-4q0 -17 6 -30.5t14 -13.5q16 0 48 28.5t58 66.5q59 88 80 169l35 132q31 3 74 19l11 -9l-141 -440q-44 -139 -120 -224t-155 -85q-34 0 -58 23t-24 55q0 11 1 18zM206 518l153 151q18 18 33 18t26.5 -9.5t11.5 -21.5q0 -20 -28 -37l-162 -101h-34z" />
<glyph unicode="y&#x308;" horiz-adv-x="500" d="M-7 -180l48 34l10 -4q-2 -18 -2 -22q0 -26 18 -44t44 -18q53 0 93 58.5t78 191.5l49 171q-56 -85 -112 -141.5t-84 -56.5q-19 0 -31 20t-12 51l1 40l17 243q1 8 1 15q0 52 -22 52q-6 0 -21 -9l-4 -3l-50 -30l-11 18l82 56q58 40 75 40q24 0 24 -63q0 -35 -4 -97l-15 -194 l-1 -13v-4q0 -17 6 -30.5t14 -13.5q16 0 48 28.5t58 66.5q59 88 80 169l35 132q31 3 74 19l11 -9l-141 -440q-44 -139 -120 -224t-155 -85q-34 0 -58 23t-24 55q0 11 1 18zM212 637q19 0 34.5 -15t15.5 -34q0 -20 -15.5 -35.5t-34.5 -15.5t-34.5 15.5t-15.5 35.5q0 19 15 34 t35 15zM412 637q19 0 34.5 -15t15.5 -34q0 -20 -15.5 -35.5t-34.5 -15.5t-34.5 15.5t-15.5 35.5q0 19 15 34t35 15z" />
<glyph unicode="A&#x304;" horiz-adv-x="722" d="M462 705h46l87 -625q6 -33 13 -40t43 -12l26 -3v-28q-102 3 -122 3t-122 -3v28l44 3q43 3 43 27q0 6 -2 22q0 2 -0.5 4t-1.5 3v2v3l-25 188h-246l-102 -175q-26 -45 -26 -55q0 -7 9.5 -12.5t21.5 -6.5l52 -3v-28q-86 3 -107 3q-20 0 -112 -3v30l20 5q26 6 43.5 22 t44.5 58zM449 601l-179 -288h216zM635 799l-11 -51h-301l11 51h301z" />
<glyph unicode="a&#x304;" horiz-adv-x="444" d="M402 472l-92 -379q-1 -3 -1 -11q0 -23 15 -23q19 0 62 36q1 1 13 11l7 -21q-113 -94 -146 -94q-24 0 -24 35q0 26 6 51l29 127q-73 -103 -135 -159q-63 -56 -98 -56q-14 0 -24 22.5t-10 55.5q0 59 21 140t54 147q19 37 46 62t74 48q37 18 75 18q33 0 85 -19l33 18z M319 414q-56 19 -85 19q-36 0 -56.5 -16t-38.5 -57q-26 -60 -44.5 -136.5t-18.5 -124.5q0 -40 18 -40q24 0 65.5 39.5t84.5 102.5q26 39 42.5 85.5t32.5 127.5zM442 589l-11 -51h-301l11 51h301z" />
<glyph unicode="A&#x306;" horiz-adv-x="722" d="M462 705h46l87 -625q6 -33 13 -40t43 -12l26 -3v-28q-102 3 -122 3t-122 -3v28l44 3q43 3 43 27q0 6 -2 22q0 2 -0.5 4t-1.5 3v2v3l-25 188h-246l-102 -175q-26 -45 -26 -55q0 -7 9.5 -12.5t21.5 -6.5l52 -3v-28q-86 3 -107 3q-20 0 -112 -3v30l20 5q26 6 43.5 22 t44.5 58zM449 601l-179 -288h216zM341 887h29q9 -100 109 -100q45 0 75 22.5t59 77.5h29q-18 -66 -45 -100q-47 -59 -125 -59q-79 0 -111 58q-20 36 -20 101z" />
<glyph unicode="a&#x306;" horiz-adv-x="444" d="M402 472l-92 -379q-1 -3 -1 -11q0 -23 15 -23q19 0 62 36q1 1 13 11l7 -21q-113 -94 -146 -94q-24 0 -24 35q0 26 6 51l29 127q-73 -103 -135 -159q-63 -56 -98 -56q-14 0 -24 22.5t-10 55.5q0 59 21 140t54 147q19 37 46 62t74 48q37 18 75 18q33 0 85 -19l33 18z M319 414q-56 19 -85 19q-36 0 -56.5 -16t-38.5 -57q-26 -60 -44.5 -136.5t-18.5 -124.5q0 -40 18 -40q24 0 65.5 39.5t84.5 102.5q26 39 42.5 85.5t32.5 127.5zM148 677h29q9 -100 109 -100q45 0 75 22.5t59 77.5h29q-18 -66 -45 -100q-47 -59 -125 -59q-79 0 -111 58 q-20 36 -20 101z" />
<glyph unicode="A&#x328;" horiz-adv-x="722" d="M677 25v-28q-7 -1 -17 -12q-34 -41 -34 -70q0 -20 11 -33t27 -13q23 0 50 34l14 -4q-48 -86 -105 -86q-24 0 -38.5 18t-14.5 47q0 27 13 51t47 61l7 8q-59 2 -82 2q-20 0 -122 -3v28l44 3q43 3 43 27q0 6 -2 22q0 2 -0.5 4t-1.5 3v2v3l-25 188h-246l-102 -175 q-26 -45 -26 -55q0 -7 9.5 -12.5t21.5 -6.5l52 -3v-28q-86 3 -107 3q-20 0 -112 -3v30l20 5q26 6 43.5 22t44.5 58l373 593h46l87 -625q6 -33 13 -40t43 -12zM449 601l-179 -288h216z" />
<glyph unicode="a&#x328;" horiz-adv-x="444" d="M402 472l-92 -379q-1 -3 -1 -11q0 -23 15 -23q19 0 62 36q1 1 13 11l7 -21q-51 -39 -97 -93q-40 -47 -40 -77q0 -20 10.5 -33t27.5 -13q22 0 51 34l14 -4q-47 -86 -105 -86q-25 0 -39.5 18t-14.5 47q0 27 13 51t48 61l4 5q-11 -4 -17 -4q-25 0 -25 35q0 26 6 51l29 127 q-73 -103 -135 -159q-63 -56 -98 -56q-14 0 -24 22.5t-10 55.5q0 59 21 140t54 147q19 37 46 62t74 48q37 18 75 18q33 0 85 -19l33 18zM319 414q-56 19 -85 19q-36 0 -56.5 -16t-38.5 -57q-26 -60 -44.5 -136.5t-18.5 -124.5q0 -40 18 -40q24 0 65.5 39.5t84.5 102.5 q26 39 42.5 85.5t32.5 127.5z" />
<glyph unicode="C&#x301;" horiz-adv-x="667" d="M597 519v84q-78 50 -179 50q-120 0 -190 -72q-95 -97 -95 -272q0 -133 62.5 -203.5t180.5 -70.5q58 0 105.5 16t118.5 59l10 -7l-10 -36q-67 -46 -126 -65.5t-131 -19.5q-143 0 -220.5 78.5t-77.5 223.5q0 230 177 350q107 72 234 72q88 0 195 -41q-20 -66 -27 -146h-27z M324 728l153 151q18 18 33 18t26.5 -9.5t11.5 -21.5q0 -20 -28 -37l-162 -101h-34z" />
<glyph unicode="c&#x301;" horiz-adv-x="407" d="M342 330v60q0 18 -23.5 30.5t-57.5 12.5q-45 0 -76 -24q-37 -29 -60.5 -99t-23.5 -151q0 -119 85 -119q48 0 145 65l15 10l8 -20l-50 -41q-79 -65 -157 -65q-122 0 -122 147q0 79 26 150.5t67 108.5q42 38 91.5 62.5t83.5 24.5q58 0 96 -24q-13 -37 -24 -128h-23z M159 518l153 151q18 18 33 18t26.5 -9.5t11.5 -21.5q0 -20 -28 -37l-162 -101h-34z" />
<glyph unicode="C&#x302;" horiz-adv-x="667" d="M597 519v84q-78 50 -179 50q-120 0 -190 -72q-95 -97 -95 -272q0 -133 62.5 -203.5t180.5 -70.5q58 0 105.5 16t118.5 59l10 -7l-10 -36q-67 -46 -126 -65.5t-131 -19.5q-143 0 -220.5 78.5t-77.5 223.5q0 230 177 350q107 72 234 72q88 0 195 -41q-20 -66 -27 -146h-27z M464 889l88 -169h-36l-82 104l-137 -104h-39l157 169h49z" />
<glyph unicode="c&#x302;" horiz-adv-x="407" d="M342 330v60q0 18 -23.5 30.5t-57.5 12.5q-45 0 -76 -24q-37 -29 -60.5 -99t-23.5 -151q0 -119 85 -119q48 0 145 65l15 10l8 -20l-50 -41q-79 -65 -157 -65q-122 0 -122 147q0 79 26 150.5t67 108.5q42 38 91.5 62.5t83.5 24.5q58 0 96 -24q-13 -37 -24 -128h-23z M299 679l88 -169h-36l-82 104l-137 -104h-39l157 169h49z" />
<glyph unicode="C&#x307;" horiz-adv-x="667" d="M597 519v84q-78 50 -179 50q-120 0 -190 -72q-95 -97 -95 -272q0 -133 62.5 -203.5t180.5 -70.5q58 0 105.5 16t118.5 59l10 -7l-10 -36q-67 -46 -126 -65.5t-131 -19.5q-143 0 -220.5 78.5t-77.5 223.5q0 230 177 350q107 72 234 72q88 0 195 -41q-20 -66 -27 -146h-27z M432 855q21 0 37 -16t16 -37q0 -22 -16 -38.5t-38 -16.5t-38 16.5t-16 38.5q0 21 16.5 37t38.5 16z" />
<glyph unicode="c&#x307;" horiz-adv-x="407" d="M342 330v60q0 18 -23.5 30.5t-57.5 12.5q-45 0 -76 -24q-37 -29 -60.5 -99t-23.5 -151q0 -119 85 -119q48 0 145 65l15 10l8 -20l-50 -41q-79 -65 -157 -65q-122 0 -122 147q0 79 26 150.5t67 108.5q42 38 91.5 62.5t83.5 24.5q58 0 96 -24q-13 -37 -24 -128h-23z M267 645q21 0 37 -16t16 -37q0 -22 -16 -38.5t-38 -16.5t-38 16.5t-16 38.5q0 21 16.5 37t38.5 16z" />
<glyph unicode="C&#x30c;" horiz-adv-x="667" d="M597 519v84q-78 50 -179 50q-120 0 -190 -72q-95 -97 -95 -272q0 -133 62.5 -203.5t180.5 -70.5q58 0 105.5 16t118.5 59l10 -7l-10 -36q-67 -46 -126 -65.5t-131 -19.5q-143 0 -220.5 78.5t-77.5 223.5q0 230 177 350q107 72 234 72q88 0 195 -41q-20 -66 -27 -146h-27z M448 720h-46l-96 169h37l90 -105l142 105h36z" />
<glyph unicode="c&#x30c;" horiz-adv-x="407" d="M342 330v60q0 18 -23.5 30.5t-57.5 12.5q-45 0 -76 -24q-37 -29 -60.5 -99t-23.5 -151q0 -119 85 -119q48 0 145 65l15 10l8 -20l-50 -41q-79 -65 -157 -65q-122 0 -122 147q0 79 26 150.5t67 108.5q42 38 91.5 62.5t83.5 24.5q58 0 96 -24q-13 -37 -24 -128h-23z M283 510h-46l-96 169h37l90 -105l142 105h36z" />
<glyph unicode="D&#x30c;" horiz-adv-x="778" d="M33 23l8 2q41 8 45 30l87 504q9 54 9 76q0 26 -35 27l-53 2l3 28q101 -3 113 -3h10l204 3h7q149 0 219 -50q91 -64 91 -211q0 -124 -67.5 -230.5t-184.5 -166.5q-74 -37 -173 -37q-26 0 -46 1q-86 2 -94 2h-32h-23l-93 -3zM268 650l-96 -557q-4 -24 -4 -37 q102 -15 161 -15q133 0 214 83q106 108 106 291q0 123 -64.5 181.5t-200.5 58.5q-22 0 -69 -3q-12 0 -25.5 -1t-21.5 -1zM504 720h-46l-96 169h37l90 -105l142 105h36z" />
<glyph unicode="d&#x30c;" horiz-adv-x="577" d="M483 722l-126 -594q-8 -33 -8 -46q0 -23 14 -23q15 0 39 17l44 31l10 -19l-81 -60q-50 -37 -75 -37q-26 0 -26 33q0 38 16 102l23 91q-50 -75 -81.5 -113t-72.5 -71q-55 -44 -98 -44q-44 0 -44 97q0 63 14 128.5t37 108.5q35 65 96 112t113 47q35 0 82 -14l28 154 q2 14 2 24q0 24 -34 24h-48l4 21q94 9 160 42zM337 351l12 59q-45 23 -106 23q-39 0 -59 -15q-37 -28 -66 -126.5t-29 -193.5q0 -39 25 -39q14 0 41 16t53 41q100 96 129 235zM628 733l9 -18q-69 -132 -141 -214l-32 -13l-7 9q68 106 82 211q35 5 89 25z" />
<glyph unicode="E&#x304;" horiz-adv-x="611" d="M221 334l-43 -253q-2 -18 -2 -31v-4q80 -7 132 -7q102 0 147 9q16 4 24.5 15t16.5 38l16 60h27l-5 -26q-13 -73 -16 -99l-4 -36l-33 -1q-66 -2 -72 -2h-10l-215 3q-51 0 -113 -2l-41 -1l5 26q33 5 45 11.5t15 20.5l87 504q9 54 9 76q0 26 -35 27l-54 2l3 28l45 -1 q51 -2 115 -2q69 0 78 1l120 1q24 1 38 1q37 0 69 -3q-17 -57 -21 -152h-24l-8 89q-2 24 -104 24q-22 0 -86 -2l-47 -2q-5 -10 -9 -32l-42 -238h37q98 0 219 6l4 -7l-19 -45l-26 1q-72 3 -106 3h-117zM560 799l-11 -51h-301l11 51h301z" />
<glyph unicode="e&#x304;" horiz-adv-x="389" d="M328 111l8 -19q-69 -56 -115.5 -79.5t-89.5 -23.5q-54 0 -85 33t-31 91q0 50 19 124.5t41 111.5q29 48 97.5 90.5t117.5 42.5q38 0 61 -21.5t23 -56.5q0 -91 -124 -145q-43 -19 -69 -25l-82 -20q-8 -46 -8 -81q0 -45 20.5 -71t55.5 -26q56 0 137 58zM113 274l-9 -37 q70 16 109 35t63 51t24 65q0 24 -13 38t-35 14q-42 0 -73 -28q-41 -37 -66 -138zM414 589l-11 -51h-301l11 51h301z" />
<glyph unicode="E&#x306;" horiz-adv-x="611" d="M221 334l-43 -253q-2 -18 -2 -31v-4q80 -7 132 -7q102 0 147 9q16 4 24.5 15t16.5 38l16 60h27l-5 -26q-13 -73 -16 -99l-4 -36l-33 -1q-66 -2 -72 -2h-10l-215 3q-51 0 -113 -2l-41 -1l5 26q33 5 45 11.5t15 20.5l87 504q9 54 9 76q0 26 -35 27l-54 2l3 28l45 -1 q51 -2 115 -2q69 0 78 1l120 1q24 1 38 1q37 0 69 -3q-17 -57 -21 -152h-24l-8 89q-2 24 -104 24q-22 0 -86 -2l-47 -2q-5 -10 -9 -32l-42 -238h37q98 0 219 6l4 -7l-19 -45l-26 1q-72 3 -106 3h-117zM266 887h29q9 -100 109 -100q45 0 75 22.5t59 77.5h29q-18 -66 -45 -100 q-47 -59 -125 -59q-79 0 -111 58q-20 36 -20 101z" />
<glyph unicode="e&#x306;" horiz-adv-x="389" d="M328 111l8 -19q-69 -56 -115.5 -79.5t-89.5 -23.5q-54 0 -85 33t-31 91q0 50 19 124.5t41 111.5q29 48 97.5 90.5t117.5 42.5q38 0 61 -21.5t23 -56.5q0 -91 -124 -145q-43 -19 -69 -25l-82 -20q-8 -46 -8 -81q0 -45 20.5 -71t55.5 -26q56 0 137 58zM113 274l-9 -37 q70 16 109 35t63 51t24 65q0 24 -13 38t-35 14q-42 0 -73 -28q-41 -37 -66 -138zM120 677h29q9 -100 109 -100q45 0 75 22.5t59 77.5h29q-18 -66 -45 -100q-47 -59 -125 -59q-79 0 -111 58q-20 36 -20 101z" />
<glyph unicode="E&#x307;" horiz-adv-x="611" d="M221 334l-43 -253q-2 -18 -2 -31v-4q80 -7 132 -7q102 0 147 9q16 4 24.5 15t16.5 38l16 60h27l-5 -26q-13 -73 -16 -99l-4 -36l-33 -1q-66 -2 -72 -2h-10l-215 3q-51 0 -113 -2l-41 -1l5 26q33 5 45 11.5t15 20.5l87 504q9 54 9 76q0 26 -35 27l-54 2l3 28l45 -1 q51 -2 115 -2q69 0 78 1l120 1q24 1 38 1q37 0 69 -3q-17 -57 -21 -152h-24l-8 89q-2 24 -104 24q-22 0 -86 -2l-47 -2q-5 -10 -9 -32l-42 -238h37q98 0 219 6l4 -7l-19 -45l-26 1q-72 3 -106 3h-117zM404 855q21 0 37 -16t16 -37q0 -22 -16 -38.5t-38 -16.5t-38 16.5 t-16 38.5q0 21 16.5 37t38.5 16z" />
<glyph unicode="e&#x307;" horiz-adv-x="389" d="M328 111l8 -19q-69 -56 -115.5 -79.5t-89.5 -23.5q-54 0 -85 33t-31 91q0 50 19 124.5t41 111.5q29 48 97.5 90.5t117.5 42.5q38 0 61 -21.5t23 -56.5q0 -91 -124 -145q-43 -19 -69 -25l-82 -20q-8 -46 -8 -81q0 -45 20.5 -71t55.5 -26q56 0 137 58zM113 274l-9 -37 q70 16 109 35t63 51t24 65q0 24 -13 38t-35 14q-42 0 -73 -28q-41 -37 -66 -138zM258 645q21 0 37 -16t16 -37q0 -22 -16 -38.5t-38 -16.5t-38 16.5t-16 38.5q0 21 16.5 37t38.5 16z" />
<glyph unicode="E&#x328;" horiz-adv-x="611" d="M221 334l-43 -253q-2 -18 -2 -31v-4q80 -7 132 -7q102 0 147 9q16 4 24.5 15t16.5 38l16 60h27l-5 -26q-13 -73 -16 -99l-4 -36q-22 -1 -42 -30q-22 -31 -22 -55q0 -20 11 -33t27 -13q23 0 50 34l14 -4q-48 -86 -105 -86q-24 0 -38.5 18t-14.5 47q0 27 13 51t47 61l7 8 q-27 -1 -52 -1h-10l-215 3q-51 0 -113 -2l-41 -1l5 26q33 5 45 11.5t15 20.5l87 504q9 54 9 76q0 26 -35 27l-54 2l3 28l45 -1q51 -2 115 -2q69 0 78 1l120 1q24 1 38 1q37 0 69 -3q-17 -57 -21 -152h-24l-8 89q-2 24 -104 24q-22 0 -86 -2l-47 -2q-5 -10 -9 -32l-42 -238 h37q98 0 219 6l4 -7l-19 -45l-26 1q-72 3 -106 3h-117z" />
<glyph unicode="e&#x328;" horiz-adv-x="389" d="M328 111l8 -19q-98 -77 -122 -101q-39 -41 -39 -76q0 -20 10.5 -33t27.5 -13q23 0 50 34l14 -4q-47 -86 -104 -86q-25 0 -39.5 18t-14.5 47q0 27 13 51t48 61l7 9q-31 -10 -55 -10q-55 0 -86 33t-31 91q0 50 19 124.5t41 111.5q29 48 97.5 90.5t117.5 42.5q38 0 61 -21.5 t23 -56.5q0 -91 -124 -145q-43 -19 -69 -25l-82 -20q-8 -46 -8 -81q0 -45 20.5 -71t55.5 -26q56 0 137 58zM113 274l-9 -37q70 16 109 35t63 51t24 65q0 24 -13 38t-35 14q-42 0 -73 -28q-41 -37 -66 -138z" />
<glyph unicode="E&#x30c;" horiz-adv-x="611" d="M221 334l-43 -253q-2 -18 -2 -31v-4q80 -7 132 -7q102 0 147 9q16 4 24.5 15t16.5 38l16 60h27l-5 -26q-13 -73 -16 -99l-4 -36l-33 -1q-66 -2 -72 -2h-10l-215 3q-51 0 -113 -2l-41 -1l5 26q33 5 45 11.5t15 20.5l87 504q9 54 9 76q0 26 -35 27l-54 2l3 28l45 -1 q51 -2 115 -2q69 0 78 1l120 1q24 1 38 1q37 0 69 -3q-17 -57 -21 -152h-24l-8 89q-2 24 -104 24q-22 0 -86 -2l-47 -2q-5 -10 -9 -32l-42 -238h37q98 0 219 6l4 -7l-19 -45l-26 1q-72 3 -106 3h-117zM420 720h-46l-96 169h37l90 -105l142 105h36z" />
<glyph unicode="e&#x30c;" horiz-adv-x="389" d="M328 111l8 -19q-69 -56 -115.5 -79.5t-89.5 -23.5q-54 0 -85 33t-31 91q0 50 19 124.5t41 111.5q29 48 97.5 90.5t117.5 42.5q38 0 61 -21.5t23 -56.5q0 -91 -124 -145q-43 -19 -69 -25l-82 -20q-8 -46 -8 -81q0 -45 20.5 -71t55.5 -26q56 0 137 58zM113 274l-9 -37 q70 16 109 35t63 51t24 65q0 24 -13 38t-35 14q-42 0 -73 -28q-41 -37 -66 -138zM274 510h-46l-96 169h37l90 -105l142 105h36z" />
<glyph unicode="G&#x306;" horiz-adv-x="722" d="M528 60l18 93q7 34 7 59q0 18 -14 23.5t-70 8.5l-34 2l5 28q52 -5 129 -5q76 0 125 5l-2 -28l-32 -6q-23 -4 -27 -21l-23 -135q-1 -4 -1 -11q0 -8 3 -29l-4 -7q-23 -4 -56 -15l-30 -10q-87 -30 -167 -30q-147 0 -226 76t-79 216q0 229 179 358q104 74 237 74 q96 0 209 -41q-20 -66 -27 -146h-27v84q-78 50 -187 50q-124 0 -197 -74q-99 -99 -99 -282q0 -133 64 -201.5t188 -68.5q76 0 138 33zM347 887h29q9 -100 109 -100q45 0 75 22.5t59 77.5h29q-18 -66 -45 -100q-47 -59 -125 -59q-79 0 -111 58q-20 36 -20 101z" />
<glyph unicode="g&#x306;" horiz-adv-x="500" d="M405 380l1 -5q3 -23 3 -33q0 -67 -48 -122.5t-121 -73.5l-6 -8q-21 -27 -21 -38q0 -28 47 -65l60 -49q64 -52 64 -107q0 -62 -72.5 -108.5t-169.5 -46.5q-82 0 -130.5 32t-48.5 85q0 63 53 107q46 39 144 71q-21 18 -21 33q0 22 27 47l41 38q-11 -1 -30 -1 q-58 0 -90 32.5t-32 90.5q0 107 85 171q69 52 135 52q33 0 67 -13q31 -12 51 -45q66 0 102 9l3 -6l-9 -45q-31 -4 -50 -4q-17 0 -34 2zM253 -58l-77 59q-66 -19 -99 -46q-50 -42 -50 -100q0 -46 38.5 -74.5t100.5 -28.5t107 27.5t45 66.5q0 45 -65 96zM250 448 q-55 0 -89.5 -44.5t-34.5 -115.5q0 -120 93 -120q53 0 85.5 48t32.5 125q0 107 -87 107zM176 677h29q9 -100 109 -100q45 0 75 22.5t59 77.5h29q-18 -66 -45 -100q-47 -59 -125 -59q-79 0 -111 58q-20 36 -20 101z" />
<glyph unicode="G&#x307;" horiz-adv-x="722" d="M528 60l18 93q7 34 7 59q0 18 -14 23.5t-70 8.5l-34 2l5 28q52 -5 129 -5q76 0 125 5l-2 -28l-32 -6q-23 -4 -27 -21l-23 -135q-1 -4 -1 -11q0 -8 3 -29l-4 -7q-23 -4 -56 -15l-30 -10q-87 -30 -167 -30q-147 0 -226 76t-79 216q0 229 179 358q104 74 237 74 q96 0 209 -41q-20 -66 -27 -146h-27v84q-78 50 -187 50q-124 0 -197 -74q-99 -99 -99 -282q0 -133 64 -201.5t188 -68.5q76 0 138 33zM410 855q21 0 37 -16t16 -37q0 -22 -16 -38.5t-38 -16.5t-38 16.5t-16 38.5q0 21 16.5 37t38.5 16z" />
<glyph unicode="g&#x307;" horiz-adv-x="500" d="M405 380l1 -5q3 -23 3 -33q0 -67 -48 -122.5t-121 -73.5l-6 -8q-21 -27 -21 -38q0 -28 47 -65l60 -49q64 -52 64 -107q0 -62 -72.5 -108.5t-169.5 -46.5q-82 0 -130.5 32t-48.5 85q0 63 53 107q46 39 144 71q-21 18 -21 33q0 22 27 47l41 38q-11 -1 -30 -1 q-58 0 -90 32.5t-32 90.5q0 107 85 171q69 52 135 52q33 0 67 -13q31 -12 51 -45q66 0 102 9l3 -6l-9 -45q-31 -4 -50 -4q-17 0 -34 2zM253 -58l-77 59q-66 -19 -99 -46q-50 -42 -50 -100q0 -46 38.5 -74.5t100.5 -28.5t107 27.5t45 66.5q0 45 -65 96zM250 448 q-55 0 -89.5 -44.5t-34.5 -115.5q0 -120 93 -120q53 0 85.5 48t32.5 125q0 107 -87 107zM314 645q21 0 37 -16t16 -37q0 -22 -16 -38.5t-38 -16.5t-38 16.5t-16 38.5q0 21 16.5 37t38.5 16z" />
<glyph unicode="G&#x327;" horiz-adv-x="722" d="M528 60l18 93q7 34 7 59q0 18 -14 23.5t-70 8.5l-34 2l5 28q52 -5 129 -5q76 0 125 5l-2 -28l-32 -6q-23 -4 -27 -21l-23 -135q-1 -4 -1 -11q0 -8 3 -29l-4 -7q-23 -4 -56 -15l-30 -10q-87 -30 -167 -30q-147 0 -226 76t-79 216q0 229 179 358q104 74 237 74 q96 0 209 -41q-20 -66 -27 -146h-27v84q-78 50 -187 50q-124 0 -197 -74q-99 -99 -99 -282q0 -133 64 -201.5t188 -68.5q76 0 138 33zM336 -60l9 -18q-69 -132 -141 -214l-32 -13l-7 9q68 106 82 211q35 5 89 25z" />
<glyph unicode="g&#x327;" horiz-adv-x="500" d="M405 380l1 -5q3 -23 3 -33q0 -67 -48 -122.5t-121 -73.5l-6 -8q-21 -27 -21 -38q0 -28 47 -65l60 -49q64 -52 64 -107q0 -62 -72.5 -108.5t-169.5 -46.5q-82 0 -130.5 32t-48.5 85q0 63 53 107q46 39 144 71q-21 18 -21 33q0 22 27 47l41 38q-11 -1 -30 -1 q-58 0 -90 32.5t-32 90.5q0 107 85 171q69 52 135 52q33 0 67 -13q31 -12 51 -45q66 0 102 9l3 -6l-9 -45q-31 -4 -50 -4q-17 0 -34 2zM253 -58l-77 59q-66 -19 -99 -46q-50 -42 -50 -100q0 -46 38.5 -74.5t100.5 -28.5t107 27.5t45 66.5q0 45 -65 96zM250 448 q-55 0 -89.5 -44.5t-34.5 -115.5q0 -120 93 -120q53 0 85.5 48t32.5 125q0 107 -87 107zM233 508l-9 18q69 132 141 214l32 13l7 -9q-68 -106 -82 -211q-35 -5 -89 -25z" />
<glyph unicode="H&#x302;" horiz-adv-x="778" d="M221 385h370l30 174q9 54 9 76q0 26 -35 27l-48 2l3 28l63 -2q44 -1 80 -1l91 3h16l-3 -28l-36 -3q-29 -3 -37.5 -11t-13.5 -37l-92 -520q-4 -23 -4 -35q0 -29 36 -30l58 -3l-3 -28l-42 1q-86 2 -90 2q-5 0 -16 -0.5t-31.5 -1t-37.5 -0.5l-56 -1l4 28l50 3q31 3 37 14 q7 9 21 83l40 215l-61 1q-24 0 -53.5 0.5t-45.5 1t-24 0.5t-24 -0.5t-46 -1t-53 -0.5l-61 -1l-42 -247q-4 -25 -4 -35q0 -16 8 -22t28 -8l49 -3l-3 -28h-26l-97 3q-8 0 -19.5 -0.5t-31.5 -1t-39 -0.5l-42 -1l4 28l41 3q30 3 37.5 15.5t20.5 81.5l74 434q9 56 9 76 q0 26 -35 27l-47 2l3 28l64 -2q43 -1 77 -1l90 3h24l-3 -28l-42 -3q-28 -2 -37 -10.5t-14 -37.5zM523 889l88 -169h-36l-82 104l-137 -104h-39l157 169h49z" />
<glyph unicode="h&#x302;" horiz-adv-x="500" d="M236 722l-98 -457l20 25q55 70 98 106q102 86 158 86q29 0 29 -36q0 -26 -11 -74l-64 -256q-7 -26 -7 -40q0 -20 13 -20q15 0 61 30l26 17l10 -18q-73 -55 -106.5 -74.5t-53.5 -19.5q-30 0 -30 39q0 25 13 77l51 196q15 62 15 89q0 22 -22 22q-32 0 -94.5 -58.5 t-95.5 -119.5q-40 -74 -62 -229l-69 -16l-7 11q37 111 88 386l42 234q2 14 2 24q0 24 -34 24h-48l4 21q94 9 160 42zM381 889l88 -169h-36l-82 104l-137 -104h-39l157 169h49z" />
<glyph unicode="I&#x303;" horiz-adv-x="333" d="M103 664l3 28l64 -2q43 -1 78 -1l97 3h9l-3 -28l-35 -3q-29 -3 -37.5 -11t-13.5 -37l-89 -535q-2 -8 -2 -21q0 -15 8 -21t28 -8l52 -3l-3 -28h-32l-94 3l-94 -3h-32l3 28l36 3q30 2 38.5 16t19.5 81l72 434q9 51 9 77q0 25 -35 26zM120 745h-29q15 55 38 79t60 24 q27 0 63 -14l60 -24q12 -5 27 -5t25.5 9t25.5 34h28q-9 -49 -34.5 -76t-62.5 -27q-23 0 -64 16l-38 15l-2 1q-3 0 -7 3q-22 9 -38 9q-19 0 -30 -9.5t-22 -34.5z" />
<glyph unicode="i&#x303;" horiz-adv-x="278" d="M34 388l28 20q105 74 134 74q25 0 25 -26q0 -12 -6 -36l-77 -304q-7 -29 -7 -40q0 -20 13 -20q15 0 61 30l26 17l10 -18q-73 -55 -106.5 -74.5t-53.5 -19.5q-30 0 -30 39q0 27 13 77l66 240q8 28 8 44q0 21 -17 21q-12 0 -48 -23l-32 -21zM65 535h-29q15 55 38 79t60 24 q27 0 63 -14l60 -24q12 -5 27 -5t25.5 9t25.5 34h28q-9 -49 -34.5 -76t-62.5 -27q-23 0 -64 16l-38 15l-2 1q-2 0 -7 3q-22 9 -38 9q-19 0 -30 -9.5t-22 -34.5z" />
<glyph unicode="I&#x304;" horiz-adv-x="333" d="M103 664l3 28l64 -2q43 -1 78 -1l97 3h9l-3 -28l-35 -3q-29 -3 -37.5 -11t-13.5 -37l-89 -535q-2 -8 -2 -21q0 -15 8 -21t28 -8l52 -3l-3 -28h-32l-94 3l-94 -3h-32l3 28l36 3q30 2 38.5 16t19.5 81l72 434q9 51 9 77q0 25 -35 26zM414 799l-11 -51h-301l11 51h301z" />
<glyph unicode="i&#x304;" horiz-adv-x="278" d="M34 388l28 20q105 74 134 74q25 0 25 -26q0 -12 -6 -36l-77 -304q-7 -29 -7 -40q0 -20 13 -20q15 0 61 30l26 17l10 -18q-73 -55 -106.5 -74.5t-53.5 -19.5q-30 0 -30 39q0 27 13 77l66 240q8 28 8 44q0 21 -17 21q-12 0 -48 -23l-32 -21zM359 589l-11 -51h-301l11 51 h301z" />
<glyph unicode="I&#x306;" horiz-adv-x="333" d="M103 664l3 28l64 -2q43 -1 78 -1l97 3h9l-3 -28l-35 -3q-29 -3 -37.5 -11t-13.5 -37l-89 -535q-2 -8 -2 -21q0 -15 8 -21t28 -8l52 -3l-3 -28h-32l-94 3l-94 -3h-32l3 28l36 3q30 2 38.5 16t19.5 81l72 434q9 51 9 77q0 25 -35 26zM120 887h29q9 -100 109 -100 q45 0 75 22.5t59 77.5h29q-18 -66 -45 -100q-47 -59 -125 -59q-79 0 -111 58q-20 36 -20 101z" />
<glyph unicode="i&#x306;" horiz-adv-x="278" d="M34 388l28 20q105 74 134 74q25 0 25 -26q0 -12 -6 -36l-77 -304q-7 -29 -7 -40q0 -20 13 -20q15 0 61 30l26 17l10 -18q-73 -55 -106.5 -74.5t-53.5 -19.5q-30 0 -30 39q0 27 13 77l66 240q8 28 8 44q0 21 -17 21q-12 0 -48 -23l-32 -21zM65 677h29q9 -100 109 -100 q45 0 75 22.5t59 77.5h29q-18 -66 -45 -100q-47 -59 -125 -59q-79 0 -111 58q-20 36 -20 101z" />
<glyph unicode="I&#x328;" horiz-adv-x="333" d="M262 25l-3 -28h-4h-4q-14 -1 -32.5 -31t-18.5 -51q0 -20 11 -33.5t27 -13.5q23 0 50 35l14 -4q-46 -87 -105 -87q-24 0 -38.5 18t-14.5 48q0 26 12.5 49.5t47.5 62.5l7 8q-63 2 -80 2l-92 -3h-32l3 28l36 3q30 2 38.5 16t19.5 81l72 434q9 51 9 77q0 25 -35 26l-47 2 l3 28l64 -2q43 -1 78 -1l97 3h9l-3 -28l-35 -3q-29 -3 -37.5 -11t-13.5 -37l-89 -535q-2 -8 -2 -21q0 -15 8 -21t28 -8z" />
<glyph unicode="i&#x328;" horiz-adv-x="278" d="M231 103l10 -18q-13 -10 -23 -17q-58 -40 -91.5 -81.5t-33.5 -71.5q0 -20 11 -33t27 -13q23 0 50 34l14 -4q-47 -86 -104 -86q-25 0 -39.5 18t-14.5 47q0 27 13 51t47 61l5 5q-13 -4 -21 -4q-30 0 -30 39q0 27 13 77l66 240q8 28 8 44q0 10 -5 16.5t-13 6.5q-7 0 -47 -25 l-32 -21l-7 20l28 20q105 74 134 74q25 0 25 -26q0 -10 -6 -36l-77 -304q-7 -29 -7 -40q0 -8 4 -14t9 -6q15 0 61 30zM228 712q16 0 26 -11.5t10 -29.5q0 -28 -16 -47.5t-39 -19.5q-18 0 -28.5 11t-10.5 30q0 25 18 46t40 21z" />
<glyph unicode="I&#x307;" horiz-adv-x="333" d="M103 664l3 28l64 -2q43 -1 78 -1l97 3h9l-3 -28l-35 -3q-29 -3 -37.5 -11t-13.5 -37l-89 -535q-2 -8 -2 -21q0 -15 8 -21t28 -8l52 -3l-3 -28h-32l-94 3l-94 -3h-32l3 28l36 3q30 2 38.5 16t19.5 81l72 434q9 51 9 77q0 25 -35 26zM250 855q21 0 37 -16t16 -37 q0 -22 -16 -38.5t-38 -16.5t-38 16.5t-16 38.5q0 21 16.5 37t38.5 16z" />
<glyph unicode="J&#x302;" horiz-adv-x="333" d="M355 664l-42 -3q-28 -2 -37 -10.5t-14 -37.5l-85 -559q-11 -78 -34 -132q-25 -61 -62 -94.5t-78 -33.5q-19 0 -35 10l-3 26q11 -4 29 -4q70 0 92 153l95 643q1 5 1 13q0 26 -35 27l-47 2l3 28l64 -2q43 -1 77 -1l90 3h24zM297 889l88 -169h-36l-82 104l-137 -104h-39 l157 169h49z" />
<glyph unicode="j&#x302;" horiz-adv-x="278" d="M-70 -269l8 57q31 -19 53 -19q29 0 47 87l100 495l2 12q5 18 5 28t-5 16.5t-13 6.5q-7 0 -47 -25l-32 -21l-7 20l28 20q105 74 134 74q25 0 25 -25q0 -10 -6 -37l-76 -350q-36 -164 -62 -222q-55 -124 -116 -124q-24 0 -38 7zM235 679l88 -169h-36l-82 104l-137 -104h-39 l157 169h49z" />
<glyph unicode="K&#x327;" horiz-adv-x="667" d="M371 664l-42 -3q-28 -2 -37 -10.5t-14 -37.5l-45 -260q89 69 149 131l128 130q38 38 38 49v29l20 -1q42 -2 47 -2q3 0 45 2l23 1v-27h-21q-27 0 -54 -25l-292 -273l246 -302q31 -38 64 -38h20v-30q-9 0 -28 1t-40 2l-69 -3q-80 109 -123.5 162.5t-154.5 180.5l-43 -262 q-2 -8 -2 -21q0 -15 8 -21t28 -8l49 -3l-3 -28h-26l-97 3q-8 0 -19.5 -0.5t-31.5 -1t-39 -0.5l-42 -1l4 28l41 3q30 3 37.5 15.5t20.5 81.5l73 434q9 49 9 76q0 26 -35 27l-47 2l3 28l64 -2q43 -1 77 -1l90 3h24zM345 -60l9 -18q-69 -132 -141 -214l-32 -13l-7 9 q68 106 82 211q35 5 89 25z" />
<glyph unicode="k&#x327;" horiz-adv-x="444" d="M234 722l-107 -492q94 132 159.5 192t114.5 60q21 0 48 -9l-17 -63q-26 6 -36 6q-71 0 -157 -86l-14 -14q49 -156 96 -241q12 -23 26 -23q11 0 29 10l43 24l8 -19l-46 -32q-62 -44 -81 -44t-46.5 59t-79.5 209q-53 -53 -67 -127l-23 -124l-67 -17l-9 10q64 259 82 353 l48 268q2 14 2 24q0 24 -34 24h-48l4 21q94 9 160 42zM247 -60l9 -18q-69 -132 -141 -214l-32 -13l-7 9q68 106 82 211q35 5 89 25z" />
<glyph unicode="L&#x301;" d="M349 664l-42 -3q-28 -2 -37 -10.5t-14 -37.5l-92 -532q-2 -18 -2 -31v-4q77 -7 142 -7q118 0 144 10q14 8 27 54l17 62h31q-23 -113 -23 -162v-3l-33 -1q-66 -2 -72 -2h-10l-215 3q-51 0 -113 -2l-41 -1l5 26q33 5 45 11.5t15 20.5l86 504q9 56 9 76q0 26 -35 27l-47 2 l3 28l64 -2q43 -1 77 -1l90 3h24zM269 728l153 151q18 18 33 18t26.5 -9.5t11.5 -21.5q0 -20 -28 -37l-162 -101h-34z" />
<glyph unicode="l&#x301;" horiz-adv-x="278" d="M251 722l-129 -609l-2 -9q-4 -20 -4 -28t4 -14t9 -6q15 0 61 30l26 17l10 -18q-73 -55 -106.5 -74.5t-53.5 -19.5q-30 0 -30 40q0 28 19 101l14 52q11 37 44 205.5t38 210.5l3 22q3 18 3 26q0 22 -34 22h-48l4 21q94 9 160 42zM130 728l153 151q18 18 33 18t26.5 -9.5 t11.5 -21.5q0 -20 -28 -37l-162 -101h-34z" />
<glyph unicode="L&#x327;" d="M349 664l-42 -3q-28 -2 -37 -10.5t-14 -37.5l-92 -532q-2 -18 -2 -31v-4q77 -7 142 -7q118 0 144 10q14 8 27 54l17 62h31q-23 -113 -23 -162v-3l-33 -1q-66 -2 -72 -2h-10l-215 3q-51 0 -113 -2l-41 -1l5 26q33 5 45 11.5t15 20.5l86 504q9 56 9 76q0 26 -35 27l-47 2 l3 28l64 -2q43 -1 77 -1l90 3h24zM303 -60l9 -18q-69 -132 -141 -214l-32 -13l-7 9q68 106 82 211q35 5 89 25z" />
<glyph unicode="l&#x327;" horiz-adv-x="278" d="M251 722l-129 -609l-2 -9q-4 -20 -4 -28t4 -14t9 -6q15 0 61 30l26 17l10 -18q-73 -55 -106.5 -74.5t-53.5 -19.5q-30 0 -30 40q0 28 19 101l14 52q11 37 44 205.5t38 210.5l3 22q3 18 3 26q0 22 -34 22h-48l4 21q94 9 160 42zM163 -60l9 -18q-69 -132 -141 -214l-32 -13 l-7 9q68 106 82 211q35 5 89 25z" />
<glyph unicode="L&#x30c;" d="M349 664l-42 -3q-28 -2 -37 -10.5t-14 -37.5l-92 -532q-2 -18 -2 -31v-4q77 -7 142 -7q118 0 144 10q14 8 27 54l17 62h31q-23 -113 -23 -162v-3l-33 -1q-66 -2 -72 -2h-10l-215 3q-51 0 -113 -2l-41 -1l5 26q33 5 45 11.5t15 20.5l86 504q9 56 9 76q0 26 -35 27l-47 2 l3 28l64 -2q43 -1 77 -1l90 3h24zM527 713l9 -18q-69 -132 -141 -214l-32 -13l-7 9q68 106 82 211q35 5 89 25z" />
<glyph unicode="l&#x30c;" horiz-adv-x="346" d="M251 722l-129 -609l-2 -9q-4 -20 -4 -28t4 -14t9 -6q15 0 61 30l26 17l10 -18q-73 -55 -106.5 -74.5t-53.5 -19.5q-30 0 -30 40q0 28 19 101l14 52q11 37 44 205.5t38 210.5l3 22q3 18 3 26q0 22 -34 22h-48l4 21q94 9 160 42zM397 733l9 -18q-69 -132 -141 -214l-32 -13 l-7 9q68 106 82 211q35 5 89 25z" />
<glyph unicode="L&#xb7;" d="M349 664l-42 -3q-28 -2 -37 -10.5t-14 -37.5l-92 -532q-2 -18 -2 -31v-4q77 -7 142 -7q118 0 144 10q14 8 27 54l17 62h31q-23 -113 -23 -162v-3l-33 -1q-66 -2 -72 -2h-10l-215 3q-51 0 -113 -2l-41 -1l5 26q33 5 45 11.5t15 20.5l86 504q9 56 9 76q0 26 -35 27l-47 2 l3 28l64 -2q43 -1 77 -1l90 3h24zM370 405q19 0 32 -14t13 -34q0 -29 -18 -49t-43 -20q-20 0 -32 12.5t-12 34.5q0 29 17.5 49.5t42.5 20.5z" />
<glyph unicode="l&#xb7;" horiz-adv-x="420" d="M301 378q19 0 32 -14t13 -34q0 -29 -18 -49t-43 -20q-20 0 -32 12.5t-12 34.5q0 29 17.5 49.5t42.5 20.5zM251 722l-129 -609l-2 -9q-4 -20 -4 -28t4 -14t9 -6q15 0 61 30l26 17l10 -18q-73 -55 -106.5 -74.5t-53.5 -19.5q-30 0 -30 40q0 28 19 101l14 52q11 37 44 205.5 t38 210.5l3 22q3 18 3 26q0 22 -34 22h-48l4 21q94 9 160 42z" />
<glyph unicode="N&#x301;" horiz-adv-x="778" d="M237 692l345 -589l80 489q5 32 5 46q0 23 -36 24l-47 2l5 28h19l86 -3l89 3h21l-5 -28l-37 -2q-28 -2 -36 -18.5t-24 -101.5l-94 -553h-50l-338 577l-80 -464q-3 -16 -3 -30q0 -25 9.5 -33.5t39.5 -10.5l42 -3l-5 -28q-97 3 -110 3l-111 -3l5 28l31 3q27 3 36 15.5 t18 58.5l88 474q1 4 3 18q1 2 1 5q1 3 1 7q0 15 -30 39q-19 15 -50 17l-35 2l5 28l16 -1q10 0 20 -0.5t15 -1t6 -0.5h14h10zM378 728l153 151q18 18 33 18t26.5 -9.5t11.5 -21.5q0 -20 -28 -37l-162 -101h-34z" />
<glyph unicode="n&#x301;" d="M24 388l28 20q104 74 133 74q23 0 23 -33q0 -14 -6 -41l-38 -161q69 97 118 142q44 41 91.5 67t78.5 26t31 -36q0 -28 -11 -74l-66 -276q-2 -8 -2 -20q0 -20 13 -20q15 0 61 30l26 17l10 -18q-73 -55 -106.5 -74.5t-53.5 -19.5q-30 0 -30 40q0 23 13 76l52 212 q11 44 11 71q0 24 -17 24q-34 0 -84 -41.5t-90 -104.5q-34 -51 -53 -108t-33 -152q-26 -5 -70 -17l-7 11q31 107 56.5 228t25.5 159q0 25 -18 25q-7 0 -47 -25l-32 -21zM234 518l153 151q18 18 33 18t26.5 -9.5t11.5 -21.5q0 -20 -28 -37l-162 -101h-34z" />
<glyph unicode="N&#x327;" horiz-adv-x="778" d="M237 692l345 -589l80 489q5 32 5 46q0 23 -36 24l-47 2l5 28h19l86 -3l89 3h21l-5 -28l-37 -2q-28 -2 -36 -18.5t-24 -101.5l-94 -553h-50l-338 577l-80 -464q-3 -16 -3 -30q0 -25 9.5 -33.5t39.5 -10.5l42 -3l-5 -28q-97 3 -110 3l-111 -3l5 28l31 3q27 3 36 15.5 t18 58.5l88 474q1 4 3 18q1 2 1 5q1 3 1 7q0 15 -30 39q-19 15 -50 17l-35 2l5 28l16 -1q10 0 20 -0.5t15 -1t6 -0.5h14h10zM412 -60l9 -18q-69 -132 -141 -214l-32 -13l-7 9q68 106 82 211q35 5 89 25z" />
<glyph unicode="n&#x327;" d="M24 388l28 20q104 74 133 74q23 0 23 -33q0 -14 -6 -41l-38 -161q69 97 118 142q44 41 91.5 67t78.5 26t31 -36q0 -28 -11 -74l-66 -276q-2 -8 -2 -20q0 -20 13 -20q15 0 61 30l26 17l10 -18q-73 -55 -106.5 -74.5t-53.5 -19.5q-30 0 -30 40q0 23 13 76l52 212 q11 44 11 71q0 24 -17 24q-34 0 -84 -41.5t-90 -104.5q-34 -51 -53 -108t-33 -152q-26 -5 -70 -17l-7 11q31 107 56.5 228t25.5 159q0 25 -18 25q-7 0 -47 -25l-32 -21zM303 -60l9 -18q-69 -132 -141 -214l-32 -13l-7 9q68 106 82 211q35 5 89 25z" />
<glyph unicode="N&#x30c;" horiz-adv-x="778" d="M237 692l345 -589l80 489q5 32 5 46q0 23 -36 24l-47 2l5 28h19l86 -3l89 3h21l-5 -28l-37 -2q-28 -2 -36 -18.5t-24 -101.5l-94 -553h-50l-338 577l-80 -464q-3 -16 -3 -30q0 -25 9.5 -33.5t39.5 -10.5l42 -3l-5 -28q-97 3 -110 3l-111 -3l5 28l31 3q27 3 36 15.5 t18 58.5l88 474q1 4 3 18q1 2 1 5q1 3 1 7q0 15 -30 39q-19 15 -50 17l-35 2l5 28l16 -1q10 0 20 -0.5t15 -1t6 -0.5h14h10zM502 720h-46l-96 169h37l90 -105l142 105h36z" />
<glyph unicode="n&#x30c;" d="M24 388l28 20q104 74 133 74q23 0 23 -33q0 -14 -6 -41l-38 -161q69 97 118 142q44 41 91.5 67t78.5 26t31 -36q0 -28 -11 -74l-66 -276q-2 -8 -2 -20q0 -20 13 -20q15 0 61 30l26 17l10 -18q-73 -55 -106.5 -74.5t-53.5 -19.5q-30 0 -30 40q0 23 13 76l52 212 q11 44 11 71q0 24 -17 24q-34 0 -84 -41.5t-90 -104.5q-34 -51 -53 -108t-33 -152q-26 -5 -70 -17l-7 11q31 107 56.5 228t25.5 159q0 25 -18 25q-7 0 -47 -25l-32 -21zM358 510h-46l-96 169h37l90 -105l142 105h36z" />
<glyph unicode="O&#x304;" horiz-adv-x="778" d="M464 706q135 0 209.5 -73.5t74.5 -207.5q0 -119 -55 -222t-149 -161q-95 -60 -221 -60q-132 0 -201 74t-69 216q0 188 116.5 311t294.5 123zM433 664q-113 0 -183 -71q-52 -52 -80.5 -135t-28.5 -181q0 -125 55.5 -189t163.5 -64q118 0 192 76q51 53 79.5 134t28.5 175 q0 166 -97 223q-53 32 -130 32zM644 799l-11 -51h-301l11 51h301z" />
<glyph unicode="o&#x304;" horiz-adv-x="444" d="M278 482q62 0 97.5 -40t35.5 -111q0 -76 -30 -153t-76 -121q-73 -68 -160 -68q-62 0 -95 42t-33 121q0 92 32.5 165t93.5 116q69 49 135 49zM241 444q-40 0 -60 -17q-37 -30 -62.5 -110.5t-25.5 -165.5q0 -59 24 -91.5t68 -32.5q47 0 75 33q33 40 54 111.5t21 143.5 q0 129 -94 129zM442 589l-11 -51h-301l11 51h301z" />
<glyph unicode="O&#x306;" horiz-adv-x="778" d="M464 706q135 0 209.5 -73.5t74.5 -207.5q0 -119 -55 -222t-149 -161q-95 -60 -221 -60q-132 0 -201 74t-69 216q0 188 116.5 311t294.5 123zM433 664q-113 0 -183 -71q-52 -52 -80.5 -135t-28.5 -181q0 -125 55.5 -189t163.5 -64q118 0 192 76q51 53 79.5 134t28.5 175 q0 166 -97 223q-53 32 -130 32zM350 887h29q9 -100 109 -100q45 0 75 22.5t59 77.5h29q-18 -66 -45 -100q-47 -59 -125 -59q-79 0 -111 58q-20 36 -20 101z" />
<glyph unicode="o&#x306;" horiz-adv-x="444" d="M278 482q62 0 97.5 -40t35.5 -111q0 -76 -30 -153t-76 -121q-73 -68 -160 -68q-62 0 -95 42t-33 121q0 92 32.5 165t93.5 116q69 49 135 49zM241 444q-40 0 -60 -17q-37 -30 -62.5 -110.5t-25.5 -165.5q0 -59 24 -91.5t68 -32.5q47 0 75 33q33 40 54 111.5t21 143.5 q0 129 -94 129zM148 677h29q9 -100 109 -100q45 0 75 22.5t59 77.5h29q-18 -66 -45 -100q-47 -59 -125 -59q-79 0 -111 58q-20 36 -20 101z" />
<glyph unicode="O&#x30b;" horiz-adv-x="778" d="M464 706q135 0 209.5 -73.5t74.5 -207.5q0 -119 -55 -222t-149 -161q-95 -60 -221 -60q-132 0 -201 74t-69 216q0 188 116.5 311t294.5 123zM433 664q-113 0 -183 -71q-52 -52 -80.5 -135t-28.5 -181q0 -125 55.5 -189t163.5 -64q118 0 192 76q51 53 79.5 134t28.5 175 q0 166 -97 223q-53 32 -130 32zM304 728l109 186q16 27 37 27q36 0 36 -31q0 -11 -19 -34l-130 -148h-33zM461 728l109 186q17 27 37 27q36 0 36 -31q0 -13 -19 -34l-130 -148h-33z" />
<glyph unicode="o&#x30b;" horiz-adv-x="444" d="M278 482q62 0 97.5 -40t35.5 -111q0 -76 -30 -153t-76 -121q-73 -68 -160 -68q-62 0 -95 42t-33 121q0 92 32.5 165t93.5 116q69 49 135 49zM241 444q-40 0 -60 -17q-37 -30 -62.5 -110.5t-25.5 -165.5q0 -59 24 -91.5t68 -32.5q47 0 75 33q33 40 54 111.5t21 143.5 q0 129 -94 129zM102 518l109 186q16 27 37 27q36 0 36 -31q0 -11 -19 -34l-130 -148h-33zM259 518l109 186q17 27 37 27q36 0 36 -31q0 -13 -19 -34l-130 -148h-33z" />
<glyph unicode="R&#x301;" horiz-adv-x="667" d="M105 664l3 28q118 -3 151 -3l150 3h7q80 0 124 -34.5t44 -97.5q0 -94 -89 -158q-48 -35 -120 -48l184 -275q22 -32 36 -41.5t44 -13.5v-27h-13q-28 3 -34 3h-11h-8l-66 -3q-87 148 -240 370l3 11h44q78 0 130 47t52 118q0 113 -133 113q-37 0 -76 -8l-7 -28 q-2 -7 -4 -17.5t-3.5 -16t-1.5 -6.5l-85 -487q-4 -23 -4 -35q0 -15 8 -22t28 -8l49 -3l-3 -28h-26l-97 3q-43 0 -90 -2l-42 -1l4 28l41 3q30 3 38 16t20 81l75 434q9 54 9 76q0 26 -35 27zM315 728l153 151q18 18 33 18t26.5 -9.5t11.5 -21.5q0 -20 -28 -37l-162 -101h-34z " />
<glyph unicode="r&#x301;" horiz-adv-x="389" d="M368 365h-14q-15 19 -36 19q-33 0 -83 -65q-60 -78 -85 -193l-26 -120l-13 -2q-43 -9 -54 -13l-10 7q30 95 56.5 221.5t26.5 170.5q0 22 -17 22q-12 0 -48 -23l-32 -21l-7 20l28 20q103 74 133 74q23 0 23 -32q0 -16 -6 -42l-6 -26q-9 -33 -18 -85l-8 -41q21 46 67 112 l27 39q53 75 98 75q7 0 20 -6q-12 -62 -16 -111zM150 518l153 151q18 18 33 18t26.5 -9.5t11.5 -21.5q0 -20 -28 -37l-162 -101h-34z" />
<glyph unicode="R&#x327;" horiz-adv-x="667" d="M105 664l3 28q118 -3 151 -3l150 3h7q80 0 124 -34.5t44 -97.5q0 -94 -89 -158q-48 -35 -120 -48l184 -275q22 -32 36 -41.5t44 -13.5v-27h-13q-28 3 -34 3h-11h-8l-66 -3q-87 148 -240 370l3 11h44q78 0 130 47t52 118q0 113 -133 113q-37 0 -76 -8l-7 -28 q-2 -7 -4 -17.5t-3.5 -16t-1.5 -6.5l-85 -487q-4 -23 -4 -35q0 -15 8 -22t28 -8l49 -3l-3 -28h-26l-97 3q-43 0 -90 -2l-42 -1l4 28l41 3q30 3 38 16t20 81l75 434q9 54 9 76q0 26 -35 27zM349 -60l9 -18q-69 -132 -141 -214l-32 -13l-7 9q68 106 82 211q35 5 89 25z" />
<glyph unicode="r&#x327;" horiz-adv-x="389" d="M368 365h-14q-15 19 -36 19q-33 0 -83 -65q-60 -78 -85 -193l-26 -120l-13 -2q-43 -9 -54 -13l-10 7q30 95 56.5 221.5t26.5 170.5q0 22 -17 22q-12 0 -48 -23l-32 -21l-7 20l28 20q103 74 133 74q23 0 23 -32q0 -16 -6 -42l-6 -26q-9 -33 -18 -85l-8 -41q21 46 67 112 l27 39q53 75 98 75q7 0 20 -6q-12 -62 -16 -111zM219 -60l9 -18q-69 -132 -141 -214l-32 -13l-7 9q68 106 82 211q35 5 89 25z" />
<glyph unicode="R&#x30c;" horiz-adv-x="667" d="M105 664l3 28q118 -3 151 -3l150 3h7q80 0 124 -34.5t44 -97.5q0 -94 -89 -158q-48 -35 -120 -48l184 -275q22 -32 36 -41.5t44 -13.5v-27h-13q-28 3 -34 3h-11h-8l-66 -3q-87 148 -240 370l3 11h44q78 0 130 47t52 118q0 113 -133 113q-37 0 -76 -8l-7 -28 q-2 -7 -4 -17.5t-3.5 -16t-1.5 -6.5l-85 -487q-4 -23 -4 -35q0 -15 8 -22t28 -8l49 -3l-3 -28h-26l-97 3q-43 0 -90 -2l-42 -1l4 28l41 3q30 3 38 16t20 81l75 434q9 54 9 76q0 26 -35 27zM439 720h-46l-96 169h37l90 -105l142 105h36z" />
<glyph unicode="r&#x30c;" horiz-adv-x="389" d="M368 365h-14q-15 19 -36 19q-33 0 -83 -65q-60 -78 -85 -193l-26 -120l-13 -2q-43 -9 -54 -13l-10 7q30 95 56.5 221.5t26.5 170.5q0 22 -17 22q-12 0 -48 -23l-32 -21l-7 20l28 20q103 74 133 74q23 0 23 -32q0 -16 -6 -42l-6 -26q-9 -33 -18 -85l-8 -41q21 46 67 112 l27 39q53 75 98 75q7 0 20 -6q-12 -62 -16 -111zM274 510h-46l-96 169h37l90 -105l142 105h36z" />
<glyph unicode="S&#x301;" d="M451 537v76q-42 45 -112 45q-69 0 -114 -42.5t-45 -107.5q0 -97 96 -117l65 -14q76 -17 110 -50.5t34 -92.5q0 -101 -86 -176.5t-202 -75.5q-81 0 -155 38q15 72 24 152h30v-99q61 -43 136 -43q77 0 125.5 45t48.5 116q0 85 -81 105l-95 23q-63 15 -92.5 51.5 t-29.5 100.5q0 89 64 150q39 40 93 62.5t109 22.5q68 0 132 -34q-19 -60 -25 -135h-30zM269 728l153 151q18 18 33 18t26.5 -9.5t11.5 -21.5q0 -20 -28 -37l-162 -101h-34z" />
<glyph unicode="s&#x301;" horiz-adv-x="389" d="M31 148h25v-84q41 -35 94 -35t85 30t32 79q0 29 -13.5 44t-46.5 21l-63 12q-97 19 -97 101q0 50 37 88q78 78 161 78q45 0 100 -27q-13 -60 -19 -113h-23v55q-12 20 -38 32.5t-57 12.5q-43 0 -72.5 -27t-29.5 -67q0 -31 17 -46t62 -23l43 -8q56 -11 81 -34t25 -63 q0 -71 -72 -127q-74 -58 -146 -58q-50 0 -107 27q15 64 22 132zM150 518l153 151q18 18 33 18t26.5 -9.5t11.5 -21.5q0 -20 -28 -37l-162 -101h-34z" />
<glyph unicode="S&#x302;" d="M451 537v76q-42 45 -112 45q-69 0 -114 -42.5t-45 -107.5q0 -97 96 -117l65 -14q76 -17 110 -50.5t34 -92.5q0 -101 -86 -176.5t-202 -75.5q-81 0 -155 38q15 72 24 152h30v-99q61 -43 136 -43q77 0 125.5 45t48.5 116q0 85 -81 105l-95 23q-63 15 -92.5 51.5 t-29.5 100.5q0 89 64 150q39 40 93 62.5t109 22.5q68 0 132 -34q-19 -60 -25 -135h-30zM409 889l88 -169h-36l-82 104l-137 -104h-39l157 169h49z" />
<glyph unicode="s&#x302;" horiz-adv-x="389" d="M31 148h25v-84q41 -35 94 -35t85 30t32 79q0 29 -13.5 44t-46.5 21l-63 12q-97 19 -97 101q0 50 37 88q78 78 161 78q45 0 100 -27q-13 -60 -19 -113h-23v55q-12 20 -38 32.5t-57 12.5q-43 0 -72.5 -27t-29.5 -67q0 -31 17 -46t62 -23l43 -8q56 -11 81 -34t25 -63 q0 -71 -72 -127q-74 -58 -146 -58q-50 0 -107 27q15 64 22 132zM290 679l88 -169h-36l-82 104l-137 -104h-39l157 169h49z" />
<glyph unicode="S&#x327;" d="M451 537v76q-42 45 -112 45q-69 0 -114 -42.5t-45 -107.5q0 -97 96 -117l65 -14q76 -17 110 -50.5t34 -92.5q0 -101 -86 -176.5t-202 -75.5q-81 0 -155 38q15 72 24 152h30v-99q61 -43 136 -43q77 0 125.5 45t48.5 116q0 85 -81 105l-95 23q-63 15 -92.5 51.5 t-29.5 100.5q0 89 64 150q39 40 93 62.5t109 22.5q68 0 132 -34q-19 -60 -25 -135h-30zM162 -104l-9 8l61 96h38l-44 -64q22 2 24 2q38 0 60 -19t22 -51q0 -38 -33.5 -61t-89.5 -23q-35 0 -88 20l17 29q45 -14 69 -14q23 0 38 12.5t15 32.5q0 17 -13 27.5t-34 10.5 q-13 0 -26 -4z" />
<glyph unicode="s&#x327;" horiz-adv-x="389" d="M31 148h25v-84q41 -35 94 -35t85 30t32 79q0 29 -13.5 44t-46.5 21l-63 12q-97 19 -97 101q0 50 37 88q78 78 161 78q45 0 100 -27q-13 -60 -19 -113h-23v55q-12 20 -38 32.5t-57 12.5q-43 0 -72.5 -27t-29.5 -67q0 -31 17 -46t62 -23l43 -8q56 -11 81 -34t25 -63 q0 -71 -72 -127q-74 -58 -146 -58q-50 0 -107 27q15 64 22 132zM78 -104l-9 8l61 96h38l-44 -64q22 2 24 2q38 0 60 -19t22 -51q0 -38 -33.5 -61t-89.5 -23q-35 0 -88 20l17 29q45 -14 69 -14q23 0 38 12.5t15 32.5q0 17 -13 27.5t-34 10.5q-13 0 -26 -4z" />
<glyph unicode="S&#x30c;" d="M451 537v76q-42 45 -112 45q-69 0 -114 -42.5t-45 -107.5q0 -97 96 -117l65 -14q76 -17 110 -50.5t34 -92.5q0 -101 -86 -176.5t-202 -75.5q-81 0 -155 38q15 72 24 152h30v-99q61 -43 136 -43q77 0 125.5 45t48.5 116q0 85 -81 105l-95 23q-63 15 -92.5 51.5 t-29.5 100.5q0 89 64 150q39 40 93 62.5t109 22.5q68 0 132 -34q-19 -60 -25 -135h-30zM393 720h-46l-96 169h37l90 -105l142 105h36z" />
<glyph unicode="s&#x30c;" horiz-adv-x="389" d="M31 148h25v-84q41 -35 94 -35t85 30t32 79q0 29 -13.5 44t-46.5 21l-63 12q-97 19 -97 101q0 50 37 88q78 78 161 78q45 0 100 -27q-13 -60 -19 -113h-23v55q-12 20 -38 32.5t-57 12.5q-43 0 -72.5 -27t-29.5 -67q0 -31 17 -46t62 -23l43 -8q56 -11 81 -34t25 -63 q0 -71 -72 -127q-74 -58 -146 -58q-50 0 -107 27q15 64 22 132zM274 510h-46l-96 169h37l90 -105l142 105h36z" />
<glyph unicode="T&#x30c;" horiz-adv-x="611" d="M390 646l-94 -553q-4 -25 -4 -35q0 -29 36 -30l59 -3l-3 -28l-44 1q-78 2 -89 2q-5 0 -85 -2l-57 -1l4 28l51 3q30 2 38 15.5t20 81.5l86 521h-112q-70 0 -81 -13q-11 -12 -18 -45l-15 -60h-29l18 164l95 -1q172 -2 187 -2t191 2l91 1l-27 -164h-28l4 64v6q0 17 -4 31 q-4 17 -117 17h-73zM367 720h-46l-96 169h37l90 -105l142 105h36z" />
<glyph unicode="t&#x30c;" horiz-adv-x="361" d="M125 390h-84l2 13q25 7 88 37l25 170q51 20 78 36l11 -15q-23 -70 -45 -197q53 0 110 6l-11 -50h-107l-13 -62q-43 -215 -43 -252q0 -20 14 -20q16 0 60 30l45 31l10 -18l-16 -13l-15 -12q-59 -47 -90.5 -65t-57.5 -18q-30 0 -30 40q0 18 8 55q5 19 5 21zM412 733l9 -18 q-69 -132 -141 -214l-32 -13l-7 9q68 106 82 211q35 5 89 25z" />
<glyph unicode="U&#x303;" horiz-adv-x="778" d="M795 664l-36 -3q-29 -3 -38 -11.5t-13 -36.5l-85 -507q-6 -43 -6 -56q0 -18 32 -21l60 -4l-5 -28l-32 1q-13 0 -27.5 0.5t-21.5 1t-9 0.5l-62 -3h-22l-5 5q19 79 27 127q-39 -45 -68.5 -68.5t-74.5 -45.5q-68 -34 -133 -34q-84 0 -131.5 43.5t-47.5 119.5q0 30 6 62 l64 375q7 37 7 58q0 13 -7 17.5t-27 5.5l-52 2l3 28l32 -1q56 -2 58 -2q4 0 58 2l31 1l-88 -477q-7 -39 -7 -61q0 -53 37.5 -84t101.5 -31q58 0 113 29q38 19 65.5 42t63.5 67l71 445q1 4 1 12q0 27 -35 28l-48 2l3 28l63 -2q44 -1 80 -1l91 3h16zM262 745h-29q15 55 38 79 t60 24q27 0 63 -14l60 -24q12 -5 27 -5t25.5 9t25.5 34h28q-9 -49 -34.5 -76t-62.5 -27q-23 0 -64 16l-38 15l-2 1q-3 0 -7 3q-22 9 -38 9q-19 0 -30 -9.5t-22 -34.5z" />
<glyph unicode="u&#x303;" d="M333 97l37 142q-63 -103 -142 -176.5t-126 -73.5q-15 0 -25 12t-10 29q0 29 4 47l63 297q2 8 2 18q0 8 -5 14t-12 6q-12 0 -48 -23l-32 -21l-7 20l28 20q103 74 132 74q23 0 23 -31q0 -16 -5 -43l-57 -271q-7 -35 -7 -52q0 -26 13 -26q30 0 81.5 47t95.5 115 q48 73 71 193l10 51l68 17l7 -9q-45 -174 -84 -357l-1 -6q-5 -25 -5 -34q0 -17 13 -17q21 0 61 27l26 17l10 -18q-73 -55 -106.5 -74.5t-53.5 -19.5q-30 0 -30 40q0 28 11 66zM204 535h-29q15 55 38 79t60 24q27 0 63 -14l60 -24q12 -5 27 -5t25.5 9t25.5 34h28 q-9 -49 -34.5 -76t-62.5 -27q-23 0 -64 16l-38 15l-2 1q-3 0 -7 3q-22 9 -38 9q-19 0 -30 -9.5t-22 -34.5z" />
<glyph unicode="U&#x304;" horiz-adv-x="778" d="M795 664l-36 -3q-29 -3 -38 -11.5t-13 -36.5l-85 -507q-6 -43 -6 -56q0 -18 32 -21l60 -4l-5 -28l-32 1q-13 0 -27.5 0.5t-21.5 1t-9 0.5l-62 -3h-22l-5 5q19 79 27 127q-39 -45 -68.5 -68.5t-74.5 -45.5q-68 -34 -133 -34q-84 0 -131.5 43.5t-47.5 119.5q0 30 6 62 l64 375q7 37 7 58q0 13 -7 17.5t-27 5.5l-52 2l3 28l32 -1q56 -2 58 -2q4 0 58 2l31 1l-88 -477q-7 -39 -7 -61q0 -53 37.5 -84t101.5 -31q58 0 113 29q38 19 65.5 42t63.5 67l71 445q1 4 1 12q0 27 -35 28l-48 2l3 28l63 -2q44 -1 80 -1l91 3h16zM556 799l-11 -51h-301 l11 51h301z" />
<glyph unicode="u&#x304;" d="M333 97l37 142q-63 -103 -142 -176.5t-126 -73.5q-15 0 -25 12t-10 29q0 29 4 47l63 297q2 8 2 18q0 8 -5 14t-12 6q-12 0 -48 -23l-32 -21l-7 20l28 20q103 74 132 74q23 0 23 -31q0 -16 -5 -43l-57 -271q-7 -35 -7 -52q0 -26 13 -26q30 0 81.5 47t95.5 115 q48 73 71 193l10 51l68 17l7 -9q-45 -174 -84 -357l-1 -6q-5 -25 -5 -34q0 -17 13 -17q21 0 61 27l26 17l10 -18q-73 -55 -106.5 -74.5t-53.5 -19.5q-30 0 -30 40q0 28 11 66zM498 589l-11 -51h-301l11 51h301z" />
<glyph unicode="U&#x306;" horiz-adv-x="778" d="M795 664l-36 -3q-29 -3 -38 -11.5t-13 -36.5l-85 -507q-6 -43 -6 -56q0 -18 32 -21l60 -4l-5 -28l-32 1q-13 0 -27.5 0.5t-21.5 1t-9 0.5l-62 -3h-22l-5 5q19 79 27 127q-39 -45 -68.5 -68.5t-74.5 -45.5q-68 -34 -133 -34q-84 0 -131.5 43.5t-47.5 119.5q0 30 6 62 l64 375q7 37 7 58q0 13 -7 17.5t-27 5.5l-52 2l3 28l32 -1q56 -2 58 -2q4 0 58 2l31 1l-88 -477q-7 -39 -7 -61q0 -53 37.5 -84t101.5 -31q58 0 113 29q38 19 65.5 42t63.5 67l71 445q1 4 1 12q0 27 -35 28l-48 2l3 28l63 -2q44 -1 80 -1l91 3h16zM262 887h29 q9 -100 109 -100q45 0 75 22.5t59 77.5h29q-18 -66 -45 -100q-47 -59 -125 -59q-79 0 -111 58q-20 36 -20 101z" />
<glyph unicode="u&#x306;" d="M333 97l37 142q-63 -103 -142 -176.5t-126 -73.5q-15 0 -25 12t-10 29q0 29 4 47l63 297q2 8 2 18q0 8 -5 14t-12 6q-12 0 -48 -23l-32 -21l-7 20l28 20q103 74 132 74q23 0 23 -31q0 -16 -5 -43l-57 -271q-7 -35 -7 -52q0 -26 13 -26q30 0 81.5 47t95.5 115 q48 73 71 193l10 51l68 17l7 -9q-45 -174 -84 -357l-1 -6q-5 -25 -5 -34q0 -17 13 -17q21 0 61 27l26 17l10 -18q-73 -55 -106.5 -74.5t-53.5 -19.5q-30 0 -30 40q0 28 11 66zM204 677h29q9 -100 109 -100q45 0 75 22.5t59 77.5h29q-18 -66 -45 -100q-47 -59 -125 -59 q-79 0 -111 58q-20 36 -20 101z" />
<glyph unicode="U&#x30a;" horiz-adv-x="778" d="M795 664l-36 -3q-29 -3 -38 -11.5t-13 -36.5l-85 -507q-6 -43 -6 -56q0 -18 32 -21l60 -4l-5 -28l-32 1q-13 0 -27.5 0.5t-21.5 1t-9 0.5l-62 -3h-22l-5 5q19 79 27 127q-39 -45 -68.5 -68.5t-74.5 -45.5q-68 -34 -133 -34q-84 0 -131.5 43.5t-47.5 119.5q0 30 6 62 l64 375q7 37 7 58q0 13 -7 17.5t-27 5.5l-52 2l3 28l32 -1q56 -2 58 -2q4 0 58 2l31 1l-88 -477q-7 -39 -7 -61q0 -53 37.5 -84t101.5 -31q58 0 113 29q38 19 65.5 42t63.5 67l71 445q1 4 1 12q0 27 -35 28l-48 2l3 28l63 -2q44 -1 80 -1l91 3h16zM430 928q41 0 70 -29.5 t29 -70.5q0 -42 -29.5 -71t-70.5 -29q-42 0 -71 29t-29 71t29.5 71t71.5 29zM429 892q-28 0 -45 -17.5t-17 -46.5t17 -46.5t45 -17.5t45 17.5t17 46.5t-17 46.5t-45 17.5z" />
<glyph unicode="u&#x30a;" d="M333 97l37 142q-63 -103 -142 -176.5t-126 -73.5q-15 0 -25 12t-10 29q0 29 4 47l63 297q2 8 2 18q0 8 -5 14t-12 6q-12 0 -48 -23l-32 -21l-7 20l28 20q103 74 132 74q23 0 23 -31q0 -16 -5 -43l-57 -271q-7 -35 -7 -52q0 -26 13 -26q30 0 81.5 47t95.5 115 q48 73 71 193l10 51l68 17l7 -9q-45 -174 -84 -357l-1 -6q-5 -25 -5 -34q0 -17 13 -17q21 0 61 27l26 17l10 -18q-73 -55 -106.5 -74.5t-53.5 -19.5q-30 0 -30 40q0 28 11 66zM372 718q41 0 70 -29.5t29 -70.5q0 -42 -29.5 -71t-70.5 -29q-42 0 -71 29t-29 71t29.5 71 t71.5 29zM371 682q-28 0 -45 -17.5t-17 -46.5t17 -46.5t45 -17.5t45 17.5t17 46.5t-17 46.5t-45 17.5z" />
<glyph unicode="U&#x30b;" horiz-adv-x="778" d="M795 664l-36 -3q-29 -3 -38 -11.5t-13 -36.5l-85 -507q-6 -43 -6 -56q0 -18 32 -21l60 -4l-5 -28l-32 1q-13 0 -27.5 0.5t-21.5 1t-9 0.5l-62 -3h-22l-5 5q19 79 27 127q-39 -45 -68.5 -68.5t-74.5 -45.5q-68 -34 -133 -34q-84 0 -131.5 43.5t-47.5 119.5q0 30 6 62 l64 375q7 37 7 58q0 13 -7 17.5t-27 5.5l-52 2l3 28l32 -1q56 -2 58 -2q4 0 58 2l31 1l-88 -477q-7 -39 -7 -61q0 -53 37.5 -84t101.5 -31q58 0 113 29q38 19 65.5 42t63.5 67l71 445q1 4 1 12q0 27 -35 28l-48 2l3 28l63 -2q44 -1 80 -1l91 3h16zM216 728l109 186 q16 27 37 27q36 0 36 -31q0 -11 -19 -34l-130 -148h-33zM373 728l109 186q17 27 37 27q36 0 36 -31q0 -13 -19 -34l-130 -148h-33z" />
<glyph unicode="u&#x30b;" d="M333 97l37 142q-63 -103 -142 -176.5t-126 -73.5q-15 0 -25 12t-10 29q0 29 4 47l63 297q2 8 2 18q0 8 -5 14t-12 6q-12 0 -48 -23l-32 -21l-7 20l28 20q103 74 132 74q23 0 23 -31q0 -16 -5 -43l-57 -271q-7 -35 -7 -52q0 -26 13 -26q30 0 81.5 47t95.5 115 q48 73 71 193l10 51l68 17l7 -9q-45 -174 -84 -357l-1 -6q-5 -25 -5 -34q0 -17 13 -17q21 0 61 27l26 17l10 -18q-73 -55 -106.5 -74.5t-53.5 -19.5q-30 0 -30 40q0 28 11 66zM158 518l109 186q16 27 37 27q36 0 36 -31q0 -11 -19 -34l-130 -148h-33zM315 518l109 186 q17 27 37 27q36 0 36 -31q0 -13 -19 -34l-130 -148h-33z" />
<glyph unicode="U&#x328;" horiz-adv-x="778" d="M798 692l-3 -28l-36 -3q-29 -3 -38 -11.5t-13 -36.5l-85 -507q-6 -43 -6 -56q0 -18 32 -21l60 -4l-5 -28h-3h-7q-17 0 -37.5 -29t-20.5 -54q0 -20 10.5 -33t27.5 -13q23 0 51 35l14 -4q-48 -87 -105 -87q-25 0 -39.5 18t-14.5 48q0 27 11.5 48.5t49.5 63.5l8 9 q-30 1 -36 1l-61 -3h-22l-5 5q19 79 27 127q-39 -45 -68.5 -68.5t-74.5 -45.5q-68 -34 -133 -34q-84 0 -131.5 43.5t-47.5 119.5q0 30 6 62l64 375q7 37 7 58q0 13 -7 17.5t-27 5.5l-52 2l3 28l32 -1q56 -2 58 -2q4 0 58 2l31 1l-88 -477q-7 -39 -7 -61q0 -53 37.5 -84 t101.5 -31q58 0 113 29q38 19 65.5 42t63.5 67l71 445q1 4 1 12q0 27 -35 28l-48 2l3 28l63 -2q44 -1 80 -1l91 3h16z" />
<glyph unicode="u&#x328;" d="M417 465l68 17l7 -9q-45 -174 -84 -357l-1 -6q-5 -25 -5 -34q0 -17 13 -17q21 0 61 27l26 17l10 -18q-12 -10 -23 -17q-130 -93 -130 -153q0 -20 11 -33t27 -13q23 0 50 34l14 -4q-47 -86 -104 -86q-25 0 -39.5 18t-14.5 47q0 28 12 50.5t50 64.5q-6 -2 -13 -2 q-30 0 -30 40q0 28 11 66l37 142q-63 -103 -142 -176.5t-126 -73.5q-15 0 -25 12t-10 29q0 29 4 47l63 297q2 8 2 18q0 8 -5 14t-12 6q-12 0 -48 -23l-32 -21l-7 20l28 20q103 74 132 74q23 0 23 -31q0 -16 -5 -43l-57 -271q-7 -35 -7 -52q0 -26 13 -26q30 0 81.5 47 t95.5 115q48 73 71 193z" />
<glyph unicode="W&#x302;" horiz-adv-x="944" d="M303 692v-28l-37 -2q-45 -3 -45 -46l31 -484l224 456q20 40 52 112h18l158 -572l147 462q9 27 9 49t-41 23l-39 2l5 28l33 -1q60 -2 65 -2q7 0 65 2l32 1v-28l-20 -2q-33 -3 -43 -31l-171 -507q-18 -54 -31 -106l-7 -26h-51q-22 103 -39 162l-112 392l-224 -444 q-30 -60 -50 -110h-50q-2 81 -8 166l-32 430q-3 43 -12.5 56t-40.5 18l-18 2v28l39 -1q15 0 31.5 -0.5t26 -1t14.5 -0.5q44 0 82 2zM532 889l88 -169h-36l-82 104l-137 -104h-39l157 169h49z" />
<glyph unicode="w&#x302;" horiz-adv-x="722" d="M554 423l50 47q12 12 33 12q27 0 44.5 -27.5t17.5 -70.5q0 -68 -39 -157q-47 -103 -117 -170.5t-131 -67.5q-34 0 -54 29t-20 77q0 33 12 92q-56 -108 -99 -153t-91 -45q-40 0 -64 37.5t-24 99.5q0 64 28.5 123.5t95.5 138.5q19 21 27 32l3 4q-33 -4 -59 -4q-21 0 -29 1 q-13 1 -27 1q-39 0 -51 -28l-17 -42h-22q19 82 38 118q15 7 32 7q6 0 12 -1l12 -1q48 -5 99 -5q34 0 61 12l10 -18q-74 -84 -107 -161.5t-33 -166.5q0 -44 16 -70.5t42 -26.5q46 0 108 116q39 72 55 156l29 149l74 22l7 -8l-52 -184q-21 -75 -21 -156q0 -41 14 -68t36 -27 q41 0 84 47t70.5 120t27.5 144q0 63 -43 63q-14 0 -27 -9zM457 679l88 -169h-36l-82 104l-137 -104h-39l157 169h49z" />
<glyph unicode="Y&#x302;" horiz-adv-x="667" d="M52 647l15 11q25 16 51 37q6 4 9 7l4 3q69 -1 114 -83.5t101 -311.5q39 104 128 226q56 75 101 111t100 50l-6 -71q-44 -8 -80 -33.5t-79 -80.5q-55 -69 -98 -146.5t-50 -119.5l-26 -168q-2 -10 -2 -21q0 -15 8 -21t28 -8l49 -3l-3 -28h-26l-97 3q-7 0 -17.5 -0.5t-30 -1 t-38.5 -0.5l-53 -1l4 28l48 3q30 2 37.5 15t20.5 82l21 126l1 6v1q0 14 -22 92t-40 127q-31 84 -60 121t-64 37q-14 0 -45 -12zM464 889l88 -169h-36l-82 104l-137 -104h-39l157 169h49z" />
<glyph unicode="y&#x302;" horiz-adv-x="500" d="M-7 -180l48 34l10 -4q-2 -18 -2 -22q0 -26 18 -44t44 -18q53 0 93 58.5t78 191.5l49 171q-56 -85 -112 -141.5t-84 -56.5q-19 0 -31 20t-12 51l1 40l17 243q1 8 1 15q0 52 -22 52q-6 0 -21 -9l-4 -3l-50 -30l-11 18l82 56q58 40 75 40q24 0 24 -63q0 -35 -4 -97l-15 -194 l-1 -13v-4q0 -17 6 -30.5t14 -13.5q16 0 48 28.5t58 66.5q59 88 80 169l35 132q31 3 74 19l11 -9l-141 -440q-44 -139 -120 -224t-155 -85q-34 0 -58 23t-24 55q0 11 1 18zM346 679l88 -169h-36l-82 104l-137 -104h-39l157 169h49z" />
<glyph unicode="Y&#x308;" horiz-adv-x="667" d="M52 647l15 11q25 16 51 37q6 4 9 7l4 3q69 -1 114 -83.5t101 -311.5q39 104 128 226q56 75 101 111t100 50l-6 -71q-44 -8 -80 -33.5t-79 -80.5q-55 -69 -98 -146.5t-50 -119.5l-26 -168q-2 -10 -2 -21q0 -15 8 -21t28 -8l49 -3l-3 -28h-26l-97 3q-7 0 -17.5 -0.5t-30 -1 t-38.5 -0.5l-53 -1l4 28l48 3q30 2 37.5 15t20.5 82l21 126l1 6v1q0 14 -22 92t-40 127q-31 84 -60 121t-64 37q-14 0 -45 -12zM330 847q19 0 34.5 -15t15.5 -34q0 -20 -15.5 -35.5t-34.5 -15.5t-34.5 15.5t-15.5 35.5q0 19 15 34t35 15zM530 847q19 0 34.5 -15t15.5 -34 q0 -20 -15.5 -35.5t-34.5 -15.5t-34.5 15.5t-15.5 35.5q0 19 15 34t35 15z" />
<glyph unicode="Z&#x301;" horiz-adv-x="667" d="M20 -3v22l502 633h-180q-107 0 -180 -13l-6 -20q-17 -54 -21 -86h-26q11 100 11 159l118 -1l211 -2h26l162 3v-20l-504 -633h281q62 0 127 13l8 22l24 68l7 22h26q-20 -106 -23 -167l-66 1q-122 2 -256 2q-97 0 -241 -3zM324 728l153 151q18 18 33 18t26.5 -9.5 t11.5 -21.5q0 -20 -28 -37l-162 -101h-34z" />
<glyph unicode="&#x7a;&#x301;" horiz-adv-x="444" d="M-1 21l353 400q-45 -23 -93 -23q-32 0 -81 10q-25 5 -45 5q-18 0 -39 -5l-30 -58h-21l32 122q34 10 61 10q18 0 62 -11l18 -5q78 -21 134 -21q20 0 34 14l23 23l9 -9l-6 -32l-339 -382q50 21 95 21q29 0 86 -12l18 -4q29 -7 49 -7q31 0 39 25l22 60h22q-19 -82 -30 -143 q-36 -10 -50 -10q-38 0 -118 20q-74 17 -105 17q-51 0 -91 -32zM178 518l153 151q18 18 33 18t26.5 -9.5t11.5 -21.5q0 -20 -28 -37l-162 -101h-34z" />
<glyph unicode="Z&#x307;" horiz-adv-x="667" d="M20 -3v22l502 633h-180q-107 0 -180 -13l-6 -20q-17 -54 -21 -86h-26q11 100 11 159l118 -1l211 -2h26l162 3v-20l-504 -633h281q62 0 127 13l8 22l24 68l7 22h26q-20 -106 -23 -167l-66 1q-122 2 -256 2q-97 0 -241 -3zM432 855q21 0 37 -16t16 -37q0 -22 -16 -38.5 t-38 -16.5t-38 16.5t-16 38.5q0 21 16.5 37t38.5 16z" />
<glyph unicode="&#x7a;&#x307;" horiz-adv-x="444" d="M-1 21l353 400q-45 -23 -93 -23q-32 0 -81 10q-25 5 -45 5q-18 0 -39 -5l-30 -58h-21l32 122q34 10 61 10q18 0 62 -11l18 -5q78 -21 134 -21q20 0 34 14l23 23l9 -9l-6 -32l-339 -382q50 21 95 21q29 0 86 -12l18 -4q29 -7 49 -7q31 0 39 25l22 60h22q-19 -82 -30 -143 q-36 -10 -50 -10q-38 0 -118 20q-74 17 -105 17q-51 0 -91 -32zM286 645q21 0 37 -16t16 -37q0 -22 -16 -38.5t-38 -16.5t-38 16.5t-16 38.5q0 21 16.5 37t38.5 16z" />
<glyph unicode="Z&#x30c;" horiz-adv-x="667" d="M20 -3v22l502 633h-180q-107 0 -180 -13l-6 -20q-17 -54 -21 -86h-26q11 100 11 159l118 -1l211 -2h26l162 3v-20l-504 -633h281q62 0 127 13l8 22l24 68l7 22h26q-20 -106 -23 -167l-66 1q-122 2 -256 2q-97 0 -241 -3zM448 720h-46l-96 169h37l90 -105l142 105h36z" />
<glyph unicode="&#x7a;&#x30c;" horiz-adv-x="444" d="M-1 21l353 400q-45 -23 -93 -23q-32 0 -81 10q-25 5 -45 5q-18 0 -39 -5l-30 -58h-21l32 122q34 10 61 10q18 0 62 -11l18 -5q78 -21 134 -21q20 0 34 14l23 23l9 -9l-6 -32l-339 -382q50 21 95 21q29 0 86 -12l18 -4q29 -7 49 -7q31 0 39 25l22 60h22q-19 -82 -30 -143 q-36 -10 -50 -10q-38 0 -118 20q-74 17 -105 17q-51 0 -91 -32zM302 510h-46l-96 169h37l90 -105l142 105h36z" />
<glyph unicode="A&#x30c;" horiz-adv-x="722" d="M462 705h46l87 -625q6 -33 13 -40t43 -12l26 -3v-28q-102 3 -122 3t-122 -3v28l44 3q43 3 43 27q0 6 -2 22q0 2 -0.5 4t-1.5 3v2v3l-25 188h-246l-102 -175q-26 -45 -26 -55q0 -7 9.5 -12.5t21.5 -6.5l52 -3v-28q-86 3 -107 3q-20 0 -112 -3v30l20 5q26 6 43.5 22 t44.5 58zM449 601l-179 -288h216zM495 720h-46l-96 169h37l90 -105l142 105h36z" />
<glyph unicode="a&#x30c;" horiz-adv-x="444" d="M402 472l-92 -379q-1 -3 -1 -11q0 -23 15 -23q19 0 62 36q1 1 13 11l7 -21q-113 -94 -146 -94q-24 0 -24 35q0 26 6 51l29 127q-73 -103 -135 -159q-63 -56 -98 -56q-14 0 -24 22.5t-10 55.5q0 59 21 140t54 147q19 37 46 62t74 48q37 18 75 18q33 0 85 -19l33 18z M319 414q-56 19 -85 19q-36 0 -56.5 -16t-38.5 -57q-26 -60 -44.5 -136.5t-18.5 -124.5q0 -40 18 -40q24 0 65.5 39.5t84.5 102.5q26 39 42.5 85.5t32.5 127.5zM302 510h-46l-96 169h37l90 -105l142 105h36z" />
<glyph unicode="I&#x30c;" horiz-adv-x="333" d="M103 664l3 28l64 -2q43 -1 78 -1l97 3h9l-3 -28l-35 -3q-29 -3 -37.5 -11t-13.5 -37l-89 -535q-2 -8 -2 -21q0 -15 8 -21t28 -8l52 -3l-3 -28h-32l-94 3l-94 -3h-32l3 28l36 3q30 2 38.5 16t19.5 81l72 434q9 51 9 77q0 25 -35 26zM274 720h-46l-96 169h37l90 -105 l142 105h36z" />
<glyph unicode="i&#x30c;" horiz-adv-x="278" d="M34 388l28 20q105 74 134 74q25 0 25 -26q0 -12 -6 -36l-77 -304q-7 -29 -7 -40q0 -20 13 -20q15 0 61 30l26 17l10 -18q-73 -55 -106.5 -74.5t-53.5 -19.5q-30 0 -30 39q0 27 13 77l66 240q8 28 8 44q0 21 -17 21q-12 0 -48 -23l-32 -21zM219 510h-46l-96 169h37 l90 -105l142 105h36z" />
<glyph unicode="O&#x30c;" horiz-adv-x="778" d="M464 706q135 0 209.5 -73.5t74.5 -207.5q0 -119 -55 -222t-149 -161q-95 -60 -221 -60q-132 0 -201 74t-69 216q0 188 116.5 311t294.5 123zM433 664q-113 0 -183 -71q-52 -52 -80.5 -135t-28.5 -181q0 -125 55.5 -189t163.5 -64q118 0 192 76q51 53 79.5 134t28.5 175 q0 166 -97 223q-53 32 -130 32zM504 720h-46l-96 169h37l90 -105l142 105h36z" />
<glyph unicode="o&#x30c;" horiz-adv-x="444" d="M278 482q62 0 97.5 -40t35.5 -111q0 -76 -30 -153t-76 -121q-73 -68 -160 -68q-62 0 -95 42t-33 121q0 92 32.5 165t93.5 116q69 49 135 49zM241 444q-40 0 -60 -17q-37 -30 -62.5 -110.5t-25.5 -165.5q0 -59 24 -91.5t68 -32.5q47 0 75 33q33 40 54 111.5t21 143.5 q0 129 -94 129zM302 510h-46l-96 169h37l90 -105l142 105h36z" />
<glyph unicode="U&#x30c;" horiz-adv-x="778" d="M795 664l-36 -3q-29 -3 -38 -11.5t-13 -36.5l-85 -507q-6 -43 -6 -56q0 -18 32 -21l60 -4l-5 -28l-32 1q-13 0 -27.5 0.5t-21.5 1t-9 0.5l-62 -3h-22l-5 5q19 79 27 127q-39 -45 -68.5 -68.5t-74.5 -45.5q-68 -34 -133 -34q-84 0 -131.5 43.5t-47.5 119.5q0 30 6 62 l64 375q7 37 7 58q0 13 -7 17.5t-27 5.5l-52 2l3 28l32 -1q56 -2 58 -2q4 0 58 2l31 1l-88 -477q-7 -39 -7 -61q0 -53 37.5 -84t101.5 -31q58 0 113 29q38 19 65.5 42t63.5 67l71 445q1 4 1 12q0 27 -35 28l-48 2l3 28l63 -2q44 -1 80 -1l91 3h16zM416 720h-46l-96 169h37 l90 -105l142 105h36z" />
<glyph unicode="u&#x30c;" d="M333 97l37 142q-63 -103 -142 -176.5t-126 -73.5q-15 0 -25 12t-10 29q0 29 4 47l63 297q2 8 2 18q0 8 -5 14t-12 6q-12 0 -48 -23l-32 -21l-7 20l28 20q103 74 132 74q23 0 23 -31q0 -16 -5 -43l-57 -271q-7 -35 -7 -52q0 -26 13 -26q30 0 81.5 47t95.5 115 q48 73 71 193l10 51l68 17l7 -9q-45 -174 -84 -357l-1 -6q-5 -25 -5 -34q0 -17 13 -17q21 0 61 27l26 17l10 -18q-73 -55 -106.5 -74.5t-53.5 -19.5q-30 0 -30 40q0 28 11 66zM358 510h-46l-96 169h37l90 -105l142 105h36z" />
<glyph unicode="U&#x308;&#x304;" horiz-adv-x="778" d="M795 664l-36 -3q-29 -3 -38 -11.5t-13 -36.5l-85 -507q-6 -43 -6 -56q0 -18 32 -21l60 -4l-5 -28l-32 1q-13 0 -27.5 0.5t-21.5 1t-9 0.5l-62 -3h-22l-5 5q19 79 27 127q-39 -45 -68.5 -68.5t-74.5 -45.5q-68 -34 -133 -34q-84 0 -131.5 43.5t-47.5 119.5q0 30 6 62 l64 375q7 37 7 58q0 13 -7 17.5t-27 5.5l-52 2l3 28l32 -1q56 -2 58 -2q4 0 58 2l31 1l-88 -477q-7 -39 -7 -61q0 -53 37.5 -84t101.5 -31q58 0 113 29q38 19 65.5 42t63.5 67l71 445q1 4 1 12q0 27 -35 28l-48 2l3 28l63 -2q44 -1 80 -1l91 3h16zM298 847q19 0 34.5 -15 t15.5 -34q0 -20 -15.5 -35.5t-34.5 -15.5t-34.5 15.5t-15.5 35.5q0 19 15 34t35 15zM498 847q19 0 34.5 -15t15.5 -34q0 -20 -15.5 -35.5t-34.5 -15.5t-34.5 15.5t-15.5 35.5q0 19 15 34t35 15zM574 906l-11 -51h-301l11 51h301z" />
<glyph unicode="u&#x308;&#x304;" d="M333 97l37 142q-63 -103 -142 -176.5t-126 -73.5q-15 0 -25 12t-10 29q0 29 4 47l63 297q2 8 2 18q0 8 -5 14t-12 6q-12 0 -48 -23l-32 -21l-7 20l28 20q103 74 132 74q23 0 23 -31q0 -16 -5 -43l-57 -271q-7 -35 -7 -52q0 -26 13 -26q30 0 81.5 47t95.5 115 q48 73 71 193l10 51l68 17l7 -9q-45 -174 -84 -357l-1 -6q-5 -25 -5 -34q0 -17 13 -17q21 0 61 27l26 17l10 -18q-73 -55 -106.5 -74.5t-53.5 -19.5q-30 0 -30 40q0 28 11 66zM240 637q19 0 34.5 -15t15.5 -34q0 -20 -15.5 -35.5t-34.5 -15.5t-34.5 15.5t-15.5 35.5 q0 19 15 34t35 15zM440 637q19 0 34.5 -15t15.5 -34q0 -20 -15.5 -35.5t-34.5 -15.5t-34.5 15.5t-15.5 35.5q0 19 15 34t35 15zM515 696l-11 -51h-301l11 51h301z" />
<glyph unicode="U&#x308;&#x301;" horiz-adv-x="778" d="M795 664l-36 -3q-29 -3 -38 -11.5t-13 -36.5l-85 -507q-6 -43 -6 -56q0 -18 32 -21l60 -4l-5 -28l-32 1q-13 0 -27.5 0.5t-21.5 1t-9 0.5l-62 -3h-22l-5 5q19 79 27 127q-39 -45 -68.5 -68.5t-74.5 -45.5q-68 -34 -133 -34q-84 0 -131.5 43.5t-47.5 119.5q0 30 6 62 l64 375q7 37 7 58q0 13 -7 17.5t-27 5.5l-52 2l3 28l32 -1q56 -2 58 -2q4 0 58 2l31 1l-88 -477q-7 -39 -7 -61q0 -53 37.5 -84t101.5 -31q58 0 113 29q38 19 65.5 42t63.5 67l71 445q1 4 1 12q0 27 -35 28l-48 2l3 28l63 -2q44 -1 80 -1l91 3h16zM298 847q19 0 34.5 -15 t15.5 -34q0 -20 -15.5 -35.5t-34.5 -15.5t-34.5 15.5t-15.5 35.5q0 19 15 34t35 15zM498 847q19 0 34.5 -15t15.5 -34q0 -20 -15.5 -35.5t-34.5 -15.5t-34.5 15.5t-15.5 35.5q0 19 15 34t35 15zM310 835l153 151q18 18 33 18t26.5 -9.5t11.5 -21.5q0 -20 -28 -37l-162 -101 h-34z" />
<glyph unicode="u&#x308;&#x301;" d="M333 97l37 142q-63 -103 -142 -176.5t-126 -73.5q-15 0 -25 12t-10 29q0 29 4 47l63 297q2 8 2 18q0 8 -5 14t-12 6q-12 0 -48 -23l-32 -21l-7 20l28 20q103 74 132 74q23 0 23 -31q0 -16 -5 -43l-57 -271q-7 -35 -7 -52q0 -26 13 -26q30 0 81.5 47t95.5 115 q48 73 71 193l10 51l68 17l7 -9q-45 -174 -84 -357l-1 -6q-5 -25 -5 -34q0 -17 13 -17q21 0 61 27l26 17l10 -18q-73 -55 -106.5 -74.5t-53.5 -19.5q-30 0 -30 40q0 28 11 66zM240 637q19 0 34.5 -15t15.5 -34q0 -20 -15.5 -35.5t-34.5 -15.5t-34.5 15.5t-15.5 35.5 q0 19 15 34t35 15zM440 637q19 0 34.5 -15t15.5 -34q0 -20 -15.5 -35.5t-34.5 -15.5t-34.5 15.5t-15.5 35.5q0 19 15 34t35 15zM251 625l153 151q18 18 33 18t26.5 -9.5t11.5 -21.5q0 -20 -28 -37l-162 -101h-34z" />
<glyph unicode="U&#x308;&#x30c;" horiz-adv-x="778" d="M795 664l-36 -3q-29 -3 -38 -11.5t-13 -36.5l-85 -507q-6 -43 -6 -56q0 -18 32 -21l60 -4l-5 -28l-32 1q-13 0 -27.5 0.5t-21.5 1t-9 0.5l-62 -3h-22l-5 5q19 79 27 127q-39 -45 -68.5 -68.5t-74.5 -45.5q-68 -34 -133 -34q-84 0 -131.5 43.5t-47.5 119.5q0 30 6 62 l64 375q7 37 7 58q0 13 -7 17.5t-27 5.5l-52 2l3 28l32 -1q56 -2 58 -2q4 0 58 2l31 1l-88 -477q-7 -39 -7 -61q0 -53 37.5 -84t101.5 -31q58 0 113 29q38 19 65.5 42t63.5 67l71 445q1 4 1 12q0 27 -35 28l-48 2l3 28l63 -2q44 -1 80 -1l91 3h16zM298 847q19 0 34.5 -15 t15.5 -34q0 -20 -15.5 -35.5t-34.5 -15.5t-34.5 15.5t-15.5 35.5q0 19 15 34t35 15zM498 847q19 0 34.5 -15t15.5 -34q0 -20 -15.5 -35.5t-34.5 -15.5t-34.5 15.5t-15.5 35.5q0 19 15 34t35 15zM434 827h-46l-96 169h37l90 -105l142 105h36z" />
<glyph unicode="u&#x308;&#x30c;" d="M333 97l37 142q-63 -103 -142 -176.5t-126 -73.5q-15 0 -25 12t-10 29q0 29 4 47l63 297q2 8 2 18q0 8 -5 14t-12 6q-12 0 -48 -23l-32 -21l-7 20l28 20q103 74 132 74q23 0 23 -31q0 -16 -5 -43l-57 -271q-7 -35 -7 -52q0 -26 13 -26q30 0 81.5 47t95.5 115 q48 73 71 193l10 51l68 17l7 -9q-45 -174 -84 -357l-1 -6q-5 -25 -5 -34q0 -17 13 -17q21 0 61 27l26 17l10 -18q-73 -55 -106.5 -74.5t-53.5 -19.5q-30 0 -30 40q0 28 11 66zM240 637q19 0 34.5 -15t15.5 -34q0 -20 -15.5 -35.5t-34.5 -15.5t-34.5 15.5t-15.5 35.5 q0 19 15 34t35 15zM440 637q19 0 34.5 -15t15.5 -34q0 -20 -15.5 -35.5t-34.5 -15.5t-34.5 15.5t-15.5 35.5q0 19 15 34t35 15zM375 617h-46l-96 169h37l90 -105l142 105h36z" />
<glyph unicode="U&#x308;&#x300;" horiz-adv-x="778" d="M795 664l-36 -3q-29 -3 -38 -11.5t-13 -36.5l-85 -507q-6 -43 -6 -56q0 -18 32 -21l60 -4l-5 -28l-32 1q-13 0 -27.5 0.5t-21.5 1t-9 0.5l-62 -3h-22l-5 5q19 79 27 127q-39 -45 -68.5 -68.5t-74.5 -45.5q-68 -34 -133 -34q-84 0 -131.5 43.5t-47.5 119.5q0 30 6 62 l64 375q7 37 7 58q0 13 -7 17.5t-27 5.5l-52 2l3 28l32 -1q56 -2 58 -2q4 0 58 2l31 1l-88 -477q-7 -39 -7 -61q0 -53 37.5 -84t101.5 -31q58 0 113 29q38 19 65.5 42t63.5 67l71 445q1 4 1 12q0 27 -35 28l-48 2l3 28l63 -2q44 -1 80 -1l91 3h16zM298 847q19 0 34.5 -15 t15.5 -34q0 -20 -15.5 -35.5t-34.5 -15.5t-34.5 15.5t-15.5 35.5q0 19 15 34t35 15zM498 847q19 0 34.5 -15t15.5 -34q0 -20 -15.5 -35.5t-34.5 -15.5t-34.5 15.5t-15.5 35.5q0 19 15 34t35 15zM464 835l-162 101q-28 17 -28 37q0 13 11.5 22t26.5 9q13 0 33 -18l153 -151 h-34z" />
<glyph unicode="u&#x308;&#x300;" d="M333 97l37 142q-63 -103 -142 -176.5t-126 -73.5q-15 0 -25 12t-10 29q0 29 4 47l63 297q2 8 2 18q0 8 -5 14t-12 6q-12 0 -48 -23l-32 -21l-7 20l28 20q103 74 132 74q23 0 23 -31q0 -16 -5 -43l-57 -271q-7 -35 -7 -52q0 -26 13 -26q30 0 81.5 47t95.5 115 q48 73 71 193l10 51l68 17l7 -9q-45 -174 -84 -357l-1 -6q-5 -25 -5 -34q0 -17 13 -17q21 0 61 27l26 17l10 -18q-73 -55 -106.5 -74.5t-53.5 -19.5q-30 0 -30 40q0 28 11 66zM240 637q19 0 34.5 -15t15.5 -34q0 -20 -15.5 -35.5t-34.5 -15.5t-34.5 15.5t-15.5 35.5 q0 19 15 34t35 15zM440 637q19 0 34.5 -15t15.5 -34q0 -20 -15.5 -35.5t-34.5 -15.5t-34.5 15.5t-15.5 35.5q0 19 15 34t35 15zM405 625l-162 101q-28 17 -28 37q0 13 11.5 22t26.5 9q13 0 33 -18l153 -151h-34z" />
<glyph unicode="&#xc6;&#x304;" horiz-adv-x="941" d="M486 279h-222l-18 -30l-14 -22l-76 -129q-1 -1 -4 -7q-16 -25 -16 -37q0 -27 61 -27h24v-30l-76 3h-31q-34 0 -70 -2l-48 -1v30l34 5q17 2 36 30l368 545q13 20 13 36q0 7 -11.5 13t-25.5 6h-66v30l60 -1q85 -2 183 -2q75 0 88 1l120 1q24 1 38 1q37 0 69 -3 q-17 -57 -21 -152h-24l-8 89q-1 11 -27.5 17.5t-66.5 6.5q-14 0 -76 -2q-1 0 -47 -2q-5 -10 -9 -32l-42 -238h17q98 0 219 6l4 -7l-19 -45l-26 1q-72 3 -106 3h-97l-43 -253q-2 -18 -2 -31v-4l26 -2q57 -5 86 -5q111 0 147 9q16 4 24.5 15t16.5 38l16 60h27l-5 -26 q-13 -73 -16 -99l-4 -36l-33 -1q-70 -2 -71 -2q-2 0 -16 0.5t-51 1t-87 0.5q-21 1 -56 1q-21 0 -107 -2l-41 -1l5 26q32 5 43.5 13.5t15.5 29.5zM290 319h202l54 336h-14q-14 0 -37 -35zM725 799l-11 -51h-301l11 51h301z" />
<glyph unicode="&#xe6;&#x304;" horiz-adv-x="638" d="M579 113l7 -22q-74 -59 -116 -80.5t-87 -21.5q-47 0 -74 21.5t-41 70.5q-53 -51 -90.5 -71.5t-80.5 -20.5q-96 0 -96 103q0 160 215 160h68q6 18 6 55q0 127 -110 127q-26 0 -53 -9q-8 -7 -11 -14l-20 -58l-18 5l-6 68l12 8l13 8q36 24 59 32t56 8q53 0 84.5 -21 t54.5 -73q62 51 105 72.5t83 21.5q37 0 60.5 -22t23.5 -57q0 -37 -27.5 -73t-73.5 -59q-68 -35 -173 -41q-13 -69 -13 -98q0 -44 22.5 -70t61.5 -26q44 0 121 52l18 12zM282 228h-38q-170 0 -170 -124q0 -32 17.5 -50t49.5 -18q43 0 79 37t52 97q5 16 10 58zM353 255 q44 5 51 6q66 12 105.5 46.5t39.5 80.5q0 52 -56 52q-58 0 -102 -67q-30 -50 -38 -118zM539 589l-11 -51h-301l11 51h301z" />
<glyph unicode="j&#x30c;" horiz-adv-x="278" d="M-70 -269l8 57q31 -19 53 -19q29 0 47 87l100 495l2 12q5 18 5 28t-5 16.5t-13 6.5q-7 0 -47 -25l-32 -21l-7 20l28 20q105 74 134 74q25 0 25 -25q0 -10 -6 -37l-76 -350q-36 -164 -62 -222q-55 -124 -116 -124q-24 0 -38 7zM219 510h-46l-96 169h37l90 -105l142 105h36 z" />
<glyph unicode="&#xc6;&#x301;" horiz-adv-x="941" d="M486 279h-222l-18 -30l-14 -22l-76 -129q-1 -1 -4 -7q-16 -25 -16 -37q0 -27 61 -27h24v-30l-76 3h-31q-34 0 -70 -2l-48 -1v30l34 5q17 2 36 30l368 545q13 20 13 36q0 7 -11.5 13t-25.5 6h-66v30l60 -1q85 -2 183 -2q75 0 88 1l120 1q24 1 38 1q37 0 69 -3 q-17 -57 -21 -152h-24l-8 89q-1 11 -27.5 17.5t-66.5 6.5q-14 0 -76 -2q-1 0 -47 -2q-5 -10 -9 -32l-42 -238h17q98 0 219 6l4 -7l-19 -45l-26 1q-72 3 -106 3h-97l-43 -253q-2 -18 -2 -31v-4l26 -2q57 -5 86 -5q111 0 147 9q16 4 24.5 15t16.5 38l16 60h27l-5 -26 q-13 -73 -16 -99l-4 -36l-33 -1q-70 -2 -71 -2q-2 0 -16 0.5t-51 1t-87 0.5q-21 1 -56 1q-21 0 -107 -2l-41 -1l5 26q32 5 43.5 13.5t15.5 29.5zM290 319h202l54 336h-14q-14 0 -37 -35zM461 728l153 151q18 18 33 18t26.5 -9.5t11.5 -21.5q0 -20 -28 -37l-162 -101h-34z " />
<glyph unicode="&#xe6;&#x301;" horiz-adv-x="638" d="M579 113l7 -22q-74 -59 -116 -80.5t-87 -21.5q-47 0 -74 21.5t-41 70.5q-53 -51 -90.5 -71.5t-80.5 -20.5q-96 0 -96 103q0 160 215 160h68q6 18 6 55q0 127 -110 127q-26 0 -53 -9q-8 -7 -11 -14l-20 -58l-18 5l-6 68l12 8l13 8q36 24 59 32t56 8q53 0 84.5 -21 t54.5 -73q62 51 105 72.5t83 21.5q37 0 60.5 -22t23.5 -57q0 -37 -27.5 -73t-73.5 -59q-68 -35 -173 -41q-13 -69 -13 -98q0 -44 22.5 -70t61.5 -26q44 0 121 52l18 12zM282 228h-38q-170 0 -170 -124q0 -32 17.5 -50t49.5 -18q43 0 79 37t52 97q5 16 10 58zM353 255 q44 5 51 6q66 12 105.5 46.5t39.5 80.5q0 52 -56 52q-58 0 -102 -67q-30 -50 -38 -118zM275 518l153 151q18 18 33 18t26.5 -9.5t11.5 -21.5q0 -20 -28 -37l-162 -101h-34z" />
<glyph unicode="S&#x326;" d="M451 537v76q-42 45 -112 45q-69 0 -114 -42.5t-45 -107.5q0 -97 96 -117l65 -14q76 -17 110 -50.5t34 -92.5q0 -101 -86 -176.5t-202 -75.5q-81 0 -155 38q15 72 24 152h30v-99q61 -43 136 -43q77 0 125.5 45t48.5 116q0 85 -81 105l-95 23q-63 15 -92.5 51.5 t-29.5 100.5q0 89 64 150q39 40 93 62.5t109 22.5q68 0 132 -34q-19 -60 -25 -135h-30zM263 -60l9 -18q-69 -132 -141 -214l-32 -13l-7 9q68 106 82 211q35 5 89 25z" />
<glyph unicode="s&#x326;" horiz-adv-x="389" d="M31 148h25v-84q41 -35 94 -35t85 30t32 79q0 29 -13.5 44t-46.5 21l-63 12q-97 19 -97 101q0 50 37 88q78 78 161 78q45 0 100 -27q-13 -60 -19 -113h-23v55q-12 20 -38 32.5t-57 12.5q-43 0 -72.5 -27t-29.5 -67q0 -31 17 -46t62 -23l43 -8q56 -11 81 -34t25 -63 q0 -71 -72 -127q-74 -58 -146 -58q-50 0 -107 27q15 64 22 132zM192 -60l9 -18q-69 -132 -141 -214l-32 -13l-7 9q68 106 82 211q35 5 89 25z" />
<glyph unicode="H&#x307;" horiz-adv-x="778" d="M221 385h370l30 174q9 54 9 76q0 26 -35 27l-48 2l3 28l63 -2q44 -1 80 -1l91 3h16l-3 -28l-36 -3q-29 -3 -37.5 -11t-13.5 -37l-92 -520q-4 -23 -4 -35q0 -29 36 -30l58 -3l-3 -28l-42 1q-86 2 -90 2q-5 0 -16 -0.5t-31.5 -1t-37.5 -0.5l-56 -1l4 28l50 3q31 3 37 14 q7 9 21 83l40 215l-61 1q-24 0 -53.5 0.5t-45.5 1t-24 0.5t-24 -0.5t-46 -1t-53 -0.5l-61 -1l-42 -247q-4 -25 -4 -35q0 -16 8 -22t28 -8l49 -3l-3 -28h-26l-97 3q-8 0 -19.5 -0.5t-31.5 -1t-39 -0.5l-42 -1l4 28l41 3q30 3 37.5 15.5t20.5 81.5l74 434q9 56 9 76 q0 26 -35 27l-47 2l3 28l64 -2q43 -1 77 -1l90 3h24l-3 -28l-42 -3q-28 -2 -37 -10.5t-14 -37.5zM491 855q21 0 37 -16t16 -37q0 -22 -16 -38.5t-38 -16.5t-38 16.5t-16 38.5q0 21 16.5 37t38.5 16z" />
<glyph unicode="h&#x307;" horiz-adv-x="500" d="M236 722l-98 -457l20 25q55 70 98 106q102 86 158 86q29 0 29 -36q0 -26 -11 -74l-64 -256q-7 -26 -7 -40q0 -20 13 -20q15 0 61 30l26 17l10 -18q-73 -55 -106.5 -74.5t-53.5 -19.5q-30 0 -30 39q0 25 13 77l51 196q15 62 15 89q0 22 -22 22q-32 0 -94.5 -58.5 t-95.5 -119.5q-40 -74 -62 -229l-69 -16l-7 11q37 111 88 386l42 234q2 14 2 24q0 24 -34 24h-48l4 21q94 9 160 42zM349 855q21 0 37 -16t16 -37q0 -22 -16 -38.5t-38 -16.5t-38 16.5t-16 38.5q0 21 16.5 37t38.5 16z" />
<glyph unicode="H&#x32e;" horiz-adv-x="778" d="M221 385h370l30 174q9 54 9 76q0 26 -35 27l-48 2l3 28l63 -2q44 -1 80 -1l91 3h16l-3 -28l-36 -3q-29 -3 -37.5 -11t-13.5 -37l-92 -520q-4 -23 -4 -35q0 -29 36 -30l58 -3l-3 -28l-42 1q-86 2 -90 2q-5 0 -16 -0.5t-31.5 -1t-37.5 -0.5l-56 -1l4 28l50 3q31 3 37 14 q7 9 21 83l40 215l-61 1q-24 0 -53.5 0.5t-45.5 1t-24 0.5t-24 -0.5t-46 -1t-53 -0.5l-61 -1l-42 -247q-4 -25 -4 -35q0 -16 8 -22t28 -8l49 -3l-3 -28h-26l-97 3q-8 0 -19.5 -0.5t-31.5 -1t-39 -0.5l-42 -1l4 28l41 3q30 3 37.5 15.5t20.5 81.5l74 434q9 56 9 76 q0 26 -35 27l-47 2l3 28l64 -2q43 -1 77 -1l90 3h24l-3 -28l-42 -3q-28 -2 -37 -10.5t-14 -37.5zM219 -98h22q6 -79 85 -79q36 0 59.5 17.5t46.5 61.5h23q-14 -52 -35 -78q-37 -47 -98 -47q-62 0 -87 46q-16 28 -16 79z" />
<glyph unicode="h&#x32e;" horiz-adv-x="500" d="M236 722l-98 -457l20 25q55 70 98 106q102 86 158 86q29 0 29 -36q0 -26 -11 -74l-64 -256q-7 -26 -7 -40q0 -20 13 -20q15 0 61 30l26 17l10 -18q-73 -55 -106.5 -74.5t-53.5 -19.5q-30 0 -30 39q0 25 13 77l51 196q15 62 15 89q0 22 -22 22q-32 0 -94.5 -58.5 t-95.5 -119.5q-40 -74 -62 -229l-69 -16l-7 11q37 111 88 386l42 234q2 14 2 24q0 24 -34 24h-48l4 21q94 9 160 42zM77 -98h22q6 -79 85 -79q36 0 59.5 17.5t46.5 61.5h23q-14 -52 -35 -78q-37 -47 -98 -47q-62 0 -87 46q-16 28 -16 79z" />
<glyph unicode="K&#x331;" horiz-adv-x="667" d="M371 664l-42 -3q-28 -2 -37 -10.5t-14 -37.5l-45 -260q89 69 149 131l128 130q38 38 38 49v29l20 -1q42 -2 47 -2q3 0 45 2l23 1v-27h-21q-27 0 -54 -25l-292 -273l246 -302q31 -38 64 -38h20v-30q-9 0 -28 1t-40 2l-69 -3q-80 109 -123.5 162.5t-154.5 180.5l-43 -262 q-2 -8 -2 -21q0 -15 8 -21t28 -8l49 -3l-3 -28h-26l-97 3q-8 0 -19.5 -0.5t-31.5 -1t-39 -0.5l-42 -1l4 28l41 3q30 3 37.5 15.5t20.5 81.5l73 434q9 49 9 76q0 26 -35 27l-47 2l3 28l64 -2q43 -1 77 -1l90 3h24zM31 -82h534v-52h-534v52z" />
<glyph unicode="k&#x331;" horiz-adv-x="444" d="M234 722l-107 -492q94 132 159.5 192t114.5 60q21 0 48 -9l-17 -63q-26 6 -36 6q-71 0 -157 -86l-14 -14q49 -156 96 -241q12 -23 26 -23q11 0 29 10l43 24l8 -19l-46 -32q-62 -44 -81 -44t-46.5 59t-79.5 209q-53 -53 -67 -127l-23 -124l-67 -17l-9 10q64 259 82 353 l48 268q2 14 2 24q0 24 -34 24h-48l4 21q94 9 160 42zM22 -82h355v-52h-355v52z" />
<glyph unicode="&#x1e36;&#x304;" d="M349 664l-42 -3q-28 -2 -37 -10.5t-14 -37.5l-92 -532q-2 -18 -2 -31v-4q77 -7 142 -7q118 0 144 10q14 8 27 54l17 62h31q-23 -113 -23 -162v-3l-33 -1q-66 -2 -72 -2h-10l-215 3q-51 0 -113 -2l-41 -1l5 26q33 5 45 11.5t15 20.5l86 504q9 56 9 76q0 26 -35 27l-47 2 l3 28l64 -2q43 -1 77 -1l90 3h24zM230 -101q19 0 32 -14t13 -34q0 -28 -18 -48.5t-43 -20.5q-20 0 -32 12.5t-12 34.5q0 29 17.5 49.5t42.5 20.5zM533 799l-11 -51h-301l11 51h301z" />
<glyph unicode="&#x1e37;&#x304;" horiz-adv-x="278" d="M251 722l-129 -609l-2 -9q-4 -20 -4 -28t4 -14t9 -6q15 0 61 30l26 17l10 -18q-73 -55 -106.5 -74.5t-53.5 -19.5q-30 0 -30 40q0 28 19 101l14 52q11 37 44 205.5t38 210.5l3 22q3 18 3 26q0 22 -34 22h-48l4 21q94 9 160 42zM91 -101q19 0 32 -14t13 -34 q0 -28 -18 -48.5t-43 -20.5q-20 0 -32 12.5t-12 34.5q0 29 17.5 49.5t42.5 20.5zM394 799l-11 -51h-301l11 51h301z" />
<glyph unicode="L&#x331;" d="M349 664l-42 -3q-28 -2 -37 -10.5t-14 -37.5l-92 -532q-2 -18 -2 -31v-4q77 -7 142 -7q118 0 144 10q14 8 27 54l17 62h31q-23 -113 -23 -162v-3l-33 -1q-66 -2 -72 -2h-10l-215 3q-51 0 -113 -2l-41 -1l5 26q33 5 45 11.5t15 20.5l86 504q9 56 9 76q0 26 -35 27l-47 2 l3 28l64 -2q43 -1 77 -1l90 3h24zM33 -82h445v-52h-445v52z" />
<glyph unicode="l&#x331;" horiz-adv-x="278" d="M251 722l-129 -609l-2 -9q-4 -20 -4 -28t4 -14t9 -6q15 0 61 30l26 17l10 -18q-73 -55 -106.5 -74.5t-53.5 -19.5q-30 0 -30 40q0 28 19 101l14 52q11 37 44 205.5t38 210.5l3 22q3 18 3 26q0 22 -34 22h-48l4 21q94 9 160 42zM5 -82h222v-52h-222v52z" />
<glyph unicode="M&#x307;" horiz-adv-x="944" d="M937 664l-38 -2q-43 -3 -46 -31l-41 -531l-1 -37q0 -31 54 -35l37 -3l-3 -28l-46 1q-82 2 -87 2q-3 0 -87 -2l-47 -1l3 28l31 3q38 3 51 10.5t16 28.5l37 520l-52 -87l-239 -414l-57 -104h-23l-149 578l-124 -464q-7 -25 -7 -41q0 -24 49 -27l38 -3l-3 -28l-35 1 q-70 2 -75 2t-73 -2l-39 -1l3 26q41 4 57.5 17.5t28.5 52.5l145 509q3 10 3 20q0 19 -15.5 28t-54.5 12l-26 2l3 28l59 -3h24q28 0 56 2l28 1l150 -578l246 422l69 125l16 31l59 -3h24q28 0 56 2l28 1zM590 855q21 0 37 -16t16 -37q0 -22 -16 -38.5t-38 -16.5t-38 16.5 t-16 38.5q0 21 16.5 37t38.5 16z" />
<glyph unicode="m&#x307;" horiz-adv-x="778" d="M730 103l10 -18q-73 -55 -106.5 -74.5t-53.5 -19.5q-30 0 -30 40q0 36 13 76q23 78 43 157q25 99 25 125q0 25 -13 25q-50 0 -137 -96q-69 -76 -94 -205l-21 -107l-69 -15l-5 11l16 67q63 269 63 324q0 21 -11 21q-46 0 -115 -76q-41 -45 -64.5 -96t-41.5 -134l-22 -102 l-68 -15l-3 11q31 107 56.5 228t25.5 159q0 25 -18 25q-7 0 -47 -25l-32 -21l-7 20l28 20q103 74 133 74q23 0 23 -31q0 -19 -6 -43l-33 -133q48 65 71.5 91t57.5 52q84 64 131 64q26 0 26 -31q0 -7 -7 -42l-30 -137q37 51 68 83t79 66q87 61 128 61q26 0 26 -28 q0 -11 -7 -41l-75 -297q-7 -29 -7 -40q0 -20 13 -20q15 0 61 30zM453 645q21 0 37 -16t16 -37q0 -22 -16 -38.5t-38 -16.5t-38 16.5t-16 38.5q0 21 16.5 37t38.5 16z" />
<glyph unicode="N&#x307;" horiz-adv-x="778" d="M237 692l345 -589l80 489q5 32 5 46q0 23 -36 24l-47 2l5 28h19l86 -3l89 3h21l-5 -28l-37 -2q-28 -2 -36 -18.5t-24 -101.5l-94 -553h-50l-338 577l-80 -464q-3 -16 -3 -30q0 -25 9.5 -33.5t39.5 -10.5l42 -3l-5 -28q-97 3 -110 3l-111 -3l5 28l31 3q27 3 36 15.5 t18 58.5l88 474q1 4 3 18q1 2 1 5q1 3 1 7q0 15 -30 39q-19 15 -50 17l-35 2l5 28l16 -1q10 0 20 -0.5t15 -1t6 -0.5h14h10zM486 855q21 0 37 -16t16 -37q0 -22 -16 -38.5t-38 -16.5t-38 16.5t-16 38.5q0 21 16.5 37t38.5 16z" />
<glyph unicode="n&#x307;" d="M24 388l28 20q104 74 133 74q23 0 23 -33q0 -14 -6 -41l-38 -161q69 97 118 142q44 41 91.5 67t78.5 26t31 -36q0 -28 -11 -74l-66 -276q-2 -8 -2 -20q0 -20 13 -20q15 0 61 30l26 17l10 -18q-73 -55 -106.5 -74.5t-53.5 -19.5q-30 0 -30 40q0 23 13 76l52 212 q11 44 11 71q0 24 -17 24q-34 0 -84 -41.5t-90 -104.5q-34 -51 -53 -108t-33 -152q-26 -5 -70 -17l-7 11q31 107 56.5 228t25.5 159q0 25 -18 25q-7 0 -47 -25l-32 -21zM342 645q21 0 37 -16t16 -37q0 -22 -16 -38.5t-38 -16.5t-38 16.5t-16 38.5q0 21 16.5 37t38.5 16z" />
<glyph unicode="N&#x331;" horiz-adv-x="778" d="M237 692l345 -589l80 489q5 32 5 46q0 23 -36 24l-47 2l5 28h19l86 -3l89 3h21l-5 -28l-37 -2q-28 -2 -36 -18.5t-24 -101.5l-94 -553h-50l-338 577l-80 -464q-3 -16 -3 -30q0 -25 9.5 -33.5t39.5 -10.5l42 -3l-5 -28q-97 3 -110 3l-111 -3l5 28l31 3q27 3 36 15.5 t18 58.5l88 474q1 4 3 18q1 2 1 5q1 3 1 7q0 15 -30 39q-19 15 -50 17l-35 2l5 28l16 -1q10 0 20 -0.5t15 -1t6 -0.5h14h10zM53 -82h622v-52h-622v52z" />
<glyph unicode="n&#x331;" d="M24 388l28 20q104 74 133 74q23 0 23 -33q0 -14 -6 -41l-38 -161q69 97 118 142q44 41 91.5 67t78.5 26t31 -36q0 -28 -11 -74l-66 -276q-2 -8 -2 -20q0 -20 13 -20q15 0 61 30l26 17l10 -18q-73 -55 -106.5 -74.5t-53.5 -19.5q-30 0 -30 40q0 23 13 76l52 212 q11 44 11 71q0 24 -17 24q-34 0 -84 -41.5t-90 -104.5q-34 -51 -53 -108t-33 -152q-26 -5 -70 -17l-7 11q31 107 56.5 228t25.5 159q0 25 -18 25q-7 0 -47 -25l-32 -21zM33 -82h445v-52h-445v52z" />
<glyph unicode="O&#x303;&#x301;" horiz-adv-x="778" d="M464 706q135 0 209.5 -73.5t74.5 -207.5q0 -119 -55 -222t-149 -161q-95 -60 -221 -60q-132 0 -201 74t-69 216q0 188 116.5 311t294.5 123zM433 664q-113 0 -183 -71q-52 -52 -80.5 -135t-28.5 -181q0 -125 55.5 -189t163.5 -64q118 0 192 76q51 53 79.5 134t28.5 175 q0 166 -97 223q-53 32 -130 32zM350 745h-29q15 55 38 79t60 24q27 0 63 -14l60 -24q12 -5 27 -5t25.5 9t25.5 34h28q-9 -49 -34.5 -76t-62.5 -27q-23 0 -64 16l-38 15l-2 1q-3 0 -7 3q-22 9 -38 9q-19 0 -30 -9.5t-22 -34.5zM398 835l153 151q18 18 33 18t26.5 -9.5 t11.5 -21.5q0 -20 -28 -37l-162 -101h-34z" />
<glyph unicode="o&#x303;&#x301;" horiz-adv-x="444" d="M278 482q62 0 97.5 -40t35.5 -111q0 -76 -30 -153t-76 -121q-73 -68 -160 -68q-62 0 -95 42t-33 121q0 92 32.5 165t93.5 116q69 49 135 49zM241 444q-40 0 -60 -17q-37 -30 -62.5 -110.5t-25.5 -165.5q0 -59 24 -91.5t68 -32.5q47 0 75 33q33 40 54 111.5t21 143.5 q0 129 -94 129zM148 535h-29q15 55 38 79t60 24q27 0 63 -14l60 -24q12 -5 27 -5t25.5 9t25.5 34h28q-9 -49 -34.5 -76t-62.5 -27q-23 0 -64 16l-38 15l-2 1q-3 0 -7 3q-22 9 -38 9q-19 0 -30 -9.5t-22 -34.5zM195 625l153 151q18 18 33 18t26.5 -9.5t11.5 -21.5 q0 -20 -28 -37l-162 -101h-34z" />
<glyph unicode="P&#x301;" horiz-adv-x="611" d="M105 664l3 28l53 -1l113 -2l138 3h9q85 0 129 -38.5t44 -112.5q0 -102 -71 -177.5t-168 -75.5q-39 0 -86 23l-2 31q50 -19 79 -19q66 0 113 57.5t47 138.5q0 137 -151 137q-23 0 -71 -8l-4 -16q-3 -10 -3 -12q-9 -34 -9 -40l-82 -487q-4 -25 -4 -35q0 -29 36 -30l65 -3 l-3 -28l-53 1q-80 2 -86 2q-8 0 -90 -2l-42 -1l4 28l41 3q30 2 37.5 15t20.5 82l74 434q9 56 9 76q0 26 -35 27zM287 728l153 151q18 18 33 18t26.5 -9.5t11.5 -21.5q0 -20 -28 -37l-162 -101h-34z" />
<glyph unicode="p&#x301;" horiz-adv-x="500" d="M115 3l-42 -262q-41 -6 -73 -17l-7 6l8 37q35 159 49 241l58 343q4 20 4 38q0 23 -17 23q-12 0 -48 -23l-32 -21l-7 20l28 20q103 74 133 74q22 0 22 -30q0 -16 -5 -44l-24 -119q47 78 97 120q81 73 147 73q27 0 43 -30.5t16 -80.5q0 -56 -22 -128t-53 -118 q-32 -47 -102 -91.5t-112 -44.5q-16 0 -52 11zM143 165l-18 -106q37 -23 82 -23q63 0 93 44q40 57 66.5 136t26.5 140q0 68 -38 68q-62 0 -128.5 -81.5t-83.5 -177.5zM206 518l153 151q18 18 33 18t26.5 -9.5t11.5 -21.5q0 -20 -28 -37l-162 -101h-34z" />
<glyph unicode="&#x1e5a;&#x304;" horiz-adv-x="667" d="M105 664l3 28q118 -3 151 -3l150 3h7q80 0 124 -34.5t44 -97.5q0 -94 -89 -158q-48 -35 -120 -48l184 -275q22 -32 36 -41.5t44 -13.5v-27h-13q-28 3 -34 3h-11h-8l-66 -3q-87 148 -240 370l3 11h44q78 0 130 47t52 118q0 113 -133 113q-37 0 -76 -8l-7 -28 q-2 -7 -4 -17.5t-3.5 -16t-1.5 -6.5l-85 -487q-4 -23 -4 -35q0 -15 8 -22t28 -8l49 -3l-3 -28h-26l-97 3q-43 0 -90 -2l-42 -1l4 28l41 3q30 3 38 16t20 81l75 434q9 54 9 76q0 26 -35 27zM276 -101q19 0 32 -14t13 -34q0 -28 -18 -48.5t-43 -20.5q-20 0 -32 12.5t-12 34.5 q0 29 17.5 49.5t42.5 20.5zM579 799l-11 -51h-301l11 51h301z" />
<glyph unicode="&#x1e5b;&#x304;" horiz-adv-x="389" d="M368 365h-14q-15 19 -36 19q-33 0 -83 -65q-60 -78 -85 -193l-26 -120l-13 -2q-43 -9 -54 -13l-10 7q30 95 56.5 221.5t26.5 170.5q0 22 -17 22q-12 0 -48 -23l-32 -21l-7 20l28 20q103 74 133 74q23 0 23 -32q0 -16 -6 -42l-6 -26q-9 -33 -18 -85l-8 -41q21 46 67 112 l27 39q53 75 98 75q7 0 20 -6q-12 -62 -16 -111zM74 -101q19 0 32 -14t13 -34q0 -28 -18 -48.5t-43 -20.5q-20 0 -32 12.5t-12 34.5q0 29 17.5 49.5t42.5 20.5zM414 589l-11 -51h-301l11 51h301z" />
<glyph unicode="R&#x331;" horiz-adv-x="667" d="M105 664l3 28q118 -3 151 -3l150 3h7q80 0 124 -34.5t44 -97.5q0 -94 -89 -158q-48 -35 -120 -48l184 -275q22 -32 36 -41.5t44 -13.5v-27h-13q-28 3 -34 3h-11h-8l-66 -3q-87 148 -240 370l3 11h44q78 0 130 47t52 118q0 113 -133 113q-37 0 -76 -8l-7 -28 q-2 -7 -4 -17.5t-3.5 -16t-1.5 -6.5l-85 -487q-4 -23 -4 -35q0 -15 8 -22t28 -8l49 -3l-3 -28h-26l-97 3q-43 0 -90 -2l-42 -1l4 28l41 3q30 3 38 16t20 81l75 434q9 54 9 76q0 26 -35 27zM35 -82h534v-52h-534v52z" />
<glyph unicode="r&#x331;" horiz-adv-x="389" d="M368 365h-14q-15 19 -36 19q-33 0 -83 -65q-60 -78 -85 -193l-26 -120l-13 -2q-43 -9 -54 -13l-10 7q30 95 56.5 221.5t26.5 170.5q0 22 -17 22q-12 0 -48 -23l-32 -21l-7 20l28 20q103 74 133 74q23 0 23 -32q0 -16 -6 -42l-6 -26q-9 -33 -18 -85l-8 -41q21 46 67 112 l27 39q53 75 98 75q7 0 20 -6q-12 -62 -16 -111zM3 -82h178v-52h-178v52z" />
<glyph unicode="T&#x331;" horiz-adv-x="611" d="M390 646l-94 -553q-4 -25 -4 -35q0 -29 36 -30l59 -3l-3 -28l-44 1q-78 2 -89 2q-5 0 -85 -2l-57 -1l4 28l51 3q30 2 38 15.5t20 81.5l86 521h-112q-70 0 -81 -13q-11 -12 -18 -45l-15 -60h-29l18 164l95 -1q172 -2 187 -2t191 2l91 1l-27 -164h-28l4 64v6q0 17 -4 31 q-4 17 -117 17h-73zM-14 -82h489v-52h-489v52z" />
<glyph unicode="t&#x331;" horiz-adv-x="333" d="M125 390h-84l2 13q25 7 88 37l25 170q51 20 78 36l11 -15q-23 -70 -45 -197q53 0 110 6l-11 -50h-107l-13 -62q-43 -215 -43 -252q0 -20 14 -20q16 0 60 30l45 31l10 -18l-16 -13l-15 -12q-59 -47 -90.5 -65t-57.5 -18q-30 0 -30 40q0 18 8 55q5 19 5 21zM11 -82h266v-52 h-266v52z" />
<glyph unicode="U&#x303;&#x301;" horiz-adv-x="778" d="M795 664l-36 -3q-29 -3 -38 -11.5t-13 -36.5l-85 -507q-6 -43 -6 -56q0 -18 32 -21l60 -4l-5 -28l-32 1q-13 0 -27.5 0.5t-21.5 1t-9 0.5l-62 -3h-22l-5 5q19 79 27 127q-39 -45 -68.5 -68.5t-74.5 -45.5q-68 -34 -133 -34q-84 0 -131.5 43.5t-47.5 119.5q0 30 6 62 l64 375q7 37 7 58q0 13 -7 17.5t-27 5.5l-52 2l3 28l32 -1q56 -2 58 -2q4 0 58 2l31 1l-88 -477q-7 -39 -7 -61q0 -53 37.5 -84t101.5 -31q58 0 113 29q38 19 65.5 42t63.5 67l71 445q1 4 1 12q0 27 -35 28l-48 2l3 28l63 -2q44 -1 80 -1l91 3h16zM262 745h-29q15 55 38 79 t60 24q27 0 63 -14l60 -24q12 -5 27 -5t25.5 9t25.5 34h28q-9 -49 -34.5 -76t-62.5 -27q-23 0 -64 16l-38 15l-2 1q-3 0 -7 3q-22 9 -38 9q-19 0 -30 -9.5t-22 -34.5zM310 835l153 151q18 18 33 18t26.5 -9.5t11.5 -21.5q0 -20 -28 -37l-162 -101h-34z" />
<glyph unicode="u&#x303;&#x301;" d="M333 97l37 142q-63 -103 -142 -176.5t-126 -73.5q-15 0 -25 12t-10 29q0 29 4 47l63 297q2 8 2 18q0 8 -5 14t-12 6q-12 0 -48 -23l-32 -21l-7 20l28 20q103 74 132 74q23 0 23 -31q0 -16 -5 -43l-57 -271q-7 -35 -7 -52q0 -26 13 -26q30 0 81.5 47t95.5 115 q48 73 71 193l10 51l68 17l7 -9q-45 -174 -84 -357l-1 -6q-5 -25 -5 -34q0 -17 13 -17q21 0 61 27l26 17l10 -18q-73 -55 -106.5 -74.5t-53.5 -19.5q-30 0 -30 40q0 28 11 66zM204 535h-29q15 55 38 79t60 24q27 0 63 -14l60 -24q12 -5 27 -5t25.5 9t25.5 34h28 q-9 -49 -34.5 -76t-62.5 -27q-23 0 -64 16l-38 15l-2 1q-3 0 -7 3q-22 9 -38 9q-19 0 -30 -9.5t-22 -34.5zM251 625l153 151q18 18 33 18t26.5 -9.5t11.5 -21.5q0 -20 -28 -37l-162 -101h-34z" />
<glyph unicode="Y&#x307;" horiz-adv-x="667" d="M52 647l15 11q25 16 51 37q6 4 9 7l4 3q69 -1 114 -83.5t101 -311.5q39 104 128 226q56 75 101 111t100 50l-6 -71q-44 -8 -80 -33.5t-79 -80.5q-55 -69 -98 -146.5t-50 -119.5l-26 -168q-2 -10 -2 -21q0 -15 8 -21t28 -8l49 -3l-3 -28h-26l-97 3q-7 0 -17.5 -0.5t-30 -1 t-38.5 -0.5l-53 -1l4 28l48 3q30 2 37.5 15t20.5 82l21 126l1 6v1q0 14 -22 92t-40 127q-31 84 -60 121t-64 37q-14 0 -45 -12zM432 855q21 0 37 -16t16 -37q0 -22 -16 -38.5t-38 -16.5t-38 16.5t-16 38.5q0 21 16.5 37t38.5 16z" />
<glyph unicode="y&#x307;" horiz-adv-x="500" d="M-7 -180l48 34l10 -4q-2 -18 -2 -22q0 -26 18 -44t44 -18q53 0 93 58.5t78 191.5l49 171q-56 -85 -112 -141.5t-84 -56.5q-19 0 -31 20t-12 51l1 40l17 243q1 8 1 15q0 52 -22 52q-6 0 -21 -9l-4 -3l-50 -30l-11 18l82 56q58 40 75 40q24 0 24 -63q0 -35 -4 -97l-15 -194 l-1 -13v-4q0 -17 6 -30.5t14 -13.5q16 0 48 28.5t58 66.5q59 88 80 169l35 132q31 3 74 19l11 -9l-141 -440q-44 -139 -120 -224t-155 -85q-34 0 -58 23t-24 55q0 11 1 18zM314 645q21 0 37 -16t16 -37q0 -22 -16 -38.5t-38 -16.5t-38 16.5t-16 38.5q0 21 16.5 37t38.5 16z " />
<glyph unicode="Z&#x331;" horiz-adv-x="667" d="M20 -3v22l502 633h-180q-107 0 -180 -13l-6 -20q-17 -54 -21 -86h-26q11 100 11 159l118 -1l211 -2h26l162 3v-20l-504 -633h281q62 0 127 13l8 22l24 68l7 22h26q-20 -106 -23 -167l-66 1q-122 2 -256 2q-97 0 -241 -3zM44 -82h534v-52h-534v52z" />
<glyph unicode="&#x7a;&#x331;" horiz-adv-x="444" d="M-1 21l353 400q-45 -23 -93 -23q-32 0 -81 10q-25 5 -45 5q-18 0 -39 -5l-30 -58h-21l32 122q34 10 61 10q18 0 62 -11l18 -5q78 -21 134 -21q20 0 34 14l23 23l9 -9l-6 -32l-339 -382q50 21 95 21q29 0 86 -12l18 -4q29 -7 49 -7q31 0 39 25l22 60h22q-19 -82 -30 -143 q-36 -10 -50 -10q-38 0 -118 20q-74 17 -105 17q-51 0 -91 -32zM22 -82h355v-52h-355v52z" />
<glyph unicode="h&#x331;" horiz-adv-x="500" d="M236 722l-98 -457l20 25q55 70 98 106q102 86 158 86q29 0 29 -36q0 -26 -11 -74l-64 -256q-7 -26 -7 -40q0 -20 13 -20q15 0 61 30l26 17l10 -18q-73 -55 -106.5 -74.5t-53.5 -19.5q-30 0 -30 39q0 25 13 77l51 196q15 62 15 89q0 22 -22 22q-32 0 -94.5 -58.5 t-95.5 -119.5q-40 -74 -62 -229l-69 -16l-7 11q37 111 88 386l42 234q2 14 2 24q0 24 -34 24h-48l4 21q94 9 160 42zM28 -82h400v-52h-400v52z" />
<glyph unicode="E&#x303;" horiz-adv-x="611" d="M221 334l-43 -253q-2 -18 -2 -31v-4q80 -7 132 -7q102 0 147 9q16 4 24.5 15t16.5 38l16 60h27l-5 -26q-13 -73 -16 -99l-4 -36l-33 -1q-66 -2 -72 -2h-10l-215 3q-51 0 -113 -2l-41 -1l5 26q33 5 45 11.5t15 20.5l87 504q9 54 9 76q0 26 -35 27l-54 2l3 28l45 -1 q51 -2 115 -2q69 0 78 1l120 1q24 1 38 1q37 0 69 -3q-17 -57 -21 -152h-24l-8 89q-2 24 -104 24q-22 0 -86 -2l-47 -2q-5 -10 -9 -32l-42 -238h37q98 0 219 6l4 -7l-19 -45l-26 1q-72 3 -106 3h-117zM266 745h-29q15 55 38 79t60 24q27 0 63 -14l60 -24q12 -5 27 -5t25.5 9 t25.5 34h28q-9 -49 -34.5 -76t-62.5 -27q-23 0 -64 16l-38 15l-2 1q-3 0 -7 3q-22 9 -38 9q-19 0 -30 -9.5t-22 -34.5z" />
<glyph unicode="e&#x303;" horiz-adv-x="389" d="M328 111l8 -19q-69 -56 -115.5 -79.5t-89.5 -23.5q-54 0 -85 33t-31 91q0 50 19 124.5t41 111.5q29 48 97.5 90.5t117.5 42.5q38 0 61 -21.5t23 -56.5q0 -91 -124 -145q-43 -19 -69 -25l-82 -20q-8 -46 -8 -81q0 -45 20.5 -71t55.5 -26q56 0 137 58zM113 274l-9 -37 q70 16 109 35t63 51t24 65q0 24 -13 38t-35 14q-42 0 -73 -28q-41 -37 -66 -138zM120 535h-29q15 55 38 79t60 24q27 0 63 -14l60 -24q12 -5 27 -5t25.5 9t25.5 34h28q-9 -49 -34.5 -76t-62.5 -27q-23 0 -64 16l-38 15l-2 1q-3 0 -7 3q-22 9 -38 9q-19 0 -30 -9.5t-22 -34.5 z" />
<glyph unicode="A&#x304;&#x303;" horiz-adv-x="722" d="M462 705h46l87 -625q6 -33 13 -40t43 -12l26 -3v-28q-102 3 -122 3t-122 -3v28l44 3q43 3 43 27q0 6 -2 22q0 2 -0.5 4t-1.5 3v2v3l-25 188h-246l-102 -175q-26 -45 -26 -55q0 -7 9.5 -12.5t21.5 -6.5l52 -3v-28q-86 3 -107 3q-20 0 -112 -3v30l20 5q26 6 43.5 22 t44.5 58zM449 601l-179 -288h216zM635 799l-11 -51h-301l11 51h301zM359 852h-29q15 55 38 79t60 24q27 0 63 -14l60 -24q12 -5 27 -5t25.5 9t25.5 34h28q-9 -49 -34.5 -76t-62.5 -27q-23 0 -64 16l-38 15l-2 1q-2 0 -7 3q-22 9 -38 9q-19 0 -30 -9.5t-22 -34.5z" />
<glyph unicode="A&#x303;&#x301;" horiz-adv-x="722" d="M462 705h46l87 -625q6 -33 13 -40t43 -12l26 -3v-28q-102 3 -122 3t-122 -3v28l44 3q43 3 43 27q0 6 -2 22q0 2 -0.5 4t-1.5 3v2v3l-25 188h-246l-102 -175q-26 -45 -26 -55q0 -7 9.5 -12.5t21.5 -6.5l52 -3v-28q-86 3 -107 3q-20 0 -112 -3v30l20 5q26 6 43.5 22 t44.5 58zM449 601l-179 -288h216zM341 745h-29q15 55 38 79t60 24q27 0 63 -14l60 -24q12 -5 27 -5t25.5 9t25.5 34h28q-9 -49 -34.5 -76t-62.5 -27q-23 0 -64 16l-38 15l-2 1q-2 0 -7 3q-22 9 -38 9q-19 0 -30 -9.5t-22 -34.5zM389 835l153 151q18 18 33 18t26.5 -9.5 t11.5 -21.5q0 -20 -28 -37l-162 -101h-34z" />
<glyph unicode="C&#x304;" horiz-adv-x="667" d="M597 519v84q-78 50 -179 50q-120 0 -190 -72q-95 -97 -95 -272q0 -133 62.5 -203.5t180.5 -70.5q58 0 105.5 16t118.5 59l10 -7l-10 -36q-67 -46 -126 -65.5t-131 -19.5q-143 0 -220.5 78.5t-77.5 223.5q0 230 177 350q107 72 234 72q88 0 195 -41q-20 -66 -27 -146h-27z M588 799l-11 -51h-301l11 51h301z" />
<glyph unicode="&#x1e0c;&#x301;" horiz-adv-x="778" d="M33 23l8 2q41 8 45 30l87 504q9 54 9 76q0 26 -35 27l-53 2l3 28q101 -3 113 -3h10l204 3h7q149 0 219 -50q91 -64 91 -211q0 -124 -67.5 -230.5t-184.5 -166.5q-74 -37 -173 -37q-26 0 -46 1q-86 2 -94 2h-32h-23l-93 -3zM268 650l-96 -557q-4 -24 -4 -37 q102 -15 161 -15q133 0 214 83q106 108 106 291q0 123 -64.5 181.5t-200.5 58.5q-22 0 -69 -3q-12 0 -25.5 -1t-21.5 -1zM341 -101q19 0 32 -14t13 -34q0 -28 -18 -48.5t-43 -20.5q-20 0 -32 12.5t-12 34.5q0 29 17.5 49.5t42.5 20.5zM380 728l153 151q18 18 33 18 t26.5 -9.5t11.5 -21.5q0 -20 -28 -37l-162 -101h-34z" />
<glyph unicode="E&#x303;&#x301;" horiz-adv-x="611" d="M221 334l-43 -253q-2 -18 -2 -31v-4q80 -7 132 -7q102 0 147 9q16 4 24.5 15t16.5 38l16 60h27l-5 -26q-13 -73 -16 -99l-4 -36l-33 -1q-66 -2 -72 -2h-10l-215 3q-51 0 -113 -2l-41 -1l5 26q33 5 45 11.5t15 20.5l87 504q9 54 9 76q0 26 -35 27l-54 2l3 28l45 -1 q51 -2 115 -2q69 0 78 1l120 1q24 1 38 1q37 0 69 -3q-17 -57 -21 -152h-24l-8 89q-2 24 -104 24q-22 0 -86 -2l-47 -2q-5 -10 -9 -32l-42 -238h37q98 0 219 6l4 -7l-19 -45l-26 1q-72 3 -106 3h-117zM266 745h-29q15 55 38 79t60 24q27 0 63 -14l60 -24q12 -5 27 -5t25.5 9 t25.5 34h28q-9 -49 -34.5 -76t-62.5 -27q-23 0 -64 16l-38 15l-2 1q-3 0 -7 3q-22 9 -38 9q-19 0 -30 -9.5t-22 -34.5zM314 835l153 151q18 18 33 18t26.5 -9.5t11.5 -21.5q0 -20 -28 -37l-162 -101h-34z" />
<glyph unicode="E&#x304;&#x303;" horiz-adv-x="611" d="M221 334l-43 -253q-2 -18 -2 -31v-4q80 -7 132 -7q102 0 147 9q16 4 24.5 15t16.5 38l16 60h27l-5 -26q-13 -73 -16 -99l-4 -36l-33 -1q-66 -2 -72 -2h-10l-215 3q-51 0 -113 -2l-41 -1l5 26q33 5 45 11.5t15 20.5l87 504q9 54 9 76q0 26 -35 27l-54 2l3 28l45 -1 q51 -2 115 -2q69 0 78 1l120 1q24 1 38 1q37 0 69 -3q-17 -57 -21 -152h-24l-8 89q-2 24 -104 24q-22 0 -86 -2l-47 -2q-5 -10 -9 -32l-42 -238h37q98 0 219 6l4 -7l-19 -45l-26 1q-72 3 -106 3h-117zM560 799l-11 -51h-301l11 51h301zM284 852h-29q15 55 38 79t60 24 q27 0 63 -14l60 -24q12 -5 27 -5t25.5 9t25.5 34h28q-9 -49 -34.5 -76t-62.5 -27q-23 0 -64 16l-38 15l-2 1q-3 0 -7 3q-22 9 -38 9q-19 0 -30 -9.5t-22 -34.5z" />
<glyph unicode="G&#x301;" horiz-adv-x="722" d="M528 60l18 93q7 34 7 59q0 18 -14 23.5t-70 8.5l-34 2l5 28q52 -5 129 -5q76 0 125 5l-2 -28l-32 -6q-23 -4 -27 -21l-23 -135q-1 -4 -1 -11q0 -8 3 -29l-4 -7q-23 -4 -56 -15l-30 -10q-87 -30 -167 -30q-147 0 -226 76t-79 216q0 229 179 358q104 74 237 74 q96 0 209 -41q-20 -66 -27 -146h-27v84q-78 50 -187 50q-124 0 -197 -74q-99 -99 -99 -282q0 -133 64 -201.5t188 -68.5q76 0 138 33zM302 728l153 151q18 18 33 18t26.5 -9.5t11.5 -21.5q0 -20 -28 -37l-162 -101h-34z" />
<glyph unicode="G&#x301;&#x304;" horiz-adv-x="722" d="M528 60l18 93q7 34 7 59q0 18 -14 23.5t-70 8.5l-34 2l5 28q52 -5 129 -5q76 0 125 5l-2 -28l-32 -6q-23 -4 -27 -21l-23 -135q-1 -4 -1 -11q0 -8 3 -29l-4 -7q-23 -4 -56 -15l-30 -10q-87 -30 -167 -30q-147 0 -226 76t-79 216q0 229 179 358q104 74 237 74 q96 0 209 -41q-20 -66 -27 -146h-27v84q-78 50 -187 50q-124 0 -197 -74q-99 -99 -99 -282q0 -133 64 -201.5t188 -68.5q76 0 138 33zM302 728l153 151q18 18 33 18t26.5 -9.5t11.5 -21.5q0 -20 -28 -37l-162 -101h-34zM584 906l-11 -51h-301l11 51h301z" />
<glyph unicode="H&#x301;" horiz-adv-x="778" d="M221 385h370l30 174q9 54 9 76q0 26 -35 27l-48 2l3 28l63 -2q44 -1 80 -1l91 3h16l-3 -28l-36 -3q-29 -3 -37.5 -11t-13.5 -37l-92 -520q-4 -23 -4 -35q0 -29 36 -30l58 -3l-3 -28l-42 1q-86 2 -90 2q-5 0 -16 -0.5t-31.5 -1t-37.5 -0.5l-56 -1l4 28l50 3q31 3 37 14 q7 9 21 83l40 215l-61 1q-24 0 -53.5 0.5t-45.5 1t-24 0.5t-24 -0.5t-46 -1t-53 -0.5l-61 -1l-42 -247q-4 -25 -4 -35q0 -16 8 -22t28 -8l49 -3l-3 -28h-26l-97 3q-8 0 -19.5 -0.5t-31.5 -1t-39 -0.5l-42 -1l4 28l41 3q30 3 37.5 15.5t20.5 81.5l74 434q9 56 9 76 q0 26 -35 27l-47 2l3 28l64 -2q43 -1 77 -1l90 3h24l-3 -28l-42 -3q-28 -2 -37 -10.5t-14 -37.5zM383 728l153 151q18 18 33 18t26.5 -9.5t11.5 -21.5q0 -20 -28 -37l-162 -101h-34z" />
<glyph unicode="H&#x324;" horiz-adv-x="778" d="M221 385h370l30 174q9 54 9 76q0 26 -35 27l-48 2l3 28l63 -2q44 -1 80 -1l91 3h16l-3 -28l-36 -3q-29 -3 -37.5 -11t-13.5 -37l-92 -520q-4 -23 -4 -35q0 -29 36 -30l58 -3l-3 -28l-42 1q-86 2 -90 2q-5 0 -16 -0.5t-31.5 -1t-37.5 -0.5l-56 -1l4 28l50 3q31 3 37 14 q7 9 21 83l40 215l-61 1q-24 0 -53.5 0.5t-45.5 1t-24 0.5t-24 -0.5t-46 -1t-53 -0.5l-61 -1l-42 -247q-4 -25 -4 -35q0 -16 8 -22t28 -8l49 -3l-3 -28h-26l-97 3q-8 0 -19.5 -0.5t-31.5 -1t-39 -0.5l-42 -1l4 28l41 3q30 3 37.5 15.5t20.5 81.5l74 434q9 56 9 76 q0 26 -35 27l-47 2l3 28l64 -2q43 -1 77 -1l90 3h24l-3 -28l-42 -3q-28 -2 -37 -10.5t-14 -37.5zM251 -125v1q15 0 27 -12t12 -27t-12 -27.5t-27 -12.5t-27 12.5t-12 27.5t12 26.5t27 11.5zM411 -124v1q15 0 27 -12t12 -27t-12 -27.5t-27 -12.5t-27 12.5t-12 27.5t12 26.5 t27 11.5z" />
<glyph unicode="H&#x331;" horiz-adv-x="778" d="M221 385h370l30 174q9 54 9 76q0 26 -35 27l-48 2l3 28l63 -2q44 -1 80 -1l91 3h16l-3 -28l-36 -3q-29 -3 -37.5 -11t-13.5 -37l-92 -520q-4 -23 -4 -35q0 -29 36 -30l58 -3l-3 -28l-42 1q-86 2 -90 2q-5 0 -16 -0.5t-31.5 -1t-37.5 -0.5l-56 -1l4 28l50 3q31 3 37 14 q7 9 21 83l40 215l-61 1q-24 0 -53.5 0.5t-45.5 1t-24 0.5t-24 -0.5t-46 -1t-53 -0.5l-61 -1l-42 -247q-4 -25 -4 -35q0 -16 8 -22t28 -8l49 -3l-3 -28h-26l-97 3q-8 0 -19.5 -0.5t-31.5 -1t-39 -0.5l-42 -1l4 28l41 3q30 3 37.5 15.5t20.5 81.5l74 434q9 56 9 76 q0 26 -35 27l-47 2l3 28l64 -2q43 -1 77 -1l90 3h24l-3 -28l-42 -3q-28 -2 -37 -10.5t-14 -37.5zM58 -82h622v-52h-622v52z" />
<glyph unicode="I&#x303;&#x301;" horiz-adv-x="333" d="M103 664l3 28l64 -2q43 -1 78 -1l97 3h9l-3 -28l-35 -3q-29 -3 -37.5 -11t-13.5 -37l-89 -535q-2 -8 -2 -21q0 -15 8 -21t28 -8l52 -3l-3 -28h-32l-94 3l-94 -3h-32l3 28l36 3q30 2 38.5 16t19.5 81l72 434q9 51 9 77q0 25 -35 26zM120 745h-29q15 55 38 79t60 24 q27 0 63 -14l60 -24q12 -5 27 -5t25.5 9t25.5 34h28q-9 -49 -34.5 -76t-62.5 -27q-23 0 -64 16l-38 15l-2 1q-3 0 -7 3q-22 9 -38 9q-19 0 -30 -9.5t-22 -34.5zM168 835l153 151q18 18 33 18t26.5 -9.5t11.5 -21.5q0 -20 -28 -37l-162 -101h-34z" />
<glyph unicode="I&#x304;&#x303;" horiz-adv-x="333" d="M103 664l3 28l64 -2q43 -1 78 -1l97 3h9l-3 -28l-35 -3q-29 -3 -37.5 -11t-13.5 -37l-89 -535q-2 -8 -2 -21q0 -15 8 -21t28 -8l52 -3l-3 -28h-32l-94 3l-94 -3h-32l3 28l36 3q30 2 38.5 16t19.5 81l72 434q9 51 9 77q0 25 -35 26zM414 799l-11 -51h-301l11 51h301z M138 852h-29q15 55 38 79t60 24q27 0 63 -14l60 -24q12 -5 27 -5t25.5 9t25.5 34h28q-9 -49 -34.5 -76t-62.5 -27q-23 0 -64 16l-38 15l-2 1q-3 0 -7 3q-22 9 -38 9q-19 0 -30 -9.5t-22 -34.5z" />
<glyph unicode="J&#x304;" horiz-adv-x="333" d="M355 664l-42 -3q-28 -2 -37 -10.5t-14 -37.5l-85 -559q-11 -78 -34 -132q-25 -61 -62 -94.5t-78 -33.5q-19 0 -35 10l-3 26q11 -4 29 -4q70 0 92 153l95 643q1 5 1 13q0 26 -35 27l-47 2l3 28l64 -2q43 -1 77 -1l90 3h24zM421 799l-11 -51h-301l11 51h301z" />
<glyph unicode="J&#x30c;" horiz-adv-x="333" d="M355 664l-42 -3q-28 -2 -37 -10.5t-14 -37.5l-85 -559q-11 -78 -34 -132q-25 -61 -62 -94.5t-78 -33.5q-19 0 -35 10l-3 26q11 -4 29 -4q70 0 92 153l95 643q1 5 1 13q0 26 -35 27l-47 2l3 28l64 -2q43 -1 77 -1l90 3h24zM281 720h-46l-96 169h37l90 -105l142 105h36z " />
<glyph unicode="K&#x35f;H" horiz-adv-x="1445" d="M371 664l-42 -3q-28 -2 -37 -10.5t-14 -37.5l-45 -260q89 69 149 131l128 130q38 38 38 49v29l20 -1q42 -2 47 -2q3 0 45 2l23 1v-27h-21q-27 0 -54 -25l-292 -273l246 -302q31 -38 64 -38h20v-30q-9 0 -28 1t-40 2l-69 -3q-80 109 -123.5 162.5t-154.5 180.5l-43 -262 q-2 -8 -2 -21q0 -15 8 -21t28 -8l49 -3l-3 -28h-26l-97 3q-8 0 -19.5 -0.5t-31.5 -1t-39 -0.5l-42 -1l4 28l41 3q30 3 37.5 15.5t20.5 81.5l73 434q9 49 9 76q0 26 -35 27l-47 2l3 28l64 -2q43 -1 77 -1l90 3h24zM888 385h370l30 174q9 54 9 76q0 26 -35 27l-48 2l3 28 l63 -2q44 -1 80 -1l91 3h16l-3 -28l-36 -3q-29 -3 -37.5 -11t-13.5 -37l-92 -520q-4 -23 -4 -35q0 -29 36 -30l58 -3l-3 -28l-42 1q-86 2 -90 2q-5 0 -16 -0.5t-31.5 -1t-37.5 -0.5l-56 -1l4 28l50 3q31 3 37 14q7 9 21 83l40 215l-61 1q-24 0 -53.5 0.5t-45.5 1t-24 0.5 t-24 -0.5t-46 -1t-53 -0.5l-61 -1l-42 -247q-4 -25 -4 -35q0 -16 8 -22t28 -8l49 -3l-3 -28h-26l-97 3q-8 0 -19.5 -0.5t-31.5 -1t-39 -0.5l-42 -1l4 28l41 3q30 3 37.5 15.5t20.5 81.5l74 434q9 56 9 76q0 26 -35 27l-47 2l3 28l64 -2q43 -1 77 -1l90 3h24l-3 -28l-42 -3 q-28 -2 -37 -10.5t-14 -37.5zM109 -82h1156v-52h-1156v52z" />
<glyph unicode="K&#x35f;h" horiz-adv-x="1167" d="M371 664l-42 -3q-28 -2 -37 -10.5t-14 -37.5l-45 -260q89 69 149 131l128 130q38 38 38 49v29l20 -1q42 -2 47 -2q3 0 45 2l23 1v-27h-21q-27 0 -54 -25l-292 -273l246 -302q31 -38 64 -38h20v-30q-9 0 -28 1t-40 2l-69 -3q-80 109 -123.5 162.5t-154.5 180.5l-43 -262 q-2 -8 -2 -21q0 -15 8 -21t28 -8l49 -3l-3 -28h-26l-97 3q-8 0 -19.5 -0.5t-31.5 -1t-39 -0.5l-42 -1l4 28l41 3q30 3 37.5 15.5t20.5 81.5l73 434q9 49 9 76q0 26 -35 27l-47 2l3 28l64 -2q43 -1 77 -1l90 3h24zM903 722l-98 -457l20 25q55 70 98 106q102 86 158 86 q29 0 29 -36q0 -26 -11 -74l-64 -256q-7 -26 -7 -40q0 -20 13 -20q15 0 61 30l26 17l10 -18q-73 -55 -106.5 -74.5t-53.5 -19.5q-30 0 -30 39q0 25 13 77l51 196q15 62 15 89q0 22 -22 22q-32 0 -94.5 -58.5t-95.5 -119.5q-40 -74 -62 -229l-69 -16l-7 11q37 111 88 386 l42 234q2 14 2 24q0 24 -34 24h-48l4 21q94 9 160 42zM81 -82h933v-52h-933v52z" />
<glyph unicode="L&#x325;" d="M349 664l-42 -3q-28 -2 -37 -10.5t-14 -37.5l-92 -532q-2 -18 -2 -31v-4q77 -7 142 -7q118 0 144 10q14 8 27 54l17 62h31q-23 -113 -23 -162v-3l-33 -1q-66 -2 -72 -2h-10l-215 3q-51 0 -113 -2l-41 -1l5 26q33 5 45 11.5t15 20.5l86 504q9 56 9 76q0 26 -35 27l-47 2 l3 28l64 -2q43 -1 77 -1l90 3h24zM239 -65v1q32 0 55.5 -23.5t23.5 -56.5t-23.5 -56t-56.5 -23t-56 23t-23 56t23.5 56t56.5 23zM239 -92q-22 0 -35.5 -14t-13.5 -36t13.5 -36t35.5 -14t35.5 14t13.5 36t-13.5 36t-35.5 14z" />
<glyph unicode="L&#x304;&#x325;" d="M349 664l-42 -3q-28 -2 -37 -10.5t-14 -37.5l-92 -532q-2 -18 -2 -31v-4q77 -7 142 -7q118 0 144 10q14 8 27 54l17 62h31q-23 -113 -23 -162v-3l-33 -1q-66 -2 -72 -2h-10l-215 3q-51 0 -113 -2l-41 -1l5 26q33 5 45 11.5t15 20.5l86 504q9 56 9 76q0 26 -35 27l-47 2 l3 28l64 -2q43 -1 77 -1l90 3h24zM239 -65v1q32 0 55.5 -23.5t23.5 -56.5t-23.5 -56t-56.5 -23t-56 23t-23 56t23.5 56t56.5 23zM239 -92q-22 0 -35.5 -14t-13.5 -36t13.5 -36t35.5 -14t35.5 14t13.5 36t-13.5 36t-35.5 14zM533 799l-11 -51h-301l11 51h301z" />
<glyph unicode="M&#x306;" horiz-adv-x="944" d="M937 664l-38 -2q-43 -3 -46 -31l-41 -531l-1 -37q0 -31 54 -35l37 -3l-3 -28l-46 1q-82 2 -87 2q-3 0 -87 -2l-47 -1l3 28l31 3q38 3 51 10.5t16 28.5l37 520l-52 -87l-239 -414l-57 -104h-23l-149 578l-124 -464q-7 -25 -7 -41q0 -24 49 -27l38 -3l-3 -28l-35 1 q-70 2 -75 2t-73 -2l-39 -1l3 26q41 4 57.5 17.5t28.5 52.5l145 509q3 10 3 20q0 19 -15.5 28t-54.5 12l-26 2l3 28l59 -3h24q28 0 56 2l28 1l150 -578l246 422l69 125l16 31l59 -3h24q28 0 56 2l28 1zM452 887h29q9 -100 109 -100q45 0 75 22.5t59 77.5h29 q-18 -66 -45 -100q-47 -59 -125 -59q-79 0 -111 58q-20 36 -20 101z" />
<glyph unicode="M&#x310;" horiz-adv-x="944" d="M937 664l-38 -2q-43 -3 -46 -31l-41 -531l-1 -37q0 -31 54 -35l37 -3l-3 -28l-46 1q-82 2 -87 2q-3 0 -87 -2l-47 -1l3 28l31 3q38 3 51 10.5t16 28.5l37 520l-52 -87l-239 -414l-57 -104h-23l-149 578l-124 -464q-7 -25 -7 -41q0 -24 49 -27l38 -3l-3 -28l-35 1 q-70 2 -75 2t-73 -2l-39 -1l3 26q41 4 57.5 17.5t28.5 52.5l145 509q3 10 3 20q0 19 -15.5 28t-54.5 12l-26 2l3 28l59 -3h24q28 0 56 2l28 1l150 -578l246 422l69 125l16 31l59 -3h24q28 0 56 2l28 1zM452 887h29q9 -100 109 -100q45 0 75 22.5t59 77.5h29 q-18 -66 -45 -100q-47 -59 -125 -59q-79 0 -111 58q-20 36 -20 101zM590 955q21 0 37 -16t16 -37q0 -22 -16 -38.5t-38 -16.5t-38 16.5t-16 38.5q0 21 16.5 37t38.5 16z" />
<glyph unicode="N&#x306;" horiz-adv-x="778" d="M237 692l345 -589l80 489q5 32 5 46q0 23 -36 24l-47 2l5 28h19l86 -3l89 3h21l-5 -28l-37 -2q-28 -2 -36 -18.5t-24 -101.5l-94 -553h-50l-338 577l-80 -464q-3 -16 -3 -30q0 -25 9.5 -33.5t39.5 -10.5l42 -3l-5 -28q-97 3 -110 3l-111 -3l5 28l31 3q27 3 36 15.5 t18 58.5l88 474q1 4 3 18q1 2 1 5q1 3 1 7q0 15 -30 39q-19 15 -50 17l-35 2l5 28l16 -1q10 0 20 -0.5t15 -1t6 -0.5h14h10zM348 887h29q9 -100 109 -100q45 0 75 22.5t59 77.5h29q-18 -66 -45 -100q-47 -59 -125 -59q-79 0 -111 58q-20 36 -20 101z" />
<glyph unicode="O&#x304;&#x303;" horiz-adv-x="778" d="M464 706q135 0 209.5 -73.5t74.5 -207.5q0 -119 -55 -222t-149 -161q-95 -60 -221 -60q-132 0 -201 74t-69 216q0 188 116.5 311t294.5 123zM433 664q-113 0 -183 -71q-52 -52 -80.5 -135t-28.5 -181q0 -125 55.5 -189t163.5 -64q118 0 192 76q51 53 79.5 134t28.5 175 q0 166 -97 223q-53 32 -130 32zM644 799l-11 -51h-301l11 51h301zM368 852h-29q15 55 38 79t60 24q27 0 63 -14l60 -24q12 -5 27 -5t25.5 9t25.5 34h28q-9 -49 -34.5 -76t-62.5 -27q-23 0 -64 16l-38 15l-2 1q-3 0 -7 3q-22 9 -38 9q-19 0 -30 -9.5t-22 -34.5z" />
<glyph unicode="R&#x306;" horiz-adv-x="667" d="M105 664l3 28q118 -3 151 -3l150 3h7q80 0 124 -34.5t44 -97.5q0 -94 -89 -158q-48 -35 -120 -48l184 -275q22 -32 36 -41.5t44 -13.5v-27h-13q-28 3 -34 3h-11h-8l-66 -3q-87 148 -240 370l3 11h44q78 0 130 47t52 118q0 113 -133 113q-37 0 -76 -8l-7 -28 q-2 -7 -4 -17.5t-3.5 -16t-1.5 -6.5l-85 -487q-4 -23 -4 -35q0 -15 8 -22t28 -8l49 -3l-3 -28h-26l-97 3q-43 0 -90 -2l-42 -1l4 28l41 3q30 3 38 16t20 81l75 434q9 54 9 76q0 26 -35 27zM285 887h29q9 -100 109 -100q45 0 75 22.5t59 77.5h29q-18 -66 -45 -100 q-47 -59 -125 -59q-79 0 -111 58q-20 36 -20 101z" />
<glyph unicode="R&#x325;" horiz-adv-x="667" d="M105 664l3 28q118 -3 151 -3l150 3h7q80 0 124 -34.5t44 -97.5q0 -94 -89 -158q-48 -35 -120 -48l184 -275q22 -32 36 -41.5t44 -13.5v-27h-13q-28 3 -34 3h-11h-8l-66 -3q-87 148 -240 370l3 11h44q78 0 130 47t52 118q0 113 -133 113q-37 0 -76 -8l-7 -28 q-2 -7 -4 -17.5t-3.5 -16t-1.5 -6.5l-85 -487q-4 -23 -4 -35q0 -15 8 -22t28 -8l49 -3l-3 -28h-26l-97 3q-43 0 -90 -2l-42 -1l4 28l41 3q30 3 38 16t20 81l75 434q9 54 9 76q0 26 -35 27zM285 -65v1q32 0 55.5 -23.5t23.5 -56.5t-23.5 -56t-56.5 -23t-56 23t-23 56t23.5 56 t56.5 23zM285 -92q-22 0 -35.5 -14t-13.5 -36t13.5 -36t35.5 -14t35.5 14t13.5 36t-13.5 36t-35.5 14z" />
<glyph unicode="R&#x304;&#x325;" horiz-adv-x="667" d="M105 664l3 28q118 -3 151 -3l150 3h7q80 0 124 -34.5t44 -97.5q0 -94 -89 -158q-48 -35 -120 -48l184 -275q22 -32 36 -41.5t44 -13.5v-27h-13q-28 3 -34 3h-11h-8l-66 -3q-87 148 -240 370l3 11h44q78 0 130 47t52 118q0 113 -133 113q-37 0 -76 -8l-7 -28 q-2 -7 -4 -17.5t-3.5 -16t-1.5 -6.5l-85 -487q-4 -23 -4 -35q0 -15 8 -22t28 -8l49 -3l-3 -28h-26l-97 3q-43 0 -90 -2l-42 -1l4 28l41 3q30 3 38 16t20 81l75 434q9 54 9 76q0 26 -35 27zM285 -65v1q32 0 55.5 -23.5t23.5 -56.5t-23.5 -56t-56.5 -23t-56 23t-23 56t23.5 56 t56.5 23zM285 -92q-22 0 -35.5 -14t-13.5 -36t13.5 -36t35.5 -14t35.5 14t13.5 36t-13.5 36t-35.5 14zM579 799l-11 -51h-301l11 51h301z" />
<glyph unicode="S&#x301;&#x304;" d="M451 537v76q-42 45 -112 45q-69 0 -114 -42.5t-45 -107.5q0 -97 96 -117l65 -14q76 -17 110 -50.5t34 -92.5q0 -101 -86 -176.5t-202 -75.5q-81 0 -155 38q15 72 24 152h30v-99q61 -43 136 -43q77 0 125.5 45t48.5 116q0 85 -81 105l-95 23q-63 15 -92.5 51.5 t-29.5 100.5q0 89 64 150q39 40 93 62.5t109 22.5q68 0 132 -34q-19 -60 -25 -135h-30zM269 728l153 151q18 18 33 18t26.5 -9.5t11.5 -21.5q0 -20 -28 -37l-162 -101h-34zM551 906l-11 -51h-301l11 51h301z" />
<glyph unicode="&#x1e62;&#x304;" d="M451 537v76q-42 45 -112 45q-69 0 -114 -42.5t-45 -107.5q0 -97 96 -117l65 -14q76 -17 110 -50.5t34 -92.5q0 -101 -86 -176.5t-202 -75.5q-81 0 -155 38q15 72 24 152h30v-99q61 -43 136 -43q77 0 125.5 45t48.5 116q0 85 -81 105l-95 23q-63 15 -92.5 51.5 t-29.5 100.5q0 89 64 150q39 40 93 62.5t109 22.5q68 0 132 -34q-19 -60 -25 -135h-30zM230 -101q19 0 32 -14t13 -34q0 -28 -18 -48.5t-43 -20.5q-20 0 -32 12.5t-12 34.5q0 29 17.5 49.5t42.5 20.5zM533 799l-11 -51h-301l11 51h301z" />
<glyph unicode="S&#x324;" d="M451 537v76q-42 45 -112 45q-69 0 -114 -42.5t-45 -107.5q0 -97 96 -117l65 -14q76 -17 110 -50.5t34 -92.5q0 -101 -86 -176.5t-202 -75.5q-81 0 -155 38q15 72 24 152h30v-99q61 -43 136 -43q77 0 125.5 45t48.5 116q0 85 -81 105l-95 23q-63 15 -92.5 51.5 t-29.5 100.5q0 89 64 150q39 40 93 62.5t109 22.5q68 0 132 -34q-19 -60 -25 -135h-30zM137 -125v1q15 0 27 -12t12 -27t-12 -27.5t-27 -12.5t-27 12.5t-12 27.5t12 26.5t27 11.5zM297 -124v1q15 0 27 -12t12 -27t-12 -27.5t-27 -12.5t-27 12.5t-12 27.5t12 26.5t27 11.5z " />
<glyph unicode="S&#x331;" d="M451 537v76q-42 45 -112 45q-69 0 -114 -42.5t-45 -107.5q0 -97 96 -117l65 -14q76 -17 110 -50.5t34 -92.5q0 -101 -86 -176.5t-202 -75.5q-81 0 -155 38q15 72 24 152h30v-99q61 -43 136 -43q77 0 125.5 45t48.5 116q0 85 -81 105l-95 23q-63 15 -92.5 51.5 t-29.5 100.5q0 89 64 150q39 40 93 62.5t109 22.5q68 0 132 -34q-19 -60 -25 -135h-30zM33 -82h445v-52h-445v52z" />
<glyph unicode="&#x1e6c;&#x301;" horiz-adv-x="611" d="M390 646l-94 -553q-4 -25 -4 -35q0 -29 36 -30l59 -3l-3 -28l-44 1q-78 2 -89 2q-5 0 -85 -2l-57 -1l4 28l51 3q30 2 38 15.5t20 81.5l86 521h-112q-70 0 -81 -13q-11 -12 -18 -45l-15 -60h-29l18 164l95 -1q172 -2 187 -2t191 2l91 1l-27 -164h-28l4 64v6q0 17 -4 31 q-4 17 -117 17h-73zM204 -101q19 0 32 -14t13 -34q0 -28 -18 -48.5t-43 -20.5q-20 0 -32 12.5t-12 34.5q0 29 17.5 49.5t42.5 20.5zM243 728l153 151q18 18 33 18t26.5 -9.5t11.5 -21.5q0 -20 -28 -37l-162 -101h-34z" />
<glyph unicode="T&#x324;" horiz-adv-x="611" d="M390 646l-94 -553q-4 -25 -4 -35q0 -29 36 -30l59 -3l-3 -28l-44 1q-78 2 -89 2q-5 0 -85 -2l-57 -1l4 28l51 3q30 2 38 15.5t20 81.5l86 521h-112q-70 0 -81 -13q-11 -12 -18 -45l-15 -60h-29l18 164l95 -1q172 -2 187 -2t191 2l91 1l-27 -164h-28l4 64v6q0 17 -4 31 q-4 17 -117 17h-73zM111 -125v1q15 0 27 -12t12 -27t-12 -27.5t-27 -12.5t-27 12.5t-12 27.5t12 26.5t27 11.5zM271 -124v1q15 0 27 -12t12 -27t-12 -27.5t-27 -12.5t-27 12.5t-12 27.5t12 26.5t27 11.5z" />
<glyph unicode="U&#x304;&#x303;" horiz-adv-x="778" d="M795 664l-36 -3q-29 -3 -38 -11.5t-13 -36.5l-85 -507q-6 -43 -6 -56q0 -18 32 -21l60 -4l-5 -28l-32 1q-13 0 -27.5 0.5t-21.5 1t-9 0.5l-62 -3h-22l-5 5q19 79 27 127q-39 -45 -68.5 -68.5t-74.5 -45.5q-68 -34 -133 -34q-84 0 -131.5 43.5t-47.5 119.5q0 30 6 62 l64 375q7 37 7 58q0 13 -7 17.5t-27 5.5l-52 2l3 28l32 -1q56 -2 58 -2q4 0 58 2l31 1l-88 -477q-7 -39 -7 -61q0 -53 37.5 -84t101.5 -31q58 0 113 29q38 19 65.5 42t63.5 67l71 445q1 4 1 12q0 27 -35 28l-48 2l3 28l63 -2q44 -1 80 -1l91 3h16zM556 799l-11 -51h-301 l11 51h301zM280 852h-29q15 55 38 79t60 24q27 0 63 -14l60 -24q12 -5 27 -5t25.5 9t25.5 34h28q-9 -49 -34.5 -76t-62.5 -27q-23 0 -64 16l-38 15l-2 1q-3 0 -7 3q-22 9 -38 9q-19 0 -30 -9.5t-22 -34.5z" />
<glyph unicode="V&#x301;" horiz-adv-x="722" d="M310 96l291 492q16 27 16 42q0 28 -57 32l-26 2v28l46 -1q16 0 35 -0.5t29 -1t14 -0.5q12 0 66 2l30 1v-28l-18 -2q-22 -3 -32.5 -12t-29.5 -39l-378 -619h-49l-88 622q-5 28 -15.5 37t-43.5 11l-25 2v28l41 -1q74 -2 83 -2t83 2l41 1v-28l-42 -2q-43 -2 -43 -28v-3l1 -7 zM277 728l153 151q18 18 33 18t26.5 -9.5t11.5 -21.5q0 -20 -28 -37l-162 -101h-34z" />
<glyph unicode="Z&#x324;" horiz-adv-x="667" d="M20 -3v22l502 633h-180q-107 0 -180 -13l-6 -20q-17 -54 -21 -86h-26q11 100 11 159l118 -1l211 -2h26l162 3v-20l-504 -633h281q62 0 127 13l8 22l24 68l7 22h26q-20 -106 -23 -167l-66 1q-122 2 -256 2q-97 0 -241 -3zM192 -125v1q15 0 27 -12t12 -27t-12 -27.5 t-27 -12.5t-27 12.5t-12 27.5t12 26.5t27 11.5zM352 -124v1q15 0 27 -12t12 -27t-12 -27.5t-27 -12.5t-27 12.5t-12 27.5t12 26.5t27 11.5z" />
<glyph unicode="a&#x304;&#x301;" horiz-adv-x="444" d="M402 472l-92 -379q-1 -3 -1 -11q0 -23 15 -23q19 0 62 36q1 1 13 11l7 -21q-113 -94 -146 -94q-24 0 -24 35q0 26 6 51l29 127q-73 -103 -135 -159q-63 -56 -98 -56q-14 0 -24 22.5t-10 55.5q0 59 21 140t54 147q19 37 46 62t74 48q37 18 75 18q33 0 85 -19l33 18z M319 414q-56 19 -85 19q-36 0 -56.5 -16t-38.5 -57q-26 -60 -44.5 -136.5t-18.5 -124.5q0 -40 18 -40q24 0 65.5 39.5t84.5 102.5q26 39 42.5 85.5t32.5 127.5zM442 589l-11 -51h-301l11 51h301zM195 625l153 151q18 18 33 18t26.5 -9.5t11.5 -21.5q0 -20 -28 -37l-162 -101 h-34z" />
<glyph unicode="a&#x304;&#x300;" horiz-adv-x="444" d="M402 472l-92 -379q-1 -3 -1 -11q0 -23 15 -23q19 0 62 36q1 1 13 11l7 -21q-113 -94 -146 -94q-24 0 -24 35q0 26 6 51l29 127q-73 -103 -135 -159q-63 -56 -98 -56q-14 0 -24 22.5t-10 55.5q0 59 21 140t54 147q19 37 46 62t74 48q37 18 75 18q33 0 85 -19l33 18z M319 414q-56 19 -85 19q-36 0 -56.5 -16t-38.5 -57q-26 -60 -44.5 -136.5t-18.5 -124.5q0 -40 18 -40q24 0 65.5 39.5t84.5 102.5q26 39 42.5 85.5t32.5 127.5zM442 589l-11 -51h-301l11 51h301zM349 625l-162 101q-28 17 -28 37q0 13 11.5 22t26.5 9q13 0 33 -18l153 -151 h-34z" />
<glyph unicode="a&#x304;&#x303;" horiz-adv-x="444" d="M402 472l-92 -379q-1 -3 -1 -11q0 -23 15 -23q19 0 62 36q1 1 13 11l7 -21q-113 -94 -146 -94q-24 0 -24 35q0 26 6 51l29 127q-73 -103 -135 -159q-63 -56 -98 -56q-14 0 -24 22.5t-10 55.5q0 59 21 140t54 147q19 37 46 62t74 48q37 18 75 18q33 0 85 -19l33 18z M319 414q-56 19 -85 19q-36 0 -56.5 -16t-38.5 -57q-26 -60 -44.5 -136.5t-18.5 -124.5q0 -40 18 -40q24 0 65.5 39.5t84.5 102.5q26 39 42.5 85.5t32.5 127.5zM442 589l-11 -51h-301l11 51h301zM165 642h-29q15 55 38 79t60 24q27 0 63 -14l60 -24q12 -5 27 -5t25.5 9 t25.5 34h28q-9 -49 -34.5 -76t-62.5 -27q-23 0 -64 16l-38 15l-2 1q-2 0 -7 3q-22 9 -38 9q-19 0 -30 -9.5t-22 -34.5z" />
<glyph unicode="a&#x304;&#x306;" horiz-adv-x="444" d="M402 472l-92 -379q-1 -3 -1 -11q0 -23 15 -23q19 0 62 36q1 1 13 11l7 -21q-113 -94 -146 -94q-24 0 -24 35q0 26 6 51l29 127q-73 -103 -135 -159q-63 -56 -98 -56q-14 0 -24 22.5t-10 55.5q0 59 21 140t54 147q19 37 46 62t74 48q37 18 75 18q33 0 85 -19l33 18z M319 414q-56 19 -85 19q-36 0 -56.5 -16t-38.5 -57q-26 -60 -44.5 -136.5t-18.5 -124.5q0 -40 18 -40q24 0 65.5 39.5t84.5 102.5q26 39 42.5 85.5t32.5 127.5zM442 589l-11 -51h-301l11 51h301zM165 784h29q9 -100 109 -100q45 0 75 22.5t59 77.5h29q-18 -66 -45 -100 q-47 -59 -125 -59q-79 0 -111 58q-20 36 -20 101z" />
<glyph unicode="a&#x303;&#x301;" horiz-adv-x="444" d="M402 472l-92 -379q-1 -3 -1 -11q0 -23 15 -23q19 0 62 36q1 1 13 11l7 -21q-113 -94 -146 -94q-24 0 -24 35q0 26 6 51l29 127q-73 -103 -135 -159q-63 -56 -98 -56q-14 0 -24 22.5t-10 55.5q0 59 21 140t54 147q19 37 46 62t74 48q37 18 75 18q33 0 85 -19l33 18z M319 414q-56 19 -85 19q-36 0 -56.5 -16t-38.5 -57q-26 -60 -44.5 -136.5t-18.5 -124.5q0 -40 18 -40q24 0 65.5 39.5t84.5 102.5q26 39 42.5 85.5t32.5 127.5zM148 535h-29q15 55 38 79t60 24q27 0 63 -14l60 -24q12 -5 27 -5t25.5 9t25.5 34h28q-9 -49 -34.5 -76 t-62.5 -27q-23 0 -64 16l-38 15l-2 1q-3 0 -7 3q-22 9 -38 9q-19 0 -30 -9.5t-22 -34.5zM195 625l153 151q18 18 33 18t26.5 -9.5t11.5 -21.5q0 -20 -28 -37l-162 -101h-34z" />
<glyph unicode="c&#x304;" horiz-adv-x="407" d="M342 330v60q0 18 -23.5 30.5t-57.5 12.5q-45 0 -76 -24q-37 -29 -60.5 -99t-23.5 -151q0 -119 85 -119q48 0 145 65l15 10l8 -20l-50 -41q-79 -65 -157 -65q-122 0 -122 147q0 79 26 150.5t67 108.5q42 38 91.5 62.5t83.5 24.5q58 0 96 -24q-13 -37 -24 -128h-23z M423 589l-11 -51h-301l11 51h301z" />
<glyph unicode="&#x1e0d;&#x301;" horiz-adv-x="500" d="M483 722l-126 -594q-8 -33 -8 -46q0 -23 14 -23q15 0 39 17l44 31l10 -19l-81 -60q-50 -37 -75 -37q-26 0 -26 33q0 38 16 102l23 91q-50 -75 -81.5 -113t-72.5 -71q-55 -44 -98 -44q-44 0 -44 97q0 63 14 128.5t37 108.5q35 65 96 112t113 47q35 0 82 -14l28 154 q2 14 2 24q0 24 -34 24h-48l4 21q94 9 160 42zM337 351l12 59q-45 23 -106 23q-39 0 -59 -15q-37 -28 -66 -126.5t-29 -193.5q0 -39 25 -39q14 0 41 16t53 41q100 96 129 235zM202 -101q19 0 32 -14t13 -34q0 -28 -18 -48.5t-43 -20.5q-20 0 -32 12.5t-12 34.5 q0 29 17.5 49.5t42.5 20.5zM241 728l153 151q18 18 33 18t26.5 -9.5t11.5 -21.5q0 -20 -28 -37l-162 -101h-34z" />
<glyph unicode="e&#x303;&#x301;" horiz-adv-x="389" d="M328 111l8 -19q-69 -56 -115.5 -79.5t-89.5 -23.5q-54 0 -85 33t-31 91q0 50 19 124.5t41 111.5q29 48 97.5 90.5t117.5 42.5q38 0 61 -21.5t23 -56.5q0 -91 -124 -145q-43 -19 -69 -25l-82 -20q-8 -46 -8 -81q0 -45 20.5 -71t55.5 -26q56 0 137 58zM113 274l-9 -37 q70 16 109 35t63 51t24 65q0 24 -13 38t-35 14q-42 0 -73 -28q-41 -37 -66 -138zM120 535h-29q15 55 38 79t60 24q27 0 63 -14l60 -24q12 -5 27 -5t25.5 9t25.5 34h28q-9 -49 -34.5 -76t-62.5 -27q-23 0 -64 16l-38 15l-2 1q-3 0 -7 3q-22 9 -38 9q-19 0 -30 -9.5t-22 -34.5 zM168 625l153 151q18 18 33 18t26.5 -9.5t11.5 -21.5q0 -20 -28 -37l-162 -101h-34z" />
<glyph unicode="e&#x304;&#x301;" horiz-adv-x="389" d="M328 111l8 -19q-69 -56 -115.5 -79.5t-89.5 -23.5q-54 0 -85 33t-31 91q0 50 19 124.5t41 111.5q29 48 97.5 90.5t117.5 42.5q38 0 61 -21.5t23 -56.5q0 -91 -124 -145q-43 -19 -69 -25l-82 -20q-8 -46 -8 -81q0 -45 20.5 -71t55.5 -26q56 0 137 58zM113 274l-9 -37 q70 16 109 35t63 51t24 65q0 24 -13 38t-35 14q-42 0 -73 -28q-41 -37 -66 -138zM414 589l-11 -51h-301l11 51h301zM168 625l153 151q18 18 33 18t26.5 -9.5t11.5 -21.5q0 -20 -28 -37l-162 -101h-34z" />
<glyph unicode="e&#x304;&#x303;" horiz-adv-x="389" d="M328 111l8 -19q-69 -56 -115.5 -79.5t-89.5 -23.5q-54 0 -85 33t-31 91q0 50 19 124.5t41 111.5q29 48 97.5 90.5t117.5 42.5q38 0 61 -21.5t23 -56.5q0 -91 -124 -145q-43 -19 -69 -25l-82 -20q-8 -46 -8 -81q0 -45 20.5 -71t55.5 -26q56 0 137 58zM113 274l-9 -37 q70 16 109 35t63 51t24 65q0 24 -13 38t-35 14q-42 0 -73 -28q-41 -37 -66 -138zM414 589l-11 -51h-301l11 51h301zM138 642h-29q15 55 38 79t60 24q27 0 63 -14l60 -24q12 -5 27 -5t25.5 9t25.5 34h28q-9 -49 -34.5 -76t-62.5 -27q-23 0 -64 16l-38 15l-2 1q-3 0 -7 3 q-22 9 -38 9q-19 0 -30 -9.5t-22 -34.5z" />
<glyph unicode="e&#x304;&#x306;" horiz-adv-x="389" d="M328 111l8 -19q-69 -56 -115.5 -79.5t-89.5 -23.5q-54 0 -85 33t-31 91q0 50 19 124.5t41 111.5q29 48 97.5 90.5t117.5 42.5q38 0 61 -21.5t23 -56.5q0 -91 -124 -145q-43 -19 -69 -25l-82 -20q-8 -46 -8 -81q0 -45 20.5 -71t55.5 -26q56 0 137 58zM113 274l-9 -37 q70 16 109 35t63 51t24 65q0 24 -13 38t-35 14q-42 0 -73 -28q-41 -37 -66 -138zM414 589l-11 -51h-301l11 51h301zM138 784h29q9 -100 109 -100q45 0 75 22.5t59 77.5h29q-18 -66 -45 -100q-47 -59 -125 -59q-79 0 -111 58q-20 36 -20 101z" />
<glyph unicode="g&#x301;" horiz-adv-x="500" d="M405 380l1 -5q3 -23 3 -33q0 -67 -48 -122.5t-121 -73.5l-6 -8q-21 -27 -21 -38q0 -28 47 -65l60 -49q64 -52 64 -107q0 -62 -72.5 -108.5t-169.5 -46.5q-82 0 -130.5 32t-48.5 85q0 63 53 107q46 39 144 71q-21 18 -21 33q0 22 27 47l41 38q-11 -1 -30 -1 q-58 0 -90 32.5t-32 90.5q0 107 85 171q69 52 135 52q33 0 67 -13q31 -12 51 -45q66 0 102 9l3 -6l-9 -45q-31 -4 -50 -4q-17 0 -34 2zM253 -58l-77 59q-66 -19 -99 -46q-50 -42 -50 -100q0 -46 38.5 -74.5t100.5 -28.5t107 27.5t45 66.5q0 45 -65 96zM250 448 q-55 0 -89.5 -44.5t-34.5 -115.5q0 -120 93 -120q53 0 85.5 48t32.5 125q0 107 -87 107zM206 518l153 151q18 18 33 18t26.5 -9.5t11.5 -21.5q0 -20 -28 -37l-162 -101h-34z" />
<glyph unicode="g&#x301;&#x304;" horiz-adv-x="500" d="M405 380l1 -5q3 -23 3 -33q0 -67 -48 -122.5t-121 -73.5l-6 -8q-21 -27 -21 -38q0 -28 47 -65l60 -49q64 -52 64 -107q0 -62 -72.5 -108.5t-169.5 -46.5q-82 0 -130.5 32t-48.5 85q0 63 53 107q46 39 144 71q-21 18 -21 33q0 22 27 47l41 38q-11 -1 -30 -1 q-58 0 -90 32.5t-32 90.5q0 107 85 171q69 52 135 52q33 0 67 -13q31 -12 51 -45q66 0 102 9l3 -6l-9 -45q-31 -4 -50 -4q-17 0 -34 2zM253 -58l-77 59q-66 -19 -99 -46q-50 -42 -50 -100q0 -46 38.5 -74.5t100.5 -28.5t107 27.5t45 66.5q0 45 -65 96zM250 448 q-55 0 -89.5 -44.5t-34.5 -115.5q0 -120 93 -120q53 0 85.5 48t32.5 125q0 107 -87 107zM206 518l153 151q18 18 33 18t26.5 -9.5t11.5 -21.5q0 -20 -28 -37l-162 -101h-34zM487 696l-11 -51h-301l11 51h301z" />
<glyph unicode="h&#x301;" horiz-adv-x="500" d="M236 722l-98 -457l20 25q55 70 98 106q102 86 158 86q29 0 29 -36q0 -26 -11 -74l-64 -256q-7 -26 -7 -40q0 -20 13 -20q15 0 61 30l26 17l10 -18q-73 -55 -106.5 -74.5t-53.5 -19.5q-30 0 -30 39q0 25 13 77l51 196q15 62 15 89q0 22 -22 22q-32 0 -94.5 -58.5 t-95.5 -119.5q-40 -74 -62 -229l-69 -16l-7 11q37 111 88 386l42 234q2 14 2 24q0 24 -34 24h-48l4 21q94 9 160 42zM241 728l153 151q18 18 33 18t26.5 -9.5t11.5 -21.5q0 -20 -28 -37l-162 -101h-34z" />
<glyph unicode="h&#x324;" horiz-adv-x="500" d="M236 722l-98 -457l20 25q55 70 98 106q102 86 158 86q29 0 29 -36q0 -26 -11 -74l-64 -256q-7 -26 -7 -40q0 -20 13 -20q15 0 61 30l26 17l10 -18q-73 -55 -106.5 -74.5t-53.5 -19.5q-30 0 -30 39q0 25 13 77l51 196q15 62 15 89q0 22 -22 22q-32 0 -94.5 -58.5 t-95.5 -119.5q-40 -74 -62 -229l-69 -16l-7 11q37 111 88 386l42 234q2 14 2 24q0 24 -34 24h-48l4 21q94 9 160 42zM109 -125v1q15 0 27 -12t12 -27t-12 -27.5t-27 -12.5t-27 12.5t-12 27.5t12 26.5t27 11.5zM269 -124v1q15 0 27 -12t12 -27t-12 -27.5t-27 -12.5t-27 12.5 t-12 27.5t12 26.5t27 11.5z" />
<glyph unicode="i&#x304;&#x301;" horiz-adv-x="278" d="M34 388l28 20q105 74 134 74q25 0 25 -26q0 -12 -6 -36l-77 -304q-7 -29 -7 -40q0 -20 13 -20q15 0 61 30l26 17l10 -18q-73 -55 -106.5 -74.5t-53.5 -19.5q-30 0 -30 39q0 27 13 77l66 240q8 28 8 44q0 21 -17 21q-12 0 -48 -23l-32 -21zM359 589l-11 -51h-301l11 51 h301zM112 625l153 151q18 18 33 18t26.5 -9.5t11.5 -21.5q0 -20 -28 -37l-162 -101h-34z" />
<glyph unicode="i&#x304;&#x300;" horiz-adv-x="278" d="M34 388l28 20q105 74 134 74q25 0 25 -26q0 -12 -6 -36l-77 -304q-7 -29 -7 -40q0 -20 13 -20q15 0 61 30l26 17l10 -18q-73 -55 -106.5 -74.5t-53.5 -19.5q-30 0 -30 39q0 27 13 77l66 240q8 28 8 44q0 21 -17 21q-12 0 -48 -23l-32 -21zM359 589l-11 -51h-301l11 51 h301zM266 625l-162 101q-28 17 -28 37q0 13 11.5 22t26.5 9q13 0 33 -18l153 -151h-34z" />
<glyph unicode="i&#x304;&#x303;" horiz-adv-x="278" d="M34 388l28 20q105 74 134 74q25 0 25 -26q0 -12 -6 -36l-77 -304q-7 -29 -7 -40q0 -20 13 -20q15 0 61 30l26 17l10 -18q-73 -55 -106.5 -74.5t-53.5 -19.5q-30 0 -30 39q0 27 13 77l66 240q8 28 8 44q0 21 -17 21q-12 0 -48 -23l-32 -21zM359 589l-11 -51h-301l11 51 h301zM82 642h-29q15 55 38 79t60 24q27 0 63 -14l60 -24q12 -5 27 -5t25.5 9t25.5 34h28q-9 -49 -34.5 -76t-62.5 -27q-23 0 -64 16l-38 15l-2 1q-3 0 -7 3q-22 9 -38 9q-19 0 -30 -9.5t-22 -34.5z" />
<glyph unicode="i&#x304;&#x306;" horiz-adv-x="278" d="M34 388l28 20q105 74 134 74q25 0 25 -26q0 -12 -6 -36l-77 -304q-7 -29 -7 -40q0 -20 13 -20q15 0 61 30l26 17l10 -18q-73 -55 -106.5 -74.5t-53.5 -19.5q-30 0 -30 39q0 27 13 77l66 240q8 28 8 44q0 21 -17 21q-12 0 -48 -23l-32 -21zM359 589l-11 -51h-301l11 51 h301zM82 784h29q9 -100 109 -100q45 0 75 22.5t59 77.5h29q-18 -66 -45 -100q-47 -59 -125 -59q-79 0 -111 58q-20 36 -20 101z" />
<glyph unicode="i&#x303;&#x301;" horiz-adv-x="278" d="M34 388l28 20q105 74 134 74q25 0 25 -26q0 -12 -6 -36l-77 -304q-7 -29 -7 -40q0 -20 13 -20q15 0 61 30l26 17l10 -18q-73 -55 -106.5 -74.5t-53.5 -19.5q-30 0 -30 39q0 27 13 77l66 240q8 28 8 44q0 21 -17 21q-12 0 -48 -23l-32 -21zM65 535h-29q15 55 38 79t60 24 q27 0 63 -14l60 -24q12 -5 27 -5t25.5 9t25.5 34h28q-9 -49 -34.5 -76t-62.5 -27q-23 0 -64 16l-38 15l-2 1q-2 0 -7 3q-22 9 -38 9q-19 0 -30 -9.5t-22 -34.5zM112 625l153 151q18 18 33 18t26.5 -9.5t11.5 -21.5q0 -20 -28 -37l-162 -101h-34z" />
<glyph unicode="j&#x304;" horiz-adv-x="278" d="M-70 -269l8 57q31 -19 53 -19q29 0 47 87l100 495l2 12q5 18 5 28t-5 16.5t-13 6.5q-7 0 -47 -25l-32 -21l-7 20l28 20q105 74 134 74q25 0 25 -25q0 -10 -6 -37l-76 -350q-36 -164 -62 -222q-55 -124 -116 -124q-24 0 -38 7zM359 589l-11 -51h-301l11 51h301z" />
<glyph unicode="k&#x35f;h" horiz-adv-x="944" d="M234 722l-107 -492q94 132 159.5 192t114.5 60q21 0 48 -9l-17 -63q-26 6 -36 6q-71 0 -157 -86l-14 -14q49 -156 96 -241q12 -23 26 -23q11 0 29 10l43 24l8 -19l-46 -32q-62 -44 -81 -44t-46.5 59t-79.5 209q-53 -53 -67 -127l-23 -124l-67 -17l-9 10q64 259 82 353 l48 268q2 14 2 24q0 24 -34 24h-48l4 21q94 9 160 42zM688 722l-98 -457l20 25q55 70 98 106q102 86 158 86q29 0 29 -36q0 -26 -11 -74l-64 -256q-7 -26 -7 -40q0 -20 13 -20q15 0 61 30l26 17l10 -18q-73 -55 -106.5 -74.5t-53.5 -19.5q-30 0 -30 39q0 25 13 77l51 196 q15 62 15 89q0 22 -22 22q-32 0 -94.5 -58.5t-95.5 -119.5q-40 -74 -62 -229l-69 -16l-7 11q37 111 88 386l42 234q2 14 2 24q0 24 -34 24h-48l4 21q94 9 160 42zM71 -82h755v-52h-755v52z" />
<glyph unicode="l&#x303;" horiz-adv-x="278" d="M251 722l-129 -609l-2 -9q-4 -20 -4 -28t4 -14t9 -6q15 0 61 30l26 17l10 -18q-73 -55 -106.5 -74.5t-53.5 -19.5q-30 0 -30 40q0 28 19 101l14 52q11 37 44 205.5t38 210.5l3 22q3 18 3 26q0 22 -34 22h-48l4 21q94 9 160 42zM100 745h-29q15 55 38 79t60 24 q27 0 63 -14l60 -24q12 -5 27 -5t25.5 9t25.5 34h28q-9 -49 -34.5 -76t-62.5 -27q-23 0 -64 16l-38 15l-2 1q-3 0 -7 3q-22 9 -38 9q-19 0 -30 -9.5t-22 -34.5z" />
<glyph unicode="&#x1e37;&#x301;" horiz-adv-x="278" d="M251 722l-129 -609l-2 -9q-4 -20 -4 -28t4 -14t9 -6q15 0 61 30l26 17l10 -18q-73 -55 -106.5 -74.5t-53.5 -19.5q-30 0 -30 40q0 28 19 101l14 52q11 37 44 205.5t38 210.5l3 22q3 18 3 26q0 22 -34 22h-48l4 21q94 9 160 42zM91 -101q19 0 32 -14t13 -34 q0 -28 -18 -48.5t-43 -20.5q-20 0 -32 12.5t-12 34.5q0 29 17.5 49.5t42.5 20.5zM130 728l153 151q18 18 33 18t26.5 -9.5t11.5 -21.5q0 -20 -28 -37l-162 -101h-34z" />
<glyph unicode="l&#x325;" horiz-adv-x="278" d="M251 722l-129 -609l-2 -9q-4 -20 -4 -28t4 -14t9 -6q15 0 61 30l26 17l10 -18q-73 -55 -106.5 -74.5t-53.5 -19.5q-30 0 -30 40q0 28 19 101l14 52q11 37 44 205.5t38 210.5l3 22q3 18 3 26q0 22 -34 22h-48l4 21q94 9 160 42zM100 -65v1q32 0 55.5 -23.5t23.5 -56.5 t-23.5 -56t-56.5 -23t-56 23t-23 56t23.5 56t56.5 23zM100 -92q-22 0 -35.5 -14t-13.5 -36t13.5 -36t35.5 -14t35.5 14t13.5 36t-13.5 36t-35.5 14z" />
<glyph unicode="l&#x301;&#x325;" horiz-adv-x="278" d="M251 722l-129 -609l-2 -9q-4 -20 -4 -28t4 -14t9 -6q15 0 61 30l26 17l10 -18q-73 -55 -106.5 -74.5t-53.5 -19.5q-30 0 -30 40q0 28 19 101l14 52q11 37 44 205.5t38 210.5l3 22q3 18 3 26q0 22 -34 22h-48l4 21q94 9 160 42zM100 -65v1q32 0 55.5 -23.5t23.5 -56.5 t-23.5 -56t-56.5 -23t-56 23t-23 56t23.5 56t56.5 23zM100 -92q-22 0 -35.5 -14t-13.5 -36t13.5 -36t35.5 -14t35.5 14t13.5 36t-13.5 36t-35.5 14zM130 728l153 151q18 18 33 18t26.5 -9.5t11.5 -21.5q0 -20 -28 -37l-162 -101h-34z" />
<glyph unicode="l&#x304;&#x325;" horiz-adv-x="278" d="M251 722l-129 -609l-2 -9q-4 -20 -4 -28t4 -14t9 -6q15 0 61 30l26 17l10 -18q-73 -55 -106.5 -74.5t-53.5 -19.5q-30 0 -30 40q0 28 19 101l14 52q11 37 44 205.5t38 210.5l3 22q3 18 3 26q0 22 -34 22h-48l4 21q94 9 160 42zM100 -65v1q32 0 55.5 -23.5t23.5 -56.5 t-23.5 -56t-56.5 -23t-56 23t-23 56t23.5 56t56.5 23zM100 -92q-22 0 -35.5 -14t-13.5 -36t13.5 -36t35.5 -14t35.5 14t13.5 36t-13.5 36t-35.5 14zM394 799l-11 -51h-301l11 51h301z" />
<glyph unicode="m&#x306;" horiz-adv-x="778" d="M730 103l10 -18q-73 -55 -106.5 -74.5t-53.5 -19.5q-30 0 -30 40q0 36 13 76q23 78 43 157q25 99 25 125q0 25 -13 25q-50 0 -137 -96q-69 -76 -94 -205l-21 -107l-69 -15l-5 11l16 67q63 269 63 324q0 21 -11 21q-46 0 -115 -76q-41 -45 -64.5 -96t-41.5 -134l-22 -102 l-68 -15l-3 11q31 107 56.5 228t25.5 159q0 25 -18 25q-7 0 -47 -25l-32 -21l-7 20l28 20q103 74 133 74q23 0 23 -31q0 -19 -6 -43l-33 -133q48 65 71.5 91t57.5 52q84 64 131 64q26 0 26 -31q0 -7 -7 -42l-30 -137q37 51 68 83t79 66q87 61 128 61q26 0 26 -28 q0 -11 -7 -41l-75 -297q-7 -29 -7 -40q0 -20 13 -20q15 0 61 30zM315 677h29q9 -100 109 -100q45 0 75 22.5t59 77.5h29q-18 -66 -45 -100q-47 -59 -125 -59q-79 0 -111 58q-20 36 -20 101z" />
<glyph unicode="m&#x310;" horiz-adv-x="778" d="M730 103l10 -18q-73 -55 -106.5 -74.5t-53.5 -19.5q-30 0 -30 40q0 36 13 76q23 78 43 157q25 99 25 125q0 25 -13 25q-50 0 -137 -96q-69 -76 -94 -205l-21 -107l-69 -15l-5 11l16 67q63 269 63 324q0 21 -11 21q-46 0 -115 -76q-41 -45 -64.5 -96t-41.5 -134l-22 -102 l-68 -15l-3 11q31 107 56.5 228t25.5 159q0 25 -18 25q-7 0 -47 -25l-32 -21l-7 20l28 20q103 74 133 74q23 0 23 -31q0 -19 -6 -43l-33 -133q48 65 71.5 91t57.5 52q84 64 131 64q26 0 26 -31q0 -7 -7 -42l-30 -137q37 51 68 83t79 66q87 61 128 61q26 0 26 -28 q0 -11 -7 -41l-75 -297q-7 -29 -7 -40q0 -20 13 -20q15 0 61 30zM315 677h29q9 -100 109 -100q45 0 75 22.5t59 77.5h29q-18 -66 -45 -100q-47 -59 -125 -59q-79 0 -111 58q-20 36 -20 101zM453 745q21 0 37 -16t16 -37q0 -22 -16 -38.5t-38 -16.5t-38 16.5t-16 38.5 q0 21 16.5 37t38.5 16z" />
<glyph unicode="n&#x306;" d="M24 388l28 20q104 74 133 74q23 0 23 -33q0 -14 -6 -41l-38 -161q69 97 118 142q44 41 91.5 67t78.5 26t31 -36q0 -28 -11 -74l-66 -276q-2 -8 -2 -20q0 -20 13 -20q15 0 61 30l26 17l10 -18q-73 -55 -106.5 -74.5t-53.5 -19.5q-30 0 -30 40q0 23 13 76l52 212 q11 44 11 71q0 24 -17 24q-34 0 -84 -41.5t-90 -104.5q-34 -51 -53 -108t-33 -152q-26 -5 -70 -17l-7 11q31 107 56.5 228t25.5 159q0 25 -18 25q-7 0 -47 -25l-32 -21zM204 677h29q9 -100 109 -100q45 0 75 22.5t59 77.5h29q-18 -66 -45 -100q-47 -59 -125 -59 q-79 0 -111 58q-20 36 -20 101z" />
<glyph unicode="o&#x304;&#x303;" horiz-adv-x="444" d="M278 482q62 0 97.5 -40t35.5 -111q0 -76 -30 -153t-76 -121q-73 -68 -160 -68q-62 0 -95 42t-33 121q0 92 32.5 165t93.5 116q69 49 135 49zM241 444q-40 0 -60 -17q-37 -30 -62.5 -110.5t-25.5 -165.5q0 -59 24 -91.5t68 -32.5q47 0 75 33q33 40 54 111.5t21 143.5 q0 129 -94 129zM442 589l-11 -51h-301l11 51h301zM165 642h-29q15 55 38 79t60 24q27 0 63 -14l60 -24q12 -5 27 -5t25.5 9t25.5 34h28q-9 -49 -34.5 -76t-62.5 -27q-23 0 -64 16l-38 15l-2 1q-2 0 -7 3q-22 9 -38 9q-19 0 -30 -9.5t-22 -34.5z" />
<glyph unicode="o&#x304;&#x306;" horiz-adv-x="444" d="M278 482q62 0 97.5 -40t35.5 -111q0 -76 -30 -153t-76 -121q-73 -68 -160 -68q-62 0 -95 42t-33 121q0 92 32.5 165t93.5 116q69 49 135 49zM241 444q-40 0 -60 -17q-37 -30 -62.5 -110.5t-25.5 -165.5q0 -59 24 -91.5t68 -32.5q47 0 75 33q33 40 54 111.5t21 143.5 q0 129 -94 129zM442 589l-11 -51h-301l11 51h301zM165 784h29q9 -100 109 -100q45 0 75 22.5t59 77.5h29q-18 -66 -45 -100q-47 -59 -125 -59q-79 0 -111 58q-20 36 -20 101z" />
<glyph unicode="r&#x306;" horiz-adv-x="389" d="M368 365h-14q-15 19 -36 19q-33 0 -83 -65q-60 -78 -85 -193l-26 -120l-13 -2q-43 -9 -54 -13l-10 7q30 95 56.5 221.5t26.5 170.5q0 22 -17 22q-12 0 -48 -23l-32 -21l-7 20l28 20q103 74 133 74q23 0 23 -32q0 -16 -6 -42l-6 -26q-9 -33 -18 -85l-8 -41q21 46 67 112 l27 39q53 75 98 75q7 0 20 -6q-12 -62 -16 -111zM120 677h29q9 -100 109 -100q45 0 75 22.5t59 77.5h29q-18 -66 -45 -100q-47 -59 -125 -59q-79 0 -111 58q-20 36 -20 101z" />
<glyph unicode="&#x1e5b;&#x301;" horiz-adv-x="389" d="M368 365h-14q-15 19 -36 19q-33 0 -83 -65q-60 -78 -85 -193l-26 -120l-13 -2q-43 -9 -54 -13l-10 7q30 95 56.5 221.5t26.5 170.5q0 22 -17 22q-12 0 -48 -23l-32 -21l-7 20l28 20q103 74 133 74q23 0 23 -32q0 -16 -6 -42l-6 -26q-9 -33 -18 -85l-8 -41q21 46 67 112 l27 39q53 75 98 75q7 0 20 -6q-12 -62 -16 -111zM74 -101q19 0 32 -14t13 -34q0 -28 -18 -48.5t-43 -20.5q-20 0 -32 12.5t-12 34.5q0 29 17.5 49.5t42.5 20.5zM150 518l153 151q18 18 33 18t26.5 -9.5t11.5 -21.5q0 -20 -28 -37l-162 -101h-34z" />
<glyph unicode="&#x1e5b;&#x300;" horiz-adv-x="389" d="M368 365h-14q-15 19 -36 19q-33 0 -83 -65q-60 -78 -85 -193l-26 -120l-13 -2q-43 -9 -54 -13l-10 7q30 95 56.5 221.5t26.5 170.5q0 22 -17 22q-12 0 -48 -23l-32 -21l-7 20l28 20q103 74 133 74q23 0 23 -32q0 -16 -6 -42l-6 -26q-9 -33 -18 -85l-8 -41q21 46 67 112 l27 39q53 75 98 75q7 0 20 -6q-12 -62 -16 -111zM74 -101q19 0 32 -14t13 -34q0 -28 -18 -48.5t-43 -20.5q-20 0 -32 12.5t-12 34.5q0 29 17.5 49.5t42.5 20.5zM304 518l-162 101q-28 17 -28 37q0 13 11.5 22t26.5 9q13 0 33 -18l153 -151h-34z" />
<glyph unicode="&#x1e5b;&#x304;&#x301;" horiz-adv-x="389" d="M368 365h-14q-15 19 -36 19q-33 0 -83 -65q-60 -78 -85 -193l-26 -120l-13 -2q-43 -9 -54 -13l-10 7q30 95 56.5 221.5t26.5 170.5q0 22 -17 22q-12 0 -48 -23l-32 -21l-7 20l28 20q103 74 133 74q23 0 23 -32q0 -16 -6 -42l-6 -26q-9 -33 -18 -85l-8 -41q21 46 67 112 l27 39q53 75 98 75q7 0 20 -6q-12 -62 -16 -111zM74 -101q19 0 32 -14t13 -34q0 -28 -18 -48.5t-43 -20.5q-20 0 -32 12.5t-12 34.5q0 29 17.5 49.5t42.5 20.5zM414 589l-11 -51h-301l11 51h301zM168 625l153 151q18 18 33 18t26.5 -9.5t11.5 -21.5q0 -20 -28 -37l-162 -101 h-34z" />
<glyph unicode="r&#x324;" horiz-adv-x="389" d="M368 365h-14q-15 19 -36 19q-33 0 -83 -65q-60 -78 -85 -193l-26 -120l-13 -2q-43 -9 -54 -13l-10 7q30 95 56.5 221.5t26.5 170.5q0 22 -17 22q-12 0 -48 -23l-32 -21l-7 20l28 20q103 74 133 74q23 0 23 -32q0 -16 -6 -42l-6 -26q-9 -33 -18 -85l-8 -41q21 46 67 112 l27 39q53 75 98 75q7 0 20 -6q-12 -62 -16 -111zM-19 -125v1q15 0 27 -12t12 -27t-12 -27.5t-27 -12.5t-27 12.5t-12 27.5t12 26.5t27 11.5zM141 -124v1q15 0 27 -12t12 -27t-12 -27.5t-27 -12.5t-27 12.5t-12 27.5t12 26.5t27 11.5z" />
<glyph unicode="r&#x325;" horiz-adv-x="389" d="M368 365h-14q-15 19 -36 19q-33 0 -83 -65q-60 -78 -85 -193l-26 -120l-13 -2q-43 -9 -54 -13l-10 7q30 95 56.5 221.5t26.5 170.5q0 22 -17 22q-12 0 -48 -23l-32 -21l-7 20l28 20q103 74 133 74q23 0 23 -32q0 -16 -6 -42l-6 -26q-9 -33 -18 -85l-8 -41q21 46 67 112 l27 39q53 75 98 75q7 0 20 -6q-12 -62 -16 -111zM83 -65v1q32 0 55.5 -23.5t23.5 -56.5t-23.5 -56t-56.5 -23t-56 23t-23 56t23.5 56t56.5 23zM83 -92q-22 0 -35.5 -14t-13.5 -36t13.5 -36t35.5 -14t35.5 14t13.5 36t-13.5 36t-35.5 14z" />
<glyph unicode="r&#x301;&#x325;" horiz-adv-x="389" d="M368 365h-14q-15 19 -36 19q-33 0 -83 -65q-60 -78 -85 -193l-26 -120l-13 -2q-43 -9 -54 -13l-10 7q30 95 56.5 221.5t26.5 170.5q0 22 -17 22q-12 0 -48 -23l-32 -21l-7 20l28 20q103 74 133 74q23 0 23 -32q0 -16 -6 -42l-6 -26q-9 -33 -18 -85l-8 -41q21 46 67 112 l27 39q53 75 98 75q7 0 20 -6q-12 -62 -16 -111zM83 -65v1q32 0 55.5 -23.5t23.5 -56.5t-23.5 -56t-56.5 -23t-56 23t-23 56t23.5 56t56.5 23zM83 -92q-22 0 -35.5 -14t-13.5 -36t13.5 -36t35.5 -14t35.5 14t13.5 36t-13.5 36t-35.5 14zM150 518l153 151q18 18 33 18 t26.5 -9.5t11.5 -21.5q0 -20 -28 -37l-162 -101h-34z" />
<glyph unicode="r&#x300;&#x325;" horiz-adv-x="389" d="M368 365h-14q-15 19 -36 19q-33 0 -83 -65q-60 -78 -85 -193l-26 -120l-13 -2q-43 -9 -54 -13l-10 7q30 95 56.5 221.5t26.5 170.5q0 22 -17 22q-12 0 -48 -23l-32 -21l-7 20l28 20q103 74 133 74q23 0 23 -32q0 -16 -6 -42l-6 -26q-9 -33 -18 -85l-8 -41q21 46 67 112 l27 39q53 75 98 75q7 0 20 -6q-12 -62 -16 -111zM83 -65v1q32 0 55.5 -23.5t23.5 -56.5t-23.5 -56t-56.5 -23t-56 23t-23 56t23.5 56t56.5 23zM83 -92q-22 0 -35.5 -14t-13.5 -36t13.5 -36t35.5 -14t35.5 14t13.5 36t-13.5 36t-35.5 14zM304 518l-162 101q-28 17 -28 37 q0 13 11.5 22t26.5 9q13 0 33 -18l153 -151h-34z" />
<glyph unicode="r&#x304;&#x325;" horiz-adv-x="389" d="M368 365h-14q-15 19 -36 19q-33 0 -83 -65q-60 -78 -85 -193l-26 -120l-13 -2q-43 -9 -54 -13l-10 7q30 95 56.5 221.5t26.5 170.5q0 22 -17 22q-12 0 -48 -23l-32 -21l-7 20l28 20q103 74 133 74q23 0 23 -32q0 -16 -6 -42l-6 -26q-9 -33 -18 -85l-8 -41q21 46 67 112 l27 39q53 75 98 75q7 0 20 -6q-12 -62 -16 -111zM83 -65v1q32 0 55.5 -23.5t23.5 -56.5t-23.5 -56t-56.5 -23t-56 23t-23 56t23.5 56t56.5 23zM83 -92q-22 0 -35.5 -14t-13.5 -36t13.5 -36t35.5 -14t35.5 14t13.5 36t-13.5 36t-35.5 14zM414 589l-11 -51h-301l11 51h301z " />
<glyph unicode="r&#x304;&#x301;&#x325;" horiz-adv-x="389" d="M368 365h-14q-15 19 -36 19q-33 0 -83 -65q-60 -78 -85 -193l-26 -120l-13 -2q-43 -9 -54 -13l-10 7q30 95 56.5 221.5t26.5 170.5q0 22 -17 22q-12 0 -48 -23l-32 -21l-7 20l28 20q103 74 133 74q23 0 23 -32q0 -16 -6 -42l-6 -26q-9 -33 -18 -85l-8 -41q21 46 67 112 l27 39q53 75 98 75q7 0 20 -6q-12 -62 -16 -111zM83 -65v1q32 0 55.5 -23.5t23.5 -56.5t-23.5 -56t-56.5 -23t-56 23t-23 56t23.5 56t56.5 23zM83 -92q-22 0 -35.5 -14t-13.5 -36t13.5 -36t35.5 -14t35.5 14t13.5 36t-13.5 36t-35.5 14zM414 589l-11 -51h-301l11 51h301z M168 625l153 151q18 18 33 18t26.5 -9.5t11.5 -21.5q0 -20 -28 -37l-162 -101h-34z" />
<glyph unicode="s&#x301;&#x304;" horiz-adv-x="389" d="M31 148h25v-84q41 -35 94 -35t85 30t32 79q0 29 -13.5 44t-46.5 21l-63 12q-97 19 -97 101q0 50 37 88q78 78 161 78q45 0 100 -27q-13 -60 -19 -113h-23v55q-12 20 -38 32.5t-57 12.5q-43 0 -72.5 -27t-29.5 -67q0 -31 17 -46t62 -23l43 -8q56 -11 81 -34t25 -63 q0 -71 -72 -127q-74 -58 -146 -58q-50 0 -107 27q15 64 22 132zM150 518l153 151q18 18 33 18t26.5 -9.5t11.5 -21.5q0 -20 -28 -37l-162 -101h-34zM432 696l-11 -51h-301l11 51h301z" />
<glyph unicode="&#x1e63;&#x304;" horiz-adv-x="389" d="M31 148h25v-84q41 -35 94 -35t85 30t32 79q0 29 -13.5 44t-46.5 21l-63 12q-97 19 -97 101q0 50 37 88q78 78 161 78q45 0 100 -27q-13 -60 -19 -113h-23v55q-12 20 -38 32.5t-57 12.5q-43 0 -72.5 -27t-29.5 -67q0 -31 17 -46t62 -23l43 -8q56 -11 81 -34t25 -63 q0 -71 -72 -127q-74 -58 -146 -58q-50 0 -107 27q15 64 22 132zM146 -101q19 0 32 -14t13 -34q0 -28 -18 -48.5t-43 -20.5q-20 0 -32 12.5t-12 34.5q0 29 17.5 49.5t42.5 20.5zM414 589l-11 -51h-301l11 51h301z" />
<glyph unicode="s&#x324;" horiz-adv-x="389" d="M31 148h25v-84q41 -35 94 -35t85 30t32 79q0 29 -13.5 44t-46.5 21l-63 12q-97 19 -97 101q0 50 37 88q78 78 161 78q45 0 100 -27q-13 -60 -19 -113h-23v55q-12 20 -38 32.5t-57 12.5q-43 0 -72.5 -27t-29.5 -67q0 -31 17 -46t62 -23l43 -8q56 -11 81 -34t25 -63 q0 -71 -72 -127q-74 -58 -146 -58q-50 0 -107 27q15 64 22 132zM53 -125v1q15 0 27 -12t12 -27t-12 -27.5t-27 -12.5t-27 12.5t-12 27.5t12 26.5t27 11.5zM213 -124v1q15 0 27 -12t12 -27t-12 -27.5t-27 -12.5t-27 12.5t-12 27.5t12 26.5t27 11.5z" />
<glyph unicode="s&#x331;" horiz-adv-x="389" d="M31 148h25v-84q41 -35 94 -35t85 30t32 79q0 29 -13.5 44t-46.5 21l-63 12q-97 19 -97 101q0 50 37 88q78 78 161 78q45 0 100 -27q-13 -60 -19 -113h-23v55q-12 20 -38 32.5t-57 12.5q-43 0 -72.5 -27t-29.5 -67q0 -31 17 -46t62 -23l43 -8q56 -11 81 -34t25 -63 q0 -71 -72 -127q-74 -58 -146 -58q-50 0 -107 27q15 64 22 132zM16 -82h311v-52h-311v52z" />
<glyph unicode="&#x1e6d;&#x301;" horiz-adv-x="333" d="M125 390h-84l2 13q25 7 88 37l25 170q51 20 78 36l11 -15q-23 -70 -45 -197q53 0 110 6l-11 -50h-107l-13 -62q-43 -215 -43 -252q0 -20 14 -20q16 0 60 30l45 31l10 -18l-16 -13l-15 -12q-59 -47 -90.5 -65t-57.5 -18q-30 0 -30 40q0 18 8 55q5 19 5 21zM118 -101 q19 0 32 -14t13 -34q0 -28 -18 -48.5t-43 -20.5q-20 0 -32 12.5t-12 34.5q0 29 17.5 49.5t42.5 20.5zM157 728l153 151q18 18 33 18t26.5 -9.5t11.5 -21.5q0 -20 -28 -37l-162 -101h-34z" />
<glyph unicode="t&#x324;" horiz-adv-x="333" d="M125 390h-84l2 13q25 7 88 37l25 170q51 20 78 36l11 -15q-23 -70 -45 -197q53 0 110 6l-11 -50h-107l-13 -62q-43 -215 -43 -252q0 -20 14 -20q16 0 60 30l45 31l10 -18l-16 -13l-15 -12q-59 -47 -90.5 -65t-57.5 -18q-30 0 -30 40q0 18 8 55q5 19 5 21zM25 -125v1 q15 0 27 -12t12 -27t-12 -27.5t-27 -12.5t-27 12.5t-12 27.5t12 26.5t27 11.5zM185 -124v1q15 0 27 -12t12 -27t-12 -27.5t-27 -12.5t-27 12.5t-12 27.5t12 26.5t27 11.5z" />
<glyph unicode="u&#x304;&#x301;" d="M333 97l37 142q-63 -103 -142 -176.5t-126 -73.5q-15 0 -25 12t-10 29q0 29 4 47l63 297q2 8 2 18q0 8 -5 14t-12 6q-12 0 -48 -23l-32 -21l-7 20l28 20q103 74 132 74q23 0 23 -31q0 -16 -5 -43l-57 -271q-7 -35 -7 -52q0 -26 13 -26q30 0 81.5 47t95.5 115 q48 73 71 193l10 51l68 17l7 -9q-45 -174 -84 -357l-1 -6q-5 -25 -5 -34q0 -17 13 -17q21 0 61 27l26 17l10 -18q-73 -55 -106.5 -74.5t-53.5 -19.5q-30 0 -30 40q0 28 11 66zM498 589l-11 -51h-301l11 51h301zM251 625l153 151q18 18 33 18t26.5 -9.5t11.5 -21.5 q0 -20 -28 -37l-162 -101h-34z" />
<glyph unicode="u&#x304;&#x300;" d="M333 97l37 142q-63 -103 -142 -176.5t-126 -73.5q-15 0 -25 12t-10 29q0 29 4 47l63 297q2 8 2 18q0 8 -5 14t-12 6q-12 0 -48 -23l-32 -21l-7 20l28 20q103 74 132 74q23 0 23 -31q0 -16 -5 -43l-57 -271q-7 -35 -7 -52q0 -26 13 -26q30 0 81.5 47t95.5 115 q48 73 71 193l10 51l68 17l7 -9q-45 -174 -84 -357l-1 -6q-5 -25 -5 -34q0 -17 13 -17q21 0 61 27l26 17l10 -18q-73 -55 -106.5 -74.5t-53.5 -19.5q-30 0 -30 40q0 28 11 66zM498 589l-11 -51h-301l11 51h301zM405 625l-162 101q-28 17 -28 37q0 13 11.5 22t26.5 9 q13 0 33 -18l153 -151h-34z" />
<glyph unicode="u&#x304;&#x303;" d="M333 97l37 142q-63 -103 -142 -176.5t-126 -73.5q-15 0 -25 12t-10 29q0 29 4 47l63 297q2 8 2 18q0 8 -5 14t-12 6q-12 0 -48 -23l-32 -21l-7 20l28 20q103 74 132 74q23 0 23 -31q0 -16 -5 -43l-57 -271q-7 -35 -7 -52q0 -26 13 -26q30 0 81.5 47t95.5 115 q48 73 71 193l10 51l68 17l7 -9q-45 -174 -84 -357l-1 -6q-5 -25 -5 -34q0 -17 13 -17q21 0 61 27l26 17l10 -18q-73 -55 -106.5 -74.5t-53.5 -19.5q-30 0 -30 40q0 28 11 66zM498 589l-11 -51h-301l11 51h301zM221 642h-29q15 55 38 79t60 24q27 0 63 -14l60 -24 q12 -5 27 -5t25.5 9t25.5 34h28q-9 -49 -34.5 -76t-62.5 -27q-23 0 -64 16l-38 15l-2 1q-2 0 -7 3q-22 9 -38 9q-19 0 -30 -9.5t-22 -34.5z" />
<glyph unicode="u&#x304;&#x306;" d="M333 97l37 142q-63 -103 -142 -176.5t-126 -73.5q-15 0 -25 12t-10 29q0 29 4 47l63 297q2 8 2 18q0 8 -5 14t-12 6q-12 0 -48 -23l-32 -21l-7 20l28 20q103 74 132 74q23 0 23 -31q0 -16 -5 -43l-57 -271q-7 -35 -7 -52q0 -26 13 -26q30 0 81.5 47t95.5 115 q48 73 71 193l10 51l68 17l7 -9q-45 -174 -84 -357l-1 -6q-5 -25 -5 -34q0 -17 13 -17q21 0 61 27l26 17l10 -18q-73 -55 -106.5 -74.5t-53.5 -19.5q-30 0 -30 40q0 28 11 66zM498 589l-11 -51h-301l11 51h301zM221 784h29q9 -100 109 -100q45 0 75 22.5t59 77.5h29 q-18 -66 -45 -100q-47 -59 -125 -59q-79 0 -111 58q-20 36 -20 101z" />
<glyph unicode="v&#x301;" horiz-adv-x="500" d="M332 423l50 47q12 12 33 12q27 0 44.5 -27.5t17.5 -70.5q0 -68 -39 -157q-49 -108 -126 -179q-66 -59 -126 -59q-48 0 -79 37t-31 95q0 75 35 144t118 159q-35 -4 -63 -4q-20 0 -28 1q-13 1 -27 1q-39 0 -51 -28l-17 -42h-22q19 82 38 118q15 7 32 7q6 0 12 -1l12 -1 q48 -5 99 -5q34 0 61 12l10 -18q-73 -91 -105 -165t-32 -153q0 -49 21.5 -78t58.5 -29q66 0 125.5 100t59.5 211q0 63 -43 63q-14 0 -27 -9zM206 518l153 151q18 18 33 18t26.5 -9.5t11.5 -21.5q0 -20 -28 -37l-162 -101h-34z" />
<glyph unicode="&#x7a;&#x324;" horiz-adv-x="444" d="M-1 21l353 400q-45 -23 -93 -23q-32 0 -81 10q-25 5 -45 5q-18 0 -39 -5l-30 -58h-21l32 122q34 10 61 10q18 0 62 -11l18 -5q78 -21 134 -21q20 0 34 14l23 23l9 -9l-6 -32l-339 -382q50 21 95 21q29 0 86 -12l18 -4q29 -7 49 -7q31 0 39 25l22 60h22q-19 -82 -30 -143 q-36 -10 -50 -10q-38 0 -118 20q-74 17 -105 17q-51 0 -91 -32zM81 -125v1q15 0 27 -12t12 -27t-12 -27.5t-27 -12.5t-27 12.5t-12 27.5t12 26.5t27 11.5zM241 -124v1q15 0 27 -12t12 -27t-12 -27.5t-27 -12.5t-27 12.5t-12 27.5t12 26.5t27 11.5z" />
<glyph unicode="A&#x304;&#x30a;" horiz-adv-x="722" d="M462 705h46l87 -625q6 -33 13 -40t43 -12l26 -3v-28q-102 3 -122 3t-122 -3v28l44 3q43 3 43 27q0 6 -2 22q0 2 -0.5 4t-1.5 3v2v3l-25 188h-246l-102 -175q-26 -45 -26 -55q0 -7 9.5 -12.5t21.5 -6.5l52 -3v-28q-86 3 -107 3q-20 0 -112 -3v30l20 5q26 6 43.5 22 t44.5 58zM449 601l-179 -288h216zM635 799l-11 -51h-301l11 51h301zM527 1035q41 0 70 -29.5t29 -70.5q0 -42 -29.5 -71t-70.5 -29q-42 0 -71 29t-29 71t29.5 71t71.5 29zM526 999q-28 0 -45 -17.5t-17 -46.5t17 -46.5t45 -17.5t45 17.5t17 46.5t-17 46.5t-45 17.5z" />
<glyph unicode="a&#x304;&#x30a;" horiz-adv-x="444" d="M402 472l-92 -379q-1 -3 -1 -11q0 -23 15 -23q19 0 62 36q1 1 13 11l7 -21q-113 -94 -146 -94q-24 0 -24 35q0 26 6 51l29 127q-73 -103 -135 -159q-63 -56 -98 -56q-14 0 -24 22.5t-10 55.5q0 59 21 140t54 147q19 37 46 62t74 48q37 18 75 18q33 0 85 -19l33 18z M319 414q-56 19 -85 19q-36 0 -56.5 -16t-38.5 -57q-26 -60 -44.5 -136.5t-18.5 -124.5q0 -40 18 -40q24 0 65.5 39.5t84.5 102.5q26 39 42.5 85.5t32.5 127.5zM442 589l-11 -51h-301l11 51h301zM333 825q41 0 70 -29.5t29 -70.5q0 -42 -29.5 -71t-70.5 -29q-42 0 -71 29 t-29 71t29.5 71t71.5 29zM332 789q-28 0 -45 -17.5t-17 -46.5t17 -46.5t45 -17.5t45 17.5t17 46.5t-17 46.5t-45 17.5z" />
<glyph unicode="A&#x328;&#x307;" horiz-adv-x="722" d="M677 25v-28q-7 -1 -17 -12q-34 -41 -34 -70q0 -20 11 -33t27 -13q23 0 50 34l14 -4q-48 -86 -105 -86q-24 0 -38.5 18t-14.5 47q0 27 13 51t47 61l7 8q-59 2 -82 2q-20 0 -122 -3v28l44 3q43 3 43 27q0 6 -2 22q0 2 -0.5 4t-1.5 3v2v3l-25 188h-246l-102 -175 q-26 -45 -26 -55q0 -7 9.5 -12.5t21.5 -6.5l52 -3v-28q-86 3 -107 3q-20 0 -112 -3v30l20 5q26 6 43.5 22t44.5 58l373 593h46l87 -625q6 -33 13 -40t43 -12zM449 601l-179 -288h216zM479 855q21 0 37 -16t16 -37q0 -22 -16 -38.5t-38 -16.5t-38 16.5t-16 38.5q0 21 16.5 37 t38.5 16z" />
<glyph unicode="a&#x328;&#x307;" horiz-adv-x="444" d="M402 472l-92 -379q-1 -3 -1 -11q0 -23 15 -23q19 0 62 36q1 1 13 11l7 -21q-51 -39 -97 -93q-40 -47 -40 -77q0 -20 10.5 -33t27.5 -13q22 0 51 34l14 -4q-47 -86 -105 -86q-25 0 -39.5 18t-14.5 47q0 27 13 51t48 61l4 5q-11 -4 -17 -4q-25 0 -25 35q0 26 6 51l29 127 q-73 -103 -135 -159q-63 -56 -98 -56q-14 0 -24 22.5t-10 55.5q0 59 21 140t54 147q19 37 46 62t74 48q37 18 75 18q33 0 85 -19l33 18zM319 414q-56 19 -85 19q-36 0 -56.5 -16t-38.5 -57q-26 -60 -44.5 -136.5t-18.5 -124.5q0 -40 18 -40q24 0 65.5 39.5t84.5 102.5 q26 39 42.5 85.5t32.5 127.5zM286 645q21 0 37 -16t16 -37q0 -22 -16 -38.5t-38 -16.5t-38 16.5t-16 38.5q0 21 16.5 37t38.5 16z" />
<glyph unicode="&#x18f;&#x304;" horiz-adv-x="519" d="M81 480l-10 25q92 75 154 106.5t119 31.5q72 0 113.5 -44t41.5 -122q0 -67 -25 -166t-55 -148q-39 -65 -130.5 -121.5t-156.5 -56.5q-50 0 -81 28.5t-31 75.5q0 121 165 194q66 27 92 33l110 27q10 63 10 108q0 60 -27 94.5t-74 34.5q-74 0 -183 -77zM368 263l12 49 q-93 -20 -145 -47q-52 -25 -84 -67.5t-32 -86.5q0 -32 17.5 -51t46.5 -19q24 0 51.5 11t45.5 27q54 47 88 184zM514 799l-11 -51h-301l11 51h301z" />
<glyph unicode="&#x259;&#x304;" horiz-adv-x="389" d="M61 360l-8 19q69 56 115.5 79.5t89.5 23.5q54 0 85 -33t31 -91q0 -50 -19 -124.5t-41 -111.5q-29 -48 -97.5 -90.5t-117.5 -42.5q-38 0 -61 21.5t-23 56.5q0 91 124 145q43 19 69 25l82 20q8 46 8 81q0 45 -20.5 71t-55.5 26q-56 0 -137 -58zM276 197l9 37 q-70 -16 -109 -35t-63 -51t-24 -65q0 -24 13 -38t35 -14q41 0 73 28q41 37 66 138zM414 589l-11 -51h-301l11 51h301z" />
<glyph unicode="M&#x328;" horiz-adv-x="944" d="M937 664l-38 -2q-43 -3 -46 -31l-41 -531l-1 -37q0 -31 54 -35l37 -3l-3 -28l-46 1q-82 2 -87 2q-3 0 -87 -2l-47 -1l3 28l31 3q38 3 51 10.5t16 28.5l37 520l-52 -87l-239 -414l-57 -104h-23l-149 578l-124 -464q-7 -25 -7 -41q0 -24 49 -27l38 -3l-3 -28l-35 1 q-70 2 -75 2t-73 -2l-39 -1l3 26q41 4 57.5 17.5t28.5 52.5l145 509q3 10 3 20q0 19 -15.5 28t-54.5 12l-26 2l3 28l59 -3h24q28 0 56 2l28 1l150 -578l246 422l69 125l16 31l59 -3h24q28 0 56 2l28 1zM507 -117l14 -4q-47 -86 -104 -86q-25 0 -39.5 18t-14.5 47q0 27 13 51 t47 61l11 12h34l-2 -3q-3 -2 -7 -8q-40 -45 -40 -76q0 -20 10.5 -33t27.5 -13q23 0 50 34z" />
<glyph unicode="m&#x328;" horiz-adv-x="778" d="M730 103l10 -18q-73 -55 -106.5 -74.5t-53.5 -19.5q-30 0 -30 40q0 36 13 76q23 78 43 157q25 99 25 125q0 25 -13 25q-50 0 -137 -96q-69 -76 -94 -205l-21 -107l-69 -15l-5 11l16 67q63 269 63 324q0 21 -11 21q-46 0 -115 -76q-41 -45 -64.5 -96t-41.5 -134l-22 -102 l-68 -15l-3 11q31 107 56.5 228t25.5 159q0 25 -18 25q-7 0 -47 -25l-32 -21l-7 20l28 20q103 74 133 74q23 0 23 -31q0 -19 -6 -43l-33 -133q48 65 71.5 91t57.5 52q84 64 131 64q26 0 26 -31q0 -7 -7 -42l-30 -137q37 51 68 83t79 66q87 61 128 61q26 0 26 -28 q0 -11 -7 -41l-75 -297q-7 -29 -7 -40q0 -20 13 -20q15 0 61 30zM405 -117l14 -4q-47 -86 -104 -86q-25 0 -39.5 18t-14.5 47q0 27 13 51t47 61l11 12h34l-2 -3q-3 -2 -7 -8q-40 -45 -40 -76q0 -20 10.5 -33t27.5 -13q23 0 50 34z" />
<glyph unicode="S&#x30c;&#x301;" d="M451 537v76q-42 45 -112 45q-69 0 -114 -42.5t-45 -107.5q0 -97 96 -117l65 -14q76 -17 110 -50.5t34 -92.5q0 -101 -86 -176.5t-202 -75.5q-81 0 -155 38q15 72 24 152h30v-99q61 -43 136 -43q77 0 125.5 45t48.5 116q0 85 -81 105l-95 23q-63 15 -92.5 51.5 t-29.5 100.5q0 89 64 150q39 40 93 62.5t109 22.5q68 0 132 -34q-19 -60 -25 -135h-30zM393 720h-46l-96 169h37l90 -105l142 105h36zM287 835l153 151q18 18 33 18t26.5 -9.5t11.5 -21.5q0 -20 -28 -37l-162 -101h-34z" />
<glyph unicode="s&#x30c;&#x301;" horiz-adv-x="389" d="M31 148h25v-84q41 -35 94 -35t85 30t32 79q0 29 -13.5 44t-46.5 21l-63 12q-97 19 -97 101q0 50 37 88q78 78 161 78q45 0 100 -27q-13 -60 -19 -113h-23v55q-12 20 -38 32.5t-57 12.5q-43 0 -72.5 -27t-29.5 -67q0 -31 17 -46t62 -23l43 -8q56 -11 81 -34t25 -63 q0 -71 -72 -127q-74 -58 -146 -58q-50 0 -107 27q15 64 22 132zM274 510h-46l-96 169h37l90 -105l142 105h36zM168 625l153 151q18 18 33 18t26.5 -9.5t11.5 -21.5q0 -20 -28 -37l-162 -101h-34z" />
<glyph unicode="&#x1e62;&#x30c;" d="M451 537v76q-42 45 -112 45q-69 0 -114 -42.5t-45 -107.5q0 -97 96 -117l65 -14q76 -17 110 -50.5t34 -92.5q0 -101 -86 -176.5t-202 -75.5q-81 0 -155 38q15 72 24 152h30v-99q61 -43 136 -43q77 0 125.5 45t48.5 116q0 85 -81 105l-95 23q-63 15 -92.5 51.5 t-29.5 100.5q0 89 64 150q39 40 93 62.5t109 22.5q68 0 132 -34q-19 -60 -25 -135h-30zM393 720h-46l-96 169h37l90 -105l142 105h36zM230 -101q19 0 32 -14t13 -34q0 -28 -18 -48.5t-43 -20.5q-20 0 -32 12.5t-12 34.5q0 29 17.5 49.5t42.5 20.5z" />
<glyph unicode="T&#x330;" horiz-adv-x="611" d="M390 646l-94 -553q-4 -25 -4 -35q0 -29 36 -30l59 -3l-3 -28l-44 1q-78 2 -89 2q-5 0 -85 -2l-57 -1l4 28l51 3q30 2 38 15.5t20 81.5l86 521h-112q-70 0 -81 -13q-11 -12 -18 -45l-15 -60h-29l18 164l95 -1q172 -2 187 -2t191 2l91 1l-27 -164h-28l4 64v6q0 17 -4 31 q-4 17 -117 17h-73zM82 -206l-26 3q12 43 30.5 62.5t47.5 19.5q21 0 49 -11l48 -19q7 -3 20 -3q12 0 20 7t20 27h22q-7 -39 -27 -60.5t-49 -21.5q-19 0 -50 12l-30 12h-1q-2 0 -4 1q-16 6 -29 6q-15 0 -23.5 -7.5t-17.5 -27.5z" />
<glyph unicode="t&#x330;" horiz-adv-x="333" d="M125 390h-84l2 13q25 7 88 37l25 170q51 20 78 36l11 -15q-23 -70 -45 -197q53 0 110 6l-11 -50h-107l-13 -62q-43 -215 -43 -252q0 -20 14 -20q16 0 60 30l45 31l10 -18l-16 -13l-15 -12q-59 -47 -90.5 -65t-57.5 -18q-30 0 -30 40q0 18 8 55q5 19 5 21zM-4 -206l-26 3 q12 43 30.5 62.5t47.5 19.5q21 0 49 -11l48 -19q7 -3 20 -3q12 0 20 7t20 27h22q-7 -39 -27 -60.5t-49 -21.5q-19 0 -50 12l-30 12h-1q-2 0 -4 1q-16 6 -29 6q-15 0 -23.5 -7.5t-17.5 -27.5z" />
<glyph unicode="X&#x301;" horiz-adv-x="722" d="M416 25l38 3l16 1q32 0 32 11q0 12 -14 40l-119 226l-182 -231q-10 -13 -10 -25q0 -16 55 -22l32 -3v-28q-64 3 -119 3q-51 0 -125 -3v28l28 3q39 5 62 33l238 282l-146 270q-15 28 -29.5 36.5t-51.5 12.5l-26 2v28l45 -1q82 -2 88 -2q5 0 87 2l46 1v-28l-37 -2 q-43 -3 -43 -20q0 -10 14 -38l104 -199l161 196q23 28 23 42q0 16 -45 19l-33 2v28q89 -3 115 -3l114 3v-28l-28 -2q-19 -2 -30.5 -9.5t-34.5 -32.5l-221 -252l171 -307q11 -18 24 -25t44 -9l25 -2v-28q-72 3 -133 3q-63 0 -135 -3v28zM332 728l153 151q18 18 33 18 t26.5 -9.5t11.5 -21.5q0 -20 -28 -37l-162 -101h-34z" />
<glyph unicode="x&#x301;" horiz-adv-x="500" d="M21 88l20 3l11 -28q4 -9 28 -9q41 0 105 99l40 62l-11 62q-24 139 -72 139q-27 0 -69 -48l-17 10l58 83q15 21 57 21q44 0 66.5 -30.5t31.5 -104.5l6 -48l37 55q46 69 79 98.5t63 29.5q13 0 30 -10l-15 -85l-14 -4q-8 23 -33 23q-23 0 -46.5 -19.5t-58.5 -68.5l-35 -49 l18 -101q9 -51 25 -85q15 -30 38 -30t77 45l9 -19l-49 -44q-51 -46 -86 -46q-53 0 -72 124l-11 69l-76 -117q-50 -76 -103 -76q-20 0 -43 12q1 3 2 9l2 13q8 43 8 65zM206 518l153 151q18 18 33 18t26.5 -9.5t11.5 -21.5q0 -20 -28 -37l-162 -101h-34z" />
<glyph unicode="&#x14a;&#x301;" horiz-adv-x="777" d="M537 22l-300 517l-80 -392q-8 -43 -8 -62q0 -15 3 -23.5t14.5 -13t19.5 -6t33 -4.5l-8 -38h-209l8 38q58 9 69 16q21 14 35 74q2 8 4 19l89 441q-17 31 -30.5 38.5t-42.5 7.5h-5l8 38h153l279 -494l68 337q9 42 9 69q0 31 -12 43q-6 5 -19 5h-12q-16 0 -28 2l8 38l227 -2 l-10 -36q-16 -4 -50 -4h-4q-14 0 -21 -5q-30 -19 -48 -110l-104 -515q-24 -116 -57.5 -167t-103.5 -51q-33 0 -53 13t-20 34q0 5 1 8q3 17 15.5 28t28.5 11q20 0 37 -32q13 -28 31 -28q21 0 34 18q18 26 37 121zM379 728l153 151q18 18 33 18t26.5 -9.5t11.5 -21.5 q0 -20 -28 -37l-162 -101h-34z" />
<glyph unicode="&#x14b;&#x301;" horiz-adv-x="558" d="M116 12l-94 -24l91 350q5 20 5 37q0 27 -28 27q-7 0 -34 -17l-26 -17v34l69 41q46 28 69.5 40t36.5 12q15 0 15 -17l6 -20l-16 -78q150 114 214 114q73 0 73 -128q0 -21 -7 -56l-71 -310q-25 -107 -82 -162.5t-142 -55.5q-38 0 -61 13t-23 34q0 1 0.5 4t0.5 4 q4 16 19 27.5t32 11.5q23 0 41 -32q17 -28 37 -28q22 0 38 18q21 26 42 121l80 353q5 19 5 40q0 31 -14 51.5t-42 20.5q-53 0 -147 -72zM235 518l153 151q18 18 33 18t26.5 -9.5t11.5 -21.5q0 -20 -28 -37l-162 -101h-34z" />
<glyph unicode="T&#x327;" horiz-adv-x="611" d="M390 646l-94 -553q-4 -25 -4 -35q0 -29 36 -30l59 -3l-3 -28l-44 1q-78 2 -89 2q-5 0 -85 -2l-57 -1l4 28l51 3q30 2 38 15.5t20 81.5l86 521h-112q-70 0 -81 -13q-11 -12 -18 -45l-15 -60h-29l18 164l95 -1q172 -2 187 -2t191 2l91 1l-27 -164h-28l4 64v6q0 17 -4 31 q-4 17 -117 17h-73zM136 -104l-9 8l61 96h38l-44 -64q22 2 24 2q38 0 60 -19t22 -51q0 -38 -33.5 -61t-89.5 -23q-35 0 -88 20l17 29q45 -14 69 -14q23 0 38 12.5t15 32.5q0 17 -13 27.5t-34 10.5q-13 0 -26 -4z" />
<glyph unicode="t&#x327;" horiz-adv-x="333" d="M125 390h-84l2 13q25 7 88 37l25 170q51 20 78 36l11 -15q-23 -70 -45 -197q53 0 110 6l-11 -50h-107l-13 -62q-43 -215 -43 -252q0 -20 14 -20q16 0 60 30l45 31l10 -18l-16 -13l-15 -12q-59 -47 -90.5 -65t-57.5 -18q-30 0 -30 40q0 18 8 55q5 19 5 21zM50 -104l-9 8 l61 96h38l-44 -64q22 2 24 2q38 0 60 -19t22 -51q0 -38 -33.5 -61t-89.5 -23q-35 0 -88 20l17 29q45 -14 69 -14q23 0 38 12.5t15 32.5q0 17 -13 27.5t-34 10.5q-13 0 -26 -4z" />
<glyph unicode=" "  horiz-adv-x="250" />
<glyph unicode="&#x09;" horiz-adv-x="250" />
<glyph unicode="&#xa0;" horiz-adv-x="250" />
<glyph unicode="!" horiz-adv-x="333" d="M136 109q19 0 32 -14t13 -34q0 -28 -18 -48.5t-43 -20.5q-20 0 -32 12.5t-12 34.5q0 29 17.5 49.5t42.5 20.5zM196 707l85 26l11 -9q-53 -202 -123 -516l-30 -17l-6 3l21 154q21 151 35 288z" />
<glyph unicode="&#x22;" horiz-adv-x="500" d="M170 508h-30l62 187q12 38 45 38q17 0 29 -11.5t12 -27.5q0 -21 -9 -33zM337 508h-30l62 187q12 38 45 38q17 0 29 -11.5t12 -27.5q0 -21 -9 -33z" />
<glyph unicode="#" horiz-adv-x="500" d="M470 283v-56h-109l-31 -227h-58l31 227h-134l-33 -227h-58l33 227h-107v56h116l21 140h-110v56h118l31 213h58l-31 -213h133l30 213h58l-30 -213h97v-56h-105l-20 -140h100zM332 423h-133l-21 -140h134z" />
<glyph unicode="$" horiz-adv-x="500" d="M289 733h37l-10 -60q84 -1 134 -34l2 -10q-16 -61 -25 -115h-24v72q-32 35 -95 42l-41 -257q88 -14 124 -45q43 -35 43 -102q0 -54 -29 -104t-81 -86q-51 -35 -119 -45l-14 -102h-41l20 101q-118 13 -155 42q13 56 22 145h26v-90q34 -39 115 -53l44 273q-82 18 -116 50.5 t-34 93.5q0 99 82 164q43 35 126 58zM255 301l-43 -269q47 3 82 27q66 50 66 134q0 47 -23 70.5t-82 37.5zM234 377l40 251q-45 -1 -74 -23q-28 -20 -44.5 -54t-16.5 -71q0 -41 22 -65t73 -38z" />
<glyph unicode="%" horiz-adv-x="889" d="M254 699q57 0 94.5 -39t37.5 -98q0 -77 -49.5 -130t-121.5 -53q-61 0 -101 40.5t-40 102.5q0 70 54.5 123.5t125.5 53.5zM254 676q-47 0 -78.5 -51t-31.5 -126q0 -45 19 -71t51 -26q44 0 74 51q32 57 32 136q0 41 -17.5 64t-48.5 23zM677 320q57 0 94.5 -39t37.5 -98 q0 -77 -49.5 -130t-121.5 -53q-61 0 -101 40.5t-40 102.5q0 70 54.5 123.5t125.5 53.5zM677 297q-47 0 -78.5 -51t-31.5 -126q0 -45 19 -71t51 -26q44 0 74 51q32 57 32 136q0 41 -17.5 64t-48.5 23zM247 -7h-41l424 717h44z" />
<glyph unicode="&#x26;" horiz-adv-x="778" d="M488 548h-23v62q-49 32 -90 32q-53 0 -89.5 -35t-36.5 -85q0 -69 69 -94q24 -9 71 -9l-8 -18q-12 -24 -12 -30v-2h-36q-90 0 -146.5 -49t-56.5 -126q0 -74 56 -119.5t147 -45.5q92 0 161.5 51t69.5 119q0 40 -25 64.5t-65 24.5q-35 0 -50.5 -16.5t-26.5 -66.5l-23 2l8 99 q23 23 47 32.5t78 18.5l111 18q113 19 113 81q0 19 -8 29.5t-30 22.5l21 16q28 -13 40 -31.5t12 -48.5q0 -50 -33.5 -82.5t-92.5 -40.5l-85 -12l17 -2q24 -2 43 -28.5t19 -55.5q0 -54 -46 -108t-125 -93q-77 -40 -176 -40q-110 0 -175 51.5t-65 139.5q0 87 60 141 q50 42 149 76q-42 20 -60.5 43t-18.5 57q0 51 45.5 104t114.5 82q36 16 80 16q50 0 97 -25z" />
<glyph unicode="'" horiz-adv-x="333" d="M170 508h-30l62 187q12 38 45 38q17 0 29 -11.5t12 -27.5q0 -21 -9 -33z" />
<glyph unicode="(" horiz-adv-x="333" d="M308 733l23 -21q-69 -78 -102 -129t-58 -114q-45 -115 -45 -259q0 -148 48 -248l26 -55l-22 -13q-80 129 -103 210q-21 76 -21 153q0 148 85 282q31 48 66.5 89t102.5 105z" />
<glyph unicode=")" horiz-adv-x="333" d="M25 -106l-23 21q69 78 102 129t58 114q45 116 45 259q0 144 -48 248l-26 55l22 13q80 -129 103 -210q21 -76 21 -153q0 -149 -86 -282q-52 -82 -168 -194z" />
<glyph unicode="*" horiz-adv-x="389" d="M76 608l33 57h10l104 -105l22 141l10 5l63 -18v-8l-71 -131l140 25l7 -5l6 -58l-6 -6l-145 19l65 -120l-4 -8l-58 -28l-7 4l-22 142l-107 -97h-12l-26 57l4 7l127 56l-128 62z" />
<glyph unicode="+" horiz-adv-x="606" d="M275 280v224h56v-224h224v-56h-224v-224h-56v224h-224v56h224z" />
<glyph unicode="," horiz-adv-x="250" d="M15 -143l-7 10q57 72 87 195l8 32l91 29l9 -13q-47 -109 -153 -240z" />
<glyph unicode="-" horiz-adv-x="333" d="M19 223l19 58h266l-18 -58h-267z" />
<glyph unicode="." horiz-adv-x="250" d="M113 112q19 0 32 -14t13 -34q0 -28 -18 -48.5t-43 -20.5q-20 0 -32 12.5t-12 34.5q0 29 17.5 49.5t42.5 20.5z" />
<glyph unicode="/" horiz-adv-x="296" d="M392 733l-372 -852h-60l372 852h60z" />
<glyph unicode="0" horiz-adv-x="500" d="M308 699q80 0 126 -62t46 -169q0 -92 -21.5 -186t-58.5 -161q-72 -132 -192 -132q-83 0 -127.5 63t-44.5 179q0 102 26.5 202t70.5 164q71 102 175 102zM302 670q-53 0 -88.5 -48t-63.5 -157q-38 -154 -38 -287q0 -160 100 -160q45 0 78.5 37t60.5 116q22 65 37.5 161 t15.5 170q0 168 -102 168z" />
<glyph unicode="1" horiz-adv-x="500" d="M374 688l-24 -115l-74 -437q-8 -48 -8 -60q0 -26 12 -36t47 -12l71 -4l-5 -27q-103 3 -169 3t-170 -3l5 27l85 10q23 4 32 16.5t16 51.5l86 527l-36 -14q-66 -27 -67 -28l-84 -41l-7 5l11 59l24 6q99 25 140 42l100 41z" />
<glyph unicode="2" horiz-adv-x="500" d="M101 63h210q52 0 115 11l6 -8l-17 -69q-102 3 -201 3q-100 0 -202 -3v18l49 52q122 131 190 219q101 131 101 237q0 49 -31 80t-80 31q-43 0 -74.5 -24t-68.5 -84l-22 9l60 120q60 44 132 44q77 0 123 -43.5t46 -117.5q0 -109 -89 -206z" />
<glyph unicode="3" horiz-adv-x="500" d="M22 33l28 145l24 -5q-4 -32 -4 -43q0 -50 33 -78.5t90 -28.5q63 0 104 43q64 66 64 162q0 64 -35.5 99t-99.5 35q-34 0 -78 -16l-6 12l18 43h9q5 0 13 -1l22 -1q65 0 110.5 42.5t45.5 103.5q0 42 -27.5 67.5t-73.5 25.5q-33 0 -55.5 -12t-51.5 -46l-21 -24l-19 13l58 99 q67 31 116 31q68 0 110.5 -36t42.5 -94q0 -54 -33 -94.5t-112 -81.5q69 -17 101 -40q52 -40 52 -118q0 -102 -81 -174t-196 -72q-82 0 -148 44z" />
<glyph unicode="4" horiz-adv-x="500" d="M15 223l337 461l69 15l8 -5l-83 -446h128l4 -5l-16 -55l-18 1q-34 2 -35 2h-73l-9 -53q-9 -52 -9 -84q0 -16 36 -20l87 -10l-5 -27q-102 3 -165 3q-65 0 -166 -3l5 27l86 10q25 3 35 14t17 42l20 102h-253v31zM345 621l-270 -373h203z" />
<glyph unicode="5" horiz-adv-x="500" d="M115 329l-21 9l64 350l8 5l21 -1q91 -6 146 -6q63 0 120 3l32 1l6 -9l-35 -58q-85 -5 -147 -5q-53 0 -121 5l-51 -241q58 52 139 52q77 0 123 -45.5t46 -122.5q0 -68 -38 -138q-35 -65 -98.5 -102t-139.5 -37q-88 0 -155 52q14 49 29 139l23 -5q-3 -24 -3 -39 q0 -50 34 -80.5t90 -30.5q65 0 106 43q66 68 66 179q0 68 -32.5 105t-91.5 37q-34 0 -61 -13.5t-59 -46.5z" />
<glyph unicode="6" horiz-adv-x="500" d="M469 694l-16 -59h-8q-37 18 -65 18q-102 0 -171 -122q-45 -79 -76 -220q47 57 88 81.5t91 24.5q64 0 100 -40.5t36 -113.5q0 -76 -35 -138q-33 -60 -92 -98t-119 -38q-72 0 -112.5 56t-40.5 155q0 206 133 368q55 68 112.5 99.5t126.5 31.5q25 0 48 -5zM265 362 q-61 0 -100.5 -53t-39.5 -135q0 -63 30 -101t79 -38q59 0 98.5 57t39.5 144q0 59 -28.5 92.5t-78.5 33.5z" />
<glyph unicode="7" horiz-adv-x="500" d="M53 5l21 32l80 127l278 449h-242q-12 0 -79 -4l-20 -1l-6 4l16 80q17 0 38 -0.5t32 -1t15 -0.5l140 -3l69 -1h8q9 0 77 2h22v-35l-126 -203q-120 -193 -236 -453q-24 2 -38 3q-13 0 -25 -2q-10 0 -19 -1z" />
<glyph unicode="8" horiz-adv-x="500" d="M217 352q-100 57 -100 138q0 78 69 143.5t150 65.5q61 0 97 -33.5t36 -89.5q0 -57 -31.5 -99t-117.5 -99q65 -36 88 -67t23 -83q0 -94 -73.5 -166.5t-169.5 -72.5q-69 0 -110.5 38.5t-41.5 102.5q0 77 62 142q41 42 119 80zM273 321l-29 17q-132 -69 -132 -190 q0 -55 28.5 -86t80.5 -31q58 0 96 46.5t38 117.5q0 45 -17 71.5t-65 54.5zM257 413l34 -19q110 71 110 162q0 45 -27 73t-70 28q-51 0 -85 -38.5t-34 -96.5q0 -68 72 -109z" />
<glyph unicode="9" horiz-adv-x="500" d="M32 111l21 8q23 -44 50 -63t65 -19q97 0 156 125q33 70 62 215q-44 -55 -82 -78t-85 -23q-67 0 -107.5 45t-40.5 119q0 104 72 181.5t169 77.5q76 0 116 -55.5t40 -162.5q0 -102 -29.5 -197t-83.5 -166q-46 -61 -102 -95t-111 -34q-41 0 -79 19l-3 12l-4 14 q-13 52 -24 77zM283 654q-59 0 -97.5 -52t-38.5 -133q0 -66 29.5 -102.5t82.5 -36.5q58 0 95.5 50.5t37.5 127.5q0 66 -30 106t-79 40z" />
<glyph unicode=":" horiz-adv-x="250" d="M104 112q19 0 32 -14t13 -34q0 -28 -18 -48.5t-43 -20.5q-20 0 -32 12.5t-12 34.5q0 29 17.5 49.5t42.5 20.5zM162 458q19 0 32 -14t13 -34q0 -29 -18 -49t-43 -20q-20 0 -32 12.5t-12 34.5q0 29 17.5 49.5t42.5 20.5z" />
<glyph unicode=";" horiz-adv-x="250" d="M-2 -146l-7 10q57 72 87 195l8 32l91 29l9 -13q-47 -109 -153 -240zM174 456q19 0 32 -14t13 -34q0 -29 -18 -49t-43 -20q-20 0 -32 12.5t-12 34.5q0 29 17.5 49.5t42.5 20.5z" />
<glyph unicode="&#x3c;" horiz-adv-x="606" d="M554 -2l-501 234v58l501 234v-64l-429 -201l429 -197v-64z" />
<glyph unicode="=" horiz-adv-x="606" d="M555 378v-56h-504v56h504zM555 182v-56h-504v56h504z" />
<glyph unicode="&#x3e;" horiz-adv-x="606" d="M53 -2v64l429 197l-429 201v64l501 -234v-58z" />
<glyph unicode="?" horiz-adv-x="500" d="M137 565l-22 6q3 10 10 26l5 11l25 61q60 37 115 37q70 0 113.5 -37t43.5 -97q0 -74 -74 -145l-104 -100q-50 -47 -50 -77q0 -23 27 -51l-25 -6q-38 24 -38 63q0 49 55 111l70 79q57 64 57 116q0 37 -28 61t-71 24q-31 0 -50 -11.5t-39 -40.5zM174 109q19 0 32 -14 t13 -34q0 -28 -18 -48.5t-43 -20.5q-20 0 -32 12.5t-12 34.5q0 29 17.5 49.5t42.5 20.5z" />
<glyph unicode="@" horiz-adv-x="747" d="M666 176h47q-38 -66 -77 -101q-104 -93 -242 -93q-155 0 -261 103t-106 253q0 155 105 261.5t257 106.5q139 0 234 -84.5t95 -208.5q0 -114 -73 -192q-34 -37 -79 -60t-80 -23q-31 0 -50 23t-22 65q-37 -49 -61.5 -65.5t-60.5 -16.5q-56 0 -94 43t-38 105q0 86 66.5 156 t147.5 70q38 0 59 -20t30 -65l20 76h75l-79 -291q-2 -8 -2 -16q0 -16 9 -26.5t22 -10.5q37 0 89 52q80 83 80 193q0 105 -83 178t-203 73q-136 0 -227.5 -91.5t-91.5 -225.5q0 -136 93.5 -226.5t233.5 -90.5q107 0 190 65q38 29 77 84zM389 494q-41 0 -74 -35 q-35 -37 -57 -92.5t-22 -106.5q0 -39 19.5 -65.5t47.5 -26.5q55 0 95 73q20 35 34 86.5t14 89.5q0 33 -16 55t-41 22z" />
<glyph unicode="A" horiz-adv-x="722" d="M462 705h46l87 -625q6 -33 13 -40t43 -12l26 -3v-28q-102 3 -122 3t-122 -3v28l44 3q43 3 43 27q0 6 -2 22q0 2 -0.5 4t-1.5 3v2v3l-25 188h-246l-102 -175q-26 -45 -26 -55q0 -7 9.5 -12.5t21.5 -6.5l52 -3v-28q-86 3 -107 3q-20 0 -112 -3v30l20 5q26 6 43.5 22 t44.5 58zM449 601l-179 -288h216z" />
<glyph unicode="B" horiz-adv-x="611" d="M97 664l3 28l52 -1q98 -2 99 -2q48 0 60 1l63 1q15 1 27 1q75 0 116.5 -34t41.5 -96q0 -78 -69 -137q-23 -20 -46 -32t-67 -28q92 -13 125 -40q41 -33 41 -98q0 -118 -123 -191q-70 -42 -143 -42q-2 0 -40 2l-20 1l-37 1q-52 2 -63 2q-27 0 -54 -2l-37 -1l5 26 q31 5 43 11.5t15 20.5l87 504q9 54 9 76q0 26 -35 27zM217 340l-51 -299q26 -2 34 -3q44 -4 82 -4q75 0 124 50t49 127q0 129 -153 129h-85zM272 650l-49 -274h52q93 0 145.5 44.5t52.5 123.5q0 111 -121 111q-14 0 -46 -3q-10 0 -19 -1t-15 -1z" />
<glyph unicode="C" horiz-adv-x="667" d="M597 519v84q-78 50 -179 50q-120 0 -190 -72q-95 -97 -95 -272q0 -133 62.5 -203.5t180.5 -70.5q58 0 105.5 16t118.5 59l10 -7l-10 -36q-67 -46 -126 -65.5t-131 -19.5q-143 0 -220.5 78.5t-77.5 223.5q0 230 177 350q107 72 234 72q88 0 195 -41q-20 -66 -27 -146h-27z " />
<glyph unicode="D" horiz-adv-x="778" d="M33 23l8 2q41 8 45 30l87 504q9 54 9 76q0 26 -35 27l-53 2l3 28q101 -3 113 -3h10l204 3h7q149 0 219 -50q91 -64 91 -211q0 -124 -67.5 -230.5t-184.5 -166.5q-74 -37 -173 -37q-26 0 -46 1q-86 2 -94 2h-32h-23l-93 -3zM268 650l-96 -557q-4 -24 -4 -37 q102 -15 161 -15q133 0 214 83q106 108 106 291q0 123 -64.5 181.5t-200.5 58.5q-22 0 -69 -3q-12 0 -25.5 -1t-21.5 -1z" />
<glyph unicode="E" horiz-adv-x="611" d="M221 334l-43 -253q-2 -18 -2 -31v-4q80 -7 132 -7q102 0 147 9q16 4 24.5 15t16.5 38l16 60h27l-5 -26q-13 -73 -16 -99l-4 -36l-33 -1q-66 -2 -72 -2h-10l-215 3q-51 0 -113 -2l-41 -1l5 26q33 5 45 11.5t15 20.5l87 504q9 54 9 76q0 26 -35 27l-54 2l3 28l45 -1 q51 -2 115 -2q69 0 78 1l120 1q24 1 38 1q37 0 69 -3q-17 -57 -21 -152h-24l-8 89q-2 24 -104 24q-22 0 -86 -2l-47 -2q-5 -10 -9 -32l-42 -238h37q98 0 219 6l4 -7l-19 -45l-26 1q-72 3 -106 3h-117z" />
<glyph unicode="F" d="M286 646h-17q-5 -11 -9 -32l-46 -271h37q97 0 219 6l4 -7l-19 -45l-26 1q-72 3 -106 3h-117l-36 -223q-2 -8 -2 -21q0 -15 8 -21.5t28 -7.5l64 -3l-3 -28l-52 1q-78 2 -86 2q-13 0 -93 -2l-34 -1l4 28l36 3q31 3 38 15.5t20 81.5l75 434q9 54 9 76q0 26 -35 27l-56 2 l3 28l49 -1q76 -2 103 -2h29l165 2l41 1q34 0 67 -3q-16 -57 -21 -152h-24l-8 89q-2 24 -103 24z" />
<glyph unicode="G" horiz-adv-x="722" d="M528 60l18 93q7 34 7 59q0 18 -14 23.5t-70 8.5l-34 2l5 28q52 -5 129 -5q76 0 125 5l-2 -28l-32 -6q-23 -4 -27 -21l-23 -135q-1 -4 -1 -11q0 -8 3 -29l-4 -7q-23 -4 -56 -15l-30 -10q-87 -30 -167 -30q-147 0 -226 76t-79 216q0 229 179 358q104 74 237 74 q96 0 209 -41q-20 -66 -27 -146h-27v84q-78 50 -187 50q-124 0 -197 -74q-99 -99 -99 -282q0 -133 64 -201.5t188 -68.5q76 0 138 33z" />
<glyph unicode="H" horiz-adv-x="778" d="M221 385h370l30 174q9 54 9 76q0 26 -35 27l-48 2l3 28l63 -2q44 -1 80 -1l91 3h16l-3 -28l-36 -3q-29 -3 -37.5 -11t-13.5 -37l-92 -520q-4 -23 -4 -35q0 -29 36 -30l58 -3l-3 -28l-42 1q-86 2 -90 2q-5 0 -16 -0.5t-31.5 -1t-37.5 -0.5l-56 -1l4 28l50 3q31 3 37 14 q7 9 21 83l40 215l-61 1q-24 0 -53.5 0.5t-45.5 1t-24 0.5t-24 -0.5t-46 -1t-53 -0.5l-61 -1l-42 -247q-4 -25 -4 -35q0 -16 8 -22t28 -8l49 -3l-3 -28h-26l-97 3q-8 0 -19.5 -0.5t-31.5 -1t-39 -0.5l-42 -1l4 28l41 3q30 3 37.5 15.5t20.5 81.5l74 434q9 56 9 76 q0 26 -35 27l-47 2l3 28l64 -2q43 -1 77 -1l90 3h24l-3 -28l-42 -3q-28 -2 -37 -10.5t-14 -37.5z" />
<glyph unicode="I" horiz-adv-x="333" d="M103 664l3 28l64 -2q43 -1 78 -1l97 3h9l-3 -28l-35 -3q-29 -3 -37.5 -11t-13.5 -37l-89 -535q-2 -8 -2 -21q0 -15 8 -21t28 -8l52 -3l-3 -28h-32l-94 3l-94 -3h-32l3 28l36 3q30 2 38.5 16t19.5 81l72 434q9 51 9 77q0 25 -35 26z" />
<glyph unicode="J" horiz-adv-x="333" d="M355 664l-42 -3q-28 -2 -37 -10.5t-14 -37.5l-85 -559q-11 -78 -34 -132q-25 -61 -62 -94.5t-78 -33.5q-19 0 -35 10l-3 26q11 -4 29 -4q70 0 92 153l95 643q1 5 1 13q0 26 -35 27l-47 2l3 28l64 -2q43 -1 77 -1l90 3h24z" />
<glyph unicode="K" horiz-adv-x="667" d="M371 664l-42 -3q-28 -2 -37 -10.5t-14 -37.5l-45 -260q89 69 149 131l128 130q38 38 38 49v29l20 -1q42 -2 47 -2q3 0 45 2l23 1v-27h-21q-27 0 -54 -25l-292 -273l246 -302q31 -38 64 -38h20v-30q-9 0 -28 1t-40 2l-69 -3q-80 109 -123.5 162.5t-154.5 180.5l-43 -262 q-2 -8 -2 -21q0 -15 8 -21t28 -8l49 -3l-3 -28h-26l-97 3q-8 0 -19.5 -0.5t-31.5 -1t-39 -0.5l-42 -1l4 28l41 3q30 3 37.5 15.5t20.5 81.5l73 434q9 49 9 76q0 26 -35 27l-47 2l3 28l64 -2q43 -1 77 -1l90 3h24z" />
<glyph unicode="L" d="M349 664l-42 -3q-28 -2 -37 -10.5t-14 -37.5l-92 -532q-2 -18 -2 -31v-4q77 -7 142 -7q118 0 144 10q14 8 27 54l17 62h31q-23 -113 -23 -162v-3l-33 -1q-66 -2 -72 -2h-10l-215 3q-51 0 -113 -2l-41 -1l5 26q33 5 45 11.5t15 20.5l86 504q9 56 9 76q0 26 -35 27l-47 2 l3 28l64 -2q43 -1 77 -1l90 3h24z" />
<glyph unicode="M" horiz-adv-x="944" d="M937 664l-38 -2q-43 -3 -46 -31l-41 -531l-1 -37q0 -31 54 -35l37 -3l-3 -28l-46 1q-82 2 -87 2q-3 0 -87 -2l-47 -1l3 28l31 3q38 3 51 10.5t16 28.5l37 520l-52 -87l-239 -414l-57 -104h-23l-149 578l-124 -464q-7 -25 -7 -41q0 -24 49 -27l38 -3l-3 -28l-35 1 q-70 2 -75 2t-73 -2l-39 -1l3 26q41 4 57.5 17.5t28.5 52.5l145 509q3 10 3 20q0 19 -15.5 28t-54.5 12l-26 2l3 28l59 -3h24q28 0 56 2l28 1l150 -578l246 422l69 125l16 31l59 -3h24q28 0 56 2l28 1z" />
<glyph unicode="N" horiz-adv-x="778" d="M237 692l345 -589l80 489q5 32 5 46q0 23 -36 24l-47 2l5 28h19l86 -3l89 3h21l-5 -28l-37 -2q-28 -2 -36 -18.5t-24 -101.5l-94 -553h-50l-338 577l-80 -464q-3 -16 -3 -30q0 -25 9.5 -33.5t39.5 -10.5l42 -3l-5 -28q-97 3 -110 3l-111 -3l5 28l31 3q27 3 36 15.5 t18 58.5l88 474q1 4 3 18q1 2 1 5q1 3 1 7q0 15 -30 39q-19 15 -50 17l-35 2l5 28l16 -1q10 0 20 -0.5t15 -1t6 -0.5h14h10z" />
<glyph unicode="O" horiz-adv-x="778" d="M464 706q135 0 209.5 -73.5t74.5 -207.5q0 -119 -55 -222t-149 -161q-95 -60 -221 -60q-132 0 -201 74t-69 216q0 188 116.5 311t294.5 123zM433 664q-113 0 -183 -71q-52 -52 -80.5 -135t-28.5 -181q0 -125 55.5 -189t163.5 -64q118 0 192 76q51 53 79.5 134t28.5 175 q0 166 -97 223q-53 32 -130 32z" />
<glyph unicode="P" horiz-adv-x="611" d="M105 664l3 28l53 -1l113 -2l138 3h9q85 0 129 -38.5t44 -112.5q0 -102 -71 -177.5t-168 -75.5q-39 0 -86 23l-2 31q50 -19 79 -19q66 0 113 57.5t47 138.5q0 137 -151 137q-23 0 -71 -8l-4 -16q-3 -10 -3 -12q-9 -34 -9 -40l-82 -487q-4 -25 -4 -35q0 -29 36 -30l65 -3 l-3 -28l-53 1q-80 2 -86 2q-8 0 -90 -2l-42 -1l4 28l41 3q30 2 37.5 15t20.5 82l74 434q9 56 9 76q0 26 -35 27z" />
<glyph unicode="Q" horiz-adv-x="778" d="M151 -172l-24 13q-1 8 -1 17q0 57 34.5 92t90.5 35q31 0 66 -14l236 -96q39 -15 62 -15q59 0 68 79h25q-8 -73 -36.5 -106.5t-84.5 -33.5q-30 0 -51.5 7t-66.5 30l-145 76q-54 29 -96 29q-77 0 -77 -113zM464 706q135 0 209.5 -73.5t74.5 -207.5q0 -119 -55 -222 t-149 -161q-95 -60 -221 -60q-132 0 -201 74t-69 216q0 188 116.5 311t294.5 123zM433 664q-113 0 -183 -71q-52 -52 -80.5 -135t-28.5 -181q0 -125 55.5 -189t163.5 -64q118 0 192 76q51 53 79.5 134t28.5 175q0 166 -97 223q-53 32 -130 32z" />
<glyph unicode="R" horiz-adv-x="667" d="M105 664l3 28q118 -3 151 -3l150 3h7q80 0 124 -34.5t44 -97.5q0 -94 -89 -158q-48 -35 -120 -48l184 -275q22 -32 36 -41.5t44 -13.5v-27h-13q-28 3 -34 3h-11h-8l-66 -3q-87 148 -240 370l3 11h44q78 0 130 47t52 118q0 113 -133 113q-37 0 -76 -8l-7 -28 q-2 -7 -4 -17.5t-3.5 -16t-1.5 -6.5l-85 -487q-4 -23 -4 -35q0 -15 8 -22t28 -8l49 -3l-3 -28h-26l-97 3q-43 0 -90 -2l-42 -1l4 28l41 3q30 3 38 16t20 81l75 434q9 54 9 76q0 26 -35 27z" />
<glyph unicode="S" d="M451 537v76q-42 45 -112 45q-69 0 -114 -42.5t-45 -107.5q0 -97 96 -117l65 -14q76 -17 110 -50.5t34 -92.5q0 -101 -86 -176.5t-202 -75.5q-81 0 -155 38q15 72 24 152h30v-99q61 -43 136 -43q77 0 125.5 45t48.5 116q0 85 -81 105l-95 23q-63 15 -92.5 51.5 t-29.5 100.5q0 89 64 150q39 40 93 62.5t109 22.5q68 0 132 -34q-19 -60 -25 -135h-30z" />
<glyph unicode="T" horiz-adv-x="611" d="M390 646l-94 -553q-4 -25 -4 -35q0 -29 36 -30l59 -3l-3 -28l-44 1q-78 2 -89 2q-5 0 -85 -2l-57 -1l4 28l51 3q30 2 38 15.5t20 81.5l86 521h-112q-70 0 -81 -13q-11 -12 -18 -45l-15 -60h-29l18 164l95 -1q172 -2 187 -2t191 2l91 1l-27 -164h-28l4 64v6q0 17 -4 31 q-4 17 -117 17h-73z" />
<glyph unicode="U" horiz-adv-x="778" d="M795 664l-36 -3q-29 -3 -38 -11.5t-13 -36.5l-85 -507q-6 -43 -6 -56q0 -18 32 -21l60 -4l-5 -28l-32 1q-13 0 -27.5 0.5t-21.5 1t-9 0.5l-62 -3h-22l-5 5q19 79 27 127q-39 -45 -68.5 -68.5t-74.5 -45.5q-68 -34 -133 -34q-84 0 -131.5 43.5t-47.5 119.5q0 30 6 62 l64 375q7 37 7 58q0 13 -7 17.5t-27 5.5l-52 2l3 28l32 -1q56 -2 58 -2q4 0 58 2l31 1l-88 -477q-7 -39 -7 -61q0 -53 37.5 -84t101.5 -31q58 0 113 29q38 19 65.5 42t63.5 67l71 445q1 4 1 12q0 27 -35 28l-48 2l3 28l63 -2q44 -1 80 -1l91 3h16z" />
<glyph unicode="V" horiz-adv-x="722" d="M310 96l291 492q16 27 16 42q0 28 -57 32l-26 2v28l46 -1q16 0 35 -0.5t29 -1t14 -0.5q12 0 66 2l30 1v-28l-18 -2q-22 -3 -32.5 -12t-29.5 -39l-378 -619h-49l-88 622q-5 28 -15.5 37t-43.5 11l-25 2v28l41 -1q74 -2 83 -2t83 2l41 1v-28l-42 -2q-43 -2 -43 -28v-3l1 -7 z" />
<glyph unicode="W" horiz-adv-x="944" d="M303 692v-28l-37 -2q-45 -3 -45 -46l31 -484l224 456q20 40 52 112h18l158 -572l147 462q9 27 9 49t-41 23l-39 2l5 28l33 -1q60 -2 65 -2q7 0 65 2l32 1v-28l-20 -2q-33 -3 -43 -31l-171 -507q-18 -54 -31 -106l-7 -26h-51q-22 103 -39 162l-112 392l-224 -444 q-30 -60 -50 -110h-50q-2 81 -8 166l-32 430q-3 43 -12.5 56t-40.5 18l-18 2v28l39 -1q15 0 31.5 -0.5t26 -1t14.5 -0.5q44 0 82 2z" />
<glyph unicode="X" horiz-adv-x="722" d="M416 25l38 3l16 1q32 0 32 11q0 12 -14 40l-119 226l-182 -231q-10 -13 -10 -25q0 -16 55 -22l32 -3v-28q-64 3 -119 3q-51 0 -125 -3v28l28 3q39 5 62 33l238 282l-146 270q-15 28 -29.5 36.5t-51.5 12.5l-26 2v28l45 -1q82 -2 88 -2q5 0 87 2l46 1v-28l-37 -2 q-43 -3 -43 -20q0 -10 14 -38l104 -199l161 196q23 28 23 42q0 16 -45 19l-33 2v28q89 -3 115 -3l114 3v-28l-28 -2q-19 -2 -30.5 -9.5t-34.5 -32.5l-221 -252l171 -307q11 -18 24 -25t44 -9l25 -2v-28q-72 3 -133 3q-63 0 -135 -3v28z" />
<glyph unicode="Y" horiz-adv-x="667" d="M52 647l15 11q25 16 51 37q6 4 9 7l4 3q69 -1 114 -83.5t101 -311.5q39 104 128 226q56 75 101 111t100 50l-6 -71q-44 -8 -80 -33.5t-79 -80.5q-55 -69 -98 -146.5t-50 -119.5l-26 -168q-2 -10 -2 -21q0 -15 8 -21t28 -8l49 -3l-3 -28h-26l-97 3q-7 0 -17.5 -0.5t-30 -1 t-38.5 -0.5l-53 -1l4 28l48 3q30 2 37.5 15t20.5 82l21 126l1 6v1q0 14 -22 92t-40 127q-31 84 -60 121t-64 37q-14 0 -45 -12z" />
<glyph unicode="Z" horiz-adv-x="667" d="M20 -3v22l502 633h-180q-107 0 -180 -13l-6 -20q-17 -54 -21 -86h-26q11 100 11 159l118 -1l211 -2h26l162 3v-20l-504 -633h281q62 0 127 13l8 22l24 68l7 22h26q-20 -106 -23 -167l-66 1q-122 2 -256 2q-97 0 -241 -3z" />
<glyph unicode="[" horiz-adv-x="333" d="M326 733v-28l-88 -7q-10 -1 -13.5 -6.5t-7.5 -24.5l-16 -85q-13 -58 -41 -253l-51 -343q-3 -22 -3 -30q0 -18 28 -21l79 -7l-5 -28l-42 2q-20 1 -52 1l-61 -1l-33 -2l-2 5l51 285q56 316 77 539l8 4h17q11 0 24 -1q7 -1 45 -1q39 0 45 1q14 1 24 1h17z" />
<glyph unicode="\" horiz-adv-x="606" d="M453 0l-372 733h60l372 -733h-60z" />
<glyph unicode="]" horiz-adv-x="333" d="M7 -100v28l88 7q10 1 13.5 6.5t7.5 24.5l16 85q20 105 66 422q11 79 12 84q12 76 13 85q0 2 1 5q3 17 3 30q0 18 -28 21l-79 7l5 28l42 -2q20 -1 52 -1l61 1l33 2l2 -5l-51 -285q-20 -109 -45 -287t-32 -252l-8 -4h-17q-11 0 -24 1l-45 1l-46 -1q-13 -1 -23 -1h-17z" />
<glyph unicode="^" horiz-adv-x="606" d="M112 283h-61l219 406h66l218 -406h-61l-190 344z" />
<glyph unicode="_" horiz-adv-x="500" d="M500 -125h-500v50h500v-50z" />
<glyph unicode="`" horiz-adv-x="333" d="M276 518l-162 101q-28 17 -28 37q0 13 11.5 22t26.5 9q13 0 33 -18l153 -151h-34z" />
<glyph unicode="a" horiz-adv-x="444" d="M402 472l-92 -379q-1 -3 -1 -11q0 -23 15 -23q19 0 62 36q1 1 13 11l7 -21q-113 -94 -146 -94q-24 0 -24 35q0 26 6 51l29 127q-73 -103 -135 -159q-63 -56 -98 -56q-14 0 -24 22.5t-10 55.5q0 59 21 140t54 147q19 37 46 62t74 48q37 18 75 18q33 0 85 -19l33 18z M319 414q-56 19 -85 19q-36 0 -56.5 -16t-38.5 -57q-26 -60 -44.5 -136.5t-18.5 -124.5q0 -40 18 -40q24 0 65.5 39.5t84.5 102.5q26 39 42.5 85.5t32.5 127.5z" />
<glyph unicode="b" horiz-adv-x="463" d="M235 722l-86 -398q46 59 76.5 87.5t69.5 48.5q44 22 82 22q24 0 35 -14q21 -26 21 -92q0 -99 -45 -192.5t-117 -144.5q-69 -50 -131 -50q-41 0 -72 21.5t-31 50.5q0 7 1 10l101 551q2 12 2 24q0 24 -34 24h-48l4 21q94 9 160 42zM322 424q-22 0 -55.5 -18.5t-58.5 -44.5 q-57 -60 -83 -170q-13 -53 -13 -90q0 -65 71 -65q79 0 127 101q51 111 51 215q0 72 -39 72z" />
<glyph unicode="c" horiz-adv-x="407" d="M342 330v60q0 18 -23.5 30.5t-57.5 12.5q-45 0 -76 -24q-37 -29 -60.5 -99t-23.5 -151q0 -119 85 -119q48 0 145 65l15 10l8 -20l-50 -41q-79 -65 -157 -65q-122 0 -122 147q0 79 26 150.5t67 108.5q42 38 91.5 62.5t83.5 24.5q58 0 96 -24q-13 -37 -24 -128h-23z" />
<glyph unicode="d" horiz-adv-x="500" d="M483 722l-126 -594q-8 -33 -8 -46q0 -23 14 -23q15 0 39 17l44 31l10 -19l-81 -60q-50 -37 -75 -37q-26 0 -26 33q0 38 16 102l23 91q-50 -75 -81.5 -113t-72.5 -71q-55 -44 -98 -44q-44 0 -44 97q0 63 14 128.5t37 108.5q35 65 96 112t113 47q35 0 82 -14l28 154 q2 14 2 24q0 24 -34 24h-48l4 21q94 9 160 42zM337 351l12 59q-45 23 -106 23q-39 0 -59 -15q-37 -28 -66 -126.5t-29 -193.5q0 -39 25 -39q14 0 41 16t53 41q100 96 129 235z" />
<glyph unicode="e" horiz-adv-x="389" d="M328 111l8 -19q-69 -56 -115.5 -79.5t-89.5 -23.5q-54 0 -85 33t-31 91q0 50 19 124.5t41 111.5q29 48 97.5 90.5t117.5 42.5q38 0 61 -21.5t23 -56.5q0 -91 -124 -145q-43 -19 -69 -25l-82 -20q-8 -46 -8 -81q0 -45 20.5 -71t55.5 -26q56 0 137 58zM113 274l-9 -37 q70 16 109 35t63 51t24 65q0 24 -13 38t-35 14q-42 0 -73 -28q-41 -37 -66 -138z" />
<glyph unicode="f" horiz-adv-x="278" d="M286 383h-104q-16 -76 -19 -88q-55 -264 -82.5 -351.5t-73.5 -141.5q-29 -35 -66 -56.5t-68 -21.5q-21 0 -35 8q13 24 23 80l14 4q24 -29 52 -29q57 0 84 90q38 120 89 450l9 56h-81l5 22q39 14 86 37l15 79q15 79 45 109q17 18 64 53t65 43q14 7 35 7q40 0 70 -13 l-5 -15q-9 -24 -23 -67l-10 -4q-24 39 -72 39q-67 0 -90 -124l-21 -112h16q56 0 84 7l7 2l4 -7q-10 -24 -17 -56z" />
<glyph unicode="g" horiz-adv-x="500" d="M405 380l1 -5q3 -23 3 -33q0 -67 -48 -122.5t-121 -73.5l-6 -8q-21 -27 -21 -38q0 -28 47 -65l60 -49q64 -52 64 -107q0 -62 -72.5 -108.5t-169.5 -46.5q-82 0 -130.5 32t-48.5 85q0 63 53 107q46 39 144 71q-21 18 -21 33q0 22 27 47l41 38q-11 -1 -30 -1 q-58 0 -90 32.5t-32 90.5q0 107 85 171q69 52 135 52q33 0 67 -13q31 -12 51 -45q66 0 102 9l3 -6l-9 -45q-31 -4 -50 -4q-17 0 -34 2zM253 -58l-77 59q-66 -19 -99 -46q-50 -42 -50 -100q0 -46 38.5 -74.5t100.5 -28.5t107 27.5t45 66.5q0 45 -65 96zM250 448 q-55 0 -89.5 -44.5t-34.5 -115.5q0 -120 93 -120q53 0 85.5 48t32.5 125q0 107 -87 107z" />
<glyph unicode="h" horiz-adv-x="500" d="M236 722l-98 -457l20 25q55 70 98 106q102 86 158 86q29 0 29 -36q0 -26 -11 -74l-64 -256q-7 -26 -7 -40q0 -20 13 -20q15 0 61 30l26 17l10 -18q-73 -55 -106.5 -74.5t-53.5 -19.5q-30 0 -30 39q0 25 13 77l51 196q15 62 15 89q0 22 -22 22q-32 0 -94.5 -58.5 t-95.5 -119.5q-40 -74 -62 -229l-69 -16l-7 11q37 111 88 386l42 234q2 14 2 24q0 24 -34 24h-48l4 21q94 9 160 42z" />
<glyph unicode="i" horiz-adv-x="278" d="M34 388l28 20q105 74 134 74q25 0 25 -26q0 -10 -6 -36l-77 -304q-7 -29 -7 -40q0 -8 4 -14t9 -6q15 0 61 30l26 17l10 -18q-73 -55 -106.5 -74.5t-53.5 -19.5q-30 0 -30 39q0 27 13 77l66 240q8 28 8 44q0 10 -5 16.5t-13 6.5q-7 0 -47 -25l-32 -21zM228 712 q16 0 26 -11.5t10 -29.5q0 -28 -16 -47.5t-39 -19.5q-18 0 -28.5 11t-10.5 30q0 25 18 46t40 21z" />
<glyph unicode="j" horiz-adv-x="278" d="M-70 -269l8 57q31 -19 53 -19q29 0 47 87l100 495l2 12q5 18 5 28t-5 16.5t-13 6.5q-7 0 -47 -25l-32 -21l-7 20l28 20q105 74 134 74q25 0 25 -25q0 -10 -6 -37l-76 -350q-36 -164 -62 -222q-55 -124 -116 -124q-24 0 -38 7zM229 712q16 0 26 -11.5t10 -29.5 q0 -28 -16 -47.5t-39 -19.5q-18 0 -28.5 11t-10.5 30q0 25 18 46t40 21z" />
<glyph unicode="k" horiz-adv-x="444" d="M234 722l-107 -492q94 132 159.5 192t114.5 60q21 0 48 -9l-17 -63q-26 6 -36 6q-71 0 -157 -86l-14 -14q49 -156 96 -241q12 -23 26 -23q11 0 29 10l43 24l8 -19l-46 -32q-62 -44 -81 -44t-46.5 59t-79.5 209q-53 -53 -67 -127l-23 -124l-67 -17l-9 10q64 259 82 353 l48 268q2 14 2 24q0 24 -34 24h-48l4 21q94 9 160 42z" />
<glyph unicode="l" horiz-adv-x="278" d="M251 722l-129 -609l-2 -9q-4 -20 -4 -28t4 -14t9 -6q15 0 61 30l26 17l10 -18q-73 -55 -106.5 -74.5t-53.5 -19.5q-30 0 -30 40q0 28 19 101l14 52q11 37 44 205.5t38 210.5l3 22q3 18 3 26q0 22 -34 22h-48l4 21q94 9 160 42z" />
<glyph unicode="m" horiz-adv-x="778" d="M730 103l10 -18q-73 -55 -106.5 -74.5t-53.5 -19.5q-30 0 -30 40q0 36 13 76q23 78 43 157q25 99 25 125q0 25 -13 25q-50 0 -137 -96q-69 -76 -94 -205l-21 -107l-69 -15l-5 11l16 67q63 269 63 324q0 21 -11 21q-46 0 -115 -76q-41 -45 -64.5 -96t-41.5 -134l-22 -102 l-68 -15l-3 11q31 107 56.5 228t25.5 159q0 25 -18 25q-7 0 -47 -25l-32 -21l-7 20l28 20q103 74 133 74q23 0 23 -31q0 -19 -6 -43l-33 -133q48 65 71.5 91t57.5 52q84 64 131 64q26 0 26 -31q0 -7 -7 -42l-30 -137q37 51 68 83t79 66q87 61 128 61q26 0 26 -28 q0 -11 -7 -41l-75 -297q-7 -29 -7 -40q0 -20 13 -20q15 0 61 30z" />
<glyph unicode="n" d="M24 388l28 20q104 74 133 74q23 0 23 -33q0 -14 -6 -41l-38 -161q69 97 118 142q44 41 91.5 67t78.5 26t31 -36q0 -28 -11 -74l-66 -276q-2 -8 -2 -20q0 -20 13 -20q15 0 61 30l26 17l10 -18q-73 -55 -106.5 -74.5t-53.5 -19.5q-30 0 -30 40q0 23 13 76l52 212 q11 44 11 71q0 24 -17 24q-34 0 -84 -41.5t-90 -104.5q-34 -51 -53 -108t-33 -152q-26 -5 -70 -17l-7 11q31 107 56.5 228t25.5 159q0 25 -18 25q-7 0 -47 -25l-32 -21z" />
<glyph unicode="o" horiz-adv-x="444" d="M278 482q62 0 97.5 -40t35.5 -111q0 -76 -30 -153t-76 -121q-73 -68 -160 -68q-62 0 -95 42t-33 121q0 92 32.5 165t93.5 116q69 49 135 49zM241 444q-40 0 -60 -17q-37 -30 -62.5 -110.5t-25.5 -165.5q0 -59 24 -91.5t68 -32.5q47 0 75 33q33 40 54 111.5t21 143.5 q0 129 -94 129z" />
<glyph unicode="p" horiz-adv-x="500" d="M115 3l-42 -262q-41 -6 -73 -17l-7 6l8 37q35 159 49 241l58 343q4 20 4 38q0 23 -17 23q-12 0 -48 -23l-32 -21l-7 20l28 20q103 74 133 74q22 0 22 -30q0 -16 -5 -44l-24 -119q47 78 97 120q81 73 147 73q27 0 43 -30.5t16 -80.5q0 -56 -22 -128t-53 -118 q-32 -47 -102 -91.5t-112 -44.5q-16 0 -52 11zM143 165l-18 -106q37 -23 82 -23q63 0 93 44q40 57 66.5 136t26.5 140q0 68 -38 68q-62 0 -128.5 -81.5t-83.5 -177.5z" />
<glyph unicode="q" horiz-adv-x="463" d="M385 458l33 22l14 -6q-13 -40 -27 -118l-86 -456q-12 -68 -19 -159q-39 -5 -86 -17l-9 14q20 21 27 57l76 414q-28 -50 -73 -100t-94 -84l-8 -6q-44 -30 -73 -30q-36 0 -36 89q0 77 24.5 169t54.5 127q39 45 102 83q41 25 79 25q40 0 101 -24zM330 311l21 95 q-62 27 -97 27q-54 0 -73 -24q-31 -37 -58 -130.5t-27 -165.5q0 -54 22 -54t62.5 31.5t79.5 79.5q54 67 70 141z" />
<glyph unicode="r" horiz-adv-x="389" d="M368 365h-14q-15 19 -36 19q-33 0 -83 -65q-60 -78 -85 -193l-26 -120l-13 -2q-43 -9 -54 -13l-10 7q30 95 56.5 221.5t26.5 170.5q0 22 -17 22q-12 0 -48 -23l-32 -21l-7 20l28 20q103 74 133 74q23 0 23 -32q0 -16 -6 -42l-6 -26q-9 -33 -18 -85l-8 -41q21 46 67 112 l27 39q53 75 98 75q7 0 20 -6q-12 -62 -16 -111z" />
<glyph unicode="s" horiz-adv-x="389" d="M31 148h25v-84q41 -35 94 -35t85 30t32 79q0 29 -13.5 44t-46.5 21l-63 12q-97 19 -97 101q0 50 37 88q78 78 161 78q45 0 100 -27q-13 -60 -19 -113h-23v55q-12 20 -38 32.5t-57 12.5q-43 0 -72.5 -27t-29.5 -67q0 -31 17 -46t62 -23l43 -8q56 -11 81 -34t25 -63 q0 -71 -72 -127q-74 -58 -146 -58q-50 0 -107 27q15 64 22 132z" />
<glyph unicode="t" horiz-adv-x="333" d="M125 390h-84l2 13q25 7 88 37l25 170q51 20 78 36l11 -15q-23 -70 -45 -197q53 0 110 6l-11 -50h-107l-13 -62q-43 -215 -43 -252q0 -20 14 -20q16 0 60 30l45 31l10 -18l-16 -13l-15 -12q-59 -47 -90.5 -65t-57.5 -18q-30 0 -30 40q0 18 8 55q5 19 5 21z" />
<glyph unicode="u" d="M333 97l37 142q-63 -103 -142 -176.5t-126 -73.5q-15 0 -25 12t-10 29q0 29 4 47l63 297q2 8 2 18q0 8 -5 14t-12 6q-12 0 -48 -23l-32 -21l-7 20l28 20q103 74 132 74q23 0 23 -31q0 -16 -5 -43l-57 -271q-7 -35 -7 -52q0 -26 13 -26q30 0 81.5 47t95.5 115 q48 73 71 193l10 51l68 17l7 -9q-45 -174 -84 -357l-1 -6q-5 -25 -5 -34q0 -17 13 -17q21 0 61 27l26 17l10 -18q-73 -55 -106.5 -74.5t-53.5 -19.5q-30 0 -30 40q0 28 11 66z" />
<glyph unicode="v" horiz-adv-x="500" d="M332 423l50 47q12 12 33 12q27 0 44.5 -27.5t17.5 -70.5q0 -68 -39 -157q-49 -108 -126 -179q-66 -59 -126 -59q-48 0 -79 37t-31 95q0 75 35 144t118 159q-35 -4 -63 -4q-20 0 -28 1q-13 1 -27 1q-39 0 -51 -28l-17 -42h-22q19 82 38 118q15 7 32 7q6 0 12 -1l12 -1 q48 -5 99 -5q34 0 61 12l10 -18q-73 -91 -105 -165t-32 -153q0 -49 21.5 -78t58.5 -29q66 0 125.5 100t59.5 211q0 63 -43 63q-14 0 -27 -9z" />
<glyph unicode="w" horiz-adv-x="722" d="M554 423l50 47q12 12 33 12q27 0 44.5 -27.5t17.5 -70.5q0 -68 -39 -157q-47 -103 -117 -170.5t-131 -67.5q-34 0 -54 29t-20 77q0 33 12 92q-56 -108 -99 -153t-91 -45q-40 0 -64 37.5t-24 99.5q0 64 28.5 123.5t95.5 138.5q19 21 27 32l3 4q-33 -4 -59 -4q-21 0 -29 1 q-13 1 -27 1q-39 0 -51 -28l-17 -42h-22q19 82 38 118q15 7 32 7q6 0 12 -1l12 -1q48 -5 99 -5q34 0 61 12l10 -18q-74 -84 -107 -161.5t-33 -166.5q0 -44 16 -70.5t42 -26.5q46 0 108 116q39 72 55 156l29 149l74 22l7 -8l-52 -184q-21 -75 -21 -156q0 -41 14 -68t36 -27 q41 0 84 47t70.5 120t27.5 144q0 63 -43 63q-14 0 -27 -9z" />
<glyph unicode="x" horiz-adv-x="500" d="M21 88l20 3l11 -28q4 -9 28 -9q41 0 105 99l40 62l-11 62q-24 139 -72 139q-27 0 -69 -48l-17 10l58 83q15 21 57 21q44 0 66.5 -30.5t31.5 -104.5l6 -48l37 55q46 69 79 98.5t63 29.5q13 0 30 -10l-15 -85l-14 -4q-8 23 -33 23q-23 0 -46.5 -19.5t-58.5 -68.5l-35 -49 l18 -101q9 -51 25 -85q15 -30 38 -30t77 45l9 -19l-49 -44q-51 -46 -86 -46q-53 0 -72 124l-11 69l-76 -117q-50 -76 -103 -76q-20 0 -43 12q1 3 2 9l2 13q8 43 8 65z" />
<glyph unicode="y" horiz-adv-x="500" d="M-7 -180l48 34l10 -4q-2 -18 -2 -22q0 -26 18 -44t44 -18q53 0 93 58.5t78 191.5l49 171q-56 -85 -112 -141.5t-84 -56.5q-19 0 -31 20t-12 51l1 40l17 243q1 8 1 15q0 52 -22 52q-6 0 -21 -9l-4 -3l-50 -30l-11 18l82 56q58 40 75 40q24 0 24 -63q0 -35 -4 -97l-15 -194 l-1 -13v-4q0 -17 6 -30.5t14 -13.5q16 0 48 28.5t58 66.5q59 88 80 169l35 132q31 3 74 19l11 -9l-141 -440q-44 -139 -120 -224t-155 -85q-34 0 -58 23t-24 55q0 11 1 18z" />
<glyph unicode="z" horiz-adv-x="444" d="M-1 21l353 400q-45 -23 -93 -23q-32 0 -81 10q-25 5 -45 5q-18 0 -39 -5l-30 -58h-21l32 122q34 10 61 10q18 0 62 -11l18 -5q78 -21 134 -21q20 0 34 14l23 23l9 -9l-6 -32l-339 -382q50 21 95 21q29 0 86 -12l18 -4q29 -7 49 -7q31 0 39 25l22 60h22q-19 -82 -30 -143 q-36 -10 -50 -10q-38 0 -118 20q-74 17 -105 17q-51 0 -91 -32z" />
<glyph unicode="{" horiz-adv-x="333" d="M45 46l27 156q4 21 4 45q0 28 -13 42.5t-48 25.5q46 13 67 37.5t29 74.5l29 172q14 77 52 105.5t127 28.5q-48 -12 -71 -38.5t-33 -81.5l-30 -172q-10 -61 -32.5 -87t-73.5 -39q37 -11 52 -27.5t15 -46.5q0 -25 -6 -59l-28 -162q-3 -20 -3 -37q0 -37 14.5 -55t51.5 -28 q-68 1 -95 13q-40 18 -40 77q0 24 5 56z" />
<glyph unicode="|" horiz-adv-x="606" d="M275 0v733h56v-733h-56z" />
<glyph unicode="}" horiz-adv-x="333" d="M288 587l-27 -156q-4 -21 -4 -46q0 -27 13.5 -42t47.5 -25q-46 -13 -67 -37.5t-29 -74.5l-29 -172q-14 -77 -52 -105.5t-127 -28.5q48 12 71 38.5t33 81.5l30 172q10 61 32.5 87t73.5 39q-37 10 -52 27t-15 47q0 24 6 59l28 162q3 18 3 37q0 37 -14.5 55t-51.5 28 q68 -1 95 -13q40 -18 40 -78q0 -23 -5 -55z" />
<glyph unicode="~" horiz-adv-x="606" d="M521 328l34 -27q-62 -113 -138 -113q-33 0 -130 41q-48 20 -63 25t-33 5q-30 0 -53 -19.5t-53 -70.5l-34 27q37 65 69 92.5t70 27.5q39 0 128 -39q75 -33 98 -33q58 0 105 84z" />
<glyph unicode="&#xa1;" horiz-adv-x="333" d="M188 467q19 0 32 -14t13 -34q0 -29 -18 -49t-43 -20q-20 0 -32 12.5t-12 34.5q0 29 17.5 49.5t42.5 20.5zM111 -250l-85 -26l-11 9q53 202 123 516l30 17l6 -3l-21 -154q-10 -77 -35 -288z" />
<glyph unicode="&#xa2;" horiz-adv-x="500" d="M316 480l27 71h33l-27 -71q37 0 69 -22q-18 -82 -21 -128h-23v64q0 17 -44 33l-146 -382q15 -5 26 -5q69 0 169 75l7 -20l-60 -49q-69 -55 -163 -57l-34 -85h-32l35 94q-23 7 -35 17t-22 30q-19 35 -19 95q0 82 32.5 160t81.5 113q84 59 146 67zM157 64l140 368 q-6 1 -14 1q-28 0 -54 -14t-40 -37q-20 -31 -39.5 -109t-19.5 -124q0 -53 27 -85z" />
</font>
</defs>
</svg>
