<?xml version="1.0" standalone="no"?>
<!DOCTYPE svg PUBLIC "-//W3C//DTD SVG 1.1//EN" "http://www.w3.org/Graphics/SVG/1.1/DTD/svg11.dtd" >
<svg xmlns="http://www.w3.org/2000/svg">
<metadata>
This is a custom SVG webfont generated by Font Squirrel.
</metadata>
<defs>
<font id="webfontJspJ7KeG" horiz-adv-x="611" >
<font-face units-per-em="1000" ascent="720" descent="-280" />
<missing-glyph horiz-adv-x="250" />
<glyph unicode="A&#x300;" horiz-adv-x="778" d="M469 206h-251l-42 -112q-5 -13 -5 -25q0 -13 8 -22t21 -10l50 -3v-37q-10 0 -23.5 0.5t-21.5 1t-12 0.5q-28 1 -56 1t-56 -1q-4 0 -12 -0.5t-21.5 -1t-23.5 -0.5v37l30 3q31 3 56 60l181 438q8 18 29 76l28 75h71l259 -605q17 -39 55 -44l24 -3v-37q-147 3 -158 3 q-12 0 -152 -3v37l53 3q20 2 20 27q0 13 -6 28zM342 516l-100 -254h204zM399 716l-131 81q-5 3 -11 7q-40 23 -40 53q0 20 12 32t32 12q32 0 65 -37l129 -148h-56z" />
<glyph unicode="A&#x301;" horiz-adv-x="778" d="M469 206h-251l-42 -112q-5 -13 -5 -25q0 -13 8 -22t21 -10l50 -3v-37q-10 0 -23.5 0.5t-21.5 1t-12 0.5q-28 1 -56 1t-56 -1q-4 0 -12 -0.5t-21.5 -1t-23.5 -0.5v37l30 3q31 3 56 60l181 438q8 18 29 76l28 75h71l259 -605q17 -39 55 -44l24 -3v-37q-147 3 -158 3 q-12 0 -152 -3v37l53 3q20 2 20 27q0 13 -6 28zM342 516l-100 -254h204zM277 716l129 148q33 37 65 37q20 0 32 -12t12 -32q0 -17 -9.5 -29t-33.5 -26l-8 -5l-131 -81h-56z" />
<glyph unicode="A&#x302;" horiz-adv-x="778" d="M469 206h-251l-42 -112q-5 -13 -5 -25q0 -13 8 -22t21 -10l50 -3v-37q-10 0 -23.5 0.5t-21.5 1t-12 0.5q-28 1 -56 1t-56 -1q-4 0 -12 -0.5t-21.5 -1t-23.5 -0.5v37l30 3q31 3 56 60l181 438q8 18 29 76l28 75h71l259 -605q17 -39 55 -44l24 -3v-37q-147 3 -158 3 q-12 0 -152 -3v37l53 3q20 2 20 27q0 13 -6 28zM342 516l-100 -254h204zM318 891h93l123 -175h-57l-112 98l-113 -98h-55z" />
<glyph unicode="A&#x303;" horiz-adv-x="778" d="M469 206h-251l-42 -112q-5 -13 -5 -25q0 -13 8 -22t21 -10l50 -3v-37q-10 0 -23.5 0.5t-21.5 1t-12 0.5q-28 1 -56 1t-56 -1q-4 0 -12 -0.5t-21.5 -1t-23.5 -0.5v37l30 3q31 3 56 60l181 438q8 18 29 76l28 75h71l259 -605q17 -39 55 -44l24 -3v-37q-147 3 -158 3 q-12 0 -152 -3v37l53 3q20 2 20 27q0 13 -6 28zM342 516l-100 -254h204zM505 871h43q-18 -65 -46.5 -95.5t-71.5 -30.5q-31 0 -84 25q-49 24 -77 24q-31 0 -46 -48h-40q6 55 38.5 90t77.5 35q29 0 80 -24t75 -24q18 0 27.5 9.5t23.5 38.5z" />
<glyph unicode="A&#x308;" horiz-adv-x="778" d="M469 206h-251l-42 -112q-5 -13 -5 -25q0 -13 8 -22t21 -10l50 -3v-37q-10 0 -23.5 0.5t-21.5 1t-12 0.5q-28 1 -56 1t-56 -1q-4 0 -12 -0.5t-21.5 -1t-23.5 -0.5v37l30 3q31 3 56 60l181 438q8 18 29 76l28 75h71l259 -605q17 -39 55 -44l24 -3v-37q-147 3 -158 3 q-12 0 -152 -3v37l53 3q20 2 20 27q0 13 -6 28zM342 516l-100 -254h204zM474 881q27 0 46.5 -20t19.5 -47q0 -28 -19.5 -47.5t-47.5 -19.5t-47.5 20t-19.5 48q0 27 20 46.5t48 19.5zM259 881q27 0 46.5 -20t19.5 -47q0 -28 -19.5 -47.5t-47.5 -19.5t-47.5 19.5t-19.5 47.5 t20 47.5t48 19.5z" />
<glyph unicode="A&#x30a;" horiz-adv-x="778" d="M469 206h-251l-42 -112q-5 -13 -5 -25q0 -13 8 -22t21 -10l50 -3v-37q-10 0 -23.5 0.5t-21.5 1t-12 0.5q-28 1 -56 1t-56 -1q-4 0 -12 -0.5t-21.5 -1t-23.5 -0.5v37l30 3q31 3 56 60l181 438q8 18 29 76l28 75h71l259 -605q17 -39 55 -44l24 -3v-37q-147 3 -158 3 q-12 0 -152 -3v37l53 3q20 2 20 27q0 13 -6 28zM342 516l-100 -254h204zM368 910q40 0 69 -29.5t29 -70.5t-29.5 -70.5t-70.5 -29.5t-70.5 29.5t-29.5 71.5q0 41 29.5 70t72.5 29zM367 860q-22 0 -36.5 -14.5t-14.5 -35.5t14.5 -35.5t35.5 -14.5t35.5 14.5t14.5 35.5 q0 20 -14.5 35t-34.5 15z" />
<glyph unicode="C&#x327;" horiz-adv-x="722" d="M692 87l-22 -49q-55 -31 -105.5 -43t-119.5 -12q-185 0 -293 98t-108 266q0 161 110.5 254.5t300.5 93.5q65 0 115.5 -10t118.5 -37l6 -11q-11 -45 -23 -153h-39l-5 86q-41 38 -81.5 53.5t-96.5 15.5q-119 0 -187.5 -74.5t-68.5 -203.5q0 -142 80 -227.5t211 -85.5 q97 0 195 51zM317 -103l43 96h41l-28 -64q23 6 45 6q35 0 56 -19.5t21 -53.5q0 -40 -36 -63.5t-97 -23.5q-40 0 -94 18l16 37q44 -9 67 -9q50 0 50 37q0 35 -38 35q-4 0 -36 -4z" />
<glyph unicode="E&#x300;" d="M265 620v-240q20 -2 67 -2h66q31 0 43 4.5t14 16.5l6 57h40q-3 -95 -3 -107l3 -108h-40l-6 50q-4 37 -57 37h-66q-25 0 -67 -3v-267q77 -3 131 -3q73 0 116 14q3 1 3 3l23 94h39l-11 -158l-5 -8q-77 -4 -141 -4q-57 0 -192 4h-34q-23 0 -122 -3v23l32 18q20 11 20 57v448 q0 66 -7 80.5t-41 17.5l-37 3v37q165 -3 188 -3q57 0 130 2q21 0 45.5 0.5t38.5 1t24 0.5q46 0 95 -4l6 -7l-14 -142h-36l-8 75q-1 8 -29.5 14t-68.5 6q-70 0 -145 -4zM300 716l-131 81q-5 3 -11 7q-40 23 -40 53q0 20 12 32t32 12q32 0 65 -37l129 -148h-56z" />
<glyph unicode="E&#x301;" d="M265 620v-240q20 -2 67 -2h66q31 0 43 4.5t14 16.5l6 57h40q-3 -95 -3 -107l3 -108h-40l-6 50q-4 37 -57 37h-66q-25 0 -67 -3v-267q77 -3 131 -3q73 0 116 14q3 1 3 3l23 94h39l-11 -158l-5 -8q-77 -4 -141 -4q-57 0 -192 4h-34q-23 0 -122 -3v23l32 18q20 11 20 57v448 q0 66 -7 80.5t-41 17.5l-37 3v37q165 -3 188 -3q57 0 130 2q21 0 45.5 0.5t38.5 1t24 0.5q46 0 95 -4l6 -7l-14 -142h-36l-8 75q-1 8 -29.5 14t-68.5 6q-70 0 -145 -4zM178 716l129 148q33 37 65 37q20 0 32 -12t12 -32q0 -17 -9.5 -29t-33.5 -26l-8 -5l-131 -81h-56z" />
<glyph unicode="E&#x302;" d="M265 620v-240q20 -2 67 -2h66q31 0 43 4.5t14 16.5l6 57h40q-3 -95 -3 -107l3 -108h-40l-6 50q-4 37 -57 37h-66q-25 0 -67 -3v-267q77 -3 131 -3q73 0 116 14q3 1 3 3l23 94h39l-11 -158l-5 -8q-77 -4 -141 -4q-57 0 -192 4h-34q-23 0 -122 -3v23l32 18q20 11 20 57v448 q0 66 -7 80.5t-41 17.5l-37 3v37q165 -3 188 -3q57 0 130 2q21 0 45.5 0.5t38.5 1t24 0.5q46 0 95 -4l6 -7l-14 -142h-36l-8 75q-1 8 -29.5 14t-68.5 6q-70 0 -145 -4zM219 891h93l123 -175h-57l-112 98l-113 -98h-55z" />
<glyph unicode="E&#x308;" d="M265 620v-240q20 -2 67 -2h66q31 0 43 4.5t14 16.5l6 57h40q-3 -95 -3 -107l3 -108h-40l-6 50q-4 37 -57 37h-66q-25 0 -67 -3v-267q77 -3 131 -3q73 0 116 14q3 1 3 3l23 94h39l-11 -158l-5 -8q-77 -4 -141 -4q-57 0 -192 4h-34q-23 0 -122 -3v23l32 18q20 11 20 57v448 q0 66 -7 80.5t-41 17.5l-37 3v37q165 -3 188 -3q57 0 130 2q21 0 45.5 0.5t38.5 1t24 0.5q46 0 95 -4l6 -7l-14 -142h-36l-8 75q-1 8 -29.5 14t-68.5 6q-70 0 -145 -4zM375 881q27 0 46.5 -20t19.5 -47q0 -28 -19.5 -47.5t-47.5 -19.5t-47.5 20t-19.5 48q0 27 20 46.5 t48 19.5zM160 881q27 0 46.5 -20t19.5 -47q0 -28 -19.5 -47.5t-47.5 -19.5t-47.5 19.5t-19.5 47.5t20 47.5t48 19.5z" />
<glyph unicode="I&#x300;" horiz-adv-x="389" d="M265 543v-408q0 -67 6.5 -79.5t41.5 -15.5l37 -3v-40q-121 3 -156 3q-34 0 -155 -3v40l37 3q35 3 41.5 15.5t6.5 79.5v408q0 67 -6.5 79.5t-41.5 15.5l-37 3v40q120 -3 155 -3q34 0 156 3v-40l-37 -3q-35 -3 -41.5 -15.5t-6.5 -79.5zM189 716l-131 81q-5 3 -11 7 q-40 23 -40 53q0 20 12 32t32 12q32 0 65 -37l129 -148h-56z" />
<glyph unicode="I&#x301;" horiz-adv-x="389" d="M265 543v-408q0 -67 6.5 -79.5t41.5 -15.5l37 -3v-40q-121 3 -156 3q-34 0 -155 -3v40l37 3q35 3 41.5 15.5t6.5 79.5v408q0 67 -6.5 79.5t-41.5 15.5l-37 3v40q120 -3 155 -3q34 0 156 3v-40l-37 -3q-35 -3 -41.5 -15.5t-6.5 -79.5zM67 716l129 148q33 37 65 37 q20 0 32 -12t12 -32q0 -17 -9.5 -29t-33.5 -26l-8 -5l-131 -81h-56z" />
<glyph unicode="I&#x302;" horiz-adv-x="389" d="M265 543v-408q0 -67 6.5 -79.5t41.5 -15.5l37 -3v-40q-121 3 -156 3q-34 0 -155 -3v40l37 3q35 3 41.5 15.5t6.5 79.5v408q0 67 -6.5 79.5t-41.5 15.5l-37 3v40q120 -3 155 -3q34 0 156 3v-40l-37 -3q-35 -3 -41.5 -15.5t-6.5 -79.5zM108 891h93l123 -175h-57l-112 98 l-113 -98h-55z" />
<glyph unicode="I&#x308;" horiz-adv-x="389" d="M265 543v-408q0 -67 6.5 -79.5t41.5 -15.5l37 -3v-40q-121 3 -156 3q-34 0 -155 -3v40l37 3q35 3 41.5 15.5t6.5 79.5v408q0 67 -6.5 79.5t-41.5 15.5l-37 3v40q120 -3 155 -3q34 0 156 3v-40l-37 -3q-35 -3 -41.5 -15.5t-6.5 -79.5zM264 881q27 0 46.5 -20t19.5 -47 q0 -28 -19.5 -47.5t-47.5 -19.5t-47.5 20t-19.5 48q0 27 20 46.5t48 19.5zM49 881q27 0 46.5 -20t19.5 -47q0 -28 -19.5 -47.5t-47.5 -19.5t-47.5 19.5t-19.5 47.5t20 47.5t48 19.5z" />
<glyph unicode="N&#x303;" horiz-adv-x="833" d="M155 678l84 3q83 -110 103 -133l312 -364v359q0 66 -7 80.5t-41 17.5l-37 3v37q88 -3 115 -3l114 3v-37l-37 -3q-34 -3 -41 -17.5t-7 -80.5v-454q0 -17 3 -101l-7 -4l-82 13l-122 139l-326 392v-393q0 -66 7 -80.5t41 -17.5l37 -3v-37q-72 3 -114 3q-19 0 -115 -3v37 l37 3q34 3 41 17.5t7 80.5v408q0 66 -7 80.5t-41 17.5l-37 3v37q85 -3 99 -3h21zM521 871h43q-18 -65 -46.5 -95.5t-71.5 -30.5q-31 0 -84 25q-49 24 -77 24q-31 0 -46 -48h-40q6 55 38.5 90t77.5 35q29 0 80 -24t75 -24q18 0 27.5 9.5t23.5 38.5z" />
<glyph unicode="O&#x300;" horiz-adv-x="833" d="M430 695q169 0 263 -92t94 -257q0 -171 -100.5 -267t-279.5 -96q-172 0 -266 91t-94 258q0 172 101 267.5t282 95.5zM421 639q-95 0 -154 -57q-70 -70 -70 -227q0 -181 85 -264q52 -52 132 -52q110 0 166.5 72.5t56.5 213.5q0 179 -86 263q-53 51 -130 51zM450 716 l-131 81q-5 3 -11 7q-40 23 -40 53q0 20 12 32t32 12q32 0 65 -37l129 -148h-56z" />
<glyph unicode="O&#x301;" horiz-adv-x="833" d="M430 695q169 0 263 -92t94 -257q0 -171 -100.5 -267t-279.5 -96q-172 0 -266 91t-94 258q0 172 101 267.5t282 95.5zM421 639q-95 0 -154 -57q-70 -70 -70 -227q0 -181 85 -264q52 -52 132 -52q110 0 166.5 72.5t56.5 213.5q0 179 -86 263q-53 51 -130 51zM328 716 l129 148q33 37 65 37q20 0 32 -12t12 -32q0 -17 -9.5 -29t-33.5 -26l-8 -5l-131 -81h-56z" />
<glyph unicode="O&#x302;" horiz-adv-x="833" d="M430 695q169 0 263 -92t94 -257q0 -171 -100.5 -267t-279.5 -96q-172 0 -266 91t-94 258q0 172 101 267.5t282 95.5zM421 639q-95 0 -154 -57q-70 -70 -70 -227q0 -181 85 -264q52 -52 132 -52q110 0 166.5 72.5t56.5 213.5q0 179 -86 263q-53 51 -130 51zM369 891h93 l123 -175h-57l-112 98l-113 -98h-55z" />
<glyph unicode="O&#x303;" horiz-adv-x="833" d="M430 695q169 0 263 -92t94 -257q0 -171 -100.5 -267t-279.5 -96q-172 0 -266 91t-94 258q0 172 101 267.5t282 95.5zM421 639q-95 0 -154 -57q-70 -70 -70 -227q0 -181 85 -264q52 -52 132 -52q110 0 166.5 72.5t56.5 213.5q0 179 -86 263q-53 51 -130 51zM556 871h43 q-18 -65 -46.5 -95.5t-71.5 -30.5q-31 0 -84 25q-49 24 -77 24q-31 0 -46 -48h-40q6 55 38.5 90t77.5 35q29 0 80 -24t75 -24q18 0 27.5 9.5t23.5 38.5z" />
<glyph unicode="O&#x308;" horiz-adv-x="833" d="M430 695q169 0 263 -92t94 -257q0 -171 -100.5 -267t-279.5 -96q-172 0 -266 91t-94 258q0 172 101 267.5t282 95.5zM421 639q-95 0 -154 -57q-70 -70 -70 -227q0 -181 85 -264q52 -52 132 -52q110 0 166.5 72.5t56.5 213.5q0 179 -86 263q-53 51 -130 51zM525 881 q27 0 46.5 -20t19.5 -47q0 -28 -19.5 -47.5t-47.5 -19.5t-47.5 20t-19.5 48q0 27 20 46.5t48 19.5zM310 881q27 0 46.5 -20t19.5 -47q0 -28 -19.5 -47.5t-47.5 -19.5t-47.5 19.5t-19.5 47.5t20 47.5t48 19.5z" />
<glyph unicode="U&#x300;" horiz-adv-x="778" d="M675 543v-292q0 -136 -70.5 -202t-213.5 -66q-129 0 -204.5 52.5t-75.5 141.5v366q0 66 -7 80.5t-41 17.5l-37 3v37q120 -3 155 -3q34 0 156 3v-37l-37 -3q-34 -3 -41 -17.5t-7 -80.5v-248q0 -77 8 -117t27 -64q40 -49 141 -49q99 0 141 43q26 26 36.5 70.5t10.5 123.5 v241q0 66 -7 80.5t-41 17.5l-37 3v37q88 -3 115 -3l114 3v-37l-37 -3q-34 -3 -41 -17.5t-7 -80.5zM397 716l-131 81q-5 3 -11 7q-40 23 -40 53q0 20 12 32t32 12q32 0 65 -37l129 -148h-56z" />
<glyph unicode="U&#x301;" horiz-adv-x="778" d="M675 543v-292q0 -136 -70.5 -202t-213.5 -66q-129 0 -204.5 52.5t-75.5 141.5v366q0 66 -7 80.5t-41 17.5l-37 3v37q120 -3 155 -3q34 0 156 3v-37l-37 -3q-34 -3 -41 -17.5t-7 -80.5v-248q0 -77 8 -117t27 -64q40 -49 141 -49q99 0 141 43q26 26 36.5 70.5t10.5 123.5 v241q0 66 -7 80.5t-41 17.5l-37 3v37q88 -3 115 -3l114 3v-37l-37 -3q-34 -3 -41 -17.5t-7 -80.5zM275 716l129 148q33 37 65 37q20 0 32 -12t12 -32q0 -17 -9.5 -29t-33.5 -26l-8 -5l-131 -81h-56z" />
<glyph unicode="U&#x302;" horiz-adv-x="778" d="M675 543v-292q0 -136 -70.5 -202t-213.5 -66q-129 0 -204.5 52.5t-75.5 141.5v366q0 66 -7 80.5t-41 17.5l-37 3v37q120 -3 155 -3q34 0 156 3v-37l-37 -3q-34 -3 -41 -17.5t-7 -80.5v-248q0 -77 8 -117t27 -64q40 -49 141 -49q99 0 141 43q26 26 36.5 70.5t10.5 123.5 v241q0 66 -7 80.5t-41 17.5l-37 3v37q88 -3 115 -3l114 3v-37l-37 -3q-34 -3 -41 -17.5t-7 -80.5zM316 891h93l123 -175h-57l-112 98l-113 -98h-55z" />
<glyph unicode="U&#x308;" horiz-adv-x="778" d="M675 543v-292q0 -136 -70.5 -202t-213.5 -66q-129 0 -204.5 52.5t-75.5 141.5v366q0 66 -7 80.5t-41 17.5l-37 3v37q120 -3 155 -3q34 0 156 3v-37l-37 -3q-34 -3 -41 -17.5t-7 -80.5v-248q0 -77 8 -117t27 -64q40 -49 141 -49q99 0 141 43q26 26 36.5 70.5t10.5 123.5 v241q0 66 -7 80.5t-41 17.5l-37 3v37q88 -3 115 -3l114 3v-37l-37 -3q-34 -3 -41 -17.5t-7 -80.5zM472 881q27 0 46.5 -20t19.5 -47q0 -28 -19.5 -47.5t-47.5 -19.5t-47.5 20t-19.5 48q0 27 20 46.5t48 19.5zM257 881q27 0 46.5 -20t19.5 -47q0 -28 -19.5 -47.5t-47.5 -19.5 t-47.5 19.5t-19.5 47.5t20 47.5t48 19.5z" />
<glyph unicode="Y&#x301;" horiz-adv-x="667" d="M395 356l188 322h77v-19l-176 -261q-26 -39 -53 -100v-163q0 -67 6.5 -79.5t41.5 -15.5l37 -3v-40q-121 3 -156 3q-34 0 -155 -3v40l37 3q35 3 41.5 15.5t6.5 79.5v139q-19 43 -44 85l-101 163q-44 64 -68 82t-62 18v37l159 36q34 -20 58.5 -49.5t55.5 -86.5zM230 716 l129 148q33 37 65 37q20 0 32 -12t12 -32q0 -17 -9.5 -29t-33.5 -26l-8 -5l-131 -81h-56z" />
<glyph unicode="a&#x300;" horiz-adv-x="500" d="M299 67l-93 -72q-15 -12 -49 -12q-57 0 -87 31.5t-30 92.5q0 64 38 97t133 53l88 18q-2 61 -27 89.5t-75 28.5q-20 0 -38 -4.5t-20 -9.5l-22 -50l-30 7v69l53 32q55 34 120 34q76 0 118.5 -37.5t42.5 -104.5q0 -16 -1 -29q-2 -76 -2 -97q0 -20 2 -84v-21q1 -35 6 -46.5 t22 -14.5l30 -3v-37q-19 1 -36.5 1.5t-25.5 1t-15 0.5h-11q-5 0 -13.5 -0.5t-30.5 -1t-47 -1.5l-5 8zM299 115v118l-45 -12q-53 -14 -72.5 -32.5t-19.5 -55.5q0 -29 13.5 -46t37.5 -17q23 0 47.5 13t38.5 32zM244 506l-131 81q-5 3 -11 7q-40 23 -40 53q0 20 12 32t32 12 q32 0 65 -37l129 -148h-56z" />
<glyph unicode="a&#x301;" horiz-adv-x="500" d="M299 67l-93 -72q-15 -12 -49 -12q-57 0 -87 31.5t-30 92.5q0 64 38 97t133 53l88 18q-2 61 -27 89.5t-75 28.5q-20 0 -38 -4.5t-20 -9.5l-22 -50l-30 7v69l53 32q55 34 120 34q76 0 118.5 -37.5t42.5 -104.5q0 -16 -1 -29q-2 -76 -2 -97q0 -20 2 -84v-21q1 -35 6 -46.5 t22 -14.5l30 -3v-37q-19 1 -36.5 1.5t-25.5 1t-15 0.5h-11q-5 0 -13.5 -0.5t-30.5 -1t-47 -1.5l-5 8zM299 115v118l-45 -12q-53 -14 -72.5 -32.5t-19.5 -55.5q0 -29 13.5 -46t37.5 -17q23 0 47.5 13t38.5 32zM122 506l129 148q33 37 65 37q20 0 32 -12t12 -32 q0 -17 -9.5 -29t-33.5 -26l-8 -5l-131 -81h-56z" />
<glyph unicode="a&#x302;" horiz-adv-x="500" d="M299 67l-93 -72q-15 -12 -49 -12q-57 0 -87 31.5t-30 92.5q0 64 38 97t133 53l88 18q-2 61 -27 89.5t-75 28.5q-20 0 -38 -4.5t-20 -9.5l-22 -50l-30 7v69l53 32q55 34 120 34q76 0 118.5 -37.5t42.5 -104.5q0 -16 -1 -29q-2 -76 -2 -97q0 -20 2 -84v-21q1 -35 6 -46.5 t22 -14.5l30 -3v-37q-19 1 -36.5 1.5t-25.5 1t-15 0.5h-11q-5 0 -13.5 -0.5t-30.5 -1t-47 -1.5l-5 8zM299 115v118l-45 -12q-53 -14 -72.5 -32.5t-19.5 -55.5q0 -29 13.5 -46t37.5 -17q23 0 47.5 13t38.5 32zM163 681h93l123 -175h-57l-112 98l-113 -98h-55z" />
<glyph unicode="a&#x303;" horiz-adv-x="500" d="M299 67l-93 -72q-15 -12 -49 -12q-57 0 -87 31.5t-30 92.5q0 64 38 97t133 53l88 18q-2 61 -27 89.5t-75 28.5q-20 0 -38 -4.5t-20 -9.5l-22 -50l-30 7v69l53 32q55 34 120 34q76 0 118.5 -37.5t42.5 -104.5q0 -16 -1 -29q-2 -76 -2 -97q0 -20 2 -84v-21q1 -35 6 -46.5 t22 -14.5l30 -3v-37q-19 1 -36.5 1.5t-25.5 1t-15 0.5h-11q-5 0 -13.5 -0.5t-30.5 -1t-47 -1.5l-5 8zM299 115v118l-45 -12q-53 -14 -72.5 -32.5t-19.5 -55.5q0 -29 13.5 -46t37.5 -17q23 0 47.5 13t38.5 32zM350 661h43q-18 -65 -46.5 -95.5t-71.5 -30.5q-31 0 -84 25 q-49 24 -77 24q-31 0 -46 -48h-40q6 55 38.5 90t77.5 35q29 0 80 -24t75 -24q18 0 27.5 9.5t23.5 38.5z" />
<glyph unicode="a&#x308;" horiz-adv-x="500" d="M299 67l-93 -72q-15 -12 -49 -12q-57 0 -87 31.5t-30 92.5q0 64 38 97t133 53l88 18q-2 61 -27 89.5t-75 28.5q-20 0 -38 -4.5t-20 -9.5l-22 -50l-30 7v69l53 32q55 34 120 34q76 0 118.5 -37.5t42.5 -104.5q0 -16 -1 -29q-2 -76 -2 -97q0 -20 2 -84v-21q1 -35 6 -46.5 t22 -14.5l30 -3v-37q-19 1 -36.5 1.5t-25.5 1t-15 0.5h-11q-5 0 -13.5 -0.5t-30.5 -1t-47 -1.5l-5 8zM299 115v118l-45 -12q-53 -14 -72.5 -32.5t-19.5 -55.5q0 -29 13.5 -46t37.5 -17q23 0 47.5 13t38.5 32zM319 671q27 0 46.5 -20t19.5 -47q0 -28 -19.5 -47.5t-47.5 -19.5 t-47.5 20t-19.5 48q0 27 20 46.5t48 19.5zM104 671q27 0 46.5 -20t19.5 -47q0 -28 -19.5 -47.5t-47.5 -19.5t-47.5 19.5t-19.5 47.5t20 47.5t48 19.5z" />
<glyph unicode="a&#x30a;" horiz-adv-x="500" d="M299 67l-93 -72q-15 -12 -49 -12q-57 0 -87 31.5t-30 92.5q0 64 38 97t133 53l88 18q-2 61 -27 89.5t-75 28.5q-20 0 -38 -4.5t-20 -9.5l-22 -50l-30 7v69l53 32q55 34 120 34q76 0 118.5 -37.5t42.5 -104.5q0 -16 -1 -29q-2 -76 -2 -97q0 -20 2 -84v-21q1 -35 6 -46.5 t22 -14.5l30 -3v-37q-19 1 -36.5 1.5t-25.5 1t-15 0.5h-11q-5 0 -13.5 -0.5t-30.5 -1t-47 -1.5l-5 8zM299 115v118l-45 -12q-53 -14 -72.5 -32.5t-19.5 -55.5q0 -29 13.5 -46t37.5 -17q23 0 47.5 13t38.5 32zM213 700q40 0 69 -29.5t29 -70.5t-29.5 -70.5t-70.5 -29.5 t-70.5 29.5t-29.5 71.5q0 41 29.5 70t72.5 29zM212 650q-22 0 -36.5 -14.5t-14.5 -35.5t14.5 -35.5t35.5 -14.5t35.5 14.5t14.5 35.5q0 20 -14.5 35t-34.5 15z" />
<glyph unicode="c&#x327;" horiz-adv-x="444" d="M390 297h-36l-7 60q-2 17 -28 30t-60 13q-98 0 -98 -140q0 -95 42.5 -150.5t116.5 -55.5q39 0 85 19l9 -10l-21 -46q-64 -34 -134 -34q-107 0 -164.5 63.5t-57.5 182.5q0 65 27 107.5t94 82.5l52 31q36 21 90 21q46 0 103 -20l7 -13q-13 -61 -20 -141zM178 -103l43 96h41 l-28 -64q23 6 45 6q35 0 56 -19.5t21 -53.5q0 -40 -36 -63.5t-97 -23.5q-40 0 -94 18l16 37q44 -9 67 -9q50 0 50 37q0 35 -38 35q-4 0 -36 -4z" />
<glyph unicode="e&#x300;" horiz-adv-x="500" d="M461 295v-52q-80 -20 -158 -20h-131q3 -61 24 -98q19 -32 53 -51.5t73 -19.5q54 0 117 35l12 -15l-22 -48q-83 -43 -158 -43q-112 0 -170.5 62t-58.5 181q0 138 95 194l47 28q39 23 88 23q86 0 137.5 -48t51.5 -128zM250 273l84 3q-1 74 -20.5 106.5t-62.5 32.5 t-63 -32.5t-22 -106.5l32 -1q30 -2 48 -2h4zM284 506l-131 81q-5 3 -11 7q-40 23 -40 53q0 20 12 32t32 12q32 0 65 -37l129 -148h-56z" />
<glyph unicode="e&#x301;" horiz-adv-x="500" d="M461 295v-52q-80 -20 -158 -20h-131q3 -61 24 -98q19 -32 53 -51.5t73 -19.5q54 0 117 35l12 -15l-22 -48q-83 -43 -158 -43q-112 0 -170.5 62t-58.5 181q0 138 95 194l47 28q39 23 88 23q86 0 137.5 -48t51.5 -128zM250 273l84 3q-1 74 -20.5 106.5t-62.5 32.5 t-63 -32.5t-22 -106.5l32 -1q30 -2 48 -2h4zM162 506l129 148q33 37 65 37q20 0 32 -12t12 -32q0 -17 -9.5 -29t-33.5 -26l-8 -5l-131 -81h-56z" />
<glyph unicode="e&#x302;" horiz-adv-x="500" d="M461 295v-52q-80 -20 -158 -20h-131q3 -61 24 -98q19 -32 53 -51.5t73 -19.5q54 0 117 35l12 -15l-22 -48q-83 -43 -158 -43q-112 0 -170.5 62t-58.5 181q0 138 95 194l47 28q39 23 88 23q86 0 137.5 -48t51.5 -128zM250 273l84 3q-1 74 -20.5 106.5t-62.5 32.5 t-63 -32.5t-22 -106.5l32 -1q30 -2 48 -2h4zM203 681h93l123 -175h-57l-112 98l-113 -98h-55z" />
<glyph unicode="e&#x308;" horiz-adv-x="500" d="M461 295v-52q-80 -20 -158 -20h-131q3 -61 24 -98q19 -32 53 -51.5t73 -19.5q54 0 117 35l12 -15l-22 -48q-83 -43 -158 -43q-112 0 -170.5 62t-58.5 181q0 138 95 194l47 28q39 23 88 23q86 0 137.5 -48t51.5 -128zM250 273l84 3q-1 74 -20.5 106.5t-62.5 32.5 t-63 -32.5t-22 -106.5l32 -1q30 -2 48 -2h4zM359 671q27 0 46.5 -20t19.5 -47q0 -28 -19.5 -47.5t-47.5 -19.5t-47.5 20t-19.5 48q0 27 20 46.5t48 19.5zM144 671q27 0 46.5 -20t19.5 -47q0 -28 -19.5 -47.5t-47.5 -19.5t-47.5 19.5t-19.5 47.5t20 47.5t48 19.5z" />
<glyph unicode="i&#x300;" horiz-adv-x="333" d="M217 471l10 -6v-365q0 -40 6.5 -51t29.5 -13l35 -2v-37q-100 3 -135 3l-129 -3v37l35 2q23 2 29.5 13t6.5 51v219q0 44 -4.5 56.5t-21.5 13.5l-45 3v36q14 2 15 2q60 7 98 19zM166 506l-131 81q-5 3 -11 7q-40 23 -40 53q0 20 12 32t32 12q32 0 65 -37l129 -148h-56z" />
<glyph unicode="i&#x301;" horiz-adv-x="333" d="M217 471l10 -6v-365q0 -40 6.5 -51t29.5 -13l35 -2v-37q-100 3 -135 3l-129 -3v37l35 2q23 2 29.5 13t6.5 51v219q0 44 -4.5 56.5t-21.5 13.5l-45 3v36q14 2 15 2q60 7 98 19zM44 506l129 148q33 37 65 37q20 0 32 -12t12 -32q0 -17 -9.5 -29t-33.5 -26l-8 -5l-131 -81 h-56z" />
<glyph unicode="i&#x302;" horiz-adv-x="333" d="M217 471l10 -6v-365q0 -40 6.5 -51t29.5 -13l35 -2v-37q-100 3 -135 3l-129 -3v37l35 2q23 2 29.5 13t6.5 51v219q0 44 -4.5 56.5t-21.5 13.5l-45 3v36q14 2 15 2q60 7 98 19zM85 681h93l123 -175h-57l-112 98l-113 -98h-55z" />
<glyph unicode="i&#x308;" horiz-adv-x="333" d="M217 471l10 -6v-365q0 -40 6.5 -51t29.5 -13l35 -2v-37q-100 3 -135 3l-129 -3v37l35 2q23 2 29.5 13t6.5 51v219q0 44 -4.5 56.5t-21.5 13.5l-45 3v36q14 2 15 2q60 7 98 19zM241 671q27 0 46.5 -20t19.5 -47q0 -28 -19.5 -47.5t-47.5 -19.5t-47.5 20t-19.5 48 q0 27 20 46.5t48 19.5zM26 671q27 0 46.5 -20t19.5 -47q0 -28 -19.5 -47.5t-47.5 -19.5t-47.5 19.5t-19.5 47.5t20 47.5t48 19.5z" />
<glyph unicode="n&#x303;" d="M24 392v36q42 2 76 10t111 33l6 -6v-75l80 62q23 19 70 19q76 0 116 -42q35 -38 35 -143v-186q0 -40 6.5 -51t29.5 -13l33 -2v-37q-87 3 -101 3q-4 0 -90 -3v273q0 60 -22.5 87.5t-71.5 27.5q-33 0 -59 -21t-26 -47v-217q0 -40 6.5 -51t29.5 -13l35 -2v-37q-100 3 -135 3 l-129 -3v37l35 2q23 2 29.5 13t6.5 51v219q0 44 -4.5 56.5t-21.5 13.5zM421 661h43q-18 -65 -46.5 -95.5t-71.5 -30.5q-31 0 -84 25q-49 24 -77 24q-31 0 -46 -48h-40q6 55 38.5 90t77.5 35q29 0 80 -24t75 -24q18 0 27.5 9.5t23.5 38.5z" />
<glyph unicode="o&#x300;" horiz-adv-x="556" d="M287 471q111 0 170.5 -60.5t59.5 -174.5q0 -121 -65 -187t-185 -66q-109 0 -168 63t-59 178q0 119 64 183t183 64zM275 423q-52 0 -75.5 -42t-23.5 -133q0 -217 109 -217q51 0 73.5 41t22.5 133q0 218 -106 218zM312 506l-131 81q-5 3 -11 7q-40 23 -40 53q0 20 12 32 t32 12q32 0 65 -37l129 -148h-56z" />
<glyph unicode="o&#x301;" horiz-adv-x="556" d="M287 471q111 0 170.5 -60.5t59.5 -174.5q0 -121 -65 -187t-185 -66q-109 0 -168 63t-59 178q0 119 64 183t183 64zM275 423q-52 0 -75.5 -42t-23.5 -133q0 -217 109 -217q51 0 73.5 41t22.5 133q0 218 -106 218zM190 506l129 148q33 37 65 37q20 0 32 -12t12 -32 q0 -17 -9.5 -29t-33.5 -26l-8 -5l-131 -81h-56z" />
<glyph unicode="o&#x302;" horiz-adv-x="556" d="M287 471q111 0 170.5 -60.5t59.5 -174.5q0 -121 -65 -187t-185 -66q-109 0 -168 63t-59 178q0 119 64 183t183 64zM275 423q-52 0 -75.5 -42t-23.5 -133q0 -217 109 -217q51 0 73.5 41t22.5 133q0 218 -106 218zM231 681h93l123 -175h-57l-112 98l-113 -98h-55z" />
<glyph unicode="o&#x303;" horiz-adv-x="556" d="M287 471q111 0 170.5 -60.5t59.5 -174.5q0 -121 -65 -187t-185 -66q-109 0 -168 63t-59 178q0 119 64 183t183 64zM275 423q-52 0 -75.5 -42t-23.5 -133q0 -217 109 -217q51 0 73.5 41t22.5 133q0 218 -106 218zM418 661h43q-18 -65 -46.5 -95.5t-71.5 -30.5 q-31 0 -84 25q-49 24 -77 24q-31 0 -46 -48h-40q6 55 38.5 90t77.5 35q29 0 80 -24t75 -24q18 0 27.5 9.5t23.5 38.5z" />
<glyph unicode="o&#x308;" horiz-adv-x="556" d="M287 471q111 0 170.5 -60.5t59.5 -174.5q0 -121 -65 -187t-185 -66q-109 0 -168 63t-59 178q0 119 64 183t183 64zM275 423q-52 0 -75.5 -42t-23.5 -133q0 -217 109 -217q51 0 73.5 41t22.5 133q0 218 -106 218zM387 671q27 0 46.5 -20t19.5 -47q0 -28 -19.5 -47.5 t-47.5 -19.5t-47.5 20t-19.5 48q0 27 20 46.5t48 19.5zM172 671q27 0 46.5 -20t19.5 -47q0 -28 -19.5 -47.5t-47.5 -19.5t-47.5 19.5t-19.5 47.5t20 47.5t48 19.5z" />
<glyph unicode="u&#x300;" d="M392 80l-76 -74q-23 -23 -70 -23q-72 0 -111 40.5t-39 116.5v179q0 44 -4.5 56.5t-21.5 13.5l-45 3v36q75 10 113 21l70 22l10 -6v-261q0 -72 17.5 -101.5t60.5 -29.5q40 0 68 26.5t28 63.5v156q0 44 -4.5 56.5t-21.5 13.5l-45 3v36q76 10 113 21l70 22l10 -6v-365 q0 -40 6.5 -51t29.5 -13l33 -2v-37q-21 1 -47 1q-28 2 -55 2q-11 0 -94 -3zM339 506l-131 81q-5 3 -11 7q-40 23 -40 53q0 20 12 32t32 12q32 0 65 -37l129 -148h-56z" />
<glyph unicode="u&#x301;" d="M392 80l-76 -74q-23 -23 -70 -23q-72 0 -111 40.5t-39 116.5v179q0 44 -4.5 56.5t-21.5 13.5l-45 3v36q75 10 113 21l70 22l10 -6v-261q0 -72 17.5 -101.5t60.5 -29.5q40 0 68 26.5t28 63.5v156q0 44 -4.5 56.5t-21.5 13.5l-45 3v36q76 10 113 21l70 22l10 -6v-365 q0 -40 6.5 -51t29.5 -13l33 -2v-37q-21 1 -47 1q-28 2 -55 2q-11 0 -94 -3zM217 506l129 148q33 37 65 37q20 0 32 -12t12 -32q0 -17 -9.5 -29t-33.5 -26l-8 -5l-131 -81h-56z" />
<glyph unicode="u&#x302;" d="M392 80l-76 -74q-23 -23 -70 -23q-72 0 -111 40.5t-39 116.5v179q0 44 -4.5 56.5t-21.5 13.5l-45 3v36q75 10 113 21l70 22l10 -6v-261q0 -72 17.5 -101.5t60.5 -29.5q40 0 68 26.5t28 63.5v156q0 44 -4.5 56.5t-21.5 13.5l-45 3v36q76 10 113 21l70 22l10 -6v-365 q0 -40 6.5 -51t29.5 -13l33 -2v-37q-21 1 -47 1q-28 2 -55 2q-11 0 -94 -3zM258 681h93l123 -175h-57l-112 98l-113 -98h-55z" />
<glyph unicode="u&#x308;" d="M392 80l-76 -74q-23 -23 -70 -23q-72 0 -111 40.5t-39 116.5v179q0 44 -4.5 56.5t-21.5 13.5l-45 3v36q75 10 113 21l70 22l10 -6v-261q0 -72 17.5 -101.5t60.5 -29.5q40 0 68 26.5t28 63.5v156q0 44 -4.5 56.5t-21.5 13.5l-45 3v36q76 10 113 21l70 22l10 -6v-365 q0 -40 6.5 -51t29.5 -13l33 -2v-37q-21 1 -47 1q-28 2 -55 2q-11 0 -94 -3zM414 671q27 0 46.5 -20t19.5 -47q0 -28 -19.5 -47.5t-47.5 -19.5t-47.5 20t-19.5 48q0 27 20 46.5t48 19.5zM199 671q27 0 46.5 -20t19.5 -47q0 -28 -19.5 -47.5t-47.5 -19.5t-47.5 19.5 t-19.5 47.5t20 47.5t48 19.5z" />
<glyph unicode="y&#x301;" horiz-adv-x="556" d="M275 421l-35 -2q-26 -2 -26 -23q0 -12 11 -38q6 -14 6 -15l84 -218l101 252q4 10 4 22q0 18 -27 20l-33 2v38q88 -3 93 -3l93 3v-38l-26 -5q-22 -5 -41 -47l-199 -463q-74 -172 -176 -172q-35 0 -73 17l18 95l11 4q33 -37 70 -37q26 0 50.5 24t41.5 67l23 56l-158 404 q-21 54 -42 55l-35 2v38q104 -3 133 -3l132 3v-38zM180 506l129 148q33 37 65 37q20 0 32 -12t12 -32q0 -17 -9.5 -29t-33.5 -26l-8 -5l-131 -81h-56z" />
<glyph unicode="y&#x308;" horiz-adv-x="556" d="M275 421l-35 -2q-26 -2 -26 -23q0 -12 11 -38q6 -14 6 -15l84 -218l101 252q4 10 4 22q0 18 -27 20l-33 2v38q88 -3 93 -3l93 3v-38l-26 -5q-22 -5 -41 -47l-199 -463q-74 -172 -176 -172q-35 0 -73 17l18 95l11 4q33 -37 70 -37q26 0 50.5 24t41.5 67l23 56l-158 404 q-21 54 -42 55l-35 2v38q104 -3 133 -3l132 3v-38zM377 671q27 0 46.5 -20t19.5 -47q0 -28 -19.5 -47.5t-47.5 -19.5t-47.5 20t-19.5 48q0 27 20 46.5t48 19.5zM162 671q27 0 46.5 -20t19.5 -47q0 -28 -19.5 -47.5t-47.5 -19.5t-47.5 19.5t-19.5 47.5t20 47.5t48 19.5z" />
<glyph unicode="A&#x304;" horiz-adv-x="778" d="M469 206h-251l-42 -112q-5 -13 -5 -25q0 -13 8 -22t21 -10l50 -3v-37q-10 0 -23.5 0.5t-21.5 1t-12 0.5q-28 1 -56 1t-56 -1q-4 0 -12 -0.5t-21.5 -1t-23.5 -0.5v37l30 3q31 3 56 60l181 438q8 18 29 76l28 75h71l259 -605q17 -39 55 -44l24 -3v-37q-147 3 -158 3 q-12 0 -152 -3v37l53 3q20 2 20 27q0 13 -6 28zM342 516l-100 -254h204zM531 748h-331v71h331v-71z" />
<glyph unicode="a&#x304;" horiz-adv-x="500" d="M299 67l-93 -72q-15 -12 -49 -12q-57 0 -87 31.5t-30 92.5q0 64 38 97t133 53l88 18q-2 61 -27 89.5t-75 28.5q-20 0 -38 -4.5t-20 -9.5l-22 -50l-30 7v69l53 32q55 34 120 34q76 0 118.5 -37.5t42.5 -104.5q0 -16 -1 -29q-2 -76 -2 -97q0 -20 2 -84v-21q1 -35 6 -46.5 t22 -14.5l30 -3v-37q-19 1 -36.5 1.5t-25.5 1t-15 0.5h-11q-5 0 -13.5 -0.5t-30.5 -1t-47 -1.5l-5 8zM299 115v118l-45 -12q-53 -14 -72.5 -32.5t-19.5 -55.5q0 -29 13.5 -46t37.5 -17q23 0 47.5 13t38.5 32zM376 538h-331v71h331v-71z" />
<glyph unicode="A&#x306;" horiz-adv-x="778" d="M469 206h-251l-42 -112q-5 -13 -5 -25q0 -13 8 -22t21 -10l50 -3v-37q-10 0 -23.5 0.5t-21.5 1t-12 0.5q-28 1 -56 1t-56 -1q-4 0 -12 -0.5t-21.5 -1t-23.5 -0.5v37l30 3q31 3 56 60l181 438q8 18 29 76l28 75h71l259 -605q17 -39 55 -44l24 -3v-37q-147 3 -158 3 q-12 0 -152 -3v37l53 3q20 2 20 27q0 13 -6 28zM342 516l-100 -254h204zM214 879h44q16 -87 104 -87q57 0 87 36q24 26 24 49v2h44q-5 -64 -26 -99q-41 -64 -125 -64q-94 0 -133 74q-16 33 -19 89z" />
<glyph unicode="a&#x306;" horiz-adv-x="500" d="M299 67l-93 -72q-15 -12 -49 -12q-57 0 -87 31.5t-30 92.5q0 64 38 97t133 53l88 18q-2 61 -27 89.5t-75 28.5q-20 0 -38 -4.5t-20 -9.5l-22 -50l-30 7v69l53 32q55 34 120 34q76 0 118.5 -37.5t42.5 -104.5q0 -16 -1 -29q-2 -76 -2 -97q0 -20 2 -84v-21q1 -35 6 -46.5 t22 -14.5l30 -3v-37q-19 1 -36.5 1.5t-25.5 1t-15 0.5h-11q-5 0 -13.5 -0.5t-30.5 -1t-47 -1.5l-5 8zM299 115v118l-45 -12q-53 -14 -72.5 -32.5t-19.5 -55.5q0 -29 13.5 -46t37.5 -17q23 0 47.5 13t38.5 32zM59 669h44q16 -87 104 -87q57 0 87 36q24 26 24 49v2h44 q-5 -64 -26 -99q-41 -64 -125 -64q-94 0 -133 74q-16 33 -19 89z" />
<glyph unicode="A&#x328;" horiz-adv-x="778" d="M757 34v-37q-3 1 -6 1q-25 0 -48 -36.5t-23 -77.5q0 -32 17.5 -51.5t46.5 -19.5q27 0 68 15l6 -26q-44 -31 -111 -31q-49 0 -76 27t-27 75q0 69 51 106q12 8 39 19q-59 2 -94 2q-13 0 -153 -3v37l53 3q20 2 20 27q0 13 -6 28l-45 114h-251l-42 -112q-5 -13 -5 -25 q0 -13 8 -22t21 -10l50 -3v-37q-10 0 -23.5 0.5t-21.5 1t-12 0.5q-28 1 -56 1t-56 -1q-4 0 -12 -0.5t-21.5 -1t-23.5 -0.5v37l30 3q31 3 56 60l181 438q8 18 29 76l28 75h71l259 -605q17 -39 55 -44zM342 516l-100 -254h204z" />
<glyph unicode="a&#x328;" horiz-adv-x="500" d="M478 34v-37q-3 1 -7 1h-1q-19 0 -41.5 -39.5t-22.5 -73.5q0 -33 17.5 -52.5t46.5 -19.5q27 0 68 15l6 -26q-44 -31 -111 -31q-49 0 -76 27t-27 75q0 69 51 106q10 7 41 20q-29 1 -33 1q-10 0 -90 -3l-5 8l5 62l-93 -72q-15 -12 -49 -12q-57 0 -87 31.5t-30 92.5 q0 64 38 97t133 53l88 18q-2 61 -27 89.5t-75 28.5q-20 0 -38 -4.5t-20 -9.5l-22 -50l-30 7v69l53 32q55 34 120 34q76 0 118.5 -37.5t42.5 -104.5q0 -16 -1 -29q-2 -76 -2 -97q0 -20 2 -84v-21q1 -35 6 -46.5t22 -14.5zM299 115v118l-45 -12q-53 -14 -72.5 -32.5 t-19.5 -55.5q0 -29 13.5 -46t37.5 -17q23 0 47.5 13t38.5 32z" />
<glyph unicode="C&#x301;" horiz-adv-x="722" d="M692 87l-22 -49q-55 -31 -105.5 -43t-119.5 -12q-185 0 -293 98t-108 266q0 161 110.5 254.5t300.5 93.5q65 0 115.5 -10t118.5 -37l6 -11q-11 -45 -23 -153h-39l-5 86q-41 38 -81.5 53.5t-96.5 15.5q-119 0 -187.5 -74.5t-68.5 -203.5q0 -142 80 -227.5t211 -85.5 q97 0 195 51zM273 716l129 148q33 37 65 37q20 0 32 -12t12 -32q0 -17 -9.5 -29t-33.5 -26l-8 -5l-131 -81h-56z" />
<glyph unicode="c&#x301;" horiz-adv-x="444" d="M390 297h-36l-7 60q-2 17 -28 30t-60 13q-98 0 -98 -140q0 -95 42.5 -150.5t116.5 -55.5q39 0 85 19l9 -10l-21 -46q-64 -34 -134 -34q-107 0 -164.5 63.5t-57.5 182.5q0 65 27 107.5t94 82.5l52 31q36 21 90 21q46 0 103 -20l7 -13q-13 -61 -20 -141zM134 506l129 148 q33 37 65 37q20 0 32 -12t12 -32q0 -17 -9.5 -29t-33.5 -26l-8 -5l-131 -81h-56z" />
<glyph unicode="C&#x302;" horiz-adv-x="722" d="M692 87l-22 -49q-55 -31 -105.5 -43t-119.5 -12q-185 0 -293 98t-108 266q0 161 110.5 254.5t300.5 93.5q65 0 115.5 -10t118.5 -37l6 -11q-11 -45 -23 -153h-39l-5 86q-41 38 -81.5 53.5t-96.5 15.5q-119 0 -187.5 -74.5t-68.5 -203.5q0 -142 80 -227.5t211 -85.5 q97 0 195 51zM314 891h93l123 -175h-57l-112 98l-113 -98h-55z" />
<glyph unicode="c&#x302;" horiz-adv-x="444" d="M390 297h-36l-7 60q-2 17 -28 30t-60 13q-98 0 -98 -140q0 -95 42.5 -150.5t116.5 -55.5q39 0 85 19l9 -10l-21 -46q-64 -34 -134 -34q-107 0 -164.5 63.5t-57.5 182.5q0 65 27 107.5t94 82.5l52 31q36 21 90 21q46 0 103 -20l7 -13q-13 -61 -20 -141zM175 681h93 l123 -175h-57l-112 98l-113 -98h-55z" />
<glyph unicode="C&#x307;" horiz-adv-x="722" d="M692 87l-22 -49q-55 -31 -105.5 -43t-119.5 -12q-185 0 -293 98t-108 266q0 161 110.5 254.5t300.5 93.5q65 0 115.5 -10t118.5 -37l6 -11q-11 -45 -23 -153h-39l-5 86q-41 38 -81.5 53.5t-96.5 15.5q-119 0 -187.5 -74.5t-68.5 -203.5q0 -142 80 -227.5t211 -85.5 q97 0 195 51zM363 881q27 0 46.5 -20t19.5 -47q0 -28 -19.5 -47.5t-47.5 -19.5t-47.5 20t-19.5 48q0 27 20 46.5t48 19.5z" />
<glyph unicode="c&#x307;" horiz-adv-x="444" d="M390 297h-36l-7 60q-2 17 -28 30t-60 13q-98 0 -98 -140q0 -95 42.5 -150.5t116.5 -55.5q39 0 85 19l9 -10l-21 -46q-64 -34 -134 -34q-107 0 -164.5 63.5t-57.5 182.5q0 65 27 107.5t94 82.5l52 31q36 21 90 21q46 0 103 -20l7 -13q-13 -61 -20 -141zM224 671 q27 0 46.5 -20t19.5 -47q0 -28 -19.5 -47.5t-47.5 -19.5t-47.5 20t-19.5 48q0 27 20 46.5t48 19.5z" />
<glyph unicode="C&#x30c;" horiz-adv-x="722" d="M692 87l-22 -49q-55 -31 -105.5 -43t-119.5 -12q-185 0 -293 98t-108 266q0 161 110.5 254.5t300.5 93.5q65 0 115.5 -10t118.5 -37l6 -11q-11 -45 -23 -153h-39l-5 86q-41 38 -81.5 53.5t-96.5 15.5q-119 0 -187.5 -74.5t-68.5 -203.5q0 -142 80 -227.5t211 -85.5 q97 0 195 51zM407 720h-93l-121 175h55l113 -98l112 98h57z" />
<glyph unicode="c&#x30c;" horiz-adv-x="444" d="M390 297h-36l-7 60q-2 17 -28 30t-60 13q-98 0 -98 -140q0 -95 42.5 -150.5t116.5 -55.5q39 0 85 19l9 -10l-21 -46q-64 -34 -134 -34q-107 0 -164.5 63.5t-57.5 182.5q0 65 27 107.5t94 82.5l52 31q36 21 90 21q46 0 103 -20l7 -13q-13 -61 -20 -141zM268 510h-93 l-121 175h55l113 -98l112 98h57z" />
<glyph unicode="D&#x30c;" horiz-adv-x="833" d="M68 20l32 18q20 11 20 57v448q0 66 -7 80.5t-41 17.5l-37 3v37q149 -3 162 -3q5 0 239 3q101 -1 165.5 -20.5t107.5 -62.5q77 -75 77 -222q0 -162 -104 -263q-118 -116 -303 -116l-59 1q-50 2 -97 2q-19 0 -155 -3v23zM261 627v-570q31 -5 68 -5q162 0 234 71 q73 73 73 225q0 146 -66 211q-74 72 -246 72q-31 0 -63 -4zM462 720h-93l-121 175h55l113 -98l112 98h57z" />
<glyph unicode="d&#x30c;" horiz-adv-x="711" d="M508 714v-614q0 -40 6.5 -51t29.5 -13l33 -2v-37q-21 1 -47 1q-11 0 -24 0.5t-19.5 1t-10.5 0.5l-90 -3l-5 8l5 75l-104 -85q-15 -12 -49 -12q-88 0 -139.5 63.5t-51.5 170.5q0 125 84 181l72 47q41 26 88 26q37 0 80 -17l20 -8v122q0 44 -4.5 56.5t-21.5 13.5l-53 3v36 q80 8 121 21l72 22zM386 160v184q-48 63 -112 63q-106 0 -106 -152q0 -81 31.5 -129t84.5 -48q41 0 71.5 24t30.5 58zM605 486l-59 -24l-13 14q49 110 67 217q64 8 118 30l13 -12q-41 -94 -126 -225z" />
<glyph unicode="E&#x304;" d="M265 620v-240q20 -2 67 -2h66q31 0 43 4.5t14 16.5l6 57h40q-3 -95 -3 -107l3 -108h-40l-6 50q-4 37 -57 37h-66q-25 0 -67 -3v-267q77 -3 131 -3q73 0 116 14q3 1 3 3l23 94h39l-11 -158l-5 -8q-77 -4 -141 -4q-57 0 -192 4h-34q-23 0 -122 -3v23l32 18q20 11 20 57v448 q0 66 -7 80.5t-41 17.5l-37 3v37q165 -3 188 -3q57 0 130 2q21 0 45.5 0.5t38.5 1t24 0.5q46 0 95 -4l6 -7l-14 -142h-36l-8 75q-1 8 -29.5 14t-68.5 6q-70 0 -145 -4zM432 748h-331v71h331v-71z" />
<glyph unicode="e&#x304;" horiz-adv-x="500" d="M461 295v-52q-80 -20 -158 -20h-131q3 -61 24 -98q19 -32 53 -51.5t73 -19.5q54 0 117 35l12 -15l-22 -48q-83 -43 -158 -43q-112 0 -170.5 62t-58.5 181q0 138 95 194l47 28q39 23 88 23q86 0 137.5 -48t51.5 -128zM250 273l84 3q-1 74 -20.5 106.5t-62.5 32.5 t-63 -32.5t-22 -106.5l32 -1q30 -2 48 -2h4zM416 538h-331v71h331v-71z" />
<glyph unicode="E&#x306;" d="M265 620v-240q20 -2 67 -2h66q31 0 43 4.5t14 16.5l6 57h40q-3 -95 -3 -107l3 -108h-40l-6 50q-4 37 -57 37h-66q-25 0 -67 -3v-267q77 -3 131 -3q73 0 116 14q3 1 3 3l23 94h39l-11 -158l-5 -8q-77 -4 -141 -4q-57 0 -192 4h-34q-23 0 -122 -3v23l32 18q20 11 20 57v448 q0 66 -7 80.5t-41 17.5l-37 3v37q165 -3 188 -3q57 0 130 2q21 0 45.5 0.5t38.5 1t24 0.5q46 0 95 -4l6 -7l-14 -142h-36l-8 75q-1 8 -29.5 14t-68.5 6q-70 0 -145 -4zM115 879h44q16 -87 104 -87q57 0 87 36q24 26 24 49v2h44q-5 -64 -26 -99q-41 -64 -125 -64 q-94 0 -133 74q-16 33 -19 89z" />
<glyph unicode="e&#x306;" horiz-adv-x="500" d="M461 295v-52q-80 -20 -158 -20h-131q3 -61 24 -98q19 -32 53 -51.5t73 -19.5q54 0 117 35l12 -15l-22 -48q-83 -43 -158 -43q-112 0 -170.5 62t-58.5 181q0 138 95 194l47 28q39 23 88 23q86 0 137.5 -48t51.5 -128zM250 273l84 3q-1 74 -20.5 106.5t-62.5 32.5 t-63 -32.5t-22 -106.5l32 -1q30 -2 48 -2h4zM99 669h44q16 -87 104 -87q57 0 87 36q24 26 24 49v2h44q-5 -64 -26 -99q-41 -64 -125 -64q-94 0 -133 74q-16 33 -19 89z" />
<glyph unicode="E&#x307;" d="M265 620v-240q20 -2 67 -2h66q31 0 43 4.5t14 16.5l6 57h40q-3 -95 -3 -107l3 -108h-40l-6 50q-4 37 -57 37h-66q-25 0 -67 -3v-267q77 -3 131 -3q73 0 116 14q3 1 3 3l23 94h39l-11 -158l-5 -8q-77 -4 -141 -4q-57 0 -192 4h-34q-23 0 -122 -3v23l32 18q20 11 20 57v448 q0 66 -7 80.5t-41 17.5l-37 3v37q165 -3 188 -3q57 0 130 2q21 0 45.5 0.5t38.5 1t24 0.5q46 0 95 -4l6 -7l-14 -142h-36l-8 75q-1 8 -29.5 14t-68.5 6q-70 0 -145 -4zM268 881q27 0 46.5 -20t19.5 -47q0 -28 -19.5 -47.5t-47.5 -19.5t-47.5 20t-19.5 48q0 27 20 46.5 t48 19.5z" />
<glyph unicode="e&#x307;" horiz-adv-x="500" d="M461 295v-52q-80 -20 -158 -20h-131q3 -61 24 -98q19 -32 53 -51.5t73 -19.5q54 0 117 35l12 -15l-22 -48q-83 -43 -158 -43q-112 0 -170.5 62t-58.5 181q0 138 95 194l47 28q39 23 88 23q86 0 137.5 -48t51.5 -128zM250 273l84 3q-1 74 -20.5 106.5t-62.5 32.5 t-63 -32.5t-22 -106.5l32 -1q30 -2 48 -2h4zM252 671q27 0 46.5 -20t19.5 -47q0 -28 -19.5 -47.5t-47.5 -19.5t-47.5 20t-19.5 48q0 27 20 46.5t48 19.5z" />
<glyph unicode="E&#x328;" d="M265 325v-267q77 -3 131 -3q73 0 116 14q3 1 3 3l23 94h39l-11 -158l-5 -8h-4l-8 -1q-32 -1 -57 -52q-17 -32 -17 -62q0 -33 17.5 -52.5t46.5 -19.5q27 0 68 15l6 -26q-44 -31 -111 -31q-49 0 -76 27t-27 75q0 89 85 123h-70q-62 0 -186 4h-34q-23 0 -122 -3v23l32 18 q20 11 20 57v448q0 66 -7 80.5t-41 17.5l-37 3v37q165 -3 188 -3q57 0 130 2q21 0 45.5 0.5t38.5 1t24 0.5q46 0 95 -4l6 -7l-14 -142h-36l-8 75q-1 8 -29.5 14t-68.5 6q-70 0 -145 -4v-240q20 -2 67 -2h66q31 0 43 4.5t14 16.5l6 57h40q-3 -95 -3 -107l3 -108h-40l-6 50 q-4 37 -57 37h-66q-25 0 -67 -3z" />
<glyph unicode="e&#x328;" horiz-adv-x="500" d="M439 89l12 -15l-22 -48q-38 -26 -62.5 -65t-24.5 -76q0 -33 17.5 -52.5t46.5 -19.5q27 0 68 15l6 -26q-44 -31 -111 -31q-49 0 -76 27t-27 76q0 81 68 115q-34 -6 -62 -6q-113 0 -171.5 62t-58.5 181q0 138 95 194l47 28q39 23 88 23q86 0 137.5 -48t51.5 -128v-52 q-80 -20 -158 -20h-131q3 -61 24 -98q19 -32 53 -51.5t73 -19.5q54 0 117 35zM250 273l84 3q-1 74 -20.5 106.5t-62.5 32.5t-63 -32.5t-22 -106.5l32 -1q30 -2 48 -2h4z" />
<glyph unicode="E&#x30c;" d="M265 620v-240q20 -2 67 -2h66q31 0 43 4.5t14 16.5l6 57h40q-3 -95 -3 -107l3 -108h-40l-6 50q-4 37 -57 37h-66q-25 0 -67 -3v-267q77 -3 131 -3q73 0 116 14q3 1 3 3l23 94h39l-11 -158l-5 -8q-77 -4 -141 -4q-57 0 -192 4h-34q-23 0 -122 -3v23l32 18q20 11 20 57v448 q0 66 -7 80.5t-41 17.5l-37 3v37q165 -3 188 -3q57 0 130 2q21 0 45.5 0.5t38.5 1t24 0.5q46 0 95 -4l6 -7l-14 -142h-36l-8 75q-1 8 -29.5 14t-68.5 6q-70 0 -145 -4zM312 720h-93l-121 175h55l113 -98l112 98h57z" />
<glyph unicode="e&#x30c;" horiz-adv-x="500" d="M461 295v-52q-80 -20 -158 -20h-131q3 -61 24 -98q19 -32 53 -51.5t73 -19.5q54 0 117 35l12 -15l-22 -48q-83 -43 -158 -43q-112 0 -170.5 62t-58.5 181q0 138 95 194l47 28q39 23 88 23q86 0 137.5 -48t51.5 -128zM250 273l84 3q-1 74 -20.5 106.5t-62.5 32.5 t-63 -32.5t-22 -106.5l32 -1q30 -2 48 -2h4zM296 510h-93l-121 175h55l113 -98l112 98h57z" />
<glyph unicode="G&#x306;" horiz-adv-x="833" d="M776 276v-34q-28 -6 -34.5 -12t-6.5 -24v-163q-90 -34 -155.5 -47t-141.5 -13q-178 0 -284.5 99t-106.5 264q0 162 111 255.5t303 93.5q135 0 261 -47l6 -11q-11 -45 -23 -153h-39l-5 86q-30 29 -58 40q-66 29 -147 29q-122 0 -190.5 -74.5t-68.5 -206.5q0 -143 74 -231 t195 -88q60 0 127 25v132q0 19 -12.5 27t-44.5 10l-53 2v41q121 -3 143 -3q26 0 150 3zM285 893h44q16 -87 104 -87q57 0 87 36q24 26 24 49v2h44q-5 -64 -26 -99q-41 -64 -125 -64q-94 0 -133 74q-16 33 -19 89z" />
<glyph unicode="g&#x306;" horiz-adv-x="556" d="M529 368l-77 4q5 -24 5 -47q0 -72 -44 -116q-64 -64 -174 -64q-4 0 -40 2q-29 -17 -29 -39q0 -30 47 -30q14 0 146 4h24q148 0 148 -124q0 -100 -81 -162t-212 -62q-99 0 -157.5 38.5t-58.5 103.5q0 46 26 62l81 48q-37 10 -52.5 25t-15.5 42q0 36 17 48l71 54 q-45 15 -69 41q-37 40 -37 96q0 79 60.5 129t156.5 50q93 0 152 -43q16 -1 36 -1q31 0 82 5zM252 421q-82 0 -82 -110q0 -56 22.5 -88t61.5 -32q80 0 80 108q0 122 -82 122zM272 -15q-76 0 -101 -11q-23 -11 -37 -34.5t-14 -51.5q0 -47 40.5 -75.5t107.5 -28.5t111.5 34.5 t44.5 86.5q0 48 -30.5 64t-121.5 16zM127 669h44q16 -87 104 -87q57 0 87 36q24 26 24 49v2h44q-5 -64 -26 -99q-41 -64 -125 -64q-94 0 -133 74q-16 33 -19 89z" />
<glyph unicode="G&#x307;" horiz-adv-x="833" d="M776 276v-34q-28 -6 -34.5 -12t-6.5 -24v-163q-90 -34 -155.5 -47t-141.5 -13q-178 0 -284.5 99t-106.5 264q0 162 111 255.5t303 93.5q135 0 261 -47l6 -11q-11 -45 -23 -153h-39l-5 86q-30 29 -58 40q-66 29 -147 29q-122 0 -190.5 -74.5t-68.5 -206.5q0 -143 74 -231 t195 -88q60 0 127 25v132q0 19 -12.5 27t-44.5 10l-53 2v41q121 -3 143 -3q26 0 150 3zM371 881q27 0 46.5 -20t19.5 -47q0 -28 -19.5 -47.5t-47.5 -19.5t-47.5 20t-19.5 48q0 27 20 46.5t48 19.5z" />
<glyph unicode="g&#x307;" horiz-adv-x="556" d="M529 368l-77 4q5 -24 5 -47q0 -72 -44 -116q-64 -64 -174 -64q-4 0 -40 2q-29 -17 -29 -39q0 -30 47 -30q14 0 146 4h24q148 0 148 -124q0 -100 -81 -162t-212 -62q-99 0 -157.5 38.5t-58.5 103.5q0 46 26 62l81 48q-37 10 -52.5 25t-15.5 42q0 36 17 48l71 54 q-45 15 -69 41q-37 40 -37 96q0 79 60.5 129t156.5 50q93 0 152 -43q16 -1 36 -1q31 0 82 5zM252 421q-82 0 -82 -110q0 -56 22.5 -88t61.5 -32q80 0 80 108q0 122 -82 122zM272 -15q-76 0 -101 -11q-23 -11 -37 -34.5t-14 -51.5q0 -47 40.5 -75.5t107.5 -28.5t111.5 34.5 t44.5 86.5q0 48 -30.5 64t-121.5 16zM280 671q27 0 46.5 -20t19.5 -47q0 -28 -19.5 -47.5t-47.5 -19.5t-47.5 20t-19.5 48q0 27 20 46.5t48 19.5z" />
<glyph unicode="G&#x327;" horiz-adv-x="833" d="M776 276v-34q-28 -6 -34.5 -12t-6.5 -24v-163q-90 -34 -155.5 -47t-141.5 -13q-178 0 -284.5 99t-106.5 264q0 162 111 255.5t303 93.5q135 0 261 -47l6 -11q-11 -45 -23 -153h-39l-5 86q-30 29 -58 40q-66 29 -147 29q-122 0 -190.5 -74.5t-68.5 -206.5q0 -143 74 -231 t195 -88q60 0 127 25v132q0 19 -12.5 27t-44.5 10l-53 2v41q121 -3 143 -3q26 0 150 3zM323 -277l-59 -24l-13 14q49 110 67 217q64 8 118 30l13 -12q-41 -94 -126 -225z" />
<glyph unicode="g&#x327;" horiz-adv-x="556" d="M529 368l-77 4q5 -24 5 -47q0 -72 -44 -116q-64 -64 -174 -64q-4 0 -40 2q-29 -17 -29 -39q0 -30 47 -30q14 0 146 4h24q148 0 148 -124q0 -100 -81 -162t-212 -62q-99 0 -157.5 38.5t-58.5 103.5q0 46 26 62l81 48q-37 10 -52.5 25t-15.5 42q0 36 17 48l71 54 q-45 15 -69 41q-37 40 -37 96q0 79 60.5 129t156.5 50q93 0 152 -43q16 -1 36 -1q31 0 82 5zM252 421q-82 0 -82 -110q0 -56 22.5 -88t61.5 -32q80 0 80 108q0 122 -82 122zM272 -15q-76 0 -101 -11q-23 -11 -37 -34.5t-14 -51.5q0 -47 40.5 -75.5t107.5 -28.5t111.5 34.5 t44.5 86.5q0 48 -30.5 64t-121.5 16zM325 731l59 24l13 -14q-49 -110 -67 -217q-68 -8 -118 -30l-13 12q41 94 126 225z" />
<glyph unicode="H&#x302;" horiz-adv-x="833" d="M262 543v-158q23 -2 81 -2h146q57 0 81 2v158q0 67 -6.5 79.5t-41.5 15.5l-37 3v40q120 -3 155 -3q34 0 156 3v-40l-37 -3q-35 -3 -41.5 -15.5t-6.5 -79.5v-408q0 -67 6.5 -79.5t41.5 -15.5l37 -3v-40q-121 3 -156 3q-34 0 -155 -3v40l37 3q35 3 41.5 15.5t6.5 79.5v190 q-52 2 -81 2h-146q-29 0 -81 -2v-190q0 -67 6.5 -79.5t41.5 -15.5l37 -3v-40q-121 3 -156 3q-34 0 -155 -3v40l37 3q35 3 41.5 15.5t6.5 79.5v408q0 67 -6.5 79.5t-41.5 15.5l-37 3v40q120 -3 155 -3q34 0 156 3v-40l-37 -3q-35 -3 -41.5 -15.5t-6.5 -79.5zM333 891h93 l123 -175h-57l-112 98l-113 -98h-55z" />
<glyph unicode="h&#x302;" d="M209 720l8 -6v-324l80 62q23 19 70 19q76 0 116 -42q35 -38 35 -143v-186q0 -40 6.5 -51t29.5 -13l33 -2v-37q-87 3 -101 3q-4 0 -90 -3v272q0 61 -22.5 88.5t-71.5 27.5q-33 0 -59 -21t-26 -47v-217q0 -40 6.5 -51t29.5 -13l35 -2v-37q-100 3 -135 3l-129 -3v37l35 2 q23 2 29.5 13t6.5 51v468q0 44 -4.5 56.5t-21.5 13.5l-45 3v36q77 10 113 21zM234 891h93l123 -175h-57l-112 98l-113 -98h-55z" />
<glyph unicode="I&#x303;" horiz-adv-x="389" d="M265 543v-408q0 -67 6.5 -79.5t41.5 -15.5l37 -3v-40q-121 3 -156 3q-34 0 -155 -3v40l37 3q35 3 41.5 15.5t6.5 79.5v408q0 67 -6.5 79.5t-41.5 15.5l-37 3v40q120 -3 155 -3q34 0 156 3v-40l-37 -3q-35 -3 -41.5 -15.5t-6.5 -79.5zM295 871h43q-18 -65 -46.5 -95.5 t-71.5 -30.5q-31 0 -84 25q-49 24 -77 24q-31 0 -46 -48h-40q6 55 38.5 90t77.5 35q29 0 80 -24t75 -24q18 0 27.5 9.5t23.5 38.5z" />
<glyph unicode="i&#x303;" horiz-adv-x="333" d="M217 471l10 -6v-365q0 -40 6.5 -51t29.5 -13l35 -2v-37q-100 3 -135 3l-129 -3v37l35 2q23 2 29.5 13t6.5 51v219q0 44 -4.5 56.5t-21.5 13.5l-45 3v36q14 2 15 2q60 7 98 19zM272 661h43q-18 -65 -46.5 -95.5t-71.5 -30.5q-31 0 -84 25q-49 24 -77 24q-31 0 -46 -48h-40 q6 55 38.5 90t77.5 35q29 0 80 -24t75 -24q18 0 27.5 9.5t23.5 38.5z" />
<glyph unicode="I&#x304;" horiz-adv-x="389" d="M265 543v-408q0 -67 6.5 -79.5t41.5 -15.5l37 -3v-40q-121 3 -156 3q-34 0 -155 -3v40l37 3q35 3 41.5 15.5t6.5 79.5v408q0 67 -6.5 79.5t-41.5 15.5l-37 3v40q120 -3 155 -3q34 0 156 3v-40l-37 -3q-35 -3 -41.5 -15.5t-6.5 -79.5zM321 748h-331v71h331v-71z" />
<glyph unicode="i&#x304;" horiz-adv-x="333" d="M217 471l10 -6v-365q0 -40 6.5 -51t29.5 -13l35 -2v-37q-100 3 -135 3l-129 -3v37l35 2q23 2 29.5 13t6.5 51v219q0 44 -4.5 56.5t-21.5 13.5l-45 3v36q14 2 15 2q60 7 98 19zM298 538h-331v71h331v-71z" />
<glyph unicode="I&#x306;" horiz-adv-x="389" d="M265 543v-408q0 -67 6.5 -79.5t41.5 -15.5l37 -3v-40q-121 3 -156 3q-34 0 -155 -3v40l37 3q35 3 41.5 15.5t6.5 79.5v408q0 67 -6.5 79.5t-41.5 15.5l-37 3v40q120 -3 155 -3q34 0 156 3v-40l-37 -3q-35 -3 -41.5 -15.5t-6.5 -79.5zM4 879h44q16 -87 104 -87q57 0 87 36 q24 26 24 49v2h44q-5 -64 -26 -99q-41 -64 -125 -64q-94 0 -133 74q-16 33 -19 89z" />
<glyph unicode="i&#x306;" horiz-adv-x="333" d="M217 471l10 -6v-365q0 -40 6.5 -51t29.5 -13l35 -2v-37q-100 3 -135 3l-129 -3v37l35 2q23 2 29.5 13t6.5 51v219q0 44 -4.5 56.5t-21.5 13.5l-45 3v36q14 2 15 2q60 7 98 19zM-19 669h44q16 -87 104 -87q57 0 87 36q24 26 24 49v2h44q-5 -64 -26 -99q-41 -64 -125 -64 q-94 0 -133 74q-16 33 -19 89z" />
<glyph unicode="I&#x328;" horiz-adv-x="389" d="M350 37v-40q-23 0 -34 -10q-19 -17 -32 -46.5t-13 -55.5q0 -33 17.5 -52.5t46.5 -19.5q27 0 68 15l6 -26q-44 -31 -111 -31q-49 0 -76 27t-27 75q0 69 51 106q12 8 40 20q-45 1 -91 1q-35 0 -156 -3v40l37 3q35 3 41.5 15.5t6.5 79.5v408q0 67 -6.5 79.5t-41.5 15.5 l-37 3v40q120 -3 155 -3q34 0 156 3v-40l-37 -3q-35 -3 -41.5 -15.5t-6.5 -79.5v-408q0 -67 6.5 -79.5t41.5 -15.5z" />
<glyph unicode="i&#x328;" horiz-adv-x="333" d="M227 465v-365q0 -40 6.5 -51t29.5 -13l35 -2v-37q-24 0 -41 -25q-32 -45 -32 -87q0 -33 17.5 -52.5t46.5 -19.5q27 0 68 15l6 -26q-44 -31 -111 -31q-49 0 -76 27t-27 75q0 69 51 106q12 8 40 20q-43 1 -77 1l-129 -3v37l35 2q23 2 29.5 13t6.5 51v219q0 44 -4.5 56.5 t-21.5 13.5l-45 3v36q14 2 15 2q60 7 98 19l70 22zM163 706q31 0 52.5 -22t21.5 -53t-22 -53t-53 -22t-53 22t-22 54q0 31 22 52.5t54 21.5z" />
<glyph unicode="I&#x307;" horiz-adv-x="389" d="M265 543v-408q0 -67 6.5 -79.5t41.5 -15.5l37 -3v-40q-121 3 -156 3q-34 0 -155 -3v40l37 3q35 3 41.5 15.5t6.5 79.5v408q0 67 -6.5 79.5t-41.5 15.5l-37 3v40q120 -3 155 -3q34 0 156 3v-40l-37 -3q-35 -3 -41.5 -15.5t-6.5 -79.5zM196 895q27 0 46.5 -20t19.5 -47 q0 -28 -19.5 -47.5t-47.5 -19.5t-47.5 20t-19.5 48q0 27 20 46.5t48 19.5z" />
<glyph unicode="J&#x302;" horiz-adv-x="389" d="M-11 -208v89l11 6q1 -1 4.5 -3t6.5 -5q35 -27 58 -27q30 0 42.5 29.5t12.5 100.5v561q0 67 -6.5 79.5t-41.5 15.5l-37 3v40q120 -3 155 -3q34 0 156 3v-40l-37 -3q-35 -3 -41.5 -15.5t-6.5 -79.5v-406q0 -78 -5.5 -117t-22.5 -75q-32 -67 -94.5 -112.5t-123.5 -45.5 q-14 0 -30 5zM158 891h93l123 -175h-57l-112 98l-113 -98h-55z" />
<glyph unicode="j&#x302;" horiz-adv-x="333" d="M7 -223h23q40 0 57.5 43t17.5 142v357q0 44 -4.5 56.5t-21.5 13.5l-45 3v36l18 2q58 8 95 19l70 22l10 -6v-367q0 -114 -11.5 -174.5t-40.5 -104.5q-57 -85 -130 -85l-32 2l-10 35zM119 681h93l123 -175h-57l-112 98l-113 -98h-55z" />
<glyph unicode="K&#x327;" horiz-adv-x="778" d="M265 343l197 193q25 25 58 62q8 8 10 12q26 27 26 46v25q87 -3 91 -3t91 3v-39q-47 -4 -69.5 -11t-40.5 -23l-222 -207l266 -313q42 -49 91 -50v-41q-17 1 -34 1q-51 2 -67 2l-102 -3l-208 249q-43 50 -55.5 62.5t-31.5 23.5v-197q0 -67 6.5 -79.5t41.5 -15.5l37 -3v-40 q-121 3 -156 3q-34 0 -155 -3v40l37 3q35 3 41.5 15.5t6.5 79.5v408q0 67 -6.5 79.5t-41.5 15.5l-37 3v40q120 -3 155 -3q34 0 156 3v-40l-37 -3q-35 -3 -41.5 -15.5t-6.5 -79.5v-200zM304 -277l-59 -24l-13 14q49 110 67 217q64 8 118 30l13 -12q-41 -94 -126 -225z" />
<glyph unicode="k&#x327;" d="M214 720l8 -6v-465q73 63 106 97l107 113h130v-38h-31q-24 0 -48 -18l-62 -45q-16 -10 -70 -64l-8 -8l196 -220q26 -29 55 -32v-34h-172q-55 70 -87 106l-106 120h-10v-126q0 -40 6.5 -51t29.5 -13l35 -2v-37q-101 3 -135 3l-129 -3v37l35 2q23 2 29.5 13t6.5 51v468 q0 44 -4.5 56.5t-21.5 13.5l-53 3v36q80 8 121 21zM238 -277l-59 -24l-13 14q49 110 67 217q64 8 118 30l13 -12q-41 -94 -126 -225z" />
<glyph unicode="L&#x301;" d="M265 543v-485q78 -3 131 -3q46 0 81.5 5t37.5 12l23 102h39l-11 -166l-5 -8q-77 -4 -141 -4q-57 0 -192 4h-34q-23 0 -122 -3v23l32 18q20 11 20 57v448q0 67 -6.5 79.5t-41.5 15.5l-37 3v40q120 -3 155 -3q34 0 156 3v-40l-37 -3q-35 -3 -41.5 -15.5t-6.5 -79.5z M178 716l129 148q33 37 65 37q20 0 32 -12t12 -32q0 -17 -9.5 -29t-33.5 -26l-8 -5l-131 -81h-56z" />
<glyph unicode="l&#x301;" horiz-adv-x="333" d="M217 720l8 -6v-614q0 -40 6.5 -51t29.5 -13l35 -2v-37q-100 3 -135 3l-129 -3v37l35 2q23 2 29.5 13t6.5 51v468q0 44 -4.5 56.5t-21.5 13.5l-53 3v36q80 8 121 21zM54 716l129 148q33 37 65 37q20 0 32 -12t12 -32q0 -17 -9.5 -29t-33.5 -26l-8 -5l-131 -81h-56z" />
<glyph unicode="L&#x327;" d="M265 543v-485q78 -3 131 -3q46 0 81.5 5t37.5 12l23 102h39l-11 -166l-5 -8q-77 -4 -141 -4q-57 0 -192 4h-34q-23 0 -122 -3v23l32 18q20 11 20 57v448q0 67 -6.5 79.5t-41.5 15.5l-37 3v40q120 -3 155 -3q34 0 156 3v-40l-37 -3q-35 -3 -41.5 -15.5t-6.5 -79.5z M220 -277l-59 -24l-13 14q49 110 67 217q64 8 118 30l13 -12q-41 -94 -126 -225z" />
<glyph unicode="l&#x327;" horiz-adv-x="333" d="M217 720l8 -6v-614q0 -40 6.5 -51t29.5 -13l35 -2v-37q-100 3 -135 3l-129 -3v37l35 2q23 2 29.5 13t6.5 51v468q0 44 -4.5 56.5t-21.5 13.5l-53 3v36q80 8 121 21zM96 -277l-59 -24l-13 14q49 110 67 217q64 8 118 30l13 -12q-41 -94 -126 -225z" />
<glyph unicode="L&#x30c;" d="M265 543v-485q78 -3 131 -3q46 0 81.5 5t37.5 12l23 102h39l-11 -166l-5 -8q-77 -4 -141 -4q-57 0 -192 4h-34q-23 0 -122 -3v23l32 18q20 11 20 57v448q0 67 -6.5 79.5t-41.5 15.5l-37 3v40q120 -3 155 -3q34 0 156 3v-40l-37 -3q-35 -3 -41.5 -15.5t-6.5 -79.5z M479 458l-59 -24l-13 14q49 110 67 217q64 8 118 30l13 -12q-41 -94 -126 -225z" />
<glyph unicode="l&#x30c;" horiz-adv-x="433" d="M217 720l8 -6v-614q0 -40 6.5 -51t29.5 -13l35 -2v-37q-100 3 -135 3l-129 -3v37l35 2q23 2 29.5 13t6.5 51v468q0 44 -4.5 56.5t-21.5 13.5l-53 3v36q80 8 121 21zM327 486l-59 -24l-13 14q49 110 67 217q64 8 118 30l13 -12q-41 -94 -126 -225z" />
<glyph unicode="L&#xb7;" d="M265 543v-485q78 -3 131 -3q46 0 81.5 5t37.5 12l23 102h39l-11 -166l-5 -8q-77 -4 -141 -4q-57 0 -192 4h-34q-23 0 -122 -3v23l32 18q20 11 20 57v448q0 67 -6.5 79.5t-41.5 15.5l-37 3v40q120 -3 155 -3q34 0 156 3v-40l-37 -3q-35 -3 -41.5 -15.5t-6.5 -79.5z M397 417q30 0 53.5 -24t23.5 -55t-23.5 -54t-55.5 -23q-31 0 -54 23t-23 54q0 32 24 55.5t55 23.5z" />
<glyph unicode="l&#xb7;" horiz-adv-x="494" d="M365 365q30 0 53.5 -24t23.5 -55t-23.5 -54t-55.5 -23q-31 0 -54 23t-23 54q0 32 24 55.5t55 23.5zM217 720l8 -6v-614q0 -40 6.5 -51t29.5 -13l35 -2v-37q-100 3 -135 3l-129 -3v37l35 2q23 2 29.5 13t6.5 51v468q0 44 -4.5 56.5t-21.5 13.5l-53 3v36q80 8 121 21z" />
<glyph unicode="N&#x301;" horiz-adv-x="833" d="M155 678l84 3q83 -110 103 -133l312 -364v359q0 66 -7 80.5t-41 17.5l-37 3v37q88 -3 115 -3l114 3v-37l-37 -3q-34 -3 -41 -17.5t-7 -80.5v-454q0 -17 3 -101l-7 -4l-82 13l-122 139l-326 392v-393q0 -66 7 -80.5t41 -17.5l37 -3v-37q-72 3 -114 3q-19 0 -115 -3v37 l37 3q34 3 41 17.5t7 80.5v408q0 66 -7 80.5t-41 17.5l-37 3v37q85 -3 99 -3h21zM293 716l129 148q33 37 65 37q20 0 32 -12t12 -32q0 -17 -9.5 -29t-33.5 -26l-8 -5l-131 -81h-56z" />
<glyph unicode="n&#x301;" d="M24 392v36q42 2 76 10t111 33l6 -6v-75l80 62q23 19 70 19q76 0 116 -42q35 -38 35 -143v-186q0 -40 6.5 -51t29.5 -13l33 -2v-37q-87 3 -101 3q-4 0 -90 -3v273q0 60 -22.5 87.5t-71.5 27.5q-33 0 -59 -21t-26 -47v-217q0 -40 6.5 -51t29.5 -13l35 -2v-37q-100 3 -135 3 l-129 -3v37l35 2q23 2 29.5 13t6.5 51v219q0 44 -4.5 56.5t-21.5 13.5zM193 506l129 148q33 37 65 37q20 0 32 -12t12 -32q0 -17 -9.5 -29t-33.5 -26l-8 -5l-131 -81h-56z" />
<glyph unicode="N&#x327;" horiz-adv-x="833" d="M155 678l84 3q83 -110 103 -133l312 -364v359q0 66 -7 80.5t-41 17.5l-37 3v37q88 -3 115 -3l114 3v-37l-37 -3q-34 -3 -41 -17.5t-7 -80.5v-454q0 -17 3 -101l-7 -4l-82 13l-122 139l-326 392v-393q0 -66 7 -80.5t41 -17.5l37 -3v-37q-72 3 -114 3q-19 0 -115 -3v37 l37 3q34 3 41 17.5t7 80.5v408q0 66 -7 80.5t-41 17.5l-37 3v37q85 -3 99 -3h21zM335 -277l-59 -24l-13 14q49 110 67 217q64 8 118 30l13 -12q-41 -94 -126 -225z" />
<glyph unicode="n&#x327;" d="M24 392v36q42 2 76 10t111 33l6 -6v-75l80 62q23 19 70 19q76 0 116 -42q35 -38 35 -143v-186q0 -40 6.5 -51t29.5 -13l33 -2v-37q-87 3 -101 3q-4 0 -90 -3v273q0 60 -22.5 87.5t-71.5 27.5q-33 0 -59 -21t-26 -47v-217q0 -40 6.5 -51t29.5 -13l35 -2v-37q-100 3 -135 3 l-129 -3v37l35 2q23 2 29.5 13t6.5 51v219q0 44 -4.5 56.5t-21.5 13.5zM235 -277l-59 -24l-13 14q49 110 67 217q64 8 118 30l13 -12q-41 -94 -126 -225z" />
<glyph unicode="N&#x30c;" horiz-adv-x="833" d="M155 678l84 3q83 -110 103 -133l312 -364v359q0 66 -7 80.5t-41 17.5l-37 3v37q88 -3 115 -3l114 3v-37l-37 -3q-34 -3 -41 -17.5t-7 -80.5v-454q0 -17 3 -101l-7 -4l-82 13l-122 139l-326 392v-393q0 -66 7 -80.5t41 -17.5l37 -3v-37q-72 3 -114 3q-19 0 -115 -3v37 l37 3q34 3 41 17.5t7 80.5v408q0 66 -7 80.5t-41 17.5l-37 3v37q85 -3 99 -3h21zM427 720h-93l-121 175h55l113 -98l112 98h57z" />
<glyph unicode="n&#x30c;" d="M24 392v36q42 2 76 10t111 33l6 -6v-75l80 62q23 19 70 19q76 0 116 -42q35 -38 35 -143v-186q0 -40 6.5 -51t29.5 -13l33 -2v-37q-87 3 -101 3q-4 0 -90 -3v273q0 60 -22.5 87.5t-71.5 27.5q-33 0 -59 -21t-26 -47v-217q0 -40 6.5 -51t29.5 -13l35 -2v-37q-100 3 -135 3 l-129 -3v37l35 2q23 2 29.5 13t6.5 51v219q0 44 -4.5 56.5t-21.5 13.5zM327 510h-93l-121 175h55l113 -98l112 98h57z" />
<glyph unicode="O&#x304;" horiz-adv-x="833" d="M430 695q169 0 263 -92t94 -257q0 -171 -100.5 -267t-279.5 -96q-172 0 -266 91t-94 258q0 172 101 267.5t282 95.5zM421 639q-95 0 -154 -57q-70 -70 -70 -227q0 -181 85 -264q52 -52 132 -52q110 0 166.5 72.5t56.5 213.5q0 179 -86 263q-53 51 -130 51zM582 748h-331 v71h331v-71z" />
<glyph unicode="o&#x304;" horiz-adv-x="556" d="M287 471q111 0 170.5 -60.5t59.5 -174.5q0 -121 -65 -187t-185 -66q-109 0 -168 63t-59 178q0 119 64 183t183 64zM275 423q-52 0 -75.5 -42t-23.5 -133q0 -217 109 -217q51 0 73.5 41t22.5 133q0 218 -106 218zM444 538h-331v71h331v-71z" />
<glyph unicode="O&#x306;" horiz-adv-x="833" d="M430 695q169 0 263 -92t94 -257q0 -171 -100.5 -267t-279.5 -96q-172 0 -266 91t-94 258q0 172 101 267.5t282 95.5zM421 639q-95 0 -154 -57q-70 -70 -70 -227q0 -181 85 -264q52 -52 132 -52q110 0 166.5 72.5t56.5 213.5q0 179 -86 263q-53 51 -130 51zM265 879h44 q16 -87 104 -87q57 0 87 36q24 26 24 49v2h44q-5 -64 -26 -99q-41 -64 -125 -64q-94 0 -133 74q-16 33 -19 89z" />
<glyph unicode="o&#x306;" horiz-adv-x="556" d="M287 471q111 0 170.5 -60.5t59.5 -174.5q0 -121 -65 -187t-185 -66q-109 0 -168 63t-59 178q0 119 64 183t183 64zM275 423q-52 0 -75.5 -42t-23.5 -133q0 -217 109 -217q51 0 73.5 41t22.5 133q0 218 -106 218zM127 669h44q16 -87 104 -87q57 0 87 36q24 26 24 49v2h44 q-5 -64 -26 -99q-41 -64 -125 -64q-94 0 -133 74q-16 33 -19 89z" />
<glyph unicode="O&#x30b;" horiz-adv-x="833" d="M430 695q169 0 263 -92t94 -257q0 -171 -100.5 -267t-279.5 -96q-172 0 -266 91t-94 258q0 172 101 267.5t282 95.5zM421 639q-95 0 -154 -57q-70 -70 -70 -227q0 -181 85 -264q52 -52 132 -52q110 0 166.5 72.5t56.5 213.5q0 179 -86 263q-53 51 -130 51zM402 716 l128 148q19 22 32 29.5t31 7.5q21 0 34 -13t13 -34q0 -25 -19 -37l-165 -101h-54zM194 716l128 148q19 22 32 29.5t31 7.5q21 0 34 -13t13 -33q0 -26 -19 -38l-165 -101h-54z" />
<glyph unicode="o&#x30b;" horiz-adv-x="556" d="M287 471q111 0 170.5 -60.5t59.5 -174.5q0 -121 -65 -187t-185 -66q-109 0 -168 63t-59 178q0 119 64 183t183 64zM275 423q-52 0 -75.5 -42t-23.5 -133q0 -217 109 -217q51 0 73.5 41t22.5 133q0 218 -106 218zM264 506l128 148q19 22 32 29.5t31 7.5q21 0 34 -13 t13 -34q0 -25 -19 -37l-165 -101h-54zM56 506l128 148q19 22 32 29.5t31 7.5q21 0 34 -13t13 -33q0 -26 -19 -38l-165 -101h-54z" />
<glyph unicode="R&#x301;" horiz-adv-x="722" d="M457 356l181 -274q18 -24 30.5 -32t39.5 -13v-40q-32 2 -97 3l-90 -3l-224 347l7 18h10q53 0 84 19q66 39 66 122q0 61 -36.5 94.5t-103.5 33.5q-38 0 -59 -9v-487q0 -67 6.5 -79.5t41.5 -15.5l37 -3v-40q-121 3 -156 3q-34 0 -155 -3v40l37 3q35 3 41.5 15.5t6.5 79.5 v408q0 66 -7 80.5t-41 17.5l-37 3v37q150 -3 178 -3q78 0 130 2q34 1 69 1q190 0 190 -147q0 -64 -43 -110q-33 -38 -106 -68zM234 716l129 148q33 37 65 37q20 0 32 -12t12 -32q0 -17 -9.5 -29t-33.5 -26l-8 -5l-131 -81h-56z" />
<glyph unicode="r&#x301;" horiz-adv-x="389" d="M213 471l10 -6v-95l44 48q29 31 46.5 42t38.5 11q22 0 37 -6l-5 -129l-24 -10q-21 36 -57 36q-29 0 -54.5 -20.5t-25.5 -43.5v-198q0 -42 8 -52t40 -12l39 -2v-37q-135 3 -151 3l-129 -3v37l35 2q23 2 29.5 13t6.5 51v219q0 44 -4.5 56.5t-21.5 13.5l-45 3v36 q77 10 113 21zM76 506l129 148q33 37 65 37q20 0 32 -12t12 -32q0 -17 -9.5 -29t-33.5 -26l-8 -5l-131 -81h-56z" />
<glyph unicode="R&#x327;" horiz-adv-x="722" d="M457 356l181 -274q18 -24 30.5 -32t39.5 -13v-40q-32 2 -97 3l-90 -3l-224 347l7 18h10q53 0 84 19q66 39 66 122q0 61 -36.5 94.5t-103.5 33.5q-38 0 -59 -9v-487q0 -67 6.5 -79.5t41.5 -15.5l37 -3v-40q-121 3 -156 3q-34 0 -155 -3v40l37 3q35 3 41.5 15.5t6.5 79.5 v408q0 66 -7 80.5t-41 17.5l-37 3v37q150 -3 178 -3q78 0 130 2q34 1 69 1q190 0 190 -147q0 -64 -43 -110q-33 -38 -106 -68zM276 -277l-59 -24l-13 14q49 110 67 217q64 8 118 30l13 -12q-41 -94 -126 -225z" />
<glyph unicode="r&#x327;" horiz-adv-x="389" d="M213 471l10 -6v-95l44 48q29 31 46.5 42t38.5 11q22 0 37 -6l-5 -129l-24 -10q-21 36 -57 36q-29 0 -54.5 -20.5t-25.5 -43.5v-198q0 -42 8 -52t40 -12l39 -2v-37q-135 3 -151 3l-129 -3v37l35 2q23 2 29.5 13t6.5 51v219q0 44 -4.5 56.5t-21.5 13.5l-45 3v36 q77 10 113 21zM118 -277l-59 -24l-13 14q49 110 67 217q64 8 118 30l13 -12q-41 -94 -126 -225z" />
<glyph unicode="R&#x30c;" horiz-adv-x="722" d="M457 356l181 -274q18 -24 30.5 -32t39.5 -13v-40q-32 2 -97 3l-90 -3l-224 347l7 18h10q53 0 84 19q66 39 66 122q0 61 -36.5 94.5t-103.5 33.5q-38 0 -59 -9v-487q0 -67 6.5 -79.5t41.5 -15.5l37 -3v-40q-121 3 -156 3q-34 0 -155 -3v40l37 3q35 3 41.5 15.5t6.5 79.5 v408q0 66 -7 80.5t-41 17.5l-37 3v37q150 -3 178 -3q78 0 130 2q34 1 69 1q190 0 190 -147q0 -64 -43 -110q-33 -38 -106 -68zM368 720h-93l-121 175h55l113 -98l112 98h57z" />
<glyph unicode="r&#x30c;" horiz-adv-x="389" d="M213 471l10 -6v-95l44 48q29 31 46.5 42t38.5 11q22 0 37 -6l-5 -129l-24 -10q-21 36 -57 36q-29 0 -54.5 -20.5t-25.5 -43.5v-198q0 -42 8 -52t40 -12l39 -2v-37q-135 3 -151 3l-129 -3v37l35 2q23 2 29.5 13t6.5 51v219q0 44 -4.5 56.5t-21.5 13.5l-45 3v36 q77 10 113 21zM210 510h-93l-121 175h55l113 -98l112 98h57z" />
<glyph unicode="S&#x301;" d="M72 202h40l7 -88q23 -35 68 -56t96 -21q65 0 107.5 37t42.5 92q0 71 -83 96l-140 42q-71 21 -108.5 67t-37.5 110q0 101 70.5 157.5t194.5 56.5q90 0 185 -34l5 -12q-14 -45 -14 -142h-41l-6 82q-56 55 -136 55q-59 0 -96.5 -32.5t-37.5 -84.5q0 -38 25.5 -62.5 t80.5 -38.5l114 -30q151 -40 151 -176q0 -108 -80 -172.5t-214 -64.5q-106 0 -208 46q15 78 15 173zM217 716l129 148q33 37 65 37q20 0 32 -12t12 -32q0 -17 -9.5 -29t-33.5 -26l-8 -5l-131 -81h-56z" />
<glyph unicode="s&#x301;" horiz-adv-x="444" d="M362 326h-36l-10 58q-2 15 -29.5 27t-57.5 12q-41 0 -64.5 -17.5t-23.5 -47.5q0 -23 13 -36t42 -20l82 -18q68 -15 97.5 -45t29.5 -84q0 -77 -58 -124.5t-153 -47.5q-75 0 -155 28l7 141h39l5 -69q45 -52 112 -52q42 0 67 21t25 56q0 26 -14 40.5t-49 22.5l-86 21 q-106 26 -106 125q0 75 53.5 114.5t154.5 39.5q70 0 123 -23zM134 506l129 148q33 37 65 37q20 0 32 -12t12 -32q0 -17 -9.5 -29t-33.5 -26l-8 -5l-131 -81h-56z" />
<glyph unicode="S&#x302;" d="M72 202h40l7 -88q23 -35 68 -56t96 -21q65 0 107.5 37t42.5 92q0 71 -83 96l-140 42q-71 21 -108.5 67t-37.5 110q0 101 70.5 157.5t194.5 56.5q90 0 185 -34l5 -12q-14 -45 -14 -142h-41l-6 82q-56 55 -136 55q-59 0 -96.5 -32.5t-37.5 -84.5q0 -38 25.5 -62.5 t80.5 -38.5l114 -30q151 -40 151 -176q0 -108 -80 -172.5t-214 -64.5q-106 0 -208 46q15 78 15 173zM258 891h93l123 -175h-57l-112 98l-113 -98h-55z" />
<glyph unicode="s&#x302;" horiz-adv-x="444" d="M362 326h-36l-10 58q-2 15 -29.5 27t-57.5 12q-41 0 -64.5 -17.5t-23.5 -47.5q0 -23 13 -36t42 -20l82 -18q68 -15 97.5 -45t29.5 -84q0 -77 -58 -124.5t-153 -47.5q-75 0 -155 28l7 141h39l5 -69q45 -52 112 -52q42 0 67 21t25 56q0 26 -14 40.5t-49 22.5l-86 21 q-106 26 -106 125q0 75 53.5 114.5t154.5 39.5q70 0 123 -23zM175 681h93l123 -175h-57l-112 98l-113 -98h-55z" />
<glyph unicode="S&#x327;" d="M72 202h40l7 -88q23 -35 68 -56t96 -21q65 0 107.5 37t42.5 92q0 71 -83 96l-140 42q-71 21 -108.5 67t-37.5 110q0 101 70.5 157.5t194.5 56.5q90 0 185 -34l5 -12q-14 -45 -14 -142h-41l-6 82q-56 55 -136 55q-59 0 -96.5 -32.5t-37.5 -84.5q0 -38 25.5 -62.5 t80.5 -38.5l114 -30q151 -40 151 -176q0 -108 -80 -172.5t-214 -64.5q-106 0 -208 46q15 78 15 173zM261 -103l43 96h41l-28 -64q23 6 45 6q35 0 56 -19.5t21 -53.5q0 -40 -36 -63.5t-97 -23.5q-40 0 -94 18l16 37q44 -9 67 -9q50 0 50 37q0 35 -38 35q-4 0 -36 -4z" />
<glyph unicode="s&#x327;" horiz-adv-x="444" d="M362 326h-36l-10 58q-2 15 -29.5 27t-57.5 12q-41 0 -64.5 -17.5t-23.5 -47.5q0 -23 13 -36t42 -20l82 -18q68 -15 97.5 -45t29.5 -84q0 -77 -58 -124.5t-153 -47.5q-75 0 -155 28l7 141h39l5 -69q45 -52 112 -52q42 0 67 21t25 56q0 26 -14 40.5t-49 22.5l-86 21 q-106 26 -106 125q0 75 53.5 114.5t154.5 39.5q70 0 123 -23zM178 -103l43 96h41l-28 -64q23 6 45 6q35 0 56 -19.5t21 -53.5q0 -40 -36 -63.5t-97 -23.5q-40 0 -94 18l16 37q44 -9 67 -9q50 0 50 37q0 35 -38 35q-4 0 -36 -4z" />
<glyph unicode="S&#x30c;" d="M72 202h40l7 -88q23 -35 68 -56t96 -21q65 0 107.5 37t42.5 92q0 71 -83 96l-140 42q-71 21 -108.5 67t-37.5 110q0 101 70.5 157.5t194.5 56.5q90 0 185 -34l5 -12q-14 -45 -14 -142h-41l-6 82q-56 55 -136 55q-59 0 -96.5 -32.5t-37.5 -84.5q0 -38 25.5 -62.5 t80.5 -38.5l114 -30q151 -40 151 -176q0 -108 -80 -172.5t-214 -64.5q-106 0 -208 46q15 78 15 173zM351 720h-93l-121 175h55l113 -98l112 98h57z" />
<glyph unicode="s&#x30c;" horiz-adv-x="444" d="M362 326h-36l-10 58q-2 15 -29.5 27t-57.5 12q-41 0 -64.5 -17.5t-23.5 -47.5q0 -23 13 -36t42 -20l82 -18q68 -15 97.5 -45t29.5 -84q0 -77 -58 -124.5t-153 -47.5q-75 0 -155 28l7 141h39l5 -69q45 -52 112 -52q42 0 67 21t25 56q0 26 -14 40.5t-49 22.5l-86 21 q-106 26 -106 125q0 75 53.5 114.5t154.5 39.5q70 0 123 -23zM268 510h-93l-121 175h55l113 -98l112 98h57z" />
<glyph unicode="T&#x30c;" horiz-adv-x="667" d="M404 619v-484q0 -67 6.5 -79.5t41.5 -15.5l37 -3v-40q-121 3 -156 3q-34 0 -155 -3v40l37 3q35 3 41.5 15.5t6.5 79.5v484h-117q-56 0 -63 -10q-8 -13 -8 -23l-5 -69h-40q-4 106 -13 159l6 5q276 -3 311 -3q34 0 310 3l6 -5q-10 -63 -13 -159h-40l-5 69l-9 24 q-12 9 -62 9h-117zM362 720h-93l-121 175h55l113 -98l112 98h57z" />
<glyph unicode="t&#x30c;" horiz-adv-x="402" d="M324 60l-49 -59q-15 -18 -65 -18q-65 0 -94.5 30t-29.5 97v259l-64 -4v22l66 43v60q0 23 -4 92q78 29 122 50l14 -10q-12 -67 -12 -136v-58l114 6l-8 -65h-106v-238q0 -37 13.5 -51t48.5 -14q20 0 46 13zM296 458l-59 -24l-13 14q49 110 67 217q64 8 118 30l13 -12 q-41 -94 -126 -225z" />
<glyph unicode="U&#x303;" horiz-adv-x="778" d="M675 543v-292q0 -136 -70.5 -202t-213.5 -66q-129 0 -204.5 52.5t-75.5 141.5v366q0 66 -7 80.5t-41 17.5l-37 3v37q120 -3 155 -3q34 0 156 3v-37l-37 -3q-34 -3 -41 -17.5t-7 -80.5v-248q0 -77 8 -117t27 -64q40 -49 141 -49q99 0 141 43q26 26 36.5 70.5t10.5 123.5 v241q0 66 -7 80.5t-41 17.5l-37 3v37q88 -3 115 -3l114 3v-37l-37 -3q-34 -3 -41 -17.5t-7 -80.5zM503 871h43q-18 -65 -46.5 -95.5t-71.5 -30.5q-31 0 -84 25q-49 24 -77 24q-31 0 -46 -48h-40q6 55 38.5 90t77.5 35q29 0 80 -24t75 -24q18 0 27.5 9.5t23.5 38.5z" />
<glyph unicode="u&#x303;" d="M392 80l-76 -74q-23 -23 -70 -23q-72 0 -111 40.5t-39 116.5v179q0 44 -4.5 56.5t-21.5 13.5l-45 3v36q75 10 113 21l70 22l10 -6v-261q0 -72 17.5 -101.5t60.5 -29.5q40 0 68 26.5t28 63.5v156q0 44 -4.5 56.5t-21.5 13.5l-45 3v36q76 10 113 21l70 22l10 -6v-365 q0 -40 6.5 -51t29.5 -13l33 -2v-37q-21 1 -47 1q-28 2 -55 2q-11 0 -94 -3zM445 661h43q-18 -65 -46.5 -95.5t-71.5 -30.5q-31 0 -84 25q-49 24 -77 24q-31 0 -46 -48h-40q6 55 38.5 90t77.5 35q29 0 80 -24t75 -24q18 0 27.5 9.5t23.5 38.5z" />
<glyph unicode="U&#x304;" horiz-adv-x="778" d="M675 543v-292q0 -136 -70.5 -202t-213.5 -66q-129 0 -204.5 52.5t-75.5 141.5v366q0 66 -7 80.5t-41 17.5l-37 3v37q120 -3 155 -3q34 0 156 3v-37l-37 -3q-34 -3 -41 -17.5t-7 -80.5v-248q0 -77 8 -117t27 -64q40 -49 141 -49q99 0 141 43q26 26 36.5 70.5t10.5 123.5 v241q0 66 -7 80.5t-41 17.5l-37 3v37q88 -3 115 -3l114 3v-37l-37 -3q-34 -3 -41 -17.5t-7 -80.5zM529 748h-331v71h331v-71z" />
<glyph unicode="u&#x304;" d="M392 80l-76 -74q-23 -23 -70 -23q-72 0 -111 40.5t-39 116.5v179q0 44 -4.5 56.5t-21.5 13.5l-45 3v36q75 10 113 21l70 22l10 -6v-261q0 -72 17.5 -101.5t60.5 -29.5q40 0 68 26.5t28 63.5v156q0 44 -4.5 56.5t-21.5 13.5l-45 3v36q76 10 113 21l70 22l10 -6v-365 q0 -40 6.5 -51t29.5 -13l33 -2v-37q-21 1 -47 1q-28 2 -55 2q-11 0 -94 -3zM471 538h-331v71h331v-71z" />
<glyph unicode="U&#x306;" horiz-adv-x="778" d="M675 543v-292q0 -136 -70.5 -202t-213.5 -66q-129 0 -204.5 52.5t-75.5 141.5v366q0 66 -7 80.5t-41 17.5l-37 3v37q120 -3 155 -3q34 0 156 3v-37l-37 -3q-34 -3 -41 -17.5t-7 -80.5v-248q0 -77 8 -117t27 -64q40 -49 141 -49q99 0 141 43q26 26 36.5 70.5t10.5 123.5 v241q0 66 -7 80.5t-41 17.5l-37 3v37q88 -3 115 -3l114 3v-37l-37 -3q-34 -3 -41 -17.5t-7 -80.5zM212 879h44q16 -87 104 -87q57 0 87 36q24 26 24 49v2h44q-5 -64 -26 -99q-41 -64 -125 -64q-94 0 -133 74q-16 33 -19 89z" />
<glyph unicode="u&#x306;" d="M392 80l-76 -74q-23 -23 -70 -23q-72 0 -111 40.5t-39 116.5v179q0 44 -4.5 56.5t-21.5 13.5l-45 3v36q75 10 113 21l70 22l10 -6v-261q0 -72 17.5 -101.5t60.5 -29.5q40 0 68 26.5t28 63.5v156q0 44 -4.5 56.5t-21.5 13.5l-45 3v36q76 10 113 21l70 22l10 -6v-365 q0 -40 6.5 -51t29.5 -13l33 -2v-37q-21 1 -47 1q-28 2 -55 2q-11 0 -94 -3zM154 669h44q16 -87 104 -87q57 0 87 36q24 26 24 49v2h44q-5 -64 -26 -99q-41 -64 -125 -64q-94 0 -133 74q-16 33 -19 89z" />
<glyph unicode="U&#x30a;" horiz-adv-x="778" d="M675 543v-292q0 -136 -70.5 -202t-213.5 -66q-129 0 -204.5 52.5t-75.5 141.5v366q0 66 -7 80.5t-41 17.5l-37 3v37q120 -3 155 -3q34 0 156 3v-37l-37 -3q-34 -3 -41 -17.5t-7 -80.5v-248q0 -77 8 -117t27 -64q40 -49 141 -49q99 0 141 43q26 26 36.5 70.5t10.5 123.5 v241q0 66 -7 80.5t-41 17.5l-37 3v37q88 -3 115 -3l114 3v-37l-37 -3q-34 -3 -41 -17.5t-7 -80.5zM366 910q40 0 69 -29.5t29 -70.5t-29.5 -70.5t-70.5 -29.5t-70.5 29.5t-29.5 71.5q0 41 29.5 70t72.5 29zM365 860q-22 0 -36.5 -14.5t-14.5 -35.5t14.5 -35.5t35.5 -14.5 t35.5 14.5t14.5 35.5q0 20 -14.5 35t-34.5 15z" />
<glyph unicode="u&#x30a;" d="M392 80l-76 -74q-23 -23 -70 -23q-72 0 -111 40.5t-39 116.5v179q0 44 -4.5 56.5t-21.5 13.5l-45 3v36q75 10 113 21l70 22l10 -6v-261q0 -72 17.5 -101.5t60.5 -29.5q40 0 68 26.5t28 63.5v156q0 44 -4.5 56.5t-21.5 13.5l-45 3v36q76 10 113 21l70 22l10 -6v-365 q0 -40 6.5 -51t29.5 -13l33 -2v-37q-21 1 -47 1q-28 2 -55 2q-11 0 -94 -3zM308 700q40 0 69 -29.5t29 -70.5t-29.5 -70.5t-70.5 -29.5t-70.5 29.5t-29.5 71.5q0 41 29.5 70t72.5 29zM307 650q-22 0 -36.5 -14.5t-14.5 -35.5t14.5 -35.5t35.5 -14.5t35.5 14.5t14.5 35.5 q0 20 -14.5 35t-34.5 15z" />
<glyph unicode="U&#x30b;" horiz-adv-x="778" d="M675 543v-292q0 -136 -70.5 -202t-213.5 -66q-129 0 -204.5 52.5t-75.5 141.5v366q0 66 -7 80.5t-41 17.5l-37 3v37q120 -3 155 -3q34 0 156 3v-37l-37 -3q-34 -3 -41 -17.5t-7 -80.5v-248q0 -77 8 -117t27 -64q40 -49 141 -49q99 0 141 43q26 26 36.5 70.5t10.5 123.5 v241q0 66 -7 80.5t-41 17.5l-37 3v37q88 -3 115 -3l114 3v-37l-37 -3q-34 -3 -41 -17.5t-7 -80.5zM349 716l128 148q19 22 32 29.5t31 7.5q21 0 34 -13t13 -34q0 -25 -19 -37l-165 -101h-54zM141 716l128 148q19 22 32 29.5t31 7.5q21 0 34 -13t13 -33q0 -26 -19 -38 l-165 -101h-54z" />
<glyph unicode="u&#x30b;" d="M392 80l-76 -74q-23 -23 -70 -23q-72 0 -111 40.5t-39 116.5v179q0 44 -4.5 56.5t-21.5 13.5l-45 3v36q75 10 113 21l70 22l10 -6v-261q0 -72 17.5 -101.5t60.5 -29.5q40 0 68 26.5t28 63.5v156q0 44 -4.5 56.5t-21.5 13.5l-45 3v36q76 10 113 21l70 22l10 -6v-365 q0 -40 6.5 -51t29.5 -13l33 -2v-37q-21 1 -47 1q-28 2 -55 2q-11 0 -94 -3zM291 506l128 148q19 22 32 29.5t31 7.5q21 0 34 -13t13 -34q0 -25 -19 -37l-165 -101h-54zM83 506l128 148q19 22 32 29.5t31 7.5q21 0 34 -13t13 -33q0 -26 -19 -38l-165 -101h-54z" />
<glyph unicode="U&#x328;" horiz-adv-x="778" d="M624 -172l6 -26q-44 -31 -112 -31q-48 0 -75 27t-27 75q0 88 80 121q-51 -11 -105 -11q-129 0 -204.5 52.5t-75.5 141.5v366q0 66 -7 80.5t-41 17.5l-37 3v37q120 -3 155 -3q34 0 156 3v-37l-37 -3q-34 -3 -41 -17.5t-7 -80.5v-248q0 -77 8 -117t27 -64q40 -49 141 -49 q99 0 141 43q26 26 36.5 70.5t10.5 123.5v241q0 66 -7 80.5t-41 17.5l-37 3v37q88 -3 115 -3l114 3v-37l-37 -3q-34 -3 -41 -17.5t-7 -80.5v-292q0 -95 -35 -157q-12 -22 -21 -31.5t-53 -44.5q-74 -61 -74 -133q0 -33 17.5 -52.5t46.5 -19.5q26 0 68 15z" />
<glyph unicode="u&#x328;" d="M514 465v-365q0 -40 6.5 -51t29.5 -13l33 -2v-37q-22 0 -32 -7q-16 -11 -36 -54q-12 -27 -12 -51q0 -33 17.5 -52.5t46.5 -19.5q27 0 68 15l6 -26q-44 -31 -111 -31q-49 0 -76 27t-27 75q0 69 51 106q10 7 41 20q-35 1 -39 1q-10 0 -93 -3l5 83l-76 -74q-23 -23 -70 -23 q-72 0 -111 40.5t-39 116.5v179q0 44 -4.5 56.5t-21.5 13.5l-45 3v36q75 10 113 21l70 22l10 -6v-261q0 -72 17.5 -101.5t60.5 -29.5q40 0 68 26.5t28 63.5v156q0 44 -4.5 56.5t-21.5 13.5l-45 3v36q76 10 113 21l70 22z" />
<glyph unicode="W&#x302;" horiz-adv-x="1000" d="M320 207l150 355q6 13 15.5 37.5t13.5 33.5l22 53h45q32 -92 49 -133l137 -343l97 378q4 15 4 30q0 21 -35 23l-46 3v37q9 0 22 -0.5t20.5 -1t10.5 -0.5q26 -1 53 -1q10 0 110 3v-37l-33 -3q-24 -3 -43 -69l-122 -432q-9 -32 -33 -143h-73l-8 25l-9 23l-21 57l-149 375 l-155 -355q-16 -38 -47 -125h-70l-139 602q-10 39 -37 42l-32 3v37l156 -3q12 0 134 3v-37l-42 -3q-12 -1 -21 -8.5t-9 -16.5q0 -12 3 -26zM436 891h93l123 -175h-57l-112 98l-113 -98h-55z" />
<glyph unicode="w&#x302;" horiz-adv-x="833" d="M194 -3l-107 384q-6 20 -15 28t-26 10l-33 2v38q106 -3 136 -3l135 3v-38l-47 -2q-19 0 -19 -22q0 -11 2 -19l59 -227q7 18 17 37q1 2 5 11t6 14l29 63l87 195h50l138 -317q27 73 39 112l36 113q3 12 3 19q0 19 -29 21l-42 2v38q84 -3 101 -3t101 3v-38l-34 -2 q-19 -1 -36 -47l-92 -260l-21 -68q-2 -10 -14 -47h-81l-132 307q-58 -114 -79 -161t-58 -146h-79zM356 681h93l123 -175h-57l-112 98l-113 -98h-55z" />
<glyph unicode="Y&#x302;" horiz-adv-x="667" d="M395 356l188 322h77v-19l-176 -261q-26 -39 -53 -100v-163q0 -67 6.5 -79.5t41.5 -15.5l37 -3v-40q-121 3 -156 3q-34 0 -155 -3v40l37 3q35 3 41.5 15.5t6.5 79.5v139q-19 43 -44 85l-101 163q-44 64 -68 82t-62 18v37l159 36q34 -20 58.5 -49.5t55.5 -86.5zM271 891h93 l123 -175h-57l-112 98l-113 -98h-55z" />
<glyph unicode="y&#x302;" horiz-adv-x="556" d="M275 421l-35 -2q-26 -2 -26 -23q0 -12 11 -38q6 -14 6 -15l84 -218l101 252q4 10 4 22q0 18 -27 20l-33 2v38q88 -3 93 -3l93 3v-38l-26 -5q-22 -5 -41 -47l-199 -463q-74 -172 -176 -172q-35 0 -73 17l18 95l11 4q33 -37 70 -37q26 0 50.5 24t41.5 67l23 56l-158 404 q-21 54 -42 55l-35 2v38q104 -3 133 -3l132 3v-38zM221 681h93l123 -175h-57l-112 98l-113 -98h-55z" />
<glyph unicode="Y&#x308;" horiz-adv-x="667" d="M395 356l188 322h77v-19l-176 -261q-26 -39 -53 -100v-163q0 -67 6.5 -79.5t41.5 -15.5l37 -3v-40q-121 3 -156 3q-34 0 -155 -3v40l37 3q35 3 41.5 15.5t6.5 79.5v139q-19 43 -44 85l-101 163q-44 64 -68 82t-62 18v37l159 36q34 -20 58.5 -49.5t55.5 -86.5zM427 881 q27 0 46.5 -20t19.5 -47q0 -28 -19.5 -47.5t-47.5 -19.5t-47.5 20t-19.5 48q0 27 20 46.5t48 19.5zM212 881q27 0 46.5 -20t19.5 -47q0 -28 -19.5 -47.5t-47.5 -19.5t-47.5 19.5t-19.5 47.5t20 47.5t48 19.5z" />
<glyph unicode="Z&#x301;" horiz-adv-x="667" d="M623 681v-35q-41 -50 -83 -110l-325 -479h276q74 0 81 39l15 78h40q-14 -80 -16 -177q-197 3 -284 3q-89 0 -303 -3v38q59 74 104 139l306 446h-222q-53 0 -68 -7.5t-19 -38.5l-8 -55h-37v162l272 -3q19 0 271 3zM221 716l129 148q33 37 65 37q20 0 32 -12t12 -32 q0 -17 -9.5 -29t-33.5 -26l-8 -5l-131 -81h-56z" />
<glyph unicode="&#x7a;&#x301;" horiz-adv-x="500" d="M454 424l-268 -369h163q36 0 49.5 13t20.5 56l5 31h40q-12 -82 -12 -153l-5 -5l-273 3q-40 0 -158 -3v33l104 136l170 238h-118q-42 0 -56.5 -11.5t-19.5 -47.5l-3 -25h-38l3 134l7 5q180 -5 236 -5q62 0 153 5v-35zM146 506l129 148q33 37 65 37q20 0 32 -12t12 -32 q0 -17 -9.5 -29t-33.5 -26l-8 -5l-131 -81h-56z" />
<glyph unicode="Z&#x307;" horiz-adv-x="667" d="M623 681v-35q-41 -50 -83 -110l-325 -479h276q74 0 81 39l15 78h40q-14 -80 -16 -177q-197 3 -284 3q-89 0 -303 -3v38q59 74 104 139l306 446h-222q-53 0 -68 -7.5t-19 -38.5l-8 -55h-37v162l272 -3q19 0 271 3zM311 881q27 0 46.5 -20t19.5 -47q0 -28 -19.5 -47.5 t-47.5 -19.5t-47.5 20t-19.5 48q0 27 20 46.5t48 19.5z" />
<glyph unicode="&#x7a;&#x307;" horiz-adv-x="500" d="M454 424l-268 -369h163q36 0 49.5 13t20.5 56l5 31h40q-12 -82 -12 -153l-5 -5l-273 3q-40 0 -158 -3v33l104 136l170 238h-118q-42 0 -56.5 -11.5t-19.5 -47.5l-3 -25h-38l3 134l7 5q180 -5 236 -5q62 0 153 5v-35zM236 671q27 0 46.5 -20t19.5 -47q0 -28 -19.5 -47.5 t-47.5 -19.5t-47.5 20t-19.5 48q0 27 20 46.5t48 19.5z" />
<glyph unicode="Z&#x30c;" horiz-adv-x="667" d="M623 681v-35q-41 -50 -83 -110l-325 -479h276q74 0 81 39l15 78h40q-14 -80 -16 -177q-197 3 -284 3q-89 0 -303 -3v38q59 74 104 139l306 446h-222q-53 0 -68 -7.5t-19 -38.5l-8 -55h-37v162l272 -3q19 0 271 3zM355 720h-93l-121 175h55l113 -98l112 98h57z" />
<glyph unicode="&#x7a;&#x30c;" horiz-adv-x="500" d="M454 424l-268 -369h163q36 0 49.5 13t20.5 56l5 31h40q-12 -82 -12 -153l-5 -5l-273 3q-40 0 -158 -3v33l104 136l170 238h-118q-42 0 -56.5 -11.5t-19.5 -47.5l-3 -25h-38l3 134l7 5q180 -5 236 -5q62 0 153 5v-35zM280 510h-93l-121 175h55l113 -98l112 98h57z" />
<glyph unicode="A&#x30c;" horiz-adv-x="778" d="M469 206h-251l-42 -112q-5 -13 -5 -25q0 -13 8 -22t21 -10l50 -3v-37q-10 0 -23.5 0.5t-21.5 1t-12 0.5q-28 1 -56 1t-56 -1q-4 0 -12 -0.5t-21.5 -1t-23.5 -0.5v37l30 3q31 3 56 60l181 438q8 18 29 76l28 75h71l259 -605q17 -39 55 -44l24 -3v-37q-147 3 -158 3 q-12 0 -152 -3v37l53 3q20 2 20 27q0 13 -6 28zM342 516l-100 -254h204zM411 720h-93l-121 175h55l113 -98l112 98h57z" />
<glyph unicode="a&#x30c;" horiz-adv-x="500" d="M299 67l-93 -72q-15 -12 -49 -12q-57 0 -87 31.5t-30 92.5q0 64 38 97t133 53l88 18q-2 61 -27 89.5t-75 28.5q-20 0 -38 -4.5t-20 -9.5l-22 -50l-30 7v69l53 32q55 34 120 34q76 0 118.5 -37.5t42.5 -104.5q0 -16 -1 -29q-2 -76 -2 -97q0 -20 2 -84v-21q1 -35 6 -46.5 t22 -14.5l30 -3v-37q-19 1 -36.5 1.5t-25.5 1t-15 0.5h-11q-5 0 -13.5 -0.5t-30.5 -1t-47 -1.5l-5 8zM299 115v118l-45 -12q-53 -14 -72.5 -32.5t-19.5 -55.5q0 -29 13.5 -46t37.5 -17q23 0 47.5 13t38.5 32zM256 510h-93l-121 175h55l113 -98l112 98h57z" />
<glyph unicode="I&#x30c;" horiz-adv-x="389" d="M265 543v-408q0 -67 6.5 -79.5t41.5 -15.5l37 -3v-40q-121 3 -156 3q-34 0 -155 -3v40l37 3q35 3 41.5 15.5t6.5 79.5v408q0 67 -6.5 79.5t-41.5 15.5l-37 3v40q120 -3 155 -3q34 0 156 3v-40l-37 -3q-35 -3 -41.5 -15.5t-6.5 -79.5zM201 720h-93l-121 175h55l113 -98 l112 98h57z" />
<glyph unicode="i&#x30c;" horiz-adv-x="333" d="M217 471l10 -6v-365q0 -40 6.5 -51t29.5 -13l35 -2v-37q-100 3 -135 3l-129 -3v37l35 2q23 2 29.5 13t6.5 51v219q0 44 -4.5 56.5t-21.5 13.5l-45 3v36q14 2 15 2q60 7 98 19zM178 510h-93l-121 175h55l113 -98l112 98h57z" />
<glyph unicode="O&#x30c;" horiz-adv-x="833" d="M430 695q169 0 263 -92t94 -257q0 -171 -100.5 -267t-279.5 -96q-172 0 -266 91t-94 258q0 172 101 267.5t282 95.5zM421 639q-95 0 -154 -57q-70 -70 -70 -227q0 -181 85 -264q52 -52 132 -52q110 0 166.5 72.5t56.5 213.5q0 179 -86 263q-53 51 -130 51zM462 720h-93 l-121 175h55l113 -98l112 98h57z" />
<glyph unicode="o&#x30c;" horiz-adv-x="556" d="M287 471q111 0 170.5 -60.5t59.5 -174.5q0 -121 -65 -187t-185 -66q-109 0 -168 63t-59 178q0 119 64 183t183 64zM275 423q-52 0 -75.5 -42t-23.5 -133q0 -217 109 -217q51 0 73.5 41t22.5 133q0 218 -106 218zM324 510h-93l-121 175h55l113 -98l112 98h57z" />
<glyph unicode="U&#x30c;" horiz-adv-x="778" d="M675 543v-292q0 -136 -70.5 -202t-213.5 -66q-129 0 -204.5 52.5t-75.5 141.5v366q0 66 -7 80.5t-41 17.5l-37 3v37q120 -3 155 -3q34 0 156 3v-37l-37 -3q-34 -3 -41 -17.5t-7 -80.5v-248q0 -77 8 -117t27 -64q40 -49 141 -49q99 0 141 43q26 26 36.5 70.5t10.5 123.5 v241q0 66 -7 80.5t-41 17.5l-37 3v37q88 -3 115 -3l114 3v-37l-37 -3q-34 -3 -41 -17.5t-7 -80.5zM409 720h-93l-121 175h55l113 -98l112 98h57z" />
<glyph unicode="u&#x30c;" d="M392 80l-76 -74q-23 -23 -70 -23q-72 0 -111 40.5t-39 116.5v179q0 44 -4.5 56.5t-21.5 13.5l-45 3v36q75 10 113 21l70 22l10 -6v-261q0 -72 17.5 -101.5t60.5 -29.5q40 0 68 26.5t28 63.5v156q0 44 -4.5 56.5t-21.5 13.5l-45 3v36q76 10 113 21l70 22l10 -6v-365 q0 -40 6.5 -51t29.5 -13l33 -2v-37q-21 1 -47 1q-28 2 -55 2q-11 0 -94 -3zM351 510h-93l-121 175h55l113 -98l112 98h57z" />
<glyph unicode="U&#x308;&#x304;" horiz-adv-x="778" d="M675 543v-292q0 -136 -70.5 -202t-213.5 -66q-129 0 -204.5 52.5t-75.5 141.5v366q0 66 -7 80.5t-41 17.5l-37 3v37q120 -3 155 -3q34 0 156 3v-37l-37 -3q-34 -3 -41 -17.5t-7 -80.5v-248q0 -77 8 -117t27 -64q40 -49 141 -49q99 0 141 43q26 26 36.5 70.5t10.5 123.5 v241q0 66 -7 80.5t-41 17.5l-37 3v37q88 -3 115 -3l114 3v-37l-37 -3q-34 -3 -41 -17.5t-7 -80.5zM472 881q27 0 46.5 -20t19.5 -47q0 -28 -19.5 -47.5t-47.5 -19.5t-47.5 20t-19.5 48q0 27 20 46.5t48 19.5zM257 881q27 0 46.5 -20t19.5 -47q0 -28 -19.5 -47.5t-47.5 -19.5 t-47.5 19.5t-19.5 47.5t20 47.5t48 19.5zM529 886h-331v71h331v-71z" />
<glyph unicode="u&#x308;&#x304;" d="M392 80l-76 -74q-23 -23 -70 -23q-72 0 -111 40.5t-39 116.5v179q0 44 -4.5 56.5t-21.5 13.5l-45 3v36q75 10 113 21l70 22l10 -6v-261q0 -72 17.5 -101.5t60.5 -29.5q40 0 68 26.5t28 63.5v156q0 44 -4.5 56.5t-21.5 13.5l-45 3v36q76 10 113 21l70 22l10 -6v-365 q0 -40 6.5 -51t29.5 -13l33 -2v-37q-21 1 -47 1q-28 2 -55 2q-11 0 -94 -3zM414 671q27 0 46.5 -20t19.5 -47q0 -28 -19.5 -47.5t-47.5 -19.5t-47.5 20t-19.5 48q0 27 20 46.5t48 19.5zM199 671q27 0 46.5 -20t19.5 -47q0 -28 -19.5 -47.5t-47.5 -19.5t-47.5 19.5 t-19.5 47.5t20 47.5t48 19.5zM471 676h-331v71h331v-71z" />
<glyph unicode="U&#x308;&#x301;" horiz-adv-x="778" d="M675 543v-292q0 -136 -70.5 -202t-213.5 -66q-129 0 -204.5 52.5t-75.5 141.5v366q0 66 -7 80.5t-41 17.5l-37 3v37q120 -3 155 -3q34 0 156 3v-37l-37 -3q-34 -3 -41 -17.5t-7 -80.5v-248q0 -77 8 -117t27 -64q40 -49 141 -49q99 0 141 43q26 26 36.5 70.5t10.5 123.5 v241q0 66 -7 80.5t-41 17.5l-37 3v37q88 -3 115 -3l114 3v-37l-37 -3q-34 -3 -41 -17.5t-7 -80.5zM472 881q27 0 46.5 -20t19.5 -47q0 -28 -19.5 -47.5t-47.5 -19.5t-47.5 20t-19.5 48q0 27 20 46.5t48 19.5zM257 881q27 0 46.5 -20t19.5 -47q0 -28 -19.5 -47.5t-47.5 -19.5 t-47.5 19.5t-19.5 47.5t20 47.5t48 19.5zM275 854l129 148q33 37 65 37q20 0 32 -12t12 -32q0 -17 -9.5 -29t-33.5 -26l-8 -5l-131 -81h-56z" />
<glyph unicode="u&#x308;&#x301;" d="M392 80l-76 -74q-23 -23 -70 -23q-72 0 -111 40.5t-39 116.5v179q0 44 -4.5 56.5t-21.5 13.5l-45 3v36q75 10 113 21l70 22l10 -6v-261q0 -72 17.5 -101.5t60.5 -29.5q40 0 68 26.5t28 63.5v156q0 44 -4.5 56.5t-21.5 13.5l-45 3v36q76 10 113 21l70 22l10 -6v-365 q0 -40 6.5 -51t29.5 -13l33 -2v-37q-21 1 -47 1q-28 2 -55 2q-11 0 -94 -3zM414 671q27 0 46.5 -20t19.5 -47q0 -28 -19.5 -47.5t-47.5 -19.5t-47.5 20t-19.5 48q0 27 20 46.5t48 19.5zM199 671q27 0 46.5 -20t19.5 -47q0 -28 -19.5 -47.5t-47.5 -19.5t-47.5 19.5 t-19.5 47.5t20 47.5t48 19.5zM217 644l129 148q33 37 65 37q20 0 32 -12t12 -32q0 -17 -9.5 -29t-33.5 -26l-8 -5l-131 -81h-56z" />
<glyph unicode="U&#x308;&#x30c;" horiz-adv-x="778" d="M675 543v-292q0 -136 -70.5 -202t-213.5 -66q-129 0 -204.5 52.5t-75.5 141.5v366q0 66 -7 80.5t-41 17.5l-37 3v37q120 -3 155 -3q34 0 156 3v-37l-37 -3q-34 -3 -41 -17.5t-7 -80.5v-248q0 -77 8 -117t27 -64q40 -49 141 -49q99 0 141 43q26 26 36.5 70.5t10.5 123.5 v241q0 66 -7 80.5t-41 17.5l-37 3v37q88 -3 115 -3l114 3v-37l-37 -3q-34 -3 -41 -17.5t-7 -80.5zM472 881q27 0 46.5 -20t19.5 -47q0 -28 -19.5 -47.5t-47.5 -19.5t-47.5 20t-19.5 48q0 27 20 46.5t48 19.5zM257 881q27 0 46.5 -20t19.5 -47q0 -28 -19.5 -47.5t-47.5 -19.5 t-47.5 19.5t-19.5 47.5t20 47.5t48 19.5zM409 858h-93l-121 175h55l113 -98l112 98h57z" />
<glyph unicode="u&#x308;&#x30c;" d="M392 80l-76 -74q-23 -23 -70 -23q-72 0 -111 40.5t-39 116.5v179q0 44 -4.5 56.5t-21.5 13.5l-45 3v36q75 10 113 21l70 22l10 -6v-261q0 -72 17.5 -101.5t60.5 -29.5q40 0 68 26.5t28 63.5v156q0 44 -4.5 56.5t-21.5 13.5l-45 3v36q76 10 113 21l70 22l10 -6v-365 q0 -40 6.5 -51t29.5 -13l33 -2v-37q-21 1 -47 1q-28 2 -55 2q-11 0 -94 -3zM414 671q27 0 46.5 -20t19.5 -47q0 -28 -19.5 -47.5t-47.5 -19.5t-47.5 20t-19.5 48q0 27 20 46.5t48 19.5zM199 671q27 0 46.5 -20t19.5 -47q0 -28 -19.5 -47.5t-47.5 -19.5t-47.5 19.5 t-19.5 47.5t20 47.5t48 19.5zM351 648h-93l-121 175h55l113 -98l112 98h57z" />
<glyph unicode="U&#x308;&#x300;" horiz-adv-x="778" d="M675 543v-292q0 -136 -70.5 -202t-213.5 -66q-129 0 -204.5 52.5t-75.5 141.5v366q0 66 -7 80.5t-41 17.5l-37 3v37q120 -3 155 -3q34 0 156 3v-37l-37 -3q-34 -3 -41 -17.5t-7 -80.5v-248q0 -77 8 -117t27 -64q40 -49 141 -49q99 0 141 43q26 26 36.5 70.5t10.5 123.5 v241q0 66 -7 80.5t-41 17.5l-37 3v37q88 -3 115 -3l114 3v-37l-37 -3q-34 -3 -41 -17.5t-7 -80.5zM472 881q27 0 46.5 -20t19.5 -47q0 -28 -19.5 -47.5t-47.5 -19.5t-47.5 20t-19.5 48q0 27 20 46.5t48 19.5zM257 881q27 0 46.5 -20t19.5 -47q0 -28 -19.5 -47.5t-47.5 -19.5 t-47.5 19.5t-19.5 47.5t20 47.5t48 19.5zM397 854l-131 81q-5 3 -11 7q-40 23 -40 53q0 20 12 32t32 12q32 0 65 -37l129 -148h-56z" />
<glyph unicode="u&#x308;&#x300;" d="M392 80l-76 -74q-23 -23 -70 -23q-72 0 -111 40.5t-39 116.5v179q0 44 -4.5 56.5t-21.5 13.5l-45 3v36q75 10 113 21l70 22l10 -6v-261q0 -72 17.5 -101.5t60.5 -29.5q40 0 68 26.5t28 63.5v156q0 44 -4.5 56.5t-21.5 13.5l-45 3v36q76 10 113 21l70 22l10 -6v-365 q0 -40 6.5 -51t29.5 -13l33 -2v-37q-21 1 -47 1q-28 2 -55 2q-11 0 -94 -3zM414 671q27 0 46.5 -20t19.5 -47q0 -28 -19.5 -47.5t-47.5 -19.5t-47.5 20t-19.5 48q0 27 20 46.5t48 19.5zM199 671q27 0 46.5 -20t19.5 -47q0 -28 -19.5 -47.5t-47.5 -19.5t-47.5 19.5 t-19.5 47.5t20 47.5t48 19.5zM339 644l-131 81q-5 3 -11 7q-40 23 -40 53q0 20 12 32t32 12q32 0 65 -37l129 -148h-56z" />
<glyph unicode="&#xc6;&#x304;" horiz-adv-x="1000" d="M449 20l32 18q20 11 20 57v119h-260l-62 -107q-19 -33 -19 -55q10 -15 24 -15l54 -3v-37q-99 3 -118 3q-21 0 -108 -3v37l38 3q20 3 54 57l290 490q17 28 17 40q0 15 -43 17l-52 3v37q183 -3 262 -3q65 0 142 2q80 2 83 2h39q44 0 95 -4l6 -7l-14 -142h-36l-8 75 q-1 8 -29.5 14t-68.5 6q-70 0 -145 -4v-240q20 -2 67 -2h66q31 0 43 4.5t14 16.5l6 57h40q-3 -95 -3 -107l3 -108h-40l-6 50q-4 37 -57 37h-66q-25 0 -67 -3v-267q76 -3 131 -3q73 0 116 14q3 1 3 3l23 94h39l-11 -158l-5 -8q-77 -4 -141 -4q-65 0 -161 3q-35 1 -65 1 q-13 0 -122 -3v23zM271 267h230v339l-7 17h-7zM654 748h-331v71h331v-71z" />
<glyph unicode="&#xe6;&#x304;" horiz-adv-x="778" d="M731 295v-52q-80 -20 -158 -20h-131q3 -61 24 -98q19 -32 53 -51.5t72 -19.5q55 0 118 35l12 -15l-22 -48q-48 -25 -82 -34t-78 -9q-68 0 -114.5 22.5t-80.5 72.5l-114 -82q-20 -13 -63 -13q-53 0 -87 35t-34 89q0 56 29 90q34 35 156 60l88 18q-3 58 -22 86 q-28 39 -85 39q-37 0 -72 -24l-16 -42l-32 4v67l53 32q56 34 122 34q46 0 76 -11.5t62 -40.5q63 52 142 52q83 0 133.5 -48.5t50.5 -127.5zM520 273l84 3q-1 74 -20.5 106.5t-62.5 32.5t-63 -32.5t-22 -106.5l32 -1q30 -2 48 -2h4zM319 115v114l-55 -13q-92 -22 -92 -88 q0 -58 58 -58q25 0 49.5 12.5t39.5 32.5zM555 538h-331v71h331v-71z" />
<glyph unicode="j&#x30c;" horiz-adv-x="333" d="M7 -223h23q40 0 57.5 43t17.5 142v357q0 44 -4.5 56.5t-21.5 13.5l-45 3v36l18 2q58 8 95 19l70 22l10 -6v-367q0 -114 -11.5 -174.5t-40.5 -104.5q-57 -85 -130 -85l-32 2l-10 35zM212 510h-93l-121 175h55l113 -98l112 98h57z" />
<glyph unicode="&#xc6;&#x301;" horiz-adv-x="1000" d="M449 20l32 18q20 11 20 57v119h-260l-62 -107q-19 -33 -19 -55q10 -15 24 -15l54 -3v-37q-99 3 -118 3q-21 0 -108 -3v37l38 3q20 3 54 57l290 490q17 28 17 40q0 15 -43 17l-52 3v37q183 -3 262 -3q65 0 142 2q80 2 83 2h39q44 0 95 -4l6 -7l-14 -142h-36l-8 75 q-1 8 -29.5 14t-68.5 6q-70 0 -145 -4v-240q20 -2 67 -2h66q31 0 43 4.5t14 16.5l6 57h40q-3 -95 -3 -107l3 -108h-40l-6 50q-4 37 -57 37h-66q-25 0 -67 -3v-267q76 -3 131 -3q73 0 116 14q3 1 3 3l23 94h39l-11 -158l-5 -8q-77 -4 -141 -4q-65 0 -161 3q-35 1 -65 1 q-13 0 -122 -3v23zM271 267h230v339l-7 17h-7zM400 716l129 148q33 37 65 37q20 0 32 -12t12 -32q0 -17 -9.5 -29t-33.5 -26l-8 -5l-131 -81h-56z" />
<glyph unicode="&#xe6;&#x301;" horiz-adv-x="778" d="M731 295v-52q-80 -20 -158 -20h-131q3 -61 24 -98q19 -32 53 -51.5t72 -19.5q55 0 118 35l12 -15l-22 -48q-48 -25 -82 -34t-78 -9q-68 0 -114.5 22.5t-80.5 72.5l-114 -82q-20 -13 -63 -13q-53 0 -87 35t-34 89q0 56 29 90q34 35 156 60l88 18q-3 58 -22 86 q-28 39 -85 39q-37 0 -72 -24l-16 -42l-32 4v67l53 32q56 34 122 34q46 0 76 -11.5t62 -40.5q63 52 142 52q83 0 133.5 -48.5t50.5 -127.5zM520 273l84 3q-1 74 -20.5 106.5t-62.5 32.5t-63 -32.5t-22 -106.5l32 -1q30 -2 48 -2h4zM319 115v114l-55 -13q-92 -22 -92 -88 q0 -58 58 -58q25 0 49.5 12.5t39.5 32.5zM301 506l129 148q33 37 65 37q20 0 32 -12t12 -32q0 -17 -9.5 -29t-33.5 -26l-8 -5l-131 -81h-56z" />
<glyph unicode="S&#x326;" d="M72 202h40l7 -88q23 -35 68 -56t96 -21q65 0 107.5 37t42.5 92q0 71 -83 96l-140 42q-71 21 -108.5 67t-37.5 110q0 101 70.5 157.5t194.5 56.5q90 0 185 -34l5 -12q-14 -45 -14 -142h-41l-6 82q-56 55 -136 55q-59 0 -96.5 -32.5t-37.5 -84.5q0 -38 25.5 -62.5 t80.5 -38.5l114 -30q151 -40 151 -176q0 -108 -80 -172.5t-214 -64.5q-106 0 -208 46q15 78 15 173zM259 -277l-59 -24l-13 14q49 110 67 217q64 8 118 30l13 -12q-41 -94 -126 -225z" />
<glyph unicode="s&#x326;" horiz-adv-x="444" d="M362 326h-36l-10 58q-2 15 -29.5 27t-57.5 12q-41 0 -64.5 -17.5t-23.5 -47.5q0 -23 13 -36t42 -20l82 -18q68 -15 97.5 -45t29.5 -84q0 -77 -58 -124.5t-153 -47.5q-75 0 -155 28l7 141h39l5 -69q45 -52 112 -52q42 0 67 21t25 56q0 26 -14 40.5t-49 22.5l-86 21 q-106 26 -106 125q0 75 53.5 114.5t154.5 39.5q70 0 123 -23zM175 -277l-59 -24l-13 14q49 110 67 217q64 8 118 30l13 -12q-41 -94 -126 -225z" />
<glyph unicode="H&#x307;" horiz-adv-x="833" d="M262 543v-158q23 -2 81 -2h146q57 0 81 2v158q0 67 -6.5 79.5t-41.5 15.5l-37 3v40q120 -3 155 -3q34 0 156 3v-40l-37 -3q-35 -3 -41.5 -15.5t-6.5 -79.5v-408q0 -67 6.5 -79.5t41.5 -15.5l37 -3v-40q-121 3 -156 3q-34 0 -155 -3v40l37 3q35 3 41.5 15.5t6.5 79.5v190 q-52 2 -81 2h-146q-29 0 -81 -2v-190q0 -67 6.5 -79.5t41.5 -15.5l37 -3v-40q-121 3 -156 3q-34 0 -155 -3v40l37 3q35 3 41.5 15.5t6.5 79.5v408q0 67 -6.5 79.5t-41.5 15.5l-37 3v40q120 -3 155 -3q34 0 156 3v-40l-37 -3q-35 -3 -41.5 -15.5t-6.5 -79.5zM382 881 q27 0 46.5 -20t19.5 -47q0 -28 -19.5 -47.5t-47.5 -19.5t-47.5 20t-19.5 48q0 27 20 46.5t48 19.5z" />
<glyph unicode="h&#x307;" d="M209 720l8 -6v-324l80 62q23 19 70 19q76 0 116 -42q35 -38 35 -143v-186q0 -40 6.5 -51t29.5 -13l33 -2v-37q-87 3 -101 3q-4 0 -90 -3v272q0 61 -22.5 88.5t-71.5 27.5q-33 0 -59 -21t-26 -47v-217q0 -40 6.5 -51t29.5 -13l35 -2v-37q-100 3 -135 3l-129 -3v37l35 2 q23 2 29.5 13t6.5 51v468q0 44 -4.5 56.5t-21.5 13.5l-45 3v36q77 10 113 21zM283 881q27 0 46.5 -20t19.5 -47q0 -28 -19.5 -47.5t-47.5 -19.5t-47.5 20t-19.5 48q0 27 20 46.5t48 19.5z" />
<glyph unicode="H&#x32e;" horiz-adv-x="833" d="M262 543v-158q23 -2 81 -2h146q57 0 81 2v158q0 67 -6.5 79.5t-41.5 15.5l-37 3v40q120 -3 155 -3q34 0 156 3v-40l-37 -3q-35 -3 -41.5 -15.5t-6.5 -79.5v-408q0 -67 6.5 -79.5t41.5 -15.5l37 -3v-40q-121 3 -156 3q-34 0 -155 -3v40l37 3q35 3 41.5 15.5t6.5 79.5v190 q-52 2 -81 2h-146q-29 0 -81 -2v-190q0 -67 6.5 -79.5t41.5 -15.5l37 -3v-40q-121 3 -156 3q-34 0 -155 -3v40l37 3q35 3 41.5 15.5t6.5 79.5v408q0 67 -6.5 79.5t-41.5 15.5l-37 3v40q120 -3 155 -3q34 0 156 3v-40l-37 -3q-35 -3 -41.5 -15.5t-6.5 -79.5zM259 -107l31 2 q12 -69 82 -69q45 0 69 28q19 21 19 38v1h35q-4 -52 -19 -78q-32 -50 -98 -50q-74 0 -105 58q-13 25 -14 70z" />
<glyph unicode="h&#x32e;" d="M209 720l8 -6v-324l80 62q23 19 70 19q76 0 116 -42q35 -38 35 -143v-186q0 -40 6.5 -51t29.5 -13l33 -2v-37q-87 3 -101 3q-4 0 -90 -3v272q0 61 -22.5 88.5t-71.5 27.5q-33 0 -59 -21t-26 -47v-217q0 -40 6.5 -51t29.5 -13l35 -2v-37q-100 3 -135 3l-129 -3v37l35 2 q23 2 29.5 13t6.5 51v468q0 44 -4.5 56.5t-21.5 13.5l-45 3v36q77 10 113 21zM160 -107l31 2q12 -69 82 -69q45 0 69 28q19 21 19 38v1h35q-4 -52 -19 -78q-32 -50 -98 -50q-74 0 -105 58q-13 25 -14 70z" />
<glyph unicode="K&#x331;" horiz-adv-x="778" d="M265 343l197 193q25 25 58 62q8 8 10 12q26 27 26 46v25q87 -3 91 -3t91 3v-39q-47 -4 -69.5 -11t-40.5 -23l-222 -207l266 -313q42 -49 91 -50v-41q-17 1 -34 1q-51 2 -67 2l-102 -3l-208 249q-43 50 -55.5 62.5t-31.5 23.5v-197q0 -67 6.5 -79.5t41.5 -15.5l37 -3v-40 q-121 3 -156 3q-34 0 -155 -3v40l37 3q35 3 41.5 15.5t6.5 79.5v408q0 67 -6.5 79.5t-41.5 15.5l-37 3v40q120 -3 155 -3q34 0 156 3v-40l-37 -3q-35 -3 -41.5 -15.5t-6.5 -79.5v-200zM39 -82h622v-72h-622v72z" />
<glyph unicode="k&#x331;" d="M214 720l8 -6v-465q73 63 106 97l107 113h130v-38h-31q-24 0 -48 -18l-62 -45q-16 -10 -70 -64l-8 -8l196 -220q26 -29 55 -32v-34h-172q-55 70 -87 106l-106 120h-10v-126q0 -40 6.5 -51t29.5 -13l35 -2v-37q-101 3 -135 3l-129 -3v37l35 2q23 2 29.5 13t6.5 51v468 q0 44 -4.5 56.5t-21.5 13.5l-53 3v36q80 8 121 21zM40 -82h489v-72h-489v72z" />
<glyph unicode="&#x1e36;&#x304;" d="M265 543v-485q78 -3 131 -3q46 0 81.5 5t37.5 12l23 102h39l-11 -166l-5 -8q-77 -4 -141 -4q-57 0 -192 4h-34q-23 0 -122 -3v23l32 18q20 11 20 57v448q0 67 -6.5 79.5t-41.5 15.5l-37 3v40q120 -3 155 -3q34 0 156 3v-40l-37 -3q-35 -3 -41.5 -15.5t-6.5 -79.5z M268 -69q30 0 53.5 -24t23.5 -55t-23.5 -54t-55.5 -23q-31 0 -54 23t-23 54q0 32 23.5 55.5t55.5 23.5zM432 748h-331v71h331v-71z" />
<glyph unicode="&#x1e37;&#x304;" horiz-adv-x="333" d="M217 720l8 -6v-614q0 -40 6.5 -51t29.5 -13l35 -2v-37q-100 3 -135 3l-129 -3v37l35 2q23 2 29.5 13t6.5 51v468q0 44 -4.5 56.5t-21.5 13.5l-53 3v36q80 8 121 21zM144 -69q30 0 53.5 -24t23.5 -55t-23.5 -54t-55.5 -23q-31 0 -54 23t-23 54q0 32 23.5 55.5t55.5 23.5z M308 748h-331v71h331v-71z" />
<glyph unicode="L&#x331;" d="M265 543v-485q78 -3 131 -3q46 0 81.5 5t37.5 12l23 102h39l-11 -166l-5 -8q-77 -4 -141 -4q-57 0 -192 4h-34q-23 0 -122 -3v23l32 18q20 11 20 57v448q0 67 -6.5 79.5t-41.5 15.5l-37 3v40q120 -3 155 -3q34 0 156 3v-40l-37 -3q-35 -3 -41.5 -15.5t-6.5 -79.5zM22 -82 h489v-72h-489v72z" />
<glyph unicode="l&#x331;" horiz-adv-x="333" d="M217 720l8 -6v-614q0 -40 6.5 -51t29.5 -13l35 -2v-37q-100 3 -135 3l-129 -3v37l35 2q23 2 29.5 13t6.5 51v468q0 44 -4.5 56.5t-21.5 13.5l-53 3v36q80 8 121 21zM9 -82h266v-72h-266v72z" />
<glyph unicode="M&#x307;" horiz-adv-x="1000" d="M742 551l-206 -429q-36 -74 -60 -132h-34q-19 47 -36 83l-230 479v-417q0 -66 7 -80.5t41 -17.5l37 -3v-37q-72 3 -114 3q-19 0 -115 -3v37l37 3q34 3 41 17.5t7 80.5v408q0 66 -7 80.5t-41 17.5l-37 3v37q35 -1 51 -1q60 -2 69 -2l120 3l75 -161l158 -330l183 378 q12 26 49 113q104 -3 115 -3t116 3v-37l-37 -3q-34 -3 -41 -17.5t-7 -80.5v-408q0 -67 6.5 -79.5t41.5 -15.5l37 -3v-40q-121 3 -156 3q-34 0 -155 -3v40l37 3q35 3 41.5 15.5t6.5 79.5v416zM470 881q27 0 46.5 -20t19.5 -47q0 -28 -19.5 -47.5t-47.5 -19.5t-47.5 20 t-19.5 48q0 27 20 46.5t48 19.5z" />
<glyph unicode="m&#x307;" horiz-adv-x="889" d="M24 392v36q42 2 76 10t111 33l6 -6v-75l80 62q25 19 71 19q52 0 83.5 -19t48.5 -62l80 62q25 19 72 19q80 0 111.5 -40.5t31.5 -144.5v-186q0 -40 6.5 -51t29.5 -13l33 -2v-37q-36 2 -98 3l-93 -3v272q0 116 -86 116q-30 0 -55.5 -21.5t-25.5 -46.5v-217q0 -40 6.5 -51 t29.5 -13l35 -2v-37q-107 3 -131 3q-25 0 -129 -3v37l31 2q24 1 30 12t6 52v169q0 116 -86 116q-30 0 -55.5 -21.5t-25.5 -46.5v-217q0 -41 6 -52t30 -12l27 -2v-37q-92 3 -127 3l-129 -3v37l35 2q23 2 29.5 13t6.5 51v219q0 44 -4.5 56.5t-21.5 13.5zM422 671 q27 0 46.5 -20t19.5 -47q0 -28 -19.5 -47.5t-47.5 -19.5t-47.5 20t-19.5 48q0 27 20 46.5t48 19.5z" />
<glyph unicode="N&#x307;" horiz-adv-x="833" d="M155 678l84 3q83 -110 103 -133l312 -364v359q0 66 -7 80.5t-41 17.5l-37 3v37q88 -3 115 -3l114 3v-37l-37 -3q-34 -3 -41 -17.5t-7 -80.5v-454q0 -17 3 -101l-7 -4l-82 13l-122 139l-326 392v-393q0 -66 7 -80.5t41 -17.5l37 -3v-37q-72 3 -114 3q-19 0 -115 -3v37 l37 3q34 3 41 17.5t7 80.5v408q0 66 -7 80.5t-41 17.5l-37 3v37q85 -3 99 -3h21zM383 881q27 0 46.5 -20t19.5 -47q0 -28 -19.5 -47.5t-47.5 -19.5t-47.5 20t-19.5 48q0 27 20 46.5t48 19.5z" />
<glyph unicode="n&#x307;" d="M24 392v36q42 2 76 10t111 33l6 -6v-75l80 62q23 19 70 19q76 0 116 -42q35 -38 35 -143v-186q0 -40 6.5 -51t29.5 -13l33 -2v-37q-87 3 -101 3q-4 0 -90 -3v273q0 60 -22.5 87.5t-71.5 27.5q-33 0 -59 -21t-26 -47v-217q0 -40 6.5 -51t29.5 -13l35 -2v-37q-100 3 -135 3 l-129 -3v37l35 2q23 2 29.5 13t6.5 51v219q0 44 -4.5 56.5t-21.5 13.5zM283 671q27 0 46.5 -20t19.5 -47q0 -28 -19.5 -47.5t-47.5 -19.5t-47.5 20t-19.5 48q0 27 20 46.5t48 19.5z" />
<glyph unicode="N&#x331;" horiz-adv-x="833" d="M155 678l84 3q83 -110 103 -133l312 -364v359q0 66 -7 80.5t-41 17.5l-37 3v37q88 -3 115 -3l114 3v-37l-37 -3q-34 -3 -41 -17.5t-7 -80.5v-454q0 -17 3 -101l-7 -4l-82 13l-122 139l-326 392v-393q0 -66 7 -80.5t41 -17.5l37 -3v-37q-72 3 -114 3q-19 0 -115 -3v37 l37 3q34 3 41 17.5t7 80.5v408q0 66 -7 80.5t-41 17.5l-37 3v37q85 -3 99 -3h21zM48 -82h666v-72h-666v72z" />
<glyph unicode="n&#x331;" d="M24 392v36q42 2 76 10t111 33l6 -6v-75l80 62q23 19 70 19q76 0 116 -42q35 -38 35 -143v-186q0 -40 6.5 -51t29.5 -13l33 -2v-37q-87 3 -101 3q-4 0 -90 -3v273q0 60 -22.5 87.5t-71.5 27.5q-33 0 -59 -21t-26 -47v-217q0 -40 6.5 -51t29.5 -13l35 -2v-37q-100 3 -135 3 l-129 -3v37l35 2q23 2 29.5 13t6.5 51v219q0 44 -4.5 56.5t-21.5 13.5zM37 -82h489v-72h-489v72z" />
<glyph unicode="O&#x303;&#x301;" horiz-adv-x="833" d="M430 695q169 0 263 -92t94 -257q0 -171 -100.5 -267t-279.5 -96q-172 0 -266 91t-94 258q0 172 101 267.5t282 95.5zM421 639q-95 0 -154 -57q-70 -70 -70 -227q0 -181 85 -264q52 -52 132 -52q110 0 166.5 72.5t56.5 213.5q0 179 -86 263q-53 51 -130 51zM556 871h43 q-18 -65 -46.5 -95.5t-71.5 -30.5q-31 0 -84 25q-49 24 -77 24q-31 0 -46 -48h-40q6 55 38.5 90t77.5 35q29 0 80 -24t75 -24q18 0 27.5 9.5t23.5 38.5zM328 854l129 148q33 37 65 37q20 0 32 -12t12 -32q0 -17 -9.5 -29t-33.5 -26l-8 -5l-131 -81h-56z" />
<glyph unicode="o&#x303;&#x301;" horiz-adv-x="556" d="M287 471q111 0 170.5 -60.5t59.5 -174.5q0 -121 -65 -187t-185 -66q-109 0 -168 63t-59 178q0 119 64 183t183 64zM275 423q-52 0 -75.5 -42t-23.5 -133q0 -217 109 -217q51 0 73.5 41t22.5 133q0 218 -106 218zM418 661h43q-18 -65 -46.5 -95.5t-71.5 -30.5 q-31 0 -84 25q-49 24 -77 24q-31 0 -46 -48h-40q6 55 38.5 90t77.5 35q29 0 80 -24t75 -24q18 0 27.5 9.5t23.5 38.5zM190 644l129 148q33 37 65 37q20 0 32 -12t12 -32q0 -17 -9.5 -29t-33.5 -26l-8 -5l-131 -81h-56z" />
<glyph unicode="P&#x301;" d="M311 326l-17 35l10 10q4 -1 8 -1q26 -5 35 -5q47 0 75 36t28 96q0 134 -125 134q-37 0 -60 -9v-487q0 -66 7 -79.5t41 -15.5l47 -3v-40q-134 3 -165 3q-35 0 -156 -3v40l37 3q35 3 41.5 15.5t6.5 79.5v408q0 66 -7 80.5t-41 17.5l-37 3v37q152 -3 173 -3q18 0 181 3h12 q189 0 189 -150q0 -91 -64 -151.5t-161 -60.5q-11 0 -43 4q-2 1 -15 3zM178 716l129 148q33 37 65 37q20 0 32 -12t12 -32q0 -17 -9.5 -29t-33.5 -26l-8 -5l-131 -81h-56z" />
<glyph unicode="p&#x301;" d="M212 471l10 -6v-82l61 49q49 39 103 39q78 0 129.5 -52.5t51.5 -132.5q0 -141 -102 -218l-17 -13q-91 -72 -137 -72q-29 0 -89 17v-155q0 -41 6.5 -52t29.5 -12l45 -2v-37q-130 3 -145 3l-129 -3v37l35 2q23 2 29.5 13t6.5 51v474q0 44 -4.5 56.5t-21.5 13.5l-45 3v36 l11 1q64 9 102 20zM222 331v-225q39 -55 101 -55q55 0 86.5 46t31.5 124q0 75 -32.5 117.5t-90.5 42.5q-63 0 -96 -50zM188 506l129 148q33 37 65 37q20 0 32 -12t12 -32q0 -17 -9.5 -29t-33.5 -26l-8 -5l-131 -81h-56z" />
<glyph unicode="&#x1e5a;&#x304;" horiz-adv-x="722" d="M457 356l181 -274q18 -24 30.5 -32t39.5 -13v-40q-32 2 -97 3l-90 -3l-224 347l7 18h10q53 0 84 19q66 39 66 122q0 61 -36.5 94.5t-103.5 33.5q-38 0 -59 -9v-487q0 -67 6.5 -79.5t41.5 -15.5l37 -3v-40q-121 3 -156 3q-34 0 -155 -3v40l37 3q35 3 41.5 15.5t6.5 79.5 v408q0 66 -7 80.5t-41 17.5l-37 3v37q150 -3 178 -3q78 0 130 2q34 1 69 1q190 0 190 -147q0 -64 -43 -110q-33 -38 -106 -68zM323 -69q30 0 53.5 -24t23.5 -55t-23.5 -54t-55.5 -23q-31 0 -54 23t-23 54q0 32 24 55.5t55 23.5zM488 748h-331v71h331v-71z" />
<glyph unicode="&#x1e5b;&#x304;" horiz-adv-x="389" d="M213 471l10 -6v-95l44 48q29 31 46.5 42t38.5 11q22 0 37 -6l-5 -129l-24 -10q-21 36 -57 36q-29 0 -54.5 -20.5t-25.5 -43.5v-198q0 -42 8 -52t40 -12l39 -2v-37q-135 3 -151 3l-129 -3v37l35 2q23 2 29.5 13t6.5 51v219q0 44 -4.5 56.5t-21.5 13.5l-45 3v36 q77 10 113 21zM159 -69q30 0 53.5 -24t23.5 -55t-23.5 -54t-55.5 -23q-31 0 -54 23t-23 54q0 32 24 55.5t55 23.5zM340 538h-331v71h331v-71z" />
<glyph unicode="R&#x331;" horiz-adv-x="722" d="M457 356l181 -274q18 -24 30.5 -32t39.5 -13v-40q-32 2 -97 3l-90 -3l-224 347l7 18h10q53 0 84 19q66 39 66 122q0 61 -36.5 94.5t-103.5 33.5q-38 0 -59 -9v-487q0 -67 6.5 -79.5t41.5 -15.5l37 -3v-40q-121 3 -156 3q-34 0 -155 -3v40l37 3q35 3 41.5 15.5t6.5 79.5 v408q0 66 -7 80.5t-41 17.5l-37 3v37q150 -3 178 -3q78 0 130 2q34 1 69 1q190 0 190 -147q0 -64 -43 -110q-33 -38 -106 -68zM33 -82h578v-72h-578v72z" />
<glyph unicode="r&#x331;" horiz-adv-x="389" d="M213 471l10 -6v-95l44 48q29 31 46.5 42t38.5 11q22 0 37 -6l-5 -129l-24 -10q-21 36 -57 36q-29 0 -54.5 -20.5t-25.5 -43.5v-198q0 -42 8 -52t40 -12l39 -2v-37q-135 3 -151 3l-129 -3v37l35 2q23 2 29.5 13t6.5 51v219q0 44 -4.5 56.5t-21.5 13.5l-45 3v36 q77 10 113 21zM9 -82h270v-72h-270v72z" />
<glyph unicode="T&#x331;" horiz-adv-x="667" d="M404 619v-484q0 -67 6.5 -79.5t41.5 -15.5l37 -3v-40q-121 3 -156 3q-34 0 -155 -3v40l37 3q35 3 41.5 15.5t6.5 79.5v484h-117q-56 0 -63 -10q-8 -13 -8 -23l-5 -69h-40q-4 106 -13 159l6 5q276 -3 311 -3q34 0 310 3l6 -5q-10 -63 -13 -159h-40l-5 69l-9 24 q-12 9 -62 9h-117zM50 -82h534v-72h-534v72z" />
<glyph unicode="t&#x331;" horiz-adv-x="333" d="M324 60l-49 -59q-15 -18 -65 -18q-65 0 -94.5 30t-29.5 97v259l-64 -4v22l66 43v60q0 23 -4 92q78 29 122 50l14 -10q-12 -67 -12 -136v-58l114 6l-8 -65h-106v-238q0 -37 13.5 -51t48.5 -14q20 0 46 13zM33 -82h266v-72h-266v72z" />
<glyph unicode="U&#x303;&#x301;" horiz-adv-x="778" d="M675 543v-292q0 -136 -70.5 -202t-213.5 -66q-129 0 -204.5 52.5t-75.5 141.5v366q0 66 -7 80.5t-41 17.5l-37 3v37q120 -3 155 -3q34 0 156 3v-37l-37 -3q-34 -3 -41 -17.5t-7 -80.5v-248q0 -77 8 -117t27 -64q40 -49 141 -49q99 0 141 43q26 26 36.5 70.5t10.5 123.5 v241q0 66 -7 80.5t-41 17.5l-37 3v37q88 -3 115 -3l114 3v-37l-37 -3q-34 -3 -41 -17.5t-7 -80.5zM503 871h43q-18 -65 -46.5 -95.5t-71.5 -30.5q-31 0 -84 25q-49 24 -77 24q-31 0 -46 -48h-40q6 55 38.5 90t77.5 35q29 0 80 -24t75 -24q18 0 27.5 9.5t23.5 38.5zM275 854 l129 148q33 37 65 37q20 0 32 -12t12 -32q0 -17 -9.5 -29t-33.5 -26l-8 -5l-131 -81h-56z" />
<glyph unicode="u&#x303;&#x301;" d="M392 80l-76 -74q-23 -23 -70 -23q-72 0 -111 40.5t-39 116.5v179q0 44 -4.5 56.5t-21.5 13.5l-45 3v36q75 10 113 21l70 22l10 -6v-261q0 -72 17.5 -101.5t60.5 -29.5q40 0 68 26.5t28 63.5v156q0 44 -4.5 56.5t-21.5 13.5l-45 3v36q76 10 113 21l70 22l10 -6v-365 q0 -40 6.5 -51t29.5 -13l33 -2v-37q-21 1 -47 1q-28 2 -55 2q-11 0 -94 -3zM445 661h43q-18 -65 -46.5 -95.5t-71.5 -30.5q-31 0 -84 25q-49 24 -77 24q-31 0 -46 -48h-40q6 55 38.5 90t77.5 35q29 0 80 -24t75 -24q18 0 27.5 9.5t23.5 38.5zM217 644l129 148q33 37 65 37 q20 0 32 -12t12 -32q0 -17 -9.5 -29t-33.5 -26l-8 -5l-131 -81h-56z" />
<glyph unicode="Y&#x307;" horiz-adv-x="667" d="M395 356l188 322h77v-19l-176 -261q-26 -39 -53 -100v-163q0 -67 6.5 -79.5t41.5 -15.5l37 -3v-40q-121 3 -156 3q-34 0 -155 -3v40l37 3q35 3 41.5 15.5t6.5 79.5v139q-19 43 -44 85l-101 163q-44 64 -68 82t-62 18v37l159 36q34 -20 58.5 -49.5t55.5 -86.5zM320 881 q27 0 46.5 -20t19.5 -47q0 -28 -19.5 -47.5t-47.5 -19.5t-47.5 20t-19.5 48q0 27 20 46.5t48 19.5z" />
<glyph unicode="y&#x307;" horiz-adv-x="556" d="M275 421l-35 -2q-26 -2 -26 -23q0 -12 11 -38q6 -14 6 -15l84 -218l101 252q4 10 4 22q0 18 -27 20l-33 2v38q88 -3 93 -3l93 3v-38l-26 -5q-22 -5 -41 -47l-199 -463q-74 -172 -176 -172q-35 0 -73 17l18 95l11 4q33 -37 70 -37q26 0 50.5 24t41.5 67l23 56l-158 404 q-21 54 -42 55l-35 2v38q104 -3 133 -3l132 3v-38zM270 671q27 0 46.5 -20t19.5 -47q0 -28 -19.5 -47.5t-47.5 -19.5t-47.5 20t-19.5 48q0 27 20 46.5t48 19.5z" />
<glyph unicode="Z&#x331;" horiz-adv-x="667" d="M623 681v-35q-41 -50 -83 -110l-325 -479h276q74 0 81 39l15 78h40q-14 -80 -16 -177q-197 3 -284 3q-89 0 -303 -3v38q59 74 104 139l306 446h-222q-53 0 -68 -7.5t-19 -38.5l-8 -55h-37v162l272 -3q19 0 271 3zM43 -82h534v-72h-534v72z" />
<glyph unicode="&#x7a;&#x331;" horiz-adv-x="500" d="M454 424l-268 -369h163q36 0 49.5 13t20.5 56l5 31h40q-12 -82 -12 -153l-5 -5l-273 3q-40 0 -158 -3v33l104 136l170 238h-118q-42 0 -56.5 -11.5t-19.5 -47.5l-3 -25h-38l3 134l7 5q180 -5 236 -5q62 0 153 5v-35zM34 -82h400v-72h-400v72z" />
<glyph unicode="h&#x331;" d="M209 720l8 -6v-324l80 62q23 19 70 19q76 0 116 -42q35 -38 35 -143v-186q0 -40 6.5 -51t29.5 -13l33 -2v-37q-87 3 -101 3q-4 0 -90 -3v272q0 61 -22.5 88.5t-71.5 27.5q-33 0 -59 -21t-26 -47v-217q0 -40 6.5 -51t29.5 -13l35 -2v-37q-100 3 -135 3l-129 -3v37l35 2 q23 2 29.5 13t6.5 51v468q0 44 -4.5 56.5t-21.5 13.5l-45 3v36q77 10 113 21zM37 -82h489v-72h-489v72z" />
<glyph unicode="E&#x303;" d="M265 620v-240q20 -2 67 -2h66q31 0 43 4.5t14 16.5l6 57h40q-3 -95 -3 -107l3 -108h-40l-6 50q-4 37 -57 37h-66q-25 0 -67 -3v-267q77 -3 131 -3q73 0 116 14q3 1 3 3l23 94h39l-11 -158l-5 -8q-77 -4 -141 -4q-57 0 -192 4h-34q-23 0 -122 -3v23l32 18q20 11 20 57v448 q0 66 -7 80.5t-41 17.5l-37 3v37q165 -3 188 -3q57 0 130 2q21 0 45.5 0.5t38.5 1t24 0.5q46 0 95 -4l6 -7l-14 -142h-36l-8 75q-1 8 -29.5 14t-68.5 6q-70 0 -145 -4zM406 871h43q-18 -65 -46.5 -95.5t-71.5 -30.5q-31 0 -84 25q-49 24 -77 24q-31 0 -46 -48h-40 q6 55 38.5 90t77.5 35q29 0 80 -24t75 -24q18 0 27.5 9.5t23.5 38.5z" />
<glyph unicode="e&#x303;" horiz-adv-x="500" d="M461 295v-52q-80 -20 -158 -20h-131q3 -61 24 -98q19 -32 53 -51.5t73 -19.5q54 0 117 35l12 -15l-22 -48q-83 -43 -158 -43q-112 0 -170.5 62t-58.5 181q0 138 95 194l47 28q39 23 88 23q86 0 137.5 -48t51.5 -128zM250 273l84 3q-1 74 -20.5 106.5t-62.5 32.5 t-63 -32.5t-22 -106.5l32 -1q30 -2 48 -2h4zM390 661h43q-18 -65 -46.5 -95.5t-71.5 -30.5q-31 0 -84 25q-49 24 -77 24q-31 0 -46 -48h-40q6 55 38.5 90t77.5 35q29 0 80 -24t75 -24q18 0 27.5 9.5t23.5 38.5z" />
<glyph unicode="A&#x304;&#x303;" horiz-adv-x="778" d="M469 206h-251l-42 -112q-5 -13 -5 -25q0 -13 8 -22t21 -10l50 -3v-37q-10 0 -23.5 0.5t-21.5 1t-12 0.5q-28 1 -56 1t-56 -1q-4 0 -12 -0.5t-21.5 -1t-23.5 -0.5v37l30 3q31 3 56 60l181 438q8 18 29 76l28 75h71l259 -605q17 -39 55 -44l24 -3v-37q-147 3 -158 3 q-12 0 -152 -3v37l53 3q20 2 20 27q0 13 -6 28zM342 516l-100 -254h204zM531 748h-331v71h331v-71zM505 1009h43q-18 -65 -46.5 -95.5t-71.5 -30.5q-31 0 -84 25q-49 24 -77 24q-31 0 -46 -48h-40q6 55 38.5 90t77.5 35q29 0 80 -24t75 -24q18 0 27.5 9.5t23.5 38.5z" />
<glyph unicode="A&#x303;&#x301;" horiz-adv-x="778" d="M469 206h-251l-42 -112q-5 -13 -5 -25q0 -13 8 -22t21 -10l50 -3v-37q-10 0 -23.5 0.5t-21.5 1t-12 0.5q-28 1 -56 1t-56 -1q-4 0 -12 -0.5t-21.5 -1t-23.5 -0.5v37l30 3q31 3 56 60l181 438q8 18 29 76l28 75h71l259 -605q17 -39 55 -44l24 -3v-37q-147 3 -158 3 q-12 0 -152 -3v37l53 3q20 2 20 27q0 13 -6 28zM342 516l-100 -254h204zM505 871h43q-18 -65 -46.5 -95.5t-71.5 -30.5q-31 0 -84 25q-49 24 -77 24q-31 0 -46 -48h-40q6 55 38.5 90t77.5 35q29 0 80 -24t75 -24q18 0 27.5 9.5t23.5 38.5zM277 854l129 148q33 37 65 37 q20 0 32 -12t12 -32q0 -17 -9.5 -29t-33.5 -26l-8 -5l-131 -81h-56z" />
<glyph unicode="C&#x304;" horiz-adv-x="722" d="M692 87l-22 -49q-55 -31 -105.5 -43t-119.5 -12q-185 0 -293 98t-108 266q0 161 110.5 254.5t300.5 93.5q65 0 115.5 -10t118.5 -37l6 -11q-11 -45 -23 -153h-39l-5 86q-41 38 -81.5 53.5t-96.5 15.5q-119 0 -187.5 -74.5t-68.5 -203.5q0 -142 80 -227.5t211 -85.5 q97 0 195 51zM527 748h-331v71h331v-71z" />
<glyph unicode="&#x1e0c;&#x301;" horiz-adv-x="833" d="M68 20l32 18q20 11 20 57v448q0 66 -7 80.5t-41 17.5l-37 3v37q149 -3 162 -3q5 0 239 3q101 -1 165.5 -20.5t107.5 -62.5q77 -75 77 -222q0 -162 -104 -263q-118 -116 -303 -116l-59 1q-50 2 -97 2q-19 0 -155 -3v23zM261 627v-570q31 -5 68 -5q162 0 234 71 q73 73 73 225q0 146 -66 211q-74 72 -246 72q-31 0 -63 -4zM418 -69q30 0 53.5 -24t23.5 -55t-23.5 -54t-55.5 -23q-31 0 -54 23t-23 54q0 32 23.5 55.5t55.5 23.5zM328 716l129 148q33 37 65 37q20 0 32 -12t12 -32q0 -17 -9.5 -29t-33.5 -26l-8 -5l-131 -81h-56z" />
<glyph unicode="E&#x303;&#x301;" d="M265 620v-240q20 -2 67 -2h66q31 0 43 4.5t14 16.5l6 57h40q-3 -95 -3 -107l3 -108h-40l-6 50q-4 37 -57 37h-66q-25 0 -67 -3v-267q77 -3 131 -3q73 0 116 14q3 1 3 3l23 94h39l-11 -158l-5 -8q-77 -4 -141 -4q-57 0 -192 4h-34q-23 0 -122 -3v23l32 18q20 11 20 57v448 q0 66 -7 80.5t-41 17.5l-37 3v37q165 -3 188 -3q57 0 130 2q21 0 45.5 0.5t38.5 1t24 0.5q46 0 95 -4l6 -7l-14 -142h-36l-8 75q-1 8 -29.5 14t-68.5 6q-70 0 -145 -4zM406 871h43q-18 -65 -46.5 -95.5t-71.5 -30.5q-31 0 -84 25q-49 24 -77 24q-31 0 -46 -48h-40 q6 55 38.5 90t77.5 35q29 0 80 -24t75 -24q18 0 27.5 9.5t23.5 38.5zM178 854l129 148q33 37 65 37q20 0 32 -12t12 -32q0 -17 -9.5 -29t-33.5 -26l-8 -5l-131 -81h-56z" />
<glyph unicode="E&#x304;&#x303;" d="M265 620v-240q20 -2 67 -2h66q31 0 43 4.5t14 16.5l6 57h40q-3 -95 -3 -107l3 -108h-40l-6 50q-4 37 -57 37h-66q-25 0 -67 -3v-267q77 -3 131 -3q73 0 116 14q3 1 3 3l23 94h39l-11 -158l-5 -8q-77 -4 -141 -4q-57 0 -192 4h-34q-23 0 -122 -3v23l32 18q20 11 20 57v448 q0 66 -7 80.5t-41 17.5l-37 3v37q165 -3 188 -3q57 0 130 2q21 0 45.5 0.5t38.5 1t24 0.5q46 0 95 -4l6 -7l-14 -142h-36l-8 75q-1 8 -29.5 14t-68.5 6q-70 0 -145 -4zM432 748h-331v71h331v-71zM406 1009h43q-18 -65 -46.5 -95.5t-71.5 -30.5q-31 0 -84 25q-49 24 -77 24 q-31 0 -46 -48h-40q6 55 38.5 90t77.5 35q29 0 80 -24t75 -24q18 0 27.5 9.5t23.5 38.5z" />
<glyph unicode="G&#x301;" horiz-adv-x="833" d="M776 276v-34q-28 -6 -34.5 -12t-6.5 -24v-163q-90 -34 -155.5 -47t-141.5 -13q-178 0 -284.5 99t-106.5 264q0 162 111 255.5t303 93.5q135 0 261 -47l6 -11q-11 -45 -23 -153h-39l-5 86q-30 29 -58 40q-66 29 -147 29q-122 0 -190.5 -74.5t-68.5 -206.5q0 -143 74 -231 t195 -88q60 0 127 25v132q0 19 -12.5 27t-44.5 10l-53 2v41q121 -3 143 -3q26 0 150 3zM281 716l129 148q33 37 65 37q20 0 32 -12t12 -32q0 -17 -9.5 -29t-33.5 -26l-8 -5l-131 -81h-56z" />
<glyph unicode="G&#x301;&#x304;" horiz-adv-x="833" d="M776 276v-34q-28 -6 -34.5 -12t-6.5 -24v-163q-90 -34 -155.5 -47t-141.5 -13q-178 0 -284.5 99t-106.5 264q0 162 111 255.5t303 93.5q135 0 261 -47l6 -11q-11 -45 -23 -153h-39l-5 86q-30 29 -58 40q-66 29 -147 29q-122 0 -190.5 -74.5t-68.5 -206.5q0 -143 74 -231 t195 -88q60 0 127 25v132q0 19 -12.5 27t-44.5 10l-53 2v41q121 -3 143 -3q26 0 150 3zM281 716l129 148q33 37 65 37q20 0 32 -12t12 -32q0 -17 -9.5 -29t-33.5 -26l-8 -5l-131 -81h-56zM535 886h-331v71h331v-71z" />
<glyph unicode="H&#x301;" horiz-adv-x="833" d="M262 543v-158q23 -2 81 -2h146q57 0 81 2v158q0 67 -6.5 79.5t-41.5 15.5l-37 3v40q120 -3 155 -3q34 0 156 3v-40l-37 -3q-35 -3 -41.5 -15.5t-6.5 -79.5v-408q0 -67 6.5 -79.5t41.5 -15.5l37 -3v-40q-121 3 -156 3q-34 0 -155 -3v40l37 3q35 3 41.5 15.5t6.5 79.5v190 q-52 2 -81 2h-146q-29 0 -81 -2v-190q0 -67 6.5 -79.5t41.5 -15.5l37 -3v-40q-121 3 -156 3q-34 0 -155 -3v40l37 3q35 3 41.5 15.5t6.5 79.5v408q0 67 -6.5 79.5t-41.5 15.5l-37 3v40q120 -3 155 -3q34 0 156 3v-40l-37 -3q-35 -3 -41.5 -15.5t-6.5 -79.5zM292 716l129 148 q33 37 65 37q20 0 32 -12t12 -32q0 -17 -9.5 -29t-33.5 -26l-8 -5l-131 -81h-56z" />
<glyph unicode="H&#x324;" horiz-adv-x="833" d="M262 543v-158q23 -2 81 -2h146q57 0 81 2v158q0 67 -6.5 79.5t-41.5 15.5l-37 3v40q120 -3 155 -3q34 0 156 3v-40l-37 -3q-35 -3 -41.5 -15.5t-6.5 -79.5v-408q0 -67 6.5 -79.5t41.5 -15.5l37 -3v-40q-121 3 -156 3q-34 0 -155 -3v40l37 3q35 3 41.5 15.5t6.5 79.5v190 q-52 2 -81 2h-146q-29 0 -81 -2v-190q0 -67 6.5 -79.5t41.5 -15.5l37 -3v-40q-121 3 -156 3q-34 0 -155 -3v40l37 3q35 3 41.5 15.5t6.5 79.5v408q0 67 -6.5 79.5t-41.5 15.5l-37 3v40q120 -3 155 -3q34 0 156 3v-40l-37 -3q-35 -3 -41.5 -15.5t-6.5 -79.5zM467 -98v-1 q21 0 36.5 -15.5t15.5 -36.5q0 -22 -15.5 -37.5t-37.5 -15.5t-37.5 16t-15.5 38q0 21 16 36.5t38 15.5zM295 -99v-1q21 0 36.5 -15.5t15.5 -36.5q0 -22 -15.5 -37.5t-37.5 -15.5t-37.5 15.5t-15.5 37.5t16 37.5t38 15.5z" />
<glyph unicode="H&#x331;" horiz-adv-x="833" d="M262 543v-158q23 -2 81 -2h146q57 0 81 2v158q0 67 -6.5 79.5t-41.5 15.5l-37 3v40q120 -3 155 -3q34 0 156 3v-40l-37 -3q-35 -3 -41.5 -15.5t-6.5 -79.5v-408q0 -67 6.5 -79.5t41.5 -15.5l37 -3v-40q-121 3 -156 3q-34 0 -155 -3v40l37 3q35 3 41.5 15.5t6.5 79.5v190 q-52 2 -81 2h-146q-29 0 -81 -2v-190q0 -67 6.5 -79.5t41.5 -15.5l37 -3v-40q-121 3 -156 3q-34 0 -155 -3v40l37 3q35 3 41.5 15.5t6.5 79.5v408q0 67 -6.5 79.5t-41.5 15.5l-37 3v40q120 -3 155 -3q34 0 156 3v-40l-37 -3q-35 -3 -41.5 -15.5t-6.5 -79.5zM47 -82h666v-72 h-666v72z" />
<glyph unicode="I&#x303;&#x301;" horiz-adv-x="389" d="M265 543v-408q0 -67 6.5 -79.5t41.5 -15.5l37 -3v-40q-121 3 -156 3q-34 0 -155 -3v40l37 3q35 3 41.5 15.5t6.5 79.5v408q0 67 -6.5 79.5t-41.5 15.5l-37 3v40q120 -3 155 -3q34 0 156 3v-40l-37 -3q-35 -3 -41.5 -15.5t-6.5 -79.5zM295 871h43q-18 -65 -46.5 -95.5 t-71.5 -30.5q-31 0 -84 25q-49 24 -77 24q-31 0 -46 -48h-40q6 55 38.5 90t77.5 35q29 0 80 -24t75 -24q18 0 27.5 9.5t23.5 38.5zM67 854l129 148q33 37 65 37q20 0 32 -12t12 -32q0 -17 -9.5 -29t-33.5 -26l-8 -5l-131 -81h-56z" />
<glyph unicode="I&#x304;&#x303;" horiz-adv-x="389" d="M265 543v-408q0 -67 6.5 -79.5t41.5 -15.5l37 -3v-40q-121 3 -156 3q-34 0 -155 -3v40l37 3q35 3 41.5 15.5t6.5 79.5v408q0 67 -6.5 79.5t-41.5 15.5l-37 3v40q120 -3 155 -3q34 0 156 3v-40l-37 -3q-35 -3 -41.5 -15.5t-6.5 -79.5zM321 748h-331v71h331v-71zM295 1009 h43q-18 -65 -46.5 -95.5t-71.5 -30.5q-31 0 -84 25q-49 24 -77 24q-31 0 -46 -48h-40q6 55 38.5 90t77.5 35q29 0 80 -24t75 -24q18 0 27.5 9.5t23.5 38.5z" />
<glyph unicode="J&#x304;" horiz-adv-x="389" d="M-11 -208v89l11 6q1 -1 4.5 -3t6.5 -5q35 -27 58 -27q30 0 42.5 29.5t12.5 100.5v561q0 67 -6.5 79.5t-41.5 15.5l-37 3v40q120 -3 155 -3q34 0 156 3v-40l-37 -3q-35 -3 -41.5 -15.5t-6.5 -79.5v-406q0 -78 -5.5 -117t-22.5 -75q-32 -67 -94.5 -112.5t-123.5 -45.5 q-14 0 -30 5zM371 748h-331v71h331v-71z" />
<glyph unicode="J&#x30c;" horiz-adv-x="389" d="M-11 -208v89l11 6q1 -1 4.5 -3t6.5 -5q35 -27 58 -27q30 0 42.5 29.5t12.5 100.5v561q0 67 -6.5 79.5t-41.5 15.5l-37 3v40q120 -3 155 -3q34 0 156 3v-40l-37 -3q-35 -3 -41.5 -15.5t-6.5 -79.5v-406q0 -78 -5.5 -117t-22.5 -75q-32 -67 -94.5 -112.5t-123.5 -45.5 q-14 0 -30 5zM251 720h-93l-121 175h55l113 -98l112 98h57z" />
<glyph unicode="K&#x35f;H" horiz-adv-x="1611" d="M265 343l197 193q25 25 58 62q8 8 10 12q26 27 26 46v25q87 -3 91 -3t91 3v-39q-47 -4 -69.5 -11t-40.5 -23l-222 -207l266 -313q42 -49 91 -50v-41q-17 1 -34 1q-51 2 -67 2l-102 -3l-208 249q-43 50 -55.5 62.5t-31.5 23.5v-197q0 -67 6.5 -79.5t41.5 -15.5l37 -3v-40 q-121 3 -156 3q-34 0 -155 -3v40l37 3q35 3 41.5 15.5t6.5 79.5v408q0 67 -6.5 79.5t-41.5 15.5l-37 3v40q120 -3 155 -3q34 0 156 3v-40l-37 -3q-35 -3 -41.5 -15.5t-6.5 -79.5v-200zM1040 543v-158q23 -2 81 -2h146q57 0 81 2v158q0 67 -6.5 79.5t-41.5 15.5l-37 3v40 q120 -3 155 -3q34 0 156 3v-40l-37 -3q-35 -3 -41.5 -15.5t-6.5 -79.5v-408q0 -67 6.5 -79.5t41.5 -15.5l37 -3v-40q-121 3 -156 3q-34 0 -155 -3v40l37 3q35 3 41.5 15.5t6.5 79.5v190q-52 2 -81 2h-146q-29 0 -81 -2v-190q0 -67 6.5 -79.5t41.5 -15.5l37 -3v-40 q-121 3 -156 3q-34 0 -155 -3v40l37 3q35 3 41.5 15.5t6.5 79.5v408q0 67 -6.5 79.5t-41.5 15.5l-37 3v40q120 -3 155 -3q34 0 156 3v-40l-37 -3q-35 -3 -41.5 -15.5t-6.5 -79.5zM160 -82h1288v-72h-1288v72z" />
<glyph unicode="K&#x35f;h" horiz-adv-x="1389" d="M265 343l197 193q25 25 58 62q8 8 10 12q26 27 26 46v25q87 -3 91 -3t91 3v-39q-47 -4 -69.5 -11t-40.5 -23l-222 -207l266 -313q42 -49 91 -50v-41q-17 1 -34 1q-51 2 -67 2l-102 -3l-208 249q-43 50 -55.5 62.5t-31.5 23.5v-197q0 -67 6.5 -79.5t41.5 -15.5l37 -3v-40 q-121 3 -156 3q-34 0 -155 -3v40l37 3q35 3 41.5 15.5t6.5 79.5v408q0 67 -6.5 79.5t-41.5 15.5l-37 3v40q120 -3 155 -3q34 0 156 3v-40l-37 -3q-35 -3 -41.5 -15.5t-6.5 -79.5v-200zM987 720l8 -6v-324l80 62q23 19 70 19q76 0 116 -42q35 -38 35 -143v-186q0 -40 6.5 -51 t29.5 -13l33 -2v-37q-87 3 -101 3q-4 0 -90 -3v272q0 61 -22.5 88.5t-71.5 27.5q-33 0 -59 -21t-26 -47v-217q0 -40 6.5 -51t29.5 -13l35 -2v-37q-100 3 -135 3l-129 -3v37l35 2q23 2 29.5 13t6.5 51v468q0 44 -4.5 56.5t-21.5 13.5l-45 3v36q77 10 113 21zM137 -82h1111 v-72h-1111v72z" />
<glyph unicode="L&#x325;" d="M265 543v-485q78 -3 131 -3q46 0 81.5 5t37.5 12l23 102h39l-11 -166l-5 -8q-77 -4 -141 -4q-57 0 -192 4h-34q-23 0 -122 -3v23l32 18q20 11 20 57v448q0 67 -6.5 79.5t-41.5 15.5l-37 3v40q120 -3 155 -3q34 0 156 3v-40l-37 -3q-35 -3 -41.5 -15.5t-6.5 -79.5z M268 -83h1q32 0 55 -23.5t23 -55.5q0 -33 -23.5 -56.5t-56.5 -23.5t-56.5 23.5t-23.5 56.5t23.5 56t57.5 23zM269 -123q-17 0 -28.5 -11t-11.5 -28q0 -16 11.5 -27.5t27.5 -11.5t27.5 11.5t11.5 27.5t-11 27.5t-27 11.5z" />
<glyph unicode="L&#x304;&#x325;" d="M265 543v-485q78 -3 131 -3q46 0 81.5 5t37.5 12l23 102h39l-11 -166l-5 -8q-77 -4 -141 -4q-57 0 -192 4h-34q-23 0 -122 -3v23l32 18q20 11 20 57v448q0 67 -6.5 79.5t-41.5 15.5l-37 3v40q120 -3 155 -3q34 0 156 3v-40l-37 -3q-35 -3 -41.5 -15.5t-6.5 -79.5z M268 -83h1q32 0 55 -23.5t23 -55.5q0 -33 -23.5 -56.5t-56.5 -23.5t-56.5 23.5t-23.5 56.5t23.5 56t57.5 23zM269 -123q-17 0 -28.5 -11t-11.5 -28q0 -16 11.5 -27.5t27.5 -11.5t27.5 11.5t11.5 27.5t-11 27.5t-27 11.5zM432 748h-331v71h331v-71z" />
<glyph unicode="M&#x306;" horiz-adv-x="1000" d="M742 551l-206 -429q-36 -74 -60 -132h-34q-19 47 -36 83l-230 479v-417q0 -66 7 -80.5t41 -17.5l37 -3v-37q-72 3 -114 3q-19 0 -115 -3v37l37 3q34 3 41 17.5t7 80.5v408q0 66 -7 80.5t-41 17.5l-37 3v37q35 -1 51 -1q60 -2 69 -2l120 3l75 -161l158 -330l183 378 q12 26 49 113q104 -3 115 -3t116 3v-37l-37 -3q-34 -3 -41 -17.5t-7 -80.5v-408q0 -67 6.5 -79.5t41.5 -15.5l37 -3v-40q-121 3 -156 3q-34 0 -155 -3v40l37 3q35 3 41.5 15.5t6.5 79.5v416zM317 879h44q16 -87 104 -87q57 0 87 36q24 26 24 49v2h44q-5 -64 -26 -99 q-41 -64 -125 -64q-94 0 -133 74q-16 33 -19 89z" />
<glyph unicode="M&#x310;" horiz-adv-x="1000" d="M742 551l-206 -429q-36 -74 -60 -132h-34q-19 47 -36 83l-230 479v-417q0 -66 7 -80.5t41 -17.5l37 -3v-37q-72 3 -114 3q-19 0 -115 -3v37l37 3q34 3 41 17.5t7 80.5v408q0 66 -7 80.5t-41 17.5l-37 3v37q35 -1 51 -1q60 -2 69 -2l120 3l75 -161l158 -330l183 378 q12 26 49 113q104 -3 115 -3t116 3v-37l-37 -3q-34 -3 -41 -17.5t-7 -80.5v-408q0 -67 6.5 -79.5t41.5 -15.5l37 -3v-40q-121 3 -156 3q-34 0 -155 -3v40l37 3q35 3 41.5 15.5t6.5 79.5v416zM317 879h44q16 -87 104 -87q57 0 87 36q24 26 24 49v2h44q-5 -64 -26 -99 q-41 -64 -125 -64q-94 0 -133 74q-16 33 -19 89zM470 981q27 0 46.5 -20t19.5 -47q0 -28 -19.5 -47.5t-47.5 -19.5t-47.5 20t-19.5 48q0 27 20 46.5t48 19.5z" />
<glyph unicode="N&#x306;" horiz-adv-x="833" d="M155 678l84 3q83 -110 103 -133l312 -364v359q0 66 -7 80.5t-41 17.5l-37 3v37q88 -3 115 -3l114 3v-37l-37 -3q-34 -3 -41 -17.5t-7 -80.5v-454q0 -17 3 -101l-7 -4l-82 13l-122 139l-326 392v-393q0 -66 7 -80.5t41 -17.5l37 -3v-37q-72 3 -114 3q-19 0 -115 -3v37 l37 3q34 3 41 17.5t7 80.5v408q0 66 -7 80.5t-41 17.5l-37 3v37q85 -3 99 -3h21zM230 879h44q16 -87 104 -87q57 0 87 36q24 26 24 49v2h44q-5 -64 -26 -99q-41 -64 -125 -64q-94 0 -133 74q-16 33 -19 89z" />
<glyph unicode="O&#x304;&#x303;" horiz-adv-x="833" d="M430 695q169 0 263 -92t94 -257q0 -171 -100.5 -267t-279.5 -96q-172 0 -266 91t-94 258q0 172 101 267.5t282 95.5zM421 639q-95 0 -154 -57q-70 -70 -70 -227q0 -181 85 -264q52 -52 132 -52q110 0 166.5 72.5t56.5 213.5q0 179 -86 263q-53 51 -130 51zM582 748h-331 v71h331v-71zM556 1009h43q-18 -65 -46.5 -95.5t-71.5 -30.5q-31 0 -84 25q-49 24 -77 24q-31 0 -46 -48h-40q6 55 38.5 90t77.5 35q29 0 80 -24t75 -24q18 0 27.5 9.5t23.5 38.5z" />
<glyph unicode="R&#x306;" horiz-adv-x="722" d="M457 356l181 -274q18 -24 30.5 -32t39.5 -13v-40q-32 2 -97 3l-90 -3l-224 347l7 18h10q53 0 84 19q66 39 66 122q0 61 -36.5 94.5t-103.5 33.5q-38 0 -59 -9v-487q0 -67 6.5 -79.5t41.5 -15.5l37 -3v-40q-121 3 -156 3q-34 0 -155 -3v40l37 3q35 3 41.5 15.5t6.5 79.5 v408q0 66 -7 80.5t-41 17.5l-37 3v37q150 -3 178 -3q78 0 130 2q34 1 69 1q190 0 190 -147q0 -64 -43 -110q-33 -38 -106 -68zM171 879h44q16 -87 104 -87q57 0 87 36q24 26 24 49v2h44q-5 -64 -26 -99q-41 -64 -125 -64q-94 0 -133 74q-16 33 -19 89z" />
<glyph unicode="R&#x325;" horiz-adv-x="722" d="M457 356l181 -274q18 -24 30.5 -32t39.5 -13v-40q-32 2 -97 3l-90 -3l-224 347l7 18h10q53 0 84 19q66 39 66 122q0 61 -36.5 94.5t-103.5 33.5q-38 0 -59 -9v-487q0 -67 6.5 -79.5t41.5 -15.5l37 -3v-40q-121 3 -156 3q-34 0 -155 -3v40l37 3q35 3 41.5 15.5t6.5 79.5 v408q0 66 -7 80.5t-41 17.5l-37 3v37q150 -3 178 -3q78 0 130 2q34 1 69 1q190 0 190 -147q0 -64 -43 -110q-33 -38 -106 -68zM323 -83h1q32 0 55 -23.5t23 -55.5q0 -33 -23.5 -56.5t-56.5 -23.5t-56.5 23.5t-23.5 56.5t23.5 56t57.5 23zM324 -123q-17 0 -28.5 -11 t-11.5 -28q0 -16 11 -27.5t28 -11.5t28 11.5t11 27.5t-11 27.5t-27 11.5z" />
<glyph unicode="R&#x304;&#x325;" horiz-adv-x="722" d="M457 356l181 -274q18 -24 30.5 -32t39.5 -13v-40q-32 2 -97 3l-90 -3l-224 347l7 18h10q53 0 84 19q66 39 66 122q0 61 -36.5 94.5t-103.5 33.5q-38 0 -59 -9v-487q0 -67 6.5 -79.5t41.5 -15.5l37 -3v-40q-121 3 -156 3q-34 0 -155 -3v40l37 3q35 3 41.5 15.5t6.5 79.5 v408q0 66 -7 80.5t-41 17.5l-37 3v37q150 -3 178 -3q78 0 130 2q34 1 69 1q190 0 190 -147q0 -64 -43 -110q-33 -38 -106 -68zM323 -83h1q32 0 55 -23.5t23 -55.5q0 -33 -23.5 -56.5t-56.5 -23.5t-56.5 23.5t-23.5 56.5t23.5 56t57.5 23zM324 -123q-17 0 -28.5 -11 t-11.5 -28q0 -16 11 -27.5t28 -11.5t28 11.5t11 27.5t-11 27.5t-27 11.5zM488 748h-331v71h331v-71z" />
<glyph unicode="S&#x301;&#x304;" d="M72 202h40l7 -88q23 -35 68 -56t96 -21q65 0 107.5 37t42.5 92q0 71 -83 96l-140 42q-71 21 -108.5 67t-37.5 110q0 101 70.5 157.5t194.5 56.5q90 0 185 -34l5 -12q-14 -45 -14 -142h-41l-6 82q-56 55 -136 55q-59 0 -96.5 -32.5t-37.5 -84.5q0 -38 25.5 -62.5 t80.5 -38.5l114 -30q151 -40 151 -176q0 -108 -80 -172.5t-214 -64.5q-106 0 -208 46q15 78 15 173zM217 716l129 148q33 37 65 37q20 0 32 -12t12 -32q0 -17 -9.5 -29t-33.5 -26l-8 -5l-131 -81h-56zM471 886h-331v71h331v-71z" />
<glyph unicode="&#x1e62;&#x304;" d="M72 202h40l7 -88q23 -35 68 -56t96 -21q65 0 107.5 37t42.5 92q0 71 -83 96l-140 42q-71 21 -108.5 67t-37.5 110q0 101 70.5 157.5t194.5 56.5q90 0 185 -34l5 -12q-14 -45 -14 -142h-41l-6 82q-56 55 -136 55q-59 0 -96.5 -32.5t-37.5 -84.5q0 -38 25.5 -62.5 t80.5 -38.5l114 -30q151 -40 151 -176q0 -108 -80 -172.5t-214 -64.5q-106 0 -208 46q15 78 15 173zM307 -69q30 0 53.5 -24t23.5 -55t-23.5 -54t-55.5 -23q-31 0 -54 23t-23 54q0 32 24 55.5t55 23.5zM471 748h-331v71h331v-71z" />
<glyph unicode="S&#x324;" d="M72 202h40l7 -88q23 -35 68 -56t96 -21q65 0 107.5 37t42.5 92q0 71 -83 96l-140 42q-71 21 -108.5 67t-37.5 110q0 101 70.5 157.5t194.5 56.5q90 0 185 -34l5 -12q-14 -45 -14 -142h-41l-6 82q-56 55 -136 55q-59 0 -96.5 -32.5t-37.5 -84.5q0 -38 25.5 -62.5 t80.5 -38.5l114 -30q151 -40 151 -176q0 -108 -80 -172.5t-214 -64.5q-106 0 -208 46q15 78 15 173zM392 -98v-1q21 0 36.5 -15.5t15.5 -36.5q0 -22 -15.5 -37.5t-37.5 -15.5t-37.5 16t-15.5 38q0 21 16 36.5t38 15.5zM220 -99v-1q21 0 36.5 -15.5t15.5 -36.5 q0 -22 -15.5 -37.5t-37.5 -15.5t-37.5 15.5t-15.5 37.5t16 37.5t38 15.5z" />
<glyph unicode="S&#x331;" d="M72 202h40l7 -88q23 -35 68 -56t96 -21q65 0 107.5 37t42.5 92q0 71 -83 96l-140 42q-71 21 -108.5 67t-37.5 110q0 101 70.5 157.5t194.5 56.5q90 0 185 -34l5 -12q-14 -45 -14 -142h-41l-6 82q-56 55 -136 55q-59 0 -96.5 -32.5t-37.5 -84.5q0 -38 25.5 -62.5 t80.5 -38.5l114 -30q151 -40 151 -176q0 -108 -80 -172.5t-214 -64.5q-106 0 -208 46q15 78 15 173zM61 -82h489v-72h-489v72z" />
<glyph unicode="&#x1e6c;&#x301;" horiz-adv-x="667" d="M404 619v-484q0 -67 6.5 -79.5t41.5 -15.5l37 -3v-40q-121 3 -156 3q-34 0 -155 -3v40l37 3q35 3 41.5 15.5t6.5 79.5v484h-117q-56 0 -63 -10q-8 -13 -8 -23l-5 -69h-40q-4 106 -13 159l6 5q276 -3 311 -3q34 0 310 3l6 -5q-10 -63 -13 -159h-40l-5 69l-9 24 q-12 9 -62 9h-117zM318 -69q30 0 53.5 -24t23.5 -55t-23.5 -54t-55.5 -23q-31 0 -54 23t-23 54q0 32 23.5 55.5t55.5 23.5zM228 716l129 148q33 37 65 37q20 0 32 -12t12 -32q0 -17 -9.5 -29t-33.5 -26l-8 -5l-131 -81h-56z" />
<glyph unicode="T&#x324;" horiz-adv-x="667" d="M404 619v-484q0 -67 6.5 -79.5t41.5 -15.5l37 -3v-40q-121 3 -156 3q-34 0 -155 -3v40l37 3q35 3 41.5 15.5t6.5 79.5v484h-117q-56 0 -63 -10q-8 -13 -8 -23l-5 -69h-40q-4 106 -13 159l6 5q276 -3 311 -3q34 0 310 3l6 -5q-10 -63 -13 -159h-40l-5 69l-9 24 q-12 9 -62 9h-117zM403 -98v-1q21 0 36.5 -15.5t15.5 -36.5q0 -22 -15.5 -37.5t-37.5 -15.5t-37.5 16t-15.5 38q0 21 16 36.5t38 15.5zM231 -99v-1q21 0 36.5 -15.5t15.5 -36.5q0 -22 -15.5 -37.5t-37.5 -15.5t-37.5 15.5t-15.5 37.5t16 37.5t38 15.5z" />
<glyph unicode="U&#x304;&#x303;" horiz-adv-x="778" d="M675 543v-292q0 -136 -70.5 -202t-213.5 -66q-129 0 -204.5 52.5t-75.5 141.5v366q0 66 -7 80.5t-41 17.5l-37 3v37q120 -3 155 -3q34 0 156 3v-37l-37 -3q-34 -3 -41 -17.5t-7 -80.5v-248q0 -77 8 -117t27 -64q40 -49 141 -49q99 0 141 43q26 26 36.5 70.5t10.5 123.5 v241q0 66 -7 80.5t-41 17.5l-37 3v37q88 -3 115 -3l114 3v-37l-37 -3q-34 -3 -41 -17.5t-7 -80.5zM529 748h-331v71h331v-71zM503 1009h43q-18 -65 -46.5 -95.5t-71.5 -30.5q-31 0 -84 25q-49 24 -77 24q-31 0 -46 -48h-40q6 55 38.5 90t77.5 35q29 0 80 -24t75 -24 q18 0 27.5 9.5t23.5 38.5z" />
<glyph unicode="V&#x301;" horiz-adv-x="778" d="M340 644l-50 -3q-10 -1 -18 -6.5t-8 -12.5q0 -18 21 -72l157 -387l142 353q31 78 31 99q0 23 -37 26l-46 3v37q10 0 24 -0.5t22.5 -1t12.5 -0.5q28 -1 56 -1q10 0 116 3v-37l-32 -3q-29 -3 -47 -47l-208 -498q-6 -14 -8 -21q-3 -4 -11 -29l-19 -49h-76l-239 572 q-17 38 -30 54t-32 18l-41 3v37q144 -3 158 -3q36 0 70 1q5 0 18 0.5t35.5 1t38.5 0.5v-37zM301 716l129 148q33 37 65 37q20 0 32 -12t12 -32q0 -17 -9.5 -29t-33.5 -26l-8 -5l-131 -81h-56z" />
<glyph unicode="Z&#x324;" horiz-adv-x="667" d="M623 681v-35q-41 -50 -83 -110l-325 -479h276q74 0 81 39l15 78h40q-14 -80 -16 -177q-197 3 -284 3q-89 0 -303 -3v38q59 74 104 139l306 446h-222q-53 0 -68 -7.5t-19 -38.5l-8 -55h-37v162l272 -3q19 0 271 3zM396 -98v-1q21 0 36.5 -15.5t15.5 -36.5 q0 -22 -15.5 -37.5t-37.5 -15.5t-37.5 16t-15.5 38q0 21 16 36.5t38 15.5zM224 -99v-1q21 0 36.5 -15.5t15.5 -36.5q0 -22 -15.5 -37.5t-37.5 -15.5t-37.5 15.5t-15.5 37.5t16 37.5t38 15.5z" />
<glyph unicode="a&#x304;&#x301;" horiz-adv-x="500" d="M299 67l-93 -72q-15 -12 -49 -12q-57 0 -87 31.5t-30 92.5q0 64 38 97t133 53l88 18q-2 61 -27 89.5t-75 28.5q-20 0 -38 -4.5t-20 -9.5l-22 -50l-30 7v69l53 32q55 34 120 34q76 0 118.5 -37.5t42.5 -104.5q0 -16 -1 -29q-2 -76 -2 -97q0 -20 2 -84v-21q1 -35 6 -46.5 t22 -14.5l30 -3v-37q-19 1 -36.5 1.5t-25.5 1t-15 0.5h-11q-5 0 -13.5 -0.5t-30.5 -1t-47 -1.5l-5 8zM299 115v118l-45 -12q-53 -14 -72.5 -32.5t-19.5 -55.5q0 -29 13.5 -46t37.5 -17q23 0 47.5 13t38.5 32zM376 538h-331v71h331v-71zM122 644l129 148q33 37 65 37 q20 0 32 -12t12 -32q0 -17 -9.5 -29t-33.5 -26l-8 -5l-131 -81h-56z" />
<glyph unicode="a&#x304;&#x300;" horiz-adv-x="500" d="M299 67l-93 -72q-15 -12 -49 -12q-57 0 -87 31.5t-30 92.5q0 64 38 97t133 53l88 18q-2 61 -27 89.5t-75 28.5q-20 0 -38 -4.5t-20 -9.5l-22 -50l-30 7v69l53 32q55 34 120 34q76 0 118.5 -37.5t42.5 -104.5q0 -16 -1 -29q-2 -76 -2 -97q0 -20 2 -84v-21q1 -35 6 -46.5 t22 -14.5l30 -3v-37q-19 1 -36.5 1.5t-25.5 1t-15 0.5h-11q-5 0 -13.5 -0.5t-30.5 -1t-47 -1.5l-5 8zM299 115v118l-45 -12q-53 -14 -72.5 -32.5t-19.5 -55.5q0 -29 13.5 -46t37.5 -17q23 0 47.5 13t38.5 32zM376 538h-331v71h331v-71zM244 644l-131 81q-5 3 -11 7 q-40 23 -40 53q0 20 12 32t32 12q32 0 65 -37l129 -148h-56z" />
<glyph unicode="a&#x304;&#x303;" horiz-adv-x="500" d="M299 67l-93 -72q-15 -12 -49 -12q-57 0 -87 31.5t-30 92.5q0 64 38 97t133 53l88 18q-2 61 -27 89.5t-75 28.5q-20 0 -38 -4.5t-20 -9.5l-22 -50l-30 7v69l53 32q55 34 120 34q76 0 118.5 -37.5t42.5 -104.5q0 -16 -1 -29q-2 -76 -2 -97q0 -20 2 -84v-21q1 -35 6 -46.5 t22 -14.5l30 -3v-37q-19 1 -36.5 1.5t-25.5 1t-15 0.5h-11q-5 0 -13.5 -0.5t-30.5 -1t-47 -1.5l-5 8zM299 115v118l-45 -12q-53 -14 -72.5 -32.5t-19.5 -55.5q0 -29 13.5 -46t37.5 -17q23 0 47.5 13t38.5 32zM376 538h-331v71h331v-71zM350 799h43q-18 -65 -46.5 -95.5 t-71.5 -30.5q-31 0 -84 25q-49 24 -77 24q-31 0 -46 -48h-40q6 55 38.5 90t77.5 35q29 0 80 -24t75 -24q18 0 27.5 9.5t23.5 38.5z" />
<glyph unicode="a&#x304;&#x306;" horiz-adv-x="500" d="M299 67l-93 -72q-15 -12 -49 -12q-57 0 -87 31.5t-30 92.5q0 64 38 97t133 53l88 18q-2 61 -27 89.5t-75 28.5q-20 0 -38 -4.5t-20 -9.5l-22 -50l-30 7v69l53 32q55 34 120 34q76 0 118.5 -37.5t42.5 -104.5q0 -16 -1 -29q-2 -76 -2 -97q0 -20 2 -84v-21q1 -35 6 -46.5 t22 -14.5l30 -3v-37q-19 1 -36.5 1.5t-25.5 1t-15 0.5h-11q-5 0 -13.5 -0.5t-30.5 -1t-47 -1.5l-5 8zM299 115v118l-45 -12q-53 -14 -72.5 -32.5t-19.5 -55.5q0 -29 13.5 -46t37.5 -17q23 0 47.5 13t38.5 32zM376 538h-331v71h331v-71zM59 807h44q16 -87 104 -87q57 0 87 36 q24 26 24 49v2h44q-5 -64 -26 -99q-41 -64 -125 -64q-94 0 -133 74q-16 33 -19 89z" />
<glyph unicode="a&#x303;&#x301;" horiz-adv-x="500" d="M299 67l-93 -72q-15 -12 -49 -12q-57 0 -87 31.5t-30 92.5q0 64 38 97t133 53l88 18q-2 61 -27 89.5t-75 28.5q-20 0 -38 -4.5t-20 -9.5l-22 -50l-30 7v69l53 32q55 34 120 34q76 0 118.5 -37.5t42.5 -104.5q0 -16 -1 -29q-2 -76 -2 -97q0 -20 2 -84v-21q1 -35 6 -46.5 t22 -14.5l30 -3v-37q-19 1 -36.5 1.5t-25.5 1t-15 0.5h-11q-5 0 -13.5 -0.5t-30.5 -1t-47 -1.5l-5 8zM299 115v118l-45 -12q-53 -14 -72.5 -32.5t-19.5 -55.5q0 -29 13.5 -46t37.5 -17q23 0 47.5 13t38.5 32zM350 661h43q-18 -65 -46.5 -95.5t-71.5 -30.5q-31 0 -84 25 q-49 24 -77 24q-31 0 -46 -48h-40q6 55 38.5 90t77.5 35q29 0 80 -24t75 -24q18 0 27.5 9.5t23.5 38.5zM122 644l129 148q33 37 65 37q20 0 32 -12t12 -32q0 -17 -9.5 -29t-33.5 -26l-8 -5l-131 -81h-56z" />
<glyph unicode="c&#x304;" horiz-adv-x="444" d="M390 297h-36l-7 60q-2 17 -28 30t-60 13q-98 0 -98 -140q0 -95 42.5 -150.5t116.5 -55.5q39 0 85 19l9 -10l-21 -46q-64 -34 -134 -34q-107 0 -164.5 63.5t-57.5 182.5q0 65 27 107.5t94 82.5l52 31q36 21 90 21q46 0 103 -20l7 -13q-13 -61 -20 -141zM388 538h-331v71 h331v-71z" />
<glyph unicode="&#x1e0d;&#x301;" d="M508 714v-614q0 -40 6.5 -51t29.5 -13l33 -2v-37q-21 1 -47 1q-11 0 -24 0.5t-19.5 1t-10.5 0.5l-90 -3l-5 8l5 75l-104 -85q-15 -12 -49 -12q-88 0 -139.5 63.5t-51.5 170.5q0 125 84 181l72 47q41 26 88 26q37 0 80 -17l20 -8v122q0 44 -4.5 56.5t-21.5 13.5l-53 3v36 q80 8 121 21l72 22zM386 160v184q-48 63 -112 63q-106 0 -106 -152q0 -81 31.5 -129t84.5 -48q41 0 71.5 24t30.5 58zM265 -69q30 0 53.5 -24t23.5 -55t-23.5 -54t-55.5 -23q-31 0 -54 23t-23 54q0 32 24 55.5t55 23.5zM175 716l129 148q33 37 65 37q20 0 32 -12t12 -32 q0 -17 -9.5 -29t-33.5 -26l-8 -5l-131 -81h-56z" />
<glyph unicode="e&#x303;&#x301;" horiz-adv-x="500" d="M461 295v-52q-80 -20 -158 -20h-131q3 -61 24 -98q19 -32 53 -51.5t73 -19.5q54 0 117 35l12 -15l-22 -48q-83 -43 -158 -43q-112 0 -170.5 62t-58.5 181q0 138 95 194l47 28q39 23 88 23q86 0 137.5 -48t51.5 -128zM250 273l84 3q-1 74 -20.5 106.5t-62.5 32.5 t-63 -32.5t-22 -106.5l32 -1q30 -2 48 -2h4zM390 661h43q-18 -65 -46.5 -95.5t-71.5 -30.5q-31 0 -84 25q-49 24 -77 24q-31 0 -46 -48h-40q6 55 38.5 90t77.5 35q29 0 80 -24t75 -24q18 0 27.5 9.5t23.5 38.5zM162 644l129 148q33 37 65 37q20 0 32 -12t12 -32 q0 -17 -9.5 -29t-33.5 -26l-8 -5l-131 -81h-56z" />
<glyph unicode="e&#x304;&#x301;" horiz-adv-x="500" d="M461 295v-52q-80 -20 -158 -20h-131q3 -61 24 -98q19 -32 53 -51.5t73 -19.5q54 0 117 35l12 -15l-22 -48q-83 -43 -158 -43q-112 0 -170.5 62t-58.5 181q0 138 95 194l47 28q39 23 88 23q86 0 137.5 -48t51.5 -128zM250 273l84 3q-1 74 -20.5 106.5t-62.5 32.5 t-63 -32.5t-22 -106.5l32 -1q30 -2 48 -2h4zM416 538h-331v71h331v-71zM162 644l129 148q33 37 65 37q20 0 32 -12t12 -32q0 -17 -9.5 -29t-33.5 -26l-8 -5l-131 -81h-56z" />
<glyph unicode="e&#x304;&#x303;" horiz-adv-x="500" d="M461 295v-52q-80 -20 -158 -20h-131q3 -61 24 -98q19 -32 53 -51.5t73 -19.5q54 0 117 35l12 -15l-22 -48q-83 -43 -158 -43q-112 0 -170.5 62t-58.5 181q0 138 95 194l47 28q39 23 88 23q86 0 137.5 -48t51.5 -128zM250 273l84 3q-1 74 -20.5 106.5t-62.5 32.5 t-63 -32.5t-22 -106.5l32 -1q30 -2 48 -2h4zM416 538h-331v71h331v-71zM390 799h43q-18 -65 -46.5 -95.5t-71.5 -30.5q-31 0 -84 25q-49 24 -77 24q-31 0 -46 -48h-40q6 55 38.5 90t77.5 35q29 0 80 -24t75 -24q18 0 27.5 9.5t23.5 38.5z" />
<glyph unicode="e&#x304;&#x306;" horiz-adv-x="500" d="M461 295v-52q-80 -20 -158 -20h-131q3 -61 24 -98q19 -32 53 -51.5t73 -19.5q54 0 117 35l12 -15l-22 -48q-83 -43 -158 -43q-112 0 -170.5 62t-58.5 181q0 138 95 194l47 28q39 23 88 23q86 0 137.5 -48t51.5 -128zM250 273l84 3q-1 74 -20.5 106.5t-62.5 32.5 t-63 -32.5t-22 -106.5l32 -1q30 -2 48 -2h4zM416 538h-331v71h331v-71zM99 807h44q16 -87 104 -87q57 0 87 36q24 26 24 49v2h44q-5 -64 -26 -99q-41 -64 -125 -64q-94 0 -133 74q-16 33 -19 89z" />
<glyph unicode="g&#x301;" horiz-adv-x="556" d="M529 368l-77 4q5 -24 5 -47q0 -72 -44 -116q-64 -64 -174 -64q-4 0 -40 2q-29 -17 -29 -39q0 -30 47 -30q14 0 146 4h24q148 0 148 -124q0 -100 -81 -162t-212 -62q-99 0 -157.5 38.5t-58.5 103.5q0 46 26 62l81 48q-37 10 -52.5 25t-15.5 42q0 36 17 48l71 54 q-45 15 -69 41q-37 40 -37 96q0 79 60.5 129t156.5 50q93 0 152 -43q16 -1 36 -1q31 0 82 5zM252 421q-82 0 -82 -110q0 -56 22.5 -88t61.5 -32q80 0 80 108q0 122 -82 122zM272 -15q-76 0 -101 -11q-23 -11 -37 -34.5t-14 -51.5q0 -47 40.5 -75.5t107.5 -28.5t111.5 34.5 t44.5 86.5q0 48 -30.5 64t-121.5 16zM190 506l129 148q33 37 65 37q20 0 32 -12t12 -32q0 -17 -9.5 -29t-33.5 -26l-8 -5l-131 -81h-56z" />
<glyph unicode="g&#x301;&#x304;" horiz-adv-x="556" d="M529 368l-77 4q5 -24 5 -47q0 -72 -44 -116q-64 -64 -174 -64q-4 0 -40 2q-29 -17 -29 -39q0 -30 47 -30q14 0 146 4h24q148 0 148 -124q0 -100 -81 -162t-212 -62q-99 0 -157.5 38.5t-58.5 103.5q0 46 26 62l81 48q-37 10 -52.5 25t-15.5 42q0 36 17 48l71 54 q-45 15 -69 41q-37 40 -37 96q0 79 60.5 129t156.5 50q93 0 152 -43q16 -1 36 -1q31 0 82 5zM252 421q-82 0 -82 -110q0 -56 22.5 -88t61.5 -32q80 0 80 108q0 122 -82 122zM272 -15q-76 0 -101 -11q-23 -11 -37 -34.5t-14 -51.5q0 -47 40.5 -75.5t107.5 -28.5t111.5 34.5 t44.5 86.5q0 48 -30.5 64t-121.5 16zM190 506l129 148q33 37 65 37q20 0 32 -12t12 -32q0 -17 -9.5 -29t-33.5 -26l-8 -5l-131 -81h-56zM444 676h-331v71h331v-71z" />
<glyph unicode="h&#x301;" d="M209 720l8 -6v-324l80 62q23 19 70 19q76 0 116 -42q35 -38 35 -143v-186q0 -40 6.5 -51t29.5 -13l33 -2v-37q-87 3 -101 3q-4 0 -90 -3v272q0 61 -22.5 88.5t-71.5 27.5q-33 0 -59 -21t-26 -47v-217q0 -40 6.5 -51t29.5 -13l35 -2v-37q-100 3 -135 3l-129 -3v37l35 2 q23 2 29.5 13t6.5 51v468q0 44 -4.5 56.5t-21.5 13.5l-45 3v36q77 10 113 21zM193 716l129 148q33 37 65 37q20 0 32 -12t12 -32q0 -17 -9.5 -29t-33.5 -26l-8 -5l-131 -81h-56z" />
<glyph unicode="h&#x324;" d="M209 720l8 -6v-324l80 62q23 19 70 19q76 0 116 -42q35 -38 35 -143v-186q0 -40 6.5 -51t29.5 -13l33 -2v-37q-87 3 -101 3q-4 0 -90 -3v272q0 61 -22.5 88.5t-71.5 27.5q-33 0 -59 -21t-26 -47v-217q0 -40 6.5 -51t29.5 -13l35 -2v-37q-100 3 -135 3l-129 -3v37l35 2 q23 2 29.5 13t6.5 51v468q0 44 -4.5 56.5t-21.5 13.5l-45 3v36q77 10 113 21zM368 -98v-1q21 0 36.5 -15.5t15.5 -36.5q0 -22 -15.5 -37.5t-37.5 -15.5t-37.5 16t-15.5 38q0 21 16 36.5t38 15.5zM196 -99v-1q21 0 36.5 -15.5t15.5 -36.5q0 -22 -15.5 -37.5t-37.5 -15.5 t-37.5 15.5t-15.5 37.5t16 37.5t38 15.5z" />
<glyph unicode="i&#x304;&#x301;" horiz-adv-x="333" d="M217 471l10 -6v-365q0 -40 6.5 -51t29.5 -13l35 -2v-37q-100 3 -135 3l-129 -3v37l35 2q23 2 29.5 13t6.5 51v219q0 44 -4.5 56.5t-21.5 13.5l-45 3v36q14 2 15 2q60 7 98 19zM298 538h-331v71h331v-71zM44 644l129 148q33 37 65 37q20 0 32 -12t12 -32q0 -17 -9.5 -29 t-33.5 -26l-8 -5l-131 -81h-56z" />
<glyph unicode="i&#x304;&#x300;" horiz-adv-x="333" d="M217 471l10 -6v-365q0 -40 6.5 -51t29.5 -13l35 -2v-37q-100 3 -135 3l-129 -3v37l35 2q23 2 29.5 13t6.5 51v219q0 44 -4.5 56.5t-21.5 13.5l-45 3v36q14 2 15 2q60 7 98 19zM298 538h-331v71h331v-71zM166 644l-131 81q-5 3 -11 7q-40 23 -40 53q0 20 12 32t32 12 q32 0 65 -37l129 -148h-56z" />
<glyph unicode="i&#x304;&#x303;" horiz-adv-x="333" d="M217 471l10 -6v-365q0 -40 6.5 -51t29.5 -13l35 -2v-37q-100 3 -135 3l-129 -3v37l35 2q23 2 29.5 13t6.5 51v219q0 44 -4.5 56.5t-21.5 13.5l-45 3v36q14 2 15 2q60 7 98 19zM298 538h-331v71h331v-71zM272 799h43q-18 -65 -46.5 -95.5t-71.5 -30.5q-31 0 -84 25 q-49 24 -77 24q-31 0 -46 -48h-40q6 55 38.5 90t77.5 35q29 0 80 -24t75 -24q18 0 27.5 9.5t23.5 38.5z" />
<glyph unicode="i&#x304;&#x306;" horiz-adv-x="333" d="M217 471l10 -6v-365q0 -40 6.5 -51t29.5 -13l35 -2v-37q-100 3 -135 3l-129 -3v37l35 2q23 2 29.5 13t6.5 51v219q0 44 -4.5 56.5t-21.5 13.5l-45 3v36q14 2 15 2q60 7 98 19zM298 538h-331v71h331v-71zM-19 807h44q16 -87 104 -87q57 0 87 36q24 26 24 49v2h44 q-5 -64 -26 -99q-41 -64 -125 -64q-94 0 -133 74q-16 33 -19 89z" />
<glyph unicode="i&#x303;&#x301;" horiz-adv-x="333" d="M217 471l10 -6v-365q0 -40 6.5 -51t29.5 -13l35 -2v-37q-100 3 -135 3l-129 -3v37l35 2q23 2 29.5 13t6.5 51v219q0 44 -4.5 56.5t-21.5 13.5l-45 3v36q14 2 15 2q60 7 98 19zM272 661h43q-18 -65 -46.5 -95.5t-71.5 -30.5q-31 0 -84 25q-49 24 -77 24q-31 0 -46 -48h-40 q6 55 38.5 90t77.5 35q29 0 80 -24t75 -24q18 0 27.5 9.5t23.5 38.5zM44 644l129 148q33 37 65 37q20 0 32 -12t12 -32q0 -17 -9.5 -29t-33.5 -26l-8 -5l-131 -81h-56z" />
<glyph unicode="j&#x304;" horiz-adv-x="333" d="M7 -223h23q40 0 57.5 43t17.5 142v357q0 44 -4.5 56.5t-21.5 13.5l-45 3v36l18 2q58 8 95 19l70 22l10 -6v-367q0 -114 -11.5 -174.5t-40.5 -104.5q-57 -85 -130 -85l-32 2l-10 35zM332 538h-331v71h331v-71z" />
<glyph unicode="k&#x35f;h" horiz-adv-x="1222" d="M214 720l8 -6v-465q73 63 106 97l107 113h130v-38h-31q-24 0 -48 -18l-62 -45q-16 -10 -70 -64l-8 -8l196 -220q26 -29 55 -32v-34h-172q-55 70 -87 106l-106 120h-10v-126q0 -40 6.5 -51t29.5 -13l35 -2v-37q-101 3 -135 3l-129 -3v37l35 2q23 2 29.5 13t6.5 51v468 q0 44 -4.5 56.5t-21.5 13.5l-53 3v36q80 8 121 21zM820 720l8 -6v-324l80 62q23 19 70 19q76 0 116 -42q35 -38 35 -143v-186q0 -40 6.5 -51t29.5 -13l33 -2v-37q-87 3 -101 3q-5 0 -90 -3v272q0 61 -22.5 88.5t-71.5 27.5q-33 0 -59 -21t-26 -47v-217q0 -40 6.5 -51 t29.5 -13l35 -2v-37q-101 3 -135 3l-129 -3v37l35 2q23 2 29.5 13t6.5 51v468q0 44 -4.5 56.5t-21.5 13.5l-45 3v36q77 10 113 21zM123 -82h977v-72h-977v72z" />
<glyph unicode="l&#x303;" horiz-adv-x="333" d="M217 720l8 -6v-614q0 -40 6.5 -51t29.5 -13l35 -2v-37q-100 3 -135 3l-129 -3v37l35 2q23 2 29.5 13t6.5 51v468q0 44 -4.5 56.5t-21.5 13.5l-53 3v36q80 8 121 21zM282 871h43q-18 -65 -46.5 -95.5t-71.5 -30.5q-31 0 -84 25q-49 24 -77 24q-31 0 -46 -48h-40 q6 55 38.5 90t77.5 35q29 0 80 -24t75 -24q18 0 27.5 9.5t23.5 38.5z" />
<glyph unicode="&#x1e37;&#x301;" horiz-adv-x="333" d="M217 720l8 -6v-614q0 -40 6.5 -51t29.5 -13l35 -2v-37q-100 3 -135 3l-129 -3v37l35 2q23 2 29.5 13t6.5 51v468q0 44 -4.5 56.5t-21.5 13.5l-53 3v36q80 8 121 21zM144 -69q30 0 53.5 -24t23.5 -55t-23.5 -54t-55.5 -23q-31 0 -54 23t-23 54q0 32 23.5 55.5t55.5 23.5z M54 716l129 148q33 37 65 37q20 0 32 -12t12 -32q0 -17 -9.5 -29t-33.5 -26l-8 -5l-131 -81h-56z" />
<glyph unicode="l&#x325;" horiz-adv-x="333" d="M217 720l8 -6v-614q0 -40 6.5 -51t29.5 -13l35 -2v-37q-100 3 -135 3l-129 -3v37l35 2q23 2 29.5 13t6.5 51v468q0 44 -4.5 56.5t-21.5 13.5l-53 3v36q80 8 121 21zM144 -83h1q32 0 55 -23.5t23 -55.5q0 -33 -23.5 -56.5t-56.5 -23.5t-56.5 23.5t-23.5 56.5t23.5 56 t57.5 23zM145 -123q-17 0 -28.5 -11t-11.5 -28q0 -16 11.5 -27.5t27.5 -11.5t27.5 11.5t11.5 27.5t-11 27.5t-27 11.5z" />
<glyph unicode="l&#x301;&#x325;" horiz-adv-x="333" d="M217 720l8 -6v-614q0 -40 6.5 -51t29.5 -13l35 -2v-37q-100 3 -135 3l-129 -3v37l35 2q23 2 29.5 13t6.5 51v468q0 44 -4.5 56.5t-21.5 13.5l-53 3v36q80 8 121 21zM144 -83h1q32 0 55 -23.5t23 -55.5q0 -33 -23.5 -56.5t-56.5 -23.5t-56.5 23.5t-23.5 56.5t23.5 56 t57.5 23zM145 -123q-17 0 -28.5 -11t-11.5 -28q0 -16 11.5 -27.5t27.5 -11.5t27.5 11.5t11.5 27.5t-11 27.5t-27 11.5zM54 716l129 148q33 37 65 37q20 0 32 -12t12 -32q0 -17 -9.5 -29t-33.5 -26l-8 -5l-131 -81h-56z" />
<glyph unicode="l&#x304;&#x325;" horiz-adv-x="333" d="M217 720l8 -6v-614q0 -40 6.5 -51t29.5 -13l35 -2v-37q-100 3 -135 3l-129 -3v37l35 2q23 2 29.5 13t6.5 51v468q0 44 -4.5 56.5t-21.5 13.5l-53 3v36q80 8 121 21zM144 -83h1q32 0 55 -23.5t23 -55.5q0 -33 -23.5 -56.5t-56.5 -23.5t-56.5 23.5t-23.5 56.5t23.5 56 t57.5 23zM145 -123q-17 0 -28.5 -11t-11.5 -28q0 -16 11.5 -27.5t27.5 -11.5t27.5 11.5t11.5 27.5t-11 27.5t-27 11.5zM308 748h-331v71h331v-71z" />
<glyph unicode="m&#x306;" horiz-adv-x="889" d="M24 392v36q42 2 76 10t111 33l6 -6v-75l80 62q25 19 71 19q52 0 83.5 -19t48.5 -62l80 62q25 19 72 19q80 0 111.5 -40.5t31.5 -144.5v-186q0 -40 6.5 -51t29.5 -13l33 -2v-37q-36 2 -98 3l-93 -3v272q0 116 -86 116q-30 0 -55.5 -21.5t-25.5 -46.5v-217q0 -40 6.5 -51 t29.5 -13l35 -2v-37q-107 3 -131 3q-25 0 -129 -3v37l31 2q24 1 30 12t6 52v169q0 116 -86 116q-30 0 -55.5 -21.5t-25.5 -46.5v-217q0 -41 6 -52t30 -12l27 -2v-37q-92 3 -127 3l-129 -3v37l35 2q23 2 29.5 13t6.5 51v219q0 44 -4.5 56.5t-21.5 13.5zM269 669h44 q16 -87 104 -87q57 0 87 36q24 26 24 49v2h44q-5 -64 -26 -99q-41 -64 -125 -64q-94 0 -133 74q-16 33 -19 89z" />
<glyph unicode="m&#x310;" horiz-adv-x="889" d="M24 392v36q42 2 76 10t111 33l6 -6v-75l80 62q25 19 71 19q52 0 83.5 -19t48.5 -62l80 62q25 19 72 19q80 0 111.5 -40.5t31.5 -144.5v-186q0 -40 6.5 -51t29.5 -13l33 -2v-37q-36 2 -98 3l-93 -3v272q0 116 -86 116q-30 0 -55.5 -21.5t-25.5 -46.5v-217q0 -40 6.5 -51 t29.5 -13l35 -2v-37q-107 3 -131 3q-25 0 -129 -3v37l31 2q24 1 30 12t6 52v169q0 116 -86 116q-30 0 -55.5 -21.5t-25.5 -46.5v-217q0 -41 6 -52t30 -12l27 -2v-37q-92 3 -127 3l-129 -3v37l35 2q23 2 29.5 13t6.5 51v219q0 44 -4.5 56.5t-21.5 13.5zM269 669h44 q16 -87 104 -87q57 0 87 36q24 26 24 49v2h44q-5 -64 -26 -99q-41 -64 -125 -64q-94 0 -133 74q-16 33 -19 89zM422 771q27 0 46.5 -20t19.5 -47q0 -28 -19.5 -47.5t-47.5 -19.5t-47.5 20t-19.5 48q0 27 20 46.5t48 19.5z" />
<glyph unicode="n&#x306;" d="M24 392v36q42 2 76 10t111 33l6 -6v-75l80 62q23 19 70 19q76 0 116 -42q35 -38 35 -143v-186q0 -40 6.5 -51t29.5 -13l33 -2v-37q-87 3 -101 3q-4 0 -90 -3v273q0 60 -22.5 87.5t-71.5 27.5q-33 0 -59 -21t-26 -47v-217q0 -40 6.5 -51t29.5 -13l35 -2v-37q-100 3 -135 3 l-129 -3v37l35 2q23 2 29.5 13t6.5 51v219q0 44 -4.5 56.5t-21.5 13.5zM130 669h44q16 -87 104 -87q57 0 87 36q24 26 24 49v2h44q-5 -64 -26 -99q-41 -64 -125 -64q-94 0 -133 74q-16 33 -19 89z" />
<glyph unicode="o&#x304;&#x303;" horiz-adv-x="556" d="M287 471q111 0 170.5 -60.5t59.5 -174.5q0 -121 -65 -187t-185 -66q-109 0 -168 63t-59 178q0 119 64 183t183 64zM275 423q-52 0 -75.5 -42t-23.5 -133q0 -217 109 -217q51 0 73.5 41t22.5 133q0 218 -106 218zM444 538h-331v71h331v-71zM418 799h43 q-18 -65 -46.5 -95.5t-71.5 -30.5q-31 0 -84 25q-49 24 -77 24q-31 0 -46 -48h-40q6 55 38.5 90t77.5 35q29 0 80 -24t75 -24q18 0 27.5 9.5t23.5 38.5z" />
<glyph unicode="o&#x304;&#x306;" horiz-adv-x="556" d="M287 471q111 0 170.5 -60.5t59.5 -174.5q0 -121 -65 -187t-185 -66q-109 0 -168 63t-59 178q0 119 64 183t183 64zM275 423q-52 0 -75.5 -42t-23.5 -133q0 -217 109 -217q51 0 73.5 41t22.5 133q0 218 -106 218zM444 538h-331v71h331v-71zM127 807h44q16 -87 104 -87 q57 0 87 36q24 26 24 49v2h44q-5 -64 -26 -99q-41 -64 -125 -64q-94 0 -133 74q-16 33 -19 89z" />
<glyph unicode="r&#x306;" horiz-adv-x="389" d="M213 471l10 -6v-95l44 48q29 31 46.5 42t38.5 11q22 0 37 -6l-5 -129l-24 -10q-21 36 -57 36q-29 0 -54.5 -20.5t-25.5 -43.5v-198q0 -42 8 -52t40 -12l39 -2v-37q-135 3 -151 3l-129 -3v37l35 2q23 2 29.5 13t6.5 51v219q0 44 -4.5 56.5t-21.5 13.5l-45 3v36 q77 10 113 21zM13 669h44q16 -87 104 -87q57 0 87 36q24 26 24 49v2h44q-5 -64 -26 -99q-41 -64 -125 -64q-94 0 -133 74q-16 33 -19 89z" />
<glyph unicode="&#x1e5b;&#x301;" horiz-adv-x="389" d="M213 471l10 -6v-95l44 48q29 31 46.5 42t38.5 11q22 0 37 -6l-5 -129l-24 -10q-21 36 -57 36q-29 0 -54.5 -20.5t-25.5 -43.5v-198q0 -42 8 -52t40 -12l39 -2v-37q-135 3 -151 3l-129 -3v37l35 2q23 2 29.5 13t6.5 51v219q0 44 -4.5 56.5t-21.5 13.5l-45 3v36 q77 10 113 21zM159 -69q30 0 53.5 -24t23.5 -55t-23.5 -54t-55.5 -23q-31 0 -54 23t-23 54q0 32 24 55.5t55 23.5zM86 506l129 148q33 37 65 37q20 0 32 -12t12 -32q0 -17 -9.5 -29t-33.5 -26l-8 -5l-131 -81h-56z" />
<glyph unicode="&#x1e5b;&#x300;" horiz-adv-x="389" d="M213 471l10 -6v-95l44 48q29 31 46.5 42t38.5 11q22 0 37 -6l-5 -129l-24 -10q-21 36 -57 36q-29 0 -54.5 -20.5t-25.5 -43.5v-198q0 -42 8 -52t40 -12l39 -2v-37q-135 3 -151 3l-129 -3v37l35 2q23 2 29.5 13t6.5 51v219q0 44 -4.5 56.5t-21.5 13.5l-45 3v36 q77 10 113 21zM159 -69q30 0 53.5 -24t23.5 -55t-23.5 -54t-55.5 -23q-31 0 -54 23t-23 54q0 32 24 55.5t55 23.5zM208 506l-131 81q-5 3 -11 7q-40 23 -40 53q0 20 12 32t32 12q32 0 65 -37l129 -148h-56z" />
<glyph unicode="&#x1e5b;&#x304;&#x301;" horiz-adv-x="389" d="M213 471l10 -6v-95l44 48q29 31 46.5 42t38.5 11q22 0 37 -6l-5 -129l-24 -10q-21 36 -57 36q-29 0 -54.5 -20.5t-25.5 -43.5v-198q0 -42 8 -52t40 -12l39 -2v-37q-135 3 -151 3l-129 -3v37l35 2q23 2 29.5 13t6.5 51v219q0 44 -4.5 56.5t-21.5 13.5l-45 3v36 q77 10 113 21zM159 -69q30 0 53.5 -24t23.5 -55t-23.5 -54t-55.5 -23q-31 0 -54 23t-23 54q0 32 24 55.5t55 23.5zM340 538h-331v71h331v-71zM86 644l129 148q33 37 65 37q20 0 32 -12t12 -32q0 -17 -9.5 -29t-33.5 -26l-8 -5l-131 -81h-56z" />
<glyph unicode="r&#x324;" horiz-adv-x="389" d="M213 471l10 -6v-95l44 48q29 31 46.5 42t38.5 11q22 0 37 -6l-5 -129l-24 -10q-21 36 -57 36q-29 0 -54.5 -20.5t-25.5 -43.5v-198q0 -42 8 -52t40 -12l39 -2v-37q-135 3 -151 3l-129 -3v37l35 2q23 2 29.5 13t6.5 51v219q0 44 -4.5 56.5t-21.5 13.5l-45 3v36 q77 10 113 21zM244 -98v-1q21 0 36.5 -15.5t15.5 -36.5q0 -22 -15.5 -37.5t-37.5 -15.5t-37.5 16t-15.5 38q0 21 16 36.5t38 15.5zM72 -99v-1q21 0 36.5 -15.5t15.5 -36.5q0 -22 -15.5 -37.5t-37.5 -15.5t-37.5 15.5t-15.5 37.5t16 37.5t38 15.5z" />
<glyph unicode="r&#x325;" horiz-adv-x="389" d="M213 471l10 -6v-95l44 48q29 31 46.5 42t38.5 11q22 0 37 -6l-5 -129l-24 -10q-21 36 -57 36q-29 0 -54.5 -20.5t-25.5 -43.5v-198q0 -42 8 -52t40 -12l39 -2v-37q-135 3 -151 3l-129 -3v37l35 2q23 2 29.5 13t6.5 51v219q0 44 -4.5 56.5t-21.5 13.5l-45 3v36 q77 10 113 21zM159 -83h1q32 0 55 -23.5t23 -55.5q0 -33 -23.5 -56.5t-56.5 -23.5t-56.5 23.5t-23.5 56.5t23.5 56t57.5 23zM160 -123q-17 0 -28.5 -11t-11.5 -28q0 -16 11 -27.5t28 -11.5t28 11.5t11 27.5t-11 27.5t-27 11.5z" />
<glyph unicode="r&#x301;&#x325;" horiz-adv-x="389" d="M213 471l10 -6v-95l44 48q29 31 46.5 42t38.5 11q22 0 37 -6l-5 -129l-24 -10q-21 36 -57 36q-29 0 -54.5 -20.5t-25.5 -43.5v-198q0 -42 8 -52t40 -12l39 -2v-37q-135 3 -151 3l-129 -3v37l35 2q23 2 29.5 13t6.5 51v219q0 44 -4.5 56.5t-21.5 13.5l-45 3v36 q77 10 113 21zM159 -83h1q32 0 55 -23.5t23 -55.5q0 -33 -23.5 -56.5t-56.5 -23.5t-56.5 23.5t-23.5 56.5t23.5 56t57.5 23zM160 -123q-17 0 -28.5 -11t-11.5 -28q0 -16 11 -27.5t28 -11.5t28 11.5t11 27.5t-11 27.5t-27 11.5zM86 506l129 148q33 37 65 37q20 0 32 -12 t12 -32q0 -17 -9.5 -29t-33.5 -26l-8 -5l-131 -81h-56z" />
<glyph unicode="r&#x300;&#x325;" horiz-adv-x="389" d="M213 471l10 -6v-95l44 48q29 31 46.5 42t38.5 11q22 0 37 -6l-5 -129l-24 -10q-21 36 -57 36q-29 0 -54.5 -20.5t-25.5 -43.5v-198q0 -42 8 -52t40 -12l39 -2v-37q-135 3 -151 3l-129 -3v37l35 2q23 2 29.5 13t6.5 51v219q0 44 -4.5 56.5t-21.5 13.5l-45 3v36 q77 10 113 21zM159 -83h1q32 0 55 -23.5t23 -55.5q0 -33 -23.5 -56.5t-56.5 -23.5t-56.5 23.5t-23.5 56.5t23.5 56t57.5 23zM160 -123q-17 0 -28.5 -11t-11.5 -28q0 -16 11 -27.5t28 -11.5t28 11.5t11 27.5t-11 27.5t-27 11.5zM208 506l-131 81q-5 3 -11 7q-40 23 -40 53 q0 20 12 32t32 12q32 0 65 -37l129 -148h-56z" />
<glyph unicode="r&#x304;&#x325;" horiz-adv-x="389" d="M213 471l10 -6v-95l44 48q29 31 46.5 42t38.5 11q22 0 37 -6l-5 -129l-24 -10q-21 36 -57 36q-29 0 -54.5 -20.5t-25.5 -43.5v-198q0 -42 8 -52t40 -12l39 -2v-37q-135 3 -151 3l-129 -3v37l35 2q23 2 29.5 13t6.5 51v219q0 44 -4.5 56.5t-21.5 13.5l-45 3v36 q77 10 113 21zM159 -83h1q32 0 55 -23.5t23 -55.5q0 -33 -23.5 -56.5t-56.5 -23.5t-56.5 23.5t-23.5 56.5t23.5 56t57.5 23zM160 -123q-17 0 -28.5 -11t-11.5 -28q0 -16 11 -27.5t28 -11.5t28 11.5t11 27.5t-11 27.5t-27 11.5zM340 538h-331v71h331v-71z" />
<glyph unicode="r&#x304;&#x301;&#x325;" horiz-adv-x="389" d="M213 471l10 -6v-95l44 48q29 31 46.5 42t38.5 11q22 0 37 -6l-5 -129l-24 -10q-21 36 -57 36q-29 0 -54.5 -20.5t-25.5 -43.5v-198q0 -42 8 -52t40 -12l39 -2v-37q-135 3 -151 3l-129 -3v37l35 2q23 2 29.5 13t6.5 51v219q0 44 -4.5 56.5t-21.5 13.5l-45 3v36 q77 10 113 21zM159 -83h1q32 0 55 -23.5t23 -55.5q0 -33 -23.5 -56.5t-56.5 -23.5t-56.5 23.5t-23.5 56.5t23.5 56t57.5 23zM160 -123q-17 0 -28.5 -11t-11.5 -28q0 -16 11 -27.5t28 -11.5t28 11.5t11 27.5t-11 27.5t-27 11.5zM340 538h-331v71h331v-71zM86 644l129 148 q33 37 65 37q20 0 32 -12t12 -32q0 -17 -9.5 -29t-33.5 -26l-8 -5l-131 -81h-56z" />
<glyph unicode="s&#x301;&#x304;" horiz-adv-x="444" d="M362 326h-36l-10 58q-2 15 -29.5 27t-57.5 12q-41 0 -64.5 -17.5t-23.5 -47.5q0 -23 13 -36t42 -20l82 -18q68 -15 97.5 -45t29.5 -84q0 -77 -58 -124.5t-153 -47.5q-75 0 -155 28l7 141h39l5 -69q45 -52 112 -52q42 0 67 21t25 56q0 26 -14 40.5t-49 22.5l-86 21 q-106 26 -106 125q0 75 53.5 114.5t154.5 39.5q70 0 123 -23zM134 506l129 148q33 37 65 37q20 0 32 -12t12 -32q0 -17 -9.5 -29t-33.5 -26l-8 -5l-131 -81h-56zM388 676h-331v71h331v-71z" />
<glyph unicode="&#x1e63;&#x304;" horiz-adv-x="444" d="M362 326h-36l-10 58q-2 15 -29.5 27t-57.5 12q-41 0 -64.5 -17.5t-23.5 -47.5q0 -23 13 -36t42 -20l82 -18q68 -15 97.5 -45t29.5 -84q0 -77 -58 -124.5t-153 -47.5q-75 0 -155 28l7 141h39l5 -69q45 -52 112 -52q42 0 67 21t25 56q0 26 -14 40.5t-49 22.5l-86 21 q-106 26 -106 125q0 75 53.5 114.5t154.5 39.5q70 0 123 -23zM223 -69q30 0 53.5 -24t23.5 -55t-23.5 -54t-55.5 -23q-31 0 -54 23t-23 54q0 32 24 55.5t55 23.5zM388 538h-331v71h331v-71z" />
<glyph unicode="s&#x324;" horiz-adv-x="444" d="M362 326h-36l-10 58q-2 15 -29.5 27t-57.5 12q-41 0 -64.5 -17.5t-23.5 -47.5q0 -23 13 -36t42 -20l82 -18q68 -15 97.5 -45t29.5 -84q0 -77 -58 -124.5t-153 -47.5q-75 0 -155 28l7 141h39l5 -69q45 -52 112 -52q42 0 67 21t25 56q0 26 -14 40.5t-49 22.5l-86 21 q-106 26 -106 125q0 75 53.5 114.5t154.5 39.5q70 0 123 -23zM308 -98v-1q21 0 36.5 -15.5t15.5 -36.5q0 -22 -15.5 -37.5t-37.5 -15.5t-37.5 16t-15.5 38q0 21 16 36.5t38 15.5zM136 -99v-1q21 0 36.5 -15.5t15.5 -36.5q0 -22 -15.5 -37.5t-37.5 -15.5t-37.5 15.5 t-15.5 37.5t16 37.5t38 15.5z" />
<glyph unicode="s&#x331;" horiz-adv-x="444" d="M362 326h-36l-10 58q-2 15 -29.5 27t-57.5 12q-41 0 -64.5 -17.5t-23.5 -47.5q0 -23 13 -36t42 -20l82 -18q68 -15 97.5 -45t29.5 -84q0 -77 -58 -124.5t-153 -47.5q-75 0 -155 28l7 141h39l5 -69q45 -52 112 -52q42 0 67 21t25 56q0 26 -14 40.5t-49 22.5l-86 21 q-106 26 -106 125q0 75 53.5 114.5t154.5 39.5q70 0 123 -23zM44 -82h355v-72h-355v72z" />
<glyph unicode="&#x1e6d;&#x301;" horiz-adv-x="333" d="M324 60l-49 -59q-15 -18 -65 -18q-65 0 -94.5 30t-29.5 97v259l-64 -4v22l66 43v60q0 23 -4 92q78 29 122 50l14 -10q-12 -67 -12 -136v-58l114 6l-8 -65h-106v-238q0 -37 13.5 -51t48.5 -14q20 0 46 13zM168 -69q30 0 53.5 -24t23.5 -55t-23.5 -54t-55.5 -23 q-31 0 -54 23t-23 54q0 32 23.5 55.5t55.5 23.5zM78 716l129 148q33 37 65 37q20 0 32 -12t12 -32q0 -17 -9.5 -29t-33.5 -26l-8 -5l-131 -81h-56z" />
<glyph unicode="t&#x324;" horiz-adv-x="333" d="M324 60l-49 -59q-15 -18 -65 -18q-65 0 -94.5 30t-29.5 97v259l-64 -4v22l66 43v60q0 23 -4 92q78 29 122 50l14 -10q-12 -67 -12 -136v-58l114 6l-8 -65h-106v-238q0 -37 13.5 -51t48.5 -14q20 0 46 13zM253 -98v-1q21 0 36.5 -15.5t15.5 -36.5q0 -22 -15.5 -37.5 t-37.5 -15.5t-37.5 16t-15.5 38q0 21 16 36.5t38 15.5zM81 -99v-1q21 0 36.5 -15.5t15.5 -36.5q0 -22 -15.5 -37.5t-37.5 -15.5t-37.5 15.5t-15.5 37.5t16 37.5t38 15.5z" />
<glyph unicode="u&#x304;&#x301;" d="M392 80l-76 -74q-23 -23 -70 -23q-72 0 -111 40.5t-39 116.5v179q0 44 -4.5 56.5t-21.5 13.5l-45 3v36q75 10 113 21l70 22l10 -6v-261q0 -72 17.5 -101.5t60.5 -29.5q40 0 68 26.5t28 63.5v156q0 44 -4.5 56.5t-21.5 13.5l-45 3v36q76 10 113 21l70 22l10 -6v-365 q0 -40 6.5 -51t29.5 -13l33 -2v-37q-21 1 -47 1q-28 2 -55 2q-11 0 -94 -3zM471 538h-331v71h331v-71zM217 644l129 148q33 37 65 37q20 0 32 -12t12 -32q0 -17 -9.5 -29t-33.5 -26l-8 -5l-131 -81h-56z" />
<glyph unicode="u&#x304;&#x300;" d="M392 80l-76 -74q-23 -23 -70 -23q-72 0 -111 40.5t-39 116.5v179q0 44 -4.5 56.5t-21.5 13.5l-45 3v36q75 10 113 21l70 22l10 -6v-261q0 -72 17.5 -101.5t60.5 -29.5q40 0 68 26.5t28 63.5v156q0 44 -4.5 56.5t-21.5 13.5l-45 3v36q76 10 113 21l70 22l10 -6v-365 q0 -40 6.5 -51t29.5 -13l33 -2v-37q-21 1 -47 1q-28 2 -55 2q-11 0 -94 -3zM471 538h-331v71h331v-71zM339 644l-131 81q-5 3 -11 7q-40 23 -40 53q0 20 12 32t32 12q32 0 65 -37l129 -148h-56z" />
<glyph unicode="u&#x304;&#x303;" d="M392 80l-76 -74q-23 -23 -70 -23q-72 0 -111 40.5t-39 116.5v179q0 44 -4.5 56.5t-21.5 13.5l-45 3v36q75 10 113 21l70 22l10 -6v-261q0 -72 17.5 -101.5t60.5 -29.5q40 0 68 26.5t28 63.5v156q0 44 -4.5 56.5t-21.5 13.5l-45 3v36q76 10 113 21l70 22l10 -6v-365 q0 -40 6.5 -51t29.5 -13l33 -2v-37q-21 1 -47 1q-28 2 -55 2q-11 0 -94 -3zM471 538h-331v71h331v-71zM445 799h43q-18 -65 -46.5 -95.5t-71.5 -30.5q-31 0 -84 25q-49 24 -77 24q-31 0 -46 -48h-40q6 55 38.5 90t77.5 35q29 0 80 -24t75 -24q18 0 27.5 9.5t23.5 38.5z" />
<glyph unicode="u&#x304;&#x306;" d="M392 80l-76 -74q-23 -23 -70 -23q-72 0 -111 40.5t-39 116.5v179q0 44 -4.5 56.5t-21.5 13.5l-45 3v36q75 10 113 21l70 22l10 -6v-261q0 -72 17.5 -101.5t60.5 -29.5q40 0 68 26.5t28 63.5v156q0 44 -4.5 56.5t-21.5 13.5l-45 3v36q76 10 113 21l70 22l10 -6v-365 q0 -40 6.5 -51t29.5 -13l33 -2v-37q-21 1 -47 1q-28 2 -55 2q-11 0 -94 -3zM471 538h-331v71h331v-71zM154 807h44q16 -87 104 -87q57 0 87 36q24 26 24 49v2h44q-5 -64 -26 -99q-41 -64 -125 -64q-94 0 -133 74q-16 33 -19 89z" />
<glyph unicode="v&#x301;" horiz-adv-x="556" d="M227 -3l-143 360q-25 59 -48 62l-25 2v38q101 -3 130 -3l129 3v-38l-41 -2q-23 -2 -23 -17q0 -16 14 -51l88 -221q21 45 35 80l61 151q9 23 9 41q0 15 -23 17l-38 2v38q32 -2 97 -3l96 3v-38l-30 -5q-24 -4 -36 -34l-128 -288q-18 -40 -38 -97h-86zM179 506l129 148 q33 37 65 37q20 0 32 -12t12 -32q0 -17 -9.5 -29t-33.5 -26l-8 -5l-131 -81h-56z" />
<glyph unicode="&#x7a;&#x324;" horiz-adv-x="500" d="M454 424l-268 -369h163q36 0 49.5 13t20.5 56l5 31h40q-12 -82 -12 -153l-5 -5l-273 3q-40 0 -158 -3v33l104 136l170 238h-118q-42 0 -56.5 -11.5t-19.5 -47.5l-3 -25h-38l3 134l7 5q180 -5 236 -5q62 0 153 5v-35zM320 -98v-1q21 0 36.5 -15.5t15.5 -36.5 q0 -22 -15.5 -37.5t-37.5 -15.5t-37.5 16t-15.5 38q0 21 16 36.5t38 15.5zM148 -99v-1q21 0 36.5 -15.5t15.5 -36.5q0 -22 -15.5 -37.5t-37.5 -15.5t-37.5 15.5t-15.5 37.5t16 37.5t38 15.5z" />
<glyph unicode="A&#x304;&#x30a;" horiz-adv-x="778" d="M469 206h-251l-42 -112q-5 -13 -5 -25q0 -13 8 -22t21 -10l50 -3v-37q-10 0 -23.5 0.5t-21.5 1t-12 0.5q-28 1 -56 1t-56 -1q-4 0 -12 -0.5t-21.5 -1t-23.5 -0.5v37l30 3q31 3 56 60l181 438q8 18 29 76l28 75h71l259 -605q17 -39 55 -44l24 -3v-37q-147 3 -158 3 q-12 0 -152 -3v37l53 3q20 2 20 27q0 13 -6 28zM342 516l-100 -254h204zM531 748h-331v71h331v-71zM368 1048q40 0 69 -29.5t29 -70.5t-29.5 -70.5t-70.5 -29.5t-70.5 29.5t-29.5 71.5q0 41 29.5 70t72.5 29zM367 998q-22 0 -36.5 -14.5t-14.5 -35.5t14.5 -35.5t35.5 -14.5 t35.5 14.5t14.5 35.5q0 20 -14.5 35t-34.5 15z" />
<glyph unicode="a&#x304;&#x30a;" horiz-adv-x="500" d="M299 67l-93 -72q-15 -12 -49 -12q-57 0 -87 31.5t-30 92.5q0 64 38 97t133 53l88 18q-2 61 -27 89.5t-75 28.5q-20 0 -38 -4.5t-20 -9.5l-22 -50l-30 7v69l53 32q55 34 120 34q76 0 118.5 -37.5t42.5 -104.5q0 -16 -1 -29q-2 -76 -2 -97q0 -20 2 -84v-21q1 -35 6 -46.5 t22 -14.5l30 -3v-37q-19 1 -36.5 1.5t-25.5 1t-15 0.5h-11q-5 0 -13.5 -0.5t-30.5 -1t-47 -1.5l-5 8zM299 115v118l-45 -12q-53 -14 -72.5 -32.5t-19.5 -55.5q0 -29 13.5 -46t37.5 -17q23 0 47.5 13t38.5 32zM376 538h-331v71h331v-71zM213 838q40 0 69 -29.5t29 -70.5 t-29.5 -70.5t-70.5 -29.5t-70.5 29.5t-29.5 71.5q0 41 29.5 70t72.5 29zM212 788q-22 0 -36.5 -14.5t-14.5 -35.5t14.5 -35.5t35.5 -14.5t35.5 14.5t14.5 35.5q0 20 -14.5 35t-34.5 15z" />
<glyph unicode="A&#x328;&#x307;" horiz-adv-x="778" d="M757 34v-37q-3 1 -6 1q-25 0 -48 -36.5t-23 -77.5q0 -32 17.5 -51.5t46.5 -19.5q27 0 68 15l6 -26q-44 -31 -111 -31q-49 0 -76 27t-27 75q0 69 51 106q12 8 39 19q-59 2 -94 2q-13 0 -153 -3v37l53 3q20 2 20 27q0 13 -6 28l-45 114h-251l-42 -112q-5 -13 -5 -25 q0 -13 8 -22t21 -10l50 -3v-37q-10 0 -23.5 0.5t-21.5 1t-12 0.5q-28 1 -56 1t-56 -1q-4 0 -12 -0.5t-21.5 -1t-23.5 -0.5v37l30 3q31 3 56 60l181 438q8 18 29 76l28 75h71l259 -605q17 -39 55 -44zM342 516l-100 -254h204zM367 881q27 0 46.5 -20t19.5 -47 q0 -28 -19.5 -47.5t-47.5 -19.5t-47.5 20t-19.5 48q0 27 20 46.5t48 19.5z" />
<glyph unicode="a&#x328;&#x307;" horiz-adv-x="500" d="M478 34v-37q-3 1 -7 1h-1q-19 0 -41.5 -39.5t-22.5 -73.5q0 -33 17.5 -52.5t46.5 -19.5q27 0 68 15l6 -26q-44 -31 -111 -31q-49 0 -76 27t-27 75q0 69 51 106q10 7 41 20q-29 1 -33 1q-10 0 -90 -3l-5 8l5 62l-93 -72q-15 -12 -49 -12q-57 0 -87 31.5t-30 92.5 q0 64 38 97t133 53l88 18q-2 61 -27 89.5t-75 28.5q-20 0 -38 -4.5t-20 -9.5l-22 -50l-30 7v69l53 32q55 34 120 34q76 0 118.5 -37.5t42.5 -104.5q0 -16 -1 -29q-2 -76 -2 -97q0 -20 2 -84v-21q1 -35 6 -46.5t22 -14.5zM299 115v118l-45 -12q-53 -14 -72.5 -32.5 t-19.5 -55.5q0 -29 13.5 -46t37.5 -17q23 0 47.5 13t38.5 32zM212 671q27 0 46.5 -20t19.5 -47q0 -28 -19.5 -47.5t-47.5 -19.5t-47.5 20t-19.5 48q0 27 20 46.5t48 19.5z" />
<glyph unicode="&#x18f;&#x304;" horiz-adv-x="666" d="M56 212v69q107 27 211 27h174q-1 47 -8 74.5t-24 56.5q-25 43 -70.5 68.5t-97.5 25.5q-71 0 -156 -46l-16 20l30 64q64 33 108.5 45t101.5 12q149 0 227.5 -82.5t78.5 -241.5q0 -95 -30.5 -157.5t-96.5 -101.5l-63 -37q-53 -31 -117 -31q-114 0 -183 64t-69 171zM337 241 l-112 -4q2 -99 28 -142t83 -43q58 0 84 43t29 142l-42 2q-40 2 -64 2h-6zM499 748h-331v71h331v-71z" />
<glyph unicode="&#x259;&#x304;" horiz-adv-x="500" d="M42 159v52q80 20 158 20h131q-3 61 -24 98q-19 32 -53 51.5t-73 19.5q-54 0 -117 -35l-12 15l22 48q83 43 158 43q112 0 170.5 -62t58.5 -181q0 -138 -95 -194l-47 -28q-39 -23 -88 -23q-86 0 -137.5 48t-51.5 128zM253 181l-84 -3q1 -74 20.5 -106.5t62.5 -32.5t63 32.5 t22 106.5l-32 1q-30 2 -48 2h-4zM416 538h-331v71h331v-71z" />
<glyph unicode="M&#x328;" horiz-adv-x="1000" d="M742 551l-206 -429q-36 -74 -60 -132h-34q-19 47 -36 83l-230 479v-417q0 -66 7 -80.5t41 -17.5l37 -3v-37q-72 3 -114 3q-19 0 -115 -3v37l37 3q34 3 41 17.5t7 80.5v408q0 66 -7 80.5t-41 17.5l-37 3v37q35 -1 51 -1q60 -2 69 -2l120 3l75 -161l158 -330l183 378 q12 26 49 113q104 -3 115 -3t116 3v-37l-37 -3q-34 -3 -41 -17.5t-7 -80.5v-408q0 -67 6.5 -79.5t41.5 -15.5l37 -3v-40q-121 3 -156 3q-34 0 -155 -3v40l37 3q35 3 41.5 15.5t6.5 79.5v416zM570 -172l6 -26q-44 -31 -111 -31q-49 0 -76 27t-27 75q0 91 94 127h38 q-56 -60 -56 -115q0 -33 17.5 -52.5t46.5 -19.5q27 0 68 15z" />
<glyph unicode="m&#x328;" horiz-adv-x="889" d="M24 392v36q42 2 76 10t111 33l6 -6v-75l80 62q25 19 71 19q52 0 83.5 -19t48.5 -62l80 62q25 19 72 19q80 0 111.5 -40.5t31.5 -144.5v-186q0 -40 6.5 -51t29.5 -13l33 -2v-37q-36 2 -98 3l-93 -3v272q0 116 -86 116q-30 0 -55.5 -21.5t-25.5 -46.5v-217q0 -40 6.5 -51 t29.5 -13l35 -2v-37q-107 3 -131 3q-25 0 -129 -3v37l31 2q24 1 30 12t6 52v169q0 116 -86 116q-30 0 -55.5 -21.5t-25.5 -46.5v-217q0 -41 6 -52t30 -12l27 -2v-37q-92 3 -127 3l-129 -3v37l35 2q23 2 29.5 13t6.5 51v219q0 44 -4.5 56.5t-21.5 13.5zM522 -172l6 -26 q-44 -31 -111 -31q-49 0 -76 27t-27 75q0 91 94 127h38q-56 -60 -56 -115q0 -33 17.5 -52.5t46.5 -19.5q27 0 68 15z" />
<glyph unicode="S&#x30c;&#x301;" d="M72 202h40l7 -88q23 -35 68 -56t96 -21q65 0 107.5 37t42.5 92q0 71 -83 96l-140 42q-71 21 -108.5 67t-37.5 110q0 101 70.5 157.5t194.5 56.5q90 0 185 -34l5 -12q-14 -45 -14 -142h-41l-6 82q-56 55 -136 55q-59 0 -96.5 -32.5t-37.5 -84.5q0 -38 25.5 -62.5 t80.5 -38.5l114 -30q151 -40 151 -176q0 -108 -80 -172.5t-214 -64.5q-106 0 -208 46q15 78 15 173zM351 720h-93l-121 175h55l113 -98l112 98h57zM217 854l129 148q33 37 65 37q20 0 32 -12t12 -32q0 -17 -9.5 -29t-33.5 -26l-8 -5l-131 -81h-56z" />
<glyph unicode="s&#x30c;&#x301;" horiz-adv-x="444" d="M362 326h-36l-10 58q-2 15 -29.5 27t-57.5 12q-41 0 -64.5 -17.5t-23.5 -47.5q0 -23 13 -36t42 -20l82 -18q68 -15 97.5 -45t29.5 -84q0 -77 -58 -124.5t-153 -47.5q-75 0 -155 28l7 141h39l5 -69q45 -52 112 -52q42 0 67 21t25 56q0 26 -14 40.5t-49 22.5l-86 21 q-106 26 -106 125q0 75 53.5 114.5t154.5 39.5q70 0 123 -23zM268 510h-93l-121 175h55l113 -98l112 98h57zM134 644l129 148q33 37 65 37q20 0 32 -12t12 -32q0 -17 -9.5 -29t-33.5 -26l-8 -5l-131 -81h-56z" />
<glyph unicode="&#x1e62;&#x30c;" d="M72 202h40l7 -88q23 -35 68 -56t96 -21q65 0 107.5 37t42.5 92q0 71 -83 96l-140 42q-71 21 -108.5 67t-37.5 110q0 101 70.5 157.5t194.5 56.5q90 0 185 -34l5 -12q-14 -45 -14 -142h-41l-6 82q-56 55 -136 55q-59 0 -96.5 -32.5t-37.5 -84.5q0 -38 25.5 -62.5 t80.5 -38.5l114 -30q151 -40 151 -176q0 -108 -80 -172.5t-214 -64.5q-106 0 -208 46q15 78 15 173zM351 720h-93l-121 175h55l113 -98l112 98h57zM307 -69q30 0 53.5 -24t23.5 -55t-23.5 -54t-55.5 -23q-31 0 -54 23t-23 54q0 32 24 55.5t55 23.5z" />
<glyph unicode="T&#x330;" horiz-adv-x="667" d="M404 619v-484q0 -67 6.5 -79.5t41.5 -15.5l37 -3v-40q-121 3 -156 3q-34 0 -155 -3v40l37 3q35 3 41.5 15.5t6.5 79.5v484h-117q-56 0 -63 -10q-8 -13 -8 -23l-5 -69h-40q-4 106 -13 159l6 5q276 -3 311 -3q34 0 310 3l6 -5q-10 -63 -13 -159h-40l-5 69l-9 24 q-12 9 -62 9h-117zM427 -106l33 -1q-14 -52 -36.5 -76t-56.5 -24q-25 0 -66 19q-37 18 -60 18q-24 0 -36 -37h-32q4 44 30 71.5t62 27.5q24 0 63 -18t59 -18q14 0 21.5 7.5t18.5 30.5z" />
<glyph unicode="t&#x330;" horiz-adv-x="333" d="M324 60l-49 -59q-15 -18 -65 -18q-65 0 -94.5 30t-29.5 97v259l-64 -4v22l66 43v60q0 23 -4 92q78 29 122 50l14 -10q-12 -67 -12 -136v-58l114 6l-8 -65h-106v-238q0 -37 13.5 -51t48.5 -14q20 0 46 13zM277 -106l33 -1q-14 -52 -36.5 -76t-56.5 -24q-25 0 -66 19 q-37 18 -60 18q-24 0 -36 -37h-32q4 44 30 71.5t62 27.5q24 0 63 -18t59 -18q14 0 21.5 7.5t18.5 30.5z" />
<glyph unicode="X&#x301;" horiz-adv-x="667" d="M22 658l183 37q37 -28 73 -91l95 -169l165 243h111v-34l-28 -3q-15 -2 -23.5 -8.5t-24.5 -27.5l-170 -224l159 -275l1 -3q21 -37 33.5 -50t28.5 -16l25 -3v-37q-30 2 -95 3l-96 -3l-149 266l-140 -201q-7 -9 -36 -62h-117v34l31 3q20 2 33 18l199 261l-94 166 q-43 76 -86 123q-18 18 -41 18q-13 0 -32 -6zM245 716l129 148q33 37 65 37q20 0 32 -12t12 -32q0 -17 -9.5 -29t-33.5 -26l-8 -5l-131 -81h-56z" />
<glyph unicode="x&#x301;" horiz-adv-x="500" d="M200 210l-80 136q-20 33 -36 45.5t-41 12.5q-10 0 -15 -1l-8 36q82 15 146 32q27 -22 62 -77l52 -85l108 150h95v-37q-28 -1 -41.5 -8.5t-36.5 -34.5l-97 -114l89 -152q26 -43 44.5 -60t41.5 -19v-37q-24 2 -77 3l-78 -3l-100 169l-64 -88q-20 -28 -52 -78h-91v34 q41 3 69 36zM162 506l129 148q33 37 65 37q20 0 32 -12t12 -32q0 -17 -9.5 -29t-33.5 -26l-8 -5l-131 -81h-56z" />
<glyph unicode="&#x14a;&#x301;" horiz-adv-x="758" d="M604 0l-477 526l1 -424q0 -22 1.5 -32.5t10.5 -16t16.5 -6t31 -1t42.5 -2.5v-44h-248v44q8 1 24 2.5t21 2t15.5 2.5t13 3.5t9 4.5t7.5 6.5t3.5 9.5t3 13t0.5 17v474q-37 40 -55.5 51.5t-37.5 11.5l-1 34h232l384 -429v305q0 51 -20.5 67.5t-84.5 21.5v35h239v-35 q-57 -8 -71.5 -18.5t-14.5 -51.5v-579q0 -47 -1.5 -73.5t-8 -58.5t-19 -48t-36 -27.5t-58.5 -11.5h-2q-69 0 -117 23q-32 17 -52.5 47.5t-20.5 61.5q0 29 23 50.5t54 21.5q32 0 56 -22.5t24 -52.5q0 -20 -16 -38q-14 -17 -14 -26q0 -14 14 -23t36 -9q40 0 66.5 21.5 t26.5 65.5v107zM291 716l129 148q33 37 65 37q20 0 32 -12t12 -32q0 -17 -9.5 -29t-33.5 -26l-8 -5l-131 -81h-56z" />
<glyph unicode="&#x14b;&#x301;" horiz-adv-x="585" d="M387 -96v419q0 83 -55 83q-21 0 -52 -9.5t-47 -25.5q-18 -15 -18 -23v-267q0 -14 0.5 -21t9 -11t12.5 -4.5t26 -3.5l1 -41q-52 4 -117 4q-71 0 -130 -4v41q8 2 19.5 3.5t15.5 2.5t9.5 3t7 6t2.5 10.5t1 17.5v294q0 13 -0.5 19.5t-5.5 10t-8 4t-16 2t-23 2.5v29 q99 1 194 32l2 -91q26 42 75.5 64.5t99.5 22.5q64 0 102 -38.5t38 -102.5v-330q0 -84 -28 -129q-45 -76 -155 -76q-64 0 -104.5 28t-40.5 72q0 27 18 44t46 17q25 0 43 -16t18 -38q0 -17 -15 -37q-8 -16 -8 -22q0 -17 33 -17q50 0 50 76zM187 506l129 148q33 37 65 37 q20 0 32 -12t12 -32q0 -17 -9.5 -29t-33.5 -26l-8 -5l-131 -81h-56z" />
<glyph unicode="T&#x327;" horiz-adv-x="667" d="M404 619v-484q0 -67 6.5 -79.5t41.5 -15.5l37 -3v-40q-121 3 -156 3q-34 0 -155 -3v40l37 3q35 3 41.5 15.5t6.5 79.5v484h-117q-56 0 -63 -10q-8 -13 -8 -23l-5 -69h-40q-4 106 -13 159l6 5q276 -3 311 -3q34 0 310 3l6 -5q-10 -63 -13 -159h-40l-5 69l-9 24 q-12 9 -62 9h-117zM272 -103l43 96h41l-28 -64q23 6 45 6q35 0 56 -19.5t21 -53.5q0 -40 -36 -63.5t-97 -23.5q-40 0 -94 18l16 37q44 -9 67 -9q50 0 50 37q0 35 -38 35q-4 0 -36 -4z" />
<glyph unicode="t&#x327;" horiz-adv-x="333" d="M324 60l-49 -59q-15 -18 -65 -18q-65 0 -94.5 30t-29.5 97v259l-64 -4v22l66 43v60q0 23 -4 92q78 29 122 50l14 -10q-12 -67 -12 -136v-58l114 6l-8 -65h-106v-238q0 -37 13.5 -51t48.5 -14q20 0 46 13zM122 -103l43 96h41l-28 -64q23 6 45 6q35 0 56 -19.5t21 -53.5 q0 -40 -36 -63.5t-97 -23.5q-40 0 -94 18l16 37q44 -9 67 -9q50 0 50 37q0 35 -38 35q-4 0 -36 -4z" />
<glyph unicode=" "  horiz-adv-x="250" />
<glyph unicode="&#x09;" horiz-adv-x="250" />
<glyph unicode="&#xa0;" horiz-adv-x="250" />
<glyph unicode="!" horiz-adv-x="278" d="M142 144q30 0 53.5 -24t23.5 -55t-23.5 -54t-55.5 -23q-31 0 -54 23t-23 54t23.5 55t55.5 24zM168 688h51q0 -41 -7 -96l-50 -372l-38 -21l-5 8l-47 358q-3 25 -4 79z" />
<glyph unicode="&#x22;" horiz-adv-x="402" d="M113 376h-46l-44 239q-1 4 -1 9q0 27 21 49t47 22t47 -22t21 -49q0 -6 -1 -9zM335 376h-46l-44 239q-1 4 -1 9q0 27 21 49t47 22t47 -22t21 -49q0 -6 -1 -9z" />
<glyph unicode="#" horiz-adv-x="500" d="M470 290v-75h-105l-32 -215h-75l32 215h-108l-32 -215h-75l32 215h-103v75h115l16 106h-103v75h114l30 202h75l-30 -202h107l29 202h75l-29 -202h93v-75h-104l-16 -106h94zM317 396h-107l-16 -106h107z" />
<glyph unicode="$" horiz-adv-x="500" d="M221 37v240q-61 8 -94 20.5t-55 34.5q-44 43 -44 130q0 94 60 147q45 40 133 59l-2 53h50l-2 -53q92 -1 165 -33l2 -7q-14 -49 -14 -140h-39q0 80 -15 91q-42 33 -99 35v-212q68 -13 103.5 -27t58.5 -38q43 -44 43 -123q0 -62 -27.5 -113t-76.5 -82q-38 -23 -101 -32 l2 -101h-51l3 97q-112 4 -188 40l-3 9q6 58 9 149h41v-40q0 -44 29 -66q48 -34 112 -38zM267 267v-227q98 29 98 121q0 89 -98 106zM221 408v206q-39 -3 -65 -34t-26 -75q0 -82 91 -97z" />
<glyph unicode="%" horiz-adv-x="889" d="M226 700q69 0 115 -47t46 -117t-46.5 -117t-116.5 -47q-69 0 -116 47t-47 116q0 73 46 119t119 46zM225 668q-64 0 -64 -129q0 -135 63 -135t63 132t-62 132zM667 328q69 0 115 -47t46 -117t-46.5 -117t-116.5 -47q-69 0 -116 47t-47 116q0 73 46 119t119 46zM666 296 q-64 0 -64 -129q0 -135 63 -135t63 132t-62 132zM283 -9h-49l366 723h49z" />
<glyph unicode="&#x26;" horiz-adv-x="833" d="M537 328h-90q24 44 29 66l118 -4q19 -1 49 -1q53 0 145 6l3 -9q-15 -34 -20 -70q-70 7 -141 7q3 -24 3 -37q0 -67 -65 -153q79 -49 151 -49q23 0 52 20q2 2 6 4t5 3l17 11l14 -32q-64 -54 -93 -99l-66 -3q-90 0 -171 65q-95 -70 -201 -70q-101 0 -165.5 54t-64.5 139 q0 64 34.5 108.5t120.5 88.5q-33 83 -33 130q0 29 11 51.5t40 53.5l35 38q36 38 102 38q52 0 83.5 -28.5t31.5 -75.5q0 -52 -34.5 -94.5t-123.5 -100.5q86 -129 206 -227q32 49 32 92q0 35 -20 78zM222 336q-29 -28 -40 -50t-11 -53q0 -72 53.5 -126t125.5 -54q48 0 91 30 q-73 63 -122.5 120t-96.5 133zM299 426q2 1 5 3.5t5.5 4t4.5 2.5q76 55 76 121q0 29 -16.5 47t-42.5 18q-32 0 -49 -20.5t-17 -57.5q0 -42 34 -118z" />
<glyph unicode="'" horiz-adv-x="227" d="M136 376h-46l-44 239q-1 4 -1 9q0 27 21 49t47 22t47 -22t21 -49q0 -6 -1 -9z" />
<glyph unicode="(" horiz-adv-x="333" d="M279 723l26 -22q-33 -40 -49 -69t-30 -70q-28 -89 -28 -254q0 -153 21 -229.5t86 -158.5l-24 -24q-75 57 -112 100.5t-64 106.5q-40 90 -40 204q0 113 39 204q26 63 63 107.5t112 104.5z" />
<glyph unicode=")" horiz-adv-x="333" d="M28 701l26 22q75 -60 112 -105t63 -107q39 -91 39 -204q0 -114 -40 -204q-27 -63 -64 -106.5t-112 -100.5l-24 24q65 83 86 158.5t21 229.5q0 172 -31 262q-22 63 -76 131z" />
<glyph unicode="*" horiz-adv-x="444" d="M319 673l5 -14q-39 -39 -82 -127q13 3 26 5.5t19 3.5q69 12 96 22l6 -3q-1 -9 -1 -20q0 -26 11 -67l-9 -11q-63 25 -154 34l7 -12q44 -73 73 -106l-2 -12q-35 -7 -85 -34l-15 7q0 76 -11 145q-54 -39 -101 -105l-19 8q-15 42 -39 70l4 7q66 17 137 53q-50 34 -138 59 l-3 7q29 45 44 77h16l102 -114q13 66 13 142l8 7q41 -15 92 -22z" />
<glyph unicode="+" horiz-adv-x="606" d="M260 298v207h86v-207h209v-86h-209v-212h-86v212h-209v86h209z" />
<glyph unicode="," horiz-adv-x="250" d="M80 -136l-71 -30l-15 13q69 139 82 256q80 21 134 38l17 -16q-45 -98 -147 -261z" />
<glyph unicode="-" horiz-adv-x="333" d="M50 305h258l9 -10q-24 -53 -32 -100h-261l-8 8q8 24 15 43q14 40 19 59z" />
<glyph unicode="." horiz-adv-x="250" d="M126 144q30 0 53.5 -24t23.5 -55t-23.5 -54t-55.5 -23q-31 0 -54 23t-23 54t23.5 55t55.5 24z" />
<glyph unicode="/" horiz-adv-x="296" d="M215 720h90l-224 -737h-90z" />
<glyph unicode="0" horiz-adv-x="500" d="M266 660q112 0 161 -87q41 -72 41 -225q0 -189 -54.5 -277t-171.5 -88q-110 0 -159.5 76t-49.5 243q0 176 48 259q56 99 185 99zM245 610q-43 0 -65 -40q-27 -50 -27 -198q0 -218 32 -287q24 -52 70 -52q45 0 69 56.5t24 162.5q0 101 -9.5 187.5t-24.5 118.5 q-24 52 -69 52z" />
<glyph unicode="1" horiz-adv-x="500" d="M189 564l-140 -65q-14 36 -14 70q99 22 299 101l12 -10q-10 -140 -10 -254v-322q0 -44 57 -47l62 -3v-37q-98 2 -108 2q-33 1 -69 1q-33 0 -63 -1q-18 0 -140 -2v37l72 3q57 3 57 47v443q0 37 -10 38q-3 0 -5 -1z" />
<glyph unicode="2" horiz-adv-x="500" d="M25 -3v51l167 166q117 117 117 229q0 51 -29.5 81.5t-78.5 30.5q-33 0 -62 -16.5t-35 -38.5l-18 -68l-37 3l18 165q80 60 161 60q93 0 153 -48.5t60 -124.5q0 -101 -103 -202l-174 -171l2 -8l302 11l4 -5q-3 -40 -3 -62q0 -29 2 -53l-230 3h-44z" />
<glyph unicode="3" horiz-adv-x="500" d="M22 156l34 9q28 -63 59 -91q41 -35 95 -35q55 0 89.5 37t34.5 96q0 56 -34.5 90t-91.5 34q-34 0 -61 -8l-7 5l19 74h35q51 0 82 28.5t31 76.5q0 41 -27.5 65.5t-74.5 24.5q-89 0 -117 -101h-35l31 154q79 45 153 45q79 0 130 -40t51 -101q0 -88 -112 -146q59 -7 91 -27 q61 -41 61 -121q0 -101 -84 -171.5t-203 -70.5q-68 0 -124 24q-21 128 -25 149z" />
<glyph unicode="4" horiz-adv-x="500" d="M19 165l-7 39q81 201 245 441l122 27l7 -12q-6 -176 -6 -288v-125h88l1 -3v-79h-89v-54q0 -69 57 -74l36 -3v-37q-139 3 -154 3q-33 0 -65 -1q-12 0 -112 -2v37l64 3q57 3 57 74v54h-244zM82 247h181v332q-12 -18 -33 -53q-42 -69 -42 -70l-62 -116q-12 -22 -27 -57 q-9 -20 -17 -36z" />
<glyph unicode="5" horiz-adv-x="500" d="M149 539l-4 -155q75 34 130 34q91 0 144 -49t53 -132q0 -106 -83.5 -180t-202.5 -74q-62 0 -113 22q-7 35 -31 134l30 18q53 -116 155 -116q58 0 92.5 37t34.5 99q0 63 -36 100.5t-97 37.5q-65 0 -112 -40l-19 11q6 95 6 124v102q0 50 -6 136l7 8q76 -4 170 -6l177 6 l4 -8q-7 -31 -7 -56q0 -26 1 -42l-6 -11q-128 3 -143 3z" />
<glyph unicode="6" horiz-adv-x="500" d="M396 660l39 -27l-15 -16q-9 1 -21 1q-54 0 -101 -24.5t-77 -69.5q-23 -35 -35 -79t-18 -119q36 46 69 64.5t77 18.5q71 0 113 -51t42 -137q0 -106 -60 -172t-157 -66q-109 0 -163 77q-52 75 -52 204q0 211 149 326q49 38 95 53.5t115 16.5zM254 323q-89 0 -89 -125 q0 -76 26.5 -120.5t71.5 -44.5q42 0 65 36.5t23 101.5q0 68 -26.5 110t-70.5 42z" />
<glyph unicode="7" horiz-adv-x="500" d="M493 653v-45q-37 -59 -93 -172l-110 -224q-57 -121 -86 -215q-8 1 -19 1q-34 2 -36 2q-9 0 -55 -3l-6 11l300 518l-4 6h-225q-36 0 -47.5 -9.5t-15.5 -42.5l-8 -64h-39q1 78 1 90q0 55 -4 142l10 8q88 -2 99 -2q116 -4 168 -4h29z" />
<glyph unicode="8" horiz-adv-x="500" d="M151 320q-54 32 -77 67.5t-23 88.5q0 83 57 133.5t152 50.5q81 0 129 -39t48 -104q0 -42 -21 -74t-73 -67q53 -22 81 -54q43 -49 43 -119q0 -94 -66.5 -157t-166.5 -63q-88 0 -144 48t-56 124q0 106 117 165zM253 275l-61 27q-39 -35 -54 -63t-15 -68q0 -59 35.5 -97.5 t89.5 -38.5q47 0 78 33t31 82q0 43 -24 71.5t-80 53.5zM250 412l44 -19q32 28 45.5 52.5t13.5 55.5q0 48 -28.5 77.5t-75.5 29.5q-43 0 -69 -24.5t-26 -64.5q0 -36 22 -60.5t74 -46.5z" />
<glyph unicode="9" horiz-adv-x="500" d="M105 -17l-38 29l9 18q21 -3 31 -3q51 0 102 28q72 39 101 138q13 41 21 122l-63 -55q-28 -24 -73 -24q-79 0 -121.5 49.5t-42.5 141.5q0 108 58 170.5t159 62.5q105 0 160 -69.5t55 -200.5q0 -132 -58.5 -233t-161.5 -146q-53 -24 -138 -28zM241 608q-43 0 -67.5 -35 t-24.5 -97q0 -71 27 -112t74 -41q86 0 86 121q0 79 -24.5 121.5t-70.5 42.5z" />
<glyph unicode=":" horiz-adv-x="250" d="M126 144q30 0 53.5 -24t23.5 -55t-23.5 -54t-55.5 -23q-31 0 -54 23t-23 54t23.5 55t55.5 24zM126 454q30 0 53.5 -24t23.5 -55t-23.5 -54t-55.5 -23q-31 0 -54 23t-23 54t23.5 55t55.5 24z" />
<glyph unicode=";" horiz-adv-x="250" d="M80 -136l-71 -30l-15 13q69 139 82 256q80 21 134 38l17 -16q-45 -98 -147 -261zM149 454q30 0 53.5 -24t23.5 -55t-23.5 -54t-55.5 -23q-31 0 -54 23t-23 54t24 55t55 24z" />
<glyph unicode="&#x3c;" horiz-adv-x="606" d="M170 252l388 -179v-92l-509 230v82l509 230v-92z" />
<glyph unicode="=" horiz-adv-x="606" d="M555 396v-86h-504v86h504zM555 200v-86h-504v86h504z" />
<glyph unicode="&#x3e;" horiz-adv-x="606" d="M437 252l-388 179v92l509 -230v-82l-509 -230v92z" />
<glyph unicode="?" horiz-adv-x="444" d="M78 497l-35 9q28 85 32 133q71 48 150 48q85 0 135.5 -42.5t50.5 -114.5q0 -42 -15.5 -71.5t-55.5 -62.5l-77 -64q-62 -51 -62 -91q0 -17 9 -37l1 -2l-34 -14q-26 33 -26 74q0 47 63 124q63 75 63 122q0 35 -27.5 59t-68.5 24q-61 0 -72 -23zM195 144q30 0 53.5 -24 t23.5 -55t-23.5 -54t-54.5 -23q-32 0 -55 22.5t-23 53.5q0 32 24 56t55 24z" />
<glyph unicode="@" horiz-adv-x="747" d="M635 173h64q-37 -64 -76 -98q-99 -87 -231 -87q-148 0 -249 98.5t-101 242.5q0 148 101 250t248 102q132 0 222.5 -81.5t90.5 -200.5q0 -110 -73 -186q-34 -34 -75 -55t-75 -21q-60 0 -69 82q-33 -45 -57.5 -60.5t-60.5 -15.5q-55 0 -89.5 37.5t-34.5 97.5q0 88 62 155.5 t144 67.5q66 0 81 -72l16 64h94l-74 -274q-4 -18 -4 -25q0 -24 19 -24q34 0 80 55q65 78 65 178q0 94 -74 158t-183 64q-128 0 -213 -82.5t-85 -207.5q0 -126 86.5 -208.5t218.5 -82.5q59 0 107 22q39 17 65 39.5t60 67.5zM392 471h-3q-43 0 -83.5 -75t-40.5 -154 q0 -31 13.5 -50.5t35.5 -19.5q42 0 80 68q44 76 44 163q0 29 -12.5 48t-33.5 20z" />
<glyph unicode="A" horiz-adv-x="778" d="M469 206h-251l-42 -112q-5 -13 -5 -25q0 -13 8 -22t21 -10l50 -3v-37q-10 0 -23.5 0.5t-21.5 1t-12 0.5q-28 1 -56 1t-56 -1q-4 0 -12 -0.5t-21.5 -1t-23.5 -0.5v37l30 3q31 3 56 60l181 438q8 18 29 76l28 75h71l259 -605q17 -39 55 -44l24 -3v-37q-147 3 -158 3 q-12 0 -152 -3v37l53 3q20 2 20 27q0 13 -6 28zM342 516l-100 -254h204z" />
<glyph unicode="B" horiz-adv-x="667" d="M316 680l83 1q189 0 189 -135q0 -61 -38 -96q-23 -21 -51.5 -35.5t-92.5 -37.5q103 -6 150 -39q55 -39 55 -122q0 -97 -75.5 -158t-195.5 -61q-1 0 -10 0.5t-29 1t-43 0.5q-24 1 -60 1q-18 0 -126 -3v23l32 18q20 11 20 57v448q0 66 -7 80.5t-41 17.5l-37 3v37l79 -2 q46 -1 89 -1q61 0 109 2zM265 348v-292q23 -4 43 -4q80 0 116.5 36t36.5 114q0 77 -39.5 111.5t-126.5 34.5h-30zM265 627v-227h30q76 0 110.5 29.5t34.5 94.5q0 56 -28 81.5t-89 25.5q-26 0 -58 -4z" />
<glyph unicode="C" horiz-adv-x="722" d="M692 87l-22 -49q-55 -31 -105.5 -43t-119.5 -12q-185 0 -293 98t-108 266q0 161 110.5 254.5t300.5 93.5q65 0 115.5 -10t118.5 -37l6 -11q-11 -45 -23 -153h-39l-5 86q-41 38 -81.5 53.5t-96.5 15.5q-119 0 -187.5 -74.5t-68.5 -203.5q0 -142 80 -227.5t211 -85.5 q97 0 195 51z" />
<glyph unicode="D" horiz-adv-x="833" d="M68 20l32 18q20 11 20 57v448q0 66 -7 80.5t-41 17.5l-37 3v37q149 -3 162 -3q5 0 239 3q101 -1 165.5 -20.5t107.5 -62.5q77 -75 77 -222q0 -162 -104 -263q-118 -116 -303 -116l-59 1q-50 2 -97 2q-19 0 -155 -3v23zM261 627v-570q31 -5 68 -5q162 0 234 71 q73 73 73 225q0 146 -66 211q-74 72 -246 72q-31 0 -63 -4z" />
<glyph unicode="E" d="M265 620v-240q20 -2 67 -2h66q31 0 43 4.5t14 16.5l6 57h40q-3 -95 -3 -107l3 -108h-40l-6 50q-4 37 -57 37h-66q-25 0 -67 -3v-267q77 -3 131 -3q73 0 116 14q3 1 3 3l23 94h39l-11 -158l-5 -8q-77 -4 -141 -4q-57 0 -192 4h-34q-23 0 -122 -3v23l32 18q20 11 20 57v448 q0 66 -7 80.5t-41 17.5l-37 3v37q165 -3 188 -3q57 0 130 2q21 0 45.5 0.5t38.5 1t24 0.5q46 0 95 -4l6 -7l-14 -142h-36l-8 75q-1 8 -29.5 14t-68.5 6q-70 0 -145 -4z" />
<glyph unicode="F" horiz-adv-x="556" d="M254 620v-243q20 -2 67 -2h51q31 0 43 4.5t14 16.5l6 53h40q-3 -78 -3 -103l3 -108h-40l-6 50q-4 37 -57 37h-51q-25 0 -67 -3v-187q0 -66 7 -79.5t41 -15.5l47 -3v-40q-134 3 -166 3q-34 0 -155 -3v40l37 3q35 3 41.5 15.5t6.5 79.5v408q0 66 -7 80.5t-41 17.5l-37 3v37 q149 -3 178 -3q45 0 91 1q120 3 141 3q44 0 95 -4l6 -7l-14 -142h-36l-8 75q-2 19 -111 19q-42 0 -116 -3z" />
<glyph unicode="G" horiz-adv-x="833" d="M776 276v-34q-28 -6 -34.5 -12t-6.5 -24v-163q-90 -34 -155.5 -47t-141.5 -13q-178 0 -284.5 99t-106.5 264q0 162 111 255.5t303 93.5q135 0 261 -47l6 -11q-11 -45 -23 -153h-39l-5 86q-30 29 -58 40q-66 29 -147 29q-122 0 -190.5 -74.5t-68.5 -206.5q0 -143 74 -231 t195 -88q60 0 127 25v132q0 19 -12.5 27t-44.5 10l-53 2v41q121 -3 143 -3q26 0 150 3z" />
<glyph unicode="H" horiz-adv-x="833" d="M262 543v-158q23 -2 81 -2h146q57 0 81 2v158q0 67 -6.5 79.5t-41.5 15.5l-37 3v40q120 -3 155 -3q34 0 156 3v-40l-37 -3q-35 -3 -41.5 -15.5t-6.5 -79.5v-408q0 -67 6.5 -79.5t41.5 -15.5l37 -3v-40q-121 3 -156 3q-34 0 -155 -3v40l37 3q35 3 41.5 15.5t6.5 79.5v190 q-52 2 -81 2h-146q-29 0 -81 -2v-190q0 -67 6.5 -79.5t41.5 -15.5l37 -3v-40q-121 3 -156 3q-34 0 -155 -3v40l37 3q35 3 41.5 15.5t6.5 79.5v408q0 67 -6.5 79.5t-41.5 15.5l-37 3v40q120 -3 155 -3q34 0 156 3v-40l-37 -3q-35 -3 -41.5 -15.5t-6.5 -79.5z" />
<glyph unicode="I" horiz-adv-x="389" d="M265 543v-408q0 -67 6.5 -79.5t41.5 -15.5l37 -3v-40q-121 3 -156 3q-34 0 -155 -3v40l37 3q35 3 41.5 15.5t6.5 79.5v408q0 67 -6.5 79.5t-41.5 15.5l-37 3v40q120 -3 155 -3q34 0 156 3v-40l-37 -3q-35 -3 -41.5 -15.5t-6.5 -79.5z" />
<glyph unicode="J" horiz-adv-x="389" d="M-11 -208v89l11 6q1 -1 4.5 -3t6.5 -5q35 -27 58 -27q30 0 42.5 29.5t12.5 100.5v561q0 67 -6.5 79.5t-41.5 15.5l-37 3v40q120 -3 155 -3q34 0 156 3v-40l-37 -3q-35 -3 -41.5 -15.5t-6.5 -79.5v-406q0 -78 -5.5 -117t-22.5 -75q-32 -67 -94.5 -112.5t-123.5 -45.5 q-14 0 -30 5z" />
<glyph unicode="K" horiz-adv-x="778" d="M265 343l197 193q25 25 58 62q8 8 10 12q26 27 26 46v25q87 -3 91 -3t91 3v-39q-47 -4 -69.5 -11t-40.5 -23l-222 -207l266 -313q42 -49 91 -50v-41q-17 1 -34 1q-51 2 -67 2l-102 -3l-208 249q-43 50 -55.5 62.5t-31.5 23.5v-197q0 -67 6.5 -79.5t41.5 -15.5l37 -3v-40 q-121 3 -156 3q-34 0 -155 -3v40l37 3q35 3 41.5 15.5t6.5 79.5v408q0 67 -6.5 79.5t-41.5 15.5l-37 3v40q120 -3 155 -3q34 0 156 3v-40l-37 -3q-35 -3 -41.5 -15.5t-6.5 -79.5v-200z" />
<glyph unicode="L" d="M265 543v-485q78 -3 131 -3q46 0 81.5 5t37.5 12l23 102h39l-11 -166l-5 -8q-77 -4 -141 -4q-57 0 -192 4h-34q-23 0 -122 -3v23l32 18q20 11 20 57v448q0 67 -6.5 79.5t-41.5 15.5l-37 3v40q120 -3 155 -3q34 0 156 3v-40l-37 -3q-35 -3 -41.5 -15.5t-6.5 -79.5z" />
<glyph unicode="M" horiz-adv-x="1000" d="M742 551l-206 -429q-36 -74 -60 -132h-34q-19 47 -36 83l-230 479v-417q0 -66 7 -80.5t41 -17.5l37 -3v-37q-72 3 -114 3q-19 0 -115 -3v37l37 3q34 3 41 17.5t7 80.5v408q0 66 -7 80.5t-41 17.5l-37 3v37q35 -1 51 -1q60 -2 69 -2l120 3l75 -161l158 -330l183 378 q12 26 49 113q104 -3 115 -3t116 3v-37l-37 -3q-34 -3 -41 -17.5t-7 -80.5v-408q0 -67 6.5 -79.5t41.5 -15.5l37 -3v-40q-121 3 -156 3q-34 0 -155 -3v40l37 3q35 3 41.5 15.5t6.5 79.5v416z" />
<glyph unicode="N" horiz-adv-x="833" d="M155 678l84 3q83 -110 103 -133l312 -364v359q0 66 -7 80.5t-41 17.5l-37 3v37q88 -3 115 -3l114 3v-37l-37 -3q-34 -3 -41 -17.5t-7 -80.5v-454q0 -17 3 -101l-7 -4l-82 13l-122 139l-326 392v-393q0 -66 7 -80.5t41 -17.5l37 -3v-37q-72 3 -114 3q-19 0 -115 -3v37 l37 3q34 3 41 17.5t7 80.5v408q0 66 -7 80.5t-41 17.5l-37 3v37q85 -3 99 -3h21z" />
<glyph unicode="O" horiz-adv-x="833" d="M430 695q169 0 263 -92t94 -257q0 -171 -100.5 -267t-279.5 -96q-172 0 -266 91t-94 258q0 172 101 267.5t282 95.5zM421 639q-95 0 -154 -57q-70 -70 -70 -227q0 -181 85 -264q52 -52 132 -52q110 0 166.5 72.5t56.5 213.5q0 179 -86 263q-53 51 -130 51z" />
<glyph unicode="P" d="M311 326l-17 35l10 10q4 -1 8 -1q26 -5 35 -5q47 0 75 36t28 96q0 134 -125 134q-37 0 -60 -9v-487q0 -66 7 -79.5t41 -15.5l47 -3v-40q-134 3 -165 3q-35 0 -156 -3v40l37 3q35 3 41.5 15.5t6.5 79.5v408q0 66 -7 80.5t-41 17.5l-37 3v37q152 -3 173 -3q18 0 181 3h12 q189 0 189 -150q0 -91 -64 -151.5t-161 -60.5q-11 0 -43 4q-2 1 -15 3z" />
<glyph unicode="Q" horiz-adv-x="833" d="M781 -120l-103 -64q-35 0 -72 10l-199 54q-70 19 -99 19q-32 0 -97 -45l-11 31q94 75 161 100q-115 14 -179 56q-135 89 -135 290q0 172 100.5 268t279.5 96q172 0 266 -91t94 -258q0 -195 -132 -292q-92 -69 -260 -69q-8 -1 -21 -1q67 -14 100 -26l120 -42 q63 -22 107 -22q24 0 69 19l11 4v-37zM421 639q-95 0 -154 -57q-70 -70 -70 -227q0 -181 85 -264q52 -52 132 -52q110 0 166.5 72.5t56.5 213.5q0 179 -86 263q-53 51 -130 51z" />
<glyph unicode="R" horiz-adv-x="722" d="M457 356l181 -274q18 -24 30.5 -32t39.5 -13v-40q-32 2 -97 3l-90 -3l-224 347l7 18h10q53 0 84 19q66 39 66 122q0 61 -36.5 94.5t-103.5 33.5q-38 0 -59 -9v-487q0 -67 6.5 -79.5t41.5 -15.5l37 -3v-40q-121 3 -156 3q-34 0 -155 -3v40l37 3q35 3 41.5 15.5t6.5 79.5 v408q0 66 -7 80.5t-41 17.5l-37 3v37q150 -3 178 -3q78 0 130 2q34 1 69 1q190 0 190 -147q0 -64 -43 -110q-33 -38 -106 -68z" />
<glyph unicode="S" d="M72 202h40l7 -88q23 -35 68 -56t96 -21q65 0 107.5 37t42.5 92q0 71 -83 96l-140 42q-71 21 -108.5 67t-37.5 110q0 101 70.5 157.5t194.5 56.5q90 0 185 -34l5 -12q-14 -45 -14 -142h-41l-6 82q-56 55 -136 55q-59 0 -96.5 -32.5t-37.5 -84.5q0 -38 25.5 -62.5 t80.5 -38.5l114 -30q151 -40 151 -176q0 -108 -80 -172.5t-214 -64.5q-106 0 -208 46q15 78 15 173z" />
<glyph unicode="T" horiz-adv-x="667" d="M404 619v-484q0 -67 6.5 -79.5t41.5 -15.5l37 -3v-40q-121 3 -156 3q-34 0 -155 -3v40l37 3q35 3 41.5 15.5t6.5 79.5v484h-117q-56 0 -63 -10q-8 -13 -8 -23l-5 -69h-40q-4 106 -13 159l6 5q276 -3 311 -3q34 0 310 3l6 -5q-10 -63 -13 -159h-40l-5 69l-9 24 q-12 9 -62 9h-117z" />
<glyph unicode="U" horiz-adv-x="778" d="M675 543v-292q0 -136 -70.5 -202t-213.5 -66q-129 0 -204.5 52.5t-75.5 141.5v366q0 66 -7 80.5t-41 17.5l-37 3v37q120 -3 155 -3q34 0 156 3v-37l-37 -3q-34 -3 -41 -17.5t-7 -80.5v-248q0 -77 8 -117t27 -64q40 -49 141 -49q99 0 141 43q26 26 36.5 70.5t10.5 123.5 v241q0 66 -7 80.5t-41 17.5l-37 3v37q88 -3 115 -3l114 3v-37l-37 -3q-34 -3 -41 -17.5t-7 -80.5z" />
<glyph unicode="V" horiz-adv-x="778" d="M340 644l-50 -3q-10 -1 -18 -6.5t-8 -12.5q0 -18 21 -72l157 -387l142 353q31 78 31 99q0 23 -37 26l-46 3v37q10 0 24 -0.5t22.5 -1t12.5 -0.5q28 -1 56 -1q10 0 116 3v-37l-32 -3q-29 -3 -47 -47l-208 -498q-6 -14 -8 -21q-3 -4 -11 -29l-19 -49h-76l-239 572 q-17 38 -30 54t-32 18l-41 3v37q144 -3 158 -3q36 0 70 1q5 0 18 0.5t35.5 1t38.5 0.5v-37z" />
<glyph unicode="W" horiz-adv-x="1000" d="M320 207l150 355q6 13 15.5 37.5t13.5 33.5l22 53h45q32 -92 49 -133l137 -343l97 378q4 15 4 30q0 21 -35 23l-46 3v37q9 0 22 -0.5t20.5 -1t10.5 -0.5q26 -1 53 -1q10 0 110 3v-37l-33 -3q-24 -3 -43 -69l-122 -432q-9 -32 -33 -143h-73l-8 25l-9 23l-21 57l-149 375 l-155 -355q-16 -38 -47 -125h-70l-139 602q-10 39 -37 42l-32 3v37l156 -3q12 0 134 3v-37l-42 -3q-12 -1 -21 -8.5t-9 -16.5q0 -12 3 -26z" />
<glyph unicode="X" horiz-adv-x="667" d="M22 658l183 37q37 -28 73 -91l95 -169l165 243h111v-34l-28 -3q-15 -2 -23.5 -8.5t-24.5 -27.5l-170 -224l159 -275l1 -3q21 -37 33.5 -50t28.5 -16l25 -3v-37q-30 2 -95 3l-96 -3l-149 266l-140 -201q-7 -9 -36 -62h-117v34l31 3q20 2 33 18l199 261l-94 166 q-43 76 -86 123q-18 18 -41 18q-13 0 -32 -6z" />
<glyph unicode="Y" horiz-adv-x="667" d="M395 356l188 322h77v-19l-176 -261q-26 -39 -53 -100v-163q0 -67 6.5 -79.5t41.5 -15.5l37 -3v-40q-121 3 -156 3q-34 0 -155 -3v40l37 3q35 3 41.5 15.5t6.5 79.5v139q-19 43 -44 85l-101 163q-44 64 -68 82t-62 18v37l159 36q34 -20 58.5 -49.5t55.5 -86.5z" />
<glyph unicode="Z" horiz-adv-x="667" d="M623 681v-35q-41 -50 -83 -110l-325 -479h276q74 0 81 39l15 78h40q-14 -80 -16 -177q-197 3 -284 3q-89 0 -303 -3v38q59 74 104 139l306 446h-222q-53 0 -68 -7.5t-19 -38.5l-8 -55h-37v162l272 -3q19 0 271 3z" />
<glyph unicode="[" horiz-adv-x="333" d="M291 -66v-38q-95 3 -99 3q-26 0 -50 -1q-4 0 -14 -0.5t-26.5 -1t-28.5 -0.5q2 117 3 143q3 115 3 149v219q0 42 -3 159q0 40 -3 154q12 0 29 -0.5t26.5 -1t13.5 -0.5q24 -1 51 -1q26 0 44 1l54 2v-38h-49q-37 0 -56 -22q-7 -9 -7 -99v-513q0 -81 5 -89q6 -11 22.5 -18 t35.5 -7h49z" />
<glyph unicode="\" horiz-adv-x="606" d="M72 720h90l372 -720h-90z" />
<glyph unicode="]" horiz-adv-x="333" d="M42 720l54 -2q18 -1 44 -1q27 0 51 1q4 0 13.5 0.5t26.5 1t29 0.5q-3 -114 -3 -154q-3 -117 -3 -159v-219q0 -34 3 -149q1 -26 3 -143q-12 0 -28.5 0.5t-26.5 1t-14 0.5q-24 1 -50 1q-5 0 -99 -3v38h49q19 0 35.5 7t22.5 18q5 8 5 89v513q0 91 -8 100q-19 21 -55 21h-49 v38z" />
<glyph unicode="^" horiz-adv-x="606" d="M147 275h-95l206 403h90l206 -403h-95l-156 294z" />
<glyph unicode="_" horiz-adv-x="500" d="M500 -125h-500v50h500v-50z" />
<glyph unicode="`" horiz-adv-x="333" d="M200 506l-131 81q-5 3 -11 7q-40 23 -40 53q0 20 12 32t32 12q32 0 65 -37l129 -148h-56z" />
<glyph unicode="a" horiz-adv-x="500" d="M299 67l-93 -72q-15 -12 -49 -12q-57 0 -87 31.5t-30 92.5q0 64 38 97t133 53l88 18q-2 61 -27 89.5t-75 28.5q-20 0 -38 -4.5t-20 -9.5l-22 -50l-30 7v69l53 32q55 34 120 34q76 0 118.5 -37.5t42.5 -104.5q0 -16 -1 -29q-2 -76 -2 -97q0 -20 2 -84v-21q1 -35 6 -46.5 t22 -14.5l30 -3v-37q-19 1 -36.5 1.5t-25.5 1t-15 0.5h-11q-5 0 -13.5 -0.5t-30.5 -1t-47 -1.5l-5 8zM299 115v118l-45 -12q-53 -14 -72.5 -32.5t-19.5 -55.5q0 -29 13.5 -46t37.5 -17q23 0 47.5 13t38.5 32z" />
<glyph unicode="b" d="M211 714v-331l61 49q49 39 103 39q79 0 130 -53.5t51 -136.5q0 -58 -22.5 -111t-60.5 -84q-43 -36 -114 -78q-43 -25 -87 -25q-63 0 -131 37l-39 -32l-22 8q9 80 9 166v406q0 44 -4.5 56.5t-21.5 13.5l-53 3v36q80 8 121 21l72 22zM211 331v-225q39 -55 101 -55 q55 0 86.5 46t31.5 124q0 75 -32.5 117.5t-90.5 42.5q-63 0 -96 -50z" />
<glyph unicode="c" horiz-adv-x="444" d="M390 297h-36l-7 60q-2 17 -28 30t-60 13q-98 0 -98 -140q0 -95 42.5 -150.5t116.5 -55.5q39 0 85 19l9 -10l-21 -46q-64 -34 -134 -34q-107 0 -164.5 63.5t-57.5 182.5q0 65 27 107.5t94 82.5l52 31q36 21 90 21q46 0 103 -20l7 -13q-13 -61 -20 -141z" />
<glyph unicode="d" d="M508 714v-614q0 -40 6.5 -51t29.5 -13l33 -2v-37q-21 1 -47 1q-11 0 -24 0.5t-19.5 1t-10.5 0.5l-90 -3l-5 8l5 75l-104 -85q-15 -12 -49 -12q-88 0 -139.5 63.5t-51.5 170.5q0 125 84 181l72 47q41 26 88 26q37 0 80 -17l20 -8v122q0 44 -4.5 56.5t-21.5 13.5l-53 3v36 q80 8 121 21l72 22zM386 160v184q-48 63 -112 63q-106 0 -106 -152q0 -81 31.5 -129t84.5 -48q41 0 71.5 24t30.5 58z" />
<glyph unicode="e" horiz-adv-x="500" d="M461 295v-52q-80 -20 -158 -20h-131q3 -61 24 -98q19 -32 53 -51.5t73 -19.5q54 0 117 35l12 -15l-22 -48q-83 -43 -158 -43q-112 0 -170.5 62t-58.5 181q0 138 95 194l47 28q39 23 88 23q86 0 137.5 -48t51.5 -128zM250 273l84 3q-1 74 -20.5 106.5t-62.5 32.5 t-63 -32.5t-22 -106.5l32 -1q30 -2 48 -2h4z" />
<glyph unicode="f" horiz-adv-x="389" d="M239 542v-108q44 0 131 4l4 -8l-11 -58h-124v-272q0 -32 3 -45q5 -17 47 -19l45 -2v-37q-145 3 -159 3q-19 0 -141 -3v37l41 2q28 2 35 12.5t7 51.5v272l-79 -5v24q47 23 79 45v43q0 59 9.5 83t45.5 54l74 62q50 42 93 42q17 0 42 -6v-97l-16 -7q-40 24 -67 24 q-37 0 -49 -23q-10 -19 -10 -69z" />
<glyph unicode="g" horiz-adv-x="556" d="M529 368l-77 4q5 -24 5 -47q0 -72 -44 -116q-64 -64 -174 -64q-4 0 -40 2q-29 -17 -29 -39q0 -30 47 -30q14 0 146 4h24q148 0 148 -124q0 -100 -81 -162t-212 -62q-99 0 -157.5 38.5t-58.5 103.5q0 46 26 62l81 48q-37 10 -52.5 25t-15.5 42q0 36 17 48l71 54 q-45 15 -69 41q-37 40 -37 96q0 79 60.5 129t156.5 50q93 0 152 -43q16 -1 36 -1q31 0 82 5zM252 421q-82 0 -82 -110q0 -56 22.5 -88t61.5 -32q80 0 80 108q0 122 -82 122zM272 -15q-76 0 -101 -11q-23 -11 -37 -34.5t-14 -51.5q0 -47 40.5 -75.5t107.5 -28.5t111.5 34.5 t44.5 86.5q0 48 -30.5 64t-121.5 16z" />
<glyph unicode="h" d="M209 720l8 -6v-324l80 62q23 19 70 19q76 0 116 -42q35 -38 35 -143v-186q0 -40 6.5 -51t29.5 -13l33 -2v-37q-87 3 -101 3q-4 0 -90 -3v272q0 61 -22.5 88.5t-71.5 27.5q-33 0 -59 -21t-26 -47v-217q0 -40 6.5 -51t29.5 -13l35 -2v-37q-100 3 -135 3l-129 -3v37l35 2 q23 2 29.5 13t6.5 51v468q0 44 -4.5 56.5t-21.5 13.5l-45 3v36q77 10 113 21z" />
<glyph unicode="i" horiz-adv-x="333" d="M217 471l10 -6v-365q0 -40 6.5 -51t29.5 -13l35 -2v-37q-100 3 -135 3l-129 -3v37l35 2q23 2 29.5 13t6.5 51v219q0 44 -4.5 56.5t-21.5 13.5l-45 3v36q14 2 15 2q60 7 98 19zM163 706q31 0 52.5 -22t21.5 -53t-22 -53t-53 -22t-53 22t-22 54q0 31 22 52.5t54 21.5z" />
<glyph unicode="j" horiz-adv-x="333" d="M7 -223h23q40 0 57.5 43t17.5 142v357q0 44 -4.5 56.5t-21.5 13.5l-45 3v36l18 2q58 8 95 19l70 22l10 -6v-367q0 -114 -11.5 -174.5t-40.5 -104.5q-57 -85 -130 -85l-32 2l-10 35zM167 706q31 0 52.5 -22t21.5 -53t-22 -53t-53 -22t-53 22t-22 54q0 31 22 52.5t54 21.5z " />
<glyph unicode="k" d="M214 720l8 -6v-465q73 63 106 97l107 113h130v-38h-31q-24 0 -48 -18l-62 -45q-16 -10 -70 -64l-8 -8l196 -220q26 -29 55 -32v-34h-172q-55 70 -87 106l-106 120h-10v-126q0 -40 6.5 -51t29.5 -13l35 -2v-37q-101 3 -135 3l-129 -3v37l35 2q23 2 29.5 13t6.5 51v468 q0 44 -4.5 56.5t-21.5 13.5l-53 3v36q80 8 121 21z" />
<glyph unicode="l" horiz-adv-x="333" d="M217 720l8 -6v-614q0 -40 6.5 -51t29.5 -13l35 -2v-37q-100 3 -135 3l-129 -3v37l35 2q23 2 29.5 13t6.5 51v468q0 44 -4.5 56.5t-21.5 13.5l-53 3v36q80 8 121 21z" />
<glyph unicode="m" horiz-adv-x="889" d="M24 392v36q42 2 76 10t111 33l6 -6v-75l80 62q25 19 71 19q52 0 83.5 -19t48.5 -62l80 62q25 19 72 19q80 0 111.5 -40.5t31.5 -144.5v-186q0 -40 6.5 -51t29.5 -13l33 -2v-37q-36 2 -98 3l-93 -3v272q0 116 -86 116q-30 0 -55.5 -21.5t-25.5 -46.5v-217q0 -40 6.5 -51 t29.5 -13l35 -2v-37q-107 3 -131 3q-25 0 -129 -3v37l31 2q24 1 30 12t6 52v169q0 116 -86 116q-30 0 -55.5 -21.5t-25.5 -46.5v-217q0 -41 6 -52t30 -12l27 -2v-37q-92 3 -127 3l-129 -3v37l35 2q23 2 29.5 13t6.5 51v219q0 44 -4.5 56.5t-21.5 13.5z" />
<glyph unicode="n" d="M24 392v36q42 2 76 10t111 33l6 -6v-75l80 62q23 19 70 19q76 0 116 -42q35 -38 35 -143v-186q0 -40 6.5 -51t29.5 -13l33 -2v-37q-87 3 -101 3q-4 0 -90 -3v273q0 60 -22.5 87.5t-71.5 27.5q-33 0 -59 -21t-26 -47v-217q0 -40 6.5 -51t29.5 -13l35 -2v-37q-100 3 -135 3 l-129 -3v37l35 2q23 2 29.5 13t6.5 51v219q0 44 -4.5 56.5t-21.5 13.5z" />
<glyph unicode="o" horiz-adv-x="556" d="M287 471q111 0 170.5 -60.5t59.5 -174.5q0 -121 -65 -187t-185 -66q-109 0 -168 63t-59 178q0 119 64 183t183 64zM275 423q-52 0 -75.5 -42t-23.5 -133q0 -217 109 -217q51 0 73.5 41t22.5 133q0 218 -106 218z" />
<glyph unicode="p" d="M212 471l10 -6v-82l61 49q49 39 103 39q78 0 129.5 -52.5t51.5 -132.5q0 -141 -102 -218l-17 -13q-91 -72 -137 -72q-29 0 -89 17v-155q0 -41 6.5 -52t29.5 -12l45 -2v-37q-130 3 -145 3l-129 -3v37l35 2q23 2 29.5 13t6.5 51v474q0 44 -4.5 56.5t-21.5 13.5l-45 3v36 l11 1q64 9 102 20zM222 331v-225q39 -55 101 -55q55 0 86.5 46t31.5 124q0 75 -32.5 117.5t-90.5 42.5q-63 0 -96 -50z" />
<glyph unicode="q" d="M396 75l-96 -77q-18 -15 -60 -15q-87 0 -137.5 61.5t-50.5 167.5q0 74 26 118t91 81q107 60 154 60q46 0 116 -34l22 -11l52 42l21 -14q-16 -79 -16 -130v-479q0 -40 6.5 -51t29.5 -13l35 -2v-37q-101 3 -135 3l-129 -3v37l35 2q23 2 29.5 13t6.5 51v230zM396 160v184 q-48 63 -112 63q-106 0 -106 -152q0 -81 31.5 -129t84.5 -48q41 0 71.5 24t30.5 58z" />
<glyph unicode="r" horiz-adv-x="389" d="M213 471l10 -6v-95l44 48q29 31 46.5 42t38.5 11q22 0 37 -6l-5 -129l-24 -10q-21 36 -57 36q-29 0 -54.5 -20.5t-25.5 -43.5v-198q0 -42 8 -52t40 -12l39 -2v-37q-135 3 -151 3l-129 -3v37l35 2q23 2 29.5 13t6.5 51v219q0 44 -4.5 56.5t-21.5 13.5l-45 3v36 q77 10 113 21z" />
<glyph unicode="s" horiz-adv-x="444" d="M362 326h-36l-10 58q-2 15 -29.5 27t-57.5 12q-41 0 -64.5 -17.5t-23.5 -47.5q0 -23 13 -36t42 -20l82 -18q68 -15 97.5 -45t29.5 -84q0 -77 -58 -124.5t-153 -47.5q-75 0 -155 28l7 141h39l5 -69q45 -52 112 -52q42 0 67 21t25 56q0 26 -14 40.5t-49 22.5l-86 21 q-106 26 -106 125q0 75 53.5 114.5t154.5 39.5q70 0 123 -23z" />
<glyph unicode="t" horiz-adv-x="333" d="M324 60l-49 -59q-15 -18 -65 -18q-65 0 -94.5 30t-29.5 97v259l-64 -4v22l66 43v60q0 23 -4 92q78 29 122 50l14 -10q-12 -67 -12 -136v-58l114 6l-8 -65h-106v-238q0 -37 13.5 -51t48.5 -14q20 0 46 13z" />
<glyph unicode="u" d="M392 80l-76 -74q-23 -23 -70 -23q-72 0 -111 40.5t-39 116.5v179q0 44 -4.5 56.5t-21.5 13.5l-45 3v36q75 10 113 21l70 22l10 -6v-261q0 -72 17.5 -101.5t60.5 -29.5q40 0 68 26.5t28 63.5v156q0 44 -4.5 56.5t-21.5 13.5l-45 3v36q76 10 113 21l70 22l10 -6v-365 q0 -40 6.5 -51t29.5 -13l33 -2v-37q-21 1 -47 1q-28 2 -55 2q-11 0 -94 -3z" />
<glyph unicode="v" horiz-adv-x="556" d="M227 -3l-143 360q-25 59 -48 62l-25 2v38q101 -3 130 -3l129 3v-38l-41 -2q-23 -2 -23 -17q0 -16 14 -51l88 -221q21 45 35 80l61 151q9 23 9 41q0 15 -23 17l-38 2v38q32 -2 97 -3l96 3v-38l-30 -5q-24 -4 -36 -34l-128 -288q-18 -40 -38 -97h-86z" />
<glyph unicode="w" horiz-adv-x="833" d="M194 -3l-107 384q-6 20 -15 28t-26 10l-33 2v38q106 -3 136 -3l135 3v-38l-47 -2q-19 0 -19 -22q0 -11 2 -19l59 -227q7 18 17 37q1 2 5 11t6 14l29 63l87 195h50l138 -317q27 73 39 112l36 113q3 12 3 19q0 19 -29 21l-42 2v38q84 -3 101 -3t101 3v-38l-34 -2 q-19 -1 -36 -47l-92 -260l-21 -68q-2 -10 -14 -47h-81l-132 307q-58 -114 -79 -161t-58 -146h-79z" />
<glyph unicode="x" horiz-adv-x="500" d="M200 210l-80 136q-20 33 -36 45.5t-41 12.5q-10 0 -15 -1l-8 36q82 15 146 32q27 -22 62 -77l52 -85l108 150h95v-37q-28 -1 -41.5 -8.5t-36.5 -34.5l-97 -114l89 -152q26 -43 44.5 -60t41.5 -19v-37q-24 2 -77 3l-78 -3l-100 169l-64 -88q-20 -28 -52 -78h-91v34 q41 3 69 36z" />
<glyph unicode="y" horiz-adv-x="556" d="M275 421l-35 -2q-26 -2 -26 -23q0 -12 11 -38q6 -14 6 -15l84 -218l101 252q4 10 4 22q0 18 -27 20l-33 2v38q88 -3 93 -3l93 3v-38l-26 -5q-22 -5 -41 -47l-199 -463q-74 -172 -176 -172q-35 0 -73 17l18 95l11 4q33 -37 70 -37q26 0 50.5 24t41.5 67l23 56l-158 404 q-21 54 -42 55l-35 2v38q104 -3 133 -3l132 3v-38z" />
<glyph unicode="z" horiz-adv-x="500" d="M454 424l-268 -369h163q36 0 49.5 13t20.5 56l5 31h40q-12 -82 -12 -153l-5 -5l-273 3q-40 0 -158 -3v33l104 136l170 238h-118q-42 0 -56.5 -11.5t-19.5 -47.5l-3 -25h-38l3 134l7 5q180 -5 236 -5q62 0 153 5v-35z" />
<glyph unicode="{" horiz-adv-x="310" d="M5 301v2q57 15 74 36t17 75v178q0 80 48 110q38 23 144 23v-2q-57 -16 -76 -39.5t-19 -77.5v-177q0 -61 -20.5 -87t-81.5 -40q61 -13 81.5 -40.5t20.5 -92.5v-167q0 -54 19 -77.5t76 -39.5v-2q-106 0 -144 23q-48 30 -48 110v174q0 54 -17 75t-74 36z" />
<glyph unicode="|" horiz-adv-x="606" d="M260 0v720h86v-720h-86z" />
<glyph unicode="}" horiz-adv-x="310" d="M305 303v-2q-57 -15 -74 -36t-17 -75v-174q0 -80 -48 -110q-38 -23 -144 -23v2q57 16 76 39.5t19 77.5v167q0 66 20.5 92.5t81.5 40.5q-61 14 -81.5 40t-20.5 87v177q0 54 -19 77.5t-76 39.5v2q119 0 155 -31q37 -31 37 -102v-178q0 -54 17 -75t74 -36z" />
<glyph unicode="~" horiz-adv-x="606" d="M494 326l61 -39q-35 -60 -68.5 -86.5t-73.5 -26.5q-33 0 -109 33q-83 36 -109 36q-24 0 -42 -14.5t-41 -51.5l-61 39q35 60 68.5 86.5t73.5 26.5q33 0 109 -33q83 -36 109 -36q24 0 42 14.5t41 51.5z" />
<glyph unicode="&#xa1;" horiz-adv-x="278" d="M115 -227h-51q0 40 7 96l50 372l38 21l5 -8l47 -358q3 -3 3 -60l1 -19zM138 471q30 0 53.5 -24t23.5 -55t-23.5 -54t-55.5 -23q-31 0 -54 23t-23 54q0 32 23.5 55.5t55.5 23.5z" />
<glyph unicode="&#xa2;" horiz-adv-x="500" d="M403 554l-25 -81q42 -10 63 -20l5 -9q-13 -58 -18 -148h-38l-6 60q-1 10 -10.5 20t-20.5 13l-91 -302q39 -32 96 -32q43 0 83 20l9 -11l-21 -47l-4 -4q-66 -30 -126 -30q-19 0 -59 5l-10 1l-32 -95h-42l36 106q-62 32 -90.5 82.5t-28.5 131.5q0 77 29 129q15 27 64 58 l52 33q65 40 118 42l26 78h41zM230 124l83 276q-8 1 -21 1q-96 0 -96 -138q0 -71 34 -139z" />
<glyph unicode="&#xa3;" horiz-adv-x="500" d="M16 363h90v43q0 82 55 144q45 52 116.5 89t126.5 37q43 0 76 -27l-10 -136h-31l-3 35q-2 28 -24 45t-57 17q-54 0 -79 -33.5t-32 -113.5l-8 -100h168v-43h-173q-27 -137 -114 -227q63 19 104 19q22 0 97 -11q60 -9 88 -9q43 0 50 30l11 56h34l-10 -179q-43 -15 -83 -15 q-67 0 -162 26q-80 22 -133 22q-21 0 -51 -25q-23 -20 -44 -26l-20 59l64 52q27 24 34.5 62t9.5 166h-90v43z" />
<glyph unicode="&#xa4;" horiz-adv-x="500" d="M32 141l49 49q-42 53 -42 123q0 74 42 122l-49 49l47 47l48 -48q54 41 124 41q67 0 120 -40l48 49l49 -49l-46 -48q39 -51 39 -122t-40 -125l46 -48l-45 -45l-47 49q-53 -43 -125 -43q-73 0 -125 42l-48 -48zM251 447q-55 0 -95 -39.5t-40 -95.5q0 -54 39.5 -94t93.5 -40 q56 0 95.5 40t39.5 96q0 54 -39 93.5t-94 39.5z" />
<glyph unicode="&#xa5;" horiz-adv-x="500" d="M215 206h-149v40h149v40q0 16 -19 48q-4 6 -5 8h-125v40h108l-63 140q-30 60 -48.5 80t-43.5 20h-2v37l115 36q24 -19 41.5 -48t40.5 -88l80 -203l133 322h56v-19l-135 -277h118v-40h-134q-15 -33 -15 -58v-38h149v-40h-149v-71q0 -68 4.5 -80t30.5 -15l26 -3v-40 q-76 3 -109 3q-15 0 -115 -3v40l26 3q26 3 30.5 15.5t4.5 79.5v71z" />
<glyph unicode="&#xa6;" horiz-adv-x="606" d="M260 720h86v-288h-86v288zM260 0v288h86v-288h-86z" />
<glyph unicode="&#xa7;" horiz-adv-x="500" d="M407 515h-38q0 51 -7 80q-29 31 -101 31q-56 0 -93 -26.5t-37 -67.5q0 -36 26.5 -57t99.5 -43l53 -16q3 -1 6.5 -2t5.5 -2h2l4 -1q77 -20 110 -54.5t33 -95.5q0 -43 -15 -73.5t-56 -72.5q55 -41 55 -104q0 -91 -74.5 -159.5t-172.5 -68.5q-50 0 -84.5 10t-74.5 35 q8 78 14 155h39q-1 -9 -1 -20q0 -31 9 -64q51 -55 131 -55q53 0 93.5 32.5t40.5 75.5q0 33 -28 58q-27 23 -107 49l-61 20q-82 27 -115.5 61.5t-33.5 92.5q0 36 13 63t46 58l19 18q-47 41 -47 98q0 41 21.5 88.5t53.5 77.5q29 27 72 43t86 16q61 0 130 -33q-11 -51 -17 -147 zM235 180l133 -49q29 39 29 69q0 37 -26.5 61.5t-88.5 45.5l-143 48q-35 -42 -35 -75q0 -27 31 -50.5t100 -49.5z" />
<glyph unicode="&#xa8;" horiz-adv-x="333" d="M275 671q27 0 46.5 -20t19.5 -47q0 -28 -19.5 -47.5t-47.5 -19.5t-47.5 20t-19.5 48q0 27 20 46.5t48 19.5zM60 671q27 0 46.5 -20t19.5 -47q0 -28 -19.5 -47.5t-47.5 -19.5t-47.5 19.5t-19.5 47.5t20 47.5t48 19.5z" />
<glyph unicode="&#xa9;" horiz-adv-x="747" d="M519 507v-104h-32q-19 97 -97 97q-53 0 -85 -42t-32 -111q0 -75 36 -123t92 -48q30 0 56.5 14t39.5 36l8 14l26 -11q-13 -27 -28 -42q-50 -50 -131 -50q-82 0 -133 54.5t-51 141.5q0 89 54.5 145.5t141.5 56.5q28 0 60 -8l5 -1l2 -1h2l3 -1l4 -1q43 -9 59 -16zM378 695 q140 0 241 -105.5t101 -250.5q0 -148 -102 -252t-246 -104t-245 104.5t-101 253.5q0 148 102.5 251t249.5 103zM377 639q-131 0 -218 -96q-77 -86 -77 -201q0 -126 84.5 -214.5t205.5 -88.5t206.5 88.5t85.5 212.5q0 122 -84.5 210.5t-202.5 88.5z" />
<glyph unicode="&#xaa;" horiz-adv-x="438" d="M245 418l-60 -44q-11 -7 -31 -7q-77 0 -77 75q0 29 12.5 46t41.5 28q25 10 57 16l57 10q-1 28 -10 43q-7 11 -22 20t-28 9h-2q-3 0 -6 -1l-36 -8l-14 -30l-22 4v39l77 37q12 5 33 5q52 0 80.5 -23t28.5 -65v-148q0 -23 18 -24l19 -2v-22h-29q-15 1 -28 1h-26 q-4 -1 -33 -1l-3 4zM245 446v71l-29 -7q-34 -8 -47 -19.5t-13 -33.5q0 -17 9 -27.5t24 -10.5q31 0 56 27z" />
<glyph unicode="&#xab;" horiz-adv-x="500" d="M234 438l27 -22l-110 -173l110 -179l-27 -20q-122 125 -198 187v25q140 123 198 182zM436 438l27 -22l-110 -173l110 -179l-27 -20q-122 125 -198 187v25q140 123 198 182z" />
<glyph unicode="&#xac;" horiz-adv-x="606" d="M469 114v196h-418v86h504v-282h-86z" />
<glyph unicode="&#xad;" horiz-adv-x="333" d="M50 305h258l9 -10q-24 -53 -32 -100h-261l-8 8q8 24 15 43q14 40 19 59z" />
<glyph unicode="&#xae;" horiz-adv-x="747" d="M324 331v-122q0 -17 5.5 -23.5t20.5 -6.5h17v-21h-156v20h14q19 0 24.5 5t5.5 22v285q0 19 -4.5 24t-23.5 5h-15v21h152q73 0 97 -11q23 -10 37.5 -33.5t14.5 -50.5q0 -51 -44 -79q-21 -14 -57 -22q27 -6 42.5 -23t38.5 -66q26 -54 35 -65t29 -12v-20h-68q-17 0 -29 14.5 t-30 57.5q-1 3 -4 9t-4 9t-3 7.5t-3.5 7t-1.5 3.5q-19 45 -30.5 55t-44.5 10h-15zM324 356h19q5 0 10 -1q2 0 6 -0.5t6 -0.5q35 0 56.5 23t21.5 61q0 80 -81 80h-21q-10 0 -13.5 -8t-3.5 -31v-123zM378 695q140 0 241 -105.5t101 -250.5q0 -148 -102 -252t-246 -104 t-245 104.5t-101 253.5q0 148 102.5 251t249.5 103zM377 639q-131 0 -218 -96q-77 -86 -77 -201q0 -126 84.5 -214.5t205.5 -88.5t206.5 88.5t85.5 212.5q0 122 -84.5 210.5t-202.5 88.5z" />
<glyph unicode="&#xaf;" horiz-adv-x="333" d="M332 538h-331v71h331v-71z" />
<glyph unicode="&#xb0;" horiz-adv-x="400" d="M202 660q60 0 104 -44.5t44 -105.5q0 -62 -44 -106t-106 -44t-106 44t-44 106q0 63 44 106.5t108 43.5zM200 599q-37 0 -63 -25.5t-26 -62.5t26 -63.5t63 -26.5t63 26t26 63q0 36 -26.5 62.5t-62.5 26.5z" />
<glyph unicode="&#xb1;" horiz-adv-x="606" d="M260 358v210h86v-210h209v-86h-209v-147h-86v147h-209v86h209zM51 0v86h504v-86h-504z" />
<glyph unicode="&#xb2;" horiz-adv-x="300" d="M12 259v35l101 99q69 67 69 133q0 28 -16.5 45t-44.5 17q-19 0 -35.5 -9t-19.5 -21l-12 -42l-28 2l11 102q51 37 100 37q57 0 94 -29.5t37 -75.5q0 -61 -63 -122l-103 -99l181 6l4 -6q-2 -20 -2 -37q0 -12 1 -27l1 -8q-26 1 -87 1q-35 1 -53 1h-29z" />
<glyph unicode="&#xb3;" horiz-adv-x="300" d="M9 359l26 6q19 -40 39.5 -57t51.5 -17t51 21t20 54q0 32 -19.5 51t-52.5 19q-19 0 -38 -6l-7 6l12 48h24q29 0 47 16t18 42q0 23 -15.5 36.5t-42.5 13.5q-51 0 -68 -59h-28l20 96q51 28 95 28q49 0 80.5 -24.5t31.5 -61.5q0 -52 -60 -85q84 -11 84 -89 q0 -61 -51.5 -103.5t-123.5 -42.5q-41 0 -78 15z" />
<glyph unicode="&#xb4;" horiz-adv-x="333" d="M78 506l129 148q33 37 65 37q20 0 32 -12t12 -32q0 -17 -9.5 -29t-33.5 -26l-8 -5l-131 -81h-56z" />
<glyph unicode="&#xb5;" d="M514 465v-365q0 -40 6.5 -51t29.5 -13l33 -2v-37q-21 1 -47 1q-28 2 -55 2q-11 0 -94 -3l5 83l-85 -85q-12 -12 -52 -12q-50 0 -85 23q16 -102 16 -151q0 -32 -25 -54.5t-65 -25.5v544q0 44 -4.5 56.5t-21.5 13.5l-45 3v36q74 9 113 21l70 22l10 -6v-261 q0 -72 17.5 -101.5t60.5 -29.5q40 0 68 26.5t28 63.5v156q0 44 -4.5 56.5t-21.5 13.5l-45 3v36q75 10 113 21l70 22z" />
<glyph unicode="&#xb6;" horiz-adv-x="641" d="M195 -120l49 2q23 1 29.5 12t6.5 52v378q-109 8 -183 63q-78 58 -78 142q0 68 58 111t151 43q2 0 56 -2q58 -3 152 -3q23 0 39 1l124 2v-41h-47q-21 0 -29.5 -17t-8.5 -60v-617q0 -41 6.5 -52t29.5 -12l49 -2v-41q-168 3 -202 3t-202 -3v41zM426 634h-58v-745h58v745z M280 371v263q-6 1 -15 1q-49 0 -82 -34.5t-33 -87.5q0 -54 34 -91.5t96 -50.5z" />
<glyph unicode="&#xb7;" horiz-adv-x="250" d="M126 335q30 0 53.5 -24t23.5 -55t-23.5 -54t-55.5 -23q-31 0 -54 23t-23 54q0 32 23.5 55.5t55.5 23.5z" />
<glyph unicode="&#xb8;" horiz-adv-x="333" d="M122 -103l43 96h41l-28 -64q23 6 45 6q35 0 56 -19.5t21 -53.5q0 -40 -36 -63.5t-97 -23.5q-40 0 -94 18l16 37q44 -9 67 -9q50 0 50 37q0 35 -38 35q-4 0 -36 -4z" />
<glyph unicode="&#xb9;" horiz-adv-x="300" d="M42 288l46 1q31 1 31 25v261q0 15 -1 18q0 2 -2 2l-1 -1l-87 -40q-10 24 -10 43v1v5q61 14 183 60l10 -8q-6 -96 -6 -151v-190q0 -24 31 -25l41 -1v-29q-40 1 -69 1q-22 1 -40 1l-39 -1l-87 -1v29z" />
<glyph unicode="&#xba;" horiz-adv-x="488" d="M250 660q72 0 110.5 -37t38.5 -106q0 -71 -43 -110.5t-120 -39.5q-71 0 -109 38t-38 109q0 70 42 108t119 38zM241 631q-64 0 -64 -103q0 -132 71 -132q33 0 48 24.5t15 79.5q0 131 -70 131z" />
<glyph unicode="&#xbb;" horiz-adv-x="500" d="M37 416l27 22q65 -66 198 -182v-25q-75 -61 -198 -187l-27 20l110 179zM239 416l27 22q65 -66 198 -182v-25q-75 -61 -198 -187l-27 20l110 179z" />
<glyph unicode="&#xbc;" horiz-adv-x="750" d="M440 99l-4 23q5 13 9 20q13 33 22 48l78 129q19 31 50 68l76 16l8 -7v-244h54v-53h-54v-24q0 -41 37 -45l19 -2v-30q-86 2 -98 2q-7 0 -117 -2v30l38 2q37 2 37 45v24h-155zM489 152h106v179zM45 291l42 2q38 2 38 45v235q0 23 -6 23l-6 -2l-85 -38q-9 31 -9 48 q72 19 198 61l8 -5q-4 -38 -4 -43q-3 -37 -3 -47v-232q0 -43 37 -45l37 -2v-30q-107 2 -116 2q-25 0 -50 -1l-81 -1v30zM257 0h-69l403 660h69z" />
<glyph unicode="&#xbd;" horiz-adv-x="750" d="M224 0h-69l403 660h69zM35 291l42 2q38 2 38 45v235q0 23 -6 23q-3 0 -4 -1l-87 -39q-9 31 -9 48q72 19 198 61l8 -5q-4 -38 -4 -43q-3 -37 -3 -47v-232q0 -43 37 -45l37 -2v-30q-107 2 -116 2q-25 0 -50 -1l-81 -1v30zM455 -2v37l108 101q70 66 70 128q0 30 -18.5 47.5 t-50.5 17.5q-24 0 -36.5 -9t-19.5 -32l-10 -33l-28 4l12 101q52 37 104 37q61 0 100 -29.5t39 -75.5q0 -65 -67 -127l-96 -90v-8l178 9l5 -5q-2 -18 -2 -39q0 -19 2 -34l-112 2h-32h-18l-89 -2h-39z" />
<glyph unicode="&#xbe;" horiz-adv-x="750" d="M229 0h-69l403 660h69zM15 365l22 5q35 -72 96 -72q35 0 59.5 22.5t24.5 55.5q0 32 -22.5 52.5t-57.5 20.5q-20 0 -41 -5l-5 3l13 44h22q34 0 54 17t20 46q0 25 -17 38.5t-48 13.5q-57 0 -74 -58h-26l20 92q51 27 100 27q51 0 84 -24t33 -61q0 -52 -74 -88 q100 -9 100 -89q0 -60 -54.5 -102t-132.5 -42q-44 0 -80 14q-9 53 -16 90zM440 99l-4 23q5 13 9 20q13 33 22 48l78 129q19 31 50 68l76 16l8 -7v-244h54v-53h-54v-24q0 -41 37 -45l19 -2v-30q-86 2 -98 2q-7 0 -117 -2v30l38 2q37 2 37 45v24h-155zM489 152h106v179z" />
<glyph unicode="&#xbf;" horiz-adv-x="444" d="M366 -41l35 -9q-30 -90 -32 -133q-71 -48 -150 -48q-85 0 -135.5 42.5t-50.5 114.5q0 42 15.5 71.5t55.5 62.5l77 64q62 51 62 92q0 16 -9 36l-1 2l34 14q26 -33 26 -74q0 -47 -63 -124q-63 -75 -63 -122q0 -35 27.5 -59t68.5 -24q61 0 72 23zM251 471q30 0 53.5 -24 t23.5 -55t-23.5 -54t-55.5 -23q-31 0 -54 22.5t-23 53.5q0 32 24 56t55 24z" />
<glyph unicode="&#xc6;" horiz-adv-x="1000" d="M449 20l32 18q20 11 20 57v119h-260l-62 -107q-19 -33 -19 -55q10 -15 24 -15l54 -3v-37q-99 3 -118 3q-21 0 -108 -3v37l38 3q20 3 54 57l290 490q17 28 17 40q0 15 -43 17l-52 3v37q183 -3 262 -3q65 0 142 2q80 2 83 2h39q44 0 95 -4l6 -7l-14 -142h-36l-8 75 q-1 8 -29.5 14t-68.5 6q-70 0 -145 -4v-240q20 -2 67 -2h66q31 0 43 4.5t14 16.5l6 57h40q-3 -95 -3 -107l3 -108h-40l-6 50q-4 37 -57 37h-66q-25 0 -67 -3v-267q76 -3 131 -3q73 0 116 14q3 1 3 3l23 94h39l-11 -158l-5 -8q-77 -4 -141 -4q-65 0 -161 3q-35 1 -65 1 q-13 0 -122 -3v23zM271 267h230v339l-7 17h-7z" />
<glyph unicode="&#xd0;" horiz-adv-x="833" d="M120 380v163q0 66 -7 80.5t-41 17.5l-37 3v37q149 -3 162 -3q5 0 239 3q101 -1 165.5 -20.5t107.5 -62.5q77 -75 77 -222q0 -162 -104 -263q-118 -116 -303 -116l-59 1q-50 2 -97 2q-19 0 -155 -3v23l32 18q20 11 20 57v243h-110v42h110zM261 380h151v-42h-151v-281 q31 -5 68 -5q162 0 234 71q73 73 73 225q0 146 -66 211q-74 72 -246 72q-31 0 -63 -4v-247z" />
<glyph unicode="&#xd7;" horiz-adv-x="606" d="M241 253l-168 169l61 61l168 -169l169 169l61 -61l-169 -169l171 -171l-61 -61l-171 171l-169 -171l-61 61z" />
<glyph unicode="&#xd8;" horiz-adv-x="833" d="M160 62l-90 -82l-38 40l91 83q-42 49 -59 99t-17 124q0 176 99.5 272.5t281.5 96.5q72 0 136 -18q37 -11 60.5 -23t57.5 -37l89 81l37 -39l-89 -82q38 -55 53 -104t15 -120q0 -177 -99.5 -273.5t-282.5 -96.5q-77 0 -146 21q-33 10 -52.5 21.5t-46.5 36.5zM222 192 l370 342q-33 58 -71 81.5t-97 23.5q-227 0 -227 -290q0 -97 25 -157zM615 481l-373 -343q38 -55 75.5 -77t92.5 -22q227 0 227 294q0 94 -22 148z" />
<glyph unicode="&#xde;" d="M265 487v-352q0 -68 6.5 -80.5t41.5 -14.5l47 -3v-40q-134 3 -165 3q-35 0 -156 -3v40l37 3q35 3 41.5 15.5t6.5 79.5v408q0 66 -7 80.5t-41 17.5l-37 3v37q120 -3 155 -3q34 0 156 3v-37l-37 -3q-32 -3 -39.5 -14.5t-8.5 -54.5v-8v-15q30 -3 49 -3h12h11q120 0 169 -25 q68 -34 68 -125q0 -88 -59 -150t-143 -62q-19 0 -47 5q-4 0 -6 1l-8 1l-17 35l10 10q21 -7 50 -7q76 0 76 123q0 82 -28 118q-21 26 -67 26q-47 0 -70 -9z" />
<glyph unicode="&#xdf;" d="M105 368h-71v23l69 45v73q0 52 71 116q56 51 101.5 73t95.5 22q68 0 109 -39t41 -104q0 -44 -24 -146l-6 -26l-13 -9q-25 19 -54 19q-23 0 -36 -10.5t-13 -28.5q0 -33 52 -60q3 -2 5 -3l79 -46q29 -17 41.5 -40t12.5 -60q0 -58 -52 -107l-45 -42q-16 -15 -28 -20 q-41 -15 -78 -15q-32 0 -73 21v-7q-95 3 -119 3q-19 0 -140 -3v37l39 2q23 2 29.5 13t6.5 51v268zM330 118l4 -54q36 -24 64 -24t47.5 17t19.5 43q0 25 -16.5 43t-66.5 48q-57 35 -75.5 58.5t-18.5 60.5q0 74 92 138q26 18 61 18q7 46 7 66q0 53 -31.5 87t-80.5 34 q-30 0 -55 -12.5t-37 -34.5q-17 -27 -17 -113v-394q0 -35 6.5 -47.5t25.5 -14.5l29 -3l9 78z" />
<glyph unicode="&#xe6;" horiz-adv-x="778" d="M731 295v-52q-80 -20 -158 -20h-131q3 -61 24 -98q19 -32 53 -51.5t72 -19.5q55 0 118 35l12 -15l-22 -48q-48 -25 -82 -34t-78 -9q-68 0 -114.5 22.5t-80.5 72.5l-114 -82q-20 -13 -63 -13q-53 0 -87 35t-34 89q0 56 29 90q34 35 156 60l88 18q-3 58 -22 86 q-28 39 -85 39q-37 0 -72 -24l-16 -42l-32 4v67l53 32q56 34 122 34q46 0 76 -11.5t62 -40.5q63 52 142 52q83 0 133.5 -48.5t50.5 -127.5zM520 273l84 3q-1 74 -20.5 106.5t-62.5 32.5t-63 -32.5t-22 -106.5l32 -1q30 -2 48 -2h4zM319 115v114l-55 -13q-92 -22 -92 -88 q0 -58 58 -58q25 0 49.5 12.5t39.5 32.5z" />
<glyph unicode="&#xf0;" horiz-adv-x="556" d="M474 663l-116 -54q56 -56 84.5 -97.5t48.5 -96.5q26 -73 26 -146q0 -133 -68 -209.5t-186 -76.5q-106 0 -164.5 63.5t-58.5 177.5q0 116 62.5 181.5t172.5 65.5q28 0 55 -9q-13 49 -61 106l-133 -62l-18 38l121 56q-45 44 -95 68l40 52q89 -43 138 -81l134 62zM274 423 q-52 0 -75 -41.5t-23 -134.5q0 -216 106 -216q51 0 75 47t24 147q0 198 -107 198z" />
<glyph unicode="&#xf7;" horiz-adv-x="606" d="M51 212v86h504v-86h-504zM303 510q28 0 47.5 -20t19.5 -48q0 -27 -20 -46.5t-48 -19.5q-27 0 -46.5 20t-19.5 47q0 28 19.5 47.5t47.5 19.5zM303 134q28 0 47.5 -20t19.5 -48q0 -27 -20 -46.5t-48 -19.5q-27 0 -46.5 20t-19.5 47q0 28 19.5 47.5t47.5 19.5z" />
<glyph unicode="&#xf8;" horiz-adv-x="556" d="M510 468l24 -22l-60 -56q24 -35 33.5 -67t9.5 -80q0 -126 -64.5 -193t-185.5 -67q-48 0 -84 13t-76 44l-61 -58l-23 23l63 59q-46 59 -46 160q0 119 63.5 183t182.5 64q105 0 168 -57zM184 158l184 175q-15 49 -36 69.5t-56 20.5q-100 0 -100 -165q0 -44 8 -100zM374 294 l-184 -175q18 -47 40 -67.5t56 -20.5q50 0 72.5 41.5t22.5 134.5q0 52 -7 87z" />
<glyph unicode="&#xfe;" d="M210 720l8 -6v-331l61 49q49 39 103 39q78 0 129.5 -52.5t51.5 -132.5q0 -141 -102 -218l-17 -13q-91 -72 -137 -72q-29 0 -89 17v-155q0 -41 6.5 -52t29.5 -12l45 -2v-37q-130 3 -145 3l-129 -3v37l35 2q23 2 29.5 13t6.5 51v723q0 44 -4.5 56.5t-21.5 13.5l-53 3v36 q80 8 121 21zM218 331v-225q39 -55 101 -55q55 0 86.5 46t31.5 124q0 75 -32.5 117.5t-90.5 42.5q-63 0 -96 -50z" />
<glyph unicode="&#x110;" horiz-adv-x="833" d="M120 380v163q0 66 -7 80.5t-41 17.5l-37 3v37q149 -3 162 -3q5 0 239 3q101 -1 165.5 -20.5t107.5 -62.5q77 -75 77 -222q0 -162 -104 -263q-118 -116 -303 -116l-59 1q-50 2 -97 2q-19 0 -155 -3v23l32 18q20 11 20 57v243h-110v42h110zM261 380h151v-42h-151v-281 q31 -5 68 -5q162 0 234 71q73 73 73 225q0 146 -66 211q-74 72 -246 72q-31 0 -63 -4v-247z" />
<glyph unicode="&#x111;" d="M508 580h83v-42h-83v-438q0 -40 6.5 -51t29.5 -13l33 -2v-37q-21 1 -47 1q-11 0 -24 0.5t-19.5 1t-10.5 0.5l-90 -3l-5 8l5 75l-104 -85q-15 -12 -49 -12q-88 0 -139.5 63.5t-51.5 170.5q0 125 84 181l72 47q40 26 87 26q38 0 81 -17l20 -8v92h-126v42h126q-1 37 -5.5 47 t-20.5 11l-53 3v36q80 8 121 21l72 22l8 -6v-134zM386 160v184q-48 63 -113 63q-105 0 -105 -152q0 -81 31.5 -129t84.5 -48q41 0 71.5 24t30.5 58z" />
<glyph unicode="&#x11c;" horiz-adv-x="833" d="M776 276v-34q-28 -6 -34.5 -12t-6.5 -24v-163q-90 -34 -155.5 -47t-141.5 -13q-178 0 -284.5 99t-106.5 264q0 162 111 255.5t303 93.5q135 0 261 -47l6 -11q-11 -45 -23 -153h-39l-5 86q-30 29 -58 40q-66 29 -147 29q-122 0 -190.5 -74.5t-68.5 -206.5q0 -143 74 -231 t195 -88q60 0 127 25v132q0 19 -12.5 27t-44.5 10l-53 2v41q121 -3 143 -3q26 0 150 3zM322 891h93l123 -175h-57l-112 98l-113 -98h-55z" />
<glyph unicode="&#x11d;" horiz-adv-x="556" d="M529 368l-77 4q5 -24 5 -47q0 -72 -44 -116q-64 -64 -174 -64q-4 0 -40 2q-29 -17 -29 -39q0 -30 47 -30q14 0 146 4h24q148 0 148 -124q0 -100 -81 -162t-212 -62q-99 0 -157.5 38.5t-58.5 103.5q0 46 26 62l81 48q-37 10 -52.5 25t-15.5 42q0 36 17 48l71 54 q-45 15 -69 41q-37 40 -37 96q0 79 60.5 129t156.5 50q93 0 152 -43q16 -1 36 -1q31 0 82 5zM252 421q-82 0 -82 -110q0 -56 22.5 -88t61.5 -32q80 0 80 108q0 122 -82 122zM272 -15q-76 0 -101 -11q-23 -11 -37 -34.5t-14 -51.5q0 -47 40.5 -75.5t107.5 -28.5t111.5 34.5 t44.5 86.5q0 48 -30.5 64t-121.5 16zM231 681h93l123 -175h-57l-112 98l-113 -98h-55z" />
</font>
</defs>
</svg>
