<?xml version="1.0" standalone="no"?>
<!DOCTYPE svg PUBLIC "-//W3C//DTD SVG 1.1//EN" "http://www.w3.org/Graphics/SVG/1.1/DTD/svg11.dtd" >
<svg xmlns="http://www.w3.org/2000/svg">
<metadata>
This is a custom SVG webfont generated by Font Squirrel.
Designer    : Peter S Baker
Foundry     : Briery Creek Software
</metadata>
<defs>
<font id="webfontjErojnJz" horiz-adv-x="0" >
<font-face units-per-em="2048" ascent="1638" descent="-410" />
<missing-glyph horiz-adv-x="559" />
<glyph unicode="IJ" horiz-adv-x="1452" d="M1153 -151q-89 -148 -215 -220q-86 -48 -171 -48q-51 0 -102 33q-63 41 -63 109q0 71 65 103q33 17 76 17q74 0 128 -58q25 -27 38 -62q33 24 56 82q26 88 26 448v901q0 116 -171 116q-14 0 -14 46q0 47 14 47q48 -5 296 -5q244 0 292 5q14 0 14 -46q0 -47 -14 -47 q-172 0 -172 -116v-525q0 -107 -10 -434q-1 -227 -73 -346zM481 202q0 -116 159 -116q14 0 14 -46q0 -47 -14 -47q-133 7 -279 7q-160 0 -286 -7q-15 0 -15 46q0 47 15 47q162 0 162 116v952q0 116 -161 116q-14 0 -14 46q0 47 14 47q48 -5 279 -5q241 0 289 5q14 0 14 -46 q0 -47 -14 -47q-163 0 -163 -116v-952z" />
<glyph unicode="ij" horiz-adv-x="1024" d="M897 1187q0 -71 -59 -112q-39 -27 -87 -27q-74 0 -117 56q-28 37 -28 83q0 68 57 110q39 29 88 29q73 0 117 -57q29 -38 29 -82zM899 856q-8 -92 -8 -174v-543q0 -186 -11 -268q-24 -175 -108 -287q-76 -103 -208 -131q-37 -8 -72 -8q-60 0 -117 43q-44 35 -44 86 q0 57 51 87q26 15 58 15q48 0 80 -52q44 -73 80 -73q46 1 56 91q5 43 5 129v786q0 125 -92 125q-15 0 -15 37t15 37q51 0 189 68q63 31 83 48q14 11 29 11q28 0 29 -27zM496 -8q-84 8 -209 8q-144 0 -228 -8q-15 0 -15 38t15 38q105 0 105 75v414q0 125 -92 125 q-16 0 -16 36q0 38 16 38q50 0 187 68q63 31 83 48q13 11 31 11q28 0 26 -27q-6 -88 -6 -174v-539q0 -75 103 -75q15 0 15 -38q0 -37 -15 -38zM401 1185q0 -70 -59 -111q-38 -26 -86 -26q-75 0 -117 58q-26 35 -26 79q0 70 57 111q38 28 86 28q78 0 118 -58q27 -39 27 -81z " />
<glyph unicode="D&#x17d;" horiz-adv-x="2884" d="M1937 1797q-4 4 -4 11q0 8 8 21q11 19 20 19q2 0 3 -1l268 -124q19 -9 37.5 -9t36.5 9l266 124l3 1q11 -4 22 -20q9 -14 9 -22q0 -6 -3 -9l-283 -250q-26 -23 -51 -23t-49 23zM2837 19q0 -48 -16 -48h-5q-25 0 -74 8q-131 21 -581 21h-448q-70 0 -70 49q0 26 17 48 l871 1139q10 13 10 21q0 17 -40 17h-513q-44 0 -71 -27q-39 -31 -97 -172q-31 -75 -33 -101q-1 -11 -26 -12q-16 0 -32 5q-24 8 -25 21q31 235 31 332q0 48 41 48q3 0 60 -9q48 -7 61 -7h507l382 6h4q61 0 61 -32q0 -24 -25 -58l-833 -1144q-7 -10 -7 -17q0 -21 33 -21 q411 0 593 13q53 4 138 150q40 69 51 106q2 7 19 7q34 0 55 -17q7 -6 6 -15q-44 -172 -44 -311zM237 202v954q0 109 -172 109q-14 0 -14 46.5t14 46.5q143 -6 239 -6t218.5 3t195.5 3q330 0 549.5 -169t219.5 -463q0 -338 -199 -535.5t-522 -197.5q-64 0 -208.5 3.5 t-247.5 3.5t-235 -7q-15 0 -15 46.5t15 46.5q162 0 162 116zM481 273q0 -150 87 -186q39 -16 130 -16q218 0 367.5 170t149.5 475q0 214 -152.5 389t-426.5 175h-79q-76 0 -76 -79v-928z" />
<glyph unicode="D&#x17e;" horiz-adv-x="2337" d="M2239 1463l-230 -412q-17 -31 -50 -31q-31 0 -48 31l-229 412q-2 3 -2 6q0 16 28 32q10 6 17 6q6 0 10 -5l182 -213q33 -39 43 -39t43 39l182 213q5 5 11 5q8 0 19 -7q26 -18 26 -31q0 -3 -2 -6zM2333 264l-24 -188q-3 -34 -3 -60q0 -41 -39 -41q-11 0 -95 15 q-53 10 -93 10h-443q-41 0 -41 37q0 13 9 31l356 659q9 17 9 27q0 20 -29 20h-111q-63 0 -124 -128l-46 -103q-4 -9 -18 -9q-19 0 -36 12q-13 9 -13 23q29 252 30 256q7 43 31 45q158 -20 211 -20h348q46 0 46 -33q0 -18 -8 -32l-359 -666q-4 -7 -4 -15q0 -24 28 -24h109 q132 0 225 205q5 11 27 11q9 0 26 -4q31 -9 31 -28zM237 202v954q0 109 -172 109q-14 0 -14 46.5t14 46.5q143 -6 239 -6t218.5 3t195.5 3q330 0 549.5 -169t219.5 -463q0 -338 -199 -535.5t-522 -197.5q-64 0 -208.5 3.5t-247.5 3.5t-235 -7q-15 0 -15 46.5t15 46.5 q162 0 162 116zM481 273q0 -150 87 -186q39 -16 130 -16q218 0 367.5 170t149.5 475q0 214 -152.5 389t-426.5 175h-79q-76 0 -76 -79v-928z" />
<glyph unicode="d&#x17e;" horiz-adv-x="1806" d="M1708 1463l-230 -412q-17 -31 -50 -31q-31 0 -48 31l-229 412q-2 3 -2 6q0 16 28 32q10 6 17 6q6 0 10 -5l182 -213q33 -39 43 -39t43 39l182 213q5 5 11 5q8 0 19 -7q26 -18 26 -31q0 -3 -2 -6zM1802 264l-24 -188q-3 -34 -3 -60q0 -41 -39 -41q-11 0 -95 15 q-53 10 -93 10h-443q-41 0 -41 37q0 13 9 31l356 659q9 17 9 27q0 20 -29 20h-111q-63 0 -124 -128l-46 -103q-4 -9 -18 -9q-19 0 -36 12q-13 9 -13 23q29 252 30 256q7 43 31 45q158 -20 211 -20h348q46 0 46 -33q0 -18 -8 -32l-359 -666q-4 -7 -4 -15q0 -24 28 -24h109 q132 0 225 205q5 11 27 11q9 0 26 -4q31 -9 31 -28zM1022 31q-29 -12 -156 -35q-102 -26 -131 -31h-12q-10 0 -10 45v29q0 22 -11 22q-12 0 -28 -14q-94 -70 -195 -70q-244 0 -355 174q-71 111 -71 267q0 177 122 302q147 150 392 150q49 0 80 -4q27 -3 27 23v272 q0 125 -92 125q-16 0 -16 36q0 38 16 38q50 0 185 67q65 32 85 50q13 10 27 10q30 0 30 -33q-6 -70 -6 -168v-1030q0 -90 10 -117q14 -40 53 -40q13 0 33 5q16 4 27 -31q3 -15 3 -24q0 -15 -7 -18zM674 141v553q0 44 -4 52q-5 10 -17 18q-47 29 -112 29q-134 0 -196 -144 q-38 -88 -38 -205q0 -193 79 -302q59 -81 144 -81q86 0 130 52q14 17 14 28z" />
<glyph unicode="LJ" horiz-adv-x="2077" d="M1778 -151q-89 -148 -215 -220q-86 -48 -171 -48q-51 0 -102 33q-63 41 -63 109q0 71 65 103q33 17 76 17q74 0 128 -58q25 -27 38 -62q33 24 56 82q26 88 26 448v901q0 116 -171 116q-14 0 -14 46q0 47 14 47q48 -5 296 -5q244 0 292 5q14 0 14 -46q0 -47 -14 -47 q-172 0 -172 -116v-525q0 -107 -10 -434q-1 -227 -73 -346zM481 250q0 -110 67 -153q34 -19 75 -19l332 13q75 3 142 82q82 105 82 219q0 18 47 18q54 0 54 -18v-335q0 -42 -15 -52q-9 -12 -102 -12l-724 7h-84q-72 0 -280 -7q-15 0 -15 46q0 47 15 47q162 0 162 126v942 q0 116 -172 116q-14 0 -14 46q0 47 14 47q47 -5 288 -5q235 0 283 5q14 0 14 -46q0 -47 -14 -47q-155 0 -155 -116v-904z" />
<glyph unicode="Lj" horiz-adv-x="1858" d="M1732 1187q0 -71 -59 -112q-39 -27 -87 -27q-74 0 -117 56q-28 37 -28 83q0 68 57 110q39 29 88 29q73 0 117 -57q29 -38 29 -82zM1734 856q-8 -92 -8 -174v-543q0 -186 -11 -268q-24 -175 -108 -287q-76 -103 -208 -131q-37 -8 -72 -8q-60 0 -117 43q-44 35 -44 86 q0 57 51 87q26 15 58 15q48 0 80 -52q44 -73 80 -73q46 1 56 91q5 43 5 129v786q0 125 -92 125q-15 0 -15 37t15 37q51 0 189 68q63 31 83 48q14 11 29 11q28 0 29 -27zM481 250q0 -110 67 -153q34 -19 75 -19l332 13q75 3 142 82q82 105 82 219q0 18 47 18q54 0 54 -18 v-335q0 -42 -15 -52q-9 -12 -102 -12l-724 7h-84q-72 0 -280 -7q-15 0 -15 46q0 47 15 47q162 0 162 126v942q0 116 -172 116q-14 0 -14 46q0 47 14 47q47 -5 288 -5q235 0 283 5q14 0 14 -46q0 -47 -14 -47q-155 0 -155 -116v-904z" />
<glyph unicode="lj" horiz-adv-x="1023" d="M897 1187q0 -71 -59 -112q-39 -27 -87 -27q-74 0 -117 56q-28 37 -28 83q0 68 57 110q39 29 88 29q73 0 117 -57q29 -38 29 -82zM899 856q-8 -92 -8 -174v-543q0 -186 -11 -268q-24 -175 -108 -287q-76 -103 -208 -131q-37 -8 -72 -8q-60 0 -117 43q-44 35 -44 86 q0 57 51 87q26 15 58 15q48 0 80 -52q44 -73 80 -73q46 1 56 91q5 43 5 129v786q0 125 -92 125q-15 0 -15 37t15 37q51 0 189 68q63 31 83 48q14 11 29 11q28 0 29 -27zM496 -8q-84 8 -209 8q-144 0 -228 -8q-15 0 -15 38t15 38q105 0 105 67v1026q0 125 -92 125 q-16 0 -16 36q0 38 16 38q50 0 185 67q65 32 85 50q13 10 27 10q30 0 30 -33q-6 -75 -6 -168v-1143q0 -75 103 -75q15 0 15 -38t-15 -38z" />
<glyph unicode="NJ" horiz-adv-x="2200" d="M1901 -151q-89 -148 -215 -220q-86 -48 -171 -48q-51 0 -102 33q-63 41 -63 109q0 71 65 103q33 17 76 17q74 0 128 -58q25 -27 38 -62q33 24 56 82q26 88 26 448v901q0 116 -171 116q-14 0 -14 46q0 47 14 47q48 -5 296 -5q244 0 292 5q14 0 14 -46q0 -47 -14 -47 q-172 0 -172 -116v-525q0 -107 -10 -434q-1 -227 -73 -346zM1288 76q0 -97 -31 -97q-26 0 -74 57l-822 978q-13 16 -20 16q-13 0 -13 -22v-806q0 -116 151 -116q15 0 15 -46q0 -48 -15 -47q-92 7 -200 7q-102 0 -214 -7q-14 -2 -14 46q0 47 14 47q159 0 159 116v954 q0 114 -173 114q-13 0 -13 46q0 47 13 47q50 -5 177 -5q84 0 98 -2q59 -9 100 -57l711 -867q10 -14 24 -14q24 0 24 31v703q0 118 -153 118q-15 0 -15 46q0 47 15 47q102 -5 198 -5q100 0 193 5q14 0 14 -46q0 -47 -14 -47q-135 0 -135 -118v-1076z" />
<glyph unicode="Nj" horiz-adv-x="1981" d="M1855 1187q0 -71 -59 -112q-39 -27 -87 -27q-74 0 -117 56q-28 37 -28 83q0 68 57 110q39 29 88 29q73 0 117 -57q29 -38 29 -82zM1857 856q-8 -92 -8 -174v-543q0 -186 -11 -268q-24 -175 -108 -287q-76 -103 -208 -131q-37 -8 -72 -8q-60 0 -117 43q-44 35 -44 86 q0 57 51 87q26 15 58 15q48 0 80 -52q44 -73 80 -73q46 1 56 91q5 43 5 129v786q0 125 -92 125q-15 0 -15 37t15 37q51 0 189 68q63 31 83 48q14 11 29 11q28 0 29 -27zM1288 76q0 -97 -31 -97q-26 0 -74 57l-822 978q-13 16 -20 16q-13 0 -13 -22v-806q0 -116 151 -116 q15 0 15 -46q0 -48 -15 -47q-92 7 -200 7q-102 0 -214 -7q-14 -2 -14 46q0 47 14 47q159 0 159 116v954q0 114 -173 114q-13 0 -13 46q0 47 13 47q50 -5 177 -5q84 0 98 -2q59 -9 100 -57l711 -867q10 -14 24 -14q24 0 24 31v703q0 118 -153 118q-15 0 -15 46q0 47 15 47 q102 -5 198 -5q100 0 193 5q14 0 14 -46q0 -47 -14 -47q-135 0 -135 -118v-1076z" />
<glyph unicode="nj" horiz-adv-x="1586" d="M1460 1187q0 -71 -59 -112q-39 -27 -87 -27q-74 0 -117 56q-28 37 -28 83q0 68 57 110q39 29 88 29q73 0 117 -57q29 -38 29 -82zM1462 856q-8 -92 -8 -174v-543q0 -186 -11 -268q-24 -175 -108 -287q-76 -103 -208 -131q-37 -8 -72 -8q-60 0 -117 43q-44 35 -44 86 q0 57 51 87q26 15 58 15q48 0 80 -52q44 -73 80 -73q46 1 56 91q5 43 5 129v786q0 125 -92 125q-15 0 -15 37t15 37q51 0 189 68q63 31 83 48q14 11 29 11q28 0 29 -27zM1069 -8q-107 8 -211 8q-105 0 -225 -8h-1q-14 0 -14 38t15 38q101 0 101 62v407q0 149 -59 200 q-29 25 -96 25q-62 0 -119 -50q-67 -58 -67 -120v-449q0 -75 99 -75q15 0 15 -38t-15 -38q-84 8 -216 8q-135 0 -219 -8q-15 0 -15 38t15 38q107 0 107 75v406q0 133 -92 133q-16 0 -16 36q0 38 16 38q50 0 187 68q63 31 83 48q13 11 27 11q29 0 30 -27l-6 -68q0 -19 9 -19 t18 9q42 55 138 81q41 11 95 11q189 0 274 -185q36 -73 36 -220v-329q0 -68 106 -68q16 0 16 -38t-16 -38z" />
<glyph unicode="DZ" horiz-adv-x="2884" d="M2837 19q0 -48 -16 -48h-5q-25 0 -74 8q-131 21 -581 21h-448q-70 0 -70 49q0 26 17 48l871 1139q10 13 10 21q0 17 -40 17h-513q-44 0 -71 -27q-39 -31 -97 -172q-31 -75 -33 -101q-1 -11 -26 -12q-16 0 -32 5q-24 8 -25 21q31 235 31 332q0 48 41 48q3 0 60 -9 q48 -7 61 -7h507l382 6h4q61 0 61 -32q0 -24 -25 -58l-833 -1144q-7 -10 -7 -17q0 -21 33 -21q411 0 593 13q53 4 138 150q40 69 51 106q2 7 19 7q34 0 55 -17q7 -6 6 -15q-44 -172 -44 -311zM237 202v954q0 109 -172 109q-14 0 -14 46.5t14 46.5q143 -6 239 -6t218.5 3 t195.5 3q330 0 549.5 -169t219.5 -463q0 -338 -199 -535.5t-522 -197.5q-64 0 -208.5 3.5t-247.5 3.5t-235 -7q-15 0 -15 46.5t15 46.5q162 0 162 116zM481 273q0 -150 87 -186q39 -16 130 -16q218 0 367.5 170t149.5 475q0 214 -152.5 389t-426.5 175h-79q-76 0 -76 -79 v-928z" />
<glyph unicode="D&#x7a;" horiz-adv-x="2337" d="M2333 264l-24 -188q-3 -34 -3 -60q0 -41 -39 -41q-11 0 -95 15q-53 10 -93 10h-443q-41 0 -41 37q0 13 9 31l356 659q9 17 9 27q0 20 -29 20h-111q-63 0 -124 -128l-46 -103q-4 -9 -18 -9q-19 0 -36 12q-13 9 -13 23q29 252 30 256q7 43 31 45q158 -20 211 -20h348 q46 0 46 -33q0 -18 -8 -32l-359 -666q-4 -7 -4 -15q0 -24 28 -24h109q132 0 225 205q5 11 27 11q9 0 26 -4q31 -9 31 -28zM237 202v954q0 109 -172 109q-14 0 -14 46.5t14 46.5q143 -6 239 -6t218.5 3t195.5 3q330 0 549.5 -169t219.5 -463q0 -338 -199 -535.5t-522 -197.5 q-64 0 -208.5 3.5t-247.5 3.5t-235 -7q-15 0 -15 46.5t15 46.5q162 0 162 116zM481 273q0 -150 87 -186q39 -16 130 -16q218 0 367.5 170t149.5 475q0 214 -152.5 389t-426.5 175h-79q-76 0 -76 -79v-928z" />
<glyph unicode="d&#x7a;" horiz-adv-x="1806" d="M1802 264l-24 -188q-3 -34 -3 -60q0 -41 -39 -41q-11 0 -95 15q-53 10 -93 10h-443q-41 0 -41 37q0 13 9 31l356 659q9 17 9 27q0 20 -29 20h-111q-63 0 -124 -128l-46 -103q-4 -9 -18 -9q-19 0 -36 12q-13 9 -13 23q29 252 30 256q7 43 31 45q158 -20 211 -20h348 q46 0 46 -33q0 -18 -8 -32l-359 -666q-4 -7 -4 -15q0 -24 28 -24h109q132 0 225 205q5 11 27 11q9 0 26 -4q31 -9 31 -28zM1022 31q-29 -12 -156 -35q-102 -26 -131 -31h-12q-10 0 -10 45v29q0 22 -11 22q-12 0 -28 -14q-94 -70 -195 -70q-244 0 -355 174q-71 111 -71 267 q0 177 122 302q147 150 392 150q49 0 80 -4q27 -3 27 23v272q0 125 -92 125q-16 0 -16 36q0 38 16 38q50 0 185 67q65 32 85 50q13 10 27 10q30 0 30 -33q-6 -70 -6 -168v-1030q0 -90 10 -117q14 -40 53 -40q13 0 33 5q16 4 27 -31q3 -15 3 -24q0 -15 -7 -18zM674 141v553 q0 44 -4 52q-5 10 -17 18q-47 29 -112 29q-134 0 -196 -144q-38 -88 -38 -205q0 -193 79 -302q59 -81 144 -81q86 0 130 52q14 17 14 28z" />
<glyph unicode="&#x2e;&#x2e;&#x2e;" horiz-adv-x="2048" d="M1866 121q0 -83 -68 -124q-37 -22 -84 -22q-71 0 -118 45q-44 42 -44 113q0 55 39 98q44 48 123 48q73 0 118 -57q34 -42 34 -101zM500 121q0 -83 -68 -124q-37 -22 -84 -22q-71 0 -118 45q-44 42 -44 113q0 55 39 98q44 48 123 48q73 0 118 -57q34 -42 34 -101z M1182 121q0 -83 -68 -124q-37 -22 -84 -22q-71 0 -118 45q-44 42 -44 113q0 55 39 98q44 48 123 48q73 0 118 -57q34 -42 34 -101z" />
<glyph unicode="fj" horiz-adv-x="1089" d="M958 139q0 -186 -11 -268q-24 -175 -104 -282.5t-212 -135.5q-37 -8 -72 -8q-63 0 -117 43q-44 35 -44 86q0 57 51 87q26 15 58 15q48 0 80 -52q44 -73 80 -73q48 1 56 91q5 53 5 129v907q0 67 -56 67h-248q-31 0 -31 -30v-572q0 -75 133 -75q15 0 15 -38t-15 -38 q-79 8 -229.5 8t-241.5 -8q-15 0 -15 38t15 38q109 0 109 75v568q0 34 -31 34h-61q-16 0 -16 37t16 37q48 0 75 42q17 26 17 71q0 146 65 273t184.5 204.5t280.5 77.5q118 0 191 -52q53 -38 53 -87t-35.5 -85.5t-77.5 -39.5q-72 0 -112 51l-45 57q-34 43 -103 43t-120.5 -79 t-51.5 -248v-166q0 -31 31 -31h258q150 0 237 29q12 4 17 4q29 0 29 -41q-7 -94 -7 -164v-539z" />
<glyph unicode="&#x17f;b" horiz-adv-x="1610" d="M164 143v527q0 35 -31 35h-61q-15 0 -15 36.5t15 36.5q92 0 92 113q0 281 153 438.5t357 157.5q123 0 183.5 -58t60.5 -143v-446q0 -28 16 -28q9 0 19 7q73 51 168 51q176 0 298 -122t122 -308q0 -207 -111.5 -335t-332.5 -128q-58 0 -122 27t-112 27q-12 0 -55 -34 l-19 -15q-4 -3 -13 -3q-31 0 -74 33q-20 16 -19 23q6 38 6 244v882q0 130 -30 171.5t-100 41.5q-72 0 -119 -87t-47 -284v-860q0 -75 96 -75q16 0 16 -38t-16 -38q-81 8 -216.5 8t-217.5 -8q-15 0 -15 38t15 38q109 0 109 75zM918 297q0 -109 61 -174.5t146 -65.5 q162 0 162 371q0 154 -62.5 248t-162.5 94q-71 0 -113 -43q-31 -31 -31 -80v-350z" />
<glyph unicode="&#x17f;h" horiz-adv-x="1619" d="M1487 143q0 -75 113 -75h6q15 0 15 -38t-15 -38q-95 8 -223 8t-228 -8q-15 0 -15 38t15 38q102 0 102 75v412q0 86 -50 146.5t-115 60.5q-62 0 -99.5 -23t-56 -53t-18.5 -59v-484q0 -75 99 -75h3q15 0 15 -38t-15 -38q-95 8 -209.5 8t-214.5 -8q-15 0 -15 38t15 38 q92 0 92 75v1018q0 133 -32 173t-97 40q-72 0 -119 -87t-47 -284v-860q0 -75 96 -75q16 0 16 -38t-16 -38q-81 8 -216.5 8t-217.5 -8q-15 0 -15 38t15 38q109 0 109 75v527q0 35 -31 35h-61q-15 0 -15 36.5t15 36.5q92 0 92 113q0 281 153 438.5t357 157.5 q125 0 184.5 -54.5t59.5 -146.5v-465q0 -37 32 -12q80 61 211 61q106 0 177.5 -44t110 -120.5t38.5 -148.5v-414z" />
<glyph unicode="&#x17f;i" horiz-adv-x="1089" d="M164 143v527q0 35 -31 35h-61q-16 0 -16 36.5t16 36.5q48 0 70 35.5t22 77.5q0 285 154 440.5t356 155.5q146 0 205 -41.5t59 -105.5q0 -47 -40 -82t-74 -35q-76 0 -130.5 75.5t-116.5 75.5q-91 0 -137.5 -89t-46.5 -237v-905q0 -75 133 -75q16 0 16 -38t-16 -38 q-80 8 -233.5 8t-237.5 -8q-15 0 -15 38t15 38q109 0 109 75zM729 143v414q0 125 -92 125q-16 0 -16 37t16 37q50 0 187 68q63 31 83 48q13 11 31 11q28 0 26 -27q-6 -84 -6 -174v-539q0 -75 103 -75q15 0 15 -38t-15 -38q-84 8 -209 8q-144 0 -228 -8q-15 0 -15 38t15 38 q105 0 105 75z" />
<glyph unicode="&#x17f;k" horiz-adv-x="1599" d="M164 143v527q0 35 -31 35h-61q-15 0 -15 36.5t15 36.5q92 0 92 113q0 281 153 438.5t357 157.5q121 0 182.5 -53.5t61.5 -147.5v-758q0 -36 20 -36q45 0 80 38l156 170q29 31 29 51q0 33 -83 33q-15 0 -15 36t15 36q62 -6 211.5 -6t210.5 6q15 0 15 -36t-15 -36 q-93 0 -152 -46q-18 -14 -30 -25l-209 -189q-23 -20 0 -45l330 -358q49 -53 125 -53q15 0 15 -38t-15 -38q-82 8 -232.5 8t-232.5 -8q-15 0 -15 38t15 38q74 0 74 30q0 16 -21 40l-201 231q-26 30 -63 30q-12 0 -12 -34v-222q0 -75 110 -75q15 0 15 -38t-15 -38 q-82 8 -218 8t-218 -8q-15 0 -15 38t15 38q96 0 96 75v1018q0 146 -34 179.5t-95 33.5q-72 0 -119 -87t-47 -284v-860q0 -75 96 -75q16 0 16 -38t-16 -38q-81 8 -216.5 8t-217.5 -8q-15 0 -15 38t15 38q109 0 109 75z" />
<glyph unicode="&#x17f;l" horiz-adv-x="1050" d="M164 143v527q0 35 -31 35h-61q-15 0 -15 36.5t15 36.5q92 0 92 113q0 281 153.5 438.5t356.5 157.5q114 0 179 -55.5t65 -145.5v-1143q0 -75 102 -75q15 0 15 -38t-15 -38q-82 8 -208 8t-208 -8q-15 0 -15 38t15 38h2q82 0 82 75v1018q0 213 -129 213q-69 0 -117.5 -86.5 t-48.5 -284.5v-860q0 -75 96 -75q16 0 16 -38t-16 -38q-81 8 -216.5 8t-217.5 -8q-15 0 -15 38t15 38q109 0 109 75z" />
<glyph unicode="&#x17f;&#x17f;" horiz-adv-x="1087" d="M164 143v527q0 35 -31 35h-61q-15 0 -15 36.5t15 36.5q48 0 70 33t22 80q0 281 149.5 432.5t326.5 151.5q173 0 251 -99q135 111 307 111q71 0 119.5 -18t76 -51.5t27.5 -74.5q0 -50 -39 -85t-73 -35q-88 0 -123 51l-54 78q-15 22 -49 22q-70 0 -118 -91t-48 -293v-847 q0 -75 136 -75q15 0 15 -38t-15 -38q-82 8 -223.5 8t-223.5 -8q-15 0 -15 38t15 38q82 0 82 75v527q0 35 -29 35h-61q-15 0 -15 36.5t15 36.5q44 0 67 31.5t23 81.5q0 196 76 332q-69 99 -108 125t-103 26t-112 -89.5t-48 -281.5v-860q0 -75 101 -75q15 0 15 -38t-15 -38 q-82 8 -219.5 8t-219.5 -8q-15 0 -15 38t15 38q109 0 109 75z" />
<glyph unicode="&#x17f;&#x17f;i" horiz-adv-x="1610" d="M164 143v527q0 35 -31 35h-61q-15 0 -15 36.5t15 36.5q48 0 70 33t22 80q0 281 149.5 432.5t326.5 151.5q173 0 251 -99q135 111 308 111q101 0 155 -19.5t80 -51.5t26 -73q0 -50 -39 -85t-73 -35q-66 0 -109 51l-56 66q-29 34 -83 34q-90 0 -136.5 -88t-46.5 -231v-912 q0 -75 136 -75q15 0 15 -38t-15 -38q-82 8 -223.5 8t-223.5 -8q-15 0 -15 38t15 38q82 0 82 75v527q0 35 -29 35h-61q-15 0 -15 36.5t15 36.5q44 0 67 31.5t23 81.5q0 196 76 332q-69 99 -108 125t-103 26t-112 -89.5t-48 -281.5v-860q0 -75 101 -75q15 0 15 -38t-15 -38 q-82 8 -219.5 8t-219.5 -8q-15 0 -15 38t15 38q109 0 109 75zM1250 143v414q0 125 -92 125q-16 0 -16 37t16 37q50 0 187 68q63 31 83 48q13 11 31 11q28 0 26 -27q-6 -84 -6 -174v-539q0 -75 103 -75q15 0 15 -38t-15 -38q-84 8 -218.5 8t-218.5 -8q-15 0 -15 38t15 38 q105 0 105 75z" />
<glyph unicode="&#x17f;&#x17f;l" horiz-adv-x="1573" d="M164 143v527q0 35 -31 35h-61q-15 0 -15 36.5t15 36.5q48 0 70 33t22 80q0 281 149.5 432.5t326.5 151.5q173 0 251 -99q137 111 306 111q117 0 180.5 -56.5t63.5 -144.5v-1143q0 -75 102 -75q15 0 15 -38t-15 -38q-95 8 -205 8t-211 -8q-15 0 -15 38t15 38q84 0 84 75 v1018q0 213 -129 213q-70 0 -118 -89.5t-48 -281.5v-860q0 -75 97 -75q15 0 15 -38t-15 -38q-95 8 -214.5 8t-220.5 -8q-15 0 -15 38t15 38q109 0 109 75v527q0 35 -31 35h-61q-15 0 -15 36.5t15 36.5q92 0 92 113q0 202 75 335q-68 96 -106.5 122t-102.5 26t-112 -89.5 t-48 -281.5v-860q0 -75 101 -75q15 0 15 -38t-15 -38q-82 8 -219.5 8t-219.5 -8q-15 0 -15 38t15 38q109 0 109 75z" />
<glyph unicode="&#xfb00;" horiz-adv-x="1156" d="M1470 1343q0 -48 -37.5 -84t-74.5 -36q-89 0 -123 51l-49 74q-17 26 -53 26q-74 0 -120 -88.5t-46 -282.5v-122q0 -31 30 -31h170q15 0 15 -52.5t-15 -52.5h-170q-30 0 -30 -30v-572q0 -75 133 -75q15 0 15 -38t-15 -38q-82 8 -235.5 8t-235.5 -8q-15 0 -15 38t15 38 q108 0 108 75v568q0 34 -30 34h-283q-31 0 -31 -30v-572q0 -75 133 -75q15 0 15 -38t-15 -38q-82 8 -235.5 8t-235.5 -8q-15 0 -15 38t15 38q109 0 109 75v568q0 34 -31 34h-61q-15 0 -15 37t15 37q92 0 92 113q0 140 76.5 271t193.5 197t240 66q158 0 230 -96q6 -8 11 -16 q156 133 332 133q112 0 167.5 -43t55.5 -101zM799 1190q-57 166 -197 166q-113 0 -161 -90t-48 -289v-96q0 -31 31 -31h281q32 0 32 82q0 144 62 258z" />
<glyph unicode="&#xfb01;" horiz-adv-x="1088" d="M165 143v568q0 34 -30 34h-63q-16 0 -16 37t16 37q46 0 69 34t23 79q0 146 65.5 274t184 204.5t282.5 76.5q112 0 177 -43t65 -101q0 -48 -38 -85q-37 -35 -74 -35q-77 0 -131 75.5t-104 75.5q-103 0 -149.5 -88.5t-46.5 -282.5v-122q0 -31 30 -31h258q73 0 133.5 8.5 t87 16.5t33.5 8q29 0 29 -31q-8 -91 -8 -178v-531q0 -75 102 -75q15 0 15 -38t-15 -38q-82 8 -218 8t-218 -8q-15 0 -15 38t15 38q104 0 104 75v535q0 67 -55 67h-248q-30 0 -30 -30v-572q0 -75 133 -75q15 0 15 -38t-15 -38q-82 8 -235.5 8t-235.5 -8q-15 0 -15 38t15 38 q108 0 108 75z" />
<glyph unicode="&#xfb02;" horiz-adv-x="1089" d="M393 887q0 -37 37 -37h266q33 0 33 35v276q0 112 -46.5 162.5t-113.5 50.5q-76 0 -126 -84.5t-50 -241.5v-161zM164 136v573q0 36 -37 36h-55q-16 0 -16 37t16 37q44 0 68 32t24 81q0 146 64 271.5t183.5 204.5t262.5 79q108 0 172 -47q35 17 54.5 32t33.5 15 q31 0 31 -33q-7 -112 -7 -168v-1143q0 -75 103 -75q15 0 15 -38t-15 -38q-113 8 -227 8t-209 -8h-1q-15 0 -15 38t16 38q104 0 104 75v566q0 36 -37 36h-262q-37 0 -37 -36v-573q0 -68 133 -68q16 0 16 -38t-15 -38h-1q-96 8 -234 8t-237 -8h-1q-14 0 -14 38t15 38 q109 0 109 68z" />
<glyph unicode="&#xfb03;" horiz-adv-x="1661" d="M164 143v568q0 34 -31 34h-61q-15 0 -15 37t15 37q92 0 92 113q0 140 76.5 271t193.5 197t240 66q158 0 230 -96q6 -8 11 -16q150 133 353 133q112 0 177 -43t65 -101q0 -48 -38 -85q-37 -35 -72 -35h-2q-77 0 -131 75.5t-104 75.5q-103 0 -149.5 -88.5t-46.5 -282.5 v-122q0 -31 30 -31h258q73 0 133.5 8.5t87 16.5t33.5 8q29 0 29 -31q-8 -91 -8 -178v-531q0 -75 102 -75q15 0 15 -38t-15 -38q-82 8 -218 8t-218 -8q-15 0 -15 38t15 38q104 0 104 75v535q0 67 -55 67h-248q-30 0 -30 -30v-572q0 -75 133 -75q15 0 15 -38t-15 -38 q-82 8 -235.5 8t-235.5 -8q-15 0 -15 38t15 38q108 0 108 75v568q0 34 -30 34h-283q-31 0 -31 -30v-572q0 -75 133 -75q15 0 15 -38t-15 -38q-82 8 -235.5 8t-235.5 -8q-15 0 -15 38t15 38q109 0 109 75zM393 881q0 -31 31 -31h281q32 0 32 82q0 144 62 258 q-57 166 -197 166q-113 0 -161 -90t-48 -289v-96z" />
<glyph unicode="&#xfb04;" horiz-adv-x="1661" d="M164 143v568q0 34 -31 34h-61q-15 0 -15 37t15 37q92 0 92 113q0 140 76.5 271t193.5 197t240 66q158 0 230 -96q6 -8 11 -16q156 133 332 133q106 0 172 -47q41 22 57 34.5t29 12.5q31 0 31 -33q-6 -87 -6 -168v-1143q0 -75 99 -75h3q15 0 15 -38t-15 -38 q-95 8 -215.5 8t-220.5 -8q-15 0 -15 38t15 38q104 0 104 75v570q0 32 -36 32h-267q-30 0 -30 -30v-572q0 -75 133 -75q15 0 15 -38t-15 -38q-82 8 -235.5 8t-235.5 -8q-15 0 -15 38t15 38q108 0 108 75v568q0 34 -30 34h-283q-31 0 -31 -30v-572q0 -75 133 -75q15 0 15 -38 t-15 -38q-82 8 -235.5 8t-235.5 -8q-15 0 -15 38t15 38q109 0 109 75zM393 881q0 -31 31 -31h281q32 0 32 82q0 144 62 258q-57 166 -197 166q-113 0 -161 -90t-48 -289v-96zM967 881q0 -31 30 -31h269q34 0 34 33v278q0 213 -167 213q-74 0 -120 -88.5t-46 -282.5v-122z " />
<glyph unicode="f&#xf0;" horiz-adv-x="1658" d="M902 444q0 -180 81 -294q62 -89 143 -89q94 0 151 121q51 107 51 262q0 163 -73 267q-56 82 -129 82q-78 0 -143 -84q-81 -106 -81 -265zM649 449q0 150 105 267q137 154 361 154q-76 76 -200 156q-17 11 -31 11t-33 -15l-184 -145q-2 -1 -4 -1q-16 0 -62 73 q-41 65 -42 78q0 8 8 4q64 -33 95 -33q22 0 37 12l72 57q18 14 18 21t-18 20q-12 8 -67 35q-18 8 6 58q21 43 37 43q3 0 5 -1q66 -30 114 -55q20 -11 33.5 -11t37.5 19l295 229q1 1 4 1q15 0 65 -62q45 -56 54 -71q1 -11 -6 -9l-117 25q-15 3 -31 -9l-186 -147 q-18 -14 -18 -24t22 -23q334 -196 457 -373q106 -153 106 -282q0 -221 -126 -350q-122 -124 -331 -124q-207 0 -339 124q-137 130 -137 348zM164 136v573q0 36 -37 36h-55q-16 0 -16 37t16 37q48 0 70 34t22 79q0 126 61.5 266.5t156 214.5t208.5 74q72 0 127 -34t55 -81 q0 -44 -27 -76t-75 -32q-59 0 -87.5 55t-64.5 55q-51 0 -88 -88t-37 -238v-161q0 -37 37 -37h143q15 0 15 -52.5t-15 -52.5h-143q-37 0 -37 -36v-573q0 -68 133 -68q16 0 16 -38t-16 -38q-80 8 -233.5 8t-237.5 -8q-15 0 -15 38t15 38q109 0 109 68z" />
<glyph unicode="f&#xfe;" horiz-adv-x="1638" d="M584 745h-154q-37 0 -37 -36v-573q0 -68 133 -68q16 0 16 -38.5t-16 -37.5q-96 8 -234 8t-237 -8q-15 -1 -15 37.5t15 38.5q109 0 109 68v573q0 36 -37 36h-55q-16 0 -16 37t16 37q44 0 68 32t24 81q0 146 64 271.5t183.5 204.5t262.5 79q108 0 172 -47q35 17 54.5 32 t33.5 15q31 0 31 -33q-6 -110 -6 -168v-461q0 -29 14 -23q15 6 18 9q66 59 189 59q160 0 264 -78q125 -94 125 -284q0 -264 -241 -416q-101 -63 -345 -104q-24 -4 -24 -33v-348q0 -80 -82 -107l-174 -57q-5 -2 -10 -2q-23 0 -44 41q-19 37 4 53l62 43q14 10 14 31v1552 q0 101 -47 163q-37 50 -113 50t-126 -84.5t-50 -241.5v-161q0 -37 37 -37h154q16 0 16 -52.5t-16 -52.5zM1315 457q0 321 -178 321q-105 0 -166 -90q-12 -24 -12 -63v-525q0 -19 19 -19q4 0 9 1q132 16 211 112q117 143 117 263z" />
<glyph />
<glyph />
<glyph unicode="&#xd;" horiz-adv-x="682" />
<glyph unicode=" "  horiz-adv-x="559" />
<glyph unicode="&#x09;" horiz-adv-x="559" />
<glyph unicode="&#xa0;" horiz-adv-x="559" />
<glyph unicode="!" horiz-adv-x="520" d="M418 116q0 -63 -44.5 -102t-111.5 -39t-112.5 43.5t-45.5 105t41 108.5t117.5 47t116 -48t39.5 -115zM401 1280q0 -118 -69 -594q-13 -90 -21 -246q-1 -20 -51 -20t-51 20q-2 102 -41 438.5t-39 368.5q0 71 42 111.5t93 40.5q67 0 102 -35t35 -84z" />
<glyph unicode="&#x22;" horiz-adv-x="757" d="M348 1374q0 -17 -39 -223q-33 -173 -33 -207q0 -15 -59 -15q-61 0 -61 15q0 61 -52 309q-20 92 -20 119q0 109 133 109q131 0 131 -107zM676 1374q0 -17 -39 -223q-33 -173 -33 -207q0 -15 -59 -15q-61 0 -61 15q0 61 -52 309q-20 92 -20 119q0 109 133 109 q131 0 131 -107z" />
<glyph unicode="#" horiz-adv-x="1015" d="M993 934v-131h-213l-78 -289h181v-133h-215l-99 -371h-135l98 371h-180l-98 -371h-135l100 371h-194v133h229l76 289h-195v131h230l84 315h135l-84 -315h180l84 315h135l-84 -315h178zM645 803h-180l-76 -289h180z" />
<glyph unicode="$" horiz-adv-x="1030" d="M936 408q0 -191 -104.5 -302t-268.5 -122v-134q0 -15 -50 -15h-13q-62 2 -62 15v136q-151 20 -280 90q-53 148 -53 282q0 10 1 17q2 25 46.5 26t46.5 -20q8 -108 78.5 -187t160.5 -106v492q-179 65 -259.5 154t-80.5 261q0 105 89 209.5t251 124.5v137q0 16 59 16h3 q63 -1 63 -16v-137q93 -5 142.5 -17t64 -12t29.5 3q45 -128 45 -265v-6q1 -13 -41.5 -19t-46.5 9q-24 110 -82 159t-111 60v-444q249 -76 311 -178t62 -211zM438 840v405q-141 -50 -141 -200t141 -205zM737 301q0 159 -174 231v-458q174 42 174 227z" />
<glyph unicode="%" horiz-adv-x="1822" d="M791 973q0 -162 -78 -280q-96 -146 -271 -146q-160 0 -262 146q-82 118 -82 280q0 151 73 270q96 156 271 156q177 0 275 -155q74 -119 74 -271zM584 975q0 336 -142 336q-137 0 -137 -336q0 -340 137 -340q142 0 142 340zM1432 1370l-875 -1452q-2 -4 -8 -4 q-15 0 -54 24q-37 25 -37 38q0 2 1 4l872 1447q2 4 8 4q15 0 53 -21q48 -27 40 -40zM1801 405q0 -162 -78 -280q-96 -146 -271 -146q-160 0 -262 146q-82 118 -82 280q0 151 73 270q96 156 271 156q179 0 275 -155q74 -119 74 -271zM1594 407q0 336 -142 336 q-137 0 -137 -336q0 -340 137 -340q142 0 142 340z" />
<glyph unicode="&#x26;" horiz-adv-x="1703" d="M1693 192q16 -16 16 -28q0 -6 -4 -11q-96 -126 -261 -167q-60 -15 -121 -15q-203 0 -365 227q-225 -226 -462 -227q-246 0 -366 152q-91 115 -91 250q0 242 345 420q-163 118 -163 270q0 135 104 223q102 86 232 86q167 0 265 -122q48 -60 48 -154q0 -140 -179 -247 q196 -139 360 -371q167 238 167 282q0 59 -124 59q-16 0 -16 50t16 50q84 -7 271 -7q189 0 243 7q15 0 15 -50t-15 -50q-140 0 -213 -59q-59 -56 -123 -154q-75 -115 -159 -224q166 -247 347 -247q131 0 197 66q5 4 11 4q10 0 25 -13zM676 1102q0 172 -126 172 q-118 0 -118 -164q0 -101 164 -203q80 78 80 195zM903 279q-196 296 -431 457q-214 -127 -214 -322q0 -137 87 -229q90 -95 235 -95q154 0 323 189z" />
<glyph unicode="'" horiz-adv-x="421" d="M344 1374q0 -17 -39 -223q-33 -173 -33 -207q0 -15 -59 -15q-61 0 -61 15q0 61 -52 309q-20 92 -20 119q0 109 133 109q131 0 131 -107z" />
<glyph unicode="(" horiz-adv-x="675" d="M653 1483q0 -25 -26 -55l-4 -5q-285 -286 -285 -835q0 -559 285 -838q26 -26 26 -59q0 -45 -43 -45q-34 0 -63 24q-120 112 -180 186q-240 298 -240 732q0 259 141 553q93 198 279 364q26 25 63 25q47 0 47 -47z" />
<glyph unicode=")" horiz-adv-x="675" d="M553 588q0 -255 -141 -553q-93 -197 -279 -365q-26 -24 -63 -24q-43 0 -43 41q0 31 26 57q173 175 245 480q40 172 40 364q0 370 -142 640q-62 117 -143 197q-24 26 -24 60q0 45 41 45q37 0 63 -25q116 -108 172 -176q248 -302 248 -741z" />
<glyph unicode="*" horiz-adv-x="829" d="M356 641v274l-235 -137l-55 96l235 138l-235 135l55 96l235 -135v272h111v-272l235 135l55 -96l-235 -135l235 -138l-55 -96l-235 137v-274h-111z" />
<glyph unicode="+" horiz-adv-x="1064" d="M944 362h-319v-362h-181v362h-321v148h321v326h181v-326h319v-148z" />
<glyph unicode="," horiz-adv-x="520" d="M453 49q0 -133 -94.5 -249t-213.5 -173q-8 -4 -15 -4q-13 0 -21 13q-13 20 0 34q137 162 137 266q0 21 -33 32t-77 57.5t-44 106.5t48 98t115.5 38t132.5 -61.5t65 -157.5z" />
<glyph unicode="-" horiz-adv-x="827" d="M698 610q20 0 20 -65.5t-22 -65.5h-571q-19 0 -19 65.5t19 65.5h573z" />
<glyph unicode="." horiz-adv-x="520" d="M418 109q0 -56 -45 -95q-44 -40 -108 -40h-2q-65 1 -112 44.5t-47 106.5t41.5 108.5t117.5 45.5t115.5 -49.5t39.5 -120.5z" />
<glyph unicode="/" horiz-adv-x="716" d="M733 1423l-612 -1441q-4 -9 -21 -9q-40 0 -87 29q-28 17 -28 31q0 3 1 6l610 1440q3 7 19 7q42 0 90 -27q26 -15 29 -28z" />
<glyph unicode="0" horiz-adv-x="956" d="M924 643q0 -203 -70 -373q-117 -286 -377 -286q-269 0 -380 291q-64 168 -64 393q0 231 77 404q116 261 369 261q263 0 376 -284q69 -175 69 -406zM672 633q0 274 -39 436q-41 174 -152 174q-158 0 -192 -354q-8 -88 -8 -209q0 -258 29 -383q51 -221 165 -221 q197 0 197 495v62z" />
<glyph unicode="1" horiz-adv-x="956" d="M614 283q0 -127 35 -171q36 -44 127 -44q15 0 15 -38t-15 -38q-80 8 -282 8q-205 0 -285 -8q-15 0 -15 38t15 38q109 0 145 50q33 45 33 163v806q0 58 -17 58q-2 0 -4 -1q-105 -35 -161 -63q-20 -10 -31 22q-4 12 -4 20q0 14 12 18q132 55 348 213q27 20 48 20 q43 0 43 -53q-7 -71 -7 -160v-878z" />
<glyph unicode="2" horiz-adv-x="956" d="M799 31q-17 -39 -80 -39q-135 8 -246 8h-80q-161 0 -342 -8q-53 0 -53 47q0 21 20 41q160 160 315 370q255 347 255 529q-5 205 -172 205q-149 0 -242 -164q-12 -22 -48 1q-27 17 -17 34q81 158 210 231q84 47 177 47q164 0 262 -110q86 -96 86 -234q0 -191 -275 -499 q-59 -66 -290 -297h296q115 0 158 18q50 22 78 80q11 21 53 4q35 -13 35 -26q0 -1 -1 -3z" />
<glyph unicode="3" horiz-adv-x="956" d="M856 426q0 -174 -124 -301q-144 -148 -361 -148q-144 0 -233 49q-79 43 -79 117q0 97 122 97q45 0 92 -55l51 -60q46 -47 100 -47q101 0 154 133q34 87 34 190q0 133 -81 210q-65 63 -164 63q-59 0 -107 -17q-28 0 -28 56q0 51 22 51q154 0 241 84q68 65 68 160 q0 100 -55 156q-39 40 -96 40q-91 0 -168 -83q-30 -33 -56 -72q-14 -21 -49 7q-27 20 -16 38q95 141 182 193q78 46 174 46q133 0 224 -94q85 -87 85 -207q0 -171 -172 -272q240 -71 240 -334z" />
<glyph unicode="4" horiz-adv-x="956" d="M768 156q0 -88 102 -88q15 0 15 -38t-15 -38q-80 8 -208 8q-179 0 -263 -8q-15 0 -15 38t15 38q142 0 142 88v215h-461q-87 0 -87 58q0 49 52 122l289 383q188 249 238 329l94 150q15 17 44 17q85 0 85 -53q0 -9 -4 -17l-617 -815q-9 -12 -9 -22q0 -19 19 -19h357v428 q0 22 112 22q115 0 115 -22v-428h123q15 0 15 -66q0 -67 -15 -67h-123v-215z" />
<glyph unicode="5" horiz-adv-x="956" d="M850 504q0 -194 -117 -337q-150 -183 -399 -183q-147 0 -224 51q-55 36 -55 94q0 53 35 79q31 23 79 23q62 0 106 -53q74 -86 143 -86h4q103 0 175 108q61 91 62 197q0 153 -105 237q-84 68 -210 68q-65 0 -137 -20q-16 -5 -27 -5q-36 0 -32 34q43 278 96 551 q10 55 69 55h502q6 0 6 -20q0 -19 -5 -55q-17 -112 -36 -112h-415q-35 0 -37 -14q-23 -93 -32 -191q-1 -16 15 -13q41 6 72 6q232 0 358 -126q109 -109 109 -288z" />
<glyph unicode="6" horiz-adv-x="956" d="M901 406q0 -165 -108 -284q-125 -138 -320 -138q-225 0 -335 187q-75 129 -75 304q0 255 178 502q205 282 521 408q3 1 5 1q14 0 25 -26q7 -17 7 -26q0 -10 -6 -13q-240 -132 -372 -387q-62 -120 -91 -248q59 75 156 102q32 9 63 9q162 0 265 -131q87 -111 87 -260z M682 348q0 101 -59 198q-60 97 -154 97q-91 0 -160 -78q-8 -40 -8 -92q0 -385 197 -385q106 0 155 113q29 65 29 147z" />
<glyph unicode="7" horiz-adv-x="956" d="M406 0q-9 -22 -92 -22q-88 0 -135 25q-5 4 -5 17l549 1121h-297q-115 0 -173 -28q-64 -32 -93 -101q-6 -17 -42 -17q-53 0 -48 23l51 242q8 39 18 48q11 9 37 9h682q56 0 56 -33q0 -9 -5 -21z" />
<glyph unicode="8" horiz-adv-x="956" d="M889 348q0 -158 -121 -261q-123 -103 -291 -103q-171 0 -286 91q-123 97 -123 259q0 179 254 327q-218 133 -218 328q0 145 110 247q105 97 263 97q182 0 284 -98q85 -83 85 -217q0 -180 -211 -302q254 -151 254 -368zM633 979q0 140 -68 209q-45 45 -112 45 q-89 0 -133 -79q-25 -45 -25 -101q0 -136 230 -272q108 62 108 198zM672 281q0 165 -245 315q-130 -75 -130 -244q0 -117 62 -198q59 -78 149 -78q91 0 137 89q27 52 27 116z" />
<glyph unicode="9" horiz-adv-x="956" d="M893 854q0 -306 -236 -571q-177 -199 -442 -324q-3 -1 -6 -1l-32 33q-12 25 -12 38q0 10 7 14q202 113 306 258q85 119 147 326q-48 -48 -130 -77q-44 -15 -79 -15q-166 0 -262 110q-99 114 -99 248q0 189 110 309q120 131 318 131q207 0 319 -166q91 -135 91 -313z M653 852q0 375 -200 375q-107 0 -149 -133q-19 -62 -19 -136q0 -104 54 -191q58 -93 142 -93q101 0 160 59q12 46 12 119z" />
<glyph unicode=":" horiz-adv-x="593" d="M483 703q0 -66 -42.5 -103t-105 -37t-106 41.5t-43.5 100.5t39.5 103t111 44t109 -45.5t37.5 -103.5zM483 113q0 -66 -42.5 -103t-105 -37t-106 41.5t-43.5 100.5t39.5 103t110.5 44t109 -45.5t38 -103.5z" />
<glyph unicode=";" horiz-adv-x="593" d="M527 49q0 -137 -95 -251.5t-213 -170.5q-8 -4 -15 -4q-13 0 -21 13q-13 20 0 34q137 162 137 266q0 21 -33 32t-77 57.5t-44 106.5t48 98t115.5 38t132.5 -61.5t65 -157.5zM455 706q0 -61 -42.5 -102t-104.5 -41t-107 41.5t-45 104t41.5 105t110 42.5t108 -44.5 t39.5 -105.5z" />
<glyph unicode="&#x3c;" horiz-adv-x="1024" d="M344 422l604 -260v-185l-870 379v129l870 381v-184z" />
<glyph unicode="=" horiz-adv-x="999" d="M897 575h-829v142h829v-142zM897 268h-829v142h829v-142z" />
<glyph unicode="&#x3e;" horiz-adv-x="1024" d="M946 356l-870 -379v185l604 260l-604 260v184l870 -381v-129z" />
<glyph unicode="?" horiz-adv-x="751" d="M694 936q0 -178 -102 -229l-166 -82q-72 -36 -72 -58v-10q0 -50 17 -117q-3 -25 -53 -25q-17 0 -21 7q-80 148 -80 228q0 36 14 69t39.5 54t63.5 40l104 53q125 64 125 113q0 58 -42.5 98t-162.5 50l-79 6q-31 2 -68 35.5t-37 90.5q0 44 36 73.5t85 29.5 q94 0 181.5 -60.5t152.5 -159t65 -206.5zM492 116q0 -63 -44.5 -102t-111.5 -39t-112.5 43.5t-45.5 105t41 108.5t117.5 47t116 -48t39.5 -115z" />
<glyph unicode="@" horiz-adv-x="1597" d="M1198 109q12 -23 -4 -33q-177 -109 -412 -109q-240 0 -426 115q-284 174 -284 520q0 297 189 508q245 274 640 274q280 0 454 -156q171 -153 171 -380q0 -174 -115 -309q-158 -187 -436 -187q-102 0 -130 37q-14 19 -14 47q0 27 19 82l-10 6q-151 -166 -250 -166 q-113 0 -113 136q0 116 79 258q86 155 205 223q69 39 138 39q62 0 92 -31l21 51q8 21 37 21q16 0 37 -6q49 -14 42 -39l-141 -478q-9 -31 -9 -61q0 -41 23 -41q162 0 273 108q123 122 123 302q0 186 -130 313q-148 145 -384 145q-252 0 -425 -173q-204 -204 -204 -521 q0 -181 96 -322q155 -227 494 -227q158 0 323 72q19 7 31 -18zM967 920q-21 47 -84 47q-80 0 -159 -145q-95 -172 -95 -304q0 -69 30 -69q54 0 166 131q62 71 99 192z" />
<glyph unicode="A" horiz-adv-x="1401" d="M1196 202q41 -116 202 -116q15 0 15 -46.5t-15 -46.5q-115 7 -265 7t-275 -7q-15 0 -15 46.5t15 46.5q96 0 96 65q0 21 -10 51l-100 297q-7 22 -34 24h-373q-21 0 -32 -29l-109 -293q-9 -24 -9 -42q0 -73 147 -73q13 0 13 -46.5t-13 -46.5q-83 7 -233 7t-228 -7 q-14 0 -14 46.5t14 46.5q152 0 202 131l370 968q13 30 13 38t-14.5 22t-14.5 23q0 15 33 26t103.5 53t89.5 42q33 0 44 -47.5t53 -164.5zM649 1068q-5 16 -16 16q-10 0 -16 -16l-159 -434q-4 -9 -4 -16q0 -11 21 -11h293q28 0 28 22q0 6 -3 15z" />
<glyph unicode="B" horiz-adv-x="1300" d="M237 202v954q0 109 -172 109q-14 0 -14 46.5t14 46.5q143 -6 239.5 -6t185 3t149.5 3q217 0 331 -92.5t114 -248.5q0 -87 -52 -157.5t-128 -107.5q-19 -11 -19 -18t21 -16q117 -38 195 -134.5t78 -213.5q0 -151 -113 -264t-422 -113q-46 0 -129.5 3.5t-153.5 3.5t-286 -7 q-15 0 -15 46.5t15 46.5q83 0 122.5 36.5t39.5 79.5zM481 797q0 -20 18 -24t53 -4q145 0 216.5 67.5t71.5 177.5q0 130 -86.5 198t-254.5 68q-18 0 -18 -18v-465zM481 250q0 -175 150 -175q278 10 278 295q0 139 -93 220.5t-310 83.5q-25 0 -25 -34v-390z" />
<glyph unicode="C" horiz-adv-x="1349" d="M55 647q0 315 204.5 526.5t535.5 211.5q130 0 338 -43q56 -11 107 -13q33 -90 40 -326q0 -18 -46.5 -21t-47.5 13q-10 110 -65.5 177t-140 96t-191.5 29q-207 0 -334 -168t-127 -424q0 -297 140.5 -467.5t316.5 -170.5h2q341 0 438 277q7 19 51 8q44 -10 44 -30 q0 -18 -12 -62.5t-30 -91.5q-37 -96 -61 -132q-47 -7 -88 -19q-153 -44 -358 -44q-293 0 -504.5 189.5t-211.5 484.5z" />
<glyph unicode="D" horiz-adv-x="1567" d="M237 202v954q0 109 -172 109q-14 0 -14 46.5t14 46.5q143 -6 239 -6t218.5 3t195.5 3q330 0 549.5 -169t219.5 -463q0 -338 -199 -535.5t-522 -197.5q-64 0 -208.5 3.5t-247.5 3.5t-235 -7q-15 0 -15 46.5t15 46.5q162 0 162 116zM481 273q0 -150 87 -186q39 -16 130 -16 q218 0 367.5 170t149.5 475q0 214 -152.5 389t-426.5 175h-79q-76 0 -76 -79v-928z" />
<glyph unicode="E" horiz-adv-x="1250" d="M237 202v954q0 109 -172 109q-14 0 -14 46.5t14 46.5q143 -6 299 -6t371 3t337 3q57 0 57 -51v-306q0 -17 -50.5 -17t-50.5 17q0 130 -99 205q-61 47 -125 49l-296 10q-27 1 -27 -40v-509q0 -29 29 -29h135q123 0 123 91v99q0 14 52.5 14t52.5 -14q-7 -67 -7 -231t7 -227 q0 -15 -52.5 -15t-52.5 15v86q0 89 -123 89h-135q-29 0 -29 -31v-341q0 -77 75 -116q39 -20 81 -20l223 5q157 2 205 137q18 50 18 116q0 17 51 17t51 -17v-287q0 -64 -117 -64q-187 0 -360 3.5t-335.5 3.5t-297.5 -7q-15 0 -15 46.5t15 46.5q162 0 162 116z" />
<glyph unicode="F" horiz-adv-x="1191" d="M237 202v954q0 109 -172 109q-14 0 -14 46.5t14 46.5q143 -6 288 -6t367 3t349 3q60 0 60 -51v-306q0 -17 -50.5 -17t-50.5 17q0 112 -71.5 181t-152.5 73q-215 10 -296 10q-27 0 -27 -40v-470q0 -30 29 -30h135q93 0 93 90v138q0 14 52 14t52 -14q-7 -67 -7 -275.5 t7 -278.5q0 -13 -52 -13t-52 13v144q0 89 -93 89h-135q-29 0 -29 -30v-400q0 -116 153 -116q14 0 14 -46.5t-14 -46.5q-94 7 -274 7t-285 -7q-15 0 -15 46.5t15 46.5q162 0 162 116z" />
<glyph unicode="G" horiz-adv-x="1443" d="M832 523q0 46 14 46q60 -6 317 -6q168 0 228 6q13 0 13 -45q0 -46 -13 -46q-108 0 -108 -77v-241q0 -45 42 -45q15 0 15 -39q0 -41 -15 -41q-50 0 -196 -24q-226 -38 -358 -38h-10q-257 0 -453 153q-253 198 -253 521q0 266 152 463q212 275 588 275q131 0 317 -38 q70 -18 128 -18q28 -59 38 -275l2 -51q0 -18 -43 -22q-48 -2 -51 14q-19 209 -211 275q-79 27 -186 27q-207 0 -334 -168t-127 -424q0 -324 171 -503q129 -135 286 -135q111 0 192 26q62 24 62 66v242q0 77 -114 77h-79q-14 0 -14 45z" />
<glyph unicode="H" horiz-adv-x="1686" d="M1432 202q0 -116 159 -116q14 0 14 -46q0 -47 -14 -47q-126 7 -280 7q-152 0 -285 -7q-15 0 -15 46q0 47 15 47q162 0 162 116v417q0 34 -34 34h-638q-35 0 -35 -34v-417q0 -116 159 -116q14 0 14 -46q0 -47 -14 -47q-133 7 -279 7q-160 0 -286 -7q-15 0 -15 46 q0 47 15 47q162 0 162 116v952q0 116 -161 116q-14 0 -14 46q0 47 14 47q48 -5 279 -5q241 0 289 5q14 0 14 -46q0 -47 -14 -47q-163 0 -163 -116v-372q0 -35 35 -35h638q34 0 34 35v372q0 116 -160 116q-15 0 -15 46q0 47 15 47q45 -5 279 -5q241 0 288 5q15 0 15 -46 q0 -47 -15 -47q-163 0 -163 -116v-952z" />
<glyph unicode="I" horiz-adv-x="734" d="M481 202q0 -116 159 -116q14 0 14 -46q0 -47 -14 -47q-133 7 -279 7q-160 0 -286 -7q-15 0 -15 46q0 47 15 47q162 0 162 116v952q0 116 -161 116q-14 0 -14 46q0 47 14 47q48 -5 279 -5q241 0 289 5q14 0 14 -46q0 -47 -14 -47q-163 0 -163 -116v-952z" />
<glyph unicode="J" horiz-adv-x="718" d="M419 -151q-89 -148 -215 -220q-86 -48 -171 -48q-51 0 -102 33q-63 41 -63 109q0 71 65 103q33 17 76 17q74 0 128 -58q25 -27 38 -62q33 24 56 82q26 88 26 448v901q0 116 -171 116q-14 0 -14 46q0 47 14 47q48 -5 296 -5q244 0 292 5q14 0 14 -46q0 -47 -14 -47 q-172 0 -172 -116v-525q0 -107 -10 -434q-1 -227 -73 -346z" />
<glyph unicode="K" horiz-adv-x="1382" d="M1144 191q78 -91 179 -102q22 -3 60 -3q14 0 14 -46q0 -47 -14 -47q-133 7 -306 7q-133 0 -273 -7q-14 0 -14 46q0 47 14 47q84 0 85 39q0 26 -41 77l-259 323q-63 72 -86 72q-22 0 -22 -28v-367q0 -116 155 -116q14 0 14 -46q0 -47 -14 -47q-133 7 -275 7 q-160 0 -286 -7q-15 0 -15 46q0 47 15 47q162 0 162 116v952q0 116 -172 116q-14 0 -14 46q0 47 14 47q47 -5 279 -5q250 0 298 5q14 0 14 -46q0 -47 -14 -47q-161 0 -161 -116v-357q0 -27 16 -27q28 0 76 55l277 331q53 63 53 89q-9 24 -61 25q-13 0 -13 46q0 47 13 47 q50 -5 197 -5q151 0 199 5q14 0 14 -46q0 -47 -14 -47q-88 0 -132 -20q-43 -20 -82 -65l-337 -392q-16 -19 -16 -35q0 -17 15 -34z" />
<glyph unicode="L" horiz-adv-x="1359" d="M481 250q0 -110 67 -153q34 -19 75 -19l332 13q75 3 142 82q82 105 82 219q0 18 47 18q54 0 54 -18v-335q0 -42 -15 -52q-9 -12 -102 -12l-724 7h-84q-72 0 -280 -7q-15 0 -15 46q0 47 15 47q162 0 162 126v942q0 116 -172 116q-14 0 -14 46q0 47 14 47q47 -5 288 -5 q235 0 283 5q14 0 14 -46q0 -47 -14 -47q-155 0 -155 -116v-904z" />
<glyph unicode="M" horiz-adv-x="1815" d="M1608 208q2 -122 162 -122q15 0 15 -46q0 -47 -15 -47q-126 7 -280 7q-130 0 -269 -7q-15 0 -15 46q0 47 15 47q153 0 153 122l-5 669q0 21 -7 21q-9 0 -17 -18l-451 -876q-12 -23 -30 -23q-22 0 -31 23l-459 964q-10 21 -16 21q-7 0 -10 -26l-50 -757v-31q0 -89 170 -89 q14 0 14 -46q0 -47 -14 -47q-133 7 -229 7q-137 0 -199 -7q-14 -2 -14 46q0 47 14 47q147 0 153 124l61 906v45q0 109 -174 109q-13 0 -13 46q0 47 13 47q82 -5 174 -5h97q66 0 117 -88l440 -913q10 -21 23 -21q15 0 28 23l468 917q42 82 111 82h53q104 0 164 5q15 0 15 -46 q0 -47 -15 -47q-105 0 -136 -47q-21 -37 -21 -89v-9z" />
<glyph unicode="N" horiz-adv-x="1482" d="M1288 76q0 -97 -31 -97q-26 0 -74 57l-822 978q-13 16 -20 16q-13 0 -13 -22v-806q0 -116 151 -116q15 0 15 -46q0 -48 -15 -47q-92 7 -200 7q-102 0 -214 -7q-14 -2 -14 46q0 47 14 47q159 0 159 116v954q0 114 -173 114q-13 0 -13 46q0 47 13 47q50 -5 177 -5 q84 0 98 -2q59 -9 100 -57l711 -867q10 -14 24 -14q24 0 24 31v703q0 118 -153 118q-15 0 -15 46q0 47 15 47q102 -5 198 -5q100 0 193 5q14 0 14 -46q0 -47 -14 -47q-135 0 -135 -118v-1076z" />
<glyph unicode="O" horiz-adv-x="1524" d="M1430 663q0 -220 -145 -417q-202 -273 -544 -273q-225 0 -405 124q-281 194 -281 570q0 251 176 474q195 244 514 244q246 0 426 -155q259 -224 259 -567zM1157 649q0 255 -124 438q-142 210 -293 210h-2q-152 0 -265 -130q-145 -166 -145 -443q0 -304 153 -495 q129 -162 274 -162q265 0 358 279q44 130 44 303z" />
<glyph unicode="P" horiz-adv-x="1214" d="M481 202q0 -116 168 -116q15 0 15 -46q0 -47 -15 -47q-126 7 -288 7q-148 0 -281 -7q-13 0 -13 46q0 47 13 47q157 0 157 116v954q0 109 -170 109q-14 0 -14 46q0 47 14 47q143 -6 288 -6l304 6q218 0 363 -100q157 -110 157 -290q0 -191 -171 -291q-139 -81 -355 -81 q-90 0 -137 4q-35 2 -35 -31v-367zM924 968q0 120 -82 206q-99 104 -279 104q-65 0 -77 -14q-4 -6 -5 -15v-533q0 -31 31 -36q36 -4 80 -4q249 0 312 172q20 53 20 120z" />
<glyph unicode="Q" horiz-adv-x="1489" d="M1430 659q0 -216 -147 -422q-70 -99 -191 -178q-23 -15 -23 -26q0 -12 23 -29q258 -170 541 -252q1 0 31 -9q21 -6 21 -34q0 -10 -3 -24q-13 -44 -36 -44h-5q-402 76 -988 300l-154 59q-32 12 -155 86q-131 81 -210 236q-79 154 -79 339q0 263 178 478q204 246 512 246 q260 0 426 -155q259 -239 259 -571zM1157 642q0 252 -120 445q-130 210 -297 210q-197 0 -313 -193q-99 -162 -99 -388q0 -308 154 -496q126 -155 274 -155q253 0 350 265q51 138 51 312z" />
<glyph unicode="R" horiz-adv-x="1420" d="M1213 968q0 -251 -283 -336q-18 -4 -18 -19q0 -10 12 -28q131 -224 325 -423q95 -101 180 -116q26 -5 26 -29q0 -38 -24 -38l-91 -3q-155 1 -238 55q-142 88 -263 260l-130 187q-63 75 -79 88q-24 21 -63 21h-67q-19 0 -19 -19v-366q0 -116 155 -116q14 0 14 -46 q0 -47 -14 -47q-133 7 -275 7q-151 0 -286 -7q-15 0 -15 46q0 47 15 47q162 0 162 116v954q0 109 -172 109q-14 0 -14 46q0 47 14 47q143 -6 290 -6l298 6h6q337 0 481 -175q73 -90 73 -215zM959 968q0 136 -118 229q-107 81 -278 81q-62 0 -72 -9q-10 -8 -10 -33v-523 q0 -33 25 -39q47 -9 86 -9q264 0 340 167q27 60 27 136z" />
<glyph unicode="S" horiz-adv-x="1077" d="M980 403q0 -181 -109 -300q-118 -130 -317 -130q-144 0 -246 36l-144 62q-53 160 -53 313q0 24 46 26q48 3 51 -18q10 -116 90 -207q105 -118 273 -118q72 0 129 57q71 70 71 184q0 206 -270 275q-397 101 -397 450q0 142 129 258q105 94 292 94q120 0 213 -21 q56 -12 62 -12l36 2h1q37 -118 49 -271q2 -26 -44 -33q-46 -6 -51 12q-30 117 -98 178t-187 61q-95 0 -154 -84q-40 -56 -40 -142q0 -181 247 -241q421 -102 421 -431z" />
<glyph unicode="T" horiz-adv-x="1300" d="M773 202q0 -116 171 -116q13 0 13 -46.5t-13 -46.5q-85 7 -292.5 7t-302.5 -7q-14 0 -14 46.5t14 46.5q180 0 180 116v1034q0 29 -27 29h-143q-86 0 -154.5 -72.5t-68.5 -184.5q0 -16 -50.5 -16t-50.5 16v299q0 34 14 41q24 10 98 10q188 -6 496 -6t520 6q84 0 96 -16 q8 -11 8 -35v-299q0 -16 -51 -16t-51 16q0 129 -78 193t-153 64h-128q-33 0 -33 -29v-1034z" />
<glyph unicode="U" horiz-adv-x="1512" d="M1322 880q0 -276 -12 -416q-17 -245 -154 -373q-126 -118 -383 -118q-156 0 -268 42q-157 61 -219 185q-52 107 -62 345v609q0 116 -157 116q-14 0 -14 46q0 47 14 47q147 -5 281 -5q146 0 294 5q14 0 14 -46q0 -47 -14 -47q-174 0 -174 -116v-468l11 -281 q3 -124 55 -203q90 -135 276 -135q173 0 277 106q90 93 90 323v658q0 116 -157 116q-14 0 -14 46q0 47 14 47q138 -5 229 -5q92 0 227 5q15 0 15 -46q0 -47 -15 -47q-154 0 -154 -116v-274z" />
<glyph unicode="V" horiz-adv-x="1358" d="M698 7q-21 -45 -51 -45q-34 0 -51 45l-423 1147q-41 116 -142 116q-15 0 -15 46q0 47 15 47q45 -5 231 -5q208 0 256 5q13 0 13 -46q0 -47 -13 -47q-124 0 -124 -64q0 -22 11 -52l282 -775q9 -20 25 -20q17 0 26 23l294 764q11 30 11 53q-5 71 -99 71q-15 0 -15 46 q0 47 15 47q48 -5 206 -5q166 0 214 5q14 0 14 -46q0 -47 -14 -47q-148 0 -183 -85z" />
<glyph unicode="W" horiz-adv-x="2012" d="M1859 1185l-537 -1178q-23 -45 -50 -45q-26 0 -57 63l-205 456q-8 18 -15 18q-8 0 -17 -20l-216 -472q-21 -45 -50 -45q-28 0 -57 63l-506 1129q-51 116 -143 116q-14 0 -14 46q0 47 14 47q48 -5 216 -5q186 0 234 5q15 0 15 -46q0 -47 -15 -47q-69 0 -70 -45 q4 -40 19 -71l351 -780q8 -17 22 -17q12 0 20 17l121 266q6 15 6 22q0 9 -6 24l-235 522q-28 62 -82 62q-14 0 -14 46q0 47 14 47q48 -5 208 -5q156 0 204 5q14 0 14 -46q0 -47 -14 -47q-70 0 -70 -41q0 -32 20 -75l75 -163q8 -18 18 -18q13 0 24 24l69 149q26 56 26 85 q0 39 -53 39q-14 0 -14 46q0 47 14 47q50 -5 176 -5q135 0 183 5q15 0 15 -46q0 -47 -15 -47q-145 0 -183 -85l-158 -347q-11 -24 -11 -40q0 -12 5 -23l181 -399q8 -18 23 -18q12 0 19 16l352 772q21 46 21 75q-1 49 -65 49q-15 0 -15 46q0 47 15 47q45 -5 187 -5 q141 0 189 5q14 0 14 -46q0 -47 -14 -47q-145 0 -183 -85z" />
<glyph unicode="X" horiz-adv-x="1382" d="M1152 202q81 -116 217 -116q15 0 15 -46q0 -47 -15 -47q-79 7 -274 7q-175 0 -270 -7q-14 0 -14 46q0 47 14 47q108 0 108 47q0 29 -35 75l-243 319q-11 15 -23 15q-14 0 -25 -15l-171 -227q-68 -91 -68 -147q0 -67 100 -67q14 0 14 -46q0 -47 -14 -47q-78 7 -231 7 q-228 0 -270 -7q-13 0 -13 46q0 47 13 47q151 0 222 86l365 459q13 16 13 33q0 14 -13 31l-356 499q-54 76 -177 76q-14 0 -14 46q0 47 14 47q47 -5 291 -5q242 0 290 5q14 0 14 -46q0 -47 -14 -47q-124 0 -124 -55q0 -23 27 -61l198 -275q10 -14 19 -14q12 0 23 14l216 267 q34 42 34 71q0 53 -82 53q-14 0 -14 46q0 47 14 47q47 -5 222 -5q173 0 221 5q15 0 15 -46q0 -47 -15 -47q-117 0 -210 -85q-33 -30 -84 -93l-252 -310q-17 -21 -17 -37q0 -14 11 -32z" />
<glyph unicode="Y" horiz-adv-x="1325" d="M758 202q0 -116 148 -116q13 0 13 -46q0 -47 -13 -47q-65 7 -266 7q-200 0 -273 -7q-14 0 -14 46q0 47 14 47q147 0 147 116v292q0 68 -10 94q-8 22 -55 96l-298 470q-52 82 -101 104q-28 12 -63 12q-15 0 -15 46q0 47 15 47q47 -5 261 -5q216 0 266 5q14 0 14 -46 q0 -47 -14 -47q-110 0 -110 -53q0 -31 20 -63l254 -405q11 -17 20 -17q10 0 22 19l268 395q23 34 23 60q0 64 -105 64q-15 0 -15 46q0 47 15 47q45 -5 221 -5q185 0 233 5q14 0 14 -46q0 -47 -14 -47q-108 0 -179 -68l-33 -35l-337 -481q-38 -56 -45 -78q-8 -28 -8 -109 v-297z" />
<glyph unicode="Z" horiz-adv-x="1317" d="M1270 19q0 -48 -16 -48h-5q-25 0 -74 8q-131 21 -581 21h-448q-70 0 -70 49q0 26 17 48l871 1139q10 13 10 21q0 17 -40 17h-513q-44 0 -71 -27q-39 -31 -97 -172q-31 -75 -33 -101q-1 -11 -26 -12q-16 0 -32 5q-24 8 -25 21q31 235 31 332q0 48 41 48q3 0 60 -9 q48 -7 61 -7h507l382 6h4q61 0 61 -32q0 -24 -25 -58l-833 -1144q-7 -10 -7 -17q0 -21 33 -21q411 0 593 13q53 4 138 150q40 69 51 106q2 7 19 7q34 0 55 -17q7 -6 6 -15q-44 -172 -44 -311z" />
<glyph unicode="[" horiz-adv-x="798" d="M754 -354h-437q-22 0 -22 22v1843q0 19 20 19h439q20 0 20 -48t-20 -48h-226q-20 0 -20 -23v-1640q0 -29 14 -29h232q20 0 20 -48t-20 -48z" />
<glyph unicode="\" horiz-adv-x="716" d="M731 31q1 -3 1 -6q0 -21 -68 -44q-27 -9 -47 -9q-19 0 -23 10l-608 1443q-2 4 -2 8q0 24 59 49q30 12 53 12q24 0 29 -13z" />
<glyph unicode="]" horiz-adv-x="798" d="M504 -332q0 -22 -23 -22h-434q-20 0 -20 48t20 48h232q14 0 14 25v1644q0 23 -19 23h-227q-20 0 -20 48t20 48h436q21 0 21 -19v-1843z" />
<glyph unicode="^" horiz-adv-x="1095" d="M1044 535h-219l-276 577l-279 -577h-221l422 837h154z" />
<glyph unicode="_" horiz-adv-x="1024" d="M1024 -266h-1024v121h1024v-121z" />
<glyph unicode="`" horiz-adv-x="569" d="M461 1114q8 -22 8 -40q0 -54 -42 -54q-35 0 -69 49l-169 249q-5 8 -5 16q0 32 58 63q42 23 74 23q24 0 28 -14z" />
<glyph unicode="a" horiz-adv-x="860" d="M866 88q-58 -113 -190 -113q-92 0 -162 82q-14 19 -21 19q-13 0 -28 -17q-82 -82 -199 -82q-125 0 -177 85q-26 43 -26 100q0 121 212 231l151 72q35 20 35 47v190q0 72 -105 72q-79 0 -116 -51q-9 -14 -10 -75q0 -35 -5 -52q-25 -88 -92 -88q-90 0 -90 78q0 67 56 144 q31 44 65 65q120 75 264 75q113 0 195 -56q65 -44 67 -107v-508q0 -114 67 -114h4q29 0 68 36q8 8 28 -9q10 -10 10 -18q0 -3 -1 -6zM461 193v182q0 23 -14 23q-7 0 -13 -3q-141 -71 -141 -190q0 -117 72 -117q96 0 96 105z" />
<glyph unicode="b" horiz-adv-x="1050" d="M981 440q0 -207 -113 -336q-110 -127 -331 -127q-58 0 -130 30q-56 24 -104 24q-17 0 -55 -34l-19 -15q-4 -3 -13 -3q-31 0 -74 33q-19 15 -19 23q6 30 6 244v882q0 125 -94 125q-16 0 -16 36q0 38 16 38q50 0 186 66q68 33 88 51q13 10 29 10q26 0 29 -25l-9 -176v-446 q0 -28 16 -28q9 0 19 7q73 51 168 51q176 0 295 -119q125 -125 125 -311zM727 428q0 158 -67 255q-59 87 -158 87q-71 0 -113 -43q-31 -31 -31 -80v-350q0 -116 73 -186q56 -54 134 -54q162 0 162 371z" />
<glyph unicode="c" horiz-adv-x="880" d="M709 620q-37 0 -56 29l-39 66q-39 59 -112 59q-81 0 -141 -93q-66 -102 -66 -245q0 -133 88 -227q79 -84 180 -84q109 0 187 55q17 12 46 -30q16 -26 16 -40q0 -10 -7 -14l-82 -53q-116 -66 -266 -66q-140 0 -251 99q-140 123 -140 311q0 170 106 307q136 176 350 176 q135 0 223 -45q39 -20 54 -45q6 -16 6 -40q0 -52 -31 -85q-35 -35 -65 -35z" />
<glyph unicode="d" horiz-adv-x="1036" d="M1022 31q-29 -12 -156 -35q-102 -26 -131 -31h-12q-10 0 -10 45v29q0 22 -11 22q-12 0 -28 -14q-94 -70 -195 -70q-244 0 -355 174q-71 111 -71 267q0 177 122 302q147 150 392 150q49 0 80 -4q27 -3 27 23v272q0 125 -92 125q-16 0 -16 36q0 38 16 38q50 0 185 67 q65 32 85 50q13 10 27 10q30 0 30 -33q-6 -70 -6 -168v-1030q0 -90 10 -117q14 -40 53 -40q13 0 33 5q16 4 27 -31q3 -15 3 -24q0 -15 -7 -18zM674 141v553q0 44 -4 52q-5 10 -17 18q-47 29 -112 29q-134 0 -196 -144q-38 -88 -38 -205q0 -193 79 -302q59 -81 144 -81 q86 0 130 52q14 17 14 28z" />
<glyph unicode="e" horiz-adv-x="876" d="M809 612q0 -75 -90 -75h-385q-37 0 -37 -27q0 -237 112 -334q62 -53 152 -53q81 0 166 55q20 11 49 -26q26 -35 15 -46q-48 -49 -134 -88q-88 -41 -202 -41q-135 0 -243 109q-144 144 -144 350q0 165 107 291q122 143 286 143q178 0 283 -119q65 -89 65 -139zM309 653 q0 -26 37 -26h203q37 0 37 24q0 67 -55 112q-34 28 -68 28q-64 0 -113 -43q-41 -40 -41 -95z" />
<glyph unicode="f" horiz-adv-x="583" d="M609 798q0 -53 -15 -53h-164q-37 0 -37 -36v-573q0 -68 133 -68q16 0 16 -37q0 -39 -16 -39q-80 8 -239 8q-148 0 -232 -8q-15 0 -15 38t15 38q109 0 109 68v573q0 36 -37 36h-55q-16 0 -16 36q0 38 16 38q50 0 75 42q17 29 17 71q0 146 68 279q33 65 77 110 q158 166 365 166q123 0 185 -59q38 -36 38 -85q0 -55 -53 -96q-31 -24 -60 -24q-101 0 -147 89q-29 58 -78 62q-58 0 -96 -53q-70 -96 -70 -273v-161q0 -37 37 -37h164q15 0 15 -52z" />
<glyph unicode="g" horiz-adv-x="948" d="M981 -141q0 -162 -147 -280q-173 -138 -422 -138q-300 0 -372 148q-20 41 -20 92q0 81 103 166q34 28 80 51q14 7 14 14q0 5 -16 12q-133 56 -133 174q0 75 145 138q16 7 16 13q0 5 -18 17q-154 97 -154 262q0 141 109 240q112 102 276 102q111 0 222 -43q65 -28 91 -30 h193q16 0 16 -55q0 -60 -16 -60h-92q-31 0 -31 -29v-78q0 -169 -119 -270q-104 -88 -276 -88q-50 0 -106 7q-12 1 -23 -7q-37 -30 -37 -57q0 -32 40 -52q33 -16 87 -16h254q129 0 192 -21q144 -47 144 -212zM592 522q0 177 -71 242q-31 29 -75 29q-72 0 -119 -86 q-38 -70 -38 -158q0 -121 59 -196q46 -58 113 -58q89 0 119 119q12 48 12 108zM811 -242q0 131 -236 131h-212q-21 0 -41 -14q-63 -46 -64 -123q0 -75 60 -130q68 -62 186 -62q251 0 298 140q9 27 9 58z" />
<glyph unicode="h" horiz-adv-x="1093" d="M1079 -8q-80 8 -221 8q-149 0 -229 -8q-16 0 -16 37q0 39 16 39q104 0 104 64v423q0 75 -45 139q-49 68 -123 68q-90 0 -143 -63q-29 -35 -29 -72v-484q0 -75 103 -75q15 0 15 -38t-15 -38q-84 8 -209 8q-152 0 -236 -8q-15 0 -15 38q0 37 15 38q113 0 113 69v1024 q0 125 -92 125q-16 0 -16 36q0 38 16 38q50 0 185 67q65 32 85 50q13 10 29 10q27 0 28 -27q-2 -85 -6 -174v-465q0 -23 11 -23q8 0 22 11q82 61 211 61q180 0 270 -136q56 -84 56 -177v-414q7 -75 116 -75q16 0 16 -37q0 -39 -16 -39z" />
<glyph unicode="i" horiz-adv-x="524" d="M496 -8q-84 8 -209 8q-144 0 -228 -8q-15 0 -15 38t15 38q105 0 105 75v414q0 125 -92 125q-16 0 -16 36q0 38 16 38q50 0 187 68q63 31 83 48q13 11 31 11q28 0 26 -27q-6 -88 -6 -174v-539q0 -75 103 -75q15 0 15 -38q0 -37 -15 -38zM401 1185q0 -70 -59 -111 q-38 -26 -86 -26q-75 0 -117 58q-26 35 -26 79q0 70 57 111q38 28 86 28q78 0 118 -58q27 -39 27 -81z" />
<glyph unicode="j" horiz-adv-x="499" d="M373 1187q0 -71 -59 -112q-39 -27 -87 -27q-74 0 -117 56q-28 37 -28 83q0 68 57 110q39 29 88 29q73 0 117 -57q29 -38 29 -82zM375 856q-8 -92 -8 -174v-543q0 -186 -11 -268q-24 -175 -108 -287q-76 -103 -208 -131q-37 -8 -72 -8q-60 0 -117 43q-44 35 -44 86 q0 57 51 87q26 15 58 15q48 0 80 -52q44 -73 80 -73q46 1 56 91q5 43 5 129v786q0 125 -92 125q-15 0 -15 37t15 37q51 0 189 68q63 31 83 48q14 11 29 11q28 0 29 -27z" />
<glyph unicode="k" horiz-adv-x="1073" d="M1079 -8q-80 8 -229 8q-150 0 -234 -8q-15 0 -15 38t15 38q74 0 75 29q0 16 -27 48l-195 224q-25 30 -59 30q-17 0 -17 -34v-222q0 -75 109 -75q15 0 15 -38t-15 -38q-84 8 -215 8q-154 0 -238 -8q-15 0 -15 38t15 38q115 0 115 71v1022q-9 118 -92 125q-16 0 -16 36 q0 38 16 38q50 0 185 67q65 32 85 50q13 10 29 10q27 0 28 -27q-6 -87 -6 -173v-759q0 -36 21 -36q44 0 80 38l153 170q32 36 32 54q0 30 -83 30q-16 0 -16 35q0 37 16 37q60 -6 217 -6q140 0 203 6q15 0 15 -36t-15 -36q-105 0 -182 -71l-209 -189q-11 -10 -11 -19 q0 -14 11 -26l329 -358q47 -53 125 -53q16 0 16 -37q0 -39 -16 -39z" />
<glyph unicode="l" horiz-adv-x="524" d="M496 -8q-84 8 -209 8q-144 0 -228 -8q-15 0 -15 38t15 38q105 0 105 67v1026q0 125 -92 125q-16 0 -16 36q0 38 16 38q50 0 185 67q65 32 85 50q13 10 27 10q30 0 30 -33q-6 -75 -6 -168v-1143q0 -75 103 -75q15 0 15 -38t-15 -38z" />
<glyph unicode="m" horiz-adv-x="1630" d="M1587 -8q-80 8 -221 8q-135 0 -215 -8q-16 0 -16 38t16 38q100 0 100 67v475q0 152 -151 152q-69 0 -119 -62q-45 -56 -45 -131v-429q0 -72 104 -72q16 0 16 -38t-16 -38q-80 8 -219 8q-131 0 -215 -8q-15 0 -15 38t15 38q101 0 101 64v433q0 134 -45 175q-26 22 -97 22 q-52 0 -97 -32q-75 -58 -75 -126v-471q0 -65 99 -65q15 0 15 -38t-15 -38q-84 8 -220 8q-137 0 -221 -8q-15 0 -15 38t15 38q113 0 113 69v414q0 131 -92 131q-16 0 -16 36q0 38 16 38q50 0 187 68q63 31 83 48q13 11 29 11q28 0 28 -24l-6 -71q-1 -19 9 -19q9 0 18 9 q81 92 219 92q141 0 215 -127q9 -16 17 -16q10 0 26 18q79 84 186 113q44 12 84 12q128 0 205 -69q109 -96 109 -248v-413q0 -72 106 -72q16 0 16 -38t-16 -38z" />
<glyph unicode="n" horiz-adv-x="1087" d="M1069 -8q-107 8 -211 8q-105 0 -225 -8h-1q-14 0 -14 38t15 38q101 0 101 62v407q0 149 -59 200q-29 25 -96 25q-62 0 -119 -50q-67 -58 -67 -120v-449q0 -75 99 -75q15 0 15 -38t-15 -38q-84 8 -216 8q-135 0 -219 -8q-15 0 -15 38t15 38q107 0 107 75v406 q0 133 -92 133q-16 0 -16 36q0 38 16 38q50 0 187 68q63 31 83 48q13 11 27 11q29 0 30 -27l-6 -68q0 -19 9 -19t18 9q42 55 138 81q41 11 95 11q189 0 274 -185q36 -73 36 -220v-329q0 -68 106 -68q16 0 16 -38t-16 -38z" />
<glyph unicode="o" horiz-adv-x="1032" d="M969 426q0 -209 -123 -331q-119 -118 -328 -118q-185 0 -313 122q-139 131 -139 325q0 170 110 296q132 150 340 150q218 0 351 -158q102 -122 102 -286zM715 420q0 184 -71 292q-53 81 -126 81q-82 0 -139 -104q-60 -109 -60 -269q0 -185 73 -287q52 -72 124 -72 q94 0 150 114q49 99 49 245z" />
<glyph unicode="p" horiz-adv-x="1009" d="M958 475q0 -349 -200 -452q-89 -46 -231 -46q-91 0 -128 19q-8 4 -14 4q-18 0 -18 -27v-370q0 -86 141 -86q15 0 15 -38t-15 -38q-84 8 -252 8q-143 0 -223 -8q-16 0 -16 38t16 38q103 0 104 84v948q0 133 -92 133q-15 0 -15 37t15 37q55 0 190 70q58 30 78 46 q14 11 27 11q27 0 31 -21l-4 -47q-1 -24 13 -24q12 0 28 18q28 33 84 52q30 9 68 9q150 0 241 -66q157 -114 157 -329zM725 401q0 226 -84 318q-52 51 -122 51q-85 0 -140 -84q-12 -18 -12 -70v-438q7 -118 177 -119q88 0 144 140q37 92 37 202z" />
<glyph unicode="q" horiz-adv-x="980" d="M1016 -559q-80 8 -235 8q-156 0 -240 -8q-15 0 -15 38t15 38q123 0 123 86v391q-61 -17 -150 -17q-448 0 -448 504q0 172 115 284q108 105 286 105q153 0 244 -52q7 -4 14 -7l109 53q10 5 19 5q25 0 47 -33q24 -34 8 -48q-15 -14 -15 -172v-1015q0 -84 123 -84 q16 0 16 -38t-16 -38zM664 180v463q0 23 -8 35q-67 92 -148 92q-209 0 -209 -350q0 -154 51 -260q48 -101 137 -101q120 0 159 58q18 26 18 63z" />
<glyph unicode="r" horiz-adv-x="755" d="M756 752q0 -59 -42 -95q-27 -24 -61 -24q-51 0 -102 51q-23 23 -49 23q-42 0 -77 -58q-32 -55 -32 -127v-379q0 -75 103 -75q15 0 15 -38t-15 -38q-84 8 -209 8q-144 0 -228 -8q-15 0 -15 38t15 38q105 0 105 75v406q0 133 -92 133q-16 0 -16 36q0 38 16 38q51 0 190 70 q60 30 80 46q13 11 29 11q24 0 28 -20l-6 -75q0 -23 13 -23t36 26q68 79 168 79q70 0 115 -44q31 -31 31 -74z" />
<glyph unicode="s" horiz-adv-x="749" d="M346 -23q-146 0 -240 60q-28 67 -28 221q0 19 34 19q38 0 42 -17q4 -54 67 -127q65 -76 158 -76q49 0 90 42q33 34 33 75q0 120 -172 166q-177 47 -237 150q-30 52 -30 122q0 114 100 189q93 69 224 69q123 0 217 -36q39 -105 39 -191q0 -19 -30 -19q-32 0 -35 11 q-18 51 -80 113q-41 40 -125 40q-61 0 -99 -50q-23 -31 -22 -64q0 -100 168 -142q160 -40 224 -117q50 -61 50 -157q0 -133 -111 -214q-90 -67 -229 -67h-8z" />
<glyph unicode="t" horiz-adv-x="671" d="M686 90q-108 -113 -274 -113q-219 2 -252 183q-6 33 -6 73v481q0 31 -31 31h-55q-16 0 -16 36q0 38 16 38q61 0 133 59q69 57 92 126q2 6 13 6t29 -5q44 -12 50 -30v-94q0 -31 31 -31h215q15 0 15 -52q0 -53 -15 -53h-215q-31 0 -31 -31v-415q0 -121 34 -159 q27 -31 87 -31q52 0 127 47q11 8 38 -24q18 -22 18 -34q0 -5 -3 -8z" />
<glyph unicode="u" horiz-adv-x="1028" d="M1038 31q-8 -2 -105 -21l-51 -10q-56 -12 -114 -31q-13 -4 -24 -4q-15 0 -15 45v47q0 23 -12 23t-27 -14q-92 -89 -246 -89q-126 0 -170 35q-147 118 -147 297v346q0 103 -84 103q-15 0 -15 36.5t15 36.5q112 0 224 18q31 5 50 5q46 0 46 -44q-7 -98 -7 -161v-342 q0 -123 50 -182q28 -33 98 -33q64 0 132 55q54 44 54 93v415q0 103 -84 103q-16 0 -16 36.5t16 36.5q111 0 229 19q25 4 39 4q53 0 53 -36q-8 -95 -8 -156v-406q0 -90 10 -117q14 -40 53 -40q13 0 33 5q16 4 27 -32q3 -14 3 -23q0 -15 -7 -18z" />
<glyph unicode="v" horiz-adv-x="925" d="M113 713q-30 71 -101 71q-15 0 -15 36t15 36q63 -6 193 -6q156 0 219 6q15 0 15 -36t-15 -36q-70 0 -70 -45q0 -19 2 -26l146 -457q4 -14 13 -14q7 0 13 14l156 451q5 13 5 24q0 53 -91 53q-15 0 -15 36t15 36q60 -6 180 -6q93 0 156 6q15 0 15 -36t-15 -36 q-99 0 -125 -71l-258 -674q-26 -62 -79 -62q-51 0 -73 52z" />
<glyph unicode="w" horiz-adv-x="1458" d="M113 713q-30 71 -101 71q-15 0 -15 36t15 36q63 -6 193 -6q156 0 219 6q15 0 15 -36t-15 -36q-70 0 -70 -45q0 -19 6 -39l142 -444q5 -14 12 -14q8 0 14 14l123 358q4 13 4 23t-4 22l-22 54q-30 71 -88 71q-16 0 -16 36t16 36q60 -6 180 -6q159 0 219 6q16 0 16 -36 t-16 -36q-69 0 -70 -46q0 -14 7 -38l141 -444q5 -14 12 -14q9 0 14 14l156 451q5 13 5 24q0 53 -91 53q-15 0 -15 36t15 36q63 -6 180 -6q96 0 156 6q15 0 15 -36t-15 -36q-99 0 -125 -71l-258 -674q-23 -62 -76 -62q-54 0 -76 52l-178 426q-5 13 -13 13t-13 -13l-160 -416 q-24 -62 -78 -62q-49 0 -74 52z" />
<glyph unicode="x" horiz-adv-x="950" d="M811 154q64 -86 135 -86q16 0 16 -38t-16 -38q-80 8 -219 8q-149 0 -229 -8q-16 0 -16 38t16 38q82 0 82 24q0 11 -31 55l-105 152q-6 8 -17 8q-9 0 -17 -10l-111 -133q-47 -56 -47 -73q0 -23 54 -23h5q16 0 16 -38t-16 -38q-80 8 -164 8q-81 0 -161 -8q-16 0 -16 38 t16 38q100 0 155 67l205 250q11 12 11 27q0 11 -7 22l-221 281q-54 69 -113 69q-15 0 -15 36t15 36q63 -6 213 -6q153 0 213 6q16 0 16 -36t-16 -36q-61 0 -61 -28q0 -18 25 -54l75 -106q7 -11 18 -11q10 0 19 11l72 90q33 42 33 65q0 33 -72 33q-16 0 -16 36t16 36 q60 -6 166 -6q105 0 168 6q15 0 15 -36t-15 -36q-63 0 -120 -65l-181 -217q-10 -12 -10 -24q0 -10 10 -23z" />
<glyph unicode="y" horiz-adv-x="884" d="M338 -399q-41 -106 -128 -141q-33 -13 -69 -13q-62 0 -101 43q-26 30 -26 68q0 61 59 91q30 15 66 15q104 0 121 39l78 182q7 18 7 35t-7 35l-270 758q-26 71 -107 71q-15 0 -15 36t15 36q63 -6 203 -6q148 0 211 6q15 0 15 -36t-15 -36q-80 0 -80 -47q0 -15 8 -37 l152 -424q7 -20 17 -20q13 0 22 23l165 421q5 13 5 23q0 61 -121 61q-16 0 -16 36t16 36q60 -6 194 -6q114 0 174 6q16 0 16 -36t-16 -36q-92 0 -125 -59z" />
<glyph unicode="z" horiz-adv-x="770" d="M766 264l-24 -188q-3 -34 -3 -60q0 -41 -39 -41q-11 0 -95 15q-53 10 -93 10h-443q-41 0 -41 37q0 13 9 31l356 659q9 17 9 27q0 20 -29 20h-111q-63 0 -124 -128l-46 -103q-4 -9 -18 -9q-19 0 -36 12q-13 9 -13 23q29 252 30 256q7 43 31 45q158 -20 211 -20h348 q46 0 46 -33q0 -18 -8 -32l-359 -666q-4 -7 -4 -15q0 -24 28 -24h109q132 0 225 205q5 11 27 11q9 0 26 -4q31 -9 31 -28z" />
<glyph unicode="{" horiz-adv-x="784" d="M715 -319q-176 0 -239 10q-139 24 -190 124q-36 72 -36 191v424q0 115 -76 144q-31 12 -78 12q-15 0 -15 30q0 31 15 31q117 0 144 78q10 29 10 72v325q0 219 81 297q61 60 206 70q54 4 176 4q15 0 15 -38t-13 -38q-133 0 -185 -37q-69 -48 -69 -196v-234 q0 -144 -17 -201q-25 -84 -110 -133q91 -56 114 -153q13 -56 13 -158v-266q0 -163 42 -221q44 -61 210 -61q17 0 17 -38t-15 -38z" />
<glyph unicode="|" horiz-adv-x="536" d="M197 -334v1768h194v-1768h-194z" />
<glyph unicode="}" horiz-adv-x="784" d="M80 -319q-16 0 -16 38t16 38q136 0 185 35q67 50 67 247v266q0 147 33 213q29 59 96 98q-91 53 -114 149q-13 54 -13 185v234q0 152 -75 200q-52 33 -179 33q-16 0 -16 38t16 38q194 0 267 -17q116 -26 157 -116q39 -88 39 -238v-325q0 -112 77 -139q31 -11 76 -11 q17 0 17 -30q0 -31 -15 -31q-113 0 -141 -75q-12 -32 -12 -81v-424q0 -203 -120 -279q-73 -46 -345 -46z" />
<glyph unicode="~" horiz-adv-x="743" d="M735 518l-77 -87q-84 -85 -177 -85q-52 0 -145 44q-89 42 -129 47q-10 1 -19 1q-46 0 -112 -56l-16 -14l-1 -1q-4 -4 -11 -4l-14 3q-23 11 -30 33l-1 12q1 3 3 5l63 72q83 85 191 85q52 0 148 -45q86 -41 122 -44q6 -1 11 -1q46 0 95 42q35 30 44 36l11 2q23 -2 40 -24 l7 -12l-2 -8z" />
<glyph unicode="&#xa1;" horiz-adv-x="520" d="M118 726q0 62 45 101t112 39t112 -43t45 -105t-41 -109t-117 -47t-116 48.5t-40 115.5zM136 -438q0 118 68 594q14 90 22 246q0 20 50 20t52 -20q2 -102 41 -439t39 -369q0 -70 -42 -111t-94 -41q-66 0 -101 35.5t-35 84.5z" />
<glyph unicode="&#xa2;" horiz-adv-x="880" d="M796 394q16 -27 16 -42q0 -10 -7 -14l-82 -53q-116 -66 -266 -66h-21l-33 -190q-1 -8 -22 -8q-14 0 -35 3q-54 8 -52 21l34 199q-131 49 -203 171q-59 99 -59 218q0 172 104 309q122 160 309 176l35 193q1 7 20 7q25 0 58 -9q33 -10 33 -19l-31 -174q143 -10 205 -86 q6 -17 6 -40q0 -55 -31 -85q-35 -35 -57 -35q-42 0 -64 29q-6 8 -38 67q-10 18 -40 38l-110 -625q47 -21 78 -21q128 0 207 64q21 13 46 -28zM463 1018q-77 -25 -126 -130q-42 -91 -42 -206q0 -120 72 -215z" />
<glyph unicode="&#xa3;" horiz-adv-x="1263" d="M688 489q0 -162 -74 -307q117 -41 240 -41q115 0 219 70q63 43 78 43q38 0 38 -30q0 -14 -9 -36q-54 -135 -168 -194q-67 -35 -146 -35q-135 0 -315 129q-117 -129 -283 -129q-117 0 -172 73q-28 37 -28 81q0 74 69 117q57 36 144 36q87 -4 206 -45q14 53 15 125 q0 128 -60 295h-239q-16 0 -16 48q0 50 16 50h203q-50 122 -50 254q0 159 123 268q120 109 301 109q65 0 173 -34q154 -48 155 -107q0 -86 -17 -188q-11 -66 -47 -66q-44 0 -73 115q-13 48 -13 49q-47 159 -188 159q-201 0 -201 -219q0 -88 84 -340h289q16 0 16 -48 q0 -50 -16 -50h-268q14 -75 14 -152zM457 145q-89 50 -174 50q-82 0 -113 -47q-10 -16 -10 -33q0 -45 47 -68q26 -12 61 -12q121 0 189 110z" />
<glyph unicode="&#xa4;" horiz-adv-x="1024" d="M946 668q0 -145 -88 -262l78 -78l1 -7q-4 -22 -44 -57l-24 -18l-13 -4q-2 0 -4 2l-78 78q-118 -89 -260 -89q-145 0 -262 91l-80 -80l-7 -2q-21 4 -57 45q-21 24 -22 36q0 3 2 5l80 80q-88 114 -88 260q0 145 88 260l-80 80l-1 7q4 21 44 57q25 21 36 22q3 0 5 -2l80 -80 q118 90 260 90q144 0 262 -88l78 78l7 1q21 -4 57 -44l17 -24l5 -14l-2 -3l-78 -78q88 -118 88 -262zM825 668q0 130 -92 221q-91 90 -221 90q-129 0 -221 -92l-28 -32q-62 -83 -62 -187q0 -129 91 -221q91 -91 220 -91q131 0 222 92q91 91 91 220z" />
<glyph unicode="&#xa5;" horiz-adv-x="1421" d="M426 821h-250q-15 0 -15 71t15 71h160l-174 274q-55 87 -107 111q-31 14 -69 14q-15 0 -16 49l3 32q5 19 13 19q60 -6 280 -6q222 0 285 6q15 0 15 -50l-3 -33q-5 -17 -12 -17q-112 0 -118 -58l2 -22l11 -29q4 -8 9 -16l272 -434q11 -17 22 -17t23 19l287 424 q25 37 25 65q0 12 -4 23q-20 45 -109 45q-15 0 -16 49l3 32q5 19 13 19q60 -6 237 -6q190 0 250 6q15 0 16 -49l-3 -32l-6 -15q-3 -4 -7 -4q-115 0 -190 -71q-39 -37 -116 -149l-19 -28l-105 -151h182q15 0 16 -70l-4 -46l-6 -21q-2 -5 -6 -5h-280l-60 -86q-37 -54 -47 -80 h387q15 0 16 -68l-3 -47l-7 -21q-2 -5 -6 -5h-397v-297q0 -86 59 -110q35 -15 99 -15q15 0 15 -50t-15 -50q-84 8 -285 8q-209 0 -293 -8q-15 0 -15 50t15 50q103 0 133 33q25 27 25 92v297h-375q-15 0 -15 70q0 49 9 66q3 5 6 5h352q-17 33 -47 78z" />
<glyph unicode="&#xa6;" horiz-adv-x="536" d="M391 795h-194v577h194v-577zM391 109h-194v579h194v-579z" />
<glyph unicode="&#xa7;" horiz-adv-x="956" d="M915 481q0 -172 -178 -270q127 -123 127 -248q0 -150 -117 -255q-122 -111 -292 -111q-83 0 -197 42q-176 64 -176 158q0 42 56 83q39 28 69 28q31 0 70 -59l57 -84q57 -84 137 -84q91 0 147 77q41 57 41 131q0 91 -122 178q-51 34 -188 112q-159 91 -223 168 q-69 83 -69 181q0 123 98 221q37 36 83 62q-105 107 -105 227q0 147 113 246q111 96 264 96q84 0 172 -37q135 -59 143 -131q0 -45 -46 -83q-33 -27 -68 -27q-28 0 -58 50l-43 71q-44 73 -125 73q-76 0 -126 -65q-37 -49 -37 -109q0 -88 118 -170q30 -20 166 -96 q157 -87 224 -161q85 -95 85 -214zM727 426q0 96 -215 211q-93 51 -197 121q-73 -67 -73 -160q0 -80 161 -176q134 -76 261 -160q63 58 63 164z" />
<glyph unicode="&#xa8;" horiz-adv-x="778" d="M731 1179q0 -79 -60 -114q-29 -17 -65 -17q-84 0 -116 63q-12 25 -13 58q0 74 57 111q32 20 72 20q67 0 104 -54q21 -31 21 -67zM301 1179q0 -79 -60 -114q-29 -17 -65 -17q-84 0 -116 63q-12 25 -13 58q0 74 57 111q32 20 72 20q68 0 104 -54q21 -32 21 -67z" />
<glyph unicode="&#xa9;" horiz-adv-x="1611" d="M1532 748q0 -244 -148 -438q-59 -76 -134 -134q-194 -149 -439 -149q-244 0 -437 148q-179 137 -249 350q-35 108 -35 223q0 243 148 437q137 178 350 248q108 35 223 35q243 0 437 -148q179 -137 249 -349q35 -108 35 -223zM1430 748q0 218 -137 388q-128 158 -324 210 q-77 20 -158 20q-219 0 -388 -137q-52 -41 -93 -93q-137 -169 -137 -388q0 -218 136 -388q128 -159 324 -211q77 -20 158 -20q218 0 388 137q159 128 211 324q20 77 20 158zM1108 561q-3 -37 -34 -109l-18 -38l-3 -4q-32 -7 -47 -11q-90 -24 -191 -24q-163 0 -274 104 q-106 100 -111 245v13q0 170 109 282q111 114 286 114q66 0 192 -26l5 -1q10 -2 43 -2q17 -37 22 -162v-14q0 -11 -28 -12l-18 3q-4 2 -5 5q-15 154 -197 161h-16q-126 0 -195 -113q-53 -86 -53 -204q0 -195 114 -290q63 -52 132 -52q186 0 236 149q2 6 13 6q23 0 35 -13z " />
<glyph unicode="&#xaa;" horiz-adv-x="532" d="M537 874q-41 -69 -117 -69q-61 0 -101 49q-10 12 -14 13l-9 -4l-7 -7q-55 -51 -123 -51q-90 0 -118 66q-9 22 -9 49q0 75 138 146l87 42q21 10 21 29v118q-6 40 -64 43q-51 0 -71 -30q-7 -9 -8 -54q-1 -17 -3 -26q-14 -53 -57 -53q-52 5 -55 47q0 50 43 101q15 19 32 30 q74 45 164 45q80 0 131 -43q31 -26 31 -58v-315q0 -54 28 -67l15 -3q19 1 43 23l6 1q11 -3 17 -15v-7zM285 938v113q0 14 -8 16l-9 -2q-86 -46 -86 -119q0 -72 43 -72t56 39q4 12 4 25z" />
<glyph unicode="&#xab;" horiz-adv-x="867" d="M92 399q-17 19 -17 37.5t17 37.5l317 359q5 6 12 6q9 0 20 -9q20 -17 14 -28l-167 -334q-8 -18 -8 -29.5t6 -23.5l169 -348q7 -15 -14 -29q-11 -8 -19 -8t-13 6zM447 399q-17 19 -17 37.5t17 37.5l317 359q5 6 12 6q9 0 20 -9q15 -13 15 -23q0 -2 -1 -5l-166 -334 q-10 -18 -10 -29.5t6 -23.5l170 -348q2 -4 2 -7q0 -12 -16 -22q-11 -8 -19 -8t-13 6z" />
<glyph unicode="&#xac;" horiz-adv-x="1366" d="M1180 0v483h-1180v174h1366v-657h-186z" />
<glyph unicode="&#xad;" horiz-adv-x="827" d="M698 610q20 0 20 -65.5t-22 -65.5h-571q-19 0 -19 65.5t19 65.5h573z" />
<glyph unicode="&#xae;" horiz-adv-x="1611" d="M1532 748q0 -244 -148 -438q-59 -76 -134 -134q-194 -149 -439 -149q-244 0 -437 148q-179 137 -249 350q-35 108 -35 223q0 243 148 437q137 178 350 248q108 35 223 35q243 0 437 -148q179 -137 249 -349q35 -108 35 -223zM1430 748q0 218 -137 388q-128 158 -324 210 q-77 20 -158 20q-219 0 -388 -137q-52 -41 -93 -93q-137 -169 -137 -388q0 -218 136 -388q128 -159 324 -211q77 -20 158 -20q218 0 388 137q159 128 211 324q20 77 20 158zM1092 922q0 -120 -152 -181q-12 -5 -10 -11l3 -11q18 -67 177 -230q55 -57 96 -63q15 -2 15 -18 q0 -18 -15 -18h-63q-60 0 -111 28q-74 42 -153 157l-58 82q-42 58 -68 58h-8q-3 0 -32 2q-15 1 -15 -12v-195q0 -50 42 -58q16 -3 40 -3q10 0 10 -27q0 -25 -7 -25q-33 4 -148 4t-154 -4q-9 0 -9 25q0 24 7 24q88 0 88 64v510q0 53 -65 58q-12 1 -27 1q-7 0 -7 24q0 25 7 25 q130 -4 156 -4q22 0 83 3q56 3 79 3q179 0 254 -86q45 -51 45 -122zM954 922q0 73 -62 121q-56 44 -149 44q-37 0 -42 -7q-3 -8 -3 -12v-284q0 -19 13 -20q24 -6 47 -6q171 0 193 127q3 17 3 37z" />
<glyph unicode="&#xaf;" horiz-adv-x="608" d="M528 1240q27 0 27 -52q0 -60 -31 -60h-446q-23 0 -23 58q0 54 23 54h450z" />
<glyph unicode="&#xb0;" horiz-adv-x="712" d="M631 1047q0 -137 -102 -212q-73 -53 -173 -53q-127 0 -205 82q-69 72 -69 183q0 126 94 202q76 62 180 62q122 0 202 -81q73 -74 73 -183zM485 1047q0 97 -63 139q-30 20 -66 20q-67 0 -104 -61q-25 -41 -25 -98q0 -97 63 -140q30 -20 66 -20q69 0 105 62q24 41 24 98z " />
<glyph unicode="&#xb1;" horiz-adv-x="1064" d="M924 629h-299v-342h-181v342h-301v147h301v305h181v-305h299v-147zM924 -6h-781v147h781v-147z" />
<glyph unicode="&#xb2;" horiz-adv-x="626" d="M522 539q-10 -24 -49 -24q-84 5 -153 5h-49q-100 0 -212 -5q-33 0 -33 29q0 13 12 26q99 99 195 229q159 215 159 328q-4 127 -107 127q-92 0 -150 -102q-8 -13 -30 1q-17 11 -10 21q50 98 130 143q52 29 110 29q101 0 162 -68q53 -59 53 -145q0 -118 -170 -309 q-37 -41 -180 -184h184q71 0 97 11q31 13 49 49q7 13 33 3q24 -9 21 -18z" />
<glyph unicode="&#xb3;" horiz-adv-x="956" d="M531 784q0 -108 -77 -186q-89 -92 -224 -92q-89 0 -144 30q-49 27 -49 73q0 60 75 60q28 0 57 -34l32 -37q28 -30 62 -30q63 0 95 83q21 54 21 118q0 82 -50 130q-40 39 -101 39q-37 0 -67 -11q-17 0 -17 35q0 32 13 32q96 0 150 52q42 40 42 99q0 62 -34 97 q-24 24 -60 24q-56 0 -104 -51q-18 -20 -34 -45q-9 -13 -31 5q-17 12 -10 23q59 88 113 120q48 28 108 28q82 0 139 -58q53 -54 53 -128q0 -106 -107 -169q149 -44 149 -207z" />
<glyph unicode="&#xb4;" horiz-adv-x="569" d="M186 1020q-42 0 -42 53q0 21 8 41l120 302q7 17 28 17q32 0 95 -43q38 -26 38 -47q0 -6 -3 -11l-176 -263q-32 -49 -68 -49z" />
<glyph unicode="&#xb5;" horiz-adv-x="1073" d="M1055 31q-16 -7 -129 -29l-27 -6q-102 -26 -131 -31h-12q-11 4 -11 45v47q0 22 -11 23l-13 -4q-6 -3 -14 -10q-83 -75 -199 -86q-26 -3 -55 -3q-55 0 -113 23q-6 -75 -6 -76l8 -285v-1q0 -59 -51 -99q-40 -31 -90 -31q-75 0 -109 61q-14 26 -14 54q0 36 24 240 q8 71 11 112q14 192 14 304v20v356q0 93 -66 102q-8 1 -18 1q-15 0 -15 36l3 24q4 13 12 13q99 0 224 18q31 5 50 5q45 0 46 -44q0 -7 -1 -15q-6 -78 -6 -146v-342q0 -100 45 -163q37 -52 97 -52q96 0 162 59q47 42 47 89v415q0 81 -58 99l-25 4h-1q-15 0 -16 36l4 24 q4 13 12 13q111 0 229 19q25 4 39 4q47 0 53 -36v-30q-8 -86 -8 -126v-406q0 -90 10 -117q14 -40 53 -40q13 0 33 5l8 -1q16 -9 21 -45v-20q-2 -6 -6 -7z" />
<glyph unicode="&#xb6;" horiz-adv-x="1118" d="M487 143v414q0 22 -24 22q-212 0 -329.5 109.5t-117.5 275.5q0 180 129.5 287t317.5 107q85 0 185.5 -3t242.5 -3t190 6q16 0 16 -38t-16 -38q-118 0 -118 -74v-1063q0 -77 118 -77q16 0 16 -38t-16 -38q-80 8 -194 8h-307q-129 0 -209 -8q-16 0 -16 38t16 38 q116 0 116 75zM653 145q0 -77 70 -77q74 0 74 75v1065q0 74 -66 74q-78 0 -78 -74v-1063z" />
<glyph unicode="&#xb7;" horiz-adv-x="593" d="M492 512q0 -78 -63 -121q-39 -26 -87 -26q-72 0 -121 45q-45 42 -45 112q0 56 40 100q45 50 126 50q93 0 134 -85q16 -34 16 -75z" />
<glyph unicode="&#xb8;" horiz-adv-x="778" d="M618 -324q0 -86 -88 -142q-74 -48 -172 -48q-124 0 -151 61q-6 13 -6 29q0 42 36 61q13 7 29 7q31 0 75 -39q43 -37 65 -37q53 0 53 51q0 77 -142 142q-20 9 -20 17q0 5 6 13l141 209h109l-78 -106q-9 -12 -9 -18q0 -10 28 -26q124 -66 124 -174z" />
<glyph unicode="&#xb9;" horiz-adv-x="667" d="M516 522q-40 4 -194 4q-157 0 -197 -4q-9 0 -9 30t9 30q72 0 93 25q20 24 20 91v510q0 28 -20 29l-21 -4q-52 -18 -74 -23l-7 2q-14 12 -14 35q0 12 7 15q192 63 284 112q6 4 17 4q9 0 10 -12v-6q-2 -18 -2 -107v-555q0 -79 19 -98q18 -18 79 -18q9 0 9 -30l-3 -24 q-3 -6 -6 -6z" />
<glyph unicode="&#xba;" horiz-adv-x="624" d="M586 1083q0 -145 -92 -220q-70 -58 -181 -58q-119 0 -199 88q-73 80 -73 188q0 118 83 200q78 77 189 77q123 0 203 -89q70 -78 70 -186zM442 1079q0 121 -54 190q-34 42 -75 42q-55 0 -94 -73l-18 -40q-19 -55 -19 -119q0 -117 56 -182q33 -39 75 -39q63 0 100 79 q29 60 29 142z" />
<glyph unicode="&#xbb;" horiz-adv-x="867" d="M793 470q17 -19 17 -37.5t-17 -37.5l-317 -359q-5 -6 -12 -6q-9 0 -20 9q-20 17 -14 28l166 334q10 18 10 29.5t-6 23.5l-170 348q-7 15 14 30q11 7 19 7t13 -6zM438 470q17 -19 17 -37.5t-17 -37.5l-317 -359q-5 -6 -12 -6q-9 0 -20 9q-15 13 -15 23q0 2 1 5l167 334 q8 18 8 29.5t-6 23.5l-169 348q-2 4 -2 7q0 12 16 23q11 7 19 7t13 -6z" />
<glyph unicode="&#xbc;" horiz-adv-x="1509" d="M402 700q0 -78 22 -105.5t78 -27.5q9 0 9 -23.5t-9 -23.5q-49 5 -175.5 5t-175.5 -5q-10 0 -10 23.5t10 23.5q67 0 88.5 29.5t21.5 102.5v500q0 40 -13 35q-65 -21 -100 -39q-12 -6 -19 14q-3 7 -3 12q0 9 8 11q82 35 216 132q16 13 29 13q27 0 27 -33q-4 -44 -4 -99 v-545zM1370 97q0 -55 63 -55q10 0 10 -23.5t-10 -23.5q-49 5 -144.5 5t-147.5 -5q-9 0 -9 23.5t9 23.5q88 0 88 55v133h-285q-54 0 -54 36q0 30 32 76l179 237q117 154 148 204l58 93q9 11 27 11q53 0 53 -33q0 -6 -3 -11l-382 -505q-6 -8 -6 -14q0 -12 12 -12h221v266 q0 13 70.5 13t70.5 -13v-266h76q10 0 10 -41t-10 -41h-76v-133zM1044 1300l-454 -1300h-127l455 1300h126z" />
<glyph unicode="&#xbd;" horiz-adv-x="1509" d="M1392 19q-10 -24 -49 -24q-84 5 -153 5h-49q-100 0 -212 -5q-33 0 -33 29q0 13 12 26q99 99 195 229q159 215 159 328q-4 127 -107 127q-92 0 -150 -102q-8 -13 -30 1q-17 11 -10 21q50 98 130 143q52 29 110 29q101 0 162 -68q53 -59 53 -145q0 -118 -170 -309 q-37 -41 -180 -184h184q71 0 97 11q31 13 49 49q7 13 33 3q24 -9 21 -18zM402 700q0 -78 22 -105.5t78 -27.5q9 0 9 -23.5t-9 -23.5q-49 5 -175.5 5t-175.5 -5q-10 0 -10 23.5t10 23.5q67 0 88.5 29.5t21.5 102.5v500q0 40 -13 35q-65 -21 -100 -39q-12 -6 -19 14 q-3 7 -3 12q0 9 8 11q82 35 216 132q16 13 29 13q27 0 27 -33q-4 -44 -4 -99v-545zM1044 1300l-454 -1300h-127l455 1300h126z" />
<glyph unicode="&#xbe;" horiz-adv-x="1509" d="M531 789q0 -108 -77 -187q-89 -91 -224 -91q-89 0 -144 30q-49 27 -49 73q0 60 75 60q28 0 57 -34l32 -38q28 -29 62 -29q63 0 95 83q21 54 21 118q0 82 -50 130q-40 39 -101 39q-37 0 -67 -11q-17 0 -17 35q0 32 13 32q96 0 150 52q42 40 42 99q0 62 -34 97 q-24 24 -60 24q-56 0 -104 -51q-18 -20 -34 -45q-9 -13 -31 5q-17 12 -10 23q59 88 113 120q48 28 108 28q82 0 139 -58q53 -54 53 -128q0 -106 -107 -169q149 -44 149 -207zM1370 97q0 -55 63 -55q10 0 10 -23.5t-10 -23.5q-49 5 -144.5 5t-147.5 -5q-9 0 -9 23.5t9 23.5 q88 0 88 55v133h-285q-54 0 -54 36q0 30 32 76l179 237q117 154 148 204l58 93q9 11 27 11q53 0 53 -33q0 -6 -3 -11l-382 -505q-6 -8 -6 -14q0 -12 12 -12h221v266q0 13 70.5 13t70.5 -13v-266h76q10 0 10 -41t-10 -41h-76v-133zM1044 1300l-454 -1300h-127l455 1300h126z " />
<glyph unicode="&#xbf;" horiz-adv-x="751" d="M174 -112q0 178 102 230l166 82q72 36 72 58v10q0 49 -18 116q4 26 54 26q16 0 20 -8q80 -148 80 -227q0 -37 -14 -70t-39 -54t-63 -39l-104 -54q-126 -64 -126 -112q0 -58 43 -98t163 -50l78 -6q32 -2 69 -36t37 -90q0 -44 -36 -74t-86 -30q-94 0 -181 61t-152 159 t-65 206zM376 709q0 62 44.5 101.5t111 39.5t112.5 -44t46 -105t-41 -108t-117.5 -47t-116 48t-39.5 115z" />
<glyph unicode="&#xc0;" horiz-adv-x="1401" d="M819 1594q18 -15 18 -31q0 -11 -8 -22q-12 -17 -31 -17q-11 0 -25 7l-438 200q-10 9 -10 27q0 13 6 33q14 44 50 81q25 25 43 25q9 0 16 -5zM1196 202q41 -116 202 -116q15 0 15 -46.5t-15 -46.5q-115 7 -265 7t-275 -7q-15 0 -15 46.5t15 46.5q96 0 96 65q0 21 -10 51 l-100 297q-7 22 -34 24h-373q-21 0 -32 -29l-109 -293q-9 -24 -9 -42q0 -73 147 -73q13 0 13 -46.5t-13 -46.5q-83 7 -233 7t-228 -7q-14 0 -14 46.5t14 46.5q152 0 202 131l370 968q13 30 13 38t-14.5 22t-14.5 23q0 15 33 26t103.5 53t89.5 42q33 0 44 -47.5t53 -164.5z M649 1068q-5 16 -16 16q-10 0 -16 -16l-159 -434q-4 -9 -4 -16q0 -11 21 -11h293q28 0 28 22q0 6 -3 15z" />
<glyph unicode="&#xc1;" horiz-adv-x="1401" d="M1040 1731l-438 -200q-14 -7 -25 -7q-19 0 -31 17q-8 11 -8 22q0 16 18 31l379 298q7 5 16 5q18 0 43 -25q37 -37 50 -81q6 -20 6 -33q0 -18 -10 -27zM1196 202q41 -116 202 -116q15 0 15 -46.5t-15 -46.5q-115 7 -265 7t-275 -7q-15 0 -15 46.5t15 46.5q96 0 96 65 q0 21 -10 51l-100 297q-7 22 -34 24h-373q-21 0 -32 -29l-109 -293q-9 -24 -9 -42q0 -73 147 -73q13 0 13 -46.5t-13 -46.5q-83 7 -233 7t-228 -7q-14 0 -14 46.5t14 46.5q152 0 202 131l370 968q13 30 13 38t-14.5 22t-14.5 23q0 15 33 26t103.5 53t89.5 42q33 0 44 -47.5 t53 -164.5zM649 1068q-5 16 -16 16q-10 0 -16 -16l-159 -434q-4 -9 -4 -16q0 -11 21 -11h293q28 0 28 22q0 6 -3 15z" />
<glyph unicode="&#xc2;" horiz-adv-x="1401" d="M1026 1574q4 -4 4 -10q0 -8 -8 -21q-11 -19 -20 -19q-1 0 -3 1l-267 124q-19 8 -38 8t-37 -8l-266 -124l-2 -1q-12 4 -22 20q-10 14 -10 22q0 5 4 8l283 251q26 23 50.5 23t48.5 -23zM1196 202q41 -116 202 -116q15 0 15 -46.5t-15 -46.5q-115 7 -265 7t-275 -7 q-15 0 -15 46.5t15 46.5q96 0 96 65q0 21 -10 51l-100 297q-7 22 -34 24h-373q-21 0 -32 -29l-109 -293q-9 -24 -9 -42q0 -73 147 -73q13 0 13 -46.5t-13 -46.5q-83 7 -233 7t-228 -7q-14 0 -14 46.5t14 46.5q152 0 202 131l370 968q13 30 13 38t-14.5 22t-14.5 23 q0 15 33 26t103.5 53t89.5 42q33 0 44 -47.5t53 -164.5zM649 1068q-5 16 -16 16q-10 0 -16 -16l-159 -434q-4 -9 -4 -16q0 -11 21 -11h293q28 0 28 22q0 6 -3 15z" />
<glyph unicode="&#xc3;" horiz-adv-x="1401" d="M1020 1712q-110 -164 -219 -164q-41 0 -127 31q-94 33 -127 33q-63 0 -112 -59q-3 -3 -8 -3q-9 0 -23 14q-15 15 -15 24q0 3 2 5q106 160 218 160q50 0 133 -33q75 -27 110 -27q64 0 122 62q2 3 6 3q8 0 24 -13q18 -16 18 -27q0 -3 -2 -6zM1196 202q41 -116 202 -116 q15 0 15 -46.5t-15 -46.5q-115 7 -265 7t-275 -7q-15 0 -15 46.5t15 46.5q96 0 96 65q0 21 -10 51l-100 297q-7 22 -34 24h-373q-21 0 -32 -29l-109 -293q-9 -24 -9 -42q0 -73 147 -73q13 0 13 -46.5t-13 -46.5q-83 7 -233 7t-228 -7q-14 0 -14 46.5t14 46.5q152 0 202 131 l370 968q13 30 13 38t-14.5 22t-14.5 23q0 15 33 26t103.5 53t89.5 42q33 0 44 -47.5t53 -164.5zM649 1068q-5 16 -16 16q-10 0 -16 -16l-159 -434q-4 -9 -4 -16q0 -11 21 -11h293q28 0 28 22q0 6 -3 15z" />
<glyph unicode="&#xc4;" horiz-adv-x="1401" d="M1031 1682q0 -80 -60 -114q-29 -18 -65 -18q-84 0 -116 64q-12 24 -13 58q0 74 57 110q32 20 72 20q67 0 104 -54q21 -30 21 -66zM601 1682q0 -80 -60 -114q-29 -18 -65 -18q-84 0 -116 64q-12 24 -13 58q0 74 57 110q32 20 72 20q68 0 104 -54q21 -32 21 -66zM1196 202 q41 -116 202 -116q15 0 15 -46.5t-15 -46.5q-115 7 -265 7t-275 -7q-15 0 -15 46.5t15 46.5q96 0 96 65q0 21 -10 51l-100 297q-7 22 -34 24h-373q-21 0 -32 -29l-109 -293q-9 -24 -9 -42q0 -73 147 -73q13 0 13 -46.5t-13 -46.5q-83 7 -233 7t-228 -7q-14 0 -14 46.5 t14 46.5q152 0 202 131l370 968q13 30 13 38t-14.5 22t-14.5 23q0 15 33 26t103.5 53t89.5 42q33 0 44 -47.5t53 -164.5zM649 1068q-5 16 -16 16q-10 0 -16 -16l-159 -434q-4 -9 -4 -16q0 -11 21 -11h293q28 0 28 22q0 6 -3 15z" />
<glyph unicode="&#xc5;" horiz-adv-x="1401" d="M1398 -7q-133 7 -266 7q-141 0 -274 -7q-15 0 -15 46q0 21 5 35q4 12 10 12q95 0 96 65q0 22 -10 51l-100 297q-9 24 -34 24h-373q-18 0 -29 -21q-2 -4 -3 -8l-109 -293q-9 -24 -9 -42q0 -14 4 -25q26 -47 143 -48q13 0 13 -46q1 -23 -4 -37q-4 -10 -9 -10q-140 7 -233 7 q-88 0 -228 -7q-14 0 -14 46q0 22 4 36q4 11 10 11q152 0 202 131l425 1117q-89 31 -125 115q-16 39 -16 81q0 92 70 154q64 55 158 55q120 0 186 -84l20 -30l15 -36q9 -29 9 -59q0 -95 -73 -157q-21 -18 -46 -30l4 -14q8 -35 50 -152l344 -975q22 -63 106 -96 q48 -20 96 -20q15 0 15 -46q0 -21 -5 -35q-4 -12 -10 -12zM789 1530q0 82 -52 118q-22 14 -50 16q-64 -4 -89 -71q-11 -28 -11 -63q0 -79 48 -114q23 -16 52 -16q64 0 90 66q12 29 12 64zM793 644l-144 424q-5 16 -15 16t-17 -16l-158 -426q-5 -11 -5 -18l3 -10q6 -7 24 -7 h287q28 0 28 22q0 7 -3 15z" />
<glyph unicode="&#xc6;" horiz-adv-x="1848" d="M1769 49q0 -27 -6 -35q-18 -21 -87 -21h-6l-612 7h-118q-156 0 -262 -7q-14 0 -14 46q0 47 14 47q153 0 153 109v374q0 31 -29 31h-334q-26 0 -36 -19l-206 -394q-14 -27 -14 -46q0 -55 141 -55q14 0 14 -46q0 -47 -14 -47q-116 7 -216 7q-149 0 -250 -7q-14 0 -14 46 q0 47 14 47q91 0 140 45q29 27 61 81l571 967q18 29 18 47q0 39 -83 39q-14 0 -14 46q0 47 14 47q142 -6 378 -6l614 6h22q52 0 63 -4q16 -7 17 -41v-303q0 -16 -48 -16q-53 0 -53 16q0 252 -229 257l-250 5q-31 1 -31 -44v-515q0 -29 29 -29h181q77 0 77 176q0 14 48 14 t48 -14q-7 -90 -7 -215q0 -136 7 -206q0 -13 -48 -13t-48 13q0 157 -77 161h-181q-29 0 -29 -33v-294q0 -195 130 -195l244 8q217 7 217 250q0 17 47 17q54 0 54 -17v-287zM831 713v498q0 17 -10 17q-11 0 -21 -17l-286 -498q-4 -7 -4 -13q0 -16 17 -16h273q31 0 31 29z" />
<glyph unicode="&#xc7;" horiz-adv-x="1349" d="M947 -336q0 -86 -88 -142q-74 -48 -172 -48q-124 0 -151 61q-6 13 -6 29q0 42 36 61q13 7 29 7q31 0 75 -39q43 -37 65 -37q53 0 53 51q0 77 -142 142q-20 9 -20 17q0 5 6 13l141 209h109l-78 -106q-9 -12 -9 -18q0 -10 28 -26q124 -66 124 -174zM55 647 q0 315 204.5 526.5t535.5 211.5q130 0 338 -43q56 -11 107 -13q33 -90 40 -326q0 -18 -46.5 -21t-47.5 13q-10 110 -65.5 177t-140 96t-191.5 29q-207 0 -334 -168t-127 -424q0 -297 140.5 -467.5t316.5 -170.5h2q341 0 438 277q7 19 51 8q44 -10 44 -30q0 -18 -12 -62.5 t-30 -91.5q-37 -96 -61 -132q-47 -7 -88 -19q-153 -44 -358 -44q-293 0 -504.5 189.5t-211.5 484.5z" />
<glyph unicode="&#xc8;" horiz-adv-x="1250" d="M834 1594q18 -15 18 -31q0 -11 -8 -22q-12 -17 -31 -17q-11 0 -25 7l-438 200q-10 9 -10 27q0 13 6 33q14 44 50 81q25 25 43 25q9 0 16 -5zM237 202v954q0 109 -172 109q-14 0 -14 46.5t14 46.5q143 -6 299 -6t371 3t337 3q57 0 57 -51v-306q0 -17 -50.5 -17t-50.5 17 q0 130 -99 205q-61 47 -125 49l-296 10q-27 1 -27 -40v-509q0 -29 29 -29h135q123 0 123 91v99q0 14 52.5 14t52.5 -14q-7 -67 -7 -231t7 -227q0 -15 -52.5 -15t-52.5 15v86q0 89 -123 89h-135q-29 0 -29 -31v-341q0 -77 75 -116q39 -20 81 -20l223 5q157 2 205 137 q18 50 18 116q0 17 51 17t51 -17v-287q0 -64 -117 -64q-187 0 -360 3.5t-335.5 3.5t-297.5 -7q-15 0 -15 46.5t15 46.5q162 0 162 116z" />
<glyph unicode="&#xc9;" horiz-adv-x="1250" d="M975 1731l-438 -200q-14 -7 -25 -7q-19 0 -31 17q-8 11 -8 22q0 16 18 31l379 298q7 5 16 5q18 0 43 -25q37 -37 50 -81q6 -20 6 -33q0 -18 -10 -27zM237 202v954q0 109 -172 109q-14 0 -14 46.5t14 46.5q143 -6 299 -6t371 3t337 3q57 0 57 -51v-306q0 -17 -50.5 -17 t-50.5 17q0 130 -99 205q-61 47 -125 49l-296 10q-27 1 -27 -40v-509q0 -29 29 -29h135q123 0 123 91v99q0 14 52.5 14t52.5 -14q-7 -67 -7 -231t7 -227q0 -15 -52.5 -15t-52.5 15v86q0 89 -123 89h-135q-29 0 -29 -31v-341q0 -77 75 -116q39 -20 81 -20l223 5 q157 2 205 137q18 50 18 116q0 17 51 17t51 -17v-287q0 -64 -117 -64q-187 0 -360 3.5t-335.5 3.5t-297.5 -7q-15 0 -15 46.5t15 46.5q162 0 162 116z" />
<glyph unicode="&#xca;" horiz-adv-x="1250" d="M970 1574q4 -4 4 -10q0 -8 -8 -21q-11 -19 -20 -19q-1 0 -3 1l-267 124q-19 8 -38 8t-37 -8l-266 -124l-2 -1q-12 4 -22 20q-10 14 -10 22q0 5 4 8l283 251q26 23 50.5 23t48.5 -23zM237 202v954q0 109 -172 109q-14 0 -14 46.5t14 46.5q143 -6 299 -6t371 3t337 3 q57 0 57 -51v-306q0 -17 -50.5 -17t-50.5 17q0 130 -99 205q-61 47 -125 49l-296 10q-27 1 -27 -40v-509q0 -29 29 -29h135q123 0 123 91v99q0 14 52.5 14t52.5 -14q-7 -67 -7 -231t7 -227q0 -15 -52.5 -15t-52.5 15v86q0 89 -123 89h-135q-29 0 -29 -31v-341q0 -77 75 -116 q39 -20 81 -20l223 5q157 2 205 137q18 50 18 116q0 17 51 17t51 -17v-287q0 -64 -117 -64q-187 0 -360 3.5t-335.5 3.5t-297.5 -7q-15 0 -15 46.5t15 46.5q162 0 162 116z" />
<glyph unicode="&#xcb;" horiz-adv-x="1250" d="M956 1682q0 -80 -60 -114q-29 -18 -65 -18q-84 0 -116 64q-12 24 -13 58q0 74 57 110q32 20 72 20q67 0 104 -54q21 -30 21 -66zM526 1682q0 -80 -60 -114q-29 -18 -65 -18q-84 0 -116 64q-12 24 -13 58q0 74 57 110q32 20 72 20q68 0 104 -54q21 -32 21 -66zM237 202 v954q0 109 -172 109q-14 0 -14 46.5t14 46.5q143 -6 299 -6t371 3t337 3q57 0 57 -51v-306q0 -17 -50.5 -17t-50.5 17q0 130 -99 205q-61 47 -125 49l-296 10q-27 1 -27 -40v-509q0 -29 29 -29h135q123 0 123 91v99q0 14 52.5 14t52.5 -14q-7 -67 -7 -231t7 -227 q0 -15 -52.5 -15t-52.5 15v86q0 89 -123 89h-135q-29 0 -29 -31v-341q0 -77 75 -116q39 -20 81 -20l223 5q157 2 205 137q18 50 18 116q0 17 51 17t51 -17v-287q0 -64 -117 -64q-187 0 -360 3.5t-335.5 3.5t-297.5 -7q-15 0 -15 46.5t15 46.5q162 0 162 116z" />
<glyph unicode="&#xcc;" horiz-adv-x="734" d="M474 1594q18 -15 18 -31q0 -11 -8 -22q-12 -17 -31 -17q-11 0 -25 7l-438 200q-10 9 -10 27q0 13 6 33q14 44 50 81q25 25 43 25q9 0 16 -5zM481 202q0 -116 159 -116q14 0 14 -46q0 -47 -14 -47q-133 7 -279 7q-160 0 -286 -7q-15 0 -15 46q0 47 15 47q162 0 162 116 v952q0 116 -161 116q-14 0 -14 46q0 47 14 47q48 -5 279 -5q241 0 289 5q14 0 14 -46q0 -47 -14 -47q-163 0 -163 -116v-952z" />
<glyph unicode="&#xcd;" horiz-adv-x="734" d="M715 1731l-438 -200q-14 -7 -25 -7q-19 0 -31 17q-8 11 -8 22q0 16 18 31l379 298q7 5 16 5q18 0 43 -25q37 -37 50 -81q6 -20 6 -33q0 -18 -10 -27zM481 202q0 -116 159 -116q14 0 14 -46q0 -47 -14 -47q-133 7 -279 7q-160 0 -286 -7q-15 0 -15 46q0 47 15 47 q162 0 162 116v952q0 116 -161 116q-14 0 -14 46q0 47 14 47q48 -5 279 -5q241 0 289 5q14 0 14 -46q0 -47 -14 -47q-163 0 -163 -116v-952z" />
<glyph unicode="&#xce;" horiz-adv-x="734" d="M690 1574q4 -4 4 -10q0 -8 -8 -21q-11 -19 -20 -19q-1 0 -3 1l-267 124q-19 8 -38 8t-37 -8l-266 -124l-2 -1q-12 4 -22 20q-10 14 -10 22q0 5 4 8l283 251q26 23 50.5 23t48.5 -23zM481 202q0 -116 159 -116q14 0 14 -46q0 -47 -14 -47q-133 7 -279 7q-160 0 -286 -7 q-15 0 -15 46q0 47 15 47q162 0 162 116v952q0 116 -161 116q-14 0 -14 46q0 47 14 47q48 -5 279 -5q241 0 289 5q14 0 14 -46q0 -47 -14 -47q-163 0 -163 -116v-952z" />
<glyph unicode="&#xcf;" horiz-adv-x="734" d="M706 1682q0 -80 -60 -114q-29 -18 -65 -18q-84 0 -116 64q-12 24 -13 58q0 74 57 110q32 20 72 20q67 0 104 -54q21 -30 21 -66zM276 1682q0 -80 -60 -114q-29 -18 -65 -18q-84 0 -116 64q-12 24 -13 58q0 74 57 110q32 20 72 20q68 0 104 -54q21 -32 21 -66zM481 202 q0 -116 159 -116q14 0 14 -46q0 -47 -14 -47q-133 7 -279 7q-160 0 -286 -7q-15 0 -15 46q0 47 15 47q162 0 162 116v952q0 116 -161 116q-14 0 -14 46q0 47 14 47q48 -5 279 -5q241 0 289 5q14 0 14 -46q0 -47 -14 -47q-163 0 -163 -116v-952z" />
<glyph unicode="&#xd0;" horiz-adv-x="1567" d="M1487 726q0 -338 -200 -537q-198 -196 -521 -196l-348 7h-78q-165 0 -265 -7q-15 0 -15 46q0 47 15 47q162 0 162 116v392q0 31 -29 31h-179q-15 0 -15 46q0 47 15 47h179q29 0 29 29v409q0 109 -172 109q-14 0 -14 46q0 47 14 47q143 -6 288 -6l365 6q303 0 510 -139 q259 -174 259 -493zM1215 716q0 177 -99 324q-164 240 -480 240h-79q-76 0 -76 -79v-454q0 -29 27 -29h230q13 0 13 -46q0 -47 -13 -47h-230q-27 0 -27 -31v-321q0 -150 87 -186q39 -16 130 -16q213 0 353 153q164 178 164 492z" />
<glyph unicode="&#xd1;" horiz-adv-x="1482" d="M1053 1712q-110 -164 -219 -164q-41 0 -127 31q-94 33 -127 33q-63 0 -112 -59q-3 -3 -8 -3q-9 0 -23 14q-15 15 -15 24q0 3 2 5q106 160 218 160q50 0 133 -33q75 -27 110 -27q64 0 122 62q2 3 6 3q8 0 24 -13q18 -16 18 -27q0 -3 -2 -6zM1288 76q0 -97 -31 -97 q-26 0 -74 57l-822 978q-13 16 -20 16q-13 0 -13 -22v-806q0 -116 151 -116q15 0 15 -46q0 -48 -15 -47q-92 7 -200 7q-102 0 -214 -7q-14 -2 -14 46q0 47 14 47q159 0 159 116v954q0 114 -173 114q-13 0 -13 46q0 47 13 47q50 -5 177 -5q84 0 98 -2q59 -9 100 -57l711 -867 q10 -14 24 -14q24 0 24 31v703q0 118 -153 118q-15 0 -15 46q0 47 15 47q102 -5 198 -5q100 0 193 5q14 0 14 -46q0 -47 -14 -47q-135 0 -135 -118v-1076z" />
<glyph unicode="&#xd2;" horiz-adv-x="1524" d="M869 1594q18 -15 18 -31q0 -11 -8 -22q-12 -17 -31 -17q-11 0 -25 7l-438 200q-10 9 -10 27q0 13 6 33q14 44 50 81q25 25 43 25q9 0 16 -5zM1430 663q0 -220 -145 -417q-202 -273 -544 -273q-225 0 -405 124q-281 194 -281 570q0 251 176 474q195 244 514 244 q246 0 426 -155q259 -224 259 -567zM1157 649q0 255 -124 438q-142 210 -293 210h-2q-152 0 -265 -130q-145 -166 -145 -443q0 -304 153 -495q129 -162 274 -162q265 0 358 279q44 130 44 303z" />
<glyph unicode="&#xd3;" horiz-adv-x="1524" d="M1105 1731l-438 -200q-14 -7 -25 -7q-19 0 -31 17q-8 11 -8 22q0 16 18 31l379 298q7 5 16 5q18 0 43 -25q37 -37 50 -81q6 -20 6 -33q0 -18 -10 -27zM1430 663q0 -220 -145 -417q-202 -273 -544 -273q-225 0 -405 124q-281 194 -281 570q0 251 176 474q195 244 514 244 q246 0 426 -155q259 -224 259 -567zM1157 649q0 255 -124 438q-142 210 -293 210h-2q-152 0 -265 -130q-145 -166 -145 -443q0 -304 153 -495q129 -162 274 -162q265 0 358 279q44 130 44 303z" />
<glyph unicode="&#xd4;" horiz-adv-x="1524" d="M1070 1574q4 -4 4 -10q0 -8 -8 -21q-11 -19 -20 -19q-1 0 -3 1l-267 124q-19 8 -38 8t-37 -8l-266 -124l-2 -1q-12 4 -22 20q-10 14 -10 22q0 5 4 8l283 251q26 23 50.5 23t48.5 -23zM1430 663q0 -220 -145 -417q-202 -273 -544 -273q-225 0 -405 124q-281 194 -281 570 q0 251 176 474q195 244 514 244q246 0 426 -155q259 -224 259 -567zM1157 649q0 255 -124 438q-142 210 -293 210h-2q-152 0 -265 -130q-145 -166 -145 -443q0 -304 153 -495q129 -162 274 -162q265 0 358 279q44 130 44 303z" />
<glyph unicode="&#xd5;" horiz-adv-x="1524" d="M1061 1712q-110 -164 -219 -164q-41 0 -127 31q-94 33 -127 33q-63 0 -112 -59q-3 -3 -8 -3q-9 0 -23 14q-15 15 -15 24q0 3 2 5q106 160 218 160q50 0 133 -33q75 -27 110 -27q64 0 122 62q2 3 6 3q8 0 24 -13q18 -16 18 -27q0 -3 -2 -6zM1430 663q0 -220 -145 -417 q-202 -273 -544 -273q-225 0 -405 124q-281 194 -281 570q0 251 176 474q195 244 514 244q246 0 426 -155q259 -224 259 -567zM1157 649q0 255 -124 438q-142 210 -293 210h-2q-152 0 -265 -130q-145 -166 -145 -443q0 -304 153 -495q129 -162 274 -162q265 0 358 279 q44 130 44 303z" />
<glyph unicode="&#xd6;" horiz-adv-x="1524" d="M1066 1682q0 -80 -60 -114q-29 -18 -65 -18q-84 0 -116 64q-12 24 -13 58q0 74 57 110q32 20 72 20q67 0 104 -54q21 -30 21 -66zM636 1682q0 -80 -60 -114q-29 -18 -65 -18q-84 0 -116 64q-12 24 -13 58q0 74 57 110q32 20 72 20q68 0 104 -54q21 -32 21 -66zM1430 663 q0 -220 -145 -417q-202 -273 -544 -273q-225 0 -405 124q-281 194 -281 570q0 251 176 474q195 244 514 244q246 0 426 -155q259 -224 259 -567zM1157 649q0 255 -124 438q-142 210 -293 210h-2q-152 0 -265 -130q-145 -166 -145 -443q0 -304 153 -495q129 -162 274 -162 q265 0 358 279q44 130 44 303z" />
<glyph unicode="&#xd7;" horiz-adv-x="786" d="M778 98l-137 -137l-244 242l-241 -242l-138 137l242 244l-242 242l138 137l241 -242l244 242l137 -137l-243 -242z" />
<glyph unicode="&#xd8;" horiz-adv-x="1524" d="M288 -93q-5 -7 -14 -7q-25 0 -61 28q-40 30 -40 47q0 7 2 10l1008 1442q3 4 11 4q30 0 73 -34q32 -26 32 -39q0 -4 -2 -7zM1430 663q0 -220 -145 -417q-202 -273 -544 -273q-225 0 -405 124q-281 194 -281 570q0 251 176 474q195 244 514 244q246 0 426 -155 q259 -224 259 -567zM1157 649q0 255 -124 438q-142 210 -293 210h-2q-152 0 -265 -130q-145 -166 -145 -443q0 -304 153 -495q129 -162 274 -162q265 0 358 279q44 130 44 303z" />
<glyph unicode="&#xd9;" horiz-adv-x="1512" d="M939 1594q18 -15 18 -31q0 -11 -8 -22q-12 -17 -31 -17q-11 0 -25 7l-438 200q-10 9 -10 27q0 13 6 33q14 44 50 81q25 25 43 25q9 0 16 -5zM1322 880q0 -276 -12 -416q-17 -245 -154 -373q-126 -118 -383 -118q-156 0 -268 42q-157 61 -219 185q-52 107 -62 345v609 q0 116 -157 116q-14 0 -14 46q0 47 14 47q147 -5 281 -5q146 0 294 5q14 0 14 -46q0 -47 -14 -47q-174 0 -174 -116v-468l11 -281q3 -124 55 -203q90 -135 276 -135q173 0 277 106q90 93 90 323v658q0 116 -157 116q-14 0 -14 46q0 47 14 47q138 -5 229 -5q92 0 227 5 q15 0 15 -46q0 -47 -15 -47q-154 0 -154 -116v-274z" />
<glyph unicode="&#xda;" horiz-adv-x="1512" d="M1180 1731l-438 -200q-14 -7 -25 -7q-19 0 -31 17q-8 11 -8 22q0 16 18 31l379 298q7 5 16 5q18 0 43 -25q37 -37 50 -81q6 -20 6 -33q0 -18 -10 -27zM1322 880q0 -276 -12 -416q-17 -245 -154 -373q-126 -118 -383 -118q-156 0 -268 42q-157 61 -219 185 q-52 107 -62 345v609q0 116 -157 116q-14 0 -14 46q0 47 14 47q147 -5 281 -5q146 0 294 5q14 0 14 -46q0 -47 -14 -47q-174 0 -174 -116v-468l11 -281q3 -124 55 -203q90 -135 276 -135q173 0 277 106q90 93 90 323v658q0 116 -157 116q-14 0 -14 46q0 47 14 47 q138 -5 229 -5q92 0 227 5q15 0 15 -46q0 -47 -15 -47q-154 0 -154 -116v-274z" />
<glyph unicode="&#xdb;" horiz-adv-x="1512" d="M1141 1574q4 -4 4 -10q0 -8 -8 -21q-11 -19 -20 -19q-1 0 -3 1l-267 124q-19 8 -38 8t-37 -8l-266 -124l-2 -1q-12 4 -22 20q-10 14 -10 22q0 5 4 8l283 251q26 23 50.5 23t48.5 -23zM1322 880q0 -276 -12 -416q-17 -245 -154 -373q-126 -118 -383 -118q-156 0 -268 42 q-157 61 -219 185q-52 107 -62 345v609q0 116 -157 116q-14 0 -14 46q0 47 14 47q147 -5 281 -5q146 0 294 5q14 0 14 -46q0 -47 -14 -47q-174 0 -174 -116v-468l11 -281q3 -124 55 -203q90 -135 276 -135q173 0 277 106q90 93 90 323v658q0 116 -157 116q-14 0 -14 46 q0 47 14 47q138 -5 229 -5q92 0 227 5q15 0 15 -46q0 -47 -15 -47q-154 0 -154 -116v-274z" />
<glyph unicode="&#xdc;" horiz-adv-x="1512" d="M1161 1682q0 -80 -60 -114q-29 -18 -65 -18q-84 0 -116 64q-12 24 -13 58q0 74 57 110q32 20 72 20q67 0 104 -54q21 -30 21 -66zM731 1682q0 -80 -60 -114q-29 -18 -65 -18q-84 0 -116 64q-12 24 -13 58q0 74 57 110q32 20 72 20q68 0 104 -54q21 -32 21 -66zM1322 880 q0 -276 -12 -416q-17 -245 -154 -373q-126 -118 -383 -118q-156 0 -268 42q-157 61 -219 185q-52 107 -62 345v609q0 116 -157 116q-14 0 -14 46q0 47 14 47q147 -5 281 -5q146 0 294 5q14 0 14 -46q0 -47 -14 -47q-174 0 -174 -116v-468l11 -281q3 -124 55 -203 q90 -135 276 -135q173 0 277 106q90 93 90 323v658q0 116 -157 116q-14 0 -14 46q0 47 14 47q138 -5 229 -5q92 0 227 5q15 0 15 -46q0 -47 -15 -47q-154 0 -154 -116v-274z" />
<glyph unicode="&#xdd;" horiz-adv-x="1325" d="M1110 1731l-438 -200q-14 -7 -25 -7q-19 0 -31 17q-8 11 -8 22q0 16 18 31l379 298q7 5 16 5q18 0 43 -25q37 -37 50 -81q6 -20 6 -33q0 -18 -10 -27zM758 202q0 -116 148 -116q13 0 13 -46q0 -47 -13 -47q-65 7 -266 7q-200 0 -273 -7q-14 0 -14 46q0 47 14 47 q147 0 147 116v292q0 68 -10 94q-8 22 -55 96l-298 470q-52 82 -101 104q-28 12 -63 12q-15 0 -15 46q0 47 15 47q47 -5 261 -5q216 0 266 5q14 0 14 -46q0 -47 -14 -47q-110 0 -110 -53q0 -31 20 -63l254 -405q11 -17 20 -17q10 0 22 19l268 395q23 34 23 60q0 64 -105 64 q-15 0 -15 46q0 47 15 47q45 -5 221 -5q185 0 233 5q14 0 14 -46q0 -47 -14 -47q-108 0 -179 -68l-33 -35l-337 -481q-38 -56 -45 -78q-8 -28 -8 -109v-297z" />
<glyph unicode="&#xde;" horiz-adv-x="1225" d="M1135 728q0 -215 -141 -411q-132 -184 -335 -274q-93 -41 -191 -56q-36 -7 -36 -38v-193q0 -71 -142 -173l-144 -99q-6 -4 -12 -4q-39 0 -77 61q-14 23 -14 39q0 9 5 13q82 71 103 97q35 45 35 102v1300q0 136 -159 136q-15 0 -15 46q0 47 15 47q176 0 326 60q20 8 41 8 q40 0 43 -35l-7 -197q0 -23 17 -23q11 0 19 5q16 7 137 106q102 84 186 84q43 0 77 -22q157 -122 226 -322q43 -123 43 -257zM862 728q0 282 -153 444q-18 20 -29 20q-13 0 -22 -7q-7 -4 -62 -53q-72 -65 -144 -102q-22 -12 -22 -46v-866q0 -36 28 -36q7 0 16 2 q202 57 307 273q81 167 81 371z" />
<glyph unicode="&#xdf;" horiz-adv-x="1153" d="M1124 258q0 -144 -108 -224q-80 -59 -203 -59q-109 0 -195 62q-28 71 -28 180q0 19 35 19q41 0 41 -17q0 -48 57 -106q56 -56 115 -56q94 0 94 117q0 130 -137 207q-236 132 -236 293q0 128 163 243q120 85 120 222q0 89 -48 164q-56 88 -147 88q-131 0 -205 -190 q-49 -126 -49 -308v-750q0 -75 133 -75q16 0 16 -37q0 -39 -16 -39q-80 8 -239 8q-148 0 -232 -8q-15 0 -15 38t15 38q109 0 109 75v527q0 35 -31 35h-61q-16 0 -16 36q0 37 16 37q92 0 92 113q0 276 145 430q156 166 365 166q187 0 297 -105q88 -85 88 -204 q0 -132 -197 -270q-114 -80 -114 -173q0 -89 137 -162q141 -75 200 -173q39 -64 39 -142z" />
<glyph unicode="&#xe0;" horiz-adv-x="860" d="M452 1114q8 -22 8 -40q0 -54 -42 -54q-35 0 -69 49l-169 249q-5 8 -5 16q0 32 58 63q42 23 74 23q24 0 28 -14zM866 88q-58 -113 -190 -113q-92 0 -162 82q-14 19 -21 19q-13 0 -28 -17q-82 -82 -199 -82q-125 0 -177 85q-26 43 -26 100q0 121 212 231l151 72 q35 20 35 47v190q0 72 -105 72q-79 0 -116 -51q-9 -14 -10 -75q0 -35 -5 -52q-25 -88 -92 -88q-90 0 -90 78q0 67 56 144q31 44 65 65q120 75 264 75q113 0 195 -56q65 -44 67 -107v-508q0 -114 67 -114h4q29 0 68 36q8 8 28 -9q10 -10 10 -18q0 -3 -1 -6zM461 193v182 q0 23 -14 23q-7 0 -13 -3q-141 -71 -141 -190q0 -117 72 -117q96 0 96 105z" />
<glyph unicode="&#xe1;" horiz-adv-x="860" d="M390 1020q-42 0 -42 53q0 21 8 41l120 302q7 17 28 17q32 0 95 -43q38 -26 38 -47q0 -6 -3 -11l-176 -263q-32 -49 -68 -49zM866 88q-58 -113 -190 -113q-92 0 -162 82q-14 19 -21 19q-13 0 -28 -17q-82 -82 -199 -82q-125 0 -177 85q-26 43 -26 100q0 121 212 231 l151 72q35 20 35 47v190q0 72 -105 72q-79 0 -116 -51q-9 -14 -10 -75q0 -35 -5 -52q-25 -88 -92 -88q-90 0 -90 78q0 67 56 144q31 44 65 65q120 75 264 75q113 0 195 -56q65 -44 67 -107v-508q0 -114 67 -114h4q29 0 68 36q8 8 28 -9q10 -10 10 -18q0 -3 -1 -6zM461 193 v182q0 23 -14 23q-7 0 -13 -3q-141 -71 -141 -190q0 -117 72 -117q96 0 96 105z" />
<glyph unicode="&#xe2;" horiz-adv-x="860" d="M659 1063q2 -4 2 -8q0 -12 -19 -24q-18 -11 -28 -11q-6 0 -9 4l-182 213q-25 28 -42 28q-19 0 -44 -28l-182 -213q-4 -4 -10 -4q-10 0 -26 10q-19 13 -19 25q0 4 2 8l229 412q16 31 48 31q34 0 50 -31zM866 88q-58 -113 -190 -113q-92 0 -162 82q-14 19 -21 19 q-13 0 -28 -17q-82 -82 -199 -82q-125 0 -177 85q-26 43 -26 100q0 121 212 231l151 72q35 20 35 47v190q0 72 -105 72q-79 0 -116 -51q-9 -14 -10 -75q0 -35 -5 -52q-25 -88 -92 -88q-90 0 -90 78q0 67 56 144q31 44 65 65q120 75 264 75q113 0 195 -56q65 -44 67 -107 v-508q0 -114 67 -114h4q29 0 68 36q8 8 28 -9q10 -10 10 -18q0 -3 -1 -6zM461 193v182q0 23 -14 23q-7 0 -13 -3q-141 -71 -141 -190q0 -117 72 -117q96 0 96 105z" />
<glyph unicode="&#xe3;" horiz-adv-x="860" d="M723 1212q-110 -164 -219 -164q-41 0 -127 31q-94 33 -127 33q-63 0 -112 -59q-3 -3 -8 -3q-9 0 -23 14q-15 15 -15 24q0 3 2 5q106 160 218 160q50 0 133 -33q75 -27 110 -27q64 0 122 62q2 3 6 3q8 0 24 -13q18 -16 18 -27q0 -3 -2 -6zM866 88q-58 -113 -190 -113 q-92 0 -162 82q-14 19 -21 19q-13 0 -28 -17q-82 -82 -199 -82q-125 0 -177 85q-26 43 -26 100q0 121 212 231l151 72q35 20 35 47v190q0 72 -105 72q-79 0 -116 -51q-9 -14 -10 -75q0 -35 -5 -52q-25 -88 -92 -88q-90 0 -90 78q0 67 56 144q31 44 65 65q120 75 264 75 q113 0 195 -56q65 -44 67 -107v-508q0 -114 67 -114h4q29 0 68 36q8 8 28 -9q10 -10 10 -18q0 -3 -1 -6zM461 193v182q0 23 -14 23q-7 0 -13 -3q-141 -71 -141 -190q0 -117 72 -117q96 0 96 105z" />
<glyph unicode="&#xe4;" horiz-adv-x="860" d="M733 1179q0 -79 -60 -114q-29 -17 -65 -17q-84 0 -116 63q-12 25 -13 58q0 74 57 111q32 20 72 20q67 0 104 -54q21 -31 21 -67zM303 1179q0 -79 -60 -114q-29 -17 -65 -17q-84 0 -116 63q-12 25 -13 58q0 74 57 111q32 20 72 20q68 0 104 -54q21 -32 21 -67zM866 88 q-58 -113 -190 -113q-92 0 -162 82q-14 19 -21 19q-13 0 -28 -17q-82 -82 -199 -82q-125 0 -177 85q-26 43 -26 100q0 121 212 231l151 72q35 20 35 47v190q0 72 -105 72q-79 0 -116 -51q-9 -14 -10 -75q0 -35 -5 -52q-25 -88 -92 -88q-90 0 -90 78q0 67 56 144q31 44 65 65 q120 75 264 75q113 0 195 -56q65 -44 67 -107v-508q0 -114 67 -114h4q29 0 68 36q8 8 28 -9q10 -10 10 -18q0 -3 -1 -6zM461 193v182q0 23 -14 23q-7 0 -13 -3q-141 -71 -141 -190q0 -117 72 -117q96 0 96 105z" />
<glyph unicode="&#xe5;" horiz-adv-x="860" d="M661 1245q0 -112 -102 -185q-57 -40 -144 -40q-126 0 -197 88q-49 60 -49 137q0 96 73 161q69 62 173 62q127 0 198 -88q48 -59 48 -135zM524 1245q0 78 -53 124q-22 19 -56 19q-64 0 -96 -75q-12 -29 -12 -68q0 -86 52 -122q25 -17 56 -17q68 0 96 68q13 32 13 71z M866 88q-58 -113 -190 -113q-92 0 -162 82q-14 19 -21 19q-13 0 -28 -17q-82 -82 -199 -82q-125 0 -177 85q-26 43 -26 100q0 121 212 231l151 72q35 20 35 47v190q0 72 -105 72q-79 0 -116 -51q-9 -14 -10 -75q0 -35 -5 -52q-25 -88 -92 -88q-90 0 -90 78q0 67 56 144 q31 44 65 65q120 75 264 75q113 0 195 -56q65 -44 67 -107v-508q0 -114 67 -114h4q29 0 68 36q8 8 28 -9q10 -10 10 -18q0 -3 -1 -6zM461 193v182q0 23 -14 23q-7 0 -13 -3q-141 -71 -141 -190q0 -117 72 -117q96 0 96 105z" />
<glyph unicode="&#xe6;" horiz-adv-x="1239" d="M1176 154q-148 -177 -361 -177q-104 0 -196 69q-28 21 -50 46q-17 22 -26 22q-8 0 -33 -22q-60 -67 -117 -87q-41 -15 -96 -15q-151 0 -206 87q-23 37 -23 85q0 153 159 219l207 90q35 15 35 59v148q0 110 -98 110q-65 0 -111 -61q-9 -12 -9 -49l1 -41q0 -75 -46 -110 q-25 -19 -59 -19q-88 0 -88 80q0 65 55 140q30 40 62 60q138 82 250 82q104 0 177 -56q26 -25 38 -25q13 0 35 20q77 61 180 61q183 0 276 -88q39 -40 39 -65q0 -27 -57 -51l-387 -162q-41 -16 -41 -80q0 -89 53 -174q74 -117 195 -117q79 0 159 48q15 9 23 18q14 13 42 -9 q20 -20 20 -30q0 -4 -2 -6zM975 713q0 29 -39 54q-32 21 -70 21q-60 0 -119 -76q-45 -59 -47 -106q0 -16 15 -16l243 98q17 6 17 25zM494 225q-15 38 -25 142q-2 22 -14 22q-8 0 -19 -6q-139 -77 -139 -193q0 -61 44 -87q19 -11 40 -11q45 0 98 68q19 24 19 44q0 10 -4 21z " />
<glyph unicode="&#xe7;" horiz-adv-x="880" d="M576 -338q0 -86 -88 -142q-74 -48 -172 -48q-124 0 -151 61q-6 13 -6 29q0 42 36 61q13 7 29 7q31 0 75 -39q43 -37 65 -37q53 0 53 51q0 77 -142 142q-20 9 -20 17q0 5 6 13l141 209h109l-78 -106q-9 -12 -9 -18q0 -10 28 -26q124 -66 124 -174zM709 620q-37 0 -56 29 l-39 66q-39 59 -112 59q-81 0 -141 -93q-66 -102 -66 -245q0 -133 88 -227q79 -84 180 -84q109 0 187 55q17 12 46 -30q16 -26 16 -40q0 -10 -7 -14l-82 -53q-116 -66 -266 -66q-140 0 -251 99q-140 123 -140 311q0 170 106 307q136 176 350 176q135 0 223 -45 q39 -20 54 -45q6 -16 6 -40q0 -52 -31 -85q-35 -35 -65 -35z" />
<glyph unicode="&#xe8;" horiz-adv-x="876" d="M533 1114q8 -22 8 -40q0 -54 -42 -54q-35 0 -69 49l-169 249q-5 8 -5 16q0 32 58 63q42 23 74 23q24 0 28 -14zM809 612q0 -75 -90 -75h-385q-37 0 -37 -27q0 -237 112 -334q62 -53 152 -53q81 0 166 55q20 11 49 -26q26 -35 15 -46q-48 -49 -134 -88q-88 -41 -202 -41 q-135 0 -243 109q-144 144 -144 350q0 165 107 291q122 143 286 143q178 0 283 -119q65 -89 65 -139zM309 653q0 -26 37 -26h203q37 0 37 24q0 67 -55 112q-34 28 -68 28q-64 0 -113 -43q-41 -40 -41 -95z" />
<glyph unicode="&#xe9;" horiz-adv-x="876" d="M452 1020q-42 0 -42 53q0 21 8 41l120 302q7 17 28 17q32 0 95 -43q38 -26 38 -47q0 -6 -3 -11l-176 -263q-32 -49 -68 -49zM809 612q0 -75 -90 -75h-385q-37 0 -37 -27q0 -237 112 -334q62 -53 152 -53q81 0 166 55q20 11 49 -26q26 -35 15 -46q-48 -49 -134 -88 q-88 -41 -202 -41q-135 0 -243 109q-144 144 -144 350q0 165 107 291q122 143 286 143q178 0 283 -119q65 -89 65 -139zM309 653q0 -26 37 -26h203q37 0 37 24q0 67 -55 112q-34 28 -68 28q-64 0 -113 -43q-41 -40 -41 -95z" />
<glyph unicode="&#xea;" horiz-adv-x="876" d="M740 1063q2 -4 2 -8q0 -12 -19 -24q-18 -11 -28 -11q-6 0 -9 4l-182 213q-25 28 -42 28q-19 0 -44 -28l-182 -213q-4 -4 -10 -4q-10 0 -26 10q-19 13 -19 25q0 4 2 8l229 412q16 31 48 31q34 0 50 -31zM809 612q0 -75 -90 -75h-385q-37 0 -37 -27q0 -237 112 -334 q62 -53 152 -53q81 0 166 55q20 11 49 -26q26 -35 15 -46q-48 -49 -134 -88q-88 -41 -202 -41q-135 0 -243 109q-144 144 -144 350q0 165 107 291q122 143 286 143q178 0 283 -119q65 -89 65 -139zM309 653q0 -26 37 -26h203q37 0 37 24q0 67 -55 112q-34 28 -68 28 q-64 0 -113 -43q-41 -40 -41 -95z" />
<glyph unicode="&#xeb;" horiz-adv-x="876" d="M803 1179q0 -79 -60 -114q-29 -17 -65 -17q-84 0 -116 63q-12 25 -13 58q0 74 57 111q32 20 72 20q67 0 104 -54q21 -31 21 -67zM373 1179q0 -79 -60 -114q-29 -17 -65 -17q-84 0 -116 63q-12 25 -13 58q0 74 57 111q32 20 72 20q68 0 104 -54q21 -32 21 -67zM809 612 q0 -75 -90 -75h-385q-37 0 -37 -27q0 -237 112 -334q62 -53 152 -53q81 0 166 55q20 11 49 -26q26 -35 15 -46q-48 -49 -134 -88q-88 -41 -202 -41q-135 0 -243 109q-144 144 -144 350q0 165 107 291q122 143 286 143q178 0 283 -119q65 -89 65 -139zM309 653q0 -26 37 -26 h203q37 0 37 24q0 67 -55 112q-34 28 -68 28q-64 0 -113 -43q-41 -40 -41 -95z" />
<glyph unicode="&#xec;" horiz-adv-x="524" d="M369 1114q8 -22 8 -40q0 -54 -42 -54q-35 0 -69 49l-169 249q-5 8 -5 16q0 32 58 63q42 23 74 23q24 0 28 -14zM393 143q0 -75 103 -75q15 0 15 -38t-15 -38q-84 8 -209 8q-144 0 -228 -8q-15 0 -15 38t15 38q105 0 105 75v414q0 125 -92 125q-16 0 -16 37t16 37 q50 0 187 68q63 31 83 48q13 11 31 11q28 0 26 -27q-6 -84 -6 -174v-539z" />
<glyph unicode="&#xed;" horiz-adv-x="524" d="M211 1020q-42 0 -42 53q0 21 8 41l120 302q7 17 28 17q32 0 95 -43q38 -26 38 -47q0 -6 -3 -11l-176 -263q-32 -49 -68 -49zM393 143q0 -75 103 -75q15 0 15 -38t-15 -38q-84 8 -209 8q-144 0 -228 -8q-15 0 -15 38t15 38q105 0 105 75v414q0 125 -92 125q-16 0 -16 37 t16 37q50 0 187 68q63 31 83 48q13 11 31 11q28 0 26 -27q-6 -84 -6 -174v-539z" />
<glyph unicode="&#xee;" horiz-adv-x="524" d="M560 1063q2 -4 2 -8q0 -12 -19 -24q-18 -11 -28 -11q-6 0 -9 4l-182 213q-25 28 -42 28q-19 0 -44 -28l-182 -213q-4 -4 -10 -4q-10 0 -26 10q-19 13 -19 25q0 4 2 8l229 412q16 31 48 31q34 0 50 -31zM393 143q0 -75 103 -75q15 0 15 -38t-15 -38q-84 8 -209 8 q-144 0 -228 -8q-15 0 -15 38t15 38q105 0 105 75v414q0 125 -92 125q-16 0 -16 37t16 37q50 0 187 68q63 31 83 48q13 11 31 11q28 0 26 -27q-6 -84 -6 -174v-539z" />
<glyph unicode="&#xef;" horiz-adv-x="524" d="M602 1179q0 -79 -60 -114q-29 -17 -65 -17q-84 0 -116 63q-12 25 -13 58q0 74 57 111q32 20 72 20q67 0 104 -54q21 -31 21 -67zM172 1179q0 -79 -60 -114q-29 -17 -65 -17q-84 0 -116 63q-12 25 -13 58q0 74 57 111q32 20 72 20q68 0 104 -54q21 -32 21 -67zM393 143 q0 -75 103 -75q15 0 15 -38t-15 -38q-84 8 -209 8q-144 0 -228 -8q-15 0 -15 38t15 38q105 0 105 75v414q0 125 -92 125q-16 0 -16 37t16 37q50 0 187 68q63 31 83 48q13 11 31 11q28 0 26 -27q-6 -84 -6 -174v-539z" />
<glyph unicode="&#xf0;" horiz-adv-x="1075" d="M745 444q0 163 -73 267q-56 82 -129 82q-78 0 -143 -84q-81 -106 -81 -265q0 -180 81 -294q62 -89 143 -89q94 0 151 121q51 107 51 262zM873 101q-122 -124 -331 -124q-207 0 -339 124q-137 130 -137 348q0 150 105 267q137 154 361 154q-76 76 -200 156q-17 11 -30 11 q-15 0 -34 -15l-200 -158q-1 -1 -3 -1q-15 0 -63 73q-41 65 -42 78q0 8 8 4q64 -33 95 -33q22 0 37 12l88 70q18 14 18 22q0 9 -18 19q-130 68 -180 88q-8 3 -8 14q0 16 14 46q20 44 39 36q151 -62 230 -104q20 -11 32 -11q15 0 39 19l295 229q2 1 4 1q17 0 65 -62 q45 -56 54 -71q1 -9 -6 -9l-117 25q-20 0 -31 -9l-186 -147q-18 -14 -18 -23q0 -11 22 -24q334 -196 457 -373q106 -153 106 -282q0 -221 -126 -350z" />
<glyph unicode="&#xf1;" horiz-adv-x="1087" d="M865 1212q-110 -164 -219 -164q-41 0 -127 31q-94 33 -127 33q-63 0 -112 -59q-3 -3 -8 -3q-9 0 -23 14q-15 15 -15 24q0 3 2 5q106 160 218 160q50 0 133 -33q75 -27 110 -27q64 0 122 62q2 3 6 3q8 0 24 -13q18 -16 18 -27q0 -3 -2 -6zM1069 -8q-107 8 -211 8 q-105 0 -225 -8h-1q-14 0 -14 38t15 38q101 0 101 62v407q0 149 -59 200q-29 25 -96 25q-62 0 -119 -50q-67 -58 -67 -120v-449q0 -75 99 -75q15 0 15 -38t-15 -38q-84 8 -216 8q-135 0 -219 -8q-15 0 -15 38t15 38q107 0 107 75v406q0 133 -92 133q-16 0 -16 36q0 38 16 38 q50 0 187 68q63 31 83 48q13 11 27 11q29 0 30 -27l-6 -68q0 -19 9 -19t18 9q42 55 138 81q41 11 95 11q189 0 274 -185q36 -73 36 -220v-329q0 -68 106 -68q16 0 16 -38t-16 -38z" />
<glyph unicode="&#xf2;" horiz-adv-x="1032" d="M580 1114q8 -22 8 -40q0 -54 -42 -54q-35 0 -69 49l-169 249q-5 8 -5 16q0 32 58 63q42 23 74 23q24 0 28 -14zM969 426q0 -209 -123 -331q-119 -118 -328 -118q-185 0 -313 122q-139 131 -139 325q0 170 110 296q132 150 340 150q218 0 351 -158q102 -122 102 -286z M715 420q0 184 -71 292q-53 81 -126 81q-82 0 -139 -104q-60 -109 -60 -269q0 -185 73 -287q52 -72 124 -72q94 0 150 114q49 99 49 245z" />
<glyph unicode="&#xf3;" horiz-adv-x="1032" d="M483 1020q-42 0 -42 53q0 21 8 41l120 302q7 17 28 17q32 0 95 -43q38 -26 38 -47q0 -6 -3 -11l-176 -263q-32 -49 -68 -49zM969 426q0 -209 -123 -331q-119 -118 -328 -118q-185 0 -313 122q-139 131 -139 325q0 170 110 296q132 150 340 150q218 0 351 -158 q102 -122 102 -286zM715 420q0 184 -71 292q-53 81 -126 81q-82 0 -139 -104q-60 -109 -60 -269q0 -185 73 -287q52 -72 124 -72q94 0 150 114q49 99 49 245z" />
<glyph unicode="&#xf4;" horiz-adv-x="1032" d="M791 1063q2 -4 2 -8q0 -12 -19 -24q-18 -11 -28 -11q-6 0 -9 4l-182 213q-25 28 -42 28q-19 0 -44 -28l-182 -213q-4 -4 -10 -4q-10 0 -26 10q-19 13 -19 25q0 4 2 8l229 412q16 31 48 31q34 0 50 -31zM969 426q0 -209 -123 -331q-119 -118 -328 -118q-185 0 -313 122 q-139 131 -139 325q0 170 110 296q132 150 340 150q218 0 351 -158q102 -122 102 -286zM715 420q0 184 -71 292q-53 81 -126 81q-82 0 -139 -104q-60 -109 -60 -269q0 -185 73 -287q52 -72 124 -72q94 0 150 114q49 99 49 245z" />
<glyph unicode="&#xf5;" horiz-adv-x="1032" d="M831 1212q-110 -164 -219 -164q-41 0 -127 31q-94 33 -127 33q-63 0 -112 -59q-3 -3 -8 -3q-9 0 -23 14q-15 15 -15 24q0 3 2 5q106 160 218 160q50 0 133 -33q75 -27 110 -27q64 0 122 62q2 3 6 3q8 0 24 -13q18 -16 18 -27q0 -3 -2 -6zM969 426q0 -209 -123 -331 q-119 -118 -328 -118q-185 0 -313 122q-139 131 -139 325q0 170 110 296q132 150 340 150q218 0 351 -158q102 -122 102 -286zM715 420q0 184 -71 292q-53 81 -126 81q-82 0 -139 -104q-60 -109 -60 -269q0 -185 73 -287q52 -72 124 -72q94 0 150 114q49 99 49 245z" />
<glyph unicode="&#xf6;" horiz-adv-x="1032" d="M858 1179q0 -79 -60 -114q-29 -17 -65 -17q-84 0 -116 63q-12 25 -13 58q0 74 57 111q32 20 72 20q67 0 104 -54q21 -31 21 -67zM428 1179q0 -79 -60 -114q-29 -17 -65 -17q-84 0 -116 63q-12 25 -13 58q0 74 57 111q32 20 72 20q68 0 104 -54q21 -32 21 -67zM969 426 q0 -209 -123 -331q-119 -118 -328 -118q-185 0 -313 122q-139 131 -139 325q0 170 110 296q132 150 340 150q218 0 351 -158q102 -122 102 -286zM715 420q0 184 -71 292q-53 81 -126 81q-82 0 -139 -104q-60 -109 -60 -269q0 -185 73 -287q52 -72 124 -72q94 0 150 114 q49 99 49 245z" />
<glyph unicode="&#xf7;" horiz-adv-x="1050" d="M659 786q0 -71 -60 -105q-31 -17 -69 -17q-65 0 -105 42q-34 35 -34 93q0 50 37 86q37 37 102 37t103 -52q26 -36 26 -84zM971 383h-889v158h889v-158zM659 125q0 -73 -62 -107l-28 -11q-19 -5 -39 -5q-64 0 -104 41q-35 36 -35 94q0 50 37 86q37 37 102 37t104 -52 q25 -35 25 -83z" />
<glyph unicode="&#xf8;" horiz-adv-x="1032" d="M221 -88q-5 -7 -14 -7q-13 0 -38 19q-24 21 -24 34q0 4 2 7l684 953q6 8 16 8q13 0 35 -14q29 -19 29 -35q0 -7 -4 -13zM969 426q0 -209 -123 -331q-119 -118 -328 -118q-185 0 -313 122q-139 131 -139 325q0 170 110 296q132 150 340 150q218 0 351 -158 q102 -122 102 -286zM715 420q0 184 -71 292q-53 81 -126 81q-82 0 -139 -104q-60 -109 -60 -269q0 -185 73 -287q52 -72 124 -72q94 0 150 114q49 99 49 245z" />
<glyph unicode="&#xf9;" horiz-adv-x="1028" d="M586 1114q8 -22 8 -40q0 -54 -42 -54q-35 0 -69 49l-169 249q-5 8 -5 16q0 32 58 63q42 23 74 23q24 0 28 -14zM1038 31q-8 -2 -105 -21l-51 -10q-56 -12 -114 -31q-13 -4 -24 -4q-15 0 -15 45v47q0 23 -12 23t-27 -14q-92 -89 -246 -89q-126 0 -170 35 q-147 118 -147 297v346q0 103 -84 103q-15 0 -15 36.5t15 36.5q112 0 224 18q31 5 50 5q46 0 46 -44q-7 -98 -7 -161v-342q0 -123 50 -182q28 -33 98 -33q64 0 132 55q54 44 54 93v415q0 103 -84 103q-16 0 -16 36.5t16 36.5q111 0 229 19q25 4 39 4q53 0 53 -36 q-8 -95 -8 -156v-406q0 -90 10 -117q14 -40 53 -40q13 0 33 5q16 4 27 -32q3 -14 3 -23q0 -15 -7 -18z" />
<glyph unicode="&#xfa;" horiz-adv-x="1028" d="M469 1020q-42 0 -42 53q0 21 8 41l120 302q7 17 28 17q32 0 95 -43q38 -26 38 -47q0 -6 -3 -11l-176 -263q-32 -49 -68 -49zM1038 31q-8 -2 -105 -21l-51 -10q-56 -12 -114 -31q-13 -4 -24 -4q-15 0 -15 45v47q0 23 -12 23t-27 -14q-92 -89 -246 -89q-126 0 -170 35 q-147 118 -147 297v346q0 103 -84 103q-15 0 -15 36.5t15 36.5q112 0 224 18q31 5 50 5q46 0 46 -44q-7 -98 -7 -161v-342q0 -123 50 -182q28 -33 98 -33q64 0 132 55q54 44 54 93v415q0 103 -84 103q-16 0 -16 36.5t16 36.5q111 0 229 19q25 4 39 4q53 0 53 -36 q-8 -95 -8 -156v-406q0 -90 10 -117q14 -40 53 -40q13 0 33 5q16 4 27 -32q3 -14 3 -23q0 -15 -7 -18z" />
<glyph unicode="&#xfb;" horiz-adv-x="1028" d="M781 1063q2 -4 2 -8q0 -12 -19 -24q-18 -11 -28 -11q-6 0 -9 4l-182 213q-25 28 -42 28q-19 0 -44 -28l-182 -213q-4 -4 -10 -4q-10 0 -26 10q-19 13 -19 25q0 4 2 8l229 412q16 31 48 31q34 0 50 -31zM1038 31q-8 -2 -105 -21l-51 -10q-56 -12 -114 -31q-13 -4 -24 -4 q-15 0 -15 45v47q0 23 -12 23t-27 -14q-92 -89 -246 -89q-126 0 -170 35q-147 118 -147 297v346q0 103 -84 103q-15 0 -15 36.5t15 36.5q112 0 224 18q31 5 50 5q46 0 46 -44q-7 -98 -7 -161v-342q0 -123 50 -182q28 -33 98 -33q64 0 132 55q54 44 54 93v415q0 103 -84 103 q-16 0 -16 36.5t16 36.5q111 0 229 19q25 4 39 4q53 0 53 -36q-8 -95 -8 -156v-406q0 -90 10 -117q14 -40 53 -40q13 0 33 5q16 4 27 -32q3 -14 3 -23q0 -15 -7 -18z" />
<glyph unicode="&#xfc;" horiz-adv-x="1028" d="M835 1179q0 -79 -60 -114q-29 -17 -65 -17q-84 0 -116 63q-12 25 -13 58q0 74 57 111q32 20 72 20q67 0 104 -54q21 -31 21 -67zM405 1179q0 -79 -60 -114q-29 -17 -65 -17q-84 0 -116 63q-12 25 -13 58q0 74 57 111q32 20 72 20q68 0 104 -54q21 -32 21 -67zM1038 31 q-8 -2 -105 -21l-51 -10q-56 -12 -114 -31q-13 -4 -24 -4q-15 0 -15 45v47q0 23 -12 23t-27 -14q-92 -89 -246 -89q-126 0 -170 35q-147 118 -147 297v346q0 103 -84 103q-15 0 -15 36.5t15 36.5q112 0 224 18q31 5 50 5q46 0 46 -44q-7 -98 -7 -161v-342q0 -123 50 -182 q28 -33 98 -33q64 0 132 55q54 44 54 93v415q0 103 -84 103q-16 0 -16 36.5t16 36.5q111 0 229 19q25 4 39 4q53 0 53 -36q-8 -95 -8 -156v-406q0 -90 10 -117q14 -40 53 -40q13 0 33 5q16 4 27 -32q3 -14 3 -23q0 -15 -7 -18z" />
<glyph unicode="&#xfd;" horiz-adv-x="884" d="M436 1020q-42 0 -42 53q0 21 8 41l120 302q7 17 28 17q32 0 95 -43q38 -26 38 -47q0 -6 -3 -11l-176 -263q-32 -49 -68 -49zM338 -399q-41 -106 -128 -141q-33 -13 -69 -13q-62 0 -101 43q-26 30 -26 68q0 61 59 91q30 15 66 15q104 0 121 39l78 182q7 18 7 35t-7 35 l-270 758q-26 71 -107 71q-15 0 -15 36t15 36q63 -6 203 -6q148 0 211 6q15 0 15 -36t-15 -36q-80 0 -80 -47q0 -15 8 -37l152 -424q7 -20 17 -20q13 0 22 23l165 421q5 13 5 23q0 61 -121 61q-16 0 -16 36t16 36q60 -6 194 -6q114 0 174 6q16 0 16 -36t-16 -36 q-92 0 -125 -59z" />
<glyph unicode="&#xfe;" horiz-adv-x="1046" d="M977 508q0 -264 -241 -416q-105 -66 -345 -104q-24 -4 -24 -33v-348q0 -80 -82 -107l-174 -57q-4 -1 -8 -1q-24 0 -46 40q-18 38 4 53l62 43q14 8 14 31v1544q0 133 -92 133q-15 0 -15 37t15 37q44 0 187 68q65 31 85 49q15 10 29 10q29 0 29 -29q-8 -131 -8 -229v-404 q0 -23 14 -23q8 0 18 9q70 59 189 59q160 0 264 -78q125 -94 125 -284zM723 457q0 321 -178 321q-105 0 -166 -90q-12 -24 -12 -63v-525q0 -19 19 -19q4 0 9 1q132 16 211 112q117 143 117 263z" />
<glyph unicode="&#xff;" horiz-adv-x="884" d="M799 1179q0 -79 -60 -114q-29 -17 -65 -17q-84 0 -116 63q-12 25 -13 58q0 74 57 111q32 20 72 20q67 0 104 -54q21 -31 21 -67zM369 1179q0 -79 -60 -114q-29 -17 -65 -17q-84 0 -116 63q-12 25 -13 58q0 74 57 111q32 20 72 20q68 0 104 -54q21 -32 21 -67zM338 -399 q-41 -106 -128 -141q-33 -13 -69 -13q-62 0 -101 43q-26 30 -26 68q0 61 59 91q30 15 66 15q104 0 121 39l78 182q7 18 7 35t-7 35l-270 758q-26 71 -107 71q-15 0 -15 36t15 36q63 -6 203 -6q148 0 211 6q15 0 15 -36t-15 -36q-80 0 -80 -47q0 -15 8 -37l152 -424 q7 -20 17 -20q13 0 22 23l165 421q5 13 5 23q0 61 -121 61q-16 0 -16 36t16 36q60 -6 194 -6q114 0 174 6q16 0 16 -36t-16 -36q-92 0 -125 -59z" />
<glyph unicode="&#x100;" horiz-adv-x="1401" d="M1011 1710q25 0 25 -46v-6q-2 -53 -28 -53h-591q-25 0 -25 52.5t25 52.5h594zM1196 202q41 -116 202 -116q15 0 15 -46.5t-15 -46.5q-115 7 -265 7t-275 -7q-15 0 -15 46.5t15 46.5q96 0 96 65q0 21 -10 51l-100 297q-7 22 -34 24h-373q-21 0 -32 -29l-109 -293 q-9 -24 -9 -42q0 -73 147 -73q13 0 13 -46.5t-13 -46.5q-83 7 -233 7t-228 -7q-14 0 -14 46.5t14 46.5q152 0 202 131l370 968q13 30 13 38t-14.5 22t-14.5 23q0 15 33 26t103.5 53t89.5 42q33 0 44 -47.5t53 -164.5zM649 1068q-5 16 -16 16q-10 0 -16 -16l-159 -434 q-4 -9 -4 -16q0 -11 21 -11h293q28 0 28 22q0 6 -3 15z" />
<glyph unicode="&#x101;" horiz-adv-x="860" d="M645 1240q27 0 27 -52q0 -60 -31 -60h-446q-23 0 -23 58q0 54 23 54h450zM866 88q-58 -113 -190 -113q-92 0 -162 82q-14 19 -21 19q-13 0 -28 -17q-82 -82 -199 -82q-125 0 -177 85q-26 43 -26 100q0 121 212 231l151 72q35 20 35 47v190q0 72 -105 72q-79 0 -116 -51 q-9 -14 -10 -75q0 -35 -5 -52q-25 -88 -92 -88q-90 0 -90 78q0 67 56 144q31 44 65 65q120 75 264 75q113 0 195 -56q65 -44 67 -107v-508q0 -114 67 -114h4q29 0 68 36q8 8 28 -9q10 -10 10 -18q0 -3 -1 -6zM461 193v182q0 23 -14 23q-7 0 -13 -3q-141 -71 -141 -190 q0 -117 72 -117q96 0 96 105z" />
<glyph unicode="&#x102;" horiz-adv-x="1401" d="M971 1852q0 -307 -289 -307t-289 307q0 8 32 8q27 0 30 -8q38 -172 227 -172t227 172q2 8 31 8q31 0 31 -8zM1196 202q41 -116 202 -116q15 0 15 -46.5t-15 -46.5q-115 7 -265 7t-275 -7q-15 0 -15 46.5t15 46.5q96 0 96 65q0 21 -10 51l-100 297q-7 22 -34 24h-373 q-21 0 -32 -29l-109 -293q-9 -24 -9 -42q0 -73 147 -73q13 0 13 -46.5t-13 -46.5q-83 7 -233 7t-228 -7q-14 0 -14 46.5t14 46.5q152 0 202 131l370 968q13 30 13 38t-14.5 22t-14.5 23q0 15 33 26t103.5 53t89.5 42q33 0 44 -47.5t53 -164.5zM649 1068q-5 16 -16 16 q-10 0 -16 -16l-159 -434q-4 -9 -4 -16q0 -11 21 -11h293q28 0 28 22q0 6 -3 15z" />
<glyph unicode="&#x103;" horiz-adv-x="860" d="M688 1327q0 -307 -289 -307t-289 307q0 8 32 8q27 0 30 -8q38 -172 227 -172t227 172q2 8 31 8q31 0 31 -8zM866 88q-58 -113 -190 -113q-92 0 -162 82q-14 19 -21 19q-13 0 -28 -17q-82 -82 -199 -82q-125 0 -177 85q-26 43 -26 100q0 121 212 231l151 72q35 20 35 47 v190q0 72 -105 72q-79 0 -116 -51q-9 -14 -10 -75q0 -35 -5 -52q-25 -88 -92 -88q-90 0 -90 78q0 67 56 144q31 44 65 65q120 75 264 75q113 0 195 -56q65 -44 67 -107v-508q0 -114 67 -114h4q29 0 68 36q8 8 28 -9q10 -10 10 -18q0 -3 -1 -6zM461 193v182q0 23 -14 23 q-7 0 -13 -3q-141 -71 -141 -190q0 -117 72 -117q96 0 96 105z" />
<glyph unicode="&#x104;" horiz-adv-x="1401" d="M876 -304q0 160 229 344h107q-160 -168 -160 -286q0 -121 123 -121q61 0 103 31q20 -7 20 -39q-75 -113 -217 -113q-205 0 -205 184zM1196 202q41 -116 202 -116q15 0 15 -46.5t-15 -46.5q-115 7 -265 7t-275 -7q-15 0 -15 46.5t15 46.5q96 0 96 65q0 21 -10 51l-100 297 q-7 22 -34 24h-373q-21 0 -32 -29l-109 -293q-9 -24 -9 -42q0 -73 147 -73q13 0 13 -46.5t-13 -46.5q-83 7 -233 7t-228 -7q-14 0 -14 46.5t14 46.5q152 0 202 131l370 968q13 30 13 38t-14.5 22t-14.5 23q0 15 33 26t103.5 53t89.5 42q33 0 44 -47.5t53 -164.5zM649 1068 q-5 16 -16 16q-10 0 -16 -16l-159 -434q-4 -9 -4 -16q0 -11 21 -11h293q28 0 28 22q0 6 -3 15z" />
<glyph unicode="&#x105;" horiz-adv-x="860" d="M398 -304q0 160 229 344h107q-160 -168 -160 -286q0 -121 123 -121q61 0 103 31q20 -7 20 -39q-75 -113 -217 -113q-205 0 -205 184zM866 88q-58 -113 -190 -113q-92 0 -162 82q-14 19 -21 19q-13 0 -28 -17q-82 -82 -199 -82q-125 0 -177 85q-26 43 -26 100 q0 121 212 231l151 72q35 20 35 47v190q0 72 -105 72q-79 0 -116 -51q-9 -14 -10 -75q0 -35 -5 -52q-25 -88 -92 -88q-90 0 -90 78q0 67 56 144q31 44 65 65q120 75 264 75q113 0 195 -56q65 -44 67 -107v-508q0 -114 67 -114h4q29 0 68 36q8 8 28 -9q10 -10 10 -18 q0 -3 -1 -6zM461 193v182q0 23 -14 23q-7 0 -13 -3q-141 -71 -141 -190q0 -117 72 -117q96 0 96 105z" />
<glyph unicode="&#x106;" horiz-adv-x="1349" d="M1195 1731l-438 -200q-14 -7 -25 -7q-19 0 -31 17q-8 11 -8 22q0 16 18 31l379 298q7 5 16 5q18 0 43 -25q37 -37 50 -81q6 -20 6 -33q0 -18 -10 -27zM55 647q0 315 204.5 526.5t535.5 211.5q130 0 338 -43q56 -11 107 -13q33 -90 40 -326q0 -18 -46.5 -21t-47.5 13 q-10 110 -65.5 177t-140 96t-191.5 29q-207 0 -334 -168t-127 -424q0 -297 140.5 -467.5t316.5 -170.5h2q341 0 438 277q7 19 51 8q44 -10 44 -30q0 -18 -12 -62.5t-30 -91.5q-37 -96 -61 -132q-47 -7 -88 -19q-153 -44 -358 -44q-293 0 -504.5 189.5t-211.5 484.5z" />
<glyph unicode="&#x107;" horiz-adv-x="880" d="M502 1020q-42 0 -42 53q0 21 8 41l120 302q7 17 28 17q32 0 95 -43q38 -26 38 -47q0 -6 -3 -11l-176 -263q-32 -49 -68 -49zM709 620q-37 0 -56 29l-39 66q-39 59 -112 59q-81 0 -141 -93q-66 -102 -66 -245q0 -133 88 -227q79 -84 180 -84q109 0 187 55q17 12 46 -30 q16 -26 16 -40q0 -10 -7 -14l-82 -53q-116 -66 -266 -66q-140 0 -251 99q-140 123 -140 311q0 170 106 307q136 176 350 176q135 0 223 -45q39 -20 54 -45q6 -16 6 -40q0 -52 -31 -85q-35 -35 -65 -35z" />
<glyph unicode="&#x108;" horiz-adv-x="1349" d="M1163 1574q4 -4 4 -10q0 -8 -8 -21q-11 -19 -20 -19q-1 0 -3 1l-267 124q-19 8 -38 8t-37 -8l-266 -124l-2 -1q-12 4 -22 20q-10 14 -10 22q0 5 4 8l283 251q26 23 50.5 23t48.5 -23zM55 647q0 315 204.5 526.5t535.5 211.5q130 0 338 -43q56 -11 107 -13q33 -90 40 -326 q0 -18 -46.5 -21t-47.5 13q-10 110 -65.5 177t-140 96t-191.5 29q-207 0 -334 -168t-127 -424q0 -297 140.5 -467.5t316.5 -170.5h2q341 0 438 277q7 19 51 8q44 -10 44 -30q0 -18 -12 -62.5t-30 -91.5q-37 -96 -61 -132q-47 -7 -88 -19q-153 -44 -358 -44 q-293 0 -504.5 189.5t-211.5 484.5z" />
<glyph unicode="&#x109;" horiz-adv-x="880" d="M773 1063q2 -4 2 -8q0 -12 -19 -24q-18 -11 -28 -11q-6 0 -9 4l-182 213q-25 28 -42 28q-19 0 -44 -28l-182 -213q-4 -4 -10 -4q-10 0 -26 10q-19 13 -19 25q0 4 2 8l229 412q16 31 48 31q34 0 50 -31zM709 620q-37 0 -56 29l-39 66q-39 59 -112 59q-81 0 -141 -93 q-66 -102 -66 -245q0 -133 88 -227q79 -84 180 -84q109 0 187 55q17 12 46 -30q16 -26 16 -40q0 -10 -7 -14l-82 -53q-116 -66 -266 -66q-140 0 -251 99q-140 123 -140 311q0 170 106 307q136 176 350 176q135 0 223 -45q39 -20 54 -45q6 -16 6 -40q0 -52 -31 -85 q-35 -35 -65 -35z" />
<glyph unicode="&#x10a;" horiz-adv-x="1349" d="M667 1703q0 58 41 99t99 41t99 -41t41 -99t-41 -99t-99 -41t-99 41t-41 99zM55 647q0 315 204.5 526.5t535.5 211.5q130 0 338 -43q56 -11 107 -13q33 -90 40 -326q0 -18 -46.5 -21t-47.5 13q-10 110 -65.5 177t-140 96t-191.5 29q-207 0 -334 -168t-127 -424 q0 -297 140.5 -467.5t316.5 -170.5h2q341 0 438 277q7 19 51 8q44 -10 44 -30q0 -18 -12 -62.5t-30 -91.5q-37 -96 -61 -132q-47 -7 -88 -19q-153 -44 -358 -44q-293 0 -504.5 189.5t-211.5 484.5z" />
<glyph unicode="&#x10b;" horiz-adv-x="880" d="M370 1188q0 58 41 99t99 41t99 -41t41 -99t-41 -99t-99 -41t-99 41t-41 99zM709 620q-37 0 -56 29l-39 66q-39 59 -112 59q-81 0 -141 -93q-66 -102 -66 -245q0 -133 88 -227q79 -84 180 -84q109 0 187 55q17 12 46 -30q16 -26 16 -40q0 -10 -7 -14l-82 -53 q-116 -66 -266 -66q-140 0 -251 99q-140 123 -140 311q0 170 106 307q136 176 350 176q135 0 223 -45q39 -20 54 -45q6 -16 6 -40q0 -52 -31 -85q-35 -35 -65 -35z" />
<glyph unicode="&#x10c;" horiz-adv-x="1349" d="M481 1797q-4 4 -4 11q0 8 8 21q11 19 20 19q2 0 3 -1l268 -124q19 -9 37.5 -9t36.5 9l266 124l3 1q11 -4 22 -20q9 -14 9 -22q0 -6 -3 -9l-283 -250q-26 -23 -51 -23t-49 23zM55 647q0 315 204.5 526.5t535.5 211.5q130 0 338 -43q56 -11 107 -13q33 -90 40 -326 q0 -18 -46.5 -21t-47.5 13q-10 110 -65.5 177t-140 96t-191.5 29q-207 0 -334 -168t-127 -424q0 -297 140.5 -467.5t316.5 -170.5h2q341 0 438 277q7 19 51 8q44 -10 44 -30q0 -18 -12 -62.5t-30 -91.5q-37 -96 -61 -132q-47 -7 -88 -19q-153 -44 -358 -44 q-293 0 -504.5 189.5t-211.5 484.5z" />
<glyph unicode="&#x10d;" horiz-adv-x="880" d="M801 1463l-230 -412q-17 -31 -50 -31q-31 0 -48 31l-229 412q-2 3 -2 6q0 16 28 32q10 6 17 6q6 0 10 -5l182 -213q33 -39 43 -39t43 39l182 213q5 5 11 5q8 0 19 -7q26 -18 26 -31q0 -3 -2 -6zM709 620q-37 0 -56 29l-39 66q-39 59 -112 59q-81 0 -141 -93 q-66 -102 -66 -245q0 -133 88 -227q79 -84 180 -84q109 0 187 55q17 12 46 -30q16 -26 16 -40q0 -10 -7 -14l-82 -53q-116 -66 -266 -66q-140 0 -251 99q-140 123 -140 311q0 170 106 307q136 176 350 176q135 0 223 -45q39 -20 54 -45q6 -16 6 -40q0 -52 -31 -85 q-35 -35 -65 -35z" />
<glyph unicode="&#x10e;" horiz-adv-x="1567" d="M361 1797q-4 4 -4 11q0 8 8 21q11 19 20 19q2 0 3 -1l268 -124q19 -9 37.5 -9t36.5 9l266 124l3 1q11 -4 22 -20q9 -14 9 -22q0 -6 -3 -9l-283 -250q-26 -23 -51 -23t-49 23zM237 202v954q0 109 -172 109q-14 0 -14 46.5t14 46.5q143 -6 239 -6t218.5 3t195.5 3 q330 0 549.5 -169t219.5 -463q0 -338 -199 -535.5t-522 -197.5q-64 0 -208.5 3.5t-247.5 3.5t-235 -7q-15 0 -15 46.5t15 46.5q162 0 162 116zM481 273q0 -150 87 -186q39 -16 130 -16q218 0 367.5 170t149.5 475q0 214 -152.5 389t-426.5 175h-79q-76 0 -76 -79v-928z" />
<glyph unicode="&#x10f;" horiz-adv-x="1335" d="M1307 1270q0 -154 -156 -278q-63 -50 -118 -72l-11 -1q-13 3 -21 17l-3 13q0 3 2 5q70 60 101 150q16 45 16 88q0 26 -13 31q-45 20 -61 34q-47 39 -47 105q0 59 56 90q37 21 87 21q66 0 117 -59t51 -144zM1022 31q-29 -12 -156 -35q-102 -26 -131 -31h-12q-10 0 -10 45 v29q0 22 -11 22q-12 0 -28 -14q-94 -70 -195 -70q-244 0 -355 174q-71 111 -71 267q0 177 122 302q147 150 392 150q49 0 80 -4q27 -3 27 23v272q0 125 -92 125q-16 0 -16 36q0 38 16 38q50 0 185 67q65 32 85 50q13 10 27 10q30 0 30 -33q-6 -70 -6 -168v-1030 q0 -90 10 -117q14 -40 53 -40q13 0 33 5q16 4 27 -31q3 -15 3 -24q0 -15 -7 -18zM674 141v553q0 44 -4 52q-5 10 -17 18q-47 29 -112 29q-134 0 -196 -144q-38 -88 -38 -205q0 -193 79 -302q59 -81 144 -81q86 0 130 52q14 17 14 28z" />
<glyph unicode="&#x110;" horiz-adv-x="1567" d="M1487 726q0 -338 -200 -537q-198 -196 -521 -196l-348 7h-78q-165 0 -265 -7q-15 0 -15 46q0 47 15 47q162 0 162 116v392q0 31 -29 31h-179q-15 0 -15 46q0 47 15 47h179q29 0 29 29v409q0 109 -172 109q-14 0 -14 46q0 47 14 47q143 -6 288 -6l365 6q303 0 510 -139 q259 -174 259 -493zM1215 716q0 177 -99 324q-164 240 -480 240h-79q-76 0 -76 -79v-454q0 -29 27 -29h230q13 0 13 -46q0 -47 -13 -47h-230q-27 0 -27 -31v-321q0 -150 87 -186q39 -16 130 -16q213 0 353 153q164 178 164 492z" />
<glyph unicode="&#x111;" horiz-adv-x="1036" d="M903 1287v-87q0 -37 37 -37h133q16 0 16 -51q0 -53 -16 -53h-133q-37 0 -37 -37v-766q0 -90 10 -117q14 -40 53 -40q13 0 33 5q18 4 27 -32q8 -36 -4 -41q-69 -14 -156 -35q-103 -24 -131 -31q-3 -1 -6 -1t-6 1q-10 4 -10 45v29q0 22 -11 22q-9 0 -28 -14 q-94 -70 -195 -70q-231 0 -340 169q-73 113 -73 272q0 177 121 302q143 150 380 150q45 -1 99 -5q8 2 8 24v133q0 37 -37 37h-156q-15 0 -15 52t15 52h156q36 0 36 16q-10 107 -91 107q-16 0 -16 36q0 38 16 38q50 0 185 67q65 32 85 50q13 10 27 10q30 0 30 -33zM674 141 v553q0 44 -4 52q-5 10 -17 18q-47 29 -112 29q-129 0 -197 -131q-49 -94 -49 -218q0 -181 80 -293q65 -90 155 -90q86 0 130 52q14 17 14 28z" />
<glyph unicode="&#x112;" horiz-adv-x="1250" d="M935 1710q25 0 25 -46v-6q-2 -53 -28 -53h-591q-25 0 -25 52.5t25 52.5h594zM237 202v954q0 109 -172 109q-14 0 -14 46.5t14 46.5q143 -6 299 -6t371 3t337 3q57 0 57 -51v-306q0 -17 -50.5 -17t-50.5 17q0 130 -99 205q-61 47 -125 49l-296 10q-27 1 -27 -40v-509 q0 -29 29 -29h135q123 0 123 91v99q0 14 52.5 14t52.5 -14q-7 -67 -7 -231t7 -227q0 -15 -52.5 -15t-52.5 15v86q0 89 -123 89h-135q-29 0 -29 -31v-341q0 -77 75 -116q39 -20 81 -20l223 5q157 2 205 137q18 50 18 116q0 17 51 17t51 -17v-287q0 -64 -117 -64 q-187 0 -360 3.5t-335.5 3.5t-297.5 -7q-15 0 -15 46.5t15 46.5q162 0 162 116z" />
<glyph unicode="&#x113;" horiz-adv-x="876" d="M686 1240q27 0 27 -52q0 -60 -31 -60h-446q-23 0 -23 58q0 54 23 54h450zM809 612q0 -75 -90 -75h-385q-37 0 -37 -27q0 -237 112 -334q62 -53 152 -53q81 0 166 55q20 11 49 -26q26 -35 15 -46q-48 -49 -134 -88q-88 -41 -202 -41q-135 0 -243 109q-144 144 -144 350 q0 165 107 291q122 143 286 143q178 0 283 -119q65 -89 65 -139zM309 653q0 -26 37 -26h203q37 0 37 24q0 67 -55 112q-34 28 -68 28q-64 0 -113 -43q-41 -40 -41 -95z" />
<glyph unicode="&#x114;" horiz-adv-x="1250" d="M938 1852q0 -307 -289 -307t-289 307q0 8 32 8q27 0 30 -8q38 -172 227 -172t227 172q2 8 31 8q31 0 31 -8zM237 202v954q0 109 -172 109q-14 0 -14 46.5t14 46.5q143 -6 299 -6t371 3t337 3q57 0 57 -51v-306q0 -17 -50.5 -17t-50.5 17q0 130 -99 205q-61 47 -125 49 l-296 10q-27 1 -27 -40v-509q0 -29 29 -29h135q123 0 123 91v99q0 14 52.5 14t52.5 -14q-7 -67 -7 -231t7 -227q0 -15 -52.5 -15t-52.5 15v86q0 89 -123 89h-135q-29 0 -29 -31v-341q0 -77 75 -116q39 -20 81 -20l223 5q157 2 205 137q18 50 18 116q0 17 51 17t51 -17v-287 q0 -64 -117 -64q-187 0 -360 3.5t-335.5 3.5t-297.5 -7q-15 0 -15 46.5t15 46.5q162 0 162 116z" />
<glyph unicode="&#x115;" horiz-adv-x="876" d="M750 1327q0 -307 -289 -307t-289 307q0 8 32 8q27 0 30 -8q38 -172 227 -172t227 172q2 8 31 8q31 0 31 -8zM809 612q0 -75 -90 -75h-385q-37 0 -37 -27q0 -237 112 -334q62 -53 152 -53q81 0 166 55q20 11 49 -26q26 -35 15 -46q-48 -49 -134 -88q-88 -41 -202 -41 q-135 0 -243 109q-144 144 -144 350q0 165 107 291q122 143 286 143q178 0 283 -119q65 -89 65 -139zM309 653q0 -26 37 -26h203q37 0 37 24q0 67 -55 112q-34 28 -68 28q-64 0 -113 -43q-41 -40 -41 -95z" />
<glyph unicode="&#x116;" horiz-adv-x="1250" d="M517 1703q0 58 41 99t99 41t99 -41t41 -99t-41 -99t-99 -41t-99 41t-41 99zM237 202v954q0 109 -172 109q-14 0 -14 46.5t14 46.5q143 -6 299 -6t371 3t337 3q57 0 57 -51v-306q0 -17 -50.5 -17t-50.5 17q0 130 -99 205q-61 47 -125 49l-296 10q-27 1 -27 -40v-509 q0 -29 29 -29h135q123 0 123 91v99q0 14 52.5 14t52.5 -14q-7 -67 -7 -231t7 -227q0 -15 -52.5 -15t-52.5 15v86q0 89 -123 89h-135q-29 0 -29 -31v-341q0 -77 75 -116q39 -20 81 -20l223 5q157 2 205 137q18 50 18 116q0 17 51 17t51 -17v-287q0 -64 -117 -64 q-187 0 -360 3.5t-335.5 3.5t-297.5 -7q-15 0 -15 46.5t15 46.5q162 0 162 116z" />
<glyph unicode="&#x117;" horiz-adv-x="876" d="M321 1188q0 58 41 99t99 41t99 -41t41 -99t-41 -99t-99 -41t-99 41t-41 99zM809 612q0 -75 -90 -75h-385q-37 0 -37 -27q0 -237 112 -334q62 -53 152 -53q81 0 166 55q20 11 49 -26q26 -35 15 -46q-48 -49 -134 -88q-88 -41 -202 -41q-135 0 -243 109q-144 144 -144 350 q0 165 107 291q122 143 286 143q178 0 283 -119q65 -89 65 -139zM309 653q0 -26 37 -26h203q37 0 37 24q0 67 -55 112q-34 28 -68 28q-64 0 -113 -43q-41 -40 -41 -95z" />
<glyph unicode="&#x118;" horiz-adv-x="1250" d="M707 -304q0 160 229 344h107q-160 -168 -160 -286q0 -121 123 -121q61 0 103 31q20 -7 20 -39q-75 -113 -217 -113q-205 0 -205 184zM237 202v954q0 109 -172 109q-14 0 -14 46.5t14 46.5q143 -6 299 -6t371 3t337 3q57 0 57 -51v-306q0 -17 -50.5 -17t-50.5 17 q0 130 -99 205q-61 47 -125 49l-296 10q-27 1 -27 -40v-509q0 -29 29 -29h135q123 0 123 91v99q0 14 52.5 14t52.5 -14q-7 -67 -7 -231t7 -227q0 -15 -52.5 -15t-52.5 15v86q0 89 -123 89h-135q-29 0 -29 -31v-341q0 -77 75 -116q39 -20 81 -20l223 5q157 2 205 137 q18 50 18 116q0 17 51 17t51 -17v-287q0 -64 -117 -64q-187 0 -360 3.5t-335.5 3.5t-297.5 -7q-15 0 -15 46.5t15 46.5q162 0 162 116z" />
<glyph unicode="&#x119;" horiz-adv-x="876" d="M586 651q0 58 -41 99t-82 41q-63 0 -108.5 -39t-45.5 -99q0 -26 37 -26h203q37 0 37 24zM809 614q0 -77 -90 -77h-385q-37 0 -37 -27q0 -110 26 -196t87 -138.5t151 -52.5q81 0 166 55q20 11 48.5 -26.5t15.5 -45.5q-58 -36 -109.5 -89t-95.5 -126t-44 -137 q0 -121 123 -121q61 0 103 31q20 -7 20 -39q-75 -113 -217 -113q-88 0 -146.5 46.5t-58.5 137.5q0 64 46 136t120 131q28 22 -9 18q-31 -4 -68 -4q-110 0 -198.5 69.5t-138.5 168.5t-50 221q0 172 117.5 303t272.5 131q104 0 184 -40t123.5 -109t43.5 -107z" />
<glyph unicode="&#x11a;" horiz-adv-x="1250" d="M327 1797q-4 4 -4 11q0 8 8 21q11 19 20 19q2 0 3 -1l268 -124q19 -9 37.5 -9t36.5 9l266 124l3 1q11 -4 22 -20q9 -14 9 -22q0 -6 -3 -9l-283 -250q-26 -23 -51 -23t-49 23zM237 202v954q0 109 -172 109q-14 0 -14 46.5t14 46.5q143 -6 299 -6t371 3t337 3q57 0 57 -51 v-306q0 -17 -50.5 -17t-50.5 17q0 130 -99 205q-61 47 -125 49l-296 10q-27 1 -27 -40v-509q0 -29 29 -29h135q123 0 123 91v99q0 14 52.5 14t52.5 -14q-7 -67 -7 -231t7 -227q0 -15 -52.5 -15t-52.5 15v86q0 89 -123 89h-135q-29 0 -29 -31v-341q0 -77 75 -116 q39 -20 81 -20l223 5q157 2 205 137q18 50 18 116q0 17 51 17t51 -17v-287q0 -64 -117 -64q-187 0 -360 3.5t-335.5 3.5t-297.5 -7q-15 0 -15 46.5t15 46.5q162 0 162 116z" />
<glyph unicode="&#x11b;" horiz-adv-x="876" d="M740 1463l-230 -412q-17 -31 -50 -31q-31 0 -48 31l-229 412q-2 3 -2 6q0 16 28 32q10 6 17 6q6 0 10 -5l182 -213q33 -39 43 -39t43 39l182 213q5 5 11 5q8 0 19 -7q26 -18 26 -31q0 -3 -2 -6zM809 612q0 -75 -90 -75h-385q-37 0 -37 -27q0 -237 112 -334 q62 -53 152 -53q81 0 166 55q20 11 49 -26q26 -35 15 -46q-48 -49 -134 -88q-88 -41 -202 -41q-135 0 -243 109q-144 144 -144 350q0 165 107 291q122 143 286 143q178 0 283 -119q65 -89 65 -139zM309 653q0 -26 37 -26h203q37 0 37 24q0 67 -55 112q-34 28 -68 28 q-64 0 -113 -43q-41 -40 -41 -95z" />
<glyph unicode="&#x11c;" horiz-adv-x="1443" d="M1130 1574q4 -4 4 -10q0 -8 -8 -21q-11 -19 -20 -19q-1 0 -3 1l-267 124q-19 8 -38 8t-37 -8l-266 -124l-2 -1q-12 4 -22 20q-10 14 -10 22q0 5 4 8l283 251q26 23 50.5 23t48.5 -23zM832 523q0 46 14 46q60 -6 317 -6q168 0 228 6q13 0 13 -45q0 -46 -13 -46 q-108 0 -108 -77v-241q0 -45 42 -45q15 0 15 -39q0 -41 -15 -41q-50 0 -196 -24q-226 -38 -358 -38h-10q-257 0 -453 153q-253 198 -253 521q0 266 152 463q212 275 588 275q131 0 317 -38q70 -18 128 -18q28 -59 38 -275l2 -51q0 -18 -43 -22q-48 -2 -51 14 q-19 209 -211 275q-79 27 -186 27q-207 0 -334 -168t-127 -424q0 -324 171 -503q129 -135 286 -135q111 0 192 26q62 24 62 66v242q0 77 -114 77h-79q-14 0 -14 45z" />
<glyph unicode="&#x11d;" horiz-adv-x="948" d="M721 1063q2 -4 2 -8q0 -12 -19 -24q-18 -11 -28 -11q-6 0 -9 4l-182 213q-25 28 -42 28q-19 0 -44 -28l-182 -213q-4 -4 -10 -4q-10 0 -26 10q-19 13 -19 25q0 4 2 8l229 412q16 31 48 31q34 0 50 -31zM981 -141q0 -162 -147 -280q-173 -138 -422 -138q-300 0 -372 148 q-20 41 -20 92q0 81 103 166q34 28 80 51q14 7 14 14q0 5 -16 12q-133 56 -133 174q0 75 145 138q16 7 16 13q0 5 -18 17q-154 97 -154 262q0 141 109 240q112 102 276 102q111 0 222 -43q65 -28 91 -30h193q16 0 16 -55q0 -60 -16 -60h-92q-31 0 -31 -29v-78 q0 -169 -119 -270q-104 -88 -276 -88q-50 0 -106 7q-12 1 -23 -7q-37 -30 -37 -57q0 -32 40 -52q33 -16 87 -16h254q129 0 192 -21q144 -47 144 -212zM592 522q0 177 -71 242q-31 29 -75 29q-72 0 -119 -86q-38 -70 -38 -158q0 -121 59 -196q46 -58 113 -58q89 0 119 119 q12 48 12 108zM811 -242q0 131 -236 131h-212q-21 0 -41 -14q-63 -46 -64 -123q0 -75 60 -130q68 -62 186 -62q251 0 298 140q9 27 9 58z" />
<glyph unicode="&#x11e;" horiz-adv-x="1443" d="M1086 1852q0 -307 -289 -307t-289 307q0 8 32 8q27 0 30 -8q38 -172 227 -172t227 172q2 8 31 8q31 0 31 -8zM832 523q0 46 14 46q60 -6 317 -6q168 0 228 6q13 0 13 -45q0 -46 -13 -46q-108 0 -108 -77v-241q0 -45 42 -45q15 0 15 -39q0 -41 -15 -41q-50 0 -196 -24 q-226 -38 -358 -38h-10q-257 0 -453 153q-253 198 -253 521q0 266 152 463q212 275 588 275q131 0 317 -38q70 -18 128 -18q28 -59 38 -275l2 -51q0 -18 -43 -22q-48 -2 -51 14q-19 209 -211 275q-79 27 -186 27q-207 0 -334 -168t-127 -424q0 -324 171 -503 q129 -135 286 -135q111 0 192 26q62 24 62 66v242q0 77 -114 77h-79q-14 0 -14 45z" />
<glyph unicode="&#x11f;" horiz-adv-x="948" d="M731 1327q0 -307 -289 -307t-289 307q0 8 32 8q27 0 30 -8q38 -172 227 -172t227 172q2 8 31 8q31 0 31 -8zM981 -141q0 -162 -147 -280q-173 -138 -422 -138q-300 0 -372 148q-20 41 -20 92q0 81 103 166q34 28 80 51q14 7 14 14q0 5 -16 12q-133 56 -133 174 q0 75 145 138q16 7 16 13q0 5 -18 17q-154 97 -154 262q0 141 109 240q112 102 276 102q111 0 222 -43q65 -28 91 -30h193q16 0 16 -55q0 -60 -16 -60h-92q-31 0 -31 -29v-78q0 -169 -119 -270q-104 -88 -276 -88q-50 0 -106 7q-12 1 -23 -7q-37 -30 -37 -57q0 -32 40 -52 q33 -16 87 -16h254q129 0 192 -21q144 -47 144 -212zM592 522q0 177 -71 242q-31 29 -75 29q-72 0 -119 -86q-38 -70 -38 -158q0 -121 59 -196q46 -58 113 -58q89 0 119 119q12 48 12 108zM811 -242q0 131 -236 131h-212q-21 0 -41 -14q-63 -46 -64 -123q0 -75 60 -130 q68 -62 186 -62q251 0 298 140q9 27 9 58z" />
<glyph unicode="&#x120;" horiz-adv-x="1443" d="M672 1703q0 58 41 99t99 41t99 -41t41 -99t-41 -99t-99 -41t-99 41t-41 99zM832 523q0 46 14 46q60 -6 317 -6q168 0 228 6q13 0 13 -45q0 -46 -13 -46q-108 0 -108 -77v-241q0 -45 42 -45q15 0 15 -39q0 -41 -15 -41q-50 0 -196 -24q-226 -38 -358 -38h-10 q-257 0 -453 153q-253 198 -253 521q0 266 152 463q212 275 588 275q131 0 317 -38q70 -18 128 -18q28 -59 38 -275l2 -51q0 -18 -43 -22q-48 -2 -51 14q-19 209 -211 275q-79 27 -186 27q-207 0 -334 -168t-127 -424q0 -324 171 -503q129 -135 286 -135q111 0 192 26 q62 24 62 66v242q0 77 -114 77h-79q-14 0 -14 45z" />
<glyph unicode="&#x121;" horiz-adv-x="948" d="M302 1188q0 58 41 99t99 41t99 -41t41 -99t-41 -99t-99 -41t-99 41t-41 99zM981 -141q0 -162 -147 -280q-173 -138 -422 -138q-300 0 -372 148q-20 41 -20 92q0 81 103 166q34 28 80 51q14 7 14 14q0 5 -16 12q-133 56 -133 174q0 75 145 138q16 7 16 13q0 5 -18 17 q-154 97 -154 262q0 141 109 240q112 102 276 102q111 0 222 -43q65 -28 91 -30h193q16 0 16 -55q0 -60 -16 -60h-92q-31 0 -31 -29v-78q0 -169 -119 -270q-104 -88 -276 -88q-50 0 -106 7q-12 1 -23 -7q-37 -30 -37 -57q0 -32 40 -52q33 -16 87 -16h254q129 0 192 -21 q144 -47 144 -212zM592 522q0 177 -71 242q-31 29 -75 29q-72 0 -119 -86q-38 -70 -38 -158q0 -121 59 -196q46 -58 113 -58q89 0 119 119q12 48 12 108zM811 -242q0 131 -236 131h-212q-21 0 -41 -14q-63 -46 -64 -123q0 -75 60 -130q68 -62 186 -62q251 0 298 140 q9 27 9 58z" />
<glyph unicode="&#x122;" horiz-adv-x="1443" d="M947 -336q0 -86 -88 -142q-74 -48 -172 -48q-124 0 -151 61q-6 13 -6 29q0 42 36 61q13 7 29 7q31 0 75 -39q43 -37 65 -37q53 0 53 51q0 77 -142 142q-20 9 -20 17q0 5 6 13l141 209h109l-78 -106q-9 -12 -9 -18q0 -10 28 -26q124 -66 124 -174zM832 523q0 46 14 46 q60 -6 317 -6q168 0 228 6q13 0 13 -45q0 -46 -13 -46q-108 0 -108 -77v-241q0 -45 42 -45q15 0 15 -39q0 -41 -15 -41q-50 0 -196 -24q-226 -38 -358 -38h-10q-257 0 -453 153q-253 198 -253 521q0 266 152 463q212 275 588 275q131 0 317 -38q70 -18 128 -18 q28 -59 38 -275l2 -51q0 -18 -43 -22q-48 -2 -51 14q-19 209 -211 275q-79 27 -186 27q-207 0 -334 -168t-127 -424q0 -324 171 -503q129 -135 286 -135q111 0 192 26q62 24 62 66v242q0 77 -114 77h-79q-14 0 -14 45z" />
<glyph unicode="&#x123;" horiz-adv-x="948" d="M565 1152q0 -57 -56 -88q-37 -20 -87 -20q-66 0 -117 59t-51 144q0 155 159 280q61 47 115 70h12q15 -5 22 -22l1 -11q0 -2 -2 -4q-69 -54 -102 -143q-17 -47 -17 -93q0 -27 14 -32q63 -25 88 -63q21 -33 21 -77zM981 -141q0 -162 -147 -280q-173 -138 -422 -138 q-300 0 -372 148q-20 41 -20 92q0 81 103 166q34 28 80 51q14 7 14 14q0 5 -16 12q-133 56 -133 174q0 75 145 138q16 7 16 13q0 5 -18 17q-154 97 -154 262q0 141 109 240q112 102 276 102q111 0 222 -43q65 -28 91 -30h193q16 0 16 -55q0 -60 -16 -60h-92q-31 0 -31 -29 v-78q0 -169 -119 -270q-104 -88 -276 -88q-50 0 -106 7q-12 1 -23 -7q-37 -30 -37 -57q0 -32 40 -52q33 -16 87 -16h254q129 0 192 -21q144 -47 144 -212zM592 522q0 177 -71 242q-31 29 -75 29q-72 0 -119 -86q-38 -70 -38 -158q0 -121 59 -196q46 -58 113 -58 q89 0 119 119q12 48 12 108zM811 -242q0 131 -236 131h-212q-21 0 -41 -14q-63 -46 -64 -123q0 -75 60 -130q68 -62 186 -62q251 0 298 140q9 27 9 58z" />
<glyph unicode="&#x124;" horiz-adv-x="1686" d="M1158 1574q4 -4 4 -10q0 -8 -8 -21q-11 -19 -20 -19q-1 0 -3 1l-267 124q-19 8 -38 8t-37 -8l-266 -124l-2 -1q-12 4 -22 20q-10 14 -10 22q0 5 4 8l283 251q26 23 50.5 23t48.5 -23zM1432 202q0 -116 159 -116q14 0 14 -46q0 -47 -14 -47q-126 7 -280 7q-152 0 -285 -7 q-15 0 -15 46q0 47 15 47q162 0 162 116v417q0 34 -34 34h-638q-35 0 -35 -34v-417q0 -116 159 -116q14 0 14 -46q0 -47 -14 -47q-133 7 -279 7q-160 0 -286 -7q-15 0 -15 46q0 47 15 47q162 0 162 116v952q0 116 -161 116q-14 0 -14 46q0 47 14 47q48 -5 279 -5 q241 0 289 5q14 0 14 -46q0 -47 -14 -47q-163 0 -163 -116v-372q0 -35 35 -35h638q34 0 34 35v372q0 116 -160 116q-15 0 -15 46q0 47 15 47q45 -5 279 -5q241 0 288 5q15 0 15 -46q0 -47 -15 -47q-163 0 -163 -116v-952z" />
<glyph unicode="&#x125;" horiz-adv-x="1093" d="M543 1643q2 -4 2 -8q0 -12 -19 -24q-18 -11 -28 -11q-6 0 -9 4l-182 213q-25 28 -42 28q-19 0 -44 -28l-182 -213q-4 -4 -10 -4q-10 0 -26 10q-19 13 -19 25q0 4 2 8l229 412q16 31 48 31q34 0 50 -31zM1079 -8q-80 8 -221 8q-149 0 -229 -8q-16 0 -16 37q0 39 16 39 q104 0 104 64v423q0 75 -45 139q-49 68 -123 68q-90 0 -143 -63q-29 -35 -29 -72v-484q0 -75 103 -75q15 0 15 -38t-15 -38q-84 8 -209 8q-152 0 -236 -8q-15 0 -15 38q0 37 15 38q113 0 113 69v1024q0 125 -92 125q-16 0 -16 36q0 38 16 38q50 0 185 67q65 32 85 50 q13 10 29 10q27 0 28 -27q-2 -85 -6 -174v-465q0 -23 11 -23q8 0 22 11q82 61 211 61q180 0 270 -136q56 -84 56 -177v-414q7 -75 116 -75q16 0 16 -37q0 -39 -16 -39z" />
<glyph unicode="&#x126;" horiz-adv-x="1686" d="M1432 202q0 -116 159 -116q14 0 14 -46.5t-14 -46.5q-126 7 -279 7t-286 -7q-15 0 -15 46.5t15 46.5q162 0 162 116v417q0 34 -34 34h-638q-35 0 -35 -34v-417q0 -116 159 -116q14 0 14 -46.5t-14 -46.5q-133 7 -286 7t-279 -7q-15 0 -15 46.5t15 46.5q162 0 162 116v751 h-66q-19 0 -19 49.5t19 49.5h66v102q0 116 -161 116q-14 0 -14 46.5t14 46.5q48 -5 284 -5t284 5q14 0 14 -46.5t-14 -46.5q-163 0 -163 -116v-102h707v102q0 116 -160 116q-15 0 -15 46.5t15 46.5q45 -5 282.5 -5t284.5 5q15 0 15 -46.5t-15 -46.5q-163 0 -163 -116v-102 h80q20 0 20 -49.5t-22 -49.5h-78v-751zM1188 953h-707v-171q0 -35 35 -35h638q34 0 34 35v171z" />
<glyph unicode="&#x127;" horiz-adv-x="1093" d="M164 137v947h-184q-16 0 -16 45t16 45h184q-5 112 -92 112q-16 0 -16 37t16 37q49 0 185 67q56 27 85 50q13 10 29 10q30 0 28 -27q-6 -75 -6 -174v-112h176q16 0 16 -45t-16 -45h-176v-263q0 -23 11 -23q8 0 22 11q82 61 211 61q106 0 175.5 -43.5t110 -117.5t40.5 -152 v-414q0 -75 116 -75q16 0 16 -38t-16 -38q-80 8 -225 8t-225 -8q-16 0 -16 38t16 38q104 0 104 64v423q0 75 -47 141t-121 66q-90 0 -143 -63q-29 -35 -29 -72v-484q0 -75 103 -75q15 0 15 -38t-15 -38q-84 8 -222.5 8t-222.5 -8q-15 0 -15 37.5t15 38.5q113 0 113 69z" />
<glyph unicode="&#x128;" horiz-adv-x="734" d="M701 1712q-110 -164 -219 -164q-41 0 -127 31q-94 33 -127 33q-63 0 -112 -59q-3 -3 -8 -3q-9 0 -23 14q-15 15 -15 24q0 3 2 5q106 160 218 160q50 0 133 -33q75 -27 110 -27q64 0 122 62q2 3 6 3q8 0 24 -13q18 -16 18 -27q0 -3 -2 -6zM481 202q0 -116 159 -116 q14 0 14 -46q0 -47 -14 -47q-133 7 -279 7q-160 0 -286 -7q-15 0 -15 46q0 47 15 47q162 0 162 116v952q0 116 -161 116q-14 0 -14 46q0 47 14 47q48 -5 279 -5q241 0 289 5q14 0 14 -46q0 -47 -14 -47q-163 0 -163 -116v-952z" />
<glyph unicode="&#x129;" horiz-adv-x="524" d="M594 1212q-110 -164 -219 -164q-41 0 -127 31q-94 33 -127 33q-63 0 -112 -59q-3 -3 -8 -3q-9 0 -23 14q-15 15 -15 24q0 3 2 5q106 160 218 160q50 0 133 -33q75 -27 110 -27q64 0 122 62q2 3 6 3q8 0 24 -13q18 -16 18 -27q0 -3 -2 -6zM393 143q0 -75 103 -75 q15 0 15 -38t-15 -38q-84 8 -209 8q-144 0 -228 -8q-15 0 -15 38t15 38q105 0 105 75v414q0 125 -92 125q-16 0 -16 37t16 37q50 0 187 68q63 31 83 48q13 11 31 11q28 0 26 -27q-6 -84 -6 -174v-539z" />
<glyph unicode="&#x12a;" horiz-adv-x="734" d="M665 1710q25 0 25 -46v-6q-2 -53 -28 -53h-591q-25 0 -25 52.5t25 52.5h594zM481 202q0 -116 159 -116q14 0 14 -46q0 -47 -14 -47q-133 7 -279 7q-160 0 -286 -7q-15 0 -15 46q0 47 15 47q162 0 162 116v952q0 116 -161 116q-14 0 -14 46q0 47 14 47q48 -5 279 -5 q241 0 289 5q14 0 14 -46q0 -47 -14 -47q-163 0 -163 -116v-952z" />
<glyph unicode="&#x12b;" horiz-adv-x="524" d="M504 1240q27 0 27 -52q0 -60 -31 -60h-446q-23 0 -23 58q0 54 23 54h450zM393 143q0 -75 103 -75q15 0 15 -38t-15 -38q-84 8 -209 8q-144 0 -228 -8q-15 0 -15 38t15 38q105 0 105 75v414q0 125 -92 125q-16 0 -16 37t16 37q50 0 187 68q63 31 83 48q13 11 31 11 q28 0 26 -27q-6 -84 -6 -174v-539z" />
<glyph unicode="&#x12c;" horiz-adv-x="734" d="M675 1852q0 -307 -289 -307t-289 307q0 8 32 8q27 0 30 -8q38 -172 227 -172t227 172q2 8 31 8q31 0 31 -8zM481 202q0 -116 159 -116q14 0 14 -46q0 -47 -14 -47q-133 7 -279 7q-160 0 -286 -7q-15 0 -15 46q0 47 15 47q162 0 162 116v952q0 116 -161 116q-14 0 -14 46 q0 47 14 47q48 -5 279 -5q241 0 289 5q14 0 14 -46q0 -47 -14 -47q-163 0 -163 -116v-952z" />
<glyph unicode="&#x12d;" horiz-adv-x="524" d="M567 1327q0 -307 -289 -307t-289 307q0 8 32 8q27 0 30 -8q38 -172 227 -172t227 172q2 8 31 8q31 0 31 -8zM393 143q0 -75 103 -75q15 0 15 -38t-15 -38q-84 8 -209 8q-144 0 -228 -8q-15 0 -15 38t15 38q105 0 105 75v414q0 125 -92 125q-16 0 -16 37t16 37 q50 0 187 68q63 31 83 48q13 11 31 11q28 0 26 -27q-6 -84 -6 -174v-539z" />
<glyph unicode="&#x12e;" horiz-adv-x="734" d="M109 -304q0 160 229 344h107q-160 -168 -160 -286q0 -121 123 -121q61 0 103 31q20 -7 20 -39q-75 -113 -217 -113q-205 0 -205 184zM481 202q0 -116 159 -116q14 0 14 -46q0 -47 -14 -47q-133 7 -279 7q-160 0 -286 -7q-15 0 -15 46q0 47 15 47q162 0 162 116v952 q0 116 -161 116q-14 0 -14 46q0 47 14 47q48 -5 279 -5q241 0 289 5q14 0 14 -46q0 -47 -14 -47q-163 0 -163 -116v-952z" />
<glyph unicode="&#x12f;" horiz-adv-x="524" d="M23 -304q0 160 229 344h107q-160 -168 -160 -286q0 -121 123 -121q61 0 103 31q20 -7 20 -39q-75 -113 -217 -113q-205 0 -205 184zM496 -8q-84 8 -209 8q-144 0 -228 -8q-15 0 -15 38t15 38q105 0 105 75v414q0 125 -92 125q-16 0 -16 36q0 38 16 38q50 0 187 68 q63 31 83 48q13 11 31 11q28 0 26 -27q-6 -88 -6 -174v-539q0 -75 103 -75q15 0 15 -38q0 -37 -15 -38zM401 1185q0 -70 -59 -111q-38 -26 -86 -26q-75 0 -117 58q-26 35 -26 79q0 70 57 111q38 28 86 28q78 0 118 -58q27 -39 27 -81z" />
<glyph unicode="&#x130;" horiz-adv-x="734" d="M231 1703q0 58 41 99t99 41t99 -41t41 -99t-41 -99t-99 -41t-99 41t-41 99zM481 202q0 -116 159 -116q14 0 14 -46q0 -47 -14 -47q-133 7 -279 7q-160 0 -286 -7q-15 0 -15 46q0 47 15 47q162 0 162 116v952q0 116 -161 116q-14 0 -14 46q0 47 14 47q48 -5 279 -5 q241 0 289 5q14 0 14 -46q0 -47 -14 -47q-163 0 -163 -116v-952z" />
<glyph unicode="&#x131;" horiz-adv-x="524" d="M393 143q0 -75 103 -75q15 0 15 -38t-15 -38q-84 8 -209 8q-144 0 -228 -8q-15 0 -15 38t15 38q105 0 105 75v414q0 125 -92 125q-16 0 -16 37t16 37q50 0 187 68q63 31 83 48q13 11 31 11q28 0 26 -27q-6 -84 -6 -174v-539z" />
<glyph unicode="&#x134;" horiz-adv-x="718" d="M690 1574q4 -4 4 -10q0 -8 -8 -21q-11 -19 -20 -19q-1 0 -3 1l-267 124q-19 8 -38 8t-37 -8l-266 -124l-2 -1q-12 4 -22 20q-10 14 -10 22q0 5 4 8l283 251q26 23 50.5 23t48.5 -23zM419 -151q-89 -148 -215 -220q-86 -48 -171 -48q-51 0 -102 33q-63 41 -63 109 q0 71 65 103q33 17 76 17q74 0 128 -58q25 -27 38 -62q33 24 56 82q26 88 26 448v901q0 116 -171 116q-14 0 -14 46q0 47 14 47q48 -5 296 -5q244 0 292 5q14 0 14 -46q0 -47 -14 -47q-172 0 -172 -116v-525q0 -107 -10 -434q-1 -227 -73 -346z" />
<glyph unicode="&#x135;" horiz-adv-x="499" d="M375 856q-8 -92 -8 -174v-543q0 -186 -11 -268q-24 -175 -108 -287q-76 -103 -208 -131q-37 -8 -72 -8q-60 0 -117 43q-44 35 -44 86q0 57 51 87q26 15 58 15q48 0 80 -52q44 -73 80 -73q46 1 56 91q5 43 5 129v786q0 125 -92 125q-15 0 -15 37t15 37q51 0 189 68 q63 31 83 48q14 11 29 11q28 0 29 -27zM531 1063q2 -4 2 -8q0 -12 -19 -24q-18 -11 -28 -11q-6 0 -9 4l-182 213q-25 28 -42 28q-19 0 -44 -28l-182 -213q-4 -4 -10 -4q-10 0 -26 10q-19 13 -19 25q0 4 2 8l229 412q16 31 48 31q34 0 50 -31z" />
<glyph unicode="&#x136;" horiz-adv-x="1382" d="M987 -324q0 -86 -88 -142q-74 -48 -172 -48q-124 0 -151 61q-6 13 -6 29q0 43 36 61q13 7 29 7q31 0 75 -39q45 -35 65 -37q30 0 46 25q7 12 7 26q0 78 -142 142l-14 6l-6 16l86 123q144 -58 195 -119q40 -48 40 -111zM1144 191q78 -91 179 -102q22 -3 60 -3q14 0 14 -46 q0 -47 -14 -47q-133 7 -306 7q-133 0 -273 -7q-14 0 -14 46q0 47 14 47q84 0 85 39q0 26 -41 77l-259 323q-63 72 -86 72q-22 0 -22 -28v-367q0 -116 155 -116q14 0 14 -46q0 -47 -14 -47q-133 7 -275 7q-160 0 -286 -7q-15 0 -15 46q0 47 15 47q162 0 162 116v952 q0 116 -172 116q-14 0 -14 46q0 47 14 47q47 -5 279 -5q250 0 298 5q14 0 14 -46q0 -47 -14 -47q-161 0 -161 -116v-357q0 -27 16 -27q28 0 76 55l277 331q53 63 53 89q-9 24 -61 25q-13 0 -13 46q0 47 13 47q50 -5 197 -5q151 0 199 5q14 0 14 -46q0 -47 -14 -47 q-88 0 -132 -20q-43 -20 -82 -65l-337 -392q-16 -19 -16 -35q0 -17 15 -34z" />
<glyph unicode="&#x137;" horiz-adv-x="1073" d="M790 -324q0 -86 -88 -142q-74 -48 -172 -48q-124 0 -151 61q-6 13 -6 29q0 43 36 61q13 7 29 7q31 0 75 -39q45 -35 65 -37q30 0 46 25q7 12 7 26q0 78 -142 142l-14 6l-6 16l86 123q144 -58 195 -119q40 -48 40 -111zM1079 -8q-80 8 -229 8q-150 0 -234 -8q-15 0 -15 38 t15 38q74 0 75 29q0 16 -27 48l-195 224q-25 30 -59 30q-17 0 -17 -34v-222q0 -75 109 -75q15 0 15 -38t-15 -38q-84 8 -215 8q-154 0 -238 -8q-15 0 -15 38t15 38q115 0 115 71v1022q-9 118 -92 125q-16 0 -16 36q0 38 16 38q50 0 185 67q65 32 85 50q13 10 29 10 q27 0 28 -27q-6 -87 -6 -173v-759q0 -36 21 -36q44 0 80 38l153 170q32 36 32 54q0 30 -83 30q-16 0 -16 35q0 37 16 37q60 -6 217 -6q140 0 203 6q15 0 15 -36t-15 -36q-105 0 -182 -71l-209 -189q-11 -10 -11 -19q0 -14 11 -26l329 -358q47 -53 125 -53q16 0 16 -37 q0 -39 -16 -39z" />
<glyph unicode="&#x139;" horiz-adv-x="1359" d="M715 1731l-438 -200q-14 -7 -25 -7q-19 0 -31 17q-8 11 -8 22q0 16 18 31l379 298q7 5 16 5q18 0 43 -25q37 -37 50 -81q6 -20 6 -33q0 -18 -10 -27zM481 250q0 -110 67 -153q34 -19 75 -19l332 13q75 3 142 82q82 105 82 219q0 18 47 18q54 0 54 -18v-335q0 -42 -15 -52 q-9 -12 -102 -12l-724 7h-84q-72 0 -280 -7q-15 0 -15 46q0 47 15 47q162 0 162 126v942q0 116 -172 116q-14 0 -14 46q0 47 14 47q47 -5 288 -5q235 0 283 5q14 0 14 -46q0 -47 -14 -47q-155 0 -155 -116v-904z" />
<glyph unicode="&#x13a;" horiz-adv-x="524" d="M203 1572q-42 0 -42 53q0 21 8 41l120 302q7 17 28 17q32 0 95 -43q38 -26 38 -47q0 -6 -3 -11l-176 -263q-32 -49 -68 -49zM496 -8q-84 8 -209 8q-144 0 -228 -8q-15 0 -15 38t15 38q105 0 105 67v1026q0 125 -92 125q-16 0 -16 36q0 38 16 38q50 0 185 67q65 32 85 50 q13 10 27 10q30 0 30 -33q-6 -75 -6 -168v-1143q0 -75 103 -75q15 0 15 -38t-15 -38z" />
<glyph unicode="&#x13b;" horiz-adv-x="1359" d="M783 -315q0 -86 -88 -142q-74 -48 -172 -48q-124 0 -151 61q-6 13 -6 29q0 42 36 61q13 7 29 7q31 0 75 -39q43 -37 65 -37q53 0 53 51q0 77 -142 142q-20 9 -20 17q0 5 6 13l141 209h109l-78 -106q-9 -12 -9 -18q0 -10 28 -26q124 -66 124 -174zM481 250q0 -110 67 -153 q34 -19 75 -19l332 13q75 3 142 82q82 105 82 219q0 18 47 18q54 0 54 -18v-335q0 -42 -15 -52q-9 -12 -102 -12l-724 7h-84q-72 0 -280 -7q-15 0 -15 46q0 47 15 47q162 0 162 126v942q0 116 -172 116q-14 0 -14 46q0 47 14 47q47 -5 288 -5q235 0 283 5q14 0 14 -46 q0 -47 -14 -47q-155 0 -155 -116v-904z" />
<glyph unicode="&#x13c;" horiz-adv-x="524" d="M397 -315q0 -86 -88 -142q-74 -48 -172 -48q-124 0 -151 61q-6 13 -6 29q0 42 36 61q13 7 29 7q31 0 75 -39q43 -37 65 -37q53 0 53 51q0 77 -142 142q-20 9 -20 17q0 5 6 13l141 209h109l-78 -106q-9 -12 -9 -18q0 -10 28 -26q124 -66 124 -174zM496 -8q-84 8 -209 8 q-144 0 -228 -8q-15 0 -15 38t15 38q105 0 105 67v1026q0 125 -92 125q-16 0 -16 36q0 38 16 38q50 0 185 67q65 32 85 50q13 10 27 10q30 0 30 -33q-6 -75 -6 -168v-1143q0 -75 103 -75q15 0 15 -38t-15 -38z" />
<glyph unicode="&#x13d;" horiz-adv-x="1359" d="M25 1797q-4 4 -4 11q0 8 8 21q11 19 20 19q2 0 3 -1l268 -124q19 -9 37.5 -9t36.5 9l266 124l3 1q11 -4 22 -20q9 -14 9 -22q0 -6 -3 -9l-283 -250q-26 -23 -51 -23t-49 23zM481 250q0 -110 67 -153q34 -19 75 -19l332 13q75 3 142 82q82 105 82 219q0 18 47 18 q54 0 54 -18v-335q0 -42 -15 -52q-9 -12 -102 -12l-724 7h-84q-72 0 -280 -7q-15 0 -15 46q0 47 15 47q162 0 162 126v942q0 116 -172 116q-14 0 -14 46q0 47 14 47q47 -5 288 -5q235 0 283 5q14 0 14 -46q0 -47 -14 -47q-155 0 -155 -116v-904z" />
<glyph unicode="&#x13e;" horiz-adv-x="813" d="M785 1270q0 -154 -156 -278q-63 -50 -118 -72l-11 -1q-13 3 -21 17l-3 13q0 3 2 5q70 60 101 150q16 45 16 88q0 26 -13 31q-45 20 -61 34q-47 39 -47 105q0 59 56 90q37 21 87 21q66 0 117 -59t51 -144zM496 -8q-84 8 -209 8q-144 0 -228 -8q-15 0 -15 38t15 38 q105 0 105 67v1026q0 125 -92 125q-16 0 -16 36q0 38 16 38q50 0 185 67q65 32 85 50q13 10 27 10q30 0 30 -33q-6 -75 -6 -168v-1143q0 -75 103 -75q15 0 15 -38t-15 -38z" />
<glyph unicode="&#x13f;" horiz-adv-x="1359" d="M1175 732q0 -78 -63 -121q-39 -26 -87 -26q-72 0 -121 45q-45 42 -45 112q0 56 40 100q45 50 126 50q93 0 134 -85q16 -34 16 -75zM481 250q0 -110 67 -153q34 -19 75 -19l332 13q75 3 142 82q82 105 82 219q0 18 47 18q54 0 54 -18v-335q0 -42 -15 -52q-9 -12 -102 -12 l-724 7h-84q-72 0 -280 -7q-15 0 -15 46q0 47 15 47q162 0 162 126v942q0 116 -172 116q-14 0 -14 46q0 47 14 47q47 -5 288 -5q235 0 283 5q14 0 14 -46q0 -47 -14 -47q-155 0 -155 -116v-904z" />
<glyph unicode="&#x140;" horiz-adv-x="868" d="M849 512q0 -78 -63 -121q-39 -26 -87 -26q-72 0 -121 45q-45 42 -45 112q0 56 40 100q45 50 126 50q93 0 134 -85q16 -34 16 -75zM496 -8q-84 8 -209 8q-144 0 -228 -8q-15 0 -15 38t15 38q105 0 105 67v1026q0 125 -92 125q-16 0 -16 36q0 38 16 38q50 0 185 67 q65 32 85 50q13 10 27 10q30 0 30 -33q-6 -75 -6 -168v-1143q0 -75 103 -75q15 0 15 -38t-15 -38z" />
<glyph unicode="&#x141;" horiz-adv-x="1359" d="M1280 57q0 -42 -15 -52l-18 -8q-20 -4 -84 -4l-724 7h-84q-65 0 -275 -7h-5q-15 0 -15 46q0 21 5 35q4 12 10 12q162 0 162 126v271l-178 -111l-8 -1q-21 5 -46 49q-16 28 -16 45l2 10q1 2 3 3l243 153v523q0 95 -109 112q-27 4 -63 4q-14 0 -14 46q0 22 4 36q4 11 10 11 q47 -5 288 -5q235 0 283 5q14 0 14 -46l-3 -32q-4 -15 -11 -15q-155 0 -155 -116v-371l252 157l9 1q18 -5 41 -41q21 -32 21 -52q0 -10 -6 -13l-317 -199v-386q0 -110 67 -153q30 -19 69 -19h6l332 13q75 3 142 82q79 101 82 219q0 17 47 18l32 -3q22 -5 22 -15v-335z" />
<glyph unicode="&#x142;" horiz-adv-x="524" d="M639 850l-246 -182v-525q0 -73 91 -75h12q15 0 15 -38q0 -37 -15 -38q-84 8 -209 8q-144 0 -228 -8q-15 0 -15 38q0 37 15 38q65 0 86 20q19 19 19 55v357l-164 -121l-10 -3q-21 1 -42 35q-13 19 -13 34q0 9 6 14l223 164v538q0 105 -68 122q-11 3 -24 3q-15 0 -16 36 l3 24q5 14 13 14q50 0 185 67q65 32 85 50q13 10 27 10q30 0 30 -33l-6 -167v-1v-493l187 137l9 3q22 -2 44 -37q12 -18 12 -32l-3 -11z" />
<glyph unicode="&#x143;" horiz-adv-x="1482" d="M1135 1731l-438 -200q-14 -7 -25 -7q-19 0 -31 17q-8 11 -8 22q0 16 18 31l379 298q7 5 16 5q18 0 43 -25q37 -37 50 -81q6 -20 6 -33q0 -18 -10 -27zM1288 76q0 -97 -31 -97q-26 0 -74 57l-822 978q-13 16 -20 16q-13 0 -13 -22v-806q0 -116 151 -116q15 0 15 -46 q0 -48 -15 -47q-92 7 -200 7q-102 0 -214 -7q-14 -2 -14 46q0 47 14 47q159 0 159 116v954q0 114 -173 114q-13 0 -13 46q0 47 13 47q50 -5 177 -5q84 0 98 -2q59 -9 100 -57l711 -867q10 -14 24 -14q24 0 24 31v703q0 118 -153 118q-15 0 -15 46q0 47 15 47q102 -5 198 -5 q100 0 193 5q14 0 14 -46q0 -47 -14 -47q-135 0 -135 -118v-1076z" />
<glyph unicode="&#x144;" horiz-adv-x="1087" d="M560 1020q-42 0 -42 53q0 21 8 41l120 302q7 17 28 17q32 0 95 -43q38 -26 38 -47q0 -6 -3 -11l-176 -263q-32 -49 -68 -49zM1069 -8q-107 8 -211 8q-105 0 -225 -8h-1q-14 0 -14 38t15 38q101 0 101 62v407q0 149 -59 200q-29 25 -96 25q-62 0 -119 -50 q-67 -58 -67 -120v-449q0 -75 99 -75q15 0 15 -38t-15 -38q-84 8 -216 8q-135 0 -219 -8q-15 0 -15 38t15 38q107 0 107 75v406q0 133 -92 133q-16 0 -16 36q0 38 16 38q50 0 187 68q63 31 83 48q13 11 27 11q29 0 30 -27l-6 -68q0 -19 9 -19t18 9q42 55 138 81q41 11 95 11 q189 0 274 -185q36 -73 36 -220v-329q0 -68 106 -68q16 0 16 -38t-16 -38z" />
<glyph unicode="&#x145;" horiz-adv-x="1482" d="M1042 -324q0 -86 -88 -142q-74 -48 -172 -48q-124 0 -151 61q-6 13 -6 29q0 43 36 61q13 7 29 7q31 0 75 -39q45 -35 65 -37q30 0 46 25q7 12 7 26q0 78 -142 142l-14 6l-6 16l86 123q144 -58 195 -119q40 -48 40 -111zM1288 76q0 -97 -31 -97q-26 0 -74 57l-822 978 q-13 16 -20 16q-13 0 -13 -22v-806q0 -116 151 -116q15 0 15 -46q0 -48 -15 -47q-92 7 -200 7q-102 0 -214 -7q-14 -2 -14 46q0 47 14 47q159 0 159 116v954q0 114 -173 114q-13 0 -13 46q0 47 13 47q50 -5 177 -5q84 0 98 -2q59 -9 100 -57l711 -867q10 -14 24 -14 q24 0 24 31v703q0 118 -153 118q-15 0 -15 46q0 47 15 47q102 -5 198 -5q100 0 193 5q14 0 14 -46q0 -47 -14 -47q-135 0 -135 -118v-1076z" />
<glyph unicode="&#x146;" horiz-adv-x="1087" d="M784 -324q0 -86 -88 -142q-74 -48 -172 -48q-124 0 -151 61q-6 13 -6 29q0 43 36 61q13 7 29 7q31 0 75 -39q45 -35 65 -37q30 0 46 25q7 12 7 26q0 78 -142 142l-14 6l-6 16l86 123q144 -58 195 -119q40 -48 40 -111zM1069 -8q-107 8 -211 8q-105 0 -225 -8h-1 q-14 0 -14 38t15 38q101 0 101 62v407q0 149 -59 200q-29 25 -96 25q-62 0 -119 -50q-67 -58 -67 -120v-449q0 -75 99 -75q15 0 15 -38t-15 -38q-84 8 -216 8q-135 0 -219 -8q-15 0 -15 38t15 38q107 0 107 75v406q0 133 -92 133q-16 0 -16 36q0 38 16 38q50 0 187 68 q63 31 83 48q13 11 27 11q29 0 30 -27l-6 -68q0 -19 9 -19t18 9q42 55 138 81q41 11 95 11q189 0 274 -185q36 -73 36 -220v-329q0 -68 106 -68q16 0 16 -38t-16 -38z" />
<glyph unicode="&#x147;" horiz-adv-x="1482" d="M410 1797q-4 4 -4 11q0 8 8 21q11 19 20 19q2 0 3 -1l268 -124q19 -9 37.5 -9t36.5 9l266 124l3 1q11 -4 22 -20q9 -14 9 -22q0 -6 -3 -9l-283 -250q-26 -23 -51 -23t-49 23zM1288 76q0 -97 -31 -97q-26 0 -74 57l-822 978q-13 16 -20 16q-13 0 -13 -22v-806 q0 -116 151 -116q15 0 15 -46q0 -48 -15 -47q-92 7 -200 7q-102 0 -214 -7q-14 -2 -14 46q0 47 14 47q159 0 159 116v954q0 114 -173 114q-13 0 -13 46q0 47 13 47q50 -5 177 -5q84 0 98 -2q59 -9 100 -57l711 -867q10 -14 24 -14q24 0 24 31v703q0 118 -153 118 q-15 0 -15 46q0 47 15 47q102 -5 198 -5q100 0 193 5q14 0 14 -46q0 -47 -14 -47q-135 0 -135 -118v-1076z" />
<glyph unicode="&#x148;" horiz-adv-x="1087" d="M889 1463l-230 -412q-17 -31 -50 -31q-31 0 -48 31l-229 412q-2 3 -2 6q0 16 28 32q10 6 17 6q6 0 10 -5l182 -213q33 -39 43 -39t43 39l182 213q5 5 11 5q8 0 19 -7q26 -18 26 -31q0 -3 -2 -6zM1069 -8q-107 8 -211 8q-105 0 -225 -8h-1q-14 0 -14 38t15 38 q101 0 101 62v407q0 149 -59 200q-29 25 -96 25q-62 0 -119 -50q-67 -58 -67 -120v-449q0 -75 99 -75q15 0 15 -38t-15 -38q-84 8 -216 8q-135 0 -219 -8q-15 0 -15 38t15 38q107 0 107 75v406q0 133 -92 133q-16 0 -16 36q0 38 16 38q50 0 187 68q63 31 83 48q13 11 27 11 q29 0 30 -27l-6 -68q0 -19 9 -19t18 9q42 55 138 81q41 11 95 11q189 0 274 -185q36 -73 36 -220v-329q0 -68 106 -68q16 0 16 -38t-16 -38z" />
<glyph unicode="&#x149;" horiz-adv-x="1087" d="M387 1270q0 -154 -156 -278q-63 -50 -118 -72l-11 -1q-13 3 -21 17l-3 13q0 3 2 5q70 60 101 150q16 45 16 88q0 26 -13 31q-45 20 -61 34q-47 39 -47 105q0 59 56 90q37 21 87 21q66 0 117 -59t51 -144zM1069 -8q-107 8 -211 8q-105 0 -225 -8h-1q-14 0 -14 38t15 38 q101 0 101 62v407q0 149 -59 200q-29 25 -96 25q-62 0 -119 -50q-67 -58 -67 -120v-449q0 -75 99 -75q15 0 15 -38t-15 -38q-84 8 -216 8q-135 0 -219 -8q-15 0 -15 38t15 38q107 0 107 75v406q0 133 -92 133q-16 0 -16 36q0 38 16 38q50 0 187 68q63 31 83 48q13 11 27 11 q29 0 30 -27l-6 -68q0 -19 9 -19t18 9q42 55 138 81q41 11 95 11q189 0 274 -185q36 -73 36 -220v-329q0 -68 106 -68q16 0 16 -38t-16 -38z" />
<glyph unicode="&#x14a;" horiz-adv-x="1482" d="M1288 76v-13l-2 -174q0 -103 -66 -222q-14 -26 -31 -51q-93 -134 -259 -134h-5q-59 1 -96 35q-34 32 -34 80q0 26 9 44t25 29q24 17 59 17h4q54 -2 99 -43q25 -23 39 -29l5 -1q39 2 81 66q61 91 61 185v178l-816 971q-13 16 -20 16q-13 0 -13 -22v-806q0 -116 151 -116 q15 0 15 -46q0 -48 -15 -47q-105 7 -200 7q-102 0 -214 -7q-14 -2 -14 46q0 47 14 47q159 0 159 116v954q0 114 -173 114q-13 0 -13 46q0 47 13 47q50 -5 177 -5q84 0 98 -2q59 -9 100 -57l711 -867q10 -14 24 -14q24 0 24 31v703q0 118 -153 118q-15 0 -15 46q0 47 15 47 q102 -5 198 -5q100 0 193 5q14 0 14 -46q0 -47 -14 -47q-135 0 -135 -118v-1076z" />
<glyph unicode="&#x14b;" horiz-adv-x="1087" d="M964 139v-27q0 -162 -11 -241q-24 -175 -108 -287q-76 -103 -208 -131q-37 -8 -72 -8q-63 0 -117 43q-44 35 -44 86q0 57 51 87q26 15 58 15q48 0 80 -52q44 -73 80 -73q45 1 56 91q5 41 5 129v766q0 149 -59 200q-29 25 -96 25q-62 0 -119 -50q-67 -58 -67 -120v-449 q0 -75 99 -75q15 0 15 -38t-15 -38q-84 8 -216 8q-135 0 -219 -8q-15 0 -15 38t15 38q107 0 107 75v406q0 133 -92 133q-16 0 -16 36q0 38 16 38q50 0 187 68q63 31 83 48q13 11 27 11q29 0 30 -27l-6 -68q0 -19 9 -19t18 9q42 55 138 81q41 11 95 11q189 0 274 -185 q36 -73 36 -220z" />
<glyph unicode="&#x14c;" horiz-adv-x="1524" d="M1047 1710q25 0 25 -46v-6q-2 -53 -28 -53h-591q-25 0 -25 52.5t25 52.5h594zM1430 663q0 -220 -145 -417q-202 -273 -544 -273q-225 0 -405 124q-281 194 -281 570q0 251 176 474q195 244 514 244q246 0 426 -155q259 -224 259 -567zM1157 649q0 255 -124 438 q-142 210 -293 210h-2q-152 0 -265 -130q-145 -166 -145 -443q0 -304 153 -495q129 -162 274 -162q265 0 358 279q44 130 44 303z" />
<glyph unicode="&#x14d;" horiz-adv-x="1032" d="M745 1240q27 0 27 -52q0 -60 -31 -60h-446q-23 0 -23 58q0 54 23 54h450zM969 426q0 -209 -123 -331q-119 -118 -328 -118q-185 0 -313 122q-139 131 -139 325q0 170 110 296q132 150 340 150q218 0 351 -158q102 -122 102 -286zM715 420q0 184 -71 292q-53 81 -126 81 q-82 0 -139 -104q-60 -109 -60 -269q0 -185 73 -287q52 -72 124 -72q94 0 150 114q49 99 49 245z" />
<glyph unicode="&#x14e;" horiz-adv-x="1524" d="M1026 1852q0 -307 -289 -307t-289 307q0 8 32 8q27 0 30 -8q38 -172 227 -172t227 172q2 8 31 8q31 0 31 -8zM1430 663q0 -220 -145 -417q-202 -273 -544 -273q-225 0 -405 124q-281 194 -281 570q0 251 176 474q195 244 514 244q246 0 426 -155q259 -224 259 -567z M1157 649q0 255 -124 438q-142 210 -293 210h-2q-152 0 -265 -130q-145 -166 -145 -443q0 -304 153 -495q129 -162 274 -162q265 0 358 279q44 130 44 303z" />
<glyph unicode="&#x14f;" horiz-adv-x="1032" d="M805 1327q0 -307 -289 -307t-289 307q0 8 32 8q27 0 30 -8q38 -172 227 -172t227 172q2 8 31 8q31 0 31 -8zM969 426q0 -209 -123 -331q-119 -118 -328 -118q-185 0 -313 122q-139 131 -139 325q0 170 110 296q132 150 340 150q218 0 351 -158q102 -122 102 -286z M715 420q0 184 -71 292q-53 81 -126 81q-82 0 -139 -104q-60 -109 -60 -269q0 -185 73 -287q52 -72 124 -72q94 0 150 114q49 99 49 245z" />
<glyph unicode="&#x150;" horiz-adv-x="1524" d="M938 1520q-42 0 -42 53q0 21 8 41l120 302q7 17 28 17q32 0 95 -43q38 -26 38 -47q0 -6 -3 -11l-176 -263q-32 -49 -68 -49zM508 1520q-42 0 -42 53q0 21 8 41l120 302q7 17 28 17q32 0 95 -43q38 -26 38 -47q0 -6 -3 -11l-176 -263q-32 -49 -68 -49zM1430 663 q0 -220 -145 -417q-202 -273 -544 -273q-225 0 -405 124q-281 194 -281 570q0 251 176 474q195 244 514 244q246 0 426 -155q259 -224 259 -567zM1157 649q0 255 -124 438q-142 210 -293 210h-2q-152 0 -265 -130q-145 -166 -145 -443q0 -304 153 -495q129 -162 274 -162 q265 0 358 279q44 130 44 303z" />
<glyph unicode="&#x151;" horiz-adv-x="1032" d="M701 1020q-42 0 -42 53q0 21 8 41l120 302q7 17 28 17q32 0 95 -43q38 -26 38 -47q0 -6 -3 -11l-176 -263q-32 -49 -68 -49zM271 1020q-42 0 -42 53q0 21 8 41l120 302q7 17 28 17q32 0 95 -43q38 -26 38 -47q0 -6 -3 -11l-176 -263q-32 -49 -68 -49zM969 426 q0 -209 -123 -331q-119 -118 -328 -118q-185 0 -313 122q-139 131 -139 325q0 170 110 296q132 150 340 150q218 0 351 -158q102 -122 102 -286zM715 420q0 184 -71 292q-53 81 -126 81q-82 0 -139 -104q-60 -109 -60 -269q0 -185 73 -287q52 -72 124 -72q94 0 150 114 q49 99 49 245z" />
<glyph unicode="&#x152;" horiz-adv-x="2010" d="M1945 57q0 -42 -15 -52l-18 -8q-20 -4 -84 -4l-705 7h-2q-24 0 -286 -9q-67 -2 -117 -2q-132 0 -272 59q-64 27 -118 63q-114 74 -190 213q-85 156 -85 337q0 200 120 388q23 37 51 72q188 237 498 237l389 -6h5q90 0 625 6h43q81 0 95 -14l7 -10l3 -25v-2v-306 q0 -16 -47 -17l-32 3l-17 6q-5 3 -5 8q0 130 -99 205q-60 46 -125 49q-43 2 -296 10q-22 0 -26 -30q-1 -5 -1 -10v-509q6 -27 29 -29h136q121 0 122 91v99q0 14 52 14q28 0 43 -5q10 -4 10 -9q-7 -67 -7 -233q0 -162 7 -225q0 -15 -52 -15q-27 0 -42 5q-11 4 -11 10v86 q0 89 -122 89h-136q-29 0 -29 -31v-341q0 -76 74 -115q40 -21 82 -21h5l218 5q158 5 205 137q18 50 18 116q0 17 47 18l32 -3q23 -5 23 -15v-287zM997 202v954q0 109 -218 115q-18 1 -63 1q-138 0 -246 -122q-119 -134 -140 -350q-4 -40 -4 -82q0 -294 150 -482 q91 -113 198 -147q31 -9 57 -9q127 0 179 17q87 27 87 105z" />
<glyph unicode="&#x153;" horiz-adv-x="1548" d="M1468 612q0 -75 -90 -75h-411q-11 0 -11 -27q0 -194 76 -304q64 -93 168 -93q77 0 156 47q27 16 30 18l10 2q22 -1 40 -30q6 -10 7 -19l-2 -10l-1 -2q-61 -66 -155 -107q-84 -37 -171 -37q-130 0 -237 106q-15 15 -29 32q-119 -136 -342 -136q-184 0 -313 121 q-119 112 -137 275q-3 26 -3 51q0 170 110 295q112 128 285 148q28 3 56 3q205 0 330 -139l6 -6q94 109 216 137q33 8 64 8q160 0 271 -114q65 -67 76 -130zM1245 651q-8 82 -65 121q-28 19 -58 19q-133 0 -153 -138v-16q4 -10 20 -10h234q21 0 22 14v10zM702 420 q0 185 -71 293q-52 80 -125 80q-83 0 -140 -105q-59 -109 -59 -268q0 -185 73 -287q52 -72 124 -72q95 0 150 115q48 99 48 244z" />
<glyph unicode="&#x154;" horiz-adv-x="1420" d="M1045 1731l-438 -200q-14 -7 -25 -7q-19 0 -31 17q-8 11 -8 22q0 16 18 31l379 298q7 5 16 5q18 0 43 -25q37 -37 50 -81q6 -20 6 -33q0 -18 -10 -27zM1213 968q0 -251 -283 -336q-18 -4 -18 -19q0 -10 12 -28q131 -224 325 -423q95 -101 180 -116q26 -5 26 -29 q0 -38 -24 -38l-91 -3q-155 1 -238 55q-142 88 -263 260l-130 187q-63 75 -79 88q-24 21 -63 21h-67q-19 0 -19 -19v-366q0 -116 155 -116q14 0 14 -46q0 -47 -14 -47q-133 7 -275 7q-151 0 -286 -7q-15 0 -15 46q0 47 15 47q162 0 162 116v954q0 109 -172 109q-14 0 -14 46 q0 47 14 47q143 -6 290 -6l298 6h6q337 0 481 -175q73 -90 73 -215zM959 968q0 136 -118 229q-107 81 -278 81q-62 0 -72 -9q-10 -8 -10 -33v-523q0 -33 25 -39q47 -9 86 -9q264 0 340 167q27 60 27 136z" />
<glyph unicode="&#x155;" horiz-adv-x="755" d="M400 1020q-42 0 -42 53q0 21 8 41l120 302q7 17 28 17q32 0 95 -43q38 -26 38 -47q0 -6 -3 -11l-176 -263q-32 -49 -68 -49zM756 752q0 -59 -42 -95q-27 -24 -61 -24q-51 0 -102 51q-23 23 -49 23q-42 0 -77 -58q-32 -55 -32 -127v-379q0 -75 103 -75q15 0 15 -38 t-15 -38q-84 8 -209 8q-144 0 -228 -8q-15 0 -15 38t15 38q105 0 105 75v406q0 133 -92 133q-16 0 -16 36q0 38 16 38q51 0 190 70q60 30 80 46q13 11 29 11q24 0 28 -20l-6 -75q0 -23 13 -23t36 26q68 79 168 79q70 0 115 -44q31 -31 31 -74z" />
<glyph unicode="&#x156;" horiz-adv-x="1420" d="M1171 -324q0 -86 -88 -142q-74 -48 -172 -48q-124 0 -151 61q-6 13 -6 29q0 43 36 61q13 7 29 7q31 0 75 -39q45 -35 65 -37q30 0 46 25q7 12 7 26q0 78 -142 142l-14 6l-6 16l86 123q144 -58 195 -119q40 -48 40 -111zM1213 968q0 -251 -283 -336q-18 -4 -18 -19 q0 -10 12 -28q131 -224 325 -423q95 -101 180 -116q26 -5 26 -29q0 -38 -24 -38l-91 -3q-155 1 -238 55q-142 88 -263 260l-130 187q-63 75 -79 88q-24 21 -63 21h-67q-19 0 -19 -19v-366q0 -116 155 -116q14 0 14 -46q0 -47 -14 -47q-133 7 -275 7q-151 0 -286 -7 q-15 0 -15 46q0 47 15 47q162 0 162 116v954q0 109 -172 109q-14 0 -14 46q0 47 14 47q143 -6 290 -6l298 6h6q337 0 481 -175q73 -90 73 -215zM959 968q0 136 -118 229q-107 81 -278 81q-62 0 -72 -9q-10 -8 -10 -33v-523q0 -33 25 -39q47 -9 86 -9q264 0 340 167 q27 60 27 136z" />
<glyph unicode="&#x157;" horiz-adv-x="755" d="M429 -315q0 -86 -88 -142q-74 -48 -172 -48q-124 0 -151 61q-6 13 -6 29q0 42 36 61q13 7 29 7q31 0 75 -39q43 -37 65 -37q53 0 53 51q0 77 -142 142q-20 9 -20 17q0 5 6 13l141 209h109l-78 -106q-9 -12 -9 -18q0 -10 28 -26q124 -66 124 -174zM756 752q0 -59 -42 -95 q-27 -24 -61 -24q-51 0 -102 51q-23 23 -49 23q-42 0 -77 -58q-32 -55 -32 -127v-379q0 -75 103 -75q15 0 15 -38t-15 -38q-84 8 -209 8q-144 0 -228 -8q-15 0 -15 38t15 38q105 0 105 75v406q0 133 -92 133q-16 0 -16 36q0 38 16 38q51 0 190 70q60 30 80 46q13 11 29 11 q24 0 28 -20l-6 -75q0 -23 13 -23t36 26q68 79 168 79q70 0 115 -44q31 -31 31 -74z" />
<glyph unicode="&#x158;" horiz-adv-x="1420" d="M295 1797q-4 4 -4 11q0 8 8 21q11 19 20 19q2 0 3 -1l268 -124q19 -9 37.5 -9t36.5 9l266 124l3 1q11 -4 22 -20q9 -14 9 -22q0 -6 -3 -9l-283 -250q-26 -23 -51 -23t-49 23zM1213 968q0 -251 -283 -336q-18 -4 -18 -19q0 -10 12 -28q131 -224 325 -423q95 -101 180 -116 q26 -5 26 -29q0 -38 -24 -38l-91 -3q-155 1 -238 55q-142 88 -263 260l-130 187q-63 75 -79 88q-24 21 -63 21h-67q-19 0 -19 -19v-366q0 -116 155 -116q14 0 14 -46q0 -47 -14 -47q-133 7 -275 7q-151 0 -286 -7q-15 0 -15 46q0 47 15 47q162 0 162 116v954q0 109 -172 109 q-14 0 -14 46q0 47 14 47q143 -6 290 -6l298 6h6q337 0 481 -175q73 -90 73 -215zM959 968q0 136 -118 229q-107 81 -278 81q-62 0 -72 -9q-10 -8 -10 -33v-523q0 -33 25 -39q47 -9 86 -9q264 0 340 167q27 60 27 136z" />
<glyph unicode="&#x159;" horiz-adv-x="755" d="M679 1463l-230 -412q-17 -31 -50 -31q-31 0 -48 31l-229 412q-2 3 -2 6q0 16 28 32q10 6 17 6q6 0 10 -5l182 -213q33 -39 43 -39t43 39l182 213q5 5 11 5q8 0 19 -7q26 -18 26 -31q0 -3 -2 -6zM756 752q0 -59 -42 -95q-27 -24 -61 -24q-51 0 -102 51q-23 23 -49 23 q-42 0 -77 -58q-32 -55 -32 -127v-379q0 -75 103 -75q15 0 15 -38t-15 -38q-84 8 -209 8q-144 0 -228 -8q-15 0 -15 38t15 38q105 0 105 75v406q0 133 -92 133q-16 0 -16 36q0 38 16 38q51 0 190 70q60 30 80 46q13 11 29 11q24 0 28 -20l-6 -75q0 -23 13 -23t36 26 q68 79 168 79q70 0 115 -44q31 -31 31 -74z" />
<glyph unicode="&#x15a;" horiz-adv-x="1077" d="M920 1731l-438 -200q-14 -7 -25 -7q-19 0 -31 17q-8 11 -8 22q0 16 18 31l379 298q7 5 16 5q18 0 43 -25q37 -37 50 -81q6 -20 6 -33q0 -18 -10 -27zM980 403q0 -181 -109 -300q-118 -130 -317 -130q-144 0 -246 36l-144 62q-53 160 -53 313q0 24 46 26q48 3 51 -18 q10 -116 90 -207q105 -118 273 -118q72 0 129 57q71 70 71 184q0 206 -270 275q-397 101 -397 450q0 142 129 258q105 94 292 94q120 0 213 -21q56 -12 62 -12l36 2h1q37 -118 49 -271q2 -26 -44 -33q-46 -6 -51 12q-30 117 -98 178t-187 61q-95 0 -154 -84 q-40 -56 -40 -142q0 -181 247 -241q421 -102 421 -431z" />
<glyph unicode="&#x15b;" horiz-adv-x="749" d="M377 1020q-42 0 -42 53q0 21 8 41l120 302q7 17 28 17q32 0 95 -43q38 -26 38 -47q0 -6 -3 -11l-176 -263q-32 -49 -68 -49zM346 -23q-146 0 -240 60q-28 67 -28 221q0 19 34 19q38 0 42 -17q4 -54 67 -127q65 -76 158 -76q49 0 90 42q33 34 33 75q0 120 -172 166 q-177 47 -237 150q-30 52 -30 122q0 114 100 189q93 69 224 69q123 0 217 -36q39 -105 39 -191q0 -19 -30 -19q-32 0 -35 11q-18 51 -80 113q-41 40 -125 40q-61 0 -99 -50q-23 -31 -22 -64q0 -100 168 -142q160 -40 224 -117q50 -61 50 -157q0 -133 -111 -214 q-90 -67 -229 -67h-8z" />
<glyph unicode="&#x15c;" horiz-adv-x="1077" d="M855 1574q4 -4 4 -10q0 -8 -8 -21q-11 -19 -20 -19q-1 0 -3 1l-267 124q-19 8 -38 8t-37 -8l-266 -124l-2 -1q-12 4 -22 20q-10 14 -10 22q0 5 4 8l283 251q26 23 50.5 23t48.5 -23zM980 403q0 -181 -109 -300q-118 -130 -317 -130q-144 0 -246 36l-144 62 q-53 160 -53 313q0 24 46 26q48 3 51 -18q10 -116 90 -207q105 -118 273 -118q72 0 129 57q71 70 71 184q0 206 -270 275q-397 101 -397 450q0 142 129 258q105 94 292 94q120 0 213 -21q56 -12 62 -12l36 2h1q37 -118 49 -271q2 -26 -44 -33q-46 -6 -51 12q-30 117 -98 178 t-187 61q-95 0 -154 -84q-40 -56 -40 -142q0 -181 247 -241q421 -102 421 -431z" />
<glyph unicode="&#x15d;" horiz-adv-x="749" d="M666 1063q2 -4 2 -8q0 -12 -19 -24q-18 -11 -28 -11q-6 0 -9 4l-182 213q-25 28 -42 28q-19 0 -44 -28l-182 -213q-4 -4 -10 -4q-10 0 -26 10q-19 13 -19 25q0 4 2 8l229 412q16 31 48 31q34 0 50 -31zM346 -23q-146 0 -240 60q-28 67 -28 221q0 19 34 19q38 0 42 -17 q4 -54 67 -127q65 -76 158 -76q49 0 90 42q33 34 33 75q0 120 -172 166q-177 47 -237 150q-30 52 -30 122q0 114 100 189q93 69 224 69q123 0 217 -36q39 -105 39 -191q0 -19 -30 -19q-32 0 -35 11q-18 51 -80 113q-41 40 -125 40q-61 0 -99 -50q-23 -31 -22 -64 q0 -100 168 -142q160 -40 224 -117q50 -61 50 -157q0 -133 -111 -214q-90 -67 -229 -67h-8z" />
<glyph unicode="&#x15e;" horiz-adv-x="1077" d="M674 -334q0 -86 -88 -142q-74 -48 -172 -48q-124 0 -151 61q-6 13 -6 29q0 42 36 61q13 7 29 7q31 0 75 -39q43 -37 65 -37q53 0 53 51q0 77 -142 142q-20 9 -20 17q0 5 6 13l141 209h109l-78 -106q-9 -12 -9 -18q0 -10 28 -26q124 -66 124 -174zM980 403 q0 -181 -109 -300q-118 -130 -317 -130q-144 0 -246 36l-144 62q-53 160 -53 313q0 24 46 26q48 3 51 -18q10 -116 90 -207q105 -118 273 -118q72 0 129 57q71 70 71 184q0 206 -270 275q-397 101 -397 450q0 142 129 258q105 94 292 94q120 0 213 -21q56 -12 62 -12l36 2h1 q37 -118 49 -271q2 -26 -44 -33q-46 -6 -51 12q-30 117 -98 178t-187 61q-95 0 -154 -84q-40 -56 -40 -142q0 -181 247 -241q421 -102 421 -431z" />
<glyph unicode="&#x15f;" horiz-adv-x="749" d="M465 -331q0 -86 -88 -142q-74 -48 -172 -48q-124 0 -151 61q-6 13 -6 29q0 42 36 61q13 7 29 7q31 0 75 -39q43 -37 65 -37q53 0 53 51q0 77 -142 142q-20 9 -20 17q0 5 6 13l141 209h109l-78 -106q-9 -12 -9 -18q0 -10 28 -26q124 -66 124 -174zM346 -23q-146 0 -240 60 q-28 67 -28 221q0 19 34 19q38 0 42 -17q4 -54 67 -127q65 -76 158 -76q49 0 90 42q33 34 33 75q0 120 -172 166q-177 47 -237 150q-30 52 -30 122q0 114 100 189q93 69 224 69q123 0 217 -36q39 -105 39 -191q0 -19 -30 -19q-32 0 -35 11q-18 51 -80 113q-41 40 -125 40 q-61 0 -99 -50q-23 -31 -22 -64q0 -100 168 -142q160 -40 224 -117q50 -61 50 -157q0 -133 -111 -214q-90 -67 -229 -67h-8z" />
<glyph unicode="&#x160;" horiz-adv-x="1077" d="M207 1797q-4 4 -4 11q0 8 8 21q11 19 20 19q2 0 3 -1l268 -124q19 -9 37.5 -9t36.5 9l266 124l3 1q11 -4 22 -20q9 -14 9 -22q0 -6 -3 -9l-283 -250q-26 -23 -51 -23t-49 23zM980 403q0 -181 -109 -300q-118 -130 -317 -130q-144 0 -246 36l-144 62q-53 160 -53 313 q0 24 46 26q48 3 51 -18q10 -116 90 -207q105 -118 273 -118q72 0 129 57q71 70 71 184q0 206 -270 275q-397 101 -397 450q0 142 129 258q105 94 292 94q120 0 213 -21q56 -12 62 -12l36 2h1q37 -118 49 -271q2 -26 -44 -33q-46 -6 -51 12q-30 117 -98 178t-187 61 q-95 0 -154 -84q-40 -56 -40 -142q0 -181 247 -241q421 -102 421 -431z" />
<glyph unicode="&#x161;" horiz-adv-x="749" d="M666 1463l-230 -412q-17 -31 -50 -31q-31 0 -48 31l-229 412q-2 3 -2 6q0 16 28 32q10 6 17 6q6 0 10 -5l182 -213q33 -39 43 -39t43 39l182 213q5 5 11 5q8 0 19 -7q26 -18 26 -31q0 -3 -2 -6zM346 -23q-146 0 -240 60q-28 67 -28 221q0 19 34 19q38 0 42 -17 q4 -54 67 -127q65 -76 158 -76q49 0 90 42q33 34 33 75q0 120 -172 166q-177 47 -237 150q-30 52 -30 122q0 114 100 189q93 69 224 69q123 0 217 -36q39 -105 39 -191q0 -19 -30 -19q-32 0 -35 11q-18 51 -80 113q-41 40 -125 40q-61 0 -99 -50q-23 -31 -22 -64 q0 -100 168 -142q160 -40 224 -117q50 -61 50 -157q0 -133 -111 -214q-90 -67 -229 -67h-8z" />
<glyph unicode="&#x162;" horiz-adv-x="1300" d="M764 -314q0 -86 -88 -142q-74 -48 -172 -48q-124 0 -151 61q-6 13 -6 29q0 42 36 61q13 7 29 7q31 0 75 -39q43 -37 65 -37q53 0 53 51q0 77 -142 142q-20 9 -20 17q0 5 6 13l141 209h109l-78 -106q-9 -12 -9 -18q0 -10 28 -26q124 -66 124 -174zM773 202 q0 -116 171 -116q13 0 13 -46.5t-13 -46.5q-85 7 -292.5 7t-302.5 -7q-14 0 -14 46.5t14 46.5q180 0 180 116v1034q0 29 -27 29h-143q-86 0 -154.5 -72.5t-68.5 -184.5q0 -16 -50.5 -16t-50.5 16v299q0 34 14 41q24 10 98 10q188 -6 496 -6t520 6q84 0 96 -16q8 -11 8 -35 v-299q0 -16 -51 -16t-51 16q0 129 -78 193t-153 64h-128q-33 0 -33 -29v-1034z" />
<glyph unicode="&#x163;" horiz-adv-x="671" d="M531 -329q0 -86 -88 -142q-74 -48 -172 -48q-124 0 -151 61q-6 13 -6 29q0 42 36 61q13 7 29 7q31 0 75 -39q43 -37 65 -37q53 0 53 51q0 77 -142 142q-20 9 -20 17q0 5 6 13l141 209h109l-78 -106q-9 -12 -9 -18q0 -10 28 -26q124 -66 124 -174zM686 90 q-108 -113 -274 -113q-219 2 -252 183q-6 33 -6 73v481q0 31 -31 31h-55q-16 0 -16 36q0 38 16 38q61 0 133 59q69 57 92 126q2 6 13 6t29 -5q44 -12 50 -30v-94q0 -31 31 -31h215q15 0 15 -52q0 -53 -15 -53h-215q-31 0 -31 -31v-415q0 -121 34 -159q27 -31 87 -31 q52 0 127 47q11 8 38 -24q18 -22 18 -34q0 -5 -3 -8z" />
<glyph unicode="&#x164;" horiz-adv-x="1300" d="M329 1797q-4 4 -4 11q0 8 8 21q11 19 20 19q2 0 3 -1l268 -124q19 -9 37.5 -9t36.5 9l266 124l3 1q11 -4 22 -20q9 -14 9 -22q0 -6 -3 -9l-283 -250q-26 -23 -51 -23t-49 23zM773 202q0 -116 171 -116q13 0 13 -46.5t-13 -46.5q-85 7 -292.5 7t-302.5 -7q-14 0 -14 46.5 t14 46.5q180 0 180 116v1034q0 29 -27 29h-143q-86 0 -154.5 -72.5t-68.5 -184.5q0 -16 -50.5 -16t-50.5 16v299q0 34 14 41q24 10 98 10q188 -6 496 -6t520 6q84 0 96 -16q8 -11 8 -35v-299q0 -16 -51 -16t-51 16q0 129 -78 193t-153 64h-128q-33 0 -33 -29v-1034z" />
<glyph unicode="&#x165;" horiz-adv-x="1034" d="M1004 1270q0 -154 -156 -278q-63 -50 -118 -72l-11 -1q-13 3 -21 17l-3 13q0 3 2 5q70 60 101 150q16 45 16 88q0 26 -13 31q-45 20 -61 34q-47 39 -47 105q0 59 56 90q37 21 87 21q66 0 117 -59t51 -144zM686 90q-108 -113 -274 -113q-219 2 -252 183q-6 33 -6 73v481 q0 31 -31 31h-55q-16 0 -16 36q0 38 16 38q61 0 133 59q69 57 92 126q2 6 13 6t29 -5q44 -12 50 -30v-94q0 -31 31 -31h215q15 0 15 -52q0 -53 -15 -53h-215q-31 0 -31 -31v-415q0 -121 34 -159q27 -31 87 -31q52 0 127 47q11 8 38 -24q18 -22 18 -34q0 -5 -3 -8z" />
<glyph unicode="&#x168;" horiz-adv-x="1512" d="M1118 1712q-110 -164 -219 -164q-41 0 -127 31q-94 33 -127 33q-63 0 -112 -59q-3 -3 -8 -3q-9 0 -23 14q-15 15 -15 24q0 3 2 5q106 160 218 160q50 0 133 -33q75 -27 110 -27q64 0 122 62q2 3 6 3q8 0 24 -13q18 -16 18 -27q0 -3 -2 -6zM1322 880q0 -276 -12 -416 q-17 -245 -154 -373q-126 -118 -383 -118q-156 0 -268 42q-157 61 -219 185q-52 107 -62 345v609q0 116 -157 116q-14 0 -14 46q0 47 14 47q147 -5 281 -5q146 0 294 5q14 0 14 -46q0 -47 -14 -47q-174 0 -174 -116v-468l11 -281q3 -124 55 -203q90 -135 276 -135 q173 0 277 106q90 93 90 323v658q0 116 -157 116q-14 0 -14 46q0 47 14 47q138 -5 229 -5q92 0 227 5q15 0 15 -46q0 -47 -15 -47q-154 0 -154 -116v-274z" />
<glyph unicode="&#x169;" horiz-adv-x="1028" d="M817 1212q-110 -164 -219 -164q-41 0 -127 31q-94 33 -127 33q-63 0 -112 -59q-3 -3 -8 -3q-9 0 -23 14q-15 15 -15 24q0 3 2 5q106 160 218 160q50 0 133 -33q75 -27 110 -27q64 0 122 62q2 3 6 3q8 0 24 -13q18 -16 18 -27q0 -3 -2 -6zM1038 31q-8 -2 -105 -21l-51 -10 q-56 -12 -114 -31q-13 -4 -24 -4q-15 0 -15 45v47q0 23 -12 23t-27 -14q-92 -89 -246 -89q-126 0 -170 35q-147 118 -147 297v346q0 103 -84 103q-15 0 -15 36.5t15 36.5q112 0 224 18q31 5 50 5q46 0 46 -44q-7 -98 -7 -161v-342q0 -123 50 -182q28 -33 98 -33q64 0 132 55 q54 44 54 93v415q0 103 -84 103q-16 0 -16 36.5t16 36.5q111 0 229 19q25 4 39 4q53 0 53 -36q-8 -95 -8 -156v-406q0 -90 10 -117q14 -40 53 -40q13 0 33 5q16 4 27 -32q3 -14 3 -23q0 -15 -7 -18z" />
<glyph unicode="&#x16a;" horiz-adv-x="1512" d="M1129 1710q25 0 25 -46v-6q-2 -53 -28 -53h-591q-25 0 -25 52.5t25 52.5h594zM1322 880q0 -276 -12 -416q-17 -245 -154 -373q-126 -118 -383 -118q-156 0 -268 42q-157 61 -219 185q-52 107 -62 345v609q0 116 -157 116q-14 0 -14 46q0 47 14 47q147 -5 281 -5 q146 0 294 5q14 0 14 -46q0 -47 -14 -47q-174 0 -174 -116v-468l11 -281q3 -124 55 -203q90 -135 276 -135q173 0 277 106q90 93 90 323v658q0 116 -157 116q-14 0 -14 46q0 47 14 47q138 -5 229 -5q92 0 227 5q15 0 15 -46q0 -47 -15 -47q-154 0 -154 -116v-274z" />
<glyph unicode="&#x16b;" horiz-adv-x="1028" d="M723 1240q27 0 27 -52q0 -60 -31 -60h-446q-23 0 -23 58q0 54 23 54h450zM1038 31q-8 -2 -105 -21l-51 -10q-56 -12 -114 -31q-13 -4 -24 -4q-15 0 -15 45v47q0 23 -12 23t-27 -14q-92 -89 -246 -89q-126 0 -170 35q-147 118 -147 297v346q0 103 -84 103q-15 0 -15 36.5 t15 36.5q112 0 224 18q31 5 50 5q46 0 46 -44q-7 -98 -7 -161v-342q0 -123 50 -182q28 -33 98 -33q64 0 132 55q54 44 54 93v415q0 103 -84 103q-16 0 -16 36.5t16 36.5q111 0 229 19q25 4 39 4q53 0 53 -36q-8 -95 -8 -156v-406q0 -90 10 -117q14 -40 53 -40q13 0 33 5 q16 4 27 -32q3 -14 3 -23q0 -15 -7 -18z" />
<glyph unicode="&#x16c;" horiz-adv-x="1512" d="M1116 1852q0 -307 -289 -307t-289 307q0 8 32 8q27 0 30 -8q38 -172 227 -172t227 172q2 8 31 8q31 0 31 -8zM1322 880q0 -276 -12 -416q-17 -245 -154 -373q-126 -118 -383 -118q-156 0 -268 42q-157 61 -219 185q-52 107 -62 345v609q0 116 -157 116q-14 0 -14 46 q0 47 14 47q147 -5 281 -5q146 0 294 5q14 0 14 -46q0 -47 -14 -47q-174 0 -174 -116v-468l11 -281q3 -124 55 -203q90 -135 276 -135q173 0 277 106q90 93 90 323v658q0 116 -157 116q-14 0 -14 46q0 47 14 47q138 -5 229 -5q92 0 227 5q15 0 15 -46q0 -47 -15 -47 q-154 0 -154 -116v-274z" />
<glyph unicode="&#x16d;" horiz-adv-x="1028" d="M766 1327q0 -307 -289 -307t-289 307q0 8 32 8q27 0 30 -8q38 -172 227 -172t227 172q2 8 31 8q31 0 31 -8zM1038 31q-8 -2 -105 -21l-51 -10q-56 -12 -114 -31q-13 -4 -24 -4q-15 0 -15 45v47q0 23 -12 23t-27 -14q-92 -89 -246 -89q-126 0 -170 35q-147 118 -147 297 v346q0 103 -84 103q-15 0 -15 36.5t15 36.5q112 0 224 18q31 5 50 5q46 0 46 -44q-7 -98 -7 -161v-342q0 -123 50 -182q28 -33 98 -33q64 0 132 55q54 44 54 93v415q0 103 -84 103q-16 0 -16 36.5t16 36.5q111 0 229 19q25 4 39 4q53 0 53 -36q-8 -95 -8 -156v-406 q0 -90 10 -117q14 -40 53 -40q13 0 33 5q16 4 27 -32q3 -14 3 -23q0 -15 -7 -18z" />
<glyph unicode="&#x16e;" horiz-adv-x="1512" d="M1068 1730q0 -112 -102 -185q-57 -40 -144 -40q-126 0 -197 88q-49 60 -49 137q0 96 73 161q69 62 173 62q127 0 198 -88q48 -59 48 -135zM931 1730q0 78 -53 124q-22 19 -56 19q-64 0 -96 -75q-12 -29 -12 -68q0 -86 52 -122q25 -17 56 -17q68 0 96 68q13 32 13 71z M1322 880q0 -276 -12 -416q-17 -245 -154 -373q-126 -118 -383 -118q-156 0 -268 42q-157 61 -219 185q-52 107 -62 345v609q0 116 -157 116q-14 0 -14 46q0 47 14 47q147 -5 281 -5q146 0 294 5q14 0 14 -46q0 -47 -14 -47q-174 0 -174 -116v-468l11 -281q3 -124 55 -203 q90 -135 276 -135q173 0 277 106q90 93 90 323v658q0 116 -157 116q-14 0 -14 46q0 47 14 47q138 -5 229 -5q92 0 227 5q15 0 15 -46q0 -47 -15 -47q-154 0 -154 -116v-274z" />
<glyph unicode="&#x16f;" horiz-adv-x="1028" d="M719 1245q0 -112 -102 -185q-57 -40 -144 -40q-126 0 -197 88q-49 60 -49 137q0 96 73 161q69 62 173 62q127 0 198 -88q48 -59 48 -135zM582 1245q0 78 -53 124q-22 19 -56 19q-64 0 -96 -75q-12 -29 -12 -68q0 -86 52 -122q25 -17 56 -17q68 0 96 68q13 32 13 71z M1038 31q-8 -2 -105 -21l-51 -10q-56 -12 -114 -31q-13 -4 -24 -4q-15 0 -15 45v47q0 23 -12 23t-27 -14q-92 -89 -246 -89q-126 0 -170 35q-147 118 -147 297v346q0 103 -84 103q-15 0 -15 36.5t15 36.5q112 0 224 18q31 5 50 5q46 0 46 -44q-7 -98 -7 -161v-342 q0 -123 50 -182q28 -33 98 -33q64 0 132 55q54 44 54 93v415q0 103 -84 103q-16 0 -16 36.5t16 36.5q111 0 229 19q25 4 39 4q53 0 53 -36q-8 -95 -8 -156v-406q0 -90 10 -117q14 -40 53 -40q13 0 33 5q16 4 27 -32q3 -14 3 -23q0 -15 -7 -18z" />
<glyph unicode="&#x170;" horiz-adv-x="1512" d="M987 1520q-42 0 -42 53q0 21 8 41l120 302q7 17 28 17q32 0 95 -43q38 -26 38 -47q0 -6 -3 -11l-176 -263q-32 -49 -68 -49zM557 1520q-42 0 -42 53q0 21 8 41l120 302q7 17 28 17q32 0 95 -43q38 -26 38 -47q0 -6 -3 -11l-176 -263q-32 -49 -68 -49zM1322 880 q0 -276 -12 -416q-17 -245 -154 -373q-126 -118 -383 -118q-156 0 -268 42q-157 61 -219 185q-52 107 -62 345v609q0 116 -157 116q-14 0 -14 46q0 47 14 47q147 -5 281 -5q146 0 294 5q14 0 14 -46q0 -47 -14 -47q-174 0 -174 -116v-468l11 -281q3 -124 55 -203 q90 -135 276 -135q173 0 277 106q90 93 90 323v658q0 116 -157 116q-14 0 -14 46q0 47 14 47q138 -5 229 -5q92 0 227 5q15 0 15 -46q0 -47 -15 -47q-154 0 -154 -116v-274z" />
<glyph unicode="&#x171;" horiz-adv-x="1028" d="M678 1020q-42 0 -42 53q0 21 8 41l120 302q7 17 28 17q32 0 95 -43q38 -26 38 -47q0 -6 -3 -11l-176 -263q-32 -49 -68 -49zM248 1020q-42 0 -42 53q0 21 8 41l120 302q7 17 28 17q32 0 95 -43q38 -26 38 -47q0 -6 -3 -11l-176 -263q-32 -49 -68 -49zM1038 31 q-8 -2 -105 -21l-51 -10q-56 -12 -114 -31q-13 -4 -24 -4q-15 0 -15 45v47q0 23 -12 23t-27 -14q-92 -89 -246 -89q-126 0 -170 35q-147 118 -147 297v346q0 103 -84 103q-15 0 -15 36.5t15 36.5q112 0 224 18q31 5 50 5q46 0 46 -44q-7 -98 -7 -161v-342q0 -123 50 -182 q28 -33 98 -33q64 0 132 55q54 44 54 93v415q0 103 -84 103q-16 0 -16 36.5t16 36.5q111 0 229 19q25 4 39 4q53 0 53 -36q-8 -95 -8 -156v-406q0 -90 10 -117q14 -40 53 -40q13 0 33 5q16 4 27 -32q3 -14 3 -23q0 -15 -7 -18z" />
<glyph unicode="&#x172;" horiz-adv-x="1512" d="M1322 880q0 -276 -14.5 -468.5t-151.5 -320.5q-55 -51 -136 -81q-250 -91 -250 -256q0 -121 123 -121q61 0 103 31q20 -7 20 -39q-75 -113 -217 -113q-107 0 -156 51t-49 133q0 161 188 277q-164 0 -299 51.5t-197 167t-62 353.5v609q0 116 -157 116q-14 0 -14 46.5 t14 46.5q147 -5 300 -5t275 5q14 0 14 -46.5t-14 -46.5q-174 0 -174 -116v-468q0 -408 78 -513.5t264 -105.5q173 0 270 99.5t97 329.5v658q0 116 -157 116q-14 0 -14 46.5t14 46.5q84 -5 227.5 -5t228.5 5q15 0 15 -46.5t-15 -46.5q-154 0 -154 -116v-274z" />
<glyph unicode="&#x173;" horiz-adv-x="1028" d="M919 256q0 -90 10 -117q14 -40 53 -40q13 0 33 5q16 4 27 -32q3 -14 3 -23q0 -15 -7 -18q-8 -2 -105 -21q-100 -20 -157 -94.5t-57 -161.5q0 -121 123 -121q61 0 103 31q20 -7 20 -39q-75 -113 -217 -113q-205 0 -205 184q0 79 54.5 164.5t116.5 130.5q15 11 15 24v42 q0 23 -12 23t-27 -14q-92 -89 -246 -89q-126 0 -170 35q-147 118 -147 297v346q0 103 -84 103q-15 0 -15 36.5t15 36.5q112 0 224 18q31 5 50 5q46 0 46 -44q-7 -98 -7 -161v-342q0 -123 50 -182q28 -33 98 -33q64 0 132 55q54 44 54 93v415q0 103 -84 103q-16 0 -16 36.5 t16 36.5q110 0 229 19q25 4 39 4q53 0 53 -36q-8 -95 -8 -156v-406z" />
<glyph unicode="&#x174;" horiz-adv-x="2012" d="M1386 1574q4 -4 4 -10q0 -8 -8 -21q-11 -19 -20 -19q-1 0 -3 1l-267 124q-19 8 -38 8t-37 -8l-266 -124l-2 -1q-12 4 -22 20q-10 14 -10 22q0 5 4 8l283 251q26 23 50.5 23t48.5 -23zM1859 1185l-537 -1178q-23 -45 -50 -45q-26 0 -57 63l-205 456q-8 18 -15 18 q-8 0 -17 -20l-216 -472q-21 -45 -50 -45q-28 0 -57 63l-506 1129q-51 116 -143 116q-14 0 -14 46q0 47 14 47q48 -5 216 -5q186 0 234 5q15 0 15 -46q0 -47 -15 -47q-69 0 -70 -45q4 -40 19 -71l351 -780q8 -17 22 -17q12 0 20 17l121 266q6 15 6 22q0 9 -6 24l-235 522 q-28 62 -82 62q-14 0 -14 46q0 47 14 47q48 -5 208 -5q156 0 204 5q14 0 14 -46q0 -47 -14 -47q-70 0 -70 -41q0 -32 20 -75l75 -163q8 -18 18 -18q13 0 24 24l69 149q26 56 26 85q0 39 -53 39q-14 0 -14 46q0 47 14 47q50 -5 176 -5q135 0 183 5q15 0 15 -46q0 -47 -15 -47 q-145 0 -183 -85l-158 -347q-11 -24 -11 -40q0 -12 5 -23l181 -399q8 -18 23 -18q12 0 19 16l352 772q21 46 21 75q-1 49 -65 49q-15 0 -15 46q0 47 15 47q45 -5 187 -5q141 0 189 5q14 0 14 -46q0 -47 -14 -47q-145 0 -183 -85z" />
<glyph unicode="&#x175;" horiz-adv-x="1458" d="M1010 1063q2 -4 2 -8q0 -12 -19 -24q-18 -11 -28 -11q-6 0 -9 4l-182 213q-25 28 -42 28q-19 0 -44 -28l-182 -213q-4 -4 -10 -4q-10 0 -26 10q-19 13 -19 25q0 4 2 8l229 412q16 31 48 31q34 0 50 -31zM113 713q-30 71 -101 71q-15 0 -15 36t15 36q63 -6 193 -6 q156 0 219 6q15 0 15 -36t-15 -36q-70 0 -70 -45q0 -19 6 -39l142 -444q5 -14 12 -14q8 0 14 14l123 358q4 13 4 23t-4 22l-22 54q-30 71 -88 71q-16 0 -16 36t16 36q60 -6 180 -6q159 0 219 6q16 0 16 -36t-16 -36q-69 0 -70 -46q0 -14 7 -38l141 -444q5 -14 12 -14 q9 0 14 14l156 451q5 13 5 24q0 53 -91 53q-15 0 -15 36t15 36q63 -6 180 -6q96 0 156 6q15 0 15 -36t-15 -36q-99 0 -125 -71l-258 -674q-23 -62 -76 -62q-54 0 -76 52l-178 426q-5 13 -13 13t-13 -13l-160 -416q-24 -62 -78 -62q-49 0 -74 52z" />
<glyph unicode="&#x176;" horiz-adv-x="1325" d="M1048 1574q4 -4 4 -10q0 -8 -8 -21q-11 -19 -20 -19q-1 0 -3 1l-267 124q-19 8 -38 8t-37 -8l-266 -124l-2 -1q-12 4 -22 20q-10 14 -10 22q0 5 4 8l283 251q26 23 50.5 23t48.5 -23zM758 202q0 -116 148 -116q13 0 13 -46q0 -47 -13 -47q-65 7 -266 7q-200 0 -273 -7 q-14 0 -14 46q0 47 14 47q147 0 147 116v292q0 68 -10 94q-8 22 -55 96l-298 470q-52 82 -101 104q-28 12 -63 12q-15 0 -15 46q0 47 15 47q47 -5 261 -5q216 0 266 5q14 0 14 -46q0 -47 -14 -47q-110 0 -110 -53q0 -31 20 -63l254 -405q11 -17 20 -17q10 0 22 19l268 395 q23 34 23 60q0 64 -105 64q-15 0 -15 46q0 47 15 47q45 -5 221 -5q185 0 233 5q14 0 14 -46q0 -47 -14 -47q-108 0 -179 -68l-33 -35l-337 -481q-38 -56 -45 -78q-8 -28 -8 -109v-297z" />
<glyph unicode="&#x177;" horiz-adv-x="884" d="M745 1063q2 -4 2 -8q0 -12 -19 -24q-18 -11 -28 -11q-6 0 -9 4l-182 213q-25 28 -42 28q-19 0 -44 -28l-182 -213q-4 -4 -10 -4q-10 0 -26 10q-19 13 -19 25q0 4 2 8l229 412q16 31 48 31q34 0 50 -31zM338 -399q-41 -106 -128 -141q-33 -13 -69 -13q-62 0 -101 43 q-26 30 -26 68q0 61 59 91q30 15 66 15q104 0 121 39l78 182q7 18 7 35t-7 35l-270 758q-26 71 -107 71q-15 0 -15 36t15 36q63 -6 203 -6q148 0 211 6q15 0 15 -36t-15 -36q-80 0 -80 -47q0 -15 8 -37l152 -424q7 -20 17 -20q13 0 22 23l165 421q5 13 5 23q0 61 -121 61 q-16 0 -16 36t16 36q60 -6 194 -6q114 0 174 6q16 0 16 -36t-16 -36q-92 0 -125 -59z" />
<glyph unicode="&#x178;" horiz-adv-x="1325" d="M1046 1682q0 -80 -60 -114q-29 -18 -65 -18q-84 0 -116 64q-12 24 -13 58q0 74 57 110q32 20 72 20q67 0 104 -54q21 -30 21 -66zM616 1682q0 -80 -60 -114q-29 -18 -65 -18q-84 0 -116 64q-12 24 -13 58q0 74 57 110q32 20 72 20q68 0 104 -54q21 -32 21 -66zM758 202 q0 -116 148 -116q13 0 13 -46q0 -47 -13 -47q-65 7 -266 7q-200 0 -273 -7q-14 0 -14 46q0 47 14 47q147 0 147 116v292q0 68 -10 94q-8 22 -55 96l-298 470q-52 82 -101 104q-28 12 -63 12q-15 0 -15 46q0 47 15 47q47 -5 261 -5q216 0 266 5q14 0 14 -46q0 -47 -14 -47 q-110 0 -110 -53q0 -31 20 -63l254 -405q11 -17 20 -17q10 0 22 19l268 395q23 34 23 60q0 64 -105 64q-15 0 -15 46q0 47 15 47q45 -5 221 -5q185 0 233 5q14 0 14 -46q0 -47 -14 -47q-108 0 -179 -68l-33 -35l-337 -481q-38 -56 -45 -78q-8 -28 -8 -109v-297z" />
<glyph unicode="&#x179;" horiz-adv-x="1317" d="M1135 1731l-438 -200q-14 -7 -25 -7q-19 0 -31 17q-8 11 -8 22q0 16 18 31l379 298q7 5 16 5q18 0 43 -25q37 -37 50 -81q6 -20 6 -33q0 -18 -10 -27zM1270 19q0 -48 -16 -48h-5q-25 0 -74 8q-131 21 -581 21h-448q-70 0 -70 49q0 26 17 48l871 1139q10 13 10 21 q0 17 -40 17h-513q-44 0 -71 -27q-39 -31 -97 -172q-31 -75 -33 -101q-1 -11 -26 -12q-16 0 -32 5q-24 8 -25 21q31 235 31 332q0 48 41 48q3 0 60 -9q48 -7 61 -7h507l382 6h4q61 0 61 -32q0 -24 -25 -58l-833 -1144q-7 -10 -7 -17q0 -21 33 -21q411 0 593 13q53 4 138 150 q40 69 51 106q2 7 19 7q34 0 55 -17q7 -6 6 -15q-44 -172 -44 -311z" />
<glyph unicode="&#x17a;" horiz-adv-x="770" d="M315 1020q-42 0 -42 53q0 21 8 41l120 302q7 17 28 17q32 0 95 -43q38 -26 38 -47q0 -6 -3 -11l-176 -263q-32 -49 -68 -49zM766 264l-24 -188q-3 -34 -3 -60q0 -41 -39 -41q-11 0 -95 15q-53 10 -93 10h-443q-41 0 -41 37q0 13 9 31l356 659q9 17 9 27q0 20 -29 20h-111 q-63 0 -124 -128l-46 -103q-4 -9 -18 -9q-19 0 -36 12q-13 9 -13 23q29 252 30 256q7 43 31 45q158 -20 211 -20h348q46 0 46 -33q0 -18 -8 -32l-359 -666q-4 -7 -4 -15q0 -24 28 -24h109q132 0 225 205q5 11 27 11q9 0 26 -4q31 -9 31 -28z" />
<glyph unicode="&#x17b;" horiz-adv-x="1317" d="M580 1703q0 58 41 99t99 41t99 -41t41 -99t-41 -99t-99 -41t-99 41t-41 99zM1270 19q0 -48 -16 -48h-5q-25 0 -74 8q-131 21 -581 21h-448q-70 0 -70 49q0 26 17 48l871 1139q10 13 10 21q0 17 -40 17h-513q-44 0 -71 -27q-39 -31 -97 -172q-31 -75 -33 -101 q-1 -11 -26 -12q-16 0 -32 5q-24 8 -25 21q31 235 31 332q0 48 41 48q3 0 60 -9q48 -7 61 -7h507l382 6h4q61 0 61 -32q0 -24 -25 -58l-833 -1144q-7 -10 -7 -17q0 -21 33 -21q411 0 593 13q53 4 138 150q40 69 51 106q2 7 19 7q34 0 55 -17q7 -6 6 -15q-44 -172 -44 -311z " />
<glyph unicode="&#x17c;" horiz-adv-x="770" d="M229 1188q0 58 41 99t99 41t99 -41t41 -99t-41 -99t-99 -41t-99 41t-41 99zM766 264l-24 -188q-3 -34 -3 -60q0 -41 -39 -41q-11 0 -95 15q-53 10 -93 10h-443q-41 0 -41 37q0 13 9 31l356 659q9 17 9 27q0 20 -29 20h-111q-63 0 -124 -128l-46 -103q-4 -9 -18 -9 q-19 0 -36 12q-13 9 -13 23q29 252 30 256q7 43 31 45q158 -20 211 -20h348q46 0 46 -33q0 -18 -8 -32l-359 -666q-4 -7 -4 -15q0 -24 28 -24h109q132 0 225 205q5 11 27 11q9 0 26 -4q31 -9 31 -28z" />
<glyph unicode="&#x17d;" horiz-adv-x="1317" d="M383 1797q-4 4 -4 11q0 8 8 21q11 19 20 19q2 0 3 -1l268 -124q19 -9 37.5 -9t36.5 9l266 124l3 1q11 -4 22 -20q9 -14 9 -22q0 -6 -3 -9l-283 -250q-26 -23 -51 -23t-49 23zM1270 19q0 -48 -16 -48h-5q-25 0 -74 8q-131 21 -581 21h-448q-70 0 -70 49q0 26 17 48 l871 1139q10 13 10 21q0 17 -40 17h-513q-44 0 -71 -27q-39 -31 -97 -172q-31 -75 -33 -101q-1 -11 -26 -12q-16 0 -32 5q-24 8 -25 21q31 235 31 332q0 48 41 48q3 0 60 -9q48 -7 61 -7h507l382 6h4q61 0 61 -32q0 -24 -25 -58l-833 -1144q-7 -10 -7 -17q0 -21 33 -21 q411 0 593 13q53 4 138 150q40 69 51 106q2 7 19 7q34 0 55 -17q7 -6 6 -15q-44 -172 -44 -311z" />
<glyph unicode="&#x17e;" horiz-adv-x="770" d="M672 1463l-230 -412q-17 -31 -50 -31q-31 0 -48 31l-229 412q-2 3 -2 6q0 16 28 32q10 6 17 6q6 0 10 -5l182 -213q33 -39 43 -39t43 39l182 213q5 5 11 5q8 0 19 -7q26 -18 26 -31q0 -3 -2 -6zM766 264l-24 -188q-3 -34 -3 -60q0 -41 -39 -41q-11 0 -95 15 q-53 10 -93 10h-443q-41 0 -41 37q0 13 9 31l356 659q9 17 9 27q0 20 -29 20h-111q-63 0 -124 -128l-46 -103q-4 -9 -18 -9q-19 0 -36 12q-13 9 -13 23q29 252 30 256q7 43 31 45q158 -20 211 -20h348q46 0 46 -33q0 -18 -8 -32l-359 -666q-4 -7 -4 -15q0 -24 28 -24h109 q132 0 225 205q5 11 27 11q9 0 26 -4q31 -9 31 -28z" />
<glyph unicode="&#x17f;" horiz-adv-x="563" d="M164 143v527q0 35 -31 35h-61q-16 0 -16 36.5t16 36.5q48 0 70 35.5t22 77.5q0 285 154 440.5t356 155.5q106 0 164.5 -41.5t58.5 -105.5q0 -47 -39.5 -82t-73.5 -35q-96 0 -135.5 75.5t-89.5 75.5q-72 0 -119 -89t-47 -237v-905q0 -75 133 -75q16 0 16 -38t-16 -38 q-80 8 -233.5 8t-237.5 -8q-15 0 -15 38t15 38q109 0 109 75z" />
<glyph unicode="&#x180;" horiz-adv-x="1038" d="M969 440q0 -206 -108 -333q-19 -22 -41 -40q-109 -94 -283 -94q-53 0 -130 32q-65 26 -104 26q-17 0 -55 -34l-19 -15q-5 -3 -13 -3q-31 0 -74 33q-19 15 -19 23q6 30 6 244v753q0 29 -15 35q-8 2 -22 2h-147q-15 0 -16 50l3 35q5 20 13 20h147q32 0 35 12l-2 20 q-14 71 -76 79q-7 1 -14 1q-15 0 -16 36l3 24q5 14 13 14q50 0 186 66q68 33 88 51q13 10 29 10q26 0 29 -25v-8q-9 -126 -9 -168v-76q0 -29 16 -34q7 -2 21 -2h140q15 0 15 -52q0 -27 -5 -42q-4 -11 -10 -11h-140q-31 0 -35 -17l-2 -20v-192q0 -27 16 -28l13 4q3 1 6 3 q60 42 143 50q12 1 25 1q165 0 281 -116l33 -37q94 -119 94 -277zM739 428q0 143 -65 242q-65 100 -172 100q-71 0 -113 -43l-16 -20q-15 -26 -15 -60v-350q0 -116 73 -186q56 -54 134 -54q90 0 139 138q35 101 35 233z" />
<glyph unicode="&#x186;" horiz-adv-x="1349" d="M106 1214q28 72 52 108q47 7 88 19q153 44 358 44q263 0 458 -151q258 -199 258 -523q0 -270 -153 -467q-212 -271 -587 -271q-130 0 -338 43q-56 11 -107 13q-28 59 -38 275l-2 51q0 18 43 22q48 2 51 -14q19 -209 211 -275q79 -27 186 -27q207 0 334 168t127 424 q0 324 -171 503q-129 135 -286 135q-343 0 -440 -277q-7 -19 -57 -7q-38 9 -38 29q0 45 51 178z" />
<glyph unicode="&#x190;" horiz-adv-x="956" d="M717 1249q8 -6 16 -6q21 0 34 33q8 20 8 44q0 14 38 14q37 0 37 -14v-392q0 -10 -46 -10q-36 0 -36 12q0 106 -53 173q-48 59 -102 74q-21 5 -42 5q-136 0 -188 -78q-29 -43 -29 -101q0 -122 102 -181q58 -33 212 -33q40 0 40 -62q0 -68 -28 -68q-7 0 -15 4 q-33 13 -81 13q-17 0 -36 -2q-112 -10 -164 -63q-79 -80 -79 -215q0 -108 47 -178q53 -78 102 -104q34 -18 113 -18h23q109 3 192 69q5 4 9 4l11 -4q2 -1 26 -26q18 -19 16 -25l-3 -10l-3 -3q-122 -124 -277 -124q-202 0 -351 127t-149 317q0 278 284 333q31 6 31 15 q0 8 -36 26q-204 104 -204 276q0 112 89 198t216 86q126 0 222 -66q19 -13 54 -40z" />
<glyph unicode="&#x192;" horiz-adv-x="624" d="M1026 1268q0 -94 -65 -115l-27 -4h-2q-55 0 -84 37q-19 23 -19 57q0 68 -2 80q-10 49 -57 57l-22 2q-67 0 -127 -85l-13 -19q-58 -90 -100 -307l-29 -152h258q6 0 6 -13l-5 -30q-14 -52 -32 -62q-2 -1 -4 -1h-243l-164 -809q-32 -155 -96 -279q-24 -47 -43 -65 q-120 -111 -252 -111q-111 0 -165 65q-26 31 -26 62q0 62 48 92q21 13 44 13q59 0 86 -56q25 -49 39 -60q12 -11 27 -11q59 0 86 95q6 20 23 101l194 963h-178q-7 0 -7 14q0 35 22 74q10 18 18 18h168q53 255 96 359q26 65 59 108q132 178 361 178q126 0 189 -81 q38 -49 38 -115z" />
<glyph unicode="&#x195;" horiz-adv-x="1675" d="M164 137v1024q0 125 -92 125q-16 0 -16 37t16 37q50 0 185 67q56 27 85 50q13 10 29 10q30 0 28 -27q-6 -75 -6 -174v-465q0 -23 11 -23q8 0 22 11q78 61 211 61q89 0 158 -33t118.5 -113t49.5 -167v-245q0 -144 53.5 -197.5t118.5 -53.5q110 0 167 97t57 279 q0 229 -213 291q0 51 56.5 96.5t126.5 45.5q135 0 209.5 -142.5t74.5 -301.5q0 -136 -53 -235.5t-150.5 -156.5t-297.5 -57q-160 0 -269.5 90.5t-109.5 237.5v250q0 76 -39 141.5t-129 65.5t-143 -63q-29 -35 -29 -72v-484q0 -75 103 -75q15 0 15 -38t-15 -38 q-99 8 -222.5 8t-222.5 -8q-15 0 -15 38t15 38q113 0 113 69z" />
<glyph unicode="&#x19d;" horiz-adv-x="1482" d="M224 1156q0 114 -173 114q-13 0 -13 46q0 47 12 47h1q63 -5 177 -5q84 0 98 -2q61 -9 100 -57l711 -867q11 -14 24 -14q24 0 24 31v703q0 118 -153 118q-15 0 -15 46q0 47 15 47q2 0 198 -5h33q63 0 160 5q14 0 14 -46q0 -47 -14 -47q-135 0 -135 -118v-1076 q0 -97 -31 -97q-26 0 -74 57l-822 978q-13 16 -20 16q-13 0 -13 -22v-945l-2 -174q-1 -112 -65 -222q-15 -26 -32 -51q-93 -134 -252 -134h-5q-58 1 -95 35q-35 32 -35 80q0 26 9 44t25 29q25 17 59 17h4q54 -2 99 -43q26 -23 40 -29l4 -1q37 2 81 66q61 89 61 185v1291z " />
<glyph unicode="&#x1bf;" horiz-adv-x="905" d="M834 477q0 -179 -173 -341q-45 -41 -88 -70q-82 -58 -182 -78q-24 -5 -24 -33v-12v-336q0 -70 -66 -100q-7 -4 -16 -7l-174 -57l-15 -1q-25 4 -39 40q-7 14 -7 28q0 17 11 25l62 43q14 8 14 31v940q0 109 -57 128q-15 5 -35 5q-15 0 -15 37t15 37q51 0 190 70 q58 30 78 46q14 11 29 11q29 0 29 -33l-4 -34v-1q0 -16 11 -17l11 3q5 4 10 10q52 59 133 59q147 0 242 -131q59 -89 60 -262zM604 434q0 203 -22 260q-24 62 -69 79q-12 5 -24 5q-61 0 -110 -90q-12 -24 -12 -63v-525q0 -19 17 -20l11 2q89 34 152 152q57 104 57 200z" />
<glyph unicode="&#x1cd;" horiz-adv-x="1401" d="M361 1797q-4 4 -4 11q0 8 8 21q11 19 20 19q2 0 3 -1l268 -124q19 -9 37.5 -9t36.5 9l266 124l3 1q11 -4 22 -20q9 -14 9 -22q0 -6 -3 -9l-283 -250q-26 -23 -51 -23t-49 23zM1196 202q41 -116 202 -116q15 0 15 -46.5t-15 -46.5q-115 7 -265 7t-275 -7q-15 0 -15 46.5 t15 46.5q96 0 96 65q0 21 -10 51l-100 297q-7 22 -34 24h-373q-21 0 -32 -29l-109 -293q-9 -24 -9 -42q0 -73 147 -73q13 0 13 -46.5t-13 -46.5q-83 7 -233 7t-228 -7q-14 0 -14 46.5t14 46.5q152 0 202 131l370 968q13 30 13 38t-14.5 22t-14.5 23q0 15 33 26t103.5 53 t89.5 42q33 0 44 -47.5t53 -164.5zM649 1068q-5 16 -16 16q-10 0 -16 -16l-159 -434q-4 -9 -4 -16q0 -11 21 -11h293q28 0 28 22q0 6 -3 15z" />
<glyph unicode="&#x1ce;" horiz-adv-x="860" d="M667 1463l-230 -412q-17 -31 -50 -31q-31 0 -48 31l-229 412q-2 3 -2 6q0 16 28 32q10 6 17 6q6 0 10 -5l182 -213q33 -39 43 -39t43 39l182 213q5 5 11 5q8 0 19 -7q26 -18 26 -31q0 -3 -2 -6zM866 88q-58 -113 -190 -113q-92 0 -162 82q-14 19 -21 19q-13 0 -28 -17 q-82 -82 -199 -82q-125 0 -177 85q-26 43 -26 100q0 121 212 231l151 72q35 20 35 47v190q0 72 -105 72q-79 0 -116 -51q-9 -14 -10 -75q0 -35 -5 -52q-25 -88 -92 -88q-90 0 -90 78q0 67 56 144q31 44 65 65q120 75 264 75q113 0 195 -56q65 -44 67 -107v-508 q0 -114 67 -114h4q29 0 68 36q8 8 28 -9q10 -10 10 -18q0 -3 -1 -6zM461 193v182q0 23 -14 23q-7 0 -13 -3q-141 -71 -141 -190q0 -117 72 -117q96 0 96 105z" />
<glyph unicode="&#x1cf;" horiz-adv-x="734" d="M25 1797q-4 4 -4 11q0 8 8 21q11 19 20 19q2 0 3 -1l268 -124q19 -9 37.5 -9t36.5 9l266 124l3 1q11 -4 22 -20q9 -14 9 -22q0 -6 -3 -9l-283 -250q-26 -23 -51 -23t-49 23zM481 202q0 -116 159 -116q14 0 14 -46q0 -47 -14 -47q-133 7 -279 7q-160 0 -286 -7 q-15 0 -15 46q0 47 15 47q162 0 162 116v952q0 116 -161 116q-14 0 -14 46q0 47 14 47q48 -5 279 -5q241 0 289 5q14 0 14 -46q0 -47 -14 -47q-163 0 -163 -116v-952z" />
<glyph unicode="&#x1d0;" horiz-adv-x="524" d="M557 1463l-230 -412q-17 -31 -50 -31q-31 0 -48 31l-229 412q-2 3 -2 6q0 16 28 32q10 6 17 6q6 0 10 -5l182 -213q33 -39 43 -39t43 39l182 213q5 5 11 5q8 0 19 -7q26 -18 26 -31q0 -3 -2 -6zM393 143q0 -75 103 -75q15 0 15 -38t-15 -38q-84 8 -209 8q-144 0 -228 -8 q-15 0 -15 38t15 38q105 0 105 75v414q0 125 -92 125q-16 0 -16 37t16 37q50 0 187 68q63 31 83 48q13 11 31 11q28 0 26 -27q-6 -84 -6 -174v-539z" />
<glyph unicode="&#x1d1;" horiz-adv-x="1524" d="M399 1797q-4 4 -4 11q0 8 8 21q11 19 20 19q2 0 3 -1l268 -124q19 -9 37.5 -9t36.5 9l266 124l3 1q11 -4 22 -20q9 -14 9 -22q0 -6 -3 -9l-283 -250q-26 -23 -51 -23t-49 23zM1430 663q0 -220 -145 -417q-202 -273 -544 -273q-225 0 -405 124q-281 194 -281 570 q0 251 176 474q195 244 514 244q246 0 426 -155q259 -224 259 -567zM1157 649q0 255 -124 438q-142 210 -293 210h-2q-152 0 -265 -130q-145 -166 -145 -443q0 -304 153 -495q129 -162 274 -162q265 0 358 279q44 130 44 303z" />
<glyph unicode="&#x1d2;" horiz-adv-x="1032" d="M795 1463l-230 -412q-17 -31 -50 -31q-31 0 -48 31l-229 412q-2 3 -2 6q0 16 28 32q10 6 17 6q6 0 10 -5l182 -213q33 -39 43 -39t43 39l182 213q5 5 11 5q8 0 19 -7q26 -18 26 -31q0 -3 -2 -6zM969 426q0 -209 -123 -331q-119 -118 -328 -118q-185 0 -313 122 q-139 131 -139 325q0 170 110 296q132 150 340 150q218 0 351 -158q102 -122 102 -286zM715 420q0 184 -71 292q-53 81 -126 81q-82 0 -139 -104q-60 -109 -60 -269q0 -185 73 -287q52 -72 124 -72q94 0 150 114q49 99 49 245z" />
<glyph unicode="&#x1d3;" horiz-adv-x="1512" d="M487 1797q-4 4 -4 11q0 8 8 21q11 19 20 19q2 0 3 -1l268 -124q19 -9 37.5 -9t36.5 9l266 124l3 1q11 -4 22 -20q9 -14 9 -22q0 -6 -3 -9l-283 -250q-26 -23 -51 -23t-49 23zM1322 880q0 -276 -12 -416q-17 -245 -154 -373q-126 -118 -383 -118q-156 0 -268 42 q-157 61 -219 185q-52 107 -62 345v609q0 116 -157 116q-14 0 -14 46q0 47 14 47q147 -5 281 -5q146 0 294 5q14 0 14 -46q0 -47 -14 -47q-174 0 -174 -116v-468l11 -281q3 -124 55 -203q90 -135 276 -135q173 0 277 106q90 93 90 323v658q0 116 -157 116q-14 0 -14 46 q0 47 14 47q138 -5 229 -5q92 0 227 5q15 0 15 -46q0 -47 -15 -47q-154 0 -154 -116v-274z" />
<glyph unicode="&#x1d4;" horiz-adv-x="1028" d="M766 1463l-230 -412q-17 -31 -50 -31q-31 0 -48 31l-229 412q-2 3 -2 6q0 16 28 32q10 6 17 6q6 0 10 -5l182 -213q33 -39 43 -39t43 39l182 213q5 5 11 5q8 0 19 -7q26 -18 26 -31q0 -3 -2 -6zM1038 31q-8 -2 -105 -21l-51 -10q-56 -12 -114 -31q-13 -4 -24 -4 q-15 0 -15 45v47q0 23 -12 23t-27 -14q-92 -89 -246 -89q-126 0 -170 35q-147 118 -147 297v346q0 103 -84 103q-15 0 -15 36.5t15 36.5q112 0 224 18q31 5 50 5q46 0 46 -44q-7 -98 -7 -161v-342q0 -123 50 -182q28 -33 98 -33q64 0 132 55q54 44 54 93v415q0 103 -84 103 q-16 0 -16 36.5t16 36.5q111 0 229 19q25 4 39 4q53 0 53 -36q-8 -95 -8 -156v-406q0 -90 10 -117q14 -40 53 -40q13 0 33 5q16 4 27 -32q3 -14 3 -23q0 -15 -7 -18z" />
<glyph unicode="&#x1d5;" horiz-adv-x="1512" d="M1047 2120q27 0 27 -52q0 -60 -31 -60h-446q-23 0 -23 58q0 54 23 54h450zM1164 1679q0 -79 -60 -114q-29 -17 -65 -17q-84 0 -116 63q-12 25 -13 58q0 74 57 111q32 20 72 20q67 0 104 -54q21 -31 21 -67zM734 1679q0 -79 -60 -114q-29 -17 -65 -17q-84 0 -116 63 q-12 25 -13 58q0 74 57 111q32 20 72 20q68 0 104 -54q21 -32 21 -67zM1322 880q0 -276 -12 -416q-17 -245 -154 -373q-126 -118 -383 -118q-156 0 -268 42q-157 61 -219 185q-52 107 -62 345v609q0 116 -157 116q-14 0 -14 46q0 47 14 47q147 -5 281 -5q146 0 294 5 q14 0 14 -46q0 -47 -14 -47q-174 0 -174 -116v-468l11 -281q3 -124 55 -203q90 -135 276 -135q173 0 277 106q90 93 90 323v658q0 116 -157 116q-14 0 -14 46q0 47 14 47q138 -5 229 -5q92 0 227 5q15 0 15 -46q0 -47 -15 -47q-154 0 -154 -116v-274z" />
<glyph unicode="&#x1d6;" horiz-adv-x="1028" d="M717 1610q27 0 27 -52q0 -60 -31 -60h-446q-23 0 -23 58q0 54 23 54h450zM835 1179q0 -79 -60 -114q-29 -17 -65 -17q-84 0 -116 63q-12 25 -13 58q0 74 57 111q32 20 72 20q67 0 104 -54q21 -31 21 -67zM405 1179q0 -79 -60 -114q-29 -17 -65 -17q-84 0 -116 63 q-12 25 -13 58q0 74 57 111q32 20 72 20q68 0 104 -54q21 -32 21 -67zM1038 31q-8 -2 -105 -21l-51 -10q-56 -12 -114 -31q-13 -4 -24 -4q-15 0 -15 45v47q0 23 -12 23t-27 -14q-92 -89 -246 -89q-126 0 -170 35q-147 118 -147 297v346q0 103 -84 103q-15 0 -15 36.5 t15 36.5q112 0 224 18q31 5 50 5q46 0 46 -44q-7 -98 -7 -161v-342q0 -123 50 -182q28 -33 98 -33q64 0 132 55q54 44 54 93v415q0 103 -84 103q-16 0 -16 36.5t16 36.5q111 0 229 19q25 4 39 4q53 0 53 -36q-8 -95 -8 -156v-406q0 -90 10 -117q14 -40 53 -40q13 0 33 5 q16 4 27 -32q3 -14 3 -23q0 -15 -7 -18z" />
<glyph unicode="&#x1d7;" horiz-adv-x="1512" d="M818 1741q-42 0 -42 53q0 21 8 41l120 302q7 17 28 17q32 0 95 -43q38 -26 38 -47q0 -6 -3 -11l-176 -263q-32 -49 -68 -49zM1164 1679q0 -79 -60 -114q-29 -17 -65 -17q-84 0 -116 63q-12 25 -13 58q0 74 57 111q32 20 72 20q67 0 104 -54q21 -31 21 -67zM734 1679 q0 -79 -60 -114q-29 -17 -65 -17q-84 0 -116 63q-12 25 -13 58q0 74 57 111q32 20 72 20q68 0 104 -54q21 -32 21 -67zM1322 880q0 -276 -12 -416q-17 -245 -154 -373q-126 -118 -383 -118q-156 0 -268 42q-157 61 -219 185q-52 107 -62 345v609q0 116 -157 116 q-14 0 -14 46q0 47 14 47q147 -5 281 -5q146 0 294 5q14 0 14 -46q0 -47 -14 -47q-174 0 -174 -116v-468l11 -281q3 -124 55 -203q90 -135 276 -135q173 0 277 106q90 93 90 323v658q0 116 -157 116q-14 0 -14 46q0 47 14 47q138 -5 229 -5q92 0 227 5q15 0 15 -46 q0 -47 -15 -47q-154 0 -154 -116v-274z" />
<glyph unicode="&#x1d8;" horiz-adv-x="1028" d="M511 1350q-42 0 -42 53q0 21 8 41l120 302q7 17 28 17q32 0 95 -43q38 -26 38 -47q0 -6 -3 -11l-176 -263q-32 -49 -68 -49zM835 1179q0 -79 -60 -114q-29 -17 -65 -17q-84 0 -116 63q-12 25 -13 58q0 74 57 111q32 20 72 20q67 0 104 -54q21 -31 21 -67zM405 1179 q0 -79 -60 -114q-29 -17 -65 -17q-84 0 -116 63q-12 25 -13 58q0 74 57 111q32 20 72 20q68 0 104 -54q21 -32 21 -67zM1038 31q-8 -2 -105 -21l-51 -10q-56 -12 -114 -31q-13 -4 -24 -4q-15 0 -15 45v47q0 23 -12 23t-27 -14q-92 -89 -246 -89q-126 0 -170 35 q-147 118 -147 297v346q0 103 -84 103q-15 0 -15 36.5t15 36.5q112 0 224 18q31 5 50 5q46 0 46 -44q-7 -98 -7 -161v-342q0 -123 50 -182q28 -33 98 -33q64 0 132 55q54 44 54 93v415q0 103 -84 103q-16 0 -16 36.5t16 36.5q111 0 229 19q25 4 39 4q53 0 53 -36 q-8 -95 -8 -156v-406q0 -90 10 -117q14 -40 53 -40q13 0 33 5q16 4 27 -32q3 -14 3 -23q0 -15 -7 -18z" />
<glyph unicode="&#x1d9;" horiz-adv-x="1512" d="M1105 2225l-230 -412q-17 -31 -50 -31q-31 0 -48 31l-229 412q-2 3 -2 6q0 16 28 32q10 6 17 6q6 0 10 -5l182 -213q33 -39 43 -39t43 39l182 213q5 5 11 5q8 0 19 -7q26 -18 26 -31q0 -3 -2 -6zM1164 1679q0 -79 -60 -114q-29 -17 -65 -17q-84 0 -116 63q-12 25 -13 58 q0 74 57 111q32 20 72 20q67 0 104 -54q21 -31 21 -67zM734 1679q0 -79 -60 -114q-29 -17 -65 -17q-84 0 -116 63q-12 25 -13 58q0 74 57 111q32 20 72 20q68 0 104 -54q21 -32 21 -67zM1322 880q0 -276 -12 -416q-17 -245 -154 -373q-126 -118 -383 -118q-156 0 -268 42 q-157 61 -219 185q-52 107 -62 345v609q0 116 -157 116q-14 0 -14 46q0 47 14 47q147 -5 281 -5q146 0 294 5q14 0 14 -46q0 -47 -14 -47q-174 0 -174 -116v-468l11 -281q3 -124 55 -203q90 -135 276 -135q173 0 277 106q90 93 90 323v658q0 116 -157 116q-14 0 -14 46 q0 47 14 47q138 -5 229 -5q92 0 227 5q15 0 15 -46q0 -47 -15 -47q-154 0 -154 -116v-274z" />
<glyph unicode="&#x1da;" horiz-adv-x="1028" d="M782 1808l-230 -412q-17 -31 -50 -31q-31 0 -48 31l-229 412q-2 3 -2 6q0 16 28 32q10 6 17 6q6 0 10 -5l182 -213q33 -39 43 -39t43 39l182 213q5 5 11 5q8 0 19 -7q26 -18 26 -31q0 -3 -2 -6zM835 1179q0 -79 -60 -114q-29 -17 -65 -17q-84 0 -116 63q-12 25 -13 58 q0 74 57 111q32 20 72 20q67 0 104 -54q21 -31 21 -67zM405 1179q0 -79 -60 -114q-29 -17 -65 -17q-84 0 -116 63q-12 25 -13 58q0 74 57 111q32 20 72 20q68 0 104 -54q21 -32 21 -67zM1038 31q-8 -2 -105 -21l-51 -10q-56 -12 -114 -31q-13 -4 -24 -4q-15 0 -15 45v47 q0 23 -12 23t-27 -14q-92 -89 -246 -89q-126 0 -170 35q-147 118 -147 297v346q0 103 -84 103q-15 0 -15 36.5t15 36.5q112 0 224 18q31 5 50 5q46 0 46 -44q-7 -98 -7 -161v-342q0 -123 50 -182q28 -33 98 -33q64 0 132 55q54 44 54 93v415q0 103 -84 103q-16 0 -16 36.5 t16 36.5q111 0 229 19q25 4 39 4q53 0 53 -36q-8 -95 -8 -156v-406q0 -90 10 -117q14 -40 53 -40q13 0 33 5q16 4 27 -32q3 -14 3 -23q0 -15 -7 -18z" />
<glyph unicode="&#x1db;" horiz-adv-x="1512" d="M859 1862q8 -22 8 -40q0 -54 -42 -54q-35 0 -69 49l-169 249q-5 8 -5 16q0 32 58 63q42 23 74 23q24 0 28 -14zM1164 1679q0 -79 -60 -114q-29 -17 -65 -17q-84 0 -116 63q-12 25 -13 58q0 74 57 111q32 20 72 20q67 0 104 -54q21 -31 21 -67zM734 1679q0 -79 -60 -114 q-29 -17 -65 -17q-84 0 -116 63q-12 25 -13 58q0 74 57 111q32 20 72 20q68 0 104 -54q21 -32 21 -67zM1322 880q0 -276 -12 -416q-17 -245 -154 -373q-126 -118 -383 -118q-156 0 -268 42q-157 61 -219 185q-52 107 -62 345v609q0 116 -157 116q-14 0 -14 46q0 47 14 47 q147 -5 281 -5q146 0 294 5q14 0 14 -46q0 -47 -14 -47q-174 0 -174 -116v-468l11 -281q3 -124 55 -203q90 -135 276 -135q173 0 277 106q90 93 90 323v658q0 116 -157 116q-14 0 -14 46q0 47 14 47q138 -5 229 -5q92 0 227 5q15 0 15 -46q0 -47 -15 -47q-154 0 -154 -116 v-274z" />
</font>
</defs>
</svg>
