<?xml version="1.0" standalone="no"?>
<!DOCTYPE svg PUBLIC "-//W3C//DTD SVG 1.1//EN" "http://www.w3.org/Graphics/SVG/1.1/DTD/svg11.dtd" >
<svg xmlns="http://www.w3.org/2000/svg">
<metadata>
This is a custom SVG webfont generated by Font Squirrel.
Designer    : Peter S Baker
Foundry     : Briery Creek Software
</metadata>
<defs>
<font id="webfontNjgZpNTN" horiz-adv-x="0" >
<font-face units-per-em="2048" ascent="1638" descent="-410" />
<missing-glyph horiz-adv-x="559" />
<glyph unicode="IJ" horiz-adv-x="1514" d="M1250 273q-100 -349 -280.5 -520t-339.5 -171q-72 0 -116 28.5t-44 86.5t49 90t105 32q58 0 97 -35.5t43 -87.5q84 56 125.5 167t233.5 775l149 516q7 23 7 41q0 75 -125 75q-8 0 -8 15t9.5 47t23.5 32q57 -6 269 -6t269 6q9 0 9 -13.5t-8 -47t-24 -33.5 q-82 0 -123.5 -21t-63.5 -95zM441 202q-7 -25 -7 -52q0 -64 149 -64q7 0 7 -14.5t-9.5 -47t-20.5 -32.5q-77 8 -289 8t-288 -8q-8 0 -8 13t8.5 47t24.5 34q88 0 133 23.5t65 92.5l272 952q8 27 8 63q0 53 -140 53q-7 0 -7 13.5t11 47t22 33.5q58 -6 286 -6t286 6 q8 0 8 -12.5t-10 -47t-25 -34.5q-110 0 -148.5 -29.5t-54.5 -86.5z" />
<glyph unicode="ij" horiz-adv-x="1025" d="M876 143q-30 -144 -82 -293.5t-166 -276t-303 -126.5q-41 0 -71.5 24.5t-30.5 67.5q0 41 31.5 66.5t72.5 25.5q31 0 68 -38.5t63 -38.5q35 0 71 56t60 161l209 876q3 12 3 20q0 21 -25 21t-92 -84q-10 -13 -37 12q-20 18 -20 28q0 4 3 7q166 201 285 201q91 0 91 -123 q0 -31 -7 -63zM1131 1140q0 -54 -43.5 -92t-95.5 -38q-142 0 -142 152q0 50 44 89t98 39q139 0 139 -150zM332 180q-4 -14 -4 -22q0 -17 25.5 -17t88.5 80q11 14 38 -11q21 -17 21 -28q0 -5 -3 -8q-64 -79 -144 -140t-135 -61q-101 0 -101 125q0 34 11 70l147 479q4 13 4 21 q0 20 -19 20t-97 -82q-12 -12 -38 14q-18 17 -18 28q0 3 3 7q63 77 142 137t134 60q104 0 104 -126q0 -25 -12 -64zM635 1140q0 -54 -43.5 -92t-95.5 -38q-142 0 -142 152q0 50 44 89t98 39q139 0 139 -150z" />
<glyph unicode="D&#x17d;" horiz-adv-x="3076" d="M2348 1814q-4 4 -4 10q0 10 11.5 27.5t20.5 17.5q3 0 5 -1l270 -133q20 -10 40 -10t40 10l301 133q3 1 7 1q13 0 24.5 -16t11.5 -25q0 -8 -6 -14l-350 -270q-26 -19 -51.5 -19t-51.5 23zM1657 103l1202 1125q19 15 17 29.5t-29 14.5h-531q-49 0 -98 -33.5t-122.5 -124 t-94.5 -138.5q-7 -17 -37 -11.5t-22 25.5q74 178 124 337q12 39 62 39q17 0 62.5 -7t586.5 -7l403 8q49 0 49 -43q0 -30 -26 -56l-1198 -1131q-17 -15 -13 -29.5t32 -14.5q331 0 596 13q103 4 187 115q60 79 94 139q9 14 39 3.5t22 -22.5q-59 -102 -89.5 -187.5 t-47.5 -142.5q-12 -36 -32 -36h-3q-115 21 -203 26.5t-507 5.5h-390q-54 0 -54 57q0 26 21 46zM1608 892q0 -320 -278 -610t-665 -290q-44 0 -195.5 4t-223.5 4t-261 -8q-9 0 -9 13.5t8 47t22 33.5q79 0 113 12.5t52 39t30 64.5l286 952q8 28 8 51q0 24 -25 41.5t-122 17.5 q-16 0 -4.5 47t25.5 47q90 -4 231 -4t249.5 2t158.5 2q274 0 437 -122t163 -344zM1348 869q0 189 -116.5 300t-307.5 111q-66 0 -104.5 -4.5t-56 -24.5t-30.5 -61l-282 -926q-12 -42 -12 -75q0 -118 176 -118q273 0 503 258.5t230 539.5z" />
<glyph unicode="D&#x17e;" horiz-adv-x="2584" d="M2613 1363l-307 -408q-22 -29 -57 -29l-19 3q-17 7 -23 26l-137 408v12q7 21 31 31l15 3q7 -1 11 -7l129 -197q29 -44 44 -44l12 4q7 3 47 44l200 197q5 4 12 4l15 -3q22 -11 29 -28v-11zM2067 209l3 -19l42 -7q106 -18 187 -64.5t97 -46.5q62 0 62 55q0 18 -30 48 t-30 79q0 74 97 74q41 0 68.5 -34t27.5 -79q0 -104 -81 -189t-177 -85q-47 0 -121 29l-149 63q-76 33 -111 33q-81 0 -138 -86q-5 -7 -17 -7q-20 0 -57 40q-36 41 -36 63q0 10 6 16l518 526q12 12 12 24q0 14 -20 22q-85 32 -189 32h-24q-53 -2 -53 -22q0 -8 32.5 -39 t32.5 -68q0 -87 -96 -87q-102 0 -102 111q0 102 94.5 176.5t210.5 74.5q53 0 147 -28t137 -28q51 0 73 24l40 44q7 6 16 6q17 0 46 -29q28 -30 28 -46q0 -9 -6 -15zM1608 892q0 -320 -278 -610t-665 -290q-44 0 -195.5 4t-223.5 4t-261 -8q-9 0 -9 13.5t8 47t22 33.5 q79 0 113 12.5t52 39t30 64.5l286 952q8 28 8 51q0 24 -25 41.5t-122 17.5q-16 0 -4.5 47t25.5 47q90 -4 231 -4t249.5 2t158.5 2q274 0 437 -122t163 -344zM1348 869q0 189 -116.5 300t-307.5 111q-66 0 -104.5 -4.5t-56 -24.5t-30.5 -61l-282 -926q-12 -42 -12 -75 q0 -118 176 -118q273 0 503 258.5t230 539.5z" />
<glyph unicode="d&#x17e;" horiz-adv-x="1902" d="M1931 1363l-307 -408q-22 -29 -57 -29l-19 3q-17 7 -23 26l-137 408v12q7 21 31 31l15 3q7 -1 11 -7l129 -197q29 -44 44 -44l12 4q7 3 47 44l200 197q5 4 12 4l15 -3q22 -11 29 -28v-11zM1385 209l3 -19l42 -7q106 -18 187 -64.5t97 -46.5q62 0 62 55q0 18 -30 48 t-30 79q0 74 97 74q41 0 68.5 -34t27.5 -79q0 -104 -81 -189t-177 -85q-47 0 -121 29l-149 63q-76 33 -111 33q-81 0 -138 -86q-5 -7 -17 -7q-20 0 -57 40q-36 41 -36 63q0 10 6 16l518 526q12 12 12 24q0 14 -20 22q-85 32 -189 32h-24q-53 -2 -53 -22q0 -8 32.5 -39 t32.5 -68q0 -87 -96 -87q-102 0 -102 111q0 102 94.5 176.5t210.5 74.5q53 0 147 -28t137 -28q51 0 73 24l40 44q7 6 16 6q17 0 46 -29q28 -30 28 -46q0 -9 -6 -15zM794 228q-12 -48 -12 -64q0 -22 17 -22q28 0 94 85q7 9 22.5 0.5t27 -23.5t5.5 -24q-147 -207 -274 -207 q-58 0 -77 36t-19 102q0 20 18 104l-12 6q-86 -101 -179 -174.5t-182 -73.5q-84 0 -122 63.5t-38 135.5q0 200 182.5 440t387.5 240q55 0 108 -31l93 389q10 43 10 75q0 75 -62 75q-19 0 -19 36t19 36q84 0 180.5 27.5t104.5 27.5q21 0 21 -19q0 -6 -3 -20zM715 711 q-41 59 -101 59q-114 0 -221.5 -201.5t-107.5 -363.5q0 -94 47 -94q58 0 180 132t139 201z" />
<glyph unicode="LJ" horiz-adv-x="2119" d="M1855 273q-100 -349 -280.5 -520t-339.5 -171q-72 0 -116 28.5t-44 86.5t49 90t105 32q58 0 97 -35.5t43 -87.5q84 56 125.5 167t233.5 775l149 516q7 23 7 41q0 75 -125 75q-8 0 -8 15t9.5 47t23.5 32q57 -6 269 -6t269 6q9 0 9 -13.5t-8 -47t-24 -33.5 q-82 0 -123.5 -21t-63.5 -95zM1207 48q-11 -42 -22.5 -49t-84.5 -7q-100 0 -393 4t-414 4t-312 -8q-7 0 -7 12t11 47t26 35q125 0 153.5 33t41.5 78l275 957q8 26 8 52q0 64 -143 64q-7 0 -7 14t11 47t22 33q58 -6 293 -6t292 6q6 0 6 -13t-10.5 -47t-22.5 -34 q-122 0 -155.5 -26.5t-54.5 -89.5l-265 -913q-15 -47 -15 -81q0 -82 103 -82h7l317 14q257 11 338 290q5 17 54 17t44 -17z" />
<glyph unicode="Lj" horiz-adv-x="1904" d="M1755 143q-30 -144 -82 -293.5t-166 -276t-303 -126.5q-41 0 -71.5 24.5t-30.5 67.5q0 41 31.5 66.5t72.5 25.5q31 0 68 -38.5t63 -38.5q35 0 71 56t60 161l209 876q3 12 3 20q0 21 -25 21t-92 -84q-10 -13 -37 12q-20 18 -20 28q0 4 3 7q166 201 285 201q91 0 91 -123 q0 -31 -7 -63zM2010 1140q0 -54 -43.5 -92t-95.5 -38q-142 0 -142 152q0 50 44 89t98 39q139 0 139 -150zM1207 48q-11 -42 -22.5 -49t-84.5 -7q-100 0 -393 4t-414 4t-312 -8q-7 0 -7 12t11 47t26 35q125 0 153.5 33t41.5 78l275 957q8 26 8 52q0 64 -143 64q-7 0 -7 14 t11 47t22 33q58 -6 293 -6t292 6q6 0 6 -13t-10.5 -47t-22.5 -34q-122 0 -155.5 -26.5t-54.5 -89.5l-265 -913q-15 -47 -15 -81q0 -82 103 -82h7l317 14q257 11 338 290q5 17 54 17t44 -17z" />
<glyph unicode="lj" horiz-adv-x="988" d="M839 143q-30 -144 -82 -293.5t-166 -276t-303 -126.5q-41 0 -71.5 24.5t-30.5 67.5q0 41 31.5 66.5t72.5 25.5q31 0 68 -38.5t63 -38.5q35 0 71 56t60 161l209 876q3 12 3 20q0 21 -25 21t-92 -84q-10 -13 -37 12q-20 18 -20 28q0 4 3 7q166 201 285 201q91 0 91 -123 q0 -31 -7 -63zM1094 1140q0 -54 -43.5 -92t-95.5 -38q-142 0 -142 152q0 50 44 89t98 39q139 0 139 -150zM296 195q-5 -21 -5 -29q0 -25 20 -25q33 0 92 86q4 6 11 6q11 0 30.5 -16t19.5 -27q0 -4 -3 -8q-158 -209 -281 -209q-95 0 -95 128q0 26 7 55l248 1054q10 44 10 75 q0 75 -61 75q-21 0 -20 36t20 36q84 0 180 27.5t104 27.5q21 0 21 -22q0 -8 -2 -17z" />
<glyph unicode="NJ" horiz-adv-x="2291" d="M2027 273q-100 -349 -280.5 -520t-339.5 -171q-72 0 -116 28.5t-44 86.5t49 90t105 32q58 0 97 -35.5t43 -87.5q84 56 125.5 167t233.5 775l149 516q7 23 7 41q0 75 -125 75q-8 0 -8 15t9.5 47t23.5 32q57 -6 269 -6t269 6q9 0 9 -13.5t-8 -47t-24 -33.5 q-82 0 -123.5 -21t-63.5 -95zM1192 27q-16 -54 -58 -54t-57 29l-504 1006q-12 23 -22.5 23t-17.5 -24l-229 -805q-9 -32 -9 -56q0 -60 123 -60q8 0 8 -14.5t-10 -47t-23 -32.5q-76 8 -207 8t-207 -8q-7 0 -7 12.5t8.5 47t23.5 34.5q96 0 136.5 26t58.5 90l254 894 q16 55 16 103t-46 62q-32 9 -85 9q-6 0 -6 13.5t10.5 47t24.5 33.5q75 -5 165 -5t116 -14.5t42 -47.5l445 -902q15 -31 30 -31q17 0 27 35l221 755q8 26 8 45q0 71 -128 71q-7 0 -7 13.5t11 47t25 33.5q57 -6 204 -6t204 6q9 0 9 -12.5t-10 -47t-25 -34.5q-104 0 -137 -28 t-45 -72z" />
<glyph unicode="Nj" horiz-adv-x="2076" d="M1927 143q-30 -144 -82 -293.5t-166 -276t-303 -126.5q-41 0 -71.5 24.5t-30.5 67.5q0 41 31.5 66.5t72.5 25.5q31 0 68 -38.5t63 -38.5q35 0 71 56t60 161l209 876q3 12 3 20q0 21 -25 21t-92 -84q-10 -13 -37 12q-20 18 -20 28q0 4 3 7q166 201 285 201q91 0 91 -123 q0 -31 -7 -63zM2182 1140q0 -54 -43.5 -92t-95.5 -38q-142 0 -142 152q0 50 44 89t98 39q139 0 139 -150zM1192 27q-16 -54 -58 -54t-57 29l-504 1006q-12 23 -22.5 23t-17.5 -24l-229 -805q-9 -32 -9 -56q0 -60 123 -60q8 0 8 -14.5t-10 -47t-23 -32.5q-76 8 -207 8 t-207 -8q-7 0 -7 12.5t8.5 47t23.5 34.5q96 0 136.5 26t58.5 90l254 894q16 55 16 103t-46 62q-32 9 -85 9q-6 0 -6 13.5t10.5 47t24.5 33.5q75 -5 165 -5t116 -14.5t42 -47.5l445 -902q15 -31 30 -31q17 0 27 35l221 755q8 26 8 45q0 71 -128 71q-7 0 -7 13.5t11 47 t25 33.5q57 -6 204 -6t204 6q9 0 9 -12.5t-10 -47t-25 -34.5q-104 0 -137 -28t-45 -72z" />
<glyph unicode="nj" horiz-adv-x="1515" d="M1366 143q-30 -144 -82 -293.5t-166 -276t-303 -126.5q-41 0 -71.5 24.5t-30.5 67.5q0 41 31.5 66.5t72.5 25.5q31 0 68 -38.5t63 -38.5q35 0 71 56t60 161l209 876q3 12 3 20q0 21 -25 21t-92 -84q-10 -13 -37 12q-20 18 -20 28q0 4 3 7q166 201 285 201q91 0 91 -123 q0 -31 -7 -63zM1621 1140q0 -54 -43.5 -92t-95.5 -38q-142 0 -142 152q0 50 44 89t98 39q139 0 139 -150zM831 232q-20 -65 -20 -71q0 -20 23 -20t98 84q3 4 8 4q10 0 30 -17.5t20 -28.5q0 -4 -3 -7q-162 -203 -297 -203q-90 0 -90 128q0 33 10 67l125 412q31 102 31 131 q0 32 -18 32q-99 0 -249.5 -264.5t-226.5 -482.5q-8 -23 -107 -23q-92 0 -92 21q0 2 1 4l194 623q11 35 11 45q0 22 -23 22t-92 -82q-4 -4 -9 -4q-11 0 -29 17.5t-18 28.5q0 4 3 7q171 197 282 197q88 0 88 -104q0 -37 -16 -82l-57 -162l12 -4q201 352 391 352 q143 0 143 -141q0 -71 -28 -164z" />
<glyph unicode="DZ" horiz-adv-x="3076" d="M1657 103l1202 1125q19 15 17 29.5t-29 14.5h-531q-49 0 -98 -33.5t-122.5 -124t-94.5 -138.5q-7 -17 -37 -11.5t-22 25.5q74 178 124 337q12 39 62 39q17 0 62.5 -7t586.5 -7l403 8q49 0 49 -43q0 -30 -26 -56l-1198 -1131q-17 -15 -13 -29.5t32 -14.5q331 0 596 13 q103 4 187 115q60 79 94 139q9 14 39 3.5t22 -22.5q-59 -102 -89.5 -187.5t-47.5 -142.5q-12 -36 -32 -36h-3q-115 21 -203 26.5t-507 5.5h-390q-54 0 -54 57q0 26 21 46zM1608 892q0 -320 -278 -610t-665 -290q-44 0 -195.5 4t-223.5 4t-261 -8q-9 0 -9 13.5t8 47t22 33.5 q79 0 113 12.5t52 39t30 64.5l286 952q8 28 8 51q0 24 -25 41.5t-122 17.5q-16 0 -4.5 47t25.5 47q90 -4 231 -4t249.5 2t158.5 2q274 0 437 -122t163 -344zM1348 869q0 189 -116.5 300t-307.5 111q-66 0 -104.5 -4.5t-56 -24.5t-30.5 -61l-282 -926q-12 -42 -12 -75 q0 -118 176 -118q273 0 503 258.5t230 539.5z" />
<glyph unicode="D&#x7a;" horiz-adv-x="2584" d="M2067 209l3 -19l42 -7q106 -18 187 -64.5t97 -46.5q62 0 62 55q0 18 -30 48t-30 79q0 74 97 74q41 0 68.5 -34t27.5 -79q0 -104 -81 -189t-177 -85q-47 0 -121 29l-149 63q-76 33 -111 33q-81 0 -138 -86q-5 -7 -17 -7q-20 0 -57 40q-36 41 -36 63q0 10 6 16l518 526 q12 12 12 24q0 14 -20 22q-85 32 -189 32h-24q-53 -2 -53 -22q0 -8 32.5 -39t32.5 -68q0 -87 -96 -87q-102 0 -102 111q0 102 94.5 176.5t210.5 74.5q53 0 147 -28t137 -28q51 0 73 24l40 44q7 6 16 6q17 0 46 -29q28 -30 28 -46q0 -9 -6 -15zM1608 892q0 -320 -278 -610 t-665 -290q-44 0 -195.5 4t-223.5 4t-261 -8q-9 0 -9 13.5t8 47t22 33.5q79 0 113 12.5t52 39t30 64.5l286 952q8 28 8 51q0 24 -25 41.5t-122 17.5q-16 0 -4.5 47t25.5 47q90 -4 231 -4t249.5 2t158.5 2q274 0 437 -122t163 -344zM1348 869q0 189 -116.5 300t-307.5 111 q-66 0 -104.5 -4.5t-56 -24.5t-30.5 -61l-282 -926q-12 -42 -12 -75q0 -118 176 -118q273 0 503 258.5t230 539.5z" />
<glyph unicode="d&#x7a;" horiz-adv-x="1902" d="M1385 209l3 -19l42 -7q106 -18 187 -64.5t97 -46.5q62 0 62 55q0 18 -30 48t-30 79q0 74 97 74q41 0 68.5 -34t27.5 -79q0 -104 -81 -189t-177 -85q-47 0 -121 29l-149 63q-76 33 -111 33q-81 0 -138 -86q-5 -7 -17 -7q-20 0 -57 40q-36 41 -36 63q0 10 6 16l518 526 q12 12 12 24q0 14 -20 22q-85 32 -189 32h-24q-53 -2 -53 -22q0 -8 32.5 -39t32.5 -68q0 -87 -96 -87q-102 0 -102 111q0 102 94.5 176.5t210.5 74.5q53 0 147 -28t137 -28q51 0 73 24l40 44q7 6 16 6q17 0 46 -29q28 -30 28 -46q0 -9 -6 -15zM794 228q-12 -48 -12 -64 q0 -22 17 -22q28 0 94 85q7 9 22.5 0.5t27 -23.5t5.5 -24q-147 -207 -274 -207q-58 0 -77 36t-19 102q0 20 18 104l-12 6q-86 -101 -179 -174.5t-182 -73.5q-84 0 -122 63.5t-38 135.5q0 200 182.5 440t387.5 240q55 0 108 -31l93 389q10 43 10 75q0 75 -62 75q-19 0 -19 36 t19 36q84 0 180.5 27.5t104.5 27.5q21 0 21 -19q0 -6 -3 -20zM715 711q-41 59 -101 59q-114 0 -221.5 -201.5t-107.5 -363.5q0 -94 47 -94q58 0 180 132t139 201z" />
<glyph unicode="&#x2e;&#x2e;&#x2e;" horiz-adv-x="2074" d="M1884 119q0 -79 -63 -121l-28 -14q-28 -11 -58 -11q-74 0 -121 46q-43 42 -43 114q0 52 38 95q44 51 126 51q73 0 117 -58q32 -43 32 -102zM1208 119q0 -79 -63 -121l-28 -14q-28 -11 -58 -11q-76 0 -123 48q-41 42 -41 112q0 52 38 95q44 51 126 51q75 0 118 -59 q31 -42 31 -101zM532 119q0 -79 -63 -121q-38 -25 -86 -25q-74 0 -122 47q-42 42 -42 113q0 52 38 95q44 51 126 51q75 0 118 -59q31 -42 31 -101z" />
<glyph unicode="fj" horiz-adv-x="1032" d="M844 143q-49 -199 -69 -257q-67 -191 -182 -315t-286 -124q-62 0 -89 28t-27 64q0 47 34 69.5t67 22.5q37 0 72 -38.5t62 -38.5q40 0 75 65.5t56 151.5l211 882q4 17 4 26q0 46 -41 46h-270l-166 -821q-31 -153 -96 -279q-24 -47 -43 -65q-120 -111 -252 -111 q-87 0 -139 41t-52 86q0 55 31.5 80t60.5 25q61 0 89.5 -64t62.5 -64q39 0 62 37.5t47 159.5l196 975h-186q-7 0 -7 14q0 35 22 74q10 18 18 18h176q51 245 98 358.5t154 194t262 80.5q114 0 170.5 -57.5t56.5 -138.5q0 -59 -27.5 -89t-66.5 -30q-49 0 -76.5 27.5 t-26.5 66.5l1 71q1 68 -82 68q-66 0 -132 -91q-64 -87 -106 -307l-29 -153h348q53 0 125 16q22 5 37 5q22 0 22 -17q0 -4 -1 -9z" />
<glyph unicode="&#x17f;b" horiz-adv-x="1416" d="M1402 608q0 -168 -104 -332t-250 -233.5t-291 -69.5q-92 0 -137 48t-45 144q0 47 12 97l218 916q10 43 10 77q0 61 -35 94t-82 33q-63 0 -127 -87t-122 -378l-203 -1013q-50 -250 -149.5 -352.5t-241.5 -102.5q-88 0 -139.5 41t-51.5 86q0 56 32.5 80.5t59.5 24.5 q58 0 90 -63.5t62 -63.5q68 0 93 123l228 1124q87 428 210 545.5t311 117.5q62 0 116 -22l184 45q3 1 6 1q18 0 9 -40l-187 -795l17 -8q77 96 153.5 151.5t149.5 55.5q100 0 152 -71t52 -173zM1183 622q0 109 -65 109q-74 0 -175 -133t-134 -249t-33 -180q0 -106 71 -106 q104 0 183 104t116 226.5t37 228.5z" />
<glyph unicode="&#x17f;h" horiz-adv-x="1409" d="M1401 619q0 -95 -50 -247t-138 -276.5t-224 -124.5q-62 0 -101.5 38t-39.5 83q0 61 28 87t68 26q67 0 85.5 -57.5t41.5 -57.5q38 0 81.5 170.5t43.5 327.5q0 66 -26 99.5t-56 33.5q-91 0 -244 -225q-41 -60 -90 -256l-61 -244q-6 -25 -72 -25q-93 0 -118 29q-7 8 -5 14 l281 1164q10 41 10 77q0 61 -35 94t-82 33q-63 0 -127 -86.5t-122 -378.5l-203 -1013q-50 -250 -149.5 -352.5t-241.5 -102.5q-88 0 -139.5 41t-51.5 86q0 56 32.5 80.5t59.5 24.5q58 0 90 -63.5t62 -63.5q68 0 93 123l228 1124q87 428 210 545.5t311 117.5q62 0 116 -22 l184 45q3 1 6 1q18 0 9 -40l-188 -799l16 -10q153 213 305 213q106 0 154.5 -70t48.5 -163z" />
<glyph unicode="&#x17f;i" horiz-adv-x="978" d="M772 159q2 -16 23 -17h1q21 0 75 62q17 20 31 20t27.5 -18t14.5 -26l-2 -6q-173 -201 -289 -201q-65 0 -84 74q-7 24 -7 51q0 33 11 70l147 479l3 20q-1 21 -21.5 21t-93.5 -82q-3 -3 -15 -3t-26 19t-14 25t2 8q168 197 288 197q64 0 84 -72q5 -18 6 -40l-2 -43 q-3 -18 -8 -35l-147 -482zM977 1268q0 -94 -65 -115l-27 -4h-2q-55 0 -84 37q-19 23 -19 57q0 68 -2 80q-10 49 -56 57q-11 2 -24 2q-67 0 -127 -86q-6 -8 -12 -18q-57 -89 -99 -302l-36 -190l-178 -882q-32 -155 -96 -279q-25 -47 -44 -65q-115 -111 -251 -111 q-111 0 -165 65q-26 31 -26 62q0 62 48 92q21 13 44 13q59 0 86 -56q26 -50 38 -61q13 -11 28 -11q58 0 85 93q6 19 23 104l213 1051q55 274 106 389q25 57 54 96q131 178 361 178q126 0 189 -81q38 -49 38 -115z" />
<glyph unicode="&#x17f;k" horiz-adv-x="1398" d="M1333 707q0 -71 -75 -150t-238 -166l141 -196q76 -105 131 -105q34 0 74 41q14 14 36 -11q17 -20 17 -29q0 -3 -2 -5q-34 -41 -92 -78t-108 -37q-90 0 -137 30t-97 108l-135 210q-14 21 -37 21q-10 0 -16 -27l-76 -319q-5 -23 -64 -23q-85 0 -123 28q-9 7 -8 13l281 1166 q10 42 10 77q0 61 -35 94t-82 33q-63 0 -127 -86.5t-122 -378.5l-203 -1013q-50 -250 -149.5 -352.5t-241.5 -102.5q-88 0 -139.5 41t-51.5 86q0 56 32.5 80.5t59.5 24.5q58 0 90 -63.5t62 -63.5q68 0 93 123l228 1124q87 428 210 545.5t311 117.5q62 0 116 -22l174 44 q6 1 9 1q25 0 16 -39l-174 -731l16 -8q58 67 132 105t137 38q80 0 118.5 -39t38.5 -106zM1126 684q0 55 -36 55q-99 0 -203 -129q-30 -34 -37 -63l-37 -154q159 17 236 108t77 183z" />
<glyph unicode="&#x17f;l" horiz-adv-x="966" d="M762 180q-9 -39 16 -39q34 0 94 83q10 15 37.5 -9t20.5 -33q-160 -211 -281 -211q-48 0 -70 37.5t-22 93.5q0 27 6 54l242 1022q10 42 10 77q0 61 -35 94t-82 33q-63 0 -126.5 -86t-122.5 -379l-203 -1013q-50 -250 -149.5 -352.5t-241.5 -102.5q-88 0 -139.5 41 t-51.5 86q0 56 32.5 80.5t59.5 24.5q58 0 90 -63.5t62 -63.5q68 0 93 123l228 1124q87 428 210 545.5t311 117.5q62 0 116 -22l183 45q2 1 5 1q10 0 10 -17q0 -9 -3 -23z" />
<glyph unicode="&#x17f;&#x17f;" horiz-adv-x="962" d="M1454 1268q0 -19 -11.5 -52.5t-37.5 -50t-45 -16.5q-49 0 -76 26t-27 84q0 77 -18 100t-63 23q-65 0 -130.5 -89.5t-104.5 -283t-40 -223.5l-174 -856q-23 -112 -70 -229.5t-146 -170t-173 -52.5q-64 0 -106 18.5t-63 50t-21 55.5q0 10 2 19q-46 -87 -130 -129.5 t-165 -42.5q-98 0 -144.5 43.5t-46.5 83.5q0 54 32 79.5t60 25.5q59 0 89.5 -63.5t62.5 -63.5q68 0 93 123l224 1101q46 225 100 372t167 219.5t256 72.5q124 0 186 -82q118 104 293 104q116 0 171.5 -60t55.5 -136zM823 1217q-24 93 -54 118t-75 25q-63 0 -126 -83.5 t-123 -382.5l-199 -990q-25 -119 -72 -226q29 29 64 29q59 0 91 -63.5t60 -63.5q29 0 56 29.5t55 169.5l207 1022q63 310 116 416z" />
<glyph unicode="&#x17f;&#x17f;i" horiz-adv-x="1455" d="M1249 159q2 -16 23 -17h1q21 0 75 62q17 20 31 20t27.5 -18t14.5 -26l-2 -6q-173 -201 -289 -201q-65 0 -84 74q-7 24 -7 51q0 33 11 70l147 479l3 20q-1 21 -21.5 21t-93.5 -82q-3 -3 -15 -3t-26 19t-14 25t2 8q168 197 288 197q64 0 84 -72q5 -18 6 -40l-2 -43 q-3 -18 -8 -35l-147 -482zM1454 1268q0 -19 -11.5 -52.5t-37.5 -50t-45 -16.5q-49 0 -76 26t-27 84q0 77 -18 100t-63 23q-65 0 -130.5 -89.5t-104.5 -283t-40 -223.5l-174 -856q-23 -112 -70 -229.5t-146 -170t-173 -52.5q-64 0 -106 18.5t-63 50t-21 55.5q0 10 2 19 q-46 -87 -130 -129.5t-165 -42.5q-98 0 -144.5 43.5t-46.5 83.5q0 54 32 79.5t60 25.5q59 0 89.5 -63.5t62.5 -63.5q68 0 93 123l224 1101q46 225 100 372t167 219.5t256 72.5q124 0 186 -82q118 104 293 104q116 0 171.5 -60t55.5 -136zM823 1217q-24 93 -54 118t-75 25 q-63 0 -126 -83.5t-123 -382.5l-199 -990q-25 -119 -72 -226q29 29 64 29q59 0 91 -63.5t60 -63.5q29 0 56 29.5t55 169.5l207 1022q63 310 116 416z" />
<glyph unicode="&#x17f;&#x17f;l" horiz-adv-x="1443" d="M1244 180q-10 -39 16 -39q34 0 93 83q11 15 38.5 -9t20.5 -33q-164 -211 -281 -211q-48 0 -70.5 37.5t-22.5 93.5q0 27 7 54l242 1022q10 42 10 77q0 61 -35.5 94t-85.5 33q-65 0 -130.5 -89.5t-104.5 -283t-40 -223.5l-174 -856q-23 -112 -70 -229.5t-146 -170 t-173 -52.5q-64 0 -106 18.5t-63 50t-21 55.5q0 10 2 19q-46 -87 -130 -129.5t-165 -42.5q-98 0 -144.5 43.5t-46.5 83.5q0 54 32 79.5t60 25.5q59 0 89.5 -63.5t62.5 -63.5q68 0 93 123l224 1101q46 225 100 372t167 219.5t256 72.5q124 0 186 -82q118 104 292 104 q68 0 122 -22l183 45q2 1 4 1q11 0 11 -17q0 -9 -3 -23zM823 1217q-24 93 -54 118t-75 25q-63 0 -126 -83.5t-123 -382.5l-199 -990q-25 -119 -72 -226q29 29 64 29q59 0 91 -63.5t60 -63.5q29 0 56 29.5t55 169.5l207 1022q63 310 116 416z" />
<glyph unicode="&#xfb00;" horiz-adv-x="1091" d="M1501 1268q0 -62 -27.5 -90.5t-66.5 -28.5t-70.5 22.5t-31.5 71.5q2 23 0 47.5t-6.5 45t-24 33.5t-51.5 13q-74 0 -142 -104q-45 -72 -76.5 -205t-46.5 -229h261q14 0 -2.5 -53.5t-32.5 -53.5h-246l-164 -807q-20 -104 -63 -208.5t-76 -133.5q-103 -110 -250 -110 q-98 0 -149 47q-42 38 -42 76q0 10 3 20q-35 -63 -113 -117.5t-182 -54.5q-88 0 -139.5 41t-51.5 86t29 75t63 30q58 0 86 -56q7 -10 11 -20.5t10 -19.5t12 -16t14.5 -11t18.5 -4q27 0 46 18t29.5 47t18.5 63.5t14 67.5l199 987h-182q-14 0 2 53.5t31 53.5h172 q65 307 147 420q131 178 363 178q125 0 186 -82q119 104 293 104q102 0 164.5 -55t62.5 -141zM870 1217q-6 18 -10 37.5t-13 38t-21.5 33.5t-34 24.5t-50.5 9.5q-75 0 -139 -103q-31 -49 -55.5 -124.5t-37.5 -144.5l-28 -144h281q49 256 108 373zM739 737h-278l-168 -833 q-25 -119 -72 -226q29 29 64 29q59 0 86 -53q37 -74 65 -74q19 0 34 8.5t24.5 22.5t18.5 34.5t14 42.5l11 44q5 24 9 47z" />
<glyph unicode="&#xfb01;" horiz-adv-x="1032" d="M1026 1268q0 -119 -94 -119q-37 0 -70 22.5t-33 71.5q-2 31 1.5 62.5t-16 54t-66.5 22.5q-70 0 -140 -104q-33 -51 -57.5 -127t-37.5 -152.5t-32 -167.5h348q54 0 101 10.5t61 10.5q31 0 19 -39l-181 -633q-10 -39 13 -39q30 0 98 80q10 15 38 -11t17 -36 q-174 -201 -288 -201q-62 0 -83 68q-9 32 -9 62q0 34 12 65l141 485q10 31 0 51.5t-37 20.5h-270l-166 -821q-21 -105 -64 -209.5t-75 -134.5q-119 -111 -252 -111q-88 0 -139.5 41t-51.5 86t29 75t63 30q60 0 86 -56q35 -71 66 -71q27 0 46.5 18t29.5 47t18 63l15 68 l196 975h-186q-15 0 1.5 53t31.5 53h176q34 175 67 279t86 176q131 178 361 178q108 0 167.5 -55t59.5 -141z" />
<glyph unicode="&#xfb02;" horiz-adv-x="1013" d="M1108 1448l-299 -1268q-10 -39 16 -39q31 0 93 86q8 15 38.5 -9.5t20.5 -35.5q-160 -211 -281 -211q-59 0 -80 59q-13 33 -13 70q0 27 7 56l138 581h-287l-168 -833q-21 -105 -64 -209.5t-75 -134.5q-121 -111 -252 -111q-88 0 -139.5 41t-51.5 86t29 75t63 30 q58 0 86 -56q7 -10 11 -20.5t10 -19.5t12 -16t14.5 -11t18.5 -4q27 0 46 18t29.5 47t18.5 63.5t14 67.5l199 987h-182q-14 0 2 53.5t31 53.5h172q65 325 151 442q131 178 361 178q69 0 116 -22q48 8 109 26.5t74 18.5q14 0 14 -20q0 -8 -2 -19zM850 1180q8 36 8 67 q0 40 -12 74q-23 61 -101 61q-71 0 -139 -104q-33 -51 -57.5 -129t-37.5 -151.5t-30 -153.5h291z" />
<glyph unicode="&#xfb03;" horiz-adv-x="1503" d="M1501 1268q0 -62 -27.5 -90.5t-66.5 -28.5t-70.5 22.5t-31.5 71.5q2 23 0 47.5t-6.5 45t-24 33.5t-51.5 13q-74 0 -142 -104q-32 -51 -57 -128t-37 -152.5t-31 -166.5h344q52 0 100 10.5t62 10.5q31 0 19 -39l-181 -633q-10 -39 13 -39q14 0 34.5 15.5t35 33t28.5 31.5 q12 12 39 -12.5t16 -34.5q-174 -201 -288 -201q-62 0 -82 68q-10 32 -10 62q0 34 12 65l141 485q10 23 1 47.5t-38 24.5h-266l-162 -795q-20 -104 -63 -208.5t-76 -133.5q-103 -110 -250 -110q-98 0 -149 47q-42 38 -42 76q0 10 3 20q-35 -63 -113 -117.5t-182 -54.5 q-88 0 -139.5 41t-51.5 86t29 75t63 30q58 0 86 -56q7 -10 11 -20.5t10 -19.5t12 -16t14.5 -11t18.5 -4q27 0 46 18t29.5 47t18.5 63.5t14 67.5l197 975h-182q-17 0 -0.5 53t33.5 53h172q65 318 149 433q131 178 363 178q125 0 186 -82q119 104 293 104q102 0 164.5 -55 t62.5 -141zM870 1217q-6 18 -10 37.5t-13 38t-21.5 33.5t-34 24.5t-50.5 9.5q-75 0 -139 -103q-24 -36 -43.5 -87.5t-32 -104.5t-25 -113.5t-22.5 -120.5h281q57 283 110 386zM737 725h-278l-166 -821q-25 -119 -72 -226q29 29 64 29q59 0 86 -53q37 -74 65 -74q19 0 34 8.5 t24.5 22.5t18.5 34.5t14 42.5l11 44q5 24 9 47z" />
<glyph unicode="&#xfb04;" horiz-adv-x="1492" d="M1587 1448l-299 -1268q-8 -39 19 -39q14 0 32.5 16.5t31.5 36t26 33.5q10 15 39.5 -8.5t19.5 -36.5q-158 -209 -280 -209q-62 0 -84 57q-12 33 -12 70q0 27 7 56l138 581h-287l-164 -807q-20 -104 -63 -208.5t-76 -133.5q-103 -110 -250 -110q-98 0 -149 47 q-42 38 -42 76q0 10 3 20q-35 -63 -113 -117.5t-182 -54.5q-88 0 -139.5 41t-51.5 86t29 75t63 30q58 0 86 -56q7 -10 11 -20.5t10 -19.5t12 -16t14.5 -11t18.5 -4q27 0 46 18t29.5 47t18.5 63.5t14 67.5l199 987h-182q-14 0 2 53.5t31 53.5h172q65 309 147 420 q131 178 363 178q125 0 186 -82q119 104 293 104q63 0 115 -22q45 8 105 26.5t75 18.5q21 0 21 -21q0 -8 -3 -18zM1327 1180q10 36 10 69q0 37 -13 71q-24 62 -101 62q-74 0 -142 -104q-45 -72 -76.5 -202t-46.5 -232h291zM870 1217q-6 18 -10 37.5t-13 38t-21.5 33.5 t-34 24.5t-50.5 9.5q-75 0 -139 -103q-31 -49 -55.5 -124.5t-37.5 -144.5l-28 -144h281q49 258 108 373zM739 737h-278l-168 -833q-25 -119 -72 -226q29 29 64 29q59 0 86 -53q37 -74 65 -74q19 0 34 8.5t24.5 22.5t18.5 34.5t14 42.5l11 44q5 24 9 47z" />
<glyph unicode="f&#xf0;" horiz-adv-x="1534" d="M66 -250l200 987h-180q-16 0 0 53.5t33 53.5h168q26 121 67.5 269.5t146 249.5t220.5 101q94 0 157.5 -41.5t63.5 -101.5q0 -48 -28.5 -80.5t-69.5 -32.5q-38 0 -68 23.5t-31 70.5q-3 80 -59 80q-48 0 -92.5 -88.5t-68.5 -224.5l-40 -225h256q17 0 -1.5 -53.5 t-32.5 -53.5h-244l-168 -833q-21 -106 -69 -223q-49 -118 -137 -175t-185 -57q-88 0 -139.5 41t-51.5 86t29 75t63 30q60 0 90.5 -63.5t61.5 -63.5q27 0 46.5 18t29.5 47t18 63zM911 201q0 -58 36.5 -92.5t77.5 -34.5q64 0 132.5 95t112.5 228t44 244q0 59 -31.5 84 t-70.5 25q-66 0 -137.5 -88.5t-117.5 -217.5t-46 -243zM718 322q0 221 159 375.5t339 154.5q8 0 26.5 -1t24.5 -1q-57 98 -154 184l-223 -144q-3 -2 -6 -2q-18 0 -40 70q-16 57 -16 74q0 8 3 8q2 0 31.5 -17.5t54.5 -17.5q22 0 41 12l98 64q-47 35 -93 62q-18 10 4.5 58.5 t38.5 39.5q80 -36 163 -86l297 195q2 1 5 1q17 0 50 -67q27 -55 27 -70q0 -6 -4 -6q-7 0 -44.5 12.5t-60.5 12.5q-20 0 -33 -8l-172 -111q281 -196 281 -467q0 -305 -142.5 -489.5t-377.5 -184.5q-277 0 -277 349z" />
<glyph unicode="f&#xfe;" horiz-adv-x="1419" d="M63 -250l199 987h-182q-14 0 2 53.5t31 53.5h172q65 325 151 442q131 178 361 178q69 0 116 -22q37 5 92 25t70 20q20 0 13 -39l-139 -728q118 132 260 132q82 0 146.5 -46t64.5 -140q0 -125 -64 -262.5t-233 -265.5t-316 -165l-69 -358q-21 -104 -291 -172h-2 q-7 0 -15 15q-8 18 -8 34q0 18 8 21q59 18 81 50q24 33 36 97l303 1554q4 22 4 43q0 37 -13 71q-21 54 -96 54q-71 0 -139 -104q-33 -51 -57.5 -129t-37.5 -151.5t-30 -153.5h171q17 0 6.5 -53.5t-31.5 -53.5h-166l-168 -833q-22 -107 -64.5 -210.5t-119 -174t-207.5 -70.5 q-88 0 -139.5 41t-51.5 86t29 75t63 30q56 0 86.5 -63.5t65.5 -63.5q27 0 46 18t29.5 47t17 57t15.5 74zM819 45q132 45 231 172t130 237.5t31 207.5q0 45 -28 70.5t-56 25.5q-72 0 -136.5 -80t-82.5 -178z" />
<glyph />
<glyph />
<glyph unicode="&#xd;" horiz-adv-x="682" />
<glyph unicode=" "  horiz-adv-x="559" />
<glyph unicode="&#x09;" horiz-adv-x="559" />
<glyph unicode="&#xa0;" horiz-adv-x="559" />
<glyph unicode="!" horiz-adv-x="569" d="M699.5 1230.5q-15.5 -40.5 -158.5 -377.5t-172 -411q-9 -20 -51.5 -20t-45.5 24l139 719q15 77 30 119.5t62.5 78.5t94.5 36q117 0 117 -92q0 -36 -15.5 -76.5zM385 123q-1 -66 -50.5 -108t-114.5 -42t-108.5 49t-43.5 113.5t50 108.5t115.5 44t108.5 -49.5t43 -115.5z " />
<glyph unicode="&#x22;" horiz-adv-x="794" d="M856 944h-88q4 29 20.5 221.5t24.5 214.5q36 100 152 100t116 -68q0 -20 -8 -45t-99.5 -195.5t-117.5 -227.5zM454 944h-88q4 29 20.5 221.5t24.5 214.5q36 100 152 100t116 -68q0 -20 -8 -45t-99.5 -195.5t-117.5 -227.5z" />
<glyph unicode="#" horiz-adv-x="1015" d="M551 10h-135l164 371h-181l-163 -371h-136l164 371h-192l22 133h230l127 289h-195l25 131h229l137 315h135l-139 -315h180l140 315h135l-140 -315h179l-23 -131h-213l-127 -289h178l-22 -133h-215zM639 514l127 289h-180l-127 -289h180z" />
<glyph unicode="$" horiz-adv-x="995" d="M1047 1303q0 -129 -23 -261q-5 -29 -49.5 -29t-46.5 16l-2 41q-7 136 -133 171l-119 -444q155 -49 218.5 -114t63.5 -169q0 -94 -42 -198t-158 -210t-299 -122l-37 -134q-4 -15 -66.5 -15t-58.5 15l37 136q-100 9 -190 56l-66 34l-2 60v17q0 95 30 222q6 25 52.5 25 t42.5 -22q-5 -30 -5 -53q0 -94 46.5 -154t117.5 -83l134 492q-162 69 -205 130.5t-43 153.5q0 175 129 309t319 156l37 137q4 16 66.5 16t58.5 -16l-37 -137q97 -5 132 -16.5t58 -11.5t40 2zM670 1245q-90 -20 -149.5 -107.5t-59.5 -165.5q0 -85 100 -132zM481 74 q106 12 175 107t69 193q0 99 -121 158z" />
<glyph unicode="%" horiz-adv-x="1816" d="M1778 524q0 -114 -59 -243q-58 -129 -175 -228q-117 -98 -254 -98q-149 0 -226 87t-77 224q0 170 172 335t361 165q129 0 193 -68q65 -67 65 -174zM1702 1421l-1258 -1542h-165l1030 1256q-35 -19 -102.5 -31t-114.5 -12q-50 0 -107 10q-2 -115 -61.5 -243t-175 -224 t-250.5 -96q-150 0 -226.5 87t-76.5 222q0 170 171 336t359 166q203 0 248 -160q49 -12 104 -12q264 0 488 243h137zM1665 532q0 68 -30 108q-29 40 -85 40q-92 0 -224 -190.5t-132 -299.5q0 -63 30.5 -106t84.5 -43q133 0 244 174q112 174 112 317zM872 1116q0 4 -1 13.5 t-1 13.5q-90 43 -137 114q-96 -26 -214 -204.5t-118 -278.5q0 -63 30 -106t83 -43q135 0 246.5 173t111.5 318z" />
<glyph unicode="&#x26;" horiz-adv-x="1658" d="M104 401q0 103 49.5 230t195 256t294.5 129q51 0 88 -32t47 -73q109 86 214.5 222.5t105.5 220.5q0 18 -23.5 44.5t-23.5 65.5t33.5 74t92.5 35q58 0 90.5 -43t32.5 -98q0 -89 -80.5 -206.5t-188 -220t-261.5 -223t-251 -188.5l-204 -139q0 -138 91.5 -219.5t244.5 -81.5 q244 0 416 207.5t180 457.5q-26 23 -83 23q-56 0 -104 -30t-48 -55q0 -26 22.5 -41.5t45 -34.5t22.5 -58t-32 -62.5t-78 -23.5t-83 31.5t-37 82.5q0 119 122 226.5t259 107.5q160 0 276 -182q41 -66 62 -66t21 39t-15.5 65t-15.5 46q0 41 34 63.5t79 22.5t73.5 -46t28.5 -93 q0 -48 -9 -75.5t-32.5 -43t-40 -22.5t-57.5 -16t-53 -13l-53 -22q-42 -17 -66 -17q-25 0 -51 30q-37 47 -121 125q10 -57 10 -102q0 -151 -79.5 -307.5t-247.5 -278t-388 -121.5q-225 0 -364.5 112t-139.5 318zM571 737q19 47 19 81t-21.5 53.5t-42.5 19.5 q-80 0 -143.5 -132t-67.5 -227q66 46 256 205z" />
<glyph unicode="'" horiz-adv-x="440" d="M668 1366q-9 -23 -100 -191q-91 -169 -115 -231h-95q15 72 28 242t22 194q34 101 155 101q113 0 113 -72q0 -19 -8 -43z" />
<glyph unicode="(" horiz-adv-x="694" d="M932 1479q-86 -49 -184 -155q-99 -105 -175 -234q-218 -375 -218 -797q0 -46 3 -92q9 -144 50 -286t98 -222q10 -15 -13 -34q-16 -12 -25 -12q-6 0 -9 3q-129 112 -208 301q-79 188 -89 379q-2 39 -2 77q0 213 70 412q83 236 247 410q176 186 416 295q4 2 8 2 q13 0 27 -17q10 -12 10 -20q0 -7 -6 -10z" />
<glyph unicode=")" horiz-adv-x="694" d="M649 844q2 -40 2 -79q0 -215 -69 -415q-82 -235 -244 -407q-82 -86 -158 -145q-76 -58 -132 -87l-126 -65q-4 -2 -9 -2q-13 0 -29 17q-12 14 -12 22q0 7 7 10q205 117 361 385q220 379 220 802q0 45 -3 91q-17 299 -150 508q-8 14 14 33q14 13 24 13q5 0 9 -3 q131 -119 208 -302q77 -184 87 -376z" />
<glyph unicode="*" horiz-adv-x="829" d="M733 872l-76 -96l-211 139l-59 -274h-111l60 274l-266 -137l-35 96l266 138l-207 135l76 96l207 -135l59 276h111l-60 -276l271 139l35 -96l-271 -139z" />
<glyph unicode="+" horiz-adv-x="1064" d="M944 362h-319v-362h-181v362h-321v148h321v326h181v-326h319v-148z" />
<glyph unicode="," horiz-adv-x="557" d="M428 168q0 -76 -52 -159t-127 -146.5t-142.5 -106.5t-108.5 -59q-4 -3 -8 -3q-12 0 -24 22q-8 14 -8 25q0 9 7 15q189 150 223 258q9 33 -14 41q-78 43 -78 125q0 60 51.5 106t121 46t114.5 -43t45 -121z" />
<glyph unicode="-" horiz-adv-x="864" d="M815 610q17 0 17 -26q0 -16 -6 -40q-15 -65 -46 -65h-608q-20 0 -20 30q0 15 4 35q14 66 49 66h610z" />
<glyph unicode="." horiz-adv-x="557" d="M406 119q0 -64 -44 -105q-43 -41 -106 -41q-59 0 -112 38q-52 38 -52 122q0 47 38 96q38 50 126 50q61 0 105 -45q45 -44 45 -115z" />
<glyph unicode="/" horiz-adv-x="530" d="M793 1425l-615 -1441q-6 -8 -22 -8q-9 0 -20 2q-32 8 -62 27q-26 17 -26 29q0 3 1 5l615 1442q5 12 23 12q19 0 52 -13q56 -22 56 -46q0 -5 -2 -9z" />
<glyph unicode="0" horiz-adv-x="956" d="M84 345q0 221 94.5 464.5t237 383.5t338.5 140q164 0 234.5 -105.5t70.5 -269.5q0 -206 -85.5 -438t-240 -384t-342.5 -152q-166 0 -236.5 103t-70.5 258zM307 264q0 -188 99 -188q128 0 213 161.5t152 432t67 410.5q0 163 -107 163t-196 -155.5t-158.5 -423 t-69.5 -400.5z" />
<glyph unicode="1" horiz-adv-x="956" d="M692 -8q-82 8 -280 8q-205 0 -287 -8q-8 0 -8 13q0 9 4 25q10 38 24 38q105 0 153 45t83 168l215 806q10 33 6 47.5t-27 6.5l-163 -60q-19 -6 -24 23t18 37q188 71 405 213q33 20 47 20q21 0 33 -14q7 -8 7 -19q0 -9 -5 -20q-29 -74 -49 -160l-236 -878q-22 -67 -22 -114 q0 -27 8 -47q20 -54 119 -54q16 0 6 -38t-27 -38z" />
<glyph unicode="2" horiz-adv-x="956" d="M885 260l-160 -229q-29 -39 -90 -39q-31 0 -111 4t-213 4q-129 0 -228 -4t-116 -4q-35 0 -41 28q-1 4 -1 9q0 24 32 51q121 94 288 247.5t298 303.5q235 274 235 418q0 61 -32.5 98t-94.5 37q-147 0 -286 -164q-15 -21 -43.5 -2.5t-12.5 37.5q94 119 215 198.5t248 79.5 q125 0 196.5 -68.5t71.5 -177.5q0 -124 -79.5 -239t-208.5 -238q-74 -71 -162 -145l-200 -162l-140 -110h295q104 0 158.5 16t103.5 82q14 20 53 5t25 -36z" />
<glyph unicode="3" horiz-adv-x="956" d="M283 -23q-101 0 -186 32t-85 108q0 53 45 88t101 35q37 0 61.5 -26t35.5 -55.5t39 -55t68 -25.5q107 0 197 144.5t90 262.5q0 86 -46 137.5t-138 51.5q-55 0 -111 -17q-26 0 -14 53.5t37 53.5q194 0 307 123q78 84 78 192q0 56 -27.5 90.5t-81.5 34.5q-67 0 -126.5 -35.5 t-139.5 -119.5q-18 -21 -44 3.5t-9 41.5q115 118 211 178.5t209 60.5q110 0 174.5 -63.5t64.5 -161.5q0 -113 -71.5 -202t-184.5 -146q166 -53 166 -230q0 -147 -95 -277t-238.5 -203t-286.5 -73z" />
<glyph unicode="4" horiz-adv-x="956" d="M821 504h123q7 0 7 -14q0 -17 -9 -52q-16 -67 -33 -67h-123l-59 -215q-6 -23 -6 -40q0 -23 11 -32q20 -16 75 -16q16 0 6 -38t-27 -38q-81 8 -235 8t-236 -8q-16 0 -6 38t27 38q74 0 111.5 19t52.5 69l59 215h-461q-76 0 -76 43q0 50 89 137l393 383q278 272 457 479 q22 19 48 19q17 0 35 -8q34 -15 34 -41q0 -11 -5 -23l-833 -815q-41 -41 -2 -41h356l106 399q7 23 120.5 23t107.5 -23z" />
<glyph unicode="5" horiz-adv-x="956" d="M1085 1317q5 0 5 -8q0 -18 -31 -85q-43 -94 -58 -94h-415q-33 0 -49 -30l-70 -154q-8 -20 -4 -27.5t18 -5.5q54 5 66 5q188 0 281.5 -81t93.5 -206q0 -191 -144 -375q-96 -125 -235.5 -198.5t-294.5 -73.5q-244 0 -244 122q0 56 47 92q44 33 97 33h6q49 0 100 -69.5 t106 -69.5q125 0 230.5 133t105.5 264q0 99 -65.5 156t-179.5 57q-66 0 -144 -20q-43 -12 -51 7.5t8 43.5l236 529q26 55 84 55h501z" />
<glyph unicode="6" horiz-adv-x="956" d="M1065 1321q-213 -102 -377 -274.5t-256 -360.5q117 111 248 111t196.5 -81t65.5 -200q0 -209 -172 -370.5t-383 -161.5q-160 0 -231.5 89t-71.5 232q0 76 25 170q73 279 347.5 537t585.5 370q5 2 10 2q15 0 22 -23q3 -10 3 -18q0 -15 -12 -22zM707 451q0 77 -39 134.5 t-109 57.5q-94 0 -182 -78q-66 -162 -66 -305q0 -172 127 -172q117 0 193 119t76 244z" />
<glyph unicode="7" horiz-adv-x="956" d="M1135 1219l-811 -1219q-9 -10 -38 -16q-23 -6 -51 -6h-13q-36 2 -68.5 6t-49.5 14q-10 6 -10 13q0 4 4 9q129 156 201 254l647 867h-297q-59 0 -97 -4t-100.5 -35t-103.5 -90q-8 -13 -31.5 -16t-42 3.5t-14.5 18.5l117 242q8 20 12 27t12.5 16.5t18.5 11.5t26 2h682 q41 0 48 -17q1 -5 1 -10q0 -14 -13 -30q-17 -21 -29 -41z" />
<glyph unicode="8" horiz-adv-x="956" d="M1049 1100q0 -125 -87.5 -223.5t-216.5 -157.5q166 -119 166 -287q0 -184 -164.5 -316t-355.5 -132q-143 0 -236.5 68.5t-93.5 193.5q0 147 98.5 243.5t262.5 165.5q-146 111 -146 252q0 172 149.5 299t326.5 127q135 0 216 -58t81 -175zM829 1083q0 150 -129 150 q-79 0 -145 -69.5t-66 -149.5q0 -117 181 -232q159 109 159 301zM674 342q0 129 -176 254q-92 -49 -146.5 -142.5t-54.5 -199.5q0 -76 38 -127t111 -51q91 0 159.5 86t68.5 180z" />
<glyph unicode="9" horiz-adv-x="956" d="M752 377q-252 -258 -629 -418q-3 -1 -7 -1q-9 0 -16 14q-10 18 -10 41.5t12 29.5q224 109 355 238t254 346q-43 -33 -113 -62.5t-121 -29.5q-129 0 -202.5 75.5t-73.5 186.5q0 104 56 212.5t138 182.5q158 141 363 141q153 0 228 -90t75 -229q0 -320 -309 -637zM834 1063 q0 164 -134 164q-108 0 -181 -124t-73 -243q0 -78 35 -132t99 -54q96 0 176 59q32 64 55 161t23 169z" />
<glyph unicode=":" horiz-adv-x="593" d="M633 707q0 -64 -46 -110t-110 -46q-63 0 -110 46q-48 46 -48 110q0 63 48 110q47 47 110 47q64 0 110 -46t46 -111zM463 131q0 -65 -46 -112q-46 -46 -110 -46q-63 0 -109 46q-46 47 -46 112q0 64 46 110t109 46q64 0 110 -46t46 -110z" />
<glyph unicode=";" horiz-adv-x="593" d="M600 711q0 -64 -45 -107t-109 -43q-63 0 -107 43t-44 107q0 63 44 108t107 45q64 0 109 -45t45 -108zM483 176q0 -100 -90 -209q-90 -108 -183 -173q-93 -64 -157 -89q-4 -2 -7 -2q-12 0 -24 22q-9 14 -9 25q0 8 7 14q25 23 67 56t91 92t66 113q10 30 -13 41 q-26 10 -52 43q-25 32 -25 81q0 60 50 105t120 45q69 0 114 -43t45 -121z" />
<glyph unicode="&#x3c;" horiz-adv-x="1024" d="M344 422l604 -260v-185l-870 379v129l870 381v-184z" />
<glyph unicode="=" horiz-adv-x="1064" d="M948 575h-829v142h829v-142zM948 268h-829v142h829v-142z" />
<glyph unicode="&#x3e;" horiz-adv-x="1024" d="M946 356l-870 -379v185l604 260l-604 260v184l870 -381v-129z" />
<glyph unicode="?" horiz-adv-x="694" d="M254 584q0 88 41 141t123 88l121 53q174 76 174 176q0 103 -230 103q-24 0 -55 27.5t-31 70.5q0 45 44 89t106 44q115 0 188.5 -103.5t73.5 -246.5q0 -115 -47 -207t-115 -121l-176 -75q-88 -37 -104.5 -75t-16.5 -106q0 -16 -31.5 -24t-35.5 8q-29 111 -29 158zM375 126 q0 -67 -43 -110t-108.5 -43t-110.5 42t-45 111t44 116t111.5 47t109.5 -48t42 -115z" />
<glyph unicode="@" horiz-adv-x="1597" d="M991 983l21 51q6 19 53 19q16 0 43 -13.5t20 -29.5l-141 -478q-12 -41 -12 -66q0 -36 26 -36q166 0 281 116t115 294q0 198 -146.5 328t-367.5 130q-189 0 -335.5 -99t-220 -256t-73.5 -339q0 -74 17.5 -145.5t60.5 -145t107.5 -130t169 -92.5t235.5 -36q135 0 323 72 q17 8 30 -17.5t-3 -33.5q-176 -109 -412 -109q-133 0 -257 39t-226 115t-164.5 200.5t-62.5 280.5q0 234 117.5 415t305 274t406.5 93q287 0 456 -158.5t169 -377.5q0 -201 -151.5 -348.5t-399.5 -147.5q-144 0 -144 84q0 31 19 82l-10 6q-148 -166 -250 -166 q-60 0 -86.5 41t-26.5 95q0 96 55.5 215.5t157 212t209.5 92.5q62 0 92 -31zM883 967q-62 0 -123.5 -87t-96 -191.5t-34.5 -170.5q0 -69 30 -69q52 0 166 131q62 69 99 192l43 148q-19 47 -84 47z" />
<glyph unicode="A" horiz-adv-x="1165" d="M928 202q-2 -15 -2 -30q0 -86 126 -86q8 0 8 -19t-8.5 -47t-20.5 -28q-76 8 -230.5 8t-231.5 -8q-8 0 -8 17.5t9.5 47t19.5 29.5q61 0 89 22t37 94l37 283q5 38 -37 38h-246q-30 0 -48 -28l-189 -294q-24 -38 -24 -60q0 -55 121 -55q8 0 8 -18.5t-8.5 -47t-20.5 -28.5 q-76 8 -229.5 8t-230.5 -8q-8 0 -8 13.5t7 47t22 33.5q109 0 157 34.5t90 97.5l655 974q8 12 8 23t-9.5 22.5t-9.5 22.5q0 20 68 43q69 24 124.5 53.5t83.5 29.5q42 0 42 -50q0 -22 -14 -79.5t-20 -106.5zM774 649l47 413v5q0 10 -6 10q-8 0 -17 -13l-283 -428 q-6 -8 -6 -18.5t19 -10.5h204q37 0 42 42z" />
<glyph unicode="B" horiz-adv-x="1245" d="M1186 452q0 -164 -141.5 -311t-500.5 -147q-59 0 -134 3t-139.5 3t-287.5 -8q-8 0 -8 12.5t8.5 47t24.5 34.5q111 0 144.5 32.5t48.5 83.5l286 954q8 26 8 52q0 25 -29.5 40.5t-119.5 15.5q-7 0 -7 12.5t10 47t23 34.5q139 -4 230 -4t171.5 2t154.5 2q167 0 262 -71.5 t95 -188.5q0 -115 -75.5 -205t-183.5 -142q-20 -10 -20 -19.5t18 -20.5q162 -105 162 -259zM1050 1093q0 97 -53 142t-202 45q-36 0 -48 -40l-134 -444q-3 -8 -3 -20q0 -16 51 -16q174 0 281.5 90t107.5 243zM934 479q0 107 -76.5 155t-253.5 48q-27 0 -35 -27l-127 -426 q-9 -30 -9 -65q0 -90 100 -90q197 0 299 104.5t102 300.5z" />
<glyph unicode="C" horiz-adv-x="1470" d="M1199 36q-53 -7 -89 -19q-176 -44 -402 -44q-227 0 -378.5 133t-151.5 363q0 351 299 633.5t671 282.5q108 0 242 -28t193 -28q-12 -181 -61 -334q-6 -17 -53 -17t-44 21q9 53 9 74q0 104 -93.5 165t-232.5 61q-274 0 -482 -259.5t-208 -585.5q0 -152 86 -271.5 t264 -119.5q117 0 209.5 33.5t169 105t125.5 144.5q10 15 53 13t43 -17q0 -38 -68 -154.5t-101 -151.5z" />
<glyph unicode="D" horiz-adv-x="1554" d="M1608 892q0 -320 -278 -610t-665 -290q-44 0 -195.5 4t-223.5 4t-261 -8q-9 0 -9 13.5t8 47t22 33.5q79 0 113 12.5t52 39t30 64.5l286 952q8 28 8 51q0 24 -25 41.5t-122 17.5q-16 0 -4.5 47t25.5 47q90 -4 231 -4t249.5 2t158.5 2q274 0 437 -122t163 -344zM1348 869 q0 189 -116.5 300t-307.5 111q-66 0 -104.5 -4.5t-56 -24.5t-30.5 -61l-282 -926q-12 -42 -12 -75q0 -118 176 -118q273 0 503 258.5t230 539.5z" />
<glyph unicode="E" horiz-adv-x="1256" d="M1079 21q-8 -29 -58 -29q-100 0 -368 4t-379.5 4t-288.5 -8q-9 0 -9 13.5t8 47t22 33.5q99 0 136.5 26t61.5 106l283 939q5 13 5 39q0 67 -146 67q-8 0 -8 14.5t9.5 47.5t21.5 33q102 -4 240 -4t386 2t348 2q63 0 63 -30q0 -13 -4 -27l-84 -289q-6 -19 -52 -19t-42 17 q7 33 7 83t-41.5 104.5t-125.5 59.5q-132 7 -242 7h-27q-38 0 -48 -32l-159 -508q-2 -8 -2 -13q0 -19 23 -19h180q48 0 70 10q22 9 31 37l48 145q6 19 51.5 19t38.5 -19q-74 -210 -138 -466q-4 -17 -46.5 -17t-37.5 17l34 128q8 29 -10 40q-18 12 -58 12h-201q-21 0 -29 -27 l-103 -348q-10 -34 -10 -67q0 -78 89 -78h9l290 12q165 7 268 292q5 17 52.5 17t42.5 -17z" />
<glyph unicode="F" horiz-adv-x="1235" d="M435 202q-9 -29 -9 -55q0 -61 147 -61q8 0 8 -14.5t-9 -47t-20 -32.5q-76 8 -283.5 8t-283.5 -8q-9 0 -9 13.5t8 47t22 33.5q86 0 129 21q44 21 66 95l286 954q8 27 8 51q0 57 -147 57q-9 0 -9 15.5t9 47t21 31.5q143 -6 259.5 -6t364.5 3t348 3q66 0 66 -25 q0 -16 -5 -34l-86 -287q-10 -17 -53.5 -17t-38.5 17q11 37 11 83q0 47 -50 103.5t-121 58.5q-199 7 -290 7q-21 0 -31 -34l-140 -464q-3 -11 -3 -20q0 -20 21 -20h124q112 0 149 128l32 112q5 16 51 16t43 -16q-27 -63 -94 -294t-78 -280q-4 -14 -47 -14t-39 14l20 66 q25 83 25 107q0 67 -83 67h-136q-24 0 -34 -34z" />
<glyph unicode="G" horiz-adv-x="1476" d="M1274 134q-4 -15 -4 -29.5t15 -18t15 -15.5q0 -42 -26 -42q-63 0 -196 -18.5t-222 -28t-136 -9.5q-246 0 -394 135.5t-148 339.5q0 352 296 644.5t655 292.5q119 0 254.5 -28t197.5 -28q0 -159 -59 -336q-5 -15 -51 -14t-44 20q5 57 5 59q0 124 -95 182.5t-233 58.5 q-267 0 -476 -260.5t-209 -551.5q0 -204 92.5 -314t240.5 -110q278 0 323 157l48 166q6 19 6 31q0 18 -15.5 29.5t-160.5 11.5q-8 0 -8 16t8 48t21 32q57 -6 265.5 -6t265.5 6q8 0 8 -15.5t-8.5 -48t-20.5 -32.5q-76 0 -100.5 -17.5t-40.5 -71.5z" />
<glyph unicode="H" horiz-adv-x="1541" d="M1224 202q-7 -25 -7 -49q0 -67 149 -67q7 0 7 -14t-9.5 -47t-20.5 -33q-77 8 -289 8t-288 -8q-7 0 -7 14.5t9 47t23 32.5q88 0 133 23.5t65 92.5l117 412q4 13 4 26t-27 13h-478q-34 0 -43 -32l-121 -419q-7 -25 -7 -49q0 -67 149 -67q7 0 7 -14t-9 -47t-21 -33 q-77 8 -289 8t-288 -8q-8 0 -8 13t8.5 47t24.5 34q88 0 133 23.5t65 92.5l272 952q8 27 8 54q0 62 -140 62q-7 0 -7 13.5t10.5 47t22.5 33.5q58 -6 286 -6t286 6q8 0 8 -13.5t-11 -47t-24 -33.5q-107 0 -146 -27t-57 -89l-105 -369q-4 -14 -4 -25t27 -11h478q36 0 46 36 l105 369q8 27 8 54q0 62 -140 62q-7 0 -7 13t11 47t23 34q57 -6 285 -6t286 6q8 0 8 -12.5t-10 -47t-25 -34.5q-114 0 -150 -29t-53 -87z" />
<glyph unicode="I" horiz-adv-x="754" d="M441 202q-7 -25 -7 -52q0 -64 149 -64q7 0 7 -14.5t-9.5 -47t-20.5 -32.5q-77 8 -289 8t-288 -8q-8 0 -8 13t8.5 47t24.5 34q88 0 133 23.5t65 92.5l272 952q8 27 8 63q0 53 -140 53q-7 0 -7 13.5t11 47t22 33.5q58 -6 286 -6t286 6q8 0 8 -12.5t-10 -47t-25 -34.5 q-110 0 -148.5 -29.5t-54.5 -86.5z" />
<glyph unicode="J" horiz-adv-x="658" d="M442 273q-100 -349 -280.5 -520t-339.5 -171q-72 0 -116 28.5t-44 86.5t49 90t105 32q58 0 97 -35.5t43 -87.5q84 56 125.5 167t233.5 775l149 516q7 23 7 41q0 75 -125 75q-8 0 -8 15t9.5 47t23.5 32q57 -6 269 -6t269 6q9 0 9 -13.5t-8 -47t-24 -33.5q-82 0 -123.5 -21 t-63.5 -95z" />
<glyph unicode="K" horiz-adv-x="1342" d="M1081 191q35 -65 82.5 -85t112.5 -20q10 0 10 -20t-6.5 -47t-18.5 -27q-92 8 -265.5 8t-265.5 -8q-10 0 -10 16t9.5 47t21.5 31q84 0 84 50q0 21 -23 68l-176 359q-17 36 -32.5 49.5t-28 13.5t-19.5 -24l-117 -400q-7 -24 -7 -52q0 -64 131 -64q7 0 7 -15t-9 -47t-22 -32 q-112 8 -273 8t-281 -7q-9 0 -9 10.5t8 46.5t24 36q93 0 134.5 23.5t61.5 92.5l277 952q7 25 7 50q0 66 -140 66q-9 0 -9 14t10.5 47t22.5 33q71 -6 273.5 -6t275.5 6q8 0 8 -13.5t-11 -47t-24 -33.5q-84 0 -121 -19.5t-59 -96.5l-114 -396q-2 -6 -2 -12t6 -6q21 0 82 55 l397 362q63 57 63 86q0 27 -50 27q-8 0 -8 12.5t12.5 47t24.5 34.5q70 -6 213.5 -6t200.5 6q9 0 9 -12.5t-10 -47t-25 -34.5q-94 0 -154 -30.5t-161 -118.5l-394 -344q-16 -14 -16 -25t12 -34z" />
<glyph unicode="L" horiz-adv-x="1317" d="M1207 48q-11 -42 -22.5 -49t-84.5 -7q-100 0 -393 4t-414 4t-312 -8q-7 0 -7 12t11 47t26 35q125 0 153.5 33t41.5 78l275 957q8 26 8 52q0 64 -143 64q-7 0 -7 14t11 47t22 33q58 -6 293 -6t292 6q6 0 6 -13t-10.5 -47t-22.5 -34q-122 0 -155.5 -26.5t-54.5 -89.5 l-265 -913q-15 -47 -15 -81q0 -82 103 -82h7l317 14q257 11 338 290q5 17 54 17t44 -17z" />
<glyph unicode="M" horiz-adv-x="1929" d="M1612 199q-8 -25 -8 -50q0 -63 147 -63q8 0 8 -14t-9.5 -47t-20.5 -33q-77 8 -274.5 8t-274.5 -8q-8 0 -8 13.5t11 47t24 33.5q77 0 117 30.5t61 101.5l193 643q3 11 3 18q0 12 -9.5 12t-32.5 -28l-683 -841q-31 -39 -55.5 -39t-32.5 42l-168 873q-5 28 -15.5 28 t-19.5 -26l-256 -701q-10 -27 -10 -51q0 -62 119 -62q8 0 8 -15t-10 -47t-23 -32q-76 8 -207 8t-207 -8q-7 0 -7 12.5t8.5 47t23.5 34.5q86 0 129.5 24.5t74.5 109.5l325 880q18 48 18 83q0 87 -135 87q-7 0 -7 13t12.5 47t23.5 34q95 -6 179 -6t102 -20q23 -22 34 -75 l180 -902q5 -26 18 -26t29 20l749 927q35 43 68 59q34 17 117.5 17t189.5 6q7 0 7 -12t-10.5 -47t-23.5 -35q-111 0 -141.5 -32.5t-68.5 -160.5z" />
<glyph unicode="N" horiz-adv-x="1478" d="M1192 27q-16 -54 -58 -54t-57 29l-504 1006q-12 23 -22.5 23t-17.5 -24l-229 -805q-9 -32 -9 -56q0 -60 123 -60q8 0 8 -14.5t-10 -47t-23 -32.5q-76 8 -207 8t-207 -8q-7 0 -7 12.5t8.5 47t23.5 34.5q96 0 136.5 26t58.5 90l254 894q16 55 16 103t-46 62q-32 9 -85 9 q-6 0 -6 13.5t10.5 47t24.5 33.5q75 -5 165 -5t116 -14.5t42 -47.5l445 -902q15 -31 30 -31q17 0 27 35l221 755q8 26 8 45q0 71 -128 71q-7 0 -7 13.5t11 47t25 33.5q57 -6 204 -6t204 6q9 0 9 -12.5t-10 -47t-25 -34.5q-104 0 -137 -28t-45 -72z" />
<glyph unicode="O" horiz-adv-x="1512" d="M1568 875q0 -343 -261 -622.5t-635 -279.5q-206 0 -350 133.5t-144 344.5q0 345 263 639.5t638 294.5q241 0 365 -149t124 -361zM1331 874q0 176 -85 301.5t-204 125.5q-148 0 -284 -106.5t-236.5 -299.5t-100.5 -421q0 -188 85.5 -299.5t207.5 -111.5q178 0 312 116.5 t219.5 308.5t85.5 386z" />
<glyph unicode="P" horiz-adv-x="1220" d="M1368 1062q0 -197 -188.5 -335.5t-451.5 -138.5q-71 0 -145 11q-29 4 -39 -32l-107 -365q-7 -22 -7 -42q0 -74 158 -74q9 0 9 -15t-11 -47t-23 -32q-76 8 -290 8t-290 -8q-8 0 -8 12.5t8.5 47t24.5 34.5q97 0 135 23.5t59 92.5l285 955q6 22 6 46q0 61 -147 61 q-8 0 -8 15t9.5 47t23.5 32q143 -6 236 -6t193.5 3t150.5 3q185 0 301 -78.5t116 -217.5zM1106 1039q0 101 -61 170t-175 69t-119 -19l-157 -531q-3 -10 -3 -18q0 -25 27 -32q17 -4 66 -4q184 0 303 113.5t119 251.5z" />
<glyph unicode="Q" horiz-adv-x="1550" d="M1568 875q0 -155 -68 -327t-209 -308t-267 -192q-23 -10 -23.5 -21.5t11.5 -22.5q84 -82 208.5 -158t294.5 -123q9 -3 9 -15.5t-14 -41.5q-13 -25 -29 -25h-5q-206 43 -440.5 120t-464 180.5t-311.5 222.5t-82 287q0 363 273 648.5t622 285.5q247 0 371 -149t124 -361z M1331 875q0 175 -85 300.5t-204 125.5q-130 0 -271 -99.5t-245.5 -301t-104.5 -419.5q0 -195 85.5 -306.5t207.5 -111.5q262 0 439.5 265.5t177.5 546.5z" />
<glyph unicode="R" horiz-adv-x="1384" d="M1400 1057q0 -146 -112.5 -261.5t-305.5 -169.5q-20 -6 -18 -26t3 -27q33 -144 173 -388q87 -153 191 -153q16 0 15 -26q-1 -25 -20 -27q-51 -4 -96 -4q-135 0 -206.5 37.5t-122.5 97.5t-76 124l-97 248q-27 65 -53 90q-16 14 -44.5 14t-47 3t-27.5 -4q-8 -6 -12 -20 l-110 -363q-8 -25 -8 -50q0 -66 157 -66q7 0 7 -14t-9.5 -47t-22.5 -33q-77 8 -288 8t-287 -8q-8 0 -8 13t8.5 47t24.5 34q86 0 128 20t65 96l286 955q8 27 8 43q0 64 -149 64q-8 0 -8 14.5t9.5 47t23.5 32.5q143 -6 230 -6t191 3t236 3q133 0 252.5 -77.5t119.5 -223.5z M1136 1062q0 87 -73 151.5t-261 64.5q-36 0 -42.5 -8.5t-8.5 -14.5l-168 -552q-2 -6 -2 -11.5t5 -10.5q17 -17 94 -17q180 0 318 114t138 284z" />
<glyph unicode="S" horiz-adv-x="1042" d="M1037 533q0 -227 -173 -393.5t-396 -166.5q-120 0 -186 19t-177 79v46q0 144 36 267q7 24 55.5 24t44.5 -20q-7 -32 -7 -65q0 -99 63.5 -179.5t214.5 -80.5q105 0 192 102t87 213q0 122 -177 194l-91 36q-227 92 -227 276q0 205 160 353t384 148q116 0 185 -15.5 t119 -15.5v-15q0 -122 -30 -269q-4 -20 -51.5 -20t-47.5 16v27q-4 208 -213 208q-108 0 -191.5 -96t-83.5 -204q0 -107 166 -161l105 -34q239 -77 239 -273z" />
<glyph unicode="T" horiz-adv-x="1288" d="M488 202l302 1027q16 34 -25 35h-95q-248 0 -326 -257q-5 -17 -56 -17t-46 17l94 312q8 26 23 31t135 5q120 -3 470 -3t500 5q70 0 70 -29q0 -4 -2 -9l-92 -312q-4 -16 -54.5 -16t-45.5 16q16 53 16 93q0 54 -39 109t-150 55h-109q-24 0 -33 -29l-304 -1033 q-6 -20 -6 -43.5t24.5 -48t123.5 -24.5q7 0 7 -15.5t-8 -46.5t-24 -31q-96 7 -287 7t-293 -7q-7 0 -7 21.5t12.5 46.5t18.5 25q92 0 138 20t68 96z" />
<glyph unicode="U" horiz-adv-x="1487" d="M1469 871q-141 -465 -211 -587t-211.5 -216.5t-383.5 -94.5q-222 0 -322 77.5t-100 211.5q0 130 49 292l182 602q10 32 10 56q0 27 -30 42.5t-106 15.5q-8 0 -8 14t9.5 47t23.5 33q57 -6 275.5 -6t276.5 6q7 0 7 -13.5t-9.5 -47t-22.5 -33.5q-115 0 -143.5 -27t-47.5 -89 l-144 -476q-93 -308 -93 -417t80 -153.5t168 -44.5q176 0 299.5 95t199.5 348l194 648q8 26 8 43q0 73 -145 73q-6 0 -6 13t10 47t23 34q57 -6 233.5 -6t234.5 6q8 0 8 -12.5t-10 -47t-23 -34.5q-106 0 -140 -32.5t-49 -83.5z" />
<glyph unicode="V" horiz-adv-x="1350" d="M1012 657l-469 -672q-16 -23 -46 -23q-43 0 -48 72l-75 1120q-5 78 -31 97t-95 19q-9 0 -9 14t6.5 47t19.5 33q58 -6 256.5 -6t255.5 6q9 0 9 -16.5t-6.5 -47t-19.5 -30.5q-96 0 -128 -27q-27 -24 -27 -75v-14l50 -772q1 -23 10 -23t19 15l288 415l239 357q38 59 38 84 q0 40 -88 40q-8 0 -8 14t11 47t24 33q57 -6 226 -6t227 6q7 0 7 -12t-10.5 -47t-23.5 -35q-155 0 -207 -68z" />
<glyph unicode="W" horiz-adv-x="1994" d="M1660 652l-476 -654q-26 -36 -53 -36q-41 0 -52 72l-66 433q-4 24 -11 24q-6 0 -25 -25l-347 -468q-27 -36 -53 -36q-41 0 -52 72l-170 1120q-12 77 -34.5 96.5t-91.5 19.5q-9 0 -9 14.5t6.5 47t19.5 32.5q58 -6 223 -6t222 6q10 0 10 -18t-8 -47t-19 -29q-94 0 -94 -47 q0 -30 6 -69l123 -803q3 -23 20 -23q16 0 33 23l174 236q41 55 41 82q0 46 -5 78l-63 407q-11 74 -33 95t-78 21q-9 0 -9 17.5t7.5 47t19.5 29.5q57 -6 218.5 -6t218.5 6q9 0 9 -16t-7 -47t-19 -31q-102 0 -102 -50q0 -31 6 -66l30 -192q4 -27 12 -27t28 27l135 184 q54 73 54 100q0 24 -77 24q-9 0 -9 14t10.5 47t24.5 33q58 -6 204 -6t203 6q7 0 7 -12.5t-10.5 -47t-22.5 -34.5q-156 0 -201 -60l-289 -390q-31 -42 -31 -78q0 -32 4 -64l51 -327q3 -23 17 -23q18 0 36 23q129 162 583 795q44 63 44 92q0 32 -85 32q-6 0 -6 12.5t10.5 47 t22.5 34.5q57 -6 207 -6t208 6q8 0 8 -12.5t-10 -47t-25 -34.5q-141 0 -197 -71z" />
<glyph unicode="X" horiz-adv-x="1377" d="M172 181l491 463q14 13 14 30q0 11 -5 23l-177 434q-30 73 -71.5 106t-127.5 33q-13 0 -3.5 47t22.5 47q57 -6 289.5 -6t289.5 6q15 0 3.5 -47t-24.5 -47q-146 0 -146 -65q0 -23 12 -55l103 -277q6 -16 18 -16q9 0 24 14l296 281q69 66 69 94q0 24 -67 24q-13 0 -1.5 47 t26.5 47q57 -6 216.5 -6t217.5 6q7 0 7 -12.5t-8.5 -47t-23.5 -34.5q-109 0 -170.5 -32.5t-196.5 -158.5l-325 -305q-20 -19 -20 -36q0 -14 5 -27l185 -491q32 -85 69.5 -109.5t137.5 -24.5q13 0 3.5 -47t-24.5 -47q-77 8 -268 8t-267 -8q-15 0 -3.5 47t24.5 47 q125 0 125 52q0 20 -18 64l-135 332q-8 20 -23 20q-13 0 -33 -19l-250 -239q-134 -128 -134 -174q0 -36 92 -36q15 0 3.5 -47t-24.5 -47q-77 8 -244 8t-243 -8q-9 0 -9 13.5t8 47t22 33.5q103 0 156.5 20t112.5 75z" />
<glyph unicode="Y" horiz-adv-x="1268" d="M435 218l77 256q24 84 24 115t-20 89l-151 460q-27 81 -57.5 106.5t-101.5 25.5q-8 0 -8 13.5t8 47t21 33.5q58 -6 253.5 -6t252.5 6q16 0 4.5 -47t-25.5 -47q-121 0 -121 -56q0 -24 11 -57l131 -403q8 -23 22 -23t32 20l386 406q47 52 47 78q0 35 -93 35q-15 0 -2 47 t27 47q57 -6 212.5 -6t213.5 6q8 0 8 -13.5t-8 -47t-23 -33.5q-103 0 -157.5 -34.5t-199.5 -190.5l-379 -403q-38 -40 -65 -134l-89 -307q-8 -27 -8 -51q0 -64 126 -64q15 0 2 -47t-27 -47q-76 8 -263 8t-264 -8q-13 0 -1.5 47t26.5 47q84 0 119.5 24t59.5 108z" />
<glyph unicode="Z" horiz-adv-x="1314" d="M-10 103l1202 1125q19 15 17 29.5t-29 14.5h-531q-49 0 -98 -33.5t-122.5 -124t-94.5 -138.5q-7 -17 -37 -11.5t-22 25.5q74 178 124 337q12 39 62 39q17 0 62.5 -7t586.5 -7l403 8q49 0 49 -43q0 -30 -26 -56l-1198 -1131q-17 -15 -13 -29.5t32 -14.5q331 0 596 13 q103 4 187 115q60 79 94 139q9 14 39 3.5t22 -22.5q-59 -102 -89.5 -187.5t-47.5 -142.5q-12 -36 -32 -36h-3q-115 21 -203 26.5t-507 5.5h-390q-54 0 -54 57q0 26 21 46z" />
<glyph unicode="[" horiz-adv-x="724" d="M1104 1530q6 0 6 -10q0 -12 -8 -38q-17 -48 -31 -48h-276q-19 0 -27 -23l-471 -1640q-8 -29 6 -29h301q14 0 2 -48t-28 -48h-506q-20 0 -20 14q0 4 1 8l531 1843q5 18 24 19h496z" />
<glyph unicode="\" horiz-adv-x="716" d="M748 55q4 -12 -28 -32.5t-64 -28.5q-14 -4 -23 -4q-13 0 -19 6l-626 1409q-2 4 -2 8q0 22 56 47q36 15 56 15q16 0 21 -11z" />
<glyph unicode="]" horiz-adv-x="724" d="M831 1511l-528 -1843q-6 -22 -27 -22h-507q-8 0 -8 14q0 12 5 34q13 48 27 48h305q15 0 21 25l471 1644q8 23 -10 23h-281q-16 0 -4 48t29 48h493q16 0 16 -11q0 -3 -2 -8z" />
<glyph unicode="^" horiz-adv-x="1024" d="M1014 549h-164l-293 616h-12l-295 -616h-156l426 854h68z" />
<glyph unicode="_" horiz-adv-x="1024" d="M1061 -266h-1098v121h1098v-121z" />
<glyph unicode="`" horiz-adv-x="917" d="M117 1218q-13 12 -13 27q0 20 24 45q40 43 85 43q24 0 37 -19l209 -313q15 -23 15 -40q0 -6 -2 -11q-9 -21 -32 -21t-42 18z" />
<glyph unicode="a" horiz-adv-x="966" d="M752 180q-3 -10 -3 -19q1 -20 23 -20q36 0 102 66q12 12 40 -12q20 -17 20 -28q0 -5 -4 -9q-92 -90 -167.5 -137.5t-131.5 -47.5q-79 0 -79 89q0 61 40 146l4 7l-12 6q-224 -248 -361 -248q-73 0 -116.5 54t-43.5 139q0 209 186 443.5t392 234.5q62 0 107 -31l20 49 q9 22 93 22q91 0 91 -35q0 -7 -3 -18zM666 553l49 160q-32 47 -101 47q-128 0 -228.5 -215.5t-100.5 -317.5q0 -117 47 -117q52 0 126.5 81.5t127.5 177.5t80 184z" />
<glyph unicode="b" horiz-adv-x="929" d="M915 608q0 -248 -186 -441.5t-459 -193.5q-181 0 -181 201q0 42 11 88l228 952q9 40 9 69q0 77 -63 77q-20 0 -19 36t19 36q82 0 180.5 27.5t106.5 27.5q22 0 22 -22q0 -6 -3 -17l-189 -795l17 -8q167 207 303 207q204 0 204 -244zM696 618q0 113 -65 113 q-78 0 -178.5 -138t-131 -246.5t-30.5 -155.5q0 -128 69 -128q137 0 236.5 183t99.5 372z" />
<glyph unicode="c" horiz-adv-x="743" d="M629 113q-117 -140 -295 -140q-107 0 -174.5 80t-67.5 211q0 203 157 395.5t339 192.5q80 0 136 -33t56 -82q0 -37 -32.5 -65.5t-69.5 -28.5q-43 0 -60 31q-5 48 -27 72t-54 24q-97 0 -166.5 -145.5t-69.5 -294.5q0 -99 32 -169.5t95 -70.5q53 0 95 25.5t59 42.5 q8 8 22.5 -0.5t23.5 -22t1 -22.5z" />
<glyph unicode="d" horiz-adv-x="985" d="M794 228q-12 -48 -12 -64q0 -22 17 -22q28 0 94 85q7 9 22.5 0.5t27 -23.5t5.5 -24q-147 -207 -274 -207q-58 0 -77 36t-19 102q0 20 18 104l-12 6q-86 -101 -179 -174.5t-182 -73.5q-84 0 -122 63.5t-38 135.5q0 200 182.5 440t387.5 240q55 0 108 -31l93 389 q10 43 10 75q0 75 -62 75q-19 0 -19 36t19 36q84 0 180.5 27.5t104.5 27.5q21 0 21 -19q0 -6 -3 -20zM715 711q-41 59 -101 59q-114 0 -221.5 -201.5t-107.5 -363.5q0 -94 47 -94q58 0 180 132t139 201z" />
<glyph unicode="e" horiz-adv-x="751" d="M778 713q0 -120 -142 -215.5t-337 -141.5q-16 -75 -16 -104q0 -148 92 -148q49 0 111.5 39t88.5 64q9 5 22.5 -2.5t23 -20t4.5 -20.5q-146 -191 -308 -191q-239 0 -239 258q0 192 175 406.5t357 214.5q168 0 168 -139zM575 688q0 66 -44 66q-52 0 -107.5 -87.5 t-97.5 -217.5q88 28 168.5 94.5t80.5 144.5z" />
<glyph unicode="f" horiz-adv-x="624" d="M295 -96q-21 -106 -69.5 -223.5t-136.5 -174.5t-185 -57q-88 0 -139.5 41t-51.5 86t29 75t63 30q60 0 90.5 -63.5t61.5 -63.5q46 0 67 45.5t42 150.5l200 987h-180q-8 0 -8 14q0 32 21 73q10 20 20 20h168q67 359 189 489.5t323 130.5q102 0 164.5 -55t62.5 -141 q0 -119 -94 -119q-42 0 -72.5 23.5t-30.5 102.5q0 107 -81 107q-66 0 -136.5 -95t-126.5 -443h256q8 0 8 -12q0 -24 -23 -74q-9 -21 -19 -21h-244z" />
<glyph unicode="g" horiz-adv-x="868" d="M973 754q0 -90 -64 -90q-35 0 -139 41q14 -37 14 -107.5t-41 -163t-119 -157t-182 -84.5q-57 -12 -59 -14q-51 -32 -52 -71q0 -38 149 -103q112 -49 218.5 -122t106.5 -183.5t-163 -184.5t-372 -74q-176 0 -276 70.5t-100 161t119 154t225 97.5q-95 49 -95 109 q0 67 150 164q-207 58 -207 232.5t146.5 298.5t345.5 124q45 0 109 -29.5t99 -29.5q17 0 65 10t69 10q53 0 53 -59zM606 715q0 41 -41 41q-92 0 -194.5 -150.5t-102.5 -286.5q0 -40 51 -40q97 0 192 150.5t95 285.5zM596 -324q0 50 -114 122.5t-163.5 72.5t-128.5 -55.5 t-79 -123t94.5 -105.5t188.5 -38t148 29.5t54 97.5z" />
<glyph unicode="h" horiz-adv-x="942" d="M932 610q0 -170 -115.5 -403.5t-294.5 -233.5q-59 0 -101 36t-42 83q0 49 25.5 81t72.5 32q61 0 79.5 -57.5t47 -57.5t55.5 77t48.5 199t21.5 222q0 133 -91 133t-237 -225q-39 -60 -88 -256l-61 -244q-6 -23 -100 -23q-95 0 -95 37v4l289 1203q10 40 10 70q0 73 -63 73 q-21 0 -20 36t20 36q86 0 183 27.5t106 27.5q25 0 16 -39l-188 -799l16 -10q154 213 305 213q201 0 201 -242z" />
<glyph unicode="i" horiz-adv-x="534" d="M332 180q-4 -14 -4 -22q0 -17 25.5 -17t88.5 80q11 14 38 -11q21 -17 21 -28q0 -5 -3 -8q-64 -79 -144 -140t-135 -61q-101 0 -101 125q0 34 11 70l147 479q4 13 4 21q0 20 -19 20t-97 -82q-12 -12 -38 14q-18 17 -18 28q0 3 3 7q63 77 142 137t134 60q104 0 104 -126 q0 -25 -12 -64zM635 1140q0 -54 -43.5 -92t-95.5 -38q-142 0 -142 152q0 50 44 89t98 39q139 0 139 -150z" />
<glyph unicode="j" horiz-adv-x="491" d="M342 143q-30 -144 -82 -293.5t-166 -276t-303 -126.5q-41 0 -71.5 24.5t-30.5 67.5q0 41 31.5 66.5t72.5 25.5q31 0 68 -38.5t63 -38.5q35 0 71 56t60 161l209 876q3 12 3 20q0 21 -25 21t-92 -84q-10 -13 -37 12q-20 18 -20 28q0 4 3 7q166 201 285 201q91 0 91 -123 q0 -31 -7 -63zM597 1140q0 -54 -43.5 -92t-95.5 -38q-142 0 -142 152q0 50 44 89t98 39q139 0 139 -150z" />
<glyph unicode="k" horiz-adv-x="929" d="M866 707q0 -76 -93 -163.5t-195 -139.5q-13 -7 -13 -18t10 -26l119 -165q76 -105 131 -105q34 0 74 41q3 3 8 3q10 0 28 -15.5t18 -25.5q0 -4 -3 -7q-98 -113 -202 -113q-86 0 -132.5 28t-99.5 108l-137 210q-10 21 -35 21q-10 0 -16 -27l-76 -319q-6 -21 -104 -21 q-92 0 -92 33q0 3 1 6l291 1202q9 39 9 57q0 89 -64 89q-21 0 -20 36t20 36q84 0 182 27.5t107 27.5q24 0 16 -39l-174 -731l16 -8q49 57 125 100t142 43q59 0 109 -32t50 -113zM659 684q0 55 -36 55q-96 0 -203 -129q-31 -37 -37 -63l-29 -123q-2 -7 -2 -16q0 -15 26 -15 q102 0 191.5 98t89.5 193z" />
<glyph unicode="l" horiz-adv-x="497" d="M296 195q-5 -21 -5 -29q0 -25 20 -25q33 0 92 86q4 6 11 6q11 0 30.5 -16t19.5 -27q0 -4 -3 -8q-158 -209 -281 -209q-95 0 -95 128q0 26 7 55l248 1054q10 44 10 75q0 75 -61 75q-21 0 -20 36t20 36q84 0 180 27.5t104 27.5q21 0 21 -22q0 -8 -2 -17z" />
<glyph unicode="m" horiz-adv-x="1525" d="M1330 232q-21 -67 -21 -76q0 -17 24 -17t103 88q4 4 9 4q10 0 28.5 -17t18.5 -28q0 -5 -3 -8q-169 -205 -295 -205q-96 0 -96 135q0 21 12 60l127 412q25 81 25 122t-27 41q-50 0 -119 -85t-142.5 -211t-211.5 -455q-10 -23 -108 -24h-3q-87 0 -87 27q0 3 1 6l164 534 q43 140 43 172q0 36 -24 36q-39 0 -99.5 -64.5t-136.5 -183.5t-242 -499q-10 -23 -106.5 -23t-89.5 30l190 611q12 39 12 50q0 24 -23.5 24t-88.5 -82q-4 -5 -9 -5q-11 0 -29 18t-18 29q0 4 3 7q164 197 280 197q90 0 90 -109q0 -33 -10 -67l-51 -172l10 -4 q80 143 183.5 247.5t201.5 104.5q133 0 133 -133q0 -60 -38 -196l-5 -19l10 -4q203 352 398 352q141 0 141 -141q0 -68 -29 -164z" />
<glyph unicode="n" horiz-adv-x="1024" d="M831 232q-20 -65 -20 -71q0 -20 23 -20t98 84q3 4 8 4q10 0 30 -17.5t20 -28.5q0 -4 -3 -7q-162 -203 -297 -203q-90 0 -90 128q0 33 10 67l125 412q31 102 31 131q0 32 -18 32q-99 0 -249.5 -264.5t-226.5 -482.5q-8 -23 -107 -23q-92 0 -92 21q0 2 1 4l194 623 q11 35 11 45q0 22 -23 22t-92 -82q-4 -4 -9 -4q-11 0 -29 17.5t-18 28.5q0 4 3 7q171 197 282 197q88 0 88 -104q0 -37 -16 -82l-57 -162l12 -4q201 352 391 352q143 0 143 -141q0 -71 -28 -164z" />
<glyph unicode="o" horiz-adv-x="948" d="M909 528q0 -209 -148.5 -382t-369.5 -173q-139 0 -208.5 97.5t-69.5 244.5q0 191 162.5 364t355.5 173q139 0 208.5 -90t69.5 -234zM731 629q0 119 -90 119q-105 0 -225.5 -201t-120.5 -344q0 -117 96 -117q95 0 217.5 201t122.5 342z" />
<glyph unicode="p" horiz-adv-x="911" d="M901 516q0 -209 -179 -376t-386 -167q-21 0 -57 4l-93 -378q-4 -17 -4 -30q0 -54 117 -54q10 0 10 -14q0 -15 -9 -37.5t-21 -22.5q-82 8 -214.5 8t-214.5 -8q-8 0 -8 11q0 15 8.5 39t22.5 24q98 0 117 75l262 1080q-44 -23 -115 -82q-3 -3 -8 -3q-11 0 -27.5 18t-16.5 29 q0 4 3 7q88 87 186 137l52 236q7 32 70.5 50t102.5 18q43 0 38 -27l-50 -213q54 4 68 4q147 0 246.5 -88t99.5 -240zM686 481q0 111 -39 185.5t-131 74.5q-24 0 -55 -6l-152 -623q-4 -17 -4 -32q0 -25 35 -25q139 0 242.5 138.5t103.5 287.5z" />
<glyph unicode="q" horiz-adv-x="980" d="M717 -369q-3 -13 -3 -25q0 -42 52 -42q20 0 47 4q10 2 10 -18q0 -60 -32 -60q-161 0 -414 -49q-11 0 -11 16q0 61 44 65q86 7 110 105l152 631l-10 8q-104 -122 -220 -207.5t-209 -85.5q-86 0 -128 56.5t-42 130.5q0 216 187.5 454t454.5 238q73 0 124 -72l62 107 q10 18 34 18q93 0 93 -49q0 -7 -2 -16l-86 -324zM739 627q0 143 -84 143q-124 0 -247 -232t-123 -388q0 -52 49 -52q47 0 154.5 94.5t169.5 194.5q81 134 81 240z" />
<glyph unicode="r" horiz-adv-x="768" d="M850 739q0 -49 -24.5 -76.5t-65.5 -27.5q-45 0 -77 28.5t-56 28.5q-58 0 -150 -195t-172 -501q-6 -23 -101 -23t-95 35v6l122 584q13 62 13 71q0 19 -22.5 19t-90.5 -92q-3 -5 -10 -5q-10 0 -28 14q-23 17 -23 28q0 3 2 6q90 118 160 165.5t126 47.5q84 0 84 -96 q0 -36 -8 -72l-26 -117l12 -4q143 289 293 289q55 0 96 -32t41 -81z" />
<glyph unicode="s" horiz-adv-x="618" d="M637 707q0 -31 -25.5 -60t-54.5 -29q-78 0 -113.5 63.5t-97.5 63.5q-22 0 -36.5 -15t-14.5 -36q0 -52 124 -193t124 -251t-93.5 -193.5t-234.5 -83.5q-74 0 -124 45t-50 89q0 42 23 75t69 33q73 0 114 -59.5t98 -59.5q63 0 63 64q0 44 -116 172t-116 243q0 129 83 203 t208 74q68 0 119 -48t51 -97z" />
<glyph unicode="t" horiz-adv-x="604" d="M311 233q-14 -45 -14 -71q0 -37 27 -37q64 0 227 192q3 4 8 4q10 0 27 -17q25 -25 16 -38q-102 -144 -194.5 -218.5t-198.5 -74.5q-59 0 -92 41t-33 90q0 44 10 76l166 533h-160q-16 0 -11 37q5 38 30 43l176 36l139 197q5 7 29 7q80 0 80 -38q0 -8 -3 -15l-51 -161h240 q9 0 9 -15t-8.5 -53t-22.5 -38h-248z" />
<glyph unicode="u" horiz-adv-x="1019" d="M823 231q-20 -65 -20 -69q0 -21 26.5 -21t100.5 84q3 3 8 3q10 0 28 -16q19 -19 19 -30q0 -3 -2 -6q-165 -203 -285 -203q-106 0 -106 121q0 35 12 76l45 152q-100 -138 -217 -243.5t-188 -105.5q-125 0 -125 123q0 49 20 113l127 407q15 48 15 54q0 18 -18.5 18 t-44.5 -23q-26 -24 -56 -61q-4 -5 -9 -5q-10 0 -28 16q-19 17 -19 28q0 4 3 8q155 201 290 201q90 0 90 -125q0 -37 -16 -88l-96 -307q-37 -118 -37 -158q0 -41 22 -41q51 0 153.5 136.5t154.5 231.5q92 169 139 329q6 22 94 22q102 0 102 -29q0 -3 -1 -6z" />
<glyph unicode="v" horiz-adv-x="843" d="M868 707q0 -138 -82.5 -318t-232.5 -298t-281 -118q-64 0 -98 27.5t-48 75.5q-6 21 -6 44q0 26 9 54l127 408q23 73 23 81q0 25 -17 25q-33 0 -98 -82q-11 -13 -37 12q-19 19 -19 30q0 4 3 7q172 197 288 197q45 0 67.5 -35t22.5 -88q0 -35 -10 -67l-139 -447 q-9 -29 -9 -55q0 -15 3 -28q10 -44 53 -44q89 0 200 166t111 313q0 92 -49 183q0 102 99 102q59 0 89.5 -43t30.5 -102z" />
<glyph unicode="w" horiz-adv-x="1259" d="M1284 707q0 -120 -84.5 -309.5t-234 -307t-277.5 -117.5q-56 0 -92 25q-37 26 -51 78q-146 -103 -273 -103q-73 0 -113 36t-40 95q0 31 12 70l125 406q23 75 23 92q0 16 -23 16t-92 -82q-4 -5 -12 -4.5t-25.5 17.5t-17.5 30q0 5 4 10q170 193 286 193q90 0 90 -119 q0 -42 -10 -74l-139 -446q-8 -26 -8 -55q0 -70 53 -70q47 0 85 39.5t76 104t64 149.5l133 442q9 29 103.5 29t94.5 -23q0 -3 -1 -6l-188 -612q-9 -29 -9 -50q0 -73 70.5 -73t184.5 161t114 312q0 96 -49 182q0 109 102 109q66 0 92.5 -47t26.5 -98z" />
<glyph unicode="x" horiz-adv-x="901" d="M954 743q0 -116 -86 -116q-34 0 -50.5 39t-41.5 39q-38 0 -90 -70l-131 -178l98 -193q52 -102 76 -102q26 0 72 102q4 10 19 10t29 -6.5t11 -17.5q-53 -277 -178 -277q-87 0 -170 152l-86 158l-98 -136q-125 -174 -228 -174q-43 0 -69.5 23.5t-26.5 64.5q0 56 26.5 97 t61.5 41t57.5 -37t28.5 -37q34 0 74 55l133 182l-111 216q-40 92 -59 92q-15 0 -33 -30.5t-32 -59.5q-3 -6 -13 -6t-32 13.5t-17 26.5q104 238 197 238q75 0 135 -121l96 -194l90 125q137 190 240 190q57 0 82.5 -29t25.5 -80z" />
<glyph unicode="y" horiz-adv-x="782" d="M809 764q0 -63 -48 -234.5t-130.5 -333.5t-199.5 -366t-223 -294.5t-212 -90.5q-62 0 -105 30.5t-43 78.5q0 51 27 79.5t74 28.5q41 0 69.5 -47t69.5 -47q40 0 108 71t94.5 178t26.5 255q0 260 -22.5 437t-77.5 177q-42 0 -100 -113q-3 -7 -14 -7t-33 13t-17 25 q111 248 244 248q98 0 152.5 -166t54.5 -377q0 -98 -10 -190l12 -4q59 116 100 274t41 256q0 55 -26 115q0 92 94 92t94 -88z" />
<glyph unicode="z" horiz-adv-x="917" d="M400 209l3 -19l42 -7q106 -18 187 -64.5t97 -46.5q62 0 62 55q0 18 -30 48t-30 79q0 74 97 74q41 0 68.5 -34t27.5 -79q0 -104 -81 -189t-177 -85q-47 0 -121 29l-149 63q-76 33 -111 33q-81 0 -138 -86q-5 -7 -17 -7q-20 0 -57 40q-36 41 -36 63q0 10 6 16l518 526 q12 12 12 24q0 14 -20 22q-85 32 -189 32h-24q-53 -2 -53 -22q0 -8 32.5 -39t32.5 -68q0 -87 -96 -87q-102 0 -102 111q0 102 94.5 176.5t210.5 74.5q53 0 147 -28t137 -28q51 0 73 24l40 44q7 6 16 6q17 0 46 -29q28 -30 28 -46q0 -9 -6 -15z" />
<glyph unicode="{" horiz-adv-x="784" d="M1114 1493q8 0 8 -13q0 -9 -4 -25q-10 -38 -24 -38q-136 0 -206.5 -45t-109.5 -188l-63 -234q-21 -76 -33 -112.5t-36.5 -84.5t-59.5 -79t-88 -58q65 -47 72 -124q2 -13 2 -28q0 -68 -29 -159l-72 -266q-25 -101 -25 -162q0 -47 15 -69q35 -52 188 -52q15 0 4.5 -37.5 t-24.5 -37.5q-8 0 -22 -1q-68 1 -102 2t-89.5 7t-80 17t-56 34.5t-39.5 58.5q-8 31 -8 77v10q1 53 20 120l113 424q10 38 10 66q0 33 -13 53q-26 37 -108 37q-16 0 -8 30.5t24 30.5q82 0 127 36t66 114l88 325q18 68 38.5 121t48.5 92t51.5 65.5t63.5 44t69.5 28t86 14.5 t94 5t111.5 1z" />
<glyph unicode="|" horiz-adv-x="536" d="M197 -334v1767h195v-1767h-195z" />
<glyph unicode="}" horiz-adv-x="784" d="M870 647q10 0 10 -12q0 -7 -4 -19q-8 -30 -22 -30q-82 0 -127 -37t-68 -119l-114 -424q-17 -59 -37.5 -107.5t-49 -81t-54 -57t-66.5 -39t-69.5 -23.5t-81 -12t-81 -4t-90.5 -2q-14 1 -22 1q-9 0 -9 14q0 9 4 23q9 38 25 38q154 0 217.5 53.5t112.5 229.5l70 266 q35 125 78 194.5t133 116.5q-72 50 -74 135v8q0 83 37 191l61 234q18 66 18 111q0 53 -25 77q-46 45 -183 45q-15 0 -4.5 38t24.5 38q74 0 111 -1t91 -5t78.5 -14.5t55.5 -28t40 -44t17 -65.5q3 -18 3 -40q0 -24 -5 -52q-8 -53 -26 -121l-86 -325q-11 -36 -11 -63 q0 -32 15 -51q26 -36 108 -36z" />
<glyph unicode="~" horiz-adv-x="743" d="M735 518q-8 -8 -40.5 -46t-56.5 -60.5t-67 -44t-90 -21.5q-51 0 -149.5 46t-143.5 46q-47 0 -129 -71q-14 -15 -39 9q-18 17 -18 29q0 6 4 11q6 6 30.5 35.5t40 44t44.5 36t63.5 31.5t75.5 10q53 0 147.5 -45t133.5 -45q28 0 51.5 11.5t50.5 35t37 31.5q14 10 40 -11 q18 -14 18 -25q0 -4 -3 -7z" />
<glyph unicode="&#xa1;" horiz-adv-x="595" d="M571 714.5q0 -65.5 -47 -111.5t-112 -46q-64 0 -111 47t-47 111q0 65 46 111t111.5 46t112.5 -46t47 -111.5zM207 -412q-17 -59 -66 -100t-100 -41q-117 0 -117 91q0 30 13 71q6 20 151 362l182 432q6 15 31 19q9 1 18 1q15 0 29 -4q19 -6 19 -18q0 -3 -36.5 -187.5 l-77 -388t-46.5 -237.5z" />
<glyph unicode="&#xa2;" horiz-adv-x="880" d="M975 1030v-6q0 -24 -13 -58q-16 -38 -47 -61q-42 -34 -73 -34q-28 0 -47 28l-15 44q-14 44 -37 61l-276 -625q37 -21 72 -21q61 0 108 11.5t68.5 26t46.5 26.5q24 14 39.5 -30t-6.5 -54q-4 -2 -50.5 -27.5t-82 -42t-105.5 -33t-141 -16.5h-21l-84 -190q-3 -7 -21 -7 q-14 0 -37 4q-52 11 -48 23l86 195q-78 35 -125 107.5t-47 170.5q0 103 52 211.5t132 190.5q170 176 377 194l84 193q3 8 21 8q14 0 37 -5q52 -11 48 -24l-77 -174q159 -18 182 -86zM635 1018q-103 -31 -186.5 -169t-83.5 -257q0 -66 26 -125z" />
<glyph unicode="&#xa3;" horiz-adv-x="1081" d="M1139 1167q0 -28 -28 -74t-69 -46q-22 0 -40.5 29.5t-32 65.5t-47 65.5t-80.5 29.5q-56 0 -95.5 -71.5t-53 -167t-24 -190.5t-10.5 -144h289q15 0 6.5 -46.5t-22.5 -46.5h-287q-16 -102 -87 -204.5t-165 -169.5q16 2 33 2q55 0 110 -26q72 -34 132.5 -73t97.5 -39 q29 0 41 29t9 61.5t-1 57.5q0 96 84 96q55 0 84 -39t29 -84q0 -80 -69 -137t-145.5 -77.5t-144.5 -20.5q-69 0 -138 24.5t-150.5 65.5t-131.5 59q-32 -8 -49.5 -29.5t-23.5 -43t-30 -38t-67 -16.5q-40 0 -74 21.5t-34 60.5q0 33 30.5 61.5t78 46t87 28t76.5 14.5 q78 10 125 127.5t58 242.5h-217q-17 0 -4.5 46.5t26.5 46.5h207q14 114 28.5 188t54.5 171t99 161q133 139 303 139q232 0 232 -156z" />
<glyph unicode="&#xa4;" horiz-adv-x="1024" d="M946 668q0 -146 -88 -262l78 -78q2 -2 2 -5q0 -14 -34 -48q-33 -33 -46 -33q-4 0 -6 2l-78 78q-117 -89 -260 -89q-145 0 -262 91l-80 -80q-2 -2 -6 -2q-13 0 -46 33q-34 34 -34 48q0 3 2 5l80 80q-88 114 -88 260q0 145 88 260l-80 80q-2 2 -2 5q0 13 34 47t47 34 q3 0 5 -2l80 -80q117 90 260 90q145 0 262 -88l78 78q2 2 5 2q13 0 47 -34t34 -47q0 -3 -2 -5l-78 -78q88 -117 88 -262zM825 668q0 129 -91 220t-222 91q-129 0 -220 -91t-91 -220t91 -221q91 -91 220 -91q131 0 222 91q91 92 91 221z" />
<glyph unicode="&#xa5;" horiz-adv-x="1268" d="M435 218l75 246l-351 2q-8 0 -8 13t7 39q16 51 29 49h352q-2 48 -23 111l-25 73l-256 2q-15 0 0 51.5t29 49.5h192l-91 284q-21 65 -54.5 98.5t-104.5 33.5q-15 0 -3.5 47t24.5 47q58 -6 253.5 -6t252.5 6q16 0 4.5 -47t-25.5 -47q-84 0 -108 -22q-13 -11 -13 -35 q0 -23 11 -56l131 -403q8 -23 22 -23t32 20l386 406q49 52 49 78q0 6 -2 10q-13 25 -93 25q-15 0 -2 47t27 47q57 -6 212.5 -6t213.5 6q8 0 8 -15q0 -12 -4 -32q-12 -47 -27 -47q-101 0 -157.5 -36t-199.5 -189l-178 -191l189 2q13 0 0 -51.5t-29 -53.5h-257l-104 -109 q-32 -33 -44 -75l358 2q13 0 -0.5 -51.5t-28.5 -53.5h-363l-76 -263q-9 -30 -9 -51q0 -28 16 -41q27 -23 111 -23q15 0 2 -47t-27 -47q-76 8 -263 8t-264 -8q-13 0 -1.5 47t26.5 47q84 0 120.5 28.5t58.5 103.5z" />
<glyph unicode="&#xa6;" horiz-adv-x="581" d="M467 795h-195v577h195v-577zM467 109h-195v579h195v-579z" />
<glyph unicode="&#xa7;" horiz-adv-x="1048" d="M1075 1278q0 -113 -92 -113q-25 0 -41 28t-26.5 59.5t-34 59t-58.5 27.5q-86 0 -120.5 -45t-34.5 -131q0 -84 41 -207q20 -65 72.5 -176.5t84 -207t31.5 -183.5q0 -121 -68 -219q-94 -139 -291.5 -291.5t-347.5 -152.5q-86 0 -150.5 52t-64.5 136q0 29 18.5 50.5 t53.5 21.5q29 0 61.5 -38t75.5 -76t97 -38q159 0 159 168q0 55 -41 188q-8 31 -98 241t-90 329q0 151 117.5 302.5t265.5 250.5q201 129 299 129q70 0 126 -47t56 -117zM692 342q0 86 -53 228.5t-92 228.5q-47 125 -47 180q0 119 14 174q-106 -135 -106 -307q0 -109 51 -236 l101 -246q50 -118 50 -206q0 -82 -24 -140q106 115 106 324z" />
<glyph unicode="&#xa8;" horiz-adv-x="778" d="M388 1010q-51 0 -82 30t-31 79q0 59 40 101t102 42q49 0 80.5 -30.5t31.5 -79.5q0 -60 -41 -101t-100 -41zM787 1010q-51 0 -81.5 30t-30.5 79q0 59 40 101t101 42q49 0 81 -30.5t32 -79.5q0 -60 -41 -101t-101 -41z" />
<glyph unicode="&#xa9;" horiz-adv-x="1611" d="M1532 747.5q0 -296.5 -211 -508.5t-510 -212t-510 212t-211 508.5t211 508.5t510 212t510 -212t211 -508.5zM1430 748q0 256 -181.5 437t-437.5 181t-437 -181t-181 -437t181 -437.5t437 -181.5t437.5 181.5t181.5 437.5zM1108 561q-2 -20 -20.5 -73.5t-34.5 -77.5 q-4 0 -21 -4l-26 -7q-91 -24 -191 -24q-164 0 -274.5 105.5t-110.5 256.5q0 168 109.5 282t285.5 114q72 0 197 -27q10 -2 43 -2q22 -49 22 -176q0 -10 -24.5 -11.5t-26.5 7.5q-16 161 -213 161q-114 0 -181 -92t-67 -225q0 -170 79 -256t167 -86q187 0 236 149q4 7 15 7 t23.5 -7.5t12.5 -13.5z" />
<glyph unicode="&#xaa;" horiz-adv-x="681" d="M733 1329l-133 -436q-6 -27 14 -27q31 0 68 43q8 9 25.5 -7.5t11.5 -24.5q-103 -121 -199 -121q-39 0 -49 39q-2 8 -2 18q0 38 29 102l-9 5q-53 -70 -121.5 -117t-115.5 -47q-49 0 -77 35.5t-28 91.5q0 135 120 290.5t261 155.5q45 0 70 -20l14 32q4 11 24 14q9 1 18 1 q13 0 26 -2q22 -4 38.5 -11.5t14.5 -13.5zM575 1243q-18 31 -65 31q-61 0 -114.5 -78t-78 -162t-24.5 -131q0 -20 9 -38.5t22 -18.5q47 0 117.5 93t103.5 200z" />
<glyph unicode="&#xab;" horiz-adv-x="874" d="M924 786l-244 -327q-18 -24 -18 -46q0 -7 2 -14l67 -333q2 -13 -22 -28q-14 -8 -22 -8q-6 0 -9 5l-217 356q-8 13 -8 26q0 24 28 48l406 352q4 4 10 4q7 0 17 -8q12 -10 12 -19q0 -4 -2 -8zM559 786l-244 -327q-22 -31 -16 -60l68 -333q2 -13 -23 -28q-14 -8 -22 -8 q-6 0 -9 5l-217 356q-7 13 -7 25q0 25 28 49l405 352q4 4 10 4q8 0 18 -8q12 -10 12 -19q0 -4 -3 -8z" />
<glyph unicode="&#xac;" horiz-adv-x="1366" d="M1180 0v483h-1180v174h1366v-657h-186z" />
<glyph unicode="&#xad;" horiz-adv-x="1024" d="M1059 463h-963q-22 0 -22 66q0 67 22 67h963q22 0 22 -67q0 -66 -22 -66z" />
<glyph unicode="&#xae;" horiz-adv-x="1611" d="M1532 747.5q0 -296.5 -211 -508.5t-510 -212t-510 212t-211 508.5t211 508.5t510 212t510 -212t211 -508.5zM1430 748q0 256 -181.5 437t-437.5 181t-437 -181t-181 -437t181 -437.5t437 -181.5t437.5 181.5t181.5 437.5zM1206 389q-16 -1 -31 -1q-87 0 -143 30 q-51 33 -90 76t-73.5 96t-47.5 67q-30 39 -42.5 48.5t-33.5 9.5q-18 0 -32 2q-15 0 -15 -12v-195q0 -35 19.5 -48t62.5 -13q10 0 10 -26t-8 -26q-45 4 -148 4t-153 -4q-9 0 -9 24.5t7 24.5q88 0 88 64v510q0 59 -92 59q-8 0 -8 24.5t8 24.5q21 0 66 -2t90 -2q20 0 69.5 3 t92.5 3q133 0 216 -55t83 -153q0 -138 -152 -181q-18 -6 -4 -26q68 -117 174 -226q53 -57 96 -63q15 -2 15 -22q0 -13 -15 -15zM954 920q0 65 -54 116t-157 51q-30 0 -37.5 -3t-7.5 -19v-281q0 -20 13 -20q23 -6 42 -6h5q196 4 196 162z" />
<glyph unicode="&#xaf;" horiz-adv-x="608" d="M768 1161q19 0 19 -20q0 -14 -9 -36q-20 -56 -47 -56h-446q-18 0 -18 23q0 13 5 33q17 56 45 56h451z" />
<glyph unicode="&#xb0;" horiz-adv-x="735" d="M807 1047q0 -121 -80 -193t-195 -72q-114 0 -194 72t-80 193q0 116 80 190t194 74q115 0 195 -74t80 -190zM662 1047q0 73 -37 116t-93 43q-55 0 -92 -43t-37 -116q0 -74 37 -117t92 -43q56 0 93 43t37 117z" />
<glyph unicode="&#xb1;" horiz-adv-x="1134" d="M993 629h-299v-342h-180v342h-301v147h301v305h180v-305h299v-147zM993 -6h-780v147h780v-147z" />
<glyph unicode="&#xb2;" horiz-adv-x="667" d="M541 893q-74 -68 -330 -268h215q57 0 93 14t67 53q12 15 36.5 0.5t12.5 -30.5l-92 -119q-19 -25 -54 -25q-22 0 -80.5 3t-125.5 3q-78 0 -140.5 -3t-72.5 -3q-25 0 -30 14q-1 2 -1 4q0 13 24 33q166 133 306 293q182 205 182 320q0 75 -62 75q-75 0 -174 -104 q-12 -14 -32.5 -1t-10.5 26q58 73 135.5 123.5t159.5 50.5q78 0 122 -42t44 -110q0 -55 -34.5 -117.5t-68.5 -99.5t-89 -90z" />
<glyph unicode="&#xb3;" horiz-adv-x="667" d="M545 997q110 -32 110 -141q0 -117 -96 -217q-127 -127 -291 -127q-61 0 -113.5 19.5t-52.5 62.5q0 33 26 55.5t58 22.5q25 0 38.5 -16.5t17.5 -35t19 -35t42 -16.5q72 0 122 98.5t50 182.5q0 43 -26.5 68.5t-77.5 25.5q-33 0 -70 -10q-18 0 -10 32.5t24 32.5 q105 0 174 60q70 61 70 137t-65 76q-68 0 -150 -82q-10 -10 -26.5 6t-6.5 25q131 131 250 131q68 0 112 -38t44 -97q0 -134 -172 -220z" />
<glyph unicode="&#xb4;" horiz-adv-x="917" d="M679 1218l-281 -271q-19 -18 -42 -18t-32 21q-2 5 -2 11q0 17 15 40l209 313q13 19 37 19q45 0 85 -43q24 -25 24 -45q0 -15 -13 -27z" />
<glyph unicode="&#xb5;" horiz-adv-x="1019" d="M1004 817l-181 -586q-20 -61 -20 -69q0 -21 22.5 -21t55 32t49.5 52q12 13 36.5 -12t16.5 -37q-70 -88 -149.5 -145.5t-149.5 -57.5q-45 0 -68.5 35t-23.5 86q0 35 12 76l45 152q-94 -129 -204.5 -231.5t-184.5 -115.5q-41 -120 -47 -163q-5 -29 -5 -60q0 -16 1 -32 q2 -23 2 -44q0 -28 -3 -55q-5 -49 -18.5 -89t-55.5 -64.5t-114 -24.5q-28 0 -55.5 16.5t-30.5 46.5v6q0 42 48 185l290 934q0 6 4.5 17t4.5 16q0 24 -21 24q-18 0 -51 -31.5t-47 -52.5q-12 -12 -38 11.5t-15 35.5q155 201 290 201q90 0 90 -125q0 -29 -16 -88l-96 -307 q-37 -111 -37 -158q0 -41 22 -41q50 0 149 130t177 272q39 69 77 170.5t44 124t94 22.5q25 0 48.5 -4t39 -12.5t13.5 -18.5z" />
<glyph unicode="&#xb6;" horiz-adv-x="1153" d="M1298 1473q11 0 11 -15q0 -8 -5 -23q-10 -38 -24 -38q-8 -2 -22.5 0t-32 -2t-33.5 -10.5t-30.5 -22.5t-20.5 -39l-430 -1606q-4 -14 -81 -15h-10q-67 0 -63 13l432 1608q10 39 -8 56.5t-49 17.5q-88 0 -107 -74l-434 -1608q-2 -14 -78.5 -14t-72.5 14l262 979h-25h-8 q-160 0 -254 74q-96 76 -96 219q0 205 179 345.5t388 140.5q105 0 237 -4.5t185 -4.5q109 0 190 9z" />
<glyph unicode="&#xb7;" horiz-adv-x="571" d="M492 522.5q0 -65.5 -47.5 -111.5t-113 -46t-111.5 46t-46 111.5t46 112.5t111.5 47t113 -47t47.5 -112.5z" />
<glyph unicode="&#xb8;" horiz-adv-x="778" d="M434 -324q0 -82 -77.5 -136t-182.5 -54q-158 0 -158 90q0 29 18.5 48.5t47.5 19.5q31 0 75 -38t64 -38q19 0 36 14.5t17 36.5q0 94 -127 148l-6 16l148 217h108l-78 -106q-12 -17 -9 -24t26 -24q98 -73 98 -170z" />
<glyph unicode="&#xb9;" horiz-adv-x="667" d="M666 1366q-15 -39 -35 -113l-150 -555q-13 -47 -13 -72q0 -16 5 -24q12 -20 76 -20q8 0 0 -30t-17 -30q-61 6 -192 6q-137 0 -199 -6q-6 0 -6 9q0 8 4 21q8 30 19 30q73 0 99 18t46 98l135 510q6 23 -4 27t-28 -2q-46 -16 -82 -23q-9 -2 -12 9.5t0 26t12 16.5 q223 69 317 112q6 4 16 4t10 -7q0 -2 -1 -5z" />
<glyph unicode="&#xba;" horiz-adv-x="647" d="M707 1122q0 -133 -95.5 -249.5t-246.5 -116.5q-93 0 -139 64.5t-46 162.5q0 125 107.5 238.5t234.5 113.5q94 0 139.5 -58t45.5 -155zM590 1182q0 51 -14.5 68.5t-45.5 17.5q-71 0 -150 -134.5t-79 -226.5q0 -76 63.5 -76t144.5 133.5t81 217.5z" />
<glyph unicode="&#xbb;" horiz-adv-x="1347" d="M807 465q7 -13 7 -25q0 -25 -28 -49l-407 -356q-5 -5 -12 -5q-8 0 -18 8q-17 15 -7 28l246 333q17 23 17 47q0 6 -1 13l-67 327q-2 13 22 27q15 8 23 8q6 0 8 -4zM442 465q8 -13 8 -26q0 -24 -28 -48l-408 -356q-5 -5 -12 -5q-8 0 -17 8q-12 10 -12 18q0 5 4 10l246 333 q18 23 18 47q0 7 -1 13l-68 327q-2 13 23 27q14 8 22 8q5 0 8 -4z" />
<glyph unicode="&#xbc;" horiz-adv-x="1507" d="M1499 860l-536 -530q-29 -29 6 -29h200l68 252q4 16 94 16t86 -16l-65 -252h63q15 0 6.5 -35t-24.5 -35h-66l-33 -125q-8 -28 6.5 -39.5t61.5 -11.5q10 0 2 -30.5t-18 -30.5q-62 6 -185 6t-184 -6q-10 0 -2 30.5t18 30.5q64 0 87.5 10.5t33.5 40.5l33 125h-287 q-35 0 -40 15.5t7.5 34t32.5 38.5l205 199q166 162 354 365q21 16 53 9q25 -6 25 -23q0 -4 -2 -9zM1270 1300l-803 -1300h-127l803 1300h127zM666 1366q-15 -39 -35 -113l-150 -555q-13 -47 -13 -72q0 -16 5 -24q12 -20 76 -20q8 0 0 -30t-17 -30q-61 6 -195 6t-196 -6 q-6 0 -6 9q0 8 4 21q8 30 19 30q73 0 99 18t46 98l135 510q6 23 -4 27t-28 -2q-46 -16 -82 -23q-9 -2 -12 9.5t0 26t12 16.5q223 69 317 112q6 4 16 4t10 -7q0 -2 -1 -5z" />
<glyph unicode="&#xbd;" horiz-adv-x="1507" d="M1270 1300l-803 -1300h-127l803 1300h127zM666 1366q-15 -39 -35 -113l-150 -555q-13 -47 -13 -72q0 -16 5 -24q12 -20 76 -20q8 0 0 -30t-17 -30q-61 6 -195 6t-196 -6q-6 0 -6 9q0 8 4 21q8 30 19 30q73 0 99 18t46 98l135 510q6 23 -4 27t-28 -2q-46 -16 -82 -23 q-9 -2 -12 9.5t0 26t12 16.5q223 69 317 112q6 4 16 4q13 0 9 -12zM1280 369q-74 -68 -330 -269h215q58 0 92.5 13.5t67.5 54.5q10 14 35.5 -1t13.5 -30l-92 -119q-18 -24 -53 -24q-23 0 -81 3t-131 3t-135.5 -3t-72.5 -3q-23 0 -28 13q-1 2 -1 4q0 13 23 34 q166 133 305 293q182 205 182 319q0 76 -61 76q-76 0 -174 -104q-15 -15 -34.5 -1.5t-8.5 25.5q137 174 295 174q77 0 121.5 -42t44.5 -109q0 -55 -35 -117.5t-69 -99.5t-89 -90z" />
<glyph unicode="&#xbe;" horiz-adv-x="1507" d="M1288 1300l-803 -1300h-127l803 1300h127zM549 997q110 -32 110 -141q0 -117 -96 -217q-127 -127 -291 -127q-61 0 -113.5 19.5t-52.5 62.5q0 33 26 55.5t58 22.5q25 0 38.5 -16.5t17.5 -35t19.5 -35t41.5 -16.5q72 0 122 98.5t50 182.5q0 43 -26.5 68.5t-77.5 25.5 q-33 0 -70 -10q-18 0 -10 32.5t24 32.5q105 0 175 60q69 61 69 137t-65 76q-68 0 -150 -82q-10 -10 -26.5 6t-6.5 25q131 131 250 131q68 0 112 -38t44 -97q0 -134 -172 -220zM1499 860l-536 -530q-29 -29 6 -29h200l68 252q4 16 94 16t86 -16l-65 -252h63q15 0 6.5 -35 t-24.5 -35h-66l-33 -125q-8 -28 6.5 -39.5t61.5 -11.5q10 0 2 -30.5t-18 -30.5q-62 6 -185 6t-184 -6q-10 0 -2 30.5t18 30.5q64 0 87.5 10.5t33.5 40.5l33 125h-287q-35 0 -40 15q-1 5 -1 10q0 11 9 24q12 19 32 39l205 199q166 162 354 365q15 11 34 11q9 0 19 -2 q25 -6 25 -23q0 -4 -2 -9z" />
<glyph unicode="&#xbf;" horiz-adv-x="727" d="M696 719q0 -70 -44 -117t-111 -47q-68 0 -110 48t-42 116q0 65 43 108t111 43q63 0 108 -42t45 -109zM510 260q0 -88 -41 -141t-123 -88l-121 -54q-174 -75 -174 -176q0 -102 230 -102q24 0 55 -28q31 -27 31 -70q0 -45 -44 -89t-106 -44q-115 0 -188 103 q-74 103 -74 247q0 114 47 207q47 92 115 120l176 76q88 37 102 72q17 31 19 108q0 17 31 25q11 3 18 3q15 0 18 -11q29 -111 29 -158z" />
<glyph unicode="&#xc0;" horiz-adv-x="1165" d="M1104 1601q34 -18 34 -41q0 -7 -4 -15q-10 -21 -32 -21q-14 0 -29 6l-536 204q-28 11 -28 53q0 20 11.5 44.5t33.5 41.5q14 11 26 11q7 0 14 -4zM928 202q-2 -15 -2 -30q0 -86 126 -86q8 0 8 -19t-8.5 -47t-20.5 -28q-76 8 -230.5 8t-231.5 -8q-8 0 -8 17.5t9.5 47 t19.5 29.5q61 0 89 22t37 94l37 283q5 38 -37 38h-246q-30 0 -48 -28l-189 -294q-24 -38 -24 -60q0 -55 121 -55q8 0 8 -18.5t-8.5 -47t-20.5 -28.5q-76 8 -229.5 8t-230.5 -8q-8 0 -8 13.5t7 47t22 33.5q109 0 157 34.5t90 97.5l655 974q8 12 8 23t-9.5 22.5t-9.5 22.5 q0 20 68 43q69 24 124.5 53.5t83.5 29.5q42 0 42 -50q0 -22 -14 -79.5t-20 -106.5zM774 649l47 413v5q0 10 -6 10q-8 0 -17 -13l-283 -428q-6 -8 -6 -18.5t19 -10.5h204q37 0 42 42z" />
<glyph unicode="&#xc1;" horiz-adv-x="1165" d="M1375 1734l-534 -204q-16 -6 -28 -6q-16 0 -27 10.5t-11 25.5q0 22 35 41l508 279q8 4 17 4q21 0 46 -29.5t25 -68.5q0 -40 -31 -52zM928 202q-2 -15 -2 -30q0 -86 126 -86q8 0 8 -19t-8.5 -47t-20.5 -28q-76 8 -230.5 8t-231.5 -8q-8 0 -8 17.5t9.5 47t19.5 29.5 q61 0 89 22t37 94l37 283q5 38 -37 38h-246q-30 0 -48 -28l-189 -294q-24 -38 -24 -60q0 -55 121 -55q8 0 8 -18.5t-8.5 -47t-20.5 -28.5q-76 8 -229.5 8t-230.5 -8q-8 0 -8 13.5t7 47t22 33.5q109 0 157 34.5t90 97.5l655 974q8 12 8 23t-9.5 22.5t-9.5 22.5q0 20 68 43 q69 24 124.5 53.5t83.5 29.5q42 0 42 -50q0 -22 -14 -79.5t-20 -106.5zM774 649l47 413v5q0 10 -6 10q-8 0 -17 -13l-283 -428q-6 -8 -6 -18.5t19 -10.5h204q37 0 42 42z" />
<glyph unicode="&#xc2;" horiz-adv-x="1165" d="M1325 1579q4 -4 4 -10q0 -10 -11.5 -27t-20.5 -17q-2 0 -4 1l-271 133q-19 9 -39 9t-41 -9l-301 -133q-3 -1 -6 -1q-14 0 -25.5 15.5t-11.5 25.5q0 8 7 13l350 271q25 19 50.5 19t51.5 -24zM928 202q-2 -15 -2 -30q0 -86 126 -86q8 0 8 -19t-8.5 -47t-20.5 -28 q-76 8 -230.5 8t-231.5 -8q-8 0 -8 17.5t9.5 47t19.5 29.5q61 0 89 22t37 94l37 283q5 38 -37 38h-246q-30 0 -48 -28l-189 -294q-24 -38 -24 -60q0 -55 121 -55q8 0 8 -18.5t-8.5 -47t-20.5 -28.5q-76 8 -229.5 8t-230.5 -8q-8 0 -8 13.5t7 47t22 33.5q109 0 157 34.5 t90 97.5l655 974q8 12 8 23t-9.5 22.5t-9.5 22.5q0 20 68 43q69 24 124.5 53.5t83.5 29.5q42 0 42 -50q0 -22 -14 -79.5t-20 -106.5zM774 649l47 413v5q0 10 -6 10q-8 0 -17 -13l-283 -428q-6 -8 -6 -18.5t19 -10.5h204q37 0 42 42z" />
<glyph unicode="&#xc3;" horiz-adv-x="1165" d="M1269 1669q-27 -71 -87 -129q-46 -45 -83 -45q-40 0 -135 25q-89 19 -103 20q-40 0 -82 -39q-15 -15 -24 -31q-3 -6 -11 -6l-14 2q-20 8 -21 23l1 6q31 82 91 140q45 44 85 44q34 0 121 -24q63 -21 117 -21q53 0 89 53q3 3 5 7q4 7 15 7l16 -3q20 -9 21 -23zM928 202 q-2 -15 -2 -30q0 -86 126 -86q8 0 8 -19t-8.5 -47t-20.5 -28q-76 8 -230.5 8t-231.5 -8q-8 0 -8 17.5t9.5 47t19.5 29.5q61 0 89 22t37 94l37 283q5 38 -37 38h-246q-30 0 -48 -28l-189 -294q-24 -38 -24 -60q0 -55 121 -55q8 0 8 -18.5t-8.5 -47t-20.5 -28.5 q-76 8 -229.5 8t-230.5 -8q-8 0 -8 13.5t7 47t22 33.5q109 0 157 34.5t90 97.5l655 974q8 12 8 23t-9.5 22.5t-9.5 22.5q0 20 68 43q69 24 124.5 53.5t83.5 29.5q42 0 42 -50q0 -22 -14 -79.5t-20 -106.5zM774 649l47 413v5q0 10 -6 10q-8 0 -17 -13l-283 -428 q-6 -8 -6 -18.5t19 -10.5h204q37 0 42 42z" />
<glyph unicode="&#xc4;" horiz-adv-x="1165" d="M802 1520q-51 0 -82 30t-31 79q0 59 40 101t102 42q49 0 80.5 -30.5t31.5 -79.5q0 -60 -41 -101t-100 -41zM1201 1520q-51 0 -81.5 30t-30.5 79q0 59 40 101t101 42q49 0 81 -30.5t32 -79.5q0 -60 -41 -101t-101 -41zM928 202q-2 -15 -2 -30q0 -86 126 -86q8 0 8 -19 t-8.5 -47t-20.5 -28q-76 8 -230.5 8t-231.5 -8q-8 0 -8 17.5t9.5 47t19.5 29.5q61 0 89 22t37 94l37 283q5 38 -37 38h-246q-30 0 -48 -28l-189 -294q-24 -38 -24 -60q0 -55 121 -55q8 0 8 -18.5t-8.5 -47t-20.5 -28.5q-76 8 -229.5 8t-230.5 -8q-8 0 -8 13.5t7 47t22 33.5 q109 0 157 34.5t90 97.5l655 974q8 12 8 23t-9.5 22.5t-9.5 22.5q0 20 68 43q69 24 124.5 53.5t83.5 29.5q42 0 42 -50q0 -22 -14 -79.5t-20 -106.5zM774 649l47 413v5q0 10 -6 10q-8 0 -17 -13l-283 -428q-6 -8 -6 -18.5t19 -10.5h204q37 0 42 42z" />
<glyph unicode="&#xc5;" horiz-adv-x="1165" d="M1222 1520q0 -68 -42 -124.5t-116 -75.5l-136 -1118q-1 -13 -1 -24q0 -50 25 -69q32 -23 100 -23q14 0 4.5 -47t-25.5 -47q-76 8 -225 8q-160 0 -237 -8q-15 0 -3.5 47t24.5 47q61 0 89 22t37 94l37 283q3 38 -37 38h-246q-31 0 -48 -28l-189 -294q-21 -33 -23 -55 t6.5 -33.5t31.5 -18t40.5 -7.5t41.5 -1q14 0 4.5 -47t-25.5 -47q-76 8 -235 8q-148 0 -225 -8q-8 0 -8 16q0 11 5 31q9 47 24 47q42 0 64 3t56.5 13.5t64 39t62.5 76.5l754 1123q-107 59 -107 179q0 84 63 146.5t166 62.5t166 -62.5t63 -146.5zM1094 1518.5 q0 55.5 -26.5 93.5t-74.5 40q-48 -2 -74.5 -40t-26.5 -93.5t26.5 -93.5t74.5 -38t74.5 38t26.5 93.5zM821 1062q2 13 -5 15h-2q-7 0 -16 -13l-282 -426q-5 -9 -5 -16q0 -3 1 -6q4 -9 17 -9h203q38 0 42 42z" />
<glyph unicode="&#xc6;" horiz-adv-x="1789" d="M36 202l825 969q38 41 38 63q0 30 -85 30q-16 0 -2.5 47t26.5 47q144 -6 358 -6t386.5 3t258.5 3q65 0 65 -40q0 -11 -4 -25l-84 -283q-2 -7 -19 -12t-36 -5t-32.5 5t-11.5 12q16 54 16 98q0 60 -38 108t-127 50l-237 4q-44 0 -59 -46l-153 -504q-11 -36 27 -36h174 q84 0 101 48l48 145q7 19 50 18t39 -18q-30 -77 -79 -242t-58 -215q-6 -17 -47 -15t-37 15l34 128q8 29 -10 40.5t-58 11.5h-193q-25 0 -37 -33l-91 -302q-21 -71 -21 -108q0 -79 88 -79h9l229 8q249 10 323 258q6 17 53.5 17t43.5 -17l-84 -312q-9 -32 -27 -36t-93 -4 q-11 0 -238.5 4t-389 4t-352.5 -8q-13 0 -3.5 47t24.5 47q94 0 127.5 19t59.5 107l107 351q12 37 -26 37h-300q-17 0 -40 -31l-312 -393q-23 -29 -23 -46q0 -44 119 -44q13 0 1.5 -47t-26.5 -47q-76 8 -222 8q-156 0 -233 -8q-8 0 -8 13.5t8 47t23 33.5q79 0 129.5 25 t105.5 91zM604 720q-13 -15 -13 -24q0 -12 26 -12h223q35 0 44 32l138 457q2 9 2 15q0 14 -12 14q-8 0 -17 -12z" />
<glyph unicode="&#xc7;" horiz-adv-x="1470" d="M728 -336q0 -82 -77.5 -136t-182.5 -54q-158 0 -158 90q0 29 18.5 48.5t47.5 19.5q31 0 75 -38t64 -38q19 0 36 14.5t17 36.5q0 94 -127 148l-6 16l148 217h108l-78 -106q-12 -17 -9 -24t26 -24q98 -73 98 -170zM1199 36q-53 -7 -89 -19q-176 -44 -402 -44 q-227 0 -378.5 133t-151.5 363q0 351 299 633.5t671 282.5q108 0 242 -28t193 -28q-12 -181 -61 -334q-6 -17 -53 -17t-44 21q9 53 9 74q0 104 -93.5 165t-232.5 61q-274 0 -482 -259.5t-208 -585.5q0 -152 86 -271.5t264 -119.5q117 0 209.5 33.5t169 105t125.5 144.5 q10 15 53 13t43 -17q0 -38 -68 -154.5t-101 -151.5z" />
<glyph unicode="&#xc8;" horiz-adv-x="1256" d="M1159 1601q34 -18 34 -41q0 -7 -4 -15q-10 -21 -32 -21q-14 0 -29 6l-536 204q-28 11 -28 53q0 20 11.5 44.5t33.5 41.5q14 11 26 11q7 0 14 -4zM1079 21q-8 -29 -58 -29q-100 0 -368 4t-379.5 4t-288.5 -8q-9 0 -9 13.5t8 47t22 33.5q99 0 136.5 26t61.5 106l283 939 q5 13 5 39q0 67 -146 67q-8 0 -8 14.5t9.5 47.5t21.5 33q102 -4 240 -4t386 2t348 2q63 0 63 -30q0 -13 -4 -27l-84 -289q-6 -19 -52 -19t-42 17q7 33 7 83t-41.5 104.5t-125.5 59.5q-132 7 -242 7h-27q-38 0 -48 -32l-159 -508q-2 -8 -2 -13q0 -19 23 -19h180q48 0 70 10 q22 9 31 37l48 145q6 19 51.5 19t38.5 -19q-74 -210 -138 -466q-4 -17 -46.5 -17t-37.5 17l34 128q8 29 -10 40q-18 12 -58 12h-201q-21 0 -29 -27l-103 -348q-10 -34 -10 -67q0 -78 89 -78h9l290 12q165 7 268 292q5 17 52.5 17t42.5 -17z" />
<glyph unicode="&#xc9;" horiz-adv-x="1256" d="M1319 1734l-534 -204q-16 -6 -28 -6q-16 0 -27 10.5t-11 25.5q0 22 35 41l508 279q8 4 17 4q21 0 46 -29.5t25 -68.5q0 -40 -31 -52zM1079 21q-8 -29 -58 -29q-100 0 -368 4t-379.5 4t-288.5 -8q-9 0 -9 13.5t8 47t22 33.5q99 0 136.5 26t61.5 106l283 939q5 13 5 39 q0 67 -146 67q-8 0 -8 14.5t9.5 47.5t21.5 33q102 -4 240 -4t386 2t348 2q63 0 63 -30q0 -13 -4 -27l-84 -289q-6 -19 -52 -19t-42 17q7 33 7 83t-41.5 104.5t-125.5 59.5q-132 7 -242 7h-27q-38 0 -48 -32l-159 -508q-2 -8 -2 -13q0 -19 23 -19h180q48 0 70 10q22 9 31 37 l48 145q6 19 51.5 19t38.5 -19q-74 -210 -138 -466q-4 -17 -46.5 -17t-37.5 17l34 128q8 29 -10 40q-18 12 -58 12h-201q-21 0 -29 -27l-103 -348q-10 -34 -10 -67q0 -78 89 -78h9l290 12q165 7 268 292q5 17 52.5 17t42.5 -17z" />
<glyph unicode="&#xca;" horiz-adv-x="1256" d="M1335 1579q4 -4 4 -10q0 -10 -11.5 -27t-20.5 -17q-2 0 -4 1l-271 133q-19 9 -39 9t-41 -9l-301 -133q-3 -1 -6 -1q-14 0 -25.5 15.5t-11.5 25.5q0 8 7 13l350 271q25 19 50.5 19t51.5 -24zM1079 21q-8 -29 -58 -29q-100 0 -368 4t-379.5 4t-288.5 -8q-9 0 -9 13.5t8 47 t22 33.5q99 0 136.5 26t61.5 106l283 939q5 13 5 39q0 67 -146 67q-8 0 -8 14.5t9.5 47.5t21.5 33q102 -4 240 -4t386 2t348 2q63 0 63 -30q0 -13 -4 -27l-84 -289q-6 -19 -52 -19t-42 17q7 33 7 83t-41.5 104.5t-125.5 59.5q-132 7 -242 7h-27q-38 0 -48 -32l-159 -508 q-2 -8 -2 -13q0 -19 23 -19h180q48 0 70 10q22 9 31 37l48 145q6 19 51.5 19t38.5 -19q-74 -210 -138 -466q-4 -17 -46.5 -17t-37.5 17l34 128q8 29 -10 40q-18 12 -58 12h-201q-21 0 -29 -27l-103 -348q-10 -34 -10 -67q0 -78 89 -78h9l290 12q165 7 268 292q5 17 52.5 17 t42.5 -17z" />
<glyph unicode="&#xcb;" horiz-adv-x="1256" d="M776 1520q-51 0 -82 30t-31 79q0 59 40 101t102 42q49 0 80.5 -30.5t31.5 -79.5q0 -60 -41 -101t-100 -41zM1175 1520q-51 0 -81.5 30t-30.5 79q0 59 40 101t101 42q49 0 81 -30.5t32 -79.5q0 -60 -41 -101t-101 -41zM1079 21q-8 -29 -58 -29q-100 0 -368 4t-379.5 4 t-288.5 -8q-9 0 -9 13.5t8 47t22 33.5q99 0 136.5 26t61.5 106l283 939q5 13 5 39q0 67 -146 67q-8 0 -8 14.5t9.5 47.5t21.5 33q102 -4 240 -4t386 2t348 2q63 0 63 -30q0 -13 -4 -27l-84 -289q-6 -19 -52 -19t-42 17q7 33 7 83t-41.5 104.5t-125.5 59.5q-132 7 -242 7h-27 q-38 0 -48 -32l-159 -508q-2 -8 -2 -13q0 -19 23 -19h180q48 0 70 10q22 9 31 37l48 145q6 19 51.5 19t38.5 -19q-74 -210 -138 -466q-4 -17 -46.5 -17t-37.5 17l34 128q8 29 -10 40q-18 12 -58 12h-201q-21 0 -29 -27l-103 -348q-10 -34 -10 -67q0 -78 89 -78h9l290 12 q165 7 268 292q5 17 52.5 17t42.5 -17z" />
<glyph unicode="&#xcc;" horiz-adv-x="754" d="M884 1601q34 -18 34 -41q0 -7 -4 -15q-10 -21 -32 -21q-14 0 -29 6l-536 204q-28 11 -28 53q0 20 11.5 44.5t33.5 41.5q14 11 26 11q7 0 14 -4zM441 202q-7 -25 -7 -52q0 -64 149 -64q7 0 7 -14.5t-9.5 -47t-20.5 -32.5q-77 8 -289 8t-288 -8q-8 0 -8 13t8.5 47t24.5 34 q88 0 133 23.5t65 92.5l272 952q8 27 8 63q0 53 -140 53q-7 0 -7 13.5t11 47t22 33.5q58 -6 286 -6t286 6q8 0 8 -12.5t-10 -47t-25 -34.5q-110 0 -148.5 -29.5t-54.5 -86.5z" />
<glyph unicode="&#xcd;" horiz-adv-x="754" d="M1043 1734l-534 -204q-16 -6 -28 -6q-16 0 -27 10.5t-11 25.5q0 22 35 41l508 279q8 4 17 4q21 0 46 -29.5t25 -68.5q0 -40 -31 -52zM441 202q-7 -25 -7 -52q0 -64 149 -64q7 0 7 -14.5t-9.5 -47t-20.5 -32.5q-77 8 -289 8t-288 -8q-8 0 -8 13t8.5 47t24.5 34 q88 0 133 23.5t65 92.5l272 952q8 27 8 63q0 53 -140 53q-7 0 -7 13.5t11 47t22 33.5q58 -6 286 -6t286 6q8 0 8 -12.5t-10 -47t-25 -34.5q-110 0 -148.5 -29.5t-54.5 -86.5z" />
<glyph unicode="&#xce;" horiz-adv-x="754" d="M1035 1579q4 -4 4 -10q0 -10 -11.5 -27t-20.5 -17q-2 0 -4 1l-271 133q-19 9 -39 9t-41 -9l-301 -133q-3 -1 -6 -1q-14 0 -25.5 15.5t-11.5 25.5q0 8 7 13l350 271q25 19 50.5 19t51.5 -24zM441 202q-7 -25 -7 -52q0 -64 149 -64q7 0 7 -14.5t-9.5 -47t-20.5 -32.5 q-77 8 -289 8t-288 -8q-8 0 -8 13t8.5 47t24.5 34q88 0 133 23.5t65 92.5l272 952q8 27 8 63q0 53 -140 53q-7 0 -7 13.5t11 47t22 33.5q58 -6 286 -6t286 6q8 0 8 -12.5t-10 -47t-25 -34.5q-110 0 -148.5 -29.5t-54.5 -86.5z" />
<glyph unicode="&#xcf;" horiz-adv-x="754" d="M497 1520q-51 0 -82 30t-31 79q0 59 40 101t102 42q49 0 80.5 -30.5t31.5 -79.5q0 -60 -41 -101t-100 -41zM896 1520q-51 0 -81.5 30t-30.5 79q0 59 40 101t101 42q49 0 81 -30.5t32 -79.5q0 -60 -41 -101t-101 -41zM441 202q-7 -25 -7 -52q0 -64 149 -64q7 0 7 -14.5 t-9.5 -47t-20.5 -32.5q-77 8 -289 8t-288 -8q-8 0 -8 13t8.5 47t24.5 34q88 0 133 23.5t65 92.5l272 952q8 27 8 63q0 53 -140 53q-7 0 -7 13.5t11 47t22 33.5q58 -6 286 -6t286 6q8 0 8 -12.5t-10 -47t-25 -34.5q-110 0 -148.5 -29.5t-54.5 -86.5z" />
<glyph unicode="&#xd0;" horiz-adv-x="1554" d="M1608 892q0 -153 -73.5 -313.5t-196.5 -290t-301.5 -213t-371.5 -83.5q-79 0 -191.5 4t-205 4t-283.5 -8q-9 0 -9 16q0 11 4 31q12 47 26 47q55 0 85.5 5t61 31.5t48.5 79.5l116 396q10 27 -15 27h-166q-14 0 -4.5 46.5t25.5 46.5h170q28 0 36 29l124 407q8 26 8 46 q0 29 -19 42q-31 22 -128 22q-16 0 -4.5 47t25.5 47q143 -6 257.5 -6t217.5 3t164 3q274 0 437 -122t163 -344zM1348 869q0 168 -106 288.5t-318 120.5q-80 0 -106.5 -3t-48.5 -21t-36 -64l-133 -443q-8 -29 19 -29h198q16 0 4.5 -46.5t-25.5 -46.5h-208q-28 0 -34 -23 l-103 -338q-12 -42 -12 -75q0 -39 17 -67q31 -51 159 -51q185 0 359 127t274 311t100 360z" />
<glyph unicode="&#xd1;" horiz-adv-x="1478" d="M1374 1726q-25 -59 -85.5 -116.5t-111.5 -57.5q-43 0 -155 25q-99 20 -119 20q-31 0 -67 -20.5t-56 -49.5q-6 -8 -16 -8q-8 0 -19 5q-20 9 -20 22q0 3 2 6q28 66 88.5 125t115.5 59q41 0 140 -24q73 -21 135 -21q69 0 108 60q6 8 17 8q9 0 21 -5q23 -9 23 -22q0 -3 -1 -6 zM1192 27q-16 -54 -58 -54t-57 29l-504 1006q-12 23 -22.5 23t-17.5 -24l-229 -805q-9 -32 -9 -56q0 -60 123 -60q8 0 8 -14.5t-10 -47t-23 -32.5q-76 8 -207 8t-207 -8q-7 0 -7 12.5t8.5 47t23.5 34.5q96 0 136.5 26t58.5 90l254 894q16 55 16 103t-46 62q-32 9 -85 9 q-6 0 -6 13.5t10.5 47t24.5 33.5q75 -5 165 -5t116 -14.5t42 -47.5l445 -902q15 -31 30 -31q17 0 27 35l221 755q8 26 8 45q0 71 -128 71q-7 0 -7 13.5t11 47t25 33.5q57 -6 204 -6t204 6q9 0 9 -12.5t-10 -47t-25 -34.5q-104 0 -137 -28t-45 -72z" />
<glyph unicode="&#xd2;" horiz-adv-x="1512" d="M1264 1601q34 -18 34 -41q0 -7 -4 -15q-10 -21 -32 -21q-14 0 -29 6l-536 204q-28 11 -28 53q0 20 11.5 44.5t33.5 41.5q14 11 26 11q7 0 14 -4zM1568 875q0 -343 -261 -622.5t-635 -279.5q-206 0 -350 133.5t-144 344.5q0 345 263 639.5t638 294.5q241 0 365 -149 t124 -361zM1331 874q0 176 -85 301.5t-204 125.5q-148 0 -284 -106.5t-236.5 -299.5t-100.5 -421q0 -188 85.5 -299.5t207.5 -111.5q178 0 312 116.5t219.5 308.5t85.5 386z" />
<glyph unicode="&#xd3;" horiz-adv-x="1512" d="M1464 1734l-534 -204q-16 -6 -28 -6q-16 0 -27 10.5t-11 25.5q0 22 35 41l508 279q8 4 17 4q21 0 46 -29.5t25 -68.5q0 -40 -31 -52zM1568 875q0 -343 -261 -622.5t-635 -279.5q-206 0 -350 133.5t-144 344.5q0 345 263 639.5t638 294.5q241 0 365 -149t124 -361z M1331 874q0 176 -85 301.5t-204 125.5q-148 0 -284 -106.5t-236.5 -299.5t-100.5 -421q0 -188 85.5 -299.5t207.5 -111.5q178 0 312 116.5t219.5 308.5t85.5 386z" />
<glyph unicode="&#xd4;" horiz-adv-x="1512" d="M1495 1579q4 -4 4 -10q0 -10 -11.5 -27t-20.5 -17q-2 0 -4 1l-271 133q-19 9 -39 9t-41 -9l-301 -133q-3 -1 -6 -1q-14 0 -25.5 15.5t-11.5 25.5q0 8 7 13l350 271q25 19 50.5 19t51.5 -24zM1568 875q0 -343 -261 -622.5t-635 -279.5q-206 0 -350 133.5t-144 344.5 q0 345 263 639.5t638 294.5q241 0 365 -149t124 -361zM1331 874q0 176 -85 301.5t-204 125.5q-148 0 -284 -106.5t-236.5 -299.5t-100.5 -421q0 -188 85.5 -299.5t207.5 -111.5q178 0 312 116.5t219.5 308.5t85.5 386z" />
<glyph unicode="&#xd5;" horiz-adv-x="1512" d="M1379 1669q-27 -71 -87 -129q-46 -45 -83 -45q-40 0 -135 25q-89 19 -103 20q-40 0 -82 -39q-15 -15 -24 -31q-3 -6 -11 -6l-14 2q-20 8 -21 23l1 6q31 82 91 140q45 44 85 44q34 0 121 -24q63 -21 117 -21q53 0 89 53q3 3 5 7q4 7 15 7l16 -3q20 -9 21 -23zM1568 875 q0 -343 -261 -622.5t-635 -279.5q-206 0 -350 133.5t-144 344.5q0 345 263 639.5t638 294.5q241 0 365 -149t124 -361zM1331 874q0 176 -85 301.5t-204 125.5q-148 0 -284 -106.5t-236.5 -299.5t-100.5 -421q0 -188 85.5 -299.5t207.5 -111.5q178 0 312 116.5t219.5 308.5 t85.5 386z" />
<glyph unicode="&#xd6;" horiz-adv-x="1512" d="M932 1520q-51 0 -82 30t-31 79q0 59 40 101t102 42q49 0 80.5 -30.5t31.5 -79.5q0 -60 -41 -101t-100 -41zM1331 1520q-51 0 -81.5 30t-30.5 79q0 59 40 101t101 42q49 0 81 -30.5t32 -79.5q0 -60 -41 -101t-101 -41zM1568 875q0 -343 -261 -622.5t-635 -279.5 q-206 0 -350 133.5t-144 344.5q0 345 263 639.5t638 294.5q241 0 365 -149t124 -361zM1331 874q0 176 -85 301.5t-204 125.5q-148 0 -284 -106.5t-236.5 -299.5t-100.5 -421q0 -188 85.5 -299.5t207.5 -111.5q178 0 312 116.5t219.5 308.5t85.5 386z" />
<glyph unicode="&#xd7;" horiz-adv-x="833" d="M825 98l-137 -137l-244 242l-241 -242l-137 137l241 244l-241 242l137 137l241 -242l244 242l137 -137l-243 -242z" />
<glyph unicode="&#xd8;" horiz-adv-x="1512" d="M1568 875q0 -155 -68 -327t-215 -317q-265 -260 -613 -260q-145 0 -273 77l-118 -138q-2 -3 -6 -3q-13 0 -44 28q-40 36 -30 48l110 130q-133 130 -133 338q0 399 330 703q149 137 287.5 184t283.5 47q161 0 266 -65l87 103q4 4 10 4q16 0 44 -25q40 -36 27 -52l-84 -99 q3 -4 11 -13l10 -10q118 -141 118 -353zM1236 1192q-80 107 -182 107q-3 2 -14 2q-8 0 -21 -1q-30 -3 -62.5 -7t-86 -29.5t-108.5 -67.5q-115 -86 -196 -221t-113.5 -261t-32.5 -240q0 -111 33 -197zM1331 875q0 114 -40 216l-785 -917q84 -111 201 -111q128 0 235.5 62 t177.5 155.5t119.5 207.5t70.5 212t21 175z" />
<glyph unicode="&#xd9;" horiz-adv-x="1487" d="M1280 1601q34 -18 34 -41q0 -7 -4 -15q-10 -21 -32 -21q-14 0 -29 6l-536 204q-28 11 -28 53q0 20 11.5 44.5t33.5 41.5q14 11 26 11q7 0 14 -4zM1469 871q-141 -465 -211 -587t-211.5 -216.5t-383.5 -94.5q-222 0 -322 77.5t-100 211.5q0 130 49 292l182 602 q10 32 10 56q0 27 -30 42.5t-106 15.5q-8 0 -8 14t9.5 47t23.5 33q57 -6 275.5 -6t276.5 6q7 0 7 -13.5t-9.5 -47t-22.5 -33.5q-115 0 -143.5 -27t-47.5 -89l-144 -476q-93 -308 -93 -417t80 -153.5t168 -44.5q176 0 299.5 95t199.5 348l194 648q8 26 8 43q0 73 -145 73 q-6 0 -6 13t10 47t23 34q57 -6 233.5 -6t234.5 6q8 0 8 -12.5t-10 -47t-23 -34.5q-106 0 -140 -32.5t-49 -83.5z" />
<glyph unicode="&#xda;" horiz-adv-x="1487" d="M1531 1734l-534 -204q-16 -6 -28 -6q-16 0 -27 10.5t-11 25.5q0 22 35 41l508 279q8 4 17 4q21 0 46 -29.5t25 -68.5q0 -40 -31 -52zM1469 871q-141 -465 -211 -587t-211.5 -216.5t-383.5 -94.5q-222 0 -322 77.5t-100 211.5q0 130 49 292l182 602q10 32 10 56 q0 27 -30 42.5t-106 15.5q-8 0 -8 14t9.5 47t23.5 33q57 -6 275.5 -6t276.5 6q7 0 7 -13.5t-9.5 -47t-22.5 -33.5q-115 0 -143.5 -27t-47.5 -89l-144 -476q-93 -308 -93 -417t80 -153.5t168 -44.5q176 0 299.5 95t199.5 348l194 648q8 26 8 43q0 73 -145 73q-6 0 -6 13 t10 47t23 34q57 -6 233.5 -6t234.5 6q8 0 8 -12.5t-10 -47t-23 -34.5q-106 0 -140 -32.5t-49 -83.5z" />
<glyph unicode="&#xdb;" horiz-adv-x="1487" d="M1509 1579q4 -4 4 -10q0 -10 -11.5 -27t-20.5 -17q-2 0 -4 1l-271 133q-19 9 -39 9t-41 -9l-301 -133q-3 -1 -6 -1q-14 0 -25.5 15.5t-11.5 25.5q0 8 7 13l350 271q25 19 50.5 19t51.5 -24zM1469 871q-141 -465 -211 -587t-211.5 -216.5t-383.5 -94.5q-222 0 -322 77.5 t-100 211.5q0 130 49 292l182 602q10 32 10 56q0 27 -30 42.5t-106 15.5q-8 0 -8 14t9.5 47t23.5 33q57 -6 275.5 -6t276.5 6q7 0 7 -13.5t-9.5 -47t-22.5 -33.5q-115 0 -143.5 -27t-47.5 -89l-144 -476q-93 -308 -93 -417t80 -153.5t168 -44.5q176 0 299.5 95t199.5 348 l194 648q8 26 8 43q0 73 -145 73q-6 0 -6 13t10 47t23 34q57 -6 233.5 -6t234.5 6q8 0 8 -12.5t-10 -47t-23 -34.5q-106 0 -140 -32.5t-49 -83.5z" />
<glyph unicode="&#xdc;" horiz-adv-x="1487" d="M953 1520q-51 0 -82 30t-31 79q0 59 40 101t102 42q49 0 80.5 -30.5t31.5 -79.5q0 -60 -41 -101t-100 -41zM1352 1520q-51 0 -81.5 30t-30.5 79q0 59 40 101t101 42q49 0 81 -30.5t32 -79.5q0 -60 -41 -101t-101 -41zM1469 871q-141 -465 -211 -587t-211.5 -216.5 t-383.5 -94.5q-222 0 -322 77.5t-100 211.5q0 130 49 292l182 602q10 32 10 56q0 27 -30 42.5t-106 15.5q-8 0 -8 14t9.5 47t23.5 33q57 -6 275.5 -6t276.5 6q7 0 7 -13.5t-9.5 -47t-22.5 -33.5q-115 0 -143.5 -27t-47.5 -89l-144 -476q-93 -308 -93 -417t80 -153.5 t168 -44.5q176 0 299.5 95t199.5 348l194 648q8 26 8 43q0 73 -145 73q-6 0 -6 13t10 47t23 34q57 -6 233.5 -6t234.5 6q8 0 8 -12.5t-10 -47t-23 -34.5q-106 0 -140 -32.5t-49 -83.5z" />
<glyph unicode="&#xdd;" horiz-adv-x="1268" d="M1394 1734l-534 -204q-16 -6 -28 -6q-16 0 -27 10.5t-11 25.5q0 22 35 41l508 279q8 4 17 4q21 0 46 -29.5t25 -68.5q0 -40 -31 -52zM435 218l77 256q24 84 24 115t-20 89l-151 460q-27 81 -57.5 106.5t-101.5 25.5q-8 0 -8 13.5t8 47t21 33.5q58 -6 253.5 -6t252.5 6 q16 0 4.5 -47t-25.5 -47q-121 0 -121 -56q0 -24 11 -57l131 -403q8 -23 22 -23t32 20l386 406q47 52 47 78q0 35 -93 35q-15 0 -2 47t27 47q57 -6 212.5 -6t213.5 6q8 0 8 -13.5t-8 -47t-23 -33.5q-103 0 -157.5 -34.5t-199.5 -190.5l-379 -403q-38 -40 -65 -134l-89 -307 q-8 -27 -8 -51q0 -64 126 -64q15 0 2 -47t-27 -47q-76 8 -263 8t-264 -8q-13 0 -1.5 47t26.5 47q84 0 119.5 24t59.5 108z" />
<glyph unicode="&#xde;" horiz-adv-x="1249" d="M59 -201l384 1290q10 32 10 60q0 75 -138 75q-13 0 0.5 47t26.5 47q145 0 305 51q48 15 76 15q37 0 37 -33q0 -23 -20 -74t-47 -142q99 49 203 122t185 73q54 0 90 -35q107 -107 107 -321q0 -182 -97 -393t-349 -401t-450 -203q-36 -2 -48 -42l-57 -195 q-17 -55 -131 -132.5t-222 -127.5q-3 -1 -7 -1q-19 0 -42.5 36.5t-23.5 50.5t8 20q91 57 135 101t65 112zM390 120q-5 -18 -5 -29q0 -17 25 -17q8 0 18 2q159 41 310 176t226 310t75 340q0 160 -86 261q-15 17 -29 17q-16 0 -24 -5q-91 -63 -206 -130q-37 -20 -50 -65z" />
<glyph unicode="&#xdf;" horiz-adv-x="983" d="M1214 1280q0 -39 -16 -72.5t-52 -63.5t-69 -51.5t-87 -53t-87 -54.5q-215 -145 -215 -291q0 -41 18.5 -73.5t94.5 -137.5q57 -75 81.5 -124.5t24.5 -108.5q0 -115 -102 -201q-88 -76 -225 -76q-72 0 -123 44t-51 92q0 36 21.5 71t70.5 35q28 0 52.5 -11t36 -21.5 t36.5 -37.5q10 -12 19 -21t18.5 -15.5t24.5 -9.5t38 -3q49 0 49 64q0 22 -19.5 51t-58.5 72t-53 63q-100 133 -100 232q0 86 19.5 152.5t65.5 122.5t88 92t117 93q162 117 162 219q0 50 -26.5 87.5t-83.5 37.5q-76 0 -138.5 -47t-138.5 -135q-82 -96 -127 -228t-90 -356 l-143 -712q-21 -105 -64 -209.5t-76 -134.5q-118 -111 -251 -111q-88 0 -139.5 41t-51.5 86t28.5 75t63.5 30q60 0 86 -56q35 -71 66 -71q26 0 45.5 18t30 47t18.5 63.5t14 67.5l179 881q75 375 241 577q211 256 529 256q108 0 178.5 -48t70.5 -136z" />
<glyph unicode="&#xe0;" horiz-adv-x="966" d="M353 1218q-13 12 -13 27q0 20 24 45q40 43 85 43q24 0 37 -19l209 -313q15 -23 15 -40q0 -6 -2 -11q-9 -21 -32 -21t-42 18zM752 180q-3 -10 -3 -19q1 -20 23 -20q36 0 102 66q12 12 40 -12q20 -17 20 -28q0 -5 -4 -9q-92 -90 -167.5 -137.5t-131.5 -47.5q-79 0 -79 89 q0 61 40 146l4 7l-12 6q-224 -248 -361 -248q-73 0 -116.5 54t-43.5 139q0 209 186 443.5t392 234.5q62 0 107 -31l20 49q9 22 93 22q91 0 91 -35q0 -7 -3 -18zM666 553l49 160q-32 47 -101 47q-128 0 -228.5 -215.5t-100.5 -317.5q0 -117 47 -117q52 0 126.5 81.5 t127.5 177.5t80 184z" />
<glyph unicode="&#xe1;" horiz-adv-x="966" d="M911 1218l-281 -271q-19 -18 -42 -18t-32 21q-2 5 -2 11q0 17 15 40l209 313q13 19 37 19q45 0 85 -43q24 -25 24 -45q0 -15 -13 -27zM752 180q-3 -10 -3 -19q1 -20 23 -20q36 0 102 66q12 12 40 -12q20 -17 20 -28q0 -5 -4 -9q-92 -90 -167.5 -137.5t-131.5 -47.5 q-79 0 -79 89q0 61 40 146l4 7l-12 6q-224 -248 -361 -248q-73 0 -116.5 54t-43.5 139q0 209 186 443.5t392 234.5q62 0 107 -31l20 49q9 22 93 22q91 0 91 -35q0 -7 -3 -18zM666 553l49 160q-32 47 -101 47q-128 0 -228.5 -215.5t-100.5 -317.5q0 -117 47 -117 q52 0 126.5 81.5t127.5 177.5t80 184z" />
<glyph unicode="&#xe2;" horiz-adv-x="966" d="M987 999v-12q-6 -20 -31 -31l-15 -3l-10 4q-1 1 -2 3l-129 197q-29 44 -44 44q-11 0 -40 -30l-18 -18l-201 -197q-4 -4 -12 -5l-15 4q-24 11 -29 30l1 11q1 2 2 3l307 407q23 30 58 30q31 0 40 -30zM752 180q-3 -10 -3 -19q1 -20 23 -20q36 0 102 66q12 12 40 -12 q20 -17 20 -28q0 -5 -4 -9q-92 -90 -167.5 -137.5t-131.5 -47.5q-79 0 -79 89q0 61 40 146l4 7l-12 6q-224 -248 -361 -248q-73 0 -116.5 54t-43.5 139q0 209 186 443.5t392 234.5q62 0 107 -31l20 49q9 22 93 22q91 0 91 -35q0 -7 -3 -18zM666 553l49 160q-32 47 -101 47 q-128 0 -228.5 -215.5t-100.5 -317.5q0 -117 47 -117q52 0 126.5 81.5t127.5 177.5t80 184z" />
<glyph unicode="&#xe3;" horiz-adv-x="966" d="M1031 1144q-27 -71 -87 -129q-46 -45 -83 -45q-40 0 -135 25q-89 19 -103 20q-40 0 -82 -39q-15 -15 -24 -31q-3 -6 -11 -6l-14 2q-20 8 -21 23l1 6q31 82 91 140q45 44 85 44q34 0 121 -24q63 -21 117 -21q53 0 89 53q3 3 5 7q4 7 15 7l16 -3q20 -9 21 -23zM752 180 q-3 -10 -3 -19q1 -20 23 -20q36 0 102 66q12 12 40 -12q20 -17 20 -28q0 -5 -4 -9q-92 -90 -167.5 -137.5t-131.5 -47.5q-79 0 -79 89q0 61 40 146l4 7l-12 6q-224 -248 -361 -248q-73 0 -116.5 54t-43.5 139q0 209 186 443.5t392 234.5q62 0 107 -31l20 49q9 22 93 22 q91 0 91 -35q0 -7 -3 -18zM666 553l49 160q-32 47 -101 47q-128 0 -228.5 -215.5t-100.5 -317.5q0 -117 47 -117q52 0 126.5 81.5t127.5 177.5t80 184z" />
<glyph unicode="&#xe4;" horiz-adv-x="966" d="M486 1010q-51 0 -82 30t-31 79q0 59 40 101t102 42q49 0 80.5 -30.5t31.5 -79.5q0 -60 -41 -101t-100 -41zM885 1010q-51 0 -81.5 30t-30.5 79q0 59 40 101t101 42q49 0 81 -30.5t32 -79.5q0 -60 -41 -101t-101 -41zM752 180q-3 -10 -3 -19q1 -20 23 -20q36 0 102 66 q12 12 40 -12q20 -17 20 -28q0 -5 -4 -9q-92 -90 -167.5 -137.5t-131.5 -47.5q-79 0 -79 89q0 61 40 146l4 7l-12 6q-224 -248 -361 -248q-73 0 -116.5 54t-43.5 139q0 209 186 443.5t392 234.5q62 0 107 -31l20 49q9 22 93 22q91 0 91 -35q0 -7 -3 -18zM666 553l49 160 q-32 47 -101 47q-128 0 -228.5 -215.5t-100.5 -317.5q0 -117 47 -117q52 0 126.5 81.5t127.5 177.5t80 184z" />
<glyph unicode="&#xe5;" horiz-adv-x="966" d="M972 1186q0 -97 -73 -163q-69 -62 -172 -62q-126 0 -197 88q-49 60 -49 137q0 96 73 161q69 62 173 62q126 0 197 -87q48 -60 48 -136zM835 1184q0 85 -53 124q-24 17 -55 19q-69 -4 -97 -74q-12 -31 -12 -69q0 -83 50 -121q25 -20 59 -20q66 0 94 68q14 33 14 73z M752 180q-3 -10 -3 -19q1 -20 23 -20q36 0 102 66q12 12 40 -12q20 -17 20 -28q0 -5 -4 -9q-92 -90 -167.5 -137.5t-131.5 -47.5q-79 0 -79 89q0 61 40 146l4 7l-12 6q-224 -248 -361 -248q-73 0 -116.5 54t-43.5 139q0 209 186 443.5t392 234.5q62 0 107 -31l20 49 q9 22 93 22q91 0 91 -35q0 -7 -3 -18zM666 553l49 160q-32 47 -101 47q-128 0 -228.5 -215.5t-100.5 -317.5q0 -117 47 -117q52 0 126.5 81.5t127.5 177.5t80 184z" />
<glyph unicode="&#xe6;" horiz-adv-x="1083" d="M37 162q0 166 152.5 330.5t363.5 262t387 97.5q170 0 170 -141q0 -76 -56.5 -141.5t-147.5 -108.5t-154.5 -65.5t-126.5 -39.5q-11 -71 -11 -104q0 -68 30 -108t79 -40q45 0 100 37t90 74q12 11 36 -10t16 -33q-160 -199 -316 -199q-71 0 -110 25t-68 76 q-133 -101 -274 -101q-74 0 -117 54.5t-43 134.5zM641 438q90 27 177 94.5t87 155.5q0 12 -3 25.5t-16.5 29t-33.5 15.5q-57 0 -120.5 -101.5t-90.5 -218.5zM258 195q0 -35 15.5 -63t43.5 -28q41 0 103 39q-10 56 -10 88q0 109 78.5 247t181.5 229l-8 8 q-168 -84 -286 -236.5t-118 -283.5z" />
<glyph unicode="&#xe7;" horiz-adv-x="743" d="M430 -334q0 -82 -77.5 -136t-182.5 -54q-158 0 -158 90q0 29 18.5 48.5t47.5 19.5q31 0 75 -38t64 -38q19 0 36 14.5t17 36.5q0 94 -127 148l-6 16l148 217h108l-78 -106q-12 -17 -9 -24t26 -24q98 -73 98 -170zM629 113q-117 -140 -295 -140q-107 0 -174.5 80t-67.5 211 q0 203 157 395.5t339 192.5q80 0 136 -33t56 -82q0 -37 -32.5 -65.5t-69.5 -28.5q-43 0 -60 31q-5 48 -27 72t-54 24q-97 0 -166.5 -145.5t-69.5 -294.5q0 -99 32 -169.5t95 -70.5q53 0 95 25.5t59 42.5q8 8 22.5 -0.5t23.5 -22t1 -22.5z" />
<glyph unicode="&#xe8;" horiz-adv-x="751" d="M338 1218q-13 12 -13 27q0 20 24 45q40 43 85 43q24 0 37 -19l209 -313q15 -23 15 -40q0 -6 -2 -11q-9 -21 -32 -21t-42 18zM778 713q0 -120 -142 -215.5t-337 -141.5q-16 -75 -16 -104q0 -148 92 -148q49 0 111.5 39t88.5 64q9 5 22.5 -2.5t23 -20t4.5 -20.5 q-146 -191 -308 -191q-239 0 -239 258q0 192 175 406.5t357 214.5q168 0 168 -139zM575 688q0 66 -44 66q-52 0 -107.5 -87.5t-97.5 -217.5q88 28 168.5 94.5t80.5 144.5z" />
<glyph unicode="&#xe9;" horiz-adv-x="751" d="M879 1218l-281 -271q-19 -18 -42 -18t-32 21q-2 5 -2 11q0 17 15 40l209 313q13 19 37 19q45 0 85 -43q24 -25 24 -45q0 -15 -13 -27zM778 713q0 -120 -142 -215.5t-337 -141.5q-16 -75 -16 -104q0 -148 92 -148q49 0 111.5 39t88.5 64q9 5 22.5 -2.5t23 -20t4.5 -20.5 q-146 -191 -308 -191q-239 0 -239 258q0 192 175 406.5t357 214.5q168 0 168 -139zM575 688q0 66 -44 66q-52 0 -107.5 -87.5t-97.5 -217.5q88 28 168.5 94.5t80.5 144.5z" />
<glyph unicode="&#xea;" horiz-adv-x="751" d="M882 999v-12q-6 -20 -31 -31l-15 -3l-10 4q-1 1 -2 3l-129 197q-29 44 -44 44q-11 0 -40 -30l-18 -18l-201 -197q-4 -4 -12 -5l-15 4q-24 11 -29 30l1 11q1 2 2 3l307 407q23 30 58 30q31 0 40 -30zM778 713q0 -120 -142 -215.5t-337 -141.5q-16 -75 -16 -104 q0 -148 92 -148q49 0 111.5 39t88.5 64q9 5 22.5 -2.5t23 -20t4.5 -20.5q-146 -191 -308 -191q-239 0 -239 258q0 192 175 406.5t357 214.5q168 0 168 -139zM575 688q0 66 -44 66q-52 0 -107.5 -87.5t-97.5 -217.5q88 28 168.5 94.5t80.5 144.5z" />
<glyph unicode="&#xeb;" horiz-adv-x="751" d="M430 1010q-51 0 -82 30t-31 79q0 59 40 101t102 42q49 0 80.5 -30.5t31.5 -79.5q0 -60 -41 -101t-100 -41zM829 1010q-51 0 -81.5 30t-30.5 79q0 59 40 101t101 42q49 0 81 -30.5t32 -79.5q0 -60 -41 -101t-101 -41zM778 713q0 -120 -142 -215.5t-337 -141.5 q-16 -75 -16 -104q0 -148 92 -148q49 0 111.5 39t88.5 64q9 5 22.5 -2.5t23 -20t4.5 -20.5q-146 -191 -308 -191q-239 0 -239 258q0 192 175 406.5t357 214.5q168 0 168 -139zM575 688q0 66 -44 66q-52 0 -107.5 -87.5t-97.5 -217.5q88 28 168.5 94.5t80.5 144.5z" />
<glyph unicode="&#xec;" horiz-adv-x="534" d="M147 1218q-13 12 -13 27q0 20 24 45q40 43 85 43q24 0 37 -19l209 -313q15 -23 15 -40q0 -6 -2 -11q-9 -21 -32 -21t-42 18zM328 159q2 -16 23 -17h1q21 0 75 62q17 20 31 20t27.5 -18t14.5 -26l-2 -6q-173 -201 -289 -201q-65 0 -84 74q-7 24 -7 51q0 33 11 70l147 479 l3 20q-1 21 -21.5 21t-93.5 -82q-3 -3 -15 -3t-26 19t-14 25t2 8q168 197 288 197q64 0 84 -72q5 -18 6 -40l-2 -43q-3 -18 -8 -35l-147 -482z" />
<glyph unicode="&#xed;" horiz-adv-x="534" d="M699 1218l-281 -271q-19 -18 -42 -18t-32 21q-2 5 -2 11q0 17 15 40l209 313q13 19 37 19q45 0 85 -43q24 -25 24 -45q0 -15 -13 -27zM328 159q2 -16 23 -17h1q21 0 75 62q17 20 31 20t27.5 -18t14.5 -26l-2 -6q-173 -201 -289 -201q-65 0 -84 74q-7 24 -7 51q0 33 11 70 l147 479l3 20q-1 21 -21.5 21t-93.5 -82q-3 -3 -15 -3t-26 19t-14 25t2 8q168 197 288 197q64 0 84 -72q5 -18 6 -40l-2 -43q-3 -18 -8 -35l-147 -482z" />
<glyph unicode="&#xee;" horiz-adv-x="534" d="M656 999v-12q-6 -20 -31 -31l-15 -3l-10 4q-1 1 -2 3l-129 197q-29 44 -44 44q-11 0 -40 -30l-18 -18l-201 -197q-4 -4 -12 -5l-15 4q-24 11 -29 30l1 11q1 2 2 3l307 407q23 30 58 30q31 0 40 -30zM328 159q2 -16 23 -17h1q21 0 75 62q17 20 31 20t27.5 -18t14.5 -26 l-2 -6q-173 -201 -289 -201q-65 0 -84 74q-7 24 -7 51q0 33 11 70l147 479l3 20q-1 21 -21.5 21t-93.5 -82q-3 -3 -15 -3t-26 19t-14 25t2 8q168 197 288 197q64 0 84 -72q5 -18 6 -40l-2 -43q-3 -18 -8 -35l-147 -482z" />
<glyph unicode="&#xef;" horiz-adv-x="534" d="M207 1010q-51 0 -82 30t-31 79q0 59 40 101t102 42q49 0 80.5 -30.5t31.5 -79.5q0 -60 -41 -101t-100 -41zM606 1010q-51 0 -81.5 30t-30.5 79q0 59 40 101t101 42q49 0 81 -30.5t32 -79.5q0 -60 -41 -101t-101 -41zM328 159q2 -16 23 -17h1q21 0 75 62q17 20 31 20 t27.5 -18t14.5 -26l-2 -6q-173 -201 -289 -201q-65 0 -84 74q-7 24 -7 51q0 33 11 70l147 479l3 20q-1 21 -21.5 21t-93.5 -82q-3 -3 -15 -3t-26 19t-14 25t2 8q168 197 288 197q64 0 84 -72q5 -18 6 -40l-2 -43q-3 -18 -8 -35l-147 -482z" />
<glyph unicode="&#xf0;" horiz-adv-x="911" d="M690 641q0 59 -31.5 84t-70.5 25q-66 0 -137.5 -88.5t-117.5 -217.5t-46 -243q0 -58 36.5 -92.5t77.5 -34.5q64 0 132.5 95t112.5 228t44 244zM920 1208q-7 0 -44.5 12.5t-60.5 12.5q-18 0 -33 -8l-172 -111q281 -196 281 -467q0 -305 -142.5 -489.5t-377.5 -184.5 q-277 0 -277 349q0 221 159 375.5t339 154.5q8 0 26.5 -1t24.5 -1q-57 98 -154 184l-280 -180q-3 -2 -6 -2q-18 0 -39 70q-17 57 -17 74q0 8 3 8q2 0 31.5 -17.5t54.5 -17.5q18 0 40 12l156 100q-102 78 -276 154q-17 8 -0.5 45t37.5 31q186 -54 352 -156l297 195q2 1 4 1 q17 0 50 -67q28 -55 28 -70q0 -6 -4 -6z" />
<glyph unicode="&#xf1;" horiz-adv-x="1024" d="M970 1144q-27 -71 -87 -129q-46 -45 -83 -45q-40 0 -135 25q-89 19 -103 20q-40 0 -82 -39q-15 -15 -24 -31q-3 -6 -11 -6l-14 2q-20 8 -21 23l1 6q31 82 91 140q45 44 85 44q34 0 121 -24q63 -21 117 -21q53 0 89 53q3 3 5 7q4 7 15 7l16 -3q20 -9 21 -23zM831 232 q-20 -65 -20 -71q0 -20 23 -20t98 84q3 4 8 4q10 0 30 -17.5t20 -28.5q0 -4 -3 -7q-162 -203 -297 -203q-90 0 -90 128q0 33 10 67l125 412q31 102 31 131q0 32 -18 32q-99 0 -249.5 -264.5t-226.5 -482.5q-8 -23 -107 -23q-92 0 -92 21q0 2 1 4l194 623q11 35 11 45 q0 22 -23 22t-92 -82q-4 -4 -9 -4q-11 0 -29 17.5t-18 28.5q0 4 3 7q171 197 282 197q88 0 88 -104q0 -37 -16 -82l-57 -162l12 -4q201 352 391 352q143 0 143 -141q0 -71 -28 -164z" />
<glyph unicode="&#xf2;" horiz-adv-x="948" d="M395 1218q-13 12 -13 27q0 20 24 45q40 43 85 43q24 0 37 -19l209 -313q15 -23 15 -40q0 -6 -2 -11q-9 -21 -32 -21t-42 18zM909 528q0 -209 -148.5 -382t-369.5 -173q-139 0 -208.5 97.5t-69.5 244.5q0 191 162.5 364t355.5 173q139 0 208.5 -90t69.5 -234zM731 629 q0 119 -90 119q-105 0 -225.5 -201t-120.5 -344q0 -117 96 -117q95 0 217.5 201t122.5 342z" />
<glyph unicode="&#xf3;" horiz-adv-x="948" d="M967 1218l-281 -271q-19 -18 -42 -18t-32 21q-2 5 -2 11q0 17 15 40l209 313q13 19 37 19q45 0 85 -43q24 -25 24 -45q0 -15 -13 -27zM909 528q0 -209 -148.5 -382t-369.5 -173q-139 0 -208.5 97.5t-69.5 244.5q0 191 162.5 364t355.5 173q139 0 208.5 -90t69.5 -234z M731 629q0 119 -90 119q-105 0 -225.5 -201t-120.5 -344q0 -117 96 -117q95 0 217.5 201t122.5 342z" />
<glyph unicode="&#xf4;" horiz-adv-x="948" d="M963 999v-12q-6 -20 -31 -31l-15 -3l-10 4q-1 1 -2 3l-129 197q-29 44 -44 44q-11 0 -40 -30l-18 -18l-201 -197q-4 -4 -12 -5l-15 4q-24 11 -29 30l1 11q1 2 2 3l307 407q23 30 58 30q31 0 40 -30zM909 528q0 -209 -148.5 -382t-369.5 -173q-139 0 -208.5 97.5 t-69.5 244.5q0 191 162.5 364t355.5 173q139 0 208.5 -90t69.5 -234zM731 629q0 119 -90 119q-105 0 -225.5 -201t-120.5 -344q0 -117 96 -117q95 0 217.5 201t122.5 342z" />
<glyph unicode="&#xf5;" horiz-adv-x="948" d="M995 1144q-27 -71 -87 -129q-46 -45 -83 -45q-40 0 -135 25q-89 19 -103 20q-40 0 -82 -39q-15 -15 -24 -31q-3 -6 -11 -6l-14 2q-20 8 -21 23l1 6q31 82 91 140q45 44 85 44q34 0 121 -24q63 -21 117 -21q53 0 89 53q3 3 5 7q4 7 15 7l16 -3q20 -9 21 -23zM909 528 q0 -209 -148.5 -382t-369.5 -173q-139 0 -208.5 97.5t-69.5 244.5q0 191 162.5 364t355.5 173q139 0 208.5 -90t69.5 -234zM731 629q0 119 -90 119q-105 0 -225.5 -201t-120.5 -344q0 -117 96 -117q95 0 217.5 201t122.5 342z" />
<glyph unicode="&#xf6;" horiz-adv-x="948" d="M491 1010q-51 0 -82 30t-31 79q0 59 40 101t102 42q49 0 80.5 -30.5t31.5 -79.5q0 -60 -41 -101t-100 -41zM890 1010q-51 0 -81.5 30t-30.5 79q0 59 40 101t101 42q49 0 81 -30.5t32 -79.5q0 -60 -41 -101t-101 -41zM909 528q0 -209 -148.5 -382t-369.5 -173 q-139 0 -208.5 97.5t-69.5 244.5q0 191 162.5 364t355.5 173q139 0 208.5 -90t69.5 -234zM731 629q0 119 -90 119q-105 0 -225.5 -201t-120.5 -344q0 -117 96 -117q95 0 217.5 201t122.5 342z" />
<glyph unicode="&#xf7;" horiz-adv-x="1097" d="M706 786q0 -72 -61 -105l-28 -12q-19 -5 -39 -5q-66 0 -107 43q-33 35 -33 92q0 49 37 86t103 37q64 0 102 -52q26 -36 26 -84zM1018 383h-889v158h889v-158zM706 125q0 -73 -61 -106l-28 -12q-19 -5 -39 -5q-65 0 -106 42q-34 35 -34 93q0 49 37 86t103 37q64 0 102 -51 q26 -36 26 -84z" />
<glyph unicode="&#xf8;" horiz-adv-x="948" d="M909 528q0 -159 -92 -307q-103 -166 -272 -223q-73 -25 -154 -25q-74 0 -135 33l-80 -110q-3 -4 -10 -4q-21 0 -42 23q-8 9 -9 16l2 6l82 114q-86 92 -86 264q0 151 110 301q105 141 250 202q80 34 158 34q72 0 131 -27l59 82q3 4 8 4l16 -4q27 -12 36 -31l1 -8l-1 -2 l-60 -84q88 -84 88 -254zM696 735q-23 13 -55 13q-84 0 -187 -144q-94 -132 -139 -284q-20 -69 -20 -117v-21zM731 618q0 29 -2 39l-399 -551q23 -20 61 -20q77 0 179 142q95 133 140 279q21 67 21 111z" />
<glyph unicode="&#xf9;" horiz-adv-x="1019" d="M379 1218q-13 12 -13 27q0 20 24 45q40 43 85 43q24 0 37 -19l209 -313q15 -23 15 -40q0 -6 -2 -11q-9 -21 -32 -21t-42 18zM823 231q-20 -65 -20 -69q0 -21 26.5 -21t100.5 84q3 3 8 3q10 0 28 -16q19 -19 19 -30q0 -3 -2 -6q-165 -203 -285 -203q-106 0 -106 121 q0 35 12 76l45 152q-100 -138 -217 -243.5t-188 -105.5q-125 0 -125 123q0 49 20 113l127 407q15 48 15 54q0 18 -18.5 18t-44.5 -23q-26 -24 -56 -61q-4 -5 -9 -5q-10 0 -28 16q-19 17 -19 28q0 4 3 8q155 201 290 201q90 0 90 -125q0 -37 -16 -88l-96 -307 q-37 -118 -37 -158q0 -41 22 -41q51 0 153.5 136.5t154.5 231.5q92 169 139 329q6 22 94 22q102 0 102 -29q0 -3 -1 -6z" />
<glyph unicode="&#xfa;" horiz-adv-x="1019" d="M942 1218l-281 -271q-19 -18 -42 -18t-32 21q-2 5 -2 11q0 17 15 40l209 313q13 19 37 19q45 0 85 -43q24 -25 24 -45q0 -15 -13 -27zM823 231q-20 -65 -20 -69q0 -21 26.5 -21t100.5 84q3 3 8 3q10 0 28 -16q19 -19 19 -30q0 -3 -2 -6q-165 -203 -285 -203 q-106 0 -106 121q0 35 12 76l45 152q-100 -138 -217 -243.5t-188 -105.5q-125 0 -125 123q0 49 20 113l127 407q15 48 15 54q0 18 -18.5 18t-44.5 -23q-26 -24 -56 -61q-4 -5 -9 -5q-10 0 -28 16q-19 17 -19 28q0 4 3 8q155 201 290 201q90 0 90 -125q0 -37 -16 -88 l-96 -307q-37 -118 -37 -158q0 -41 22 -41q51 0 153.5 136.5t154.5 231.5q92 169 139 329q6 22 94 22q102 0 102 -29q0 -3 -1 -6z" />
<glyph unicode="&#xfb;" horiz-adv-x="1019" d="M955 999v-12q-6 -20 -31 -31l-15 -3l-10 4q-1 1 -2 3l-129 197q-29 44 -44 44q-11 0 -40 -30l-18 -18l-201 -197q-4 -4 -12 -5l-15 4q-24 11 -29 30l1 11q1 2 2 3l307 407q23 30 58 30q31 0 40 -30zM823 231q-20 -65 -20 -69q0 -21 26.5 -21t100.5 84q3 3 8 3 q10 0 28 -16q19 -19 19 -30q0 -3 -2 -6q-165 -203 -285 -203q-106 0 -106 121q0 35 12 76l45 152q-100 -138 -217 -243.5t-188 -105.5q-125 0 -125 123q0 49 20 113l127 407q15 48 15 54q0 18 -18.5 18t-44.5 -23q-26 -24 -56 -61q-4 -5 -9 -5q-10 0 -28 16q-19 17 -19 28 q0 4 3 8q155 201 290 201q90 0 90 -125q0 -37 -16 -88l-96 -307q-37 -118 -37 -158q0 -41 22 -41q51 0 153.5 136.5t154.5 231.5q92 169 139 329q6 22 94 22q102 0 102 -29q0 -3 -1 -6z" />
<glyph unicode="&#xfc;" horiz-adv-x="1019" d="M511 1010q-51 0 -82 30t-31 79q0 59 40 101t102 42q49 0 80.5 -30.5t31.5 -79.5q0 -60 -41 -101t-100 -41zM910 1010q-51 0 -81.5 30t-30.5 79q0 59 40 101t101 42q49 0 81 -30.5t32 -79.5q0 -60 -41 -101t-101 -41zM823 231q-20 -65 -20 -69q0 -21 26.5 -21t100.5 84 q3 3 8 3q10 0 28 -16q19 -19 19 -30q0 -3 -2 -6q-165 -203 -285 -203q-106 0 -106 121q0 35 12 76l45 152q-100 -138 -217 -243.5t-188 -105.5q-125 0 -125 123q0 49 20 113l127 407q15 48 15 54q0 18 -18.5 18t-44.5 -23q-26 -24 -56 -61q-4 -5 -9 -5q-10 0 -28 16 q-19 17 -19 28q0 4 3 8q155 201 290 201q90 0 90 -125q0 -37 -16 -88l-96 -307q-37 -118 -37 -158q0 -41 22 -41q51 0 153.5 136.5t154.5 231.5q92 169 139 329q6 22 94 22q102 0 102 -29q0 -3 -1 -6z" />
<glyph unicode="&#xfd;" horiz-adv-x="782" d="M785 1218l-281 -271q-19 -18 -42 -18t-32 21q-2 5 -2 11q0 17 15 40l209 313q13 19 37 19q45 0 85 -43q24 -25 24 -45q0 -15 -13 -27zM809 764q0 -63 -48 -234.5t-130.5 -333.5t-199.5 -366t-223 -294.5t-212 -90.5q-62 0 -105 30.5t-43 78.5q0 51 27 79.5t74 28.5 q41 0 69.5 -47t69.5 -47q40 0 108 71t94.5 178t26.5 255q0 260 -22.5 437t-77.5 177q-42 0 -100 -113q-3 -7 -14 -7t-33 13t-17 25q111 248 244 248q98 0 152.5 -166t54.5 -377q0 -98 -10 -190l12 -4q59 116 100 274t41 256q0 55 -26 115q0 92 94 92t94 -88z" />
<glyph unicode="&#xfe;" horiz-adv-x="876" d="M877 666q0 -125 -64.5 -262.5t-233 -265.5t-315.5 -165l-69 -358q-25 -129 -291 -172h-2q-7 0 -14 15q-9 18 -9 34t8 21q58 16 81.5 50t35.5 97l303 1554q8 38 8 66q0 80 -61 80q-21 0 -19.5 36t19.5 36q86 0 178 27.5t96 27.5q25 0 17 -39l-125 -721q110 125 246 125 q82 0 146.5 -46t64.5 -140zM668 662q0 45 -28 70.5t-56 25.5q-72 0 -136.5 -80t-82.5 -178l-89 -455q132 45 231 172t130 237.5t31 207.5z" />
<glyph unicode="&#xff;" horiz-adv-x="782" d="M317 1010q-51 0 -82 30t-31 79q0 59 40 101t102 42q49 0 80.5 -30.5t31.5 -79.5q0 -60 -41 -101t-100 -41zM716 1010q-51 0 -81.5 30t-30.5 79q0 59 40 101t101 42q49 0 81 -30.5t32 -79.5q0 -60 -41 -101t-101 -41zM809 764q0 -63 -48 -234.5t-130.5 -333.5t-199.5 -366 t-223 -294.5t-212 -90.5q-62 0 -105 30.5t-43 78.5q0 51 27 79.5t74 28.5q41 0 69.5 -47t69.5 -47q40 0 108 71t94.5 178t26.5 255q0 260 -22.5 437t-77.5 177q-42 0 -100 -113q-3 -7 -14 -7t-33 13t-17 25q111 248 244 248q98 0 152.5 -166t54.5 -377q0 -98 -10 -190l12 -4 q59 116 100 274t41 256q0 55 -26 115q0 92 94 92t94 -88z" />
<glyph unicode="&#x100;" horiz-adv-x="1165" d="M1315 1720q14 0 14 -19q0 -14 -8 -37q-17 -57 -41 -57h-633q-14 0 -14 21q0 14 6 36q14 56 39 56h637zM928 202q-2 -15 -2 -30q0 -86 126 -86q8 0 8 -19t-8.5 -47t-20.5 -28q-76 8 -230.5 8t-231.5 -8q-8 0 -8 17.5t9.5 47t19.5 29.5q61 0 89 22t37 94l37 283 q5 38 -37 38h-246q-30 0 -48 -28l-189 -294q-24 -38 -24 -60q0 -55 121 -55q8 0 8 -18.5t-8.5 -47t-20.5 -28.5q-76 8 -229.5 8t-230.5 -8q-8 0 -8 13.5t7 47t22 33.5q109 0 157 34.5t90 97.5l655 974q8 12 8 23t-9.5 22.5t-9.5 22.5q0 20 68 43q69 24 124.5 53.5t83.5 29.5 q42 0 42 -50q0 -22 -14 -79.5t-20 -106.5zM774 649l47 413v5q0 10 -6 10q-8 0 -17 -13l-283 -428q-6 -8 -6 -18.5t19 -10.5h204q37 0 42 42z" />
<glyph unicode="&#x101;" horiz-adv-x="966" d="M960 1161q19 0 19 -20q0 -14 -9 -36q-20 -56 -47 -56h-446q-18 0 -18 23q0 13 5 33q17 56 45 56h451zM752 180q-3 -10 -3 -19q1 -20 23 -20q36 0 102 66q12 12 40 -12q20 -17 20 -28q0 -5 -4 -9q-92 -90 -167.5 -137.5t-131.5 -47.5q-79 0 -79 89q0 61 40 146l4 7l-12 6 q-224 -248 -361 -248q-73 0 -116.5 54t-43.5 139q0 209 186 443.5t392 234.5q62 0 107 -31l20 49q9 22 93 22q91 0 91 -35q0 -7 -3 -18zM666 553l49 160q-32 47 -101 47q-128 0 -228.5 -215.5t-100.5 -317.5q0 -117 47 -117q52 0 126.5 81.5t127.5 177.5t80 184z" />
<glyph unicode="&#x102;" horiz-adv-x="1165" d="M1316 1782q-50 -307 -348 -307q-191 0 -236 127q-12 34 -12 76q0 48 15 104q12 7 27 7h4l22 -4q4 -1 8 -3v-39l7 -33q31 -91 160 -99q12 -1 25 -1q153 0 238 124q15 23 27 48q15 7 31 7h5q11 0 21 -4q3 -2 6 -3zM928 202q-2 -15 -2 -30q0 -86 126 -86q8 0 8 -19t-8.5 -47 t-20.5 -28q-76 8 -230.5 8t-231.5 -8q-8 0 -8 17.5t9.5 47t19.5 29.5q61 0 89 22t37 94l37 283q5 38 -37 38h-246q-30 0 -48 -28l-189 -294q-24 -38 -24 -60q0 -55 121 -55q8 0 8 -18.5t-8.5 -47t-20.5 -28.5q-76 8 -229.5 8t-230.5 -8q-8 0 -8 13.5t7 47t22 33.5 q109 0 157 34.5t90 97.5l655 974q8 12 8 23t-9.5 22.5t-9.5 22.5q0 20 68 43q69 24 124.5 53.5t83.5 29.5q42 0 42 -50q0 -22 -14 -79.5t-20 -106.5zM774 649l47 413v5q0 10 -6 10q-8 0 -17 -13l-283 -428q-6 -8 -6 -18.5t19 -10.5h204q37 0 42 42z" />
<glyph unicode="&#x103;" horiz-adv-x="966" d="M1025 1242q-50 -307 -348 -307q-191 0 -236 127q-12 34 -12 76q0 48 15 104q12 7 27 7h4l22 -4q4 -1 8 -3v-39l7 -33q31 -91 160 -99q12 -1 25 -1q153 0 238 124q15 23 27 48q15 7 31 7h5q11 0 21 -4q3 -2 6 -3zM752 180q-3 -10 -3 -19q1 -20 23 -20q36 0 102 66 q12 12 40 -12q20 -17 20 -28q0 -5 -4 -9q-92 -90 -167.5 -137.5t-131.5 -47.5q-79 0 -79 89q0 61 40 146l4 7l-12 6q-224 -248 -361 -248q-73 0 -116.5 54t-43.5 139q0 209 186 443.5t392 234.5q62 0 107 -31l20 49q9 22 93 22q91 0 91 -35q0 -7 -3 -18zM666 553l49 160 q-32 47 -101 47q-128 0 -228.5 -215.5t-100.5 -317.5q0 -117 47 -117q52 0 126.5 81.5t127.5 177.5t80 184z" />
<glyph unicode="&#x104;" horiz-adv-x="1165" d="M873 -380q-85 -107 -220 -107q-85 0 -130 41.5t-45 112.5q0 167 291 371h95q-211 -188 -211 -321q0 -41 31.5 -65t71.5 -24q59 0 101 29q16 -5 16 -30v-7zM928 202q-2 -15 -2 -30q0 -86 126 -86q8 0 8 -19t-8.5 -47t-20.5 -28q-76 8 -230.5 8t-231.5 -8q-8 0 -8 17.5 t9.5 47t19.5 29.5q61 0 89 22t37 94l37 283q5 38 -37 38h-246q-30 0 -48 -28l-189 -294q-24 -38 -24 -60q0 -55 121 -55q8 0 8 -18.5t-8.5 -47t-20.5 -28.5q-76 8 -229.5 8t-230.5 -8q-8 0 -8 13.5t7 47t22 33.5q109 0 157 34.5t90 97.5l655 974q8 12 8 23t-9.5 22.5 t-9.5 22.5q0 20 68 43q69 24 124.5 53.5t83.5 29.5q42 0 42 -50q0 -22 -14 -79.5t-20 -106.5zM774 649l47 413v5q0 10 -6 10q-8 0 -17 -13l-283 -428q-6 -8 -6 -18.5t19 -10.5h204q37 0 42 42z" />
<glyph unicode="&#x105;" horiz-adv-x="966" d="M690 -380q-85 -107 -220 -107q-85 0 -130 41.5t-45 112.5q0 167 291 371h95q-211 -188 -211 -321q0 -41 31.5 -65t71.5 -24q59 0 101 29q16 -5 16 -30v-7zM752 180q-3 -10 -3 -19q1 -20 23 -20q36 0 102 66q12 12 40 -12q20 -17 20 -28q0 -5 -4 -9q-92 -90 -167.5 -137.5 t-131.5 -47.5q-79 0 -79 89q0 61 40 146l4 7l-12 6q-224 -248 -361 -248q-73 0 -116.5 54t-43.5 139q0 209 186 443.5t392 234.5q62 0 107 -31l20 49q9 22 93 22q91 0 91 -35q0 -7 -3 -18zM666 553l49 160q-32 47 -101 47q-128 0 -228.5 -215.5t-100.5 -317.5 q0 -117 47 -117q52 0 126.5 81.5t127.5 177.5t80 184z" />
<glyph unicode="&#x106;" horiz-adv-x="1470" d="M1614 1734l-534 -204q-16 -6 -28 -6q-16 0 -27 10.5t-11 25.5q0 22 35 41l508 279q8 4 17 4q21 0 46 -29.5t25 -68.5q0 -40 -31 -52zM1199 36q-53 -7 -89 -19q-176 -44 -402 -44q-227 0 -378.5 133t-151.5 363q0 351 299 633.5t671 282.5q108 0 242 -28t193 -28 q-12 -181 -61 -334q-6 -17 -53 -17t-44 21q9 53 9 74q0 104 -93.5 165t-232.5 61q-274 0 -482 -259.5t-208 -585.5q0 -152 86 -271.5t264 -119.5q117 0 209.5 33.5t169 105t125.5 144.5q10 15 53 13t43 -17q0 -38 -68 -154.5t-101 -151.5z" />
<glyph unicode="&#x107;" horiz-adv-x="743" d="M924 1252l-281 -271q-19 -18 -42 -18t-32 21q-2 5 -2 11q0 17 15 40l209 313q13 19 37 19q45 0 85 -43q24 -25 24 -45q0 -15 -13 -27zM629 113q-117 -140 -295 -140q-107 0 -174.5 80t-67.5 211q0 203 157 395.5t339 192.5q80 0 136 -33t56 -82q0 -37 -32.5 -65.5 t-69.5 -28.5q-43 0 -60 31q-5 48 -27 72t-54 24q-97 0 -166.5 -145.5t-69.5 -294.5q0 -99 32 -169.5t95 -70.5q53 0 95 25.5t59 42.5q8 8 22.5 -0.5t23.5 -22t1 -22.5z" />
<glyph unicode="&#x108;" horiz-adv-x="1470" d="M1515 1579q4 -4 4 -10q0 -10 -11.5 -27t-20.5 -17q-2 0 -4 1l-271 133q-19 9 -39 9t-41 -9l-301 -133q-3 -1 -6 -1q-14 0 -25.5 15.5t-11.5 25.5q0 8 7 13l350 271q25 19 50.5 19t51.5 -24zM1199 36q-53 -7 -89 -19q-176 -44 -402 -44q-227 0 -378.5 133t-151.5 363 q0 351 299 633.5t671 282.5q108 0 242 -28t193 -28q-12 -181 -61 -334q-6 -17 -53 -17t-44 21q9 53 9 74q0 104 -93.5 165t-232.5 61q-274 0 -482 -259.5t-208 -585.5q0 -152 86 -271.5t264 -119.5q117 0 209.5 33.5t169 105t125.5 144.5q10 15 53 13t43 -17 q0 -38 -68 -154.5t-101 -151.5z" />
<glyph unicode="&#x109;" horiz-adv-x="743" d="M908 1042v-12q-6 -20 -31 -31l-15 -3l-10 4q-1 1 -2 3l-129 197q-29 44 -44 44q-11 0 -40 -30l-18 -18l-201 -197q-4 -4 -12 -5l-15 4q-24 11 -29 30l1 11q1 2 2 3l307 407q23 30 58 30q31 0 40 -30zM629 113q-117 -140 -295 -140q-107 0 -174.5 80t-67.5 211 q0 203 157 395.5t339 192.5q80 0 136 -33t56 -82q0 -37 -32.5 -65.5t-69.5 -28.5q-43 0 -60 31q-5 48 -27 72t-54 24q-97 0 -166.5 -145.5t-69.5 -294.5q0 -99 32 -169.5t95 -70.5q53 0 95 25.5t59 42.5q8 8 22.5 -0.5t23.5 -22t1 -22.5z" />
<glyph unicode="&#x10a;" horiz-adv-x="1470" d="M1034 1649q0 58 40.5 98.5t98.5 40.5t98.5 -40.5t40.5 -98.5t-40.5 -98.5t-98.5 -40.5t-98.5 40.5t-40.5 98.5zM1199 36q-53 -7 -89 -19q-176 -44 -402 -44q-227 0 -378.5 133t-151.5 363q0 351 299 633.5t671 282.5q108 0 242 -28t193 -28q-12 -181 -61 -334 q-6 -17 -53 -17t-44 21q9 53 9 74q0 104 -93.5 165t-232.5 61q-274 0 -482 -259.5t-208 -585.5q0 -152 86 -271.5t264 -119.5q117 0 209.5 33.5t169 105t125.5 144.5q10 15 53 13t43 -17q0 -38 -68 -154.5t-101 -151.5z" />
<glyph unicode="&#x10b;" horiz-adv-x="743" d="M490 1149q0 58 40.5 98.5t98.5 40.5t98.5 -40.5t40.5 -98.5t-40.5 -98.5t-98.5 -40.5t-98.5 40.5t-40.5 98.5zM629 113q-117 -140 -295 -140q-107 0 -174.5 80t-67.5 211q0 203 157 395.5t339 192.5q80 0 136 -33t56 -82q0 -37 -32.5 -65.5t-69.5 -28.5q-43 0 -60 31 q-5 48 -27 72t-54 24q-97 0 -166.5 -145.5t-69.5 -294.5q0 -99 32 -169.5t95 -70.5q53 0 95 25.5t59 42.5q8 8 22.5 -0.5t23.5 -22t1 -22.5z" />
<glyph unicode="&#x10c;" horiz-adv-x="1470" d="M872 1814q-4 4 -4 10q0 10 11.5 27.5t20.5 17.5q3 0 5 -1l270 -133q20 -10 40 -10t40 10l301 133q3 1 7 1q13 0 24.5 -16t11.5 -25q0 -8 -6 -14l-350 -270q-26 -19 -51.5 -19t-51.5 23zM1199 36q-53 -7 -89 -19q-176 -44 -402 -44q-227 0 -378.5 133t-151.5 363 q0 351 299 633.5t671 282.5q108 0 242 -28t193 -28q-12 -181 -61 -334q-6 -17 -53 -17t-44 21q9 53 9 74q0 104 -93.5 165t-232.5 61q-274 0 -482 -259.5t-208 -585.5q0 -152 86 -271.5t264 -119.5q117 0 209.5 33.5t169 105t125.5 144.5q10 15 53 13t43 -17 q0 -38 -68 -154.5t-101 -151.5z" />
<glyph unicode="&#x10d;" horiz-adv-x="743" d="M951 1363l-307 -408q-22 -29 -57 -29l-19 3q-17 7 -23 26l-137 408v12q7 21 31 31l15 3q7 -1 11 -7l129 -197q29 -44 44 -44l12 4q7 3 47 44l200 197q5 4 12 4l15 -3q22 -11 29 -28v-11zM629 113q-117 -140 -295 -140q-107 0 -174.5 80t-67.5 211q0 203 157 395.5 t339 192.5q80 0 136 -33t56 -82q0 -37 -32.5 -65.5t-69.5 -28.5q-43 0 -60 31q-5 48 -27 72t-54 24q-97 0 -166.5 -145.5t-69.5 -294.5q0 -99 32 -169.5t95 -70.5q53 0 95 25.5t59 42.5q8 8 22.5 -0.5t23.5 -22t1 -22.5z" />
<glyph unicode="&#x10e;" horiz-adv-x="1554" d="M717 1814q-4 4 -4 10q0 10 11.5 27.5t20.5 17.5q3 0 5 -1l270 -133q20 -10 40 -10t40 10l301 133q3 1 7 1q13 0 24.5 -16t11.5 -25q0 -8 -6 -14l-350 -270q-26 -19 -51.5 -19t-51.5 23zM1608 892q0 -320 -278 -610t-665 -290q-44 0 -195.5 4t-223.5 4t-261 -8 q-9 0 -9 13.5t8 47t22 33.5q79 0 113 12.5t52 39t30 64.5l286 952q8 28 8 51q0 24 -25 41.5t-122 17.5q-16 0 -4.5 47t25.5 47q90 -4 231 -4t249.5 2t158.5 2q274 0 437 -122t163 -344zM1348 869q0 189 -116.5 300t-307.5 111q-66 0 -104.5 -4.5t-56 -24.5t-30.5 -61 l-282 -926q-12 -42 -12 -75q0 -118 176 -118q273 0 503 258.5t230 539.5z" />
<glyph unicode="&#x10f;" horiz-adv-x="1265" d="M1462 1257q-64 -191 -379 -346l-12 -3l-11 5q-14 9 -14 25q0 8 6 12q90 65 153 152q34 48 48 92l2 16q-2 15 -21 23q-45 12 -69 49q-15 22 -15 50q0 11 2 22q15 75 82 110q37 19 80 19q62 0 111 -49l20 -24q27 -41 27 -91q0 -30 -10 -62zM794 228q-12 -48 -12 -64 q0 -22 17 -22q28 0 94 85q7 9 22.5 0.5t27 -23.5t5.5 -24q-147 -207 -274 -207q-58 0 -77 36t-19 102q0 20 18 104l-12 6q-86 -101 -179 -174.5t-182 -73.5q-84 0 -122 63.5t-38 135.5q0 200 182.5 440t387.5 240q55 0 108 -31l93 389q10 43 10 75q0 75 -62 75q-19 0 -19 36 t19 36q84 0 180.5 27.5t104.5 27.5q21 0 21 -19q0 -6 -3 -20zM715 711q-41 59 -101 59q-114 0 -221.5 -201.5t-107.5 -363.5q0 -94 47 -94q58 0 180 132t139 201z" />
<glyph unicode="&#x110;" horiz-adv-x="1554" d="M1608 892q0 -153 -73.5 -313.5t-196.5 -290t-301.5 -213t-371.5 -83.5q-79 0 -191.5 4t-205 4t-283.5 -8q-9 0 -9 16q0 11 4 31q12 47 26 47q55 0 85.5 5t61 31.5t48.5 79.5l116 396q10 27 -15 27h-166q-14 0 -4.5 46.5t25.5 46.5h170q28 0 36 29l124 407q8 26 8 46 q0 29 -19 42q-31 22 -128 22q-16 0 -4.5 47t25.5 47q143 -6 257.5 -6t217.5 3t164 3q274 0 437 -122t163 -344zM1348 869q0 168 -106 288.5t-318 120.5q-80 0 -106.5 -3t-48.5 -21t-36 -64l-133 -443q-8 -29 19 -29h198q16 0 4.5 -46.5t-25.5 -46.5h-208q-28 0 -34 -23 l-103 -338q-12 -42 -12 -75q0 -39 17 -67q31 -51 159 -51q185 0 359 127t274 311t100 360z" />
<glyph unicode="&#x111;" horiz-adv-x="985" d="M1085 1448l-65 -273h194q6 0 6 -13l-5 -30l-14 -38q-12 -25 -21 -25h-185l-213 -889l-3 -22q2 -17 22 -17q24 0 70 59l22 27q3 4 8 4l15 -4q25 -12 33 -33v-11q0 -2 -1 -3q-98 -136 -196 -186q-41 -21 -78 -21q-77 0 -92 78q-4 23 -4 59q0 25 16 98q1 4 2 7l-12 6 q-186 -218 -326 -245q-18 -3 -35 -3q-106 0 -145 109q-15 43 -15 90q0 132 95 306q101 186 244 289q117 85 231 85q57 0 108 -31l60 248h-191q-6 0 -6 13q0 33 21 73q10 20 18 20h182l9 35q9 39 9 70q0 80 -61 80q-18 0 -19 33l3 22q5 17 16 17q92 0 224 40q47 15 61 15 q21 0 22 -18zM715 711q-43 59 -101 59q-103 0 -202 -164q-83 -139 -117 -303q-11 -56 -11 -98q0 -67 30 -89q8 -6 18 -6q56 0 155 105q96 101 164 229z" />
<glyph unicode="&#x112;" horiz-adv-x="1256" d="M1297 1720q14 0 14 -19q0 -14 -8 -37q-17 -57 -41 -57h-633q-14 0 -14 21q0 14 6 36q14 56 39 56h637zM1079 21q-8 -29 -58 -29q-100 0 -368 4t-379.5 4t-288.5 -8q-9 0 -9 13.5t8 47t22 33.5q99 0 136.5 26t61.5 106l283 939q5 13 5 39q0 67 -146 67q-8 0 -8 14.5 t9.5 47.5t21.5 33q102 -4 240 -4t386 2t348 2q63 0 63 -30q0 -13 -4 -27l-84 -289q-6 -19 -52 -19t-42 17q7 33 7 83t-41.5 104.5t-125.5 59.5q-132 7 -242 7h-27q-38 0 -48 -32l-159 -508q-2 -8 -2 -13q0 -19 23 -19h180q48 0 70 10q22 9 31 37l48 145q6 19 51.5 19 t38.5 -19q-74 -210 -138 -466q-4 -17 -46.5 -17t-37.5 17l34 128q8 29 -10 40q-18 12 -58 12h-201q-21 0 -29 -27l-103 -348q-10 -34 -10 -67q0 -78 89 -78h9l290 12q165 7 268 292q5 17 52.5 17t42.5 -17z" />
<glyph unicode="&#x113;" horiz-adv-x="751" d="M876 1161q19 0 19 -20q0 -14 -9 -36q-20 -56 -47 -56h-446q-18 0 -18 23q0 13 5 33q17 56 45 56h451zM778 713q0 -120 -142 -215.5t-337 -141.5q-16 -75 -16 -104q0 -148 92 -148q49 0 111.5 39t88.5 64q9 5 22.5 -2.5t23 -20t4.5 -20.5q-146 -191 -308 -191 q-239 0 -239 258q0 192 175 406.5t357 214.5q168 0 168 -139zM575 688q0 66 -44 66q-52 0 -107.5 -87.5t-97.5 -217.5q88 28 168.5 94.5t80.5 144.5z" />
<glyph unicode="&#x114;" horiz-adv-x="1256" d="M1305 1782q-50 -307 -348 -307q-191 0 -236 127q-12 34 -12 76q0 48 15 104q12 7 27 7h4l22 -4q4 -1 8 -3v-39l7 -33q31 -91 160 -99q12 -1 25 -1q153 0 238 124q15 23 27 48q15 7 31 7h5q11 0 21 -4q3 -2 6 -3zM1079 21q-8 -29 -58 -29q-100 0 -368 4t-379.5 4 t-288.5 -8q-9 0 -9 13.5t8 47t22 33.5q99 0 136.5 26t61.5 106l283 939q5 13 5 39q0 67 -146 67q-8 0 -8 14.5t9.5 47.5t21.5 33q102 -4 240 -4t386 2t348 2q63 0 63 -30q0 -13 -4 -27l-84 -289q-6 -19 -52 -19t-42 17q7 33 7 83t-41.5 104.5t-125.5 59.5q-132 7 -242 7h-27 q-38 0 -48 -32l-159 -508q-2 -8 -2 -13q0 -19 23 -19h180q48 0 70 10q22 9 31 37l48 145q6 19 51.5 19t38.5 -19q-74 -210 -138 -466q-4 -17 -46.5 -17t-37.5 17l34 128q8 29 -10 40q-18 12 -58 12h-201q-21 0 -29 -27l-103 -348q-10 -34 -10 -67q0 -78 89 -78h9l290 12 q165 7 268 292q5 17 52.5 17t42.5 -17z" />
<glyph unicode="&#x115;" horiz-adv-x="751" d="M964 1242q-50 -307 -348 -307q-191 0 -236 127q-12 34 -12 76q0 48 15 104q12 7 27 7h4l22 -4q4 -1 8 -3v-39l7 -33q31 -91 160 -99q12 -1 25 -1q153 0 238 124q15 23 27 48q15 7 31 7h5q11 0 21 -4q3 -2 6 -3zM778 713q0 -120 -142 -215.5t-337 -141.5q-16 -75 -16 -104 q0 -148 92 -148q49 0 111.5 39t88.5 64q9 5 22.5 -2.5t23 -20t4.5 -20.5q-146 -191 -308 -191q-239 0 -239 258q0 192 175 406.5t357 214.5q168 0 168 -139zM575 688q0 66 -44 66q-52 0 -107.5 -87.5t-97.5 -217.5q88 28 168.5 94.5t80.5 144.5z" />
<glyph unicode="&#x116;" horiz-adv-x="1256" d="M849 1649q0 58 40.5 98.5t98.5 40.5t98.5 -40.5t40.5 -98.5t-40.5 -98.5t-98.5 -40.5t-98.5 40.5t-40.5 98.5zM1079 21q-8 -29 -58 -29q-100 0 -368 4t-379.5 4t-288.5 -8q-9 0 -9 13.5t8 47t22 33.5q99 0 136.5 26t61.5 106l283 939q5 13 5 39q0 67 -146 67 q-8 0 -8 14.5t9.5 47.5t21.5 33q102 -4 240 -4t386 2t348 2q63 0 63 -30q0 -13 -4 -27l-84 -289q-6 -19 -52 -19t-42 17q7 33 7 83t-41.5 104.5t-125.5 59.5q-132 7 -242 7h-27q-38 0 -48 -32l-159 -508q-2 -8 -2 -13q0 -19 23 -19h180q48 0 70 10q22 9 31 37l48 145 q6 19 51.5 19t38.5 -19q-74 -210 -138 -466q-4 -17 -46.5 -17t-37.5 17l34 128q8 29 -10 40q-18 12 -58 12h-201q-21 0 -29 -27l-103 -348q-10 -34 -10 -67q0 -78 89 -78h9l290 12q165 7 268 292q5 17 52.5 17t42.5 -17z" />
<glyph unicode="&#x117;" horiz-adv-x="751" d="M548 1149q0 58 40.5 98.5t98.5 40.5t98.5 -40.5t40.5 -98.5t-40.5 -98.5t-98.5 -40.5t-98.5 40.5t-40.5 98.5zM778 713q0 -120 -142 -215.5t-337 -141.5q-16 -75 -16 -104q0 -148 92 -148q49 0 111.5 39t88.5 64q9 5 22.5 -2.5t23 -20t4.5 -20.5q-146 -191 -308 -191 q-239 0 -239 258q0 192 175 406.5t357 214.5q168 0 168 -139zM575 688q0 66 -44 66q-52 0 -107.5 -87.5t-97.5 -217.5q88 28 168.5 94.5t80.5 144.5z" />
<glyph unicode="&#x118;" horiz-adv-x="1256" d="M1079 21q-8 -29 -58 -29q-107 0 -187.5 -93.5t-80.5 -181.5q0 -41 31.5 -65t71.5 -24q59 0 101 29q16 -5 16 -30v-7q-85 -107 -220 -107q-85 0 -130.5 41.5t-45.5 112.5q0 121 148 251q51 46 103 76q-76 1 -175 2q-268 4 -379.5 4t-288.5 -8q-9 0 -9 13.5t8 47t22 33.5 q99 0 136.5 26t61.5 106l283 939q5 13 5 39q0 67 -146 67q-8 0 -8 14.5t9.5 47.5t21.5 33q102 -4 240 -4t386 2t348 2q63 0 63 -30q0 -13 -4 -27l-84 -289q-6 -19 -52 -19t-42 17q7 33 7 83t-41.5 104.5t-125.5 59.5q-130 7 -241 7h-28q-38 0 -48 -32l-159 -508 q-2 -8 -2 -13q0 -19 23 -19h180q48 0 70 10q22 9 31 37l48 145q6 19 51.5 19t38.5 -19q-74 -210 -138 -466q-4 -17 -46.5 -17t-37.5 17l34 128q8 29 -10 40q-18 12 -58 12h-201q-21 0 -29 -27l-103 -348q-10 -34 -10 -67q0 -78 89 -78h9l290 12q165 7 268 292q5 17 52.5 17 t42.5 -17z" />
<glyph unicode="&#x119;" horiz-adv-x="751" d="M778 713q0 -120 -142 -215.5t-337 -141.5q-16 -75 -16 -104q0 -148 92 -148q54 0 110.5 35t89.5 68q7 7 21.5 -1.5t24.5 -21t4 -20.5q-79 -93 -169 -155.5t-152.5 -138t-62.5 -153.5q0 -41 31.5 -65t71.5 -24q59 0 101 29q7 5 13.5 -13t2.5 -24q-85 -107 -220 -107 q-85 0 -130 41.5t-45 112.5q0 152 223 307q-211 14 -211 257q0 192 175 406.5t357 214.5q168 0 168 -139zM575 688q0 66 -44 66q-52 0 -107.5 -87.5t-97.5 -217.5q88 28 168.5 94.5t80.5 144.5z" />
<glyph unicode="&#x11a;" horiz-adv-x="1256" d="M632 1814q-4 4 -4 10q0 10 11.5 27.5t20.5 17.5q3 0 5 -1l270 -133q20 -10 40 -10t40 10l301 133q3 1 7 1q13 0 24.5 -16t11.5 -25q0 -8 -6 -14l-350 -270q-26 -19 -51.5 -19t-51.5 23zM1079 21q-8 -29 -58 -29q-100 0 -368 4t-379.5 4t-288.5 -8q-9 0 -9 13.5t8 47 t22 33.5q99 0 136.5 26t61.5 106l283 939q5 13 5 39q0 67 -146 67q-8 0 -8 14.5t9.5 47.5t21.5 33q102 -4 240 -4t386 2t348 2q63 0 63 -30q0 -13 -4 -27l-84 -289q-6 -19 -52 -19t-42 17q7 33 7 83t-41.5 104.5t-125.5 59.5q-132 7 -242 7h-27q-38 0 -48 -32l-159 -508 q-2 -8 -2 -13q0 -19 23 -19h180q48 0 70 10q22 9 31 37l48 145q6 19 51.5 19t38.5 -19q-74 -210 -138 -466q-4 -17 -46.5 -17t-37.5 17l34 128q8 29 -10 40q-18 12 -58 12h-201q-21 0 -29 -27l-103 -348q-10 -34 -10 -67q0 -78 89 -78h9l290 12q165 7 268 292q5 17 52.5 17 t42.5 -17z" />
<glyph unicode="&#x11b;" horiz-adv-x="751" d="M974 1363l-307 -408q-22 -29 -57 -29l-19 3q-17 7 -23 26l-137 408v12q7 21 31 31l15 3q7 -1 11 -7l129 -197q29 -44 44 -44l12 4q7 3 47 44l200 197q5 4 12 4l15 -3q22 -11 29 -28v-11zM778 713q0 -120 -142 -215.5t-337 -141.5q-16 -75 -16 -104q0 -148 92 -148 q49 0 111.5 39t88.5 64q9 5 22.5 -2.5t23 -20t4.5 -20.5q-146 -191 -308 -191q-239 0 -239 258q0 192 175 406.5t357 214.5q168 0 168 -139zM575 688q0 66 -44 66q-52 0 -107.5 -87.5t-97.5 -217.5q88 28 168.5 94.5t80.5 144.5z" />
<glyph unicode="&#x11c;" horiz-adv-x="1476" d="M1546 1579q4 -4 4 -10q0 -10 -11.5 -27t-20.5 -17q-2 0 -4 1l-271 133q-19 9 -39 9t-41 -9l-301 -133q-3 -1 -6 -1q-14 0 -25.5 15.5t-11.5 25.5q0 8 7 13l350 271q25 19 50.5 19t51.5 -24zM1274 134q-4 -15 -4 -29.5t15 -18t15 -15.5q0 -42 -26 -42q-63 0 -196 -18.5 t-222 -28t-136 -9.5q-246 0 -394 135.5t-148 339.5q0 352 296 644.5t655 292.5q119 0 254.5 -28t197.5 -28q0 -159 -59 -336q-5 -15 -51 -14t-44 20q5 57 5 59q0 124 -95 182.5t-233 58.5q-267 0 -476 -260.5t-209 -551.5q0 -204 92.5 -314t240.5 -110q278 0 323 157l48 166 q6 19 6 31q0 18 -15.5 29.5t-160.5 11.5q-8 0 -8 16t8 48t21 32q57 -6 265.5 -6t265.5 6q8 0 8 -15.5t-8.5 -48t-20.5 -32.5q-76 0 -100.5 -17.5t-40.5 -71.5z" />
<glyph unicode="&#x11d;" horiz-adv-x="868" d="M898 1042v-12q-6 -20 -31 -31l-15 -3l-10 4q-1 1 -2 3l-129 197q-29 44 -44 44q-11 0 -40 -30l-18 -18l-201 -197q-4 -4 -12 -5l-15 4q-24 11 -29 30l1 11q1 2 2 3l307 407q23 30 58 30q31 0 40 -30zM973 754q0 -90 -64 -90q-35 0 -139 41q14 -37 14 -107.5t-41 -163 t-119 -157t-182 -84.5q-57 -12 -59 -14q-51 -32 -52 -71q0 -38 149 -103q112 -49 218.5 -122t106.5 -183.5t-163 -184.5t-372 -74q-176 0 -276 70.5t-100 161t119 154t225 97.5q-95 49 -95 109q0 67 150 164q-207 58 -207 232.5t146.5 298.5t345.5 124q45 0 109 -29.5 t99 -29.5q17 0 65 10t69 10q53 0 53 -59zM606 715q0 41 -41 41q-92 0 -194.5 -150.5t-102.5 -286.5q0 -40 51 -40q97 0 192 150.5t95 285.5zM596 -324q0 50 -114 122.5t-163.5 72.5t-128.5 -55.5t-79 -123t94.5 -105.5t188.5 -38t148 29.5t54 97.5z" />
<glyph unicode="&#x11e;" horiz-adv-x="1476" d="M1524 1782q-50 -307 -348 -307q-191 0 -236 127q-12 34 -12 76q0 48 15 104q12 7 27 7h4l22 -4q4 -1 8 -3v-39l7 -33q31 -91 160 -99q12 -1 25 -1q153 0 238 124q15 23 27 48q15 7 31 7h5q11 0 21 -4q3 -2 6 -3zM1274 134q-4 -15 -4 -29.5t15 -18t15 -15.5q0 -42 -26 -42 q-63 0 -196 -18.5t-222 -28t-136 -9.5q-246 0 -394 135.5t-148 339.5q0 352 296 644.5t655 292.5q119 0 254.5 -28t197.5 -28q0 -159 -59 -336q-5 -15 -51 -14t-44 20q5 57 5 59q0 124 -95 182.5t-233 58.5q-267 0 -476 -260.5t-209 -551.5q0 -204 92.5 -314t240.5 -110 q278 0 323 157l48 166q6 19 6 31q0 18 -15.5 29.5t-160.5 11.5q-8 0 -8 16t8 48t21 32q57 -6 265.5 -6t265.5 6q8 0 8 -15.5t-8.5 -48t-20.5 -32.5q-76 0 -100.5 -17.5t-40.5 -71.5z" />
<glyph unicode="&#x11f;" horiz-adv-x="868" d="M932 1242q-50 -307 -348 -307q-191 0 -236 127q-12 34 -12 76q0 48 15 104q12 7 27 7h4l22 -4q4 -1 8 -3v-39l7 -33q31 -91 160 -99q12 -1 25 -1q153 0 238 124q15 23 27 48q15 7 31 7h5q11 0 21 -4q3 -2 6 -3zM973 754q0 -90 -64 -90q-35 0 -139 41q14 -37 14 -107.5 t-41 -163t-119 -157t-182 -84.5q-57 -12 -59 -14q-51 -32 -52 -71q0 -38 149 -103q112 -49 218.5 -122t106.5 -183.5t-163 -184.5t-372 -74q-176 0 -276 70.5t-100 161t119 154t225 97.5q-95 49 -95 109q0 67 150 164q-207 58 -207 232.5t146.5 298.5t345.5 124 q45 0 109 -29.5t99 -29.5q17 0 65 10t69 10q53 0 53 -59zM606 715q0 41 -41 41q-92 0 -194.5 -150.5t-102.5 -286.5q0 -40 51 -40q97 0 192 150.5t95 285.5zM596 -324q0 50 -114 122.5t-163.5 72.5t-128.5 -55.5t-79 -123t94.5 -105.5t188.5 -38t148 29.5t54 97.5z" />
<glyph unicode="&#x120;" horiz-adv-x="1476" d="M1058 1649q0 58 40.5 98.5t98.5 40.5t98.5 -40.5t40.5 -98.5t-40.5 -98.5t-98.5 -40.5t-98.5 40.5t-40.5 98.5zM1274 134q-4 -15 -4 -29.5t15 -18t15 -15.5q0 -42 -26 -42q-63 0 -196 -18.5t-222 -28t-136 -9.5q-246 0 -394 135.5t-148 339.5q0 352 296 644.5t655 292.5 q119 0 254.5 -28t197.5 -28q0 -159 -59 -336q-5 -15 -51 -14t-44 20q5 57 5 59q0 124 -95 182.5t-233 58.5q-267 0 -476 -260.5t-209 -551.5q0 -204 92.5 -314t240.5 -110q278 0 323 157l48 166q6 19 6 31q0 18 -15.5 29.5t-160.5 11.5q-8 0 -8 16t8 48t21 32 q57 -6 265.5 -6t265.5 6q8 0 8 -15.5t-8.5 -48t-20.5 -32.5q-76 0 -100.5 -17.5t-40.5 -71.5z" />
<glyph unicode="&#x121;" horiz-adv-x="868" d="M491 1149q0 58 40.5 98.5t98.5 40.5t98.5 -40.5t40.5 -98.5t-40.5 -98.5t-98.5 -40.5t-98.5 40.5t-40.5 98.5zM973 754q0 -90 -64 -90q-35 0 -139 41q14 -37 14 -107.5t-41 -163t-119 -157t-182 -84.5q-57 -12 -59 -14q-51 -32 -52 -71q0 -38 149 -103 q112 -49 218.5 -122t106.5 -183.5t-163 -184.5t-372 -74q-176 0 -276 70.5t-100 161t119 154t225 97.5q-95 49 -95 109q0 67 150 164q-207 58 -207 232.5t146.5 298.5t345.5 124q45 0 109 -29.5t99 -29.5q17 0 65 10t69 10q53 0 53 -59zM606 715q0 41 -41 41 q-92 0 -194.5 -150.5t-102.5 -286.5q0 -40 51 -40q97 0 192 150.5t95 285.5zM596 -324q0 50 -114 122.5t-163.5 72.5t-128.5 -55.5t-79 -123t94.5 -105.5t188.5 -38t148 29.5t54 97.5z" />
<glyph unicode="&#x122;" horiz-adv-x="1476" d="M798 -324q0 -82 -77.5 -136t-182.5 -54q-158 0 -158 90q0 29 18.5 48.5t47.5 19.5q31 0 75 -38t64 -38q19 0 36 14.5t17 36.5q0 94 -127 148l-6 16l148 217h108l-78 -106q-12 -17 -9 -24t26 -24q98 -73 98 -170zM1274 134q-4 -15 -4 -29.5t15 -18t15 -15.5q0 -42 -26 -42 q-63 0 -196 -18.5t-222 -28t-136 -9.5q-246 0 -394 135.5t-148 339.5q0 352 296 644.5t655 292.5q119 0 254.5 -28t197.5 -28q0 -159 -59 -336q-5 -15 -51 -14t-44 20q5 57 5 59q0 124 -95 182.5t-233 58.5q-267 0 -476 -260.5t-209 -551.5q0 -204 92.5 -314t240.5 -110 q278 0 323 157l48 166q6 19 6 31q0 18 -15.5 29.5t-160.5 11.5q-8 0 -8 16t8 48t21 32q57 -6 265.5 -6t265.5 6q8 0 8 -15.5t-8.5 -48t-20.5 -32.5q-76 0 -100.5 -17.5t-40.5 -71.5z" />
<glyph unicode="&#x123;" horiz-adv-x="868" d="M858 1494q-95 -67 -158 -157q-31 -44 -45 -85l-1 -17q3 -14 21 -22q84 -32 84 -98l-2 -23q-16 -74 -82 -110q-38 -21 -82 -21q-61 0 -110 50q-45 48 -46 113q0 31 11 63q52 160 275 293q51 30 102 53q6 4 13 4q17 0 24 -21l1 -14q-1 -5 -5 -8zM973 754q0 -90 -64 -90 q-35 0 -139 41q14 -37 14 -107.5t-41 -163t-119 -157t-182 -84.5q-57 -12 -59 -14q-51 -32 -52 -71q0 -38 149 -103q112 -49 218.5 -122t106.5 -183.5t-163 -184.5t-372 -74q-176 0 -276 70.5t-100 161t119 154t225 97.5q-95 49 -95 109q0 67 150 164q-207 58 -207 232.5 t146.5 298.5t345.5 124q45 0 109 -29.5t99 -29.5q17 0 65 10t69 10q53 0 53 -59zM606 715q0 41 -41 41q-92 0 -194.5 -150.5t-102.5 -286.5q0 -40 51 -40q97 0 192 150.5t95 285.5zM596 -324q0 50 -114 122.5t-163.5 72.5t-128.5 -55.5t-79 -123t94.5 -105.5t188.5 -38 t148 29.5t54 97.5z" />
<glyph unicode="&#x124;" horiz-adv-x="1541" d="M1425 1579q4 -4 4 -10q0 -10 -11.5 -27t-20.5 -17q-2 0 -4 1l-271 133q-19 9 -39 9t-41 -9l-301 -133q-3 -1 -6 -1q-14 0 -25.5 15.5t-11.5 25.5q0 8 7 13l350 271q25 19 50.5 19t51.5 -24zM1224 202q-7 -25 -7 -49q0 -67 149 -67q7 0 7 -14t-9.5 -47t-20.5 -33 q-77 8 -289 8t-288 -8q-7 0 -7 14.5t9 47t23 32.5q88 0 133 23.5t65 92.5l117 412q4 13 4 26t-27 13h-478q-34 0 -43 -32l-121 -419q-7 -25 -7 -49q0 -67 149 -67q7 0 7 -14t-9 -47t-21 -33q-77 8 -289 8t-288 -8q-8 0 -8 13t8.5 47t24.5 34q88 0 133 23.5t65 92.5l272 952 q8 27 8 54q0 62 -140 62q-7 0 -7 13.5t10.5 47t22.5 33.5q58 -6 286 -6t286 6q8 0 8 -13.5t-11 -47t-24 -33.5q-107 0 -146 -27t-57 -89l-105 -369q-4 -14 -4 -25t27 -11h478q36 0 46 36l105 369q8 27 8 54q0 62 -140 62q-7 0 -7 13t11 47t23 34q57 -6 285 -6t286 6 q8 0 8 -12.5t-10 -47t-25 -34.5q-114 0 -150 -29t-53 -87z" />
<glyph unicode="&#x125;" horiz-adv-x="942" d="M787 1599v-12q-6 -20 -31 -31l-15 -3l-10 4q-1 1 -2 3l-129 197q-29 44 -44 44q-11 0 -40 -30l-18 -18l-201 -197q-4 -4 -12 -5l-15 4q-24 11 -29 30l1 11q1 2 2 3l307 407q23 30 58 30q31 0 40 -30zM932 610q0 -170 -115.5 -403.5t-294.5 -233.5q-59 0 -101 36t-42 83 q0 49 25.5 81t72.5 32q61 0 79.5 -57.5t47 -57.5t55.5 77t48.5 199t21.5 222q0 133 -91 133t-237 -225q-39 -60 -88 -256l-61 -244q-6 -23 -100 -23q-95 0 -95 37v4l289 1203q10 40 10 70q0 73 -63 73q-21 0 -20 36t20 36q86 0 183 27.5t106 27.5q25 0 16 -39l-188 -799 l16 -10q154 213 305 213q201 0 201 -242z" />
<glyph unicode="&#x126;" horiz-adv-x="1541" d="M1538 1064q27 0 11.5 -48t-46.5 -48h-59l-220 -766q-7 -25 -7 -49q0 -67 149 -67q7 0 7 -14t-9.5 -47t-20.5 -33q-77 8 -289 8t-288 -8q-7 0 -7 14.5t9 47t23 32.5q88 0 133 23.5t65 92.5l117 412q4 13 4 26t-27 13h-478q-34 0 -43 -32l-121 -419q-7 -25 -7 -49 q0 -67 149 -67q7 0 7 -14t-9 -47t-21 -33q-77 8 -289 8t-288 -8q-8 0 -8 13t8.5 47t24.5 34q88 0 133 23.5t65 92.5l219 766h-60q-29 0 -15.5 48t48.5 48h54l26 90q8 27 8 54q0 62 -140 62q-7 0 -7 13.5t10.5 47t22.5 33.5q58 -6 286 -6t286 6q8 0 8 -13.5t-11 -47 t-24 -33.5q-107 0 -146 -27t-57 -89l-26 -90h547l26 90q8 27 8 54q0 62 -140 62q-7 0 -7 13t11 47t23 34q57 -6 285 -6t286 6q8 0 8 -12.5t-10 -47t-25 -34.5q-114 0 -150 -29t-53 -87l-26 -90h67zM1208 968h-547l-52 -183q-4 -14 -4 -25t27 -11h478q36 0 46 36z" />
<glyph unicode="&#x127;" horiz-adv-x="942" d="M932 610q0 -137 -67 -295l-34 -77q-95 -211 -240 -255q-34 -10 -69 -10q-75 0 -118 53q-25 31 -25 66q0 75 52 102q20 10 46 10q73 0 94 -81q8 -33 33 -33q33 0 73 136q12 42 19 81q33 160 33 281q0 65 -33 107q-21 26 -49 26q-95 0 -246 -225q-38 -57 -84 -239 q0 -1 -4 -17l-61 -244q-6 -23 -72 -23q-74 0 -111 22q-12 7 -12 19l254 1059h-184q-7 0 -7 14q0 35 22 74q10 18 18 18h178l8 38q7 33 7 62q0 81 -60 81q-19 0 -19 33l3 22q5 17 16 17q95 0 228 41q47 14 61 14q18 0 18 -20q0 -8 -2 -19l-63 -269h196q6 0 6 -13l-5 -30 l-14 -37q-12 -26 -22 -26h-186l-100 -424l16 -10q141 197 281 212q12 1 24 1q155 0 191 -152q10 -40 10 -90z" />
<glyph unicode="&#x128;" horiz-adv-x="754" d="M979 1669q-27 -71 -87 -129q-46 -45 -83 -45q-40 0 -135 25q-89 19 -103 20q-40 0 -82 -39q-15 -15 -24 -31q-3 -6 -11 -6l-14 2q-20 8 -21 23l1 6q31 82 91 140q45 44 85 44q34 0 121 -24q63 -21 117 -21q53 0 89 53q3 3 5 7q4 7 15 7l16 -3q20 -9 21 -23zM441 202 q-7 -25 -7 -52q0 -64 149 -64q7 0 7 -14.5t-9.5 -47t-20.5 -32.5q-77 8 -289 8t-288 -8q-8 0 -8 13t8.5 47t24.5 34q88 0 133 23.5t65 92.5l272 952q8 27 8 63q0 53 -140 53q-7 0 -7 13.5t11 47t22 33.5q58 -6 286 -6t286 6q8 0 8 -12.5t-10 -47t-25 -34.5 q-110 0 -148.5 -29.5t-54.5 -86.5z" />
<glyph unicode="&#x129;" horiz-adv-x="534" d="M732 1144q-27 -71 -87 -129q-46 -45 -83 -45q-40 0 -135 25q-89 19 -103 20q-40 0 -82 -39q-15 -15 -24 -31q-3 -6 -11 -6l-14 2q-20 8 -21 23l1 6q31 82 91 140q45 44 85 44q34 0 121 -24q63 -21 117 -21q53 0 89 53q3 3 5 7q4 7 15 7l16 -3q20 -9 21 -23zM328 159 q2 -16 23 -17h1q21 0 75 62q17 20 31 20t27.5 -18t14.5 -26l-2 -6q-173 -201 -289 -201q-65 0 -84 74q-7 24 -7 51q0 33 11 70l147 479l3 20q-1 21 -21.5 21t-93.5 -82q-3 -3 -15 -3t-26 19t-14 25t2 8q168 197 288 197q64 0 84 -72q5 -18 6 -40l-2 -43q-3 -18 -8 -35 l-147 -482z" />
<glyph unicode="&#x12a;" horiz-adv-x="754" d="M1045 1720q14 0 14 -19q0 -14 -8 -37q-17 -57 -41 -57h-633q-14 0 -14 21q0 14 6 36q14 56 39 56h637zM441 202q-7 -25 -7 -52q0 -64 149 -64q7 0 7 -14.5t-9.5 -47t-20.5 -32.5q-77 8 -289 8t-288 -8q-8 0 -8 13t8.5 47t24.5 34q88 0 133 23.5t65 92.5l272 952 q8 27 8 63q0 53 -140 53q-7 0 -7 13.5t11 47t22 33.5q58 -6 286 -6t286 6q8 0 8 -12.5t-10 -47t-25 -34.5q-110 0 -148.5 -29.5t-54.5 -86.5z" />
<glyph unicode="&#x12b;" horiz-adv-x="534" d="M662 1161q19 0 19 -20q0 -14 -9 -36q-20 -56 -47 -56h-446q-18 0 -18 23q0 13 5 33q17 56 45 56h451zM328 159q2 -16 23 -17h1q21 0 75 62q17 20 31 20t27.5 -18t14.5 -26l-2 -6q-173 -201 -289 -201q-65 0 -84 74q-7 24 -7 51q0 33 11 70l147 479l3 20q-1 21 -21.5 21 t-93.5 -82q-3 -3 -15 -3t-26 19t-14 25t2 8q168 197 288 197q64 0 84 -72q5 -18 6 -40l-2 -43q-3 -18 -8 -35l-147 -482z" />
<glyph unicode="&#x12c;" horiz-adv-x="754" d="M1046 1782q-50 -307 -348 -307q-191 0 -236 127q-12 34 -12 76q0 48 15 104q12 7 27 7h4l22 -4q4 -1 8 -3v-39l7 -33q31 -91 160 -99q12 -1 25 -1q153 0 238 124q15 23 27 48q15 7 31 7h5q11 0 21 -4q3 -2 6 -3zM441 202q-7 -25 -7 -52q0 -64 149 -64q7 0 7 -14.5 t-9.5 -47t-20.5 -32.5q-77 8 -289 8t-288 -8q-8 0 -8 13t8.5 47t24.5 34q88 0 133 23.5t65 92.5l272 952q8 27 8 63q0 53 -140 53q-7 0 -7 13.5t11 47t22 33.5q58 -6 286 -6t286 6q8 0 8 -12.5t-10 -47t-25 -34.5q-110 0 -148.5 -29.5t-54.5 -86.5z" />
<glyph unicode="&#x12d;" horiz-adv-x="534" d="M734 1242q-50 -307 -348 -307q-191 0 -236 127q-12 34 -12 76q0 48 15 104q12 7 27 7h4l22 -4q4 -1 8 -3v-39l7 -33q31 -91 160 -99q12 -1 25 -1q153 0 238 124q15 23 27 48q15 7 31 7h5q11 0 21 -4q3 -2 6 -3zM328 159q2 -16 23 -17h1q21 0 75 62q17 20 31 20t27.5 -18 t14.5 -26l-2 -6q-173 -201 -289 -201q-65 0 -84 74q-7 24 -7 51q0 33 11 70l147 479l3 20q-1 21 -21.5 21t-93.5 -82q-3 -3 -15 -3t-26 19t-14 25t2 8q168 197 288 197q64 0 84 -72q5 -18 6 -40l-2 -43q-3 -18 -8 -35l-147 -482z" />
<glyph unicode="&#x12e;" horiz-adv-x="754" d="M357 -380q-85 -107 -220 -107q-85 0 -130 41.5t-45 112.5q0 167 291 371h95q-211 -188 -211 -321q0 -41 31.5 -65t71.5 -24q59 0 101 29q16 -5 16 -30v-7zM441 202q-7 -25 -7 -52q0 -64 149 -64q7 0 7 -14.5t-9.5 -47t-20.5 -32.5q-77 8 -289 8t-288 -8q-8 0 -8 13 t8.5 47t24.5 34q88 0 133 23.5t65 92.5l272 952q8 27 8 63q0 53 -140 53q-7 0 -7 13.5t11 47t22 33.5q58 -6 286 -6t286 6q8 0 8 -12.5t-10 -47t-25 -34.5q-110 0 -148.5 -29.5t-54.5 -86.5z" />
<glyph unicode="&#x12f;" horiz-adv-x="534" d="M370 -380q-85 -107 -220 -107q-85 0 -130 41.5t-45 112.5q0 167 291 371h95q-211 -188 -211 -321q0 -41 31.5 -65t71.5 -24q59 0 101 29q16 -5 16 -30v-7zM332 180q-4 -14 -4 -22q0 -17 25.5 -17t88.5 80q11 14 38 -11q21 -17 21 -28q0 -5 -3 -8q-64 -79 -144 -140 t-135 -61q-101 0 -101 125q0 34 11 70l147 479q4 13 4 21q0 20 -19 20t-97 -82q-12 -12 -38 14q-18 17 -18 28q0 3 3 7q63 77 142 137t134 60q104 0 104 -126q0 -25 -12 -64zM635 1140q0 -54 -43.5 -92t-95.5 -38q-142 0 -142 152q0 50 44 89t98 39q139 0 139 -150z" />
<glyph unicode="&#x130;" horiz-adv-x="754" d="M565 1649q0 58 40.5 98.5t98.5 40.5t98.5 -40.5t40.5 -98.5t-40.5 -98.5t-98.5 -40.5t-98.5 40.5t-40.5 98.5zM441 202q-7 -25 -7 -52q0 -64 149 -64q7 0 7 -14.5t-9.5 -47t-20.5 -32.5q-77 8 -289 8t-288 -8q-8 0 -8 13t8.5 47t24.5 34q88 0 133 23.5t65 92.5l272 952 q8 27 8 63q0 53 -140 53q-7 0 -7 13.5t11 47t22 33.5q58 -6 286 -6t286 6q8 0 8 -12.5t-10 -47t-25 -34.5q-110 0 -148.5 -29.5t-54.5 -86.5z" />
<glyph unicode="&#x131;" horiz-adv-x="534" d="M328 159q2 -16 23 -17h1q21 0 75 62q17 20 31 20t27.5 -18t14.5 -26l-2 -6q-173 -201 -289 -201q-65 0 -84 74q-7 24 -7 51q0 33 11 70l147 479l3 20q-1 21 -21.5 21t-93.5 -82q-3 -3 -15 -3t-26 19t-14 25t2 8q168 197 288 197q64 0 84 -72q5 -18 6 -40l-2 -43 q-3 -18 -8 -35l-147 -482z" />
<glyph unicode="&#x134;" horiz-adv-x="658" d="M1001 1579q4 -4 4 -10q0 -10 -11.5 -27t-20.5 -17q-2 0 -4 1l-271 133q-19 9 -39 9t-41 -9l-301 -133q-3 -1 -6 -1q-14 0 -25.5 15.5t-11.5 25.5q0 8 7 13l350 271q25 19 50.5 19t51.5 -24zM442 273q-100 -349 -280.5 -520t-339.5 -171q-72 0 -116 28.5t-44 86.5t49 90 t105 32q58 0 97 -35.5t43 -87.5q84 56 125.5 167t233.5 775l149 516q7 23 7 41q0 75 -125 75q-8 0 -8 15t9.5 47t23.5 32q57 -6 269 -6t269 6q9 0 9 -13.5t-8 -47t-24 -33.5q-82 0 -123.5 -21t-63.5 -95z" />
<glyph unicode="&#x135;" horiz-adv-x="491" d="M701 1042v-12q-6 -20 -31 -31l-15 -3l-10 4q-1 1 -2 3l-129 197q-29 44 -44 44q-11 0 -40 -30l-18 -18l-201 -197q-4 -4 -12 -5l-15 4q-24 11 -29 30l1 11q1 2 2 3l307 407q23 30 58 30q31 0 40 -30zM465 666l-123 -523q-30 -144 -82 -293.5t-166 -276t-303 -126.5 q-41 0 -71.5 24.5t-30.5 67.5q0 41 31.5 66.5t72.5 25.5q31 0 68 -38.5t63 -38.5q35 0 71 56t60 161l209 876q10 41 -16 41q-34 0 -98 -84q-10 -13 -37 12t-17 35q166 201 285 201q63 0 81 -58q10 -30 10 -65q0 -30 -7 -63z" />
<glyph unicode="&#x136;" horiz-adv-x="1342" d="M819 -324q0 -86 -88 -142q-75 -48 -172 -48q-123 0 -151 59q-7 14 -7 31q0 42 35 61q14 7 31 7q30 0 75 -39q44 -35 64 -37q30 0 46 25q7 12 7 26q0 85 -105 138l-22 10l-6 16l89 130q69 -39 106 -67q98 -72 98 -170zM1081 191q35 -65 82.5 -85t112.5 -20q10 0 10 -20 t-6.5 -47t-18.5 -27q-92 8 -265.5 8t-265.5 -8q-10 0 -10 16t9.5 47t21.5 31q84 0 84 50q0 21 -23 68l-176 359q-17 36 -32.5 49.5t-28 13.5t-19.5 -24l-117 -400q-7 -24 -7 -52q0 -64 131 -64q7 0 7 -15t-9 -47t-22 -32q-112 8 -273 8t-281 -7q-9 0 -9 10.5t8 46.5t24 36 q93 0 134.5 23.5t61.5 92.5l277 952q7 25 7 50q0 66 -140 66q-9 0 -9 14t10.5 47t22.5 33q71 -6 273.5 -6t275.5 6q8 0 8 -13.5t-11 -47t-24 -33.5q-84 0 -121 -19.5t-59 -96.5l-114 -396q-2 -6 -2 -12t6 -6q21 0 82 55l397 362q63 57 63 86q0 27 -50 27q-8 0 -8 12.5 t12.5 47t24.5 34.5q70 -6 213.5 -6t200.5 6q9 0 9 -12.5t-10 -47t-25 -34.5q-94 0 -154 -30.5t-161 -118.5l-394 -344q-16 -14 -16 -25t12 -34z" />
<glyph unicode="&#x137;" horiz-adv-x="929" d="M614 -324q0 -86 -88 -142q-75 -48 -172 -48q-123 0 -151 59q-7 14 -7 31q0 42 35 61q14 7 31 7q30 0 75 -39q44 -35 64 -37q30 0 46 25q7 12 7 26q0 85 -105 138l-22 10l-6 16l89 130q69 -39 106 -67q98 -72 98 -170zM866 707q0 -76 -93 -163.5t-195 -139.5 q-13 -7 -13 -18t10 -26l119 -165q76 -105 131 -105q34 0 74 41q3 3 8 3q10 0 28 -15.5t18 -25.5q0 -4 -3 -7q-98 -113 -202 -113q-86 0 -132.5 28t-99.5 108l-137 210q-10 21 -35 21q-10 0 -16 -27l-76 -319q-6 -21 -104 -21q-92 0 -92 33q0 3 1 6l291 1202q9 39 9 57 q0 89 -64 89q-21 0 -20 36t20 36q84 0 182 27.5t107 27.5q24 0 16 -39l-174 -731l16 -8q49 57 125 100t142 43q59 0 109 -32t50 -113zM659 684q0 55 -36 55q-96 0 -203 -129q-31 -37 -37 -63l-29 -123q-2 -7 -2 -16q0 -15 26 -15q102 0 191.5 98t89.5 193z" />
<glyph unicode="&#x139;" horiz-adv-x="1317" d="M1064 1734l-534 -204q-16 -6 -28 -6q-16 0 -27 10.5t-11 25.5q0 22 35 41l508 279q8 4 17 4q21 0 46 -29.5t25 -68.5q0 -40 -31 -52zM1207 48q-11 -42 -22.5 -49t-84.5 -7q-100 0 -393 4t-414 4t-312 -8q-7 0 -7 12t11 47t26 35q125 0 153.5 33t41.5 78l275 957 q8 26 8 52q0 64 -143 64q-7 0 -7 14t11 47t22 33q58 -6 293 -6t292 6q6 0 6 -13t-10.5 -47t-22.5 -34q-122 0 -155.5 -26.5t-54.5 -89.5l-265 -913q-15 -47 -15 -81q0 -82 103 -82h7l317 14q257 11 338 290q5 17 54 17t44 -17z" />
<glyph unicode="&#x13a;" horiz-adv-x="497" d="M723 1868l-281 -271q-19 -18 -42 -18t-32 21q-2 5 -2 11q0 17 15 40l209 313q13 19 37 19q45 0 85 -43q24 -25 24 -45q0 -15 -13 -27zM296 195q-5 -21 -5 -29q0 -25 20 -25q33 0 92 86q4 6 11 6q11 0 30.5 -16t19.5 -27q0 -4 -3 -8q-158 -209 -281 -209q-95 0 -95 128 q0 26 7 55l248 1054q10 44 10 75q0 75 -61 75q-21 0 -20 36t20 36q84 0 180 27.5t104 27.5q21 0 21 -22q0 -8 -2 -17z" />
<glyph unicode="&#x13b;" horiz-adv-x="1317" d="M661 -324q0 -82 -77.5 -136t-182.5 -54q-158 0 -158 90q0 29 18.5 48.5t47.5 19.5q31 0 75 -38t64 -38q19 0 36 14.5t17 36.5q0 94 -127 148l-6 16l148 217h108l-78 -106q-12 -17 -9 -24t26 -24q98 -73 98 -170zM1207 48q-11 -42 -22.5 -49t-84.5 -7q-100 0 -393 4 t-414 4t-312 -8q-7 0 -7 12t11 47t26 35q125 0 153.5 33t41.5 78l275 957q8 26 8 52q0 64 -143 64q-7 0 -7 14t11 47t22 33q58 -6 293 -6t292 6q6 0 6 -13t-10.5 -47t-22.5 -34q-122 0 -155.5 -26.5t-54.5 -89.5l-265 -913q-15 -47 -15 -81q0 -82 103 -82h7l317 14 q257 11 338 290q5 17 54 17t44 -17z" />
<glyph unicode="&#x13c;" horiz-adv-x="497" d="M271 -324q0 -82 -77.5 -136t-182.5 -54q-158 0 -158 90q0 29 18.5 48.5t47.5 19.5q31 0 75 -38t64 -38q19 0 36 14.5t17 36.5q0 94 -127 148l-6 16l148 217h108l-78 -106q-12 -17 -9 -24t26 -24q98 -73 98 -170zM296 195q-5 -21 -5 -29q0 -25 20 -25q33 0 92 86q4 6 11 6 q11 0 30.5 -16t19.5 -27q0 -4 -3 -8q-158 -209 -281 -209q-95 0 -95 128q0 26 7 55l248 1054q10 44 10 75q0 75 -61 75q-21 0 -20 36t20 36q84 0 180 27.5t104 27.5q21 0 21 -22q0 -8 -2 -17z" />
<glyph unicode="&#x13d;" horiz-adv-x="1317" d="M382 1814q-4 4 -4 10q0 10 11.5 27.5t20.5 17.5q3 0 5 -1l270 -133q20 -10 40 -10t40 10l301 133q3 1 7 1q13 0 24.5 -16t11.5 -25q0 -8 -6 -14l-350 -270q-26 -19 -51.5 -19t-51.5 23zM1207 48q-11 -42 -22.5 -49t-84.5 -7q-100 0 -393 4t-414 4t-312 -8q-7 0 -7 12 t11 47t26 35q125 0 153.5 33t41.5 78l275 957q8 26 8 52q0 64 -143 64q-7 0 -7 14t11 47t22 33q58 -6 293 -6t292 6q6 0 6 -13t-10.5 -47t-22.5 -34q-122 0 -155.5 -26.5t-54.5 -89.5l-265 -913q-15 -47 -15 -81q0 -82 103 -82h7l317 14q257 11 338 290q5 17 54 17t44 -17z " />
<glyph unicode="&#x13e;" horiz-adv-x="791" d="M978 1257q-64 -191 -379 -346l-12 -3l-11 5q-14 9 -14 25q0 8 6 12q90 65 153 152q34 48 48 92l2 16q-2 15 -21 23q-45 12 -69 49q-15 22 -15 50q0 11 2 22q15 75 82 110q37 19 80 19q62 0 111 -49l20 -24q27 -41 27 -91q0 -30 -10 -62zM296 195q-5 -21 -5 -29 q0 -25 20 -25q33 0 92 86q4 6 11 6q11 0 30.5 -16t19.5 -27q0 -4 -3 -8q-158 -209 -281 -209q-95 0 -95 128q0 26 7 55l248 1054q10 44 10 75q0 75 -61 75q-21 0 -20 36t20 36q84 0 180 27.5t104 27.5q21 0 21 -22q0 -8 -2 -17z" />
<glyph unicode="&#x13f;" horiz-adv-x="1317" d="M1108 737.5q0 -65.5 -47.5 -111.5t-113 -46t-111.5 46t-46 111.5t46 112.5t111.5 47t113 -47t47.5 -112.5zM1207 48q-11 -42 -22.5 -49t-84.5 -7q-100 0 -393 4t-414 4t-312 -8q-7 0 -7 12t11 47t26 35q125 0 153.5 33t41.5 78l275 957q8 26 8 52q0 64 -143 64 q-7 0 -7 14t11 47t22 33q58 -6 293 -6t292 6q6 0 6 -13t-10.5 -47t-22.5 -34q-122 0 -155.5 -26.5t-54.5 -89.5l-265 -913q-15 -47 -15 -81q0 -82 103 -82h7l317 14q257 11 338 290q5 17 54 17t44 -17z" />
<glyph unicode="&#x140;" horiz-adv-x="958" d="M849 652.5q0 -65.5 -47.5 -111.5t-113 -46t-111.5 46t-46 111.5t46 112.5t111.5 47t113 -47t47.5 -112.5zM296 195q-5 -21 -5 -29q0 -25 20 -25q33 0 92 86q4 6 11 6q11 0 30.5 -16t19.5 -27q0 -4 -3 -8q-158 -209 -281 -209q-95 0 -95 128q0 26 7 55l248 1054 q10 44 10 75q0 75 -61 75q-21 0 -20 36t20 36q84 0 180 27.5t104 27.5q21 0 21 -22q0 -8 -2 -17z" />
<glyph unicode="&#x141;" horiz-adv-x="1316" d="M1302 382l-96 -334q-11 -39 -15 -44q-11 -11 -69 -12h-23l-707 8h-110q-111 0 -301 -8q-6 0 -6 12q0 31 20 67q9 15 16 15q87 0 120 14q54 22 75 97l84 290l-195 -109h-8q-19 6 -33 49q-5 17 -5 30q0 16 8 20l273 151l151 525q7 25 7 44q0 46 -47 62q-31 10 -96 10 q-6 0 -6 13l4 30q13 48 29 51q57 -6 290 -6q237 0 294 6q7 0 7 -14q0 -34 -19 -67q-8 -13 -14 -13q-88 0 -114 -6l-28 -11q-47 -24 -68 -99l-107 -367l252 140h8q8 -2 17 -16q19 -30 19 -62l-2 -16q-2 -4 -6 -6l-330 -183l-117 -402q-14 -51 -14 -83q0 -70 72 -79l38 -1 l317 14q233 10 322 245q8 21 15 45q4 17 53 17q45 0 45 -17z" />
<glyph unicode="&#x142;" horiz-adv-x="497" d="M702 836l-301 -195l-108 -461l-1 -20q2 -19 19 -19q25 0 74 65l16 21q4 4 11 4q21 0 42 -26q9 -10 9 -17q0 -4 -2 -6q-160 -209 -281 -209q-70 0 -89 79q-5 23 -5 48q0 28 6 56l80 338l-186 -121l-10 -2q-22 3 -42 39q-11 19 -11 34q0 11 7 15l275 178l135 573 q10 41 10 72q0 78 -61 78q-19 0 -19 33l3 22q5 17 16 17q92 0 222 40q48 15 62 15q22 0 22 -19l-3 -20l-156 -664l211 138l10 2q21 -4 41 -39q11 -20 11 -34l-3 -11q-2 -3 -4 -4z" />
<glyph unicode="&#x143;" horiz-adv-x="1478" d="M1459 1734l-534 -204q-16 -6 -28 -6q-16 0 -27 10.5t-11 25.5q0 22 35 41l508 279q8 4 17 4q21 0 46 -29.5t25 -68.5q0 -40 -31 -52zM1192 27q-16 -54 -58 -54t-57 29l-504 1006q-12 23 -22.5 23t-17.5 -24l-229 -805q-9 -32 -9 -56q0 -60 123 -60q8 0 8 -14.5t-10 -47 t-23 -32.5q-76 8 -207 8t-207 -8q-7 0 -7 12.5t8.5 47t23.5 34.5q96 0 136.5 26t58.5 90l254 894q16 55 16 103t-46 62q-32 9 -85 9q-6 0 -6 13.5t10.5 47t24.5 33.5q75 -5 165 -5t116 -14.5t42 -47.5l445 -902q15 -31 30 -31q17 0 27 35l221 755q8 26 8 45q0 71 -128 71 q-7 0 -7 13.5t11 47t25 33.5q57 -6 204 -6t204 6q9 0 9 -12.5t-10 -47t-25 -34.5q-104 0 -137 -28t-45 -72z" />
<glyph unicode="&#x144;" horiz-adv-x="1024" d="M1009 1252l-281 -271q-19 -18 -42 -18t-32 21q-2 5 -2 11q0 17 15 40l209 313q13 19 37 19q45 0 85 -43q24 -25 24 -45q0 -15 -13 -27zM831 232q-20 -65 -20 -71q0 -20 23 -20t98 84q3 4 8 4q10 0 30 -17.5t20 -28.5q0 -4 -3 -7q-162 -203 -297 -203q-90 0 -90 128 q0 33 10 67l125 412q31 102 31 131q0 32 -18 32q-99 0 -249.5 -264.5t-226.5 -482.5q-8 -23 -107 -23q-92 0 -92 21q0 2 1 4l194 623q11 35 11 45q0 22 -23 22t-92 -82q-4 -4 -9 -4q-11 0 -29 17.5t-18 28.5q0 4 3 7q171 197 282 197q88 0 88 -104q0 -37 -16 -82l-57 -162 l12 -4q201 352 391 352q143 0 143 -141q0 -71 -28 -164z" />
<glyph unicode="&#x145;" horiz-adv-x="1478" d="M934 -324q0 -86 -88 -142q-75 -48 -172 -48q-123 0 -151 59q-7 14 -7 31q0 42 35 61q14 7 31 7q30 0 75 -39q44 -35 64 -37q30 0 46 25q7 12 7 26q0 85 -105 138l-22 10l-6 16l89 130q69 -39 106 -67q98 -72 98 -170zM1192 27q-16 -54 -58 -54t-57 29l-504 1006 q-12 23 -22.5 23t-17.5 -24l-229 -805q-9 -32 -9 -56q0 -60 123 -60q8 0 8 -14.5t-10 -47t-23 -32.5q-76 8 -207 8t-207 -8q-7 0 -7 12.5t8.5 47t23.5 34.5q96 0 136.5 26t58.5 90l254 894q16 55 16 103t-46 62q-32 9 -85 9q-6 0 -6 13.5t10.5 47t24.5 33.5q75 -5 165 -5 t116 -14.5t42 -47.5l445 -902q15 -31 30 -31q17 0 27 35l221 755q8 26 8 45q0 71 -128 71q-7 0 -7 13.5t11 47t25 33.5q57 -6 204 -6t204 6q9 0 9 -12.5t-10 -47t-25 -34.5q-104 0 -137 -28t-45 -72z" />
<glyph unicode="&#x146;" horiz-adv-x="1024" d="M639 -324q0 -86 -88 -142q-75 -48 -172 -48q-123 0 -151 59q-7 14 -7 31q0 42 35 61q14 7 31 7q30 0 75 -39q44 -35 64 -37q30 0 46 25q7 12 7 26q0 85 -105 138l-22 10l-6 16l89 130q69 -39 106 -67q98 -72 98 -170zM831 232q-20 -65 -20 -71q0 -20 23 -20t98 84 q3 4 8 4q10 0 30 -17.5t20 -28.5q0 -4 -3 -7q-162 -203 -297 -203q-90 0 -90 128q0 33 10 67l125 412q31 102 31 131q0 32 -18 32q-99 0 -249.5 -264.5t-226.5 -482.5q-8 -23 -107 -23q-92 0 -92 21q0 2 1 4l194 623q11 35 11 45q0 22 -23 22t-92 -82q-4 -4 -9 -4 q-11 0 -29 17.5t-18 28.5q0 4 3 7q171 197 282 197q88 0 88 -104q0 -37 -16 -82l-57 -162l12 -4q201 352 391 352q143 0 143 -141q0 -71 -28 -164z" />
<glyph unicode="&#x147;" horiz-adv-x="1478" d="M692 1814q-4 4 -4 10q0 10 11.5 27.5t20.5 17.5q3 0 5 -1l270 -133q20 -10 40 -10t40 10l301 133q3 1 7 1q13 0 24.5 -16t11.5 -25q0 -8 -6 -14l-350 -270q-26 -19 -51.5 -19t-51.5 23zM1192 27q-16 -54 -58 -54t-57 29l-504 1006q-12 23 -22.5 23t-17.5 -24l-229 -805 q-9 -32 -9 -56q0 -60 123 -60q8 0 8 -14.5t-10 -47t-23 -32.5q-76 8 -207 8t-207 -8q-7 0 -7 12.5t8.5 47t23.5 34.5q96 0 136.5 26t58.5 90l254 894q16 55 16 103t-46 62q-32 9 -85 9q-6 0 -6 13.5t10.5 47t24.5 33.5q75 -5 165 -5t116 -14.5t42 -47.5l445 -902 q15 -31 30 -31q17 0 27 35l221 755q8 26 8 45q0 71 -128 71q-7 0 -7 13.5t11 47t25 33.5q57 -6 204 -6t204 6q9 0 9 -12.5t-10 -47t-25 -34.5q-104 0 -137 -28t-45 -72z" />
<glyph unicode="&#x148;" horiz-adv-x="1024" d="M1081 1363l-307 -408q-22 -29 -57 -29l-19 3q-17 7 -23 26l-137 408v12q7 21 31 31l15 3q7 -1 11 -7l129 -197q29 -44 44 -44l12 4q7 3 47 44l200 197q5 4 12 4l15 -3q22 -11 29 -28v-11zM831 232q-20 -65 -20 -71q0 -20 23 -20t98 84q3 4 8 4q10 0 30 -17.5t20 -28.5 q0 -4 -3 -7q-162 -203 -297 -203q-90 0 -90 128q0 33 10 67l125 412q31 102 31 131q0 32 -18 32q-99 0 -249.5 -264.5t-226.5 -482.5q-8 -23 -107 -23q-92 0 -92 21q0 2 1 4l194 623q11 35 11 45q0 22 -23 22t-92 -82q-4 -4 -9 -4q-11 0 -29 17.5t-18 28.5q0 4 3 7 q171 197 282 197q88 0 88 -104q0 -37 -16 -82l-57 -162l12 -4q201 352 391 352q143 0 143 -141q0 -71 -28 -164z" />
<glyph unicode="&#x149;" horiz-adv-x="1024" d="M610 1257q-64 -191 -379 -346l-12 -3l-11 5q-14 9 -14 25q0 8 6 12q90 65 153 152q34 48 48 92l2 16q-2 15 -21 23q-45 12 -69 49q-15 22 -15 50q0 11 2 22q15 75 82 110q37 19 80 19q62 0 111 -49l20 -24q27 -41 27 -91q0 -30 -10 -62zM831 232q-20 -65 -20 -71 q0 -20 23 -20t98 84q3 4 8 4q10 0 30 -17.5t20 -28.5q0 -4 -3 -7q-162 -203 -297 -203q-90 0 -90 128q0 33 10 67l125 412q31 102 31 131q0 32 -18 32q-99 0 -249.5 -264.5t-226.5 -482.5q-8 -23 -107 -23q-92 0 -92 21q0 2 1 4l194 623q11 35 11 45q0 22 -23 22t-92 -82 q-4 -4 -9 -4q-11 0 -29 17.5t-18 28.5q0 4 3 7q171 197 282 197q88 0 88 -104q0 -37 -16 -82l-57 -162l12 -4q201 352 391 352q143 0 143 -141q0 -71 -28 -164z" />
<glyph unicode="&#x14a;" horiz-adv-x="1482" d="M1310 76q-2 -7 -4 -13l-52 -174q-30 -103 -129 -222q-22 -26 -46 -51q-131 -134 -298 -134h-5q-58 1 -85 35q-17 21 -17 48q0 15 5 32q8 26 22 44t33 29q29 17 64 17h4q54 -2 87 -43q19 -23 31 -29l4 -1q40 2 101 66q86 91 113 185l51 178l-537 971q-9 16 -16 16 q-13 0 -19 -22l-231 -806q-6 -21 -6 -38q0 -78 124 -78q15 0 1 -46q-13 -48 -28 -47q-103 7 -198 7q-102 0 -216 -7q-8 -1 -8 11t7 35q14 47 28 47q159 0 192 116l273 954q5 18 5 34q0 80 -145 80q-13 0 0 46q14 47 27 47q48 -5 175 -5q84 0 98 -2q56 -9 83 -57l463 -867 q6 -14 20 -14q24 0 33 31l201 703q6 21 6 39q0 79 -125 79q-15 0 -2 46q14 47 29 47q100 -5 196 -5q100 0 195 5q7 0 7 -12t-6 -34q-14 -47 -28 -47q-135 0 -169 -118z" />
<glyph unicode="&#x14b;" horiz-adv-x="1024" d="M954 711q1 -16 -6 -45l-123 -523q-55 -234 -63 -257q-67 -191 -173 -306q-124 -133 -295 -133h-14q-56 0 -86 40q-16 22 -16 52q0 57 56 82q23 10 48 10q32 0 67 -36q31 -33 47 -38q8 -3 17 -3q44 0 86 86q27 55 45 131l209 876l13 64q6 29 -18 32h-7q-83 0 -221 -230 l-37 -62q-96 -160 -211 -455q-9 -23 -63 -23q-72 0 -111 24q-19 12 -17 21l1 5l186 598q11 35 11 45q0 21 -19 22h-1q-19 0 -83 -69l-12 -13q-3 -3 -8 -3q-19 0 -39 27q-8 11 -8 19q0 4 2 6q122 143 210 181q37 16 72 16q74 0 84 -66l5 -33v-5q0 -34 -17 -82l-57 -162l12 -4 q103 194 231 289q85 63 160 63q135 0 142 -123z" />
<glyph unicode="&#x14c;" horiz-adv-x="1512" d="M1454 1720q14 0 14 -19q0 -14 -8 -37q-17 -57 -41 -57h-633q-14 0 -14 21q0 14 6 36q14 56 39 56h637zM1568 875q0 -343 -261 -622.5t-635 -279.5q-206 0 -350 133.5t-144 344.5q0 345 263 639.5t638 294.5q241 0 365 -149t124 -361zM1331 874q0 176 -85 301.5 t-204 125.5q-148 0 -284 -106.5t-236.5 -299.5t-100.5 -421q0 -188 85.5 -299.5t207.5 -111.5q178 0 312 116.5t219.5 308.5t85.5 386z" />
<glyph unicode="&#x14d;" horiz-adv-x="948" d="M951 1161q19 0 19 -20q0 -14 -9 -36q-20 -56 -47 -56h-446q-18 0 -18 23q0 13 5 33q17 56 45 56h451zM909 528q0 -209 -148.5 -382t-369.5 -173q-139 0 -208.5 97.5t-69.5 244.5q0 191 162.5 364t355.5 173q139 0 208.5 -90t69.5 -234zM731 629q0 119 -90 119 q-105 0 -225.5 -201t-120.5 -344q0 -117 96 -117q95 0 217.5 201t122.5 342z" />
<glyph unicode="&#x14e;" horiz-adv-x="1512" d="M1451 1782q-50 -307 -348 -307q-191 0 -236 127q-12 34 -12 76q0 48 15 104q12 7 27 7h4l22 -4q4 -1 8 -3v-39l7 -33q31 -91 160 -99q12 -1 25 -1q153 0 238 124q15 23 27 48q15 7 31 7h5q11 0 21 -4q3 -2 6 -3zM1568 875q0 -343 -261 -622.5t-635 -279.5 q-206 0 -350 133.5t-144 344.5q0 345 263 639.5t638 294.5q241 0 365 -149t124 -361zM1331 874q0 176 -85 301.5t-204 125.5q-148 0 -284 -106.5t-236.5 -299.5t-100.5 -421q0 -188 85.5 -299.5t207.5 -111.5q178 0 312 116.5t219.5 308.5t85.5 386z" />
<glyph unicode="&#x14f;" horiz-adv-x="948" d="M1013 1242q-50 -307 -348 -307q-191 0 -236 127q-12 34 -12 76q0 48 15 104q12 7 27 7h4l22 -4q4 -1 8 -3v-39l7 -33q31 -91 160 -99q12 -1 25 -1q153 0 238 124q15 23 27 48q15 7 31 7h5q11 0 21 -4q3 -2 6 -3zM909 528q0 -209 -148.5 -382t-369.5 -173 q-139 0 -208.5 97.5t-69.5 244.5q0 191 162.5 364t355.5 173q139 0 208.5 -90t69.5 -234zM731 629q0 119 -90 119q-105 0 -225.5 -201t-120.5 -344q0 -117 96 -117q95 0 217.5 201t122.5 342z" />
<glyph unicode="&#x150;" horiz-adv-x="1512" d="M1231 1743l-281 -271q-19 -18 -42 -18t-32 21q-2 5 -2 11q0 17 15 40l209 313q13 19 37 19q45 0 85 -43q24 -25 24 -45q0 -15 -13 -27zM1571 1743l-281 -271q-19 -18 -42 -18t-32 21q-2 5 -2 11q0 17 15 40l209 313q13 19 37 19q45 0 85 -43q24 -25 24 -45q0 -15 -13 -27 zM1568 875q0 -343 -261 -622.5t-635 -279.5q-206 0 -350 133.5t-144 344.5q0 345 263 639.5t638 294.5q241 0 365 -149t124 -361zM1331 874q0 176 -85 301.5t-204 125.5q-148 0 -284 -106.5t-236.5 -299.5t-100.5 -421q0 -188 85.5 -299.5t207.5 -111.5q178 0 312 116.5 t219.5 308.5t85.5 386z" />
<glyph unicode="&#x151;" horiz-adv-x="948" d="M796 1218l-281 -271q-19 -18 -42 -18t-32 21q-2 5 -2 11q0 17 15 40l209 313q13 19 37 19q45 0 85 -43q24 -25 24 -45q0 -15 -13 -27zM1136 1218l-281 -271q-19 -18 -42 -18t-32 21q-2 5 -2 11q0 17 15 40l209 313q13 19 37 19q45 0 85 -43q24 -25 24 -45q0 -15 -13 -27z M909 528q0 -209 -148.5 -382t-369.5 -173q-139 0 -208.5 97.5t-69.5 244.5q0 191 162.5 364t355.5 173q139 0 208.5 -90t69.5 -234zM731 629q0 119 -90 119q-105 0 -225.5 -201t-120.5 -344q0 -117 96 -117q95 0 217.5 201t122.5 342z" />
<glyph unicode="&#x152;" horiz-adv-x="2097" d="M2243 1300l-84 -288q-6 -19 -50 -19l-28 3q-15 4 -16 14q6 32 6 61q0 109 -77 159l-30 15l-35 9q-12 2 -24 2l-269 8q-33 0 -42 -19l-6 -14l-158 -508l-3 -19q2 -13 24 -13h177q72 0 93 28q6 9 10 20l48 145q6 17 46 18l28 -4q16 -4 16 -14q-12 -29 -79 -246 q-46 -156 -59 -220q-4 -16 -41 -16t-43 16l35 128l2 20q-2 19 -25 26l-32 5h-14h-201q-20 0 -28 -26l-103 -348q-11 -36 -11 -64q0 -78 83 -81h16l290 12q104 4 191 134q46 69 76 158q6 17 53 17q18 0 30 -4q13 -4 12 -13l-101 -361q-7 -27 -58 -29h-49l-539 8h-154 q-63 0 -335 -10q-71 -3 -125 -3q-124 0 -244 62q-193 100 -230 309q-8 46 -8 96q0 215 94 396q81 155 228 290q213 196 463 219q43 4 93 4l419 -10h4l702 4h3q55 0 62 -18l1 -17zM1328 1157q4 14 5 27q0 20 -12 37q-7 8 -16 15q-57 45 -252 45h-19h-1q-73 0 -114 -11 q-81 -22 -173 -90q-188 -144 -278 -403q-54 -155 -54 -300q0 -202 104 -317q77 -84 175 -84q132 0 153 2q133 11 181 95q12 20 19 45z" />
<glyph unicode="&#x153;" horiz-adv-x="1206" d="M1233 713q0 -164 -261 -282q-101 -46 -218 -75q-17 -79 -17 -104q0 -148 92 -148q63 0 161 73q37 28 40 30l10 1q22 -3 36 -24q5 -7 5 -13l-2 -7q-142 -191 -307 -191q-140 0 -199 86q-126 -86 -256 -86q-155 0 -221 149q-37 83 -37 191q0 152 107 303q101 142 241 203 q76 33 150 33q93 0 161 -60l24 -25l20 -30q7 -13 12 -26q148 141 291 141q152 0 167 -116q1 -11 1 -23zM1028 688q0 52 -27 64q-6 2 -12 2q-93 0 -189 -250q-10 -26 -20 -55q102 32 176 99q72 67 72 140zM637 573q0 154 -57 172l-19 3q-68 0 -161 -127q-95 -129 -140 -276 q-21 -69 -21 -120q0 -120 72 -137q10 -2 21 -2q65 0 154 120q92 124 133 262q18 60 18 105z" />
<glyph unicode="&#x154;" horiz-adv-x="1384" d="M1319 1734l-534 -204q-16 -6 -28 -6q-16 0 -27 10.5t-11 25.5q0 22 35 41l508 279q8 4 17 4q21 0 46 -29.5t25 -68.5q0 -40 -31 -52zM1400 1057q0 -146 -112.5 -261.5t-305.5 -169.5q-20 -6 -18 -26t3 -27q33 -144 173 -388q87 -153 191 -153q16 0 15 -26q-1 -25 -20 -27 q-51 -4 -96 -4q-135 0 -206.5 37.5t-122.5 97.5t-76 124l-97 248q-27 65 -53 90q-16 14 -44.5 14t-47 3t-27.5 -4q-8 -6 -12 -20l-110 -363q-8 -25 -8 -50q0 -66 157 -66q7 0 7 -14t-9.5 -47t-22.5 -33q-77 8 -288 8t-287 -8q-8 0 -8 13t8.5 47t24.5 34q86 0 128 20t65 96 l286 955q8 27 8 43q0 64 -149 64q-8 0 -8 14.5t9.5 47t23.5 32.5q143 -6 230 -6t191 3t236 3q133 0 252.5 -77.5t119.5 -223.5zM1136 1062q0 87 -73 151.5t-261 64.5q-36 0 -42.5 -8.5t-8.5 -14.5l-168 -552q-2 -6 -2 -11.5t5 -10.5q17 -17 94 -17q180 0 318 114t138 284z " />
<glyph unicode="&#x155;" horiz-adv-x="768" d="M819 1218l-281 -271q-19 -18 -42 -18t-32 21q-2 5 -2 11q0 17 15 40l209 313q13 19 37 19q45 0 85 -43q24 -25 24 -45q0 -15 -13 -27zM850 739q0 -49 -24.5 -76.5t-65.5 -27.5q-45 0 -77 28.5t-56 28.5q-58 0 -150 -195t-172 -501q-6 -23 -101 -23t-95 35v6l122 584 q13 62 13 71q0 19 -22.5 19t-90.5 -92q-3 -5 -10 -5q-10 0 -28 14q-23 17 -23 28q0 3 2 6q90 118 160 165.5t126 47.5q84 0 84 -96q0 -36 -8 -72l-26 -117l12 -4q143 289 293 289q55 0 96 -32t41 -81z" />
<glyph unicode="&#x156;" horiz-adv-x="1384" d="M938 -324q0 -86 -88 -142q-75 -48 -172 -48q-123 0 -151 59q-7 14 -7 31q0 42 35 61q14 7 31 7q30 0 75 -39q44 -35 64 -37q30 0 46 25q7 12 7 26q0 85 -105 138l-22 10l-6 16l89 130q69 -39 106 -67q98 -72 98 -170zM1400 1057q0 -146 -112.5 -261.5t-305.5 -169.5 q-20 -6 -18 -26t3 -27q33 -144 173 -388q87 -153 191 -153q16 0 15 -26q-1 -25 -20 -27q-51 -4 -96 -4q-135 0 -206.5 37.5t-122.5 97.5t-76 124l-97 248q-27 65 -53 90q-16 14 -44.5 14t-47 3t-27.5 -4q-8 -6 -12 -20l-110 -363q-8 -25 -8 -50q0 -66 157 -66q7 0 7 -14 t-9.5 -47t-22.5 -33q-77 8 -288 8t-287 -8q-8 0 -8 13t8.5 47t24.5 34q86 0 128 20t65 96l286 955q8 27 8 43q0 64 -149 64q-8 0 -8 14.5t9.5 47t23.5 32.5q143 -6 230 -6t191 3t236 3q133 0 252.5 -77.5t119.5 -223.5zM1136 1062q0 87 -73 151.5t-261 64.5 q-36 0 -42.5 -8.5t-8.5 -14.5l-168 -552q-2 -6 -2 -11.5t5 -10.5q17 -17 94 -17q180 0 318 114t138 284z" />
<glyph unicode="&#x157;" horiz-adv-x="768" d="M302 -324q0 -82 -77.5 -136t-182.5 -54q-158 0 -158 90q0 29 18.5 48.5t47.5 19.5q31 0 75 -38t64 -38q19 0 36 14.5t17 36.5q0 94 -127 148l-6 16l148 217h108l-78 -106q-12 -17 -9 -24t26 -24q98 -73 98 -170zM850 739q0 -49 -24.5 -76.5t-65.5 -27.5q-45 0 -77 28.5 t-56 28.5q-58 0 -150 -195t-172 -501q-6 -23 -101 -23t-95 35v6l122 584q13 62 13 71q0 19 -22.5 19t-90.5 -92q-3 -5 -10 -5q-10 0 -28 14q-23 17 -23 28q0 3 2 6q90 118 160 165.5t126 47.5q84 0 84 -96q0 -36 -8 -72l-26 -117l12 -4q143 289 293 289q55 0 96 -32t41 -81z " />
<glyph unicode="&#x158;" horiz-adv-x="1384" d="M587 1814q-4 4 -4 10q0 10 11.5 27.5t20.5 17.5q3 0 5 -1l270 -133q20 -10 40 -10t40 10l301 133q3 1 7 1q13 0 24.5 -16t11.5 -25q0 -8 -6 -14l-350 -270q-26 -19 -51.5 -19t-51.5 23zM1400 1057q0 -146 -112.5 -261.5t-305.5 -169.5q-20 -6 -18 -26t3 -27 q33 -144 173 -388q87 -153 191 -153q16 0 15 -26q-1 -25 -20 -27q-51 -4 -96 -4q-135 0 -206.5 37.5t-122.5 97.5t-76 124l-97 248q-27 65 -53 90q-16 14 -44.5 14t-47 3t-27.5 -4q-8 -6 -12 -20l-110 -363q-8 -25 -8 -50q0 -66 157 -66q7 0 7 -14t-9.5 -47t-22.5 -33 q-77 8 -288 8t-287 -8q-8 0 -8 13t8.5 47t24.5 34q86 0 128 20t65 96l286 955q8 27 8 43q0 64 -149 64q-8 0 -8 14.5t9.5 47t23.5 32.5q143 -6 230 -6t191 3t236 3q133 0 252.5 -77.5t119.5 -223.5zM1136 1062q0 87 -73 151.5t-261 64.5q-36 0 -42.5 -8.5t-8.5 -14.5 l-168 -552q-2 -6 -2 -11.5t5 -10.5q17 -17 94 -17q180 0 318 114t138 284z" />
<glyph unicode="&#x159;" horiz-adv-x="768" d="M935 1363l-307 -408q-22 -29 -57 -29l-19 3q-17 7 -23 26l-137 408v12q7 21 31 31l15 3q7 -1 11 -7l129 -197q29 -44 44 -44l12 4q7 3 47 44l200 197q5 4 12 4l15 -3q22 -11 29 -28v-11zM850 739q0 -49 -24.5 -76.5t-65.5 -27.5q-45 0 -77 28.5t-56 28.5q-58 0 -150 -195 t-172 -501q-6 -23 -101 -23t-95 35v6l122 584q13 62 13 71q0 19 -22.5 19t-90.5 -92q-3 -5 -10 -5q-10 0 -28 14q-23 17 -23 28q0 3 2 6q90 118 160 165.5t126 47.5q84 0 84 -96q0 -36 -8 -72l-26 -117l12 -4q143 289 293 289q55 0 96 -32t41 -81z" />
<glyph unicode="&#x15a;" horiz-adv-x="1042" d="M1381 1734l-534 -204q-16 -6 -28 -6q-16 0 -27 10.5t-11 25.5q0 22 35 41l508 279q8 4 17 4q21 0 46 -29.5t25 -68.5q0 -40 -31 -52zM1037 533q0 -227 -173 -393.5t-396 -166.5q-120 0 -186 19t-177 79v46q0 144 36 267q7 24 55.5 24t44.5 -20q-7 -32 -7 -65 q0 -99 63.5 -179.5t214.5 -80.5q105 0 192 102t87 213q0 122 -177 194l-91 36q-227 92 -227 276q0 205 160 353t384 148q116 0 185 -15.5t119 -15.5v-15q0 -122 -30 -269q-4 -20 -51.5 -20t-47.5 16v27q-4 208 -213 208q-108 0 -191.5 -96t-83.5 -204q0 -107 166 -161 l105 -34q239 -77 239 -273z" />
<glyph unicode="&#x15b;" horiz-adv-x="618" d="M749 1218l-281 -271q-19 -18 -42 -18t-32 21q-2 5 -2 11q0 17 15 40l209 313q13 19 37 19q45 0 85 -43q24 -25 24 -45q0 -15 -13 -27zM637 707q0 -31 -25.5 -60t-54.5 -29q-78 0 -113.5 63.5t-97.5 63.5q-22 0 -36.5 -15t-14.5 -36q0 -52 124 -193t124 -251t-93.5 -193.5 t-234.5 -83.5q-74 0 -124 45t-50 89q0 42 23 75t69 33q73 0 114 -59.5t98 -59.5q63 0 63 64q0 44 -116 172t-116 243q0 129 83 203t208 74q68 0 119 -48t51 -97z" />
<glyph unicode="&#x15c;" horiz-adv-x="1042" d="M1240 1579q4 -4 4 -10q0 -10 -11.5 -27t-20.5 -17q-2 0 -4 1l-271 133q-19 9 -39 9t-41 -9l-301 -133q-3 -1 -6 -1q-14 0 -25.5 15.5t-11.5 25.5q0 8 7 13l350 271q25 19 50.5 19t51.5 -24zM1037 533q0 -227 -173 -393.5t-396 -166.5q-120 0 -186 19t-177 79v46 q0 144 36 267q7 24 55.5 24t44.5 -20q-7 -32 -7 -65q0 -99 63.5 -179.5t214.5 -80.5q105 0 192 102t87 213q0 122 -177 194l-91 36q-227 92 -227 276q0 205 160 353t384 148q116 0 185 -15.5t119 -15.5v-15q0 -122 -30 -269q-4 -20 -51.5 -20t-47.5 16v27q-4 208 -213 208 q-108 0 -191.5 -96t-83.5 -204q0 -107 166 -161l105 -34q239 -77 239 -273z" />
<glyph unicode="&#x15d;" horiz-adv-x="618" d="M728 999v-12q-6 -20 -31 -31l-15 -3l-10 4q-1 1 -2 3l-129 197q-29 44 -44 44q-11 0 -40 -30l-18 -18l-201 -197q-4 -4 -12 -5l-15 4q-24 11 -29 30l1 11q1 2 2 3l307 407q23 30 58 30q31 0 40 -30zM637 707q0 -31 -25.5 -60t-54.5 -29q-78 0 -113.5 63.5t-97.5 63.5 q-22 0 -36.5 -15t-14.5 -36q0 -52 124 -193t124 -251t-93.5 -193.5t-234.5 -83.5q-74 0 -124 45t-50 89q0 42 23 75t69 33q73 0 114 -59.5t98 -59.5q63 0 63 64q0 44 -116 172t-116 243q0 129 83 203t208 74q68 0 119 -48t51 -97z" />
<glyph unicode="&#x15e;" horiz-adv-x="1042" d="M518 -324q0 -82 -77.5 -136t-182.5 -54q-158 0 -158 90q0 29 18.5 48.5t47.5 19.5q31 0 75 -38t64 -38q19 0 36 14.5t17 36.5q0 94 -127 148l-6 16l148 217h108l-78 -106q-12 -17 -9 -24t26 -24q98 -73 98 -170zM1037 533q0 -227 -173 -393.5t-396 -166.5q-120 0 -186 19 t-177 79v46q0 144 36 267q7 24 55.5 24t44.5 -20q-7 -32 -7 -65q0 -99 63.5 -179.5t214.5 -80.5q105 0 192 102t87 213q0 122 -177 194l-91 36q-227 92 -227 276q0 205 160 353t384 148q116 0 185 -15.5t119 -15.5v-15q0 -122 -30 -269q-4 -20 -51.5 -20t-47.5 16v27 q-4 208 -213 208q-108 0 -191.5 -96t-83.5 -204q0 -107 166 -161l105 -34q239 -77 239 -273z" />
<glyph unicode="&#x15f;" horiz-adv-x="618" d="M297 -324q0 -82 -77.5 -136t-182.5 -54q-158 0 -158 90q0 29 18.5 48.5t47.5 19.5q31 0 75 -38t64 -38q19 0 36 14.5t17 36.5q0 94 -127 148l-6 16l148 217h108l-78 -106q-12 -17 -9 -24t26 -24q98 -73 98 -170zM637 707q0 -31 -25.5 -60t-54.5 -29q-78 0 -113.5 63.5 t-97.5 63.5q-22 0 -36.5 -15t-14.5 -36q0 -52 124 -193t124 -251t-93.5 -193.5t-234.5 -83.5q-74 0 -124 45t-50 89q0 42 23 75t69 33q73 0 114 -59.5t98 -59.5q63 0 63 64q0 44 -116 172t-116 243q0 129 83 203t208 74q68 0 119 -48t51 -97z" />
<glyph unicode="&#x160;" horiz-adv-x="1042" d="M572 1814q-4 4 -4 10q0 10 11.5 27.5t20.5 17.5q3 0 5 -1l270 -133q20 -10 40 -10t40 10l301 133q3 1 7 1q13 0 24.5 -16t11.5 -25q0 -8 -6 -14l-350 -270q-26 -19 -51.5 -19t-51.5 23zM1037 533q0 -227 -173 -393.5t-396 -166.5q-120 0 -186 19t-177 79v46q0 144 36 267 q7 24 55.5 24t44.5 -20q-7 -32 -7 -65q0 -99 63.5 -179.5t214.5 -80.5q105 0 192 102t87 213q0 122 -177 194l-91 36q-227 92 -227 276q0 205 160 353t384 148q116 0 185 -15.5t119 -15.5v-15q0 -122 -30 -269q-4 -20 -51.5 -20t-47.5 16v27q-4 208 -213 208 q-108 0 -191.5 -96t-83.5 -204q0 -107 166 -161l105 -34q239 -77 239 -273z" />
<glyph unicode="&#x161;" horiz-adv-x="618" d="M805 1363l-307 -408q-22 -29 -57 -29l-19 3q-17 7 -23 26l-137 408v12q7 21 31 31l15 3q7 -1 11 -7l129 -197q29 -44 44 -44l12 4q7 3 47 44l200 197q5 4 12 4l15 -3q22 -11 29 -28v-11zM637 707q0 -31 -25.5 -60t-54.5 -29q-78 0 -113.5 63.5t-97.5 63.5 q-22 0 -36.5 -15t-14.5 -36q0 -52 124 -193t124 -251t-93.5 -193.5t-234.5 -83.5q-74 0 -124 45t-50 89q0 42 23 75t69 33q73 0 114 -59.5t98 -59.5q63 0 63 64q0 44 -116 172t-116 243q0 129 83 203t208 74q68 0 119 -48t51 -97z" />
<glyph unicode="&#x162;" horiz-adv-x="1288" d="M659 -324q0 -82 -77.5 -136t-182.5 -54q-158 0 -158 90q0 29 18.5 48.5t47.5 19.5q31 0 75 -38t64 -38q19 0 36 14.5t17 36.5q0 94 -127 148l-6 16l148 217h108l-78 -106q-12 -17 -9 -24t26 -24q98 -73 98 -170zM488 202l302 1027q16 34 -25 35h-95q-248 0 -326 -257 q-5 -17 -56 -17t-46 17l94 312q8 26 23 31t135 5q120 -3 470 -3t500 5q70 0 70 -29q0 -4 -2 -9l-92 -312q-4 -16 -54.5 -16t-45.5 16q16 53 16 93q0 54 -39 109t-150 55h-109q-24 0 -33 -29l-304 -1033q-6 -20 -6 -43.5t24.5 -48t123.5 -24.5q7 0 7 -15.5t-8 -46.5t-24 -31 q-96 7 -287 7t-293 -7q-7 0 -7 21.5t12.5 46.5t18.5 25q92 0 138 20t68 96z" />
<glyph unicode="&#x163;" horiz-adv-x="604" d="M321 -324q0 -82 -77.5 -136t-182.5 -54q-158 0 -158 90q0 29 18.5 48.5t47.5 19.5q31 0 75 -38t64 -38q19 0 36 14.5t17 36.5q0 94 -127 148l-6 16l148 217h108l-78 -106q-12 -17 -9 -24t26 -24q98 -73 98 -170zM311 233q-14 -45 -14 -71q0 -37 27 -37q64 0 227 192 q3 4 8 4q10 0 27 -17q25 -25 16 -38q-102 -144 -194.5 -218.5t-198.5 -74.5q-59 0 -92 41t-33 90q0 44 10 76l166 533h-160q-16 0 -11 37q5 38 30 43l176 36l139 197q5 7 29 7q80 0 80 -38q0 -8 -3 -15l-51 -161h240q9 0 9 -15t-8.5 -53t-22.5 -38h-248z" />
<glyph unicode="&#x164;" horiz-adv-x="1288" d="M649 1814q-4 4 -4 10q0 10 11.5 27.5t20.5 17.5q3 0 5 -1l270 -133q20 -10 40 -10t40 10l301 133q3 1 7 1q13 0 24.5 -16t11.5 -25q0 -8 -6 -14l-350 -270q-26 -19 -51.5 -19t-51.5 23zM488 202l302 1027q16 34 -25 35h-95q-248 0 -326 -257q-5 -17 -56 -17t-46 17 l94 312q8 26 23 31t135 5q120 -3 470 -3t500 5q70 0 70 -29q0 -4 -2 -9l-92 -312q-4 -16 -54.5 -16t-45.5 16q16 53 16 93q0 54 -39 109t-150 55h-109q-24 0 -33 -29l-304 -1033q-6 -20 -6 -43.5t24.5 -48t123.5 -24.5q7 0 7 -15.5t-8 -46.5t-24 -31q-96 7 -287 7t-293 -7 q-7 0 -7 21.5t12.5 46.5t18.5 25q92 0 138 20t68 96z" />
<glyph unicode="&#x165;" horiz-adv-x="604" d="M1116 1257q-64 -191 -379 -346l-12 -3l-11 5q-14 9 -14 25q0 8 6 12q90 65 153 152q34 48 48 92l2 16q-2 15 -21 23q-45 12 -69 49q-15 22 -15 50q0 11 2 22q15 75 82 110q37 19 80 19q62 0 111 -49l20 -24q27 -41 27 -91q0 -30 -10 -62zM311 233q-14 -45 -14 -71 q0 -37 27 -37q64 0 227 192q3 4 8 4q10 0 27 -17q25 -25 16 -38q-102 -144 -194.5 -218.5t-198.5 -74.5q-59 0 -92 41t-33 90q0 44 10 76l166 533h-160q-16 0 -11 37q5 38 30 43l176 36l139 197q5 7 29 7q80 0 80 -38q0 -8 -3 -15l-51 -161h240q9 0 9 -15t-8.5 -53 t-22.5 -38h-248z" />
<glyph unicode="&#x168;" horiz-adv-x="1487" d="M1425 1669q-27 -71 -87 -129q-46 -45 -83 -45q-40 0 -135 25q-89 19 -103 20q-40 0 -82 -39q-15 -15 -24 -31q-3 -6 -11 -6l-14 2q-20 8 -21 23l1 6q31 82 91 140q45 44 85 44q34 0 121 -24q63 -21 117 -21q53 0 89 53q3 3 5 7q4 7 15 7l16 -3q20 -9 21 -23zM1469 871 q-141 -465 -211 -587t-211.5 -216.5t-383.5 -94.5q-222 0 -322 77.5t-100 211.5q0 130 49 292l182 602q10 32 10 56q0 27 -30 42.5t-106 15.5q-8 0 -8 14t9.5 47t23.5 33q57 -6 275.5 -6t276.5 6q7 0 7 -13.5t-9.5 -47t-22.5 -33.5q-115 0 -143.5 -27t-47.5 -89l-144 -476 q-93 -308 -93 -417t80 -153.5t168 -44.5q176 0 299.5 95t199.5 348l194 648q8 26 8 43q0 73 -145 73q-6 0 -6 13t10 47t23 34q57 -6 233.5 -6t234.5 6q8 0 8 -12.5t-10 -47t-23 -34.5q-106 0 -140 -32.5t-49 -83.5z" />
<glyph unicode="&#x169;" horiz-adv-x="1019" d="M983 1129q-27 -71 -87 -129q-46 -45 -83 -45q-40 0 -135 25q-89 19 -103 20q-40 0 -82 -39q-15 -15 -24 -31q-3 -6 -11 -6l-14 2q-20 8 -21 23l1 6q31 82 91 140q45 44 85 44q34 0 121 -24q63 -21 117 -21q53 0 89 53q3 3 5 7q4 7 15 7l16 -3q20 -9 21 -23zM823 231 q-20 -65 -20 -69q0 -21 26.5 -21t100.5 84q3 3 8 3q10 0 28 -16q19 -19 19 -30q0 -3 -2 -6q-165 -203 -285 -203q-106 0 -106 121q0 35 12 76l45 152q-100 -138 -217 -243.5t-188 -105.5q-125 0 -125 123q0 49 20 113l127 407q15 48 15 54q0 18 -18.5 18t-44.5 -23 q-26 -24 -56 -61q-4 -5 -9 -5q-10 0 -28 16q-19 17 -19 28q0 4 3 8q155 201 290 201q90 0 90 -125q0 -37 -16 -88l-96 -307q-37 -118 -37 -158q0 -41 22 -41q51 0 153.5 136.5t154.5 231.5q92 169 139 329q6 22 94 22q102 0 102 -29q0 -3 -1 -6z" />
<glyph unicode="&#x16a;" horiz-adv-x="1487" d="M1502 1720q14 0 14 -19q0 -14 -8 -37q-17 -57 -41 -57h-633q-14 0 -14 21q0 14 6 36q14 56 39 56h637zM1469 871q-141 -465 -211 -587t-211.5 -216.5t-383.5 -94.5q-222 0 -322 77.5t-100 211.5q0 130 49 292l182 602q10 32 10 56q0 27 -30 42.5t-106 15.5q-8 0 -8 14 t9.5 47t23.5 33q57 -6 275.5 -6t276.5 6q7 0 7 -13.5t-9.5 -47t-22.5 -33.5q-115 0 -143.5 -27t-47.5 -89l-144 -476q-93 -308 -93 -417t80 -153.5t168 -44.5q176 0 299.5 95t199.5 348l194 648q8 26 8 43q0 73 -145 73q-6 0 -6 13t10 47t23 34q57 -6 233.5 -6t234.5 6 q8 0 8 -12.5t-10 -47t-23 -34.5q-106 0 -140 -32.5t-49 -83.5z" />
<glyph unicode="&#x16b;" horiz-adv-x="1019" d="M944 1161q19 0 19 -20q0 -14 -9 -36q-20 -56 -47 -56h-446q-18 0 -18 23q0 13 5 33q17 56 45 56h451zM823 231q-20 -65 -20 -69q0 -21 26.5 -21t100.5 84q3 3 8 3q10 0 28 -16q19 -19 19 -30q0 -3 -2 -6q-165 -203 -285 -203q-106 0 -106 121q0 35 12 76l45 152 q-100 -138 -217 -243.5t-188 -105.5q-125 0 -125 123q0 49 20 113l127 407q15 48 15 54q0 18 -18.5 18t-44.5 -23q-26 -24 -56 -61q-4 -5 -9 -5q-10 0 -28 16q-19 17 -19 28q0 4 3 8q155 201 290 201q90 0 90 -125q0 -37 -16 -88l-96 -307q-37 -118 -37 -158q0 -41 22 -41 q51 0 153.5 136.5t154.5 231.5q92 169 139 329q6 22 94 22q102 0 102 -29q0 -3 -1 -6z" />
<glyph unicode="&#x16c;" horiz-adv-x="1487" d="M1487 1782q-50 -307 -348 -307q-191 0 -236 127q-12 34 -12 76q0 48 15 104q12 7 27 7h4l22 -4q4 -1 8 -3v-39l7 -33q31 -91 160 -99q12 -1 25 -1q153 0 238 124q15 23 27 48q15 7 31 7h5q11 0 21 -4q3 -2 6 -3zM1469 871q-141 -465 -211 -587t-211.5 -216.5 t-383.5 -94.5q-222 0 -322 77.5t-100 211.5q0 130 49 292l182 602q10 32 10 56q0 27 -30 42.5t-106 15.5q-8 0 -8 14t9.5 47t23.5 33q57 -6 275.5 -6t276.5 6q7 0 7 -13.5t-9.5 -47t-22.5 -33.5q-115 0 -143.5 -27t-47.5 -89l-144 -476q-93 -308 -93 -417t80 -153.5 t168 -44.5q176 0 299.5 95t199.5 348l194 648q8 26 8 43q0 73 -145 73q-6 0 -6 13t10 47t23 34q57 -6 233.5 -6t234.5 6q8 0 8 -12.5t-10 -47t-23 -34.5q-106 0 -140 -32.5t-49 -83.5z" />
<glyph unicode="&#x16d;" horiz-adv-x="1019" d="M1025 1242q-50 -307 -348 -307q-191 0 -236 127q-12 34 -12 76q0 48 15 104q12 7 27 7h4l22 -4q4 -1 8 -3v-39l7 -33q31 -91 160 -99q12 -1 25 -1q153 0 238 124q15 23 27 48q15 7 31 7h5q11 0 21 -4q3 -2 6 -3zM823 231q-20 -65 -20 -69q0 -21 26.5 -21t100.5 84 q3 3 8 3q10 0 28 -16q19 -19 19 -30q0 -3 -2 -6q-165 -203 -285 -203q-106 0 -106 121q0 35 12 76l45 152q-100 -138 -217 -243.5t-188 -105.5q-125 0 -125 123q0 49 20 113l127 407q15 48 15 54q0 18 -18.5 18t-44.5 -23q-26 -24 -56 -61q-4 -5 -9 -5q-10 0 -28 16 q-19 17 -19 28q0 4 3 8q155 201 290 201q90 0 90 -125q0 -37 -16 -88l-96 -307q-37 -118 -37 -158q0 -41 22 -41q51 0 153.5 136.5t154.5 231.5q92 169 139 329q6 22 94 22q102 0 102 -29q0 -3 -1 -6z" />
<glyph unicode="&#x16e;" horiz-adv-x="1487" d="M1390 1670q0 -97 -73 -163q-69 -62 -172 -62q-126 0 -197 88q-49 60 -49 137q0 96 73 161q69 62 173 62q126 0 197 -87q48 -60 48 -136zM1253 1668q0 85 -53 124q-24 17 -55 19q-69 -4 -97 -74q-12 -31 -12 -69q0 -83 50 -121q25 -20 59 -20q66 0 94 68q14 33 14 73z M1469 871q-141 -465 -211 -587t-211.5 -216.5t-383.5 -94.5q-222 0 -322 77.5t-100 211.5q0 130 49 292l182 602q10 32 10 56q0 27 -30 42.5t-106 15.5q-8 0 -8 14t9.5 47t23.5 33q57 -6 275.5 -6t276.5 6q7 0 7 -13.5t-9.5 -47t-22.5 -33.5q-115 0 -143.5 -27t-47.5 -89 l-144 -476q-93 -308 -93 -417t80 -153.5t168 -44.5q176 0 299.5 95t199.5 348l194 648q8 26 8 43q0 73 -145 73q-6 0 -6 13t10 47t23 34q57 -6 233.5 -6t234.5 6q8 0 8 -12.5t-10 -47t-23 -34.5q-106 0 -140 -32.5t-49 -83.5z" />
<glyph unicode="&#x16f;" horiz-adv-x="1019" d="M918 1186q0 -97 -73 -163q-69 -62 -172 -62q-126 0 -197 88q-49 60 -49 137q0 96 73 161q69 62 173 62q126 0 197 -87q48 -60 48 -136zM781 1184q0 85 -53 124q-24 17 -55 19q-69 -4 -97 -74q-12 -31 -12 -69q0 -83 50 -121q25 -20 59 -20q66 0 94 68q14 33 14 73z M823 231q-20 -65 -20 -69q0 -21 26.5 -21t100.5 84q3 3 8 3q10 0 28 -16q19 -19 19 -30q0 -3 -2 -6q-165 -203 -285 -203q-106 0 -106 121q0 35 12 76l45 152q-100 -138 -217 -243.5t-188 -105.5q-125 0 -125 123q0 49 20 113l127 407q15 48 15 54q0 18 -18.5 18t-44.5 -23 q-26 -24 -56 -61q-4 -5 -9 -5q-10 0 -28 16q-19 17 -19 28q0 4 3 8q155 201 290 201q90 0 90 -125q0 -37 -16 -88l-96 -307q-37 -118 -37 -158q0 -41 22 -41q51 0 153.5 136.5t154.5 231.5q92 169 139 329q6 22 94 22q102 0 102 -29q0 -3 -1 -6z" />
<glyph unicode="&#x170;" horiz-adv-x="1487" d="M1252 1743l-281 -271q-19 -18 -42 -18t-32 21q-2 5 -2 11q0 17 15 40l209 313q13 19 37 19q45 0 85 -43q24 -25 24 -45q0 -15 -13 -27zM1592 1743l-281 -271q-19 -18 -42 -18t-32 21q-2 5 -2 11q0 17 15 40l209 313q13 19 37 19q45 0 85 -43q24 -25 24 -45q0 -15 -13 -27 zM1469 871q-141 -465 -211 -587t-211.5 -216.5t-383.5 -94.5q-222 0 -322 77.5t-100 211.5q0 130 49 292l182 602q10 32 10 56q0 27 -30 42.5t-106 15.5q-8 0 -8 14t9.5 47t23.5 33q57 -6 275.5 -6t276.5 6q7 0 7 -13.5t-9.5 -47t-22.5 -33.5q-115 0 -143.5 -27t-47.5 -89 l-144 -476q-93 -308 -93 -417t80 -153.5t168 -44.5q176 0 299.5 95t199.5 348l194 648q8 26 8 43q0 73 -145 73q-6 0 -6 13t10 47t23 34q57 -6 233.5 -6t234.5 6q8 0 8 -12.5t-10 -47t-23 -34.5q-106 0 -140 -32.5t-49 -83.5z" />
<glyph unicode="&#x171;" horiz-adv-x="1019" d="M828 1218l-281 -271q-19 -18 -42 -18t-32 21q-2 5 -2 11q0 17 15 40l209 313q13 19 37 19q45 0 85 -43q24 -25 24 -45q0 -15 -13 -27zM1168 1218l-281 -271q-19 -18 -42 -18t-32 21q-2 5 -2 11q0 17 15 40l209 313q13 19 37 19q45 0 85 -43q24 -25 24 -45q0 -15 -13 -27z M823 231q-20 -65 -20 -69q0 -21 26.5 -21t100.5 84q3 3 8 3q10 0 28 -16q19 -19 19 -30q0 -3 -2 -6q-165 -203 -285 -203q-106 0 -106 121q0 35 12 76l45 152q-100 -138 -217 -243.5t-188 -105.5q-125 0 -125 123q0 49 20 113l127 407q15 48 15 54q0 18 -18.5 18t-44.5 -23 q-26 -24 -56 -61q-4 -5 -9 -5q-10 0 -28 16q-19 17 -19 28q0 4 3 8q155 201 290 201q90 0 90 -125q0 -37 -16 -88l-96 -307q-37 -118 -37 -158q0 -41 22 -41q51 0 153.5 136.5t154.5 231.5q92 169 139 329q6 22 94 22q102 0 102 -29q0 -3 -1 -6z" />
<glyph unicode="&#x172;" horiz-adv-x="1487" d="M872 -380q-85 -107 -220 -107q-85 0 -130 41.5t-45 112.5q0 167 291 371h95q-211 -188 -211 -321q0 -41 31.5 -65t71.5 -24q59 0 101 29q16 -5 16 -30v-7zM1469 871q-141 -465 -211 -587t-211.5 -216.5t-383.5 -94.5q-222 0 -322 77.5t-100 211.5q0 130 49 292l182 602 q10 32 10 56q0 27 -30 42.5t-106 15.5q-8 0 -8 14t9.5 47t23.5 33q57 -6 275.5 -6t276.5 6q7 0 7 -13.5t-9.5 -47t-22.5 -33.5q-115 0 -143.5 -27t-47.5 -89l-144 -476q-93 -308 -93 -417t80 -153.5t168 -44.5q176 0 299.5 95t199.5 348l194 648q8 26 8 43q0 73 -145 73 q-6 0 -6 13t10 47t23 34q57 -6 233.5 -6t234.5 6q8 0 8 -12.5t-10 -47t-23 -34.5q-106 0 -140 -32.5t-49 -83.5z" />
<glyph unicode="&#x173;" horiz-adv-x="1019" d="M856 -380q-85 -107 -220 -107q-85 0 -130 41.5t-45 112.5q0 167 291 371h95q-211 -188 -211 -321q0 -41 31.5 -65t71.5 -24q59 0 101 29q16 -5 16 -30v-7zM823 231q-20 -65 -20 -69q0 -21 26.5 -21t100.5 84q3 3 8 3q10 0 28 -16q19 -19 19 -30q0 -3 -2 -6 q-165 -203 -285 -203q-106 0 -106 121q0 35 12 76l45 152q-100 -138 -217 -243.5t-188 -105.5q-125 0 -125 123q0 49 20 113l127 407q15 48 15 54q0 18 -18.5 18t-44.5 -23q-26 -24 -56 -61q-4 -5 -9 -5q-10 0 -28 16q-19 17 -19 28q0 4 3 8q155 201 290 201q90 0 90 -125 q0 -37 -16 -88l-96 -307q-37 -118 -37 -158q0 -41 22 -41q51 0 153.5 136.5t154.5 231.5q92 169 139 329q6 22 94 22q102 0 102 -29q0 -3 -1 -6z" />
<glyph unicode="&#x174;" horiz-adv-x="1994" d="M1673 1579q4 -4 4 -10q0 -10 -11.5 -27t-20.5 -17q-2 0 -4 1l-271 133q-19 9 -39 9t-41 -9l-301 -133q-3 -1 -6 -1q-14 0 -25.5 15.5t-11.5 25.5q0 8 7 13l350 271q25 19 50.5 19t51.5 -24zM1660 652l-476 -654q-26 -36 -53 -36q-41 0 -52 72l-66 433q-4 24 -11 24 q-6 0 -25 -25l-347 -468q-27 -36 -53 -36q-41 0 -52 72l-170 1120q-12 77 -34.5 96.5t-91.5 19.5q-9 0 -9 14.5t6.5 47t19.5 32.5q58 -6 223 -6t222 6q10 0 10 -18t-8 -47t-19 -29q-94 0 -94 -47q0 -30 6 -69l123 -803q3 -23 20 -23q16 0 33 23l174 236q41 55 41 82 q0 46 -5 78l-63 407q-11 74 -33 95t-78 21q-9 0 -9 17.5t7.5 47t19.5 29.5q57 -6 218.5 -6t218.5 6q9 0 9 -16t-7 -47t-19 -31q-102 0 -102 -50q0 -31 6 -66l30 -192q4 -27 12 -27t28 27l135 184q54 73 54 100q0 24 -77 24q-9 0 -9 14t10.5 47t24.5 33q58 -6 204 -6t203 6 q7 0 7 -12.5t-10.5 -47t-22.5 -34.5q-156 0 -201 -60l-289 -390q-31 -42 -31 -78q0 -32 4 -64l51 -327q3 -23 17 -23q18 0 36 23q129 162 583 795q44 63 44 92q0 32 -85 32q-6 0 -6 12.5t10.5 47t22.5 34.5q57 -6 207 -6t208 6q8 0 8 -12.5t-10 -47t-25 -34.5 q-141 0 -197 -71z" />
<glyph unicode="&#x175;" horiz-adv-x="1259" d="M1102 999v-12q-6 -20 -31 -31l-15 -3l-10 4q-1 1 -2 3l-129 197q-29 44 -44 44q-11 0 -40 -30l-18 -18l-201 -197q-4 -4 -12 -5l-15 4q-24 11 -29 30l1 11q1 2 2 3l307 407q23 30 58 30q31 0 40 -30zM1284 707q0 -120 -84.5 -309.5t-234 -307t-277.5 -117.5q-56 0 -92 25 q-37 26 -51 78q-146 -103 -273 -103q-73 0 -113 36t-40 95q0 31 12 70l125 406q23 75 23 92q0 16 -23 16t-92 -82q-4 -5 -12 -4.5t-25.5 17.5t-17.5 30q0 5 4 10q170 193 286 193q90 0 90 -119q0 -42 -10 -74l-139 -446q-8 -26 -8 -55q0 -70 53 -70q47 0 85 39.5t76 104 t64 149.5l133 442q9 29 103.5 29t94.5 -23q0 -3 -1 -6l-188 -612q-9 -29 -9 -50q0 -73 70.5 -73t184.5 161t114 312q0 96 -49 182q0 109 102 109q66 0 92.5 -47t26.5 -98z" />
<glyph unicode="&#x176;" horiz-adv-x="1268" d="M1330 1579q4 -4 4 -10q0 -10 -11.5 -27t-20.5 -17q-2 0 -4 1l-271 133q-19 9 -39 9t-41 -9l-301 -133q-3 -1 -6 -1q-14 0 -25.5 15.5t-11.5 25.5q0 8 7 13l350 271q25 19 50.5 19t51.5 -24zM435 218l77 256q24 84 24 115t-20 89l-151 460q-27 81 -57.5 106.5t-101.5 25.5 q-8 0 -8 13.5t8 47t21 33.5q58 -6 253.5 -6t252.5 6q16 0 4.5 -47t-25.5 -47q-121 0 -121 -56q0 -24 11 -57l131 -403q8 -23 22 -23t32 20l386 406q47 52 47 78q0 35 -93 35q-15 0 -2 47t27 47q57 -6 212.5 -6t213.5 6q8 0 8 -13.5t-8 -47t-23 -33.5q-103 0 -157.5 -34.5 t-199.5 -190.5l-379 -403q-38 -40 -65 -134l-89 -307q-8 -27 -8 -51q0 -64 126 -64q15 0 2 -47t-27 -47q-76 8 -263 8t-264 -8q-13 0 -1.5 47t26.5 47q84 0 119.5 24t59.5 108z" />
<glyph unicode="&#x177;" horiz-adv-x="782" d="M825 999v-12q-6 -20 -31 -31l-15 -3l-10 4q-1 1 -2 3l-129 197q-29 44 -44 44q-11 0 -40 -30l-18 -18l-201 -197q-4 -4 -12 -5l-15 4q-24 11 -29 30l1 11q1 2 2 3l307 407q23 30 58 30q31 0 40 -30zM809 764q0 -63 -48 -234.5t-130.5 -333.5t-199.5 -366t-223 -294.5 t-212 -90.5q-62 0 -105 30.5t-43 78.5q0 51 27 79.5t74 28.5q41 0 69.5 -47t69.5 -47q40 0 108 71t94.5 178t26.5 255q0 260 -22.5 437t-77.5 177q-42 0 -100 -113q-3 -7 -14 -7t-33 13t-17 25q111 248 244 248q98 0 152.5 -166t54.5 -377q0 -98 -10 -190l12 -4 q59 116 100 274t41 256q0 55 -26 115q0 92 94 92t94 -88z" />
<glyph unicode="&#x178;" horiz-adv-x="1268" d="M784 1520q-51 0 -82 30t-31 79q0 59 40 101t102 42q49 0 80.5 -30.5t31.5 -79.5q0 -60 -41 -101t-100 -41zM1183 1520q-51 0 -81.5 30t-30.5 79q0 59 40 101t101 42q49 0 81 -30.5t32 -79.5q0 -60 -41 -101t-101 -41zM435 218l77 256q24 84 24 115t-20 89l-151 460 q-27 81 -57.5 106.5t-101.5 25.5q-8 0 -8 13.5t8 47t21 33.5q58 -6 253.5 -6t252.5 6q16 0 4.5 -47t-25.5 -47q-121 0 -121 -56q0 -24 11 -57l131 -403q8 -23 22 -23t32 20l386 406q47 52 47 78q0 35 -93 35q-15 0 -2 47t27 47q57 -6 212.5 -6t213.5 6q8 0 8 -13.5t-8 -47 t-23 -33.5q-103 0 -157.5 -34.5t-199.5 -190.5l-379 -403q-38 -40 -65 -134l-89 -307q-8 -27 -8 -51q0 -64 126 -64q15 0 2 -47t-27 -47q-76 8 -263 8t-264 -8q-13 0 -1.5 47t26.5 47q84 0 119.5 24t59.5 108z" />
<glyph unicode="&#x179;" horiz-adv-x="1314" d="M1434 1734l-534 -204q-16 -6 -28 -6q-16 0 -27 10.5t-11 25.5q0 22 35 41l508 279q8 4 17 4q21 0 46 -29.5t25 -68.5q0 -40 -31 -52zM-10 103l1202 1125q19 15 17 29.5t-29 14.5h-531q-49 0 -98 -33.5t-122.5 -124t-94.5 -138.5q-7 -17 -37 -11.5t-22 25.5 q74 178 124 337q12 39 62 39q17 0 62.5 -7t586.5 -7l403 8q49 0 49 -43q0 -30 -26 -56l-1198 -1131q-17 -15 -13 -29.5t32 -14.5q331 0 596 13q103 4 187 115q60 79 94 139q9 14 39 3.5t22 -22.5q-59 -102 -89.5 -187.5t-47.5 -142.5q-12 -36 -32 -36h-3q-115 21 -203 26.5 t-507 5.5h-390q-54 0 -54 57q0 26 21 46z" />
<glyph unicode="&#x17a;" horiz-adv-x="917" d="M900 1218l-281 -271q-19 -18 -42 -18t-32 21q-2 5 -2 11q0 17 15 40l209 313q13 19 37 19q45 0 85 -43q24 -25 24 -45q0 -15 -13 -27zM400 209l3 -19l42 -7q106 -18 187 -64.5t97 -46.5q62 0 62 55q0 18 -30 48t-30 79q0 74 97 74q41 0 68.5 -34t27.5 -79 q0 -104 -81 -189t-177 -85q-47 0 -121 29l-149 63q-76 33 -111 33q-81 0 -138 -86q-5 -7 -17 -7q-20 0 -57 40q-36 41 -36 63q0 10 6 16l518 526q12 12 12 24q0 14 -20 22q-85 32 -189 32h-24q-53 -2 -53 -22q0 -8 32.5 -39t32.5 -68q0 -87 -96 -87q-102 0 -102 111 q0 102 94.5 176.5t210.5 74.5q53 0 147 -28t137 -28q51 0 73 24l40 44q7 6 16 6q17 0 46 -29q28 -30 28 -46q0 -9 -6 -15z" />
<glyph unicode="&#x17b;" horiz-adv-x="1314" d="M853 1649q0 58 40.5 98.5t98.5 40.5t98.5 -40.5t40.5 -98.5t-40.5 -98.5t-98.5 -40.5t-98.5 40.5t-40.5 98.5zM-10 103l1202 1125q19 15 17 29.5t-29 14.5h-531q-49 0 -98 -33.5t-122.5 -124t-94.5 -138.5q-7 -17 -37 -11.5t-22 25.5q74 178 124 337q12 39 62 39 q17 0 62.5 -7t586.5 -7l403 8q49 0 49 -43q0 -30 -26 -56l-1198 -1131q-17 -15 -13 -29.5t32 -14.5q331 0 596 13q103 4 187 115q60 79 94 139q9 14 39 3.5t22 -22.5q-59 -102 -89.5 -187.5t-47.5 -142.5q-12 -36 -32 -36h-3q-115 21 -203 26.5t-507 5.5h-390q-54 0 -54 57 q0 26 21 46z" />
<glyph unicode="&#x17c;" horiz-adv-x="917" d="M504 1149q0 58 40.5 98.5t98.5 40.5t98.5 -40.5t40.5 -98.5t-40.5 -98.5t-98.5 -40.5t-98.5 40.5t-40.5 98.5zM400 209l3 -19l42 -7q106 -18 187 -64.5t97 -46.5q62 0 62 55q0 18 -30 48t-30 79q0 74 97 74q41 0 68.5 -34t27.5 -79q0 -104 -81 -189t-177 -85 q-47 0 -121 29l-149 63q-76 33 -111 33q-81 0 -138 -86q-5 -7 -17 -7q-20 0 -57 40q-36 41 -36 63q0 10 6 16l518 526q12 12 12 24q0 14 -20 22q-85 32 -189 32h-24q-53 -2 -53 -22q0 -8 32.5 -39t32.5 -68q0 -87 -96 -87q-102 0 -102 111q0 102 94.5 176.5t210.5 74.5 q53 0 147 -28t137 -28q51 0 73 24l40 44q7 6 16 6q17 0 46 -29q28 -30 28 -46q0 -9 -6 -15z" />
<glyph unicode="&#x17d;" horiz-adv-x="1314" d="M712 1814q-4 4 -4 10q0 10 11.5 27.5t20.5 17.5q3 0 5 -1l270 -133q20 -10 40 -10t40 10l301 133q3 1 7 1q13 0 24.5 -16t11.5 -25q0 -8 -6 -14l-350 -270q-26 -19 -51.5 -19t-51.5 23zM-10 103l1202 1125q19 15 17 29.5t-29 14.5h-531q-49 0 -98 -33.5t-122.5 -124 t-94.5 -138.5q-7 -17 -37 -11.5t-22 25.5q74 178 124 337q12 39 62 39q17 0 62.5 -7t586.5 -7l403 8q49 0 49 -43q0 -30 -26 -56l-1198 -1131q-17 -15 -13 -29.5t32 -14.5q331 0 596 13q103 4 187 115q60 79 94 139q9 14 39 3.5t22 -22.5q-59 -102 -89.5 -187.5 t-47.5 -142.5q-12 -36 -32 -36h-3q-115 21 -203 26.5t-507 5.5h-390q-54 0 -54 57q0 26 21 46z" />
<glyph unicode="&#x17e;" horiz-adv-x="917" d="M946 1363l-307 -408q-22 -29 -57 -29l-19 3q-17 7 -23 26l-137 408v12q7 21 31 31l15 3q7 -1 11 -7l129 -197q29 -44 44 -44l12 4q7 3 47 44l200 197q5 4 12 4l15 -3q22 -11 29 -28v-11zM400 209l3 -19l42 -7q106 -18 187 -64.5t97 -46.5q62 0 62 55q0 18 -30 48t-30 79 q0 74 97 74q41 0 68.5 -34t27.5 -79q0 -104 -81 -189t-177 -85q-47 0 -121 29l-149 63q-76 33 -111 33q-81 0 -138 -86q-5 -7 -17 -7q-20 0 -57 40q-36 41 -36 63q0 10 6 16l518 526q12 12 12 24q0 14 -20 22q-85 32 -189 32h-24q-53 -2 -53 -22q0 -8 32.5 -39t32.5 -68 q0 -87 -96 -87q-102 0 -102 111q0 102 94.5 176.5t210.5 74.5q53 0 147 -28t137 -28q51 0 73 24l40 44q7 6 16 6q17 0 46 -29q28 -30 28 -46q0 -9 -6 -15z" />
<glyph unicode="&#x17f;" horiz-adv-x="485" d="M977 1268q0 -94 -65 -115l-27 -4h-2q-55 0 -84 37q-19 23 -19 57q0 68 -2 80q-10 49 -56 57q-11 2 -24 2q-67 0 -127 -86q-6 -8 -12 -18q-57 -89 -99 -302l-36 -190l-178 -882q-32 -155 -96 -279q-25 -47 -44 -65q-115 -111 -251 -111q-111 0 -165 65q-26 31 -26 62 q0 62 48 92q21 13 44 13q59 0 86 -56q26 -50 38 -61q13 -11 28 -11q58 0 85 93q6 19 23 104l213 1051q55 274 106 389q25 57 54 96q131 178 361 178q126 0 189 -81q38 -49 38 -115z" />
<glyph unicode="&#x180;" horiz-adv-x="929" d="M915 608q0 -196 -123 -365q-123 -170 -316 -236q-100 -34 -206 -34q-150 0 -177 135q-5 26 -5 57q0 46 12 97l195 811h-189q-6 0 -6 13q0 33 21 73q10 20 18 20h180l9 35q7 34 7 63q0 83 -61 83q-18 0 -19 33l3 22q5 17 16 17q91 0 223 40q49 15 64 15q21 0 22 -18 l-3 -21l-64 -269h195q6 0 6 -12l-5 -30l-14 -38l-13 -21q-5 -5 -9 -5h-184l-101 -420l17 -8q150 186 268 204q16 3 35 3q104 0 161 -84l19 -34q15 -34 21 -75q3 -24 3 -51zM696 618q0 101 -54 112q-5 1 -11 1q-74 0 -173 -131q-95 -125 -139 -265l-6 -18q-24 -84 -24 -148 q0 -106 71 -106q117 0 213 146q90 134 116 312q7 51 7 97z" />
<glyph unicode="&#x186;" horiz-adv-x="1349" d="M352 1037q22 57 102 177q49 72 83 108q49 7 94 19q165 44 370 44q263 0 415 -151q137 -136 137 -331q0 -90 -29 -192q-78 -270 -287 -467q-290 -271 -665 -271q-130 0 -325 43q-53 11 -104 13q-2 10 -2 25q0 72 43 250l13 51q5 18 49 22q49 2 47 -14q-8 -40 -8 -75 q0 -147 140 -200q71 -27 178 -27q207 0 383 168q175 168 248 424q41 141 41 255q0 147 -68 248q-90 135 -247 135q-343 0 -519 -277q-13 -19 -59 -7q-37 9 -30 30z" />
<glyph unicode="&#x190;" horiz-adv-x="956" d="M1075 1249q6 -6 14 -6q21 0 44 33q14 20 21 44q4 14 42 14q33 0 33 -11q0 -1 -1 -3l-112 -392q-3 -10 -49 -10q-36 0 -32 12q14 50 14 91q0 46 -18 82q-30 59 -81 74q-19 5 -40 5q-136 0 -211 -78q-41 -43 -57 -101q-10 -36 -10 -66q0 -73 60 -115q48 -33 202 -33 q28 0 28 -29q0 -14 -6 -33q-19 -68 -47 -68q-7 0 -14 4q-30 13 -78 13q-17 0 -36 -2q-115 -10 -182 -63q-102 -80 -140 -215q-17 -58 -17 -104q0 -41 13 -74q30 -78 72 -104q29 -18 108 -18h23q110 3 211 69q6 4 10 4l10 -4q2 -1 19 -26q12 -19 9 -25l-6 -10q-1 -1 -4 -3 q-158 -124 -313 -124q-202 0 -314 127q-76 85 -76 199q0 56 18 118q79 278 379 333q33 6 36 15q2 8 -29 26q-136 81 -136 204q0 34 11 72q32 112 146 198t241 86q126 0 203 -66q15 -13 42 -40z" />
<glyph unicode="&#x192;" horiz-adv-x="624" d="M1026 1268q0 -94 -65 -115l-27 -4h-2q-55 0 -84 37q-19 23 -19 57q0 68 -2 80q-10 49 -57 57l-22 2q-67 0 -127 -85l-13 -19q-56 -88 -93 -275l-30 -160h256q6 0 6 -13l-5 -30q-14 -52 -31 -62q-2 -1 -4 -1h-244l-168 -833q-32 -155 -96 -279q-24 -47 -43 -65 q-120 -111 -252 -111q-111 0 -165 65q-26 31 -26 62q0 62 48 92q21 13 44 13q59 0 86 -56q26 -50 38 -61q13 -11 28 -11q58 0 86 95q6 20 23 102l200 987h-180q-6 0 -6 13l5 31q14 54 34 62h168q50 228 82 313q30 78 69 130q132 178 361 178q126 0 189 -81q38 -49 38 -115z " />
<glyph unicode="&#x195;" horiz-adv-x="1373" d="M57 14l289 1203q8 33 8 62q0 81 -61 81q-21 0 -19.5 36t19.5 36q78 0 176.5 27.5t114.5 27.5t17 -19l-191 -819l16 -10q152 213 306 213q100 0 150 -64t50 -170q0 -148 -62 -403q-9 -28 -9 -55q0 -72 56 -72q51 3 151 101.5t130 216.5q29 114 29 182q0 73 -48 162 q0 47 24 74.5t75 27.5q58 0 89 -35.5t31 -109.5q0 -162 -83 -330.5t-233 -286t-280 -117.5q-91 0 -128 65q-16 28 -16 74q0 58 26 143q45 153 45 333q0 65 -27 99t-55 34q-95 0 -246 -225q-38 -57 -84 -239q0 -1 -4 -17l-61 -244q-6 -23 -76 -23t-94.5 14.5t-24.5 26.5z" />
<glyph unicode="&#x19d;" horiz-adv-x="1482" d="M448 1153q5 18 5 34q0 80 -145 80q-13 0 0 46q14 47 26 47h1q61 -5 175 -5q84 0 98 -2q58 -9 84 -57l462 -867q7 -14 20 -14q24 0 33 31l201 703q6 21 6 39q0 79 -125 79q-15 0 -2 46q14 47 27 47h2q23 -7 102 -7q40 0 94 2q166 5 195 5q7 0 7 -12t-6 -34 q-14 -47 -28 -47q-135 0 -169 -118l-308 -1076q-28 -97 -59 -97q-26 0 -58 57l-541 978q-9 16 -16 16q-13 0 -19 -22l-271 -945l-52 -174q-33 -112 -128 -222l-47 -51q-131 -134 -291 -134h-5q-57 1 -84 35q-17 21 -17 50q0 14 4 30q8 26 22 44t33 29q30 17 64 17h4 q54 -2 87 -43q19 -23 32 -29l3 -1q38 2 100 66q87 89 114 185z" />
<glyph unicode="&#x1bf;" horiz-adv-x="919" d="M924 657q0 -127 -67 -265t-247 -272t-321 -149l-92 -366q-33 -125 -308 -158h-2q-12 0 -18 32q-2 11 -2 19q0 16 8 19q55 12 88 44.5t47 94.5l246 991q10 38 -18 38t-93 -83q-11 -14 -38 8.5t-17 34.5q76 98 140.5 152.5t136.5 54.5q95 0 95 -111q0 -10 -1 -22 q129 133 252 133q211 0 211 -195zM721 645q0 45 -18.5 82t-53.5 37q-59 0 -128.5 -63.5t-92.5 -151.5l-121 -496q115 29 229.5 151t149.5 237.5t35 203.5z" />
<glyph unicode="&#x1c3;" horiz-adv-x="569" d="M699.5 1230.5q-15.5 -40.5 -158.5 -377.5t-172 -411q-9 -20 -51.5 -20t-45.5 24l139 719q15 77 30 119.5t62.5 78.5t94.5 36q117 0 117 -92q0 -36 -15.5 -76.5zM385 123q-1 -66 -50.5 -108t-114.5 -42t-108.5 49t-43.5 113.5t50 108.5t115.5 44t108.5 -49.5t43 -115.5z " />
<glyph unicode="&#x1cd;" horiz-adv-x="1165" d="M662 1814q-4 4 -4 10q0 10 11.5 27.5t20.5 17.5q3 0 5 -1l270 -133q20 -10 40 -10t40 10l301 133q3 1 7 1q13 0 24.5 -16t11.5 -25q0 -8 -6 -14l-350 -270q-26 -19 -51.5 -19t-51.5 23zM928 202q-2 -15 -2 -30q0 -86 126 -86q8 0 8 -19t-8.5 -47t-20.5 -28 q-76 8 -230.5 8t-231.5 -8q-8 0 -8 17.5t9.5 47t19.5 29.5q61 0 89 22t37 94l37 283q5 38 -37 38h-246q-30 0 -48 -28l-189 -294q-24 -38 -24 -60q0 -55 121 -55q8 0 8 -18.5t-8.5 -47t-20.5 -28.5q-76 8 -229.5 8t-230.5 -8q-8 0 -8 13.5t7 47t22 33.5q109 0 157 34.5 t90 97.5l655 974q8 12 8 23t-9.5 22.5t-9.5 22.5q0 20 68 43q69 24 124.5 53.5t83.5 29.5q42 0 42 -50q0 -22 -14 -79.5t-20 -106.5zM774 649l47 413v5q0 10 -6 10q-8 0 -17 -13l-283 -428q-6 -8 -6 -18.5t19 -10.5h204q37 0 42 42z" />
<glyph unicode="&#x1ce;" horiz-adv-x="966" d="M1030 1363l-307 -408q-22 -29 -57 -29l-19 3q-17 7 -23 26l-137 408v12q7 21 31 31l15 3q7 -1 11 -7l129 -197q29 -44 44 -44l12 4q7 3 47 44l200 197q5 4 12 4l15 -3q22 -11 29 -28v-11zM752 180q-3 -10 -3 -19q1 -20 23 -20q36 0 102 66q12 12 40 -12q20 -17 20 -28 q0 -5 -4 -9q-92 -90 -167.5 -137.5t-131.5 -47.5q-79 0 -79 89q0 61 40 146l4 7l-12 6q-224 -248 -361 -248q-73 0 -116.5 54t-43.5 139q0 209 186 443.5t392 234.5q62 0 107 -31l20 49q9 22 93 22q91 0 91 -35q0 -7 -3 -18zM666 553l49 160q-32 47 -101 47 q-128 0 -228.5 -215.5t-100.5 -317.5q0 -117 47 -117q52 0 126.5 81.5t127.5 177.5t80 184z" />
<glyph unicode="&#x1cf;" horiz-adv-x="754" d="M357 1814q-4 4 -4 10q0 10 11.5 27.5t20.5 17.5q3 0 5 -1l270 -133q20 -10 40 -10t40 10l301 133q3 1 7 1q13 0 24.5 -16t11.5 -25q0 -8 -6 -14l-350 -270q-26 -19 -51.5 -19t-51.5 23zM441 202q-7 -25 -7 -52q0 -64 149 -64q7 0 7 -14.5t-9.5 -47t-20.5 -32.5 q-77 8 -289 8t-288 -8q-8 0 -8 13t8.5 47t24.5 34q88 0 133 23.5t65 92.5l272 952q8 27 8 63q0 53 -140 53q-7 0 -7 13.5t11 47t22 33.5q58 -6 286 -6t286 6q8 0 8 -12.5t-10 -47t-25 -34.5q-110 0 -148.5 -29.5t-54.5 -86.5z" />
<glyph unicode="&#x1d0;" horiz-adv-x="534" d="M763 1363l-307 -408q-22 -29 -57 -29l-19 3q-17 7 -23 26l-137 408v12q7 21 31 31l15 3q7 -1 11 -7l129 -197q29 -44 44 -44l12 4q7 3 47 44l200 197q5 4 12 4l15 -3q22 -11 29 -28v-11zM328 159q2 -16 23 -17h1q21 0 75 62q17 20 31 20t27.5 -18t14.5 -26l-2 -6 q-173 -201 -289 -201q-65 0 -84 74q-7 24 -7 51q0 33 11 70l147 479l3 20q-1 21 -21.5 21t-93.5 -82q-3 -3 -15 -3t-26 19t-14 25t2 8q168 197 288 197q64 0 84 -72q5 -18 6 -40l-2 -43q-3 -18 -8 -35l-147 -482z" />
<glyph unicode="&#x1d1;" horiz-adv-x="1512" d="M792 1814q-4 4 -4 10q0 10 11.5 27.5t20.5 17.5q3 0 5 -1l270 -133q20 -10 40 -10t40 10l301 133q3 1 7 1q13 0 24.5 -16t11.5 -25q0 -8 -6 -14l-350 -270q-26 -19 -51.5 -19t-51.5 23zM1568 875q0 -343 -261 -622.5t-635 -279.5q-206 0 -350 133.5t-144 344.5 q0 345 263 639.5t638 294.5q241 0 365 -149t124 -361zM1331 874q0 176 -85 301.5t-204 125.5q-148 0 -284 -106.5t-236.5 -299.5t-100.5 -421q0 -188 85.5 -299.5t207.5 -111.5q178 0 312 116.5t219.5 308.5t85.5 386z" />
<glyph unicode="&#x1d2;" horiz-adv-x="948" d="M1007 1363l-307 -408q-22 -29 -57 -29l-19 3q-17 7 -23 26l-137 408v12q7 21 31 31l15 3q7 -1 11 -7l129 -197q29 -44 44 -44l12 4q7 3 47 44l200 197q5 4 12 4l15 -3q22 -11 29 -28v-11zM909 528q0 -209 -148.5 -382t-369.5 -173q-139 0 -208.5 97.5t-69.5 244.5 q0 191 162.5 364t355.5 173q139 0 208.5 -90t69.5 -234zM731 629q0 119 -90 119q-105 0 -225.5 -201t-120.5 -344q0 -117 96 -117q95 0 217.5 201t122.5 342z" />
<glyph unicode="&#x1d3;" horiz-adv-x="1487" d="M807 1814q-4 4 -4 10q0 10 11.5 27.5t20.5 17.5q3 0 5 -1l270 -133q20 -10 40 -10t40 10l301 133q3 1 7 1q13 0 24.5 -16t11.5 -25q0 -8 -6 -14l-350 -270q-26 -19 -51.5 -19t-51.5 23zM1469 871q-141 -465 -211 -587t-211.5 -216.5t-383.5 -94.5q-222 0 -322 77.5 t-100 211.5q0 130 49 292l182 602q10 32 10 56q0 27 -30 42.5t-106 15.5q-8 0 -8 14t9.5 47t23.5 33q57 -6 275.5 -6t276.5 6q7 0 7 -13.5t-9.5 -47t-22.5 -33.5q-115 0 -143.5 -27t-47.5 -89l-144 -476q-93 -308 -93 -417t80 -153.5t168 -44.5q176 0 299.5 95t199.5 348 l194 648q8 26 8 43q0 73 -145 73q-6 0 -6 13t10 47t23 34q57 -6 233.5 -6t234.5 6q8 0 8 -12.5t-10 -47t-23 -34.5q-106 0 -140 -32.5t-49 -83.5z" />
<glyph unicode="&#x1d4;" horiz-adv-x="1019" d="M1029 1363l-307 -408q-22 -29 -57 -29l-19 3q-17 7 -23 26l-137 408v12q7 21 31 31l15 3q7 -1 11 -7l129 -197q29 -44 44 -44l12 4q7 3 47 44l200 197q5 4 12 4l15 -3q22 -11 29 -28v-11zM823 231q-20 -65 -20 -69q0 -21 26.5 -21t100.5 84q3 3 8 3q10 0 28 -16 q19 -19 19 -30q0 -3 -2 -6q-165 -203 -285 -203q-106 0 -106 121q0 35 12 76l45 152q-100 -138 -217 -243.5t-188 -105.5q-125 0 -125 123q0 49 20 113l127 407q15 48 15 54q0 18 -18.5 18t-44.5 -23q-26 -24 -56 -61q-4 -5 -9 -5q-10 0 -28 16q-19 17 -19 28q0 4 3 8 q155 201 290 201q90 0 90 -125q0 -37 -16 -88l-96 -307q-37 -118 -37 -158q0 -41 22 -41q51 0 153.5 136.5t154.5 231.5q92 169 139 329q6 22 94 22q102 0 102 -29q0 -3 -1 -6z" />
<glyph unicode="&#x1d5;" horiz-adv-x="1487" d="M1489 2011q19 0 19 -20q0 -14 -9 -36q-20 -56 -47 -56h-446q-18 0 -18 23q0 13 5 33q17 56 45 56h451zM953 1520q-51 0 -82 30t-31 79q0 59 40 101t102 42q49 0 80.5 -30.5t31.5 -79.5q0 -60 -41 -101t-100 -41zM1352 1520q-51 0 -81.5 30t-30.5 79q0 59 40 101t101 42 q49 0 81 -30.5t32 -79.5q0 -60 -41 -101t-101 -41zM1469 871q-141 -465 -211 -587t-211.5 -216.5t-383.5 -94.5q-222 0 -322 77.5t-100 211.5q0 130 49 292l182 602q10 32 10 56q0 27 -30 42.5t-106 15.5q-8 0 -8 14t9.5 47t23.5 33q57 -6 275.5 -6t276.5 6q7 0 7 -13.5 t-9.5 -47t-22.5 -33.5q-115 0 -143.5 -27t-47.5 -89l-144 -476q-93 -308 -93 -417t80 -153.5t168 -44.5q176 0 299.5 95t199.5 348l194 648q8 26 8 43q0 73 -145 73q-6 0 -6 13t10 47t23 34q57 -6 233.5 -6t234.5 6q8 0 8 -12.5t-10 -47t-23 -34.5q-106 0 -140 -32.5 t-49 -83.5z" />
</font>
</defs>
</svg>
