<?xml version="1.0" standalone="no"?>
<!DOCTYPE svg PUBLIC "-//W3C//DTD SVG 1.1//EN" "http://www.w3.org/Graphics/SVG/1.1/DTD/svg11.dtd" >
<svg xmlns="http://www.w3.org/2000/svg">
<metadata>
This is a custom SVG webfont generated by Font Squirrel.
</metadata>
<defs>
<font id="webfont6zH5SGMo" horiz-adv-x="511" >
<font-face units-per-em="1000" ascent="806" descent="-194" />
<missing-glyph horiz-adv-x="358" />
<glyph unicode="IJ" horiz-adv-x="872" d="M338 19q0 -19 -20 -19t-61.5 1.5t-62.5 1.5t-62 -1.5t-61 -1.5q-14 0 -14 13q0 12 6 15t24 3q49 0 63.5 7.5t20.5 33.5l136 544q3 9 3 19q0 11 -15 14t-48 3q-12 0 -16.5 0.5t-7.5 3.5t-3 9q0 18 19 18q21 0 63 -1.5t62 -1.5q21 0 62 1.5t61 1.5q14 0 14 -12 q0 -13 -6.5 -16t-24.5 -3q-49 0 -63 -7.5t-20 -33.5l-135 -540l-4 -22q0 -7 2 -10t16.5 -5.5t43.5 -2.5q12 0 16.5 -0.5t8 -3t3.5 -8.5zM969 671q0 -13 -6 -16t-20 -3q-33 0 -43 -7t-16 -29l-117 -472q-17 -69 -77.5 -117.5t-130.5 -48.5q-50 0 -84 29.5t-34 78.5 q0 22 6.5 37.5t14.5 23t18.5 11.5t15 4.5t7.5 0.5q17 0 29 -10.5t12 -28.5q0 -21 -16.5 -40t-43.5 -19q-9 0 -11 1q6 -30 29.5 -48t54.5 -18q40 0 78 43.5t53 101.5l116 466q4 14 4 20q0 7 -3.5 11t-8.5 5t-18 3q-18 2 -46 2h-12q-10 0 -14 0.5t-7.5 3t-3.5 8.5q0 19 21 19 q22 0 67.5 -1.5t68.5 -1.5q17 0 52 1.5t51 1.5q14 0 14 -12z" />
<glyph unicode="ij" horiz-adv-x="583" d="M336 611q0 -24 -20 -43.5t-44 -19.5q-21 0 -33 12.5t-12 30.5q0 24 20 43.5t44 19.5q21 0 33 -13t12 -30zM499 -55q-16 -63 -67.5 -106.5t-109.5 -43.5q-34 0 -57.5 15.5t-23.5 42.5q0 26 16 39.5t33 13.5q18 0 26.5 -10t8.5 -22q0 -5 -2 -12.5t-11 -19t-25 -16.5 q18 -9 34 -9q42 0 72 41t42 90l95 381q7 28 7 51q0 40 -27 40q-67 0 -117 -125q-3 -9 -5 -12t-4.5 -4t-9.5 -1q-15 0 -15 10q0 3 6 18.5t19 38.5t30.5 44.5t43 37t53.5 15.5q40 0 63 -26.5t23 -63.5q0 -18 -5 -33zM331 143q0 -3 -4 -17.5t-14 -38t-23.5 -45.5t-36.5 -37.5 t-49 -15.5q-37 0 -56.5 24t-19.5 56q0 20 18 69l37 99l30 83q18 49 18 72q0 28 -22 28q-59 0 -93 -126q-3 -11 -6 -13.5t-12 -2.5q-15 0 -15 10q0 3 4 18t14 38.5t24 45t37 37t49 15.5q31 0 53 -20.5t22 -59.5q0 -21 -12 -56l-64 -171q-26 -74 -26 -96q0 -28 22 -28 q59 0 93 125q3 12 5.5 14.5t11.5 2.5q15 0 15 -10zM643 611q0 -24 -20 -43.5t-44 -19.5q-21 0 -33 12.5t-12 30.5q0 24 20 43.5t44 19.5q21 0 33 -13t12 -30z" />
<glyph unicode="fk" horiz-adv-x="792" d="M815 143q0 -3 -4 -19t-13 -41t-19 -42q-30 -52 -77 -52q-33 0 -58.5 24t-25.5 73q0 17 4 34q3 14 3 25q0 27 -18.5 46t-39 27t-43.5 11l-51 -203q-8 -37 -39 -37q-13 0 -20.5 8t-7.5 18q1 11 2 13l94 372h-225l-62 -320q-54 -285 -161 -285q-30 0 -54.5 17t-24.5 49 q0 25 15 40t35 15q13 0 23.5 -8.5t10.5 -23.5q0 -17 -11.5 -31t-32.5 -18q13 -18 39 -18q36 0 57 83l31 137l70 363h-62q-10 0 -14 0.5t-7.5 3t-3.5 8.5q0 13 6.5 16t21.5 3h65l10 55q4 19 11 49t12.5 45t15.5 36.5t20 32t25 23.5t33 19t40.5 10t50.5 4q52 0 84 -14 q40 -17 40 -52h1l9 35q5 14 8.5 17t19.5 3h15q24 0 24 -10q-2 -12 -3 -15l-102 -408q26 12 45 30t63 69q70 82 130 82q31 0 47 -18.5t16 -41.5q0 -26 -15.5 -41t-34.5 -15q-18 0 -26.5 10t-8.5 22q0 7 2.5 15.5t14 20t30.5 14.5q-8 12 -27 12q-24 0 -49.5 -16.5t-41 -32.5 t-50.5 -56q-42 -48 -71 -66q133 -19 133 -104q0 -14 -5 -35q-8 -40 -8 -56q0 -43 29 -43q16 0 28.5 10.5t21.5 31t14.5 36.5t11.5 41q4 16 7 19.5t12 3.5q15 0 15 -10zM510 431l43 176h-1q-12 -23 -42 -23q-13 0 -23.5 8.5t-10.5 23.5t10.5 29t28.5 19q-25 19 -78 19 q-89 0 -112 -65q-13 -36 -42 -187h227z" />
<glyph unicode="&#xfb00;" horiz-adv-x="613" d="M758 639q0 -25 -15 -40t-35 -15q-13 0 -23.5 8.5t-10.5 23.5q0 18 12 31.5t30 17.5q-16 18 -45 18q-19 0 -32 -17t-17.5 -32t-11.5 -46q-10 -45 -16 -82t-14 -75h77q10 0 14.5 -0.5t8 -3t3.5 -8.5q0 -13 -6.5 -16t-21.5 -3h-81l-69 -351q-17 -91 -50 -154 q-20 -37 -61 -68.5t-88 -31.5q-36 0 -66 16.5t-30 50.5q0 24 14.5 39t35.5 15q13 0 23.5 -8.5t10.5 -23.5q0 -18 -12 -31.5t-30 -17.5q19 -18 55 -18q23 0 45.5 17t32 30.5t14.5 23.5q19 42 42 162l68 350h-233l-61 -319q-55 -286 -161 -286q-30 0 -54.5 17t-24.5 49 q0 25 15 40t35 15q13 0 23.5 -8.5t10.5 -23.5q0 -17 -11.5 -31t-32.5 -18q13 -18 39 -18q36 0 55 76q13 46 30 133l73 374h-62q-10 0 -14 0.5t-7.5 3t-3.5 8.5q0 13 6 16t21 3h66l20 103q6 33 15.5 58.5t29 53.5t54.5 43.5t83 15.5q46 0 77 -17t31 -50q0 -24 -14.5 -39 t-35.5 -15q-13 0 -23.5 8.5t-10.5 23.5q0 20 13.5 33t26.5 16q-23 18 -63 18q-33 0 -57.5 -15t-31.5 -29q-18 -35 -50 -208h233q20 106 29 142t24 65q15 28 43.5 47.5t59.5 19.5q35 0 61 -17.5t26 -48.5z" />
<glyph unicode="&#xfb01;" horiz-adv-x="562" d="M586 143q-12 -60 -30 -98q-27 -56 -73 -56q-36 0 -60 25.5t-24 64.5q0 14 5 34l72 287h-200l-60 -314q-12 -61 -25 -108t-32.5 -91t-46 -68t-58.5 -24q-30 0 -54.5 17t-24.5 49q0 25 15 40t35 15q13 0 23.5 -8.5t10.5 -23.5q0 -17 -11.5 -31t-32.5 -18q13 -18 39 -18 q35 0 56 79l33 147l69 357h-62q-10 0 -14 0.5t-7.5 3t-3.5 8.5q0 13 6.5 16t21.5 3h65l18 94q19 101 71.5 140.5t145.5 39.5q143 0 143 -75q0 -26 -15.5 -41t-34.5 -15q-18 0 -26.5 10t-8.5 22q0 4 1 11t12 20.5t31 17.5q-28 28 -100 28q-36 0 -61.5 -8.5t-40 -19t-25.5 -35 t-15.5 -42t-12.5 -54.5l-18 -93h239q15 0 19.5 -1.5t4.5 -9.5q-2 -7 -3 -13l-76 -304q-7 -28 -7 -51q0 -41 26 -41q37 0 67 119q4 16 7 19.5t12 3.5q15 0 15 -10z" />
<glyph unicode="&#xfb02;" horiz-adv-x="588" d="M612 143q-12 -60 -30 -98q-27 -56 -73 -56q-36 0 -60 25.5t-24 64.5q0 14 5 34l72 287h-225l-62 -320q-54 -285 -161 -285q-30 0 -54.5 17t-24.5 49q0 25 15 40t35 15q13 0 23.5 -8.5t10.5 -23.5q0 -17 -11.5 -31t-32.5 -18q13 -18 39 -18q36 0 57 83l31 137l70 363h-62 q-10 0 -14 0.5t-7.5 3t-3.5 8.5q0 13 6.5 16t21.5 3h65l10 55q4 19 11 49t12.5 45t15.5 36.5t20 32t25 23.5t33 19t40.5 10t50.5 4q52 0 84 -14q40 -17 40 -52h1l9 35q5 14 8.5 17t19.5 3h15q24 0 24 -10q0 -4 -3 -13l-142 -568q-7 -28 -7 -51q0 -41 26 -41q37 0 67 119 q4 16 7 19.5t12 3.5q15 0 15 -10zM510 431l43 176h-1q-12 -23 -42 -23q-13 0 -23.5 8.5t-10.5 23.5t10.5 29t28.5 19q-25 19 -78 19q-89 0 -112 -65q-13 -36 -42 -187h227z" />
<glyph unicode="&#xfb04;" horiz-adv-x="894" d="M918 143q-12 -60 -30 -98q-27 -56 -73 -56q-36 0 -60 25.5t-24 64.5q0 14 5 34l72 287h-225l-60 -314q-34 -159 -72 -213q-67 -78 -140 -78q-39 0 -70.5 16.5t-31.5 50.5q0 24 14.5 39t35.5 15q13 0 23.5 -8.5t10.5 -23.5q0 -14 -9.5 -28.5t-31.5 -19.5q21 -19 59 -19 q25 0 48.5 17.5t34 31.5t15.5 24q19 42 44 171l66 339h-243l-62 -321q-54 -284 -160 -284q-30 0 -54.5 17t-24.5 49q0 25 15 40t35 15q13 0 23.5 -8.5t10.5 -23.5q0 -17 -11.5 -31t-32.5 -18q14 -18 39 -18q36 0 56 82q20 81 31 137l70 364h-61q-10 0 -14.5 0.5t-8 3 t-3.5 8.5q0 13 6 16t22 3h65l20 101q7 35 16.5 60.5t29 53.5t54.5 43.5t83 15.5q46 0 77 -17t31 -50q0 -24 -14.5 -39t-35.5 -15q-13 0 -23.5 8.5t-10.5 23.5q0 20 13.5 33t26.5 16q-23 18 -63 18q-48 0 -79 -31q-17 -15 -34 -88l-26 -133h243l9 49q3 16 9 43.5t10.5 41.5 t12.5 35t16 32l20 24q11 15 24.5 22t31 14.5t38.5 10t46 2.5q52 0 84 -14q40 -17 40 -52h1l9 35q5 14 8.5 17t19.5 3h15q24 0 24 -10q0 -4 -3 -13l-142 -568q-7 -28 -7 -51q0 -41 26 -41q37 0 67 119q4 16 7 19.5t12 3.5q15 0 15 -10zM816 431l43 176h-1q-12 -23 -42 -23 q-13 0 -23.5 8.5t-10.5 23.5t10.5 29t28.5 19q-25 19 -77 19q-35 0 -59 -9t-37 -28.5t-18.5 -34t-11.5 -40.5q-4 -13 -29 -140h227z" />
<glyph unicode=" "  horiz-adv-x="358" />
<glyph unicode="&#x09;" horiz-adv-x="358" />
<glyph unicode="&#xa0;" horiz-adv-x="358" />
<glyph unicode="!" horiz-adv-x="307" d="M370 654l-149 -450q-5 -12 -7.5 -14.5t-10.5 -2.5q-15 0 -15 12q0 3 2 12l75 445q4 26 21 41t27 17t17 2q21 0 33 -12.5t12 -28.5q0 -7 -5 -21zM222 63q0 -24 -20 -43.5t-45 -19.5q-19 0 -31.5 12t-12.5 31q0 25 20 44t44 19q21 0 33 -13t12 -30z" />
<glyph unicode="&#x22;" horiz-adv-x="401" d="M354 673l-80 -250h-30l46 250q2 13 14 22.5t26 9.5t21 -9.5t3 -22.5zM448 673l-80 -250h-30l46 250q2 13 14 22.5t26 9.5t21 -9q4 -7 4 -14q0 -4 -1 -9z" />
<glyph unicode="#" horiz-adv-x="818" d="M828 347q0 -20 -34 -20h-157l-76 -154h185q33 0 33 -20t-33 -20h-206l-159 -321q-6 -6 -15 -6q-20 0 -20 20q0 4 5 17l144 290h-165l-159 -321q-6 -6 -15 -6q-20 0 -20 20q0 4 5 17l144 290h-136q-34 0 -34 20t34 20h157l76 154h-185q-33 0 -33 20t33 20h206l159 321 q6 6 15 6q20 0 20 -20q0 -4 -5 -17l-144 -290h165l159 321q6 6 15 6q20 0 20 -20q0 -4 -5 -17l-144 -290h136q34 0 34 -20zM592 327h-165l-76 -154h165z" />
<glyph unicode="$" horiz-adv-x="500" d="M581 560q-10 -81 -62 -81q-17 0 -28 10q-10 9 -10 26q0 23 19 41q16 15 38 15q10 0 17 -3q0 51 -34.5 77.5t-87.5 28.5l-68 -272q28 -7 40.5 -11t29.5 -15t32 -29q31 -46 31 -102q0 -8 -1 -16q-8 -90 -77.5 -161t-157.5 -78l-11 -46h-31l11 46q-63 3 -103 42 q-34 33 -34 93q0 9 1 19q9 85 62 85q14 0 26.5 -9.5t11.5 -30.5q-2 -20 -17.5 -36t-40.5 -16q-11 0 -17 3v-9q0 -50 30 -77q34 -31 89 -34l75 299q-41 11 -61.5 20.5t-39.5 31.5q-35 38 -35 97q0 7 1 15q6 71 65 138.5t161 82.5q5 1 6 5q1 1 2 6t1 7l7 28h31l-10 -46 q70 -3 107 -42q33 -34 33 -87q0 -8 -1 -15zM402 673q-64 -7 -111 -52t-52 -99v-11q0 -79 97 -101zM438 191q1 7 1 13q0 45 -25 70q-27 28 -71 37l-72 -290q67 9 114.5 60.5t52.5 109.5z" />
<glyph unicode="%" horiz-adv-x="818" d="M846 730q0 -7 -11 -21l-649 -752q-11 -13 -21 -13q-8 0 -14 6t-6 14q0 7 11 20l573 665v1q-63 -29 -122 -29q-77 0 -131 42q3 -14 3 -39q0 -98 -57 -187.5t-122 -89.5q-42 0 -68.5 36t-26.5 97q0 97 61 183.5t129 86.5q37 0 60 -32q55 -75 153 -75q55 0 108 25t86 64 q15 18 25 18q8 0 13.5 -6t5.5 -14zM788 221q0 -94 -56.5 -185.5t-123.5 -91.5q-43 0 -69 37.5t-26 95.5q0 96 60.5 183t130.5 87q44 0 64 -39.5t20 -86.5zM449 629q0 40 -13 69.5t-41 29.5q-30 0 -57.5 -33t-44.5 -79.5t-27 -92t-10 -74.5q0 -80 46 -80q49 0 98 85t49 175z M757 226q0 44 -14 71.5t-39 27.5q-41 0 -75 -57t-49.5 -120t-15.5 -102q0 -80 46 -80q31 0 65.5 38.5t58 100t23.5 121.5z" />
<glyph unicode="&#x26;" horiz-adv-x="767" d="M734 311q0 -34 -9.5 -73.5t-35 -86.5t-63 -84.5t-101.5 -63t-143 -25.5q-119 0 -187.5 58t-68.5 140q0 37 22.5 96t70.5 111l3 6q0 2 -2 7q-9 28 -9 60q0 95 66.5 177.5t146.5 82.5q50 0 78 -33.5t28 -81.5q0 -79 -53 -79q-18 0 -26.5 10t-8.5 22q0 2 0.5 5.5t3.5 11.5 t8.5 14.5t17 12t27.5 5.5q-1 49 -23.5 70t-51.5 21q-44 0 -80.5 -46t-54.5 -106t-20 -115q51 34 98 34q28 0 45.5 -16t17.5 -44q0 -35 -29 -63t-67 -28q-49 0 -81 32q-18 -33 -34.5 -89.5t-16.5 -96.5q0 -43 16.5 -75t44.5 -49t58 -24.5t62 -7.5q74 0 133 24.5t93 60.5 t56 80.5t29.5 79.5t7.5 63q0 73 -52 140q-78 -48 -103.5 -73t-25.5 -65q0 -14 3 -22q12 32 45 32q32 0 32 -31q0 -19 -13.5 -33t-34.5 -14q-27 0 -45 19.5t-18 51.5t21 62t41 44.5t54 35.5t55 36.5t51 50t46 74.5q-34 2 -34 31q0 21 15 34t32 13q13 0 23 -8t10 -23 q0 -13 -10.5 -43t-42 -76t-74.5 -77q57 -75 57 -156zM400 406q0 33 -33 33q-45 0 -91 -60q17 -47 60 -47q27 0 45.5 23t18.5 51z" />
<glyph unicode="'" horiz-adv-x="307" d="M354 673l-80 -250h-30l46 250q2 13 14 22.5t26 9.5t21 -9q4 -7 4 -14q0 -4 -1 -9z" />
<glyph unicode="(" horiz-adv-x="409" d="M271 -240q0 -10 -10 -10q-11 0 -37.5 38.5t-44.5 86.5q-27 75 -27 172q0 98 33 227.5t108 252.5q39 64 90 119t83.5 79.5t39.5 24.5q10 0 10 -10q0 -3 -15 -18q-84 -72 -147 -176t-93.5 -207.5t-44.5 -185.5t-14 -142q0 -143 62 -237z" />
<glyph unicode=")" horiz-adv-x="409" d="M382 453q0 -98 -33 -227.5t-108 -252.5q-39 -64 -90 -119t-83.5 -79.5t-39.5 -24.5q-10 0 -10 10q0 3 15 18q84 72 147 176t93.5 207.5t44.5 185.5t14 142q0 143 -62 237l-7 14q0 10 10 10q11 0 37.5 -38.5t44.5 -86.5q27 -75 27 -172z" />
<glyph unicode="*" d="M537 447q0 -12 -10.5 -22t-21.5 -10q-9 0 -20 11l-90 88l-27 -161q-4 -34 -32 -34q-21 0 -21 18l4 16l54 161l-141 -93q-10 -6 -17 -6q-20 0 -20 20q0 19 24 30l150 70l-113 69q-14 9 -14 18q0 12 10 22t22 10q8 0 19 -11l90 -88l27 161q5 34 33 34q8 0 14 -5t6 -13 l-4 -16l-53 -161l140 93q9 6 17 6q20 0 20 -20t-24 -30l-150 -70l113 -68q15 -9 15 -19z" />
<glyph unicode="+" horiz-adv-x="767" d="M752 250q0 -20 -33 -20h-257l-65 -262q-7 -25 -22 -25q-20 0 -20 21l4 19l62 247h-248q-33 0 -33 20t33 20h258l65 262q6 25 22 25q9 0 14.5 -6t5.5 -14q0 -5 -4 -19l-62 -248h247q33 0 33 -20z" />
<glyph unicode="," horiz-adv-x="307" d="M224 47q0 -54 -32 -113t-65 -93t-44 -34q-10 0 -10 10q0 4 13 17q92 78 112 181q-19 -15 -41 -15q-44 0 -44 42q0 24 18.5 44t46.5 20q46 0 46 -59z" />
<glyph unicode="-" horiz-adv-x="358" d="M331 199q-2 -8 -6.5 -10t-20.5 -2h-192q-11 0 -15.5 0.5t-7.5 3.5t-3 9q0 9 7 30q3 9 7 11t19 2h195q10 0 14 -0.5t7.5 -3t3.5 -8.5q0 -8 -8 -32z" />
<glyph unicode="." horiz-adv-x="307" d="M222 63q0 -23 -20 -43t-45 -20q-20 0 -32 12t-12 31q0 24 20.5 43.5t44.5 19.5q20 0 32 -13t12 -30z" />
<glyph unicode="/" d="M616 730q0 -6 -7 -19l-547 -943q-11 -18 -23 -18q-8 0 -13.5 6t-5.5 14q0 6 7 19l547 943q11 18 23 18q8 0 13.5 -6t5.5 -14z" />
<glyph unicode="0" d="M476 164q-44 -99 -105 -142.5t-120 -43.5q-32 0 -56.5 10t-38 28t-22.5 35t-12 40t-4 33.5t-1 23.5q0 68 28 178.5t64 178.5q43 82 98.5 121.5t113.5 39.5q37 0 63.5 -14.5t39.5 -33.5t20.5 -45.5t9 -42.5t1.5 -34q0 -60 -24 -161t-55 -171zM380 98q32 71 72.5 233.5 t40.5 218.5q0 46 -22 70t-55 24q-31 0 -65.5 -23t-59.5 -74q-27 -56 -68.5 -222.5t-41.5 -226.5q0 -53 22.5 -75.5t52.5 -22.5q37 0 71.5 29.5t52.5 68.5z" />
<glyph unicode="1" d="M417 19q0 -19 -20 -19q-22 0 -67 1.5t-67 1.5q-21 0 -65 -1.5t-66 -1.5q-15 0 -15 12q0 13 6.5 16t21.5 3h8q56 0 72 8t22 34l118 474q-55 -41 -111 -41q-16 0 -16 12q0 16 16 19q99 10 176 113q13 16 19 16q12 0 12 -12q-2 -10 -3 -13l-143 -571q-3 -12 -3 -19 q0 -10 5 -13t23 -5q26 -2 43 -2h8q10 0 14.5 -0.5t8 -3t3.5 -8.5z" />
<glyph unicode="2" d="M515 163q0 -7 -9.5 -34t-27 -62t-51 -62t-73.5 -27q-39 0 -97 40q-54 37 -85 37q-38 0 -56 -64q-2 -8 -5 -10.5t-12 -2.5q-15 0 -15 10q1 8 5 22t24.5 55t51.5 78q20 24 44.5 45t38.5 30t46 28q86 51 136 119.5t50 168.5q0 57 -26 83.5t-62 26.5q-56 0 -104 -51 t-70.5 -108t-22.5 -94q0 -33 22 -33q40 0 69 51.5t29 83.5q0 17 -10 37l-1 6q0 11 11 11q9 0 15.5 -18.5t6.5 -34.5q0 -23 -13 -58t-42.5 -67.5t-65.5 -32.5q-51 0 -51 63q0 21 9.5 53t29 69t46 69.5t65 54t80.5 21.5q64 0 110 -44t46 -125q0 -47 -15 -84.5t-51 -71 t-74.5 -59t-104.5 -63.5q-105 -61 -154 -145q6 3 22 3q30 0 106 -17q48 -12 83 -12q45 0 75.5 34t44.5 74q3 12 5.5 14.5t11.5 2.5q15 0 15 -10z" />
<glyph unicode="3" d="M480 203q0 -89 -78 -157t-174 -68q-61 0 -97 37t-36 91q0 78 53 78q16 0 25 -9.5t9 -22.5q0 -16 -14 -34q-12 -14 -34 -14h-8q1 -52 31 -78t71 -26q70 0 119 59q33 38 47 93t14 84q0 83 -77 83h-28q-10 0 -14.5 0.5t-7.5 2.5t-3 7q0 10 3.5 14.5t8 5.5t14.5 1h23 q46 0 81 20t52 46.5t27.5 59.5t12.5 50.5t2 27.5q0 49 -25.5 69.5t-59.5 20.5q-71 0 -129.5 -56t-58.5 -117q0 -37 26 -37q23 0 42 18.5t19 43.5q0 7 -2 14t-4 11l-2 4q-4 8 -4 11q0 11 11 11q8 0 15.5 -17.5t7.5 -32.5q0 -36 -26.5 -60.5t-56.5 -24.5q-27 0 -41.5 18 t-14.5 46q0 67 67 128.5t153 61.5q61 0 102 -36t41 -98q0 -60 -43.5 -118.5t-118.5 -83.5q80 -37 80 -127z" />
<glyph unicode="4" d="M474 14q0 -11 -34 -20t-59 -9q-14 0 -20 1l-37 -146q-9 -34 -38 -34q-27 0 -27 26q0 6 4 21l37 149l-59 23q-35 11 -73 11q-60 0 -77 -15q-27 -20 -32 -20t-10 6.5t-5 10.5q0 10 14 20.5t25 15.5q10 8 29.5 25t63.5 68t79 108q93 151 148 361q5 18 8 26t11.5 16t22.5 8 q27 0 27 -26q-2 -13 -7.5 -36.5t-30.5 -93t-58 -135.5t-94.5 -152.5t-137.5 -156.5q13 1 27 1q39 0 76 -11q10 -3 14.5 -5.5t46.5 -17.5l42 166q10 43 40 43q4 0 9 -1t11.5 -7.5t6.5 -18.5q0 -5 -4 -20l-44 -178q5 -1 16 -1q32 0 60 11l14 4q6 0 10.5 -6t4.5 -11z" />
<glyph unicode="5" d="M498 265q0 -112 -82 -199.5t-180 -87.5q-61 0 -95 40.5t-34 98.5q0 91 58 91q17 0 26.5 -9.5t9.5 -24.5q0 -19 -14.5 -35.5t-38.5 -16.5q-7 0 -10 1q1 -65 31.5 -91t66.5 -26q34 0 72 24t68 79q17 32 33.5 96t16.5 104q0 89 -61 89q-76 0 -135 -69q-10 -10 -16 -10 q-13 0 -13 12q1 10 2 13l76 304q5 17 12 17q4 0 14 -5q47 -26 112 -26q66 0 129 28q8 3 12 3q9 0 9 -9t-25.5 -31.5t-74 -44.5t-98.5 -22q-38 0 -62 9l-13 3q-2 -1 -5 -12l-46 -184q59 46 124 46q62 0 96.5 -45.5t34.5 -109.5z" />
<glyph unicode="6" d="M507 270q0 -112 -79 -202t-174 -90q-38 0 -65.5 17t-40 38t-19.5 51t-8 44t-1 30q0 71 25 170t82 179q54 76 118 117.5t126 41.5q45 0 71 -21t26 -58q0 -29 -13.5 -47.5t-38.5 -18.5q-18 0 -26 9.5t-8 22.5q0 7 2.5 16t15.5 20.5t35 11.5q-11 40 -65 40q-76 0 -145 -87 q-57 -73 -93 -215q59 87 135 87q40 0 69 -17t43.5 -43t21 -50t6.5 -46zM380 96q15 30 35 108.5t20 112.5q0 39 -18 63q-17 24 -53 24q-47 0 -83.5 -36t-56 -88.5t-29.5 -100.5t-10 -82q0 -32 16 -61.5t55 -29.5q74 0 124 90z" />
<glyph unicode="7" d="M625 656q0 -4 -9 -17q-77 -118 -126 -224q-79 -168 -131 -371q-5 -21 -9.5 -33t-16.5 -22.5t-30 -10.5q-14 0 -24.5 8.5t-10.5 24.5q0 6 7.5 35.5t34.5 103t68 154.5q34 68 135 234q-22 -11 -45 -11q-30 0 -49 34q-14 22 -20.5 28.5t-20.5 6.5q-17 0 -37.5 -6t-48.5 -22 t-59.5 -51.5t-57.5 -86.5q-5 -8 -16 -8q-15 0 -15 10q0 3 6 15l96 204q5 11 8 13t11 2q15 0 15 -10q0 -3 -23 -53q66 63 134 63q19 0 30 -10.5t13.5 -22t5.5 -35.5q2 -28 7.5 -38.5t20.5 -10.5q51 0 115 94l15 20q4 3 13 3q14 0 14 -10z" />
<glyph unicode="8" d="M494 208q0 -87 -74 -158.5t-168 -71.5q-66 0 -110.5 38t-44.5 99q0 21 6.5 43.5t24 54t58 64t100.5 60.5q-46 41 -52 49q-24 31 -24 77q0 76 64.5 139.5t145.5 63.5q56 0 95 -31.5t39 -86.5t-41 -103.5t-116 -84.5q62 -54 68 -61q29 -39 29 -91zM509 550q0 43 -25.5 67 t-66.5 24q-58 0 -105 -41t-47 -91q0 -38 28 -61l76 -64l9 -7q3 0 16 7.5t32.5 23.5t38 35.5t31.5 48.5t13 58zM435 166q0 21 -8 38t-15.5 25t-24.5 23l-82 69q-72 -34 -115 -92.5t-43 -115.5q0 -48 30 -77.5t78 -29.5q69 0 124.5 50t55.5 110z" />
<glyph unicode="9" d="M553 488q0 -34 -6.5 -82.5t-34.5 -132t-73 -147.5q-42 -60 -102 -104t-125 -44q-48 0 -78 20.5t-30 59.5q0 28 13.5 46.5t38.5 18.5q18 0 26 -9.5t8 -22.5q0 -6 -2 -14.5t-14.5 -20.5t-34.5 -14q16 -36 75 -36q68 0 131 78q59 75 95 222q-57 -87 -135 -87q-33 0 -58.5 12 t-40.5 30t-24.5 40.5t-13 40.5t-3.5 34q0 111 80 200.5t178 89.5q37 0 63.5 -16.5t39 -37.5t19 -50.5t7.5 -43.5t1 -30zM488 550q0 38 -16 64.5t-51 26.5q-32 0 -61.5 -19.5t-42.5 -36.5t-22 -34q-20 -35 -39 -113t-19 -110q0 -87 71 -87q48 0 85.5 37.5t56.5 91t28.5 101 t9.5 79.5z" />
<glyph unicode=":" horiz-adv-x="307" d="M222 63q0 -23 -20 -43t-45 -20q-20 0 -32 12t-12 31q0 24 20.5 43.5t44.5 19.5q20 0 32 -13t12 -30zM303 388q0 -24 -20 -43.5t-45 -19.5q-20 0 -32 12.5t-12 30.5q0 24 20 43.5t45 19.5q20 0 32 -12.5t12 -30.5z" />
<glyph unicode=";" horiz-adv-x="307" d="M218 53q0 -42 -18.5 -88.5t-42.5 -80t-45.5 -55.5t-28.5 -22q-10 0 -10 11q0 6 7 10q86 83 110 181q-18 -9 -33 -9q-44 0 -44 42q0 24 18.5 44t46.5 20q40 0 40 -53zM303 388q0 -24 -20 -43.5t-45 -19.5q-20 0 -32 12.5t-12 30.5q0 24 20 43.5t45 19.5q20 0 32 -12.5 t12 -30.5z" />
<glyph unicode="&#x3c;" horiz-adv-x="778" d="M689 -20q-2 -8 -9.5 -14t-15.5 -6q-5 0 -16 7l-489 261q-13 7 -13 18q0 16 24 26l619 261q15 7 20 7q8 0 13 -6q3 -4 3 -9q0 -3 -1 -5q-3 -12 -24 -22l-587 -248l463 -248q16 -10 13 -22z" />
<glyph unicode="=" horiz-adv-x="767" d="M728 153q0 -20 -33 -20h-546q-34 0 -34 20t34 20h546q33 0 33 -20zM777 347q0 -20 -34 -20h-546q-33 0 -33 20t33 20h546q34 0 34 -20z" />
<glyph unicode="&#x3e;" horiz-adv-x="778" d="M732 228l-619 -261q-15 -7 -20 -7q-8 0 -13 6q-3 4 -3 9q0 3 1 5q3 12 25 22l587 248l-463 248q-17 9 -14 22q2 8 9.5 14t15.5 6q5 0 16 -7l489 -261q14 -8 14 -18q0 -16 -25 -26z" />
<glyph unicode="?" d="M551 592q0 -34 -10.5 -63.5t-30.5 -53t-33.5 -36.5t-35.5 -30l-78 -63q-53 -41 -67.5 -58.5t-14.5 -44.5q0 -34 25 -34q24 0 47 19t33 49q3 10 5.5 12.5t11.5 2.5q15 0 15 -10q0 -24 -33.5 -59.5t-78.5 -35.5q-29 0 -44.5 21t-15.5 49q0 29 14 55t24 36t31 27l121 95 q22 19 35 31.5t29 42t16 62.5q0 42 -24.5 65t-60.5 23q-59 0 -111.5 -52t-80.5 -130q38 0 38 -32q0 -20 -14.5 -34.5t-34.5 -14.5q-34 0 -34 32q0 14 9.5 42.5t30 65t47.5 69t67 54.5t83 22q54 0 87 -35t33 -89zM324 63q0 -24 -20 -43.5t-45 -19.5q-19 0 -31.5 12t-12.5 31 q0 25 20 44t44 19q21 0 33 -13t12 -30z" />
<glyph unicode="@" horiz-adv-x="767" d="M706 68q0 -10 -57 -29.5t-91 -27.5q-87 -22 -170 -22q-113 0 -175 75.5t-62 183.5q0 85 35.5 169t92 147t130.5 102t148 39q99 0 165.5 -70t66.5 -190q0 -75 -43 -204q-41 -113 -118 -113q-14 0 -28.5 4t-30 19.5t-16.5 41.5q-68 -65 -136 -65q-59 0 -98.5 43t-39.5 115 q0 106 76.5 193t166.5 87q79 0 113 -85h26q10 0 13.5 -0.5t6.5 -2.5t3 -7q-1 -10 -2 -13l-65 -263q-3 -18 -3 -20q0 -25 18 -25q31 0 57 39t40.5 92.5t22 99t7.5 67.5q0 102 -55.5 168.5t-147.5 66.5q-88 0 -175 -61.5t-143 -164t-56 -211.5q0 -101 54 -168t153 -67 q127 0 258 60q16 7 34 7q11 0 15.5 -0.5t7 -2.5t2.5 -7zM570 268l40 162l3 14q0 8 -4 22t-13 32.5t-28.5 32t-45.5 13.5q-64 0 -123 -88t-59 -186q0 -44 19 -82t61 -38q46 0 94 43t56 75z" />
<glyph unicode="A" horiz-adv-x="743" d="M692 18q0 -18 -18 -18q-17 0 -52 1.5t-53 1.5q-19 0 -58 -1.5t-57 -1.5q-15 0 -15 12q0 19 23 19q67 0 67 32l-11 166h-228l-72 -126q-14 -26 -14 -38q0 -27 42 -34q16 -2 16 -12q0 -19 -18 -19q-15 0 -46 1.5t-47 1.5q-13 0 -40.5 -1.5t-39.5 -1.5t-12 12q1 18 12 19 q17 1 28.5 3.5t28.5 9.5t33 24.5t31 44.5l332 585q10 18 26 18q12 0 14.5 -4t3.5 -21l43 -626q2 -21 11 -27.5t46 -6.5q10 0 14 -0.5t7 -3.5t3 -9zM516 260l-23 327l-186 -327h209z" />
<glyph unicode="B" horiz-adv-x="704" d="M677 219q0 -81 -77 -150t-180 -69h-330q-10 0 -14 0.5t-7.5 3t-3.5 8.5q0 13 6 16t21 3q49 0 62.5 7.5t19.5 34.5l135 543q4 14 4 19q0 11 -14 14t-44 3q-11 0 -15.5 0.5t-8 3t-3.5 8.5q0 13 6 16t21 3h311q78 0 123 -39.5t45 -96.5q0 -60 -54 -115t-142 -75 q59 -7 99 -43t40 -95zM646 553q0 15 -3 29t-12 31.5t-29.5 28t-49.5 10.5h-118q-26 0 -34.5 -5t-14.5 -31l-62 -250h132q81 0 136 59.5t55 127.5zM588 232q0 15 -3 29.5t-11.5 35.5t-30.5 34t-54 13h-172l-70 -281q0 -1 -2 -9.5t-2 -12.5t1 -6t8 -3t22 -1h124 q79 0 134.5 62.5t55.5 138.5z" />
<glyph unicode="C" horiz-adv-x="716" d="M810 681l-61 -243q-3 -12 -6 -15t-12 -3q-15 0 -15 10q0 1 1 11l3 25q1 14 1 25q0 75 -34.5 129t-107.5 54q-60 0 -124 -35.5t-113 -102.5q-53 -73 -79 -170t-26 -159q0 -99 50.5 -148.5t121.5 -49.5q73 0 148.5 58.5t110.5 174.5q3 8 16 8q15 0 15 -10q0 -21 -21 -62 t-57 -86.5t-97 -79.5t-129 -34q-106 0 -175.5 73t-69.5 194q0 114 62 222t160 173t199 65q98 0 151 -85l63 74q4 5 8 7.5t6 2.5l2 1q4 0 7 -2.5t4 -4.5v-3q0 -6 -2 -14z" />
<glyph unicode="D" horiz-adv-x="755" d="M775 438q0 -110 -55 -212t-143.5 -164t-181.5 -62h-307q-10 0 -14 0.5t-7.5 3t-3.5 8.5q0 13 6 16t21 3q49 0 62.5 7.5t19.5 34.5l135 543q4 14 4 19q0 11 -14 14t-44 3q-11 0 -15.5 0.5t-8 3t-3.5 8.5q0 13 6 16t21 3h312q96 0 153 -68t57 -177zM692 476q0 91 -46 133.5 t-114 42.5h-97q-26 0 -34.5 -5.5t-14.5 -30.5l-138 -553q0 -1 -2 -9.5t-2 -12.5t1 -6t8 -3t22 -1h103q115 0 200 99q56 66 85 174t29 172z" />
<glyph unicode="E" horiz-adv-x="678" d="M687 247q-3 -10 -4 -12l-89 -219q-5 -11 -9 -13.5t-19 -2.5h-479q-10 0 -14 0.5t-7.5 3t-3.5 8.5q0 13 6 16t21 3q49 0 62.5 7.5t19.5 34.5l134 536l4 23q0 6 -2 9t-15.5 5.5t-40.5 2.5q-12 0 -16.5 0.5t-7.5 3.5t-3 9q0 12 6 15t21 3h467q10 0 13 -0.5t8 -3.5q4 -1 4 -5 q0 -1 -0.5 -3t-1 -4.5t0.5 -9.5l-23 -177q-1 -10 -2 -14t-4.5 -6t-10.5 -2q-15 0 -15 12q0 7 2 17q5 40 5 64q0 56 -27.5 78.5t-105.5 22.5h-125q-26 0 -34 -5t-14 -29l-61 -246h81q59 0 81.5 19t37.5 74q6 22 11 23q3 1 8 1q16 0 16 -12q-2 -10 -3 -13l-55 -220 q-3 -13 -6 -16.5t-12 -3.5q-16 0 -16 12l2 11q9 33 9 51q0 23 -14 33t-61 10h-87l-69 -275q0 -1 -2 -9.5t-2 -12.5t1 -6t8 -3t22 -1h122q47 0 82 9t58.5 22t44 41.5t34 55.5t33.5 75q7 17 10 20.5t11 3.5q15 0 15 -11z" />
<glyph unicode="F" horiz-adv-x="653" d="M707 477q-1 -10 -2 -14t-4.5 -6t-10.5 -2q-15 0 -15 12l1 16q6 46 6 66q0 55 -26 77.5t-103 22.5h-117q-26 0 -34 -5t-14 -29l-64 -259h78q59 0 81 19.5t36 76.5q4 14 7 17.5t12 3.5q15 0 15 -11q0 -6 -2 -14l-55 -220q-4 -14 -7 -17t-12 -3q-15 0 -15 12q0 4 3 14 q8 32 8 49q0 22 -14 32t-60 10h-83l-63 -252q-4 -15 -4 -21q0 -8 2.5 -11.5t19 -6.5t51.5 -3h10q10 0 14 -0.5t7.5 -3t3.5 -8.5q0 -19 -21 -19q-22 0 -68.5 1.5t-69.5 1.5q-20 0 -61 -1.5t-61 -1.5q-14 0 -14 12q0 13 6 16t21 3q49 0 62.5 7.5t19.5 34.5l134 536l4 23 q0 6 -2 9t-15.5 5.5t-40.5 2.5q-12 0 -16.5 0.5t-7.5 3.5t-3 9q0 12 6 15t21 3h455q10 0 13 -0.5t8 -3.5q4 -1 4 -5q0 -1 -0.5 -3t-1 -4.5t0.5 -9.5z" />
<glyph unicode="G" horiz-adv-x="774" d="M768 260q0 -12 -6 -15t-18 -3q-21 0 -32 -4t-13.5 -9.5t-6.5 -19.5l-48 -191q-5 -17 -12 -17q-8 0 -21.5 20t-20.5 40q-25 -32 -78 -57.5t-116 -25.5q-108 0 -177 73.5t-69 193.5q0 114 62 222t160 173t199 65q98 0 151 -85l63 74q4 5 8 7.5t6 2.5l2 1q4 0 7 -2.5t4 -4.5 v-3q0 -6 -2 -14l-61 -243q-3 -12 -6 -15t-12 -3q-15 0 -15 10q0 1 1 11l3 25q1 14 1 25q0 75 -34.5 129t-107.5 54q-60 0 -124 -35.5t-113 -102.5q-54 -74 -79.5 -170.5t-25.5 -157.5q0 -95 50.5 -147t126.5 -52q80 0 136 51q22 20 29.5 38.5t24.5 89.5q8 28 8 34 q0 7 -3.5 10.5t-8 4.5t-17.5 3q-26 2 -43 2h-8q-26 0 -26 11q0 20 21 20t65 -1.5t66 -1.5q16 0 49 1.5t48 1.5q13 0 13 -13z" />
<glyph unicode="H" horiz-adv-x="743" d="M689 18q0 -18 -19 -18t-59.5 1.5t-60.5 1.5t-59.5 -1.5t-58.5 -1.5q-14 0 -14 12q0 13 6 16t21 3q49 0 62.5 7.5t19.5 34.5l66 267h-274l-67 -272q-4 -14 -4 -20t2 -9t15.5 -5.5t40.5 -2.5q12 0 16.5 -0.5t7.5 -3.5t3 -9q0 -18 -19 -18t-59.5 1.5t-60.5 1.5t-59.5 -1.5 t-58.5 -1.5q-14 0 -14 12q0 13 6 16t21 3q49 0 62.5 7.5t19.5 34.5l135 543q4 14 4 19q0 11 -14 14t-44 3q-11 0 -15.5 0.5t-8 3t-3.5 8.5q0 19 19 19t59.5 -1.5t60.5 -1.5t59.5 1.5t58.5 1.5q14 0 14 -13q0 -12 -6 -15t-24 -3q-46 0 -59.5 -7.5t-19.5 -32.5l-60 -241h274 l61 245q4 14 4 19q0 11 -14 14t-44 3q-11 0 -15.5 0.5t-8 3t-3.5 8.5q0 19 19 19t59.5 -1.5t60.5 -1.5t59.5 1.5t58.5 1.5q14 0 14 -13q0 -12 -6 -15t-24 -3q-46 0 -59.5 -7.5t-19.5 -32.5l-135 -541l-4 -23q0 -6 2 -9t15.5 -5.5t40.5 -2.5q12 0 16.5 -0.5t7.5 -3.5t3 -9z " />
<glyph unicode="I" horiz-adv-x="386" d="M338 19q0 -19 -20 -19t-61.5 1.5t-62.5 1.5t-62 -1.5t-61 -1.5q-14 0 -14 13q0 12 6 15t24 3q49 0 63.5 7.5t20.5 33.5l136 544q3 9 3 19q0 11 -15 14t-48 3q-12 0 -16.5 0.5t-7.5 3.5t-3 9q0 18 19 18q21 0 63 -1.5t62 -1.5q21 0 62 1.5t61 1.5q14 0 14 -12 q0 -13 -6.5 -16t-24.5 -3q-49 0 -63 -7.5t-20 -33.5l-135 -540l-4 -22q0 -7 2 -10t16.5 -5.5t43.5 -2.5q12 0 16.5 -0.5t8 -3t3.5 -8.5z" />
<glyph unicode="J" horiz-adv-x="525" d="M622 671q0 -13 -6 -16t-20 -3q-32 0 -43 -7t-16 -29l-117 -472q-17 -69 -77.5 -117.5t-130.5 -48.5q-50 0 -84 29.5t-34 78.5q0 22 6.5 37.5t14.5 23t18.5 11.5t15 4.5t7.5 0.5q17 0 29 -10.5t12 -28.5q0 -21 -16.5 -40t-43.5 -19q-9 0 -11 1q6 -30 29.5 -48t54.5 -18 q40 0 78 43.5t53 101.5l116 466q4 14 4 20q0 7 -3.5 11t-8.5 5t-18 3q-18 2 -46 2h-12q-10 0 -14 0.5t-7.5 3t-3.5 8.5q0 19 21 19q22 0 67.5 -1.5t68.5 -1.5q17 0 52 1.5t51 1.5q14 0 14 -12z" />
<glyph unicode="K" horiz-adv-x="769" d="M709 19q0 -19 -17 -19q-14 0 -45 1.5t-46 1.5q-19 0 -56.5 -1.5t-55.5 -1.5q-14 0 -14 13q0 18 19 18q51 0 51 33q0 5 -6 20l-104 279l-139 -115l-35 -144q-13 -47 -13 -56q0 -6 2 -9t15.5 -5.5t40.5 -2.5q12 0 16.5 -0.5t7.5 -3.5t3 -9q0 -18 -19 -18t-59.5 1.5 t-60.5 1.5t-59.5 -1.5t-58.5 -1.5q-14 0 -14 12q0 13 6 16t21 3q49 0 62.5 7.5t19.5 34.5l135 543q4 14 4 19q0 11 -14 14t-44 3q-11 0 -15.5 0.5t-8 3t-3.5 8.5q0 19 19 19t59.5 -1.5t60.5 -1.5t59.5 1.5t58.5 1.5q14 0 14 -13q0 -12 -6 -15t-24 -3q-46 0 -59.5 -7.5 t-19.5 -32.5l-79 -319l352 293q33 27 33 46q0 18 -26 20q-14 0 -14 12q0 19 19 19q17 0 53 -1.5t54 -1.5q12 0 35.5 1.5t33.5 1.5q11 0 11 -12q0 -17 -18 -19q-65 -6 -157 -82l-184 -153l131 -347q9 -23 21 -30.5t39 -8.5q18 0 18 -12z" />
<glyph unicode="L" horiz-adv-x="627" d="M624 246l-4 -13l-76 -215q-5 -13 -9 -15.5t-20 -2.5h-428q-10 0 -14 0.5t-7.5 3t-3.5 8.5q0 13 6 16t21 3q49 0 62.5 7.5t19.5 34.5l135 543q4 14 4 19q0 11 -14 14t-44 3q-11 0 -15.5 0.5t-8 3t-3.5 8.5q0 19 19 19q20 0 61 -1.5t62 -1.5q23 0 69.5 1.5t68.5 1.5 q15 0 15 -12q0 -13 -6 -16t-22 -3h-10q-58 0 -73.5 -8.5t-22.5 -36.5l-136 -544q0 -1 -2 -9.5t-2 -12.5t1 -6t8 -3t22 -1h81q45 0 81 14t58 31.5t42 50t28.5 53t21.5 56.5q6 15 8.5 18.5t11.5 3.5q15 0 15 -12z" />
<glyph unicode="M" horiz-adv-x="897" d="M839 18q0 -18 -19 -18q-18 0 -57.5 1.5t-58.5 1.5t-57.5 -1.5t-56.5 -1.5q-14 0 -14 12q0 13 6 16t21 3q49 0 62.5 7.5t19.5 34.5l141 566h-1l-373 -621q-10 -18 -24 -18q-7 0 -10.5 3t-4.5 6.5t-2 14.5l-61 606h-1l-133 -531q-4 -16 -4 -25q0 -8 1.5 -13.5t6.5 -12.5 t18 -11.5t33 -5.5q19 0 19 -13q0 -18 -18 -18q-15 0 -48.5 1.5t-49.5 1.5t-48 -1.5t-47 -1.5q-13 0 -13 12q0 19 19 19q39 2 63 16.5t34 53.5l128 515q4 14 4 19q0 11 -14 14t-44 3q-11 0 -15.5 0.5t-8 3t-3.5 8.5q0 13 6 16t21 3h133q19 0 23 -3t5 -19l56 -561l340 565 q8 13 13.5 15.5t22.5 2.5h128q10 0 14.5 -0.5t7.5 -3.5t3 -9q0 -12 -6 -15t-24 -3q-46 0 -59.5 -7.5t-19.5 -32.5l-135 -541l-4 -23q0 -6 2 -9t15.5 -5.5t40.5 -2.5q12 0 16.5 -0.5t7.5 -3.5t3 -9z" />
<glyph unicode="N" horiz-adv-x="743" d="M852 670q0 -18 -15 -18q-85 -3 -101 -68l-140 -564q-2 -9 -5 -13.5t-6 -5.5t-9 -1q-10 0 -13 2.5t-7 14.5l-215 597l-129 -515q-4 -16 -4 -25q0 -8 1.5 -13.5t6.5 -12.5t18 -11.5t33 -5.5q19 0 19 -13q0 -18 -18 -18q-15 0 -48.5 1.5t-49.5 1.5t-48 -1.5t-47 -1.5 q-13 0 -13 12q0 19 19 19q80 3 97 70l132 530l3 13q0 8 -61 8q-11 0 -15.5 0.5t-8 3t-3.5 8.5q0 13 6 16t21 3h125q16 0 19.5 -2.5t8.5 -14.5l187 -520l110 439q4 16 4 24q0 41 -60 43q-18 0 -18 12q0 19 18 19q15 0 48 -1.5t49 -1.5t48.5 1.5t47.5 1.5q13 0 13 -13z" />
<glyph unicode="O" horiz-adv-x="767" d="M788 444q0 -117 -60.5 -226t-155.5 -174.5t-194 -65.5q-102 0 -166 72t-64 186q0 113 59.5 222.5t156 178t196.5 68.5q98 0 163 -70.5t65 -190.5zM703 486q0 95 -43.5 144.5t-106.5 49.5q-64 0 -127 -47t-104 -120q-46 -80 -65 -167.5t-19 -140.5q0 -90 39.5 -145.5 t107.5 -55.5q58 0 120 44.5t109 125.5q39 67 64 156t25 156z" />
<glyph unicode="P" horiz-adv-x="678" d="M730 535q0 -86 -82 -152.5t-179 -66.5h-155l-61 -248q-4 -14 -4 -20t2 -9t15.5 -5.5t40.5 -2.5q12 0 16.5 -0.5t7.5 -3.5t3 -9q0 -18 -19 -18t-59.5 1.5t-60.5 1.5t-59.5 -1.5t-58.5 -1.5q-14 0 -14 12q0 13 6 16t21 3q49 0 62.5 7.5t19.5 34.5l135 543q4 14 4 19 q0 11 -14 14t-44 3q-11 0 -15.5 0.5t-8 3t-3.5 8.5q0 13 6 16t21 3h300q80 0 128.5 -42t48.5 -106zM642 562q0 46 -32.5 68t-88.5 22h-86q-27 0 -35 -5t-14 -31l-68 -274h126q93 0 145 58q25 29 39 83t14 79z" />
<glyph unicode="Q" horiz-adv-x="767" d="M695 -1q-1 -4 -2.5 -11t-8 -27t-14.5 -38t-21.5 -40.5t-28.5 -38.5t-36.5 -27t-45.5 -11q-79 0 -79 92q0 30 10 95q-45 -15 -91 -15q-102 0 -166 72t-64 186q0 113 59.5 222.5t156 178t196.5 68.5q98 0 163 -70.5t65 -190.5q0 -135 -81.5 -259.5t-204.5 -178.5 q1 -63 16 -84.5t44 -21.5q31 0 62.5 24.5t47.5 73.5q4 13 12 13q11 0 11 -12zM704 480q0 90 -41 145t-110 55q-56 0 -115.5 -39.5t-104.5 -108.5q-50 -77 -75 -172.5t-25 -157.5q0 -61 22.5 -112.5t71.5 -74.5q-5 13 -5 28q0 38 28.5 71.5t68.5 33.5q73 0 80 -106 q56 36 99 98t64.5 127.5t31.5 119.5t10 93zM473 26q1 8 1 28t-1.5 32t-14.5 26t-38 14q-31 0 -53.5 -27t-22.5 -56q0 -40 41 -40q42 0 88 23z" />
<glyph unicode="R" horiz-adv-x="729" d="M723 92q0 -9 -10 -33.5t-38 -52.5t-66 -28q-52 0 -88 27t-36 79q0 16 15 80q17 68 17 79q0 49 -27.5 68.5t-66.5 19.5h-108l-65 -263q-4 -14 -4 -20t2 -9t15.5 -5.5t40.5 -2.5q12 0 16.5 -0.5t7.5 -3.5t3 -9q0 -18 -19 -18q-20 0 -60 1.5t-59 1.5t-58 -1.5t-58 -1.5 q-14 0 -14 12q0 13 6 16t21 3q49 0 62.5 7.5t19.5 34.5l135 543q4 14 4 19q0 11 -14 14t-44 3q-11 0 -15.5 0.5t-8 3t-3.5 8.5q0 13 6 16t21 3h264q91 0 146 -43t55 -105q0 -59 -54.5 -114.5t-155.5 -81.5q39 -14 62.5 -44.5t23.5 -71.5q0 -27 -8 -88q-6 -52 -6 -76 q0 -19 2 -30t9.5 -20t21.5 -9q24 0 44.5 23.5t33.5 64.5q2 7 3 10t4.5 5t9.5 2q15 0 15 -13zM628 558q0 27 -11.5 46t-26 28t-40.5 14t-41.5 5.5t-42.5 0.5q-51 0 -58 -2q-15 -4 -22 -34l-65 -263h101q94 0 148 52q24 24 38.5 63t17 59t2.5 31z" />
<glyph unicode="S" horiz-adv-x="562" d="M538 238q0 -97 -72 -178.5t-165 -81.5q-106 0 -153 69q-27 -36 -47 -57q-10 -12 -16 -12q-11 0 -11 10q0 2 3 13l52 209q3 11 6 14t12 3q15 0 15 -11l-1 -6q-8 -29 -8 -61q0 -72 43.5 -106t106.5 -34q65 0 116 60.5t51 130.5q0 44 -22 72q-12 13 -24.5 18.5t-52.5 17.5 l-49 14q-36 10 -43 13q-80 37 -80 132q0 88 71 163t161 75t130 -68l45 56q10 12 15 12q4 0 7 -2.5t4 -4.5v-3q0 -6 -2 -14l-52 -207q-3 -12 -6 -15t-12 -3q-15 0 -15 10l1 14q5 28 5 55q0 63 -28.5 102.5t-93.5 39.5q-63 0 -112.5 -54t-49.5 -117q0 -66 51 -88q11 -4 55 -16 q75 -22 94.5 -31t37.5 -31q33 -41 33 -102z" />
<glyph unicode="T" horiz-adv-x="716" d="M775 473q-2 -14 -5 -17.5t-13 -3.5q-15 0 -15 13q0 4 2 15q10 59 10 90q0 47 -24.5 61.5t-102.5 14.5q-44 0 -52 -2q-16 -2 -23 -33l-134 -538q-4 -14 -4 -19q0 -11 6 -15t27 -6q1 0 10 -0.5t21 -1t19 -0.5h15q25 0 25 -11q0 -20 -21 -20q-25 0 -78 1.5t-79 1.5 q-25 0 -77 -1.5t-78 -1.5q-17 0 -17 12q0 13 6.5 16t21.5 3h16q63 0 81 8.5t25 36.5l134 537q4 12 4 22q0 4 -1 6t-6 3.5t-16 1.5h-34q-97 0 -133 -28.5t-71 -133.5q-10 -26 -13 -29t-11 -3q-15 0 -15 11q0 4 5 17l59 179q4 13 8.5 15.5t20.5 2.5h513q10 0 14 -0.5t7.5 -3 t3.5 -8.5q0 -9 -1 -13z" />
<glyph unicode="U" horiz-adv-x="743" d="M852 670q0 -18 -15 -18q-85 -3 -101 -68l-91 -366q-22 -89 -98.5 -164.5t-166.5 -75.5q-74 0 -126 51t-52 137q0 32 8 64l96 386q4 14 4 19q0 11 -14 14t-44 3q-11 0 -15.5 0.5t-8 3t-3.5 8.5q0 19 19 19t59.5 -1.5t60.5 -1.5t59.5 1.5t58.5 1.5q14 0 14 -13 q0 -12 -6 -15t-24 -3q-46 0 -59.5 -7.5t-19.5 -32.5l-100 -402q-10 -44 -10 -76q0 -63 31.5 -94t75.5 -31q72 0 140.5 62.5t91.5 157.5l89 356q4 16 4 24q0 41 -60 43q-18 0 -18 12q0 19 18 19q15 0 47.5 -1.5t48.5 -1.5t47.5 1.5t46.5 1.5q13 0 13 -13z" />
<glyph unicode="V" horiz-adv-x="743" d="M868 672q0 -7 -1.5 -11t-5.5 -6t-5.5 -2t-6.5 -1q-33 -3 -59 -19t-53 -62l-343 -574q-8 -13 -13 -16t-15 -3q-11 0 -14 4.5t-5 19.5l-60 616q-1 15 -4 20.5t-14 9.5t-36 4q-24 0 -24 12q0 19 18 19q16 0 50.5 -1.5t51.5 -1.5q19 0 58 1.5t57 1.5q14 0 14 -12 q0 -13 -6 -16t-19 -3q-63 0 -63 -31l51 -524l289 483q15 26 15 40q0 30 -40 32q-16 2 -16 12q0 19 18 19q14 0 45.5 -1.5t46.5 -1.5q13 0 38.5 1.5t37.5 1.5q5 0 8 -2.5t4 -5.5z" />
<glyph unicode="W" horiz-adv-x="999" d="M1124 672q0 -19 -14 -20q-37 -3 -59 -19.5t-47 -62.5l-313 -574q-10 -18 -26 -18q-6 0 -9.5 1t-5.5 5t-2.5 7t-0.5 12l-22 498l-275 -503q-7 -12 -11 -16t-15 -4t-14 4.5t-4 20.5l-28 617q-1 14 -2.5 19.5t-11.5 9t-32 3.5q-24 0 -24 12q0 19 18 19q15 0 48.5 -1.5 t49.5 -1.5q18 0 56 1.5t57 1.5q14 0 14 -12q0 -13 -6 -16t-19 -3q-24 0 -38.5 -4t-19.5 -12.5t-6.5 -14t-0.5 -16.5l22 -489l233 428q6 10 6 20q-3 63 -4 67q-2 12 -10 16.5t-38 4.5q-21 0 -21 12q0 19 18 19q15 0 48.5 -1.5t49.5 -1.5q19 0 57 1.5t56 1.5q14 0 14 -11 q0 -9 -4 -14t-7 -5.5t-9 -0.5q-44 -1 -57.5 -11t-13.5 -26l1 -7l22 -492l253 466q11 20 11 32q0 35 -51 38q-16 0 -16 12q0 19 19 19q16 0 49.5 -1.5t49.5 -1.5q12 0 37 1.5t36 1.5t12 -11z" />
<glyph unicode="X" horiz-adv-x="743" d="M700 18q0 -18 -18 -18q-16 0 -51 1.5t-52 1.5q-19 0 -58 -1.5t-58 -1.5q-15 0 -15 12q0 17 16 19q25 1 41 11t16 19l-3 12l-88 239l-192 -219l-1 -2q-2 -4 -4 -6q-8 -11 -8 -24q0 -27 35 -30q13 -1 13 -11q0 -20 -19 -20q-16 0 -51 1.5t-52 1.5q-15 0 -44.5 -1.5 t-43.5 -1.5q-12 0 -12 12q1 18 12 19q25 2 41.5 4.5t48 20t58.5 48.5l208 237l-103 279q-5 13 -9 18.5t-17.5 9.5t-39.5 4q-24 0 -24 12q0 19 19 19q16 0 50.5 -1.5t51.5 -1.5q20 0 59 1.5t58 1.5q14 0 14 -13q0 -18 -16 -18q-17 -1 -31 -7t-20 -12t-6 -10l4 -12l73 -199 l148 170q21 24 21 40q0 25 -36 30q-12 0 -12 12q0 19 18 19q16 0 51.5 -1.5t52.5 -1.5q15 0 44 1.5t43 1.5q13 0 13 -12t-5 -15t-16 -4q-35 -2 -65 -16.5t-42 -25.5t-30 -30l-12 -10l-163 -187l119 -322q4 -12 8 -17t17.5 -9t39.5 -4q10 0 14 -0.5t7 -3.5t3 -9z" />
<glyph unicode="Y" horiz-adv-x="743" d="M874 672q0 -13 -4.5 -16t-14.5 -4q-37 -3 -68 -21.5t-65 -60.5l-236 -287q-6 -7 -12 -27l-31 -123q-19 -79 -19 -85q0 -11 14 -14t44 -3q11 0 15.5 -0.5t8 -3t3.5 -8.5q0 -19 -19 -19t-59 1.5t-60 1.5q-19 0 -58 -1.5t-58 -1.5q-14 0 -14 12q0 13 6 16t19 3q55 1 66.5 9 t21.5 50q46 175 46 183q0 5 -4 15l-106 334q-5 18 -17.5 24t-46.5 6q-24 0 -24 12q0 19 19 19q16 0 51.5 -1.5t52.5 -1.5q20 0 59 1.5t58 1.5q14 0 14 -12q0 -13 -5.5 -16t-16.5 -3q-56 0 -56 -24q0 -3 4 -13l95 -300l219 267l3 4l7 9l6.5 11t6 12t2.5 11q0 21 -31 23 q-15 0 -15 12q0 19 18 19q15 0 46 -1.5t47 -1.5q13 0 38.5 1.5t37.5 1.5q11 0 12 -11z" />
<glyph unicode="Z" horiz-adv-x="613" d="M605 255q-4 -14 -5 -16l-68 -221q-4 -13 -8 -15.5t-21 -2.5h-400q-23 0 -23 9q0 12 11 25l517 618h-140q-57 0 -97.5 -13.5t-65 -41.5t-38 -54t-26.5 -67q-2 -7 -3 -9t-3 -5t-4.5 -3.5t-7.5 -0.5q-15 0 -15 11q2 11 3 13l54 181q5 14 9 17t20 3h387h11q3 0 6.5 -1t4.5 -3 t1 -5q0 -12 -12 -26l-515 -614h147q51 0 89 11.5t61.5 27.5t42.5 47t28.5 55t23.5 67q6 18 9 21.5t11 3.5q16 0 16 -12z" />
<glyph unicode="[" horiz-adv-x="307" d="M206 -222q-4 -18 -7 -23q-5 -5 -23 -5h-77q-10 0 -14.5 0.5t-8 3t-3.5 8.5q2 10 3 13l239 956q4 14 7.5 16.5t20.5 2.5h77q10 0 14.5 -0.5t8 -3t3.5 -8.5q-4 -18 -7 -23q-5 -5 -23 -5h-65l-230 -920h59q10 0 14.5 -0.5t8 -3t3.5 -8.5z" />
<glyph unicode="\" horiz-adv-x="500" d="M386 -230q-2 -8 -9.5 -14t-15.5 -6q-15 0 -17 22l-105 940v18q1 8 9 14t16 6q14 0 16 -22l105 -940z" />
<glyph unicode="]" horiz-adv-x="307" d="M117 -231q-4 -14 -7.5 -16.5t-20.5 -2.5h-77q-10 0 -14.5 0.5t-8 3t-3.5 8.5q4 18 7 23q5 5 23 5h65l230 920h-59q-10 0 -14.5 0.5t-8 3t-3.5 8.5q4 18 7 23q5 5 23 5h77q10 0 14.5 -0.5t8 -3t3.5 -8.5q-2 -10 -3 -13z" />
<glyph unicode="^" horiz-adv-x="556" d="M707 584l-17 -22l-242 123l-301 -123l-6 22l323 160z" />
<glyph unicode="_" horiz-adv-x="743" d="M727 -125q-4 -15 -19 -15h-743q-6 0 -9 4q-3 3 -3 7q0 2 1 4q4 15 19 15h743q6 0 10 -4q2 -3 2 -7q0 -2 -1 -4z" />
<glyph unicode="`" d="M444 522q-3 -6 -11 -11.5t-13 -5.5t-10 8l-100 123q-8 8 -8 17q0 7 4 15q6 13 19 20.5t23 7.5q14 0 23 -17l71 -142q3 -6 3 -11q0 -2 -1 -4z" />
<glyph unicode="a" d="M525 143q-12 -60 -30 -98q-27 -56 -73 -56q-29 0 -52 17.5t-31 52.5q-57 -70 -120 -70q-55 0 -88 44.5t-33 110.5q0 109 73 203.5t156 94.5q57 0 83 -59q8 39 40 39q27 0 27 -26q0 -7 -4 -21l-68 -272q-7 -28 -7 -51q0 -41 26 -41q37 0 67 119q4 16 7 19.5t12 3.5 q15 0 15 -10zM346 124l47 189l3 13q0 35 -19 64.5t-50 29.5q-30 0 -61.5 -32t-50.5 -79q-15 -35 -32 -104.5t-17 -104.5q0 -33 12 -61t43 -28q37 0 77.5 41.5t47.5 71.5z" />
<glyph unicode="b" horiz-adv-x="460" d="M459 286q0 -110 -72.5 -203.5t-156.5 -93.5q-53 0 -84 43.5t-31 108.5q0 49 11 82l99 395q3 14 3 17q0 6 -2 9t-13.5 5.5t-34.5 2.5q-24 0 -24 11q0 9 3.5 13.5t7.5 5.5t12 2l99 8q6 2 16 2q14 0 14 -12q-2 -10 -3 -13l-70 -280q56 53 106 53q49 0 84.5 -40.5 t35.5 -115.5zM336 106q21 46 38.5 119t17.5 106t-12.5 61t-42.5 28q-51 0 -105 -74q-14 -19 -22 -46q-38 -149 -38 -193q0 -51 17.5 -73.5t40.5 -22.5q33 0 62 32t44 63z" />
<glyph unicode="c" horiz-adv-x="460" d="M468 104q0 -10 -24.5 -36t-76.5 -52.5t-110 -26.5q-66 0 -106.5 45.5t-40.5 119.5q0 109 79.5 198.5t173.5 89.5q47 0 77 -24.5t30 -61.5q0 -27 -15 -43.5t-36 -16.5q-16 0 -25 9.5t-9 22.5q0 2 0.5 5t3 10.5t7 14t15 12t24.5 7.5q-16 43 -71 43q-35 0 -70 -26t-61 -74 q-19 -36 -36 -101t-17 -105q0 -46 20 -74.5t59 -28.5q17 0 38.5 3.5t65 28t76.5 66.5q9 11 13 11q6 0 11 -6t5 -10z" />
<glyph unicode="d" d="M535 143q-12 -60 -30 -98q-27 -56 -73 -56q-29 0 -52 17.5t-31 52.5q-57 -70 -120 -70q-55 0 -88 44.5t-33 110.5q0 109 73 203.5t156 94.5q56 0 84 -58l58 234q3 14 3 17q0 6 -2 9t-13.5 5.5t-34.5 2.5q-24 0 -24 11q0 9 3.5 13.5t7.5 5.5t12 2l99 8q6 2 16 2 q14 0 14 -12q-2 -10 -3 -13l-143 -571q-6 -24 -6 -46q0 -41 26 -41q37 0 67 119q4 16 7 19.5t12 3.5q15 0 15 -10zM355 122l48 192q3 9 3 13q0 32 -20 64q-19 29 -49 29t-61.5 -32t-50.5 -79q-15 -35 -32 -104.5t-17 -104.5q0 -33 12 -61t43 -28q37 0 77 41t47 70z" />
<glyph unicode="e" horiz-adv-x="460" d="M468 104q0 -10 -24.5 -36t-76.5 -52.5t-110 -26.5q-68 0 -105.5 51.5t-37.5 123.5q0 123 80 200.5t168 77.5q46 0 73.5 -24.5t27.5 -60.5q0 -5 -0.5 -10.5t-4.5 -19.5t-11.5 -26t-24 -25.5t-38.5 -22.5q-56 -22 -145 -22h-39q-17 -66 -17 -110q0 -25 5 -47t23 -42.5 t48 -20.5q17 0 38.5 3.5t65 28t76.5 66.5q9 11 13 11q6 0 11 -6t5 -10zM425 359q0 26 -17 43.5t-46 17.5q-7 0 -16 -1.5t-30.5 -10.5t-39.5 -25t-38 -50t-32 -80h21q15 0 27 0.5t38.5 3t46.5 9.5t41.5 18t33 30.5t11.5 44.5z" />
<glyph unicode="f" horiz-adv-x="307" d="M452 639q0 -25 -15 -40t-35 -15q-13 0 -23.5 8.5t-10.5 23.5q0 17 11.5 31t32.5 18q-15 18 -42 18q-17 0 -29 -17t-16 -31.5t-10 -41.5l-32 -162h78q10 0 14.5 -0.5t7.5 -3.5t3 -9q0 -12 -6 -15t-21 -3h-82l-70 -359q-6 -29 -13.5 -56.5t-25.5 -77.5t-47.5 -81t-65.5 -31 q-31 0 -55.5 17.5t-24.5 48.5q0 25 15 40t35 15q13 0 23.5 -8.5t10.5 -23.5q0 -17 -11.5 -31t-32.5 -18q13 -18 40 -18q37 0 57 86q12 43 28 124l73 373h-62q-25 0 -25 11q0 14 6 17t21 3h66l21 110q34 164 130 164q33 0 57.5 -17.5t24.5 -48.5z" />
<glyph unicode="g" horiz-adv-x="460" d="M374 -63q-15 -60 -69.5 -101t-130.5 -41q-121 0 -121 58q0 26 16 39.5t33 13.5q18 0 26.5 -10t8.5 -22q0 -13 -9 -26.5t-23 -19.5q27 -11 71 -11q55 0 95 47q20 24 28 44t18 61l21 84q-53 -53 -106 -53q-55 0 -88.5 44t-33.5 109q0 106 71.5 197.5t155.5 91.5 q56 0 84 -57q3 19 15 28t24 9q27 0 27 -26q0 -6 -4 -21zM358 132l45 182l3 14q0 6 -2.5 18.5t-9 30t-21.5 30.5t-36 13q-28 0 -58.5 -28.5t-49.5 -70.5q-16 -37 -33.5 -107t-17.5 -105q0 -9 1.5 -19t6 -27.5t17 -29t31.5 -11.5q37 0 77 40.5t47 69.5z" />
<glyph unicode="h" d="M535 143q0 -3 -4 -18t-14 -38.5t-24 -45t-36.5 -37t-48.5 -15.5q-35 0 -55.5 23t-20.5 57q0 22 16 64q58 166 58 221q0 66 -46 66q-74 0 -133 -95q-19 -34 -28 -70q-3 -11 -8 -32.5t-8 -32.5l-43 -173q-3 -10 -13 -19t-24 -9q-13 0 -20.5 8t-7.5 18q1 11 2 13l148 590 q3 14 3 17q0 6 -2 9t-13.5 5.5t-34.5 2.5q-24 0 -24 11q0 9 3.5 13.5t7.5 5.5t12 2l99 8q6 2 16 2q14 0 14 -12q-2 -10 -3 -13l-73 -292q22 21 34.5 31.5t40 22t58.5 11.5q44 0 74 -24t30 -80q0 -61 -61 -223q-18 -54 -18 -75q0 -29 22 -29q56 0 93 125q3 12 5.5 14.5 t11.5 2.5q15 0 15 -10z" />
<glyph unicode="i" horiz-adv-x="307" d="M331 143q0 -3 -4 -17.5t-14 -38t-23.5 -45.5t-36.5 -37.5t-49 -15.5q-37 0 -56.5 24t-19.5 56q0 20 18 69l37 99l30 83q18 49 18 72q0 28 -22 28q-59 0 -93 -126q-3 -11 -6 -13.5t-12 -2.5q-15 0 -15 10q0 3 4 18t14 38.5t24 45t37 37t49 15.5q31 0 53 -20.5t22 -59.5 q0 -21 -12 -56l-64 -171q-26 -74 -26 -96q0 -28 22 -28q59 0 93 125q3 12 5.5 14.5t11.5 2.5q15 0 15 -10zM358 611q0 -24 -20 -43.5t-44 -19.5q-21 0 -33 12.5t-12 30.5q0 24 20 43.5t44 19.5q21 0 33 -13t12 -30z" />
<glyph unicode="j" horiz-adv-x="307" d="M223 -55q-15 -60 -63 -105t-108 -45q-33 0 -60 14t-27 45q0 24 16 38t33 14q18 0 26.5 -10t8.5 -22q-1 -36 -36 -47q18 -10 40 -10q33 0 59 32.5t35 57.5t11 37l96 385q7 28 7 51q0 40 -27 40q-67 0 -117 -125q-3 -9 -5 -12t-4.5 -4t-9.5 -1q-15 0 -15 10q0 3 6 18.5 t19 38.5t30.5 44.5t43 37t53.5 15.5q40 0 63 -26.5t23 -63.5q0 -18 -5 -33zM358 611q0 -24 -20 -43.5t-44 -19.5q-21 0 -33 12.5t-12 30.5q0 24 20 43.5t44 19.5q21 0 33 -13t12 -30z" />
<glyph unicode="k" horiz-adv-x="460" d="M484 143q0 -3 -4 -19t-13 -41t-19 -42q-30 -52 -77 -52q-33 0 -58.5 24t-25.5 73q0 17 4 34q3 14 3 25q0 27 -18.5 46t-39 27t-43.5 11l-51 -203q-8 -37 -39 -37q-13 0 -20.5 8t-7.5 18q1 11 2 13l148 590q3 14 3 17q0 6 -2 9t-13.5 5.5t-34.5 2.5q-24 0 -24 11 q0 9 3.5 13.5t7.5 5.5t12 2l99 8q6 2 16 2q14 0 14 -12q-2 -10 -3 -13l-102 -408q26 12 45 30t63 69q70 82 130 82q31 0 47 -18.5t16 -41.5q0 -26 -15.5 -41t-34.5 -15q-18 0 -26.5 10t-8.5 22q0 7 2.5 15.5t14 20t30.5 14.5q-8 12 -27 12q-24 0 -49.5 -16.5t-41 -32.5 t-50.5 -56q-42 -48 -71 -66q133 -19 133 -104q0 -14 -5 -35q-8 -40 -8 -56q0 -43 29 -43q16 0 28.5 10.5t21.5 31t14.5 36.5t11.5 41q4 16 7 19.5t12 3.5q15 0 15 -10z" />
<glyph unicode="l" horiz-adv-x="256" d="M280 143q0 -2 -4 -19t-11.5 -42t-15.5 -41q-27 -52 -71 -52q-36 0 -60 25.5t-24 64.5q0 15 6 39l125 500q3 14 3 17q0 6 -2 9t-13.5 5.5t-34.5 2.5q-24 0 -24 11q0 9 3.5 13.5t7.5 5.5t12 2l99 8q6 2 16 2q14 0 14 -12q-2 -10 -3 -13l-143 -571q-6 -24 -6 -46 q0 -41 26 -41q37 0 64 112l7 25q3 5 14 5q15 0 15 -10z" />
<glyph unicode="m" horiz-adv-x="818" d="M842 143q0 -3 -4 -18t-14 -38.5t-24 -45t-36.5 -37t-48.5 -15.5q-35 0 -55.5 23t-20.5 57q0 22 16 64q58 166 58 221q0 66 -46 66q-78 0 -141 -108q-11 -19 -25 -72q-3 -11 -8 -32.5t-8 -32.5l-40 -160q-10 -26 -36 -26q-14 0 -21 8t-7 18q0 5 3 14l65 260q9 41 9 65 q0 66 -46 66q-78 0 -141 -108q-11 -19 -25 -72q-2 -11 -8 -32.5t-8 -32.5l-40 -160q-10 -26 -36 -26q-14 0 -21 8t-7 18q0 5 3 14l75 300q7 28 7 51q0 40 -26 40q-22 0 -37.5 -30t-30.5 -89q-4 -16 -6.5 -19.5t-12.5 -3.5q-15 0 -15 10q13 61 32 101q28 53 72 53 q33 0 56 -21.5t28 -57.5q58 79 143 79q40 0 70 -20.5t35 -67.5q60 88 150 88q43 0 74 -23.5t31 -80.5q0 -61 -61 -223q-18 -54 -18 -75q0 -29 22 -29q56 0 93 125q3 12 5.5 14.5t11.5 2.5q15 0 15 -10z" />
<glyph unicode="n" horiz-adv-x="562" d="M586 143q0 -3 -4 -18t-14 -38.5t-24 -45t-36.5 -37t-48.5 -15.5q-35 0 -55.5 23t-20.5 57q0 22 16 64q58 166 58 221q0 66 -46 66q-77 0 -135 -99q-17 -28 -30 -81q-2 -11 -8 -32.5t-8 -32.5l-40 -160q-10 -26 -36 -26q-14 0 -21 8t-7 18q0 5 3 14l75 300q7 28 7 51 q0 40 -26 40q-22 0 -37.5 -30t-30.5 -89q-4 -16 -6.5 -19.5t-12.5 -3.5q-15 0 -15 10q13 61 32 101q28 53 72 53q33 0 56 -21.5t28 -57.5q10 15 24.5 30t48 32t70.5 17q44 0 74 -24t30 -80q0 -61 -61 -223q-18 -54 -18 -75q0 -29 22 -29q56 0 93 125q3 12 5.5 14.5t11.5 2.5 q15 0 15 -10z" />
<glyph unicode="o" d="M509 278q0 -109 -79.5 -199t-173.5 -90q-64 0 -105 44.5t-41 120.5q0 109 79.5 198.5t173.5 89.5q65 0 105.5 -46t40.5 -118zM439 317q0 45 -20.5 74t-56.5 29q-31 0 -64 -23.5t-60 -67.5q-23 -39 -40.5 -107t-17.5 -108q0 -51 22 -77t54 -26q36 0 71 28.5t58 71.5 q22 42 38 106t16 100z" />
<glyph unicode="p" d="M510 286q0 -111 -72.5 -204t-155.5 -93q-34 0 -55 19t-29 39l-36 -146q-11 -44 -11 -48q0 -6 2 -9t13.5 -5t35.5 -2t24 -12q0 -19 -19 -19q-15 0 -48 1.5t-49 1.5q-14 0 -42.5 -1.5t-41.5 -1.5q-12 0 -12 12q0 19 21 19q30 1 39.5 6.5t15.5 28.5l114 458q7 28 7 50 q0 40 -26 40q-22 0 -37.5 -30t-30.5 -89q-4 -16 -6.5 -19.5t-12.5 -3.5q-15 0 -15 10q13 61 32 101q28 53 72 53q25 0 49.5 -15.5t32.5 -54.5q60 70 121 70q49 0 84.5 -40.5t35.5 -115.5zM387 106q21 46 38.5 119t17.5 106t-12.5 61t-42.5 28q-38 0 -78 -41t-47 -72 l-47 -189q-3 -12 -3 -14q0 -10 4 -28.5t21 -41.5t43 -23q33 0 62 32t44 63z" />
<glyph unicode="q" horiz-adv-x="460" d="M429 -175q0 -19 -19 -19q-16 0 -50 1.5t-51 1.5t-50.5 -1.5t-49.5 -1.5q-13 0 -13 12q0 13 6 16t18 3q47 1 57 8t19 40l39 157q-55 -53 -106 -53q-55 0 -88 44.5t-33 110.5q0 109 73 203.5t156 94.5q60 0 86 -64q12 21 33.5 42t29.5 21q11 0 11 -11q-2 -10 -3 -13 l-137 -546l-1 -7q-2 -7 -2 -11q0 -6 2 -9t13.5 -5t35.5 -2t24 -12zM355 122l48 192q3 9 3 13q0 32 -20 64q-19 29 -49 29t-61.5 -32t-50.5 -79q-15 -35 -32 -104.5t-17 -104.5q0 -33 12 -61t43 -28q37 0 77 41t47 70z" />
<glyph unicode="r" horiz-adv-x="422" d="M489 379q0 -26 -16 -39.5t-33 -13.5q-18 0 -26.5 10t-8.5 22q0 5 2 12.5t11 19t25 16.5q-20 14 -53 14q-24 0 -46.5 -14t-37 -31.5t-26.5 -39.5t-16 -32l-6 -15l-65 -262q-9 -37 -39 -37q-14 0 -21 8t-7 18q0 5 3 14l75 300q7 28 7 51q0 40 -26 40q-22 0 -37.5 -30 t-30.5 -89q-4 -16 -6.5 -19.5t-12.5 -3.5q-15 0 -15 10q13 61 32 101q28 53 72 53q28 0 51.5 -17.5t31.5 -54.5q52 72 121 72q35 0 66.5 -14.5t31.5 -48.5z" />
<glyph unicode="s" horiz-adv-x="409" d="M393 157q0 -16 -5 -35.5t-18.5 -43.5t-33.5 -43.5t-54 -32.5t-77 -13q-55 0 -92 26.5t-37 70.5q0 31 15.5 46.5t35.5 15.5q16 0 25 -9t9 -23q0 -5 -1.5 -12.5t-14 -21t-35.5 -15.5q18 -56 96 -56q29 0 53 8.5t37.5 21.5t23 29t13 29t3.5 24q0 19 -7 32.5t-22 21.5 t-26.5 11.5t-33.5 8.5q-13 3 -21 5t-23.5 9.5t-24.5 17t-16.5 26.5t-7.5 39q0 50 40 99t118 49q48 0 77.5 -24.5t29.5 -60.5q0 -29 -13.5 -42t-29.5 -13t-23 8.5t-7 19.5t9.5 24.5t30.5 16.5q-14 49 -75 49q-52 0 -76.5 -32t-24.5 -60q0 -20 11.5 -32.5t22.5 -16.5t30 -8 q17 -4 28.5 -7t30.5 -12t30.5 -20t20.5 -30.5t9 -44.5z" />
<glyph unicode="t" horiz-adv-x="332" d="M356 143q0 -3 -6 -18t-19 -38.5t-30 -45t-43 -37t-54 -15.5q-38 0 -61.5 26t-23.5 64q0 14 5 34l72 287h-80q-10 0 -14 0.5t-7.5 3t-3.5 8.5q0 13 6.5 16t21.5 3h85l39 159q10 36 39 36q27 0 27 -26q0 -7 -4 -21l-37 -148h80q10 0 14 -0.5t7.5 -3t3.5 -8.5 q0 -13 -6.5 -16t-21.5 -3h-85l-74 -297q-7 -28 -7 -51q0 -41 27 -41q38 0 67.5 38t47.5 85q6 14 8.5 16.5t11.5 2.5q15 0 15 -10z" />
<glyph unicode="u" horiz-adv-x="537" d="M561 143q-12 -60 -30 -98q-27 -56 -73 -56q-60 0 -80 60q-48 -60 -111 -60q-47 0 -79.5 28t-32.5 88q0 56 52 196q24 67 24 90q0 29 -22 29q-60 0 -93 -126q-3 -11 -6 -13.5t-12 -2.5q-15 0 -15 10q0 3 4 18t14.5 38.5t24 45t36.5 37t49 15.5q33 0 54.5 -22t21.5 -59 q0 -20 -13 -54q-58 -158 -58 -219q0 -77 54 -77q53 0 92 58q8 12 14 33l73 292q9 37 39 37q14 0 21 -8t7 -18q0 -5 -3 -14l-72 -288q-7 -28 -7 -51q0 -41 26 -41q37 0 67 119q4 16 7 19.5t12 3.5q15 0 15 -10z" />
<glyph unicode="v" horiz-adv-x="460" d="M493 376q0 -12 -6 -50t-21.5 -97t-38 -111.5t-62 -90.5t-86.5 -38q-51 0 -87 28.5t-36 91.5q0 52 51 192q24 67 24 90q0 29 -22 29q-60 0 -93 -126q-3 -11 -6 -13.5t-12 -2.5q-15 0 -15 10q0 3 4 18t14.5 38.5t24 45t36.5 37t49 15.5q33 0 54.5 -22t21.5 -59 q0 -15 -11 -50q-59 -157 -59 -217q0 -32 14.5 -57.5t50.5 -25.5q40 0 73.5 39t51.5 91t27.5 93t9.5 56q0 50 -27 79q-13 15 -13 27q0 17 15.5 31.5t32.5 14.5q21 0 31 -18.5t10 -47.5z" />
<glyph unicode="w" horiz-adv-x="664" d="M697 376q0 -40 -23 -132t-46 -143q-47 -112 -132 -112q-43 0 -72.5 17.5t-41.5 46.5q-38 -64 -97 -64t-94 31q-34 31 -34 92q0 53 50 189q24 67 24 90q0 29 -22 29q-60 0 -93 -126q-3 -11 -6 -13.5t-12 -2.5q-15 0 -15 10q0 3 4 18t14.5 38.5t24 45t36.5 37t49 15.5 q33 0 54.5 -22t21.5 -59q0 -20 -12 -53q-57 -151 -57 -210q0 -10 1.5 -20t7 -27.5t21.5 -28.5t40 -11q34 0 59 38.5t25 55.5q0 31 8 63l57 228q9 35 38 35q14 0 21 -8t7 -18q0 -7 -16 -66l-42 -168q-12 -48 -12 -77q0 -36 15.5 -59.5t50.5 -23.5q61 0 100 93q15 36 32 97 t17 89q0 50 -27 79q-13 15 -13 27q0 17 15.5 31.5t32.5 14.5q21 0 31 -18.5t10 -47.5z" />
<glyph unicode="x" horiz-adv-x="464" d="M488 143q0 -9 -10 -32.5t-28 -51.5t-49 -49t-67 -21q-27 0 -54.5 15t-40.5 53q-39 -68 -98 -68q-36 0 -62 17t-26 45q0 24 15 39t35 15q34 0 34 -32q0 -14 -9.5 -28.5t-29.5 -19.5q17 -14 44 -14q21 0 37.5 12t28 37t17.5 44.5t14 51.5l23 91q21 86 21 110q0 30 -13 46.5 t-35 16.5q-33 0 -66.5 -32t-52.5 -93q-4 -12 -6 -14.5t-12 -2.5q-15 0 -15 10t10.5 34t28.5 51.5t49 48t66 20.5q71 0 96 -68q12 23 37 45.5t61 22.5q30 0 58.5 -14.5t28.5 -48.5q0 -26 -16 -39.5t-33 -13.5q-18 0 -26.5 10t-8.5 22q0 4 1 10.5t11 20t28 17.5q-16 14 -44 14 q-59 0 -88 -107l-34 -137q-19 -81 -19 -101q0 -35 14 -49.5t33 -14.5q34 0 67 32t52 93q4 12 6.5 14.5t11.5 2.5q15 0 15 -10z" />
<glyph unicode="y" horiz-adv-x="486" d="M415 -3q-20 -79 -83 -140.5t-137 -61.5q-42 0 -69 23.5t-27 62.5q0 25 11 40.5t21 18.5t19 3q14 0 24 -8.5t10 -23.5t-11 -30t-32 -18l-8 -3q0 -4 5 -13.5t20 -19.5t37 -10q46 0 91 48.5t71 160.5q-37 -37 -90 -37q-47 0 -79.5 28t-32.5 88q0 56 52 196q24 67 24 90 q0 29 -22 29q-60 0 -93 -126q-3 -11 -6 -13.5t-12 -2.5q-15 0 -15 10q0 3 4 18t14.5 38.5t24 45t36.5 37t49 15.5q33 0 54.5 -22t21.5 -59q0 -20 -13 -54q-58 -158 -58 -219q0 -77 54 -77q40 0 69.5 30.5t36.5 58.5l73 294q9 37 39 37q14 0 21 -8t7 -18q0 -2 -1.5 -6.5 t-1.5 -7.5z" />
<glyph unicode="z" horiz-adv-x="409" d="M433 143q0 -16 -16.5 -50.5t-53.5 -69t-81 -34.5q-14 0 -26.5 6.5t-18.5 13t-17 19.5q-15 21 -24 28.5t-24 7.5q-13 0 -25 -6t-24.5 -20.5t-15.5 -19.5l-14 -20q-5 -9 -16 -9q-15 0 -15 10q0 9 33 55.5t71 83.5l164 163q10 10 40 44q-26 0 -59 15q-40 18 -60 18 q-26 0 -46.5 -14.5t-27.5 -32.5q-4 -9 -6.5 -11.5t-11.5 -2.5q-15 0 -15 11q0 25 34.5 69.5t82.5 44.5q32 0 61 -39q26 -36 47 -36q14 0 26.5 11.5t35.5 50.5q5 9 7.5 11t11.5 2q14 0 14 -10q0 -5 -14 -27.5t-40 -55.5t-53 -60l-145 -143q-21 -21 -56 -61q5 1 18 1 q23 0 62 -17q36 -16 56 -16q33 0 64.5 23.5t44.5 60.5q3 10 5.5 13t11.5 3q15 0 15 -10z" />
<glyph unicode="{" horiz-adv-x="500" d="M612 739q-3 -9 -12 -11q-71 -4 -122 -46q-22 -17 -30.5 -38t-23.5 -81l-45 -180q-4 -17 -9.5 -29t-20.5 -34t-46 -40t-75 -30q93 -29 90 -103q-2 -20 -21 -91l-37 -150q-10 -38 -9 -48q0 -32 25 -57.5t78 -28.5q7 -1 8.5 -1t4.5 -2.5t0 -7.5q-2 -11 -22 -11 q-84 0 -130 38q-29 25 -31 56v9q0 28 11 64l50 198q6 19 6 34q0 9 -3 17q-5 21 -14 35t-26.5 22t-31 11.5t-28.5 4.5q-7 1 -8.5 1t-4.5 2q-1 2 -1 4t1 4q2 11 16 11q63 4 116 45q24 20 33 42t27 96l46 183q15 53 80 88t142 35h9q2 0 6 -1q3 -1 3 -3l-0.5 -2t-0.5 -5z" />
<glyph unicode="|" horiz-adv-x="278" d="M105 -217q-9 -33 -28 -33q-15 0 -15 16q0 7 3 17l233 934q9 33 29 33q14 0 14 -16q0 -7 -3 -17z" />
<glyph unicode="}" horiz-adv-x="500" d="M490 250q-3 -11 -17 -11q-65 -4 -115 -45q-24 -20 -33 -41.5t-28 -96.5l-46 -183q-15 -53 -79.5 -88t-141.5 -35q-7 0 -10 0.5t-6 3.5q-2 1 -2 5q0 10 12 13q33 2 59.5 10.5t36.5 15.5t27 20q21 17 29.5 38t23.5 81l45 180q4 17 9.5 29t20.5 34t46.5 40t75.5 30 q-94 28 -91 103q0 2 21 91l38 150q9 39 9 48q0 32 -25 57.5t-79 28.5q-7 1 -8.5 1t-4.5 2.5t0 7.5q3 11 23 11q82 0 129 -38q29 -25 31 -56v-9q0 -28 -11 -64l-50 -198q-6 -19 -6 -34q0 -9 3 -17q5 -21 14 -35t26.5 -22t31 -11.5t28.5 -4.5q5 -1 6.5 -1t5.5 -1q2 -1 2 -2v-1 q-1 -2 0 -6z" />
<glyph unicode="~" horiz-adv-x="556" d="M627 290l-65 -44q-22 -16 -65 -35q-45 -18 -78 -18q-43 0 -91 34q-20 13 -30 19t-28 12t-37 6q-69 0 -171 -71l-10 17l65 44q24 16 66 35q45 18 78 18q41 0 91 -34q20 -13 30 -19t28 -12t37 -6q67 0 171 71z" />
<glyph unicode="&#xa0;" />
<glyph unicode="&#xa1;" horiz-adv-x="307" d="M320 457q0 -25 -20 -44t-44 -19q-21 0 -33 13t-12 30q0 24 20 43.5t45 19.5q19 0 31.5 -12t12.5 -31zM168 -156q-4 -26 -21 -41t-27 -17t-17 -2q-21 0 -33 12.5t-12 28.5q0 7 5 21l149 450q5 12 7.5 14.5t10.5 2.5q15 0 15 -12q0 -3 -2 -12z" />
<glyph unicode="&#xa2;" horiz-adv-x="460" d="M468 104q0 -5 -9 -17.5t-27 -28.5t-41.5 -31t-57 -26t-68.5 -12l-4 -19q-6 -15 -19 -15q-7 0 -10 4.5t-1 10.5l5 20q-57 8 -91.5 52t-34.5 112q0 104 74 191.5t164 95.5l5 20q4 15 19 15q6 0 9.5 -4.5t1.5 -10.5l-5 -20q42 -4 67 -27.5t25 -57.5q0 -27 -15 -43.5 t-36 -16.5q-16 0 -25 9.5t-9 22.5q0 2 0.5 5t3 10.5t7 14t15 12t24.5 7.5q-13 37 -62 43l-102 -408q35 2 81 23.5t87 73.5q9 11 13 11q6 0 11 -6t5 -10zM241 13l101 404q-64 -15 -109 -97q-19 -36 -36 -101t-17 -105q0 -88 61 -101z" />
<glyph unicode="&#xa3;" horiz-adv-x="769" d="M633 138q0 -35 -53 -92t-128 -57q-36 0 -63.5 14t-91.5 59q-27 -33 -66.5 -53t-75.5 -20q-28 0 -47.5 12.5t-19.5 36.5q0 36 39 68.5t92 32.5q31 0 59 -12q4 11 28 101l26 104h-52q-24 0 -24 10t3.5 14.5t8 5.5t15.5 1h57l39 160q18 74 77.5 128.5t125.5 54.5 q56 0 86 -38t30 -95q0 -93 -55 -93q-13 0 -23.5 8.5t-10.5 23.5q0 22 18 38q12 10 40 10v17q0 51 -22.5 79t-61.5 28q-38 0 -76 -35.5t-59 -109.5l-44 -176h77q24 0 24 -10t-3.5 -14.5t-8 -5.5t-15.5 -1h-82l-40 -163q-8 -32 -30 -69q62 -44 87 -57t57 -13q41 0 78 29.5 t52 71.5q4 12 6.5 14.5t11.5 2.5q15 0 15 -10zM258 85q-29 13 -57 13q-31 0 -53.5 -20t-22.5 -41q0 -10 7.5 -18t22.5 -8q25 0 53.5 19t49.5 55z" />
<glyph unicode="&#xa4;" horiz-adv-x="767" d="M614 37q-10 -8 -19 -8l-15 5l-2 2q-1 1 -3 4t-5 7l-40 53q-64 -43 -132 -43q-70 0 -111 43l-67 -54q-20 -16 -33 -16q-6 0 -11 4q-6 4 -6 9q0 10 20 25l75 60q-19 34 -19 73q0 23 7 49q16 67 73 122l-48 63q-7 8 -7 15t8 14q10 7 19 7q7 0 14 -4q3 -2 10 -13l41 -53 q63 42 131 42q70 0 111 -43l67 54q20 16 33 16q6 0 11 -4q6 -4 6 -9q0 -10 -20 -25l-76 -60q20 -34 20 -74q0 -23 -7 -48q-16 -67 -72 -121l48 -63q6 -9 6 -16t-7 -13zM599 250q5 21 5 39q0 39 -22 69q-34 45 -98 45t-119.5 -44.5t-71.5 -108.5q-5 -21 -5 -39q0 -39 22 -69 q34 -45 98 -45q63 0 119 44.5t72 108.5z" />
<glyph unicode="&#xa5;" horiz-adv-x="743" d="M874 672q0 -13 -4.5 -16t-14.5 -4q-37 -3 -68 -21.5t-65 -60.5l-195 -237h151q6 0 9.5 -4.5t2.5 -10.5q-4 -15 -19 -15h-169l-16 -20q-6 -7 -12 -27l-15 -59h185q6 0 9.5 -4.5t2.5 -10.5q-4 -15 -19 -15h-185l-9 -34q-19 -79 -19 -85q0 -11 14 -14t44 -3q11 0 15.5 -0.5 t8 -3t3.5 -8.5q0 -19 -19 -19t-59 1.5t-60 1.5q-19 0 -58 -1.5t-58 -1.5q-14 0 -14 12q0 13 6 16t19 3q55 1 66.5 9t21.5 50l20 77h-183q-12 0 -12 9q0 3 1 6q4 15 18 15h183q19 74 19 76q0 5 -4 15l-5 15h-166q-15 0 -11 15t18 15h150l-92 289q-5 18 -17.5 24t-46.5 6 q-24 0 -24 12q0 19 19 19q16 0 51.5 -1.5t52.5 -1.5q20 0 59 1.5t58 1.5q14 0 14 -12q0 -13 -5.5 -16t-16.5 -3q-56 0 -56 -24q0 -3 4 -13l89 -282h21l204 249l3 4l7 9l6.5 11t6 12t2.5 11q0 21 -31 23q-15 0 -15 12q0 19 18 19q15 0 46 -1.5t47 -1.5q13 0 38.5 1.5 t37.5 1.5q11 0 12 -11z" />
<glyph unicode="&#xa6;" horiz-adv-x="278" d="M245 343q-3 -15 -24 -15q-8 0 -12.5 4t-3.5 11l93 374q9 33 29 33q14 0 14 -16q0 -7 -3 -17zM105 -217q-9 -33 -28 -33q-15 0 -15 16q0 7 3 17l93 374q3 15 24 15q8 0 12.5 -4t3.5 -11z" />
<glyph unicode="&#xa7;" horiz-adv-x="490" d="M507 194q-20 -76 -117 -120q17 -33 17 -69q0 -21 -6 -43q-17 -72 -78.5 -123.5t-130.5 -51.5q-67 0 -96 55q-18 33 -18 73q0 27 7 56q4 16 18.5 28t31.5 12q16 0 25 -11.5t5 -28.5q-5 -17 -19.5 -28.5t-30.5 -11.5h-5q1 -43 26 -70.5t67 -27.5q48 0 88.5 38.5t53.5 90.5 q3 14 3 26q0 58 -70 98l-81 48q-50 30 -76 74q-17 29 -17 63q0 17 4 35q20 76 117 120q-16 34 -16 70q0 20 5 42q17 72 78.5 123.5t130.5 51.5q67 0 97 -55q17 -33 17 -73q0 -27 -7 -56q-4 -16 -18.5 -28t-31.5 -12q-16 0 -25 11.5t-5 28.5q5 17 19.5 28.5t30.5 11.5h5 q-1 43 -26 70.5t-67 27.5q-48 0 -88.5 -38.5t-53.5 -90.5q-3 -14 -3 -26q0 -58 70 -98l81 -48q50 -30 76 -74q17 -29 17 -63q0 -17 -4 -35zM435 194q3 12 3 24q0 54 -65 91l-81 48q-30 18 -52 46q-41 -28 -60 -97q-3 -12 -3 -24q0 -54 65 -91l81 -48q33 -21 52 -46 q41 26 60 97z" />
<glyph unicode="&#xa8;" d="M366 610q0 -22 -18 -39.5t-39 -17.5q-19 0 -30 11.5t-11 27.5q0 22 18 39.5t40 17.5q19 0 29.5 -11.5t10.5 -27.5zM543 610q0 -22 -18 -39.5t-39 -17.5q-19 0 -30 11.5t-11 27.5q0 22 18 39.5t40 17.5q19 0 29.5 -11.5t10.5 -27.5z" />
<glyph unicode="&#xa9;" horiz-adv-x="683" d="M683 342q0 -142 -100 -242t-241 -100q-142 0 -242 100t-100 242q0 141 100 241t242 100q141 0 241 -100t100 -241zM643 342q0 124 -88.5 212.5t-212.5 88.5q-125 0 -213.5 -88t-88.5 -213t88.5 -213.5t213.5 -88.5t213 88.5t88 213.5zM544 545l-37 -146q-2 -10 -11 -10 t-9 6q3 21 3 36q0 45 -20.5 77.5t-64.5 32.5q-36 0 -74 -21.5t-67 -61.5q-32 -44 -47.5 -102t-15.5 -95q0 -59 30 -88.5t73 -29.5t88.5 35t66.5 104q2 5 9 5q9 0 9 -6q0 -35 -53 -96t-129 -61q-63 0 -104.5 44t-41.5 116q0 105 79 190t173 85q58 0 90 -51l38 45l9 6 q3 0 4.5 -1.5t1.5 -3.5l1 -1q0 -1 -0.5 -4t-0.5 -4z" />
<glyph unicode="&#xaa;" horiz-adv-x="473" d="M543 496q-8 -42 -21 -69q-22 -39 -60 -39q-24 0 -44 12.5t-28 36.5q-46 -49 -98 -49q-46 0 -75.5 31.5t-31.5 77.5v10q0 70 53 132q58 66 129 66q48 0 71 -41q7 27 33 27q22 0 23 -18q0 -5 -2 -15l-48 -190q-4 -16 -4 -36q0 -28 23 -28q31 0 52 83q2 7 3 9t2.5 4.5 t3.5 2.5h6q13 0 13 -7zM474 337h-307q-6 0 -9 3t-3 6v2q2 10 18 10h306q7 0 11 -2q2 -2 2 -6q0 -2 -1 -4.5t-5.5 -5.5t-11.5 -3zM394 483l33 132l2 9q-2 25 -19 45.5t-43 20.5q-25 0 -50 -22.5t-40 -55.5q-11 -24 -23 -72q-11 -45 -11 -70t13 -46q11 -20 37 -20q31 0 63 29 t38 50z" />
<glyph unicode="&#xab;" horiz-adv-x="562" d="M399 469q-56 -122 -144 -229q30 -96 30 -199q0 -16 -1 -31q0 -10 -10 -10h-2q-9 0 -9 9q-9 130 -72 227q-2 4 -2 6q0 3 4 7q115 102 187 229q2 5 8 5h2q10 0 10 -10q0 -3 -1 -4zM552 469q-56 -122 -144 -229q30 -96 30 -199q0 -16 -1 -31q0 -10 -10 -10h-2q-9 0 -9 9 q-9 130 -72 227q-2 4 -2 6q0 3 4 7q115 102 187 229q2 5 8 5h2q10 0 10 -10q0 -3 -1 -4z" />
<glyph unicode="&#xac;" horiz-adv-x="767" d="M778 347l-49 -194q-1 -8 -9 -14t-16 -6t-12.5 6t-2.5 14l44 174h-555q-8 0 -12 6q-4 4 -4 9q0 3 1 5q2 8 9.5 14t15.5 6h575q8 0 13 -6q3 -4 3 -9q0 -3 -1 -5z" />
<glyph unicode="&#xad;" horiz-adv-x="358" d="M331 199q-2 -8 -6.5 -10t-20.5 -2h-192q-11 0 -15.5 0.5t-7.5 3.5t-3 9q0 9 7 30q3 9 7 11t19 2h195q10 0 14 -0.5t7.5 -3t3.5 -8.5q0 -8 -8 -32z" />
<glyph unicode="&#xae;" horiz-adv-x="683" d="M683 342q0 -142 -100 -242t-241 -100q-142 0 -242 100t-100 242q0 141 100 241t242 100q141 0 241 -100t100 -241zM643 342q0 124 -88.5 212.5t-212.5 88.5q-125 0 -213.5 -88t-88.5 -213t88.5 -213.5t213.5 -88.5t213 88.5t88 213.5zM549 199q0 -5 -6 -20t-23 -31.5 t-39 -16.5q-31 0 -52.5 16t-21.5 47q0 11 8 48q11 42 11 47q0 53 -57 53h-64l-39 -157q-3 -9 -3 -12q0 -4 1 -6t9.5 -3.5t24.5 -1.5t16 -7q0 -11 -11 -11t-35 1t-36 1t-35 -1t-35 -1q-8 0 -8 7q0 11 16 11q29 0 37 4.5t12 21.5l81 325q2 8 2 11q0 10 -34 10q-17 0 -17 7 q0 12 17 12h158q54 0 87 -26t33 -63q0 -36 -33 -69t-93 -48q52 -18 52 -70q0 -19 -5 -52q-4 -32 -4 -46q0 -35 20 -35q31 0 47 53q5 10 10 10q9 0 9 -8zM492 478q0 20 -9 32.5t-26.5 17t-29.5 5.5t-32 1q-30 0 -35 -1q-9 -2 -13 -20l-39 -158h61q55 0 88 31q35 35 35 92z " />
<glyph unicode="&#xaf;" d="M572 605q0 -13 -6 -16t-21 -3h-280q-10 0 -14.5 0.5t-7.5 3.5t-3 9q0 12 6 14.5t21 2.5h280q25 0 25 -11z" />
<glyph unicode="&#xb0;" horiz-adv-x="383" d="M458 556q-13 -53 -59.5 -90.5t-99.5 -37.5t-81 38q-19 25 -19 58q0 15 4 32q13 52 60 89.5t100 37.5t81 -37q18 -26 18 -58q0 -15 -4 -32zM418 556q3 12 3 22q0 22 -13 40q-19 25 -55 25q-37 0 -69 -25.5t-41 -61.5q-3 -12 -3 -23q0 -22 13 -39q19 -26 56 -26 q36 0 68 25.5t41 62.5z" />
<glyph unicode="&#xb1;" horiz-adv-x="767" d="M695 20q0 -20 -33 -20h-546q-33 0 -33 20t33 20h257l62 247h-248q-33 0 -33 20t33 20h258l65 262q6 25 22 25q9 0 14.5 -6t5.5 -14q0 -5 -4 -19l-62 -248h247q33 0 33 -20t-33 -20h-257l-61 -247h247q33 0 33 -20z" />
<glyph unicode="&#xb2;" horiz-adv-x="386" d="M442 403q0 -8 -8 -31q-10 -25 -37.5 -52t-64.5 -27q-30 0 -71 24q-42 22 -62 22q-28 0 -39 -39q-2 -7 -12 -7t-11 6q6 42 54 93q28 30 90 61q125 65 125 165v8q-1 34 -21 50t-46 16q-58 0 -97 -56q-37 -54 -37 -92v-4q1 -19 17 -19q29 0 48 31q18 29 18 48v2q0 11 -8 22 l-1 3q0 7 8 7q6 0 11.5 -11.5t5.5 -20.5v-2q0 -24 -22 -58q-22 -35 -60 -35q-36 0 -39 38v3q0 15 9 38q10 26 28.5 53t51 46.5t69.5 19.5q46 0 80.5 -26t36.5 -75v-7q0 -48 -36 -81q-39 -34 -132 -79q-74 -37 -106 -87q2 2 15 2q25 0 77 -10q28 -7 60 -7q33 0 54 20t30 44 q2 7 3.5 9t7.5 2q11 0 11 -7z" />
<glyph unicode="&#xb3;" horiz-adv-x="359" d="M416 428v-5q0 -50 -52 -89q-54 -41 -123 -41q-44 0 -70.5 22t-28.5 54v8q0 39 35 39q24 0 26 -19q0 -10 -9 -20q-9 -9 -26 -9h-4q3 -31 25 -46.5t52 -15.5q49 0 84 35q22 23 31 57q7 28 7 43v6q-2 50 -58 50h-20q-18 0 -18 6q-1 9 3 11t15 2h16q33 0 58 12t36.5 28t18 35 t7.5 30.5t0 16.5q-3 54 -64 54q-51 0 -91 -34q-39 -31 -39 -67q0 -25 20 -25q16 0 29.5 11t12.5 26q0 4 -1.5 8.5t-3.5 6.5l-2 3l-3 6q0 7 8 7q6 0 11 -10q7 -13 7 -22q0 -20 -17 -34q-19 -15 -40 -15q-20 0 -31 11q-12 12 -12 30q0 39 45 74q46 37 108 37q44 0 75 -21.5 t32 -58.5q2 -36 -28 -71t-82 -50q56 -21 61 -76z" />
<glyph unicode="&#xb4;" d="M539 668q0 -19 -20 -32l-161 -123q-9 -8 -14 -8t-10.5 5.5t-5.5 11.5q0 5 10 15l142 142q17 17 31 17q10 0 19 -7.5t9 -20.5z" />
<glyph unicode="&#xb5;" d="M535 143q0 -2 -4 -18.5t-11 -40.5t-14 -38q-23 -41 -46 -51q-13 -6 -27 -6q-27 0 -50.5 17t-30.5 50q-58 -67 -124 -67q-55 0 -89 29l-23 -92q-10 -38 -12.5 -49.5t-5.5 -20.5l-5 -20q-4 -18 -7.5 -27t-12 -17t-22.5 -8q-13 0 -20.5 8t-7.5 18q0 2 3 17l144 574 q9 40 40 40q11 0 19 -7t8 -19l-15 -63l-45 -180q-12 -48 -12 -78q0 -83 67 -83q45 0 80 37t43 69l69 275q10 38 39 38q27 0 27 -26q0 -10 -15 -63q-6 -28 -17 -68l-30 -123q-20 -82 -20 -99q0 -40 26 -40q18 0 33.5 24t33.5 96q4 15 7 18.5t12 3.5q15 0 15 -10z" />
<glyph unicode="&#xb6;" horiz-adv-x="611" d="M751 674q-5 -20 -38 -20h-50l-204 -815q-9 -33 -28 -33q-15 0 -15 16q0 7 3 17l204 815h-70l-204 -815q-9 -33 -28 -33q-15 0 -15 16q0 7 3 17l98 391q-50 2 -96 17t-83.5 42t-53.5 73q-9 24 -9 51q0 24 7 50q23 95 113.5 163t194.5 68h243q10 0 15.5 -0.5t9.5 -5.5 q4 -3 4 -9q0 -2 -1 -5z" />
<glyph unicode="&#xb7;" horiz-adv-x="767" d="M523 352q0 -23 -20 -43t-45 -20q-20 0 -32 12t-12 31q0 24 20.5 43.5t44.5 19.5q20 0 32 -13t12 -30z" />
<glyph unicode="&#xb8;" horiz-adv-x="460" d="M336 -109q0 -83 -196 -83h-25q-13 0 -13 11t25 11h10q135 0 135 62q0 33 -48 37q-15 2 -15 13q0 2 3.5 15t7 28.5t4.5 18.5q2 6 25 6h13q26 0 27 -7l-14 -57q61 -12 61 -55z" />
<glyph unicode="&#xb9;" horiz-adv-x="375" d="M376 317q1 -11 -14 -11q-16 0 -48 1t-48 1t-48 -1t-47 -1q-10 0 -11 7q0 11 20 11h6q40 0 51 5t15 21l71 284q-39 -25 -79 -25q-11 0 -12 8q0 8 9 11h2q72 7 124 68q8 9 13 9q8 0 9 -7q-1 -6 -2 -8l-86 -342q0 -1 -1 -5.5t0 -6.5q0 -9 20 -10q20 -2 31 -2h6q19 0 19 -7z " />
<glyph unicode="&#xba;" horiz-adv-x="429" d="M517 591v-9q0 -72 -60 -131q-64 -63 -143 -63q-53 0 -89 31.5t-39 84.5v9q0 71 60 129q63 63 142 63q55 0 90.5 -32t38.5 -82zM448 348q-4 -11 -18 -11h-262q-7 0 -10 3q-3 2 -3 6q0 12 18 12h263q6 0 9.5 -3t2.5 -7zM437 670q-18 20 -49 20q-58 0 -101 -64 q-18 -27 -31 -74q-10 -41 -10 -68v-8q2 -36 21.5 -54t46.5 -18q30 0 58.5 20t45.5 50q17 29 28 74q11 41 11 66q0 34 -20 56z" />
<glyph unicode="&#xbb;" horiz-adv-x="562" d="M495 242q0 -4 -4 -8q-115 -101 -187 -229q-2 -5 -8 -5h-2q-10 0 -10 10q0 3 1 4q54 118 144 230q-30 99 -30 210v20q2 9 10 9h2q10 0 10 -9q9 -128 72 -227q2 -4 2 -5zM342 242q0 -4 -4 -8q-115 -101 -187 -229q-2 -5 -8 -5h-2q-10 0 -10 10q0 3 1 4q54 118 144 230 q-30 99 -30 210v20q2 9 10 9h2q10 0 10 -9q9 -128 72 -227q2 -4 2 -5z" />
<glyph unicode="&#xbc;" horiz-adv-x="807" d="M376 317q1 -11 -13 -11q-16 0 -48.5 1t-48.5 1t-47 -1t-47 -1q-11 0 -12 7q0 11 20 11h6q40 0 51.5 5t15.5 21l70 284q-39 -25 -79 -25q-12 0 -12 8t9 11h2q72 7 124 68q8 9 12 9q10 0 10 -7q-1 -6 -2 -8l-86 -342q-2 -6 -2 -12q1 -9 22 -10q16 -2 30 -2h6q19 0 19 -7z M732 8q0 -6 -24 -11.5t-42 -5.5q-10 0 -15 1l-22 -88q-4 -20 -26 -20q-20 0 -21 15q0 1 0.5 4.5t2.5 8.5l21 89l-42 14q-25 7 -53 7q-41 0 -55 -9q-19 -12 -23 -12t-7.5 3.5t-3.5 6.5q-1 6 10 13t17 8q64 43 117 121q63 90 97 217q3 11 4.5 15.5t7.5 9.5t16 5q20 0 20 -16 q-1 -8 -4.5 -22t-19 -55.5t-37 -81t-63.5 -91.5t-94 -94h19q28 0 56 -6l8 -4q4 -1 36 -10q0 2 11.5 48t13.5 51q0 1 1 3.5t1 3.5t1 3.5t1.5 3.5t2 3t2.5 3t3 2.5t4 2t5 1t6 0.5q20 0 20 -16q1 -2 -2 -12l-26 -107h12q24 0 42 6l11 3q4 0 7.5 -4t3.5 -7zM834 663 q-1 -5 -6 -10l-569 -644q-9 -9 -20 -9q-8 0 -13 6q-3 4 -3 9q0 3 1 5q2 7 6 11l570 643q8 9 19 9q8 0 13 -6q3 -4 3 -9q0 -3 -1 -5z" />
<glyph unicode="&#xbd;" horiz-adv-x="807" d="M376 317q1 -11 -13 -11q-16 0 -48.5 1t-48.5 1t-47 -1t-47 -1q-11 0 -12 7q0 11 20 11h6q40 0 51.5 5t15.5 21l70 284q-39 -25 -79 -25q-12 0 -12 8t9 11h2q72 7 124 68q8 9 12 9q10 0 10 -7q-1 -6 -2 -8l-86 -342q-2 -6 -2 -12q1 -9 22 -10q16 -2 30 -2h6q19 0 19 -7z M754 98q0 -8 -9.5 -32t-36.5 -51.5t-64 -27.5q-30 0 -71 24q-42 22 -63 22q-26 0 -38 -38q-2 -8 -12 -8q-11 0 -12 6q7 42 55 93q7 7 15 14l13 12q5 4 15.5 10.5t13.5 8.5l17 9q13 7 15 8q125 63 125 164v8q-1 34 -20.5 50t-45.5 16q-40 0 -73 -30.5t-48 -64.5 q-13 -32 -13 -53q0 -23 17 -23q28 0 48 31q18 29 18 48q0 10 -8 24l-1 4q-1 2 1.5 4t5.5 2q6 0 12 -12q5 -11 5 -24q0 -22 -21 -54q-22 -36 -60 -36q-22 0 -30.5 12t-8.5 29q0 40 43 97q44 60 114 60q46 0 80.5 -26.5t37.5 -75.5v-5q0 -50 -36 -82q-39 -34 -132 -80 q-73 -33 -107 -87q2 2 16 2q23 0 77 -10q42 -7 59 -7q33 0 54 20t30 45q2 10 12 10t11 -6zM761 663q0 -3 -5 -10l-570 -644q-9 -9 -19 -9q-8 0 -13 6q-3 4 -3 9q0 3 1 5q2 7 6 11l569 643q7 9 19 9q16 0 16 -13q0 -3 -1 -7z" />
<glyph unicode="&#xbe;" horiz-adv-x="807" d="M462 428q2 -53 -52 -94t-123 -41q-44 0 -71 22.5t-29 53.5q0 47 36 47q26 0 26 -19q0 -10 -9 -20q-8 -9 -26 -9h-4q3 -31 25 -46.5t52 -15.5q50 0 83 35q39 39 39 106q-2 50 -58 50h-20q-18 0 -18 6q-1 9 3 11t15 2h16q39 0 65.5 15t37 39t14 38t4.5 28v2q-4 54 -65 54 q-51 0 -91 -34q-39 -31 -39 -67q0 -25 20 -25q16 0 29.5 11t12.5 26l-7 18l-2 4l-1 2q0 7 8 7q6 0 11 -10q7 -13 7 -22q0 -20 -17 -34q-19 -15 -41 -15q-38 0 -42 38q-2 40 44.5 77t108.5 37q44 0 74 -21q33 -23 33 -64q0 -34 -28 -66q-30 -35 -83 -50q57 -21 62 -76zM732 8 q0 -6 -24 -11.5t-42 -5.5q-10 0 -15 1l-22 -88q-4 -20 -26 -20q-20 0 -21 15q0 1 0.5 4.5t2.5 8.5l21 89l-42 14q-25 7 -53 7q-41 0 -55 -9q-19 -12 -23 -12t-7.5 3.5t-3.5 6.5q-1 6 10 13t17 8q64 43 117 121q63 90 97 217q3 11 4.5 15.5t7.5 9.5t16 5q20 0 20 -16 q-1 -8 -4.5 -22t-19 -55.5t-37 -81t-63.5 -91.5t-94 -94h19q28 0 56 -6l8 -4q4 -1 36 -10q0 2 11.5 48t13.5 51q0 1 1 3.5t1 3.5t1 3.5t1.5 3.5t2 3t2.5 3t3 2.5t4 2t5 1t6 0.5q20 0 20 -16q1 -2 -2 -12l-26 -107h12q24 0 42 6l11 3q4 0 7.5 -4t3.5 -7zM834 663 q-1 -5 -6 -10l-569 -644q-9 -9 -20 -9q-8 0 -13 6q-3 4 -3 9q0 3 1 5q2 7 6 11l570 643q8 9 19 9q8 0 13 -6q3 -4 3 -9q0 -3 -1 -5z" />
<glyph unicode="&#xbf;" d="M442 37q0 -14 -9.5 -42.5t-30 -65t-47.5 -69t-67 -54.5t-83 -22q-54 0 -87 35t-33 89q0 34 10.5 63.5t30.5 53t33.5 36.5t35.5 30l78 63q53 41 67.5 58.5t14.5 44.5q0 34 -25 34q-23 0 -46 -19.5t-33 -48.5q-3 -10 -5.5 -12.5t-11.5 -2.5q-15 0 -15 10q0 23 33 59t78 36 q29 0 44.5 -21t15.5 -49q0 -29 -14 -55t-24 -36t-31 -27l-121 -95q-22 -19 -35 -31.5t-29 -42t-16 -62.5q0 -42 24.5 -65t60.5 -23q59 0 111.5 52t80.5 130q-38 0 -38 32q0 20 14.5 34.5t34.5 14.5q34 0 34 -32zM422 457q0 -25 -20 -44t-44 -19q-21 0 -33 13t-12 30 q0 24 20 43.5t45 19.5q19 0 31.5 -12t12.5 -31z" />
<glyph unicode="&#xc0;" horiz-adv-x="743" d="M692 18q0 -18 -18 -18q-17 0 -52 1.5t-53 1.5q-19 0 -58 -1.5t-57 -1.5q-15 0 -15 12q0 19 23 19q67 0 67 32l-11 166h-228l-72 -126q-14 -26 -14 -38q0 -27 42 -34q16 -2 16 -12q0 -19 -18 -19q-15 0 -46 1.5t-47 1.5q-13 0 -40.5 -1.5t-39.5 -1.5t-12 12q1 18 12 19 q17 1 28.5 3.5t28.5 9.5t33 24.5t31 44.5l332 585q10 18 26 18q12 0 14.5 -4t3.5 -21l43 -626q2 -21 11 -27.5t46 -6.5q10 0 14 -0.5t7 -3.5t3 -9zM516 260l-23 327l-186 -327h209zM632 766q-2 -6 -9.5 -12t-13.5 -7h-1q-4 0 -11 5l-134 93q-12 9 -12 21q0 3 1 7 q4 14 17.5 23.5t27.5 9.5q11 0 22 -11l107 -116q6 -7 6 -13z" />
<glyph unicode="&#xc1;" horiz-adv-x="743" d="M692 18q0 -18 -18 -18q-17 0 -52 1.5t-53 1.5q-19 0 -58 -1.5t-57 -1.5q-15 0 -15 12q0 19 23 19q67 0 67 32l-11 166h-228l-72 -126q-14 -26 -14 -38q0 -27 42 -34q16 -2 16 -12q0 -19 -18 -19q-15 0 -46 1.5t-47 1.5q-13 0 -40.5 -1.5t-39.5 -1.5t-12 12q1 18 12 19 q17 1 28.5 3.5t28.5 9.5t33 24.5t31 44.5l332 585q10 18 26 18q12 0 14.5 -4t3.5 -21l43 -626q2 -21 11 -27.5t46 -6.5q10 0 14 -0.5t7 -3.5t3 -9zM516 260l-23 327l-186 -327h209zM727 873q-3 -17 -25 -28l-180 -93q-9 -5 -14 -5h-1q-5 1 -9 7q-4 5 -4 10q0 6 12 15 l165 116q17 11 28 11q14 0 22 -10q6 -7 6 -18v-5z" />
<glyph unicode="&#xc2;" horiz-adv-x="743" d="M692 18q0 -18 -18 -18q-17 0 -52 1.5t-53 1.5q-19 0 -58 -1.5t-57 -1.5q-15 0 -15 12q0 19 23 19q67 0 67 32l-11 166h-228l-72 -126q-14 -26 -14 -38q0 -27 42 -34q16 -2 16 -12q0 -19 -18 -19q-15 0 -46 1.5t-47 1.5q-13 0 -40.5 -1.5t-39.5 -1.5t-12 12q1 18 12 19 q17 1 28.5 3.5t28.5 9.5t33 24.5t31 44.5l332 585q10 18 26 18q12 0 14.5 -4t3.5 -21l43 -626q2 -21 11 -27.5t46 -6.5q10 0 14 -0.5t7 -3.5t3 -9zM516 260l-23 327l-186 -327h209zM696 755q3 -2 3 -5q0 -4 -4 -8q-5 -6 -10 -6l-4 1l-112 55l-140 -55q-2 -1 -4 -1q-4 0 -6 2 q-3 2 -3 6q0 7 7 11l155 98q3 1 6.5 1t5.5 -1z" />
<glyph unicode="&#xc3;" horiz-adv-x="743" d="M692 18q0 -18 -18 -18q-17 0 -52 1.5t-53 1.5q-19 0 -58 -1.5t-57 -1.5q-15 0 -15 12q0 19 23 19q67 0 67 32l-11 166h-228l-72 -126q-14 -26 -14 -38q0 -27 42 -34q16 -2 16 -12q0 -19 -18 -19q-15 0 -46 1.5t-47 1.5q-13 0 -40.5 -1.5t-39.5 -1.5t-12 12q1 18 12 19 q17 1 28.5 3.5t28.5 9.5t33 24.5t31 44.5l332 585q10 18 26 18q12 0 14.5 -4t3.5 -21l43 -626q2 -21 11 -27.5t46 -6.5q10 0 14 -0.5t7 -3.5t3 -9zM516 260l-23 327l-186 -327h209zM730 826q0 -10 -49 -50t-79 -40q-27 0 -51 39q-16 27 -32 27q-30 0 -89 -58q-9 -7 -13 -7 q-11 0 -11 10q0 5 13 18.5t27 24.5l13 11q47 36 74 36q18 0 29 -10t25 -33t29 -23q19 0 51 24.5t39 33.5q7 7 13 7q11 0 11 -10z" />
<glyph unicode="&#xc4;" horiz-adv-x="743" d="M692 18q0 -18 -18 -18q-17 0 -52 1.5t-53 1.5q-19 0 -58 -1.5t-57 -1.5q-15 0 -15 12q0 19 23 19q67 0 67 32l-11 166h-228l-72 -126q-14 -26 -14 -38q0 -27 42 -34q16 -2 16 -12q0 -19 -18 -19q-15 0 -46 1.5t-47 1.5q-13 0 -40.5 -1.5t-39.5 -1.5t-12 12q1 18 12 19 q17 1 28.5 3.5t28.5 9.5t33 24.5t31 44.5l332 585q10 18 26 18q12 0 14.5 -4t3.5 -21l43 -626q2 -21 11 -27.5t46 -6.5q10 0 14 -0.5t7 -3.5t3 -9zM516 260l-23 327l-186 -327h209zM512 793q0 -22 -18 -39.5t-39 -17.5q-19 0 -30 11.5t-11 27.5q0 22 18 39.5t40 17.5 q19 0 29.5 -11.5t10.5 -27.5zM721 793q0 -22 -18 -39.5t-39 -17.5q-19 0 -30 11.5t-11 27.5q0 22 18 39.5t40 17.5q19 0 29.5 -11.5t10.5 -27.5z" />
<glyph unicode="&#xc5;" horiz-adv-x="743" d="M692 18q0 -18 -18 -18q-17 0 -52 1.5t-53 1.5q-19 0 -58 -1.5t-57 -1.5q-15 0 -15 12q0 19 23 19q67 0 67 32l-11 166h-228l-72 -126q-14 -26 -14 -38q0 -27 42 -34q16 -2 16 -12q0 -19 -18 -19q-15 0 -46 1.5t-47 1.5q-13 0 -40.5 -1.5t-39.5 -1.5t-12 12q1 18 12 19 q17 1 28.5 3.5t28.5 9.5t33 24.5t31 44.5l332 585q10 18 26 18q12 0 14.5 -4t3.5 -21l43 -626q2 -21 11 -27.5t46 -6.5q10 0 14 -0.5t7 -3.5t3 -9zM516 260l-23 327l-186 -327h209zM631 826q0 36 -44 36q-32 0 -50 -20t-20 -40l-2 -21q0 -35 44 -35q57 0 70 63zM669 825 q0 -42 -36.5 -75.5t-81.5 -33.5q-30 0 -52 17.5t-22 50.5q0 43 36.5 75.5t80.5 32.5q36 0 55.5 -20.5t19.5 -46.5z" />
<glyph unicode="&#xc6;" horiz-adv-x="883" d="M892 247q-3 -10 -4 -12l-89 -219q-5 -11 -9 -13.5t-19 -2.5h-404q-10 0 -14 0.5t-7.5 3t-3.5 8.5q0 19 23 19q36 0 46 6.5t16 31.5l61 244h-146l-124 -213q-13 -23 -13 -36q0 -30 41 -33q16 -2 16 -12q0 -19 -18 -19q-15 0 -46 1.5t-47 1.5q-13 0 -40.5 -1.5t-39.5 -1.5 t-12 13q0 11 5 14t15 4q36 3 62 20t52 62l312 538q-8 1 -29 1h-20q-10 0 -14.5 0.5t-8 3t-3.5 8.5q0 13 6 16t22 3h466q12 0 16.5 -1t6.5 -6q1 -4 1 -11v-7l-23 -177q-1 -8 -1.5 -11.5t-2.5 -6.5t-5 -4t-8 -1q-16 0 -16 12l2 13l6 69q1 8 1 14q0 49 -31 68q-27 18 -91 18 h-90q-27 0 -35 -5t-14 -31l-67 -272h76q58 0 79.5 19.5t35.5 76.5q4 14 7 17.5t12 3.5q15 0 15 -11q0 -7 -2 -13l-55 -221q-2 -9 -5 -13.5t-5.5 -5.5t-8.5 -1q-15 0 -15 12q0 3 2 10q9 45 9 54q0 22 -13 31.5t-58 9.5h-82l-63 -250q0 -1 -2 -9.5t-2 -12.5t1 -6t8 -3t22 -1 h91q53 0 88.5 11t61.5 38.5t41.5 56.5t38.5 84q13 32 16 34q3 3 11 3q15 0 15 -11zM563 612q2 6 2 17q0 20 -28 20l-177 -305h135z" />
<glyph unicode="&#xc7;" horiz-adv-x="716" d="M810 681l-61 -243q-3 -12 -6 -15t-12 -3q-15 0 -15 10q0 1 1 11l3 25q1 14 1 25q0 75 -34.5 129t-107.5 54q-60 0 -124 -35.5t-113 -102.5q-53 -73 -79 -170t-26 -159q0 -99 50.5 -148.5t121.5 -49.5q73 0 148.5 58.5t110.5 174.5q3 8 16 8q15 0 15 -10q0 -21 -21 -62 t-57 -86.5t-97 -79.5t-129 -34h-10l-8 -32q61 -12 61 -55q0 -83 -196 -83h-25q-13 0 -13 11t25 11h10q135 0 135 62q0 33 -48 37q-15 2 -15 13q0 1 2 8.5t4.5 19t4.5 18.5q-78 23 -125 91t-47 166q0 114 62 222t160 173t199 65q98 0 151 -85l63 74q4 5 8 7.5t6 2.5l2 1 q4 0 7 -2.5t4 -4.5v-3q0 -6 -2 -14z" />
<glyph unicode="&#xc8;" horiz-adv-x="678" d="M687 247q-3 -10 -4 -12l-89 -219q-5 -11 -9 -13.5t-19 -2.5h-479q-10 0 -14 0.5t-7.5 3t-3.5 8.5q0 13 6 16t21 3q49 0 62.5 7.5t19.5 34.5l134 536l4 23q0 6 -2 9t-15.5 5.5t-40.5 2.5q-12 0 -16.5 0.5t-7.5 3.5t-3 9q0 12 6 15t21 3h467q10 0 13 -0.5t8 -3.5q4 -1 4 -5 q0 -1 -0.5 -3t-1 -4.5t0.5 -9.5l-23 -177q-1 -10 -2 -14t-4.5 -6t-10.5 -2q-15 0 -15 12q0 7 2 17q5 40 5 64q0 56 -27.5 78.5t-105.5 22.5h-125q-26 0 -34 -5t-14 -29l-61 -246h81q59 0 81.5 19t37.5 74q6 22 11 23q3 1 8 1q16 0 16 -12q-2 -10 -3 -13l-55 -220 q-3 -13 -6 -16.5t-12 -3.5q-16 0 -16 12l2 11q9 33 9 51q0 23 -14 33t-61 10h-87l-69 -275q0 -1 -2 -9.5t-2 -12.5t1 -6t8 -3t22 -1h122q47 0 82 9t58.5 22t44 41.5t34 55.5t33.5 75q7 17 10 20.5t11 3.5q15 0 15 -11zM600 766q-2 -6 -9.5 -12t-13.5 -7h-1q-4 0 -11 5 l-134 93q-12 9 -12 21q0 3 1 7q4 14 17.5 23.5t27.5 9.5q11 0 22 -11l107 -116q6 -7 6 -13z" />
<glyph unicode="&#xc9;" horiz-adv-x="678" d="M687 247q-3 -10 -4 -12l-89 -219q-5 -11 -9 -13.5t-19 -2.5h-479q-10 0 -14 0.5t-7.5 3t-3.5 8.5q0 13 6 16t21 3q49 0 62.5 7.5t19.5 34.5l134 536l4 23q0 6 -2 9t-15.5 5.5t-40.5 2.5q-12 0 -16.5 0.5t-7.5 3.5t-3 9q0 12 6 15t21 3h467q10 0 13 -0.5t8 -3.5q4 -1 4 -5 q0 -1 -0.5 -3t-1 -4.5t0.5 -9.5l-23 -177q-1 -10 -2 -14t-4.5 -6t-10.5 -2q-15 0 -15 12q0 7 2 17q5 40 5 64q0 56 -27.5 78.5t-105.5 22.5h-125q-26 0 -34 -5t-14 -29l-61 -246h81q59 0 81.5 19t37.5 74q6 22 11 23q3 1 8 1q16 0 16 -12q-2 -10 -3 -13l-55 -220 q-3 -13 -6 -16.5t-12 -3.5q-16 0 -16 12l2 11q9 33 9 51q0 23 -14 33t-61 10h-87l-69 -275q0 -1 -2 -9.5t-2 -12.5t1 -6t8 -3t22 -1h122q47 0 82 9t58.5 22t44 41.5t34 55.5t33.5 75q7 17 10 20.5t11 3.5q15 0 15 -11zM695 873q-3 -17 -25 -28l-180 -93q-9 -5 -14 -5h-1 q-5 1 -9 7q-4 5 -4 10q0 6 12 15l165 116q17 11 28 11q14 0 22 -10q6 -7 6 -18v-5z" />
<glyph unicode="&#xca;" horiz-adv-x="678" d="M687 247q-3 -10 -4 -12l-89 -219q-5 -11 -9 -13.5t-19 -2.5h-479q-10 0 -14 0.5t-7.5 3t-3.5 8.5q0 13 6 16t21 3q49 0 62.5 7.5t19.5 34.5l134 536l4 23q0 6 -2 9t-15.5 5.5t-40.5 2.5q-12 0 -16.5 0.5t-7.5 3.5t-3 9q0 12 6 15t21 3h467q10 0 13 -0.5t8 -3.5q4 -1 4 -5 q0 -1 -0.5 -3t-1 -4.5t0.5 -9.5l-23 -177q-1 -10 -2 -14t-4.5 -6t-10.5 -2q-15 0 -15 12q0 7 2 17q5 40 5 64q0 56 -27.5 78.5t-105.5 22.5h-125q-26 0 -34 -5t-14 -29l-61 -246h81q59 0 81.5 19t37.5 74q6 22 11 23q3 1 8 1q16 0 16 -12q-2 -10 -3 -13l-55 -220 q-3 -13 -6 -16.5t-12 -3.5q-16 0 -16 12l2 11q9 33 9 51q0 23 -14 33t-61 10h-87l-69 -275q0 -1 -2 -9.5t-2 -12.5t1 -6t8 -3t22 -1h122q47 0 82 9t58.5 22t44 41.5t34 55.5t33.5 75q7 17 10 20.5t11 3.5q15 0 15 -11zM664 755q3 -2 3 -5q0 -4 -4 -8q-5 -6 -10 -6l-4 1 l-112 55l-140 -55q-2 -1 -4 -1q-4 0 -6 2q-3 2 -3 6q0 7 7 11l155 98q3 1 6.5 1t5.5 -1z" />
<glyph unicode="&#xcb;" horiz-adv-x="678" d="M687 247q-3 -10 -4 -12l-89 -219q-5 -11 -9 -13.5t-19 -2.5h-479q-10 0 -14 0.5t-7.5 3t-3.5 8.5q0 13 6 16t21 3q49 0 62.5 7.5t19.5 34.5l134 536l4 23q0 6 -2 9t-15.5 5.5t-40.5 2.5q-12 0 -16.5 0.5t-7.5 3.5t-3 9q0 12 6 15t21 3h467q10 0 13 -0.5t8 -3.5q4 -1 4 -5 q0 -1 -0.5 -3t-1 -4.5t0.5 -9.5l-23 -177q-1 -10 -2 -14t-4.5 -6t-10.5 -2q-15 0 -15 12q0 7 2 17q5 40 5 64q0 56 -27.5 78.5t-105.5 22.5h-125q-26 0 -34 -5t-14 -29l-61 -246h81q59 0 81.5 19t37.5 74q6 22 11 23q3 1 8 1q16 0 16 -12q-2 -10 -3 -13l-55 -220 q-3 -13 -6 -16.5t-12 -3.5q-16 0 -16 12l2 11q9 33 9 51q0 23 -14 33t-61 10h-87l-69 -275q0 -1 -2 -9.5t-2 -12.5t1 -6t8 -3t22 -1h122q47 0 82 9t58.5 22t44 41.5t34 55.5t33.5 75q7 17 10 20.5t11 3.5q15 0 15 -11zM480 793q0 -22 -18 -39.5t-39 -17.5q-19 0 -30 11.5 t-11 27.5q0 22 18 39.5t40 17.5q19 0 29.5 -11.5t10.5 -27.5zM689 793q0 -22 -18 -39.5t-39 -17.5q-19 0 -30 11.5t-11 27.5q0 22 18 39.5t40 17.5q19 0 29.5 -11.5t10.5 -27.5z" />
<glyph unicode="&#xcc;" horiz-adv-x="386" d="M338 19q0 -19 -20 -19t-61.5 1.5t-62.5 1.5t-62 -1.5t-61 -1.5q-14 0 -14 13q0 12 6 15t24 3q49 0 63.5 7.5t20.5 33.5l136 544q3 9 3 19q0 11 -15 14t-48 3q-12 0 -16.5 0.5t-7.5 3.5t-3 9q0 18 19 18q21 0 63 -1.5t62 -1.5q21 0 62 1.5t61 1.5q14 0 14 -12 q0 -13 -6.5 -16t-24.5 -3q-49 0 -63 -7.5t-20 -33.5l-135 -540l-4 -22q0 -7 2 -10t16.5 -5.5t43.5 -2.5q12 0 16.5 -0.5t8 -3t3.5 -8.5zM453 766q-2 -6 -9.5 -12t-13.5 -7h-1q-4 0 -11 5l-134 93q-12 9 -12 21q0 3 1 7q4 14 17.5 23.5t27.5 9.5q11 0 22 -11l107 -116 q6 -7 6 -13z" />
<glyph unicode="&#xcd;" horiz-adv-x="386" d="M338 19q0 -19 -20 -19t-61.5 1.5t-62.5 1.5t-62 -1.5t-61 -1.5q-14 0 -14 13q0 12 6 15t24 3q49 0 63.5 7.5t20.5 33.5l136 544q3 9 3 19q0 11 -15 14t-48 3q-12 0 -16.5 0.5t-7.5 3.5t-3 9q0 18 19 18q21 0 63 -1.5t62 -1.5q21 0 62 1.5t61 1.5q14 0 14 -12 q0 -13 -6.5 -16t-24.5 -3q-49 0 -63 -7.5t-20 -33.5l-135 -540l-4 -22q0 -7 2 -10t16.5 -5.5t43.5 -2.5q12 0 16.5 -0.5t8 -3t3.5 -8.5zM548 873q-3 -17 -25 -28l-180 -93q-9 -5 -14 -5h-1q-5 1 -10 7q-3 5 -3 10q0 6 12 15l165 116q16 11 28 11q14 0 22 -10q6 -7 6 -18v-5z " />
<glyph unicode="&#xce;" horiz-adv-x="386" d="M338 19q0 -19 -20 -19t-61.5 1.5t-62.5 1.5t-62 -1.5t-61 -1.5q-14 0 -14 13q0 12 6 15t24 3q49 0 63.5 7.5t20.5 33.5l136 544q3 9 3 19q0 11 -15 14t-48 3q-12 0 -16.5 0.5t-7.5 3.5t-3 9q0 18 19 18q21 0 63 -1.5t62 -1.5q21 0 62 1.5t61 1.5q14 0 14 -12 q0 -13 -6.5 -16t-24.5 -3q-49 0 -63 -7.5t-20 -33.5l-135 -540l-4 -22q0 -7 2 -10t16.5 -5.5t43.5 -2.5q12 0 16.5 -0.5t8 -3t3.5 -8.5zM517 755q3 -2 3 -5q0 -4 -4 -8q-5 -6 -10 -6l-4 1l-112 55l-140 -55q-2 -1 -4 -1q-4 0 -6 2q-3 2 -3 6q0 7 7 11l155 98q4 1 6.5 1 t5.5 -1z" />
<glyph unicode="&#xcf;" horiz-adv-x="386" d="M338 19q0 -19 -20 -19t-61.5 1.5t-62.5 1.5t-62 -1.5t-61 -1.5q-14 0 -14 13q0 12 6 15t24 3q49 0 63.5 7.5t20.5 33.5l136 544q3 9 3 19q0 11 -15 14t-48 3q-12 0 -16.5 0.5t-7.5 3.5t-3 9q0 18 19 18q21 0 63 -1.5t62 -1.5q21 0 62 1.5t61 1.5q14 0 14 -12 q0 -13 -6.5 -16t-24.5 -3q-49 0 -63 -7.5t-20 -33.5l-135 -540l-4 -22q0 -7 2 -10t16.5 -5.5t43.5 -2.5q12 0 16.5 -0.5t8 -3t3.5 -8.5zM333 793q0 -22 -18 -39.5t-39 -17.5q-19 0 -30 11.5t-11 27.5q0 22 18 39.5t40 17.5q19 0 29.5 -11.5t10.5 -27.5zM542 793 q0 -22 -18 -39.5t-39 -17.5q-19 0 -30 11.5t-11 27.5q0 22 18 39.5t40 17.5q19 0 29.5 -11.5t10.5 -27.5z" />
<glyph unicode="&#xd0;" horiz-adv-x="755" d="M775 438q0 -110 -55 -212t-143.5 -164t-181.5 -62h-307q-10 0 -14 0.5t-7.5 3t-3.5 8.5q0 13 6 16t21 3q49 0 62.5 7.5t19.5 34.5l63 254h-94q-6 0 -9.5 4.5t-1.5 10.5q4 15 18 15h95l64 259q4 14 4 19q0 11 -14 14t-44 3q-11 0 -15.5 0.5t-8 3t-3.5 8.5q0 13 6 16t21 3 h312q96 0 153 -68t57 -177zM692 476q0 91 -46 133.5t-114 42.5h-97q-26 0 -34.5 -5.5t-14.5 -30.5l-65 -259h146q6 0 9.5 -4.5t1.5 -10.5q-3 -15 -19 -15h-145l-66 -264q0 -1 -2 -9.5t-2 -12.5t1 -6t8 -3t22 -1h103q115 0 200 99q56 66 85 174t29 172z" />
<glyph unicode="&#xd1;" horiz-adv-x="743" d="M852 670q0 -18 -15 -18q-85 -3 -101 -68l-140 -564q-2 -9 -5 -13.5t-6 -5.5t-9 -1q-10 0 -13 2.5t-7 14.5l-215 597l-129 -515q-4 -16 -4 -25q0 -8 1.5 -13.5t6.5 -12.5t18 -11.5t33 -5.5q19 0 19 -13q0 -18 -18 -18q-15 0 -48.5 1.5t-49.5 1.5t-48 -1.5t-47 -1.5 q-13 0 -13 12q0 19 19 19q80 3 97 70l132 530l3 13q0 8 -61 8q-11 0 -15.5 0.5t-8 3t-3.5 8.5q0 13 6 16t21 3h125q16 0 19.5 -2.5t8.5 -14.5l187 -520l110 439q4 16 4 24q0 41 -60 43q-18 0 -18 12q0 19 18 19q15 0 48 -1.5t49 -1.5t48.5 1.5t47.5 1.5q13 0 13 -13z M730 826q0 -10 -49 -50t-79 -40q-27 0 -51 39q-16 27 -32 27q-30 0 -89 -58q-9 -7 -13 -7q-11 0 -11 10q0 5 13 18.5t27 24.5l13 11q47 36 74 36q18 0 29 -10t25 -33t29 -23q19 0 51 24.5t39 33.5q7 7 13 7q11 0 11 -10z" />
<glyph unicode="&#xd2;" horiz-adv-x="767" d="M788 444q0 -117 -60.5 -226t-155.5 -174.5t-194 -65.5q-102 0 -166 72t-64 186q0 113 59.5 222.5t156 178t196.5 68.5q98 0 163 -70.5t65 -190.5zM703 486q0 95 -43.5 144.5t-106.5 49.5q-64 0 -127 -47t-104 -120q-46 -80 -65 -167.5t-19 -140.5q0 -90 39.5 -145.5 t107.5 -55.5q58 0 120 44.5t109 125.5q39 67 64 156t25 156zM644 766q-2 -6 -9.5 -12t-13.5 -7h-1q-4 0 -11 5l-134 93q-12 9 -12 21q0 3 1 7q4 14 17.5 23.5t27.5 9.5q11 0 22 -11l107 -116q6 -7 6 -13z" />
<glyph unicode="&#xd3;" horiz-adv-x="767" d="M788 444q0 -117 -60.5 -226t-155.5 -174.5t-194 -65.5q-102 0 -166 72t-64 186q0 113 59.5 222.5t156 178t196.5 68.5q98 0 163 -70.5t65 -190.5zM703 486q0 95 -43.5 144.5t-106.5 49.5q-64 0 -127 -47t-104 -120q-46 -80 -65 -167.5t-19 -140.5q0 -90 39.5 -145.5 t107.5 -55.5q58 0 120 44.5t109 125.5q39 67 64 156t25 156zM739 873q-3 -17 -25 -28l-180 -93q-9 -5 -14 -5h-1q-5 1 -9 7q-4 5 -4 10q0 6 12 15l165 116q17 11 28 11q14 0 22 -10q6 -7 6 -18v-5z" />
<glyph unicode="&#xd4;" horiz-adv-x="767" d="M788 444q0 -117 -60.5 -226t-155.5 -174.5t-194 -65.5q-102 0 -166 72t-64 186q0 113 59.5 222.5t156 178t196.5 68.5q98 0 163 -70.5t65 -190.5zM703 486q0 95 -43.5 144.5t-106.5 49.5q-64 0 -127 -47t-104 -120q-46 -80 -65 -167.5t-19 -140.5q0 -90 39.5 -145.5 t107.5 -55.5q58 0 120 44.5t109 125.5q39 67 64 156t25 156zM708 755q3 -2 3 -5q0 -4 -4 -8q-5 -6 -10 -6l-4 1l-112 55l-140 -55q-2 -1 -4 -1q-4 0 -6 2q-3 2 -3 6q0 7 7 11l155 98q3 1 6.5 1t5.5 -1z" />
<glyph unicode="&#xd5;" horiz-adv-x="767" d="M788 444q0 -117 -60.5 -226t-155.5 -174.5t-194 -65.5q-102 0 -166 72t-64 186q0 113 59.5 222.5t156 178t196.5 68.5q98 0 163 -70.5t65 -190.5zM703 486q0 95 -43.5 144.5t-106.5 49.5q-64 0 -127 -47t-104 -120q-46 -80 -65 -167.5t-19 -140.5q0 -90 39.5 -145.5 t107.5 -55.5q58 0 120 44.5t109 125.5q39 67 64 156t25 156zM742 826q0 -10 -49 -50t-79 -40q-27 0 -51 39q-16 27 -32 27q-30 0 -89 -58q-9 -7 -13 -7q-11 0 -11 10q0 5 13 18.5t27 24.5l13 11q47 36 74 36q18 0 29 -10t25 -33t29 -23q19 0 51 24.5t39 33.5q7 7 13 7 q11 0 11 -10z" />
<glyph unicode="&#xd6;" horiz-adv-x="767" d="M788 444q0 -117 -60.5 -226t-155.5 -174.5t-194 -65.5q-102 0 -166 72t-64 186q0 113 59.5 222.5t156 178t196.5 68.5q98 0 163 -70.5t65 -190.5zM703 486q0 95 -43.5 144.5t-106.5 49.5q-64 0 -127 -47t-104 -120q-46 -80 -65 -167.5t-19 -140.5q0 -90 39.5 -145.5 t107.5 -55.5q58 0 120 44.5t109 125.5q39 67 64 156t25 156zM524 793q0 -22 -18 -39.5t-39 -17.5q-19 0 -30 11.5t-11 27.5q0 22 18 39.5t40 17.5q19 0 29.5 -11.5t10.5 -27.5zM733 793q0 -22 -18 -39.5t-39 -17.5q-19 0 -30 11.5t-11 27.5q0 22 18 39.5t40 17.5 q19 0 29.5 -11.5t10.5 -27.5z" />
<glyph unicode="&#xd7;" horiz-adv-x="767" d="M614 37q-10 -8 -19 -8l-15 5l-2 2q-1 1 -3 4t-5 7l-131 175l-219 -176q-20 -16 -33 -16q-6 0 -11 4q-6 4 -6 9q0 10 20 25l228 182l-140 185q-7 8 -7 15t8 14q10 7 19 7q7 0 14 -4q3 -2 10 -13l132 -175l218 175q20 16 33 16q6 0 11 -4q6 -4 6 -9q0 -10 -20 -25 l-227 -181l140 -185q6 -9 6 -16t-7 -13z" />
<glyph unicode="&#xd8;" horiz-adv-x="767" d="M788 444q0 -117 -60.5 -226t-155.5 -174.5t-194 -65.5q-91 0 -157 62l-70 -80q-19 -20 -23 -20t-8 3.5t-4 8.5q0 4 21 28l68 79q-57 71 -57 177q0 113 59.5 222.5t156 178t196.5 68.5q96 0 156 -63l79 92q7 9 15 9q4 0 8 -3.5t4 -8.5q0 -3 -10 -16l-80 -92 q56 -67 56 -179zM686 609q-44 74 -132 74q-58 0 -118.5 -36.5t-105.5 -99.5q-54 -78 -81.5 -184t-27.5 -169q0 -52 17 -97zM716 487q0 54 -17 98l-448 -512q43 -73 133 -73q59 0 119 35.5t103 96.5q56 78 83 185.5t27 169.5z" />
<glyph unicode="&#xd9;" horiz-adv-x="743" d="M852 670q0 -18 -15 -18q-85 -3 -101 -68l-91 -366q-22 -89 -98.5 -164.5t-166.5 -75.5q-74 0 -126 51t-52 137q0 32 8 64l96 386q4 14 4 19q0 11 -14 14t-44 3q-11 0 -15.5 0.5t-8 3t-3.5 8.5q0 19 19 19t59.5 -1.5t60.5 -1.5t59.5 1.5t58.5 1.5q14 0 14 -13 q0 -12 -6 -15t-24 -3q-46 0 -59.5 -7.5t-19.5 -32.5l-100 -402q-10 -44 -10 -76q0 -63 31.5 -94t75.5 -31q72 0 140.5 62.5t91.5 157.5l89 356q4 16 4 24q0 41 -60 43q-18 0 -18 12q0 19 18 19q15 0 47.5 -1.5t48.5 -1.5t47.5 1.5t46.5 1.5q13 0 13 -13zM655 766 q-2 -6 -9.5 -12t-13.5 -7h-1q-4 0 -11 5l-134 93q-12 9 -12 21q0 3 1 7q4 14 17.5 23.5t27.5 9.5q11 0 22 -11l107 -116q6 -7 6 -13z" />
<glyph unicode="&#xda;" horiz-adv-x="743" d="M852 670q0 -18 -15 -18q-85 -3 -101 -68l-91 -366q-22 -89 -98.5 -164.5t-166.5 -75.5q-74 0 -126 51t-52 137q0 32 8 64l96 386q4 14 4 19q0 11 -14 14t-44 3q-11 0 -15.5 0.5t-8 3t-3.5 8.5q0 19 19 19t59.5 -1.5t60.5 -1.5t59.5 1.5t58.5 1.5q14 0 14 -13 q0 -12 -6 -15t-24 -3q-46 0 -59.5 -7.5t-19.5 -32.5l-100 -402q-10 -44 -10 -76q0 -63 31.5 -94t75.5 -31q72 0 140.5 62.5t91.5 157.5l89 356q4 16 4 24q0 41 -60 43q-18 0 -18 12q0 19 18 19q15 0 47.5 -1.5t48.5 -1.5t47.5 1.5t46.5 1.5q13 0 13 -13zM750 873 q-3 -17 -25 -28l-180 -93q-9 -5 -14 -5h-1q-5 1 -10 7q-3 5 -3 10q0 6 12 15l165 116q16 11 28 11q14 0 22 -10q6 -7 6 -18v-5z" />
<glyph unicode="&#xdb;" horiz-adv-x="743" d="M852 670q0 -18 -15 -18q-85 -3 -101 -68l-91 -366q-22 -89 -98.5 -164.5t-166.5 -75.5q-74 0 -126 51t-52 137q0 32 8 64l96 386q4 14 4 19q0 11 -14 14t-44 3q-11 0 -15.5 0.5t-8 3t-3.5 8.5q0 19 19 19t59.5 -1.5t60.5 -1.5t59.5 1.5t58.5 1.5q14 0 14 -13 q0 -12 -6 -15t-24 -3q-46 0 -59.5 -7.5t-19.5 -32.5l-100 -402q-10 -44 -10 -76q0 -63 31.5 -94t75.5 -31q72 0 140.5 62.5t91.5 157.5l89 356q4 16 4 24q0 41 -60 43q-18 0 -18 12q0 19 18 19q15 0 47.5 -1.5t48.5 -1.5t47.5 1.5t46.5 1.5q13 0 13 -13zM719 755q3 -2 3 -5 q0 -4 -4 -8q-5 -6 -10 -6l-4 1l-112 55l-140 -55q-2 -1 -4 -1q-4 0 -6 2q-3 2 -3 6q0 7 7 11l155 98q3 1 6 1t6 -1z" />
<glyph unicode="&#xdc;" horiz-adv-x="743" d="M852 670q0 -18 -15 -18q-85 -3 -101 -68l-91 -366q-22 -89 -98.5 -164.5t-166.5 -75.5q-74 0 -126 51t-52 137q0 32 8 64l96 386q4 14 4 19q0 11 -14 14t-44 3q-11 0 -15.5 0.5t-8 3t-3.5 8.5q0 19 19 19t59.5 -1.5t60.5 -1.5t59.5 1.5t58.5 1.5q14 0 14 -13 q0 -12 -6 -15t-24 -3q-46 0 -59.5 -7.5t-19.5 -32.5l-100 -402q-10 -44 -10 -76q0 -63 31.5 -94t75.5 -31q72 0 140.5 62.5t91.5 157.5l89 356q4 16 4 24q0 41 -60 43q-18 0 -18 12q0 19 18 19q15 0 47.5 -1.5t48.5 -1.5t47.5 1.5t46.5 1.5q13 0 13 -13zM535 793 q0 -22 -18 -39.5t-39 -17.5q-19 0 -30 11.5t-11 27.5q0 22 18 39.5t40 17.5q19 0 29.5 -11.5t10.5 -27.5zM744 793q0 -22 -18 -39.5t-39 -17.5q-19 0 -30 11.5t-11 27.5q0 22 18 39.5t40 17.5q19 0 29.5 -11.5t10.5 -27.5z" />
<glyph unicode="&#xdd;" horiz-adv-x="743" d="M874 672q0 -13 -4.5 -16t-14.5 -4q-37 -3 -68 -21.5t-65 -60.5l-236 -287q-6 -7 -12 -27l-31 -123q-19 -79 -19 -85q0 -11 14 -14t44 -3q11 0 15.5 -0.5t8 -3t3.5 -8.5q0 -19 -19 -19t-59 1.5t-60 1.5q-19 0 -58 -1.5t-58 -1.5q-14 0 -14 12q0 13 6 16t19 3q55 1 66.5 9 t21.5 50q46 175 46 183q0 5 -4 15l-106 334q-5 18 -17.5 24t-46.5 6q-24 0 -24 12q0 19 19 19q16 0 51.5 -1.5t52.5 -1.5q20 0 59 1.5t58 1.5q14 0 14 -12q0 -13 -5.5 -16t-16.5 -3q-56 0 -56 -24q0 -3 4 -13l95 -300l219 267l3 4l7 9l6.5 11t6 12t2.5 11q0 21 -31 23 q-15 0 -15 12q0 19 18 19q15 0 46 -1.5t47 -1.5q13 0 38.5 1.5t37.5 1.5q11 0 12 -11zM727 873q-3 -17 -25 -28l-180 -93q-9 -5 -14 -5h-1q-5 1 -9 7q-4 5 -4 10q0 6 12 15l165 116q17 11 28 11q14 0 22 -10q6 -7 6 -18v-5z" />
<glyph unicode="&#xde;" horiz-adv-x="627" d="M647 409q0 -86 -74 -158.5t-171 -72.5h-127l-17 -65q-14 -62 -14 -64q0 -7 2 -10t15 -5.5t40 -2.5q12 0 16.5 -0.5t8 -3t3.5 -8.5q0 -19 -19 -19l-117 3l-115 -3q-14 0 -14 12q0 13 6 16t21 3q50 0 63 7.5t19 35.5l135 539q4 20 4 22q0 6 -2 9t-15 5.5t-40 2.5 q-12 0 -16.5 0.5t-8 3t-3.5 8.5q0 19 19 19l117 -3l114 3q15 0 15 -12q0 -13 -6.5 -16t-26.5 -3q-39 0 -52 -5t-18 -17q-6 -17 -20 -77h117q48 0 82 -15t50 -39t22.5 -46t6.5 -44zM556 417q0 46 -22 76q-23 29 -72 29h-101l-78 -313h96q74 0 125.5 66.5t51.5 141.5z" />
<glyph unicode="&#xdf;" horiz-adv-x="537" d="M523 165q0 -60 -54.5 -118t-123.5 -58q-38 0 -68 19t-30 55q4 42 37 47q12 0 19.5 -7.5t7.5 -18.5q-2 -29 -31 -35q14 -38 64 -38q33 0 58 35.5t34 68t9 47.5q0 30 -26 62q-25 33 -25 80q0 40 13.5 63.5t46.5 56.5q27 28 44 89t17 87q0 38 -19 60.5t-55 22.5 q-38 0 -63.5 -10.5t-40 -34t-21 -44.5t-13.5 -60l-97 -497q-7 -38 -18.5 -74.5t-30.5 -77t-48 -65.5t-64 -25q-26 0 -45.5 16.5t-19.5 47.5q0 30 16 43.5t34 13.5q13 0 23.5 -8.5t10.5 -23.5q0 -7 -2.5 -15.5t-14.5 -20t-32 -13.5q9 -18 30 -18q33 0 53.5 50t41.5 158 l73 375h-62q-25 0 -25 11q0 14 6 17t21 3h66l23 117q8 33 19 56.5t32 48.5t58.5 38.5t89.5 13.5q61 0 99 -31.5t38 -82.5q0 -68 -88 -178q-47 -56 -47 -78q0 -26 35 -66q45 -58 45 -104z" />
<glyph unicode="&#xe0;" d="M525 143q-12 -60 -30 -98q-27 -56 -73 -56q-29 0 -52 17.5t-31 52.5q-57 -70 -120 -70q-55 0 -88 44.5t-33 110.5q0 109 73 203.5t156 94.5q57 0 83 -59q8 39 40 39q27 0 27 -26q0 -7 -4 -21l-68 -272q-7 -28 -7 -51q0 -41 26 -41q37 0 67 119q4 16 7 19.5t12 3.5 q15 0 15 -10zM346 124l47 189l3 13q0 35 -19 64.5t-50 29.5q-30 0 -61.5 -32t-50.5 -79q-15 -35 -32 -104.5t-17 -104.5q0 -33 12 -61t43 -28q37 0 77.5 41.5t47.5 71.5zM444 522q-3 -6 -11 -11.5t-13 -5.5t-10 8l-100 123q-8 8 -8 17q0 7 4 15q6 13 19 20.5t23 7.5 q14 0 23 -17l71 -142q3 -6 3 -11q0 -2 -1 -4z" />
<glyph unicode="&#xe1;" d="M525 143q-12 -60 -30 -98q-27 -56 -73 -56q-29 0 -52 17.5t-31 52.5q-57 -70 -120 -70q-55 0 -88 44.5t-33 110.5q0 109 73 203.5t156 94.5q57 0 83 -59q8 39 40 39q27 0 27 -26q0 -7 -4 -21l-68 -272q-7 -28 -7 -51q0 -41 26 -41q37 0 67 119q4 16 7 19.5t12 3.5 q15 0 15 -10zM346 124l47 189l3 13q0 35 -19 64.5t-50 29.5q-30 0 -61.5 -32t-50.5 -79q-15 -35 -32 -104.5t-17 -104.5q0 -33 12 -61t43 -28q37 0 77.5 41.5t47.5 71.5zM539 668q0 -19 -20 -32l-161 -123q-9 -8 -14 -8t-10.5 5.5t-5.5 11.5q0 5 10 15l142 142q17 17 31 17 q10 0 19 -7.5t9 -20.5z" />
<glyph unicode="&#xe2;" d="M525 143q-12 -60 -30 -98q-27 -56 -73 -56q-29 0 -52 17.5t-31 52.5q-57 -70 -120 -70q-55 0 -88 44.5t-33 110.5q0 109 73 203.5t156 94.5q57 0 83 -59q8 39 40 39q27 0 27 -26q0 -7 -4 -21l-68 -272q-7 -28 -7 -51q0 -41 26 -41q37 0 67 119q4 16 7 19.5t12 3.5 q15 0 15 -10zM346 124l47 189l3 13q0 35 -19 64.5t-50 29.5q-30 0 -61.5 -32t-50.5 -79q-15 -35 -32 -104.5t-17 -104.5q0 -33 12 -61t43 -28q37 0 77.5 41.5t47.5 71.5zM527 536q2 -3 2 -5q0 -5 -5 -9q-5 -5 -9 -5q-3 0 -6 3l-98 99l-148 -99q-4 -3 -7 -3q-4 0 -7 5 q-2 2 -2 5q0 5 5 9l166 144q4 4 8 4t7 -4z" />
<glyph unicode="&#xe3;" d="M525 143q-12 -60 -30 -98q-27 -56 -73 -56q-29 0 -52 17.5t-31 52.5q-57 -70 -120 -70q-55 0 -88 44.5t-33 110.5q0 109 73 203.5t156 94.5q57 0 83 -59q8 39 40 39q27 0 27 -26q0 -7 -4 -21l-68 -272q-7 -28 -7 -51q0 -41 26 -41q37 0 67 119q4 16 7 19.5t12 3.5 q15 0 15 -10zM346 124l47 189l3 13q0 35 -19 64.5t-50 29.5q-30 0 -61.5 -32t-50.5 -79q-15 -35 -32 -104.5t-17 -104.5q0 -33 12 -61t43 -28q37 0 77.5 41.5t47.5 71.5zM568 640q0 -10 -49 -50t-79 -40q-27 0 -51 39q-16 27 -32 27q-30 0 -89 -58q-9 -7 -13 -7 q-11 0 -11 10q0 5 13 18.5t27 24.5l13 11q47 36 74 36q18 0 29 -10t25 -33t29 -23q19 0 51 24.5t39 33.5q7 7 13 7q11 0 11 -10z" />
<glyph unicode="&#xe4;" d="M525 143q-12 -60 -30 -98q-27 -56 -73 -56q-29 0 -52 17.5t-31 52.5q-57 -70 -120 -70q-55 0 -88 44.5t-33 110.5q0 109 73 203.5t156 94.5q57 0 83 -59q8 39 40 39q27 0 27 -26q0 -7 -4 -21l-68 -272q-7 -28 -7 -51q0 -41 26 -41q37 0 67 119q4 16 7 19.5t12 3.5 q15 0 15 -10zM346 124l47 189l3 13q0 35 -19 64.5t-50 29.5q-30 0 -61.5 -32t-50.5 -79q-15 -35 -32 -104.5t-17 -104.5q0 -33 12 -61t43 -28q37 0 77.5 41.5t47.5 71.5zM366 610q0 -22 -18 -39.5t-39 -17.5q-19 0 -30 11.5t-11 27.5q0 22 18 39.5t40 17.5q19 0 29.5 -11.5 t10.5 -27.5zM543 610q0 -22 -18 -39.5t-39 -17.5q-19 0 -30 11.5t-11 27.5q0 22 18 39.5t40 17.5q19 0 29.5 -11.5t10.5 -27.5z" />
<glyph unicode="&#xe5;" d="M525 143q-12 -60 -30 -98q-27 -56 -73 -56q-29 0 -52 17.5t-31 52.5q-57 -70 -120 -70q-55 0 -88 44.5t-33 110.5q0 109 73 203.5t156 94.5q57 0 83 -59q8 39 40 39q27 0 27 -26q0 -7 -4 -21l-68 -272q-7 -28 -7 -51q0 -41 26 -41q37 0 67 119q4 16 7 19.5t12 3.5 q15 0 15 -10zM346 124l47 189l3 13q0 35 -19 64.5t-50 29.5q-30 0 -61.5 -32t-50.5 -79q-15 -35 -32 -104.5t-17 -104.5q0 -33 12 -61t43 -28q37 0 77.5 41.5t47.5 71.5zM468 639q0 36 -44 36q-32 0 -50 -20.5t-20 -40.5l-2 -20q0 -35 44 -35q57 0 70 63zM506 638 q0 -42 -36.5 -75.5t-81.5 -33.5q-30 0 -52 17.5t-22 50.5q1 43 37 75.5t80 32.5q36 0 55.5 -20.5t19.5 -46.5z" />
<glyph unicode="&#xe6;" horiz-adv-x="716" d="M699 104q0 -6 -14.5 -24t-37.5 -38.5t-60 -36.5t-75 -16q-42 0 -70 22t-41 49q-11 -47 -18 -59t-25 -12q-24 0 -24 23q0 6 9 41l-1 1q-59 -65 -115 -65t-95.5 30.5t-39.5 80.5q0 20 8 46t31.5 62t59.5 70.5t99 71.5t144 65q6 27 32 27q24 0 24 -23q0 -5 -6 -29 q66 52 135 52q44 0 72 -24t28 -61q0 -8 -2 -18t-8.5 -26.5t-23.5 -32.5t-43 -27q-54 -22 -146 -22h-52q-14 -61 -14 -98q0 -47 20 -84.5t63 -37.5q34 0 76.5 22.5t80.5 76.5q9 10 13 10q6 0 11 -6t5 -10zM681 359q0 26 -16.5 43.5t-46.5 17.5q-9 0 -20 -2t-32.5 -11.5 t-41 -26t-40 -49.5t-34.5 -78h30q201 0 201 106zM366 145l61 244q-125 -54 -193.5 -146.5t-68.5 -169.5q0 -33 20.5 -47.5t44.5 -14.5q43 0 85 50t51 84z" />
<glyph unicode="&#xe7;" horiz-adv-x="460" d="M468 104q0 -5 -9 -17.5t-28 -29t-43 -32t-58 -26t-70 -10.5l-10 -43q61 -12 61 -55q0 -83 -196 -83h-25q-13 0 -13 11t25 11h10q135 0 135 62q0 33 -48 37q-15 2 -15 13q0 6 14 59q-41 17 -64.5 57t-23.5 96q0 109 79.5 198.5t173.5 89.5q47 0 77 -24.5t30 -61.5 q0 -27 -15 -43.5t-36 -16.5q-16 0 -25 9.5t-9 22.5q0 2 0.5 5t3 10.5t7 14t15 12t24.5 7.5q-16 43 -71 43q-35 0 -70 -26t-61 -74q-19 -36 -36 -101t-17 -105q0 -46 20 -74.5t59 -28.5q17 0 38.5 3.5t65 28t76.5 66.5q9 11 13 11q6 0 11 -6t5 -10z" />
<glyph unicode="&#xe8;" horiz-adv-x="460" d="M468 104q0 -10 -24.5 -36t-76.5 -52.5t-110 -26.5q-68 0 -105.5 51.5t-37.5 123.5q0 123 80 200.5t168 77.5q46 0 73.5 -24.5t27.5 -60.5q0 -5 -0.5 -10.5t-4.5 -19.5t-11.5 -26t-24 -25.5t-38.5 -22.5q-56 -22 -145 -22h-39q-17 -66 -17 -110q0 -25 5 -47t23 -42.5 t48 -20.5q17 0 38.5 3.5t65 28t76.5 66.5q9 11 13 11q6 0 11 -6t5 -10zM425 359q0 26 -17 43.5t-46 17.5q-7 0 -16 -1.5t-30.5 -10.5t-39.5 -25t-38 -50t-32 -80h21q15 0 27 0.5t38.5 3t46.5 9.5t41.5 18t33 30.5t11.5 44.5zM418 522q-3 -6 -11 -11.5t-13 -5.5t-10 8 l-100 123q-8 8 -8 17q0 7 4 15q6 13 19 20.5t23 7.5q14 0 23 -17l71 -142q3 -6 3 -11q0 -2 -1 -4z" />
<glyph unicode="&#xe9;" horiz-adv-x="460" d="M468 104q0 -10 -24.5 -36t-76.5 -52.5t-110 -26.5q-68 0 -105.5 51.5t-37.5 123.5q0 123 80 200.5t168 77.5q46 0 73.5 -24.5t27.5 -60.5q0 -5 -0.5 -10.5t-4.5 -19.5t-11.5 -26t-24 -25.5t-38.5 -22.5q-56 -22 -145 -22h-39q-17 -66 -17 -110q0 -25 5 -47t23 -42.5 t48 -20.5q17 0 38.5 3.5t65 28t76.5 66.5q9 11 13 11q6 0 11 -6t5 -10zM425 359q0 26 -17 43.5t-46 17.5q-7 0 -16 -1.5t-30.5 -10.5t-39.5 -25t-38 -50t-32 -80h21q15 0 27 0.5t38.5 3t46.5 9.5t41.5 18t33 30.5t11.5 44.5zM513 668q0 -19 -20 -32l-161 -123q-9 -8 -14 -8 t-10.5 5.5t-5.5 11.5q0 5 10 15l142 142q17 17 31 17q10 0 19 -7.5t9 -20.5z" />
<glyph unicode="&#xea;" horiz-adv-x="460" d="M468 104q0 -10 -24.5 -36t-76.5 -52.5t-110 -26.5q-68 0 -105.5 51.5t-37.5 123.5q0 123 80 200.5t168 77.5q46 0 73.5 -24.5t27.5 -60.5q0 -5 -0.5 -10.5t-4.5 -19.5t-11.5 -26t-24 -25.5t-38.5 -22.5q-56 -22 -145 -22h-39q-17 -66 -17 -110q0 -25 5 -47t23 -42.5 t48 -20.5q17 0 38.5 3.5t65 28t76.5 66.5q9 11 13 11q6 0 11 -6t5 -10zM425 359q0 26 -17 43.5t-46 17.5q-7 0 -16 -1.5t-30.5 -10.5t-39.5 -25t-38 -50t-32 -80h21q15 0 27 0.5t38.5 3t46.5 9.5t41.5 18t33 30.5t11.5 44.5zM501 536q2 -3 2 -5q0 -5 -5 -9q-5 -5 -9 -5 q-3 0 -6 3l-98 99l-148 -99q-4 -3 -7 -3q-4 0 -7 5q-2 2 -2 5q0 5 5 9l166 144q4 4 8 4t7 -4z" />
<glyph unicode="&#xeb;" horiz-adv-x="460" d="M468 104q0 -10 -24.5 -36t-76.5 -52.5t-110 -26.5q-68 0 -105.5 51.5t-37.5 123.5q0 123 80 200.5t168 77.5q46 0 73.5 -24.5t27.5 -60.5q0 -5 -0.5 -10.5t-4.5 -19.5t-11.5 -26t-24 -25.5t-38.5 -22.5q-56 -22 -145 -22h-39q-17 -66 -17 -110q0 -25 5 -47t23 -42.5 t48 -20.5q17 0 38.5 3.5t65 28t76.5 66.5q9 11 13 11q6 0 11 -6t5 -10zM425 359q0 26 -17 43.5t-46 17.5q-7 0 -16 -1.5t-30.5 -10.5t-39.5 -25t-38 -50t-32 -80h21q15 0 27 0.5t38.5 3t46.5 9.5t41.5 18t33 30.5t11.5 44.5zM340 610q0 -22 -18 -39.5t-39 -17.5 q-19 0 -30 11.5t-11 27.5q0 22 18 39.5t40 17.5q19 0 29.5 -11.5t10.5 -27.5zM517 610q0 -22 -18 -39.5t-39 -17.5q-19 0 -30 11.5t-11 27.5q0 22 18 39.5t40 17.5q19 0 29.5 -11.5t10.5 -27.5z" />
<glyph unicode="&#xec;" horiz-adv-x="307" d="M331 143q0 -3 -4 -17.5t-14 -38t-23.5 -45.5t-36.5 -37.5t-49 -15.5q-37 0 -56.5 24t-19.5 56q0 20 18 69l37 99l30 83q18 49 18 72q0 28 -22 28q-59 0 -93 -126q-3 -11 -6 -13.5t-12 -2.5q-15 0 -15 10q0 3 4 18t14 38.5t24 45t37 37t49 15.5q31 0 53 -20.5t22 -59.5 q0 -21 -12 -56l-64 -171q-26 -74 -26 -96q0 -28 22 -28q59 0 93 125q3 12 5.5 14.5t11.5 2.5q15 0 15 -10zM342 522q-3 -6 -11 -11.5t-13 -5.5t-10 8l-100 123q-8 8 -8 17q0 7 4 15q6 13 19 20.5t23 7.5q14 0 23 -17l71 -142q3 -6 3 -11q0 -2 -1 -4z" />
<glyph unicode="&#xed;" horiz-adv-x="307" d="M331 143q0 -3 -4 -17.5t-14 -38t-23.5 -45.5t-36.5 -37.5t-49 -15.5q-37 0 -56.5 24t-19.5 56q0 20 18 69l37 99l30 83q18 49 18 72q0 28 -22 28q-59 0 -93 -126q-3 -11 -6 -13.5t-12 -2.5q-15 0 -15 10q0 3 4 18t14 38.5t24 45t37 37t49 15.5q31 0 53 -20.5t22 -59.5 q0 -21 -12 -56l-64 -171q-26 -74 -26 -96q0 -28 22 -28q59 0 93 125q3 12 5.5 14.5t11.5 2.5q15 0 15 -10zM437 668q0 -19 -20 -32l-161 -123q-9 -8 -14 -8t-10.5 5.5t-5.5 11.5q0 5 10 15l142 142q17 17 31 17q10 0 19 -7.5t9 -20.5z" />
<glyph unicode="&#xee;" horiz-adv-x="307" d="M331 143q0 -3 -4 -17.5t-14 -38t-23.5 -45.5t-36.5 -37.5t-49 -15.5q-37 0 -56.5 24t-19.5 56q0 20 18 69l37 99l30 83q18 49 18 72q0 28 -22 28q-59 0 -93 -126q-3 -11 -6 -13.5t-12 -2.5q-15 0 -15 10q0 3 4 18t14 38.5t24 45t37 37t49 15.5q31 0 53 -20.5t22 -59.5 q0 -21 -12 -56l-64 -171q-26 -74 -26 -96q0 -28 22 -28q59 0 93 125q3 12 5.5 14.5t11.5 2.5q15 0 15 -10zM425 536q2 -3 2 -5q0 -5 -5 -9q-5 -5 -9 -5q-3 0 -6 3l-98 99l-148 -99q-4 -3 -7 -3q-4 0 -7 5q-2 2 -2 5q0 5 5 9l166 144q4 4 8 4t7 -4z" />
<glyph unicode="&#xef;" horiz-adv-x="307" d="M331 143q0 -3 -4 -17.5t-14 -38t-23.5 -45.5t-36.5 -37.5t-49 -15.5q-37 0 -56.5 24t-19.5 56q0 20 18 69l37 99l30 83q18 49 18 72q0 28 -22 28q-59 0 -93 -126q-3 -11 -6 -13.5t-12 -2.5q-15 0 -15 10q0 3 4 18t14 38.5t24 45t37 37t49 15.5q31 0 53 -20.5t22 -59.5 q0 -21 -12 -56l-64 -171q-26 -74 -26 -96q0 -28 22 -28q59 0 93 125q3 12 5.5 14.5t11.5 2.5q15 0 15 -10zM264 610q0 -22 -18 -39.5t-39 -17.5q-19 0 -30 11.5t-11 27.5q0 22 18 39.5t40 17.5q19 0 29.5 -11.5t10.5 -27.5zM441 610q0 -22 -18 -39.5t-39 -17.5 q-19 0 -30 11.5t-11 27.5q0 22 18 39.5t40 17.5q19 0 29.5 -11.5t10.5 -27.5z" />
<glyph unicode="&#xf0;" d="M535 357q0 -26 -3 -57.5t-20 -88.5t-45 -99q-35 -50 -93 -86.5t-121 -36.5q-65 0 -110.5 43.5t-45.5 121.5q0 109 85 201t183 92q60 0 89 -53q-9 122 -83 202l-95 -48q-6 -2 -9 -2q-13 0 -13 13q0 12 13 18l82 42q-29 27 -70 48q-8 5 -8 12q0 6 5 11q4 4 8 4h2 q64 -19 110 -52l94 48q6 2 9 2q13 0 13 -13q0 -12 -13 -18l-77 -39q113 -99 113 -265zM449 306q0 56 -24 87.5t-64 31.5q-35 0 -74 -24t-66 -72q-19 -36 -36.5 -105.5t-17.5 -104.5q0 -51 26.5 -78t65.5 -27q36 0 74.5 24t65.5 72q20 37 35 97t15 99z" />
<glyph unicode="&#xf1;" horiz-adv-x="562" d="M586 143q0 -3 -4 -18t-14 -38.5t-24 -45t-36.5 -37t-48.5 -15.5q-35 0 -55.5 23t-20.5 57q0 22 16 64q58 166 58 221q0 66 -46 66q-77 0 -135 -99q-17 -28 -30 -81q-2 -11 -8 -32.5t-8 -32.5l-40 -160q-10 -26 -36 -26q-14 0 -21 8t-7 18q0 5 3 14l75 300q7 28 7 51 q0 40 -26 40q-22 0 -37.5 -30t-30.5 -89q-4 -16 -6.5 -19.5t-12.5 -3.5q-15 0 -15 10q13 61 32 101q28 53 72 53q33 0 56 -21.5t28 -57.5q10 15 24.5 30t48 32t70.5 17q44 0 74 -24t30 -80q0 -61 -61 -223q-18 -54 -18 -75q0 -29 22 -29q56 0 93 125q3 12 5.5 14.5t11.5 2.5 q15 0 15 -10zM594 640q0 -10 -49 -50t-79 -40q-27 0 -51 39q-16 27 -32 27q-30 0 -89 -58q-9 -7 -13 -7q-11 0 -11 10q0 5 13 18.5t27 24.5l13 11q47 36 74 36q18 0 29 -10t25 -33t29 -23q19 0 51 24.5t39 33.5q7 7 13 7q11 0 11 -10z" />
<glyph unicode="&#xf2;" d="M509 278q0 -109 -79.5 -199t-173.5 -90q-64 0 -105 44.5t-41 120.5q0 109 79.5 198.5t173.5 89.5q65 0 105.5 -46t40.5 -118zM439 317q0 45 -20.5 74t-56.5 29q-31 0 -64 -23.5t-60 -67.5q-23 -39 -40.5 -107t-17.5 -108q0 -51 22 -77t54 -26q36 0 71 28.5t58 71.5 q22 42 38 106t16 100zM444 522q-3 -6 -11 -11.5t-13 -5.5t-10 8l-100 123q-8 8 -8 17q0 7 4 15q6 13 19 20.5t23 7.5q14 0 23 -17l71 -142q3 -6 3 -11q0 -2 -1 -4z" />
<glyph unicode="&#xf3;" d="M509 278q0 -109 -79.5 -199t-173.5 -90q-64 0 -105 44.5t-41 120.5q0 109 79.5 198.5t173.5 89.5q65 0 105.5 -46t40.5 -118zM439 317q0 45 -20.5 74t-56.5 29q-31 0 -64 -23.5t-60 -67.5q-23 -39 -40.5 -107t-17.5 -108q0 -51 22 -77t54 -26q36 0 71 28.5t58 71.5 q22 42 38 106t16 100zM539 668q0 -19 -20 -32l-161 -123q-9 -8 -14 -8t-10.5 5.5t-5.5 11.5q0 5 10 15l142 142q17 17 31 17q10 0 19 -7.5t9 -20.5z" />
<glyph unicode="&#xf4;" d="M509 278q0 -109 -79.5 -199t-173.5 -90q-64 0 -105 44.5t-41 120.5q0 109 79.5 198.5t173.5 89.5q65 0 105.5 -46t40.5 -118zM439 317q0 45 -20.5 74t-56.5 29q-31 0 -64 -23.5t-60 -67.5q-23 -39 -40.5 -107t-17.5 -108q0 -51 22 -77t54 -26q36 0 71 28.5t58 71.5 q22 42 38 106t16 100zM527 536q2 -3 2 -5q0 -5 -5 -9q-5 -5 -9 -5q-3 0 -6 3l-98 99l-148 -99q-4 -3 -7 -3q-4 0 -7 5q-2 2 -2 5q0 5 5 9l166 144q4 4 8 4t7 -4z" />
<glyph unicode="&#xf5;" d="M509 278q0 -109 -79.5 -199t-173.5 -90q-64 0 -105 44.5t-41 120.5q0 109 79.5 198.5t173.5 89.5q65 0 105.5 -46t40.5 -118zM439 317q0 45 -20.5 74t-56.5 29q-31 0 -64 -23.5t-60 -67.5q-23 -39 -40.5 -107t-17.5 -108q0 -51 22 -77t54 -26q36 0 71 28.5t58 71.5 q22 42 38 106t16 100zM568 640q0 -10 -49 -50t-79 -40q-27 0 -51 39q-16 27 -32 27q-30 0 -89 -58q-9 -7 -13 -7q-11 0 -11 10q0 5 13 18.5t27 24.5l13 11q47 36 74 36q18 0 29 -10t25 -33t29 -23q19 0 51 24.5t39 33.5q7 7 13 7q11 0 11 -10z" />
<glyph unicode="&#xf6;" d="M509 278q0 -109 -79.5 -199t-173.5 -90q-64 0 -105 44.5t-41 120.5q0 109 79.5 198.5t173.5 89.5q65 0 105.5 -46t40.5 -118zM439 317q0 45 -20.5 74t-56.5 29q-31 0 -64 -23.5t-60 -67.5q-23 -39 -40.5 -107t-17.5 -108q0 -51 22 -77t54 -26q36 0 71 28.5t58 71.5 q22 42 38 106t16 100zM366 610q0 -22 -18 -39.5t-39 -17.5q-19 0 -30 11.5t-11 27.5q0 22 18 39.5t40 17.5q19 0 29.5 -11.5t10.5 -27.5zM543 610q0 -22 -18 -39.5t-39 -17.5q-19 0 -30 11.5t-11 27.5q0 22 18 39.5t40 17.5q19 0 29.5 -11.5t10.5 -27.5z" />
<glyph unicode="&#xf7;" horiz-adv-x="767" d="M752 250q0 -20 -33 -20h-546q-34 0 -34 20t34 20h546q33 0 33 -20zM540 417q0 -23 -20 -43t-45 -20q-20 0 -32 12t-12 31q0 24 20.5 43.5t44.5 19.5q20 0 32 -13t12 -30zM461 103q0 -23 -20 -43t-45 -20q-20 0 -32 12t-12 31q0 24 20.5 43.5t44.5 19.5q20 0 32 -13 t12 -30z" />
<glyph unicode="&#xf8;" d="M502 281q0 -111 -77.5 -202t-169.5 -91q-46 0 -81 26l-72 -99q-19 -22 -23 -22q-11 0 -11 10q0 5 8 14l82 112q-42 47 -42 121q0 108 77 200.5t171 92.5q45 0 81 -26l81 111q8 10 14 10q10 0 10 -10q0 -4 -8 -15l-81 -111q41 -47 41 -121zM423 389q-21 32 -60 32 q-54 0 -99 -52.5t-67 -120.5t-22 -127q0 -35 8 -57zM444 311q0 32 -9 56l-240 -325q23 -32 61 -32q55 0 100 53t66.5 121t21.5 127z" />
<glyph unicode="&#xf9;" horiz-adv-x="537" d="M561 143q-12 -60 -30 -98q-27 -56 -73 -56q-60 0 -80 60q-48 -60 -111 -60q-47 0 -79.5 28t-32.5 88q0 56 52 196q24 67 24 90q0 29 -22 29q-60 0 -93 -126q-3 -11 -6 -13.5t-12 -2.5q-15 0 -15 10q0 3 4 18t14.5 38.5t24 45t36.5 37t49 15.5q33 0 54.5 -22t21.5 -59 q0 -20 -13 -54q-58 -158 -58 -219q0 -77 54 -77q53 0 92 58q8 12 14 33l73 292q9 37 39 37q14 0 21 -8t7 -18q0 -5 -3 -14l-72 -288q-7 -28 -7 -51q0 -41 26 -41q37 0 67 119q4 16 7 19.5t12 3.5q15 0 15 -10zM457 522q-3 -6 -11 -11.5t-13 -5.5t-10 8l-100 123q-8 8 -8 17 q0 7 4 15q6 13 19 20.5t23 7.5q14 0 23 -17l71 -142q3 -6 3 -11q0 -2 -1 -4z" />
<glyph unicode="&#xfa;" horiz-adv-x="537" d="M561 143q-12 -60 -30 -98q-27 -56 -73 -56q-60 0 -80 60q-48 -60 -111 -60q-47 0 -79.5 28t-32.5 88q0 56 52 196q24 67 24 90q0 29 -22 29q-60 0 -93 -126q-3 -11 -6 -13.5t-12 -2.5q-15 0 -15 10q0 3 4 18t14.5 38.5t24 45t36.5 37t49 15.5q33 0 54.5 -22t21.5 -59 q0 -20 -13 -54q-58 -158 -58 -219q0 -77 54 -77q53 0 92 58q8 12 14 33l73 292q9 37 39 37q14 0 21 -8t7 -18q0 -5 -3 -14l-72 -288q-7 -28 -7 -51q0 -41 26 -41q37 0 67 119q4 16 7 19.5t12 3.5q15 0 15 -10zM552 668q0 -19 -20 -32l-161 -123q-9 -8 -14 -8t-10.5 5.5 t-5.5 11.5q0 5 10 15l142 142q17 17 31 17q10 0 19 -7.5t9 -20.5z" />
<glyph unicode="&#xfb;" horiz-adv-x="537" d="M561 143q-12 -60 -30 -98q-27 -56 -73 -56q-60 0 -80 60q-48 -60 -111 -60q-47 0 -79.5 28t-32.5 88q0 56 52 196q24 67 24 90q0 29 -22 29q-60 0 -93 -126q-3 -11 -6 -13.5t-12 -2.5q-15 0 -15 10q0 3 4 18t14.5 38.5t24 45t36.5 37t49 15.5q33 0 54.5 -22t21.5 -59 q0 -20 -13 -54q-58 -158 -58 -219q0 -77 54 -77q53 0 92 58q8 12 14 33l73 292q9 37 39 37q14 0 21 -8t7 -18q0 -5 -3 -14l-72 -288q-7 -28 -7 -51q0 -41 26 -41q37 0 67 119q4 16 7 19.5t12 3.5q15 0 15 -10zM540 536q2 -3 2 -5q0 -5 -6 -9q-4 -5 -8 -5q-3 0 -6 3l-98 99 l-148 -99q-4 -3 -7 -3q-4 0 -7 5q-2 2 -2 5q0 5 5 9l166 144q5 4 8.5 4t6.5 -4z" />
<glyph unicode="&#xfc;" horiz-adv-x="537" d="M561 143q-12 -60 -30 -98q-27 -56 -73 -56q-60 0 -80 60q-48 -60 -111 -60q-47 0 -79.5 28t-32.5 88q0 56 52 196q24 67 24 90q0 29 -22 29q-60 0 -93 -126q-3 -11 -6 -13.5t-12 -2.5q-15 0 -15 10q0 3 4 18t14.5 38.5t24 45t36.5 37t49 15.5q33 0 54.5 -22t21.5 -59 q0 -20 -13 -54q-58 -158 -58 -219q0 -77 54 -77q53 0 92 58q8 12 14 33l73 292q9 37 39 37q14 0 21 -8t7 -18q0 -5 -3 -14l-72 -288q-7 -28 -7 -51q0 -41 26 -41q37 0 67 119q4 16 7 19.5t12 3.5q15 0 15 -10zM379 610q0 -22 -18 -39.5t-39 -17.5q-19 0 -30 11.5t-11 27.5 q0 22 18 39.5t40 17.5q19 0 29.5 -11.5t10.5 -27.5zM556 610q0 -22 -18 -39.5t-39 -17.5q-19 0 -30 11.5t-11 27.5q0 22 18 39.5t40 17.5q19 0 29.5 -11.5t10.5 -27.5z" />
<glyph unicode="&#xfd;" horiz-adv-x="486" d="M415 -3q-20 -79 -83 -140.5t-137 -61.5q-42 0 -69 23.5t-27 62.5q0 25 11 40.5t21 18.5t19 3q14 0 24 -8.5t10 -23.5t-11 -30t-32 -18l-8 -3q0 -4 5 -13.5t20 -19.5t37 -10q46 0 91 48.5t71 160.5q-37 -37 -90 -37q-47 0 -79.5 28t-32.5 88q0 56 52 196q24 67 24 90 q0 29 -22 29q-60 0 -93 -126q-3 -11 -6 -13.5t-12 -2.5q-15 0 -15 10q0 3 4 18t14.5 38.5t24 45t36.5 37t49 15.5q33 0 54.5 -22t21.5 -59q0 -20 -13 -54q-58 -158 -58 -219q0 -77 54 -77q40 0 69.5 30.5t36.5 58.5l73 294q9 37 39 37q14 0 21 -8t7 -18q0 -2 -1.5 -6.5 t-1.5 -7.5zM526 668q0 -19 -20 -32l-161 -123q-9 -8 -14 -8t-10.5 5.5t-5.5 11.5q0 5 10 15l142 142q17 17 31 17q10 0 19 -7.5t9 -20.5z" />
<glyph unicode="&#xfe;" d="M510 286q0 -111 -72.5 -204t-155.5 -93q-34 0 -55 19t-29 39l-36 -146q-11 -44 -11 -48q0 -6 2 -9t13.5 -5t35.5 -2t24 -12q0 -19 -19 -19q-15 0 -48 1.5t-49 1.5q-14 0 -42.5 -1.5t-41.5 -1.5q-12 0 -12 12q0 19 21 19q30 1 39.5 6.5t15.5 28.5l186 746q3 14 3 17 q0 6 -2 9t-13.5 5.5t-34.5 2.5q-24 0 -24 11q0 9 3.5 13.5t7.5 5.5t12 2l99 8q6 2 16 2q14 0 14 -12q-2 -10 -3 -13l-70 -280q56 53 106 53q49 0 84.5 -40.5t35.5 -115.5zM387 106q21 46 38.5 119t17.5 106t-12.5 61t-42.5 28q-38 0 -78 -41t-47 -72l-47 -189q-3 -12 -3 -14 q0 -10 4 -28.5t21 -41.5t43 -23q33 0 62 32t44 63z" />
<glyph unicode="&#xff;" horiz-adv-x="486" d="M415 -3q-20 -79 -83 -140.5t-137 -61.5q-42 0 -69 23.5t-27 62.5q0 25 11 40.5t21 18.5t19 3q14 0 24 -8.5t10 -23.5t-11 -30t-32 -18l-8 -3q0 -4 5 -13.5t20 -19.5t37 -10q46 0 91 48.5t71 160.5q-37 -37 -90 -37q-47 0 -79.5 28t-32.5 88q0 56 52 196q24 67 24 90 q0 29 -22 29q-60 0 -93 -126q-3 -11 -6 -13.5t-12 -2.5q-15 0 -15 10q0 3 4 18t14.5 38.5t24 45t36.5 37t49 15.5q33 0 54.5 -22t21.5 -59q0 -20 -13 -54q-58 -158 -58 -219q0 -77 54 -77q40 0 69.5 30.5t36.5 58.5l73 294q9 37 39 37q14 0 21 -8t7 -18q0 -2 -1.5 -6.5 t-1.5 -7.5zM353 610q0 -22 -18 -39.5t-39 -17.5q-19 0 -30 11.5t-11 27.5q0 22 18 39.5t40 17.5q19 0 29.5 -11.5t10.5 -27.5zM530 610q0 -22 -18 -39.5t-39 -17.5q-19 0 -30 11.5t-11 27.5q0 22 18 39.5t40 17.5q19 0 29.5 -11.5t10.5 -27.5z" />
<glyph unicode="&#x100;" horiz-adv-x="743" d="M692 18q0 -18 -18 -18q-17 0 -52 1.5t-53 1.5q-19 0 -58 -1.5t-57 -1.5q-15 0 -15 12q0 19 23 19q67 0 67 32l-11 166h-228l-72 -126q-14 -26 -14 -38q0 -27 42 -34q16 -2 16 -12q0 -19 -18 -19q-15 0 -46 1.5t-47 1.5q-13 0 -40.5 -1.5t-39.5 -1.5t-12 12q1 18 12 19 q17 1 28.5 3.5t28.5 9.5t33 24.5t31 44.5l332 585q10 18 26 18q12 0 14.5 -4t3.5 -21l43 -626q2 -21 11 -27.5t46 -6.5q10 0 14 -0.5t7 -3.5t3 -9zM516 260l-23 327l-186 -327h209zM730 775q0 -13 -6 -16t-21 -3h-280q-10 0 -14.5 0.5t-7.5 3.5t-3 9q0 12 6 14.5t21 2.5h280 q25 0 25 -11z" />
<glyph unicode="&#x101;" d="M525 143q-12 -60 -30 -98q-27 -56 -73 -56q-29 0 -52 17.5t-31 52.5q-57 -70 -120 -70q-55 0 -88 44.5t-33 110.5q0 109 73 203.5t156 94.5q57 0 83 -59q8 39 40 39q27 0 27 -26q0 -7 -4 -21l-68 -272q-7 -28 -7 -51q0 -41 26 -41q37 0 67 119q4 16 7 19.5t12 3.5 q15 0 15 -10zM346 124l47 189l3 13q0 35 -19 64.5t-50 29.5q-30 0 -61.5 -32t-50.5 -79q-15 -35 -32 -104.5t-17 -104.5q0 -33 12 -61t43 -28q37 0 77.5 41.5t47.5 71.5zM572 605q0 -13 -6 -16t-21 -3h-280q-10 0 -14.5 0.5t-7.5 3.5t-3 9q0 12 6 14.5t21 2.5h280 q25 0 25 -11z" />
<glyph unicode="&#x102;" horiz-adv-x="743" d="M692 18q0 -18 -18 -18q-17 0 -52 1.5t-53 1.5q-19 0 -58 -1.5t-57 -1.5q-15 0 -15 12q0 19 23 19q67 0 67 32l-11 166h-228l-72 -126q-14 -26 -14 -38q0 -27 42 -34q16 -2 16 -12q0 -19 -18 -19q-15 0 -46 1.5t-47 1.5q-13 0 -40.5 -1.5t-39.5 -1.5t-12 12q1 18 12 19 q17 1 28.5 3.5t28.5 9.5t33 24.5t31 44.5l332 585q10 18 26 18q12 0 14.5 -4t3.5 -21l43 -626q2 -21 11 -27.5t46 -6.5q10 0 14 -0.5t7 -3.5t3 -9zM516 260l-23 327l-186 -327h209zM736 906q0 -18 -19.5 -54t-62.5 -71t-94 -35t-79 34.5t-28 83.5q0 52 17 52q11 0 11 -11 q-5 -23 -5 -33q0 -38 23 -64t65 -26q41 0 85 31t63 89q5 14 13 14q11 0 11 -10z" />
<glyph unicode="&#x103;" d="M525 143q-12 -60 -30 -98q-27 -56 -73 -56q-29 0 -52 17.5t-31 52.5q-57 -70 -120 -70q-55 0 -88 44.5t-33 110.5q0 109 73 203.5t156 94.5q57 0 83 -59q8 39 40 39q27 0 27 -26q0 -7 -4 -21l-68 -272q-7 -28 -7 -51q0 -41 26 -41q37 0 67 119q4 16 7 19.5t12 3.5 q15 0 15 -10zM346 124l47 189l3 13q0 35 -19 64.5t-50 29.5q-30 0 -61.5 -32t-50.5 -79q-15 -35 -32 -104.5t-17 -104.5q0 -33 12 -61t43 -28q37 0 77.5 41.5t47.5 71.5zM563 676q0 -18 -19.5 -54t-62.5 -71t-94 -35t-79 34.5t-28 83.5q0 52 17 52q11 0 11 -11 q-5 -23 -5 -33q0 -38 23 -64t65 -26q41 0 85 31t63 89q5 14 13 14q11 0 11 -10z" />
<glyph unicode="&#x104;" horiz-adv-x="743" d="M667 -115q-21 -42 -61 -69t-78 -27q-47 0 -73 27q-20 21 -20 47q0 8 2 16q14 65 110 124l-93 -3q-15 0 -15 12q0 19 23 19q67 0 67 32l-11 166h-228l-72 -126q-14 -26 -14 -38q0 -27 42 -34q16 -2 16 -12q0 -19 -18 -19q-15 0 -46 1.5t-47 1.5q-13 0 -40.5 -1.5 t-39.5 -1.5t-12 12q1 18 12 19q17 1 28.5 3.5t28.5 9.5t33 24.5t31 44.5l332 585q10 18 26 18q12 0 14.5 -4t3.5 -21l43 -626q2 -21 11 -27.5t46 -6.5q10 0 14 -0.5t7 -3.5t3 -9q0 -18 -18 -18q-13 0 -27.5 0.5t-33 1.5t-28.5 1q-84 -51 -95 -98q-2 -7 -2 -14q0 -22 19 -37 q24 -18 55 -18q52 0 89 56q5 8 12.5 5t3.5 -12zM516 260l-23 327l-186 -327h209z" />
<glyph unicode="&#x105;" d="M477 -115q-21 -42 -61 -69t-78 -27q-47 0 -73 27q-20 21 -20 47q0 8 2 16q14 68 119 132q-20 17 -27 48q-57 -70 -120 -70q-55 0 -88 44.5t-33 110.5q0 109 73 203.5t156 94.5q57 0 83 -59q8 39 40 39q27 0 27 -26q0 -7 -4 -21l-68 -272q-7 -28 -7 -51q0 -41 26 -41 q37 0 67 119q4 16 7 19.5t12 3.5q15 0 15 -10q-12 -60 -30 -98q-27 -56 -73 -56q-19 0 -34 7q-37 -22 -59.5 -43t-28.5 -48q-2 -7 -2 -14q0 -22 19 -37q24 -18 55 -18q52 0 89 56q5 8 12.5 5t3.5 -12zM346 124l47 189l3 13q0 35 -19 64.5t-50 29.5q-30 0 -61.5 -32 t-50.5 -79q-15 -35 -32 -104.5t-17 -104.5q0 -33 12 -61t43 -28q37 0 77.5 41.5t47.5 71.5z" />
<glyph unicode="&#x106;" horiz-adv-x="716" d="M810 681l-61 -243q-3 -12 -6 -15t-12 -3q-15 0 -15 10q0 1 1 11l3 25q1 14 1 25q0 75 -34.5 129t-107.5 54q-60 0 -124 -35.5t-113 -102.5q-53 -73 -79 -170t-26 -159q0 -99 50.5 -148.5t121.5 -49.5q73 0 148.5 58.5t110.5 174.5q3 8 16 8q15 0 15 -10q0 -21 -21 -62 t-57 -86.5t-97 -79.5t-129 -34q-106 0 -175.5 73t-69.5 194q0 114 62 222t160 173t199 65q98 0 151 -85l63 74q4 5 8 7.5t6 2.5l2 1q4 0 7 -2.5t4 -4.5v-3q0 -6 -2 -14zM750 873q-3 -17 -25 -28l-180 -93q-9 -5 -14 -5h-1q-5 1 -10 7q-3 5 -3 10q0 6 12 15l165 116 q16 11 28 11q14 0 22 -10q6 -7 6 -18v-5z" />
<glyph unicode="&#x107;" horiz-adv-x="460" d="M468 104q0 -10 -24.5 -36t-76.5 -52.5t-110 -26.5q-66 0 -106.5 45.5t-40.5 119.5q0 109 79.5 198.5t173.5 89.5q47 0 77 -24.5t30 -61.5q0 -27 -15 -43.5t-36 -16.5q-16 0 -25 9.5t-9 22.5q0 2 0.5 5t3 10.5t7 14t15 12t24.5 7.5q-16 43 -71 43q-35 0 -70 -26t-61 -74 q-19 -36 -36 -101t-17 -105q0 -46 20 -74.5t59 -28.5q17 0 38.5 3.5t65 28t76.5 66.5q9 11 13 11q6 0 11 -6t5 -10zM536 668q0 -19 -20 -32l-161 -123q-9 -8 -14 -8t-10.5 5.5t-5.5 11.5q0 5 10 15l142 142q17 17 31 17q10 0 19 -7.5t9 -20.5z" />
<glyph unicode="&#x108;" horiz-adv-x="716" d="M810 681l-61 -243q-3 -12 -6 -15t-12 -3q-15 0 -15 10q0 1 1 11l3 25q1 14 1 25q0 75 -34.5 129t-107.5 54q-60 0 -124 -35.5t-113 -102.5q-53 -73 -79 -170t-26 -159q0 -99 50.5 -148.5t121.5 -49.5q73 0 148.5 58.5t110.5 174.5q3 8 16 8q15 0 15 -10q0 -21 -21 -62 t-57 -86.5t-97 -79.5t-129 -34q-106 0 -175.5 73t-69.5 194q0 114 62 222t160 173t199 65q98 0 151 -85l63 74q4 5 8 7.5t6 2.5l2 1q4 0 7 -2.5t4 -4.5v-3q0 -6 -2 -14zM719 755q3 -2 3 -5q0 -4 -4 -8q-5 -6 -10 -6l-4 1l-112 55l-140 -55q-2 -1 -4 -1q-4 0 -6 2q-3 2 -3 6 q0 7 7 11l155 98q3 1 6 1t6 -1z" />
<glyph unicode="&#x109;" horiz-adv-x="460" d="M468 104q0 -10 -24.5 -36t-76.5 -52.5t-110 -26.5q-66 0 -106.5 45.5t-40.5 119.5q0 109 79.5 198.5t173.5 89.5q47 0 77 -24.5t30 -61.5q0 -27 -15 -43.5t-36 -16.5q-16 0 -25 9.5t-9 22.5q0 2 0.5 5t3 10.5t7 14t15 12t24.5 7.5q-16 43 -71 43q-35 0 -70 -26t-61 -74 q-19 -36 -36 -101t-17 -105q0 -46 20 -74.5t59 -28.5q17 0 38.5 3.5t65 28t76.5 66.5q9 11 13 11q6 0 11 -6t5 -10zM524 536q2 -3 2 -5q0 -5 -6 -9q-4 -5 -8 -5q-3 0 -6 3l-98 99l-148 -99q-4 -3 -7 -3q-4 0 -7 5q-2 2 -2 5q0 5 5 9l166 144q5 4 8.5 4t6.5 -4z" />
<glyph unicode="&#x10a;" horiz-adv-x="716" d="M810 681l-61 -243q-3 -12 -6 -15t-12 -3q-15 0 -15 10q0 1 1 11l3 25q1 14 1 25q0 75 -34.5 129t-107.5 54q-60 0 -124 -35.5t-113 -102.5q-53 -73 -79 -170t-26 -159q0 -99 50.5 -148.5t121.5 -49.5q73 0 148.5 58.5t110.5 174.5q3 8 16 8q15 0 15 -10q0 -21 -21 -62 t-57 -86.5t-97 -79.5t-129 -34q-106 0 -175.5 73t-69.5 194q0 114 62 222t160 173t199 65q98 0 151 -85l63 74q4 5 8 7.5t6 2.5l2 1q4 0 7 -2.5t4 -4.5v-3q0 -6 -2 -14zM651 821q0 -24 -20 -43.5t-44 -19.5q-21 0 -33 12.5t-12 30.5q0 24 20 43.5t44 19.5q21 0 33 -13 t12 -30z" />
<glyph unicode="&#x10b;" horiz-adv-x="460" d="M468 104q0 -10 -24.5 -36t-76.5 -52.5t-110 -26.5q-66 0 -106.5 45.5t-40.5 119.5q0 109 79.5 198.5t173.5 89.5q47 0 77 -24.5t30 -61.5q0 -27 -15 -43.5t-36 -16.5q-16 0 -25 9.5t-9 22.5q0 2 0.5 5t3 10.5t7 14t15 12t24.5 7.5q-16 43 -71 43q-35 0 -70 -26t-61 -74 q-19 -36 -36 -101t-17 -105q0 -46 20 -74.5t59 -28.5q17 0 38.5 3.5t65 28t76.5 66.5q9 11 13 11q6 0 11 -6t5 -10zM458 611q0 -24 -20 -43.5t-44 -19.5q-21 0 -33 12.5t-12 30.5q0 24 20 43.5t44 19.5q21 0 33 -13t12 -30z" />
<glyph unicode="&#x10c;" horiz-adv-x="716" d="M810 681l-61 -243q-3 -12 -6 -15t-12 -3q-15 0 -15 10q0 1 1 11l3 25q1 14 1 25q0 75 -34.5 129t-107.5 54q-60 0 -124 -35.5t-113 -102.5q-53 -73 -79 -170t-26 -159q0 -99 50.5 -148.5t121.5 -49.5q73 0 148.5 58.5t110.5 174.5q3 8 16 8q15 0 15 -10q0 -21 -21 -62 t-57 -86.5t-97 -79.5t-129 -34q-106 0 -175.5 73t-69.5 194q0 114 62 222t160 173t199 65q98 0 151 -85l63 74q4 5 8 7.5t6 2.5l2 1q4 0 7 -2.5t4 -4.5v-3q0 -6 -2 -14zM739 836l-155 -98q-3 -2 -6.5 -2t-5.5 2l-106 98q-3 2 -3 5q0 4 4 9q5 5 10 5l4 -1l112 -55l140 55 q2 1 4 1q4 0 6 -2q3 -2 3 -6q0 -7 -7 -11z" />
<glyph unicode="&#x10d;" horiz-adv-x="460" d="M468 104q0 -10 -24.5 -36t-76.5 -52.5t-110 -26.5q-66 0 -106.5 45.5t-40.5 119.5q0 109 79.5 198.5t173.5 89.5q47 0 77 -24.5t30 -61.5q0 -27 -15 -43.5t-36 -16.5q-16 0 -25 9.5t-9 22.5q0 2 0.5 5t3 10.5t7 14t15 12t24.5 7.5q-16 43 -71 43q-35 0 -70 -26t-61 -74 q-19 -36 -36 -101t-17 -105q0 -46 20 -74.5t59 -28.5q17 0 38.5 3.5t65 28t76.5 66.5q9 11 13 11q6 0 11 -6t5 -10zM557 665l-166 -144q-5 -3 -8.5 -3t-6.5 3l-94 144q-2 3 -2 5q0 5 6 10q4 4 8 4q3 0 6 -3l99 -99l147 99q4 3 7 3q4 0 7 -4q2 -3 2 -6q0 -5 -5 -9z" />
<glyph unicode="&#x10e;" horiz-adv-x="755" d="M775 438q0 -110 -55 -212t-143.5 -164t-181.5 -62h-307q-10 0 -14 0.5t-7.5 3t-3.5 8.5q0 13 6 16t21 3q49 0 62.5 7.5t19.5 34.5l135 543q4 14 4 19q0 11 -14 14t-44 3q-11 0 -15.5 0.5t-8 3t-3.5 8.5q0 13 6 16t21 3h312q96 0 153 -68t57 -177zM692 476q0 91 -46 133.5 t-114 42.5h-97q-26 0 -34.5 -5.5t-14.5 -30.5l-138 -553q0 -1 -2 -9.5t-2 -12.5t1 -6t8 -3t22 -1h103q115 0 200 99q56 66 85 174t29 172zM666 836l-155 -98q-4 -2 -6.5 -2t-5.5 2l-106 98q-3 2 -3 5q0 4 4 9q5 5 10 5l4 -1l112 -55l140 55q2 1 4 1q4 0 6 -2q3 -2 3 -6 q0 -7 -7 -11z" />
<glyph unicode="&#x10f;" d="M535 143q-12 -60 -30 -98q-27 -56 -73 -56q-29 0 -52 17.5t-31 52.5q-57 -70 -120 -70q-55 0 -88 44.5t-33 110.5q0 109 73 203.5t156 94.5q56 0 84 -58l58 234q3 14 3 17q0 6 -2 9t-13.5 5.5t-34.5 2.5q-24 0 -24 11q0 9 3.5 13.5t7.5 5.5t12 2l99 8q6 2 16 2 q14 0 14 -12q-2 -10 -3 -13l-143 -571q-6 -24 -6 -46q0 -41 26 -41q37 0 67 119q4 16 7 19.5t12 3.5q15 0 15 -10zM355 122l48 192q3 9 3 13q0 32 -20 64q-19 29 -49 29t-61.5 -32t-50.5 -79q-15 -35 -32 -104.5t-17 -104.5q0 -33 12 -61t43 -28q37 0 77 41t47 70zM671 650 q0 -40 -24 -84.5t-49 -70t-33 -25.5t-8 7q0 3 10 13q70 60 84 136q-15 -11 -31 -11q-33 0 -33 31q0 18 14 33t35 15q35 0 35 -44z" />
<glyph unicode="&#x110;" horiz-adv-x="755" d="M775 438q0 -110 -55 -212t-143.5 -164t-181.5 -62h-307q-10 0 -14 0.5t-7.5 3t-3.5 8.5q0 13 6 16t21 3q49 0 62.5 7.5t19.5 34.5l63 254h-94q-6 0 -9.5 4.5t-1.5 10.5q4 15 18 15h95l64 259q4 14 4 19q0 11 -14 14t-44 3q-11 0 -15.5 0.5t-8 3t-3.5 8.5q0 13 6 16t21 3 h312q96 0 153 -68t57 -177zM692 476q0 91 -46 133.5t-114 42.5h-97q-26 0 -34.5 -5.5t-14.5 -30.5l-65 -259h146q6 0 9.5 -4.5t1.5 -10.5q-3 -15 -19 -15h-145l-66 -264q0 -1 -2 -9.5t-2 -12.5t1 -6t8 -3t22 -1h103q115 0 200 99q56 66 85 174t29 172z" />
<glyph unicode="&#x111;" d="M535 143q-12 -60 -30 -98q-27 -56 -73 -56q-29 0 -52 17.5t-31 52.5q-57 -70 -120 -70q-55 0 -88 44.5t-33 110.5q0 109 73 203.5t156 94.5q56 0 84 -58l37 149h-121q-14 0 -11 15q4 15 19 15h120l14 55q3 14 3 17q0 6 -2 9t-13.5 5.5t-34.5 2.5q-24 0 -24 11 q0 9 3.5 13.5t7.5 5.5t12 2l99 8q6 2 16 2q14 0 14 -12q-2 -10 -3 -13l-27 -106h47q6 0 9 -5q3 -2 3 -6q0 -2 -1 -4q-3 -15 -19 -15h-46l-109 -435q-6 -24 -6 -46q0 -41 26 -41q37 0 67 119q4 16 7 19.5t12 3.5q15 0 15 -10zM355 122l48 192q3 9 3 13q0 32 -20 64 q-19 29 -49 29t-61.5 -32t-50.5 -79q-15 -35 -32 -104.5t-17 -104.5q0 -33 12 -61t43 -28q37 0 77 41t47 70z" />
<glyph unicode="&#x112;" horiz-adv-x="678" d="M687 247q-3 -10 -4 -12l-89 -219q-5 -11 -9 -13.5t-19 -2.5h-479q-10 0 -14 0.5t-7.5 3t-3.5 8.5q0 13 6 16t21 3q49 0 62.5 7.5t19.5 34.5l134 536l4 23q0 6 -2 9t-15.5 5.5t-40.5 2.5q-12 0 -16.5 0.5t-7.5 3.5t-3 9q0 12 6 15t21 3h467q10 0 13 -0.5t8 -3.5q4 -1 4 -5 q0 -1 -0.5 -3t-1 -4.5t0.5 -9.5l-23 -177q-1 -10 -2 -14t-4.5 -6t-10.5 -2q-15 0 -15 12q0 7 2 17q5 40 5 64q0 56 -27.5 78.5t-105.5 22.5h-125q-26 0 -34 -5t-14 -29l-61 -246h81q59 0 81.5 19t37.5 74q6 22 11 23q3 1 8 1q16 0 16 -12q-2 -10 -3 -13l-55 -220 q-3 -13 -6 -16.5t-12 -3.5q-16 0 -16 12l2 11q9 33 9 51q0 23 -14 33t-61 10h-87l-69 -275q0 -1 -2 -9.5t-2 -12.5t1 -6t8 -3t22 -1h122q47 0 82 9t58.5 22t44 41.5t34 55.5t33.5 75q7 17 10 20.5t11 3.5q15 0 15 -11zM698 775q0 -13 -6 -16t-21 -3h-280q-10 0 -14.5 0.5 t-7.5 3.5t-3 9q0 12 6 14.5t21 2.5h280q25 0 25 -11z" />
<glyph unicode="&#x113;" horiz-adv-x="460" d="M468 104q0 -10 -24.5 -36t-76.5 -52.5t-110 -26.5q-68 0 -105.5 51.5t-37.5 123.5q0 123 80 200.5t168 77.5q46 0 73.5 -24.5t27.5 -60.5q0 -5 -0.5 -10.5t-4.5 -19.5t-11.5 -26t-24 -25.5t-38.5 -22.5q-56 -22 -145 -22h-39q-17 -66 -17 -110q0 -25 5 -47t23 -42.5 t48 -20.5q17 0 38.5 3.5t65 28t76.5 66.5q9 11 13 11q6 0 11 -6t5 -10zM425 359q0 26 -17 43.5t-46 17.5q-7 0 -16 -1.5t-30.5 -10.5t-39.5 -25t-38 -50t-32 -80h21q15 0 27 0.5t38.5 3t46.5 9.5t41.5 18t33 30.5t11.5 44.5zM546 605q0 -13 -6 -16t-21 -3h-280 q-10 0 -14.5 0.5t-7.5 3.5t-3 9q0 12 6 14.5t21 2.5h280q25 0 25 -11z" />
<glyph unicode="&#x114;" horiz-adv-x="678" d="M687 247q-3 -10 -4 -12l-89 -219q-5 -11 -9 -13.5t-19 -2.5h-479q-10 0 -14 0.5t-7.5 3t-3.5 8.5q0 13 6 16t21 3q49 0 62.5 7.5t19.5 34.5l134 536l4 23q0 6 -2 9t-15.5 5.5t-40.5 2.5q-12 0 -16.5 0.5t-7.5 3.5t-3 9q0 12 6 15t21 3h467q10 0 13 -0.5t8 -3.5q4 -1 4 -5 q0 -1 -0.5 -3t-1 -4.5t0.5 -9.5l-23 -177q-1 -10 -2 -14t-4.5 -6t-10.5 -2q-15 0 -15 12q0 7 2 17q5 40 5 64q0 56 -27.5 78.5t-105.5 22.5h-125q-26 0 -34 -5t-14 -29l-61 -246h81q59 0 81.5 19t37.5 74q6 22 11 23q3 1 8 1q16 0 16 -12q-2 -10 -3 -13l-55 -220 q-3 -13 -6 -16.5t-12 -3.5q-16 0 -16 12l2 11q9 33 9 51q0 23 -14 33t-61 10h-87l-69 -275q0 -1 -2 -9.5t-2 -12.5t1 -6t8 -3t22 -1h122q47 0 82 9t58.5 22t44 41.5t34 55.5t33.5 75q7 17 10 20.5t11 3.5q15 0 15 -11zM704 906q0 -18 -19.5 -54t-62.5 -71t-94 -35t-79 34.5 t-28 83.5q0 52 17 52q11 0 11 -11q-5 -23 -5 -33q0 -38 23 -64t65 -26q41 0 85 31t63 89q5 14 13 14q11 0 11 -10z" />
<glyph unicode="&#x115;" horiz-adv-x="460" d="M468 104q0 -10 -24.5 -36t-76.5 -52.5t-110 -26.5q-68 0 -105.5 51.5t-37.5 123.5q0 123 80 200.5t168 77.5q46 0 73.5 -24.5t27.5 -60.5q0 -5 -0.5 -10.5t-4.5 -19.5t-11.5 -26t-24 -25.5t-38.5 -22.5q-56 -22 -145 -22h-39q-17 -66 -17 -110q0 -25 5 -47t23 -42.5 t48 -20.5q17 0 38.5 3.5t65 28t76.5 66.5q9 11 13 11q6 0 11 -6t5 -10zM425 359q0 26 -17 43.5t-46 17.5q-7 0 -16 -1.5t-30.5 -10.5t-39.5 -25t-38 -50t-32 -80h21q15 0 27 0.5t38.5 3t46.5 9.5t41.5 18t33 30.5t11.5 44.5zM537 676q0 -18 -19.5 -54t-62.5 -71t-94 -35 t-79 34.5t-28 83.5q0 52 17 52q11 0 11 -11q-5 -23 -5 -33q0 -38 23 -64t65 -26q41 0 85 31t63 89q5 14 13 14q11 0 11 -10z" />
<glyph unicode="&#x116;" horiz-adv-x="678" d="M687 247q-3 -10 -4 -12l-89 -219q-5 -11 -9 -13.5t-19 -2.5h-479q-10 0 -14 0.5t-7.5 3t-3.5 8.5q0 13 6 16t21 3q49 0 62.5 7.5t19.5 34.5l134 536l4 23q0 6 -2 9t-15.5 5.5t-40.5 2.5q-12 0 -16.5 0.5t-7.5 3.5t-3 9q0 12 6 15t21 3h467q10 0 13 -0.5t8 -3.5q4 -1 4 -5 q0 -1 -0.5 -3t-1 -4.5t0.5 -9.5l-23 -177q-1 -10 -2 -14t-4.5 -6t-10.5 -2q-15 0 -15 12q0 7 2 17q5 40 5 64q0 56 -27.5 78.5t-105.5 22.5h-125q-26 0 -34 -5t-14 -29l-61 -246h81q59 0 81.5 19t37.5 74q6 22 11 23q3 1 8 1q16 0 16 -12q-2 -10 -3 -13l-55 -220 q-3 -13 -6 -16.5t-12 -3.5q-16 0 -16 12l2 11q9 33 9 51q0 23 -14 33t-61 10h-87l-69 -275q0 -1 -2 -9.5t-2 -12.5t1 -6t8 -3t22 -1h122q47 0 82 9t58.5 22t44 41.5t34 55.5t33.5 75q7 17 10 20.5t11 3.5q15 0 15 -11zM597 821q0 -24 -20 -43.5t-44 -19.5q-21 0 -33 12.5 t-12 30.5q0 24 20 43.5t44 19.5q21 0 33 -13t12 -30z" />
<glyph unicode="&#x117;" horiz-adv-x="460" d="M468 104q0 -10 -24.5 -36t-76.5 -52.5t-110 -26.5q-68 0 -105.5 51.5t-37.5 123.5q0 123 80 200.5t168 77.5q46 0 73.5 -24.5t27.5 -60.5q0 -5 -0.5 -10.5t-4.5 -19.5t-11.5 -26t-24 -25.5t-38.5 -22.5q-56 -22 -145 -22h-39q-17 -66 -17 -110q0 -25 5 -47t23 -42.5 t48 -20.5q17 0 38.5 3.5t65 28t76.5 66.5q9 11 13 11q6 0 11 -6t5 -10zM425 359q0 26 -17 43.5t-46 17.5q-7 0 -16 -1.5t-30.5 -10.5t-39.5 -25t-38 -50t-32 -80h21q15 0 27 0.5t38.5 3t46.5 9.5t41.5 18t33 30.5t11.5 44.5zM435 611q0 -24 -20 -43.5t-44 -19.5 q-21 0 -33 12.5t-12 30.5q0 24 20 43.5t44 19.5q21 0 33 -13t12 -30z" />
<glyph unicode="&#x118;" horiz-adv-x="678" d="M687 247q-3 -10 -4 -12l-89 -219q-5 -11 -9 -13.5t-19 -2.5h-92q-83 -44 -94 -95q-2 -7 -2 -14q0 -22 19 -37q24 -18 55 -18q52 0 89 56q5 8 12.5 5t3.5 -12q-21 -42 -61 -69t-78 -27q-47 0 -73 27q-20 21 -20 47q0 8 2 16q8 39 37 71.5t72 49.5h-349q-10 0 -14 0.5 t-7.5 3t-3.5 8.5q0 13 6 16t21 3q49 0 62.5 7.5t19.5 34.5l134 536l4 23q0 6 -2 9t-15.5 5.5t-40.5 2.5q-12 0 -16.5 0.5t-7.5 3.5t-3 9q0 12 6 15t21 3h467q10 0 13 -0.5t8 -3.5q4 -1 4 -5q0 -1 -0.5 -3t-1 -4.5t0.5 -9.5l-23 -177q-1 -10 -2 -14t-4.5 -6t-10.5 -2 q-15 0 -15 12q0 7 2 17q5 40 5 64q0 56 -27.5 78.5t-105.5 22.5h-125q-26 0 -34 -5t-14 -29l-61 -246h81q59 0 81.5 19t37.5 74q6 22 11 23q3 1 8 1q16 0 16 -12q-2 -10 -3 -13l-55 -220q-3 -13 -6 -16.5t-12 -3.5q-16 0 -16 12l2 11q9 33 9 51q0 23 -14 33t-61 10h-87 l-69 -275q0 -1 -2 -9.5t-2 -12.5t1 -6t8 -3t22 -1h122q47 0 82 9t58.5 22t44 41.5t34 55.5t33.5 75q7 17 10 20.5t11 3.5q15 0 15 -11z" />
<glyph unicode="&#x119;" horiz-adv-x="460" d="M417 -115q-21 -42 -61 -69t-78 -27q-47 0 -73 27q-20 21 -20 47q0 8 2 16q12 58 91 111q-7 -1 -21 -1q-68 0 -105.5 51.5t-37.5 123.5q0 123 80 200.5t168 77.5q46 0 73.5 -24.5t27.5 -60.5q0 -5 -0.5 -10.5t-4.5 -19.5t-11.5 -26t-24 -25.5t-38.5 -22.5 q-56 -22 -145 -22h-39q-17 -66 -17 -110q0 -25 5 -47t23 -42.5t48 -20.5q17 0 38.5 3.5t65 28t76.5 66.5q9 11 13 11q6 0 11 -6t5 -10q0 -7 -15.5 -25t-48 -41t-70.5 -36q-83 -50 -94 -97q-2 -7 -2 -14q0 -22 19 -37q24 -18 55 -18q52 0 89 56q5 8 12.5 5t3.5 -12zM425 359 q0 26 -17 43.5t-46 17.5q-7 0 -16 -1.5t-30.5 -10.5t-39.5 -25t-38 -50t-32 -80h21q15 0 27 0.5t38.5 3t46.5 9.5t41.5 18t33 30.5t11.5 44.5z" />
<glyph unicode="&#x11a;" horiz-adv-x="678" d="M687 247q-3 -10 -4 -12l-89 -219q-5 -11 -9 -13.5t-19 -2.5h-479q-10 0 -14 0.5t-7.5 3t-3.5 8.5q0 13 6 16t21 3q49 0 62.5 7.5t19.5 34.5l134 536l4 23q0 6 -2 9t-15.5 5.5t-40.5 2.5q-12 0 -16.5 0.5t-7.5 3.5t-3 9q0 12 6 15t21 3h467q10 0 13 -0.5t8 -3.5q4 -1 4 -5 q0 -1 -0.5 -3t-1 -4.5t0.5 -9.5l-23 -177q-1 -10 -2 -14t-4.5 -6t-10.5 -2q-15 0 -15 12q0 7 2 17q5 40 5 64q0 56 -27.5 78.5t-105.5 22.5h-125q-26 0 -34 -5t-14 -29l-61 -246h81q59 0 81.5 19t37.5 74q6 22 11 23q3 1 8 1q16 0 16 -12q-2 -10 -3 -13l-55 -220 q-3 -13 -6 -16.5t-12 -3.5q-16 0 -16 12l2 11q9 33 9 51q0 23 -14 33t-61 10h-87l-69 -275q0 -1 -2 -9.5t-2 -12.5t1 -6t8 -3t22 -1h122q47 0 82 9t58.5 22t44 41.5t34 55.5t33.5 75q7 17 10 20.5t11 3.5q15 0 15 -11zM684 836l-155 -98q-3 -2 -6 -2t-6 2l-106 98q-3 2 -3 5 q0 4 4 9q5 5 10 5l4 -1l112 -55l140 55q2 1 4 1q4 0 6 -2q3 -2 3 -6q0 -7 -7 -11z" />
<glyph unicode="&#x11b;" horiz-adv-x="460" d="M468 104q0 -10 -24.5 -36t-76.5 -52.5t-110 -26.5q-68 0 -105.5 51.5t-37.5 123.5q0 123 80 200.5t168 77.5q46 0 73.5 -24.5t27.5 -60.5q0 -5 -0.5 -10.5t-4.5 -19.5t-11.5 -26t-24 -25.5t-38.5 -22.5q-56 -22 -145 -22h-39q-17 -66 -17 -110q0 -25 5 -47t23 -42.5 t48 -20.5q17 0 38.5 3.5t65 28t76.5 66.5q9 11 13 11q6 0 11 -6t5 -10zM425 359q0 26 -17 43.5t-46 17.5q-7 0 -16 -1.5t-30.5 -10.5t-39.5 -25t-38 -50t-32 -80h21q15 0 27 0.5t38.5 3t46.5 9.5t41.5 18t33 30.5t11.5 44.5zM534 665l-166 -144q-4 -3 -8 -3t-7 3l-94 144 q-2 3 -2 5q0 5 5 10q5 4 9 4q3 0 6 -3l99 -99l147 99q4 3 7 3q4 0 7 -4q2 -3 2 -6q0 -5 -5 -9z" />
<glyph unicode="&#x11c;" horiz-adv-x="774" d="M768 260q0 -12 -6 -15t-18 -3q-21 0 -32 -4t-13.5 -9.5t-6.5 -19.5l-48 -191q-5 -17 -12 -17q-8 0 -21.5 20t-20.5 40q-25 -32 -78 -57.5t-116 -25.5q-108 0 -177 73.5t-69 193.5q0 114 62 222t160 173t199 65q98 0 151 -85l63 74q4 5 8 7.5t6 2.5l2 1q4 0 7 -2.5t4 -4.5 v-3q0 -6 -2 -14l-61 -243q-3 -12 -6 -15t-12 -3q-15 0 -15 10q0 1 1 11l3 25q1 14 1 25q0 75 -34.5 129t-107.5 54q-60 0 -124 -35.5t-113 -102.5q-54 -74 -79.5 -170.5t-25.5 -157.5q0 -95 50.5 -147t126.5 -52q80 0 136 51q22 20 29.5 38.5t24.5 89.5q8 28 8 34 q0 7 -3.5 10.5t-8 4.5t-17.5 3q-26 2 -43 2h-8q-26 0 -26 11q0 20 21 20t65 -1.5t66 -1.5q16 0 49 1.5t48 1.5q13 0 13 -13zM711 755q3 -2 3 -5q0 -4 -4 -8q-5 -6 -10 -6l-4 1l-112 55l-140 -55q-2 -1 -4 -1q-4 0 -6 2q-3 2 -3 6q0 7 7 11l155 98q3 1 6 1t6 -1z" />
<glyph unicode="&#x11d;" horiz-adv-x="460" d="M374 -63q-15 -60 -69.5 -101t-130.5 -41q-121 0 -121 58q0 26 16 39.5t33 13.5q18 0 26.5 -10t8.5 -22q0 -13 -9 -26.5t-23 -19.5q27 -11 71 -11q55 0 95 47q20 24 28 44t18 61l21 84q-53 -53 -106 -53q-55 0 -88.5 44t-33.5 109q0 106 71.5 197.5t155.5 91.5 q56 0 84 -57q3 19 15 28t24 9q27 0 27 -26q0 -6 -4 -21zM358 132l45 182l3 14q0 6 -2.5 18.5t-9 30t-21.5 30.5t-36 13q-28 0 -58.5 -28.5t-49.5 -70.5q-16 -37 -33.5 -107t-17.5 -105q0 -9 1.5 -19t6 -27.5t17 -29t31.5 -11.5q37 0 77 40.5t47 69.5zM515 536q2 -3 2 -5 q0 -5 -5 -9q-5 -5 -9 -5q-3 0 -6 3l-98 99l-148 -99q-4 -3 -7 -3q-4 0 -7 5q-2 2 -2 5q0 5 5 9l166 144q4 4 8 4t7 -4z" />
<glyph unicode="&#x11e;" horiz-adv-x="774" d="M768 260q0 -12 -6 -15t-18 -3q-21 0 -32 -4t-13.5 -9.5t-6.5 -19.5l-48 -191q-5 -17 -12 -17q-8 0 -21.5 20t-20.5 40q-25 -32 -78 -57.5t-116 -25.5q-108 0 -177 73.5t-69 193.5q0 114 62 222t160 173t199 65q98 0 151 -85l63 74q4 5 8 7.5t6 2.5l2 1q4 0 7 -2.5t4 -4.5 v-3q0 -6 -2 -14l-61 -243q-3 -12 -6 -15t-12 -3q-15 0 -15 10q0 1 1 11l3 25q1 14 1 25q0 75 -34.5 129t-107.5 54q-60 0 -124 -35.5t-113 -102.5q-54 -74 -79.5 -170.5t-25.5 -157.5q0 -95 50.5 -147t126.5 -52q80 0 136 51q22 20 29.5 38.5t24.5 89.5q8 28 8 34 q0 7 -3.5 10.5t-8 4.5t-17.5 3q-26 2 -43 2h-8q-26 0 -26 11q0 20 21 20t65 -1.5t66 -1.5q16 0 49 1.5t48 1.5q13 0 13 -13zM751 906q0 -18 -19.5 -54t-62.5 -71t-94 -35t-79 34.5t-28 83.5q0 52 17 52q11 0 11 -11q-5 -23 -5 -33q0 -38 23 -64t65 -26q41 0 85 31t63 89 q5 14 13 14q11 0 11 -10z" />
<glyph unicode="&#x11f;" horiz-adv-x="460" d="M374 -63q-15 -60 -69.5 -101t-130.5 -41q-121 0 -121 58q0 26 16 39.5t33 13.5q18 0 26.5 -10t8.5 -22q0 -13 -9 -26.5t-23 -19.5q27 -11 71 -11q55 0 95 47q20 24 28 44t18 61l21 84q-53 -53 -106 -53q-55 0 -88.5 44t-33.5 109q0 106 71.5 197.5t155.5 91.5 q56 0 84 -57q3 19 15 28t24 9q27 0 27 -26q0 -6 -4 -21zM358 132l45 182l3 14q0 6 -2.5 18.5t-9 30t-21.5 30.5t-36 13q-28 0 -58.5 -28.5t-49.5 -70.5q-16 -37 -33.5 -107t-17.5 -105q0 -9 1.5 -19t6 -27.5t17 -29t31.5 -11.5q37 0 77 40.5t47 69.5zM551 676 q0 -18 -19.5 -54t-62.5 -71t-94 -35t-79 34.5t-28 83.5q0 52 17 52q11 0 11 -11q-5 -23 -5 -33q0 -38 23 -64t65 -26q41 0 85 31t63 89q5 14 13 14q11 0 11 -10z" />
<glyph unicode="&#x120;" horiz-adv-x="774" d="M768 260q0 -12 -6 -15t-18 -3q-21 0 -32 -4t-13.5 -9.5t-6.5 -19.5l-48 -191q-5 -17 -12 -17q-8 0 -21.5 20t-20.5 40q-25 -32 -78 -57.5t-116 -25.5q-108 0 -177 73.5t-69 193.5q0 114 62 222t160 173t199 65q98 0 151 -85l63 74q4 5 8 7.5t6 2.5l2 1q4 0 7 -2.5t4 -4.5 v-3q0 -6 -2 -14l-61 -243q-3 -12 -6 -15t-12 -3q-15 0 -15 10q0 1 1 11l3 25q1 14 1 25q0 75 -34.5 129t-107.5 54q-60 0 -124 -35.5t-113 -102.5q-54 -74 -79.5 -170.5t-25.5 -157.5q0 -95 50.5 -147t126.5 -52q80 0 136 51q22 20 29.5 38.5t24.5 89.5q8 28 8 34 q0 7 -3.5 10.5t-8 4.5t-17.5 3q-26 2 -43 2h-8q-26 0 -26 11q0 20 21 20t65 -1.5t66 -1.5q16 0 49 1.5t48 1.5q13 0 13 -13zM644 821q0 -24 -20 -43.5t-44 -19.5q-21 0 -33 12.5t-12 30.5q0 24 20 43.5t44 19.5q21 0 33 -13t12 -30z" />
<glyph unicode="&#x121;" horiz-adv-x="460" d="M374 -63q-15 -60 -69.5 -101t-130.5 -41q-121 0 -121 58q0 26 16 39.5t33 13.5q18 0 26.5 -10t8.5 -22q0 -13 -9 -26.5t-23 -19.5q27 -11 71 -11q55 0 95 47q20 24 28 44t18 61l21 84q-53 -53 -106 -53q-55 0 -88.5 44t-33.5 109q0 106 71.5 197.5t155.5 91.5 q56 0 84 -57q3 19 15 28t24 9q27 0 27 -26q0 -6 -4 -21zM358 132l45 182l3 14q0 6 -2.5 18.5t-9 30t-21.5 30.5t-36 13q-28 0 -58.5 -28.5t-49.5 -70.5q-16 -37 -33.5 -107t-17.5 -105q0 -9 1.5 -19t6 -27.5t17 -29t31.5 -11.5q37 0 77 40.5t47 69.5zM449 611 q0 -24 -20 -43.5t-44 -19.5q-21 0 -33 12.5t-12 30.5q0 24 20 43.5t44 19.5q21 0 33 -13t12 -30z" />
<glyph unicode="&#x122;" horiz-adv-x="774" d="M768 260q0 -12 -6 -15t-18 -3q-21 0 -32 -4t-13.5 -9.5t-6.5 -19.5l-48 -191q-5 -17 -12 -17q-8 0 -21.5 20t-20.5 40q-25 -32 -78 -57.5t-116 -25.5q-108 0 -177 73.5t-69 193.5q0 114 62 222t160 173t199 65q98 0 151 -85l63 74q4 5 8 7.5t6 2.5l2 1q4 0 7 -2.5t4 -4.5 v-3q0 -6 -2 -14l-61 -243q-3 -12 -6 -15t-12 -3q-15 0 -15 10q0 1 1 11l3 25q1 14 1 25q0 75 -34.5 129t-107.5 54q-60 0 -124 -35.5t-113 -102.5q-54 -74 -79.5 -170.5t-25.5 -157.5q0 -95 50.5 -147t126.5 -52q80 0 136 51q22 20 29.5 38.5t24.5 89.5q8 28 8 34 q0 7 -3.5 10.5t-8 4.5t-17.5 3q-26 2 -43 2h-8q-26 0 -26 11q0 20 21 20t65 -1.5t66 -1.5q16 0 49 1.5t48 1.5q13 0 13 -13zM399 -110q0 -40 -24 -84.5t-49 -70t-33 -25.5t-8 7q0 3 10 13q70 60 84 136q-15 -11 -31 -11q-33 0 -33 31q0 18 14 33t35 15q35 0 35 -44z" />
<glyph unicode="&#x123;" horiz-adv-x="460" d="M427 559q0 -18 -14 -33t-35 -15q-35 0 -35 44q0 40 24 84.5t49 70t33 25.5t8 -7q0 -3 -10 -13q-70 -60 -84 -136q15 11 31 11q33 0 33 -31zM374 -63q-15 -60 -69.5 -101t-130.5 -41q-121 0 -121 58q0 26 16 39.5t33 13.5q18 0 26.5 -10t8.5 -22q0 -13 -9 -26.5t-23 -19.5 q27 -11 71 -11q55 0 95 47q20 24 28 44t18 61l21 84q-53 -53 -106 -53q-55 0 -88.5 44t-33.5 109q0 106 71.5 197.5t155.5 91.5q56 0 84 -57q3 19 15 28t24 9q27 0 27 -26q0 -6 -4 -21zM358 132l45 182l3 14q0 6 -2.5 18.5t-9 30t-21.5 30.5t-36 13q-28 0 -58.5 -28.5 t-49.5 -70.5q-16 -37 -33.5 -107t-17.5 -105q0 -9 1.5 -19t6 -27.5t17 -29t31.5 -11.5q37 0 77 40.5t47 69.5z" />
<glyph unicode="&#x124;" horiz-adv-x="743" d="M689 18q0 -18 -19 -18t-59.5 1.5t-60.5 1.5t-59.5 -1.5t-58.5 -1.5q-14 0 -14 12q0 13 6 16t21 3q49 0 62.5 7.5t19.5 34.5l66 267h-274l-67 -272q-4 -14 -4 -20t2 -9t15.5 -5.5t40.5 -2.5q12 0 16.5 -0.5t7.5 -3.5t3 -9q0 -18 -19 -18t-59.5 1.5t-60.5 1.5t-59.5 -1.5 t-58.5 -1.5q-14 0 -14 12q0 13 6 16t21 3q49 0 62.5 7.5t19.5 34.5l135 543q4 14 4 19q0 11 -14 14t-44 3q-11 0 -15.5 0.5t-8 3t-3.5 8.5q0 19 19 19t59.5 -1.5t60.5 -1.5t59.5 1.5t58.5 1.5q14 0 14 -13q0 -12 -6 -15t-24 -3q-46 0 -59.5 -7.5t-19.5 -32.5l-60 -241h274 l61 245q4 14 4 19q0 11 -14 14t-44 3q-11 0 -15.5 0.5t-8 3t-3.5 8.5q0 19 19 19t59.5 -1.5t60.5 -1.5t59.5 1.5t58.5 1.5q14 0 14 -13q0 -12 -6 -15t-24 -3q-46 0 -59.5 -7.5t-19.5 -32.5l-135 -541l-4 -23q0 -6 2 -9t15.5 -5.5t40.5 -2.5q12 0 16.5 -0.5t7.5 -3.5t3 -9z M696 755q3 -2 3 -5q0 -4 -4 -8q-5 -6 -10 -6l-4 1l-112 55l-140 -55q-2 -1 -4 -1q-4 0 -6 2q-3 2 -3 6q0 7 7 11l155 98q3 1 6.5 1t5.5 -1z" />
<glyph unicode="&#x125;" d="M535 143q0 -3 -4 -18t-14 -38.5t-24 -45t-36.5 -37t-48.5 -15.5q-35 0 -55.5 23t-20.5 57q0 22 16 64q58 166 58 221q0 66 -46 66q-74 0 -133 -95q-19 -34 -28 -70q-3 -11 -8 -32.5t-8 -32.5l-43 -173q-3 -10 -13 -19t-24 -9q-13 0 -20.5 8t-7.5 18q1 11 2 13l148 590 q3 14 3 17q0 6 -2 9t-13.5 5.5t-34.5 2.5q-24 0 -24 11q0 9 3.5 13.5t7.5 5.5t12 2l99 8q6 2 16 2q14 0 14 -12q-2 -10 -3 -13l-73 -292q22 21 34.5 31.5t40 22t58.5 11.5q44 0 74 -24t30 -80q0 -61 -61 -223q-18 -54 -18 -75q0 -29 22 -29q56 0 93 125q3 12 5.5 14.5 t11.5 2.5q15 0 15 -10zM583 766q3 -2 3 -5q0 -4 -4 -9q-5 -5 -10 -5l-4 1l-112 55l-140 -55q-2 -1 -4 -1q-4 0 -6 2q-3 2 -3 6q0 7 7 11l155 98q4 2 6.5 2t5.5 -2z" />
<glyph unicode="&#x126;" horiz-adv-x="743" d="M814 513q-3 -15 -18 -15h-81l-107 -427l-4 -23q0 -6 2 -9t15.5 -5.5t40.5 -2.5q12 0 16.5 -0.5t7.5 -3.5t3 -9q0 -18 -19 -18t-59.5 1.5t-60.5 1.5t-59.5 -1.5t-58.5 -1.5q-14 0 -14 12q0 13 6 16t21 3q49 0 62.5 7.5t19.5 34.5l66 267h-274l-67 -272q-4 -14 -4 -20t2 -9 t15.5 -5.5t40.5 -2.5q12 0 16.5 -0.5t7.5 -3.5t3 -9q0 -18 -19 -18t-59.5 1.5t-60.5 1.5t-59.5 -1.5t-58.5 -1.5q-14 0 -14 12q0 13 6 16t21 3q49 0 62.5 7.5t19.5 34.5l106 425h-79q-15 0 -12 15q4 15 19 15h79l22 88q4 14 4 19q0 11 -14 14t-44 3q-11 0 -15.5 0.5t-8 3 t-3.5 8.5q0 19 19 19t59.5 -1.5t60.5 -1.5t59.5 1.5t58.5 1.5q14 0 14 -13q0 -12 -6 -15t-24 -3q-46 0 -59.5 -7.5t-19.5 -32.5l-21 -84h274l22 88q4 14 4 19q0 11 -14 14t-44 3q-11 0 -15.5 0.5t-8 3t-3.5 8.5q0 19 19 19t59.5 -1.5t60.5 -1.5t59.5 1.5t58.5 1.5 q14 0 14 -13q0 -12 -6 -15t-24 -3q-46 0 -59.5 -7.5t-19.5 -32.5l-21 -84h81q6 0 9.5 -4.5t1.5 -10.5zM633 498h-274l-32 -127h274z" />
<glyph unicode="&#x127;" d="M535 143q0 -3 -4 -18t-14 -38.5t-24 -45t-36.5 -37t-48.5 -15.5q-35 0 -55.5 23t-20.5 57q0 22 16 64q58 166 58 221q0 66 -46 66q-74 0 -133 -95q-19 -34 -28 -70q-3 -11 -8 -32.5t-8 -32.5l-43 -173q-3 -10 -13 -19t-24 -9q-13 0 -20.5 8t-7.5 18q1 11 2 13l127 505 h-52q-14 0 -11 15q4 15 19 15h51l14 55q3 14 3 17q0 6 -2 9t-13.5 5.5t-34.5 2.5q-24 0 -24 11q0 9 3.5 13.5t7.5 5.5t12 2l99 8q6 2 16 2q14 0 14 -12q-2 -10 -3 -13l-26 -106h120q6 0 9.5 -4.5t1.5 -10.5q-3 -15 -19 -15h-120l-39 -156q22 21 34.5 31.5t40 22t58.5 11.5 q44 0 74 -24t30 -80q0 -61 -61 -223q-18 -54 -18 -75q0 -29 22 -29q56 0 93 125q3 12 5.5 14.5t11.5 2.5q15 0 15 -10z" />
<glyph unicode="&#x128;" horiz-adv-x="386" d="M338 19q0 -19 -20 -19t-61.5 1.5t-62.5 1.5t-62 -1.5t-61 -1.5q-14 0 -14 13q0 12 6 15t24 3q49 0 63.5 7.5t20.5 33.5l136 544q3 9 3 19q0 11 -15 14t-48 3q-12 0 -16.5 0.5t-7.5 3.5t-3 9q0 18 19 18q21 0 63 -1.5t62 -1.5q21 0 62 1.5t61 1.5q14 0 14 -12 q0 -13 -6.5 -16t-24.5 -3q-49 0 -63 -7.5t-20 -33.5l-135 -540l-4 -22q0 -7 2 -10t16.5 -5.5t43.5 -2.5q12 0 16.5 -0.5t8 -3t3.5 -8.5zM551 826q0 -10 -49 -50t-79 -40q-27 0 -51 39q-16 27 -32 27q-30 0 -89 -58q-9 -7 -13 -7q-11 0 -11 10q0 5 13 18.5t26 24.5l14 11 q47 36 74 36q18 0 29 -10t25 -33t29 -23q19 0 51 24.5t39 33.5q7 7 13 7q11 0 11 -10z" />
<glyph unicode="&#x129;" horiz-adv-x="307" d="M331 143q0 -3 -4 -17.5t-14 -38t-23.5 -45.5t-36.5 -37.5t-49 -15.5q-37 0 -56.5 24t-19.5 56q0 20 18 69l37 99l30 83q18 49 18 72q0 28 -22 28q-59 0 -93 -126q-3 -11 -6 -13.5t-12 -2.5q-15 0 -15 10q0 3 4 18t14 38.5t24 45t37 37t49 15.5q31 0 53 -20.5t22 -59.5 q0 -21 -12 -56l-64 -171q-26 -74 -26 -96q0 -28 22 -28q59 0 93 125q3 12 5.5 14.5t11.5 2.5q15 0 15 -10zM466 640q0 -10 -49 -50t-79 -40q-27 0 -51 39q-16 27 -32 27q-30 0 -89 -58q-9 -7 -13 -7q-11 0 -11 10q0 5 13 18.5t27 24.5l13 11q47 36 74 36q18 0 29 -10t25 -33 t29 -23q19 0 51 24.5t39 33.5q7 7 13 7q11 0 11 -10z" />
<glyph unicode="&#x12a;" horiz-adv-x="386" d="M338 19q0 -19 -20 -19t-61.5 1.5t-62.5 1.5t-62 -1.5t-61 -1.5q-14 0 -14 13q0 12 6 15t24 3q49 0 63.5 7.5t20.5 33.5l136 544q3 9 3 19q0 11 -15 14t-48 3q-12 0 -16.5 0.5t-7.5 3.5t-3 9q0 18 19 18q21 0 63 -1.5t62 -1.5q21 0 62 1.5t61 1.5q14 0 14 -12 q0 -13 -6.5 -16t-24.5 -3q-49 0 -63 -7.5t-20 -33.5l-135 -540l-4 -22q0 -7 2 -10t16.5 -5.5t43.5 -2.5q12 0 16.5 -0.5t8 -3t3.5 -8.5zM551 775q0 -13 -6 -16t-21 -3h-280q-10 0 -14.5 0.5t-7.5 3.5t-3 9q0 12 6 14.5t21 2.5h280q25 0 25 -11z" />
<glyph unicode="&#x12b;" horiz-adv-x="307" d="M331 143q0 -3 -4 -17.5t-14 -38t-23.5 -45.5t-36.5 -37.5t-49 -15.5q-37 0 -56.5 24t-19.5 56q0 20 18 69l37 99l30 83q18 49 18 72q0 28 -22 28q-59 0 -93 -126q-3 -11 -6 -13.5t-12 -2.5q-15 0 -15 10q0 3 4 18t14 38.5t24 45t37 37t49 15.5q31 0 53 -20.5t22 -59.5 q0 -21 -12 -56l-64 -171q-26 -74 -26 -96q0 -28 22 -28q59 0 93 125q3 12 5.5 14.5t11.5 2.5q15 0 15 -10zM470 605q0 -13 -6 -16t-21 -3h-280q-10 0 -14.5 0.5t-7.5 3.5t-3 9q0 12 6 14.5t21 2.5h280q25 0 25 -11z" />
<glyph unicode="&#x12c;" horiz-adv-x="386" d="M338 19q0 -19 -20 -19t-61.5 1.5t-62.5 1.5t-62 -1.5t-61 -1.5q-14 0 -14 13q0 12 6 15t24 3q49 0 63.5 7.5t20.5 33.5l136 544q3 9 3 19q0 11 -15 14t-48 3q-12 0 -16.5 0.5t-7.5 3.5t-3 9q0 18 19 18q21 0 63 -1.5t62 -1.5q21 0 62 1.5t61 1.5q14 0 14 -12 q0 -13 -6.5 -16t-24.5 -3q-49 0 -63 -7.5t-20 -33.5l-135 -540l-4 -22q0 -7 2 -10t16.5 -5.5t43.5 -2.5q12 0 16.5 -0.5t8 -3t3.5 -8.5zM557 906q0 -18 -19.5 -54t-62.5 -71t-94 -35t-79 34.5t-28 83.5q0 52 17 52q11 0 11 -11q-5 -23 -5 -33q0 -38 23 -64t65 -26 q41 0 85 31t63 89q5 14 13 14q11 0 11 -10z" />
<glyph unicode="&#x12d;" horiz-adv-x="307" d="M331 143q0 -3 -4 -17.5t-14 -38t-23.5 -45.5t-36.5 -37.5t-49 -15.5q-37 0 -56.5 24t-19.5 56q0 20 18 69l37 99l30 83q18 49 18 72q0 28 -22 28q-59 0 -93 -126q-3 -11 -6 -13.5t-12 -2.5q-15 0 -15 10q0 3 4 18t14 38.5t24 45t37 37t49 15.5q31 0 53 -20.5t22 -59.5 q0 -21 -12 -56l-64 -171q-26 -74 -26 -96q0 -28 22 -28q59 0 93 125q3 12 5.5 14.5t11.5 2.5q15 0 15 -10zM461 676q0 -18 -19.5 -54t-62.5 -71t-94 -35t-79 34.5t-28 83.5q0 52 17 52q11 0 11 -11q-5 -23 -5 -33q0 -38 23 -64t65 -26q41 0 85 31t63 89q5 14 13 14 q11 0 11 -10z" />
<glyph unicode="&#x12e;" horiz-adv-x="386" d="M305 -115q-21 -42 -61 -69t-78 -27q-47 0 -73 27q-20 21 -20 47q0 8 2 16q15 65 107 124l-111 -3q-14 0 -14 13q0 12 6 15t24 3q49 0 63.5 7.5t20.5 33.5l136 544q3 9 3 19q0 11 -15 14t-48 3q-12 0 -16.5 0.5t-7.5 3.5t-3 9q0 18 19 18q21 0 63 -1.5t62 -1.5 q21 0 62 1.5t61 1.5q14 0 14 -12q0 -13 -6.5 -16t-24.5 -3q-49 0 -63 -7.5t-20 -33.5l-135 -540l-4 -22q0 -7 2 -10t16.5 -5.5t43.5 -2.5q12 0 16.5 -0.5t8 -3t3.5 -8.5q0 -19 -20 -19l-92 3q-25 -15 -44 -30q-45 -31 -54 -68q-2 -7 -2 -14q0 -22 19 -37q24 -18 55 -18 q52 0 89 56q5 8 12.5 5t3.5 -12z" />
<glyph unicode="&#x12f;" horiz-adv-x="307" d="M326 623q0 -20 -15.5 -34t-32.5 -14q-13 0 -23.5 8t-10.5 25q0 20 15.5 34t32.5 14q13 0 23.5 -8t10.5 -25zM285 -115q-21 -42 -61 -69t-78 -27q-47 0 -73 27q-20 21 -20 47q0 8 2 16q13 63 105 123q-32 22 -32 67q0 20 18 69l37 99l30 83q18 49 18 72q0 28 -22 28 q-59 0 -93 -126q-3 -11 -6 -13.5t-12 -2.5q-15 0 -15 10q0 3 4 18t14 38.5t24 45t37 37t49 15.5q31 0 53 -20.5t22 -59.5q0 -21 -12 -56l-64 -171q-26 -74 -26 -96q0 -28 22 -28q59 0 93 125q3 12 5.5 14.5t11.5 2.5q15 0 15 -10q0 -3 -4 -17.5t-14 -38t-23.5 -45.5 t-36.5 -37.5t-49 -15.5q-6 0 -18 2l-25 -18q-45 -31 -53 -68q-2 -7 -2 -14q0 -22 19 -37q24 -18 55 -18q52 0 89 56q5 8 12.5 5t3.5 -12z" />
<glyph unicode="&#x130;" horiz-adv-x="386" d="M338 19q0 -19 -20 -19t-61.5 1.5t-62.5 1.5t-62 -1.5t-61 -1.5q-14 0 -14 13q0 12 6 15t24 3q49 0 63.5 7.5t20.5 33.5l136 544q3 9 3 19q0 11 -15 14t-48 3q-12 0 -16.5 0.5t-7.5 3.5t-3 9q0 18 19 18q21 0 63 -1.5t62 -1.5q21 0 62 1.5t61 1.5q14 0 14 -12 q0 -13 -6.5 -16t-24.5 -3q-49 0 -63 -7.5t-20 -33.5l-135 -540l-4 -22q0 -7 2 -10t16.5 -5.5t43.5 -2.5q12 0 16.5 -0.5t8 -3t3.5 -8.5zM450 821q0 -24 -20 -43.5t-44 -19.5q-21 0 -33 12.5t-12 30.5q0 24 20 43.5t44 19.5q21 0 33 -13t12 -30z" />
<glyph unicode="&#x131;" horiz-adv-x="307" d="M331 143q0 -3 -4 -17.5t-14 -38t-23.5 -45.5t-36.5 -37.5t-49 -15.5q-37 0 -56.5 24t-19.5 56q0 20 18 69l37 99l30 83q18 49 18 72q0 28 -22 28q-59 0 -93 -126q-3 -11 -6 -13.5t-12 -2.5q-15 0 -15 10q0 3 4 18t14 38.5t24 45t37 37t49 15.5q31 0 53 -20.5t22 -59.5 q0 -21 -12 -56l-64 -171q-26 -74 -26 -96q0 -28 22 -28q59 0 93 125q3 12 5.5 14.5t11.5 2.5q15 0 15 -10z" />
<glyph unicode="&#x134;" horiz-adv-x="525" d="M622 671q0 -13 -6 -16t-20 -3q-32 0 -43 -7t-16 -29l-117 -472q-17 -69 -77.5 -117.5t-130.5 -48.5q-50 0 -84 29.5t-34 78.5q0 22 6.5 37.5t14.5 23t18.5 11.5t15 4.5t7.5 0.5q17 0 29 -10.5t12 -28.5q0 -21 -16.5 -40t-43.5 -19q-9 0 -11 1q6 -30 29.5 -48t54.5 -18 q40 0 78 43.5t53 101.5l116 466q4 14 4 20q0 7 -3.5 11t-8.5 5t-18 3q-18 2 -46 2h-12q-10 0 -14 0.5t-7.5 3t-3.5 8.5q0 19 21 19q22 0 67.5 -1.5t68.5 -1.5q17 0 52 1.5t51 1.5q14 0 14 -12zM643 755q3 -2 3 -5q0 -4 -4 -8q-5 -6 -10 -6l-4 1l-112 55l-140 -55 q-2 -1 -4 -1q-4 0 -6 2q-3 2 -3 6q0 7 7 11l155 98q3 1 6 1t6 -1z" />
<glyph unicode="&#x135;" horiz-adv-x="307" d="M223 -55q-15 -60 -63 -105t-108 -45q-33 0 -60 14t-27 45q0 24 16 38t33 14q18 0 26.5 -10t8.5 -22q-1 -36 -36 -47q18 -10 40 -10q33 0 59 32.5t35 57.5t11 37l96 385q7 28 7 51q0 40 -27 40q-67 0 -117 -125q-3 -9 -5 -12t-4.5 -4t-9.5 -1q-15 0 -15 10q0 3 6 18.5 t19 38.5t30.5 44.5t43 37t53.5 15.5q40 0 63 -26.5t23 -63.5q0 -18 -5 -33zM425 536q2 -3 2 -5q0 -5 -5 -9q-5 -5 -9 -5q-3 0 -6 3l-98 99l-148 -99q-4 -3 -7 -3q-4 0 -7 5q-2 2 -2 5q0 5 5 9l166 144q4 4 8 4t7 -4z" />
<glyph unicode="&#x136;" horiz-adv-x="769" d="M709 19q0 -19 -17 -19q-14 0 -45 1.5t-46 1.5q-19 0 -56.5 -1.5t-55.5 -1.5q-14 0 -14 13q0 18 19 18q51 0 51 33q0 5 -6 20l-104 279l-139 -115l-35 -144q-13 -47 -13 -56q0 -6 2 -9t15.5 -5.5t40.5 -2.5q12 0 16.5 -0.5t7.5 -3.5t3 -9q0 -18 -19 -18t-59.5 1.5 t-60.5 1.5t-59.5 -1.5t-58.5 -1.5q-14 0 -14 12q0 13 6 16t21 3q49 0 62.5 7.5t19.5 34.5l135 543q4 14 4 19q0 11 -14 14t-44 3q-11 0 -15.5 0.5t-8 3t-3.5 8.5q0 19 19 19t59.5 -1.5t60.5 -1.5t59.5 1.5t58.5 1.5q14 0 14 -13q0 -12 -6 -15t-24 -3q-46 0 -59.5 -7.5 t-19.5 -32.5l-79 -319l352 293q33 27 33 46q0 18 -26 20q-14 0 -14 12q0 19 19 19q17 0 53 -1.5t54 -1.5q12 0 35.5 1.5t33.5 1.5q11 0 11 -12q0 -17 -18 -19q-65 -6 -157 -82l-184 -153l131 -347q9 -23 21 -30.5t39 -8.5q18 0 18 -12zM397 -110q0 -40 -24 -84.5t-49 -70 t-33 -25.5t-8 7q0 3 10 13q70 60 84 136q-15 -11 -31 -11q-33 0 -33 31q0 18 14 33t35 15q35 0 35 -44z" />
<glyph unicode="&#x137;" horiz-adv-x="460" d="M484 143q0 -3 -4 -19t-13 -41t-19 -42q-30 -52 -77 -52q-33 0 -58.5 24t-25.5 73q0 17 4 34q3 14 3 25q0 27 -18.5 46t-39 27t-43.5 11l-51 -203q-8 -37 -39 -37q-13 0 -20.5 8t-7.5 18q1 11 2 13l148 590q3 14 3 17q0 6 -2 9t-13.5 5.5t-34.5 2.5q-24 0 -24 11 q0 9 3.5 13.5t7.5 5.5t12 2l99 8q6 2 16 2q14 0 14 -12q-2 -10 -3 -13l-102 -408q26 12 45 30t63 69q70 82 130 82q31 0 47 -18.5t16 -41.5q0 -26 -15.5 -41t-34.5 -15q-18 0 -26.5 10t-8.5 22q0 7 2.5 15.5t14 20t30.5 14.5q-8 12 -27 12q-24 0 -49.5 -16.5t-41 -32.5 t-50.5 -56q-42 -48 -71 -66q133 -19 133 -104q0 -14 -5 -35q-8 -40 -8 -56q0 -43 29 -43q16 0 28.5 10.5t21.5 31t14.5 36.5t11.5 41q4 16 7 19.5t12 3.5q15 0 15 -10zM242 -110q0 -40 -24 -84.5t-49 -70t-33 -25.5t-8 7q0 3 10 13q70 60 84 136q-15 -11 -31 -11 q-33 0 -33 31q0 18 14 33t35 15q35 0 35 -44z" />
<glyph unicode="&#x139;" horiz-adv-x="627" d="M624 246l-4 -13l-76 -215q-5 -13 -9 -15.5t-20 -2.5h-428q-10 0 -14 0.5t-7.5 3t-3.5 8.5q0 13 6 16t21 3q49 0 62.5 7.5t19.5 34.5l135 543q4 14 4 19q0 11 -14 14t-44 3q-11 0 -15.5 0.5t-8 3t-3.5 8.5q0 19 19 19q20 0 61 -1.5t62 -1.5q23 0 69.5 1.5t68.5 1.5 q15 0 15 -12q0 -13 -6 -16t-22 -3h-10q-58 0 -73.5 -8.5t-22.5 -36.5l-136 -544q0 -1 -2 -9.5t-2 -12.5t1 -6t8 -3t22 -1h81q45 0 81 14t58 31.5t42 50t28.5 53t21.5 56.5q6 15 8.5 18.5t11.5 3.5q15 0 15 -12zM553 873q-3 -17 -25 -28l-180 -93q-9 -5 -14 -5h-1q-5 1 -9 7 q-4 5 -4 10q0 6 12 15l165 116q17 11 28 11q14 0 22 -10q6 -7 6 -18v-5z" />
<glyph unicode="&#x13a;" horiz-adv-x="256" d="M280 143q0 -2 -4 -19t-11.5 -42t-15.5 -41q-27 -52 -71 -52q-36 0 -60 25.5t-24 64.5q0 15 6 39l125 500q3 14 3 17q0 6 -2 9t-13.5 5.5t-34.5 2.5q-24 0 -24 11q0 9 3.5 13.5t7.5 5.5t12 2l99 8q6 2 16 2q14 0 14 -12q-2 -10 -3 -13l-143 -571q-6 -24 -6 -46 q0 -41 26 -41q37 0 64 112l7 25q3 5 14 5q15 0 15 -10zM486 884q-3 -17 -25 -28l-180 -93q-9 -5 -14 -5h-1q-5 1 -10 7q-3 5 -3 10q0 6 12 15l165 116q16 11 28 11q14 0 22 -9q6 -8 6 -19v-5z" />
<glyph unicode="&#x13b;" horiz-adv-x="627" d="M624 246l-4 -13l-76 -215q-5 -13 -9 -15.5t-20 -2.5h-428q-10 0 -14 0.5t-7.5 3t-3.5 8.5q0 13 6 16t21 3q49 0 62.5 7.5t19.5 34.5l135 543q4 14 4 19q0 11 -14 14t-44 3q-11 0 -15.5 0.5t-8 3t-3.5 8.5q0 19 19 19q20 0 61 -1.5t62 -1.5q23 0 69.5 1.5t68.5 1.5 q15 0 15 -12q0 -13 -6 -16t-22 -3h-10q-58 0 -73.5 -8.5t-22.5 -36.5l-136 -544q0 -1 -2 -9.5t-2 -12.5t1 -6t8 -3t22 -1h81q45 0 81 14t58 31.5t42 50t28.5 53t21.5 56.5q6 15 8.5 18.5t11.5 3.5q15 0 15 -12zM326 -110q0 -40 -24 -84.5t-49 -70t-33 -25.5t-8 7q0 3 10 13 q70 60 84 136q-15 -11 -31 -11q-33 0 -33 31q0 18 14 33t35 15q35 0 35 -44z" />
<glyph unicode="&#x13c;" horiz-adv-x="256" d="M280 143q0 -2 -4 -19t-11.5 -42t-15.5 -41q-27 -52 -71 -52q-36 0 -60 25.5t-24 64.5q0 15 6 39l125 500q3 14 3 17q0 6 -2 9t-13.5 5.5t-34.5 2.5q-24 0 -24 11q0 9 3.5 13.5t7.5 5.5t12 2l99 8q6 2 16 2q14 0 14 -12q-2 -10 -3 -13l-143 -571q-6 -24 -6 -46 q0 -41 26 -41q37 0 64 112l7 25q3 5 14 5q15 0 15 -10zM140 -110q0 -40 -24 -84.5t-49 -70t-33 -25.5t-8 7q0 3 10 13q70 60 84 136q-15 -11 -31 -11q-33 0 -33 31q0 18 14 33t35 15q35 0 35 -44z" />
<glyph unicode="&#x13d;" horiz-adv-x="627" d="M624 246l-4 -13l-76 -215q-5 -13 -9 -15.5t-20 -2.5h-428q-10 0 -14 0.5t-7.5 3t-3.5 8.5q0 13 6 16t21 3q49 0 62.5 7.5t19.5 34.5l135 543q4 14 4 19q0 11 -14 14t-44 3q-11 0 -15.5 0.5t-8 3t-3.5 8.5q0 19 19 19q20 0 61 -1.5t62 -1.5q23 0 69.5 1.5t68.5 1.5 q15 0 15 -12q0 -13 -6 -16t-22 -3h-10q-58 0 -73.5 -8.5t-22.5 -36.5l-136 -544q0 -1 -2 -9.5t-2 -12.5t1 -6t8 -3t22 -1h81q45 0 81 14t58 31.5t42 50t28.5 53t21.5 56.5q6 15 8.5 18.5t11.5 3.5q15 0 15 -12zM647 639q0 -40 -24 -84.5t-49 -70t-33 -25.5t-8 7q0 3 10 13 q70 60 84 136q-15 -11 -31 -11q-33 0 -33 31q0 18 14 33t35 15q35 0 35 -44z" />
<glyph unicode="&#x13e;" horiz-adv-x="256" d="M280 143q0 -2 -4 -19t-11.5 -42t-15.5 -41q-27 -52 -71 -52q-36 0 -60 25.5t-24 64.5q0 15 6 39l125 500q3 14 3 17q0 6 -2 9t-13.5 5.5t-34.5 2.5q-24 0 -24 11q0 9 3.5 13.5t7.5 5.5t12 2l99 8q6 2 16 2q14 0 14 -12q-2 -10 -3 -13l-143 -571q-6 -24 -6 -46 q0 -41 26 -41q37 0 64 112l7 25q3 5 14 5q15 0 15 -10zM417 650q0 -40 -24 -84.5t-49 -70t-33 -25.5t-8 7q0 3 10 13q70 60 84 136q-15 -11 -31 -11q-33 0 -33 31q0 18 14 33t35 15q35 0 35 -44z" />
<glyph unicode="&#x13f;" horiz-adv-x="627" d="M624 246l-4 -13l-76 -215q-5 -13 -9 -15.5t-20 -2.5h-428q-10 0 -14 0.5t-7.5 3t-3.5 8.5q0 13 6 16t21 3q49 0 62.5 7.5t19.5 34.5l135 543q4 14 4 19q0 11 -14 14t-44 3q-11 0 -15.5 0.5t-8 3t-3.5 8.5q0 19 19 19q20 0 61 -1.5t62 -1.5q23 0 69.5 1.5t68.5 1.5 q15 0 15 -12q0 -13 -6 -16t-22 -3h-10q-58 0 -73.5 -8.5t-22.5 -36.5l-136 -544q0 -1 -2 -9.5t-2 -12.5t1 -6t8 -3t22 -1h81q45 0 81 14t58 31.5t42 50t28.5 53t21.5 56.5q6 15 8.5 18.5t11.5 3.5q15 0 15 -12zM664 418q0 -24 -20 -43.5t-44 -19.5q-21 0 -33 12.5t-12 30.5 q0 24 20 43.5t44 19.5q21 0 33 -13t12 -30z" />
<glyph unicode="&#x140;" horiz-adv-x="256" d="M280 143q0 -2 -4 -19t-11.5 -42t-15.5 -41q-27 -52 -71 -52q-36 0 -60 25.5t-24 64.5q0 15 6 39l125 500q3 14 3 17q0 6 -2 9t-13.5 5.5t-34.5 2.5q-24 0 -24 11q0 9 3.5 13.5t7.5 5.5t12 2l99 8q6 2 16 2q14 0 14 -12q-2 -10 -3 -13l-143 -571q-6 -24 -6 -46 q0 -41 26 -41q37 0 64 112l7 25q3 5 14 5q15 0 15 -10zM378 379q0 -24 -20 -43.5t-44 -19.5q-21 0 -33 12.5t-12 30.5q0 24 20 43.5t44 19.5q21 0 33 -13t12 -30z" />
<glyph unicode="&#x141;" horiz-adv-x="627" d="M624 246l-4 -13l-76 -215q-5 -13 -9 -15.5t-20 -2.5h-428q-10 0 -14 0.5t-7.5 3t-3.5 8.5q0 13 6 16t21 3q49 0 62 7.5t20 34.5l56 226l-67 -54l-22 25l102 80l66 266l4 19q0 11 -14 14t-44 3q-11 0 -15.5 0.5t-8 3t-3.5 8.5q0 19 19 19q20 0 61 -1.5t62 -1.5 q23 0 69.5 1.5t68.5 1.5q15 0 15 -12q0 -13 -6 -16t-22 -3h-10q-58 0 -73.5 -8.5t-22.5 -36.5l-44 -175l133 105l20 -26l-165 -131l-80 -317q-4 -12 -4 -22q0 -4 1 -6t8 -3t22 -1h81q45 0 81 14t58 31.5t42 50t28.5 53t21.5 56.5q6 15 8.5 18.5t11.5 3.5q15 0 15 -12z" />
<glyph unicode="&#x142;" horiz-adv-x="319" d="M320 143q0 -2 -4 -19t-11.5 -42t-15.5 -41q-27 -52 -71 -52q-36 0 -60 25.5t-24 64.5q0 15 6 39l45 179l-58 -43l-16 20l84 64l70 280q3 14 3 17q0 6 -2 9t-13.5 5.5t-34.5 2.5q-24 0 -24 11q0 9 3.5 13.5t7.5 5.5t12 2l99 8q6 2 16 2q14 0 14 -12q-2 -10 -3 -13 l-69 -273l59 44l16 -21l-84 -63l-65 -258q-6 -24 -6 -46q0 -41 26 -41q37 0 64 112l7 25q3 5 14 5q15 0 15 -10z" />
<glyph unicode="&#x143;" horiz-adv-x="743" d="M852 670q0 -18 -15 -18q-85 -3 -101 -68l-140 -564q-2 -9 -5 -13.5t-6 -5.5t-9 -1q-10 0 -13 2.5t-7 14.5l-215 597l-129 -515q-4 -16 -4 -25q0 -8 1.5 -13.5t6.5 -12.5t18 -11.5t33 -5.5q19 0 19 -13q0 -18 -18 -18q-15 0 -48.5 1.5t-49.5 1.5t-48 -1.5t-47 -1.5 q-13 0 -13 12q0 19 19 19q80 3 97 70l132 530l3 13q0 8 -61 8q-11 0 -15.5 0.5t-8 3t-3.5 8.5q0 13 6 16t21 3h125q16 0 19.5 -2.5t8.5 -14.5l187 -520l110 439q4 16 4 24q0 41 -60 43q-18 0 -18 12q0 19 18 19q15 0 48 -1.5t49 -1.5t48.5 1.5t47.5 1.5q13 0 13 -13z M727 873q-3 -17 -25 -28l-180 -93q-9 -5 -14 -5h-1q-5 1 -9 7q-4 5 -4 10q0 6 12 15l165 116q17 11 28 11q14 0 22 -10q6 -7 6 -18v-5z" />
<glyph unicode="&#x144;" horiz-adv-x="562" d="M586 143q0 -3 -4 -18t-14 -38.5t-24 -45t-36.5 -37t-48.5 -15.5q-35 0 -55.5 23t-20.5 57q0 22 16 64q58 166 58 221q0 66 -46 66q-77 0 -135 -99q-17 -28 -30 -81q-2 -11 -8 -32.5t-8 -32.5l-40 -160q-10 -26 -36 -26q-14 0 -21 8t-7 18q0 5 3 14l75 300q7 28 7 51 q0 40 -26 40q-22 0 -37.5 -30t-30.5 -89q-4 -16 -6.5 -19.5t-12.5 -3.5q-15 0 -15 10q13 61 32 101q28 53 72 53q33 0 56 -21.5t28 -57.5q10 15 24.5 30t48 32t70.5 17q44 0 74 -24t30 -80q0 -61 -61 -223q-18 -54 -18 -75q0 -29 22 -29q56 0 93 125q3 12 5.5 14.5t11.5 2.5 q15 0 15 -10zM565 668q0 -19 -20 -32l-161 -123q-9 -8 -14 -8t-10.5 5.5t-5.5 11.5q0 5 10 15l142 142q17 17 31 17q10 0 19 -7.5t9 -20.5z" />
<glyph unicode="&#x145;" horiz-adv-x="743" d="M852 670q0 -18 -15 -18q-85 -3 -101 -68l-140 -564q-2 -9 -5 -13.5t-6 -5.5t-9 -1q-10 0 -13 2.5t-7 14.5l-215 597l-129 -515q-4 -16 -4 -25q0 -8 1.5 -13.5t6.5 -12.5t18 -11.5t33 -5.5q19 0 19 -13q0 -18 -18 -18q-15 0 -48.5 1.5t-49.5 1.5t-48 -1.5t-47 -1.5 q-13 0 -13 12q0 19 19 19q80 3 97 70l132 530l3 13q0 8 -61 8q-11 0 -15.5 0.5t-8 3t-3.5 8.5q0 13 6 16t21 3h125q16 0 19.5 -2.5t8.5 -14.5l187 -520l110 439q4 16 4 24q0 41 -60 43q-18 0 -18 12q0 19 18 19q15 0 48 -1.5t49 -1.5t48.5 1.5t47.5 1.5q13 0 13 -13z M384 -110q0 -40 -24 -84.5t-49 -70t-33 -25.5t-8 7q0 3 10 13q70 60 84 136q-15 -11 -31 -11q-33 0 -33 31q0 18 14 33t35 15q35 0 35 -44z" />
<glyph unicode="&#x146;" horiz-adv-x="562" d="M586 143q0 -3 -4 -18t-14 -38.5t-24 -45t-36.5 -37t-48.5 -15.5q-35 0 -55.5 23t-20.5 57q0 22 16 64q58 166 58 221q0 66 -46 66q-77 0 -135 -99q-17 -28 -30 -81q-2 -11 -8 -32.5t-8 -32.5l-40 -160q-10 -26 -36 -26q-14 0 -21 8t-7 18q0 5 3 14l75 300q7 28 7 51 q0 40 -26 40q-22 0 -37.5 -30t-30.5 -89q-4 -16 -6.5 -19.5t-12.5 -3.5q-15 0 -15 10q13 61 32 101q28 53 72 53q33 0 56 -21.5t28 -57.5q10 15 24.5 30t48 32t70.5 17q44 0 74 -24t30 -80q0 -61 -61 -223q-18 -54 -18 -75q0 -29 22 -29q56 0 93 125q3 12 5.5 14.5t11.5 2.5 q15 0 15 -10zM294 -110q0 -40 -24 -84.5t-49 -70t-33 -25.5t-8 7q0 3 10 13q70 60 84 136q-15 -11 -31 -11q-33 0 -33 31q0 18 14 33t35 15q35 0 35 -44z" />
<glyph unicode="&#x147;" horiz-adv-x="743" d="M852 670q0 -18 -15 -18q-85 -3 -101 -68l-140 -564q-2 -9 -5 -13.5t-6 -5.5t-9 -1q-10 0 -13 2.5t-7 14.5l-215 597l-129 -515q-4 -16 -4 -25q0 -8 1.5 -13.5t6.5 -12.5t18 -11.5t33 -5.5q19 0 19 -13q0 -18 -18 -18q-15 0 -48.5 1.5t-49.5 1.5t-48 -1.5t-47 -1.5 q-13 0 -13 12q0 19 19 19q80 3 97 70l132 530l3 13q0 8 -61 8q-11 0 -15.5 0.5t-8 3t-3.5 8.5q0 13 6 16t21 3h125q16 0 19.5 -2.5t8.5 -14.5l187 -520l110 439q4 16 4 24q0 41 -60 43q-18 0 -18 12q0 19 18 19q15 0 48 -1.5t49 -1.5t48.5 1.5t47.5 1.5q13 0 13 -13z M716 836l-155 -98q-3 -2 -6 -2t-6 2l-106 98q-3 2 -3 5q0 4 4 9q5 5 10 5l4 -1l112 -55l140 55q2 1 4 1q4 0 6 -2q3 -2 3 -6q0 -7 -7 -11z" />
<glyph unicode="&#x148;" horiz-adv-x="562" d="M586 143q0 -3 -4 -18t-14 -38.5t-24 -45t-36.5 -37t-48.5 -15.5q-35 0 -55.5 23t-20.5 57q0 22 16 64q58 166 58 221q0 66 -46 66q-77 0 -135 -99q-17 -28 -30 -81q-2 -11 -8 -32.5t-8 -32.5l-40 -160q-10 -26 -36 -26q-14 0 -21 8t-7 18q0 5 3 14l75 300q7 28 7 51 q0 40 -26 40q-22 0 -37.5 -30t-30.5 -89q-4 -16 -6.5 -19.5t-12.5 -3.5q-15 0 -15 10q13 61 32 101q28 53 72 53q33 0 56 -21.5t28 -57.5q10 15 24.5 30t48 32t70.5 17q44 0 74 -24t30 -80q0 -61 -61 -223q-18 -54 -18 -75q0 -29 22 -29q56 0 93 125q3 12 5.5 14.5t11.5 2.5 q15 0 15 -10zM586 665l-166 -144q-4 -3 -8 -3t-7 3l-94 144q-2 3 -2 5q0 5 5 10q5 4 9 4q3 0 6 -3l99 -99l147 99q4 3 7 3q4 0 7 -4q2 -3 2 -6q0 -5 -5 -9z" />
<glyph unicode="&#x14a;" horiz-adv-x="743" d="M796 342q-18 -70 -45.5 -133t-65.5 -116t-88.5 -84t-106.5 -31q-16 0 -25 11.5t-5 28.5q5 17 19.5 28.5t30.5 11.5q17 0 25.5 -12t4.5 -28v-2q26 11 48.5 37t37 53t31 75.5t23.5 76.5l22 84q16 64 18 122v16q0 49 -10 90q-13 48 -46.5 76.5t-85.5 28.5q-56 0 -110 -30 t-93 -81l-123 -493l-4 -22q0 -7 2 -10t16.5 -5.5t43.5 -2.5q12 0 16.5 -0.5t8 -3t3.5 -8.5q0 -19 -20 -19t-61.5 1.5t-62.5 1.5t-62 -1.5t-61 -1.5q-14 0 -14 13q0 12 6 15t24 3q49 0 63.5 7.5t20.5 33.5l136 544q3 9 3 19q0 11 -15 14t-48 3q-12 0 -16.5 0.5t-7.5 3.5t-3 9 q0 18 19 18q21 0 63 -1.5t62 -1.5t41 3l-16 -66q88 88 196 88q65 0 115 -30t75.5 -80.5t32.5 -116.5q2 -17 2 -35q0 -49 -14 -101z" />
<glyph unicode="&#x14b;" horiz-adv-x="498" d="M518 338q0 -41 -27.5 -120.5t-31.5 -93.5q-11 -45 -17.5 -69t-19 -66t-23 -65.5t-26.5 -54t-32.5 -46.5t-38.5 -27.5t-47 -11.5q-13 0 -20 9t-4 23q4 13 15.5 22.5t24.5 9.5q17 0 24 -16q41 48 102 292q3 10 31.5 98t28.5 132q0 66 -46 66q-77 0 -135 -99 q-17 -28 -30 -81q-2 -11 -8 -32.5t-8 -32.5l-40 -160q-10 -26 -36 -26q-14 0 -21 8t-7 18q0 5 3 14l75 300q7 28 7 51q0 40 -26 40q-22 0 -37.5 -30t-30.5 -89q-4 -16 -6.5 -19.5t-12.5 -3.5q-15 0 -15 10q13 61 32 101q28 53 72 53q33 0 56 -21.5t28 -57.5q10 15 24.5 30 t48 32t70.5 17q44 0 74 -24t30 -80z" />
<glyph unicode="&#x14c;" horiz-adv-x="767" d="M788 444q0 -117 -60.5 -226t-155.5 -174.5t-194 -65.5q-102 0 -166 72t-64 186q0 113 59.5 222.5t156 178t196.5 68.5q98 0 163 -70.5t65 -190.5zM703 486q0 95 -43.5 144.5t-106.5 49.5q-64 0 -127 -47t-104 -120q-46 -80 -65 -167.5t-19 -140.5q0 -90 39.5 -145.5 t107.5 -55.5q58 0 120 44.5t109 125.5q39 67 64 156t25 156zM742 775q0 -13 -6 -16t-21 -3h-280q-10 0 -14.5 0.5t-7.5 3.5t-3 9q0 12 6 14.5t21 2.5h280q25 0 25 -11z" />
<glyph unicode="&#x14d;" d="M509 278q0 -109 -79.5 -199t-173.5 -90q-64 0 -105 44.5t-41 120.5q0 109 79.5 198.5t173.5 89.5q65 0 105.5 -46t40.5 -118zM439 317q0 45 -20.5 74t-56.5 29q-31 0 -64 -23.5t-60 -67.5q-23 -39 -40.5 -107t-17.5 -108q0 -51 22 -77t54 -26q36 0 71 28.5t58 71.5 q22 42 38 106t16 100zM572 605q0 -13 -6 -16t-21 -3h-280q-10 0 -14.5 0.5t-7.5 3.5t-3 9q0 12 6 14.5t21 2.5h280q25 0 25 -11z" />
<glyph unicode="&#x14e;" horiz-adv-x="767" d="M788 444q0 -117 -60.5 -226t-155.5 -174.5t-194 -65.5q-102 0 -166 72t-64 186q0 113 59.5 222.5t156 178t196.5 68.5q98 0 163 -70.5t65 -190.5zM703 486q0 95 -43.5 144.5t-106.5 49.5q-64 0 -127 -47t-104 -120q-46 -80 -65 -167.5t-19 -140.5q0 -90 39.5 -145.5 t107.5 -55.5q58 0 120 44.5t109 125.5q39 67 64 156t25 156zM748 906q0 -18 -19.5 -54t-62.5 -71t-94 -35t-79 34.5t-28 83.5q0 52 17 52q11 0 11 -11q-5 -23 -5 -33q0 -38 23 -64t65 -26q41 0 85 31t63 89q5 14 13 14q11 0 11 -10z" />
<glyph unicode="&#x14f;" d="M509 278q0 -109 -79.5 -199t-173.5 -90q-64 0 -105 44.5t-41 120.5q0 109 79.5 198.5t173.5 89.5q65 0 105.5 -46t40.5 -118zM439 317q0 45 -20.5 74t-56.5 29q-31 0 -64 -23.5t-60 -67.5q-23 -39 -40.5 -107t-17.5 -108q0 -51 22 -77t54 -26q36 0 71 28.5t58 71.5 q22 42 38 106t16 100zM563 676q0 -18 -19.5 -54t-62.5 -71t-94 -35t-79 34.5t-28 83.5q0 52 17 52q11 0 11 -11q-5 -23 -5 -33q0 -38 23 -64t65 -26q41 0 85 31t63 89q5 14 13 14q11 0 11 -10z" />
<glyph unicode="&#x150;" horiz-adv-x="767" d="M788 444q0 -117 -60.5 -226t-155.5 -174.5t-194 -65.5q-102 0 -166 72t-64 186q0 113 59.5 222.5t156 178t196.5 68.5q98 0 163 -70.5t65 -190.5zM703 486q0 95 -43.5 144.5t-106.5 49.5q-64 0 -127 -47t-104 -120q-46 -80 -65 -167.5t-19 -140.5q0 -90 39.5 -145.5 t107.5 -55.5q58 0 120 44.5t109 125.5q39 67 64 156t25 156zM611 909q0 -11 -16 -30l-107 -124q-8 -9 -13 -9t-11.5 4t-6.5 11q0 2 7 14l84 138q14 23 34 23q12 0 20.5 -7.5t8.5 -19.5zM764 909q0 -11 -16 -30l-107 -124q-8 -9 -13 -9t-11.5 4t-6.5 11q0 2 7 14l84 138 q14 23 34 23q12 0 20.5 -7.5t8.5 -19.5z" />
<glyph unicode="&#x151;" d="M509 278q0 -109 -79.5 -199t-173.5 -90q-64 0 -105 44.5t-41 120.5q0 109 79.5 198.5t173.5 89.5q65 0 105.5 -46t40.5 -118zM439 317q0 45 -20.5 74t-56.5 29q-31 0 -64 -23.5t-60 -67.5q-23 -39 -40.5 -107t-17.5 -108q0 -51 22 -77t54 -26q36 0 71 28.5t58 71.5 q22 42 38 106t16 100zM423 669q0 -11 -16 -30l-107 -124q-8 -9 -13 -9t-11.5 4t-6.5 11q0 2 7 14l84 138q14 23 34 23q12 0 20.5 -7.5t8.5 -19.5zM576 669q0 -11 -16 -30l-107 -124q-8 -9 -13 -9t-11.5 4t-6.5 11q0 2 7 14l84 138q14 23 34 23q12 0 20.5 -7.5t8.5 -19.5z " />
<glyph unicode="&#x152;" horiz-adv-x="985" d="M994 247q-3 -10 -4 -12l-89 -219q-5 -11 -9 -13.5t-19 -2.5h-332q-31 0 -83 -12q-42 -10 -68 -10q-99 0 -163.5 71.5t-64.5 186.5q0 114 60 223.5t156 177.5t194 68q27 0 62 -10q48 -12 78 -12h314q12 0 16.5 -1t6.5 -6q1 -4 1 -11v-7l-23 -177q-1 -8 -1.5 -11.5 t-2.5 -6.5t-5 -4t-8 -1q-16 0 -16 12l2 13l6 65q0 65 -30 85q-27 19 -95 19h-103q-26 0 -34.5 -5t-14.5 -31l-61 -246h97q64 0 87.5 20.5t38.5 77.5q2 12 5 15.5t12 3.5q16 0 16 -12q0 -4 -3 -13l-55 -221q-3 -12 -6.5 -15.5t-11.5 -3.5q-16 0 -16 12l3 14q8 28 8 46 q0 24 -15.5 34.5t-65.5 10.5h-102l-69 -276q0 -1 -2 -9.5t-2 -12.5t1 -6t8 -3t22 -1h103q54 0 90.5 10.5t63 38t43 57t38.5 84.5q13 32 16 34q3 3 11 3q15 0 15 -11zM630 523q13 50 13 95q0 13 -1.5 20.5t-7.5 20t-23 18.5t-43 6q-72 0 -145.5 -64.5t-121.5 -173t-48 -225.5 q0 -98 39 -159t106 -61q63 0 91.5 39t55.5 146z" />
<glyph unicode="&#x153;" horiz-adv-x="716" d="M699 104q0 -6 -14.5 -24t-37.5 -38.5t-60 -36.5t-75 -16q-89 0 -126 99q-36 -51 -78 -75.5t-78 -24.5q-57 0 -89.5 45t-32.5 110q0 109 72.5 204.5t158.5 95.5q77 0 106 -88q8 10 25 26t61 38.5t88 22.5t72 -24t28 -61q0 -7 -2 -16.5t-8 -26t-22 -32t-39 -25.5 q-58 -26 -153 -26h-47q-15 -62 -15 -102q0 -45 19 -81.5t61 -36.5q34 0 76.5 22.5t80.5 76.5q9 10 13 10q6 0 11 -6t5 -10zM681 359q0 26 -16.5 43.5t-46.5 17.5q-13 0 -28 -4t-35 -15t-37.5 -29t-35 -48.5t-28.5 -70.5h27q200 0 200 106zM397 325q0 42 -14.5 69t-44.5 27 q-33 0 -63.5 -33.5t-49.5 -78.5q-15 -35 -32 -104.5t-17 -105.5q0 -12 2 -24t7 -28.5t17 -26.5t29 -10q18 0 37 10.5t33.5 27.5t23.5 30t15 24q22 42 39.5 111.5t17.5 111.5z" />
<glyph unicode="&#x154;" horiz-adv-x="729" d="M723 92q0 -9 -10 -33.5t-38 -52.5t-66 -28q-52 0 -88 27t-36 79q0 16 15 80q17 68 17 79q0 49 -27.5 68.5t-66.5 19.5h-108l-65 -263q-4 -14 -4 -20t2 -9t15.5 -5.5t40.5 -2.5q12 0 16.5 -0.5t7.5 -3.5t3 -9q0 -18 -19 -18q-20 0 -60 1.5t-59 1.5t-58 -1.5t-58 -1.5 q-14 0 -14 12q0 13 6 16t21 3q49 0 62.5 7.5t19.5 34.5l135 543q4 14 4 19q0 11 -14 14t-44 3q-11 0 -15.5 0.5t-8 3t-3.5 8.5q0 13 6 16t21 3h264q91 0 146 -43t55 -105q0 -59 -54.5 -114.5t-155.5 -81.5q39 -14 62.5 -44.5t23.5 -71.5q0 -27 -8 -88q-6 -52 -6 -76 q0 -19 2 -30t9.5 -20t21.5 -9q24 0 44.5 23.5t33.5 64.5q2 7 3 10t4.5 5t9.5 2q15 0 15 -13zM628 558q0 27 -11.5 46t-26 28t-40.5 14t-41.5 5.5t-42.5 0.5q-51 0 -58 -2q-15 -4 -22 -34l-65 -263h101q94 0 148 52q24 24 38.5 63t17 59t2.5 31zM720 873q-3 -17 -25 -28 l-180 -93q-9 -5 -14 -5h-1q-5 1 -10 7q-3 5 -3 10q0 6 12 15l165 116q16 11 28 11q14 0 22 -10q6 -7 6 -18v-5z" />
<glyph unicode="&#x155;" horiz-adv-x="422" d="M489 379q0 -26 -16 -39.5t-33 -13.5q-18 0 -26.5 10t-8.5 22q0 5 2 12.5t11 19t25 16.5q-20 14 -53 14q-24 0 -46.5 -14t-37 -31.5t-26.5 -39.5t-16 -32l-6 -15l-65 -262q-9 -37 -39 -37q-14 0 -21 8t-7 18q0 5 3 14l75 300q7 28 7 51q0 40 -26 40q-22 0 -37.5 -30 t-30.5 -89q-4 -16 -6.5 -19.5t-12.5 -3.5q-15 0 -15 10q13 61 32 101q28 53 72 53q28 0 51.5 -17.5t31.5 -54.5q52 72 121 72q35 0 66.5 -14.5t31.5 -48.5zM494 668q0 -19 -20 -32l-161 -123q-9 -8 -14 -8t-10.5 5.5t-5.5 11.5q0 5 10 15l142 142q17 17 31 17q10 0 19 -7.5 t9 -20.5z" />
<glyph unicode="&#x156;" horiz-adv-x="729" d="M723 92q0 -9 -10 -33.5t-38 -52.5t-66 -28q-52 0 -88 27t-36 79q0 16 15 80q17 68 17 79q0 49 -27.5 68.5t-66.5 19.5h-108l-65 -263q-4 -14 -4 -20t2 -9t15.5 -5.5t40.5 -2.5q12 0 16.5 -0.5t7.5 -3.5t3 -9q0 -18 -19 -18q-20 0 -60 1.5t-59 1.5t-58 -1.5t-58 -1.5 q-14 0 -14 12q0 13 6 16t21 3q49 0 62.5 7.5t19.5 34.5l135 543q4 14 4 19q0 11 -14 14t-44 3q-11 0 -15.5 0.5t-8 3t-3.5 8.5q0 13 6 16t21 3h264q91 0 146 -43t55 -105q0 -59 -54.5 -114.5t-155.5 -81.5q39 -14 62.5 -44.5t23.5 -71.5q0 -27 -8 -88q-6 -52 -6 -76 q0 -19 2 -30t9.5 -20t21.5 -9q24 0 44.5 23.5t33.5 64.5q2 7 3 10t4.5 5t9.5 2q15 0 15 -13zM628 558q0 27 -11.5 46t-26 28t-40.5 14t-41.5 5.5t-42.5 0.5q-51 0 -58 -2q-15 -4 -22 -34l-65 -263h101q94 0 148 52q24 24 38.5 63t17 59t2.5 31zM377 -110q0 -40 -24 -84.5 t-49 -70t-33 -25.5t-8 7q0 3 10 13q70 60 84 136q-15 -11 -31 -11q-33 0 -33 31q0 18 14 33t35 15q35 0 35 -44z" />
<glyph unicode="&#x157;" horiz-adv-x="422" d="M489 379q0 -26 -16 -39.5t-33 -13.5q-18 0 -26.5 10t-8.5 22q0 5 2 12.5t11 19t25 16.5q-20 14 -53 14q-24 0 -46.5 -14t-37 -31.5t-26.5 -39.5t-16 -32l-6 -15l-65 -262q-9 -37 -39 -37q-14 0 -21 8t-7 18q0 5 3 14l75 300q7 28 7 51q0 40 -26 40q-22 0 -37.5 -30 t-30.5 -89q-4 -16 -6.5 -19.5t-12.5 -3.5q-15 0 -15 10q13 61 32 101q28 53 72 53q28 0 51.5 -17.5t31.5 -54.5q52 72 121 72q35 0 66.5 -14.5t31.5 -48.5zM166 -110q0 -40 -24 -84.5t-49 -70t-33 -25.5t-8 7q0 3 10 13q70 60 84 136q-15 -11 -31 -11q-33 0 -33 31 q0 18 14 33t35 15q35 0 35 -44z" />
<glyph unicode="&#x158;" horiz-adv-x="729" d="M723 92q0 -9 -10 -33.5t-38 -52.5t-66 -28q-52 0 -88 27t-36 79q0 16 15 80q17 68 17 79q0 49 -27.5 68.5t-66.5 19.5h-108l-65 -263q-4 -14 -4 -20t2 -9t15.5 -5.5t40.5 -2.5q12 0 16.5 -0.5t7.5 -3.5t3 -9q0 -18 -19 -18q-20 0 -60 1.5t-59 1.5t-58 -1.5t-58 -1.5 q-14 0 -14 12q0 13 6 16t21 3q49 0 62.5 7.5t19.5 34.5l135 543q4 14 4 19q0 11 -14 14t-44 3q-11 0 -15.5 0.5t-8 3t-3.5 8.5q0 13 6 16t21 3h264q91 0 146 -43t55 -105q0 -59 -54.5 -114.5t-155.5 -81.5q39 -14 62.5 -44.5t23.5 -71.5q0 -27 -8 -88q-6 -52 -6 -76 q0 -19 2 -30t9.5 -20t21.5 -9q24 0 44.5 23.5t33.5 64.5q2 7 3 10t4.5 5t9.5 2q15 0 15 -13zM628 558q0 27 -11.5 46t-26 28t-40.5 14t-41.5 5.5t-42.5 0.5q-51 0 -58 -2q-15 -4 -22 -34l-65 -263h101q94 0 148 52q24 24 38.5 63t17 59t2.5 31zM709 836l-155 -98 q-3 -2 -6.5 -2t-5.5 2l-106 98q-3 2 -3 5q0 4 4 9q5 5 10 5l4 -1l112 -55l140 55q2 1 4 1q4 0 6 -2q3 -2 3 -6q0 -7 -7 -11z" />
<glyph unicode="&#x159;" horiz-adv-x="422" d="M489 379q0 -26 -16 -39.5t-33 -13.5q-18 0 -26.5 10t-8.5 22q0 5 2 12.5t11 19t25 16.5q-20 14 -53 14q-24 0 -46.5 -14t-37 -31.5t-26.5 -39.5t-16 -32l-6 -15l-65 -262q-9 -37 -39 -37q-14 0 -21 8t-7 18q0 5 3 14l75 300q7 28 7 51q0 40 -26 40q-22 0 -37.5 -30 t-30.5 -89q-4 -16 -6.5 -19.5t-12.5 -3.5q-15 0 -15 10q13 61 32 101q28 53 72 53q28 0 51.5 -17.5t31.5 -54.5q52 72 121 72q35 0 66.5 -14.5t31.5 -48.5zM515 665l-166 -144q-5 -3 -8.5 -3t-6.5 3l-94 144q-2 3 -2 5q0 5 6 10q4 4 8 4q3 0 6 -3l99 -99l147 99q4 3 7 3 q4 0 7 -4q2 -3 2 -6q0 -5 -5 -9z" />
<glyph unicode="&#x15a;" horiz-adv-x="562" d="M538 238q0 -97 -72 -178.5t-165 -81.5q-106 0 -153 69q-27 -36 -47 -57q-10 -12 -16 -12q-11 0 -11 10q0 2 3 13l52 209q3 11 6 14t12 3q15 0 15 -11l-1 -6q-8 -29 -8 -61q0 -72 43.5 -106t106.5 -34q65 0 116 60.5t51 130.5q0 44 -22 72q-12 13 -24.5 18.5t-52.5 17.5 l-49 14q-36 10 -43 13q-80 37 -80 132q0 88 71 163t161 75t130 -68l45 56q10 12 15 12q4 0 7 -2.5t4 -4.5v-3q0 -6 -2 -14l-52 -207q-3 -12 -6 -15t-12 -3q-15 0 -15 10l1 14q5 28 5 55q0 63 -28.5 102.5t-93.5 39.5q-63 0 -112.5 -54t-49.5 -117q0 -66 51 -88q11 -4 55 -16 q75 -22 94.5 -31t37.5 -31q33 -41 33 -102zM637 873q-3 -17 -25 -28l-180 -93q-9 -5 -14 -5h-1q-5 1 -9 7q-4 5 -4 10q0 6 12 15l165 116q17 11 28 11q14 0 22 -10q6 -7 6 -18v-5z" />
<glyph unicode="&#x15b;" horiz-adv-x="409" d="M393 157q0 -16 -5 -35.5t-18.5 -43.5t-33.5 -43.5t-54 -32.5t-77 -13q-55 0 -92 26.5t-37 70.5q0 31 15.5 46.5t35.5 15.5q16 0 25 -9t9 -23q0 -5 -1.5 -12.5t-14 -21t-35.5 -15.5q18 -56 96 -56q29 0 53 8.5t37.5 21.5t23 29t13 29t3.5 24q0 19 -7 32.5t-22 21.5 t-26.5 11.5t-33.5 8.5q-13 3 -21 5t-23.5 9.5t-24.5 17t-16.5 26.5t-7.5 39q0 50 40 99t118 49q48 0 77.5 -24.5t29.5 -60.5q0 -29 -13.5 -42t-29.5 -13t-23 8.5t-7 19.5t9.5 24.5t30.5 16.5q-14 49 -75 49q-52 0 -76.5 -32t-24.5 -60q0 -20 11.5 -32.5t22.5 -16.5t30 -8 q17 -4 28.5 -7t30.5 -12t30.5 -20t20.5 -30.5t9 -44.5zM488 668q0 -19 -20 -32l-161 -123q-9 -8 -14 -8t-10.5 5.5t-5.5 11.5q0 5 10 15l142 142q17 17 31 17q10 0 19 -7.5t9 -20.5z" />
<glyph unicode="&#x15c;" horiz-adv-x="562" d="M538 238q0 -97 -72 -178.5t-165 -81.5q-106 0 -153 69q-27 -36 -47 -57q-10 -12 -16 -12q-11 0 -11 10q0 2 3 13l52 209q3 11 6 14t12 3q15 0 15 -11l-1 -6q-8 -29 -8 -61q0 -72 43.5 -106t106.5 -34q65 0 116 60.5t51 130.5q0 44 -22 72q-12 13 -24.5 18.5t-52.5 17.5 l-49 14q-36 10 -43 13q-80 37 -80 132q0 88 71 163t161 75t130 -68l45 56q10 12 15 12q4 0 7 -2.5t4 -4.5v-3q0 -6 -2 -14l-52 -207q-3 -12 -6 -15t-12 -3q-15 0 -15 10l1 14q5 28 5 55q0 63 -28.5 102.5t-93.5 39.5q-63 0 -112.5 -54t-49.5 -117q0 -66 51 -88q11 -4 55 -16 q75 -22 94.5 -31t37.5 -31q33 -41 33 -102zM606 755q3 -2 3 -5q0 -4 -4 -8q-5 -6 -10 -6l-4 1l-112 55l-140 -55q-2 -1 -4 -1q-4 0 -6 2q-3 2 -3 6q0 7 7 11l155 98q4 1 7 1t5 -1z" />
<glyph unicode="&#x15d;" horiz-adv-x="409" d="M393 157q0 -16 -5 -35.5t-18.5 -43.5t-33.5 -43.5t-54 -32.5t-77 -13q-55 0 -92 26.5t-37 70.5q0 31 15.5 46.5t35.5 15.5q16 0 25 -9t9 -23q0 -5 -1.5 -12.5t-14 -21t-35.5 -15.5q18 -56 96 -56q29 0 53 8.5t37.5 21.5t23 29t13 29t3.5 24q0 19 -7 32.5t-22 21.5 t-26.5 11.5t-33.5 8.5q-13 3 -21 5t-23.5 9.5t-24.5 17t-16.5 26.5t-7.5 39q0 50 40 99t118 49q48 0 77.5 -24.5t29.5 -60.5q0 -29 -13.5 -42t-29.5 -13t-23 8.5t-7 19.5t9.5 24.5t30.5 16.5q-14 49 -75 49q-52 0 -76.5 -32t-24.5 -60q0 -20 11.5 -32.5t22.5 -16.5t30 -8 q17 -4 28.5 -7t30.5 -12t30.5 -20t20.5 -30.5t9 -44.5zM476 536q2 -3 2 -5q0 -5 -6 -9q-4 -5 -8 -5q-3 0 -6 3l-98 99l-148 -99q-4 -3 -7 -3q-4 0 -7 5q-2 2 -2 5q0 5 5 9l166 144q5 4 8.5 4t6.5 -4z" />
<glyph unicode="&#x15e;" horiz-adv-x="562" d="M538 238q0 -95 -69.5 -175.5t-160.5 -84.5l-8 -34q61 -12 61 -55q0 -83 -196 -83h-25q-13 0 -13 11t25 11h10q135 0 135 62q0 33 -48 37q-15 2 -15 13q0 7 11 44q-65 16 -97 63q-27 -36 -47 -57q-10 -12 -16 -12q-11 0 -11 10q0 2 3 13l52 209q3 11 6 14t12 3 q15 0 15 -11l-1 -6q-8 -29 -8 -61q0 -72 43.5 -106t106.5 -34q65 0 116 60.5t51 130.5q0 44 -22 72q-12 13 -24.5 18.5t-52.5 17.5l-49 14q-36 10 -43 13q-80 37 -80 132q0 88 71 163t161 75t130 -68l45 56q10 12 15 12q4 0 7 -2.5t4 -4.5v-3q0 -6 -2 -14l-52 -207 q-3 -12 -6 -15t-12 -3q-15 0 -15 10l1 14q5 28 5 55q0 63 -28.5 102.5t-93.5 39.5q-63 0 -112.5 -54t-49.5 -117q0 -66 51 -88q11 -4 55 -16q75 -22 94.5 -31t37.5 -31q33 -41 33 -102z" />
<glyph unicode="&#x15f;" horiz-adv-x="409" d="M393 157q0 -19 -7.5 -42.5t-24 -50.5t-49.5 -47.5t-77 -25.5l-11 -45q61 -12 61 -55q0 -83 -196 -83h-25q-13 0 -13 11t25 11h10q135 0 135 62q0 33 -48 37q-15 2 -15 13q0 1 2 10l5 20q3 13 5 20q-42 8 -68 32.5t-26 61.5q0 31 15.5 46.5t35.5 15.5q16 0 25 -9t9 -23 q0 -5 -1.5 -12.5t-14 -21t-35.5 -15.5q18 -56 96 -56q29 0 53 8.5t37.5 21.5t23 29t13 29t3.5 24q0 19 -7 32.5t-22 21.5t-26.5 11.5t-33.5 8.5q-13 3 -21 5t-23.5 9.5t-24.5 17t-16.5 26.5t-7.5 39q0 50 40 99t118 49q48 0 77.5 -24.5t29.5 -60.5q0 -29 -13.5 -42 t-29.5 -13t-23 8.5t-7 19.5t9.5 24.5t30.5 16.5q-14 49 -75 49q-52 0 -76.5 -32t-24.5 -60q0 -20 11.5 -32.5t22.5 -16.5t30 -8q17 -4 28.5 -7t30.5 -12t30.5 -20t20.5 -30.5t9 -44.5z" />
<glyph unicode="&#x160;" horiz-adv-x="562" d="M538 238q0 -97 -72 -178.5t-165 -81.5q-106 0 -153 69q-27 -36 -47 -57q-10 -12 -16 -12q-11 0 -11 10q0 2 3 13l52 209q3 11 6 14t12 3q15 0 15 -11l-1 -6q-8 -29 -8 -61q0 -72 43.5 -106t106.5 -34q65 0 116 60.5t51 130.5q0 44 -22 72q-12 13 -24.5 18.5t-52.5 17.5 l-49 14q-36 10 -43 13q-80 37 -80 132q0 88 71 163t161 75t130 -68l45 56q10 12 15 12q4 0 7 -2.5t4 -4.5v-3q0 -6 -2 -14l-52 -207q-3 -12 -6 -15t-12 -3q-15 0 -15 10l1 14q5 28 5 55q0 63 -28.5 102.5t-93.5 39.5q-63 0 -112.5 -54t-49.5 -117q0 -66 51 -88q11 -4 55 -16 q75 -22 94.5 -31t37.5 -31q33 -41 33 -102zM626 836l-155 -98q-4 -2 -6.5 -2t-5.5 2l-106 98q-3 2 -3 5q0 4 4 9q5 5 10 5l4 -1l112 -55l140 55q2 1 4 1q4 0 6 -2q3 -2 3 -6q0 -7 -7 -11z" />
<glyph unicode="&#x161;" horiz-adv-x="409" d="M393 157q0 -16 -5 -35.5t-18.5 -43.5t-33.5 -43.5t-54 -32.5t-77 -13q-55 0 -92 26.5t-37 70.5q0 31 15.5 46.5t35.5 15.5q16 0 25 -9t9 -23q0 -5 -1.5 -12.5t-14 -21t-35.5 -15.5q18 -56 96 -56q29 0 53 8.5t37.5 21.5t23 29t13 29t3.5 24q0 19 -7 32.5t-22 21.5 t-26.5 11.5t-33.5 8.5q-13 3 -21 5t-23.5 9.5t-24.5 17t-16.5 26.5t-7.5 39q0 50 40 99t118 49q48 0 77.5 -24.5t29.5 -60.5q0 -29 -13.5 -42t-29.5 -13t-23 8.5t-7 19.5t9.5 24.5t30.5 16.5q-14 49 -75 49q-52 0 -76.5 -32t-24.5 -60q0 -20 11.5 -32.5t22.5 -16.5t30 -8 q17 -4 28.5 -7t30.5 -12t30.5 -20t20.5 -30.5t9 -44.5zM509 665l-166 -144q-5 -3 -8.5 -3t-6.5 3l-94 144q-2 3 -2 5q0 5 6 10q4 4 8 4q3 0 6 -3l99 -99l147 99q4 3 7 3q4 0 7 -4q2 -3 2 -6q0 -5 -5 -9z" />
<glyph unicode="&#x162;" horiz-adv-x="716" d="M775 473q-2 -14 -5 -17.5t-13 -3.5q-15 0 -15 13q0 4 2 15q10 59 10 90q0 47 -24.5 61.5t-102.5 14.5q-44 0 -52 -2q-16 -2 -23 -33l-134 -538q-4 -14 -4 -19q0 -11 6 -15t27 -6q1 0 10 -0.5t21 -1t19 -0.5h15q25 0 25 -11q0 -20 -21 -20l-125 3l-13 -57q61 -12 61 -55 q0 -83 -196 -83h-25q-13 0 -13 11t25 11h10q135 0 135 62q0 33 -48 37q-15 2 -15 13q0 5 14 61l-122 -3q-17 0 -17 12q0 13 6.5 16t21.5 3h16q63 0 81 8.5t25 36.5l134 537q4 12 4 22q0 4 -1 6t-6 3.5t-16 1.5h-34q-97 0 -133 -28.5t-71 -133.5q-10 -26 -13 -29t-11 -3 q-15 0 -15 11q0 4 5 17l59 179q4 13 8.5 15.5t20.5 2.5h513q10 0 14 -0.5t7.5 -3t3.5 -8.5q0 -9 -1 -13z" />
<glyph unicode="&#x163;" horiz-adv-x="332" d="M356 143q0 -6 -12.5 -34.5t-43 -66t-66.5 -48.5l-11 -48q61 -12 61 -55q0 -83 -196 -83h-25q-13 0 -13 11t25 11h10q135 0 135 62q0 33 -48 37q-15 2 -15 13q0 3 12 54q-50 21 -50 83q0 14 5 34l72 287h-80q-10 0 -14 0.5t-7.5 3t-3.5 8.5q0 13 6.5 16t21.5 3h85l39 159 q10 36 39 36q27 0 27 -26q0 -7 -4 -21l-37 -148h80q10 0 14 -0.5t7.5 -3t3.5 -8.5q0 -13 -6.5 -16t-21.5 -3h-85l-74 -297q-7 -28 -7 -51q0 -41 27 -41q38 0 67.5 38t47.5 85q6 14 8.5 16.5t11.5 2.5q15 0 15 -10z" />
<glyph unicode="&#x164;" horiz-adv-x="716" d="M775 473q-2 -14 -5 -17.5t-13 -3.5q-15 0 -15 13q0 4 2 15q10 59 10 90q0 47 -24.5 61.5t-102.5 14.5q-44 0 -52 -2q-16 -2 -23 -33l-134 -538q-4 -14 -4 -19q0 -11 6 -15t27 -6q1 0 10 -0.5t21 -1t19 -0.5h15q25 0 25 -11q0 -20 -21 -20q-25 0 -78 1.5t-79 1.5 q-25 0 -77 -1.5t-78 -1.5q-17 0 -17 12q0 13 6.5 16t21.5 3h16q63 0 81 8.5t25 36.5l134 537q4 12 4 22q0 4 -1 6t-6 3.5t-16 1.5h-34q-97 0 -133 -28.5t-71 -133.5q-10 -26 -13 -29t-11 -3q-15 0 -15 11q0 4 5 17l59 179q4 13 8.5 15.5t20.5 2.5h513q10 0 14 -0.5t7.5 -3 t3.5 -8.5q0 -9 -1 -13zM702 836l-155 -98q-3 -2 -6 -2t-6 2l-106 98q-3 2 -3 5q0 4 4 9q5 5 10 5l4 -1l112 -55l140 55q2 1 4 1q4 0 6 -2q3 -2 3 -6q0 -7 -7 -11z" />
<glyph unicode="&#x165;" horiz-adv-x="332" d="M356 143q0 -3 -6 -18t-19 -38.5t-30 -45t-43 -37t-54 -15.5q-38 0 -61.5 26t-23.5 64q0 14 5 34l72 287h-80q-10 0 -14 0.5t-7.5 3t-3.5 8.5q0 13 6.5 16t21.5 3h85l39 159q10 36 39 36q27 0 27 -26q0 -7 -4 -21l-37 -148h80q10 0 14 -0.5t7.5 -3t3.5 -8.5 q0 -13 -6.5 -16t-21.5 -3h-85l-74 -297q-7 -28 -7 -51q0 -41 27 -41q38 0 67.5 38t47.5 85q6 14 8.5 16.5t11.5 2.5q15 0 15 -10zM440 645q0 -40 -24 -84.5t-49 -70t-33 -25.5t-8 7q0 3 10 13q70 60 84 136q-15 -11 -31 -11q-33 0 -33 31q0 18 14 33t35 15q35 0 35 -44z" />
<glyph unicode="&#x168;" horiz-adv-x="743" d="M852 670q0 -18 -15 -18q-85 -3 -101 -68l-91 -366q-22 -89 -98.5 -164.5t-166.5 -75.5q-74 0 -126 51t-52 137q0 32 8 64l96 386q4 14 4 19q0 11 -14 14t-44 3q-11 0 -15.5 0.5t-8 3t-3.5 8.5q0 19 19 19t59.5 -1.5t60.5 -1.5t59.5 1.5t58.5 1.5q14 0 14 -13 q0 -12 -6 -15t-24 -3q-46 0 -59.5 -7.5t-19.5 -32.5l-100 -402q-10 -44 -10 -76q0 -63 31.5 -94t75.5 -31q72 0 140.5 62.5t91.5 157.5l89 356q4 16 4 24q0 41 -60 43q-18 0 -18 12q0 19 18 19q15 0 47.5 -1.5t48.5 -1.5t47.5 1.5t46.5 1.5q13 0 13 -13zM753 826 q0 -10 -49 -50t-79 -40q-27 0 -51 39q-16 27 -32 27q-30 0 -89 -58q-9 -7 -13 -7q-11 0 -11 10q0 5 13.5 18.5t26.5 24.5l13 11q47 36 74 36q18 0 29 -10t25 -33t29 -23q19 0 51 24.5t39 33.5q7 7 13 7q11 0 11 -10z" />
<glyph unicode="&#x169;" horiz-adv-x="537" d="M561 143q-12 -60 -30 -98q-27 -56 -73 -56q-60 0 -80 60q-48 -60 -111 -60q-47 0 -79.5 28t-32.5 88q0 56 52 196q24 67 24 90q0 29 -22 29q-60 0 -93 -126q-3 -11 -6 -13.5t-12 -2.5q-15 0 -15 10q0 3 4 18t14.5 38.5t24 45t36.5 37t49 15.5q33 0 54.5 -22t21.5 -59 q0 -20 -13 -54q-58 -158 -58 -219q0 -77 54 -77q53 0 92 58q8 12 14 33l73 292q9 37 39 37q14 0 21 -8t7 -18q0 -5 -3 -14l-72 -288q-7 -28 -7 -51q0 -41 26 -41q37 0 67 119q4 16 7 19.5t12 3.5q15 0 15 -10zM581 640q0 -10 -49 -50t-79 -40q-27 0 -51 39q-16 27 -32 27 q-30 0 -89 -58q-9 -7 -13 -7q-11 0 -11 10q0 5 13.5 18.5t26.5 24.5l13 11q47 36 74 36q18 0 29 -10t25 -33t29 -23q19 0 51 24.5t39 33.5q7 7 13 7q11 0 11 -10z" />
<glyph unicode="&#x16a;" horiz-adv-x="743" d="M852 670q0 -18 -15 -18q-85 -3 -101 -68l-91 -366q-22 -89 -98.5 -164.5t-166.5 -75.5q-74 0 -126 51t-52 137q0 32 8 64l96 386q4 14 4 19q0 11 -14 14t-44 3q-11 0 -15.5 0.5t-8 3t-3.5 8.5q0 19 19 19t59.5 -1.5t60.5 -1.5t59.5 1.5t58.5 1.5q14 0 14 -13 q0 -12 -6 -15t-24 -3q-46 0 -59.5 -7.5t-19.5 -32.5l-100 -402q-10 -44 -10 -76q0 -63 31.5 -94t75.5 -31q72 0 140.5 62.5t91.5 157.5l89 356q4 16 4 24q0 41 -60 43q-18 0 -18 12q0 19 18 19q15 0 47.5 -1.5t48.5 -1.5t47.5 1.5t46.5 1.5q13 0 13 -13zM753 775 q0 -13 -6 -16t-21 -3h-280q-10 0 -14.5 0.5t-7.5 3.5t-3 9q0 12 6 14.5t21 2.5h280q25 0 25 -11z" />
<glyph unicode="&#x16b;" horiz-adv-x="537" d="M561 143q-12 -60 -30 -98q-27 -56 -73 -56q-60 0 -80 60q-48 -60 -111 -60q-47 0 -79.5 28t-32.5 88q0 56 52 196q24 67 24 90q0 29 -22 29q-60 0 -93 -126q-3 -11 -6 -13.5t-12 -2.5q-15 0 -15 10q0 3 4 18t14.5 38.5t24 45t36.5 37t49 15.5q33 0 54.5 -22t21.5 -59 q0 -20 -13 -54q-58 -158 -58 -219q0 -77 54 -77q53 0 92 58q8 12 14 33l73 292q9 37 39 37q14 0 21 -8t7 -18q0 -5 -3 -14l-72 -288q-7 -28 -7 -51q0 -41 26 -41q37 0 67 119q4 16 7 19.5t12 3.5q15 0 15 -10zM585 605q0 -13 -6 -16t-21 -3h-280q-10 0 -14.5 0.5t-7.5 3.5 t-3 9q0 12 6 14.5t21 2.5h280q25 0 25 -11z" />
<glyph unicode="&#x16c;" horiz-adv-x="743" d="M852 670q0 -18 -15 -18q-85 -3 -101 -68l-91 -366q-22 -89 -98.5 -164.5t-166.5 -75.5q-74 0 -126 51t-52 137q0 32 8 64l96 386q4 14 4 19q0 11 -14 14t-44 3q-11 0 -15.5 0.5t-8 3t-3.5 8.5q0 19 19 19t59.5 -1.5t60.5 -1.5t59.5 1.5t58.5 1.5q14 0 14 -13 q0 -12 -6 -15t-24 -3q-46 0 -59.5 -7.5t-19.5 -32.5l-100 -402q-10 -44 -10 -76q0 -63 31.5 -94t75.5 -31q72 0 140.5 62.5t91.5 157.5l89 356q4 16 4 24q0 41 -60 43q-18 0 -18 12q0 19 18 19q15 0 47.5 -1.5t48.5 -1.5t47.5 1.5t46.5 1.5q13 0 13 -13zM759 906 q0 -18 -19.5 -54t-62.5 -71t-94 -35t-79 34.5t-28 83.5q0 52 17 52q11 0 11 -11q-5 -23 -5 -33q0 -38 23 -64t65 -26q41 0 85 31t63 89q5 14 13 14q11 0 11 -10z" />
<glyph unicode="&#x16d;" horiz-adv-x="537" d="M561 143q-12 -60 -30 -98q-27 -56 -73 -56q-60 0 -80 60q-48 -60 -111 -60q-47 0 -79.5 28t-32.5 88q0 56 52 196q24 67 24 90q0 29 -22 29q-60 0 -93 -126q-3 -11 -6 -13.5t-12 -2.5q-15 0 -15 10q0 3 4 18t14.5 38.5t24 45t36.5 37t49 15.5q33 0 54.5 -22t21.5 -59 q0 -20 -13 -54q-58 -158 -58 -219q0 -77 54 -77q53 0 92 58q8 12 14 33l73 292q9 37 39 37q14 0 21 -8t7 -18q0 -5 -3 -14l-72 -288q-7 -28 -7 -51q0 -41 26 -41q37 0 67 119q4 16 7 19.5t12 3.5q15 0 15 -10zM576 676q0 -18 -19.5 -54t-62.5 -71t-94 -35t-79 34.5t-28 83.5 q0 52 17 52q11 0 11 -11q-5 -23 -5 -33q0 -38 23 -64t65 -26q41 0 85 31t63 89q5 14 13 14q11 0 11 -10z" />
<glyph unicode="&#x16e;" horiz-adv-x="743" d="M852 670q0 -18 -15 -18q-85 -3 -101 -68l-91 -366q-22 -89 -98.5 -164.5t-166.5 -75.5q-74 0 -126 51t-52 137q0 32 8 64l96 386q4 14 4 19q0 11 -14 14t-44 3q-11 0 -15.5 0.5t-8 3t-3.5 8.5q0 19 19 19t59.5 -1.5t60.5 -1.5t59.5 1.5t58.5 1.5q14 0 14 -13 q0 -12 -6 -15t-24 -3q-46 0 -59.5 -7.5t-19.5 -32.5l-100 -402q-10 -44 -10 -76q0 -63 31.5 -94t75.5 -31q72 0 140.5 62.5t91.5 157.5l89 356q4 16 4 24q0 41 -60 43q-18 0 -18 12q0 19 18 19q15 0 47.5 -1.5t48.5 -1.5t47.5 1.5t46.5 1.5q13 0 13 -13zM654 826 q0 36 -44 36q-32 0 -50 -20t-20 -40l-2 -21q0 -35 44 -35q57 0 70 63zM692 825q0 -42 -36.5 -75.5t-81.5 -33.5q-30 0 -52 17.5t-22 50.5q0 43 36.5 75.5t80.5 32.5q36 0 55.5 -20.5t19.5 -46.5z" />
<glyph unicode="&#x16f;" horiz-adv-x="537" d="M561 143q-12 -60 -30 -98q-27 -56 -73 -56q-60 0 -80 60q-48 -60 -111 -60q-47 0 -79.5 28t-32.5 88q0 56 52 196q24 67 24 90q0 29 -22 29q-60 0 -93 -126q-3 -11 -6 -13.5t-12 -2.5q-15 0 -15 10q0 3 4 18t14.5 38.5t24 45t36.5 37t49 15.5q33 0 54.5 -22t21.5 -59 q0 -20 -13 -54q-58 -158 -58 -219q0 -77 54 -77q53 0 92 58q8 12 14 33l73 292q9 37 39 37q14 0 21 -8t7 -18q0 -5 -3 -14l-72 -288q-7 -28 -7 -51q0 -41 26 -41q37 0 67 119q4 16 7 19.5t12 3.5q15 0 15 -10zM481 639q0 36 -44 36q-32 0 -50 -20.5t-20 -40.5l-2 -20 q0 -35 44 -35q57 0 70 63zM519 638q0 -42 -36.5 -75.5t-81.5 -33.5q-30 0 -52 17.5t-22 50.5q1 43 37 75.5t80 32.5q36 0 55.5 -20.5t19.5 -46.5z" />
<glyph unicode="&#x170;" horiz-adv-x="743" d="M852 670q0 -18 -15 -18q-85 -3 -101 -68l-91 -366q-22 -89 -98.5 -164.5t-166.5 -75.5q-74 0 -126 51t-52 137q0 32 8 64l96 386q4 14 4 19q0 11 -14 14t-44 3q-11 0 -15.5 0.5t-8 3t-3.5 8.5q0 19 19 19t59.5 -1.5t60.5 -1.5t59.5 1.5t58.5 1.5q14 0 14 -13 q0 -12 -6 -15t-24 -3q-46 0 -59.5 -7.5t-19.5 -32.5l-100 -402q-10 -44 -10 -76q0 -63 31.5 -94t75.5 -31q72 0 140.5 62.5t91.5 157.5l89 356q4 16 4 24q0 41 -60 43q-18 0 -18 12q0 19 18 19q15 0 47.5 -1.5t48.5 -1.5t47.5 1.5t46.5 1.5q13 0 13 -13zM622 909 q0 -11 -16 -30l-107 -124q-8 -9 -13 -9t-11.5 4t-6.5 11q0 2 7 14l84 138q14 23 34 23q12 0 20.5 -7.5t8.5 -19.5zM775 909q0 -11 -16 -30l-107 -124q-8 -9 -13 -9t-11.5 4t-6.5 11q0 2 7 14l84 138q14 23 34 23q12 0 20.5 -7.5t8.5 -19.5z" />
<glyph unicode="&#x171;" horiz-adv-x="537" d="M561 143q-12 -60 -30 -98q-27 -56 -73 -56q-60 0 -80 60q-48 -60 -111 -60q-47 0 -79.5 28t-32.5 88q0 56 52 196q24 67 24 90q0 29 -22 29q-60 0 -93 -126q-3 -11 -6 -13.5t-12 -2.5q-15 0 -15 10q0 3 4 18t14.5 38.5t24 45t36.5 37t49 15.5q33 0 54.5 -22t21.5 -59 q0 -20 -13 -54q-58 -158 -58 -219q0 -77 54 -77q53 0 92 58q8 12 14 33l73 292q9 37 39 37q14 0 21 -8t7 -18q0 -5 -3 -14l-72 -288q-7 -28 -7 -51q0 -41 26 -41q37 0 67 119q4 16 7 19.5t12 3.5q15 0 15 -10zM436 669q0 -11 -16 -30l-107 -124q-8 -9 -13 -9t-11.5 4 t-6.5 11q0 2 7 14l84 138q14 23 34 23q12 0 20.5 -7.5t8.5 -19.5zM589 669q0 -11 -16 -30l-107 -124q-8 -9 -13 -9t-11.5 4t-6.5 11q0 2 7 14l84 138q14 23 34 23q12 0 20.5 -7.5t8.5 -19.5z" />
<glyph unicode="&#x172;" horiz-adv-x="743" d="M852 670q0 -18 -15 -18q-85 -3 -101 -68l-91 -366q-22 -89 -98.5 -164.5t-166.5 -75.5h-10l-7 -5q-45 -31 -53 -68q-2 -7 -2 -14q0 -22 19 -37q24 -18 55 -18q52 0 89 56q5 8 12.5 5t3.5 -12q-21 -42 -61 -69t-78 -27q-47 0 -73 27q-20 21 -20 47q0 8 2 16q11 53 79 104 q-59 14 -96.5 62t-37.5 121q0 32 8 64l96 386q4 14 4 19q0 11 -14 14t-44 3q-11 0 -15.5 0.5t-8 3t-3.5 8.5q0 19 19 19t59.5 -1.5t60.5 -1.5t59.5 1.5t58.5 1.5q14 0 14 -13q0 -12 -6 -15t-24 -3q-46 0 -59.5 -7.5t-19.5 -32.5l-100 -402q-10 -44 -10 -76q0 -63 31.5 -94 t75.5 -31q72 0 140.5 62.5t91.5 157.5l89 356q4 16 4 24q0 41 -60 43q-18 0 -18 12q0 19 18 19q15 0 47.5 -1.5t48.5 -1.5t47.5 1.5t46.5 1.5q13 0 13 -13z" />
<glyph unicode="&#x173;" horiz-adv-x="537" d="M537 -115q-21 -42 -61 -69t-78 -27q-47 0 -73 27q-20 21 -20 47q0 8 2 16q13 63 105 123q-24 16 -34 47q-48 -60 -111 -60q-47 0 -79.5 28t-32.5 88q0 56 52 196q24 67 24 90q0 29 -22 29q-60 0 -93 -126q-3 -11 -6 -13.5t-12 -2.5q-15 0 -15 10q0 3 4 18t14.5 38.5 t24 45t36.5 37t49 15.5q33 0 54.5 -22t21.5 -59q0 -20 -13 -54q-58 -158 -58 -219q0 -77 54 -77q53 0 92 58q8 12 14 33l73 292q9 37 39 37q14 0 21 -8t7 -18q0 -5 -3 -14l-72 -288q-7 -28 -7 -51q0 -41 26 -41q37 0 67 119q4 16 7 19.5t12 3.5q15 0 15 -10q-12 -60 -30 -98 q-27 -56 -73 -56q-12 0 -19 2q-18 -12 -26 -18q-45 -31 -53 -68q-2 -7 -2 -14q0 -22 19 -37q24 -18 55 -18q52 0 89 56q5 8 12.5 5t3.5 -12z" />
<glyph unicode="&#x174;" horiz-adv-x="999" d="M1124 672q0 -19 -14 -20q-37 -3 -59 -19.5t-47 -62.5l-313 -574q-10 -18 -26 -18q-6 0 -9.5 1t-5.5 5t-2.5 7t-0.5 12l-22 498l-275 -503q-7 -12 -11 -16t-15 -4t-14 4.5t-4 20.5l-28 617q-1 14 -2.5 19.5t-11.5 9t-32 3.5q-24 0 -24 12q0 19 18 19q15 0 48.5 -1.5 t49.5 -1.5q18 0 56 1.5t57 1.5q14 0 14 -12q0 -13 -6 -16t-19 -3q-24 0 -38.5 -4t-19.5 -12.5t-6.5 -14t-0.5 -16.5l22 -489l233 428q6 10 6 20q-3 63 -4 67q-2 12 -10 16.5t-38 4.5q-21 0 -21 12q0 19 18 19q15 0 48.5 -1.5t49.5 -1.5q19 0 57 1.5t56 1.5q14 0 14 -11 q0 -9 -4 -14t-7 -5.5t-9 -0.5q-44 -1 -57.5 -11t-13.5 -26l1 -7l22 -492l253 466q11 20 11 32q0 35 -51 38q-16 0 -16 12q0 19 19 19q16 0 49.5 -1.5t49.5 -1.5q12 0 37 1.5t36 1.5t12 -11zM824 755q3 -2 3 -5q0 -4 -4 -8q-5 -6 -10 -6l-4 1l-112 55l-140 -55q-2 -1 -4 -1 q-4 0 -6 2q-3 2 -3 6q0 7 7 11l155 98q3 1 6.5 1t5.5 -1z" />
<glyph unicode="&#x175;" horiz-adv-x="664" d="M697 376q0 -40 -23 -132t-46 -143q-47 -112 -132 -112q-43 0 -72.5 17.5t-41.5 46.5q-38 -64 -97 -64t-94 31q-34 31 -34 92q0 53 50 189q24 67 24 90q0 29 -22 29q-60 0 -93 -126q-3 -11 -6 -13.5t-12 -2.5q-15 0 -15 10q0 3 4 18t14.5 38.5t24 45t36.5 37t49 15.5 q33 0 54.5 -22t21.5 -59q0 -20 -12 -53q-57 -151 -57 -210q0 -10 1.5 -20t7 -27.5t21.5 -28.5t40 -11q34 0 59 38.5t25 55.5q0 31 8 63l57 228q9 35 38 35q14 0 21 -8t7 -18q0 -7 -16 -66l-42 -168q-12 -48 -12 -77q0 -36 15.5 -59.5t50.5 -23.5q61 0 100 93q15 36 32 97 t17 89q0 50 -27 79q-13 15 -13 27q0 17 15.5 31.5t32.5 14.5q21 0 31 -18.5t10 -47.5zM604 536q2 -3 2 -5q0 -5 -6 -9q-4 -5 -8 -5q-3 0 -6 3l-98 99l-148 -99q-4 -3 -7 -3q-4 0 -7 5q-2 2 -2 5q0 5 5 9l166 144q5 4 8.5 4t6.5 -4z" />
<glyph unicode="&#x176;" horiz-adv-x="743" d="M874 672q0 -13 -4.5 -16t-14.5 -4q-37 -3 -68 -21.5t-65 -60.5l-236 -287q-6 -7 -12 -27l-31 -123q-19 -79 -19 -85q0 -11 14 -14t44 -3q11 0 15.5 -0.5t8 -3t3.5 -8.5q0 -19 -19 -19t-59 1.5t-60 1.5q-19 0 -58 -1.5t-58 -1.5q-14 0 -14 12q0 13 6 16t19 3q55 1 66.5 9 t21.5 50q46 175 46 183q0 5 -4 15l-106 334q-5 18 -17.5 24t-46.5 6q-24 0 -24 12q0 19 19 19q16 0 51.5 -1.5t52.5 -1.5q20 0 59 1.5t58 1.5q14 0 14 -12q0 -13 -5.5 -16t-16.5 -3q-56 0 -56 -24q0 -3 4 -13l95 -300l219 267l3 4l7 9l6.5 11t6 12t2.5 11q0 21 -31 23 q-15 0 -15 12q0 19 18 19q15 0 46 -1.5t47 -1.5q13 0 38.5 1.5t37.5 1.5q11 0 12 -11zM696 755q3 -2 3 -5q0 -4 -4 -8q-5 -6 -10 -6l-4 1l-112 55l-140 -55q-2 -1 -4 -1q-4 0 -6 2q-3 2 -3 6q0 7 7 11l155 98q3 1 6.5 1t5.5 -1z" />
<glyph unicode="&#x177;" horiz-adv-x="486" d="M415 -3q-20 -79 -83 -140.5t-137 -61.5q-42 0 -69 23.5t-27 62.5q0 25 11 40.5t21 18.5t19 3q14 0 24 -8.5t10 -23.5t-11 -30t-32 -18l-8 -3q0 -4 5 -13.5t20 -19.5t37 -10q46 0 91 48.5t71 160.5q-37 -37 -90 -37q-47 0 -79.5 28t-32.5 88q0 56 52 196q24 67 24 90 q0 29 -22 29q-60 0 -93 -126q-3 -11 -6 -13.5t-12 -2.5q-15 0 -15 10q0 3 4 18t14.5 38.5t24 45t36.5 37t49 15.5q33 0 54.5 -22t21.5 -59q0 -20 -13 -54q-58 -158 -58 -219q0 -77 54 -77q40 0 69.5 30.5t36.5 58.5l73 294q9 37 39 37q14 0 21 -8t7 -18q0 -2 -1.5 -6.5 t-1.5 -7.5zM514 536q2 -3 2 -5q0 -5 -6 -9q-4 -5 -8 -5q-3 0 -6 3l-98 99l-148 -99q-4 -3 -7 -3q-4 0 -7 5q-2 2 -2 5q0 5 5 9l166 144q5 4 8.5 4t6.5 -4z" />
<glyph unicode="&#x178;" horiz-adv-x="743" d="M874 672q0 -13 -4.5 -16t-14.5 -4q-37 -3 -68 -21.5t-65 -60.5l-236 -287q-6 -7 -12 -27l-31 -123q-19 -79 -19 -85q0 -11 14 -14t44 -3q11 0 15.5 -0.5t8 -3t3.5 -8.5q0 -19 -19 -19t-59 1.5t-60 1.5q-19 0 -58 -1.5t-58 -1.5q-14 0 -14 12q0 13 6 16t19 3q55 1 66.5 9 t21.5 50q46 175 46 183q0 5 -4 15l-106 334q-5 18 -17.5 24t-46.5 6q-24 0 -24 12q0 19 19 19q16 0 51.5 -1.5t52.5 -1.5q20 0 59 1.5t58 1.5q14 0 14 -12q0 -13 -5.5 -16t-16.5 -3q-56 0 -56 -24q0 -3 4 -13l95 -300l219 267l3 4l7 9l6.5 11t6 12t2.5 11q0 21 -31 23 q-15 0 -15 12q0 19 18 19q15 0 46 -1.5t47 -1.5q13 0 38.5 1.5t37.5 1.5q11 0 12 -11zM512 793q0 -22 -18 -39.5t-39 -17.5q-19 0 -30 11.5t-11 27.5q0 22 18 39.5t40 17.5q19 0 29.5 -11.5t10.5 -27.5zM721 793q0 -22 -18 -39.5t-39 -17.5q-19 0 -30 11.5t-11 27.5 q0 22 18 39.5t40 17.5q19 0 29.5 -11.5t10.5 -27.5z" />
<glyph unicode="&#x179;" horiz-adv-x="613" d="M605 255q-4 -14 -5 -16l-68 -221q-4 -13 -8 -15.5t-21 -2.5h-400q-23 0 -23 9q0 12 11 25l517 618h-140q-57 0 -97.5 -13.5t-65 -41.5t-38 -54t-26.5 -67q-2 -7 -3 -9t-3 -5t-4.5 -3.5t-7.5 -0.5q-15 0 -15 11q2 11 3 13l54 181q5 14 9 17t20 3h387h11q3 0 6.5 -1t4.5 -3 t1 -5q0 -12 -12 -26l-515 -614h147q51 0 89 11.5t61.5 27.5t42.5 47t28.5 55t23.5 67q6 18 9 21.5t11 3.5q16 0 16 -12zM662 873q-3 -17 -25 -28l-180 -93q-9 -5 -14 -5h-1q-5 1 -10 7q-3 5 -3 10q0 6 12 15l165 116q16 11 28 11q14 0 22 -10q6 -7 6 -18v-5z" />
<glyph unicode="&#x17a;" horiz-adv-x="409" d="M433 143q0 -16 -16.5 -50.5t-53.5 -69t-81 -34.5q-14 0 -26.5 6.5t-18.5 13t-17 19.5q-15 21 -24 28.5t-24 7.5q-13 0 -25 -6t-24.5 -20.5t-15.5 -19.5l-14 -20q-5 -9 -16 -9q-15 0 -15 10q0 9 33 55.5t71 83.5l164 163q10 10 40 44q-26 0 -59 15q-40 18 -60 18 q-26 0 -46.5 -14.5t-27.5 -32.5q-4 -9 -6.5 -11.5t-11.5 -2.5q-15 0 -15 11q0 25 34.5 69.5t82.5 44.5q32 0 61 -39q26 -36 47 -36q14 0 26.5 11.5t35.5 50.5q5 9 7.5 11t11.5 2q14 0 14 -10q0 -5 -14 -27.5t-40 -55.5t-53 -60l-145 -143q-21 -21 -56 -61q5 1 18 1 q23 0 62 -17q36 -16 56 -16q33 0 64.5 23.5t44.5 60.5q3 10 5.5 13t11.5 3q15 0 15 -10zM488 668q0 -19 -20 -32l-161 -123q-9 -8 -14 -8t-10.5 5.5t-5.5 11.5q0 5 10 15l142 142q17 17 31 17q10 0 19 -7.5t9 -20.5z" />
<glyph unicode="&#x17b;" horiz-adv-x="613" d="M605 255q-4 -14 -5 -16l-68 -221q-4 -13 -8 -15.5t-21 -2.5h-400q-23 0 -23 9q0 12 11 25l517 618h-140q-57 0 -97.5 -13.5t-65 -41.5t-38 -54t-26.5 -67q-2 -7 -3 -9t-3 -5t-4.5 -3.5t-7.5 -0.5q-15 0 -15 11q2 11 3 13l54 181q5 14 9 17t20 3h387h11q3 0 6.5 -1t4.5 -3 t1 -5q0 -12 -12 -26l-515 -614h147q51 0 89 11.5t61.5 27.5t42.5 47t28.5 55t23.5 67q6 18 9 21.5t11 3.5q16 0 16 -12zM564 821q0 -24 -20 -43.5t-44 -19.5q-21 0 -33 12.5t-12 30.5q0 24 20 43.5t44 19.5q21 0 33 -13t12 -30z" />
<glyph unicode="&#x17c;" horiz-adv-x="409" d="M433 143q0 -16 -16.5 -50.5t-53.5 -69t-81 -34.5q-14 0 -26.5 6.5t-18.5 13t-17 19.5q-15 21 -24 28.5t-24 7.5q-13 0 -25 -6t-24.5 -20.5t-15.5 -19.5l-14 -20q-5 -9 -16 -9q-15 0 -15 10q0 9 33 55.5t71 83.5l164 163q10 10 40 44q-26 0 -59 15q-40 18 -60 18 q-26 0 -46.5 -14.5t-27.5 -32.5q-4 -9 -6.5 -11.5t-11.5 -2.5q-15 0 -15 11q0 25 34.5 69.5t82.5 44.5q32 0 61 -39q26 -36 47 -36q14 0 26.5 11.5t35.5 50.5q5 9 7.5 11t11.5 2q14 0 14 -10q0 -5 -14 -27.5t-40 -55.5t-53 -60l-145 -143q-21 -21 -56 -61q5 1 18 1 q23 0 62 -17q36 -16 56 -16q33 0 64.5 23.5t44.5 60.5q3 10 5.5 13t11.5 3q15 0 15 -10zM409 611q0 -24 -20 -43.5t-44 -19.5q-21 0 -33 12.5t-12 30.5q0 24 20 43.5t44 19.5q21 0 33 -13t12 -30z" />
<glyph unicode="&#x17d;" horiz-adv-x="613" d="M605 255q-4 -14 -5 -16l-68 -221q-4 -13 -8 -15.5t-21 -2.5h-400q-23 0 -23 9q0 12 11 25l517 618h-140q-57 0 -97.5 -13.5t-65 -41.5t-38 -54t-26.5 -67q-2 -7 -3 -9t-3 -5t-4.5 -3.5t-7.5 -0.5q-15 0 -15 11q2 11 3 13l54 181q5 14 9 17t20 3h387h11q3 0 6.5 -1t4.5 -3 t1 -5q0 -12 -12 -26l-515 -614h147q51 0 89 11.5t61.5 27.5t42.5 47t28.5 55t23.5 67q6 18 9 21.5t11 3.5q16 0 16 -12zM651 836l-155 -98q-4 -2 -7 -2t-5 2l-106 98q-3 2 -3 5q0 4 4 9q5 5 10 5l4 -1l112 -55l140 55q2 1 4 1q4 0 6 -2q3 -2 3 -6q0 -7 -7 -11z" />
<glyph unicode="&#x17e;" horiz-adv-x="409" d="M433 143q0 -16 -16.5 -50.5t-53.5 -69t-81 -34.5q-14 0 -26.5 6.5t-18.5 13t-17 19.5q-15 21 -24 28.5t-24 7.5q-13 0 -25 -6t-24.5 -20.5t-15.5 -19.5l-14 -20q-5 -9 -16 -9q-15 0 -15 10q0 9 33 55.5t71 83.5l164 163q10 10 40 44q-26 0 -59 15q-40 18 -60 18 q-26 0 -46.5 -14.5t-27.5 -32.5q-4 -9 -6.5 -11.5t-11.5 -2.5q-15 0 -15 11q0 25 34.5 69.5t82.5 44.5q32 0 61 -39q26 -36 47 -36q14 0 26.5 11.5t35.5 50.5q5 9 7.5 11t11.5 2q14 0 14 -10q0 -5 -14 -27.5t-40 -55.5t-53 -60l-145 -143q-21 -21 -56 -61q5 1 18 1 q23 0 62 -17q36 -16 56 -16q33 0 64.5 23.5t44.5 60.5q3 10 5.5 13t11.5 3q15 0 15 -10zM509 665l-166 -144q-5 -3 -8.5 -3t-6.5 3l-94 144q-2 3 -2 5q0 5 6 10q4 4 8 4q3 0 6 -3l99 -99l147 99q4 3 7 3q4 0 7 -4q2 -3 2 -6q0 -5 -5 -9z" />
<glyph unicode="&#x17f;" horiz-adv-x="307" d="M452 639q0 -25 -15 -40t-35 -15q-14 0 -25.5 8.5t-8.5 23.5q11 43 44 49q-6 7 -16.5 11.5t-17.5 5.5l-8 1q-33 0 -55 -90l-108 -552l-5 -21q-5 -20 -8 -33t-11.5 -39t-16 -44t-20 -40t-25.5 -36t-30 -23.5t-36 -9.5q-31 0 -55.5 17.5t-24.5 48.5q0 25 15 40t35 15 q15 0 26.5 -8.5t7.5 -23.5q-11 -43 -44 -49q13 -18 40 -18q34 0 54 86l31 124l73 373h-62h-11q-4 0 -8 1t-5.5 3.5t-0.5 6.5q3 14 8.5 17t18.5 3h60l27 110q0 2 4 15l5 20q2 7 7 22t10 25.5t12.5 24t16.5 22.5t20 18t25 13t30 4q33 0 57.5 -17.5t24.5 -48.5z" />
<glyph unicode="&#x18e;" horiz-adv-x="678" d="M790 662q-5 -9 -11 -11t-23 -2q-27 0 -42 -2.5t-18 -5.5t-6 -9q-4 -8 -8 -23l-134 -536q-3 -11 -3 -19q0 -11 5 -16q10 -7 59 -7q15 0 18.5 -2.5t-0.5 -16.5q-6 -12 -31 -12h-479q-15 0 -18 2.5t-2 13.5l20 219l2 12q6 11 21 11q8 0 9.5 -3.5t-0.5 -20.5q-3 -39 -3 -71 q0 -24 2 -43q4 -45 39 -67t112 -22h122q32 0 36 10q2 4 4.5 12.5t2.5 9.5l69 275h-87q-47 0 -66 -10t-31 -33q-11 -25 -16 -51q-2 -8 -4 -11q-6 -12 -22 -12q-9 0 -10 3.5t2 16.5l55 220l4 13q6 12 22 12q9 0 10 -4t-3 -20q-8 -27 -8 -46q0 -17 7 -27q14 -20 73 -20h81 l62 246q5 25 0 29.5t-31 4.5h-125q-78 0 -117 -22.5t-66 -78.5q-11 -21 -27 -64q-6 -16 -7 -17q-6 -12 -21 -12q-10 0 -11 4.5t5 17.5l66 177q7 18 13.5 22t23.5 4h467q15 0 18 -2q2 -1 2 -4q0 -5 -2 -12z" />
<glyph unicode="&#x192;" horiz-adv-x="307" d="M452 639q0 -25 -15 -40t-35 -15q-13 0 -23.5 8.5t-10.5 23.5q0 17 11.5 31t32.5 18q-15 18 -42 18q-17 0 -29 -17t-16 -31.5t-10 -41.5l-32 -162h78q10 0 14.5 -0.5t7.5 -3.5t3 -9q0 -12 -6 -15t-21 -3h-82l-70 -359q-6 -29 -13.5 -56.5t-25.5 -77.5t-47.5 -81t-65.5 -31 q-31 0 -55.5 17.5t-24.5 48.5q0 25 15 40t35 15q13 0 23.5 -8.5t10.5 -23.5q0 -17 -11.5 -31t-32.5 -18q13 -18 40 -18q37 0 57 86q12 43 28 124l73 373h-62q-25 0 -25 11q0 14 6 17t21 3h66l21 110q34 164 130 164q33 0 57.5 -17.5t24.5 -48.5z" />
<glyph unicode="&#x1a0;" horiz-adv-x="767" d="M773 339q-39 -150 -154 -255q-114 -106 -242 -106q-62 0 -111.5 28t-78.5 78q-39 64 -39 152q0 52 13 103q39 153 155 259q115 107 243 107q90 0 150 -58q35 5 63 37q-2 -1 -8 -1q-20 0 -32 11.5t-12 30.5q0 24 19 43.5t46 20.5q19 0 30.5 -13.5t11.5 -33.5q0 -7 -2 -17 q-9 -36 -35 -64t-59 -38q12 -16 17 -25q38 -66 38 -153q0 -54 -13 -106zM682 355q19 78 19 132q0 57 -17 99t-51.5 68t-80.5 26q-93 0 -178 -94q-79 -88 -114 -231q-22 -86 -22 -151q0 -54 16 -99t49 -73t80 -28q95 0 180 101q82 96 119 250z" />
<glyph unicode="&#x1a1;" d="M583 472q-9 -37 -36 -65.5t-61 -36.5q22 -40 22 -92q0 -30 -8 -65q-24 -93 -95 -158q-71 -66 -151 -66q-81 0 -121 68q-24 42 -24 96q0 30 8 65q24 92 94 158q73 64 151 66q65 -2 106 -47q35 3 63 36q-1 0 -4 -0.5t-5 -0.5q-20 0 -31.5 12t-11.5 30q0 24 18.5 44t45.5 20 q19 0 30.5 -13.5t11.5 -33.5q0 -5 -2 -17zM422 218q16 62 16 99q0 26 -7 47q-18 55 -69 55q-53 0 -103 -58q-40 -50 -65 -148q-15 -60 -15 -99q0 -26 6 -47q18 -56 70 -56q54 0 102 59q41 49 65 148z" />
<glyph unicode="&#x1af;" horiz-adv-x="743" d="M871 721q-10 -43 -47 -74.5t-82 -36.5l-96 -385q-25 -100 -103 -174q-78 -73 -163 -73q-97 0 -147 75q-32 49 -32 112q0 30 8 65l97 389q3 11 3 18t-3 9q-13 7 -71 7h-3q-8 2 -8 11v2l2 9q2 8 11 8h3l122 -3l123 3h1q9 -2 9 -11l-1 -3l-2 -8q-2 -8 -11 -8q-60 0 -75 -7 q-12 -5 -20 -32l-97 -389q-13 -55 -13 -92q0 -40 12 -65q28 -60 94 -60q75 0 142 64q68 64 92 158l90 361q3 11 3 20q0 17 -9 26q-17 16 -58 16h-3q-9 2 -9 11l1 2l2 9q2 8 11 8h2q50 -3 98 -3q4 1 5 3q8 -2 8 -11v-3l-7 -29q41 8 71 44q-3 -1 -9 -1q-20 0 -32 11.5 t-12 30.5q0 24 18.5 43.5t45.5 20.5q20 0 31 -14t11 -34q0 -9 -3 -20z" />
<glyph unicode="&#x1b0;" horiz-adv-x="537" d="M560 141q-21 -81 -41.5 -116.5t-60.5 -35.5q-30 0 -51.5 16.5t-29.5 43.5q-46 -60 -110 -60q-71 0 -98 50q-15 29 -15 65q0 28 10 70q13 52 51 152q15 42 15 66q0 27 -21 27q-63 0 -97 -134q-2 -8 -9 -8h-11l-3 1q-7 2 -7 9v3q17 66 50 109t78 43q34 0 54.5 -23t20.5 -57 q0 -22 -7 -43q-38 -101 -51 -150q-12 -47 -12 -81q0 -19 5 -39q12 -38 48 -38q63 0 106 79q0 10 3 20l73 291q3 13 13.5 21t23.5 8q27 0 27 -25q0 -6 -1 -9l-1 -5q40 11 64 40q-5 -1 -8 -1q-20 0 -32 12t-12 30q0 24 19 44t46 20q19 0 30 -13.5t11 -34.5q0 -13 -2 -19 q-10 -41 -45 -71t-79 -38l-64 -255q-8 -32 -8 -55q0 -39 26 -39q23 0 38.5 31.5t33.5 103.5q2 7 9 7h11h3q7 -2 7 -10v-2z" />
<glyph unicode="&#x1cd;" horiz-adv-x="743" d="M692 18q0 -18 -18 -18q-17 0 -52 1.5t-53 1.5q-19 0 -58 -1.5t-57 -1.5q-15 0 -15 12q0 19 23 19q67 0 67 32l-11 166h-228l-72 -126q-14 -26 -14 -38q0 -27 42 -34q16 -2 16 -12q0 -19 -18 -19q-15 0 -46 1.5t-47 1.5q-13 0 -40.5 -1.5t-39.5 -1.5t-12 12q1 18 12 19 q17 1 28.5 3.5t28.5 9.5t33 24.5t31 44.5l332 585q10 18 26 18q12 0 14.5 -4t3.5 -21l43 -626q2 -21 11 -27.5t46 -6.5q10 0 14 -0.5t7 -3.5t3 -9zM516 260l-23 327l-186 -327h209zM716 836l-155 -98q-3 -2 -6 -2t-6 2l-106 98q-3 2 -3 5q0 4 4 9q5 5 10 5l4 -1l112 -55 l140 55q2 1 4 1q4 0 6 -2q3 -2 3 -6q0 -7 -7 -11z" />
<glyph unicode="&#x1ce;" d="M525 143q-12 -60 -30 -98q-27 -56 -73 -56q-29 0 -52 17.5t-31 52.5q-57 -70 -120 -70q-55 0 -88 44.5t-33 110.5q0 109 73 203.5t156 94.5q57 0 83 -59q8 39 40 39q27 0 27 -26q0 -7 -4 -21l-68 -272q-7 -28 -7 -51q0 -41 26 -41q37 0 67 119q4 16 7 19.5t12 3.5 q15 0 15 -10zM346 124l47 189l3 13q0 35 -19 64.5t-50 29.5q-30 0 -61.5 -32t-50.5 -79q-15 -35 -32 -104.5t-17 -104.5q0 -33 12 -61t43 -28q37 0 77.5 41.5t47.5 71.5zM560 665l-166 -144q-4 -3 -8 -3t-7 3l-94 144q-2 3 -2 5q0 5 5 10q5 4 9 4q3 0 6 -3l99 -99l147 99 q4 3 7 3q4 0 7 -4q2 -3 2 -6q0 -5 -5 -9z" />
<glyph unicode="&#x1cf;" horiz-adv-x="386" d="M338 19q0 -19 -20 -19t-61.5 1.5t-62.5 1.5t-62 -1.5t-61 -1.5q-14 0 -14 13q0 12 6 15t24 3q49 0 63.5 7.5t20.5 33.5l136 544q3 9 3 19q0 11 -15 14t-48 3q-12 0 -16.5 0.5t-7.5 3.5t-3 9q0 18 19 18q21 0 63 -1.5t62 -1.5q21 0 62 1.5t61 1.5q14 0 14 -12 q0 -13 -6.5 -16t-24.5 -3q-49 0 -63 -7.5t-20 -33.5l-135 -540l-4 -22q0 -7 2 -10t16.5 -5.5t43.5 -2.5q12 0 16.5 -0.5t8 -3t3.5 -8.5zM537 836l-155 -98q-4 -2 -7 -2t-5 2l-106 98q-3 2 -3 5q0 4 4 9q5 5 10 5l4 -1l112 -55l140 55q2 1 4 1q4 0 6 -2q3 -2 3 -6 q0 -7 -7 -11z" />
<glyph unicode="&#x1d0;" horiz-adv-x="307" d="M331 143q0 -3 -4 -17.5t-14 -38t-23.5 -45.5t-36.5 -37.5t-49 -15.5q-37 0 -56.5 24t-19.5 56q0 20 18 69l37 99l30 83q18 49 18 72q0 28 -22 28q-59 0 -93 -126q-3 -11 -6 -13.5t-12 -2.5q-15 0 -15 10q0 3 4 18t14 38.5t24 45t37 37t49 15.5q31 0 53 -20.5t22 -59.5 q0 -21 -12 -56l-64 -171q-26 -74 -26 -96q0 -28 22 -28q59 0 93 125q3 12 5.5 14.5t11.5 2.5q15 0 15 -10zM458 665l-166 -144q-4 -3 -8 -3t-7 3l-94 144q-2 3 -2 5q0 5 5 10q5 4 9 4q3 0 6 -3l99 -99l147 99q4 3 7 3q4 0 7 -4q2 -3 2 -6q0 -5 -5 -9z" />
<glyph unicode="&#x1d1;" horiz-adv-x="767" d="M788 444q0 -117 -60.5 -226t-155.5 -174.5t-194 -65.5q-102 0 -166 72t-64 186q0 113 59.5 222.5t156 178t196.5 68.5q98 0 163 -70.5t65 -190.5zM703 486q0 95 -43.5 144.5t-106.5 49.5q-64 0 -127 -47t-104 -120q-46 -80 -65 -167.5t-19 -140.5q0 -90 39.5 -145.5 t107.5 -55.5q58 0 120 44.5t109 125.5q39 67 64 156t25 156zM728 836l-155 -98q-3 -2 -6 -2t-6 2l-106 98q-3 2 -3 5q0 4 4 9q5 5 10 5l4 -1l112 -55l140 55q2 1 4 1q4 0 6 -2q3 -2 3 -6q0 -7 -7 -11z" />
<glyph unicode="&#x1d2;" d="M509 278q0 -109 -79.5 -199t-173.5 -90q-64 0 -105 44.5t-41 120.5q0 109 79.5 198.5t173.5 89.5q65 0 105.5 -46t40.5 -118zM439 317q0 45 -20.5 74t-56.5 29q-31 0 -64 -23.5t-60 -67.5q-23 -39 -40.5 -107t-17.5 -108q0 -51 22 -77t54 -26q36 0 71 28.5t58 71.5 q22 42 38 106t16 100zM560 665l-166 -144q-4 -3 -8 -3t-7 3l-94 144q-2 3 -2 5q0 5 5 10q5 4 9 4q3 0 6 -3l99 -99l147 99q4 3 7 3q4 0 7 -4q2 -3 2 -6q0 -5 -5 -9z" />
<glyph unicode="&#x1d3;" horiz-adv-x="743" d="M852 670q0 -18 -15 -18q-85 -3 -101 -68l-91 -366q-22 -89 -98.5 -164.5t-166.5 -75.5q-74 0 -126 51t-52 137q0 32 8 64l96 386q4 14 4 19q0 11 -14 14t-44 3q-11 0 -15.5 0.5t-8 3t-3.5 8.5q0 19 19 19t59.5 -1.5t60.5 -1.5t59.5 1.5t58.5 1.5q14 0 14 -13 q0 -12 -6 -15t-24 -3q-46 0 -59.5 -7.5t-19.5 -32.5l-100 -402q-10 -44 -10 -76q0 -63 31.5 -94t75.5 -31q72 0 140.5 62.5t91.5 157.5l89 356q4 16 4 24q0 41 -60 43q-18 0 -18 12q0 19 18 19q15 0 47.5 -1.5t48.5 -1.5t47.5 1.5t46.5 1.5q13 0 13 -13zM739 836l-155 -98 q-3 -2 -6.5 -2t-5.5 2l-106 98q-3 2 -3 5q0 4 4 9q5 5 10 5l4 -1l112 -55l140 55q2 1 4 1q4 0 6 -2q3 -2 3 -6q0 -7 -7 -11z" />
<glyph unicode="&#x1d4;" horiz-adv-x="537" d="M561 143q-12 -60 -30 -98q-27 -56 -73 -56q-60 0 -80 60q-48 -60 -111 -60q-47 0 -79.5 28t-32.5 88q0 56 52 196q24 67 24 90q0 29 -22 29q-60 0 -93 -126q-3 -11 -6 -13.5t-12 -2.5q-15 0 -15 10q0 3 4 18t14.5 38.5t24 45t36.5 37t49 15.5q33 0 54.5 -22t21.5 -59 q0 -20 -13 -54q-58 -158 -58 -219q0 -77 54 -77q53 0 92 58q8 12 14 33l73 292q9 37 39 37q14 0 21 -8t7 -18q0 -5 -3 -14l-72 -288q-7 -28 -7 -51q0 -41 26 -41q37 0 67 119q4 16 7 19.5t12 3.5q15 0 15 -10zM573 665l-166 -144q-5 -3 -8.5 -3t-6.5 3l-94 144q-2 3 -2 5 q0 5 6 10q4 4 8 4q3 0 6 -3l99 -99l147 99q4 3 7 3q4 0 7 -4q2 -3 2 -6q0 -5 -5 -9z" />
<glyph unicode="&#x1d7;" horiz-adv-x="743" d="M852 670q0 -18 -15 -18q-85 -3 -101 -68l-91 -366q-22 -89 -98.5 -164.5t-166.5 -75.5q-74 0 -126 51t-52 137q0 32 8 64l96 386q4 14 4 19q0 11 -14 14t-44 3q-11 0 -15.5 0.5t-8 3t-3.5 8.5q0 19 19 19t59.5 -1.5t60.5 -1.5t59.5 1.5t58.5 1.5q14 0 14 -13 q0 -12 -6 -15t-24 -3q-46 0 -59.5 -7.5t-19.5 -32.5l-100 -402q-10 -44 -10 -76q0 -63 31.5 -94t75.5 -31q72 0 140.5 62.5t91.5 157.5l89 356q4 16 4 24q0 41 -60 43q-18 0 -18 12q0 19 18 19q15 0 47.5 -1.5t48.5 -1.5t47.5 1.5t46.5 1.5q13 0 13 -13zM535 793 q0 -22 -18 -39.5t-39 -17.5q-19 0 -30 11.5t-11 27.5q0 22 18 39.5t40 17.5q19 0 29.5 -11.5t10.5 -27.5zM744 793q0 -22 -18 -39.5t-39 -17.5q-19 0 -30 11.5t-11 27.5q0 22 18 39.5t40 17.5q19 0 29.5 -11.5t10.5 -27.5zM787 1021q-3 -17 -25 -28l-180 -93q-9 -5 -14 -5 h-1q-5 1 -9 7q-4 5 -4 10q0 6 12 15l165 116q17 11 28 11q14 0 22 -10q6 -7 6 -18v-5z" />
<glyph unicode="&#x1d8;" horiz-adv-x="537" d="M561 143q-12 -60 -30 -98q-27 -56 -73 -56q-60 0 -80 60q-48 -60 -111 -60q-47 0 -79.5 28t-32.5 88q0 56 52 196q24 67 24 90q0 29 -22 29q-60 0 -93 -126q-3 -11 -6 -13.5t-12 -2.5q-15 0 -15 10q0 3 4 18t14.5 38.5t24 45t36.5 37t49 15.5q33 0 54.5 -22t21.5 -59 q0 -20 -13 -54q-58 -158 -58 -219q0 -77 54 -77q53 0 92 58q8 12 14 33l73 292q9 37 39 37q14 0 21 -8t7 -18q0 -5 -3 -14l-72 -288q-7 -28 -7 -51q0 -41 26 -41q37 0 67 119q4 16 7 19.5t12 3.5q15 0 15 -10zM379 610q0 -22 -18 -39.5t-39 -17.5q-19 0 -30 11.5t-11 27.5 q0 22 18 39.5t40 17.5q19 0 29.5 -11.5t10.5 -27.5zM556 610q0 -22 -18 -39.5t-39 -17.5q-19 0 -30 11.5t-11 27.5q0 22 18 39.5t40 17.5q19 0 29.5 -11.5t10.5 -27.5zM614 834q-3 -17 -25 -28l-180 -93q-9 -5 -14 -5h-1q-5 1 -10 7q-3 5 -3 10q0 6 12 15l165 116 q16 11 28 11q14 0 22 -9q6 -8 6 -19v-5z" />
<glyph unicode="&#x1d9;" horiz-adv-x="743" d="M852 670q0 -18 -15 -18q-85 -3 -101 -68l-91 -366q-22 -89 -98.5 -164.5t-166.5 -75.5q-74 0 -126 51t-52 137q0 32 8 64l96 386q4 14 4 19q0 11 -14 14t-44 3q-11 0 -15.5 0.5t-8 3t-3.5 8.5q0 19 19 19t59.5 -1.5t60.5 -1.5t59.5 1.5t58.5 1.5q14 0 14 -13 q0 -12 -6 -15t-24 -3q-46 0 -59.5 -7.5t-19.5 -32.5l-100 -402q-10 -44 -10 -76q0 -63 31.5 -94t75.5 -31q72 0 140.5 62.5t91.5 157.5l89 356q4 16 4 24q0 41 -60 43q-18 0 -18 12q0 19 18 19q15 0 47.5 -1.5t48.5 -1.5t47.5 1.5t46.5 1.5q13 0 13 -13zM535 793 q0 -22 -18 -39.5t-39 -17.5q-19 0 -30 11.5t-11 27.5q0 22 18 39.5t40 17.5q19 0 29.5 -11.5t10.5 -27.5zM744 793q0 -22 -18 -39.5t-39 -17.5q-19 0 -30 11.5t-11 27.5q0 22 18 39.5t40 17.5q19 0 29.5 -11.5t10.5 -27.5zM776 984l-155 -98q-3 -2 -6 -2t-6 2l-106 98 q-3 2 -3 5q0 4 4 9q5 5 10 5l4 -1l112 -55l140 55q2 1 4 1q4 0 6 -2q3 -2 3 -6q0 -7 -7 -11z" />
<glyph unicode="&#x1da;" horiz-adv-x="537" d="M561 143q-12 -60 -30 -98q-27 -56 -73 -56q-60 0 -80 60q-48 -60 -111 -60q-47 0 -79.5 28t-32.5 88q0 56 52 196q24 67 24 90q0 29 -22 29q-60 0 -93 -126q-3 -11 -6 -13.5t-12 -2.5q-15 0 -15 10q0 3 4 18t14.5 38.5t24 45t36.5 37t49 15.5q33 0 54.5 -22t21.5 -59 q0 -20 -13 -54q-58 -158 -58 -219q0 -77 54 -77q53 0 92 58q8 12 14 33l73 292q9 37 39 37q14 0 21 -8t7 -18q0 -5 -3 -14l-72 -288q-7 -28 -7 -51q0 -41 26 -41q37 0 67 119q4 16 7 19.5t12 3.5q15 0 15 -10zM379 610q0 -22 -18 -39.5t-39 -17.5q-19 0 -30 11.5t-11 27.5 q0 22 18 39.5t40 17.5q19 0 29.5 -11.5t10.5 -27.5zM556 610q0 -22 -18 -39.5t-39 -17.5q-19 0 -30 11.5t-11 27.5q0 22 18 39.5t40 17.5q19 0 29.5 -11.5t10.5 -27.5zM603 797l-155 -98q-4 -1 -7 -1t-5 1l-106 98q-3 2 -3 5q0 4 4 8q5 6 10 6l4 -1l112 -55l140 55q2 1 4 1 q4 0 6 -2q3 -2 3 -6q0 -7 -7 -11z" />
<glyph unicode="&#x1db;" horiz-adv-x="743" d="M852 670q0 -18 -15 -18q-85 -3 -101 -68l-91 -366q-22 -89 -98.5 -164.5t-166.5 -75.5q-74 0 -126 51t-52 137q0 32 8 64l96 386q4 14 4 19q0 11 -14 14t-44 3q-11 0 -15.5 0.5t-8 3t-3.5 8.5q0 19 19 19t59.5 -1.5t60.5 -1.5t59.5 1.5t58.5 1.5q14 0 14 -13 q0 -12 -6 -15t-24 -3q-46 0 -59.5 -7.5t-19.5 -32.5l-100 -402q-10 -44 -10 -76q0 -63 31.5 -94t75.5 -31q72 0 140.5 62.5t91.5 157.5l89 356q4 16 4 24q0 41 -60 43q-18 0 -18 12q0 19 18 19q15 0 47.5 -1.5t48.5 -1.5t47.5 1.5t46.5 1.5q13 0 13 -13zM535 793 q0 -22 -18 -39.5t-39 -17.5q-19 0 -30 11.5t-11 27.5q0 22 18 39.5t40 17.5q19 0 29.5 -11.5t10.5 -27.5zM744 793q0 -22 -18 -39.5t-39 -17.5q-19 0 -30 11.5t-11 27.5q0 22 18 39.5t40 17.5q19 0 29.5 -11.5t10.5 -27.5zM692 914q-2 -6 -9.5 -12t-13.5 -7h-1q-4 0 -11 5 l-134 93q-12 9 -12 21q0 3 1 7q4 14 17.5 23.5t27.5 9.5q11 0 22 -11l107 -116q6 -7 6 -13z" />
<glyph unicode="&#x1dc;" horiz-adv-x="537" d="M561 143q-12 -60 -30 -98q-27 -56 -73 -56q-60 0 -80 60q-48 -60 -111 -60q-47 0 -79.5 28t-32.5 88q0 56 52 196q24 67 24 90q0 29 -22 29q-60 0 -93 -126q-3 -11 -6 -13.5t-12 -2.5q-15 0 -15 10q0 3 4 18t14.5 38.5t24 45t36.5 37t49 15.5q33 0 54.5 -22t21.5 -59 q0 -20 -13 -54q-58 -158 -58 -219q0 -77 54 -77q53 0 92 58q8 12 14 33l73 292q9 37 39 37q14 0 21 -8t7 -18q0 -5 -3 -14l-72 -288q-7 -28 -7 -51q0 -41 26 -41q37 0 67 119q4 16 7 19.5t12 3.5q15 0 15 -10zM379 610q0 -22 -18 -39.5t-39 -17.5q-19 0 -30 11.5t-11 27.5 q0 22 18 39.5t40 17.5q19 0 29.5 -11.5t10.5 -27.5zM556 610q0 -22 -18 -39.5t-39 -17.5q-19 0 -30 11.5t-11 27.5q0 22 18 39.5t40 17.5q19 0 29.5 -11.5t10.5 -27.5zM519 727q-2 -6 -9.5 -12t-13.5 -7h-1q-4 0 -11 5l-134 93q-12 9 -12 21q0 3 1 7q4 14 17.5 23.5 t27.5 9.5q11 0 22 -11l107 -116q6 -7 6 -13z" />
<glyph unicode="&#x1dd;" horiz-adv-x="460" d="M499 267q0 -123 -80 -200.5t-168 -77.5q-46 0 -73.5 24.5t-27.5 60.5q0 5 0.5 10.5t4.5 19.5t11.5 26t24 25.5t38.5 22.5q56 22 145 22h39q17 66 17 110q0 25 -5 47t-23 42.5t-48 20.5q-17 0 -38.5 -3.5t-65 -28t-76.5 -66.5q-9 -11 -13 -11q-6 0 -11 6t-5 10 q0 10 24.5 36t76.5 52.5t110 26.5q68 0 105.5 -51.5t37.5 -123.5zM407 178h-21q-15 0 -27 -0.5t-38.5 -3t-46.5 -9.5t-41.5 -18t-33 -30.5t-11.5 -44.5q0 -26 17 -43.5t46 -17.5q7 0 16 1.5t30.5 10.5t39.5 25t38 50t32 80z" />
<glyph unicode="&#x1e6;" horiz-adv-x="774" d="M768 260q0 -12 -6 -15t-18 -3q-21 0 -32 -4t-13.5 -9.5t-6.5 -19.5l-48 -191q-5 -17 -12 -17q-8 0 -21.5 20t-20.5 40q-25 -32 -78 -57.5t-116 -25.5q-108 0 -177 73.5t-69 193.5q0 114 62 222t160 173t199 65q98 0 151 -85l63 74q4 5 8 7.5t6 2.5l2 1q4 0 7 -2.5t4 -4.5 v-3q0 -6 -2 -14l-61 -243q-3 -12 -6 -15t-12 -3q-15 0 -15 10q0 1 1 11l3 25q1 14 1 25q0 75 -34.5 129t-107.5 54q-60 0 -124 -35.5t-113 -102.5q-54 -74 -79.5 -170.5t-25.5 -157.5q0 -95 50.5 -147t126.5 -52q80 0 136 51q22 20 29.5 38.5t24.5 89.5q8 28 8 34 q0 7 -3.5 10.5t-8 4.5t-17.5 3q-26 2 -43 2h-8q-26 0 -26 11q0 20 21 20t65 -1.5t66 -1.5q16 0 49 1.5t48 1.5q13 0 13 -13zM731 836l-155 -98q-3 -2 -6.5 -2t-5.5 2l-106 98q-3 2 -3 5q0 4 4 9q5 5 10 5l4 -1l112 -55l140 55q2 1 4 1q4 0 6 -2q3 -2 3 -6q0 -7 -7 -11z" />
<glyph unicode="&#x1e7;" horiz-adv-x="460" d="M374 -63q-15 -60 -69.5 -101t-130.5 -41q-121 0 -121 58q0 26 16 39.5t33 13.5q18 0 26.5 -10t8.5 -22q0 -13 -9 -26.5t-23 -19.5q27 -11 71 -11q55 0 95 47q20 24 28 44t18 61l21 84q-53 -53 -106 -53q-55 0 -88.5 44t-33.5 109q0 106 71.5 197.5t155.5 91.5 q56 0 84 -57q3 19 15 28t24 9q27 0 27 -26q0 -6 -4 -21zM358 132l45 182l3 14q0 6 -2.5 18.5t-9 30t-21.5 30.5t-36 13q-28 0 -58.5 -28.5t-49.5 -70.5q-16 -37 -33.5 -107t-17.5 -105q0 -9 1.5 -19t6 -27.5t17 -29t31.5 -11.5q37 0 77 40.5t47 69.5zM548 665l-166 -144 q-4 -3 -8 -3t-7 3l-94 144q-2 3 -2 5q0 5 5 10q5 4 9 4q3 0 6 -3l99 -99l147 99q4 3 7 3q4 0 7 -4q2 -3 2 -6q0 -5 -5 -9z" />
<glyph unicode="&#x1ea;" horiz-adv-x="767" d="M788 444q0 -117 -60.5 -226t-155.5 -174.5t-194 -65.5h-4l-6 -5q-45 -31 -53 -68q-2 -7 -2 -14q0 -22 19 -37q24 -18 55 -18q52 0 89 56q5 8 12.5 5t3.5 -12q-21 -42 -61 -69t-78 -27q-47 0 -73 27q-20 21 -20 47q0 8 2 16q11 51 76 102q-86 14 -138 83.5t-52 171.5 q0 113 59.5 222.5t156 178t196.5 68.5q98 0 163 -70.5t65 -190.5zM703 486q0 95 -43.5 144.5t-106.5 49.5q-64 0 -127 -47t-104 -120q-46 -80 -65 -167.5t-19 -140.5q0 -90 39.5 -145.5t107.5 -55.5q58 0 120 44.5t109 125.5q39 67 64 156t25 156z" />
</font>
</defs>
</svg>
