<?xml version="1.0" standalone="no"?>
<!DOCTYPE svg PUBLIC "-//W3C//DTD SVG 1.1//EN" "http://www.w3.org/Graphics/SVG/1.1/DTD/svg11.dtd" >
<svg xmlns="http://www.w3.org/2000/svg">
<metadata>
This is a custom SVG webfont generated by Font Squirrel.
</metadata>
<defs>
<font id="webfont50jRE6Bx" horiz-adv-x="500" >
<font-face units-per-em="1000" ascent="806" descent="-194" />
<missing-glyph horiz-adv-x="333" />
<glyph unicode="IJ" horiz-adv-x="722" d="M183 0h-89l148 694h89zM670 149q-18 -82 -75 -126.5t-137 -44.5q-85 0 -162 42l30 75q19 -27 50.5 -41.5t65.5 -14.5q41 0 71 14.5t44 37t19.5 36t7.5 25.5l116 542h86z" />
<glyph unicode="ij" horiz-adv-x="482" d="M283 566h-89l19 89h89zM519 566h-89l19 89h89zM156 0h-75l94 444h75zM386 -59q-14 -67 -60 -106.5t-96 -39.5q-61 0 -112 34l28 61q26 -31 70 -31q78 0 94 73l108 512h75z" />
<glyph unicode="fk" horiz-adv-x="792" d="M376 386h-118l-82 -386h-75l82 386h-74l12 58h74l20 91q16 74 64.5 122t104.5 48q25 0 58 -11l-15 -67q-23 17 -56 17q-24 0 -46.5 -18t-31.5 -61l-26 -121h121zM771 0h-82l-108 224l-98 -83l-30 -141h-69l148 694h72l-98 -458l247 208h90l-204 -172z" />
<glyph unicode="&#xfb00;" horiz-adv-x="583" d="M480 627q-35 17 -77 17q-13 0 -26.5 -2.5t-32 -10t-32.5 -25t-19 -43.5l-26 -119h113l-12 -58h-110l-82 -386h-75l82 386h-74l12 58h74l20 90q16 74 73.5 122.5t128.5 48.5q34 0 78 -11zM757 627q-35 17 -77 17q-13 0 -26.5 -2.5t-32 -10t-32.5 -25t-19 -43.5l-26 -119 h113l-12 -58h-110l-82 -386h-75l114 534q16 74 73.5 122.5t128.5 48.5q34 0 78 -11z" />
<glyph unicode="&#xfb01;" horiz-adv-x="536" d="M587 612h-83l18 83h83zM453 0h-75l94 444h75zM376 386h-118l-82 -386h-75l82 386h-74l12 58h74l20 91q16 74 64.5 122t104.5 48q25 0 58 -11l-15 -68q-25 18 -56 18q-24 0 -46.5 -18t-31.5 -61l-26 -121h121z" />
<glyph unicode="&#xfb02;" horiz-adv-x="536" d="M376 386h-118l-82 -386h-75l82 386h-74l12 58h74l20 91q16 74 64.5 122t104.5 48q25 0 58 -11l-15 -67q-23 17 -56 17q-24 0 -46.5 -18t-31.5 -61l-26 -121h121zM453 0h-75l148 694h75z" />
<glyph unicode="&#xfb04;" horiz-adv-x="814" d="M452 627q-29 17 -66 17q-16 0 -32 -4.5t-35 -24t-26 -51.5l-26 -120h121l-12 -58h-118l-82 -386h-75l82 386h-74l12 58h74l20 90q16 75 68.5 123t116.5 48q36 0 67 -11zM731 0h-75l148 694h75zM654 386h-118l-82 -386h-75l114 535q16 74 64.5 122t104.5 48q25 0 58 -11 l-15 -67q-23 17 -56 17q-24 0 -46.5 -18t-31.5 -61l-26 -121h121z" />
<glyph unicode=" "  horiz-adv-x="333" />
<glyph unicode="&#x09;" horiz-adv-x="333" />
<glyph unicode="&#xa0;" horiz-adv-x="333" />
<glyph unicode="!" horiz-adv-x="319" d="M349 694l-110 -476l-9 -43h-67l9 43l94 476h83zM201 0h-83l18 83h83z" />
<glyph unicode="&#x22;" horiz-adv-x="434" d="M269 430h-78l61 286h78zM425 430h-78l61 286h78z" />
<glyph unicode="#" horiz-adv-x="833" d="M808 150q-4 -20 -37 -20h-225l-144 -300q-11 -24 -27 -24q-8 0 -13 6t-3 14q3 13 8 18l138 286h-188l-144 -300q-11 -24 -27 -24q-8 0 -13 6t-3 14q3 13 8 18l138 286h-159q-10 0 -15.5 0.5t-10.5 5.5q-4 4 -4 9q0 2 1 5q4 20 38 20h170l76 160h-212q-10 0 -16 0.5 t-11 5.5t-3 14q5 20 38 20h225l143 300q13 24 28 24q8 0 12.5 -6t2.5 -14q-3 -13 -8 -18l-137 -286h188l143 300q13 24 28 24q8 0 12.5 -6t2.5 -14q-3 -13 -8 -18l-137 -286h159q10 0 15.5 -0.5t10.5 -5.5q3 -3 3 -9q0 -2 -1 -5q-4 -20 -38 -20h-170l-76 -160h212 q10 0 16 -0.5t11 -5.5t3 -14zM601 330h-188l-76 -160h188z" />
<glyph unicode="$" d="M484 195q-15 -74 -73 -132.5t-134 -70.5l-10 -48h-58l10 46q-91 9 -163 68l27 68q57 -62 149 -72l57 268q-39 10 -66.5 29t-40 40t-17.5 46q-4 21 -4 36v7q1 17 4 33q14 65 68.5 120.5t136.5 69.5l10 47h58l-9 -46q74 -5 136 -55l-26 -66q-52 50 -124 57l-51 -241 q76 -16 106 -75q19 -40 19 -84q0 -22 -5 -45zM309 414l48 224q-45 -10 -76.5 -41.5t-39.5 -70.5q-3 -12 -3 -23q0 -23 11 -45q16 -32 60 -44zM409 182q3 15 3 28q0 28 -12 52q-18 35 -56 46l-53 -251q47 13 78 48.5t40 76.5z" />
<glyph unicode="%" horiz-adv-x="833" d="M449 548q-18 -85 -71 -143t-108 -58t-86 57q-18 36 -18 83q0 29 7 62q18 86 72 143.5t110 57.5q55 0 84 -58q18 -34 18 -80q0 -30 -8 -64zM814 730q-2 -7 -12 -18l-594 -752q-11 -16 -24 -16q-8 0 -12.5 6t-3.5 14l11 18l595 752q13 16 24 16q8 0 13 -6q4 -4 4 -10 q0 -2 -1 -4zM807 145q-18 -85 -71.5 -143t-108.5 -58t-85 58q-19 35 -19 83q0 28 7 61q18 86 72.5 143.5t110.5 57.5q54 0 83 -57q18 -36 18 -83q0 -29 -7 -62zM381 549q6 29 6 54q0 23 -5 43q-11 43 -40 43q-6 0 -12.5 -1.5t-18.5 -10t-22.5 -22.5t-22 -41.5t-19.5 -65.5 q-8 -39 -8 -67t4.5 -41.5t14 -21.5t14.5 -9t11 -1q29 0 57 41t41 100zM738 146q7 30 7 56q0 22 -5 42q-11 42 -40 42q-6 0 -12.5 -1.5t-18.5 -10t-22.5 -22.5t-22 -41.5t-19.5 -65.5q-8 -39 -8 -67t4.5 -41.5t13.5 -21.5t14 -9t11 -1q29 0 57.5 41.5t40.5 99.5z" />
<glyph unicode="&#x26;" horiz-adv-x="758" d="M700 -7q-64 -15 -120 -15q-85 0 -148 58q-116 -58 -212 -58q-78 0 -120 50q-31 36 -31 83q0 17 4 35q13 62 69 111q3 3 87 65l27 20l11 11q1 3 -1 10q-3 33 -3 63q0 50 9 92q18 83 68 140.5t112 57.5q57 0 83 -48q17 -32 17 -70q0 -19 -4 -39q-10 -47 -57 -97t-140 -119 q29 -109 109 -221q66 45 128 123q57 69 101 160l58 -18q-98 -198 -248 -308q44 -37 96 -37q58 0 119 18zM479 560q1 15 3 36v6q0 18 -9 34q-11 19 -35 19q-27 0 -55 -26t-39 -77l-2 -8q-1 -9 -2.5 -18.5t-2.5 -24.5t-1 -29q-1 -5 -1 -11q0 -10 1 -22q1 -18 4 -35 q63 48 97 84.5t42 71.5zM390 80q-8 10 -26 38t-44 79.5t-39 94.5q-2 -1 -22 -16l-37 -28q-18 -12 -18 -13q-41 -32 -51 -82q-3 -13 -3 -25q0 -28 14 -52q21 -34 71 -34q74 0 155 38z" />
<glyph unicode="'" horiz-adv-x="278" d="M269 430h-78l61 286h78z" />
<glyph unicode="(" horiz-adv-x="389" d="M279 -250h-61q-107 121 -107 314q0 86 21 186q36 163 108 286q33 56 75 105t62.5 66.5t52.5 42.5h61q-106 -87 -175 -209q-71 -126 -106 -291q-20 -92 -22 -172q-1 -20 -1 -38q0 -54 5 -92q8 -49 27 -94.5t31 -63.5t29 -40z" />
<glyph unicode=")" horiz-adv-x="389" d="M362 250q-32 -158 -108 -286q-33 -56 -75 -105t-62.5 -66.5t-52.5 -42.5h-61q108 89 175 209q71 126 106 291q20 92 22 172q1 20 1 38q0 54 -5 92q-8 49 -27 94.5t-31 63.5t-29 40h61q107 -121 107 -314q0 -86 -21 -186z" />
<glyph unicode="*" d="M528 436q-3 -17 -16.5 -26.5t-25.5 -9.5q-11 0 -29 16l-79 64q-14 -106 -22 -139q-3 -17 -15.5 -26t-26.5 -9q-12 0 -21 8.5t-6 26.5q3 15 19.5 73t18.5 66l-110 -67q-21 -13 -32 -13q-12 0 -21 10q-6 7 -6 18q0 4 1 8q3 13 9.5 19t23.5 14l121 59l-57 34l-37 22 q-11 7 -13 9q-12 9 -8 27q3 17 16 26.5t25 9.5t25 -11l83 -69q1 8 10 66t12 73q3 17 15.5 26t26.5 9q12 0 21.5 -8.5t5.5 -26.5q-7 -37 -38 -139l111 67q21 13 31 13q12 0 21 -10q7 -7 7 -18q0 -4 -1 -8q-3 -13 -9.5 -19t-23.5 -14l-122 -59l56 -34l38 -23q10 -6 13 -8 q12 -9 9 -27z" />
<glyph unicode="+" horiz-adv-x="778" d="M774 250q-4 -20 -37 -20h-279l-60 -280q-7 -33 -27 -33q-15 0 -15 18q0 6 2 15l60 280h-280q-10 0 -15.5 0.5t-10.5 5.5q-4 4 -4 9q0 2 1 5q4 20 37 20h280l60 280q7 33 27 33q15 0 15 -18q0 -6 -2 -15l-60 -280h279q10 0 15.5 -0.5t10.5 -5.5q4 -4 4 -9q0 -2 -1 -5z" />
<glyph unicode="," horiz-adv-x="278" d="M180 1l-69 -126h-41l52 125h-25l18 83h83z" />
<glyph unicode="-" horiz-adv-x="333" d="M317 193h-265l12 58h265z" />
<glyph unicode="." horiz-adv-x="278" d="M180 0h-83l18 83h83z" />
<glyph unicode="/" d="M598 730q-1 -5 -9 -18l-541 -942q-10 -20 -25 -20q-8 0 -13 6q-4 4 -4 10q0 2 1 4q1 5 9 18l541 942q10 20 25 20q8 0 13 -6q4 -4 4 -10q0 -2 -1 -4z" />
<glyph unicode="0" d="M526 326q-31 -151 -90 -238q-35 -52 -86 -81t-106 -29q-50 0 -91.5 28.5t-55.5 94.5q-5 27 -5 62q0 67 19 163q32 151 88 236q78 116 195 116q44 0 83.5 -23.5t56.5 -75.5q12 -39 12 -92q0 -68 -20 -161zM451 338q21 102 21 159q0 14 -1 26q-16 94 -91 94 q-80 0 -133 -101q-30 -57 -55 -178q-24 -110 -24 -172q0 -9 1 -17q3 -53 26.5 -81.5t62.5 -28.5q81 0 134 107q32 65 59 192z" />
<glyph unicode="1" d="M424 0h-329l12 58h125l111 520q-57 -22 -136 -24l12 58q132 5 204 66h20l-132 -620h125z" />
<glyph unicode="2" d="M449 0h-399l14 64l150 124l92 71q48 40 72 62t51.5 61t35.5 79q5 20 5 38q0 39 -20 69q-30 46 -97 46q-61 0 -99.5 -41t-72.5 -114q-3 6 -7 13t-6.5 11t-2.5 5q-1 2 -14 26q82 164 229 164q96 0 141 -63q32 -44 32 -101q0 -25 -6 -51q-8 -39 -33.5 -76.5t-45.5 -56 t-58 -50.5l-53 -39l-53 -39l-167 -132h109q6 0 18 0.5t18 0.5h182z" />
<glyph unicode="3" d="M495 180q-17 -81 -90.5 -141.5t-162.5 -60.5q-124 0 -183 104l24 60q22 -49 69 -76t101 -27q56 0 98.5 41t54.5 101q5 14 5 31q0 6 -1 12q-2 25 -9 47t-31.5 37.5t-62.5 15.5h-71l13 61q76 6 80 7q47 10 84 48.5t47 85.5q2 12 2 23q0 29 -17 47q-24 24 -66 24 q-48 0 -97 -28t-81 -78l-24 54q42 52 99.5 81t115.5 29q75 0 119 -44q34 -34 34 -80q0 -13 -3 -28q-11 -50 -49 -96.5t-99 -75.5q53 -17 84 -64q21 -32 21 -72q0 -18 -4 -38z" />
<glyph unicode="4" d="M507 171h-99l-36 -171h-79l36 171h-265l13 61l343 424h91l-90 -424h99zM348 232l81 380q-8 -37 -98 -156l-176 -224h193z" />
<glyph unicode="5" d="M492 203q-20 -94 -98.5 -159.5t-168.5 -65.5q-59 0 -103 27t-67 71l45 56q14 -41 51 -67t86 -26q8 0 18 1t34 10t43.5 24.5t40.5 49.5t31 81q8 37 8 65q0 35 -12 57q-22 39 -63 39q-78 0 -129 -79h-66l78 369h335l-13 -64h-263l-44 -206q55 41 116 41q78 0 119 -65 q29 -45 29 -101q0 -28 -7 -58z" />
<glyph unicode="6" d="M504 222q-13 -58 -35.5 -97.5t-65.5 -78.5q-74 -68 -157 -68q-28 0 -52.5 8.5t-49.5 31t-36.5 61t-14.5 99.5v16q0 55 17 128q34 157 134 256.5t209 99.5q55 0 102 -20l-13 -59q-48 21 -100 21q-72 0 -136.5 -62.5t-98.5 -178.5q84 83 186 83q70 0 101 -70q18 -43 18 -95 q0 -35 -8 -75zM422 222q9 40 9 70q0 27 -7 47q-20 62 -83 62q-59 0 -103.5 -47t-56.5 -107q-3 -8 -7 -28q-2 -14 -2 -25q-2 -25 -2 -40q0 -22 5 -38q5 -18 14 -37t27 -29.5t43 -10.5q64 0 113 62q34 42 50 121z" />
<glyph unicode="7" d="M583 591q-43 -39 -88 -91t-98 -128.5t-97 -176.5t-66 -206h-84q70 335 364 597h-121q-6 0 -18.5 -0.5t-18.5 -0.5h-190l15 71h415z" />
<glyph unicode="8" d="M495 180q-17 -81 -90 -141.5t-161 -60.5q-86 0 -134 60q-34 44 -34 100q0 20 4 42q14 62 63 108.5t111 66.5q-57 20 -78 61q-16 30 -16 61q0 13 3 26q15 71 82 123t149 52q80 0 126 -52q34 -39 34 -89q0 -16 -4 -34q-9 -45 -48.5 -86.5t-106.5 -61.5q53 -19 83 -65 q21 -32 21 -72q0 -18 -4 -38zM480 503q3 15 3 28q0 32 -18 55q-26 34 -84 34q-55 0 -96 -32.5t-52 -84.5q-3 -15 -3 -29q0 -33 18 -56q27 -33 84 -33q55 0 96 32.5t52 85.5zM414 181q5 23 5 43q0 40 -21 64q-30 36 -80 36q-48 0 -94.5 -35.5t-62.5 -107.5q-5 -23 -5 -42 q0 -38 19 -63q28 -37 83 -37q52 0 97 36.5t59 105.5z" />
<glyph unicode="9" d="M528 335q-33 -158 -129.5 -257.5t-198.5 -99.5q-70 0 -123 46l42 53q38 -38 95 -38q64 0 125 61.5t93 176.5q-85 -83 -187 -83q-70 0 -101 70q-18 43 -18 95q0 35 8 75q22 107 103 177q78 67 160 67q28 0 52.5 -8.5t47.5 -32t35.5 -60.5t12.5 -99.5t-17 -142.5zM458 411 q4 14 4 24q4 24 5 51v10q0 23 -3 49q-4 33 -24.5 54t-54.5 21q-61 0 -112 -57q-38 -43 -57 -129q-9 -42 -9 -73q0 -27 7 -46q21 -60 83 -60q57 0 102.5 46t58.5 110z" />
<glyph unicode=":" horiz-adv-x="278" d="M257 361h-83l17 83h83zM180 0h-83l18 83h83z" />
<glyph unicode=";" horiz-adv-x="278" d="M257 361h-83l17 83h83zM180 1l-69 -126h-41l52 125h-25l18 83h83z" />
<glyph unicode="&#x3c;" horiz-adv-x="778" d="M690 -20q-2 -8 -9.5 -14t-15.5 -6q-5 0 -16 7l-499 261q-14 8 -14 19q0 15 24 25l609 261q15 7 20 7q8 0 13 -6q4 -4 4 -10q0 -2 -1 -4q-3 -12 -24 -22l-578 -248l472 -248q17 -9 15 -22z" />
<glyph unicode="=" horiz-adv-x="778" d="M795 350q-4 -20 -38 -20h-597q-10 0 -16 0.5t-11 5.5t-3 14q5 20 38 20h599q10 0 15.5 -0.5t9.5 -5.5q4 -3 4 -9q0 -2 -1 -5zM753 150q-4 -20 -37 -20h-599q-10 0 -15.5 0.5t-10.5 5.5q-4 4 -4 9q0 2 1 5q4 20 38 20h597q10 0 16 -0.5t11 -5.5q4 -4 4 -9q0 -2 -1 -5z" />
<glyph unicode="&#x3e;" horiz-adv-x="778" d="M747 250q-2 -14 -24 -22l-609 -261q-15 -7 -20 -7q-8 0 -12 6q-4 4 -4 9q0 3 1 5q3 13 23 22l578 248l-472 248q-17 9 -14 22q4 20 24 20q5 0 16 -7l499 -261q17 -9 14 -22z" />
<glyph unicode="?" horiz-adv-x="472" d="M532 550q-15 -73 -83 -120q-59 -43 -96.5 -95.5t-48.5 -105.5l-12 -54h-67l7 32q36 171 171 268q42 32 51 76q3 15 3 27.5t-3 22.5q-6 20 -23 28.5t-32.5 11.5t-37.5 3q-85 0 -157 -55l-9 63q88 53 179 53q102 0 136 -47q26 -33 26 -75q0 -16 -4 -33zM263 0h-83l18 83h83 z" />
<glyph unicode="@" horiz-adv-x="667" d="M628 85q-41 -37 -104.5 -66.5t-137.5 -29.5q-136 0 -212 104q-53 73 -53 169q0 41 9 85q32 150 153 254t254 104q168 0 168 -194q0 -64 -18 -149q-14 -65 -43.5 -115t-64.5 -76t-67.5 -38.5t-60.5 -12.5q-75 0 -117 66q-27 43 -27 100q0 29 7 61q20 96 89 161.5t144 65.5 q44 0 79 -25q-14 95 -103 95q-101 0 -196 -85t-122 -212q-8 -39 -8 -74q0 -76 39 -136q56 -87 166 -87q73 0 152 31q9 4 26 4h48zM609 347q6 28 6 52q0 37 -13 66q-23 48 -68 48t-87.5 -48t-57.5 -118q-6 -28 -6 -53q0 -36 13 -65q22 -48 67 -48t88 48t58 118z" />
<glyph unicode="A" horiz-adv-x="667" d="M638 0h-92l-33 204h-291l-120 -204h-74l409 694h88zM503 260l-36 257q-11 84 -10 105h-1q-11 -28 -97 -181l-104 -181h248z" />
<glyph unicode="B" horiz-adv-x="667" d="M650 188q-16 -75 -99.5 -131.5t-189.5 -56.5h-264l148 694h237q105 0 166 -52q49 -42 49 -95q0 -13 -3 -27q-12 -55 -68 -97t-132 -60q79 -13 124 -62q35 -38 35 -85q0 -14 -3 -28zM615 519q2 9 2 17q0 39 -41 68q-51 34 -134 34h-126l-53 -247h116q97 0 161.5 39.5 t74.5 88.5zM569 189q3 12 3 23q0 44 -43 77q-53 41 -134 41h-145l-58 -274h153q81 0 146.5 38.5t77.5 94.5z" />
<glyph unicode="C" horiz-adv-x="639" d="M597 45q-67 -36 -105 -45q-40 -11 -106 -11q-133 0 -206 105q-50 73 -50 166q0 41 10 87q32 148 148 254q118 105 250 105q54 0 93 -8q43 -8 87 -28l-31 -82q-36 29 -75 42q-36 12 -88 12q-95 0 -183 -86q-86 -88 -112 -209q-9 -41 -9 -79q0 -72 33 -129q51 -86 146 -86 q66 0 104 12q39 11 102 49z" />
<glyph unicode="D" horiz-adv-x="722" d="M737 341q-30 -142 -140.5 -241.5t-237.5 -99.5h-263l148 694h262q128 0 196 -104q45 -70 45 -159q0 -43 -10 -90zM651 341q10 46 10 87q0 73 -33 127q-51 83 -157 83h-153l-124 -582h153q106 0 191.5 79.5t112.5 205.5z" />
<glyph unicode="E" horiz-adv-x="597" d="M554 0h-460l147 691h446l-14 -65h-183q-6 0 -18 0.5t-18 0.5h-138l-50 -237h330l-13 -61h-330l-55 -259h209q6 0 18 0.5t18 0.5h126z" />
<glyph unicode="F" horiz-adv-x="569" d="M659 626h-176q-6 0 -18 0.5t-18 0.5h-131l-53 -251h302l-13 -61h-302l-67 -315h-89l147 691h432z" />
<glyph unicode="G" horiz-adv-x="667" d="M606 38q-110 -49 -220 -49q-64 0 -118 28t-88 77q-50 73 -50 166q0 41 10 87q32 148 148 254q118 105 250 105q57 0 102 -11q49 -14 89 -39l-32 -82q-36 37 -77 52q-39 16 -96 16q-95 0 -183 -86q-86 -88 -112 -209q-9 -41 -9 -79q0 -72 33 -129q51 -86 146 -86 q69 0 137 21l35 165h-132l13 61h210z" />
<glyph unicode="H" horiz-adv-x="708" d="M613 0h-89l70 330h-341l-70 -330h-89l148 694h89l-65 -303h341l65 303h89z" />
<glyph unicode="I" horiz-adv-x="278" d="M183 0h-89l148 694h89z" />
<glyph unicode="J" horiz-adv-x="472" d="M420 149q-18 -82 -75 -126.5t-137 -44.5q-85 0 -162 42l30 75q19 -27 50.5 -41.5t65.5 -14.5q41 0 71 14.5t44 37t19.5 36t7.5 25.5l116 542h86z" />
<glyph unicode="K" horiz-adv-x="694" d="M651 0h-92l-168 364l-162 -137l-48 -227h-85l148 694h85l-79 -371l442 371h93l-327 -274z" />
<glyph unicode="L" horiz-adv-x="542" d="M499 0h-405l148 694h89l-134 -630h49l267 2z" />
<glyph unicode="M" horiz-adv-x="875" d="M774 0h-78l132 620l-1 1q-2 -4 -68 -124l-75 -127l-207 -348h-73l-66 389q-28 174 -27 209h-1l-132 -620h-78l148 694h113l15 -87l69 -414q9 -65 11 -100h1q23 51 148 262l203 339h114z" />
<glyph unicode="N" horiz-adv-x="708" d="M611 0h-124l-142 486l-38 137h-1l-132 -623h-78l148 694h124l141 -486l38 -137h1l133 623h78z" />
<glyph unicode="O" horiz-adv-x="736" d="M752 345q-32 -155 -147.5 -261t-242.5 -106q-125 0 -196 106q-48 71 -48 167q0 44 11 94q34 155 148.5 263t242.5 108q126 0 196 -108q47 -73 47 -168q0 -45 -11 -95zM667 360q10 47 10 88q0 71 -31 123q-49 81 -140 81q-89 0 -173 -80.5t-111 -211.5q-12 -55 -12 -102 q0 -73 28 -126q47 -89 139 -89q90 0 175 88t115 229z" />
<glyph unicode="P" horiz-adv-x="639" d="M687 492q-18 -84 -99 -143.5t-175 -59.5h-167l-61 -289h-89l148 694h249q101 0 156 -60q42 -46 42 -105q0 -18 -4 -37zM606 492q4 17 4 32q0 44 -30 74q-40 40 -121 40h-141l-62 -291h141q83 0 139.5 41.5t69.5 103.5z" />
<glyph unicode="Q" horiz-adv-x="736" d="M752 345q-18 -87 -70.5 -169.5t-141.5 -142.5l85 -158h-103l-60 121q-49 -18 -100 -18q-125 0 -196 106q-48 71 -48 167q0 44 11 94q34 155 148.5 263t242.5 108q126 0 196 -108q47 -73 47 -168q0 -45 -11 -95zM666 345q11 51 11 95q0 72 -30 126q-48 86 -141 86 q-91 0 -176.5 -86t-114.5 -221q-10 -49 -10 -91q0 -75 31 -128q49 -84 141 -84q13 0 27.5 2t22.5 4l8 3l-71 143h89l57 -105q124 95 156 256z" />
<glyph unicode="R" horiz-adv-x="646" d="M617 0h-89l-121 317h-158l-67 -317h-86l148 694h241q106 0 167 -56q48 -43 48 -100q0 -14 -3 -30q-13 -61 -69.5 -110t-139.5 -72zM616 508q3 12 3 24q0 39 -32 68q-41 38 -125 38h-144l-56 -260h144q85 0 141.5 37t68.5 93z" />
<glyph unicode="S" horiz-adv-x="556" d="M539 189q-18 -85 -95 -148t-174 -63q-121 0 -216 69l32 81q79 -81 198 -81q65 0 114 40t60 92q3 15 3 28q0 38 -25 65q-17 18 -34 25.5t-79 23.5q-50 13 -78.5 26.5t-51.5 44.5q-31 42 -31 91q0 18 4 36q17 78 92.5 137.5t175.5 59.5t173 -50l-32 -80q-64 64 -156 64 q-66 0 -113.5 -36t-57.5 -83q-3 -13 -3 -25q0 -33 21 -54q18 -18 34 -25.5t61 -18.5q72 -19 100.5 -33t53.5 -49q29 -41 29 -92q0 -22 -5 -45z" />
<glyph unicode="T" horiz-adv-x="681" d="M776 623h-134q-6 0 -17.5 0.5t-17.5 0.5h-89l-133 -624h-89l133 624h-90q-6 0 -18.5 -0.5t-18.5 -0.5h-134l14 65h608z" />
<glyph unicode="U" horiz-adv-x="688" d="M643 233q-23 -108 -111.5 -181.5t-190.5 -73.5q-103 0 -162 74q-42 52 -42 121q0 29 7 60l98 461h89l-99 -462q-7 -33 -7 -61q0 -52 25 -85q37 -52 104 -52q68 0 129 52t81 146l99 462h78z" />
<glyph unicode="V" horiz-adv-x="667" d="M800 694l-421 -694h-92l-125 694h93l77 -448q24 -143 23 -174h1q23 55 160 280l206 342h78z" />
<glyph unicode="W" horiz-adv-x="944" d="M1077 694l-351 -694h-87l-30 401q-9 121 -9 184q0 21 1 36h-1q-14 -43 -128 -274l-174 -347h-81l-55 694h86l21 -282l11 -167q4 -110 4 -150q0 -16 -1 -21h1q16 53 142 308l157 312h81l25 -341q13 -171 13 -244q0 -24 -1 -37h1q18 56 145 308l158 314h72z" />
<glyph unicode="X" horiz-adv-x="667" d="M652 0h-104l-157 306l-281 -306h-96l347 366l-185 328h104l138 -261l244 261h96l-311 -328z" />
<glyph unicode="Y" horiz-adv-x="667" d="M811 694l-376 -417l-59 -277h-86l59 278l-198 416h105l136 -290q1 -1 24 -57l81 95l22 26l204 226h88z" />
<glyph unicode="Z" horiz-adv-x="611" d="M560 0h-504l9 43l511 590h-136q-6 0 -18.5 -0.5t-18.5 -0.5h-200l14 62h485l-9 -41l-510 -589h32l263 2h96z" />
<glyph unicode="[" horiz-adv-x="289" d="M213 -250h-164l212 1000h164l-13 -61h-92l-186 -878h92z" />
<glyph unicode="\" d="M394 -230q-4 -20 -24 -20q-15 0 -17 22l-141 940l-1 18q5 20 24 20q14 0 18 -22l140 -940z" />
<glyph unicode="]" horiz-adv-x="289" d="M133 -250h-164l13 61h92l186 878h-92l13 61h164z" />
<glyph unicode="^" horiz-adv-x="556" d="M685 584l-17 -22l-245 123l-298 -123l-6 22l317 160z" />
<glyph unicode="_" horiz-adv-x="667" d="M632 -164h-667l17 78h667z" />
<glyph unicode="`" d="M432 527h-61l-114 167h78z" />
<glyph unicode="a" horiz-adv-x="481" d="M409 0h-75l8 36q-71 -47 -176 -47q-31 0 -52 13.5t-28 32.5t-10 41q-1 8 -1 15q0 12 3 22q14 63 99.5 96.5t205.5 35.5l9 43q5 21 5 38q0 27 -12 46q-19 30 -56 30q-80 0 -161 -50l8 66q84 43 166 43q70 0 107 -49q26 -33 26 -80q0 -20 -5 -43zM359 132l13 62 q-207 -10 -222 -79q-1 -6 -1 -11q0 -22 19 -36q24 -18 62 -18q47 0 82 19q38 19 47 63z" />
<glyph unicode="b" horiz-adv-x="517" d="M527 223q-21 -99 -90 -166.5t-145 -67.5q-73 0 -122 57l-10 -46h-78l148 694h75l-64 -298q85 59 174 59q69 0 101 -69q19 -41 19 -92q0 -33 -8 -71zM449 223q7 32 7 59q0 44 -20 70q-32 42 -85 42q-68 0 -120 -59l-47 -221q21 -64 84 -64q55 0 109 42.5t72 130.5z" />
<glyph unicode="c" horiz-adv-x="444" d="M424 40q-85 -51 -174 -51q-92 0 -140 69q-33 49 -33 110q0 26 6 54q20 94 96 166.5t175 72.5q46 0 76 -9t69 -34l-26 -65q-34 26 -62.5 35t-69.5 9q-73 0 -119 -52.5t-61 -121.5q-5 -26 -5 -48q0 -43 18 -74q28 -48 90 -48q87 0 168 54z" />
<glyph unicode="d" horiz-adv-x="517" d="M434 0h-78l11 52q-78 -63 -161 -63q-72 0 -108 67q-23 43 -23 98q0 32 8 68q21 97 87 165t140 68q79 0 134 -55l63 294h75zM386 139l42 200q-26 55 -85 55q-55 0 -109 -42t-73 -131q-7 -31 -7 -57q0 -44 20 -72q32 -42 86 -42q41 0 80 28q39 30 46 61z" />
<glyph unicode="e" horiz-adv-x="444" d="M461 219h-309q-4 -21 -4 -40q0 -47 23 -81q32 -48 92 -48q83 0 164 56l-8 -65q-84 -52 -170 -52q-90 0 -139 69q-33 48 -33 111q0 27 6 57q20 97 94 166t157 69q90 0 122 -73q15 -34 15 -81q0 -40 -10 -88zM415 274q1 10 1 19q0 50 -24 76q-27 31 -71 31q-43 0 -86 -35 t-67 -91h247z" />
<glyph unicode="f" horiz-adv-x="306" d="M480 627q-35 17 -77 17q-13 0 -26.5 -2.5t-32 -10t-32.5 -25t-19 -43.5l-26 -119h113l-12 -58h-110l-82 -386h-75l82 386h-74l12 58h74l20 90q16 74 73.5 122.5t128.5 48.5q34 0 78 -11z" />
<glyph unicode="g" d="M568 392q-40 3 -58 3q-12 0 -38 -2t-37 -2l-4 1q16 -29 16 -64q0 -17 -4 -36q-14 -67 -71 -115t-124 -48q-51 0 -84 29q-15 -15 -19 -36q-2 -8 -2 -16q0 -37 49 -37h88q177 0 180 -104q0 -17 -4 -35q-12 -57 -85 -96.5t-166 -39.5q-92 0 -148 40q-46 32 -46 76q0 9 2 19 q5 25 25.5 53.5t60.5 49.5q-13 21 -13 48q0 13 3 28q9 44 47 85q-16 29 -16 64q0 17 4 35q14 68 71.5 115.5t122.5 47.5q56 0 88 -32q81 32 165 32zM373 292q4 20 4 36q0 27 -13 44q-21 26 -58 26q-34 0 -67 -25t-45 -81q-4 -20 -4 -36q0 -29 14 -45q22 -25 57 -25 q37 0 68.5 26t43.5 80zM386 -72q1 6 1 12q0 16 -9 28q-14 15 -40.5 20.5t-41 7t-31.5 1.5h-90q-26 0 -45 -9t-28 -22t-13.5 -21.5t-5.5 -14.5v-1q-1 -5 -1 -10q0 -27 34 -46q39 -22 102 -22q62 0 111.5 22t56.5 55z" />
<glyph unicode="h" horiz-adv-x="517" d="M435 0h-78l62 291q4 20 4 35q0 68 -79 68q-52 0 -86.5 -45t-46.5 -104l-52 -245h-78l148 694h75l-67 -311q72 72 158 72q109 0 109 -102q0 -24 -6 -55z" />
<glyph unicode="i" horiz-adv-x="239" d="M156 0h-75l94 444h75zM284 566h-89l19 89h89z" />
<glyph unicode="j" horiz-adv-x="267" d="M171 -59q-14 -67 -60 -106.5t-96 -39.5q-61 0 -112 34l34 61q25 -31 67 -31q10 0 20.5 2t25.5 8.5t27 22.5t17 39l109 513h75zM304 566h-89l19 89h89z" />
<glyph unicode="k" horiz-adv-x="489" d="M471 0h-82l-108 224l-98 -83l-30 -141h-69l148 694h72l-98 -458l247 208h90l-204 -172z" />
<glyph unicode="l" horiz-adv-x="239" d="M156 0h-75l148 694h75z" />
<glyph unicode="m" horiz-adv-x="794" d="M713 0h-78l62 291q5 22 5 36q0 13 -5 29q-5 18 -24 28t-52 10q-51 0 -85.5 -45t-47.5 -104l-52 -245h-78l62 291q5 22 5 36q0 13 -5 29q-5 18 -24 28t-52 10q-51 0 -85.5 -45t-47.5 -104l-52 -245h-78l96 450h72l-16 -72q75 77 163 77q99 0 110 -82q74 82 167 82 q110 0 110 -100q0 -25 -7 -57z" />
<glyph unicode="n" horiz-adv-x="517" d="M435 0h-78l62 291q4 20 4 35q0 68 -79 68q-52 0 -86.5 -45t-46.5 -104l-52 -245h-78l96 450h72l-15 -71q9 11 25 24.5t56 32.5t80 19q109 0 109 -102q0 -24 -6 -55z" />
<glyph unicode="o" d="M516 220q-21 -97 -99.5 -164t-169.5 -67q-89 0 -140 67q-36 47 -36 110q0 25 6 54q21 99 100 170t171 71q90 0 140 -71q34 -49 34 -113q0 -27 -6 -57zM440 230q6 29 6 54q0 44 -21 72q-33 44 -91 44q-56 0 -107.5 -43t-69.5 -127q-6 -31 -6 -56q0 -46 20 -75 q32 -46 89 -46q59 0 110.5 46.5t69.5 130.5z" />
<glyph unicode="p" horiz-adv-x="517" d="M527 223q-21 -100 -90 -167t-144 -67q-74 0 -123 57l-51 -240h-78l135 638h75l-10 -49q83 60 177 60q70 0 100 -69q17 -41 17 -91q0 -34 -8 -72zM449 223q5 24 5 45q0 41 -19 74q-29 49 -86 49q-67 0 -118 -58l-43 -201q-1 -7 -1 -13q0 -12 4 -22q24 -47 76 -47 q58 0 112.5 49t69.5 124z" />
<glyph unicode="q" horiz-adv-x="517" d="M393 -194h-78l52 244q-80 -61 -164 -61q-71 0 -105 68q-22 43 -22 97q0 32 7 67q21 100 90.5 167t145.5 67q35 0 64.5 -15.5t40.5 -28.5t17 -24l15 68h75zM389 140l30 140q2 10 2 20q0 27 -13 54q-19 37 -66 37q-57 0 -111 -48t-70 -122q-5 -24 -5 -45q0 -42 19 -76 q29 -50 86 -50q61 0 111 57q12 12 17 33z" />
<glyph unicode="r" horiz-adv-x="342" d="M409 388q-74 -2 -132.5 -50.5t-74.5 -123.5l-45 -214h-75l96 450h70l-20 -91q84 95 196 96z" />
<glyph unicode="s" horiz-adv-x="383" d="M387 128q-15 -71 -71 -107q-49 -32 -122 -32q-79 0 -159 44l26 68q65 -49 145 -49q94 0 109 69q2 8 2 14q0 10 -4 19q-6 13 -21 20.5t-26.5 11t-29.5 7.5q-33 7 -45.5 10t-27 9.5t-27.5 17.5q-36 32 -36 76q0 12 3 24q7 31 22 55t36 37.5t40 22t41.5 11.5t32.5 4t22 1 q74 0 137 -32l-26 -65q-55 38 -134 38q-85 0 -98 -62q-4 -18 1 -30t20 -19.5t27.5 -11.5t37.5 -9q41 -8 62.5 -17t43.5 -33l4 -6q3 -5 6.5 -12t7 -19t4 -25t-2.5 -30z" />
<glyph unicode="t" horiz-adv-x="361" d="M338 27q-82 -38 -154 -38q-62 0 -62 75q0 24 6 55l57 267h-84l12 58h87l27 127h69l-27 -127h141l-12 -58h-141l-53 -250q-4 -21 -4 -37q0 -46 37 -46q50 0 97 33z" />
<glyph unicode="u" horiz-adv-x="517" d="M435 0h-75l10 48q-80 -59 -185 -59q-59 0 -76 31q-10 17 -10 45q0 20 5 44l71 335h78l-70 -331q-3 -16 -3 -27q0 -17 6 -26q11 -16 60 -16q51 0 92 28.5t52 81.5l61 290h78z" />
<glyph unicode="v" horiz-adv-x="461" d="M540 444l-266 -444h-88l-78 444h78l42 -259q14 -79 14 -122v-10h1q19 50 99 183l123 208h75z" />
<glyph unicode="w" horiz-adv-x="683" d="M762 444l-231 -444h-88l-20 248q-5 55 -5 96q0 25 2 44h-1q-13 -48 -83 -182l-106 -206h-79l-43 444h76l16 -173q9 -124 9 -182q0 -22 -1 -34h1q17 56 91 201l97 188h70l20 -213q9 -102 9 -151q0 -16 -1 -26h1q12 33 84 178l109 212h73z" />
<glyph unicode="x" horiz-adv-x="461" d="M460 0h-83l-110 188l-185 -188h-82l243 229l-143 215h83l103 -165l169 165h82l-228 -215z" />
<glyph unicode="y" horiz-adv-x="461" d="M540 444l-331 -535q-43 -69 -74.5 -91.5t-63.5 -22.5q-36 0 -70 8l8 65q36 -16 75 -16q10 0 16 2t20.5 15.5t32.5 40.5l55 90l-100 444h79l28 -125q35 -160 35 -236q0 -15 -1 -26h1q18 69 215 387h75z" />
<glyph unicode="z" horiz-adv-x="435" d="M402 0h-374l9 41l340 345h-78q-6 0 -18 -0.5t-18 -0.5h-139l12 59h358l-8 -39l-339 -344h85q6 0 18 0.5t18 0.5h147z" />
<glyph unicode="{" d="M376 -239q-2 -11 -22 -11q-84 0 -131 38q-30 25 -33 56q-1 8 -1 15q0 26 9 58l42 198q4 17 4 32.5t-4 28.5q-8 25 -27 37.5t-37 18.5t-37 7q-5 1 -6.5 1t-4.5 1t-3 2v1q1 2 0 6q2 11 16 11q64 4 114 45q23 20 31 41.5t24 96.5l39 183q13 53 76.5 88t140.5 35q8 0 11 -0.5 t5 -3.5q2 -1 2 -4q0 -11 -11 -14q-33 -2 -59 -10.5t-36 -15.5t-26 -20q-20 -18 -28.5 -39t-20.5 -80l-39 -180q-4 -17 -8.5 -29t-19 -34t-44.5 -40t-74 -30q94 -28 94 -101q0 -8 -17 -93l-32 -150q-7 -35 -7 -46q0 -33 27 -60q26 -25 80 -28q6 -1 8 -1.5t4 -2.5t1 -7z" />
<glyph unicode="|" horiz-adv-x="278" d="M113 -217q-7 -33 -27 -33q-15 0 -15 18q0 6 2 15l198 934q7 33 27 33q15 0 15 -18q0 -6 -2 -15z" />
<glyph unicode="}" d="M480 250q-2 -11 -16 -11q-64 -4 -114 -45q-23 -20 -31 -41.5t-24 -96.5l-39 -183q-12 -53 -76 -88t-141 -35q-7 0 -10 0.5t-6 3.5q-2 1 -2 5q0 11 12 13q32 2 58 10.5t36 15.5t26 20q21 17 28.5 37.5t21.5 81.5l38 180q4 17 8.5 29t19 34t44.5 40t74 30q-94 28 -94 101 q0 8 17 93l32 150q7 32 7 45q0 34 -27 61q-25 25 -79 28q-5 1 -6.5 1t-5 1t-2.5 3t0 6q2 11 22 11q84 0 131 -38q30 -25 34 -56v-15q0 -26 -9 -58l-42 -198q-3 -17 -3 -32t4 -29q7 -25 26 -37.5t37 -18.5t37 -7q5 -1 6.5 -1t5.5 -1q2 -1 2 -2v-1q-1 -2 0 -6z" />
<glyph unicode="~" horiz-adv-x="556" d="M617 290l-64 -44q-24 -17 -64 -35q-43 -18 -77 -18q-41 0 -93 34q-55 37 -96 37q-68 0 -168 -71l-10 17l63 44q24 17 64 35q45 18 77 18q43 0 93 -34q21 -14 31 -19.5t28 -11.5t37 -6q69 0 168 71z" />
<glyph unicode="&#xa0;" />
<glyph unicode="&#xa1;" horiz-adv-x="319" d="M290 417h-83l17 83h83zM160 -194h-83l109 476l9 43h67l-9 -43z" />
<glyph unicode="&#xa2;" horiz-adv-x="444" d="M424 40q-75 -44 -150 -50l-12 -54h-64l13 57q-74 15 -109 80q-25 44 -25 97q0 25 6 52q18 83 80 151t146 84l11 51h64l-10 -47q36 -1 63 -10.5t62 -32.5l-26 -65q-52 40 -113 44l-73 -343q77 7 145 53zM225 59l70 331q-53 -15 -87.5 -63t-46.5 -104q-6 -26 -6 -49 q0 -31 11 -56q17 -44 59 -59z" />
<glyph unicode="&#xa3;" horiz-adv-x="667" d="M631 148q-14 -69 -64 -119.5t-111 -50.5q-43 0 -102 16q-53 14 -84 20q-20 4 -45 4q-13 0 -27 -1q-42 -3 -64 -25l-50 50q129 123 159 214q11 30 11 59h-120l14 64h99l-8 57q-1 99 75 178.5t173 79.5q81 0 125 -60q30 -42 30 -96q0 -22 -5 -47h-78q3 15 3 29q0 33 -18 59 q-25 37 -74 37q-60 0 -106 -50q-46 -49 -46 -110q0 -17 12 -77h151l-14 -64h-134q-3 -35 -15 -69q-22 -70 -86 -149q51 0 157 -27q45 -14 84 -14q29 0 51 27.5t29 64.5h78z" />
<glyph unicode="&#xa4;" horiz-adv-x="778" d="M627 15q-6 -5 -13 -5q-11 0 -22 14l-59 74q-64 -44 -133 -44q-68 0 -114 44l-90 -74q-17 -14 -29 -14q-6 0 -11 5q-4 5 -4 10q0 4 2 7q6 9 20 20l90 75q-23 37 -23 81q0 20 5 42q15 69 70 124l-58 74q-10 13 -10 23q0 8 8 15q7 6 14 6q12 0 22 -15l59 -75q64 44 133 44 q67 0 113 -44l90 74q17 14 29 14q6 0 11 -5q4 -5 4 -10q0 -4 -3 -7q-5 -9 -19 -20l-90 -74q23 -36 23 -81q0 -21 -5 -43q-15 -71 -69 -123l58 -75q9 -12 9 -21t-8 -16zM597 250q4 18 4 35q0 43 -26 75q-36 46 -100 46q-65 0 -120.5 -46t-68.5 -110q-4 -18 -4 -35 q0 -43 26 -75q37 -46 101 -46t119 45.5t69 110.5z" />
<glyph unicode="&#xa5;" horiz-adv-x="667" d="M811 694l-299 -332h121l-14 -64h-166l-18 -21l-14 -64h180l-13 -64h-180l-32 -149h-86l32 149h-179l13 64h179l14 65l-10 20h-165l14 64h121l-158 332h105l136 -290q6 -12 18 -42h19l68 80l22 26l204 226h88z" />
<glyph unicode="&#xa6;" horiz-adv-x="278" d="M232 343q-3 -13 -10 -22.5t-17 -9.5q-14 0 -14 18q0 6 1 14l79 374q7 33 27 33q15 0 15 -18q0 -6 -2 -15zM113 -217q-7 -33 -27 -33q-15 0 -15 18q0 6 2 15l79 374q9 32 27 32q10 0 13 -11q2 -4 2 -9q0 -6 -2 -12z" />
<glyph unicode="&#xa7;" horiz-adv-x="528" d="M537 200q-20 -89 -105 -143q16 -30 16 -63q0 -15 -3 -30q-16 -74 -82.5 -125t-143.5 -51t-123 50q-34 37 -34 87q0 16 4 34h78q-2 -11 -2 -21q0 -29 20 -51q26 -29 72 -29t85 31t48 75q2 8 2 16q0 51 -76 91l-91 46q-56 29 -86 77q-22 33 -22 72q0 16 4 34 q9 42 36.5 79.5t67.5 62.5q-16 30 -16 63q0 15 3 31q16 74 82.5 125t143.5 51t123 -50q34 -37 34 -87q0 -16 -4 -34h-78q2 11 2 21q0 29 -20 51q-26 29 -72 29t-85 -31t-48 -75q-2 -8 -2 -16q0 -51 76 -91l91 -46q57 -29 87 -77q21 -33 21 -73q0 -16 -3 -33zM459 200 q2 9 2 18q0 54 -76 94l-91 46q-29 16 -51 34q-54 -30 -67 -92q-2 -9 -2 -18q0 -55 75 -94l91 -46q30 -16 51 -35q53 31 68 93z" />
<glyph unicode="&#xa8;" d="M338 571h-80l17 80h80zM484 571h-80l17 80h80z" />
<glyph unicode="&#xa9;" horiz-adv-x="694" d="M768 347q-31 -144 -154 -245.5t-267 -101.5t-224 102q-58 73 -58 168q0 37 9 77q31 144 154 245.5t267 101.5t224 -102q58 -73 58 -168q0 -37 -9 -77zM730 347q7 35 7 67q0 86 -51 152q-72 90 -200 90t-237.5 -90.5t-136.5 -218.5q-8 -36 -8 -69q0 -84 52 -150 q71 -90 199 -90t237.5 90.5t137.5 218.5zM523 150q-38 -21 -64.5 -28t-64.5 -7q-90 0 -134 69q-29 47 -29 106q0 27 6 57q20 95 93 164t162 69q60 0 110 -23l-19 -51q-47 33 -100 33q-64 0 -118.5 -56.5t-71.5 -135.5q-6 -28 -6 -53q0 -44 19 -81q29 -58 97 -58q62 0 125 39 z" />
<glyph unicode="&#xaa;" horiz-adv-x="372" d="M419 394h-63l5 25q-58 -33 -146 -33q-49 0 -67 28q-12 21 -12 42q0 8 2 17q9 44 80.5 67.5t171.5 24.5l6 30q3 13 3 24q0 20 -11 35q-17 21 -48 21q-68 0 -134 -35l5 46q68 30 138 30q59 0 91 -34q25 -25 25 -60q0 -13 -3 -26zM374 334q-2 -10 -13 -16.5t-24 -6.5h-170 q-14 0 -21 7q-6 5 -6 12q0 10 9 18t28 8h170q13 0 21 -6.5t6 -15.5zM373 486l10 44q-176 -9 -185 -56q-1 -3 -1 -7q0 -16 17 -26q21 -12 53 -12q41 0 68 13q33 14 38 44z" />
<glyph unicode="&#xab;" d="M277 0h-61l-58 219l151 220h61l-134 -220zM444 0h-61l-58 219l151 220h61l-134 -220z" />
<glyph unicode="&#xac;" horiz-adv-x="778" d="M753 150q-4 -20 -24 -20q-8 0 -13 6t-3 14l38 180h-605q-8 0 -13 6q-4 4 -4 10q0 2 1 4q2 8 9.5 14t15.5 6h625q8 0 12 -6q4 -4 4 -9q0 -3 -1 -5z" />
<glyph unicode="&#xad;" horiz-adv-x="333" d="M317 193h-265l12 58h265z" />
<glyph unicode="&#xae;" horiz-adv-x="694" d="M768 347q-31 -144 -154 -245.5t-267 -101.5t-224 102q-58 73 -58 168q0 37 9 77q31 144 154 245.5t267 101.5t224 -102q58 -73 58 -168q0 -37 -9 -77zM730 347q7 35 7 67q0 86 -51 152q-72 90 -200 90t-237.5 -90.5t-136.5 -218.5q-8 -36 -8 -69q0 -84 52 -150 q71 -90 199 -90t237.5 90.5t137.5 218.5zM553 129h-56l-75 199h-100l-43 -199h-54l93 437h152q67 0 106 -35q30 -27 30 -62q0 -10 -2 -20q-7 -38 -43.5 -69.5t-87.5 -45.5zM553 449q2 8 2 15q0 25 -20 42q-26 24 -79 24h-91l-35 -163h91q54 0 89.5 23.5t42.5 58.5z" />
<glyph unicode="&#xaf;" d="M554 579h-361l14 64h361z" />
<glyph unicode="&#xb0;" horiz-adv-x="375" d="M444 556q-12 -58 -61 -98.5t-106 -40.5q-58 0 -90 41q-23 29 -23 68q0 14 3 30q12 57 61.5 97.5t107.5 40.5q57 0 88 -40q23 -30 23 -68q0 -14 -3 -30zM404 556q3 11 3 22q0 26 -17 47q-22 29 -63 29t-76 -28.5t-44 -69.5q-3 -12 -3 -22q0 -27 17 -48q23 -29 64 -29 t75.5 29t43.5 70z" />
<glyph unicode="&#xb1;" horiz-adv-x="778" d="M725 20q-4 -20 -37 -20h-599q-10 0 -15.5 0.5t-10.5 5.5q-4 4 -4 9q0 2 1 5q5 20 38 20h280l58 273h-280q-10 0 -15.5 0.5t-10.5 5.5t-3 14q4 20 37 20h280l60 280q7 33 27 33q15 0 15 -18q0 -6 -2 -15l-60 -280h279q10 0 15.5 -0.5t10.5 -5.5q4 -4 4 -9q0 -2 -1 -5 q-4 -20 -37 -20h-279l-58 -273h279q10 0 15.5 -0.5t10 -5.5t2.5 -14z" />
<glyph unicode="&#xb2;" horiz-adv-x="354" d="M389 310h-287l8 38l105 74l65 43l50 37q15 12 34.5 36t24.5 48q2 10 2 19q0 26 -16 46q-22 27 -71 27q-44 0 -70.5 -24.5t-49.5 -68.5q-8 13 -12 17l-2 2l-4 6q-2 4 -5 8q55 98 161 98q69 0 103 -38q26 -28 26 -66q0 -12 -3 -25q-5 -24 -23 -46.5t-30 -32t-41 -30.5 l-35 -22l-39 -25q-91 -63 -117 -79h78h26h131z" />
<glyph unicode="&#xb3;" horiz-adv-x="359" d="M418 418q-11 -49 -62 -85.5t-115 -36.5q-90 0 -135 63l16 36q17 -29 51.5 -45.5t73.5 -16.5q41 0 70 24.5t37 60.5q4 11 1.5 26t-8 28.5t-24 22.5t-45.5 9h-51l8 37l58 4q34 6 59.5 29t31.5 51q1 7 1 13q0 19 -13 30q-19 14 -49 14q-35 0 -69.5 -17t-56.5 -47l-19 32 q63 66 153 66q54 0 87 -26q27 -21 27 -50q0 -7 -2 -15q-6 -30 -32.5 -57.5t-69.5 -45.5q38 -11 61 -38q18 -21 18 -47q0 -9 -2 -19z" />
<glyph unicode="&#xb4;" d="M539 694l-186 -167h-61l169 167h78z" />
<glyph unicode="&#xb5;" horiz-adv-x="517" d="M435 0h-75l10 48q-78 -59 -185 -59q-18 0 -28 2l-39 -185h-78l135 638h78l-70 -329q-4 -22 -4 -38t16 -24.5t51 -8.5q50 0 91 27.5t53 84.5l61 288h78z" />
<glyph unicode="&#xb6;" horiz-adv-x="611" d="M725 674q-4 -20 -37 -20h-50l-173 -815q-7 -33 -27 -33q-15 0 -15 18q0 6 2 15l173 815h-70l-173 -815q-7 -33 -27 -33q-15 0 -15 18q0 6 2 15l83 391q-69 3 -128 27t-96 78q-25 38 -25 85q0 20 5 43q20 95 108 163t192 68h243q10 0 15.5 -0.5t9.5 -5.5q4 -3 4 -9 q0 -2 -1 -5z" />
<glyph unicode="&#xb7;" horiz-adv-x="778" d="M495 306h-83l18 83h83z" />
<glyph unicode="&#xb8;" horiz-adv-x="444" d="M275 -24l-102 -168h-69l110 168h61z" />
<glyph unicode="&#xb9;" horiz-adv-x="369" d="M371 310h-237l7 34h90l66 312q-37 -12 -97 -14l8 35q95 3 145 39h14l-79 -372h90z" />
<glyph unicode="&#xba;" horiz-adv-x="419" d="M510 548q-14 -68 -78.5 -115t-140.5 -47q-75 0 -119 46q-34 36 -34 84q0 15 3 32q15 69 79.5 118.5t141.5 49.5q75 0 119 -49q33 -37 33 -85q0 -16 -4 -34zM433 334q-2 -10 -13 -16.5t-24 -6.5h-241q-13 0 -21 7q-6 5 -6 12q0 12 13 20q11 6 24 6h241q13 0 21 -6.5 t6 -15.5zM446 555q4 17 4 32q0 35 -20 57q-29 30 -78 30q-46 0 -88.5 -30.5t-54.5 -88.5q-4 -19 -4 -35q0 -35 19 -57q29 -32 77 -32q50 0 91 32.5t54 91.5z" />
<glyph unicode="&#xbb;" d="M436 219l-152 -219h-61l135 219l-42 220h61zM269 219l-152 -219h-61l135 219l-42 220h61z" />
<glyph unicode="&#xbc;" horiz-adv-x="788" d="M371 310h-237l7 34h90l66 312q-37 -12 -97 -14l8 35q95 3 145 39h14l-79 -372h90zM745 103h-71l-22 -103h-57l22 103h-190l8 36l236 255h65l-54 -255h71zM800 674l-539 -654h-47l539 654h47zM630 139l48 228q-8 -34 -187 -228h139z" />
<glyph unicode="&#xbd;" horiz-adv-x="788" d="M371 310h-237l7 34h90l66 312q-37 -12 -97 -14l8 35q95 3 145 39h14l-79 -372h90zM723 0h-287l8 38l105 75l65 42q33 24 50 37.5t35.5 37t23.5 47.5q2 10 2 19q0 25 -17 45q-22 27 -70 27q-44 0 -71 -25t-49 -68q-9 17 -12 18q0 1 -1 2.5t-4 5t-6 7.5q57 99 162 99 q69 0 103 -37q25 -28 25 -65q0 -13 -3 -27q-5 -24 -22 -46t-31.5 -33.5t-40.5 -30.5q-8 -6 -37 -24l-37 -23l-117 -79h79q4 0 12.5 0.5t12.5 0.5h131zM760 674l-539 -654h-47l539 654h47z" />
<glyph unicode="&#xbe;" horiz-adv-x="788" d="M448 418q-11 -49 -62 -85.5t-115 -36.5q-90 0 -135 63l16 36q17 -30 52 -46t74 -16q40 0 69 24.5t37 60.5q2 9 2 17q0 22 -11 41q-15 28 -66 28h-52l8 37l58 4q34 6 59.5 29t31.5 51q2 7 2 13q0 19 -14 30q-18 14 -49 14q-35 0 -69.5 -17t-56.5 -47l-18 32q61 66 152 66 q54 0 87 -26q27 -21 27 -50q0 -7 -2 -15q-14 -66 -102 -103q38 -11 61 -38q18 -21 18 -47q0 -9 -2 -19zM745 103h-71l-22 -103h-57l22 103h-190l8 36l236 255h65l-54 -255h71zM800 674l-539 -654h-47l539 654h47zM630 139l48 228q-8 -34 -187 -228h139z" />
<glyph unicode="&#xbf;" horiz-adv-x="472" d="M352 417h-83l17 83h83zM383 -152q-102 -53 -204 -53q-87 0 -117 43q-21 30 -21 72q0 19 4 40q15 71 75 120q101 84 125 198l12 57h67l-7 -32q-34 -164 -147 -266q-37 -31 -47 -79q-4 -18 -4 -33q0 -24 11 -37q16 -22 63 -22q92 0 180 55z" />
<glyph unicode="&#xc0;" horiz-adv-x="667" d="M638 0h-92l-33 204h-291l-120 -204h-74l409 694h88zM503 260l-36 257q-11 84 -10 105h-1q-11 -28 -97 -181l-104 -181h248zM586 746h-89l-171 122h111z" />
<glyph unicode="&#xc1;" horiz-adv-x="667" d="M638 0h-92l-33 204h-291l-120 -204h-74l409 694h88zM503 260l-36 257q-11 84 -10 105h-1q-11 -28 -97 -181l-104 -181h248zM708 868l-223 -122h-89l201 122h111z" />
<glyph unicode="&#xc2;" horiz-adv-x="667" d="M638 0h-92l-33 204h-291l-120 -204h-74l409 694h88zM503 260l-36 257q-11 84 -10 105h-1q-11 -28 -97 -181l-104 -181h248zM645 736h-59l-76 97l-118 -97h-59l155 134h60z" />
<glyph unicode="&#xc3;" horiz-adv-x="667" d="M638 0h-92l-33 204h-291l-120 -204h-74l409 694h88zM503 260l-36 257q-11 84 -10 105h-1q-11 -28 -97 -181l-104 -181h248zM682 855q-13 -55 -49.5 -87t-74.5 -32q-27 0 -58 25q-40 33 -64 33q-37 0 -52 -58h-61q13 55 49.5 87t74.5 32q27 0 58 -25q40 -33 64 -33 q37 0 52 58h61z" />
<glyph unicode="&#xc4;" horiz-adv-x="667" d="M638 0h-92l-33 204h-291l-120 -204h-74l409 694h88zM503 260l-36 257q-11 84 -10 105h-1q-11 -28 -97 -181l-104 -181h248zM442 736h-80l17 80h80zM616 736h-80l17 80h80z" />
<glyph unicode="&#xc5;" horiz-adv-x="667" d="M638 0h-92l-33 204h-291l-120 -204h-74l409 694h88zM503 260l-36 257q-11 84 -10 105h-1q-11 -28 -97 -181l-104 -181h248zM548 778q4 17 -6.5 26t-18.5 10t-17 1q-50 0 -58 -37q-4 -17 6.5 -26t18.5 -10t17 -1q50 0 58 37zM609 777q-7 -33 -44 -58t-85 -25q-47 0 -74 24 q-20 20 -20 46q0 7 1 15q8 33 45 58t84 25t74 -24q20 -20 20 -46q0 -7 -1 -15z" />
<glyph unicode="&#xc6;" horiz-adv-x="861" d="M818 0h-399l47 222h-225l-138 -222h-75l432 694h492l-14 -65h-153q-6 0 -18 0.5t-18 0.5h-108l-51 -239h270l-13 -61h-270l-55 -260h170q6 0 18 0.5t18 0.5h105zM478 278l75 352h-58l-219 -352h202z" />
<glyph unicode="&#xc7;" horiz-adv-x="639" d="M595 34q-61 -33 -102.5 -44.5t-102.5 -11.5q-94 0 -159 52t-88 136q-12 44 -12 91q0 44 10 90q31 151 147.5 260t257.5 109q91 0 176 -35l-32 -81q-71 52 -158 52q-102 0 -189 -90t-113 -215q-8 -44 -8 -85q0 -32 5 -62q11 -68 58.5 -113t119.5 -45q55 0 97 12t102 49z M388 -46l-101 -168h-69l109 168h61z" />
<glyph unicode="&#xc8;" horiz-adv-x="597" d="M554 0h-460l147 691h446l-14 -65h-183q-6 0 -18 0.5t-18 0.5h-138l-50 -237h330l-13 -61h-330l-55 -259h209q6 0 18 0.5t18 0.5h126zM552 746h-89l-171 122h111z" />
<glyph unicode="&#xc9;" horiz-adv-x="597" d="M554 0h-460l147 691h446l-14 -65h-183q-6 0 -18 0.5t-18 0.5h-138l-50 -237h330l-13 -61h-330l-55 -259h209q6 0 18 0.5t18 0.5h126zM674 868l-223 -122h-89l201 122h111z" />
<glyph unicode="&#xca;" horiz-adv-x="597" d="M554 0h-460l147 691h446l-14 -65h-183q-6 0 -18 0.5t-18 0.5h-138l-50 -237h330l-13 -61h-330l-55 -259h209q6 0 18 0.5t18 0.5h126zM611 736h-59l-76 97l-118 -97h-59l155 134h60z" />
<glyph unicode="&#xcb;" horiz-adv-x="597" d="M554 0h-460l147 691h446l-14 -65h-183q-6 0 -18 0.5t-18 0.5h-138l-50 -237h330l-13 -61h-330l-55 -259h209q6 0 18 0.5t18 0.5h126zM408 736h-80l17 80h80zM582 736h-80l17 80h80z" />
<glyph unicode="&#xcc;" horiz-adv-x="278" d="M183 0h-89l148 694h89zM341 746h-89l-171 122h111z" />
<glyph unicode="&#xcd;" horiz-adv-x="278" d="M183 0h-89l148 694h89zM564 868l-223 -122h-89l201 122h111z" />
<glyph unicode="&#xce;" horiz-adv-x="278" d="M183 0h-89l148 694h89zM451 736h-59l-76 97l-118 -97h-59l155 134h60z" />
<glyph unicode="&#xcf;" horiz-adv-x="278" d="M183 0h-89l148 694h89zM248 736h-80l17 80h80zM422 736h-80l17 80h80z" />
<glyph unicode="&#xd0;" horiz-adv-x="722" d="M737 341q-30 -142 -140.5 -241.5t-237.5 -99.5h-263l67 315h-78l14 64h78l67 315h262q128 0 196 -104q45 -70 45 -159q0 -43 -10 -90zM651 341q10 46 10 87q0 73 -33 127q-51 83 -157 83h-153l-55 -259h101l-14 -64h-101l-55 -259h153q106 0 191.5 79.5t112.5 205.5z" />
<glyph unicode="&#xd1;" horiz-adv-x="708" d="M611 0h-124l-142 486l-38 137h-1l-132 -623h-78l148 694h124l141 -486l38 -137h1l133 623h78zM703 855q-13 -55 -49.5 -87t-74.5 -32q-27 0 -58 25q-40 33 -64 33q-37 0 -52 -58h-61q13 55 49.5 87t74.5 32q27 0 58 -25q40 -33 64 -33q37 0 52 58h61z" />
<glyph unicode="&#xd2;" horiz-adv-x="736" d="M752 345q-32 -155 -147.5 -261t-242.5 -106q-125 0 -196 106q-48 71 -48 167q0 44 11 94q34 155 148.5 263t242.5 108q126 0 196 -108q47 -73 47 -168q0 -45 -11 -95zM667 360q10 47 10 88q0 71 -31 123q-49 81 -140 81q-89 0 -173 -80.5t-111 -211.5q-12 -55 -12 -102 q0 -73 28 -126q47 -89 139 -89q90 0 175 88t115 229zM621 746h-89l-171 122h111z" />
<glyph unicode="&#xd3;" horiz-adv-x="736" d="M752 345q-32 -155 -147.5 -261t-242.5 -106q-125 0 -196 106q-48 71 -48 167q0 44 11 94q34 155 148.5 263t242.5 108q126 0 196 -108q47 -73 47 -168q0 -45 -11 -95zM667 360q10 47 10 88q0 71 -31 123q-49 81 -140 81q-89 0 -173 -80.5t-111 -211.5q-12 -55 -12 -102 q0 -73 28 -126q47 -89 139 -89q90 0 175 88t115 229zM743 868l-223 -122h-89l201 122h111z" />
<glyph unicode="&#xd4;" horiz-adv-x="736" d="M752 345q-32 -155 -147.5 -261t-242.5 -106q-125 0 -196 106q-48 71 -48 167q0 44 11 94q34 155 148.5 263t242.5 108q126 0 196 -108q47 -73 47 -168q0 -45 -11 -95zM667 360q10 47 10 88q0 71 -31 123q-49 81 -140 81q-89 0 -173 -80.5t-111 -211.5q-12 -55 -12 -102 q0 -73 28 -126q47 -89 139 -89q90 0 175 88t115 229zM680 736h-59l-76 97l-118 -97h-59l155 134h60z" />
<glyph unicode="&#xd5;" horiz-adv-x="736" d="M752 345q-32 -155 -147.5 -261t-242.5 -106q-125 0 -196 106q-48 71 -48 167q0 44 11 94q34 155 148.5 263t242.5 108q126 0 196 -108q47 -73 47 -168q0 -45 -11 -95zM667 360q10 47 10 88q0 71 -31 123q-49 81 -140 81q-89 0 -173 -80.5t-111 -211.5q-12 -55 -12 -102 q0 -73 28 -126q47 -89 139 -89q90 0 175 88t115 229zM717 855q-13 -55 -49.5 -87t-74.5 -32q-27 0 -58 25q-40 33 -64 33q-37 0 -52 -58h-61q13 55 49.5 87t74.5 32q27 0 58 -25q40 -33 64 -33q37 0 52 58h61z" />
<glyph unicode="&#xd6;" horiz-adv-x="736" d="M752 345q-32 -155 -147.5 -261t-242.5 -106q-125 0 -196 106q-48 71 -48 167q0 44 11 94q34 155 148.5 263t242.5 108q126 0 196 -108q47 -73 47 -168q0 -45 -11 -95zM667 360q10 47 10 88q0 71 -31 123q-49 81 -140 81q-89 0 -173 -80.5t-111 -211.5q-12 -55 -12 -102 q0 -73 28 -126q47 -89 139 -89q90 0 175 88t115 229zM477 736h-80l17 80h80zM651 736h-80l17 80h80z" />
<glyph unicode="&#xd7;" horiz-adv-x="778" d="M627 15q-6 -5 -13 -5q-11 0 -22 14l-156 198l-240 -198q-17 -14 -29 -14q-6 0 -11 5q-4 5 -4 10q0 4 2 7q6 9 20 20l240 198l-156 198q-10 13 -10 23q0 8 8 15q7 6 14 6q12 0 22 -15l156 -198l239 197q17 14 29 14q6 0 11 -5q4 -5 4 -10q0 -4 -3 -7q-5 -9 -19 -20 l-239 -198l156 -198q9 -12 9 -21t-8 -16z" />
<glyph unicode="&#xd8;" horiz-adv-x="778" d="M794 345q-33 -154 -153.5 -260.5t-257.5 -106.5q-78 0 -144 41l-66 -84l-48 32l70 90q-75 82 -75 200q0 42 9 88q33 154 154 262.5t258 108.5q74 0 144 -41l66 84l49 -32l-72 -90q42 -42 64 -119q12 -39 12 -84q0 -42 -10 -89zM641 619q-53 36 -114 36q-100 0 -191.5 -84 t-121.5 -226q-10 -47 -10 -88q0 -81 39 -140zM709 345q11 49 11 91q0 83 -40 140l-396 -502q51 -35 113 -35q100 0 191 82t121 224z" />
<glyph unicode="&#xd9;" horiz-adv-x="688" d="M643 233q-23 -108 -111.5 -181.5t-190.5 -73.5q-103 0 -162 74q-42 52 -42 121q0 29 7 60l98 461h89l-99 -462q-7 -33 -7 -61q0 -52 25 -85q37 -52 104 -52q68 0 129 52t81 146l99 462h78zM597 746h-89l-171 122h111z" />
<glyph unicode="&#xda;" horiz-adv-x="688" d="M643 233q-23 -108 -111.5 -181.5t-190.5 -73.5q-103 0 -162 74q-42 52 -42 121q0 29 7 60l98 461h89l-99 -462q-7 -33 -7 -61q0 -52 25 -85q37 -52 104 -52q68 0 129 52t81 146l99 462h78zM719 868l-223 -122h-89l201 122h111z" />
<glyph unicode="&#xdb;" horiz-adv-x="688" d="M643 233q-23 -108 -111.5 -181.5t-190.5 -73.5q-103 0 -162 74q-42 52 -42 121q0 29 7 60l98 461h89l-99 -462q-7 -33 -7 -61q0 -52 25 -85q37 -52 104 -52q68 0 129 52t81 146l99 462h78zM656 736h-59l-76 97l-118 -97h-59l155 134h60z" />
<glyph unicode="&#xdc;" horiz-adv-x="688" d="M643 233q-23 -108 -111.5 -181.5t-190.5 -73.5q-103 0 -162 74q-42 52 -42 121q0 29 7 60l98 461h89l-99 -462q-7 -33 -7 -61q0 -52 25 -85q37 -52 104 -52q68 0 129 52t81 146l99 462h78zM453 736h-80l17 80h80zM627 736h-80l17 80h80z" />
<glyph unicode="&#xdd;" horiz-adv-x="667" d="M811 694l-376 -417l-59 -277h-86l59 278l-198 416h105l136 -290q1 -1 24 -57l81 95l22 26l204 226h88zM708 868l-223 -122h-89l201 122h111z" />
<glyph unicode="&#xde;" horiz-adv-x="583" d="M606 374q-15 -72 -84 -133t-180 -61h-124l-38 -180h-83l148 694h83l-27 -127h131q100 0 146 -59q33 -44 33 -95q0 -19 -5 -39zM525 373q3 13 3 25q0 39 -29 71q-38 42 -121 42h-89l-59 -275h96q48 0 86 14.5t60.5 36.5t35.5 44t17 42z" />
<glyph unicode="&#xdf;" horiz-adv-x="481" d="M490 179q-17 -81 -80.5 -135.5t-135.5 -54.5q-9 0 -18.5 1t-17.5 2l-16 4q-8 1 -14 3t-10.5 4t-6.5 3.5t-2 2.5l6 11l27 45q30 -15 64 -15q43 0 79 34.5t48 94.5q6 29 6 56q0 48 -20 87q-31 59 -105 61l13 61q66 1 107.5 35.5t51.5 79.5q2 10 2 19q0 25 -15 42 q-21 24 -64 24q-12 0 -25 -2.5t-32.5 -11t-35 -29t-22.5 -50.5l-117 -551h-75l117 552q15 72 76.5 112.5t127.5 40.5q70 0 111 -43q32 -32 32 -76q0 -13 -3 -28q-9 -41 -42 -80.5t-86 -66.5q55 -39 72 -103q9 -34 9 -70q0 -29 -6 -59z" />
<glyph unicode="&#xe0;" horiz-adv-x="481" d="M409 0h-75l8 36q-71 -47 -176 -47q-31 0 -52 13.5t-28 32.5t-10 41q-1 8 -1 15q0 12 3 22q14 63 99.5 96.5t205.5 35.5l9 43q5 21 5 38q0 27 -12 46q-19 30 -56 30q-80 0 -161 -50l8 66q84 43 166 43q70 0 107 -49q26 -33 26 -80q0 -20 -5 -43zM359 132l13 62 q-207 -10 -222 -79q-1 -6 -1 -11q0 -22 19 -36q24 -18 62 -18q47 0 82 19q38 19 47 63zM422 527h-61l-114 167h78z" />
<glyph unicode="&#xe1;" horiz-adv-x="481" d="M409 0h-75l8 36q-71 -47 -176 -47q-31 0 -52 13.5t-28 32.5t-10 41q-1 8 -1 15q0 12 3 22q14 63 99.5 96.5t205.5 35.5l9 43q5 21 5 38q0 27 -12 46q-19 30 -56 30q-80 0 -161 -50l8 66q84 43 166 43q70 0 107 -49q26 -33 26 -80q0 -20 -5 -43zM359 132l13 62 q-207 -10 -222 -79q-1 -6 -1 -11q0 -22 19 -36q24 -18 62 -18q47 0 82 19q38 19 47 63zM529 694l-186 -167h-61l169 167h78z" />
<glyph unicode="&#xe2;" horiz-adv-x="481" d="M409 0h-75l8 36q-71 -47 -176 -47q-31 0 -52 13.5t-28 32.5t-10 41q-1 8 -1 15q0 12 3 22q14 63 99.5 96.5t205.5 35.5l9 43q5 21 5 38q0 27 -12 46q-19 30 -56 30q-80 0 -161 -50l8 66q84 43 166 43q70 0 107 -49q26 -33 26 -80q0 -20 -5 -43zM359 132l13 62 q-207 -10 -222 -79q-1 -6 -1 -11q0 -22 19 -36q24 -18 62 -18q47 0 82 19q38 19 47 63zM507 525h-59l-70 123l-122 -123h-59l161 172h60z" />
<glyph unicode="&#xe3;" horiz-adv-x="481" d="M409 0h-75l8 36q-71 -47 -176 -47q-31 0 -52 13.5t-28 32.5t-10 41q-1 8 -1 15q0 12 3 22q14 63 99.5 96.5t205.5 35.5l9 43q5 21 5 38q0 27 -12 46q-19 30 -56 30q-80 0 -161 -50l8 66q84 43 166 43q70 0 107 -49q26 -33 26 -80q0 -20 -5 -43zM359 132l13 62 q-207 -10 -222 -79q-1 -6 -1 -11q0 -22 19 -36q24 -18 62 -18q47 0 82 19q38 19 47 63zM549 670q-13 -55 -49 -87t-74 -32q-26 0 -59 25q-40 33 -64 33q-37 0 -51 -58h-61q13 55 49 87t74 32q28 0 59 -25q40 -33 64 -33q37 0 51 58h61z" />
<glyph unicode="&#xe4;" horiz-adv-x="481" d="M409 0h-75l8 36q-71 -47 -176 -47q-31 0 -52 13.5t-28 32.5t-10 41q-1 8 -1 15q0 12 3 22q14 63 99.5 96.5t205.5 35.5l9 43q5 21 5 38q0 27 -12 46q-19 30 -56 30q-80 0 -161 -50l8 66q84 43 166 43q70 0 107 -49q26 -33 26 -80q0 -20 -5 -43zM359 132l13 62 q-207 -10 -222 -79q-1 -6 -1 -11q0 -22 19 -36q24 -18 62 -18q47 0 82 19q38 19 47 63zM328 571h-80l17 80h80zM474 571h-80l17 80h80z" />
<glyph unicode="&#xe5;" horiz-adv-x="481" d="M409 0h-75l8 36q-71 -47 -176 -47q-31 0 -52 13.5t-28 32.5t-10 41q-1 8 -1 15q0 12 3 22q14 63 99.5 96.5t205.5 35.5l9 43q5 21 5 38q0 27 -12 46q-19 30 -56 30q-80 0 -161 -50l8 66q84 43 166 43q70 0 107 -49q26 -33 26 -80q0 -20 -5 -43zM359 132l13 62 q-207 -10 -222 -79q-1 -6 -1 -11q0 -22 19 -36q24 -18 62 -18q47 0 82 19q38 19 47 63zM418 601q4 17 -6.5 26t-18.5 10t-17 1q-50 0 -58 -37q-4 -17 6.5 -26t18.5 -10t17 -1q50 0 58 37zM479 600q-8 -33 -45 -58t-84 -25t-74 25q-20 19 -20 45q0 7 1 15q7 33 44 58t85 25 q47 0 74 -25q20 -19 20 -45q0 -7 -1 -15z" />
<glyph unicode="&#xe6;" horiz-adv-x="722" d="M740 219h-293q-4 -22 -4 -41q0 -49 23 -82q33 -46 89 -46q77 0 150 56l-8 -65q-75 -52 -156 -52q-97 0 -147 77q-22 -26 -57.5 -43t-74.5 -23.5t-61.5 -8.5t-41.5 -2q-34 0 -55.5 15t-27 35t-8.5 41v14q0 12 3 20q26 119 304 133l8 41q4 20 4 36q0 29 -12 48 q-19 30 -55 30q-81 0 -162 -50l8 66q84 43 166 43q43 0 76.5 -20.5t48.5 -56.5q79 77 168 77q34 0 59 -12t38 -29t20 -43.5t8 -46.5q1 -8 1 -17q0 -14 -1 -31q-3 -28 -5 -38zM692 274q1 12 1 22q0 25 -5 44q-7 27 -21 39t-27 16.5t-27 4.5q-41 0 -83 -34.5t-67 -91.5h229z M354 127q2 8 10 64q-34 0 -74 -4t-90 -22.5t-57 -49.5q-1 -5 -1 -10q0 -21 18 -37q22 -18 62 -18q13 0 26 1.5t38.5 7.5t43.5 23.5t24 44.5z" />
<glyph unicode="&#xe7;" horiz-adv-x="444" d="M424 40q-85 -51 -174 -51q-92 0 -140 69q-33 49 -33 110q0 26 6 54q20 94 96 166.5t175 72.5q46 0 76 -9t69 -34l-26 -65q-34 26 -62.5 35t-69.5 9q-73 0 -119 -52.5t-61 -121.5q-5 -26 -5 -48q0 -43 18 -74q28 -48 90 -48q87 0 168 54zM281 -46l-101 -168h-69l109 168 h61z" />
<glyph unicode="&#xe8;" horiz-adv-x="444" d="M461 219h-309q-4 -21 -4 -40q0 -47 23 -81q32 -48 92 -48q83 0 164 56l-8 -65q-84 -52 -170 -52q-90 0 -139 69q-33 48 -33 111q0 27 6 57q20 97 94 166t157 69q90 0 122 -73q15 -34 15 -81q0 -40 -10 -88zM415 274q1 10 1 19q0 50 -24 76q-27 31 -71 31q-43 0 -86 -35 t-67 -91h247zM404 527h-61l-114 167h78z" />
<glyph unicode="&#xe9;" horiz-adv-x="444" d="M461 219h-309q-4 -21 -4 -40q0 -47 23 -81q32 -48 92 -48q83 0 164 56l-8 -65q-84 -52 -170 -52q-90 0 -139 69q-33 48 -33 111q0 27 6 57q20 97 94 166t157 69q90 0 122 -73q15 -34 15 -81q0 -40 -10 -88zM415 274q1 10 1 19q0 50 -24 76q-27 31 -71 31q-43 0 -86 -35 t-67 -91h247zM511 694l-186 -167h-61l169 167h78z" />
<glyph unicode="&#xea;" horiz-adv-x="444" d="M461 219h-309q-4 -21 -4 -40q0 -47 23 -81q32 -48 92 -48q83 0 164 56l-8 -65q-84 -52 -170 -52q-90 0 -139 69q-33 48 -33 111q0 27 6 57q20 97 94 166t157 69q90 0 122 -73q15 -34 15 -81q0 -40 -10 -88zM415 274q1 10 1 19q0 50 -24 76q-27 31 -71 31q-43 0 -86 -35 t-67 -91h247zM489 525h-59l-70 123l-122 -123h-59l161 172h60z" />
<glyph unicode="&#xeb;" horiz-adv-x="444" d="M461 219h-309q-4 -21 -4 -40q0 -47 23 -81q32 -48 92 -48q83 0 164 56l-8 -65q-84 -52 -170 -52q-90 0 -139 69q-33 48 -33 111q0 27 6 57q20 97 94 166t157 69q90 0 122 -73q15 -34 15 -81q0 -40 -10 -88zM415 274q1 10 1 19q0 50 -24 76q-27 31 -71 31q-43 0 -86 -35 t-67 -91h247zM310 571h-80l17 80h80zM456 571h-80l17 80h80z" />
<glyph unicode="&#xec;" horiz-adv-x="239" d="M156 0h-75l94 444h75zM268 527h-61l-114 167h78z" />
<glyph unicode="&#xed;" horiz-adv-x="239" d="M156 0h-75l94 444h75zM440 694l-186 -167h-61l169 167h78z" />
<glyph unicode="&#xee;" horiz-adv-x="239" d="M156 0h-75l94 444h75zM386 525h-59l-70 123l-122 -123h-59l161 172h60z" />
<glyph unicode="&#xef;" horiz-adv-x="239" d="M156 0h-75l94 444h75zM207 571h-80l17 80h80zM353 571h-80l17 80h80z" />
<glyph unicode="&#xf0;" d="M520 242q-6 -31 -13 -53.5t-29 -59t-56 -67.5q-80 -73 -175 -73q-89 0 -140 67q-36 47 -36 110q0 26 6 54q21 99 100.5 170t170.5 71q54 0 94 -27q-19 87 -81 152l-90 -61l-26 46l76 51q-43 30 -87 48l41 52q56 -17 109 -57l88 58l25 -46l-72 -48q69 -74 96 -174 q13 -48 13 -100q0 -54 -14 -113zM439 225q5 26 5 48q0 43 -18 77q-29 50 -92 50q-56 0 -107.5 -43t-69.5 -127q-7 -30 -7 -56q0 -44 20 -74q31 -47 91 -47q61 0 111.5 49t66.5 123z" />
<glyph unicode="&#xf1;" horiz-adv-x="517" d="M435 0h-78l62 291q4 20 4 35q0 68 -79 68q-52 0 -86.5 -45t-46.5 -104l-52 -245h-78l96 450h72l-15 -71q9 11 25 24.5t56 32.5t80 19q109 0 109 -102q0 -24 -6 -55zM567 670q-13 -55 -49 -87t-74 -32q-26 0 -59 25q-40 33 -64 33q-37 0 -51 -58h-61q13 55 49 87t74 32 q28 0 59 -25q40 -33 64 -33q37 0 51 58h61z" />
<glyph unicode="&#xf2;" d="M516 220q-21 -97 -99.5 -164t-169.5 -67q-89 0 -140 67q-36 47 -36 110q0 25 6 54q21 99 100 170t171 71q90 0 140 -71q34 -49 34 -113q0 -27 -6 -57zM440 230q6 29 6 54q0 44 -21 72q-33 44 -91 44q-56 0 -107.5 -43t-69.5 -127q-6 -31 -6 -56q0 -46 20 -75 q32 -46 89 -46q59 0 110.5 46.5t69.5 130.5zM432 527h-61l-114 167h78z" />
<glyph unicode="&#xf3;" d="M516 220q-21 -97 -99.5 -164t-169.5 -67q-89 0 -140 67q-36 47 -36 110q0 25 6 54q21 99 100 170t171 71q90 0 140 -71q34 -49 34 -113q0 -27 -6 -57zM440 230q6 29 6 54q0 44 -21 72q-33 44 -91 44q-56 0 -107.5 -43t-69.5 -127q-6 -31 -6 -56q0 -46 20 -75 q32 -46 89 -46q59 0 110.5 46.5t69.5 130.5zM539 694l-186 -167h-61l169 167h78z" />
<glyph unicode="&#xf4;" d="M516 220q-21 -97 -99.5 -164t-169.5 -67q-89 0 -140 67q-36 47 -36 110q0 25 6 54q21 99 100 170t171 71q90 0 140 -71q34 -49 34 -113q0 -27 -6 -57zM440 230q6 29 6 54q0 44 -21 72q-33 44 -91 44q-56 0 -107.5 -43t-69.5 -127q-6 -31 -6 -56q0 -46 20 -75 q32 -46 89 -46q59 0 110.5 46.5t69.5 130.5zM517 525h-59l-70 123l-122 -123h-59l161 172h60z" />
<glyph unicode="&#xf5;" d="M516 220q-21 -97 -99.5 -164t-169.5 -67q-89 0 -140 67q-36 47 -36 110q0 25 6 54q21 99 100 170t171 71q90 0 140 -71q34 -49 34 -113q0 -27 -6 -57zM440 230q6 29 6 54q0 44 -21 72q-33 44 -91 44q-56 0 -107.5 -43t-69.5 -127q-6 -31 -6 -56q0 -46 20 -75 q32 -46 89 -46q59 0 110.5 46.5t69.5 130.5zM559 670q-13 -55 -49 -87t-74 -32q-26 0 -59 25q-40 33 -64 33q-37 0 -51 -58h-61q13 55 49 87t74 32q28 0 59 -25q40 -33 64 -33q37 0 51 58h61z" />
<glyph unicode="&#xf6;" d="M516 220q-21 -97 -99.5 -164t-169.5 -67q-89 0 -140 67q-36 47 -36 110q0 25 6 54q21 99 100 170t171 71q90 0 140 -71q34 -49 34 -113q0 -27 -6 -57zM440 230q6 29 6 54q0 44 -21 72q-33 44 -91 44q-56 0 -107.5 -43t-69.5 -127q-6 -31 -6 -56q0 -46 20 -75 q32 -46 89 -46q59 0 110.5 46.5t69.5 130.5zM338 571h-80l17 80h80zM484 571h-80l17 80h80z" />
<glyph unicode="&#xf7;" horiz-adv-x="778" d="M774 250q-4 -20 -38 -20h-597q-10 0 -16 0.5t-11 5.5q-4 4 -4 9q0 2 1 5q4 20 37 20h599q10 0 15.5 -0.5t10.5 -5.5q4 -4 4 -9q0 -2 -1 -5zM500 331h-83l18 83h83zM448 85h-83l18 83h83z" />
<glyph unicode="&#xf8;" d="M514 220q-21 -97 -99.5 -164t-167.5 -67q-44 0 -82 19l-93 -120l-46 30l95 123q-48 57 -48 128q0 25 6 51q21 99 100 170t169 71q44 0 84 -20l89 116l47 -30l-94 -121q47 -52 47 -127q0 -28 -7 -59zM389 387q-23 13 -54 13q-60 0 -111.5 -47.5t-69.5 -132.5 q-6 -27 -6 -51q0 -39 17 -70zM439 220q6 30 6 55q0 42 -16 72l-222 -286q21 -11 53 -11q59 0 110 44t69 126z" />
<glyph unicode="&#xf9;" horiz-adv-x="517" d="M435 0h-75l10 48q-80 -59 -185 -59q-59 0 -76 31q-10 17 -10 45q0 20 5 44l71 335h78l-70 -331q-3 -16 -3 -27q0 -17 6 -26q11 -16 60 -16q51 0 92 28.5t52 81.5l61 290h78zM440 527h-61l-114 167h78z" />
<glyph unicode="&#xfa;" horiz-adv-x="517" d="M435 0h-75l10 48q-80 -59 -185 -59q-59 0 -76 31q-10 17 -10 45q0 20 5 44l71 335h78l-70 -331q-3 -16 -3 -27q0 -17 6 -26q11 -16 60 -16q51 0 92 28.5t52 81.5l61 290h78zM547 694l-186 -167h-61l169 167h78z" />
<glyph unicode="&#xfb;" horiz-adv-x="517" d="M435 0h-75l10 48q-80 -59 -185 -59q-59 0 -76 31q-10 17 -10 45q0 20 5 44l71 335h78l-70 -331q-3 -16 -3 -27q0 -17 6 -26q11 -16 60 -16q51 0 92 28.5t52 81.5l61 290h78zM525 525h-59l-70 123l-122 -123h-59l161 172h60z" />
<glyph unicode="&#xfc;" horiz-adv-x="517" d="M435 0h-75l10 48q-80 -59 -185 -59q-59 0 -76 31q-10 17 -10 45q0 20 5 44l71 335h78l-70 -331q-3 -16 -3 -27q0 -17 6 -26q11 -16 60 -16q51 0 92 28.5t52 81.5l61 290h78zM346 571h-80l17 80h80zM492 571h-80l17 80h80z" />
<glyph unicode="&#xfd;" horiz-adv-x="461" d="M540 444l-331 -535q-43 -69 -74.5 -91.5t-63.5 -22.5q-36 0 -70 8l8 65q36 -16 75 -16q10 0 16 2t20.5 15.5t32.5 40.5l55 90l-100 444h79l28 -125q35 -160 35 -236q0 -15 -1 -26h1q18 69 215 387h75zM520 694l-186 -167h-61l169 167h78z" />
<glyph unicode="&#xfe;" horiz-adv-x="517" d="M527 223q-21 -100 -90 -167t-144 -67q-74 0 -123 57l-51 -240h-78l189 888h75l-64 -299q83 60 177 60q70 0 100 -69q17 -41 17 -91q0 -34 -8 -72zM449 223q5 24 5 45q0 41 -19 74q-29 49 -86 49q-67 0 -118 -58l-43 -201q-1 -7 -1 -13q0 -12 4 -22q24 -47 76 -47 q58 0 112.5 49t69.5 124z" />
<glyph unicode="&#xff;" horiz-adv-x="461" d="M540 444l-331 -535q-43 -69 -74.5 -91.5t-63.5 -22.5q-36 0 -70 8l8 65q36 -16 75 -16q10 0 16 2t20.5 15.5t32.5 40.5l55 90l-100 444h79l28 -125q35 -160 35 -236q0 -15 -1 -26h1q18 69 215 387h75zM319 571h-80l17 80h80zM465 571h-80l17 80h80z" />
<glyph unicode="&#x100;" horiz-adv-x="667" d="M638 0h-92l-33 204h-291l-120 -204h-74l409 694h88zM503 260l-36 257q-11 84 -10 105h-1q-11 -28 -97 -181l-104 -181h248zM675 756h-361l13 64h361z" />
<glyph unicode="&#x101;" horiz-adv-x="481" d="M409 0h-75l8 36q-71 -47 -176 -47q-31 0 -52 13.5t-28 32.5t-10 41q-1 8 -1 15q0 12 3 22q14 63 99.5 96.5t205.5 35.5l9 43q5 21 5 38q0 27 -12 46q-19 30 -56 30q-80 0 -161 -50l8 66q84 43 166 43q70 0 107 -49q26 -33 26 -80q0 -20 -5 -43zM359 132l13 62 q-207 -10 -222 -79q-1 -6 -1 -11q0 -22 19 -36q24 -18 62 -18q47 0 82 19q38 19 47 63zM544 579h-361l14 64h361z" />
<glyph unicode="&#x102;" horiz-adv-x="667" d="M638 0h-92l-33 204h-291l-120 -204h-74l409 694h88zM503 260l-36 257q-11 84 -10 105h-1q-11 -28 -97 -181l-104 -181h248zM698 924q-18 -77 -78.5 -127.5t-128.5 -50.5q-67 0 -106 50q-28 36 -28 87q0 19 4 41h61q-2 -13 -2 -25q0 -34 20 -56q26 -30 67 -30 q40 0 79 29.5t51 81.5h61z" />
<glyph unicode="&#x103;" horiz-adv-x="481" d="M409 0h-75l8 36q-71 -47 -176 -47q-31 0 -52 13.5t-28 32.5t-10 41q-1 8 -1 15q0 12 3 22q14 63 99.5 96.5t205.5 35.5l9 43q5 21 5 38q0 27 -12 46q-19 30 -56 30q-80 0 -161 -50l8 66q84 43 166 43q70 0 107 -49q26 -33 26 -80q0 -20 -5 -43zM359 132l13 62 q-207 -10 -222 -79q-1 -6 -1 -11q0 -22 19 -36q24 -18 62 -18q47 0 82 19q38 19 47 63zM558 700q-18 -77 -78.5 -127.5t-128.5 -50.5q-67 0 -106 50q-28 36 -28 87q0 19 4 41h61q-3 -14 -3 -26q0 -33 19 -55q27 -30 68 -30q40 0 79 29.5t52 81.5h61z" />
<glyph unicode="&#x104;" horiz-adv-x="667" d="M616 -187q-58 -25 -103 -25q-47 0 -67 25q-16 19 -16 43q0 8 2 17q6 37 38 71t76 56l-33 204h-291l-120 -204h-74l409 694h88l113 -694h-29q-99 -50 -109 -104q-1 -4 -1 -8q0 -15 9 -20q12 -8 37 -10h4q28 0 66 14zM503 260l-36 257q-11 84 -10 105h-1q-11 -28 -97 -181 l-104 -181h248z" />
<glyph unicode="&#x105;" horiz-adv-x="481" d="M404 -187q-58 -25 -103 -25q-47 0 -67 25q-16 19 -16 43q0 8 2 17q6 37 38 71t76 56l8 36q-71 -47 -176 -47q-31 0 -52 13.5t-28 32.5t-10 41q-1 8 -1 15q0 12 3 22q14 63 99.5 96.5t205.5 35.5l9 43q5 21 5 38q0 27 -12 46q-19 30 -56 30q-80 0 -161 -50l8 66 q84 43 166 43q70 0 107 -49q26 -33 26 -80q0 -20 -5 -43l-61 -289h-11q-100 -50 -110 -104q-1 -4 -1 -8q0 -15 9 -20q12 -8 37 -10h4q28 0 66 14zM359 132l13 62q-207 -10 -222 -79q-1 -6 -1 -11q0 -22 19 -36q24 -18 62 -18q47 0 82 19q38 19 47 63z" />
<glyph unicode="&#x106;" horiz-adv-x="639" d="M597 45q-67 -36 -105 -45q-40 -11 -106 -11q-133 0 -206 105q-50 73 -50 166q0 41 10 87q32 148 148 254q118 105 250 105q54 0 93 -8q43 -8 87 -28l-31 -82q-36 29 -75 42q-36 12 -88 12q-95 0 -183 -86q-86 -88 -112 -209q-9 -41 -9 -79q0 -72 33 -129q51 -86 146 -86 q66 0 104 12q39 11 102 49zM726 868l-223 -122h-89l201 122h111z" />
<glyph unicode="&#x107;" horiz-adv-x="444" d="M424 40q-85 -51 -174 -51q-92 0 -140 69q-33 49 -33 110q0 26 6 54q20 94 96 166.5t175 72.5q46 0 76 -9t69 -34l-26 -65q-34 26 -62.5 35t-69.5 9q-73 0 -119 -52.5t-61 -121.5q-5 -26 -5 -48q0 -43 18 -74q28 -48 90 -48q87 0 168 54zM533 694l-186 -167h-61l169 167 h78z" />
<glyph unicode="&#x108;" horiz-adv-x="639" d="M597 45q-67 -36 -105 -45q-40 -11 -106 -11q-133 0 -206 105q-50 73 -50 166q0 41 10 87q32 148 148 254q118 105 250 105q54 0 93 -8q43 -8 87 -28l-31 -82q-36 29 -75 42q-36 12 -88 12q-95 0 -183 -86q-86 -88 -112 -209q-9 -41 -9 -79q0 -72 33 -129q51 -86 146 -86 q66 0 104 12q39 11 102 49zM663 736h-59l-76 97l-118 -97h-59l155 134h60z" />
<glyph unicode="&#x109;" horiz-adv-x="444" d="M424 40q-85 -51 -174 -51q-92 0 -140 69q-33 49 -33 110q0 26 6 54q20 94 96 166.5t175 72.5q46 0 76 -9t69 -34l-26 -65q-34 26 -62.5 35t-69.5 9q-73 0 -119 -52.5t-61 -121.5q-5 -26 -5 -48q0 -43 18 -74q28 -48 90 -48q87 0 168 54zM511 525h-59l-70 123l-122 -123 h-59l161 172h60z" />
<glyph unicode="&#x10a;" horiz-adv-x="639" d="M597 45q-67 -36 -105 -45q-40 -11 -106 -11q-133 0 -206 105q-50 73 -50 166q0 41 10 87q32 148 148 254q118 105 250 105q54 0 93 -8q43 -8 87 -28l-31 -82q-36 29 -75 42q-36 12 -88 12q-95 0 -183 -86q-86 -88 -112 -209q-9 -41 -9 -79q0 -72 33 -129q51 -86 146 -86 q66 0 104 12q39 11 102 49zM551 736h-89l19 89h89z" />
<glyph unicode="&#x10b;" horiz-adv-x="444" d="M424 40q-85 -51 -174 -51q-92 0 -140 69q-33 49 -33 110q0 26 6 54q20 94 96 166.5t175 72.5q46 0 76 -9t69 -34l-26 -65q-34 26 -62.5 35t-69.5 9q-73 0 -119 -52.5t-61 -121.5q-5 -26 -5 -48q0 -43 18 -74q28 -48 90 -48q87 0 168 54zM408 566h-89l19 89h89z" />
<glyph unicode="&#x10c;" horiz-adv-x="639" d="M597 45q-67 -36 -105 -45q-40 -11 -106 -11q-133 0 -206 105q-50 73 -50 166q0 41 10 87q32 148 148 254q118 105 250 105q54 0 93 -8q43 -8 87 -28l-31 -82q-36 29 -75 42q-36 12 -88 12q-95 0 -183 -86q-86 -88 -112 -209q-9 -41 -9 -79q0 -72 33 -129q51 -86 146 -86 q66 0 104 12q39 11 102 49zM692 870l-155 -134h-60l-97 134h59l76 -97l118 97h59z" />
<glyph unicode="&#x10d;" horiz-adv-x="444" d="M424 40q-85 -51 -174 -51q-92 0 -140 69q-33 49 -33 110q0 26 6 54q20 94 96 166.5t175 72.5q46 0 76 -9t69 -34l-26 -65q-34 26 -62.5 35t-69.5 9q-73 0 -119 -52.5t-61 -121.5q-5 -26 -5 -48q0 -43 18 -74q28 -48 90 -48q87 0 168 54zM547 697l-161 -172h-60l-89 172 h59l70 -123l122 123h59z" />
<glyph unicode="&#x10e;" horiz-adv-x="722" d="M737 341q-30 -142 -140.5 -241.5t-237.5 -99.5h-263l148 694h262q128 0 196 -104q45 -70 45 -159q0 -43 -10 -90zM651 341q10 46 10 87q0 73 -33 127q-51 83 -157 83h-153l-124 -582h153q106 0 191.5 79.5t112.5 205.5zM600 870l-155 -134h-60l-97 134h59l76 -97l118 97 h59z" />
<glyph unicode="&#x10f;" horiz-adv-x="517" d="M434 0h-78l11 52q-78 -63 -161 -63q-72 0 -108 67q-23 43 -23 98q0 32 8 68q21 97 87 165t140 68q79 0 134 -55l63 294h75zM386 139l42 200q-26 55 -85 55q-55 0 -109 -42t-73 -131q-7 -31 -7 -57q0 -44 20 -72q32 -42 86 -42q41 0 80 28q39 30 46 61zM677 620l-61 -113 h-37l46 112h-22l16 75h74z" />
<glyph unicode="&#x110;" horiz-adv-x="722" d="M737 341q-30 -142 -140.5 -241.5t-237.5 -99.5h-263l67 315h-78l14 64h78l67 315h262q128 0 196 -104q45 -70 45 -159q0 -43 -10 -90zM651 341q10 46 10 87q0 73 -33 127q-51 83 -157 83h-153l-55 -259h101l-14 -64h-101l-55 -259h153q106 0 191.5 79.5t112.5 205.5z" />
<glyph unicode="&#x111;" horiz-adv-x="517" d="M626 537h-78l-114 -537h-78l11 52q-78 -63 -161 -63q-72 0 -108 67q-23 43 -23 98q0 32 8 68q21 97 87 165t140 68q79 0 134 -55l29 137h-152l14 64h152l20 93h75l-20 -93h78zM386 139l42 200q-26 55 -85 55q-55 0 -109 -42t-73 -131q-7 -31 -7 -57q0 -44 20 -72 q32 -42 86 -42q41 0 80 28q39 30 46 61z" />
<glyph unicode="&#x112;" horiz-adv-x="597" d="M554 0h-460l147 691h446l-14 -65h-183q-6 0 -18 0.5t-18 0.5h-138l-50 -237h330l-13 -61h-330l-55 -259h209q6 0 18 0.5t18 0.5h126zM641 756h-361l13 64h361z" />
<glyph unicode="&#x113;" horiz-adv-x="444" d="M461 219h-309q-4 -21 -4 -40q0 -47 23 -81q32 -48 92 -48q83 0 164 56l-8 -65q-84 -52 -170 -52q-90 0 -139 69q-33 48 -33 111q0 27 6 57q20 97 94 166t157 69q90 0 122 -73q15 -34 15 -81q0 -40 -10 -88zM415 274q1 10 1 19q0 50 -24 76q-27 31 -71 31q-43 0 -86 -35 t-67 -91h247zM526 579h-361l14 64h361z" />
<glyph unicode="&#x114;" horiz-adv-x="597" d="M554 0h-460l147 691h446l-14 -65h-183q-6 0 -18 0.5t-18 0.5h-138l-50 -237h330l-13 -61h-330l-55 -259h209q6 0 18 0.5t18 0.5h126zM664 924q-18 -77 -78.5 -127.5t-128.5 -50.5q-67 0 -106 50q-28 36 -28 87q0 19 4 41h61q-2 -13 -2 -25q0 -34 20 -56q26 -30 67 -30 q40 0 79 29.5t51 81.5h61z" />
<glyph unicode="&#x115;" horiz-adv-x="444" d="M461 219h-309q-4 -21 -4 -40q0 -47 23 -81q32 -48 92 -48q83 0 164 56l-8 -65q-84 -52 -170 -52q-90 0 -139 69q-33 48 -33 111q0 27 6 57q20 97 94 166t157 69q90 0 122 -73q15 -34 15 -81q0 -40 -10 -88zM415 274q1 10 1 19q0 50 -24 76q-27 31 -71 31q-43 0 -86 -35 t-67 -91h247zM540 700q-18 -77 -78.5 -127.5t-128.5 -50.5q-67 0 -106 50q-28 36 -28 87q0 19 4 41h61q-3 -14 -3 -26q0 -33 19 -55q27 -30 68 -30q40 0 79 29.5t52 81.5h61z" />
<glyph unicode="&#x116;" horiz-adv-x="597" d="M554 0h-460l147 691h446l-14 -65h-183q-6 0 -18 0.5t-18 0.5h-138l-50 -237h330l-13 -61h-330l-55 -259h209q6 0 18 0.5t18 0.5h126zM499 736h-89l19 89h89z" />
<glyph unicode="&#x117;" horiz-adv-x="444" d="M461 219h-309q-4 -21 -4 -40q0 -47 23 -81q32 -48 92 -48q83 0 164 56l-8 -65q-84 -52 -170 -52q-90 0 -139 69q-33 48 -33 111q0 27 6 57q20 97 94 166t157 69q90 0 122 -73q15 -34 15 -81q0 -40 -10 -88zM415 274q1 10 1 19q0 50 -24 76q-27 31 -71 31q-43 0 -86 -35 t-67 -91h247zM386 566h-89l19 89h89z" />
<glyph unicode="&#x118;" horiz-adv-x="597" d="M514 -187q-58 -25 -103 -25q-47 0 -67 25q-16 19 -16 43q0 8 2 17q5 35 38 68t76 59h-350l147 691h446l-14 -65h-183q-6 0 -18 0.5t-18 0.5h-138l-50 -237h330l-13 -61h-330l-55 -259h209q6 0 18 0.5t18 0.5h126l-15 -71h-45q-101 -51 -111 -104q-1 -4 -1 -8q0 -15 9 -20 q12 -8 37 -10h4q28 0 66 14z" />
<glyph unicode="&#x119;" horiz-adv-x="444" d="M461 219h-309q-4 -21 -4 -40q0 -47 23 -81q32 -48 92 -48q83 0 164 56l-8 -65q-37 -23 -83 -38q-102 -51 -112 -107q-1 -4 -1 -8q0 -15 9 -20q12 -8 37 -10h4q28 0 66 14l1 -59q-58 -25 -103 -25q-47 0 -67 25q-16 19 -16 43q0 8 2 17q4 32 30 63t63 53q-90 0 -139 69 q-33 48 -33 111q0 27 6 57q20 97 94 166t157 69q90 0 122 -73q15 -34 15 -81q0 -40 -10 -88zM415 274q1 10 1 19q0 50 -24 76q-27 31 -71 31q-43 0 -86 -35t-67 -91h247z" />
<glyph unicode="&#x11a;" horiz-adv-x="597" d="M554 0h-460l147 691h446l-14 -65h-183q-6 0 -18 0.5t-18 0.5h-138l-50 -237h330l-13 -61h-330l-55 -259h209q6 0 18 0.5t18 0.5h126zM640 870l-155 -134h-60l-97 134h59l76 -97l118 97h59z" />
<glyph unicode="&#x11b;" horiz-adv-x="444" d="M461 219h-309q-4 -21 -4 -40q0 -47 23 -81q32 -48 92 -48q83 0 164 56l-8 -65q-84 -52 -170 -52q-90 0 -139 69q-33 48 -33 111q0 27 6 57q20 97 94 166t157 69q90 0 122 -73q15 -34 15 -81q0 -40 -10 -88zM415 274q1 10 1 19q0 50 -24 76q-27 31 -71 31q-43 0 -86 -35 t-67 -91h247zM525 697l-161 -172h-60l-89 172h59l70 -123l122 123h59z" />
<glyph unicode="&#x11c;" horiz-adv-x="667" d="M606 38q-110 -49 -220 -49q-64 0 -118 28t-88 77q-50 73 -50 166q0 41 10 87q32 148 148 254q118 105 250 105q57 0 102 -11q49 -14 89 -39l-32 -82q-36 37 -77 52q-39 16 -96 16q-95 0 -183 -86q-86 -88 -112 -209q-9 -41 -9 -79q0 -72 33 -129q51 -86 146 -86 q69 0 137 21l35 165h-132l13 61h210zM645 736h-59l-76 97l-118 -97h-59l155 134h60z" />
<glyph unicode="&#x11d;" d="M568 392q-40 3 -58 3q-12 0 -38 -2t-37 -2l-4 1q16 -29 16 -64q0 -17 -4 -36q-14 -67 -71 -115t-124 -48q-51 0 -84 29q-15 -15 -19 -36q-2 -8 -2 -16q0 -37 49 -37h88q177 0 180 -104q0 -17 -4 -35q-12 -57 -85 -96.5t-166 -39.5q-92 0 -148 40q-46 32 -46 76q0 9 2 19 q5 25 25.5 53.5t60.5 49.5q-13 21 -13 48q0 13 3 28q9 44 47 85q-16 29 -16 64q0 17 4 35q14 68 71.5 115.5t122.5 47.5q56 0 88 -32q81 32 165 32zM373 292q4 20 4 36q0 27 -13 44q-21 26 -58 26q-34 0 -67 -25t-45 -81q-4 -20 -4 -36q0 -29 14 -45q22 -25 57 -25 q37 0 68.5 26t43.5 80zM386 -72q1 6 1 12q0 16 -9 28q-14 15 -40.5 20.5t-41 7t-31.5 1.5h-90q-26 0 -45 -9t-28 -22t-13.5 -21.5t-5.5 -14.5v-1q-1 -5 -1 -10q0 -27 34 -46q39 -22 102 -22q62 0 111.5 22t56.5 55zM482 525h-59l-70 123l-122 -123h-59l161 172h60z" />
<glyph unicode="&#x11e;" horiz-adv-x="667" d="M606 38q-110 -49 -220 -49q-64 0 -118 28t-88 77q-50 73 -50 166q0 41 10 87q32 148 148 254q118 105 250 105q57 0 102 -11q49 -14 89 -39l-32 -82q-36 37 -77 52q-39 16 -96 16q-95 0 -183 -86q-86 -88 -112 -209q-9 -41 -9 -79q0 -72 33 -129q51 -86 146 -86 q69 0 137 21l35 165h-132l13 61h210zM698 924q-18 -77 -78.5 -127.5t-128.5 -50.5q-67 0 -106 50q-28 36 -28 87q0 19 4 41h61q-2 -13 -2 -25q0 -34 20 -56q26 -30 67 -30q40 0 79 29.5t51 81.5h61z" />
<glyph unicode="&#x11f;" d="M568 392q-40 3 -58 3q-12 0 -38 -2t-37 -2l-4 1q16 -29 16 -64q0 -17 -4 -36q-14 -67 -71 -115t-124 -48q-51 0 -84 29q-15 -15 -19 -36q-2 -8 -2 -16q0 -37 49 -37h88q177 0 180 -104q0 -17 -4 -35q-12 -57 -85 -96.5t-166 -39.5q-92 0 -148 40q-46 32 -46 76q0 9 2 19 q5 25 25.5 53.5t60.5 49.5q-13 21 -13 48q0 13 3 28q9 44 47 85q-16 29 -16 64q0 17 4 35q14 68 71.5 115.5t122.5 47.5q56 0 88 -32q81 32 165 32zM373 292q4 20 4 36q0 27 -13 44q-21 26 -58 26q-34 0 -67 -25t-45 -81q-4 -20 -4 -36q0 -29 14 -45q22 -25 57 -25 q37 0 68.5 26t43.5 80zM386 -72q1 6 1 12q0 16 -9 28q-14 15 -40.5 20.5t-41 7t-31.5 1.5h-90q-26 0 -45 -9t-28 -22t-13.5 -21.5t-5.5 -14.5v-1q-1 -5 -1 -10q0 -27 34 -46q39 -22 102 -22q62 0 111.5 22t56.5 55zM533 700q-18 -77 -78.5 -127.5t-128.5 -50.5 q-67 0 -106 50q-28 36 -28 87q0 19 4 41h61q-3 -14 -3 -26q0 -33 20 -55q26 -30 67 -30q40 0 79 29.5t52 81.5h61z" />
<glyph unicode="&#x120;" horiz-adv-x="667" d="M606 38q-110 -49 -220 -49q-64 0 -118 28t-88 77q-50 73 -50 166q0 41 10 87q32 148 148 254q118 105 250 105q57 0 102 -11q49 -14 89 -39l-32 -82q-36 37 -77 52q-39 16 -96 16q-95 0 -183 -86q-86 -88 -112 -209q-9 -41 -9 -79q0 -72 33 -129q51 -86 146 -86 q69 0 137 21l35 165h-132l13 61h210zM534 736h-89l19 89h89z" />
<glyph unicode="&#x121;" d="M568 392q-40 3 -58 3q-12 0 -38 -2t-37 -2l-4 1q16 -29 16 -64q0 -17 -4 -36q-14 -67 -71 -115t-124 -48q-51 0 -84 29q-15 -15 -19 -36q-2 -8 -2 -16q0 -37 49 -37h88q177 0 180 -104q0 -17 -4 -35q-12 -57 -85 -96.5t-166 -39.5q-92 0 -148 40q-46 32 -46 76q0 9 2 19 q5 25 25.5 53.5t60.5 49.5q-13 21 -13 48q0 13 3 28q9 44 47 85q-16 29 -16 64q0 17 4 35q14 68 71.5 115.5t122.5 47.5q56 0 88 -32q81 32 165 32zM373 292q4 20 4 36q0 27 -13 44q-21 26 -58 26q-34 0 -67 -25t-45 -81q-4 -20 -4 -36q0 -29 14 -45q22 -25 57 -25 q37 0 68.5 26t43.5 80zM386 -72q1 6 1 12q0 16 -9 28q-14 15 -40.5 20.5t-41 7t-31.5 1.5h-90q-26 0 -45 -9t-28 -22t-13.5 -21.5t-5.5 -14.5v-1q-1 -5 -1 -10q0 -27 34 -46q39 -22 102 -22q62 0 111.5 22t56.5 55zM379 566h-89l19 89h89z" />
<glyph unicode="&#x122;" horiz-adv-x="667" d="M606 38q-110 -49 -220 -49q-64 0 -118 28t-88 77q-50 73 -50 166q0 41 10 87q32 148 148 254q118 105 250 105q57 0 102 -11q49 -14 89 -39l-32 -82q-36 37 -77 52q-39 16 -96 16q-95 0 -183 -86q-86 -88 -112 -209q-9 -41 -9 -79q0 -72 33 -129q51 -86 146 -86 q69 0 137 21l35 165h-132l13 61h210zM337 -153l-61 -113h-37l46 112h-22l16 75h74z" />
<glyph unicode="&#x123;" d="M367 540h-74l16 74l61 113h37l-46 -112h22zM568 392q-40 3 -58 3q-12 0 -38 -2t-37 -2l-4 1q16 -29 16 -64q0 -17 -4 -36q-14 -67 -71 -115t-124 -48q-51 0 -84 29q-15 -15 -19 -36q-2 -8 -2 -16q0 -37 49 -37h88q177 0 180 -104q0 -17 -4 -35q-12 -57 -85 -96.5 t-166 -39.5q-92 0 -148 40q-46 32 -46 76q0 9 2 19q5 25 25.5 53.5t60.5 49.5q-13 21 -13 48q0 13 3 28q9 44 47 85q-16 29 -16 64q0 17 4 35q14 68 71.5 115.5t122.5 47.5q56 0 88 -32q81 32 165 32zM373 292q4 20 4 36q0 27 -13 44q-21 26 -58 26q-34 0 -67 -25t-45 -81 q-4 -20 -4 -36q0 -29 14 -45q22 -25 57 -25q37 0 68.5 26t43.5 80zM386 -72q1 6 1 12q0 16 -9 28q-14 15 -40.5 20.5t-41 7t-31.5 1.5h-90q-26 0 -45 -9t-28 -22t-13.5 -21.5t-5.5 -14.5v-1q-1 -5 -1 -10q0 -27 34 -46q39 -22 102 -22q62 0 111.5 22t56.5 55z" />
<glyph unicode="&#x124;" horiz-adv-x="708" d="M613 0h-89l70 330h-341l-70 -330h-89l148 694h89l-65 -303h341l65 303h89zM666 736h-59l-76 97l-118 -97h-59l155 134h60z" />
<glyph unicode="&#x125;" horiz-adv-x="517" d="M435 0h-78l62 291q4 20 4 35q0 68 -79 68q-52 0 -86.5 -45t-46.5 -104l-52 -245h-78l148 694h75l-67 -311q72 72 158 72q109 0 109 -102q0 -24 -6 -55zM570 736h-59l-76 97l-118 -97h-59l155 134h60z" />
<glyph unicode="&#x126;" horiz-adv-x="708" d="M769 489h-52l-104 -489h-89l70 330h-341l-70 -330h-89l104 489h-52l14 64h52l30 141h89l-30 -141h341l30 141h89l-30 -141h52zM607 391l21 98h-341l-21 -98h341z" />
<glyph unicode="&#x127;" horiz-adv-x="517" d="M435 0h-78l62 291q4 20 4 35q0 68 -79 68q-52 0 -86.5 -45t-46.5 -104l-52 -245h-78l114 537h-78l14 64h78l20 93h75l-20 -93h102l-14 -64h-102l-33 -154q72 72 158 72q109 0 109 -102q0 -24 -6 -55z" />
<glyph unicode="&#x128;" horiz-adv-x="278" d="M183 0h-89l148 694h89zM488 855q-13 -55 -49.5 -87t-74.5 -32q-27 0 -58 25q-40 33 -64 33q-37 0 -52 -58h-61q13 55 49.5 87t74.5 32q27 0 58 -25q40 -33 64 -33q37 0 52 58h61z" />
<glyph unicode="&#x129;" horiz-adv-x="239" d="M156 0h-75l94 444h75zM428 670q-13 -55 -49 -87t-74 -32q-26 0 -59 25q-40 33 -64 33q-37 0 -51 -58h-61q13 55 49 87t74 32q28 0 59 -25q40 -33 64 -33q37 0 51 58h61z" />
<glyph unicode="&#x12a;" horiz-adv-x="278" d="M183 0h-89l148 694h89zM481 756h-361l13 64h361z" />
<glyph unicode="&#x12b;" horiz-adv-x="239" d="M156 0h-75l94 444h75zM423 579h-361l14 64h361z" />
<glyph unicode="&#x12c;" horiz-adv-x="278" d="M183 0h-89l148 694h89zM504 924q-18 -77 -78.5 -127.5t-128.5 -50.5q-67 0 -106 50q-28 36 -28 87q0 19 4 41h61q-2 -13 -2 -25q0 -34 20 -56q26 -30 67 -30q40 0 79 29.5t51 81.5h61z" />
<glyph unicode="&#x12d;" horiz-adv-x="239" d="M156 0h-75l94 444h75zM437 700q-18 -77 -78.5 -127.5t-128.5 -50.5q-67 0 -106 50q-28 36 -28 87q0 19 4 41h61q-3 -14 -3 -26q0 -33 20 -55q26 -30 67 -30q40 0 79 29.5t52 81.5h61z" />
<glyph unicode="&#x12e;" horiz-adv-x="278" d="M189 -187q-58 -25 -103 -25q-47 0 -68 25q-15 19 -15 43q0 8 2 17q6 37 38 71t76 56h-25l148 694h89l-148 -694q-100 -50 -110 -104q-1 -4 -1 -8q0 -15 10 -20q11 -8 36 -10h4q28 0 66 14z" />
<glyph unicode="&#x12f;" horiz-adv-x="239" d="M289 591h-89l19 89h89zM162 -187q-58 -25 -103 -25q-47 0 -67 25q-16 19 -16 43q0 8 2 17q6 37 38 71t76 56h-11l94 444h75l-94 -444q-100 -50 -110 -104q-1 -4 -1 -8q0 -15 9 -20q12 -8 37 -10h4q28 0 66 14z" />
<glyph unicode="&#x130;" horiz-adv-x="278" d="M183 0h-89l148 694h89zM339 736h-89l19 89h89z" />
<glyph unicode="&#x131;" horiz-adv-x="239" d="M156 0h-75l94 444h75z" />
<glyph unicode="&#x134;" horiz-adv-x="472" d="M420 149q-18 -82 -75 -126.5t-137 -44.5q-85 0 -162 42l30 75q19 -27 50.5 -41.5t65.5 -14.5q41 0 71 14.5t44 37t19.5 36t7.5 25.5l116 542h86zM657 736h-59l-76 97l-118 -97h-59l155 134h60z" />
<glyph unicode="&#x135;" horiz-adv-x="267" d="M171 -59q-14 -67 -60 -106.5t-96 -39.5q-61 0 -112 34l34 61q25 -31 67 -31q10 0 20.5 2t25.5 8.5t27 22.5t17 39l109 513h75zM407 525h-59l-70 123l-122 -123h-59l161 172h60z" />
<glyph unicode="&#x136;" horiz-adv-x="694" d="M651 0h-92l-168 364l-162 -137l-48 -227h-85l148 694h85l-79 -371l442 371h93l-327 -274zM351 -153l-61 -113h-37l46 112h-22l16 75h74z" />
<glyph unicode="&#x137;" horiz-adv-x="489" d="M471 0h-82l-108 224l-98 -83l-30 -141h-69l148 694h72l-98 -458l247 208h90l-204 -172zM248 -153l-61 -113h-37l46 112h-22l16 75h74z" />
<glyph unicode="&#x139;" horiz-adv-x="542" d="M499 0h-405l148 694h89l-134 -630h49l267 2zM564 868l-223 -122h-89l201 122h111z" />
<glyph unicode="&#x13a;" horiz-adv-x="239" d="M156 0h-75l148 694h75zM551 868l-223 -122h-89l201 122h111z" />
<glyph unicode="&#x13b;" horiz-adv-x="542" d="M499 0h-405l148 694h89l-134 -630h49l267 2zM275 -153l-61 -113h-37l46 112h-22l16 75h74z" />
<glyph unicode="&#x13c;" horiz-adv-x="239" d="M156 0h-75l148 694h75zM123 -153l-61 -113h-37l46 112h-22l16 75h74z" />
<glyph unicode="&#x13d;" horiz-adv-x="542" d="M499 0h-405l148 694h89l-134 -630h49l267 2zM445 620l-61 -113h-37l46 112h-22l16 75h74z" />
<glyph unicode="&#x13e;" horiz-adv-x="239" d="M156 0h-75l148 694h75zM399 620l-61 -113h-37l46 112h-22l16 75h74z" />
<glyph unicode="&#x13f;" horiz-adv-x="542" d="M499 0h-405l148 694h89l-134 -630h49l267 2zM522 324h-89l19 89h89z" />
<glyph unicode="&#x140;" horiz-adv-x="288" d="M156 0h-75l148 694h75zM375 324h-89l19 89h89z" />
<glyph unicode="&#x141;" horiz-adv-x="625" d="M587 0h-405l61 289l-75 -54l-28 43l119 85l71 331h89l-55 -256l153 110l29 -45l-198 -140l-63 -299h49l267 2z" />
<glyph unicode="&#x142;" horiz-adv-x="324" d="M415 448l-128 -93l-75 -355h-75l61 289l-71 -52l-28 45l116 86l70 326h75l-56 -262l81 60z" />
<glyph unicode="&#x143;" horiz-adv-x="708" d="M611 0h-124l-142 486l-38 137h-1l-132 -623h-78l148 694h124l141 -486l38 -137h1l133 623h78zM729 868l-223 -122h-89l201 122h111z" />
<glyph unicode="&#x144;" horiz-adv-x="517" d="M435 0h-78l62 291q4 20 4 35q0 68 -79 68q-52 0 -86.5 -45t-46.5 -104l-52 -245h-78l96 450h72l-15 -71q9 11 25 24.5t56 32.5t80 19q109 0 109 -102q0 -24 -6 -55zM547 694l-186 -167h-61l169 167h78z" />
<glyph unicode="&#x145;" horiz-adv-x="708" d="M611 0h-124l-142 486l-38 137h-1l-132 -623h-78l148 694h124l141 -486l38 -137h1l133 623h78zM358 -153l-61 -113h-37l46 112h-22l16 75h74z" />
<glyph unicode="&#x146;" horiz-adv-x="517" d="M435 0h-78l62 291q4 20 4 35q0 68 -79 68q-52 0 -86.5 -45t-46.5 -104l-52 -245h-78l96 450h72l-15 -71q9 11 25 24.5t56 32.5t80 19q109 0 109 -102q0 -24 -6 -55zM262 -153l-61 -113h-37l46 112h-22l16 75h74z" />
<glyph unicode="&#x147;" horiz-adv-x="708" d="M611 0h-124l-142 486l-38 137h-1l-132 -623h-78l148 694h124l141 -486l38 -137h1l133 623h78zM695 870l-155 -134h-60l-97 134h59l76 -97l118 97h59z" />
<glyph unicode="&#x148;" horiz-adv-x="517" d="M435 0h-78l62 291q4 20 4 35q0 68 -79 68q-52 0 -86.5 -45t-46.5 -104l-52 -245h-78l96 450h72l-15 -71q9 11 25 24.5t56 32.5t80 19q109 0 109 -102q0 -24 -6 -55zM561 697l-161 -172h-60l-89 172h59l70 -123l122 123h59z" />
<glyph unicode="&#x14a;" horiz-adv-x="708" d="M687 347q-21 -96 -60 -177t-103 -136.5t-139 -55.5l17 78q42 0 75.5 24.5t56.5 70.5t37.5 91t27.5 105t17 105q3 25 3 51q0 20 -1 40q-4 46 -27 70.5t-65 24.5q-75 0 -143 -48.5t-101 -122.5l-99 -467h-89l148 694h89l-15 -67q104 89 226 89q57 0 94.5 -31.5t51.5 -84.5 q15 -52 15 -114q0 -66 -16 -139z" />
<glyph unicode="&#x14b;" horiz-adv-x="517" d="M435 0q-18 -85 -72 -147t-123 -62l13 64q73 0 104 145l62 291q4 20 4 35q0 68 -79 68q-52 0 -86.5 -45t-46.5 -104l-52 -245h-78l96 450h72l-15 -71q9 11 25 24.5t56 32.5t80 19q109 0 109 -102q0 -24 -6 -55z" />
<glyph unicode="&#x14c;" horiz-adv-x="736" d="M752 345q-32 -155 -147.5 -261t-242.5 -106q-125 0 -196 106q-48 71 -48 167q0 44 11 94q34 155 148.5 263t242.5 108q126 0 196 -108q47 -73 47 -168q0 -45 -11 -95zM667 360q10 47 10 88q0 71 -31 123q-49 81 -140 81q-89 0 -173 -80.5t-111 -211.5q-12 -55 -12 -102 q0 -73 28 -126q47 -89 139 -89q90 0 175 88t115 229zM710 756h-361l13 64h361z" />
<glyph unicode="&#x14d;" d="M516 220q-21 -97 -99.5 -164t-169.5 -67q-89 0 -140 67q-36 47 -36 110q0 25 6 54q21 99 100 170t171 71q90 0 140 -71q34 -49 34 -113q0 -27 -6 -57zM440 230q6 29 6 54q0 44 -21 72q-33 44 -91 44q-56 0 -107.5 -43t-69.5 -127q-6 -31 -6 -56q0 -46 20 -75 q32 -46 89 -46q59 0 110.5 46.5t69.5 130.5zM554 579h-361l14 64h361z" />
<glyph unicode="&#x14e;" horiz-adv-x="736" d="M752 345q-32 -155 -147.5 -261t-242.5 -106q-125 0 -196 106q-48 71 -48 167q0 44 11 94q34 155 148.5 263t242.5 108q126 0 196 -108q47 -73 47 -168q0 -45 -11 -95zM667 360q10 47 10 88q0 71 -31 123q-49 81 -140 81q-89 0 -173 -80.5t-111 -211.5q-12 -55 -12 -102 q0 -73 28 -126q47 -89 139 -89q90 0 175 88t115 229zM733 924q-18 -77 -78.5 -127.5t-128.5 -50.5q-67 0 -106 50q-28 36 -28 87q0 19 4 41h61q-2 -13 -2 -25q0 -34 19 -56q27 -30 68 -30q40 0 79 29.5t51 81.5h61z" />
<glyph unicode="&#x14f;" d="M516 220q-21 -97 -99.5 -164t-169.5 -67q-89 0 -140 67q-36 47 -36 110q0 25 6 54q21 99 100 170t171 71q90 0 140 -71q34 -49 34 -113q0 -27 -6 -57zM440 230q6 29 6 54q0 44 -21 72q-33 44 -91 44q-56 0 -107.5 -43t-69.5 -127q-6 -31 -6 -56q0 -46 20 -75 q32 -46 89 -46q59 0 110.5 46.5t69.5 130.5zM568 700q-18 -77 -78.5 -127.5t-128.5 -50.5q-67 0 -106 50q-28 36 -28 87q0 19 4 41h61q-3 -14 -3 -26q0 -33 19 -55q27 -30 68 -30q40 0 79 29.5t52 81.5h61z" />
<glyph unicode="&#x150;" horiz-adv-x="736" d="M752 345q-32 -155 -147.5 -261t-242.5 -106q-125 0 -196 106q-48 71 -48 167q0 44 11 94q34 155 148.5 263t242.5 108q126 0 196 -108q47 -73 47 -168q0 -45 -11 -95zM667 360q10 47 10 88q0 71 -31 123q-49 81 -140 81q-89 0 -173 -80.5t-111 -211.5q-12 -55 -12 -102 q0 -73 28 -126q47 -89 139 -89q90 0 175 88t115 229zM561 913l-116 -167h-61l99 167h78zM728 913l-116 -167h-61l99 167h78z" />
<glyph unicode="&#x151;" d="M516 220q-21 -97 -99.5 -164t-169.5 -67q-89 0 -140 67q-36 47 -36 110q0 25 6 54q21 99 100 170t171 71q90 0 140 -71q34 -49 34 -113q0 -27 -6 -57zM440 230q6 29 6 54q0 44 -21 72q-33 44 -91 44q-56 0 -107.5 -43t-69.5 -127q-6 -31 -6 -56q0 -46 20 -75 q32 -46 89 -46q59 0 110.5 46.5t69.5 130.5zM397 694l-116 -167h-61l99 167h78zM564 694l-116 -167h-61l99 167h78z" />
<glyph unicode="&#x152;" horiz-adv-x="972" d="M929 0h-410q-29 0 -83 -11q-55 -11 -83 -11q-131 0 -208 106q-54 73 -54 172q0 42 10 89q33 156 155 263.5t254 107.5q29 0 79 -11q47 -11 78 -11h396l-14 -65h-182q-6 0 -18 0.5t-18 0.5h-138l-51 -239h329l-13 -61h-329l-55 -260h209q6 0 18 0.5t18 0.5h125zM546 347 q38 177 41 213q1 10 1 20q0 36 -12 53q-16 22 -74 22q-105 0 -195 -86t-116 -209q-10 -48 -10 -90q0 -77 33 -137q52 -94 157 -94q58 0 83 21.5t42 70.5q10 29 50 216z" />
<glyph unicode="&#x153;" horiz-adv-x="778" d="M796 219h-294q-4 -22 -4 -41q0 -48 23 -82q32 -46 90 -46q77 0 150 56l-8 -65q-75 -52 -157 -52q-56 0 -98.5 28t-61.5 73q-91 -101 -197 -101q-86 0 -134 69q-33 47 -33 110q0 27 6 57q21 98 98 167t163 69q107 0 153 -99q34 41 84.5 70t104.5 29q51 0 81 -24.5 t38 -64.5q6 -34 6 -65v-13q-2 -36 -10 -75zM748 274q1 12 1 22q0 47 -18 72q-22 32 -63 32q-42 0 -84.5 -35.5t-65.5 -90.5h230zM426 230q7 31 7 56q0 44 -21 71q-31 43 -86 43q-57 0 -107.5 -44.5t-67.5 -125.5q-7 -31 -7 -57q0 -45 20 -75q31 -48 88 -48q56 0 106 46.5 t68 133.5z" />
<glyph unicode="&#x154;" horiz-adv-x="646" d="M617 0h-89l-121 317h-158l-67 -317h-86l148 694h241q106 0 167 -56q48 -43 48 -100q0 -14 -3 -30q-13 -61 -69.5 -110t-139.5 -72zM616 508q3 12 3 24q0 39 -32 68q-41 38 -125 38h-144l-56 -260h144q85 0 141.5 37t68.5 93zM698 868l-223 -122h-89l201 122h111z" />
<glyph unicode="&#x155;" horiz-adv-x="342" d="M409 388q-74 -2 -132.5 -50.5t-74.5 -123.5l-45 -214h-75l96 450h70l-20 -91q84 95 196 96zM441 694l-186 -167h-61l169 167h78z" />
<glyph unicode="&#x156;" horiz-adv-x="646" d="M617 0h-89l-121 317h-158l-67 -317h-86l148 694h241q106 0 167 -56q48 -43 48 -100q0 -14 -3 -30q-13 -61 -69.5 -110t-139.5 -72zM616 508q3 12 3 24q0 39 -32 68q-41 38 -125 38h-144l-56 -260h144q85 0 141.5 37t68.5 93zM327 -153l-61 -113h-37l46 112h-22l16 75h74z " />
<glyph unicode="&#x157;" horiz-adv-x="342" d="M409 388q-74 -2 -132.5 -50.5t-74.5 -123.5l-45 -214h-75l96 450h70l-20 -91q84 95 196 96zM124 -153l-61 -113h-37l46 112h-22l16 75h74z" />
<glyph unicode="&#x158;" horiz-adv-x="646" d="M617 0h-89l-121 317h-158l-67 -317h-86l148 694h241q106 0 167 -56q48 -43 48 -100q0 -14 -3 -30q-13 -61 -69.5 -110t-139.5 -72zM616 508q3 12 3 24q0 39 -32 68q-41 38 -125 38h-144l-56 -260h144q85 0 141.5 37t68.5 93zM664 870l-155 -134h-60l-97 134h59l76 -97 l118 97h59z" />
<glyph unicode="&#x159;" horiz-adv-x="342" d="M409 388q-74 -2 -132.5 -50.5t-74.5 -123.5l-45 -214h-75l96 450h70l-20 -91q84 95 196 96zM474 697l-161 -172h-60l-89 172h59l70 -123l122 123h59z" />
<glyph unicode="&#x15a;" horiz-adv-x="556" d="M539 189q-18 -85 -95 -148t-174 -63q-121 0 -216 69l32 81q79 -81 198 -81q65 0 114 40t60 92q3 15 3 28q0 38 -25 65q-17 18 -34 25.5t-79 23.5q-50 13 -78.5 26.5t-51.5 44.5q-31 42 -31 91q0 18 4 36q17 78 92.5 137.5t175.5 59.5t173 -50l-32 -80q-64 64 -156 64 q-66 0 -113.5 -36t-57.5 -83q-3 -13 -3 -25q0 -33 21 -54q18 -18 34 -25.5t61 -18.5q72 -19 100.5 -33t53.5 -49q29 -41 29 -92q0 -22 -5 -45zM653 868l-223 -122h-89l201 122h111z" />
<glyph unicode="&#x15b;" horiz-adv-x="383" d="M387 128q-15 -71 -71 -107q-49 -32 -122 -32q-79 0 -159 44l26 68q65 -49 145 -49q94 0 109 69q2 8 2 14q0 10 -4 19q-6 13 -21 20.5t-26.5 11t-29.5 7.5q-33 7 -45.5 10t-27 9.5t-27.5 17.5q-36 32 -36 76q0 12 3 24q7 31 22 55t36 37.5t40 22t41.5 11.5t32.5 4t22 1 q74 0 137 -32l-26 -65q-55 38 -134 38q-85 0 -98 -62q-4 -18 1 -30t20 -19.5t27.5 -11.5t37.5 -9q41 -8 62.5 -17t43.5 -33l4 -6q3 -5 6.5 -12t7 -19t4 -25t-2.5 -30zM481 694l-186 -167h-61l169 167h78z" />
<glyph unicode="&#x15c;" horiz-adv-x="556" d="M539 189q-18 -85 -95 -148t-174 -63q-121 0 -216 69l32 81q79 -81 198 -81q65 0 114 40t60 92q3 15 3 28q0 38 -25 65q-17 18 -34 25.5t-79 23.5q-50 13 -78.5 26.5t-51.5 44.5q-31 42 -31 91q0 18 4 36q17 78 92.5 137.5t175.5 59.5t173 -50l-32 -80q-64 64 -156 64 q-66 0 -113.5 -36t-57.5 -83q-3 -13 -3 -25q0 -33 21 -54q18 -18 34 -25.5t61 -18.5q72 -19 100.5 -33t53.5 -49q29 -41 29 -92q0 -22 -5 -45zM590 736h-59l-76 97l-118 -97h-59l155 134h60z" />
<glyph unicode="&#x15d;" horiz-adv-x="383" d="M387 128q-15 -71 -71 -107q-49 -32 -122 -32q-79 0 -159 44l26 68q65 -49 145 -49q94 0 109 69q2 8 2 14q0 10 -4 19q-6 13 -21 20.5t-26.5 11t-29.5 7.5q-33 7 -45.5 10t-27 9.5t-27.5 17.5q-36 32 -36 76q0 12 3 24q7 31 22 55t36 37.5t40 22t41.5 11.5t32.5 4t22 1 q74 0 137 -32l-26 -65q-55 38 -134 38q-85 0 -98 -62q-4 -18 1 -30t20 -19.5t27.5 -11.5t37.5 -9q41 -8 62.5 -17t43.5 -33l4 -6q3 -5 6.5 -12t7 -19t4 -25t-2.5 -30zM459 525h-59l-70 123l-122 -123h-59l161 172h60z" />
<glyph unicode="&#x15e;" horiz-adv-x="556" d="M539 189q-18 -85 -95 -148t-174 -63q-121 0 -216 69l32 81q79 -81 198 -81q65 0 114 40t60 92q3 15 3 28q0 38 -25 65q-17 18 -34 25.5t-79 23.5q-50 13 -78.5 26.5t-51.5 44.5q-31 42 -31 91q0 18 4 36q17 78 92.5 137.5t175.5 59.5t173 -50l-32 -80q-64 64 -156 64 q-66 0 -113.5 -36t-57.5 -83q-3 -13 -3 -25q0 -33 21 -54q18 -18 34 -25.5t61 -18.5q72 -19 100.5 -33t53.5 -49q29 -41 29 -92q0 -22 -5 -45zM314 -46l-101 -168h-69l109 168h61z" />
<glyph unicode="&#x15f;" horiz-adv-x="383" d="M387 128q-15 -71 -71 -107q-49 -32 -122 -32q-79 0 -159 44l26 68q65 -49 145 -49q94 0 109 69q2 8 2 14q0 10 -4 19q-6 13 -21 20.5t-26.5 11t-29.5 7.5q-33 7 -45.5 10t-27 9.5t-27.5 17.5q-36 32 -36 76q0 12 3 24q7 31 22 55t36 37.5t40 22t41.5 11.5t32.5 4t22 1 q74 0 137 -32l-26 -65q-55 38 -134 38q-85 0 -98 -62q-4 -18 1 -30t20 -19.5t27.5 -11.5t37.5 -9q41 -8 62.5 -17t43.5 -33l4 -6q3 -5 6.5 -12t7 -19t4 -25t-2.5 -30zM228 -46l-101 -168h-69l109 168h61z" />
<glyph unicode="&#x160;" horiz-adv-x="556" d="M539 189q-18 -85 -95 -148t-174 -63q-121 0 -216 69l32 81q79 -81 198 -81q65 0 114 40t60 92q3 15 3 28q0 38 -25 65q-17 18 -34 25.5t-79 23.5q-50 13 -78.5 26.5t-51.5 44.5q-31 42 -31 91q0 18 4 36q17 78 92.5 137.5t175.5 59.5t173 -50l-32 -80q-64 64 -156 64 q-66 0 -113.5 -36t-57.5 -83q-3 -13 -3 -25q0 -33 21 -54q18 -18 34 -25.5t61 -18.5q72 -19 100.5 -33t53.5 -49q29 -41 29 -92q0 -22 -5 -45zM619 870l-155 -134h-60l-97 134h59l76 -97l118 97h59z" />
<glyph unicode="&#x161;" horiz-adv-x="383" d="M387 128q-15 -71 -71 -107q-49 -32 -122 -32q-79 0 -159 44l26 68q65 -49 145 -49q94 0 109 69q2 8 2 14q0 10 -4 19q-6 13 -21 20.5t-26.5 11t-29.5 7.5q-33 7 -45.5 10t-27 9.5t-27.5 17.5q-36 32 -36 76q0 12 3 24q7 31 22 55t36 37.5t40 22t41.5 11.5t32.5 4t22 1 q74 0 137 -32l-26 -65q-55 38 -134 38q-85 0 -98 -62q-4 -18 1 -30t20 -19.5t27.5 -11.5t37.5 -9q41 -8 62.5 -17t43.5 -33l4 -6q3 -5 6.5 -12t7 -19t4 -25t-2.5 -30zM495 697l-161 -172h-60l-89 172h59l70 -123l122 123h59z" />
<glyph unicode="&#x162;" horiz-adv-x="681" d="M776 623h-134q-6 0 -17.5 0.5t-17.5 0.5h-89l-133 -624h-89l133 624h-90q-6 0 -18.5 -0.5t-18.5 -0.5h-134l14 65h608zM366 -24l-102 -168h-69l110 168h61z" />
<glyph unicode="&#x163;" horiz-adv-x="361" d="M338 27q-82 -38 -154 -38q-62 0 -62 75q0 24 6 55l57 267h-84l12 58h87l27 127h69l-27 -127h141l-12 -58h-141l-53 -250q-4 -21 -4 -37q0 -46 37 -46q50 0 97 33zM238 -24l-102 -168h-69l110 168h61z" />
<glyph unicode="&#x164;" horiz-adv-x="681" d="M776 623h-134q-6 0 -17.5 0.5t-17.5 0.5h-89l-133 -624h-89l133 624h-90q-6 0 -18.5 -0.5t-18.5 -0.5h-134l14 65h608zM681 870l-155 -134h-60l-97 134h59l76 -97l118 97h59z" />
<glyph unicode="&#x165;" horiz-adv-x="361" d="M338 27q-82 -38 -154 -38q-62 0 -62 75q0 24 6 55l57 267h-84l12 58h87l27 127h69l-27 -127h141l-12 -58h-141l-53 -250q-4 -21 -4 -37q0 -46 37 -46q50 0 97 33zM412 594l-61 -113h-37l46 112h-22l16 75h74z" />
<glyph unicode="&#x168;" horiz-adv-x="688" d="M643 233q-23 -108 -111.5 -181.5t-190.5 -73.5q-103 0 -162 74q-42 52 -42 121q0 29 7 60l98 461h89l-99 -462q-7 -33 -7 -61q0 -52 25 -85q37 -52 104 -52q68 0 129 52t81 146l99 462h78zM693 855q-13 -55 -49.5 -87t-74.5 -32q-27 0 -58 25q-40 33 -64 33 q-37 0 -52 -58h-61q13 55 49.5 87t74.5 32q27 0 58 -25q40 -33 64 -33q37 0 52 58h61z" />
<glyph unicode="&#x169;" horiz-adv-x="517" d="M435 0h-75l10 48q-80 -59 -185 -59q-59 0 -76 31q-10 17 -10 45q0 20 5 44l71 335h78l-70 -331q-3 -16 -3 -27q0 -17 6 -26q11 -16 60 -16q51 0 92 28.5t52 81.5l61 290h78zM567 670q-13 -55 -49 -87t-74 -32q-26 0 -59 25q-40 33 -64 33q-37 0 -51 -58h-61q13 55 49 87 t74 32q28 0 59 -25q40 -33 64 -33q37 0 51 58h61z" />
<glyph unicode="&#x16a;" horiz-adv-x="688" d="M643 233q-23 -108 -111.5 -181.5t-190.5 -73.5q-103 0 -162 74q-42 52 -42 121q0 29 7 60l98 461h89l-99 -462q-7 -33 -7 -61q0 -52 25 -85q37 -52 104 -52q68 0 129 52t81 146l99 462h78zM686 756h-361l13 64h361z" />
<glyph unicode="&#x16b;" horiz-adv-x="517" d="M435 0h-75l10 48q-80 -59 -185 -59q-59 0 -76 31q-10 17 -10 45q0 20 5 44l71 335h78l-70 -331q-3 -16 -3 -27q0 -17 6 -26q11 -16 60 -16q51 0 92 28.5t52 81.5l61 290h78zM562 579h-361l14 64h361z" />
<glyph unicode="&#x16c;" horiz-adv-x="688" d="M643 233q-23 -108 -111.5 -181.5t-190.5 -73.5q-103 0 -162 74q-42 52 -42 121q0 29 7 60l98 461h89l-99 -462q-7 -33 -7 -61q0 -52 25 -85q37 -52 104 -52q68 0 129 52t81 146l99 462h78zM709 924q-18 -77 -78.5 -127.5t-128.5 -50.5q-67 0 -106 50q-28 36 -28 87 q0 19 4 41h61q-2 -13 -2 -25q0 -34 19 -56q27 -30 68 -30q40 0 79 29.5t51 81.5h61z" />
<glyph unicode="&#x16d;" horiz-adv-x="517" d="M435 0h-75l10 48q-80 -59 -185 -59q-59 0 -76 31q-10 17 -10 45q0 20 5 44l71 335h78l-70 -331q-3 -16 -3 -27q0 -17 6 -26q11 -16 60 -16q51 0 92 28.5t52 81.5l61 290h78zM576 700q-18 -77 -78.5 -127.5t-128.5 -50.5q-67 0 -106 50q-28 36 -28 87q0 19 4 41h61 q-3 -14 -3 -26q0 -33 19 -55q27 -30 68 -30q40 0 79 29.5t52 81.5h61z" />
<glyph unicode="&#x16e;" horiz-adv-x="688" d="M643 233q-23 -108 -111.5 -181.5t-190.5 -73.5q-103 0 -162 74q-42 52 -42 121q0 29 7 60l98 461h89l-99 -462q-7 -33 -7 -61q0 -52 25 -85q37 -52 104 -52q68 0 129 52t81 146l99 462h78zM558 778q4 17 -6.5 26t-18.5 10t-17 1q-50 0 -58 -37q-4 -17 6.5 -26t18.5 -10 t17 -1q50 0 58 37zM619 777q-7 -33 -44 -58t-85 -25q-47 0 -74 24q-20 20 -20 46q0 7 1 15q8 33 45 58t84 25t74 -24q20 -20 20 -46q0 -7 -1 -15z" />
<glyph unicode="&#x16f;" horiz-adv-x="517" d="M435 0h-75l10 48q-80 -59 -185 -59q-59 0 -76 31q-10 17 -10 45q0 20 5 44l71 335h78l-70 -331q-3 -16 -3 -27q0 -17 6 -26q11 -16 60 -16q51 0 92 28.5t52 81.5l61 290h78zM436 601q4 17 -6.5 26t-18.5 10t-17 1q-50 0 -58 -37q-4 -17 6.5 -26t18.5 -10t17 -1 q50 0 58 37zM497 600q-8 -33 -45 -58t-84 -25t-74 25q-20 19 -20 45q0 7 1 15q7 33 44 58t85 25q47 0 74 -25q20 -19 20 -45q0 -7 -1 -15z" />
<glyph unicode="&#x170;" horiz-adv-x="688" d="M643 233q-23 -108 -111.5 -181.5t-190.5 -73.5q-103 0 -162 74q-42 52 -42 121q0 29 7 60l98 461h89l-99 -462q-7 -33 -7 -61q0 -52 25 -85q37 -52 104 -52q68 0 129 52t81 146l99 462h78zM537 913l-116 -167h-61l99 167h78zM704 913l-116 -167h-61l99 167h78z" />
<glyph unicode="&#x171;" horiz-adv-x="517" d="M435 0h-75l10 48q-80 -59 -185 -59q-59 0 -76 31q-10 17 -10 45q0 20 5 44l71 335h78l-70 -331q-3 -16 -3 -27q0 -17 6 -26q11 -16 60 -16q51 0 92 28.5t52 81.5l61 290h78zM405 694l-116 -167h-61l99 167h78zM572 694l-116 -167h-61l99 167h78z" />
<glyph unicode="&#x172;" horiz-adv-x="688" d="M643 233q-21 -96 -95 -166.5t-166 -85.5q-67 -40 -76 -85q-1 -4 -1 -8q0 -15 9 -20q12 -8 37 -10h4q28 0 66 14l1 -59q-58 -25 -103 -25q-47 0 -67 25q-16 19 -16 43q0 8 2 17q10 58 80 106q-94 9 -145 81q-36 50 -36 115q0 28 7 58l98 461h89l-99 -462q-7 -33 -7 -61 q0 -52 25 -85q37 -52 104 -52q68 0 129 52t81 146l99 462h78z" />
<glyph unicode="&#x173;" horiz-adv-x="517" d="M441 -187q-58 -25 -103 -25q-47 0 -68 25q-15 19 -15 43q0 8 2 17q6 37 38 71t76 56h-11l10 48q-80 -59 -185 -59q-59 0 -76 31q-10 17 -10 45q0 20 5 44l71 335h78l-70 -331q-3 -16 -3 -27q0 -17 6 -26q11 -16 60 -16q51 0 92 28.5t52 81.5l61 290h78l-94 -444 q-100 -50 -110 -104q-1 -4 -1 -8q0 -15 10 -20q11 -8 36 -10h4q28 0 66 14z" />
<glyph unicode="&#x174;" horiz-adv-x="944" d="M1077 694l-351 -694h-87l-30 401q-9 121 -9 184q0 21 1 36h-1q-14 -43 -128 -274l-174 -347h-81l-55 694h86l21 -282l11 -167q4 -110 4 -150q0 -16 -1 -21h1q16 53 142 308l157 312h81l25 -341q13 -171 13 -244q0 -24 -1 -37h1q18 56 145 308l158 314h72zM784 736h-59 l-76 97l-118 -97h-59l155 134h60z" />
<glyph unicode="&#x175;" horiz-adv-x="683" d="M762 444l-231 -444h-88l-20 248q-5 55 -5 96q0 25 2 44h-1q-13 -48 -83 -182l-106 -206h-79l-43 444h76l16 -173q9 -124 9 -182q0 -22 -1 -34h1q17 56 91 201l97 188h70l20 -213q9 -102 9 -151q0 -16 -1 -26h1q12 33 84 178l109 212h73zM609 525h-59l-70 123l-122 -123 h-59l161 172h60z" />
<glyph unicode="&#x176;" horiz-adv-x="667" d="M811 694l-376 -417l-59 -277h-86l59 278l-198 416h105l136 -290q1 -1 24 -57l81 95l22 26l204 226h88zM645 736h-59l-76 97l-118 -97h-59l155 134h60z" />
<glyph unicode="&#x177;" horiz-adv-x="461" d="M540 444l-331 -535q-43 -69 -74.5 -91.5t-63.5 -22.5q-36 0 -70 8l8 65q36 -16 75 -16q10 0 16 2t20.5 15.5t32.5 40.5l55 90l-100 444h79l28 -125q35 -160 35 -236q0 -15 -1 -26h1q18 69 215 387h75zM498 525h-59l-70 123l-122 -123h-59l161 172h60z" />
<glyph unicode="&#x178;" horiz-adv-x="667" d="M811 694l-376 -417l-59 -277h-86l59 278l-198 416h105l136 -290q1 -1 24 -57l81 95l22 26l204 226h88zM442 736h-80l17 80h80zM616 736h-80l17 80h80z" />
<glyph unicode="&#x179;" horiz-adv-x="611" d="M560 0h-504l9 43l511 590h-136q-6 0 -18.5 -0.5t-18.5 -0.5h-200l14 62h485l-9 -41l-510 -589h32l263 2h96zM681 868l-223 -122h-89l201 122h111z" />
<glyph unicode="&#x17a;" horiz-adv-x="435" d="M402 0h-374l9 41l340 345h-78q-6 0 -18 -0.5t-18 -0.5h-139l12 59h358l-8 -39l-339 -344h85q6 0 18 0.5t18 0.5h147zM506 694l-186 -167h-61l169 167h78z" />
<glyph unicode="&#x17b;" horiz-adv-x="611" d="M560 0h-504l9 43l511 590h-136q-6 0 -18.5 -0.5t-18.5 -0.5h-200l14 62h485l-9 -41l-510 -589h32l263 2h96zM506 736h-89l19 89h89z" />
<glyph unicode="&#x17c;" horiz-adv-x="435" d="M402 0h-374l9 41l340 345h-78q-6 0 -18 -0.5t-18 -0.5h-139l12 59h358l-8 -39l-339 -344h85q6 0 18 0.5t18 0.5h147zM381 566h-89l19 89h89z" />
<glyph unicode="&#x17d;" horiz-adv-x="611" d="M560 0h-504l9 43l511 590h-136q-6 0 -18.5 -0.5t-18.5 -0.5h-200l14 62h485l-9 -41l-510 -589h32l263 2h96zM647 870l-155 -134h-60l-97 134h59l76 -97l118 97h59z" />
<glyph unicode="&#x17e;" horiz-adv-x="435" d="M402 0h-374l9 41l340 345h-78q-6 0 -18 -0.5t-18 -0.5h-139l12 59h358l-8 -39l-339 -344h85q6 0 18 0.5t18 0.5h147zM520 697l-161 -172h-60l-89 172h59l70 -123l122 123h59z" />
<glyph unicode="&#x17f;" horiz-adv-x="286" d="M460 627q-35 17 -77 17q-19 0 -37 -4t-40.5 -23.5t-29.5 -53.5l-120 -563h-75l114 534q16 74 73.5 122.5t128.5 48.5q34 0 78 -11z" />
<glyph unicode="&#x18e;" horiz-adv-x="597" d="M554 0h-460l15 71h126q6 0 18 -0.5t18 -0.5h209l55 259h-330l13 61h330l50 237h-138q-6 0 -18 -0.5t-18 -0.5h-183l14 65h446z" />
<glyph unicode="&#x192;" horiz-adv-x="306" d="M480 627q-35 17 -77 17q-13 0 -26.5 -2.5t-32 -10t-32.5 -25t-19 -43.5l-26 -119h113l-12 -58h-110l-82 -386h-75l82 386h-74l12 58h74l20 90q16 74 73.5 122.5t128.5 48.5q34 0 78 -11z" />
<glyph unicode="&#x1a0;" horiz-adv-x="736" d="M752 344q-32 -150 -147 -259q-114 -107 -243 -107q-63 0 -114.5 28.5t-82.5 78.5q-47 72 -47 167q0 44 10 92q34 155 148 263q114 109 243 109q83 0 146 -50l37 28h-22l-2 1l17 82l2 1h81l1 -1l-17 -82l-1 -1l-74 -49q17 -17 29 -38q47 -73 47 -167q0 -45 -11 -96z M667 361q9 44 9 83q0 71 -29 124q-21 39 -58 62t-83 23q-95 0 -177 -85q-83 -85 -108 -207q-11 -53 -11 -99q0 -71 27 -127q20 -42 56 -67t83 -25q94 0 179 92q83 92 112 226z" />
<glyph unicode="&#x1a1;" d="M565 445l-80 -53l2 -2q34 -49 34 -113q0 -28 -6 -58q-20 -94 -99 -163q-80 -67 -169 -67q-90 0 -141 67q-35 48 -35 109q0 26 6 54q21 101 100 171q79 71 170 71q70 0 118 -46l39 29h-22v1l17 82l1 1h81l1 -1zM439 231q6 27 6 50q0 42 -19 71q-29 48 -92 48 q-64 0 -112 -48q-50 -47 -65 -121q-6 -29 -6 -54q0 -42 18 -74q27 -50 91 -50q65 0 113 50q48 47 66 128z" />
<glyph unicode="&#x1af;" horiz-adv-x="687" d="M838 694l-115 -72l-83 -391q-22 -105 -110 -179q-87 -74 -190 -74t-161 74q-42 53 -42 123q0 27 6 56l99 463h89l-99 -463q-7 -32 -7 -59q0 -48 21 -83q34 -56 106 -56q73 0 134 56q59 57 77 142l99 463h77l-7 -32l46 32h-22l-1 1l17 82l1 1h81l1 -1l-17 -82v-1z" />
<glyph unicode="&#x1b0;" horiz-adv-x="544" d="M629 445l-115 -73l-79 -372h-75l10 48q-76 -59 -188 -59q-55 0 -73 29q-11 18 -11 47q0 20 5 45l71 334h78l-71 -334q-3 -14 -3 -24q0 -19 9 -28q16 -14 65 -14q47 0 87 30t49 72l63 298h78l-6 -32l45 32h-23v1l17 82l1 1h82l1 -1z" />
<glyph unicode="&#x1cd;" horiz-adv-x="667" d="M638 0h-92l-33 204h-291l-120 -204h-74l409 694h88zM503 260l-36 257q-11 84 -10 105h-1q-11 -28 -97 -181l-104 -181h248zM674 870l-155 -134h-60l-97 134h59l76 -97l118 97h59z" />
<glyph unicode="&#x1ce;" horiz-adv-x="481" d="M409 0h-75l8 36q-71 -47 -176 -47q-31 0 -52 13.5t-28 32.5t-10 41q-1 8 -1 15q0 12 3 22q14 63 99.5 96.5t205.5 35.5l9 43q5 21 5 38q0 27 -12 46q-19 30 -56 30q-80 0 -161 -50l8 66q84 43 166 43q70 0 107 -49q26 -33 26 -80q0 -20 -5 -43zM359 132l13 62 q-207 -10 -222 -79q-1 -6 -1 -11q0 -22 19 -36q24 -18 62 -18q47 0 82 19q38 19 47 63zM543 697l-161 -172h-60l-89 172h59l70 -123l122 123h59z" />
<glyph unicode="&#x1cf;" horiz-adv-x="278" d="M183 0h-89l148 694h89zM480 870l-155 -134h-60l-97 134h59l76 -97l118 97h59z" />
<glyph unicode="&#x1d0;" horiz-adv-x="239" d="M156 0h-75l94 444h75zM422 697l-161 -172h-60l-89 172h59l70 -123l122 123h59z" />
<glyph unicode="&#x1d1;" horiz-adv-x="736" d="M752 345q-32 -155 -147.5 -261t-242.5 -106q-125 0 -196 106q-48 71 -48 167q0 44 11 94q34 155 148.5 263t242.5 108q126 0 196 -108q47 -73 47 -168q0 -45 -11 -95zM667 360q10 47 10 88q0 71 -31 123q-49 81 -140 81q-89 0 -173 -80.5t-111 -211.5q-12 -55 -12 -102 q0 -73 28 -126q47 -89 139 -89q90 0 175 88t115 229zM709 870l-155 -134h-60l-97 134h59l76 -97l118 97h59z" />
<glyph unicode="&#x1d2;" d="M516 220q-21 -97 -99.5 -164t-169.5 -67q-89 0 -140 67q-36 47 -36 110q0 25 6 54q21 99 100 170t171 71q90 0 140 -71q34 -49 34 -113q0 -27 -6 -57zM440 230q6 29 6 54q0 44 -21 72q-33 44 -91 44q-56 0 -107.5 -43t-69.5 -127q-6 -31 -6 -56q0 -46 20 -75 q32 -46 89 -46q59 0 110.5 46.5t69.5 130.5zM553 697l-161 -172h-60l-89 172h59l70 -123l122 123h59z" />
<glyph unicode="&#x1d3;" horiz-adv-x="688" d="M643 233q-23 -108 -111.5 -181.5t-190.5 -73.5q-103 0 -162 74q-42 52 -42 121q0 29 7 60l98 461h89l-99 -462q-7 -33 -7 -61q0 -52 25 -85q37 -52 104 -52q68 0 129 52t81 146l99 462h78zM685 870l-155 -134h-60l-97 134h59l76 -97l118 97h59z" />
<glyph unicode="&#x1d4;" horiz-adv-x="517" d="M435 0h-75l10 48q-80 -59 -185 -59q-59 0 -76 31q-10 17 -10 45q0 20 5 44l71 335h78l-70 -331q-3 -16 -3 -27q0 -17 6 -26q11 -16 60 -16q51 0 92 28.5t52 81.5l61 290h78zM561 697l-161 -172h-60l-89 172h59l70 -123l122 123h59z" />
<glyph unicode="&#x1d7;" horiz-adv-x="688" d="M643 233q-23 -108 -111.5 -181.5t-190.5 -73.5q-103 0 -162 74q-42 52 -42 121q0 29 7 60l98 461h89l-99 -462q-7 -33 -7 -61q0 -52 25 -85q37 -52 104 -52q68 0 129 52t81 146l99 462h78zM453 736h-80l17 80h80zM627 736h-80l17 80h80zM745 990l-223 -122h-89l201 122 h111z" />
<glyph unicode="&#x1d8;" horiz-adv-x="517" d="M435 0h-75l10 48q-80 -59 -185 -59q-59 0 -76 31q-10 17 -10 45q0 20 5 44l71 335h78l-70 -331q-3 -16 -3 -27q0 -17 6 -26q11 -16 60 -16q51 0 92 28.5t52 81.5l61 290h78zM346 571h-80l17 80h80zM492 571h-80l17 80h80zM625 829l-223 -122h-89l201 122h111z" />
<glyph unicode="&#x1d9;" horiz-adv-x="688" d="M643 233q-23 -108 -111.5 -181.5t-190.5 -73.5q-103 0 -162 74q-42 52 -42 121q0 29 7 60l98 461h89l-99 -462q-7 -33 -7 -61q0 -52 25 -85q37 -52 104 -52q68 0 129 52t81 146l99 462h78zM453 736h-80l17 80h80zM627 736h-80l17 80h80zM711 992l-155 -134h-60l-97 134 h59l76 -97l118 97h59z" />
<glyph unicode="&#x1da;" horiz-adv-x="517" d="M435 0h-75l10 48q-80 -59 -185 -59q-59 0 -76 31q-10 17 -10 45q0 20 5 44l71 335h78l-70 -331q-3 -16 -3 -27q0 -17 6 -26q11 -16 60 -16q51 0 92 28.5t52 81.5l61 290h78zM346 571h-80l17 80h80zM492 571h-80l17 80h80zM591 831l-155 -134h-60l-97 134h59l76 -97 l118 97h59z" />
<glyph unicode="&#x1db;" horiz-adv-x="688" d="M643 233q-23 -108 -111.5 -181.5t-190.5 -73.5q-103 0 -162 74q-42 52 -42 121q0 29 7 60l98 461h89l-99 -462q-7 -33 -7 -61q0 -52 25 -85q37 -52 104 -52q68 0 129 52t81 146l99 462h78zM453 736h-80l17 80h80zM627 736h-80l17 80h80zM623 868h-89l-171 122h111z" />
<glyph unicode="&#x1dc;" horiz-adv-x="517" d="M435 0h-75l10 48q-80 -59 -185 -59q-59 0 -76 31q-10 17 -10 45q0 20 5 44l71 335h78l-70 -331q-3 -16 -3 -27q0 -17 6 -26q11 -16 60 -16q51 0 92 28.5t52 81.5l61 290h78zM346 571h-80l17 80h80zM492 571h-80l17 80h80zM503 707h-89l-171 122h111z" />
<glyph unicode="&#x1dd;" horiz-adv-x="444" d="M462 224q-21 -97 -94.5 -166t-156.5 -69q-90 0 -123 73q-14 33 -14 80q0 40 10 89h309q4 21 4 40q0 47 -23 81q-32 48 -92 48q-84 0 -164 -56l8 65q84 52 170 52q90 0 138 -69q34 -48 34 -111q0 -27 -6 -57zM376 176h-247q-1 -8 -1 -16q0 -52 24 -79q28 -31 72 -31 q43 0 85.5 35t66.5 91z" />
<glyph unicode="&#x1e6;" horiz-adv-x="667" d="M606 38q-110 -49 -220 -49q-64 0 -118 28t-88 77q-50 73 -50 166q0 41 10 87q32 148 148 254q118 105 250 105q57 0 102 -11q49 -14 89 -39l-32 -82q-36 37 -77 52q-39 16 -96 16q-95 0 -183 -86q-86 -88 -112 -209q-9 -41 -9 -79q0 -72 33 -129q51 -86 146 -86 q69 0 137 21l35 165h-132l13 61h210zM674 870l-155 -134h-60l-97 134h59l76 -97l118 97h59z" />
<glyph unicode="&#x1e7;" d="M568 392q-40 3 -58 3q-12 0 -38 -2t-37 -2l-4 1q16 -29 16 -64q0 -17 -4 -36q-14 -67 -71 -115t-124 -48q-51 0 -84 29q-15 -15 -19 -36q-2 -8 -2 -16q0 -37 49 -37h88q177 0 180 -104q0 -17 -4 -35q-12 -57 -85 -96.5t-166 -39.5q-92 0 -148 40q-46 32 -46 76q0 9 2 19 q5 25 25.5 53.5t60.5 49.5q-13 21 -13 48q0 13 3 28q9 44 47 85q-16 29 -16 64q0 17 4 35q14 68 71.5 115.5t122.5 47.5q56 0 88 -32q81 32 165 32zM373 292q4 20 4 36q0 27 -13 44q-21 26 -58 26q-34 0 -67 -25t-45 -81q-4 -20 -4 -36q0 -29 14 -45q22 -25 57 -25 q37 0 68.5 26t43.5 80zM386 -72q1 6 1 12q0 16 -9 28q-14 15 -40.5 20.5t-41 7t-31.5 1.5h-90q-26 0 -45 -9t-28 -22t-13.5 -21.5t-5.5 -14.5v-1q-1 -5 -1 -10q0 -27 34 -46q39 -22 102 -22q62 0 111.5 22t56.5 55zM518 697l-161 -172h-60l-89 172h59l70 -123l122 123h59z " />
<glyph unicode="&#x1ea;" horiz-adv-x="736" d="M752 345q-29 -140 -127.5 -241.5t-214.5 -121.5q-69 -41 -77 -86q-1 -4 -1 -8q0 -15 10 -20q11 -8 36 -10h4q28 0 66 14l1 -59q-58 -25 -103 -25q-47 0 -68 25q-15 19 -15 43q0 8 2 17q9 57 78 106q-118 9 -182 113q-43 69 -43 159q0 44 11 94q34 155 148.5 263 t242.5 108q126 0 196 -108q47 -73 47 -168q0 -45 -11 -95zM667 360q10 47 10 88q0 71 -31 123q-49 81 -140 81q-89 0 -173 -80.5t-111 -211.5q-12 -55 -12 -102q0 -73 28 -126q47 -89 139 -89q90 0 175 88t115 229z" />
<glyph unicode="&#x1eb;" d="M516 220q-17 -80 -75.5 -141t-133.5 -82q-94 -48 -104 -101q-1 -4 -1 -8q0 -15 10 -20q11 -8 36 -10h4q28 0 66 14l1 -59q-58 -25 -103 -25q-47 0 -68 25q-15 19 -15 43q0 8 2 17q5 32 31 63t64 54q-83 7 -128 72q-31 45 -31 103q0 26 6 55q21 99 100 170t171 71 q90 0 140 -71q34 -49 34 -113q0 -27 -6 -57zM440 230q6 29 6 54q0 44 -21 72q-33 44 -91 44q-56 0 -107.5 -43t-69.5 -127q-6 -31 -6 -56q0 -46 20 -75q32 -46 89 -46q59 0 110.5 46.5t69.5 130.5z" />
<glyph unicode="&#x1f0;" horiz-adv-x="267" d="M171 -59q-14 -67 -60 -106.5t-96 -39.5q-61 0 -112 34l34 61q25 -31 67 -31q10 0 20.5 2t25.5 8.5t27 22.5t17 39l109 513h75zM443 697l-161 -172h-60l-89 172h59l70 -123l122 123h59z" />
<glyph unicode="&#x1f4;" horiz-adv-x="667" d="M606 38q-110 -49 -220 -49q-64 0 -118 28t-88 77q-50 73 -50 166q0 41 10 87q32 148 148 254q118 105 250 105q57 0 102 -11q49 -14 89 -39l-32 -82q-36 37 -77 52q-39 16 -96 16q-95 0 -183 -86q-86 -88 -112 -209q-9 -41 -9 -79q0 -72 33 -129q51 -86 146 -86 q69 0 137 21l35 165h-132l13 61h210zM708 868l-223 -122h-89l201 122h111z" />
<glyph unicode="&#x1f5;" d="M568 392q-40 3 -58 3q-12 0 -38 -2t-37 -2l-4 1q16 -29 16 -64q0 -17 -4 -36q-14 -67 -71 -115t-124 -48q-51 0 -84 29q-15 -15 -19 -36q-2 -8 -2 -16q0 -37 49 -37h88q177 0 180 -104q0 -17 -4 -35q-12 -57 -85 -96.5t-166 -39.5q-92 0 -148 40q-46 32 -46 76q0 9 2 19 q5 25 25.5 53.5t60.5 49.5q-13 21 -13 48q0 13 3 28q9 44 47 85q-16 29 -16 64q0 17 4 35q14 68 71.5 115.5t122.5 47.5q56 0 88 -32q81 32 165 32zM373 292q4 20 4 36q0 27 -13 44q-21 26 -58 26q-34 0 -67 -25t-45 -81q-4 -20 -4 -36q0 -29 14 -45q22 -25 57 -25 q37 0 68.5 26t43.5 80zM386 -72q1 6 1 12q0 16 -9 28q-14 15 -40.5 20.5t-41 7t-31.5 1.5h-90q-26 0 -45 -9t-28 -22t-13.5 -21.5t-5.5 -14.5v-1q-1 -5 -1 -10q0 -27 34 -46q39 -22 102 -22q62 0 111.5 22t56.5 55zM504 694l-186 -167h-61l169 167h78z" />
<glyph unicode="&#x1fa;" horiz-adv-x="667" d="M638 0h-92l-33 204h-291l-120 -204h-74l409 694h88zM503 260l-36 257q-11 84 -10 105h-1q-11 -28 -97 -181l-104 -181h248zM548 778q4 17 -6.5 26t-18.5 10t-17 1q-50 0 -58 -37q-4 -17 6.5 -26t18.5 -10t17 -1q50 0 58 37zM609 777q-7 -33 -44 -58t-85 -25q-47 0 -74 24 q-20 20 -20 46q0 7 1 15q8 33 45 58t84 25t74 -24q20 -20 20 -46q0 -7 -1 -15zM692 1019l-222 -122h-89l200 122h111z" />
<glyph unicode="&#x1fb;" horiz-adv-x="481" d="M409 0h-75l8 36q-71 -47 -176 -47q-31 0 -52 13.5t-28 32.5t-10 41q-1 8 -1 15q0 12 3 22q14 63 99.5 96.5t205.5 35.5l9 43q5 21 5 38q0 27 -12 46q-19 30 -56 30q-80 0 -161 -50l8 66q84 43 166 43q70 0 107 -49q26 -33 26 -80q0 -20 -5 -43zM359 132l13 62 q-207 -10 -222 -79q-1 -6 -1 -11q0 -22 19 -36q24 -18 62 -18q47 0 82 19q38 19 47 63zM418 601q4 17 -6.5 26t-18.5 10t-17 1q-50 0 -58 -37q-4 -17 6.5 -26t18.5 -10t17 -1q50 0 58 37zM479 600q-8 -33 -45 -58t-84 -25t-74 25q-20 19 -20 45q0 7 1 15q7 33 44 58t85 25 q47 0 74 -25q20 -19 20 -45q0 -7 -1 -15zM562 842l-223 -122h-89l201 122h111z" />
<glyph unicode="&#x1fc;" horiz-adv-x="861" d="M818 0h-399l47 222h-225l-138 -222h-75l432 694h492l-14 -65h-153q-6 0 -18 0.5t-18 0.5h-108l-51 -239h270l-13 -61h-270l-55 -260h170q6 0 18 0.5t18 0.5h105zM478 278l75 352h-58l-219 -352h202zM806 868l-223 -122h-89l201 122h111z" />
<glyph unicode="&#x1fd;" horiz-adv-x="722" d="M740 219h-293q-4 -22 -4 -41q0 -49 23 -82q33 -46 89 -46q77 0 150 56l-8 -65q-75 -52 -156 -52q-97 0 -147 77q-22 -26 -57.5 -43t-74.5 -23.5t-61.5 -8.5t-41.5 -2q-34 0 -55.5 15t-27 35t-8.5 41v14q0 12 3 20q26 119 304 133l8 41q4 20 4 36q0 29 -12 48 q-19 30 -55 30q-81 0 -162 -50l8 66q84 43 166 43q43 0 76.5 -20.5t48.5 -56.5q79 77 168 77q34 0 59 -12t38 -29t20 -43.5t8 -46.5q1 -8 1 -17q0 -14 -1 -31q-3 -28 -5 -38zM692 274q1 12 1 22q0 25 -5 44q-7 27 -21 39t-27 16.5t-27 4.5q-41 0 -83 -34.5t-67 -91.5h229z M354 127q2 8 10 64q-34 0 -74 -4t-90 -22.5t-57 -49.5q-1 -5 -1 -10q0 -21 18 -37q22 -18 62 -18q13 0 26 1.5t38.5 7.5t43.5 23.5t24 44.5zM650 694l-186 -167h-61l169 167h78z" />
<glyph unicode="&#x1fe;" horiz-adv-x="778" d="M794 345q-33 -154 -153.5 -260.5t-257.5 -106.5q-78 0 -144 41l-66 -84l-48 32l70 90q-75 82 -75 200q0 42 9 88q33 154 154 262.5t258 108.5q74 0 144 -41l66 84l49 -32l-72 -90q42 -42 64 -119q12 -39 12 -84q0 -42 -10 -89zM641 619q-53 36 -114 36q-100 0 -191.5 -84 t-121.5 -226q-10 -47 -10 -88q0 -81 39 -140zM709 345q11 49 11 91q0 83 -40 140l-396 -502q51 -35 113 -35q100 0 191 82t121 224zM764 868l-223 -122h-89l201 122h111z" />
<glyph unicode="&#x1ff;" d="M514 220q-21 -97 -99.5 -164t-167.5 -67q-44 0 -82 19l-93 -120l-46 30l95 123q-48 57 -48 128q0 25 6 51q21 99 100 170t169 71q44 0 84 -20l89 116l47 -30l-94 -121q47 -52 47 -127q0 -28 -7 -59zM389 387q-23 13 -54 13q-60 0 -111.5 -47.5t-69.5 -132.5 q-6 -27 -6 -51q0 -39 17 -70zM439 220q6 30 6 55q0 42 -16 72l-222 -286q21 -11 53 -11q59 0 110 44t69 126zM539 694l-186 -167h-61l169 167h78z" />
<glyph unicode="&#x200;" horiz-adv-x="667" d="M638 0h-92l-33 204h-291l-120 -204h-74l409 694h88zM503 260l-36 257q-11 84 -10 105h-1q-11 -28 -97 -181l-104 -181h248zM606 746h-61l-44 167h78zM439 746h-61l-44 167h78z" />
<glyph unicode="&#x201;" horiz-adv-x="481" d="M409 0h-75l8 36q-71 -47 -176 -47q-31 0 -52 13.5t-28 32.5t-10 41q-1 8 -1 15q0 12 3 22q14 63 99.5 96.5t205.5 35.5l9 43q5 21 5 38q0 27 -12 46q-19 30 -56 30q-80 0 -161 -50l8 66q84 43 166 43q70 0 107 -49q26 -33 26 -80q0 -20 -5 -43zM359 132l13 62 q-207 -10 -222 -79q-1 -6 -1 -11q0 -22 19 -36q24 -18 62 -18q47 0 82 19q38 19 47 63zM494 527h-61l-44 167h78zM327 527h-61l-44 167h78z" />
<glyph unicode="&#x204;" horiz-adv-x="597" d="M554 0h-460l147 691h446l-14 -65h-183q-6 0 -18 0.5t-18 0.5h-138l-50 -237h330l-13 -61h-330l-55 -259h209q6 0 18 0.5t18 0.5h126zM599 746h-61l-44 167h78zM432 746h-61l-44 167h78z" />
<glyph unicode="&#x205;" horiz-adv-x="444" d="M461 219h-309q-4 -21 -4 -40q0 -47 23 -81q32 -48 92 -48q83 0 164 56l-8 -65q-84 -52 -170 -52q-90 0 -139 69q-33 48 -33 111q0 27 6 57q20 97 94 166t157 69q90 0 122 -73q15 -34 15 -81q0 -40 -10 -88zM415 274q1 10 1 19q0 50 -24 76q-27 31 -71 31q-43 0 -86 -35 t-67 -91h247zM476 527h-61l-44 167h78zM309 527h-61l-44 167h78z" />
<glyph unicode="&#x208;" horiz-adv-x="278" d="M183 0h-89l148 694h89zM439 746h-61l-44 167h78zM272 746h-61l-44 167h78z" />
<glyph unicode="&#x209;" horiz-adv-x="239" d="M156 0h-75l94 444h75zM373 527h-61l-44 167h78zM206 527h-61l-44 167h78z" />
<glyph unicode="&#x20c;" horiz-adv-x="736" d="M752 345q-32 -155 -147.5 -261t-242.5 -106q-125 0 -196 106q-48 71 -48 167q0 44 11 94q34 155 148.5 263t242.5 108q126 0 196 -108q47 -73 47 -168q0 -45 -11 -95zM667 360q10 47 10 88q0 71 -31 123q-49 81 -140 81q-89 0 -173 -80.5t-111 -211.5q-12 -55 -12 -102 q0 -73 28 -126q47 -89 139 -89q90 0 175 88t115 229zM668 746h-61l-44 167h78zM501 746h-61l-44 167h78z" />
<glyph unicode="&#x20d;" d="M516 220q-21 -97 -99.5 -164t-169.5 -67q-89 0 -140 67q-36 47 -36 110q0 25 6 54q21 99 100 170t171 71q90 0 140 -71q34 -49 34 -113q0 -27 -6 -57zM440 230q6 29 6 54q0 44 -21 72q-33 44 -91 44q-56 0 -107.5 -43t-69.5 -127q-6 -31 -6 -56q0 -46 20 -75 q32 -46 89 -46q59 0 110.5 46.5t69.5 130.5zM504 527h-61l-44 167h78zM337 527h-61l-44 167h78z" />
<glyph unicode="&#x210;" horiz-adv-x="646" d="M617 0h-89l-121 317h-158l-67 -317h-86l148 694h241q106 0 167 -56q48 -43 48 -100q0 -14 -3 -30q-13 -61 -69.5 -110t-139.5 -72zM616 508q3 12 3 24q0 39 -32 68q-41 38 -125 38h-144l-56 -260h144q85 0 141.5 37t68.5 93zM595 746h-61l-44 167h78zM428 746h-61 l-44 167h78z" />
<glyph unicode="&#x211;" horiz-adv-x="342" d="M409 388q-74 -2 -132.5 -50.5t-74.5 -123.5l-45 -214h-75l96 450h70l-20 -91q84 95 196 96zM425 527h-61l-44 167h78zM258 527h-61l-44 167h78z" />
<glyph unicode="&#x214;" horiz-adv-x="688" d="M643 233q-23 -108 -111.5 -181.5t-190.5 -73.5q-103 0 -162 74q-42 52 -42 121q0 29 7 60l98 461h89l-99 -462q-7 -33 -7 -61q0 -52 25 -85q37 -52 104 -52q68 0 129 52t81 146l99 462h78zM644 746h-61l-44 167h78zM477 746h-61l-44 167h78z" />
<glyph unicode="&#x215;" horiz-adv-x="517" d="M435 0h-75l10 48q-80 -59 -185 -59q-59 0 -76 31q-10 17 -10 45q0 20 5 44l71 335h78l-70 -331q-3 -16 -3 -27q0 -17 6 -26q11 -16 60 -16q51 0 92 28.5t52 81.5l61 290h78zM512 527h-61l-44 167h78zM345 527h-61l-44 167h78z" />
<glyph unicode="&#x218;" horiz-adv-x="556" d="M539 189q-18 -85 -95 -148t-174 -63q-121 0 -216 69l32 81q79 -81 198 -81q65 0 114 40t60 92q3 15 3 28q0 38 -25 65q-17 18 -34 25.5t-79 23.5q-50 13 -78.5 26.5t-51.5 44.5q-31 42 -31 91q0 18 4 36q17 78 92.5 137.5t175.5 59.5t173 -50l-32 -80q-64 64 -156 64 q-66 0 -113.5 -36t-57.5 -83q-3 -13 -3 -25q0 -33 21 -54q18 -18 34 -25.5t61 -18.5q72 -19 100.5 -33t53.5 -49q29 -41 29 -92q0 -22 -5 -45zM282 -153l-61 -113h-37l46 112h-22l16 75h74z" />
<glyph unicode="&#x219;" horiz-adv-x="383" d="M387 128q-15 -71 -71 -107q-49 -32 -122 -32q-79 0 -159 44l26 68q65 -49 145 -49q94 0 109 69q2 8 2 14q0 10 -4 19q-6 13 -21 20.5t-26.5 11t-29.5 7.5q-33 7 -45.5 10t-27 9.5t-27.5 17.5q-36 32 -36 76q0 12 3 24q7 31 22 55t36 37.5t40 22t41.5 11.5t32.5 4t22 1 q74 0 137 -32l-26 -65q-55 38 -134 38q-85 0 -98 -62q-4 -18 1 -30t20 -19.5t27.5 -11.5t37.5 -9q41 -8 62.5 -17t43.5 -33l4 -6q3 -5 6.5 -12t7 -19t4 -25t-2.5 -30zM196 -153l-61 -113h-37l46 112h-22l16 75h74z" />
<glyph unicode="&#x21a;" horiz-adv-x="681" d="M776 623h-134q-6 0 -17.5 0.5t-17.5 0.5h-89l-133 -624h-89l133 624h-90q-6 0 -18.5 -0.5t-18.5 -0.5h-134l14 65h608zM344 -153l-61 -113h-37l46 112h-22l16 75h74z" />
<glyph unicode="&#x21b;" horiz-adv-x="361" d="M338 27q-82 -38 -154 -38q-62 0 -62 75q0 24 6 55l57 267h-84l12 58h87l27 127h69l-27 -127h141l-12 -58h-141l-53 -250q-4 -21 -4 -37q0 -46 37 -46q50 0 97 33zM185 -153l-61 -113h-37l46 112h-22l16 75h74z" />
<glyph unicode="&#x237;" horiz-adv-x="267" d="M171 -59q-14 -67 -60 -106.5t-96 -39.5q-61 0 -112 34l34 61q25 -31 67 -31q10 0 20.5 2t25.5 8.5t27 22.5t17 39l109 513h75z" />
<glyph unicode="&#x258;" horiz-adv-x="444" d="M462 226q-21 -99 -98.5 -168t-167.5 -69q-87 0 -148 52l20 65q55 -56 140 -56q60 0 112.5 48t70.5 121h-309q22 107 75 169q65 73 154 73q83 0 127 -69q30 -47 30 -108q0 -28 -6 -58zM397 274q0 56 -28 91t-71 35q-44 0 -84.5 -31t-63.5 -95h247z" />
<glyph unicode="&#x259;" horiz-adv-x="444" d="M462 224q-21 -97 -94.5 -166t-156.5 -69q-90 0 -123 73q-14 33 -14 80q0 40 10 89h309q4 21 4 40q0 47 -23 81q-32 48 -92 48q-84 0 -164 -56l8 65q84 52 170 52q90 0 138 -69q34 -48 34 -111q0 -27 -6 -57zM376 176h-247q-1 -8 -1 -16q0 -52 24 -79q28 -31 72 -31 q43 0 85.5 35t66.5 91z" />
<glyph unicode="&#x2be;" horiz-adv-x="397" d="M439 463q-14 -70 -70 -123t-130 -53q-60 0 -107 31q-3 3 -3 5v3l19 46q1 4 5 4q3 0 4 -1q38 -30 91 -30q50 0 81.5 36t42.5 84q4 18 4 34q0 28 -12 49q-19 32 -61 32q-60 0 -117 -38q-1 -1 -3 -1q-4 0 -6 7l6 48q0 2 3 4q63 38 128 38q69 0 104 -52q25 -37 25 -82 q0 -20 -4 -41z" />
<glyph unicode="&#x2bf;" horiz-adv-x="397" d="M411 329q0 -1 -3 -4q-65 -38 -128 -38q-69 0 -105 52q-25 37 -25 83q0 19 4 40q15 70 71.5 123t129.5 53q59 0 107 -31q1 -1 3 -5l-1 -3l-18 -46q-1 -4 -5 -4q-3 0 -4 1q-40 30 -92 30q-50 0 -81.5 -36.5t-41.5 -83.5q-4 -18 -4 -34q0 -28 12 -48q19 -33 60 -33 q60 0 117 38q2 1 4 1q5 0 5 -7z" />
<glyph unicode="&#x2c6;" d="M517 525h-59l-70 123l-122 -123h-59l161 172h60z" />
<glyph unicode="&#x2c7;" d="M553 697l-161 -172h-60l-89 172h59l70 -123l122 123h59z" />
<glyph unicode="&#x2d8;" d="M568 700q-18 -77 -78.5 -127.5t-128.5 -50.5q-67 0 -106 50q-28 36 -28 87q0 19 4 41h61q-3 -14 -3 -26q0 -33 19 -55q27 -30 68 -30q40 0 79 29.5t52 81.5h61z" />
<glyph unicode="&#x2d9;" horiz-adv-x="278" d="M303 566h-89l19 89h89z" />
<glyph unicode="&#x2da;" horiz-adv-x="738" d="M546 601q4 17 -6.5 26t-18.5 10t-17 1q-50 0 -58 -37q-4 -17 6.5 -26t18.5 -10t17 -1q50 0 58 37zM607 600q-8 -33 -45 -58t-84 -25t-74 25q-20 19 -20 45q0 7 1 15q7 33 44 58t85 25q47 0 74 -25q20 -19 20 -45q0 -7 -1 -15z" />
<glyph unicode="&#x2db;" d="M309 -187q-58 -25 -103 -25q-47 0 -68 25q-15 19 -15 43q0 8 2 17q6 37 38 71t76 56h64q-100 -50 -110 -104q-1 -4 -1 -8q0 -15 10 -20q11 -8 36 -10h4q28 0 66 14z" />
<glyph unicode="&#x2dc;" d="M559 670q-13 -55 -49 -87t-74 -32q-26 0 -59 25q-40 33 -64 33q-37 0 -51 -58h-61q13 55 49 87t74 32q28 0 59 -25q40 -33 64 -33q37 0 51 58h61z" />
<glyph unicode="&#x2dd;" d="M397 694l-116 -167h-61l99 167h78zM564 694l-116 -167h-61l99 167h78z" />
<glyph unicode="&#x300;" horiz-adv-x="0" d="M-58 527h-61l-114 167h78z" />
<glyph unicode="&#x301;" horiz-adv-x="0" d="M49 694l-186 -167h-61l169 167h78z" />
<glyph unicode="&#x302;" horiz-adv-x="0" d="M27 525h-59l-70 123l-122 -123h-59l161 172h60z" />
<glyph unicode="&#x303;" horiz-adv-x="0" d="M69 670q-13 -55 -49 -87t-74 -32q-26 0 -59 25q-40 33 -64 33q-37 0 -51 -58h-61q13 55 49 87t74 32q28 0 59 -25q40 -33 64 -33q37 0 51 58h61z" />
<glyph unicode="&#x304;" horiz-adv-x="0" d="M64 579h-361l14 64h361z" />
<glyph unicode="&#x306;" horiz-adv-x="0" d="M78 700q-18 -77 -78.5 -127.5t-128.5 -50.5q-67 0 -106 50q-28 36 -28 87q0 19 4 41h61q-3 -14 -3 -26q0 -33 19 -55q27 -30 68 -30q40 0 79 29.5t52 81.5h61z" />
<glyph unicode="&#x307;" horiz-adv-x="0" d="M-76 566h-89l19 89h89z" />
<glyph unicode="&#x308;" horiz-adv-x="0" d="M-152 571h-80l17 80h80zM-6 571h-80l17 80h80z" />
<glyph unicode="&#x309;" horiz-adv-x="0" d="M-7 640q-7 -33 -38 -50l-15 -9q-31 -17 -45 -29t-17 -29l-4 -19l-1 -1h-26l-1 1l4 19q15 67 75 96q15 8 18 21q2 7 2 12q0 12 -8 18q-12 9 -40 9q-49 0 -83 -44h-1h-1l-6 40q43 43 100 43q51 0 72 -20q17 -14 17 -39q0 -9 -2 -19z" />
<glyph unicode="&#x30a;" horiz-adv-x="0" d="M-63 601q4 17 -6.5 26t-18.5 10t-17 1q-50 0 -58 -37q-4 -17 6.5 -26t18.5 -10t17 -1q50 0 58 37zM-2 600q-8 -33 -45 -58t-84 -25t-73 25q-21 19 -21 45q0 7 1 15q7 33 44 58t85 25q47 0 73 -25q21 -19 21 -45q0 -7 -1 -15z" />
<glyph unicode="&#x30b;" horiz-adv-x="0" d="M-93 694l-116 -167h-61l99 167h78zM74 694l-116 -167h-61l99 167h78z" />
<glyph unicode="&#x30c;" horiz-adv-x="0" d="M63 697l-161 -172h-60l-89 172h59l70 -123l122 123h59z" />
<glyph unicode="&#x30f;" horiz-adv-x="0" d="M14 527h-61l-44 167h78zM-153 527h-61l-44 167h78z" />
<glyph unicode="&#x311;" horiz-adv-x="0" d="M40 522h-61q2 13 2 25q0 34 -19 56q-26 30 -67 30q-40 0 -79 -29.5t-52 -81.5h-61q18 77 78.5 127.5t128.5 50.5q67 0 106 -50q28 -36 28 -87q0 -19 -4 -41z" />
<glyph unicode="&#x323;" horiz-adv-x="0" d="M-239 -200h-89l19 89h89z" />
<glyph unicode="&#x326;" horiz-adv-x="0" d="M-236 -153l-61 -113h-37l46 112h-22l16 75h74z" />
<glyph unicode="&#x32e;" horiz-adv-x="0" d="M-85 -66q-18 -77 -78.5 -127.5t-128.5 -50.5q-67 0 -106 50q-28 36 -28 87q0 19 4 41h61q-2 -13 -2 -25q0 -34 19 -56q26 -30 67 -30q40 0 79 29.5t52 81.5h61z" />
<glyph unicode="&#x32f;" horiz-adv-x="0" d="M-123 -244h-61q2 13 2 25q0 34 -19 56q-26 30 -67 30q-40 0 -79 -29.5t-52 -81.5h-61q18 77 78.5 127.5t128.5 50.5q67 0 106 -50q28 -36 28 -87q0 -19 -4 -41z" />
<glyph unicode="&#x330;" horiz-adv-x="0" d="M-93 -95q-13 -55 -49 -87t-74 -32q-28 0 -59 25q-40 33 -64 33q-37 0 -51 -58h-61q13 55 49 87t74 32q27 0 58 -25q40 -33 64 -33q38 0 52 58h61z" />
<glyph unicode="&#x331;" horiz-adv-x="0" d="M-99 -187h-361l14 64h361z" />
<glyph unicode="&#x332;" horiz-adv-x="0" d="M-99 -187h-361l14 64h361z" />
<glyph unicode="&#x391;" horiz-adv-x="667" d="M638 0h-92l-33 204h-291l-120 -204h-74l409 694h88zM503 260l-36 257q-11 84 -10 105h-1q-11 -28 -97 -181l-104 -181h248z" />
<glyph unicode="&#x392;" horiz-adv-x="667" d="M650 188q-16 -75 -99.5 -131.5t-189.5 -56.5h-264l148 694h237q105 0 166 -52q49 -42 49 -95q0 -13 -3 -27q-12 -55 -68 -97t-132 -60q79 -13 124 -62q35 -38 35 -85q0 -14 -3 -28zM615 519q2 9 2 17q0 39 -41 68q-51 34 -134 34h-126l-53 -247h116q97 0 161.5 39.5 t74.5 88.5zM569 189q3 12 3 23q0 44 -43 77q-53 41 -134 41h-145l-58 -274h153q81 0 146.5 38.5t77.5 94.5z" />
<glyph unicode="&#x393;" horiz-adv-x="542" d="M632 626h-162q-6 0 -18 0.5t-18 0.5h-118l-133 -627h-89l147 691h405z" />
<glyph unicode="&#x394;" horiz-adv-x="833" d="M790 0h-748l477 694h90zM670 83l-99 391q-31 125 -33 151q-23 -44 -155 -237l-207 -305h494z" />
<glyph unicode="&#x395;" horiz-adv-x="597" d="M554 0h-460l147 691h446l-14 -65h-183q-6 0 -18 0.5t-18 0.5h-138l-50 -237h330l-13 -61h-330l-55 -259h209q6 0 18 0.5t18 0.5h126z" />
<glyph unicode="&#x396;" horiz-adv-x="611" d="M560 0h-504l9 43l511 590h-136q-6 0 -18.5 -0.5t-18.5 -0.5h-200l14 62h485l-9 -41l-510 -589h32l263 2h96z" />
<glyph unicode="&#x397;" horiz-adv-x="708" d="M613 0h-89l70 330h-341l-70 -330h-89l148 694h89l-65 -303h341l65 303h89z" />
<glyph unicode="&#x398;" horiz-adv-x="778" d="M794 345q-33 -154 -153.5 -260.5t-257.5 -106.5q-135 0 -211 106q-53 74 -53 172q0 42 10 89q33 154 154 262.5t258 108.5q136 0 211 -108q52 -75 52 -173q0 -43 -10 -90zM711 345q10 46 10 87q0 77 -36 135q-55 88 -158 88q-101 0 -193.5 -87.5t-121.5 -222.5 q-9 -45 -9 -84q0 -79 37 -135q55 -86 158 -86q100 0 192.5 85t120.5 220zM646 306h-385l18 83h385z" />
<glyph unicode="&#x399;" horiz-adv-x="278" d="M183 0h-89l148 694h89z" />
<glyph unicode="&#x39a;" horiz-adv-x="694" d="M651 0h-92l-168 364l-162 -137l-48 -227h-85l148 694h85l-79 -371l442 371h93l-327 -274z" />
<glyph unicode="&#x39b;" horiz-adv-x="611" d="M582 0h-94l-36 304l-17 160q-9 90 -9 135q0 13 1 22h-1q-4 -15 -18 -45.5t-32 -65.5l-38 -72l-36 -69l-28 -51l-11 -22l-161 -296h-74l381 694h88z" />
<glyph unicode="&#x39c;" horiz-adv-x="875" d="M774 0h-78l132 620l-1 1q-2 -4 -68 -124l-75 -127l-207 -348h-73l-66 389q-28 174 -27 209h-1l-132 -620h-78l148 694h113l15 -87l69 -414q9 -65 11 -100h1q23 51 148 262l203 339h114z" />
<glyph unicode="&#x39d;" horiz-adv-x="708" d="M611 0h-124l-142 486l-38 137h-1l-132 -623h-78l148 694h124l141 -486l38 -137h1l133 623h78z" />
<glyph unicode="&#x39e;" horiz-adv-x="667" d="M749 613h-125l-160 1l-162 -1h-125l16 75h572zM624 0h-582l16 75h128l163 -1l163 1h128zM623 321h-444l16 74h444z" />
<glyph unicode="&#x39f;" horiz-adv-x="736" d="M752 345q-32 -155 -147.5 -261t-242.5 -106q-125 0 -196 106q-48 71 -48 167q0 44 11 94q34 155 148.5 263t242.5 108q126 0 196 -108q47 -73 47 -168q0 -45 -11 -95zM667 360q10 47 10 88q0 71 -31 123q-49 81 -140 81q-89 0 -173 -80.5t-111 -211.5q-12 -55 -12 -102 q0 -73 28 -126q47 -89 139 -89q90 0 175 88t115 229z" />
<glyph unicode="&#x3a0;" horiz-adv-x="708" d="M613 0h-89l134 630h-341l-134 -630h-89l147 691h519z" />
<glyph unicode="&#x3a1;" horiz-adv-x="639" d="M687 492q-18 -84 -99 -143.5t-175 -59.5h-167l-61 -289h-89l148 694h249q101 0 156 -60q42 -46 42 -105q0 -18 -4 -37zM606 492q4 17 4 32q0 44 -30 74q-40 40 -121 40h-141l-62 -291h141q83 0 139.5 41.5t69.5 103.5z" />
<glyph unicode="&#x3a3;" horiz-adv-x="722" d="M665 0h-609l302 335l-168 295l14 64h609l-14 -65h-258q-6 0 -18 0.5t-18 0.5h-202l162 -283l-251 -278h190q6 0 18 0.5t18 0.5h240z" />
<glyph unicode="&#x3a4;" horiz-adv-x="681" d="M776 623h-134q-6 0 -17.5 0.5t-17.5 0.5h-89l-133 -624h-89l133 624h-90q-6 0 -18.5 -0.5t-18.5 -0.5h-134l14 65h608z" />
<glyph unicode="&#x3a5;" horiz-adv-x="778" d="M839 555h-78q3 13 3 25q0 25 -12 43q-17 26 -53 26q-59 0 -106 -58t-79 -211l-81 -380h-89l81 380q19 82 19 136q0 15 -2 28q-6 60 -27.5 82.5t-60.5 22.5q-36 0 -64 -26.5t-38 -67.5h-78q17 72 73.5 116.5t118.5 44.5q128 0 128 -184q0 -18 -1 -38h1q77 222 221 222 q62 0 100 -44q28 -33 28 -80q0 -18 -4 -37z" />
<glyph unicode="&#x3a6;" horiz-adv-x="722" d="M739 347q-19 -88 -107 -158t-210 -83l-23 -106h-83l23 107q-107 11 -167 80q-47 53 -47 118q0 20 5 42q19 90 109 159.5t202 80.5l23 107h83l-23 -106q117 -13 176 -83q44 -53 44 -116q0 -20 -5 -42zM352 168l76 358q-81 -11 -139.5 -60.5t-72.5 -118.5q-4 -20 -4 -38 q0 -45 26 -81q37 -49 114 -60zM653 347q4 18 4 36q0 45 -27 81q-37 51 -119 63l-77 -360q87 11 145.5 61.5t73.5 118.5z" />
<glyph unicode="&#x3a7;" horiz-adv-x="667" d="M652 0h-104l-157 306l-281 -306h-96l347 366l-185 328h104l138 -261l244 261h96l-311 -328z" />
<glyph unicode="&#x3a8;" horiz-adv-x="778" d="M838 552q-70 -5 -95 -126q-7 -31 -14 -56.5t-29.5 -74.5t-51.5 -83t-81 -65.5t-117 -39.5l-23 -107h-83l23 107q-62 9 -100.5 40.5t-51.5 76.5q-14 47 -14 93q0 41 10 87q7 31 9 53q2 12 2 25q0 10 -1 20q-2 23 -14 36t-34 14l13 61h73q47 0 55 -39q2 -10 2 -25 q0 -43 -18 -127q-13 -59 -13 -104q0 -121 95 -148l112 524h83l-112 -524q31 7 57.5 22.5t44.5 32.5t34 42.5t25 44.5t18 47.5t12.5 42.5t8.5 38q12 59 25.5 95.5t29 52.5t28.5 20.5t32 4.5h73z" />
<glyph unicode="&#x3a9;" horiz-adv-x="722" d="M677 0h-245q12 55 39 103.5t80 124.5q36 52 54.5 81t39.5 72t29 80q5 22 5 42q0 57 -37 97q-50 55 -143 55q-91 0 -164.5 -55t-91.5 -139q-7 -33 -7 -65q0 -28 6 -60q6 -35 12 -58l17 -62q24 -87 24 -155q0 -33 -6 -61h-245l15 71h85q6 0 18 -0.5t18 -0.5h53 q-2 54 -37 149q-13 33 -19.5 52t-14.5 47t-11 48q-3 18 -3 39v7q1 26 6 50q23 105 127 179.5t232 74.5q127 0 200 -74q56 -57 56 -131q0 -24 -6 -49q-8 -39 -31 -82.5t-44 -72t-57 -72.5q-86 -107 -113 -165h53q6 0 18 0.5t18 0.5h85z" />
<glyph unicode="&#xe3f;" horiz-adv-x="667" d="M650 188q-16 -75 -99.5 -131.5t-189.5 -56.5h-4l-14 -64h-64l14 64h-196l148 694h196l13 64h64l-14 -65q96 -6 150 -57q43 -40 43 -89q0 -13 -3 -27q-12 -55 -68 -97t-132 -60q79 -13 124 -62q35 -38 35 -85q0 -14 -3 -28zM615 519q2 8 2 17q0 31 -27 56q-35 32 -98 42 l-51 -238q73 12 119.5 47.5t54.5 75.5zM376 391l53 247h-113l-53 -247h113zM569 189q2 11 2 22q0 39 -33 70q-41 39 -111 47l-58 -271q75 6 132.5 43.5t67.5 88.5zM305 56l58 274h-113l-58 -274h113z" />
<glyph unicode="&#x1e0c;" horiz-adv-x="722" d="M737 341q-30 -142 -140.5 -241.5t-237.5 -99.5h-263l148 694h262q128 0 196 -104q45 -70 45 -159q0 -43 -10 -90zM651 341q10 46 10 87q0 73 -33 127q-51 83 -157 83h-153l-124 -582h153q106 0 191.5 79.5t112.5 205.5zM260 -200h-89l19 89h89z" />
<glyph unicode="&#x1e0d;" horiz-adv-x="517" d="M434 0h-78l11 52q-78 -63 -161 -63q-72 0 -108 67q-23 43 -23 98q0 32 8 68q21 97 87 165t140 68q79 0 134 -55l63 294h75zM386 139l42 200q-26 55 -85 55q-55 0 -109 -42t-73 -131q-7 -31 -7 -57q0 -44 20 -72q32 -42 86 -42q41 0 80 28q39 30 46 61zM259 -200h-89 l19 89h89z" />
<glyph unicode="&#x1e0e;" horiz-adv-x="722" d="M737 341q-30 -142 -140.5 -241.5t-237.5 -99.5h-263l148 694h262q128 0 196 -104q45 -70 45 -159q0 -43 -10 -90zM651 341q10 46 10 87q0 73 -33 127q-51 83 -157 83h-153l-124 -582h153q106 0 191.5 79.5t112.5 205.5zM400 -187h-361l14 64h361z" />
<glyph unicode="&#x1e0f;" horiz-adv-x="517" d="M434 0h-78l11 52q-78 -63 -161 -63q-72 0 -108 67q-23 43 -23 98q0 32 8 68q21 97 87 165t140 68q79 0 134 -55l63 294h75zM386 139l42 200q-26 55 -85 55q-55 0 -109 -42t-73 -131q-7 -31 -7 -57q0 -44 20 -72q32 -42 86 -42q41 0 80 28q39 30 46 61zM399 -187h-361 l14 64h361z" />
<glyph unicode="&#x1e24;" horiz-adv-x="708" d="M613 0h-89l70 330h-341l-70 -330h-89l148 694h89l-65 -303h341l65 303h89zM355 -200h-89l19 89h89z" />
<glyph unicode="&#x1e25;" horiz-adv-x="517" d="M435 0h-78l62 291q4 20 4 35q0 68 -79 68q-52 0 -86.5 -45t-46.5 -104l-52 -245h-78l148 694h75l-67 -311q72 72 158 72q109 0 109 -102q0 -24 -6 -55zM259 -200h-89l19 89h89z" />
<glyph unicode="&#x1e26;" horiz-adv-x="708" d="M613 0h-89l70 330h-341l-70 -330h-89l148 694h89l-65 -303h341l65 303h89zM463 736h-80l17 80h80zM637 736h-80l17 80h80z" />
<glyph unicode="&#x1e27;" horiz-adv-x="517" d="M435 0h-78l62 291q4 20 4 35q0 68 -79 68q-52 0 -86.5 -45t-46.5 -104l-52 -245h-78l148 694h75l-67 -311q72 72 158 72q109 0 109 -102q0 -24 -6 -55zM367 736h-80l17 80h80zM541 736h-80l17 80h80z" />
<glyph unicode="&#x1e2a;" horiz-adv-x="708" d="M613 0h-89l70 330h-341l-70 -330h-89l148 694h89l-65 -303h341l65 303h89zM509 -66q-18 -77 -78.5 -127.5t-128.5 -50.5q-67 0 -106 50q-28 36 -28 87q0 19 4 41h61q-2 -13 -2 -25q0 -34 19 -56q26 -30 67 -30q40 0 79 29.5t52 81.5h61z" />
<glyph unicode="&#x1e2b;" horiz-adv-x="517" d="M435 0h-78l62 291q4 20 4 35q0 68 -79 68q-52 0 -86.5 -45t-46.5 -104l-52 -245h-78l148 694h75l-67 -311q72 72 158 72q109 0 109 -102q0 -24 -6 -55zM413 -66q-18 -77 -78.5 -127.5t-128.5 -50.5q-67 0 -106 50q-28 36 -28 87q0 19 4 41h61q-2 -13 -2 -25q0 -34 19 -56 q26 -30 67 -30q40 0 79 29.5t52 81.5h61z" />
<glyph unicode="&#x1e2e;" horiz-adv-x="278" d="M183 0h-89l148 694h89zM248 736h-80l17 80h80zM422 736h-80l17 80h80zM540 990l-223 -122h-89l201 122h111z" />
<glyph unicode="&#x1e2f;" horiz-adv-x="239" d="M156 0h-75l94 444h75zM207 571h-80l17 80h80zM353 571h-80l17 80h80zM486 829l-223 -122h-89l201 122h111z" />
<glyph unicode="&#x1e36;" horiz-adv-x="542" d="M499 0h-405l148 694h89l-134 -630h49l267 2zM272 -200h-89l19 89h89z" />
<glyph unicode="&#x1e37;" horiz-adv-x="239" d="M156 0h-75l148 694h75zM121 -200h-89l19 89h89z" />
<glyph unicode="&#x1e38;" horiz-adv-x="542" d="M499 0h-405l148 694h89l-134 -630h49l267 2zM272 -200h-89l19 89h89zM481 756h-361l13 64h361z" />
<glyph unicode="&#x1e39;" horiz-adv-x="239" d="M156 0h-75l148 694h75zM121 -200h-89l19 89h89zM473 756h-361l13 64h361z" />
<glyph unicode="&#x1e42;" horiz-adv-x="875" d="M774 0h-78l132 620l-1 1q-2 -4 -68 -124l-75 -127l-207 -348h-73l-66 389q-28 174 -27 209h-1l-132 -620h-78l148 694h113l15 -87l69 -414q9 -65 11 -100h1q23 51 148 262l203 339h114zM439 -200h-89l19 89h89z" />
<glyph unicode="&#x1e43;" horiz-adv-x="794" d="M713 0h-78l62 291q5 22 5 36q0 13 -5 29q-5 18 -24 28t-52 10q-51 0 -85.5 -45t-47.5 -104l-52 -245h-78l62 291q5 22 5 36q0 13 -5 29q-5 18 -24 28t-52 10q-51 0 -85.5 -45t-47.5 -104l-52 -245h-78l96 450h72l-16 -72q75 77 163 77q99 0 110 -82q74 82 167 82 q110 0 110 -100q0 -25 -7 -57zM398 -200h-89l19 89h89z" />
<glyph unicode="&#x1e44;" horiz-adv-x="708" d="M611 0h-124l-142 486l-38 137h-1l-132 -623h-78l148 694h124l141 -486l38 -137h1l133 623h78zM554 736h-89l19 89h89z" />
<glyph unicode="&#x1e45;" horiz-adv-x="517" d="M435 0h-78l62 291q4 20 4 35q0 68 -79 68q-52 0 -86.5 -45t-46.5 -104l-52 -245h-78l96 450h72l-15 -71q9 11 25 24.5t56 32.5t80 19q109 0 109 -102q0 -24 -6 -55zM422 566h-89l19 89h89z" />
<glyph unicode="&#x1e46;" horiz-adv-x="708" d="M611 0h-124l-142 486l-38 137h-1l-132 -623h-78l148 694h124l141 -486l38 -137h1l133 623h78zM355 -200h-89l19 89h89z" />
<glyph unicode="&#x1e47;" horiz-adv-x="517" d="M435 0h-78l62 291q4 20 4 35q0 68 -79 68q-52 0 -86.5 -45t-46.5 -104l-52 -245h-78l96 450h72l-15 -71q9 11 25 24.5t56 32.5t80 19q109 0 109 -102q0 -24 -6 -55zM259 -200h-89l19 89h89z" />
<glyph unicode="&#x1e58;" horiz-adv-x="646" d="M617 0h-89l-121 317h-158l-67 -317h-86l148 694h241q106 0 167 -56q48 -43 48 -100q0 -14 -3 -30q-13 -61 -69.5 -110t-139.5 -72zM616 508q3 12 3 24q0 39 -32 68q-41 38 -125 38h-144l-56 -260h144q85 0 141.5 37t68.5 93zM523 736h-89l19 89h89z" />
<glyph unicode="&#x1e59;" horiz-adv-x="342" d="M409 388q-74 -2 -132.5 -50.5t-74.5 -123.5l-45 -214h-75l96 450h70l-20 -91q84 95 196 96zM335 566h-89l19 89h89z" />
<glyph unicode="&#x1e5a;" horiz-adv-x="646" d="M617 0h-89l-121 317h-158l-67 -317h-86l148 694h241q106 0 167 -56q48 -43 48 -100q0 -14 -3 -30q-13 -61 -69.5 -110t-139.5 -72zM616 508q3 12 3 24q0 39 -32 68q-41 38 -125 38h-144l-56 -260h144q85 0 141.5 37t68.5 93zM324 -200h-89l19 89h89z" />
<glyph unicode="&#x1e5b;" horiz-adv-x="342" d="M409 388q-74 -2 -132.5 -50.5t-74.5 -123.5l-45 -214h-75l96 450h70l-20 -91q84 95 196 96zM121 -200h-89l19 89h89z" />
<glyph unicode="&#x1e5c;" horiz-adv-x="646" d="M617 0h-89l-121 317h-158l-67 -317h-86l148 694h241q106 0 167 -56q48 -43 48 -100q0 -14 -3 -30q-13 -61 -69.5 -110t-139.5 -72zM616 508q3 12 3 24q0 39 -32 68q-41 38 -125 38h-144l-56 -260h144q85 0 141.5 37t68.5 93zM324 -200h-89l19 89h89zM665 756h-361l13 64 h361z" />
<glyph unicode="&#x1e5d;" horiz-adv-x="342" d="M409 388q-74 -2 -132.5 -50.5t-74.5 -123.5l-45 -214h-75l96 450h70l-20 -91q84 95 196 96zM121 -200h-89l19 89h89zM475 579h-361l14 64h361z" />
<glyph unicode="&#x1e62;" horiz-adv-x="556" d="M539 189q-18 -85 -95 -148t-174 -63q-121 0 -216 69l32 81q79 -81 198 -81q65 0 114 40t60 92q3 15 3 28q0 38 -25 65q-17 18 -34 25.5t-79 23.5q-50 13 -78.5 26.5t-51.5 44.5q-31 42 -31 91q0 18 4 36q17 78 92.5 137.5t175.5 59.5t173 -50l-32 -80q-64 64 -156 64 q-66 0 -113.5 -36t-57.5 -83q-3 -13 -3 -25q0 -33 21 -54q18 -18 34 -25.5t61 -18.5q72 -19 100.5 -33t53.5 -49q29 -41 29 -92q0 -22 -5 -45zM279 -200h-89l19 89h89z" />
<glyph unicode="&#x1e63;" horiz-adv-x="383" d="M387 128q-15 -71 -71 -107q-49 -32 -122 -32q-79 0 -159 44l26 68q65 -49 145 -49q94 0 109 69q2 8 2 14q0 10 -4 19q-6 13 -21 20.5t-26.5 11t-29.5 7.5q-33 7 -45.5 10t-27 9.5t-27.5 17.5q-36 32 -36 76q0 12 3 24q7 31 22 55t36 37.5t40 22t41.5 11.5t32.5 4t22 1 q74 0 137 -32l-26 -65q-55 38 -134 38q-85 0 -98 -62q-4 -18 1 -30t20 -19.5t27.5 -11.5t37.5 -9q41 -8 62.5 -17t43.5 -33l4 -6q3 -5 6.5 -12t7 -19t4 -25t-2.5 -30zM193 -200h-89l19 89h89z" />
<glyph unicode="&#x1e6c;" horiz-adv-x="681" d="M776 623h-134q-6 0 -17.5 0.5t-17.5 0.5h-89l-133 -624h-89l133 624h-90q-6 0 -18.5 -0.5t-18.5 -0.5h-134l14 65h608zM341 -200h-89l19 89h89z" />
<glyph unicode="&#x1e6d;" horiz-adv-x="361" d="M338 27q-82 -38 -154 -38q-62 0 -62 75q0 24 6 55l57 267h-84l12 58h87l27 127h69l-27 -127h141l-12 -58h-141l-53 -250q-4 -21 -4 -37q0 -46 37 -46q50 0 97 33zM182 -200h-89l19 89h89z" />
<glyph unicode="&#x1e6e;" horiz-adv-x="681" d="M776 623h-134q-6 0 -17.5 0.5t-17.5 0.5h-89l-133 -624h-89l133 624h-90q-6 0 -18.5 -0.5t-18.5 -0.5h-134l14 65h608zM481 -187h-361l14 64h361z" />
<glyph unicode="&#x1e6f;" horiz-adv-x="361" d="M338 27q-82 -38 -154 -38q-62 0 -62 75q0 24 6 55l57 267h-84l12 58h87l27 127h69l-27 -127h141l-12 -58h-141l-53 -250q-4 -21 -4 -37q0 -46 37 -46q50 0 97 33zM322 -187h-361l14 64h361z" />
<glyph unicode="&#x1e80;" horiz-adv-x="944" d="M1077 694l-351 -694h-87l-30 401q-9 121 -9 184q0 21 1 36h-1q-14 -43 -128 -274l-174 -347h-81l-55 694h86l21 -282l11 -167q4 -110 4 -150q0 -16 -1 -21h1q16 53 142 308l157 312h81l25 -341q13 -171 13 -244q0 -24 -1 -37h1q18 56 145 308l158 314h72zM725 746h-89 l-171 122h111z" />
<glyph unicode="&#x1e81;" horiz-adv-x="683" d="M762 444l-231 -444h-88l-20 248q-5 55 -5 96q0 25 2 44h-1q-13 -48 -83 -182l-106 -206h-79l-43 444h76l16 -173q9 -124 9 -182q0 -22 -1 -34h1q17 56 91 201l97 188h70l20 -213q9 -102 9 -151q0 -16 -1 -26h1q12 33 84 178l109 212h73zM524 527h-61l-114 167h78z" />
<glyph unicode="&#x1e82;" horiz-adv-x="944" d="M1077 694l-351 -694h-87l-30 401q-9 121 -9 184q0 21 1 36h-1q-14 -43 -128 -274l-174 -347h-81l-55 694h86l21 -282l11 -167q4 -110 4 -150q0 -16 -1 -21h1q16 53 142 308l157 312h81l25 -341q13 -171 13 -244q0 -24 -1 -37h1q18 56 145 308l158 314h72zM847 868 l-223 -122h-89l201 122h111z" />
<glyph unicode="&#x1e83;" horiz-adv-x="683" d="M762 444l-231 -444h-88l-20 248q-5 55 -5 96q0 25 2 44h-1q-13 -48 -83 -182l-106 -206h-79l-43 444h76l16 -173q9 -124 9 -182q0 -22 -1 -34h1q17 56 91 201l97 188h70l20 -213q9 -102 9 -151q0 -16 -1 -26h1q12 33 84 178l109 212h73zM631 694l-186 -167h-61l169 167 h78z" />
<glyph unicode="&#x1e84;" horiz-adv-x="944" d="M1077 694l-351 -694h-87l-30 401q-9 121 -9 184q0 21 1 36h-1q-14 -43 -128 -274l-174 -347h-81l-55 694h86l21 -282l11 -167q4 -110 4 -150q0 -16 -1 -21h1q16 53 142 308l157 312h81l25 -341q13 -171 13 -244q0 -24 -1 -37h1q18 56 145 308l158 314h72zM581 736h-80 l17 80h80zM755 736h-80l17 80h80z" />
<glyph unicode="&#x1e85;" horiz-adv-x="683" d="M762 444l-231 -444h-88l-20 248q-5 55 -5 96q0 25 2 44h-1q-13 -48 -83 -182l-106 -206h-79l-43 444h76l16 -173q9 -124 9 -182q0 -22 -1 -34h1q17 56 91 201l97 188h70l20 -213q9 -102 9 -151q0 -16 -1 -26h1q12 33 84 178l109 212h73zM430 571h-80l17 80h80zM576 571 h-80l17 80h80z" />
<glyph unicode="&#x1e92;" horiz-adv-x="611" d="M560 0h-504l9 43l511 590h-136q-6 0 -18.5 -0.5t-18.5 -0.5h-200l14 62h485l-9 -41l-510 -589h32l263 2h96zM307 -200h-89l19 89h89z" />
<glyph unicode="&#x1e93;" horiz-adv-x="435" d="M402 0h-374l9 41l340 345h-78q-6 0 -18 -0.5t-18 -0.5h-139l12 59h358l-8 -39l-339 -344h85q6 0 18 0.5t18 0.5h147zM218 -200h-89l19 89h89z" />
<glyph unicode="&#x1e97;" horiz-adv-x="361" d="M338 27q-82 -38 -154 -38q-62 0 -62 75q0 24 6 55l57 267h-84l12 58h87l27 127h69l-27 -127h141l-12 -58h-141l-53 -250q-4 -21 -4 -37q0 -46 37 -46q50 0 97 33zM223 613h-80l17 80h80zM397 613h-80l17 80h80z" />
<glyph unicode="&#x1ea0;" horiz-adv-x="667" d="M638 0h-92l-33 204h-291l-120 -204h-74l409 694h88zM503 260l-36 257q-11 84 -10 105h-1q-11 -28 -97 -181l-104 -181h248zM334 -200h-89l19 89h89z" />
<glyph unicode="&#x1ea1;" horiz-adv-x="481" d="M409 0h-75l8 36q-71 -47 -176 -47q-31 0 -52 13.5t-28 32.5t-10 41q-1 8 -1 15q0 12 3 22q14 63 99.5 96.5t205.5 35.5l9 43q5 21 5 38q0 27 -12 46q-19 30 -56 30q-80 0 -161 -50l8 66q84 43 166 43q70 0 107 -49q26 -33 26 -80q0 -20 -5 -43zM359 132l13 62 q-207 -10 -222 -79q-1 -6 -1 -11q0 -22 19 -36q24 -18 62 -18q47 0 82 19q38 19 47 63zM241 -200h-89l19 89h89z" />
<glyph unicode="&#x1ea2;" horiz-adv-x="667" d="M638 0h-92l-33 204h-291l-120 -204h-74l409 694h88zM503 260l-36 257q-11 84 -10 105h-1q-11 -28 -97 -181l-104 -181h248zM615 873q-6 -32 -37 -50l-15 -9q-31 -17 -45 -29t-17 -29l-4 -19l-2 -1h-26v1l4 19q13 67 74 96q17 9 18 21q2 7 2 13q0 11 -7 17q-13 9 -40 9 q-50 0 -84 -44h-1h-1l-5 40q43 43 99 43q50 0 73 -20q16 -14 16 -39q0 -9 -2 -19z" />
<glyph unicode="&#x1ea3;" horiz-adv-x="481" d="M409 0h-75l8 36q-71 -47 -176 -47q-31 0 -52 13.5t-28 32.5t-10 41q-1 8 -1 15q0 12 3 22q14 63 99.5 96.5t205.5 35.5l9 43q5 21 5 38q0 27 -12 46q-19 30 -56 30q-80 0 -161 -50l8 66q84 43 166 43q70 0 107 -49q26 -33 26 -80q0 -20 -5 -43zM359 132l13 62 q-207 -10 -222 -79q-1 -6 -1 -11q0 -22 19 -36q24 -18 62 -18q47 0 82 19q38 19 47 63zM473 640q-7 -33 -38 -50l-15 -9q-31 -17 -45 -29t-17 -29l-4 -19l-1 -1h-26l-1 1l4 19q15 67 75 96q15 8 18 21q2 7 2 12q0 12 -8 18q-12 9 -40 9q-49 0 -83 -44h-1h-1l-6 40 q43 43 100 43q51 0 72 -20q17 -14 17 -39q0 -9 -2 -19z" />
<glyph unicode="&#x1ea4;" horiz-adv-x="667" d="M638 0h-92l-33 204h-291l-120 -204h-74l409 694h88zM503 260l-36 257q-11 84 -10 105h-1q-11 -28 -97 -181l-104 -181h248zM645 736h-59l-76 97l-118 -97h-59l155 134h60zM694 1027l-223 -122h-89l201 122h111z" />
<glyph unicode="&#x1ea5;" horiz-adv-x="481" d="M409 0h-75l8 36q-71 -47 -176 -47q-31 0 -52 13.5t-28 32.5t-10 41q-1 8 -1 15q0 12 3 22q14 63 99.5 96.5t205.5 35.5l9 43q5 21 5 38q0 27 -12 46q-19 30 -56 30q-80 0 -161 -50l8 66q84 43 166 43q70 0 107 -49q26 -33 26 -80q0 -20 -5 -43zM359 132l13 62 q-207 -10 -222 -79q-1 -6 -1 -11q0 -22 19 -36q24 -18 62 -18q47 0 82 19q38 19 47 63zM508 525h-59l-77 97l-117 -97h-59l154 134h60zM556 816l-222 -122h-89l200 122h111z" />
<glyph unicode="&#x1ea6;" horiz-adv-x="667" d="M638 0h-92l-33 204h-291l-120 -204h-74l409 694h88zM503 260l-36 257q-11 84 -10 105h-1q-11 -28 -97 -181l-104 -181h248zM645 736h-59l-76 97l-118 -97h-59l155 134h60zM668 905l-149 122h-111l171 -122h89z" />
<glyph unicode="&#x1ea7;" horiz-adv-x="481" d="M409 0h-75l8 36q-71 -47 -176 -47q-31 0 -52 13.5t-28 32.5t-10 41q-1 8 -1 15q0 12 3 22q14 63 99.5 96.5t205.5 35.5l9 43q5 21 5 38q0 27 -12 46q-19 30 -56 30q-80 0 -161 -50l8 66q84 43 166 43q70 0 107 -49q26 -33 26 -80q0 -20 -5 -43zM359 132l13 62 q-207 -10 -222 -79q-1 -6 -1 -11q0 -22 19 -36q24 -18 62 -18q47 0 82 19q38 19 47 63zM508 525h-59l-77 97l-117 -97h-59l154 134h60zM531 694l-150 122h-111l172 -122h89z" />
<glyph unicode="&#x1ea8;" horiz-adv-x="667" d="M638 0h-92l-33 204h-291l-120 -204h-74l409 694h88zM503 260l-36 257q-11 84 -10 105h-1q-11 -28 -97 -181l-104 -181h248zM645 736h-59l-76 97l-118 -97h-59l155 134h60zM744 1022q-7 -33 -38 -50l-14 -9q-31 -16 -45 -28t-18 -30l-4 -19l-1 -1h-26l-1 1l4 19 q15 67 75 96q15 8 18 21q2 7 2 12q0 12 -8 18q-12 9 -40 9q-49 0 -83 -44h-1h-1l-5 40q41 43 99 43q51 0 72 -20q17 -14 17 -39q0 -9 -2 -19z" />
<glyph unicode="&#x1ea9;" horiz-adv-x="481" d="M409 0h-75l8 36q-71 -47 -176 -47q-31 0 -52 13.5t-28 32.5t-10 41q-1 8 -1 15q0 12 3 22q14 63 99.5 96.5t205.5 35.5l9 43q5 21 5 38q0 27 -12 46q-19 30 -56 30q-80 0 -161 -50l8 66q84 43 166 43q70 0 107 -49q26 -33 26 -80q0 -20 -5 -43zM359 132l13 62 q-207 -10 -222 -79q-1 -6 -1 -11q0 -22 19 -36q24 -18 62 -18q47 0 82 19q38 19 47 63zM508 525h-59l-77 97l-117 -97h-59l154 134h60zM606 811q-6 -32 -37 -50l-15 -9q-31 -17 -45 -29t-17 -29l-5 -19l-1 -1h-26l-1 1l5 19q13 67 74 96q17 9 18 21q2 7 2 12q0 11 -7 18 q-13 9 -40 9q-50 0 -84 -44h-1h-1l-5 40q43 43 99 43q50 0 73 -20q16 -14 16 -39q0 -9 -2 -19z" />
<glyph unicode="&#x1eaa;" horiz-adv-x="667" d="M638 0h-92l-33 204h-291l-120 -204h-74l409 694h88zM503 260l-36 257q-11 84 -10 105h-1q-11 -28 -97 -181l-104 -181h248zM645 736h-59l-76 97l-118 -97h-59l155 134h60zM722 1044q-13 -55 -49.5 -87t-74.5 -32q-27 0 -58 25q-40 33 -64 33q-37 0 -52 -58h-61 q13 55 49.5 87t74.5 32q27 0 58 -25q40 -33 64 -33q38 0 52 58h61z" />
<glyph unicode="&#x1eab;" horiz-adv-x="481" d="M409 0h-75l8 36q-71 -47 -176 -47q-31 0 -52 13.5t-28 32.5t-10 41q-1 8 -1 15q0 12 3 22q14 63 99.5 96.5t205.5 35.5l9 43q5 21 5 38q0 27 -12 46q-19 30 -56 30q-80 0 -161 -50l8 66q84 43 166 43q70 0 107 -49q26 -33 26 -80q0 -20 -5 -43zM359 132l13 62 q-207 -10 -222 -79q-1 -6 -1 -11q0 -22 19 -36q24 -18 62 -18q47 0 82 19q38 19 47 63zM508 525h-59l-77 97l-117 -97h-59l154 134h60zM584 833q-13 -55 -49 -87t-74 -32q-28 0 -59 25q-40 33 -64 33q-37 0 -51 -58h-61q13 55 49 87t74 32q28 0 59 -25q40 -33 64 -33 q37 0 51 58h61z" />
<glyph unicode="&#x1eac;" horiz-adv-x="667" d="M638 0h-92l-33 204h-291l-120 -204h-74l409 694h88zM503 260l-36 257q-11 84 -10 105h-1q-11 -28 -97 -181l-104 -181h248zM645 736h-59l-76 97l-118 -97h-59l155 134h60zM334 -200h-89l19 89h89z" />
<glyph unicode="&#x1ead;" horiz-adv-x="481" d="M409 0h-75l8 36q-71 -47 -176 -47q-31 0 -52 13.5t-28 32.5t-10 41q-1 8 -1 15q0 12 3 22q14 63 99.5 96.5t205.5 35.5l9 43q5 21 5 38q0 27 -12 46q-19 30 -56 30q-80 0 -161 -50l8 66q84 43 166 43q70 0 107 -49q26 -33 26 -80q0 -20 -5 -43zM359 132l13 62 q-207 -10 -222 -79q-1 -6 -1 -11q0 -22 19 -36q24 -18 62 -18q47 0 82 19q38 19 47 63zM507 525h-59l-70 123l-122 -123h-59l161 172h60zM241 -200h-89l19 89h89z" />
<glyph unicode="&#x1eae;" horiz-adv-x="667" d="M638 0h-92l-33 204h-291l-120 -204h-74l409 694h88zM503 260l-36 257q-11 84 -10 105h-1q-11 -28 -97 -181l-104 -181h248zM698 924q-18 -77 -78.5 -127.5t-128.5 -50.5q-67 0 -106 50q-28 36 -28 87q0 19 4 41h61q-2 -13 -2 -25q0 -34 20 -56q26 -30 67 -30 q40 0 79 29.5t51 81.5h61zM707 1081l-223 -122h-89l201 122h111z" />
<glyph unicode="&#x1eaf;" horiz-adv-x="481" d="M409 0h-75l8 36q-71 -47 -176 -47q-31 0 -52 13.5t-28 32.5t-10 41q-1 8 -1 15q0 12 3 22q14 63 99.5 96.5t205.5 35.5l9 43q5 21 5 38q0 27 -12 46q-19 30 -56 30q-80 0 -161 -50l8 66q84 43 166 43q70 0 107 -49q26 -33 26 -80q0 -20 -5 -43zM359 132l13 62 q-207 -10 -222 -79q-1 -6 -1 -11q0 -22 19 -36q24 -18 62 -18q47 0 82 19q38 19 47 63zM558 700q-18 -77 -78.5 -127.5t-128.5 -50.5q-67 0 -106 50q-28 36 -28 87q0 19 4 41h61q-3 -14 -3 -26q0 -33 19 -55q27 -30 68 -30q40 0 79 29.5t52 81.5h61zM566 857l-223 -122h-89 l201 122h111z" />
<glyph unicode="&#x1eb0;" horiz-adv-x="667" d="M638 0h-92l-33 204h-291l-120 -204h-74l409 694h88zM503 260l-36 257q-11 84 -10 105h-1q-11 -28 -97 -181l-104 -181h248zM698 924q-18 -77 -78.5 -127.5t-128.5 -50.5q-67 0 -106 50q-28 36 -28 87q0 19 4 41h61q-2 -13 -2 -25q0 -34 20 -56q26 -30 67 -30 q40 0 79 29.5t51 81.5h61zM681 959l-149 122h-111l171 -122h89z" />
<glyph unicode="&#x1eb1;" horiz-adv-x="481" d="M409 0h-75l8 36q-71 -47 -176 -47q-31 0 -52 13.5t-28 32.5t-10 41q-1 8 -1 15q0 12 3 22q14 63 99.5 96.5t205.5 35.5l9 43q5 21 5 38q0 27 -12 46q-19 30 -56 30q-80 0 -161 -50l8 66q84 43 166 43q70 0 107 -49q26 -33 26 -80q0 -20 -5 -43zM359 132l13 62 q-207 -10 -222 -79q-1 -6 -1 -11q0 -22 19 -36q24 -18 62 -18q47 0 82 19q38 19 47 63zM558 700q-18 -77 -78.5 -127.5t-128.5 -50.5q-67 0 -106 50q-28 36 -28 87q0 19 4 41h61q-3 -14 -3 -26q0 -33 19 -55q27 -30 68 -30q40 0 79 29.5t52 81.5h61zM540 735l-149 122h-111 l171 -122h89z" />
<glyph unicode="&#x1eb2;" horiz-adv-x="667" d="M638 0h-92l-33 204h-291l-120 -204h-74l409 694h88zM503 260l-36 257q-11 84 -10 105h-1q-11 -28 -97 -181l-104 -181h248zM698 924q-18 -77 -78.5 -127.5t-128.5 -50.5q-67 0 -106 50q-28 36 -28 87q0 19 4 41h61q-2 -13 -2 -25q0 -34 20 -56q26 -30 67 -30 q40 0 79 29.5t51 81.5h61zM660 1076q-8 -33 -38 -50l-15 -9q-31 -17 -45 -29t-17 -29l-4 -19l-2 -1h-26v1l4 19q13 67 74 96q16 9 19 21q1 6 1 10q0 14 -7 20q-13 9 -40 9q-50 0 -83 -44h-1h-1l-6 40q43 43 99 43q50 0 73 -20q17 -14 17 -40q0 -9 -2 -18z" />
<glyph unicode="&#x1eb3;" horiz-adv-x="481" d="M409 0h-75l8 36q-71 -47 -176 -47q-31 0 -52 13.5t-28 32.5t-10 41q-1 8 -1 15q0 12 3 22q14 63 99.5 96.5t205.5 35.5l9 43q5 21 5 38q0 27 -12 46q-19 30 -56 30q-80 0 -161 -50l8 66q84 43 166 43q70 0 107 -49q26 -33 26 -80q0 -20 -5 -43zM359 132l13 62 q-207 -10 -222 -79q-1 -6 -1 -11q0 -22 19 -36q24 -18 62 -18q47 0 82 19q38 19 47 63zM558 700q-18 -77 -78.5 -127.5t-128.5 -50.5q-67 0 -106 50q-28 36 -28 87q0 19 4 41h61q-3 -14 -3 -26q0 -33 19 -55q27 -30 68 -30q40 0 79 29.5t52 81.5h61zM519 852q-7 -33 -38 -50 l-14 -9q-31 -16 -45 -28t-18 -30l-4 -19l-1 -1h-26l-1 1l4 19q15 67 75 96q15 8 18 21q2 7 2 12q0 12 -8 18q-12 9 -40 9q-49 0 -83 -44h-1h-1l-5 40q41 43 99 43q51 0 72 -20q17 -14 17 -39q0 -9 -2 -19z" />
<glyph unicode="&#x1eb4;" horiz-adv-x="667" d="M638 0h-92l-33 204h-291l-120 -204h-74l409 694h88zM503 260l-36 257q-11 84 -10 105h-1q-11 -28 -97 -181l-104 -181h248zM698 924q-18 -77 -78.5 -127.5t-128.5 -50.5q-67 0 -106 50q-28 36 -28 87q0 19 4 41h61q-2 -13 -2 -25q0 -34 20 -56q26 -30 67 -30 q40 0 79 29.5t51 81.5h61zM733 1098q-13 -55 -49 -87t-74 -32q-26 0 -59 25q-40 33 -64 33q-37 0 -51 -58h-61q13 55 49 87t74 32q28 0 59 -25q40 -33 64 -33q37 0 51 58h61z" />
<glyph unicode="&#x1eb5;" horiz-adv-x="481" d="M409 0h-75l8 36q-71 -47 -176 -47q-31 0 -52 13.5t-28 32.5t-10 41q-1 8 -1 15q0 12 3 22q14 63 99.5 96.5t205.5 35.5l9 43q5 21 5 38q0 27 -12 46q-19 30 -56 30q-80 0 -161 -50l8 66q84 43 166 43q70 0 107 -49q26 -33 26 -80q0 -20 -5 -43zM359 132l13 62 q-207 -10 -222 -79q-1 -6 -1 -11q0 -22 19 -36q24 -18 62 -18q47 0 82 19q38 19 47 63zM558 700q-18 -77 -78.5 -127.5t-128.5 -50.5q-67 0 -106 50q-28 36 -28 87q0 19 4 41h61q-3 -14 -3 -26q0 -33 19 -55q27 -30 68 -30q40 0 79 29.5t52 81.5h61zM593 874 q-13 -55 -49.5 -87t-74.5 -32q-27 0 -58 25q-40 33 -64 33q-37 0 -52 -58h-61q13 55 49.5 87t74.5 32q27 0 58 -25q40 -33 64 -33q38 0 52 58h61z" />
<glyph unicode="&#x1eb6;" horiz-adv-x="667" d="M638 0h-92l-33 204h-291l-120 -204h-74l409 694h88zM503 260l-36 257q-11 84 -10 105h-1q-11 -28 -97 -181l-104 -181h248zM698 924q-18 -77 -78.5 -127.5t-128.5 -50.5q-67 0 -106 50q-28 36 -28 87q0 19 4 41h61q-2 -13 -2 -25q0 -34 20 -56q26 -30 67 -30 q40 0 79 29.5t51 81.5h61zM334 -200h-89l19 89h89z" />
<glyph unicode="&#x1eb7;" horiz-adv-x="481" d="M409 0h-75l8 36q-71 -47 -176 -47q-31 0 -52 13.5t-28 32.5t-10 41q-1 8 -1 15q0 12 3 22q14 63 99.5 96.5t205.5 35.5l9 43q5 21 5 38q0 27 -12 46q-19 30 -56 30q-80 0 -161 -50l8 66q84 43 166 43q70 0 107 -49q26 -33 26 -80q0 -20 -5 -43zM359 132l13 62 q-207 -10 -222 -79q-1 -6 -1 -11q0 -22 19 -36q24 -18 62 -18q47 0 82 19q38 19 47 63zM558 700q-18 -77 -78.5 -127.5t-128.5 -50.5q-67 0 -106 50q-28 36 -28 87q0 19 4 41h61q-3 -14 -3 -26q0 -33 19 -55q27 -30 68 -30q40 0 79 29.5t52 81.5h61zM241 -200h-89l19 89h89z " />
<glyph unicode="&#x1eb8;" horiz-adv-x="597" d="M554 0h-460l147 691h446l-14 -65h-183q-6 0 -18 0.5t-18 0.5h-138l-50 -237h330l-13 -61h-330l-55 -259h209q6 0 18 0.5t18 0.5h126zM300 -200h-89l19 89h89z" />
<glyph unicode="&#x1eb9;" horiz-adv-x="444" d="M461 219h-309q-4 -21 -4 -40q0 -47 23 -81q32 -48 92 -48q83 0 164 56l-8 -65q-84 -52 -170 -52q-90 0 -139 69q-33 48 -33 111q0 27 6 57q20 97 94 166t157 69q90 0 122 -73q15 -34 15 -81q0 -40 -10 -88zM415 274q1 10 1 19q0 50 -24 76q-27 31 -71 31q-43 0 -86 -35 t-67 -91h247zM223 -200h-89l19 89h89z" />
<glyph unicode="&#x1eba;" horiz-adv-x="597" d="M554 0h-460l147 691h446l-14 -65h-183q-6 0 -18 0.5t-18 0.5h-138l-50 -237h330l-13 -61h-330l-55 -259h209q6 0 18 0.5t18 0.5h126zM581 873q-6 -32 -37 -50l-15 -9q-31 -17 -45 -29t-17 -29l-4 -19l-2 -1h-26v1l4 19q13 67 74 96q17 9 18 21q2 7 2 13q0 11 -7 17 q-13 9 -40 9q-50 0 -84 -44h-1h-1l-5 40q43 43 99 43q50 0 73 -20q16 -14 16 -39q0 -9 -2 -19z" />
<glyph unicode="&#x1ebb;" horiz-adv-x="444" d="M461 219h-309q-4 -21 -4 -40q0 -47 23 -81q32 -48 92 -48q83 0 164 56l-8 -65q-84 -52 -170 -52q-90 0 -139 69q-33 48 -33 111q0 27 6 57q20 97 94 166t157 69q90 0 122 -73q15 -34 15 -81q0 -40 -10 -88zM415 274q1 10 1 19q0 50 -24 76q-27 31 -71 31q-43 0 -86 -35 t-67 -91h247zM455 640q-7 -33 -38 -50l-15 -9q-31 -17 -45 -29t-17 -29l-4 -19l-1 -1h-26l-1 1l4 19q15 67 75 96q15 8 18 21q2 7 2 12q0 12 -8 18q-12 9 -40 9q-49 0 -83 -44h-1h-1l-6 40q43 43 100 43q51 0 72 -20q17 -14 17 -39q0 -9 -2 -19z" />
<glyph unicode="&#x1ebc;" horiz-adv-x="597" d="M554 0h-460l147 691h446l-14 -65h-183q-6 0 -18 0.5t-18 0.5h-138l-50 -237h330l-13 -61h-330l-55 -259h209q6 0 18 0.5t18 0.5h126zM648 855q-13 -55 -49.5 -87t-74.5 -32q-27 0 -58 25q-40 33 -64 33q-37 0 -52 -58h-61q13 55 49.5 87t74.5 32q27 0 58 -25 q40 -33 64 -33q37 0 52 58h61z" />
<glyph unicode="&#x1ebd;" horiz-adv-x="444" d="M461 219h-309q-4 -21 -4 -40q0 -47 23 -81q32 -48 92 -48q83 0 164 56l-8 -65q-84 -52 -170 -52q-90 0 -139 69q-33 48 -33 111q0 27 6 57q20 97 94 166t157 69q90 0 122 -73q15 -34 15 -81q0 -40 -10 -88zM415 274q1 10 1 19q0 50 -24 76q-27 31 -71 31q-43 0 -86 -35 t-67 -91h247zM531 670q-13 -55 -49 -87t-74 -32q-26 0 -59 25q-40 33 -64 33q-37 0 -51 -58h-61q13 55 49 87t74 32q28 0 59 -25q40 -33 64 -33q37 0 51 58h61z" />
<glyph unicode="&#x1ebe;" horiz-adv-x="597" d="M554 0h-460l147 691h446l-14 -65h-183q-6 0 -18 0.5t-18 0.5h-138l-50 -237h330l-13 -61h-330l-55 -259h209q6 0 18 0.5t18 0.5h126zM611 736h-59l-76 97l-118 -97h-59l155 134h60zM660 1027l-223 -122h-89l201 122h111z" />
<glyph unicode="&#x1ebf;" horiz-adv-x="444" d="M461 219h-309q-4 -21 -4 -40q0 -47 23 -81q32 -48 92 -48q83 0 164 56l-8 -65q-84 -52 -170 -52q-90 0 -139 69q-33 48 -33 111q0 27 6 57q20 97 94 166t157 69q90 0 122 -73q15 -34 15 -81q0 -40 -10 -88zM415 274q1 10 1 19q0 50 -24 76q-27 31 -71 31q-43 0 -86 -35 t-67 -91h247zM490 525h-59l-77 97l-117 -97h-59l154 134h60zM538 816l-222 -122h-89l200 122h111z" />
<glyph unicode="&#x1ec0;" horiz-adv-x="597" d="M554 0h-460l147 691h446l-14 -65h-183q-6 0 -18 0.5t-18 0.5h-138l-50 -237h330l-13 -61h-330l-55 -259h209q6 0 18 0.5t18 0.5h126zM611 736h-59l-76 97l-118 -97h-59l155 134h60zM634 905l-149 122h-111l171 -122h89z" />
<glyph unicode="&#x1ec1;" horiz-adv-x="444" d="M461 219h-309q-4 -21 -4 -40q0 -47 23 -81q32 -48 92 -48q83 0 164 56l-8 -65q-84 -52 -170 -52q-90 0 -139 69q-33 48 -33 111q0 27 6 57q20 97 94 166t157 69q90 0 122 -73q15 -34 15 -81q0 -40 -10 -88zM415 274q1 10 1 19q0 50 -24 76q-27 31 -71 31q-43 0 -86 -35 t-67 -91h247zM490 525h-59l-77 97l-117 -97h-59l154 134h60zM513 694l-150 122h-111l172 -122h89z" />
<glyph unicode="&#x1ec2;" horiz-adv-x="597" d="M554 0h-460l147 691h446l-14 -65h-183q-6 0 -18 0.5t-18 0.5h-138l-50 -237h330l-13 -61h-330l-55 -259h209q6 0 18 0.5t18 0.5h126zM611 736h-59l-76 97l-118 -97h-59l155 134h60zM710 1022q-7 -33 -38 -50l-14 -9q-31 -16 -45 -28t-18 -30l-4 -19l-1 -1h-26l-1 1l4 19 q15 67 75 96q15 8 18 21q2 7 2 12q0 12 -8 18q-12 9 -40 9q-49 0 -83 -44h-1h-1l-5 40q41 43 99 43q51 0 72 -20q17 -14 17 -39q0 -9 -2 -19z" />
<glyph unicode="&#x1ec3;" horiz-adv-x="444" d="M461 219h-309q-4 -21 -4 -40q0 -47 23 -81q32 -48 92 -48q83 0 164 56l-8 -65q-84 -52 -170 -52q-90 0 -139 69q-33 48 -33 111q0 27 6 57q20 97 94 166t157 69q90 0 122 -73q15 -34 15 -81q0 -40 -10 -88zM415 274q1 10 1 19q0 50 -24 76q-27 31 -71 31q-43 0 -86 -35 t-67 -91h247zM490 525h-59l-77 97l-117 -97h-59l154 134h60zM588 811q-6 -32 -37 -50l-15 -9q-31 -17 -45 -29t-17 -29l-5 -19l-1 -1h-26l-1 1l5 19q13 67 74 96q17 9 18 21q2 7 2 12q0 11 -7 18q-13 9 -40 9q-50 0 -84 -44h-1h-1l-5 40q43 43 99 43q50 0 73 -20 q16 -14 16 -39q0 -9 -2 -19z" />
<glyph unicode="&#x1ec4;" horiz-adv-x="597" d="M554 0h-460l147 691h446l-14 -65h-183q-6 0 -18 0.5t-18 0.5h-138l-50 -237h330l-13 -61h-330l-55 -259h209q6 0 18 0.5t18 0.5h126zM611 736h-59l-76 97l-118 -97h-59l155 134h60zM688 1044q-13 -55 -49.5 -87t-74.5 -32q-27 0 -58 25q-40 33 -64 33q-37 0 -52 -58h-61 q13 55 49.5 87t74.5 32q27 0 58 -25q40 -33 64 -33q38 0 52 58h61z" />
<glyph unicode="&#x1ec5;" horiz-adv-x="444" d="M461 219h-309q-4 -21 -4 -40q0 -47 23 -81q32 -48 92 -48q83 0 164 56l-8 -65q-84 -52 -170 -52q-90 0 -139 69q-33 48 -33 111q0 27 6 57q20 97 94 166t157 69q90 0 122 -73q15 -34 15 -81q0 -40 -10 -88zM415 274q1 10 1 19q0 50 -24 76q-27 31 -71 31q-43 0 -86 -35 t-67 -91h247zM490 525h-59l-77 97l-117 -97h-59l154 134h60zM566 833q-13 -55 -49 -87t-74 -32q-28 0 -59 25q-40 33 -64 33q-37 0 -51 -58h-61q13 55 49 87t74 32q28 0 59 -25q40 -33 64 -33q37 0 51 58h61z" />
<glyph unicode="&#x1ec6;" horiz-adv-x="597" d="M554 0h-460l147 691h446l-14 -65h-183q-6 0 -18 0.5t-18 0.5h-138l-50 -237h330l-13 -61h-330l-55 -259h209q6 0 18 0.5t18 0.5h126zM611 736h-59l-76 97l-118 -97h-59l155 134h60zM300 -200h-89l19 89h89z" />
<glyph unicode="&#x1ec7;" horiz-adv-x="444" d="M461 219h-309q-4 -21 -4 -40q0 -47 23 -81q32 -48 92 -48q83 0 164 56l-8 -65q-84 -52 -170 -52q-90 0 -139 69q-33 48 -33 111q0 27 6 57q20 97 94 166t157 69q90 0 122 -73q15 -34 15 -81q0 -40 -10 -88zM415 274q1 10 1 19q0 50 -24 76q-27 31 -71 31q-43 0 -86 -35 t-67 -91h247zM489 525h-59l-70 123l-122 -123h-59l161 172h60zM223 -200h-89l19 89h89z" />
<glyph unicode="&#x1ec8;" horiz-adv-x="278" d="M183 0h-89l148 694h89zM421 873q-6 -32 -37 -50l-15 -9q-31 -17 -45 -29t-17 -29l-4 -19l-2 -1h-26v1l4 19q13 67 74 96q17 9 18 21q2 7 2 13q0 11 -7 17q-13 9 -40 9q-50 0 -84 -44h-1h-1l-5 40q43 43 99 43q50 0 73 -20q16 -14 16 -39q0 -9 -2 -19z" />
<glyph unicode="&#x1ec9;" horiz-adv-x="239" d="M156 0h-75l94 444h75zM352 640q-7 -33 -38 -50l-15 -9q-31 -17 -45 -29t-17 -29l-4 -19l-1 -1h-26l-1 1l4 19q15 67 75 96q15 8 18 21q2 7 2 12q0 12 -8 18q-12 9 -40 9q-49 0 -83 -44h-1h-1l-6 40q43 43 100 43q51 0 72 -20q17 -14 17 -39q0 -9 -2 -19z" />
<glyph unicode="&#x1eca;" horiz-adv-x="278" d="M183 0h-89l148 694h89zM140 -200h-89l19 89h89z" />
<glyph unicode="&#x1ecb;" horiz-adv-x="239" d="M156 0h-75l94 444h75zM284 566h-89l19 89h89zM121 -200h-89l19 89h89z" />
<glyph unicode="&#x1ecc;" horiz-adv-x="736" d="M752 345q-32 -155 -147.5 -261t-242.5 -106q-125 0 -196 106q-48 71 -48 167q0 44 11 94q34 155 148.5 263t242.5 108q126 0 196 -108q47 -73 47 -168q0 -45 -11 -95zM667 360q10 47 10 88q0 71 -31 123q-49 81 -140 81q-89 0 -173 -80.5t-111 -211.5q-12 -55 -12 -102 q0 -73 28 -126q47 -89 139 -89q90 0 175 88t115 229zM369 -200h-89l19 89h89z" />
<glyph unicode="&#x1ecd;" d="M516 220q-21 -97 -99.5 -164t-169.5 -67q-89 0 -140 67q-36 47 -36 110q0 25 6 54q21 99 100 170t171 71q90 0 140 -71q34 -49 34 -113q0 -27 -6 -57zM440 230q6 29 6 54q0 44 -21 72q-33 44 -91 44q-56 0 -107.5 -43t-69.5 -127q-6 -31 -6 -56q0 -46 20 -75 q32 -46 89 -46q59 0 110.5 46.5t69.5 130.5zM251 -200h-89l19 89h89z" />
<glyph unicode="&#x1ece;" horiz-adv-x="736" d="M752 345q-32 -155 -147.5 -261t-242.5 -106q-125 0 -196 106q-48 71 -48 167q0 44 11 94q34 155 148.5 263t242.5 108q126 0 196 -108q47 -73 47 -168q0 -45 -11 -95zM667 360q10 47 10 88q0 71 -31 123q-49 81 -140 81q-89 0 -173 -80.5t-111 -211.5q-12 -55 -12 -102 q0 -73 28 -126q47 -89 139 -89q90 0 175 88t115 229zM650 873q-6 -32 -37 -50l-15 -9q-31 -17 -45 -29t-17 -29l-4 -19l-2 -1h-26v1l4 19q13 67 74 96q17 9 18 21q2 7 2 13q0 11 -7 17q-13 9 -40 9q-50 0 -84 -44h-1h-1l-5 40q43 43 99 43q50 0 73 -20q16 -14 16 -39 q0 -9 -2 -19z" />
<glyph unicode="&#x1ecf;" d="M516 220q-21 -97 -99.5 -164t-169.5 -67q-89 0 -140 67q-36 47 -36 110q0 25 6 54q21 99 100 170t171 71q90 0 140 -71q34 -49 34 -113q0 -27 -6 -57zM440 230q6 29 6 54q0 44 -21 72q-33 44 -91 44q-56 0 -107.5 -43t-69.5 -127q-6 -31 -6 -56q0 -46 20 -75 q32 -46 89 -46q59 0 110.5 46.5t69.5 130.5zM483 640q-7 -33 -38 -50l-15 -9q-31 -17 -45 -29t-17 -29l-4 -19l-1 -1h-26l-1 1l4 19q15 67 75 96q15 8 18 21q2 7 2 12q0 12 -8 18q-12 9 -40 9q-49 0 -83 -44h-1h-1l-6 40q43 43 100 43q51 0 72 -20q17 -14 17 -39 q0 -9 -2 -19z" />
<glyph unicode="&#x1ed0;" horiz-adv-x="736" d="M752 345q-32 -155 -147.5 -261t-242.5 -106q-125 0 -196 106q-48 71 -48 167q0 44 11 94q34 155 148.5 263t242.5 108q126 0 196 -108q47 -73 47 -168q0 -45 -11 -95zM667 360q10 47 10 88q0 71 -31 123q-49 81 -140 81q-89 0 -173 -80.5t-111 -211.5q-12 -55 -12 -102 q0 -73 28 -126q47 -89 139 -89q90 0 175 88t115 229zM680 736h-59l-76 97l-118 -97h-59l155 134h60zM729 1027l-223 -122h-89l201 122h111z" />
<glyph unicode="&#x1ed1;" d="M516 220q-21 -97 -99.5 -164t-169.5 -67q-89 0 -140 67q-36 47 -36 110q0 25 6 54q21 99 100 170t171 71q90 0 140 -71q34 -49 34 -113q0 -27 -6 -57zM440 230q6 29 6 54q0 44 -21 72q-33 44 -91 44q-56 0 -107.5 -43t-69.5 -127q-6 -31 -6 -56q0 -46 20 -75 q32 -46 89 -46q59 0 110.5 46.5t69.5 130.5zM518 525h-59l-77 97l-117 -97h-59l154 134h60zM566 816l-222 -122h-89l200 122h111z" />
<glyph unicode="&#x1ed2;" horiz-adv-x="736" d="M752 345q-32 -155 -147.5 -261t-242.5 -106q-125 0 -196 106q-48 71 -48 167q0 44 11 94q34 155 148.5 263t242.5 108q126 0 196 -108q47 -73 47 -168q0 -45 -11 -95zM667 360q10 47 10 88q0 71 -31 123q-49 81 -140 81q-89 0 -173 -80.5t-111 -211.5q-12 -55 -12 -102 q0 -73 28 -126q47 -89 139 -89q90 0 175 88t115 229zM680 736h-59l-76 97l-118 -97h-59l155 134h60zM703 905l-149 122h-111l171 -122h89z" />
<glyph unicode="&#x1ed3;" d="M516 220q-21 -97 -99.5 -164t-169.5 -67q-89 0 -140 67q-36 47 -36 110q0 25 6 54q21 99 100 170t171 71q90 0 140 -71q34 -49 34 -113q0 -27 -6 -57zM440 230q6 29 6 54q0 44 -21 72q-33 44 -91 44q-56 0 -107.5 -43t-69.5 -127q-6 -31 -6 -56q0 -46 20 -75 q32 -46 89 -46q59 0 110.5 46.5t69.5 130.5zM518 525h-59l-77 97l-117 -97h-59l154 134h60zM541 694l-150 122h-111l172 -122h89z" />
<glyph unicode="&#x1ed4;" horiz-adv-x="736" d="M752 345q-32 -155 -147.5 -261t-242.5 -106q-125 0 -196 106q-48 71 -48 167q0 44 11 94q34 155 148.5 263t242.5 108q126 0 196 -108q47 -73 47 -168q0 -45 -11 -95zM667 360q10 47 10 88q0 71 -31 123q-49 81 -140 81q-89 0 -173 -80.5t-111 -211.5q-12 -55 -12 -102 q0 -73 28 -126q47 -89 139 -89q90 0 175 88t115 229zM680 736h-59l-76 97l-118 -97h-59l155 134h60zM779 1022q-7 -33 -38 -50l-14 -9q-31 -16 -45 -28t-18 -30l-4 -19l-1 -1h-26l-1 1l4 19q15 67 75 96q15 8 18 21q2 7 2 12q0 12 -8 18q-12 9 -40 9q-49 0 -83 -44h-1h-1 l-5 40q41 43 99 43q51 0 72 -20q17 -14 17 -39q0 -9 -2 -19z" />
<glyph unicode="&#x1ed5;" d="M516 220q-21 -97 -99.5 -164t-169.5 -67q-89 0 -140 67q-36 47 -36 110q0 25 6 54q21 99 100 170t171 71q90 0 140 -71q34 -49 34 -113q0 -27 -6 -57zM440 230q6 29 6 54q0 44 -21 72q-33 44 -91 44q-56 0 -107.5 -43t-69.5 -127q-6 -31 -6 -56q0 -46 20 -75 q32 -46 89 -46q59 0 110.5 46.5t69.5 130.5zM518 525h-59l-77 97l-117 -97h-59l154 134h60zM616 811q-6 -32 -37 -50l-15 -9q-31 -17 -45 -29t-17 -29l-5 -19l-1 -1h-26l-1 1l5 19q13 67 74 96q17 9 18 21q2 7 2 12q0 11 -7 18q-13 9 -40 9q-50 0 -84 -44h-1h-1l-5 40 q43 43 99 43q50 0 73 -20q16 -14 16 -39q0 -9 -2 -19z" />
<glyph unicode="&#x1ed6;" horiz-adv-x="736" d="M752 345q-32 -155 -147.5 -261t-242.5 -106q-125 0 -196 106q-48 71 -48 167q0 44 11 94q34 155 148.5 263t242.5 108q126 0 196 -108q47 -73 47 -168q0 -45 -11 -95zM667 360q10 47 10 88q0 71 -31 123q-49 81 -140 81q-89 0 -173 -80.5t-111 -211.5q-12 -55 -12 -102 q0 -73 28 -126q47 -89 139 -89q90 0 175 88t115 229zM680 736h-59l-76 97l-118 -97h-59l155 134h60zM757 1044q-13 -55 -49.5 -87t-74.5 -32q-27 0 -58 25q-40 33 -64 33q-37 0 -52 -58h-61q13 55 49.5 87t74.5 32q27 0 58 -25q40 -33 64 -33q38 0 52 58h61z" />
<glyph unicode="&#x1ed7;" d="M516 220q-21 -97 -99.5 -164t-169.5 -67q-89 0 -140 67q-36 47 -36 110q0 25 6 54q21 99 100 170t171 71q90 0 140 -71q34 -49 34 -113q0 -27 -6 -57zM440 230q6 29 6 54q0 44 -21 72q-33 44 -91 44q-56 0 -107.5 -43t-69.5 -127q-6 -31 -6 -56q0 -46 20 -75 q32 -46 89 -46q59 0 110.5 46.5t69.5 130.5zM518 525h-59l-77 97l-117 -97h-59l154 134h60zM594 833q-13 -55 -49 -87t-74 -32q-28 0 -59 25q-40 33 -64 33q-37 0 -51 -58h-61q13 55 49 87t74 32q28 0 59 -25q40 -33 64 -33q37 0 51 58h61z" />
<glyph unicode="&#x1ed8;" horiz-adv-x="736" d="M752 345q-32 -155 -147.5 -261t-242.5 -106q-125 0 -196 106q-48 71 -48 167q0 44 11 94q34 155 148.5 263t242.5 108q126 0 196 -108q47 -73 47 -168q0 -45 -11 -95zM667 360q10 47 10 88q0 71 -31 123q-49 81 -140 81q-89 0 -173 -80.5t-111 -211.5q-12 -55 -12 -102 q0 -73 28 -126q47 -89 139 -89q90 0 175 88t115 229zM680 736h-59l-76 97l-118 -97h-59l155 134h60zM369 -200h-89l19 89h89z" />
<glyph unicode="&#x1ed9;" d="M516 220q-21 -97 -99.5 -164t-169.5 -67q-89 0 -140 67q-36 47 -36 110q0 25 6 54q21 99 100 170t171 71q90 0 140 -71q34 -49 34 -113q0 -27 -6 -57zM440 230q6 29 6 54q0 44 -21 72q-33 44 -91 44q-56 0 -107.5 -43t-69.5 -127q-6 -31 -6 -56q0 -46 20 -75 q32 -46 89 -46q59 0 110.5 46.5t69.5 130.5zM517 525h-59l-70 123l-122 -123h-59l161 172h60zM251 -200h-89l19 89h89z" />
<glyph unicode="&#x1eda;" horiz-adv-x="736" d="M752 344q-32 -150 -147 -259q-114 -107 -243 -107q-63 0 -114.5 28.5t-82.5 78.5q-47 72 -47 167q0 44 10 92q34 155 148 263q114 109 243 109q83 0 146 -50l37 28h-22l-2 1l17 82l2 1h81l1 -1l-17 -82l-1 -1l-74 -49q17 -17 29 -38q47 -73 47 -167q0 -45 -11 -96z M667 361q9 44 9 83q0 71 -29 124q-21 39 -58 62t-83 23q-95 0 -177 -85q-83 -85 -108 -207q-11 -53 -11 -99q0 -71 27 -127q20 -42 56 -67t83 -25q94 0 179 92q83 92 112 226zM715 868l-223 -122h-89l201 122h111z" />
<glyph unicode="&#x1edb;" d="M565 445l-80 -53l2 -2q34 -49 34 -113q0 -28 -6 -58q-20 -94 -99 -163q-80 -67 -169 -67q-90 0 -141 67q-35 48 -35 109q0 26 6 54q21 101 100 171q79 71 170 71q70 0 118 -46l39 29h-22v1l17 82l1 1h81l1 -1zM439 231q6 27 6 50q0 42 -19 71q-29 48 -92 48 q-64 0 -112 -48q-50 -47 -65 -121q-6 -29 -6 -54q0 -42 18 -74q27 -50 91 -50q65 0 113 50q48 47 66 128zM511 694l-186 -167h-61l169 167h78z" />
<glyph unicode="&#x1edc;" horiz-adv-x="736" d="M752 344q-32 -150 -147 -259q-114 -107 -243 -107q-63 0 -114.5 28.5t-82.5 78.5q-47 72 -47 167q0 44 10 92q34 155 148 263q114 109 243 109q83 0 146 -50l37 28h-22l-2 1l17 82l2 1h81l1 -1l-17 -82l-1 -1l-74 -49q17 -17 29 -38q47 -73 47 -167q0 -45 -11 -96z M667 361q9 44 9 83q0 71 -29 124q-21 39 -58 62t-83 23q-95 0 -177 -85q-83 -85 -108 -207q-11 -53 -11 -99q0 -71 27 -127q20 -42 56 -67t83 -25q94 0 179 92q83 92 112 226zM621 746h-89l-171 122h111z" />
<glyph unicode="&#x1edd;" d="M565 445l-80 -53l2 -2q34 -49 34 -113q0 -28 -6 -58q-20 -94 -99 -163q-80 -67 -169 -67q-90 0 -141 67q-35 48 -35 109q0 26 6 54q21 101 100 171q79 71 170 71q70 0 118 -46l39 29h-22v1l17 82l1 1h81l1 -1zM439 231q6 27 6 50q0 42 -19 71q-29 48 -92 48 q-64 0 -112 -48q-50 -47 -65 -121q-6 -29 -6 -54q0 -42 18 -74q27 -50 91 -50q65 0 113 50q48 47 66 128zM432 527h-61l-114 167h78z" />
<glyph unicode="&#x1ede;" horiz-adv-x="736" d="M752 344q-32 -150 -147 -259q-114 -107 -243 -107q-63 0 -114.5 28.5t-82.5 78.5q-47 72 -47 167q0 44 10 92q34 155 148 263q114 109 243 109q83 0 146 -50l37 28h-22l-2 1l17 82l2 1h81l1 -1l-17 -82l-1 -1l-74 -49q17 -17 29 -38q47 -73 47 -167q0 -45 -11 -96z M667 361q9 44 9 83q0 71 -29 124q-21 39 -58 62t-83 23q-95 0 -177 -85q-83 -85 -108 -207q-11 -53 -11 -99q0 -71 27 -127q20 -42 56 -67t83 -25q94 0 179 92q83 92 112 226zM650 873q-6 -32 -37 -50l-15 -9q-31 -17 -45 -29t-17 -29l-4 -19l-2 -1h-26v1l4 19q13 67 74 96 q17 9 18 21q2 7 2 13q0 11 -7 17q-13 9 -40 9q-50 0 -84 -44h-1h-1l-5 40q43 43 99 43q50 0 73 -20q16 -14 16 -39q0 -9 -2 -19z" />
<glyph unicode="&#x1edf;" d="M565 445l-80 -53l2 -2q34 -49 34 -113q0 -28 -6 -58q-20 -94 -99 -163q-80 -67 -169 -67q-90 0 -141 67q-35 48 -35 109q0 26 6 54q21 101 100 171q79 71 170 71q70 0 118 -46l39 29h-22v1l17 82l1 1h81l1 -1zM439 231q6 27 6 50q0 42 -19 71q-29 48 -92 48 q-64 0 -112 -48q-50 -47 -65 -121q-6 -29 -6 -54q0 -42 18 -74q27 -50 91 -50q65 0 113 50q48 47 66 128zM483 640q-7 -33 -38 -50l-15 -9q-31 -17 -45 -29t-17 -29l-4 -19l-1 -1h-26l-1 1l4 19q15 67 75 96q15 8 18 21q2 7 2 12q0 12 -8 18q-12 9 -40 9q-49 0 -83 -44h-1 h-1l-6 40q43 43 100 43q51 0 72 -20q17 -14 17 -39q0 -9 -2 -19z" />
<glyph unicode="&#x1ee0;" horiz-adv-x="736" d="M752 344q-32 -150 -147 -259q-114 -107 -243 -107q-63 0 -114.5 28.5t-82.5 78.5q-47 72 -47 167q0 44 10 92q34 155 148 263q114 109 243 109q83 0 146 -50l37 28h-22l-2 1l17 82l2 1h81l1 -1l-17 -82l-1 -1l-74 -49q17 -17 29 -38q47 -73 47 -167q0 -45 -11 -96z M667 361q9 44 9 83q0 71 -29 124q-21 39 -58 62t-83 23q-95 0 -177 -85q-83 -85 -108 -207q-11 -53 -11 -99q0 -71 27 -127q20 -42 56 -67t83 -25q94 0 179 92q83 92 112 226zM717 855q-13 -55 -49.5 -87t-74.5 -32q-27 0 -58 25q-40 33 -64 33q-37 0 -52 -58h-61 q13 55 49.5 87t74.5 32q27 0 58 -25q40 -33 64 -33q37 0 52 58h61z" />
<glyph unicode="&#x1ee1;" d="M565 445l-80 -53l2 -2q34 -49 34 -113q0 -28 -6 -58q-20 -94 -99 -163q-80 -67 -169 -67q-90 0 -141 67q-35 48 -35 109q0 26 6 54q21 101 100 171q79 71 170 71q70 0 118 -46l39 29h-22v1l17 82l1 1h81l1 -1zM439 231q6 27 6 50q0 42 -19 71q-29 48 -92 48 q-64 0 -112 -48q-50 -47 -65 -121q-6 -29 -6 -54q0 -42 18 -74q27 -50 91 -50q65 0 113 50q48 47 66 128zM559 670q-13 -55 -49 -87t-74 -32q-26 0 -59 25q-40 33 -64 33q-37 0 -51 -58h-61q13 55 49 87t74 32q28 0 59 -25q40 -33 64 -33q37 0 51 58h61z" />
<glyph unicode="&#x1ee2;" horiz-adv-x="736" d="M752 344q-32 -150 -147 -259q-114 -107 -243 -107q-63 0 -114.5 28.5t-82.5 78.5q-47 72 -47 167q0 44 10 92q34 155 148 263q114 109 243 109q83 0 146 -50l37 28h-22l-2 1l17 82l2 1h81l1 -1l-17 -82l-1 -1l-74 -49q17 -17 29 -38q47 -73 47 -167q0 -45 -11 -96z M667 361q9 44 9 83q0 71 -29 124q-21 39 -58 62t-83 23q-95 0 -177 -85q-83 -85 -108 -207q-11 -53 -11 -99q0 -71 27 -127q20 -42 56 -67t83 -25q94 0 179 92q83 92 112 226zM369 -200h-89l19 89h89z" />
<glyph unicode="&#x1ee3;" d="M565 445l-80 -53l2 -2q34 -49 34 -113q0 -28 -6 -58q-20 -94 -99 -163q-80 -67 -169 -67q-90 0 -141 67q-35 48 -35 109q0 26 6 54q21 101 100 171q79 71 170 71q70 0 118 -46l39 29h-22v1l17 82l1 1h81l1 -1zM439 231q6 27 6 50q0 42 -19 71q-29 48 -92 48 q-64 0 -112 -48q-50 -47 -65 -121q-6 -29 -6 -54q0 -42 18 -74q27 -50 91 -50q65 0 113 50q48 47 66 128zM251 -200h-89l19 89h89z" />
<glyph unicode="&#x1ee4;" horiz-adv-x="688" d="M643 233q-23 -108 -111.5 -181.5t-190.5 -73.5q-103 0 -162 74q-42 52 -42 121q0 29 7 60l98 461h89l-99 -462q-7 -33 -7 -61q0 -52 25 -85q37 -52 104 -52q68 0 129 52t81 146l99 462h78zM345 -200h-89l19 89h89z" />
<glyph unicode="&#x1ee5;" horiz-adv-x="517" d="M435 0h-75l10 48q-80 -59 -185 -59q-59 0 -76 31q-10 17 -10 45q0 20 5 44l71 335h78l-70 -331q-3 -16 -3 -27q0 -17 6 -26q11 -16 60 -16q51 0 92 28.5t52 81.5l61 290h78zM259 -200h-89l19 89h89z" />
<glyph unicode="&#x1ee6;" horiz-adv-x="688" d="M643 233q-23 -108 -111.5 -181.5t-190.5 -73.5q-103 0 -162 74q-42 52 -42 121q0 29 7 60l98 461h89l-99 -462q-7 -33 -7 -61q0 -52 25 -85q37 -52 104 -52q68 0 129 52t81 146l99 462h78zM626 873q-6 -32 -37 -50l-15 -9q-31 -17 -45 -29t-17 -29l-4 -19l-2 -1h-26v1 l4 19q13 67 74 96q17 9 18 21q2 7 2 13q0 11 -7 17q-13 9 -40 9q-50 0 -84 -44h-1h-1l-5 40q43 43 99 43q50 0 73 -20q16 -14 16 -39q0 -9 -2 -19z" />
<glyph unicode="&#x1ee7;" horiz-adv-x="517" d="M435 0h-75l10 48q-80 -59 -185 -59q-59 0 -76 31q-10 17 -10 45q0 20 5 44l71 335h78l-70 -331q-3 -16 -3 -27q0 -17 6 -26q11 -16 60 -16q51 0 92 28.5t52 81.5l61 290h78zM491 640q-7 -33 -38 -50l-15 -9q-31 -17 -45 -29t-17 -29l-4 -19l-1 -1h-26l-1 1l4 19 q15 67 75 96q15 8 18 21q2 7 2 12q0 12 -8 18q-12 9 -40 9q-49 0 -83 -44h-1h-1l-6 40q43 43 100 43q51 0 72 -20q17 -14 17 -39q0 -9 -2 -19z" />
<glyph unicode="&#x1ee8;" horiz-adv-x="687" d="M838 694l-115 -72l-83 -391q-22 -105 -110 -179q-87 -74 -190 -74t-161 74q-42 53 -42 123q0 27 6 56l99 463h89l-99 -463q-7 -32 -7 -59q0 -48 21 -83q34 -56 106 -56q73 0 134 56q59 57 77 142l99 463h77l-7 -32l46 32h-22l-1 1l17 82l1 1h81l1 -1l-17 -82v-1zM691 868 l-223 -122h-89l201 122h111z" />
<glyph unicode="&#x1ee9;" horiz-adv-x="544" d="M629 445l-115 -73l-79 -372h-75l10 48q-76 -59 -188 -59q-55 0 -73 29q-11 18 -11 47q0 20 5 45l71 334h78l-71 -334q-3 -14 -3 -24q0 -19 9 -28q16 -14 65 -14q47 0 87 30t49 72l63 298h78l-6 -32l45 32h-23v1l17 82l1 1h82l1 -1zM519 694l-186 -167h-61l169 167h78z " />
<glyph unicode="&#x1eea;" horiz-adv-x="687" d="M838 694l-115 -72l-83 -391q-22 -105 -110 -179q-87 -74 -190 -74t-161 74q-42 53 -42 123q0 27 6 56l99 463h89l-99 -463q-7 -32 -7 -59q0 -48 21 -83q34 -56 106 -56q73 0 134 56q59 57 77 142l99 463h77l-7 -32l46 32h-22l-1 1l17 82l1 1h81l1 -1l-17 -82v-1zM597 746 h-89l-171 122h111z" />
<glyph unicode="&#x1eeb;" horiz-adv-x="544" d="M629 445l-115 -73l-79 -372h-75l10 48q-76 -59 -188 -59q-55 0 -73 29q-11 18 -11 47q0 20 5 45l71 334h78l-71 -334q-3 -14 -3 -24q0 -19 9 -28q16 -14 65 -14q47 0 87 30t49 72l63 298h78l-6 -32l45 32h-23v1l17 82l1 1h82l1 -1zM440 527h-61l-114 167h78z" />
<glyph unicode="&#x1eec;" horiz-adv-x="687" d="M838 694l-115 -72l-83 -391q-22 -105 -110 -179q-87 -74 -190 -74t-161 74q-42 53 -42 123q0 27 6 56l99 463h89l-99 -463q-7 -32 -7 -59q0 -48 21 -83q34 -56 106 -56q73 0 134 56q59 57 77 142l99 463h77l-7 -32l46 32h-22l-1 1l17 82l1 1h81l1 -1l-17 -82v-1zM626 873 q-6 -32 -37 -50l-15 -9q-31 -17 -45 -29t-17 -29l-4 -19l-2 -1h-26v1l4 19q13 67 74 96q17 9 18 21q2 7 2 13q0 11 -7 17q-13 9 -40 9q-50 0 -84 -44h-1h-1l-5 40q43 43 99 43q50 0 73 -20q16 -14 16 -39q0 -9 -2 -19z" />
<glyph unicode="&#x1eed;" horiz-adv-x="544" d="M629 445l-115 -73l-79 -372h-75l10 48q-76 -59 -188 -59q-55 0 -73 29q-11 18 -11 47q0 20 5 45l71 334h78l-71 -334q-3 -14 -3 -24q0 -19 9 -28q16 -14 65 -14q47 0 87 30t49 72l63 298h78l-6 -32l45 32h-23v1l17 82l1 1h82l1 -1zM491 640q-7 -33 -38 -50l-15 -9 q-31 -17 -45 -29t-17 -29l-4 -19l-1 -1h-26l-1 1l4 19q15 67 75 96q15 8 18 21q2 7 2 12q0 12 -8 18q-12 9 -40 9q-49 0 -83 -44h-1h-1l-6 40q43 43 100 43q51 0 72 -20q17 -14 17 -39q0 -9 -2 -19z" />
<glyph unicode="&#x1eee;" horiz-adv-x="687" d="M838 694l-115 -72l-83 -391q-22 -105 -110 -179q-87 -74 -190 -74t-161 74q-42 53 -42 123q0 27 6 56l99 463h89l-99 -463q-7 -32 -7 -59q0 -48 21 -83q34 -56 106 -56q73 0 134 56q59 57 77 142l99 463h77l-7 -32l46 32h-22l-1 1l17 82l1 1h81l1 -1l-17 -82v-1zM693 855 q-13 -55 -49.5 -87t-74.5 -32q-27 0 -58 25q-40 33 -64 33q-37 0 -52 -58h-61q13 55 49.5 87t74.5 32q27 0 58 -25q40 -33 64 -33q37 0 52 58h61z" />
<glyph unicode="&#x1eef;" horiz-adv-x="544" d="M629 445l-115 -73l-79 -372h-75l10 48q-76 -59 -188 -59q-55 0 -73 29q-11 18 -11 47q0 20 5 45l71 334h78l-71 -334q-3 -14 -3 -24q0 -19 9 -28q16 -14 65 -14q47 0 87 30t49 72l63 298h78l-6 -32l45 32h-23v1l17 82l1 1h82l1 -1zM567 670q-13 -55 -49 -87t-74 -32 q-26 0 -59 25q-40 33 -64 33q-37 0 -51 -58h-61q13 55 49 87t74 32q28 0 59 -25q40 -33 64 -33q37 0 51 58h61z" />
<glyph unicode="&#x1ef0;" horiz-adv-x="687" d="M838 694l-115 -72l-83 -391q-22 -105 -110 -179q-87 -74 -190 -74t-161 74q-42 53 -42 123q0 27 6 56l99 463h89l-99 -463q-7 -32 -7 -59q0 -48 21 -83q34 -56 106 -56q73 0 134 56q59 57 77 142l99 463h77l-7 -32l46 32h-22l-1 1l17 82l1 1h81l1 -1l-17 -82v-1z M345 -200h-89l19 89h89z" />
<glyph unicode="&#x1ef1;" horiz-adv-x="544" d="M629 445l-115 -73l-79 -372h-75l10 48q-76 -59 -188 -59q-55 0 -73 29q-11 18 -11 47q0 20 5 45l71 334h78l-71 -334q-3 -14 -3 -24q0 -19 9 -28q16 -14 65 -14q47 0 87 30t49 72l63 298h78l-6 -32l45 32h-23v1l17 82l1 1h82l1 -1zM273 -200h-89l19 89h89z" />
<glyph unicode="&#x1ef2;" horiz-adv-x="667" d="M811 694l-376 -417l-59 -277h-86l59 278l-198 416h105l136 -290q1 -1 24 -57l81 95l22 26l204 226h88zM586 746h-89l-171 122h111z" />
<glyph unicode="&#x1ef3;" horiz-adv-x="461" d="M540 444l-331 -535q-43 -69 -74.5 -91.5t-63.5 -22.5q-36 0 -70 8l8 65q36 -16 75 -16q10 0 16 2t20.5 15.5t32.5 40.5l55 90l-100 444h79l28 -125q35 -160 35 -236q0 -15 -1 -26h1q18 69 215 387h75zM413 527h-61l-114 167h78z" />
<glyph unicode="&#x1ef4;" horiz-adv-x="667" d="M811 694l-376 -417l-59 -277h-86l59 278l-198 416h105l136 -290q1 -1 24 -57l81 95l22 26l204 226h88zM334 -200h-89l19 89h89z" />
<glyph unicode="&#x1ef5;" horiz-adv-x="461" d="M540 444l-331 -535q-43 -69 -74.5 -91.5t-63.5 -22.5q-36 0 -70 8l8 65q36 -16 75 -16q10 0 16 2t20.5 15.5t32.5 40.5l55 90l-100 444h79l28 -125q35 -160 35 -236q0 -15 -1 -26h1q18 69 215 387h75zM347 -200h-89l19 89h89z" />
<glyph unicode="&#x1ef6;" horiz-adv-x="667" d="M811 694l-376 -417l-59 -277h-86l59 278l-198 416h105l136 -290q1 -1 24 -57l81 95l22 26l204 226h88zM615 873q-6 -32 -37 -50l-15 -9q-31 -17 -45 -29t-17 -29l-4 -19l-2 -1h-26v1l4 19q13 67 74 96q17 9 18 21q2 7 2 13q0 11 -7 17q-13 9 -40 9q-50 0 -84 -44h-1h-1 l-5 40q43 43 99 43q50 0 73 -20q16 -14 16 -39q0 -9 -2 -19z" />
<glyph unicode="&#x1ef7;" horiz-adv-x="461" d="M540 444l-331 -535q-43 -69 -74.5 -91.5t-63.5 -22.5q-36 0 -70 8l8 65q36 -16 75 -16q10 0 16 2t20.5 15.5t32.5 40.5l55 90l-100 444h79l28 -125q35 -160 35 -236q0 -15 -1 -26h1q18 69 215 387h75zM464 640q-7 -33 -38 -50l-15 -9q-31 -17 -45 -29t-17 -29l-4 -19 l-1 -1h-26l-1 1l4 19q15 67 75 96q15 8 18 21q2 7 2 12q0 12 -8 18q-12 9 -40 9q-49 0 -83 -44h-1h-1l-6 40q43 43 100 43q51 0 72 -20q17 -14 17 -39q0 -9 -2 -19z" />
<glyph unicode="&#x1ef8;" horiz-adv-x="667" d="M811 694l-376 -417l-59 -277h-86l59 278l-198 416h105l136 -290q1 -1 24 -57l81 95l22 26l204 226h88zM682 855q-13 -55 -49.5 -87t-74.5 -32q-27 0 -58 25q-40 33 -64 33q-37 0 -52 -58h-61q13 55 49.5 87t74.5 32q27 0 58 -25q40 -33 64 -33q37 0 52 58h61z" />
<glyph unicode="&#x1ef9;" horiz-adv-x="461" d="M540 444l-331 -535q-43 -69 -74.5 -91.5t-63.5 -22.5q-36 0 -70 8l8 65q36 -16 75 -16q10 0 16 2t20.5 15.5t32.5 40.5l55 90l-100 444h79l28 -125q35 -160 35 -236q0 -15 -1 -26h1q18 69 215 387h75zM540 670q-13 -55 -49 -87t-74 -32q-26 0 -59 25q-40 33 -64 33 q-37 0 -51 -58h-61q13 55 49 87t74 32q28 0 59 -25q40 -33 64 -33q37 0 51 58h61z" />
<glyph unicode="&#x2000;" horiz-adv-x="577" />
<glyph unicode="&#x2001;" horiz-adv-x="1154" />
<glyph unicode="&#x2002;" horiz-adv-x="577" />
<glyph unicode="&#x2003;" horiz-adv-x="1154" />
<glyph unicode="&#x2004;" horiz-adv-x="384" />
<glyph unicode="&#x2005;" horiz-adv-x="288" />
<glyph unicode="&#x2006;" horiz-adv-x="192" />
<glyph unicode="&#x2007;" horiz-adv-x="192" />
<glyph unicode="&#x2008;" horiz-adv-x="144" />
<glyph unicode="&#x2009;" horiz-adv-x="230" />
<glyph unicode="&#x200a;" horiz-adv-x="64" />
<glyph unicode="&#x2010;" horiz-adv-x="333" d="M340 193h-265l12 58h265z" />
<glyph unicode="&#x2011;" horiz-adv-x="333" d="M340 193h-265l12 58h265z" />
<glyph unicode="&#x2013;" d="M551 244h-499l13 61h499z" />
<glyph unicode="&#x2014;" horiz-adv-x="1000" d="M1051 244h-999l13 61h999z" />
<glyph unicode="&#x2016;" horiz-adv-x="398" d="M113 -217q-7 -33 -27 -33q-15 0 -15 18q0 6 2 15l198 934q7 33 27 33q15 0 15 -18q0 -6 -2 -15zM233 -217q-7 -33 -27 -33q-15 0 -15 18q0 6 2 15l198 934q7 33 27 33q15 0 15 -18q0 -6 -2 -15z" />
<glyph unicode="&#x2018;" horiz-adv-x="278" d="M283 486h-83l18 82l69 126h41l-52 -125h25z" />
<glyph unicode="&#x2019;" horiz-adv-x="278" d="M310 612l-69 -126h-41l52 125h-25l18 83h83z" />
<glyph unicode="&#x201a;" horiz-adv-x="278" d="M180 2l-68 -126h-41l51 125h-25l18 83h83z" />
<glyph unicode="&#x201c;" horiz-adv-x="472" d="M283 486h-83l18 82l69 126h41l-52 -125h25zM477 486h-83l18 82l69 126h41l-52 -125h25z" />
<glyph unicode="&#x201d;" horiz-adv-x="472" d="M311 612l-69 -126h-41l52 125h-25l18 83h83zM505 612l-69 -126h-41l52 125h-25l18 83h83z" />
<glyph unicode="&#x201e;" horiz-adv-x="472" d="M181 2l-68 -126h-41l51 125h-25l18 83h83zM375 2l-68 -126h-41l51 125h-25l18 83h83z" />
<glyph unicode="&#x2020;" horiz-adv-x="444" d="M478 430q-7 -33 -44 -33q-24 0 -66 14q-30 8 -48 10q-5 -45 -5 -71q-1 -74 -14 -132q-23 -109 -64 -262q-25 -98 -44 -154q-3 -7 -3.5 -8.5t-2.5 -5t-5 -4t-7 -0.5q-12 0 -9 20q29 231 68 414q15 65 43 133q15 37 24 70q-17 -2 -50 -10q-51 -14 -74 -14q-30 0 -30 23 q0 5 1 11q7 33 44 33q24 0 66 -14q30 -8 48 -10q6 38 11 107q3 72 12 117q9 41 43 41q26 0 26 -24q0 -8 -2 -17q-4 -18 -34 -111q-25 -65 -37 -113q17 2 50 10q51 14 74 14q30 0 30 -23q0 -5 -1 -11z" />
<glyph unicode="&#x2021;" horiz-adv-x="444" d="M488 477q-7 -33 -44 -33q-24 0 -66 14q-30 8 -48 10q-3 -23 -7 -95q0 -56 -7 -84q-8 -39 -42 -39q-27 0 -27 25q0 6 2 14q6 27 35 101q19 45 27 78q-17 -2 -50 -10q-51 -14 -74 -14q-30 0 -30 23q0 5 1 11q7 33 44 33q24 0 66 -14q30 -8 48 -10q3 23 7 95q0 56 7 84 q8 39 41 39q27 0 27 -28q0 -5 -1 -11q-6 -27 -35 -101q-19 -45 -27 -78q17 2 50 10q51 14 74 14q30 0 30 -23q0 -5 -1 -11zM392 22q-9 -33 -41 -33q-23 0 -54 9q-42 12 -63 14q-6 -36 -6 -72q-2 -78 -8 -106q-8 -39 -43 -39q-26 0 -26 24q0 7 2 15q5 26 29 84q31 86 33 94 q-23 -3 -66 -13q-30 -10 -61 -10q-17 0 -24 10q-4 7 -4 15q0 4 1 8q2 12 13 22.5t28 10.5q24 0 54 -9q41 -12 63 -14q5 40 5 61v11q2 78 9 106q8 39 42 39q27 0 27 -25q0 -6 -2 -14q-5 -26 -29 -84q-25 -64 -33 -94q24 2 57 12q45 11 71 11q15 0 22 -9q4 -8 4 -18v-6z" />
<glyph unicode="&#x2022;" horiz-adv-x="778" d="M558 121h-286l61 286h286z" />
<glyph unicode="&#x2026;" horiz-adv-x="626" d="M181 0h-83l18 83h83zM355 0h-83l18 83h83zM529 0h-83l18 83h83z" />
<glyph unicode="&#x202f;" horiz-adv-x="230" />
<glyph unicode="&#x2030;" horiz-adv-x="1154" d="M1122 145q-18 -85 -71.5 -143t-108.5 -58t-85 58q-19 35 -19 83q0 28 7 61q18 86 72.5 143.5t110.5 57.5q54 0 83 -57q18 -36 18 -83q0 -29 -7 -62zM775 145q-18 -85 -71.5 -143t-108.5 -58t-85 58q-19 35 -19 83q0 28 7 61q18 86 72.5 143.5t110.5 57.5q54 0 83 -57 q18 -36 18 -83q0 -29 -7 -62zM456 548q-18 -85 -71 -143t-108 -58t-85 57q-19 36 -19 83q0 29 7 62q18 86 72 143.5t110 57.5q55 0 84 -58q18 -34 18 -80q0 -30 -8 -64zM782 730q-2 -7 -12 -18l-594 -752q-11 -16 -24 -16q-8 0 -12.5 6t-3.5 14l11 18l595 752q13 16 24 16 q8 0 13 -6t3 -14zM1053 146q7 30 7 56q0 22 -5 42q-11 42 -40 42q-6 0 -12.5 -1.5t-18.5 -10t-22.5 -22.5t-22 -41.5t-19.5 -65.5q-8 -39 -8 -67t4.5 -41.5t13.5 -21.5t14 -9t11 -1q29 0 57.5 41.5t40.5 99.5zM388 549q6 29 6 54q0 23 -5 43q-11 43 -40 43q-6 0 -12.5 -1.5 t-18.5 -10t-22.5 -22.5t-22 -41.5t-19.5 -65.5q-8 -39 -8 -67t4.5 -41.5t14 -21.5t14.5 -9t11 -1q29 0 57 41t41 100zM706 146q7 30 7 56q0 22 -5 42q-11 42 -40 42q-6 0 -12.5 -1.5t-18.5 -10t-22.5 -22.5t-22 -41.5t-19.5 -65.5q-8 -39 -8 -67t4.5 -41.5t13.5 -21.5t14 -9 t11 -1q29 0 57.5 41.5t40.5 99.5z" />
<glyph unicode="&#x2031;" horiz-adv-x="1471" d="M1462 145q-18 -85 -71.5 -143t-108.5 -58t-85 58q-19 35 -19 83q0 28 7 61q18 86 72.5 143.5t110.5 57.5q54 0 83 -57q18 -36 18 -83q0 -29 -7 -62zM1115 145q-18 -85 -71.5 -143t-108.5 -58t-85 58q-19 35 -19 83q0 28 7 61q18 86 72.5 143.5t110.5 57.5q54 0 83 -57 q18 -36 18 -83q0 -29 -7 -62zM449 548q-18 -85 -71 -143t-108 -58t-86 57q-18 36 -18 83q0 29 7 62q18 86 72 143.5t110 57.5q55 0 84 -58q18 -34 18 -80q0 -30 -8 -64zM768 145q-18 -85 -71.5 -143t-108.5 -58t-85 58q-19 35 -19 83q0 28 7 61q18 86 72.5 143.5t110.5 57.5 q54 0 83 -57q18 -36 18 -83q0 -29 -7 -62zM775 730q-2 -7 -12 -18l-594 -752q-11 -16 -24 -16q-8 0 -12.5 6t-3.5 14l11 18l595 752q13 16 24 16q8 0 13 -6t3 -14zM1393 146q7 30 7 56q0 22 -5 42q-11 42 -40 42q-6 0 -12.5 -1.5t-18.5 -10t-22.5 -22.5t-22 -41.5 t-19.5 -65.5q-8 -39 -8 -67t4.5 -41.5t13.5 -21.5t14 -9t11 -1q29 0 57.5 41.5t40.5 99.5zM1046 146q7 30 7 56q0 22 -5 42q-11 42 -40 42q-6 0 -12.5 -1.5t-18.5 -10t-22.5 -22.5t-22 -41.5t-19.5 -65.5q-8 -39 -8 -67t4.5 -41.5t13.5 -21.5t14 -9t11 -1q29 0 57.5 41.5 t40.5 99.5zM381 549q6 29 6 54q0 23 -5 43q-11 43 -40 43q-6 0 -12.5 -1.5t-18.5 -10t-22.5 -22.5t-22 -41.5t-19.5 -65.5q-8 -39 -8 -67t4.5 -41.5t14 -21.5t14.5 -9t11 -1q29 0 57 41t41 100zM699 146q7 30 7 56q0 22 -5 42q-11 42 -40 42q-6 0 -12.5 -1.5t-18.5 -10 t-22.5 -22.5t-22 -41.5t-19.5 -65.5q-8 -39 -8 -67t4.5 -41.5t13.5 -21.5t14 -9t11 -1q29 0 57.5 41.5t40.5 99.5z" />
<glyph unicode="&#x2039;" horiz-adv-x="333" d="M277 0h-61l-58 219l151 220h61l-134 -220z" />
<glyph unicode="&#x203a;" horiz-adv-x="333" d="M269 219l-152 -219h-61l135 219l-42 220h61z" />
<glyph unicode="&#x203b;" horiz-adv-x="778" d="M627 15q-6 -5 -13 -5q-11 0 -22 14l-156 198l-240 -198q-17 -14 -29 -14q-6 0 -11 5q-4 5 -4 10q0 4 2 7q6 9 20 20l240 198l-156 198q-10 13 -10 23q0 8 8 15q7 6 14 6q12 0 22 -15l156 -198l239 197q17 14 29 14q6 0 11 -5q4 -5 4 -10q0 -4 -3 -7q-5 -9 -19 -20 l-239 -198l156 -198q9 -12 9 -21t-8 -16zM270 250q-3 -14 -15 -24.5t-27 -10.5q-14 0 -22 11q-7 7 -7 17q0 3 1 7q3 15 15.5 25t27.5 10t22.5 -10t4.5 -25zM521 457q-3 -14 -15.5 -24.5t-26.5 -10.5t-22.5 10.5t-5.5 24.5t16 24.5t27 10.5t22 -10.5t5 -24.5zM433 44 q-3 -15 -15.5 -25t-26.5 -10t-23 10q-6 7 -6 18q0 3 1 7q3 14 16 24.5t27 10.5t22 -10.5t5 -24.5zM683 250q-3 -14 -15 -24.5t-27 -10.5q-14 0 -23 11q-6 7 -6 17q0 3 1 7q3 15 15.5 25t27.5 10t22 -10q6 -7 6 -17q0 -4 -1 -8z" />
<glyph unicode="&#x203d;" horiz-adv-x="472" d="M278 0h-83l18 83h83zM519 550q-15 -71 -75 -120q-99 -83 -125 -198l-12 -57h-67l7 32q11 48 23 80l70 355q-77 -8 -149 -53l-9 63q83 44 171 52l4 22h66l-5 -23q67 -9 90 -51q15 -28 15 -63q0 -18 -4 -39zM441 552q4 18 4 32q0 47 -41 57l-46 -204q23 25 37 36 q36 32 46 79z" />
<glyph unicode="&#x203f;" horiz-adv-x="597" d="M502 -70q-8 -33 -36 -58.5t-65.5 -39t-74.5 -20t-71 -6.5q-32 0 -65.5 6.5t-65 20t-48.5 39.5q-13 18 -13 41q0 8 2 17h78v-5q0 -15 10 -25q12 -13 34.5 -19t43.5 -8.5t43 -2.5q47 0 93.5 13.5t56.5 46.5h78z" />
<glyph unicode="&#x2040;" horiz-adv-x="597" d="M638 568h-78v5q0 20 -21 33q-24 14 -52 18t-59 4q-47 0 -93.5 -13.5t-55.5 -46.5h-78q7 33 35 58.5t66 39t75 20t71 6.5q32 0 65.5 -6.5t65 -20t48.5 -39.5q13 -18 13 -41q0 -8 -2 -17z" />
<glyph unicode="&#x2044;" horiz-adv-x="558" d="M645 674l-539 -654h-46l539 654h46z" />
<glyph unicode="&#x2045;" horiz-adv-x="361" d="M242 -309q-94 0 -154 49q-46 36 -46 99q0 20 5 44l45 212q13 63 69.5 109t117.5 46l1 2q-23 0 -53 13q-73 32 -73 107q0 18 4 39q6 22 8 33l36 168q9 47 28 70q58 69 238 69l-13 -61q-7 0 -22.5 0.5t-23.5 0.5q-112 0 -127 -69l-38 -179q-1 -8 -8 -32q-4 -17 -4 -31 q0 -42 31 -66q41 -32 104 -32l-13 -62q-66 0 -118.5 -33t-66.5 -98l-46 -217q-4 -18 -4 -34q0 -32 17 -54q24 -32 74 -32h45z" />
<glyph unicode="&#x2046;" horiz-adv-x="361" d="M266 -110q-12 -49 -28 -70q-58 -69 -237 -69l13 61q8 0 22 -0.5t22 -0.5q113 0 127 69l46 212q3 16 3 30q0 42 -30 66q-39 32 -104 32l13 62q73 0 123 35t62 93l45 212q2 9 2 17q0 12 -5 21q-7 15 -25 21t-33 8t-37 2q-7 0 -22 -0.5t-22 -0.5l13 61q178 0 207 -69 q4 -9 4 -24q0 -19 -6 -46l-43 -202q-14 -64 -69 -111t-119 -47l-1 -2q24 0 52 -13q45 -16 63 -55q10 -25 10 -53q0 -18 -4 -38z" />
<glyph unicode="&#x2052;" d="M599 730q-1 -8 -29 -44l-95 -134l-82 -117l-191 -272l-101 -143q-14 -18 -24 -19h-1q-9 0 -13 6q-3 4 -3 9q0 3 1 6q1 7 8 17.5t17 23.5t13 18l446 633l14 19q8 15 19 17l7 1q8 0 12 -7q3 -4 3 -9q0 -2 -1 -5zM336 644q-8 -17 -32 -17h-70q-21 0 -21 17q0 3 1 8l14 69 q6 24 22 29q5 1 14 1h69q21 0 21 -17q0 -3 -1 -8zM428 18q-8 -17 -32 -17h-70q-21 0 -21 17q0 3 1 8l14 69q6 24 22 29q5 1 14 1h69q21 0 21 -17q0 -3 -1 -8z" />
<glyph unicode="&#x2054;" horiz-adv-x="597" d="M476 -194h-78v5q0 20 -21 33q-24 14 -52 18t-59 4q-47 0 -93.5 -13.5t-55.5 -46.5h-78q7 33 35 58.5t66 39t75 20t71 6.5q32 0 65.5 -6.5t65 -20t48.5 -39.5q13 -18 13 -41q0 -8 -2 -17z" />
<glyph unicode="&#x205f;" horiz-adv-x="288" />
<glyph unicode="&#x20a1;" horiz-adv-x="639" d="M595 34q-61 -33 -102.5 -44.5t-102.5 -11.5h-12l-15 -74h-64l17 83q-106 29 -154 131q-31 65 -31 141q0 42 10 88q27 128 118.5 230t209.5 130l18 83h64l-16 -74h11q91 0 176 -35l-32 -81q-71 52 -158 52h-10l-130 -610h13q55 0 97 12t102 49zM331 56l124 582 q-80 -30 -142 -110.5t-83 -180.5q-9 -43 -9 -83q0 -50 15 -96q26 -81 95 -112z" />
<glyph unicode="&#x20a4;" horiz-adv-x="667" d="M631 148q-14 -69 -64 -119.5t-111 -50.5q-43 0 -102 16q-53 14 -84 20q-20 4 -45 4q-13 0 -27 -1q-42 -3 -64 -25l-50 50q126 120 157 208h-121l14 64h120v12q0 7 -2 19l-5 35h-99l13 64h77q3 97 78.5 173.5t170.5 76.5q81 0 125 -60q30 -42 30 -96q0 -22 -5 -47h-78 q3 15 3 29q0 33 -18 59q-25 37 -74 37q-60 0 -106.5 -50t-45.5 -113v-9h176l-13 -64h-151l1 -8l3 -26q0 -21 -1 -32h134l-14 -64h-133l-2 -4q-22 -70 -86 -149q51 0 157 -27q45 -14 84 -14q29 0 51 27.5t29 64.5h78z" />
<glyph unicode="&#x20a6;" horiz-adv-x="708" d="M707 250h-43l-53 -250h-124l-73 250h-187l-53 -250h-78l53 250h-43l14 64h43l14 66h-43l13 64h43l54 250h124l72 -250h187l54 250h78l-54 -250h43l-13 -64h-43l-14 -66h43zM357 444l-12 42l-38 137h-1l-38 -179h89zM396 314l-20 66h-121l-14 -66h155zM600 314l14 66h-155 l19 -66h122zM548 71l38 179h-89l12 -42l38 -137h1z" />
<glyph unicode="&#x20a9;" horiz-adv-x="944" d="M982 250h-130l-126 -250h-87l-19 250h-197l-125 -250h-81l-20 250h-130l14 64h111l-5 66h-92l13 64h73l-19 250h86l18 -250h191l126 250h81l18 -250h197l126 250h72l-127 -250h73l-13 -64h-92l-33 -66h111zM616 314l-5 66h-122l-17 -33l-16 -33h160zM425 380h-154l5 -66 h117zM361 250h-81v-5q4 -110 4 -150q0 -16 -1 -21h1q14 46 77 176zM847 380h-160l2 -27l3 -39h122zM782 250h-86q4 -63 5 -107.5t1 -57.5l-1 -13h1q11 34 80 178zM606 444q-6 97 -6 147q0 18 1 30h-1q-16 -48 -80 -177h86z" />
<glyph unicode="&#x20ab;" horiz-adv-x="517" d="M602 545h-74l-109 -510h-74l11 49q-75 -60 -153 -60q-68 0 -102 64q-22 41 -22 94q0 30 7 64q20 92 82.5 156.5t132.5 64.5q77 0 128 -52l28 130h-144l13 61h144l19 88h71l-19 -88h74zM472 -64h-452l14 64h452zM373 167l41 190q-26 52 -81 52q-23 0 -47.5 -8.5 t-49.5 -26.5t-45.5 -51.5t-30.5 -77.5q-6 -29 -6 -53q0 -43 19 -69q30 -41 81 -41q39 0 76 27q39 29 43 58z" />
<glyph unicode="&#x20ac;" horiz-adv-x="599" d="M556 34q-47 -34 -79.5 -45t-84.5 -11q-56 0 -100 29.5t-70 78.5q-36 68 -36 155v14h-81l22 56h63q4 24 7 36q3 18 9 36h-73l21 56h71q38 96 108 169q103 108 216 108q76 0 134 -34l-32 -83q-40 53 -115 53q-78 0 -151 -89q-46 -56 -72 -124h276l-22 -56h-273 q-6 -18 -9 -36q-3 -12 -7 -36h261l-22 -56h-244v-11q0 -62 20 -113q37 -89 113 -89q52 0 84 12.5t75 49.5z" />
<glyph unicode="&#x20b1;" horiz-adv-x="639" d="M687 492q-18 -84 -99 -143.5t-175 -59.5h-167l-17 -83h134l-14 -64h-134l-30 -142h-89l30 142h-76l14 64h76l104 488h249q101 0 156 -60q42 -46 42 -105q0 -18 -4 -37zM606 492q4 17 4 32q0 44 -30 74q-40 40 -121 40h-141l-62 -291h141q83 0 139.5 41.5t69.5 103.5z" />
<glyph unicode="&#x2103;" horiz-adv-x="861" d="M819 42q-1 -6 -11 -12l-17 -9q-85 -42 -183 -42q-96 0 -160.5 55.5t-84.5 139.5q-10 42 -10 87q0 42 9 86q31 146 147.5 258t258.5 112q94 0 176 -35l-31 -82q-8 3 -20 13q-70 40 -139 40q-57 0 -110 -28t-91 -73.5t-64.5 -98t-37.5 -104.5q-9 -36 -9 -72q0 -17 2 -35 q6 -54 24 -98t58.5 -72.5t96.5 -28.5q76 0 123 20q23 9 80 42q-1 -8 -3 -29.5t-4 -33.5zM346 585q-9 -43 -44 -75t-79 -37h-9q-50 0 -74 33q-18 23 -18 52q0 13 3 26q9 43 43.5 74.5t79.5 36.5h9q49 0 74 -33q18 -23 18 -52q0 -12 -3 -25zM306 584l2 7q1 28 -15.5 46 t-43.5 18q-28 0 -53.5 -21.5t-31.5 -49.5l-1 -7q-1 -29 15 -46.5t42 -17.5q29 0 54.5 21t31.5 50z" />
<glyph unicode="&#x2116;" horiz-adv-x="819" d="M826 400q-10 -49 -47 -92.5t-85 -43.5t-66 43q-12 28 -12 58q0 17 4 35q12 56 48.5 100.5t85.5 44.5q48 0 66 -47q10 -28 10 -59q0 -19 -4 -39zM773 160h-202l13 59h202zM459 0h-125l-29 443q-3 52 -3 95q0 50 4 87l-133 -625h-78l148 695h126l30 -549l-4 -75l133 624h79 zM760 401q7 23 7 45v10q-2 28 -26 28t-36 -22.5t-20 -60.5q-5 -21 -5 -35q0 -36 28 -36q19 0 32.5 21.5t19.5 49.5z" />
<glyph unicode="&#x2117;" horiz-adv-x="694" d="M768 347q-31 -144 -154 -245.5t-267 -101.5t-224 102q-58 73 -58 168q0 37 9 77q31 144 154 245.5t267 101.5t224 -102q58 -73 58 -168q0 -37 -9 -77zM730 347q7 35 7 67q0 86 -51 152q-72 90 -200 90t-237.5 -90.5t-136.5 -218.5q-8 -36 -8 -69q0 -84 52 -150 q71 -90 199 -90t237.5 90.5t137.5 218.5zM611 439q-11 -53 -62 -90.5t-110 -37.5h-105l-39 -182h-56l93 437h157q64 0 99 -38q26 -28 26 -64q0 -12 -3 -25zM560 439q2 11 2 20q0 27 -18 45q-25 26 -76 26h-89l-39 -183h89q53 0 88 26.5t43 65.5z" />
<glyph unicode="&#x211e;" horiz-adv-x="646" d="M617 0h-89l-29 76l-88 -68l-34 48l100 76l-70 185h-158l-67 -317h-86l148 694h241q106 0 167 -56q48 -43 48 -100q0 -14 -3 -30q-13 -61 -69.5 -110t-139.5 -72l57 -142l81 62l33 -47l-93 -71zM616 508q3 12 3 24q0 39 -32 68q-41 38 -125 38h-144l-56 -260h144 q85 0 141.5 37t68.5 93z" />
<glyph unicode="&#x2120;" horiz-adv-x="858" d="M379 378q-11 -51 -56.5 -88.5t-103.5 -37.5q-74 0 -131 41l20 49q48 -49 118 -49q39 0 69 24t36 55q2 10 2 18q0 23 -15 38q-10 11 -20.5 15.5t-47.5 13.5q-21 6 -31.5 9.5t-24 12t-22.5 21.5q-18 26 -18 56q0 10 2 20q10 47 55.5 82.5t105.5 35.5q59 0 103 -30l-19 -48 q-37 39 -93 39q-40 0 -68.5 -21.5t-34.5 -50.5q-2 -7 -2 -13q0 -18 13 -34q15 -16 56 -26q43 -11 60.5 -20t33.5 -30q16 -23 16 -53q0 -14 -3 -29zM820 265h-47l79 372h-1q-2 -6 -10 -20l-17 -31q-10 -17 -13 -23l-45 -76l-124 -209h-44l-39 233q-17 86 -17 120v6h-1 l-79 -372h-47l89 416h68l10 -52l41 -248q6 -52 6 -60h1q13 30 89 157l121 203h69z" />
<glyph unicode="&#x2122;" horiz-adv-x="933" d="M525 655h-80q-3 0 -10.5 0.5t-11.5 0.5h-53l-79 -374h-53l79 374h-54q-4 0 -11.5 -0.5t-10.5 -0.5h-80l9 39h364zM911 282h-47l79 372h-1q-7 -16 -41 -74l-45 -76l-123 -209h-44l-40 233q-17 101 -16 126h-1l-79 -372h-47l88 416h68l10 -52l41 -249q5 -29 7 -60h1 q10 23 88 158l121 203h69z" />
<glyph unicode="&#x2126;" horiz-adv-x="722" d="M677 0h-245q12 55 39 103.5t80 124.5q36 52 54.5 81t39.5 72t29 80q5 22 5 42q0 57 -37 97q-50 55 -143 55q-91 0 -164.5 -55t-91.5 -139q-7 -33 -7 -65q0 -28 6 -60q6 -35 12 -58l17 -62q24 -87 24 -155q0 -33 -6 -61h-245l15 71h85q6 0 18 -0.5t18 -0.5h53 q-2 54 -37 149q-13 33 -19.5 52t-14.5 47t-11 48q-3 18 -3 39v7q1 26 6 50q23 105 127 179.5t232 74.5q127 0 200 -74q56 -57 56 -131q0 -24 -6 -49q-8 -39 -31 -82.5t-44 -72t-57 -72.5q-86 -107 -113 -165h53q6 0 18 0.5t18 0.5h85z" />
<glyph unicode="&#x2127;" horiz-adv-x="722" d="M810 623h-85q-6 0 -17.5 0.5t-17.5 0.5h-53q1 -55 37 -149q13 -34 19 -52t14.5 -46.5t10.5 -48.5q3 -18 3 -38q0 -4 -1 -8q0 -26 -5 -50q-22 -105 -126 -179.5t-233 -74.5q-126 0 -199 74q-56 58 -56 133q0 23 5 47q8 39 31.5 82.5t44 71.5t57.5 73q86 107 113 165h-53 q-6 0 -18.5 -0.5t-18.5 -0.5h-85l16 71h245q-12 -54 -39 -102t-81 -126q-36 -52 -54.5 -81t-39.5 -72t-28 -80q-5 -22 -5 -43q0 -56 37 -96q49 -55 142 -55q90 0 164 55t93 139q5 24 5 51q1 7 1 13q0 19 -1 33q-2 20 -9 51.5t-11 46.5l-13 50q-24 87 -24 155q0 33 6 61h245z " />
<glyph unicode="&#x212e;" horiz-adv-x="669" d="M717 362h-527q-11 -47 -11 -89q0 -16 2 -32q9 -78 57 -131.5t124 -58.5h13q100 0 207 32q11 3 34 11.5t36 12.5q-1 -8 -3 -27.5t-4 -30.5q-2 -8 -23 -15q-137 -44 -255 -44q-143 0 -219 104q-55 77 -55 173q0 34 7 71l1 7q20 91 74.5 173.5t142.5 138t187 55.5 q106 0 167 -62q59 -61 59 -171q0 -53 -14 -117zM650 417q5 28 5 52q0 68 -34 116q-46 66 -135 66q-88 0 -169.5 -73.5t-108.5 -160.5h442z" />
<glyph unicode="&#x2190;" horiz-adv-x="1000" d="M997 251q-3 -20 -31 -20h-758q88 -92 88 -216q0 -12 -1 -24h-40q1 88 -36.5 156.5t-109.5 102.5l1 2q87 34 152.5 102t103.5 157h40q-50 -139 -189 -240h758q7 0 12 -1t9 -6q2 -3 2 -8q0 -2 -1 -5z" />
<glyph unicode="&#x2191;" d="M562 424q-121 29 -173 138l-156 -736q-4 -19 -23 -20h-2q-15 0 -16 14q0 3 1 6l156 736q-96 -109 -231 -138l9 40q88 19 162 81.5t109 148.5v-7q0 -81 45 -141q47 -62 128 -82z" />
<glyph unicode="&#x2192;" horiz-adv-x="1000" d="M996 250q-87 -34 -152.5 -102t-103.5 -157h-40q50 139 189 240h-758q-7 0 -12 1t-9 6q-2 4 -2 10q0 9 7.5 16t24.5 7h758q-88 92 -88 216q0 12 1 24h40q-1 -89 36.5 -157t109.5 -102z" />
<glyph unicode="&#x2193;" d="M480 36q-89 -19 -162.5 -81.5t-108.5 -148.5q1 85 -46 147.5t-127 82.5l8 40q121 -29 173 -138l156 736q4 19 23 20h2q15 0 16 -14q0 -3 -1 -6l-156 -736q96 109 231 138z" />
<glyph unicode="&#x2212;" horiz-adv-x="778" d="M774 250q-4 -20 -38 -20h-597q-10 0 -16 0.5t-11 5.5q-4 4 -4 9q0 2 1 5q4 20 37 20h599q10 0 15.5 -0.5t10.5 -5.5q4 -4 4 -9q0 -2 -1 -5z" />
<glyph unicode="&#x2215;" horiz-adv-x="0" d="M366 674l-539 -654h-46l539 654h46z" />
<glyph unicode="&#x2217;" d="M469 160q-3 -14 -16 -25.5t-27 -11.5q-12 0 -36 22q-9 7 -33.5 27.5t-37.5 30.5q-4 -21 -10 -66.5t-11 -69.5q-8 -38 -42 -38q-16 0 -23 11t-4 28q5 21 18.5 66t18.5 69q-18 -10 -50.5 -30.5t-44.5 -27.5q-34 -22 -46 -22q-15 0 -23 11q-5 9 -5 18q0 4 1 8q2 9 9.5 17 t12.5 11t19 9t16 7q82 41 97 46l1 2q-15 6 -78 46l-13 7q-12 6 -15.5 9t-7.5 11t-2 17q3 14 16 25.5t27 11.5q12 0 36 -22q8 -6 32.5 -27t38.5 -31q5 23 10 68t10 68q9 38 43 38q16 0 23 -11t3 -28q-4 -22 -18 -67t-18 -68l95 58q34 22 46 22q15 0 23 -11q5 -9 5 -18 q0 -4 -1 -8q-2 -9 -9.5 -17t-13 -11t-19 -9t-16.5 -7q-77 -40 -96 -46l-1 -2q19 -7 77 -46l14 -7q11 -6 15 -9t8 -11t2 -17z" />
<glyph unicode="&#x221a;" horiz-adv-x="472" d="M680 743q-4 -18 -22 -20h-98q-5 -16 -20 -45.5t-18 -36.5l-318 -685l-17 -34q-8 -26 -33 -26h-14l4 243l-67 -86l-25 30l-8 13l182 233l-4 -246q3 8 10 22.5t9 19.5l268 578q2 5 9.5 20.5t11 21t13.5 12t23 6.5h90q7 0 12.5 -1.5t9.5 -5.5q3 -4 3 -8q0 -2 -1 -5z" />
<glyph unicode="&#x221e;" horiz-adv-x="1000" d="M505 220l-29 53q-16 31 -27 48t-29.5 39t-41 32.5t-49.5 10.5q-58 0 -103 -53.5t-61 -127.5q-10 -37 -10 -71q0 -31 8 -59q17 -61 73 -61q129 0 269 189zM929 222q9 48 9 90.5t-20.5 71.5t-59.5 29q-128 0 -268 -189l28 -53q17 -32 27.5 -48t29.5 -39t41.5 -33t49.5 -10 q58 0 103 54t60 127zM991 222q-21 -99 -94.5 -171t-162.5 -72q-60 0 -101 39t-77 107l-17 31q-139 -180 -269 -180q-93 0 -140 73q-33 51 -33 114q0 28 6 59q21 99 94.5 171t162.5 72q61 0 101.5 -39t77.5 -107l16 -31q141 180 269 180q94 0 141 -73q32 -50 32 -114 q0 -28 -6 -59z" />
<glyph unicode="&#x2222;" horiz-adv-x="778" d="M725 20q-2 -11 -12 -17t-19 -2l-125 50q-46 -72 -102 -126q-8 -8 -18 -8q-8 0 -12.5 6t-2.5 14q1 4 6 12q53 52 94 116l-416 166q-10 4 -10 14q0 2 1 5q3 14 17 19l486 166q-12 61 -44 116q-2 6 -1 12q4 20 24 20q9 0 14 -8q34 -56 48 -126l147 50q10 4 18 -2q5 -5 5 -13 q0 -17 -17 -23l-148 -50q3 -28 3 -56q0 -53 -11 -105q-18 -83 -60 -161l126 -50q12 -5 9 -19zM610 250q11 48 11 97q0 25 -3 50l-431 -147l369 -147q39 74 54 147z" />
<glyph unicode="&#x2300;" horiz-adv-x="778" d="M841 563q-3 -10 -9 -14l-113 -93q41 -62 41 -138q0 -33 -7 -68q-27 -129 -137.5 -220t-239.5 -91q-118 0 -189 77l-113 -93q-6 -6 -16 -6q-8 0 -12 6q-4 4 -4 9q0 3 1 5q2 10 9 14l113 94q-41 62 -41 138q0 32 7 67q28 129 138 220t239 91q117 0 189 -77l113 93q4 6 15 6 q8 0 13 -6q4 -4 4 -10q0 -2 -1 -4zM713 250q7 31 7 59q0 65 -35 118l-463 -382q61 -66 163 -66q112 0 208 79t120 192zM663 456q-65 65 -163 65q-113 0 -209 -79.5t-120 -191.5q-6 -30 -6 -57q0 -66 35 -120z" />
<glyph unicode="&#x2329;" horiz-adv-x="389" d="M284 -229q-2 -8 -9 -14t-15 -6q-4 0 -7.5 1.5t-5.5 5.5l-3 7q-2 3 -3 9t-1.5 9.5t-1 10t-0.5 8.5l-71 422q-4 17 -4 25q0 6 9 19q7 12 8 14l37 63l215 360q23 43 35 45l7 1q8 0 12 -7q2 -4 2 -8q0 -3 -1 -6q0 -5 -3 -8q-14 -26 -43 -75t-36 -60l-181 -304l-12 -20l-6 -12 q0 -1 3 -25l9 -52l61 -361l2 -11q3 -30 3 -31z" />
<glyph unicode="&#x232a;" horiz-adv-x="389" d="M331 251q-1 -6 -8 -18t-8 -13l-38 -63l-215 -362l-12 -21q-13 -22 -26 -23h-2q-8 0 -13 6q-4 4 -4 10q0 2 1 4q2 5 9 17l256 431l12 20q5 10 5 12q0 1 -3 27l-69 416q-7 27 -6 35v2q3 15 19 19l7 1q7 0 11.5 -7t6 -14.5t2.5 -17t1 -10.5l71 -422q4 -15 4 -23q0 -4 -1 -6z " />
<glyph unicode="&#x2422;" horiz-adv-x="517" d="M527 223q-21 -99 -90 -166.5t-145 -67.5q-73 0 -122 57l-10 -46h-78l100 470l-47 -35l-33 47l98 75l30 137h75l-15 -69l61 47l34 -47l-113 -86l-31 -143q85 59 174 59q69 0 101 -69q19 -41 19 -92q0 -33 -8 -71zM449 223q7 32 7 59q0 44 -20 70q-32 42 -85 42 q-68 0 -120 -59l-47 -221q21 -64 84 -64q55 0 109 42.5t72 130.5z" />
<glyph unicode="&#x2423;" d="M437 -97q-1 -9 -9 -15t-16 -6h-374q-8 0 -13 6q-4 4 -4 10q0 2 1 5l67 316q4 20 24 21h2q16 0 17 -15q0 -3 -1 -6l-63 -295h332l62 295q4 20 24 21h2q16 0 17 -15q0 -3 -1 -6z" />
<glyph unicode="&#x25e6;" horiz-adv-x="778" d="M558 121h-286l61 286h286zM548 264q2 12 2 23q0 28 -16 50q-24 30 -67 30t-79.5 -30t-45.5 -73q-2 -12 -2 -23q0 -28 16 -50q24 -30 67 -30t79.5 30t45.5 73z" />
<glyph unicode="&#x266a;" horiz-adv-x="611" d="M585 136q-6 -25 -25 -25h-2q-9 1 -12 9t-2 16.5t3 19t2 12.5q3 11 3 30v20q-3 34 -3.5 50t-7 48.5t-10 47.5t-12 47t-11.5 46q-1 4 -5 24.5t-7 31.5l-65 -308l-19 -81q0 -2 -1 -7t-1 -8q-17 -65 -74 -102t-121 -37q-65 0 -107 39q-32 30 -32 72q0 14 3 28q13 59 69 90 t123 31q78 0 117 -39l106 501q7 31 28 31q16 0 14 -20l-3 -18q-2 -10 -4 -26q-1 -11 -1 -22q0 -78 30 -201q34 -142 35 -211q-1 -39 -8 -89z" />
<glyph unicode="&#x26ad;" d="M642 250q-18 -87 -94 -154t-163 -67q-86 0 -120 43h-1q-24 -21 -62 -32t-72 -11q-90 0 -138 65q-33 47 -33 107q0 24 5 50q20 91 96.5 156.5t166.5 65.5q69 0 114 -43q24 21 62.5 32t72.5 11q89 0 137 -67q34 -47 34 -107q0 -23 -5 -49zM227 121q-17 45 -17 88q0 21 4 42 q14 61 68 130q-44 22 -79 22q-61 -1 -109 -45t-61 -106q-5 -20 -5 -39q0 -38 20 -69q30 -45 99 -45q24 0 80 22zM574 252q4 19 4 36q0 39 -20 70q-30 44 -90 45q-36 0 -89 -22q16 -47 16 -88q0 -22 -4 -42q-13 -60 -67 -130q44 -22 70 -22q68 0 117.5 45t62.5 108zM312 234 l3 14q3 16 3 73h-1q-21 -47 -27 -70q-5 -23 -5 -42q0 -15 3 -28q1 3 10.5 22.5t13.5 30.5z" />
<glyph unicode="&#x26ae;" d="M217 251q-18 -85 -84 -154t-148 -69q-54 0 -90 35.5t-43 84.5q-4 24 -4 49q0 27 4 54q18 84 78.5 148.5t138.5 73.5q3 0 7 0.5t7 0.5q81 0 117 -70q23 -46 23 -98q0 -27 -6 -55zM753 251q-18 -85 -83.5 -154t-146.5 -69q-54 0 -89.5 35t-45.5 85q-6 25 -6 50q0 26 6 53 q18 82 77 147t143 75q2 0 6 0.5t6 0.5q81 0 116 -70q23 -46 23 -98q0 -27 -6 -55zM265 -113h-78l155 728h78zM141 248l5 25q2 14 2 27q0 38 -16 66q-20 37 -67 37q-60 0 -95.5 -48.5t-48.5 -108.5l-2 -11q-1 -12 -1 -23q0 -42 14 -73q19 -39 70 -39q39 0 70 26t46 57t23 65z M683 250q5 25 5 47q0 32 -10 59q-18 47 -72 47q-49 0 -85 -39t-52 -91l-5 -25q-5 -24 -5 -46q0 -31 10 -57q17 -45 71 -45q50 0 86 39.5t53 94.5q2 4 4 16z" />
<glyph unicode="&#x27e6;" horiz-adv-x="403" d="M327 -249h-262l213 1000h262l-9 -40h-98l-195 -920h98zM198 -209l195 920h-84l-195 -920h84z" />
<glyph unicode="&#x27e7;" horiz-adv-x="403" d="M231 -249h-261l9 40h97l195 920h-97l9 40h261zM200 -209l195 920h-84l-195 -920h84z" />
<glyph unicode="&#xea00;" d="M572 618l-223 -122h-89l201 122h111z" />
<glyph unicode="&#xea01;" horiz-adv-x="0" d="M102 944l-186 -167h-61l169 167h78z" />
<glyph unicode="&#xea02;" d="M562 674q-18 -77 -78.5 -127.5t-128.5 -50.5q-67 0 -106 50q-28 36 -28 87q0 19 4 41h61q-2 -13 -2 -25q0 -34 20 -56q26 -30 67 -30q40 0 79 29.5t51 81.5h61z" />
<glyph unicode="&#xea03;" d="M562 674q-18 -77 -78.5 -127.5t-128.5 -50.5q-67 0 -106 50q-28 36 -28 87q0 19 4 41h61q-2 -13 -2 -25q0 -34 20 -56q26 -30 67 -30q40 0 79 29.5t51 81.5h61zM571 831l-223 -122h-89l201 122h111z" />
<glyph unicode="&#xea04;" d="M568 700q-18 -77 -78.5 -127.5t-128.5 -50.5q-67 0 -106 50q-28 36 -28 87q0 19 4 41h61q-3 -14 -3 -26q0 -33 19 -55q27 -30 68 -30q40 0 79 29.5t52 81.5h61zM576 857l-223 -122h-89l201 122h111z" />
<glyph unicode="&#xea05;" d="M405 -66q-18 -77 -78.5 -127.5t-128.5 -50.5q-67 0 -106 50q-28 36 -28 87q0 19 4 41h61q-2 -13 -2 -25q0 -34 19 -56q26 -30 67 -30q40 0 79 29.5t52 81.5h61z" />
<glyph unicode="&#xea06;" d="M367 -244h-61q2 13 2 25q0 34 -19 56q-26 30 -67 30q-40 0 -79 -29.5t-52 -81.5h-61q18 77 78.5 127.5t128.5 50.5q67 0 106 -50q28 -36 28 -87q0 -19 -4 -41z" />
<glyph unicode="&#xea07;" horiz-adv-x="0" d="M131 950q-18 -77 -78.5 -127.5t-128.5 -50.5q-67 0 -106 50q-28 36 -28 87q0 19 4 41h61q-2 -13 -2 -25q0 -34 19 -56q26 -30 67 -30q40 0 79 29.5t52 81.5h61z" />
<glyph unicode="&#xea08;" d="M562 674q-18 -77 -78.5 -127.5t-128.5 -50.5q-67 0 -106 50q-28 36 -28 87q0 19 4 41h61q-2 -13 -2 -25q0 -34 20 -56q26 -30 67 -30q40 0 79 29.5t51 81.5h61zM545 709l-149 122h-111l171 -122h89z" />
<glyph unicode="&#xea09;" d="M568 700q-18 -77 -78.5 -127.5t-128.5 -50.5q-67 0 -106 50q-28 36 -28 87q0 19 4 41h61q-3 -14 -3 -26q0 -33 19 -55q27 -30 68 -30q40 0 79 29.5t52 81.5h61zM550 735l-149 122h-111l171 -122h89z" />
<glyph unicode="&#xea0a;" d="M562 674q-18 -77 -78.5 -127.5t-128.5 -50.5q-67 0 -106 50q-28 36 -28 87q0 19 4 41h61q-2 -13 -2 -25q0 -34 20 -56q26 -30 67 -30q40 0 79 29.5t51 81.5h61zM524 826q-8 -33 -38 -50l-15 -9q-31 -17 -45 -29t-17 -29l-4 -19l-2 -1h-26v1l4 19q13 67 74 96q16 9 19 21 q1 6 1 10q0 14 -7 20q-13 9 -40 9q-50 0 -83 -44h-1h-1l-6 40q43 43 99 43q50 0 73 -20q17 -14 17 -40q0 -9 -2 -18z" />
<glyph unicode="&#xea0b;" d="M568 700q-18 -77 -78.5 -127.5t-128.5 -50.5q-67 0 -106 50q-28 36 -28 87q0 19 4 41h61q-3 -14 -3 -26q0 -33 19 -55q27 -30 68 -30q40 0 79 29.5t52 81.5h61zM529 852q-7 -33 -38 -50l-14 -9q-31 -16 -45 -28t-18 -30l-4 -19l-1 -1h-26l-1 1l4 19q15 67 75 96 q15 8 18 21q2 7 2 12q0 12 -8 18q-12 9 -40 9q-49 0 -83 -44h-1h-1l-5 40q41 43 99 43q51 0 72 -20q17 -14 17 -39q0 -9 -2 -19z" />
<glyph unicode="&#xea0c;" d="M524 496h-61q3 14 3 26q0 33 -20 55q-26 30 -67 30q-40 0 -79 -29.5t-52 -81.5h-61q18 77 78.5 127.5t128.5 50.5q67 0 106 -50q28 -36 28 -87q0 -19 -4 -41z" />
<glyph unicode="&#xea0d;" d="M530 522h-61q2 13 2 25q0 34 -19 56q-26 30 -67 30q-40 0 -79 -29.5t-52 -81.5h-61q18 77 78.5 127.5t128.5 50.5q67 0 106 -50q28 -36 28 -87q0 -19 -4 -41z" />
<glyph unicode="&#xea0e;" horiz-adv-x="0" d="M93 772h-61q2 13 2 25q0 34 -19 56q-26 30 -67 30q-40 0 -79 -29.5t-52 -81.5h-61q18 77 78.5 127.5t128.5 50.5q67 0 106 -50q28 -36 28 -87q0 -19 -4 -41z" />
<glyph unicode="&#xea0f;" d="M562 674q-18 -77 -78.5 -127.5t-128.5 -50.5q-67 0 -106 50q-28 36 -28 87q0 19 4 41h61q-2 -13 -2 -25q0 -34 20 -56q26 -30 67 -30q40 0 79 29.5t51 81.5h61zM597 848q-13 -55 -49 -87t-74 -32q-26 0 -59 25q-40 33 -64 33q-37 0 -51 -58h-61q13 55 49 87t74 32 q28 0 59 -25q40 -33 64 -33q37 0 51 58h61z" />
<glyph unicode="&#xea10;" d="M568 700q-18 -77 -78.5 -127.5t-128.5 -50.5q-67 0 -106 50q-28 36 -28 87q0 19 4 41h61q-3 -14 -3 -26q0 -33 19 -55q27 -30 68 -30q40 0 79 29.5t52 81.5h61zM603 874q-13 -55 -49.5 -87t-74.5 -32q-27 0 -58 25q-40 33 -64 33q-37 0 -52 -58h-61q13 55 49.5 87 t74.5 32q27 0 58 -25q40 -33 64 -33q38 0 52 58h61z" />
<glyph unicode="&#xea11;" d="M538 620l-155 -134h-60l-97 134h59l76 -97l118 97h59z" />
<glyph unicode="&#xea14;" horiz-adv-x="0" d="M116 947l-161 -172h-60l-89 172h59l70 -123l122 123h59z" />
<glyph unicode="&#xea15;" d="M509 486h-59l-76 97l-118 -97h-59l155 134h60z" />
<glyph unicode="&#xea16;" d="M509 486h-59l-76 97l-118 -97h-59l155 134h60zM558 777l-223 -122h-89l201 122h111z" />
<glyph unicode="&#xea17;" d="M518 525h-59l-77 97l-117 -97h-59l154 134h60zM566 816l-222 -122h-89l200 122h111z" />
<glyph unicode="&#xea18;" horiz-adv-x="0" d="M80 775h-59l-70 123l-122 -123h-59l161 172h60z" />
<glyph unicode="&#xea19;" d="M509 486h-59l-76 97l-118 -97h-59l155 134h60zM532 655l-149 122h-111l171 -122h89z" />
<glyph unicode="&#xea1a;" d="M518 525h-59l-77 97l-117 -97h-59l154 134h60zM541 694l-150 122h-111l172 -122h89z" />
<glyph unicode="&#xea1b;" d="M509 486h-59l-76 97l-118 -97h-59l155 134h60zM608 772q-7 -33 -38 -50l-14 -9q-31 -16 -45 -28t-18 -30l-4 -19l-1 -1h-26l-1 1l4 19q15 67 75 96q15 8 18 21q2 7 2 12q0 12 -8 18q-12 9 -40 9q-49 0 -83 -44h-1h-1l-5 40q41 43 99 43q51 0 72 -20q17 -14 17 -39 q0 -9 -2 -19z" />
<glyph unicode="&#xea1c;" d="M518 525h-59l-77 97l-117 -97h-59l154 134h60zM616 811q-6 -32 -37 -50l-15 -9q-31 -17 -45 -29t-17 -29l-5 -19l-1 -1h-26l-1 1l5 19q13 67 74 96q17 9 18 21q2 7 2 12q0 11 -7 18q-13 9 -40 9q-50 0 -84 -44h-1h-1l-5 40q43 43 99 43q50 0 73 -20q16 -14 16 -39 q0 -9 -2 -19z" />
<glyph unicode="&#xea1d;" d="M509 486h-59l-76 97l-118 -97h-59l155 134h60zM586 794q-13 -55 -49.5 -87t-74.5 -32q-27 0 -58 25q-40 33 -64 33q-37 0 -52 -58h-61q13 55 49.5 87t74.5 32q27 0 58 -25q40 -33 64 -33q38 0 52 58h61z" />
<glyph unicode="&#xea1e;" d="M518 525h-59l-77 97l-117 -97h-59l154 134h60zM594 833q-13 -55 -49 -87t-74 -32q-28 0 -59 25q-40 33 -64 33q-37 0 -51 -58h-61q13 55 49 87t74 32q28 0 59 -25q40 -33 64 -33q37 0 51 58h61z" />
<glyph unicode="&#xea1f;" d="M254 -153l-61 -113h-37l46 112h-22l16 75h74z" />
<glyph unicode="&#xea25;" d="M497 496h-61l-44 167h78zM330 496h-61l-44 167h78z" />
<glyph unicode="&#xea26;" d="M504 527h-61l-44 167h78zM337 527h-61l-44 167h78z" />
<glyph unicode="&#xea27;" horiz-adv-x="0" d="M67 777h-61l-44 167h78zM-100 777h-61l-44 167h78z" />
<glyph unicode="&#xea28;" d="M306 486h-80l17 80h80zM480 486h-80l17 80h80z" />
<glyph unicode="&#xea29;" d="M306 486h-80l17 80h80zM480 486h-80l17 80h80zM598 740l-223 -122h-89l201 122h111z" />
<glyph unicode="&#xea2a;" d="M338 571h-80l17 80h80zM484 571h-80l17 80h80zM617 829l-223 -122h-89l201 122h111z" />
<glyph unicode="&#xea2b;" d="M306 486h-80l17 80h80zM480 486h-80l17 80h80zM564 742l-155 -134h-60l-97 134h59l76 -97l118 97h59z" />
<glyph unicode="&#xea2c;" d="M338 571h-80l17 80h80zM484 571h-80l17 80h80zM583 831l-155 -134h-60l-97 134h59l76 -97l118 97h59z" />
<glyph unicode="&#xea2d;" horiz-adv-x="0" d="M-98 821h-80l17 80h80zM48 821h-80l17 80h80z" />
<glyph unicode="&#xea2e;" d="M306 486h-80l17 80h80zM480 486h-80l17 80h80zM476 618h-89l-171 122h111z" />
<glyph unicode="&#xea2f;" d="M338 571h-80l17 80h80zM484 571h-80l17 80h80zM495 707h-89l-171 122h111z" />
<glyph unicode="&#xea30;" horiz-adv-x="278" d="M286 486h-89l19 89h89z" />
<glyph unicode="&#xea31;" horiz-adv-x="0" d="M-23 816h-89l19 89h89z" />
<glyph unicode="&#xea32;" d="M450 496h-89l-171 122h111z" />
<glyph unicode="&#xea33;" horiz-adv-x="0" d="M-5 777h-61l-114 167h78z" />
<glyph unicode="&#xea34;" d="M479 623q-6 -32 -37 -50l-15 -9q-31 -17 -45 -29t-17 -29l-4 -19l-2 -1h-26v1l4 19q13 67 74 96q17 9 18 21q2 7 2 13q0 11 -7 17q-13 9 -40 9q-50 0 -84 -44h-1h-1l-5 40q43 43 99 43q50 0 73 -20q16 -14 16 -39q0 -9 -2 -19z" />
<glyph unicode="&#xea35;" d="M483 640q-7 -33 -38 -50l-15 -9q-31 -17 -45 -29t-17 -29l-4 -19l-1 -1h-26l-1 1l4 19q15 67 75 96q15 8 18 21q2 7 2 12q0 12 -8 18q-12 9 -40 9q-49 0 -83 -44h-1h-1l-6 40q43 43 100 43q51 0 72 -20q17 -14 17 -39q0 -9 -2 -19z" />
<glyph unicode="&#xea36;" horiz-adv-x="0" d="M46 890q-6 -32 -37 -50l-15 -9q-31 -16 -45 -28t-18 -30l-4 -19l-1 -1h-26l-1 1l4 19q15 67 75 96q15 8 18 21q2 7 2 12q0 11 -7 18q-13 9 -41 9q-49 0 -83 -44h-1h-1l-5 40q43 43 99 43q50 0 73 -20q16 -14 16 -39q0 -9 -2 -19z" />
<glyph unicode="&#xea38;" d="M390 663l-116 -167h-61l99 167h78zM557 663l-116 -167h-61l99 167h78z" />
<glyph unicode="&#xea39;" horiz-adv-x="0" d="M-40 944l-116 -167h-61l99 167h78zM127 944l-116 -167h-61l99 167h78z" />
<glyph unicode="&#xea3a;" d="M391 -187h-361l14 64h361z" />
<glyph unicode="&#xea3b;" d="M539 506h-361l13 64h361z" />
<glyph unicode="&#xea3c;" d="M456 506h-195l13 64h195z" />
<glyph unicode="&#xea3d;" d="M471 579h-195l14 64h195z" />
<glyph unicode="&#xea3e;" d="M391 -187h-361l14 64h361z" />
<glyph unicode="&#xea3f;" horiz-adv-x="0" d="M117 829h-361l14 64h361z" />
<glyph unicode="&#xea40;" horiz-adv-x="738" d="M530 528q4 17 -6.5 26t-18.5 10t-17 1q-50 0 -58 -37q-4 -17 6.5 -26t18.5 -10t17 -1q50 0 58 37zM591 527q-7 -33 -44 -58t-85 -25q-47 0 -74 24q-20 20 -20 46q0 7 1 15q8 33 45 58t84 25t74 -24q20 -20 20 -46q0 -7 -1 -15z" />
<glyph unicode="&#xea41;" horiz-adv-x="738" d="M530 528q4 17 -6.5 26t-18.5 10t-17 1q-50 0 -58 -37q-4 -17 6.5 -26t18.5 -10t17 -1q50 0 58 37zM591 527q-7 -33 -44 -58t-85 -25q-47 0 -74 24q-20 20 -20 46q0 7 1 15q8 33 45 58t84 25t74 -24q20 -20 20 -46q0 -7 -1 -15zM674 769l-222 -122h-89l200 122h111z" />
<glyph unicode="&#xea42;" horiz-adv-x="738" d="M546 601q4 17 -6.5 26t-18.5 10t-17 1q-50 0 -58 -37q-4 -17 6.5 -26t18.5 -10t17 -1q50 0 58 37zM607 600q-8 -33 -45 -58t-84 -25t-74 25q-20 19 -20 45q0 7 1 15q7 33 44 58t85 25q47 0 74 -25q20 -19 20 -45q0 -7 -1 -15zM690 842l-223 -122h-89l201 122h111z" />
<glyph unicode="&#xea43;" horiz-adv-x="0" d="M-10 851q4 17 -6.5 26t-18.5 10t-17 1q-50 0 -58 -37q-4 -17 6.5 -26t18.5 -10t17 -1q50 0 58 37zM51 850q-7 -33 -44 -58t-85 -25q-47 0 -74 25q-20 19 -20 45q0 7 1 15q7 33 44 58t85 25q47 0 74 -25q20 -19 20 -45q0 -7 -1 -15z" />
<glyph unicode="&#xea44;" d="M546 605q-13 -55 -49.5 -87t-74.5 -32q-27 0 -58 25q-40 33 -64 33q-37 0 -52 -58h-61q13 55 49.5 87t74.5 32q27 0 58 -25q40 -33 64 -33q37 0 52 58h61z" />
<glyph unicode="&#xea45;" d="M397 -95q-13 -55 -49 -87t-74 -32q-28 0 -59 25q-40 33 -64 33q-37 0 -51 -58h-61q13 55 49 87t74 32q27 0 58 -25q40 -33 64 -33q38 0 52 58h61z" />
</font>
</defs>
</svg>
