<?xml version="1.0" standalone="no"?>
<!DOCTYPE svg PUBLIC "-//W3C//DTD SVG 1.1//EN" "http://www.w3.org/Graphics/SVG/1.1/DTD/svg11.dtd" >
<svg xmlns="http://www.w3.org/2000/svg">
<metadata>
This is a custom SVG webfont generated by Font Squirrel.
</metadata>
<defs>
<font id="webfonta8wLJxlB" horiz-adv-x="550" >
<font-face units-per-em="1000" ascent="806" descent="-194" />
<missing-glyph horiz-adv-x="367" />
<glyph unicode="IJ" horiz-adv-x="817" d="M239 48q0 -27 -10 -37.5t-38 -10.5h-51q-28 0 -38 10.5t-10 37.5v598q0 28 10.5 38t37.5 10h51q29 0 38.5 -11t9.5 -37v-598zM724 149q0 -84 -53.5 -127.5t-138.5 -43.5t-164 35q-15 6 -20 10t-5 10q0 2 3 17l6 36l6 35q4 19 14 19q6 0 16 -12q39 -50 104 -50 q31 0 50.5 8.5t26.5 23t9 23.5t2 22v491q0 27 10 37.5t38 10.5h48q29 0 38.5 -11t9.5 -37v-497z" />
<glyph unicode="ij" horiz-adv-x="516" d="M201 606q0 -25 -9.5 -36.5t-38.5 -11.5h-51q-30 0 -39 11.5t-9 36.5v19q0 27 10 37.5t38 10.5h51q29 0 38.5 -11t9.5 -37v-19zM454 606q0 -25 -9.5 -36.5t-38.5 -11.5h-51q-30 0 -39 11.5t-9 36.5v19q0 27 10 37.5t38 10.5h51q29 0 38.5 -11t9.5 -37v-19zM194 48 q0 -27 -10 -37.5t-38 -10.5h-37q-28 0 -38 10.5t-10 37.5v362q0 28 10.5 38t37.5 10h37q29 0 38.5 -11t9.5 -37v-362zM454 -32q0 -173 -149 -173q-47 0 -96.5 16.5t-49.5 30.5q0 5 9 33q4 17 6.5 21.5t9.5 4.5q5 0 15 -7q26 -15 60 -15q22 0 35.5 6t19 18t6.5 20t1 22v465 q0 27 10 37.5t38 10.5h37q29 0 38.5 -11t9.5 -37v-442z" />
<glyph unicode="fk" horiz-adv-x="864" d="M324 422q0 -36 -48 -36h-57v-338q0 -27 -10 -37.5t-38 -10.5h-37q-28 0 -38 10.5t-10 37.5v338q-16 0 -25.5 1t-20 9.5t-10.5 25.5q0 36 56 36v82q0 165 161 165q27 0 52 -7q18 -4 21.5 -8.5t3.5 -22.5v-46q0 -10 -0.5 -14.5t-3.5 -8t-9 -3.5q-7 0 -13 11q-19 27 -49 27 q-33 0 -33 -61v-114h60q48 0 48 -36zM817 22q0 -22 -36 -22h-48q-22 0 -31 4.5t-22 20.5l-130 170l-47 -43v-104q0 -27 -10 -37.5t-38 -10.5h-18q-28 0 -38 10.5t-10 37.5v598q0 28 10.5 38t37.5 10h21q29 0 38.5 -11t9.5 -37v-343l144 134q23 21 60 21h58q34 0 34 -21 q0 -8 -15 -22l-154 -143l174 -228q10 -13 10 -22z" />
<glyph unicode="&#xfb00;" horiz-adv-x="642" d="M382 621q0 -10 -0.5 -14.5t-3.5 -8t-9 -3.5t-15 10q-29 28 -72 28q-23 0 -38 -6t-20 -18t-6.5 -20t-1.5 -22v-109h52q48 0 48 -36t-48 -36h-49v-338q0 -27 -10 -37.5t-38 -10.5h-37q-28 0 -38 10.5t-10 37.5v338q-16 0 -25.5 1t-20 9.5t-10.5 25.5q0 36 56 36v80 q0 167 196 167q36 0 65 -6q25 -5 30 -9.5t5 -22.5v-46zM687 621q0 -10 -0.5 -14.5t-3.5 -8t-9 -3.5t-15 10q-29 28 -72 28q-23 0 -38 -6t-20 -18t-6.5 -20t-1.5 -22v-109h52q48 0 48 -36t-48 -36h-49v-338q0 -27 -10 -37.5t-38 -10.5h-37q-29 0 -38.5 11t-9.5 37v490 q0 167 196 167q36 0 65 -6q25 -5 30 -9.5t5 -22.5v-46z" />
<glyph unicode="&#xfb01;" horiz-adv-x="586" d="M525 607q0 -27 -10 -37.5t-38 -10.5h-40q-29 0 -38.5 11t-9.5 37v40q0 27 10 37.5t38 10.5h40q29 0 38.5 -11t9.5 -37v-40zM524 48q0 -27 -10 -37.5t-38 -10.5h-37q-29 0 -38.5 11t-9.5 37v362q0 27 10 37.5t38 10.5h37q29 0 38.5 -11t9.5 -37v-362zM324 422 q0 -36 -48 -36h-57v-338q0 -27 -10 -37.5t-38 -10.5h-37q-28 0 -38 10.5t-10 37.5v338q-16 0 -25.5 1t-20 9.5t-10.5 25.5q0 36 56 36v82q0 165 161 165q27 0 52 -7q18 -4 21.5 -8.5t3.5 -22.5v-51q0 -10 -0.5 -14.5t-3.5 -8.5t-9 -4q-7 0 -12 10q-17 34 -50 34t-33 -61 v-114h60q48 0 48 -36z" />
<glyph unicode="&#xfb02;" horiz-adv-x="586" d="M324 422q0 -36 -48 -36h-57v-338q0 -27 -10 -37.5t-38 -10.5h-37q-28 0 -38 10.5t-10 37.5v338q-16 0 -25.5 1t-20 9.5t-10.5 25.5q0 36 56 36v82q0 165 161 165q27 0 52 -7q18 -4 21.5 -8.5t3.5 -22.5v-46q0 -10 -0.5 -14.5t-3.5 -8t-9 -3.5q-7 0 -13 11q-19 27 -49 27 q-33 0 -33 -61v-114h60q48 0 48 -36zM524 48q0 -27 -10 -37.5t-38 -10.5h-37q-29 0 -38.5 11t-9.5 37v598q0 27 10 37.5t38 10.5h37q29 0 38.5 -11t9.5 -37v-598z" />
<glyph unicode="&#xfb04;" horiz-adv-x="892" d="M351 621q0 -10 -0.5 -14.5t-3.5 -8t-9 -3.5q-5 0 -12 7q-24 31 -61 31q-31 0 -40 -17t-9 -47v-111h59q48 0 48 -36t-48 -36h-56v-338q0 -27 -10 -37.5t-38 -10.5h-37q-28 0 -38 10.5t-10 37.5v338q-16 0 -25.5 1t-20 9.5t-10.5 25.5q0 36 56 36v81q0 166 177 166 q32 0 58 -6q22 -5 26 -9.5t4 -22.5v-46zM830 48q0 -27 -10 -37.5t-38 -10.5h-37q-29 0 -38.5 11t-9.5 37v598q0 27 10 37.5t38 10.5h37q29 0 38.5 -11t9.5 -37v-598zM629 422q0 -36 -48 -36h-56v-338q0 -27 -10 -37.5t-38 -10.5h-37q-28 0 -38 10.5t-10 37.5v492 q0 89 44.5 127t115.5 38q28 0 52 -7q19 -4 22 -8.5t3 -22.5v-46q0 -10 -0.5 -14.5t-3.5 -8t-9 -3.5q-7 0 -13 10q-17 28 -48 28q-33 0 -33 -61v-114h59q48 0 48 -36z" />
<glyph unicode=" "  horiz-adv-x="367" />
<glyph unicode="&#x09;" horiz-adv-x="367" />
<glyph unicode="&#xa0;" horiz-adv-x="367" />
<glyph unicode="!" horiz-adv-x="367" d="M249 673q0 -40 -3 -116.5t-3 -108.5l-7 -224q-1 -20 -4.5 -24t-23.5 -4h-49q-11 0 -15 0.5t-7.5 2.5t-4.5 7q-1 3 -3.5 88.5t-2.5 109.5q-1 29 -4.5 123.5t-3.5 145.5q0 15 4.5 18t22.5 3h77q18 0 22.5 -3t4.5 -18zM249 48q0 -27 -10 -37.5t-38 -10.5h-35q-28 0 -38 10.5 t-10 37.5v35q0 27 10 37.5t38 10.5h35q29 0 38.5 -11t9.5 -37v-35z" />
<glyph unicode="&#x22;" horiz-adv-x="578" d="M221 475q0 -19 -13.5 -32t-32.5 -13h-45q-19 0 -32 13t-13 32v196q0 19 13 32t32 13h45q19 0 32.5 -13t13.5 -32v-196zM493 475q0 -19 -13.5 -32t-32.5 -13h-45q-19 0 -32 13t-13 32v196q0 19 13 32t32 13h45q19 0 32.5 -13t13.5 -32v-196z" />
<glyph unicode="#" horiz-adv-x="917" d="M855 135q0 -42 -53 -42h-229l-73 -250q-10 -37 -42 -37q-18 0 -30 12.5t-12 29.5q0 7 69 245h-145l-73 -250q-10 -37 -42 -37q-18 0 -30 12.5t-12 29.5q0 7 69 245h-138q-53 0 -53 42t54 42h162l41 146h-203q-54 0 -54 42t53 42h229l73 250q10 37 42 37q18 0 30 -12.5 t12 -29.5q0 -7 -69 -245h145l73 250q10 37 42 37q18 0 30 -12.5t12 -29.5q0 -7 -69 -245h138q53 0 53 -42t-54 -42h-162l-41 -146h203q54 0 54 -42zM551 323h-145l-41 -146h145z" />
<glyph unicode="$" d="M488 207q0 -195 -177 -216q0 -47 -36 -47t-36 47q-92 8 -165 56q-18 12 -21.5 15.5t-3.5 8.5q0 6 6.5 41.5t7.5 39.5q3 15 13 15q7 0 12 -5q66 -60 151 -71v203q-78 14 -128 71t-50 136q0 91 44 142q46 52 134 60q0 47 36 47t36 -46q49 -3 94 -24q65 -28 65 -44 q0 -7 -2 -13l-10 -57q-3 -22 -15 -22q-5 0 -11 5q-59 47 -121 54v-175q77 -15 127 -75.5t50 -145.5zM239 445v157q-62 -13 -62 -78q0 -57 62 -79zM372 184q0 67 -61 92v-183q61 15 61 91z" />
<glyph unicode="%" horiz-adv-x="1029" d="M422 548q0 -201 -179 -201q-182 0 -182 202q0 201 182 201q179 0 179 -202zM830 708q0 -15 -12 -31l-538 -712q-15 -21 -37 -21q-17 0 -29.5 12.5t-12.5 29.5q0 12 13 31l537 712q17 21 37 21q18 0 30 -12.5t12 -29.5zM967 145q0 -201 -179 -201q-182 0 -182 202 q0 201 182 201q179 0 179 -202zM308 549q0 129 -66 129q-18 0 -30 -8.5t-18 -19t-9 -31t-3.5 -33.5t-0.5 -38t0.5 -38t3.5 -33t9 -30.5t18 -19t30 -8.5q66 0 66 130zM853 146q0 129 -66 129q-18 0 -30 -8.5t-18 -19t-9 -30.5t-3.5 -33t-0.5 -38t0.5 -38t3.5 -33.5t9 -31 t18 -19t30 -8.5q66 0 66 130z" />
<glyph unicode="&#x26;" horiz-adv-x="831" d="M769 25v-13q0 -3 -1 -7t-3 -5.5t-5 -2.5q-3 -2 -17 -6t-43 -8.5t-58 -4.5q-87 0 -185 55q-110 -55 -210 -55q-86 0 -143.5 49t-57.5 120q0 67 50 114q21 18 103 74q-42 96 -42 188q0 85 56 139t130 54q72 0 120 -49t48 -114q0 -48 -43 -97t-137 -116q27 -48 74.5 -103 t65.5 -72q43 34 87 97.5t71 150.5q7 24 12 25q2 1 5 1t73 -19q14 -5 14 -14q0 -10 -16 -55t-61 -120.5t-104 -128.5q43 -24 91 -24q52 0 103 20q8 4 10 4q9 0 11 -6t2 -23v-48zM397 552q0 34 -14 63t-40 29t-49 -24t-23 -74q0 -64 27 -139q99 68 99 145zM368 102 q-95 97 -135 168q-51 -27 -51 -96q0 -9 2 -21.5t8 -31t21 -31t37 -12.5q60 0 118 24z" />
<glyph unicode="'" horiz-adv-x="306" d="M221 475q0 -19 -13.5 -32t-32.5 -13h-45q-19 0 -32 13t-13 32v196q0 19 13 32t32 13h45q19 0 32.5 -13t13.5 -32v-196z" />
<glyph unicode="(" horiz-adv-x="428" d="M366 -237q0 -9 -6 -11t-21 -2h-18q-15 0 -21.5 2.5t-21.5 16.5q-192 174 -192 481q0 156 52.5 281t144.5 203q13 12 18.5 14t19.5 2h18q10 0 14.5 -0.5t8.5 -3.5t4 -9q0 -3 -6 -11q-27 -32 -46 -63t-42.5 -87t-36.5 -139t-13 -187q0 -182 36.5 -289.5t95.5 -179.5 q12 -13 12 -18z" />
<glyph unicode=")" horiz-adv-x="428" d="M341 250q0 -156 -52.5 -281t-144.5 -203q-13 -12 -18.5 -14t-19.5 -2h-18q-10 0 -14.5 0.5t-8.5 3.5t-4 9q0 4 6 11q27 33 46 64t42.5 87t36.5 138.5t13 186.5q0 181 -36.5 288.5t-95.5 180.5q-12 13 -12 18q0 9 6 11t21 2h18q16 0 22 -2.5t21 -16.5q192 -174 192 -481z " />
<glyph unicode="*" d="M481 436q0 -23 -16.5 -40.5t-36.5 -17.5q-16 0 -33 16l-100 92l28 -131l4 -19q0 -18 -15.5 -31t-37.5 -13q-21 0 -36.5 13t-15.5 31q3 17 4 19l28 131l-101 -92q-18 -16 -32 -16q-20 0 -36.5 17.5t-16.5 40.5q0 32 33 43l133 42l-134 42q-32 10 -32 43q0 23 16.5 40.5 t36.5 17.5q16 0 33 -16l100 -92l-28 131l-4 19q0 18 15.5 31t37.5 13q21 0 36.5 -13t15.5 -31q-3 -17 -4 -19l-28 -131l101 92q18 16 32 16q20 0 36.5 -17.5t16.5 -40.5q0 -32 -33 -43l-133 -42l134 -42q32 -10 32 -43z" />
<glyph unicode="+" horiz-adv-x="856" d="M794 250q0 -42 -53 -42h-271v-272q0 -53 -42 -53t-42 53v272h-272q-53 0 -53 42t53 42h272v272q0 53 42 53t42 -53v-272h271q53 0 53 -42z" />
<glyph unicode="," horiz-adv-x="306" d="M218 27q0 -19 -9 -33l-52 -83q-8 -12 -12 -14.5t-19 -2.5h-12q-10 0 -14.5 0.5t-8 3.5t-3.5 9q10 30 16 45q3 8 8.5 24t8.5 24q-25 0 -29.5 3.5t-4.5 23.5v77q0 20 3.5 23.5t23.5 3.5h77q19 0 23 -3.5t4 -23.5v-77z" />
<glyph unicode="-" horiz-adv-x="367" d="M305 229q0 -36 -48 -36h-197q-48 0 -48 36t48 36h197q48 0 48 -36z" />
<glyph unicode="." horiz-adv-x="306" d="M218 27q0 -19 -4 -23t-23 -4h-77q-20 0 -23.5 4t-3.5 23v77q0 20 3.5 23.5t23.5 3.5h77q19 0 23 -3.5t4 -23.5v-77z" />
<glyph unicode="/" d="M488 708q0 -8 -6 -23l-337 -901q-11 -34 -42 -34q-18 0 -30 12.5t-12 29.5q0 8 6 23l337 901q11 34 42 34q18 0 30 -12.5t12 -29.5z" />
<glyph unicode="0" d="M506 343q0 -32 -0.5 -49.5t-2.5 -52t-5.5 -55.5t-11.5 -52t-19.5 -50.5t-29.5 -41.5t-40.5 -34.5t-53.5 -21t-69 -8.5q-37 0 -68.5 8.5t-54 21t-40 35t-29 42t-19.5 50.5t-11.5 52t-5.5 55t-2.5 51.5t-0.5 49.5t0.5 50t2.5 52.5t5.5 56.5t11.5 53.5t19.5 51.5t29.5 42.5 t40.5 35.5t53.5 22t69 9q37 0 68.5 -9t54 -22t40 -36t29 -43t19.5 -51.5t11.5 -53.5t5.5 -56.5t2.5 -52t0.5 -49.5zM370 357q0 132 -7 183q-16 104 -89 104q-76 0 -89 -115q-6 -49 -6 -172q0 -135 7 -188q13 -119 88 -119q76 0 89 117q7 55 7 190z" />
<glyph unicode="1" d="M473 36q0 -36 -48 -36h-285q-48 0 -48 36t48 36h78v516q-47 -13 -94 -13q-48 0 -48 36t44 36q45 1 81 13t47 20t27 22q14 14 36 14q20 0 30.5 -9t12 -17t1.5 -22v-596h70q48 0 48 -36z" />
<glyph unicode="2" d="M494 48q0 -27 -10 -37.5t-38 -10.5h-343q-28 0 -38 10.5t-10 37.5v8q0 19 10 29l191 204q98 105 98 195q0 52 -28 92t-82 40q-86 0 -118 -111q-5 -19 -14 -19q-7 0 -16 12l-50 64q18 67 73 110q54 44 140 44q106 0 170.5 -67.5t64.5 -162.5q0 -42 -18.5 -80.5 t-36.5 -58.5t-55 -57l-37 -32q-28 -24 -31 -26l-132 -125h162l68 1q52 0 59 -4q21 -9 21 -44v-12z" />
<glyph unicode="3" d="M503 203q0 -105 -58 -165t-182 -60q-59 0 -112.5 21.5t-79 42.5t-25.5 30l12 69q6 11 13 11q4 0 14 -10q74 -70 173 -70q33 0 53.5 10.5t29.5 31.5t12 41t3 50q0 67 -19.5 100.5t-82.5 33.5h-44q-20 0 -23.5 3.5t-3.5 23.5v18q0 22 7 25q2 1 33 4q19 1 29.5 3t24.5 9 t25 20q31 38 31 100q0 42 -14.5 62t-58.5 20q-84 0 -135 -73q-8 -11 -14 -11q-7 0 -15 12l-28 40q-7 9 -7 15q0 3 7.5 14t25 27t40 30t58 24.5t73.5 10.5q25 0 47 -2.5t53.5 -12.5t53.5 -27.5t38 -51t16 -79.5q0 -107 -108 -166q67 -17 102.5 -61.5t35.5 -112.5z" />
<glyph unicode="4" d="M518 200q0 -28 -11.5 -37.5t-36.5 -9.5h-42v-105q0 -27 -10 -37.5t-38 -10.5h-28q-29 0 -38.5 11t-9.5 37v105h-225q-29 0 -38.5 11t-9.5 37v25q0 21 8 36l222 409q8 15 18 19t28 4h73q28 0 38 -10.5t10 -37.5v-399h42q27 0 37.5 -10t10.5 -37zM310 247v342h-1 q-14 -48 -174 -342h175z" />
<glyph unicode="5" d="M494 221q0 -121 -63.5 -182t-185.5 -61q-40 0 -76 11.5t-59 27t-40.5 33t-25 29.5t-7.5 15q0 4 37 65q10 13 16 13q7 0 13 -12q45 -88 139 -88q30 0 51 9.5t31.5 21.5t16 36t6 39.5t0.5 46.5t-0.5 47t-4 40t-9.5 36t-19 21.5t-32 9.5q-64 0 -100 -59q-10 -17 -18.5 -20.5 t-30.5 -3.5q-13 0 -20 1t-15 5t-11.5 14t-3.5 26v306q0 28 11 37t37 9h278q22 0 33.5 -8t13 -16.5t1.5 -25.5q0 -13 -1 -19.5t-5 -15t-14.5 -12t-27.5 -3.5h-196v-156q35 13 73 13q109 0 158.5 -62t49.5 -168z" />
<glyph unicode="6" d="M503 236q0 -67 -11 -110t-47 -83q-58 -65 -166 -65q-48 0 -86 15.5t-62 37.5t-41.5 58t-25.5 64.5t-12.5 70.5t-5 62.5t-0.5 53.5q0 376 288 376q37 0 63 -10t30.5 -15t4.5 -23v-37q0 -27 -12 -27q-5 0 -15 7q-30 16 -68 16q-98 0 -130 -85q-11 -28 -14 -53t-7 -99 q41 89 122 89q195 0 195 -243zM363 237q0 32 -0.5 47.5t-2.5 39.5t-7 35.5t-13.5 24.5t-22.5 18t-34 5q-50 0 -72.5 -45t-22.5 -114q0 -37 3 -64.5t12 -55t28 -42t47 -14.5q21 0 36 4.5t24 17t14.5 23.5t7.5 34.5t2.5 38.5t0.5 47z" />
<glyph unicode="7" d="M503 644q0 -26 -8 -36q-206 -259 -210 -580q0 -39 -48 -39h-46q-29 0 -38.5 11t-9.5 37q0 28 1.5 54t13.5 89.5t33 121.5t67 136.5t109 148.5h-169l-70 -1q-54 0 -61 4q-21 9 -21 44v13q0 18 3 28t13.5 14t20 5t31.5 1h63l284 -1q19 0 29 -9t11.5 -17.5t1.5 -23.5z" />
<glyph unicode="8" d="M503 203q0 -225 -229 -225q-228 0 -228 225q0 136 123 171q-108 36 -108 147q0 195 214 195q213 0 213 -195q0 -111 -108 -147q123 -35 123 -171zM360 520q0 60 -15.5 83.5t-70.5 23.5t-70 -24t-15 -83q0 -28 2 -43t9.5 -33t26 -25.5t48.5 -7.5t48.5 8t26 26t9 32.5 t1.5 42.5zM364 205q0 26 -0.5 40t-5 35t-13.5 31.5t-27 19t-44 8.5t-43.5 -8.5t-26.5 -19t-13.5 -32t-5 -35t-0.5 -39.5q0 -29 1 -44t5.5 -35t13.5 -30t26.5 -17t43.5 -7q25 0 42.5 7.5t26.5 17t13.5 29.5t5.5 35.5t1 43.5z" />
<glyph unicode="9" d="M503 356q0 -378 -274 -378q-44 0 -81 14t-53 27.5t-16 19.5q0 5 33 61q8 13 15 13q6 0 13 -8q36 -33 87 -33q120 0 133 162q1 19 1.5 35t1 24.5t0.5 11.5q-38 -90 -122 -90q-51 0 -86 15t-64 52q-29 38 -37 78t-8 99q0 63 9.5 103t39.5 79q61 75 180 75q47 0 84 -15 t60.5 -37t40.5 -57t25 -63.5t12.5 -70t5 -63t0.5 -54.5zM362 445q0 88 -18.5 135t-66.5 47q-22 0 -38 -5t-26 -18t-15.5 -24.5t-8 -35.5t-3 -39t-0.5 -47t0.5 -47.5t2.5 -40t7 -36t13.5 -24.5t22.5 -18t34 -5q33 0 55 21t29.5 54.5t9.5 50.5t2 32z" />
<glyph unicode=":" horiz-adv-x="306" d="M218 354q0 -20 -4 -23.5t-23 -3.5h-77q-20 0 -23.5 3.5t-3.5 23.5v77q0 19 3.5 23t23.5 4h77q19 0 23 -4t4 -23v-77zM218 27q0 -19 -4 -23t-23 -4h-77q-20 0 -23.5 4t-3.5 23v77q0 20 3.5 23.5t23.5 3.5h77q19 0 23 -3.5t4 -23.5v-77z" />
<glyph unicode=";" horiz-adv-x="306" d="M218 354q0 -20 -4 -23.5t-23 -3.5h-77q-20 0 -23.5 3.5t-3.5 23.5v77q0 19 3.5 23t23.5 4h77q19 0 23 -4t4 -23v-77zM218 27q0 -19 -9 -33l-52 -83q-8 -12 -12 -14.5t-19 -2.5h-12q-10 0 -14.5 0.5t-8 3.5t-3.5 9q10 30 16 45q3 8 8.5 24t8.5 24q-25 0 -29.5 3.5 t-4.5 23.5v77q0 20 3.5 23.5t23.5 3.5h77q19 0 23 -3.5t4 -23.5v-77z" />
<glyph unicode="&#x3c;" horiz-adv-x="894" d="M797 -56q0 -11 -8.5 -20.5t-22.5 -9.5q-8 0 -22 7l-623 298q-25 12 -25 32t25 31l626 299q11 6 19 6q14 0 22.5 -9.5t8.5 -20.5q0 -19 -25 -32l-575 -275l575 -274q25 -12 25 -32z" />
<glyph unicode="=" horiz-adv-x="856" d="M794 365q0 -42 -54 -42h-625q-54 0 -54 42t53 42h627q53 0 53 -42zM794 135q0 -42 -53 -42h-627q-53 0 -53 42t54 42h625q54 0 54 -42z" />
<glyph unicode="&#x3e;" horiz-adv-x="894" d="M797 251q0 -21 -25 -32l-626 -299q-10 -6 -19 -6q-14 0 -22.5 9.5t-8.5 20.5q0 20 25 32l575 275l-575 274q-25 13 -25 32q0 12 9 21t21 9q9 0 23 -7l623 -298q25 -11 25 -31z" />
<glyph unicode="?" horiz-adv-x="519" d="M457 554q0 -76 -55 -116q-19 -15 -32 -27.5t-33 -36.5t-30.5 -55.5t-10.5 -68.5v-27q0 -20 -4 -23.5t-24 -3.5h-49q-23 0 -27 8q-1 3 -1 35q0 139 100 241q13 13 18 20t8.5 21.5t3.5 37.5q0 42 -13.5 58t-60.5 16q-82 0 -135 -64q-6 -9 -13 -9q-6 0 -9 3.5t-6 13.5 l-18 49l-5 16q0 9 30 25q70 38 159 38q207 0 207 -151zM309 48q0 -27 -10 -37.5t-38 -10.5h-35q-28 0 -38 10.5t-10 37.5v35q0 27 10 37.5t38 10.5h35q29 0 38.5 -11t9.5 -37v-35z" />
<glyph unicode="@" horiz-adv-x="733" d="M671 88q0 -10 -34.5 -33t-63.5 -36q-72 -30 -150 -30q-176 0 -269 89t-93 269q0 179 92 268.5t270 89.5q78 0 128.5 -24t76 -72.5t34.5 -104t9 -137.5q0 -23 -0.5 -37.5t-4.5 -43.5t-11.5 -48.5t-23.5 -44t-37.5 -39.5t-56.5 -25.5t-79 -10.5q-212 0 -212 229t212 229 q35 0 66 -7q-25 64 -102 64q-130 0 -190 -83q-51 -72 -51 -203q0 -135 56 -209q59 -77 189 -77q78 0 155 36q7 4 25 4h38q10 0 14.5 -0.5t8.5 -3.5t4 -9zM551 347q0 157 -93 157q-92 0 -92 -157t93 -157q92 0 92 157z" />
<glyph unicode="A" horiz-adv-x="733" d="M690 27q0 -27 -39 -27h-54q-33 0 -44.5 12t-22.5 43l-34 96h-277l-39 -111q-14 -40 -63 -40h-36q-39 0 -39 27q0 7 5 20l211 604q7 20 19.5 30t21.5 11.5t23 1.5h88q14 0 23 -1.5t21.5 -11.5t19.5 -30l211 -604q5 -13 5 -20zM466 237l-95 281q-7 20 -13 49h-1 q-8 -36 -36 -118l-72 -212h217z" />
<glyph unicode="B" horiz-adv-x="733" d="M671 194q0 -51 -20.5 -89t-48.5 -57.5t-67 -31t-66 -14t-56 -2.5h-274q-28 0 -38 10.5t-10 37.5v598q0 28 10.5 38t37.5 10h246q15 0 27.5 -0.5t41 -4t50 -9.5t48.5 -19.5t45 -32t30.5 -48t12.5 -66.5q0 -58 -37.5 -96.5t-107.5 -54.5q176 -29 176 -169zM504 511 q0 97 -155 97h-117v-211h116q14 0 26.5 0.5t38.5 7t44 17t32.5 34t14.5 55.5zM532 196q0 129 -174 129h-126v-239h145q155 0 155 110z" />
<glyph unicode="C" horiz-adv-x="703" d="M646 58q0 -8 -6 -12q-59 -34 -102 -46q-40 -11 -111 -11q-183 0 -274 90q-92 91 -92 268q0 178 92 269q93 90 274 90q56 0 101 -8t98 -28q8 -4 8 -14l-19 -107q-2 -10 -13 -10q-5 0 -8 3q-37 34 -77 49t-90 15q-110 0 -164 -64q-55 -65 -55 -195t55 -195q55 -63 164 -63 q66 0 102 12q39 13 89 52q6 2 8 2q12 0 12 -11z" />
<glyph unicode="D" horiz-adv-x="794" d="M732 342q0 -158 -78 -250t-251 -92h-264q-28 0 -38 10.5t-10 37.5v598q0 28 10.5 38t37.5 10h264q175 0 260 -105q69 -87 69 -247zM588 342q0 43 -2.5 72t-15 69t-35 64.5t-66.5 42.5t-106 18h-128v-522h129q61 0 104.5 16.5t66.5 40t35.5 61.5t15 67t2.5 71z" />
<glyph unicode="E" horiz-adv-x="642" d="M595 48q0 -27 -10 -37.5t-38 -10.5h-408q-28 0 -38 10.5t-10 37.5v595q0 28 10.5 38t37.5 10h393q29 0 38.5 -11t9.5 -37v-8q0 -17 -3.5 -27.5t-13 -14.5t-17 -5t-24.5 -1l-235 3h-49v-185h263q27 0 37.5 -10t10.5 -37q0 -28 -11.5 -37.5t-36.5 -9.5h-263v-205l146 2 l155 2q21 0 30.5 -1.5t17.5 -12.5t8 -34v-14z" />
<glyph unicode="F" horiz-adv-x="611" d="M564 635q0 -17 -3.5 -27.5t-13 -14.5t-17 -5t-23.5 -1l-226 3h-43v-197h232q27 0 37.5 -10t10.5 -37q0 -28 -11.5 -37.5t-36.5 -9.5h-232v-251q0 -27 -10 -37.5t-38 -10.5h-51q-28 0 -38 10.5t-10 37.5v595q0 28 10.5 38t37.5 10h377q29 0 38.5 -11t9.5 -37v-8z" />
<glyph unicode="G" horiz-adv-x="733" d="M658 50q0 -8 -7 -11q-106 -50 -224 -50q-183 0 -274 90q-92 91 -92 268q0 178 92 269q93 90 274 90q62 0 110 -12q48 -10 105 -38q7 -4 7 -14l-19 -106q-2 -11 -12 -11q-5 0 -9 4q-43 43 -83 59q-43 18 -99 18q-110 0 -164 -64q-55 -65 -55 -195t55 -195q55 -63 164 -63 q46 0 95 11v130h-83q-12 0 -12 13v69q0 13 12 13h207q12 0 12 -13v-262z" />
<glyph unicode="H" horiz-adv-x="794" d="M702 48q0 -27 -10 -37.5t-38 -10.5h-51q-29 0 -38.5 11t-9.5 37v266h-317v-266q0 -27 -10 -37.5t-38 -10.5h-51q-28 0 -38 10.5t-10 37.5v598q0 28 10.5 38t37.5 10h51q29 0 38.5 -11t9.5 -37v-238h317v238q0 27 10 37.5t38 10.5h51q29 0 38.5 -11t9.5 -37v-598z" />
<glyph unicode="I" horiz-adv-x="331" d="M239 48q0 -27 -10 -37.5t-38 -10.5h-51q-28 0 -38 10.5t-10 37.5v598q0 28 10.5 38t37.5 10h51q29 0 38.5 -11t9.5 -37v-598z" />
<glyph unicode="J" horiz-adv-x="519" d="M427 149q0 -84 -53.5 -127.5t-138.5 -43.5t-164 35q-15 6 -20 10t-5 10q0 2 2 17l7 36l6 35q4 19 14 19q6 0 16 -12q39 -50 104 -50q31 0 50.5 8.5t26.5 23t9 23.5t2 22v491q0 27 10 37.5t38 10.5h48q29 0 38.5 -11t9.5 -37v-497z" />
<glyph unicode="K" horiz-adv-x="764" d="M701 29q0 -20 -8 -24.5t-27 -4.5h-60q-34 0 -50 21l-224 300l-111 -105v-168q0 -27 -10 -37.5t-38 -10.5h-34q-28 0 -38 10.5t-10 37.5v598q0 28 10.5 38t37.5 10h34q29 0 38.5 -11t9.5 -37v-276l322 304q21 20 58 20h61q34 0 34 -21q0 -10 -12 -21l-263 -247z" />
<glyph unicode="L" horiz-adv-x="581" d="M534 48q0 -27 -10 -37.5t-38 -10.5h-347q-28 0 -38 10.5t-10 37.5v598q0 28 10.5 38t37.5 10h51q29 0 38.5 -11t9.5 -37v-545l249 4q16 0 26.5 -4t14.5 -12t5 -14.5t1 -17.5v-9z" />
<glyph unicode="M" horiz-adv-x="978" d="M886 48q0 -27 -10 -37.5t-38 -10.5h-27q-29 0 -38.5 11t-9.5 37v517h-1q-12 -44 -71 -186l-128 -314q-7 -16 -14.5 -25t-18.5 -12.5t-19 -4.5t-24 -1t-24 1t-19 4.5t-18.5 12.5t-14.5 25l-116 285q-69 169 -80 215h-1v-517q0 -27 -10 -37.5t-38 -10.5h-27q-28 0 -38 10.5 t-10 37.5v598q0 28 10.5 38t37.5 10h83q50 0 67 -41l128 -316q65 -164 71 -188h1q9 40 66 178l132 324q11 28 27 35.5t40 7.5h84q29 0 38.5 -11t9.5 -37v-598z" />
<glyph unicode="N" horiz-adv-x="794" d="M702 48q0 -27 -10 -37.5t-38 -10.5h-93q-50 0 -71 40l-275 533h-1v-525q0 -27 -10 -37.5t-38 -10.5h-27q-28 0 -38 10.5t-10 37.5v598q0 28 10.5 38t37.5 10h93q50 0 71 -40l275 -533h1v525q0 27 10 37.5t38 10.5h27q29 0 38.5 -11t9.5 -37v-598z" />
<glyph unicode="O" horiz-adv-x="794" d="M732 342q0 -364 -336 -364q-335 0 -335 364q0 374 336 374q335 0 335 -374zM585 358q0 28 -0.5 44.5t-4 49.5t-10 54.5t-20.5 49t-33.5 43.5t-50.5 27.5t-70 11.5t-69.5 -11.5t-50 -28t-33.5 -44t-20.5 -49t-10 -54t-4 -49.5t-0.5 -44q0 -28 0.5 -46t4 -53t10 -58 t20.5 -52.5t33.5 -47.5t50.5 -30.5t70 -12.5t69.5 12.5t50 30.5t33.5 47.5t20.5 53t10 58.5t4 52.5t0.5 45.5z" />
<glyph unicode="P" horiz-adv-x="703" d="M641 478q0 -106 -65 -158t-186 -52h-152v-220q0 -27 -10 -37.5t-38 -10.5h-51q-28 0 -38 10.5t-10 37.5v598q0 28 10.5 38t37.5 10h250q120 0 186 -53t66 -163zM502 478q0 64 -27.5 97t-116.5 33h-123v-261h122q39 0 66.5 7.5t42.5 19t23.5 30t10.5 34.5t2 40z" />
<glyph unicode="Q" horiz-adv-x="794" d="M732 342q0 -233 -134 -314l65 -84q15 -21 15 -28q0 -22 -36 -22h-80q-24 0 -32.5 5.5t-24.5 29.5l-37 54q-32 -5 -72 -5q-335 0 -335 364q0 374 336 374q335 0 335 -374zM588 343q0 28 -0.5 45t-4 51.5t-10.5 57.5t-21 52t-34 46.5t-51 30t-71 12.5q-39 0 -70.5 -12.5 t-51 -30t-33.5 -46.5t-21 -52t-10.5 -57.5t-4 -51.5t-0.5 -45t0.5 -45t4 -50.5t10.5 -55.5t21 -50.5t33.5 -45t51 -28.5t70.5 -12l20 2q0 1 -4 8t-9.5 15t-6.5 9q-50 69 -50 81q0 23 36 23h61q24 0 34 -11l55 -71q26 29 39 77t15 77.5t2 76.5z" />
<glyph unicode="R" horiz-adv-x="703" d="M653 30q0 -14 -6 -21t-12 -8t-19 -1h-59q-13 0 -19 1t-13.5 6t-14.5 17l-164 287h-111v-263q0 -27 -10 -37.5t-38 -10.5h-48q-28 0 -38 10.5t-10 37.5v598q0 28 10.5 38t37.5 10h240q16 0 29 -0.5t42 -4.5t51.5 -10.5t50 -21.5t46 -35t31 -52.5t12.5 -72.5 q0 -139 -158 -177zM502 496q0 56 -28 84t-109 28h-130v-225h130q84 0 110.5 29.5t26.5 83.5z" />
<glyph unicode="S" horiz-adv-x="611" d="M549 200q0 -113 -64 -167.5t-180 -54.5q-74 0 -147 23l-6 2q-6 2 -13 5t-17.5 7t-19.5 9l-20 9q-10 5 -17 9.5t-11.5 9t-4.5 8.5q0 5 2 13l15 87q4 18 14 18q6 0 18 -12q88 -79 207 -79t119 97q0 38 -31 69q-15 14 -33.5 20.5t-66.5 17.5q-50 12 -71.5 18t-51 21.5 t-53.5 40.5q-56 59 -56 137q0 66 24.5 110.5t65.5 64t77 26.5t77 7q100 0 181 -40q19 -10 22.5 -13t3.5 -9q0 -5 -2 -13l-15 -87q-4 -18 -14 -18q-4 0 -21 16q-62 61 -155 61q-119 0 -119 -87q0 -37 28 -58t56 -27l96 -22q78 -18 130.5 -78t52.5 -141z" />
<glyph unicode="T" horiz-adv-x="733" d="M692 632q0 -23 -8 -34t-17 -12.5t-27 -1.5l-200 3v-539q0 -27 -10 -37.5t-38 -10.5h-51q-28 0 -38 10.5t-10 37.5v539l-201 -3q-18 0 -27 1.5t-17 12.5t-8 34v8q0 28 10.5 38t37.5 10h556q29 0 38.5 -11t9.5 -37v-8z" />
<glyph unicode="U" horiz-adv-x="764" d="M672 229q0 -62 -19.5 -109t-48.5 -73.5t-70 -42.5t-76 -21t-74 -5q-54 0 -100.5 10.5t-92.5 36t-73 78t-27 127.5v416q0 28 10.5 38t37.5 10h51q29 0 38.5 -11t9.5 -37v-420q0 -82 32 -122t115 -40q86 0 118.5 41t32.5 122v419q0 27 10 37.5t38 10.5h40q29 0 38.5 -11 t9.5 -37v-417z" />
<glyph unicode="V" horiz-adv-x="733" d="M705 667q0 -3 -5 -18l-223 -605q-7 -20 -20 -30.5t-21.5 -12t-23.5 -1.5h-92q-14 0 -23 1.5t-21.5 11.5t-19.5 29l-224 607q-5 15 -5 18q0 27 39 27h54q15 0 23.5 -1.5t21.5 -11.5t20 -30l162 -447l27 -79l52 154l135 371q7 20 20 30.5t22 12t24 1.5h39q39 0 39 -27z" />
<glyph unicode="W" horiz-adv-x="1039" d="M1014 665q0 -5 -4 -19l-164 -604q-5 -19 -16.5 -29t-20 -11.5t-23.5 -1.5h-72q-14 0 -22.5 1.5t-20 11.5t-16.5 29l-102 377q-21 77 -36 148h-1q-12 -59 -32 -130l-105 -391q-6 -21 -17.5 -32t-20 -12.5t-23.5 -1.5h-66q-15 0 -23.5 1.5t-20 11.5t-16.5 29l-164 604 l-4 19q0 29 41 29h34q14 0 22.5 -1.5t20 -11.5t17.5 -30l86 -320q41 -153 49 -203h1q1 11 21 95l25 99l88 328q6 20 17.5 30.5t20 12t23.5 1.5h66q25 0 38.5 -8.5t21.5 -35.5l108 -405q23 -84 29 -117h1q9 45 32 128l106 394q4 16 11 25.5t16.5 13t16 4.5t16.5 1h21 q41 0 41 -29z" />
<glyph unicode="X" horiz-adv-x="733" d="M694 22q0 -22 -36 -22h-83q-35 0 -50 22l-167 240l-161 -238q-10 -15 -18 -19.5t-31 -4.5h-75q-36 0 -36 23q0 7 10 20l236 325l-219 284q-10 12 -10 20q0 22 35 22h83q13 0 19.5 -1t15 -6t16.5 -16l135 -185l131 187q15 21 49 21h75q36 0 36 -23q0 -7 -10 -20l-206 -283 l252 -326q9 -11 9 -20z" />
<glyph unicode="Y" horiz-adv-x="733" d="M708 671q0 -10 -9 -21l-261 -373v-230q0 -27 -10.5 -37t-37.5 -10h-48q-28 0 -38 10.5t-10 37.5v230l-261 373q-9 12 -9 20q0 23 36 23h66q28 0 46 -8.5t35 -32.5l113 -162q38 -54 55 -88q17 36 71 113l98 140q27 38 79 38h49q36 0 36 -23z" />
<glyph unicode="Z" horiz-adv-x="672" d="M616 48q0 -27 -10 -37.5t-38 -10.5h-459q-28 0 -38 10.5t-10 37.5v8q0 22 10 35l362 508h-35l-261 -3q-19 0 -27 1t-17.5 5t-13 14.5t-3.5 28.5q0 26 9 37.5t39 11.5h438q32 0 40 -12t8 -38q0 -24 -10 -37l-360 -506l319 4q16 0 23.5 -1t17 -5t13 -14.5t3.5 -27.5v-9z " />
<glyph unicode="[" horiz-adv-x="343" d="M318 -214q0 -36 -48 -36h-135q-29 0 -38.5 11t-9.5 37v904q0 27 10 37.5t38 10.5h135q48 0 48 -36t-48 -36h-53v-856h53q48 0 48 -36z" />
<glyph unicode="\" horiz-adv-x="575" d="M510 -219q0 -14 -9.5 -22.5t-20.5 -8.5q-10 0 -17 5t-9.5 10t-6.5 15l-377 919q-6 16 -6 20q0 14 9.5 22.5t20.5 8.5q10 0 16.5 -4.5t9 -9.5t7.5 -16l377 -919q6 -16 6 -20z" />
<glyph unicode="]" horiz-adv-x="343" d="M255 -202q0 -27 -10 -37.5t-38 -10.5h-135q-48 0 -48 36t48 36h53v856h-53q-48 0 -48 36t48 36h135q29 0 38.5 -11t9.5 -37v-904z" />
<glyph unicode="^" horiz-adv-x="556" d="M561 584l-12 -22l-272 123l-271 -123l-11 22l283 160z" />
<glyph unicode="_" horiz-adv-x="733" d="M733 -193h-733v136h733v-136z" />
<glyph unicode="`" d="M353 550q0 -9 -6 -11t-21 -2h-37l-159 129q-11 9 -11 15q0 9 6 11t21 2h82q15 0 19 -2t11 -10l86 -117q9 -11 9 -15z" />
<glyph unicode="a" horiz-adv-x="525" d="M474 48q0 -27 -10 -37.5t-38 -10.5h-37q-29 0 -38.5 11t-9.5 37v20q-54 -79 -156 -79q-63 0 -103.5 44t-40.5 100q0 30 15 54.5t37 39.5t54 26t59 16.5t58.5 8.5t45.5 3.5t28 0.5v35q0 47 -15.5 69.5t-54.5 22.5q-91 0 -155 -67q-6 -6 -11 -6q-11 0 -13 11q-7 56 -7 73 q0 8 5 12t21 11q77 32 164 32q202 0 202 -159v-268zM338 154v87l-29 -2q-14 -1 -41 -7.5t-46.5 -17t-35 -31t-15.5 -48.5q0 -30 19.5 -52t49.5 -22q5 0 12 0.5t23.5 5.5t29 14t23 28t10.5 45z" />
<glyph unicode="b" horiz-adv-x="561" d="M523 231q0 -17 -0.5 -29.5t-4.5 -40t-11.5 -47.5t-23.5 -45t-37.5 -41t-56.5 -27.5t-79 -11.5q-67 0 -113 50q-1 -39 -48 -39h-40q-28 0 -38 10.5t-10 37.5v598q0 28 10.5 38t37.5 10h37q29 0 38.5 -11t9.5 -37v-233q8 9 22 19.5t48 23.5t71 13q39 0 69.5 -11t50 -27 t33.5 -41t20.5 -45t10 -46.5t4 -38.5t0.5 -29zM387 230q0 31 -0.5 47.5t-6 43t-15.5 40.5t-30 25t-49 11q-51 0 -89 -35v-262q31 -39 78 -39q32 0 54.5 11.5t33.5 26t16.5 41.5t6.5 43.5t1 46.5z" />
<glyph unicode="c" horiz-adv-x="489" d="M457 50q0 -8 -4 -11.5t-25 -14.5q-69 -35 -154 -35q-237 0 -237 241q0 245 242 245q49 0 79 -7t69 -25q24 -11 24 -21q0 -21 -12 -69q-3 -13 -13 -13q-6 0 -18 11q-30 25 -56 35.5t-72 10.5q-29 0 -50 -10t-32 -24t-17 -38.5t-7 -43.5t-1 -49q0 -27 0.5 -42.5t6 -42 t15.5 -41.5t31 -27t51 -12q83 0 146 56q10 10 16 10q12 0 12 -13q6 -39 6 -70z" />
<glyph unicode="d" horiz-adv-x="561" d="M499 48q0 -27 -10 -37.5t-38 -10.5h-40q-26 0 -37 10t-11 37q-54 -58 -128 -58q-41 0 -73.5 11.5t-52.5 27.5t-35 41t-21.5 45t-10.5 47t-4.5 39t-0.5 28q0 17 0.5 29.5t4.5 39.5t11 47t22 45t36 41t54 27.5t75 11.5q74 0 126 -50v227q0 27 10 37.5t38 10.5h37 q29 0 38.5 -11t9.5 -37v-598zM363 125v241q-32 31 -78 31q-32 0 -54.5 -11.5t-33.5 -25.5t-16.5 -41t-6.5 -43.5t-1 -47.5t0.5 -47.5t6 -43t15.5 -40.5t30 -25t49 -11q32 0 60 18q20 14 24.5 22.5t4.5 23.5z" />
<glyph unicode="e" horiz-adv-x="511" d="M479 260q0 -21 -8 -32t-16.5 -12.5t-23.5 -1.5h-272q1 -24 3.5 -41t10.5 -40t21 -37.5t37 -24.5t56 -10q84 0 151 58q11 10 17 10q7 0 9 -4.5t5 -27.5q4 -32 4 -44q0 -8 -5 -12.5t-24 -13.5q-76 -38 -161 -38q-120 0 -186 61.5t-66 182.5q0 116 60.5 179t178.5 63 q108 0 158.5 -57t50.5 -158zM368 267q-3 67 -23 101.5t-75 34.5q-103 0 -110 -136h208z" />
<glyph unicode="f" horiz-adv-x="336" d="M381 621q0 -10 -0.5 -14.5t-3.5 -8t-9 -3.5t-15 10q-29 28 -72 28q-23 0 -37.5 -6t-19.5 -18t-6.5 -20t-1.5 -22v-109h51q48 0 48 -36t-48 -36h-48v-338q0 -27 -10 -37.5t-38 -10.5h-37q-28 0 -38 10.5t-10 37.5v338q-16 0 -25.5 1t-20 9.5t-10.5 25.5q0 36 56 36v80 q0 167 195 167q36 0 65 -6q25 -5 30 -9.5t5 -22.5v-46z" />
<glyph unicode="g" d="M534 405q0 -13 -13 -13q-6 0 -14 4q-41 11 -93 11q31 -38 31 -104q0 -165 -201 -165q-80 0 -127 26q-2 -12 -2 -15q0 -24 21 -45q14 -12 64 -12h48q39 0 58.5 -0.5t54 -3.5t53.5 -8.5t43 -16.5t36.5 -27.5t21.5 -41.5t9 -58q0 -142 -250 -142q-112 0 -171 27 q-42 19 -60 50.5t-18 61.5q0 61 67 88q-27 35 -27 79t27 81q-49 43 -49 123q0 165 201 165q89 0 142 -35q58 35 119 35q13 0 16 -3.5t6 -22.5q7 -35 7 -38zM317 304q0 25 -1.5 38.5t-8.5 28t-22.5 20.5t-40.5 6q-48 0 -60.5 -22t-12.5 -72q0 -25 1.5 -38.5t8.5 -28 t22.5 -20.5t40.5 -6q48 0 60.5 22t12.5 72zM421 -67q0 50 -123 50h-116q-16 0 -25 -1.5t-19 -12.5t-10 -33q0 -70 147 -70q146 0 146 67z" />
<glyph unicode="h" horiz-adv-x="561" d="M500 48q0 -27 -10 -37.5t-38 -10.5h-40q-29 0 -38.5 11t-9.5 37v275q0 40 -12 57t-46 17q-43 0 -76.5 -33.5t-33.5 -94.5v-221q0 -27 -10 -37.5t-38 -10.5h-40q-28 0 -38 10.5t-10 37.5v598q0 28 10.5 38t37.5 10h37q29 0 38.5 -11t9.5 -37v-274h1q10 20 25.5 38.5 t52 38.5t82.5 20q77 0 111.5 -33.5t34.5 -110.5v-277z" />
<glyph unicode="i" horiz-adv-x="256" d="M194 48q0 -27 -10 -37.5t-38 -10.5h-37q-28 0 -38 10.5t-10 37.5v362q0 28 10.5 38t37.5 10h37q29 0 38.5 -11t9.5 -37v-362zM201 606q0 -25 -9.5 -36.5t-38.5 -11.5h-51q-30 0 -39 11.5t-9 36.5v19q0 27 10 37.5t38 10.5h51q29 0 38.5 -11t9.5 -37v-19z" />
<glyph unicode="j" horiz-adv-x="286" d="M224 -32q0 -173 -149 -173q-47 0 -96.5 16.5t-49.5 30.5q0 4 11 32q7 19 9.5 23t8.5 4q2 0 10 -4q28 -18 63 -18q21 0 34.5 6t18.5 18t6 20t1 21v466q0 27 10 37.5t38 10.5h37q29 0 38.5 -11t9.5 -37v-442zM224 606q0 -25 -9.5 -36.5t-38.5 -11.5h-51q-30 0 -39 11.5 t-9 36.5v19q0 27 10 37.5t38 10.5h51q29 0 38.5 -11t9.5 -37v-19z" />
<glyph unicode="k" horiz-adv-x="531" d="M497 22q0 -22 -36 -22h-48q-22 0 -31 4.5t-22 20.5l-130 170l-47 -43v-104q0 -27 -10 -37.5t-38 -10.5h-18q-28 0 -38 10.5t-10 37.5v598q0 28 10.5 38t37.5 10h21q29 0 38.5 -11t9.5 -37v-343l144 134q23 21 60 21h58q34 0 34 -21q0 -8 -15 -22l-154 -143l174 -228 q10 -13 10 -22z" />
<glyph unicode="l" horiz-adv-x="256" d="M194 48q0 -27 -10 -37.5t-38 -10.5h-37q-28 0 -38 10.5t-10 37.5v598q0 28 10.5 38t37.5 10h37q29 0 38.5 -11t9.5 -37v-598z" />
<glyph unicode="m" horiz-adv-x="867" d="M806 48q0 -27 -10 -37.5t-38 -10.5h-40q-28 0 -38 10.5t-10 37.5v275q0 41 -12 57.5t-47 16.5q-42 0 -76 -33t-34 -95v-221q0 -27 -10 -37.5t-38 -10.5h-40q-28 0 -38 10.5t-10 37.5v275q0 41 -12 57.5t-47 16.5q-42 0 -76 -33t-34 -95v-221q0 -27 -10 -37.5t-38 -10.5 h-40q-28 0 -38 10.5t-10 37.5v368q0 28 10.5 38t37.5 10h34q29 0 38.5 -11t9.5 -37v-50h1q19 41 58 70q45 33 106 33q127 0 143 -99q54 99 162 99q77 0 111.5 -33.5t34.5 -110.5v-277z" />
<glyph unicode="n" horiz-adv-x="561" d="M500 48q0 -27 -10 -37.5t-38 -10.5h-40q-29 0 -38.5 11t-9.5 37v275q0 40 -12 57t-46 17q-43 0 -76.5 -33.5t-33.5 -94.5v-221q0 -27 -10 -37.5t-38 -10.5h-40q-28 0 -38 10.5t-10 37.5v368q0 28 10.5 38t37.5 10h34q29 0 38.5 -11t9.5 -37v-50h1q7 14 17 28t29 33 t49.5 30.5t67.5 11.5q77 0 111.5 -33.5t34.5 -110.5v-277z" />
<glyph unicode="o" d="M518 225q0 -236 -244 -236q-243 0 -243 236q0 250 244 250q243 0 243 -250zM382 237q0 26 -0.5 40t-3.5 37t-10 36t-18 27t-30.5 20t-45.5 6t-45 -6.5t-30.5 -20.5t-18 -26.5t-9.5 -36t-3.5 -37t-0.5 -39.5q0 -32 1 -49t6.5 -44t16 -41t32 -25t52.5 -11t52 11t32 25 t16.5 41t6 44t0.5 49z" />
<glyph unicode="p" horiz-adv-x="561" d="M523 231q0 -17 -0.5 -29.5t-4.5 -40t-11.5 -47.5t-23 -45t-37.5 -41t-56.5 -27.5t-78.5 -11.5q-69 0 -114 50v-185q0 -27 -10 -37.5t-38 -10.5h-40q-28 0 -38 10.5t-10 37.5v556q0 28 10.5 38t37.5 10h37q26 0 37 -10t11 -37q61 58 148 58q181 0 181 -238zM387 229 q0 162 -103 162q-51 0 -87 -33v-240q0 -15 3.5 -21.5t20.5 -18.5q23 -17 53 -17q113 0 113 168z" />
<glyph unicode="q" horiz-adv-x="561" d="M499 -146q0 -27 -10 -37.5t-38 -10.5h-40q-29 0 -38.5 11t-9.5 37v194q-51 -59 -124 -59q-53 0 -92 18t-59.5 43t-32.5 60.5t-15 62t-3 55.5q0 241 209 241q76 0 120 -67v19q0 27 10 37.5t38 10.5h37q29 0 38.5 -11t9.5 -37v-567zM366 115v198q0 30 -26 55q-22 23 -55 23 q-112 0 -112 -164q0 -166 102 -166q52 0 91 54z" />
<glyph unicode="r" horiz-adv-x="372" d="M356 395q0 -19 -3 -22.5t-17 -4.5q-55 -4 -98.5 -38.5t-43.5 -99.5v-182q0 -27 -10 -37.5t-38 -10.5h-37q-28 0 -38 10.5t-10 37.5v368q0 28 10.5 38t37.5 10h32q29 0 38.5 -11t9.5 -37v-65h1q16 38 38 63.5t44 36.5t37 14.5t29 3.5q13 0 15.5 -5t2.5 -22v-47z" />
<glyph unicode="s" horiz-adv-x="422" d="M396 141q0 -152 -177 -152q-58 0 -113 17q-75 24 -75 42q0 6 6.5 41.5t7.5 39.5q3 15 13 15q6 0 14 -8q58 -69 147 -69q78 0 78 54q0 20 -15.5 33.5t-29 17t-35.5 7.5q-37 7 -53.5 11t-38.5 14t-39 25q-49 44 -49 103q0 143 179 143q54 0 98 -12q1 0 10.5 -3t17 -6 t16.5 -7t14.5 -8.5t5.5 -9.5q0 -21 -12 -69q-3 -13 -13 -13q-6 0 -16 10q-56 47 -129 47q-72 0 -72 -49q0 -18 14 -30t30.5 -16.5t50.5 -10.5q28 -5 41.5 -8.5t35 -14t40.5 -27.5q48 -43 48 -107z" />
<glyph unicode="t" horiz-adv-x="404" d="M373 47q0 -20 -75 -42q-52 -16 -105 -16q-105 0 -105 144v253h-20q-48 0 -48 36t48 36h23v83q0 28 10.5 38t37.5 10h31q29 0 38.5 -11t9.5 -37v-83h89q48 0 48 -36t-48 -36h-89v-236q0 -47 10 -65t29 -18q39 0 80 30q7 7 12 7q6 0 9 -5t7 -21q8 -28 8 -31z" />
<glyph unicode="u" horiz-adv-x="561" d="M500 48q0 -27 -10 -37.5t-38 -10.5h-37q-29 0 -38.5 11t-9.5 37v26q-47 -85 -145 -85q-83 0 -122.5 30t-39.5 107v284q0 28 10.5 38t37.5 10h40q29 0 38.5 -11t9.5 -37v-293q0 -41 10.5 -54t51.5 -13q51 0 78.5 35t27.5 88v237q0 27 10 37.5t38 10.5h40q29 0 38.5 -11 t9.5 -37v-362z" />
<glyph unicode="v" horiz-adv-x="500" d="M473 430q0 -5 -5 -19l-119 -369q-14 -42 -63 -42h-73q-49 0 -63 42l-119 369q-5 14 -5 19q0 28 40 28h24q22 0 36 -7.5t17.5 -14.5t8.5 -21l99 -302l99 302q7 23 19.5 33t42.5 10h21q40 0 40 -28z" />
<glyph unicode="w" horiz-adv-x="744" d="M719 430l-107 -384q-8 -27 -20 -36.5t-43 -9.5h-68q-18 0 -29.5 3t-18.5 12t-10 16t-8 24q-57 207 -63 262l-1 -1q-4 -47 -63 -261q-9 -33 -21 -44t-45 -11h-28q-17 0 -26 1.5t-20.5 12.5t-17.5 32l-106 384q1 13 9 19.5t14.5 7.5t19.5 1h20q30 0 42 -9.5t20 -35.5 l80 -283q14 46 35 124l35 126q14 48 18 55q14 23 52 23q21 0 34 -7.5t17 -15.5t8 -22l85 -300l81 290q10 37 23 46t50 9q19 0 27.5 -1t16 -7.5t8.5 -19.5z" />
<glyph unicode="x" horiz-adv-x="500" d="M474 22q0 -22 -35 -22h-44q-13 0 -19 0.5t-13.5 5t-14.5 14.5l-102 144l-86 -128q-17 -26 -25 -31t-32 -5h-43q-36 0 -36 22q0 8 10 20l158 195l-151 180q-10 11 -10 19q0 22 35 22h44q19 0 29 -3.5t22 -18.5l86 -108q79 107 87 115q14 15 44 15h43q35 0 35 -22 q0 -9 -10 -21l-145 -178l162 -194q11 -14 11 -21z" />
<glyph unicode="y" horiz-adv-x="500" d="M473 431q0 -7 -5 -20l-163 -474q-5 -15 -15 -33.5t-31 -45.5t-56.5 -45t-78.5 -18q-68 0 -79 14q-2 3 -5.5 38t-3.5 43q0 15 13 15q3 0 10 -4q33 -21 67 -21q25 0 43 14t25 27.5t15 36.5q7 25 14 42l-189 416q-5 12 -5 16q0 26 39 26h26q36 0 49 -13.5t36 -64.5 q84 -187 89 -238h1q2 30 24 102.5t42 129.5t23 61q15 23 53 23h22q40 0 40 -27z" />
<glyph unicode="z" horiz-adv-x="476" d="M441 37q0 -37 -48 -37h-314q-48 0 -48 42q0 18 12 34l244 309h-37l-145 -2q-19 0 -28.5 1t-20 10t-10.5 26q0 38 48 38h296q48 0 48 -42q0 -18 -12 -34l-244 -309h46l153 2q20 0 30 -1.5t20 -10t10 -26.5z" />
<glyph unicode="{" horiz-adv-x="575" d="M496 -232q0 -12 -6 -15t-25 -3q-21 0 -41 1.5t-49 6t-52.5 14t-45 24t-33.5 38.5t-12 55v210q0 39 -2 47q-8 32 -41 57.5t-94 28.5q-17 1 -17 18q0 8 3 12t6.5 4.5t12.5 1.5q62 3 99 37q23 20 28 40t5 72v206q1 58 64 92.5t169 34.5q13 0 18.5 -0.5t9 -4.5t3.5 -13 q0 -8 -3 -12t-6.5 -4.5t-12.5 -1.5q-53 -3 -92 -28q-39 -29 -39 -80v-210q0 -19 -1 -30t-7 -31t-17.5 -33.5t-35.5 -28t-58 -23.5q60 -16 89 -48t30 -68v-237q0 -25 3 -35q23 -69 133 -76q17 -1 17 -18z" />
<glyph unicode="|" horiz-adv-x="319" d="M190 -206q0 -44 -31 -44q-30 0 -30 44v912q0 44 31 44q30 0 30 -44v-912z" />
<glyph unicode="}" horiz-adv-x="575" d="M496 250q0 -8 -3 -12t-6.5 -4.5t-12.5 -1.5q-65 -4 -97 -36q-24 -22 -29 -41t-5 -72v-206q-1 -56 -62.5 -91.5t-171.5 -35.5q-13 0 -18 0.5t-9 4.5t-4 13q0 8 3 12t6.5 4.5t12.5 1.5q57 3 95 30q17 13 26 28.5t10 24.5t1 25v210q0 19 1 30t7 31t17.5 33.5t35.5 28 t58 23.5q-61 17 -89.5 48.5t-29.5 67.5v237q0 25 -3 35q-22 70 -134 76q-17 1 -17 18q0 12 6.5 15t24.5 3q38 0 72.5 -5t74 -18t63.5 -43t24 -73v-210q0 -41 3 -49q24 -79 133 -84q17 -1 17 -18z" />
<glyph unicode="~" horiz-adv-x="556" d="M555 290l-54 -44q-20 -17 -57 -35q-40 -18 -73 -18q-42 0 -100 34q-65 37 -104 37q-68 0 -153 -71l-14 17l54 44q20 17 57 35q40 18 73 18q42 0 100 -34q65 -37 104 -37q68 0 153 71z" />
<glyph unicode="&#xa0;" />
<glyph unicode="&#xa1;" horiz-adv-x="367" d="M249 417q0 -27 -10 -37.5t-38 -10.5h-35q-29 0 -38.5 11t-9.5 37v35q0 28 10.5 38t37.5 10h35q29 0 38.5 -11t9.5 -37v-35zM249 -173q0 -15 -4.5 -18t-22.5 -3h-77q-18 0 -22.5 3t-4.5 18q0 40 3 116.5t3 108.5l7 224q1 20 5 24t23 4h49q11 0 15 -0.5t7.5 -2.5t4.5 -7 q1 -3 3.5 -88.5t2.5 -109.5q1 -29 4.5 -123.5t3.5 -145.5z" />
<glyph unicode="&#xa2;" horiz-adv-x="489" d="M457 50q0 -8 -4 -11.5t-25 -14.5q-49 -25 -109 -33v-67q0 -10 -7 -17t-17 -7h-52q-10 0 -17 7t-7 17v69q-182 26 -182 237q0 212 182 241v63q0 10 7 17t17 7h52q10 0 17 -7t7 -17v-60q49 -4 108 -31q24 -11 24 -21q0 -21 -12 -69q-3 -13 -13 -13q-6 0 -18 11 q-45 37 -89 44v-324q55 10 104 52q10 10 16 10q12 0 12 -13q6 -39 6 -70zM219 82v300q-29 -19 -37.5 -56t-8.5 -94q0 -35 1.5 -56t12.5 -50.5t32 -43.5z" />
<glyph unicode="&#xa3;" horiz-adv-x="733" d="M660 153q0 -73 -52 -124t-126 -51q-49 0 -107 15q-48 11 -74 16q-24 5 -56 5h-6q-36 -1 -49 -15q-19 -21 -49 -21q-28 0 -48 20t-20 48q0 26 19 47q70 73 97 180l6 24h-86q-15 0 -25.5 10.5t-10.5 25.5v28q0 15 10.5 25.5t25.5 10.5h97l4 67q7 95 58 162.5t130 67.5 q85 0 137 -75.5t52 -178.5q0 -28 -20 -48t-48 -20t-48 20t-20 48q0 25 -1.5 43t-6.5 36.5t-16.5 28.5t-28.5 10q-16 0 -26 -8.5t-15.5 -26.5t-7.5 -32t-4 -38l-3 -56h62q15 0 25.5 -10.5t10.5 -25.5v-28q0 -15 -10.5 -25.5t-25.5 -10.5h-71q-5 -31 -12 -58q-12 -45 -32 -92 q49 -6 117 -22q46 -11 76 -11q17 0 29.5 11.5t12.5 27.5q0 28 20 48t48 20t48 -20t20 -48z" />
<glyph unicode="&#xa4;" horiz-adv-x="856" d="M687 -9q-13 -13 -27 -13q-19 0 -40 21l-44 44q-67 -48 -148 -48t-149 47l-43 -43q-23 -20 -42 -20q-14 0 -26 12q-13 13 -13 28q0 18 21 39l44 44q-47 66 -47 148q0 84 47 148l-44 45q-21 21 -21 39q0 15 13 28q12 12 26 12q19 0 42 -20l44 -44q66 47 148 47t148 -47 l43 43q23 20 42 20q14 0 26 -12q13 -13 13 -28q0 -18 -21 -39l-44 -44q48 -66 48 -148q0 -80 -47 -148l44 -44q20 -20 20 -39q0 -15 -13 -28zM599 250q0 71 -50 121t-121 50t-121 -50t-50 -121t50 -121t121 -50t121 50t50 121z" />
<glyph unicode="&#xa5;" horiz-adv-x="733" d="M708 671q0 -10 -9 -21l-183 -262h59q15 0 25.5 -11t10.5 -25v-28q0 -15 -10.5 -25.5t-25.5 -10.5h-129l-8 -11v-52h137q15 0 25.5 -10.5t10.5 -25.5v-28q0 -15 -10.5 -25.5t-25.5 -10.5h-137v-78q0 -27 -10.5 -37t-37.5 -10h-48q-28 0 -38 10.5t-10 37.5v77h-136 q-15 0 -25.5 10.5t-10.5 25.5v28q0 15 10.5 25.5t25.5 10.5h136v53l-7 10h-129q-15 0 -25.5 10.5t-10.5 25.5v28q0 14 10.5 25t25.5 11h59l-184 263q-9 12 -9 20q0 23 36 23h66q28 0 46 -8.5t35 -32.5l113 -162q38 -54 55 -88q17 36 71 113l98 140q27 38 79 38h49 q36 0 36 -23z" />
<glyph unicode="&#xa6;" horiz-adv-x="319" d="M190 341q0 -20 -7.5 -35t-22.5 -15t-23 15t-8 35v365q0 44 31 44q30 0 30 -44v-365zM190 -206q0 -44 -31 -44q-30 0 -30 44v365q0 20 8 35t23 15t22.5 -15t7.5 -35v-365z" />
<glyph unicode="&#xa7;" horiz-adv-x="566" d="M527 206q0 -74 -44 -138q33 -45 33 -92q0 -82 -69 -133.5t-164 -51.5t-164 51.5t-69 133.5h136q0 -30 29 -46.5t68 -16.5t68 16.5t29 46.5q0 25 -81 62l-101 47q-70 32 -114.5 87t-44.5 122q0 74 44 138q-33 43 -33 92q0 82 69 133.5t164 51.5t164 -51.5t69 -133.5h-136 q0 30 -29 46.5t-68 16.5t-68 -16.5t-29 -46.5q0 -25 81 -62l101 -47q70 -32 114.5 -87t44.5 -122zM391 206q0 48 -81 86l-101 47l-25 12q-9 -27 -9 -57q0 -48 81 -86l101 -47l25 -13q9 27 9 58z" />
<glyph unicode="&#xa8;" d="M220 607q0 -23 -8.5 -33t-34.5 -10h-46q-26 0 -34.5 10.5t-8.5 32.5v17q0 24 9 33.5t34 9.5h46q26 0 34.5 -9.5t8.5 -33.5v-17zM462 607q0 -23 -8.5 -33t-34.5 -10h-46q-26 0 -34.5 10.5t-8.5 32.5v17q0 24 9 33.5t34 9.5h46q26 0 34.5 -9.5t8.5 -33.5v-17z" />
<glyph unicode="&#xa9;" horiz-adv-x="694" d="M694 347q0 -144 -101.5 -245.5t-245.5 -101.5t-245.5 101.5t-101.5 245.5t101.5 245.5t245.5 101.5t245.5 -101.5t101.5 -245.5zM620 347q0 113 -80 193t-193 80t-193 -80t-80 -193t80 -193t193 -80t193 80t80 193zM478 194q0 -4 -2 -6t-12 -8q-43 -23 -98 -23 q-190 0 -190 190t190 190q49 0 91 -14q15 -5 15 -10q0 -3 -1 -7l-8 -45q-1 -9 -7 -9q-3 0 -7 4q-37 30 -84 30q-113 0 -113 -139q0 -138 115 -138q32 0 50.5 6t41.5 22q6 6 10 6q6 0 6 -9q3 -21 3 -40z" />
<glyph unicode="&#xaa;" horiz-adv-x="416" d="M390 418q0 -19 -8.5 -26.5t-32.5 -7.5h-31q-24 0 -32 7.5t-8 26.5v14q-45 -56 -131 -56q-53 0 -87 31t-34 70q0 29 24 50t54 31t72 16t61.5 6.5t38.5 0.5v25q0 32 -13.5 48t-45.5 16q-77 0 -130 -47q-6 -4 -10 -4q-9 0 -11 8q0 3 -3 26t-3 25q0 6 4 8.5t18 7.5 q63 22 138 22q170 0 170 -111v-187zM340 311q0 -14 -15 -24.5t-35 -10.5h-164q-21 0 -35.5 10.5t-14.5 24.5q0 15 14.5 25t35.5 10h164q21 0 35.5 -10t14.5 -25zM276 492v61q-141 -6 -141 -75q0 -20 16.5 -35.5t41.5 -15.5q4 0 10 0.5t20 4t25 9.5t19.5 19.5t8.5 31.5z" />
<glyph unicode="&#xab;" d="M258 16q1 -7 -3 -11.5t-10 -4.5h-46q-9 0 -12 7l-111 237q-1 3 -1 6t1 6l111 237q3 7 12 7h46q6 0 10 -4.5t3 -11.5l-47 -234zM489 16q1 -7 -3 -11.5t-10 -4.5h-46q-8 0 -12 7l-111 237q-1 3 -1 6t1 6l111 237q4 7 12 7h46q6 0 10 -4.5t3 -11.5l-47 -234z" />
<glyph unicode="&#xac;" horiz-adv-x="856" d="M794 135q0 -17 -12.5 -29.5t-29.5 -12.5t-29.5 12.5t-12.5 29.5v188h-607q-17 0 -29.5 12.5t-12.5 29.5t12.5 29.5t29.5 12.5h649q17 0 29.5 -12.5t12.5 -29.5v-230z" />
<glyph unicode="&#xad;" horiz-adv-x="367" d="M305 229q0 -36 -48 -36h-197q-48 0 -48 36t48 36h197q48 0 48 -36z" />
<glyph unicode="&#xae;" horiz-adv-x="694" d="M694 347q0 -144 -101.5 -245.5t-245.5 -101.5t-245.5 101.5t-101.5 245.5t101.5 245.5t245.5 101.5t245.5 -101.5t101.5 -245.5zM620 347q0 113 -80 193t-193 80t-193 -80t-80 -193t80 -193t193 -80t193 80t80 193zM507 184q0 -16 -19 -16h-30q-17 0 -25 13l-84 148h-57 v-136q0 -14 -5.5 -19.5t-19.5 -5.5h-25q-14 0 -19.5 5.5t-5.5 19.5v308q0 14 5.5 19.5t19.5 5.5h124q13 0 23.5 -0.5t33 -6t38 -15t28 -30.5t12.5 -49q0 -72 -82 -92zM429 424q0 29 -14.5 43.5t-55.5 14.5h-67v-116h67q43 0 56.5 15t13.5 43z" />
<glyph unicode="&#xaf;" d="M474 600q0 -20 -4 -23.5t-23 -3.5h-343q-20 0 -23.5 3.5t-3.5 23.5v31q0 19 3.5 23t23.5 4h343q19 0 23 -4t4 -23v-31z" />
<glyph unicode="&#xb0;" horiz-adv-x="413" d="M359 542q0 -64 -44.5 -108.5t-108.5 -44.5q-63 0 -108 44.5t-45 108.5q0 63 45 107.5t108 44.5q64 0 108.5 -44.5t44.5 -107.5zM275 542q0 28 -20 48t-49 20t-49 -20t-20 -48t20.5 -48.5t48.5 -20.5t48.5 20.5t20.5 48.5z" />
<glyph unicode="&#xb1;" horiz-adv-x="856" d="M794 42q0 -42 -53 -42h-627q-53 0 -53 42t53 42h272v221h-272q-53 0 -53 42t53 42h272v252q0 53 42 53t42 -53v-252h271q53 0 53 -42t-53 -42h-271v-221h271q53 0 53 -42z" />
<glyph unicode="&#xb2;" horiz-adv-x="389" d="M356 316q0 -16 -7.5 -22.5t-27.5 -6.5h-247q-19 0 -26.5 6t-7.5 23v4q0 12 7 18l137 122q71 63 71 117q0 31 -20 55t-59 24q-62 0 -85 -66q-3 -12 -10 -12q-6 0 -12 8l-36 38q14 44 53 66q38 26 100 26q77 0 123.5 -40t46.5 -98q0 -25 -13.5 -48t-26.5 -35.5t-40 -33.5 q-6 -5 -25 -19l-23 -16l-96 -75h117l49 1q38 0 43 -3q15 -5 15 -26v-7z" />
<glyph unicode="&#xb3;" horiz-adv-x="395" d="M362 409q0 -135 -173 -135q-42 0 -80.5 12.5t-57 25.5t-18.5 18l9 41q0 7 9 7q3 0 10 -6q53 -42 125 -42q44 0 57 21t13 59q0 40 -14 60t-59 20h-32q-14 0 -16.5 2t-2.5 14v11q0 13 5 15l24 3q39 2 56 19q23 23 23 60q0 25 -10.5 37t-42.5 12q-60 0 -97 -44q-6 -6 -10 -6 q-5 0 -11 7l-20 24q-5 5 -5 9q0 2 5.5 8.5t18 16t29 18t41.5 14.5t53 6q150 0 150 -103q0 -65 -78 -100q99 -21 99 -104z" />
<glyph unicode="&#xb4;" d="M431 681q0 -6 -11 -15l-159 -129h-37q-10 0 -14.5 0.5t-8.5 3.5t-4 9q0 4 9 15l86 117q7 8 11 10t19 2h82q10 0 14.5 -0.5t8.5 -3.5t4 -9z" />
<glyph unicode="&#xb5;" horiz-adv-x="561" d="M500 50q0 -30 -10.5 -40t-39.5 -10h-33q-15 0 -23.5 1.5t-17.5 12t-9 30.5q-57 -55 -144 -55q-14 0 -27 1v-134q0 -30 -10.5 -40t-39.5 -10h-36q-30 0 -40 10.5t-10 39.5v552q0 30 10.5 40t39.5 10h36q30 0 40 -10.5t10 -39.5v-288q0 -44 10 -57t52 -13q49 0 77.5 34 t28.5 92v232q0 30 10.5 40t39.5 10h36q30 0 40 -10.5t10 -39.5v-358z" />
<glyph unicode="&#xb6;" horiz-adv-x="703" d="M670 663q0 -30 -45 -30h-51v-783q0 -44 -31 -44q-30 0 -30 44v783h-80v-783q0 -44 -31 -44q-30 0 -30 44v370q-138 8 -223 72.5t-85 164.5q0 102 85 169.5t202 67.5h274q45 0 45 -31z" />
<glyph unicode="&#xb7;" horiz-adv-x="856" d="M493 309q0 -19 -3.5 -23t-23.5 -4h-77q-19 0 -23 4t-4 23v77q0 20 4 23.5t23 3.5h77q20 0 23.5 -3.5t3.5 -23.5v-77z" />
<glyph unicode="&#xb8;" horiz-adv-x="489" d="M310 -37q0 -3 -5 -16l-51 -121q-6 -13 -10 -15.5t-21 -2.5h-50q-10 0 -14.5 0.5t-8 3.5t-3.5 9q0 4 84 134q10 15 14.5 18t20.5 3h18q10 0 14.5 -0.5t8 -3.5t3.5 -9z" />
<glyph unicode="&#xb9;" horiz-adv-x="395" d="M341 308q0 -21 -35 -21h-205q-35 0 -35 21q0 22 35 22h56v310q-34 -8 -68 -8t-34 21q0 22 31 22q70 1 112 33q10 8 26 8q15 0 22.5 -5.5t8.5 -10t1 -12.5v-358h50q35 0 35 -22z" />
<glyph unicode="&#xba;" horiz-adv-x="461" d="M435 541q0 -165 -205 -165q-204 0 -204 165q0 175 205 175q204 0 204 -175zM385 311q0 -14 -14.5 -24.5t-35.5 -10.5h-209q-21 0 -35.5 10.5t-14.5 24.5q0 15 14.5 25t35.5 10h209q21 0 35.5 -10t14.5 -25zM321 550q0 28 -1.5 42.5t-9.5 34.5t-28 29.5t-52 9.5 t-51.5 -9.5t-27.5 -29.5t-9.5 -34.5t-1.5 -42.5q0 -23 0.5 -34.5t5.5 -30.5t14 -29t27 -17.5t44 -7.5t44 8t27 17.5t13.5 28.5t5 31t0.5 34z" />
<glyph unicode="&#xbb;" d="M474 244l-111 -237q-3 -7 -12 -7h-46q-6 0 -10 4.5t-3 11.5l47 234l-47 234q-1 7 3 11.5t10 4.5h46q9 0 12 -7l111 -237q1 -3 1 -6t-1 -6zM243 244l-111 -237q-4 -7 -12 -7h-46q-6 0 -10 4.5t-3 11.5l47 234l-47 234q-1 7 3 11.5t10 4.5h46q8 0 12 -7l111 -237 q0 -3 0.5 -6t-0.5 -6z" />
<glyph unicode="&#xbc;" horiz-adv-x="880" d="M341 308q0 -21 -35 -21h-205q-35 0 -35 21q0 22 35 22h56v310q-34 -8 -68 -8t-34 21q0 22 31 22q70 1 112 33q10 8 26 8q15 0 22.5 -5.5t8.5 -10t1 -12.5v-358h50q35 0 35 -22zM825 120q0 -17 -8 -22.5t-27 -5.5h-30v-63q0 -16 -7 -22.5t-27 -6.5h-21q-21 0 -27.5 7 t-6.5 22v63h-162q-21 0 -28 6.5t-7 22.5v15q0 12 6 21l160 246q9 13 33 13h53q19 0 26.5 -6t7.5 -22v-240h30q20 0 27.5 -6t7.5 -22zM739 651l-440 -654q-13 -19 -35 -19q-25 0 -37 22q-6 11 -6 21q0 11 8 22l440 655q13 18 35 18q26 0 38 -22q5 -10 5 -20q0 -11 -8 -23z M675 148v205q-12 -29 -126 -205h126z" />
<glyph unicode="&#xbd;" horiz-adv-x="978" d="M341 308q0 -21 -35 -21h-205q-35 0 -35 21q0 22 35 22h56v310q-34 -8 -68 -8t-34 21q0 22 31 22q70 1 112 33q10 8 26 8q15 0 22.5 -5.5t8.5 -10t1 -12.5v-358h50q35 0 35 -22zM923 29q0 -16 -7.5 -22.5t-27.5 -6.5h-247q-19 0 -26.5 6t-7.5 23v5q0 11 7 17l137 122 q71 63 71 117q0 32 -20 56t-59 24q-62 0 -85 -67q-3 -11 -10 -11q-5 0 -12 7l-36 38q14 44 53 66q38 27 101 27q76 0 122.5 -40.5t46.5 -97.5q0 -25 -13.5 -48.5t-26 -35.5t-39.5 -34q-2 -2 -22.5 -16t-26.5 -19l-95 -75h116l49 1q38 0 43 -3q15 -5 15 -26v-7zM744 651 l-440 -654q-13 -19 -35 -19q-25 0 -37 22q-6 11 -6 21q0 11 8 22l440 655q13 18 35 18q26 0 37 -22q6 -10 6 -20q0 -11 -8 -23z" />
<glyph unicode="&#xbe;" horiz-adv-x="880" d="M395 409q0 -135 -173 -135q-42 0 -80.5 12.5t-57 25.5t-18.5 18l9 41q3 7 9 7q3 0 10 -6q54 -42 125 -42q44 0 57 21t13 59q0 41 -14 60.5t-59 19.5h-32q-13 0 -16 2.5t-3 13.5v11q0 13 5 15l24 3q39 2 57 19q22 23 22 60q0 25 -10.5 37t-42.5 12q-60 0 -97 -44 q-5 -6 -10 -6t-11 7l-20 24q-5 5 -5 9q0 2 5.5 8.5t18 16t29 18t41.5 14.5t53 6q150 0 150 -103q0 -65 -78 -100q99 -21 99 -104zM825 120q0 -17 -8 -22.5t-27 -5.5h-30v-63q0 -16 -7 -22.5t-27 -6.5h-21q-21 0 -27.5 7t-6.5 22v63h-162q-21 0 -28 6.5t-7 22.5v15q0 12 6 21 l160 246q9 13 33 13h53q19 0 26.5 -6t7.5 -22v-240h30q20 0 27.5 -6t7.5 -22zM739 651l-440 -654q-13 -19 -35 -19q-25 0 -37 22q-6 11 -6 21q0 11 8 22l440 655q13 18 35 18q26 0 38 -22q5 -10 5 -20q0 -11 -8 -23zM675 148v205q-12 -29 -126 -205h126z" />
<glyph unicode="&#xbf;" horiz-adv-x="519" d="M309 417q0 -27 -10 -37.5t-38 -10.5h-35q-29 0 -38.5 11t-9.5 37v35q0 28 10.5 38t37.5 10h35q29 0 38.5 -11t9.5 -37v-35zM457 -142q0 -7 -4 -10t-26 -13q-89 -40 -185 -40q-24 0 -42.5 1.5t-46.5 10t-46.5 23.5t-32 45t-13.5 71q0 76 44 114q86 72 86 188v29 q0 20 4 23.5t24 3.5h49q23 0 27 -8q1 -3 1 -35q0 -58 -15 -109.5t-67 -134.5q-11 -17 -14 -29.5t-3 -45.5q0 -46 8 -60.5t41 -14.5q91 0 163 69q5 4 10 4q8 0 14 -14q0 -2 1 -3q23 -57 23 -65z" />
<glyph unicode="&#xc0;" horiz-adv-x="733" d="M690 27q0 -27 -39 -27h-54q-33 0 -44.5 12t-22.5 43l-34 96h-277l-39 -111q-14 -40 -63 -40h-36q-39 0 -39 27q0 7 5 20l211 604q7 20 19.5 30t21.5 11.5t23 1.5h88q14 0 23 -1.5t21.5 -11.5t19.5 -30l211 -604q5 -13 5 -20zM466 237l-95 281q-7 20 -13 49h-1 q-8 -36 -36 -118l-72 -212h217zM465 776q6 -6 6 -10q0 -3 -1 -4q-5 -6 -17 -6h-67l-218 106q-8 4 -8 10v4q4 9 17 9h161z" />
<glyph unicode="&#xc1;" horiz-adv-x="733" d="M690 27q0 -27 -39 -27h-54q-33 0 -44.5 12t-22.5 43l-34 96h-277l-39 -111q-14 -40 -63 -40h-36q-39 0 -39 27q0 7 5 20l211 604q7 20 19.5 30t21.5 11.5t23 1.5h88q14 0 23 -1.5t21.5 -11.5t19.5 -30l211 -604q5 -13 5 -20zM466 237l-95 281q-7 20 -13 49h-1 q-8 -36 -36 -118l-72 -212h217zM566 862l-218 -106h-67q-12 0 -17 6q-1 1 -1 4q0 4 6 10l127 109h161q13 0 17 -9v-4q0 -6 -8 -10z" />
<glyph unicode="&#xc2;" horiz-adv-x="733" d="M690 27q0 -27 -39 -27h-54q-33 0 -44.5 12t-22.5 43l-34 96h-277l-39 -111q-14 -40 -63 -40h-36q-39 0 -39 27q0 7 5 20l211 604q7 20 19.5 30t21.5 11.5t23 1.5h88q14 0 23 -1.5t21.5 -11.5t19.5 -30l211 -604q5 -13 5 -20zM466 237l-95 281q-7 20 -13 49h-1 q-8 -36 -36 -118l-72 -212h217zM539 768q4 -3 4 -8q0 -2 -1 -6q-4 -8 -12 -8h-47l-5 1l-112 81l-112 -81l-5 -1h-47q-8 0 -11 8q-1 2 -1 4q0 5 4 8l110 104q3 3 8 3h111q5 0 8 -3z" />
<glyph unicode="&#xc3;" horiz-adv-x="733" d="M690 27q0 -27 -39 -27h-54q-33 0 -44.5 12t-22.5 43l-34 96h-277l-39 -111q-14 -40 -63 -40h-36q-39 0 -39 27q0 7 5 20l211 604q7 20 19.5 30t21.5 11.5t23 1.5h88q14 0 23 -1.5t21.5 -11.5t19.5 -30l211 -604q5 -13 5 -20zM466 237l-95 281q-7 20 -13 49h-1 q-8 -36 -36 -118l-72 -212h217zM550 860q0 -41 -30.5 -77.5t-79.5 -36.5q-44 0 -98 37q-30 22 -47 22q-33 0 -38 -44q-1 -11 -6 -13t-21 -2h-18q-16 0 -21.5 2.5t-5.5 14.5q0 41 30.5 77.5t79.5 36.5q44 0 98 -37q30 -22 47 -22q33 0 38 44q1 11 6 13t21 2h18q17 0 22 -2.5 t5 -14.5z" />
<glyph unicode="&#xc4;" horiz-adv-x="733" d="M690 27q0 -27 -39 -27h-54q-33 0 -44.5 12t-22.5 43l-34 96h-277l-39 -111q-14 -40 -63 -40h-36q-39 0 -39 27q0 7 5 20l211 604q7 20 19.5 30t21.5 11.5t23 1.5h88q14 0 23 -1.5t21.5 -11.5t19.5 -30l211 -604q5 -13 5 -20zM466 237l-95 281q-7 20 -13 49h-1 q-8 -36 -36 -118l-72 -212h217zM290 789q0 -23 -8.5 -33t-34.5 -10h-46q-26 0 -34.5 10.5t-8.5 32.5v17q0 24 9 33.5t34 9.5h46q26 0 34.5 -9.5t8.5 -33.5v-17zM576 789q0 -23 -8.5 -33t-34.5 -10h-46q-26 0 -34.5 10.5t-8.5 32.5v17q0 24 9 33.5t34 9.5h46q26 0 34.5 -9.5 t8.5 -33.5v-17z" />
<glyph unicode="&#xc5;" horiz-adv-x="733" d="M690 27q0 -27 -39 -27h-54q-33 0 -44.5 12t-22.5 43l-34 96h-277l-39 -111q-14 -40 -63 -40h-36q-39 0 -39 27q0 7 5 20l211 604q7 20 19.5 30t21.5 11.5t23 1.5h88q14 0 23 -1.5t21.5 -11.5t19.5 -30l211 -604q5 -13 5 -20zM466 237l-95 281q-7 20 -13 49h-1 q-8 -36 -36 -118l-72 -212h217zM422 773q0 21 -13.5 27.5t-41.5 6.5q-30 0 -42.5 -6t-12.5 -28q0 -21 13.5 -27.5t41.5 -6.5q30 0 42.5 6t12.5 28zM490 772q0 -78 -123 -78t-123 80q0 78 123 78t123 -80z" />
<glyph unicode="&#xc6;" horiz-adv-x="947" d="M900 48q0 -27 -10 -37.5t-38 -10.5h-343q-28 0 -38 10.5t-10 37.5v144h-213l-62 -149q-11 -27 -26 -35t-41 -8h-37q-38 0 -38 26q0 6 5 18l251 608q10 25 25 33.5t41 8.5h471q29 0 38.5 -11t9.5 -37v-8q0 -23 -8.5 -34t-17.5 -12.5t-28 -1.5l-199 3h-25v-187h199 q27 0 37.5 -10t10.5 -37q0 -28 -11.5 -37.5t-36.5 -9.5h-199v-205h51q32 0 95 1.5t94 1.5q19 0 27.5 -1.5t17 -12.5t8.5 -34v-14zM461 278v316h-47l-131 -316h178z" />
<glyph unicode="&#xc7;" horiz-adv-x="703" d="M647 49q0 -8 -4 -11.5t-24 -14.5q-49 -26 -88 -35.5t-101 -9.5q-369 0 -369 369t368 369q96 0 177 -29q21 -7 25 -9.5t4 -9.5q0 -5 -2 -13l-15 -87q-4 -18 -14 -18q-6 0 -14 7q-70 59 -162 59q-220 0 -220 -269q0 -58 10 -103.5t33.5 -84.5t69 -60t111.5 -21 q62 0 97.5 12t79.5 44q13 11 19 11q11 0 13 -18q0 -4 2 -22.5t3 -34.5t1 -21zM440 -59q0 -3 -5 -16l-51 -121q-6 -13 -10 -15.5t-21 -2.5h-50q-10 0 -14.5 0.5t-8 3.5t-3.5 9q0 4 84 134q10 15 14.5 18t20.5 3h18q10 0 14.5 -0.5t8 -3.5t3.5 -9z" />
<glyph unicode="&#xc8;" horiz-adv-x="642" d="M595 48q0 -27 -10 -37.5t-38 -10.5h-408q-28 0 -38 10.5t-10 37.5v595q0 28 10.5 38t37.5 10h393q29 0 38.5 -11t9.5 -37v-8q0 -17 -3.5 -27.5t-13 -14.5t-17 -5t-24.5 -1l-235 3h-49v-185h263q27 0 37.5 -10t10.5 -37q0 -28 -11.5 -37.5t-36.5 -9.5h-263v-205l146 2 l155 2q21 0 30.5 -1.5t17.5 -12.5t8 -34v-14zM419 776q6 -6 6 -10q0 -3 -1 -4q-5 -6 -17 -6h-67l-218 106q-8 4 -8 10v4q4 9 17 9h161z" />
<glyph unicode="&#xc9;" horiz-adv-x="642" d="M595 48q0 -27 -10 -37.5t-38 -10.5h-408q-28 0 -38 10.5t-10 37.5v595q0 28 10.5 38t37.5 10h393q29 0 38.5 -11t9.5 -37v-8q0 -17 -3.5 -27.5t-13 -14.5t-17 -5t-24.5 -1l-235 3h-49v-185h263q27 0 37.5 -10t10.5 -37q0 -28 -11.5 -37.5t-36.5 -9.5h-263v-205l146 2 l155 2q21 0 30.5 -1.5t17.5 -12.5t8 -34v-14zM520 862l-218 -106h-67q-12 0 -17 6q-1 1 -1 4q0 4 6 10l127 109h161q13 0 17 -9v-4q0 -6 -8 -10z" />
<glyph unicode="&#xca;" horiz-adv-x="642" d="M595 48q0 -27 -10 -37.5t-38 -10.5h-408q-28 0 -38 10.5t-10 37.5v595q0 28 10.5 38t37.5 10h393q29 0 38.5 -11t9.5 -37v-8q0 -17 -3.5 -27.5t-13 -14.5t-17 -5t-24.5 -1l-235 3h-49v-185h263q27 0 37.5 -10t10.5 -37q0 -28 -11.5 -37.5t-36.5 -9.5h-263v-205l146 2 l155 2q21 0 30.5 -1.5t17.5 -12.5t8 -34v-14zM493 768q4 -3 4 -8q0 -2 -1 -6q-4 -8 -12 -8h-47l-5 1l-112 81l-112 -81l-5 -1h-47q-8 0 -11 8q-1 2 -1 4q0 5 4 8l110 104q3 3 8 3h111q5 0 8 -3z" />
<glyph unicode="&#xcb;" horiz-adv-x="642" d="M595 48q0 -27 -10 -37.5t-38 -10.5h-408q-28 0 -38 10.5t-10 37.5v595q0 28 10.5 38t37.5 10h393q29 0 38.5 -11t9.5 -37v-8q0 -17 -3.5 -27.5t-13 -14.5t-17 -5t-24.5 -1l-235 3h-49v-185h263q27 0 37.5 -10t10.5 -37q0 -28 -11.5 -37.5t-36.5 -9.5h-263v-205l146 2 l155 2q21 0 30.5 -1.5t17.5 -12.5t8 -34v-14zM244 789q0 -23 -8.5 -33t-34.5 -10h-46q-26 0 -34.5 10.5t-8.5 32.5v17q0 24 9 33.5t34 9.5h46q26 0 34.5 -9.5t8.5 -33.5v-17zM530 789q0 -23 -8.5 -33t-34.5 -10h-46q-26 0 -34.5 10.5t-8.5 32.5v17q0 24 9 33.5t34 9.5h46 q26 0 34.5 -9.5t8.5 -33.5v-17z" />
<glyph unicode="&#xcc;" horiz-adv-x="331" d="M239 48q0 -27 -10 -37.5t-38 -10.5h-51q-28 0 -38 10.5t-10 37.5v598q0 28 10.5 38t37.5 10h51q29 0 38.5 -11t9.5 -37v-598zM233 776q6 -6 6 -10q0 -3 -1 -4q-5 -6 -17 -6h-67l-218 106q-8 4 -8 10v4q4 9 17 9h161z" />
<glyph unicode="&#xcd;" horiz-adv-x="331" d="M239 48q0 -27 -10 -37.5t-38 -10.5h-51q-28 0 -38 10.5t-10 37.5v598q0 28 10.5 38t37.5 10h51q29 0 38.5 -11t9.5 -37v-598zM395 862l-218 -106h-67q-12 0 -16 6q-2 1 -2 4q0 4 6 10l127 109h161q13 0 16 -9q1 -2 1 -4q0 -6 -8 -10z" />
<glyph unicode="&#xce;" horiz-adv-x="331" d="M239 48q0 -27 -10 -37.5t-38 -10.5h-51q-28 0 -38 10.5t-10 37.5v598q0 28 10.5 38t37.5 10h51q29 0 38.5 -11t9.5 -37v-598zM337 768q4 -3 4 -8q0 -2 -1 -6q-4 -8 -12 -8h-47l-5 1l-112 81l-112 -81l-5 -1h-47q-8 0 -11 8q-1 2 -1 4q0 5 4 8l110 104q3 3 8 3h111 q5 0 8 -3z" />
<glyph unicode="&#xcf;" horiz-adv-x="331" d="M239 48q0 -27 -10 -37.5t-38 -10.5h-51q-28 0 -38 10.5t-10 37.5v598q0 28 10.5 38t37.5 10h51q29 0 38.5 -11t9.5 -37v-598zM88 789q0 -23 -8.5 -33t-34.5 -10h-46q-26 0 -34.5 10.5t-8.5 32.5v17q0 24 9 33.5t34 9.5h46q26 0 34.5 -9.5t8.5 -33.5v-17zM374 789 q0 -23 -8.5 -33t-34.5 -10h-46q-26 0 -34.5 10.5t-8.5 32.5v17q0 24 9 33.5t34 9.5h46q26 0 34.5 -9.5t8.5 -33.5v-17z" />
<glyph unicode="&#xd0;" horiz-adv-x="794" d="M732 342q0 -158 -78 -250t-251 -92h-264q-28 0 -38 10.5t-10 37.5v249h-32q-15 0 -25.5 10.5t-10.5 25.5v28q0 15 10.5 25.5t25.5 10.5h32v249q0 28 10.5 38t37.5 10h264q175 0 260 -105q69 -87 69 -247zM588 342q0 43 -2.5 72t-15 69t-35 64.5t-66.5 42.5t-106 18h-128 v-211h58q15 0 25.5 -10.5t10.5 -25.5v-28q0 -15 -10.5 -25.5t-25.5 -10.5h-58v-211h129q61 0 104.5 16.5t66.5 40t35.5 61.5t15 67t2.5 71z" />
<glyph unicode="&#xd1;" horiz-adv-x="794" d="M702 48q0 -27 -10 -37.5t-38 -10.5h-93q-50 0 -71 40l-275 533h-1v-525q0 -27 -10 -37.5t-38 -10.5h-27q-28 0 -38 10.5t-10 37.5v598q0 28 10.5 38t37.5 10h93q50 0 71 -40l275 -533h1v525q0 27 10 37.5t38 10.5h27q29 0 38.5 -11t9.5 -37v-598zM580 860 q0 -41 -30.5 -77.5t-79.5 -36.5q-44 0 -98 37q-30 22 -47 22q-33 0 -38 -44q-1 -11 -6 -13t-21 -2h-18q-16 0 -21.5 2.5t-5.5 14.5q0 41 30.5 77.5t79.5 36.5q44 0 98 -37q30 -22 47 -22q33 0 38 44q1 11 6 13t21 2h18q17 0 22 -2.5t5 -14.5z" />
<glyph unicode="&#xd2;" horiz-adv-x="794" d="M732 342q0 -364 -336 -364q-335 0 -335 364q0 374 336 374q335 0 335 -374zM585 358q0 28 -0.5 44.5t-4 49.5t-10 54.5t-20.5 49t-33.5 43.5t-50.5 27.5t-70 11.5t-69.5 -11.5t-50 -28t-33.5 -44t-20.5 -49t-10 -54t-4 -49.5t-0.5 -44q0 -28 0.5 -46t4 -53t10 -58 t20.5 -52.5t33.5 -47.5t50.5 -30.5t70 -12.5t69.5 12.5t50 30.5t33.5 47.5t20.5 53t10 58.5t4 52.5t0.5 45.5zM495 776q6 -6 6 -10q0 -3 -1 -4q-5 -6 -17 -6h-67l-218 106q-8 4 -8 10v4q4 9 17 9h161z" />
<glyph unicode="&#xd3;" horiz-adv-x="794" d="M732 342q0 -364 -336 -364q-335 0 -335 364q0 374 336 374q335 0 335 -374zM585 358q0 28 -0.5 44.5t-4 49.5t-10 54.5t-20.5 49t-33.5 43.5t-50.5 27.5t-70 11.5t-69.5 -11.5t-50 -28t-33.5 -44t-20.5 -49t-10 -54t-4 -49.5t-0.5 -44q0 -28 0.5 -46t4 -53t10 -58 t20.5 -52.5t33.5 -47.5t50.5 -30.5t70 -12.5t69.5 12.5t50 30.5t33.5 47.5t20.5 53t10 58.5t4 52.5t0.5 45.5zM596 862l-218 -106h-67q-12 0 -17 6q-1 1 -1 4q0 4 6 10l127 109h161q13 0 17 -9v-4q0 -6 -8 -10z" />
<glyph unicode="&#xd4;" horiz-adv-x="794" d="M732 342q0 -364 -336 -364q-335 0 -335 364q0 374 336 374q335 0 335 -374zM585 358q0 28 -0.5 44.5t-4 49.5t-10 54.5t-20.5 49t-33.5 43.5t-50.5 27.5t-70 11.5t-69.5 -11.5t-50 -28t-33.5 -44t-20.5 -49t-10 -54t-4 -49.5t-0.5 -44q0 -28 0.5 -46t4 -53t10 -58 t20.5 -52.5t33.5 -47.5t50.5 -30.5t70 -12.5t69.5 12.5t50 30.5t33.5 47.5t20.5 53t10 58.5t4 52.5t0.5 45.5zM569 768q4 -3 4 -8q0 -2 -1 -6q-4 -8 -12 -8h-47l-5 1l-112 81l-112 -81l-5 -1h-47q-8 0 -11 8q-1 2 -1 4q0 5 4 8l110 104q3 3 8 3h111q5 0 8 -3z" />
<glyph unicode="&#xd5;" horiz-adv-x="794" d="M732 342q0 -364 -336 -364q-335 0 -335 364q0 374 336 374q335 0 335 -374zM585 358q0 28 -0.5 44.5t-4 49.5t-10 54.5t-20.5 49t-33.5 43.5t-50.5 27.5t-70 11.5t-69.5 -11.5t-50 -28t-33.5 -44t-20.5 -49t-10 -54t-4 -49.5t-0.5 -44q0 -28 0.5 -46t4 -53t10 -58 t20.5 -52.5t33.5 -47.5t50.5 -30.5t70 -12.5t69.5 12.5t50 30.5t33.5 47.5t20.5 53t10 58.5t4 52.5t0.5 45.5zM580 860q0 -41 -30.5 -77.5t-79.5 -36.5q-44 0 -98 37q-30 22 -47 22q-33 0 -38 -44q-1 -11 -6 -13t-21 -2h-18q-16 0 -21.5 2.5t-5.5 14.5q0 41 30.5 77.5 t79.5 36.5q44 0 98 -37q30 -22 47 -22q33 0 38 44q1 11 6 13t21 2h18q17 0 22 -2.5t5 -14.5z" />
<glyph unicode="&#xd6;" horiz-adv-x="794" d="M732 342q0 -364 -336 -364q-335 0 -335 364q0 374 336 374q335 0 335 -374zM585 358q0 28 -0.5 44.5t-4 49.5t-10 54.5t-20.5 49t-33.5 43.5t-50.5 27.5t-70 11.5t-69.5 -11.5t-50 -28t-33.5 -44t-20.5 -49t-10 -54t-4 -49.5t-0.5 -44q0 -28 0.5 -46t4 -53t10 -58 t20.5 -52.5t33.5 -47.5t50.5 -30.5t70 -12.5t69.5 12.5t50 30.5t33.5 47.5t20.5 53t10 58.5t4 52.5t0.5 45.5zM320 789q0 -23 -8.5 -33t-34.5 -10h-46q-26 0 -34.5 10.5t-8.5 32.5v17q0 24 9 33.5t34 9.5h46q26 0 34.5 -9.5t8.5 -33.5v-17zM606 789q0 -23 -8.5 -33 t-34.5 -10h-46q-26 0 -34.5 10.5t-8.5 32.5v17q0 24 9 33.5t34 9.5h46q26 0 34.5 -9.5t8.5 -33.5v-17z" />
<glyph unicode="&#xd7;" horiz-adv-x="856" d="M687 -9q-13 -13 -27 -13q-19 0 -40 21l-192 192l-192 -192q-23 -20 -42 -20q-14 0 -26 12q-13 13 -13 28q0 18 21 39l192 192l-192 193q-21 21 -21 39q0 15 13 28q12 12 26 12q19 0 42 -20l192 -192l191 191q23 20 42 20q14 0 26 -12q13 -13 13 -28q0 -18 -21 -39 l-192 -192l193 -192q20 -20 20 -39q0 -15 -13 -28z" />
<glyph unicode="&#xd8;" horiz-adv-x="856" d="M794 342q0 -364 -367 -364q-83 0 -156 21l-29 -49q-11 -20 -19 -28t-22 -8t-28 10t-14 29q0 9 18 41l11 18l11 20q-138 91 -138 310q0 374 367 374q86 0 155 -22l30 50q12 21 19.5 28.5t21.5 7.5t28 -10t14 -29q0 -9 -19 -42q-8 -12 -22 -38q139 -87 139 -319zM542 623 q-50 21 -115 21q-48 0 -86 -11.5t-62.5 -28.5t-42 -45t-26 -51.5t-13.5 -58.5t-5.5 -55t-0.5 -51q0 -78 11 -132t46 -95zM664 343q0 48 -3 82t-16.5 78t-38.5 73l-294 -506q50 -20 116 -20q48 0 86 11t62.5 27t42 43t26 49.5t13 56.5t5.5 54.5t1 51.5z" />
<glyph unicode="&#xd9;" horiz-adv-x="764" d="M672 229q0 -62 -19.5 -109t-48.5 -73.5t-70 -42.5t-76 -21t-74 -5q-54 0 -100.5 10.5t-92.5 36t-73 78t-27 127.5v416q0 28 10.5 38t37.5 10h51q29 0 38.5 -11t9.5 -37v-420q0 -82 32 -122t115 -40q86 0 118.5 41t32.5 122v419q0 27 10 37.5t38 10.5h40q29 0 38.5 -11 t9.5 -37v-417zM480 776q6 -6 6 -10q0 -3 -2 -4q-4 -6 -16 -6h-67l-218 106q-8 4 -8 10q0 2 1 4q3 9 16 9h161z" />
<glyph unicode="&#xda;" horiz-adv-x="764" d="M672 229q0 -62 -19.5 -109t-48.5 -73.5t-70 -42.5t-76 -21t-74 -5q-54 0 -100.5 10.5t-92.5 36t-73 78t-27 127.5v416q0 28 10.5 38t37.5 10h51q29 0 38.5 -11t9.5 -37v-420q0 -82 32 -122t115 -40q86 0 118.5 41t32.5 122v419q0 27 10 37.5t38 10.5h40q29 0 38.5 -11 t9.5 -37v-417zM581 862l-218 -106h-67q-12 0 -16 6q-2 1 -2 4q0 4 6 10l127 109h161q13 0 16 -9q1 -2 1 -4q0 -6 -8 -10z" />
<glyph unicode="&#xdb;" horiz-adv-x="764" d="M672 229q0 -62 -19.5 -109t-48.5 -73.5t-70 -42.5t-76 -21t-74 -5q-54 0 -100.5 10.5t-92.5 36t-73 78t-27 127.5v416q0 28 10.5 38t37.5 10h51q29 0 38.5 -11t9.5 -37v-420q0 -82 32 -122t115 -40q86 0 118.5 41t32.5 122v419q0 27 10 37.5t38 10.5h40q29 0 38.5 -11 t9.5 -37v-417zM554 768q4 -3 4 -8q0 -2 -2 -6q-3 -8 -11 -8h-47l-5 1l-112 81l-112 -81l-5 -1h-47q-8 0 -11 8q-1 2 -1 4q0 5 4 8l110 104q3 3 8 3h111q5 0 8 -3z" />
<glyph unicode="&#xdc;" horiz-adv-x="764" d="M672 229q0 -62 -19.5 -109t-48.5 -73.5t-70 -42.5t-76 -21t-74 -5q-54 0 -100.5 10.5t-92.5 36t-73 78t-27 127.5v416q0 28 10.5 38t37.5 10h51q29 0 38.5 -11t9.5 -37v-420q0 -82 32 -122t115 -40q86 0 118.5 41t32.5 122v419q0 27 10 37.5t38 10.5h40q29 0 38.5 -11 t9.5 -37v-417zM305 789q0 -23 -8.5 -33t-34.5 -10h-46q-26 0 -34.5 10.5t-8.5 32.5v17q0 24 9 33.5t34 9.5h46q26 0 34.5 -9.5t8.5 -33.5v-17zM591 789q0 -23 -8.5 -33t-34.5 -10h-46q-26 0 -34.5 10.5t-8.5 32.5v17q0 24 9 33.5t34 9.5h46q26 0 34.5 -9.5t8.5 -33.5v-17z " />
<glyph unicode="&#xdd;" horiz-adv-x="733" d="M708 671q0 -10 -9 -21l-261 -373v-230q0 -27 -10.5 -37t-37.5 -10h-48q-28 0 -38 10.5t-10 37.5v230l-261 373q-9 12 -9 20q0 23 36 23h66q28 0 46 -8.5t35 -32.5l113 -162q38 -54 55 -88q17 36 71 113l98 140q27 38 79 38h49q36 0 36 -23zM566 862l-218 -106h-67 q-12 0 -17 6q-1 1 -1 4q0 4 6 10l127 109h161q13 0 17 -9v-4q0 -6 -8 -10z" />
<glyph unicode="&#xde;" horiz-adv-x="642" d="M580 386q0 -57 -18.5 -98t-43 -61.5t-62 -31.5t-60.5 -13t-54 -2h-115v-130q0 -30 -10.5 -40t-39.5 -10h-36q-30 0 -40 10.5t-10 39.5v594q0 30 10.5 40t39.5 10h36q30 0 40 -10.5t10 -39.5v-53h136q45 0 81.5 -10t68.5 -32t49.5 -63.5t17.5 -99.5zM446 385 q0 120 -135 120h-84v-239h82q20 0 32 1t34.5 7t36 17.5t24 35.5t10.5 58z" />
<glyph unicode="&#xdf;" horiz-adv-x="565" d="M533 186q0 -99 -53.5 -148t-153.5 -49q-33 0 -66.5 9t-33.5 22l11 33q5 16 8 20t10 4q1 0 10 -3q27 -13 56 -13q27 0 44 11t23.5 33.5t8 38t1.5 42.5q0 94 -25.5 144t-100.5 56q-12 1 -14.5 5.5t-2.5 21.5v18q0 10 0.5 14.5t3.5 8.5t9 4q23 1 37.5 4t30.5 12.5t24 31 t8 54.5q0 40 -17.5 56.5t-69.5 16.5q-54 0 -70.5 -18t-16.5 -58v-509q0 -27 -10 -37.5t-38 -10.5h-37q-28 0 -38 10.5t-10 37.5v510q0 147 221 147t221 -143q0 -97 -75 -142q105 -66 105 -234z" />
<glyph unicode="&#xe0;" horiz-adv-x="525" d="M474 48q0 -27 -10 -37.5t-38 -10.5h-37q-29 0 -38.5 11t-9.5 37v20q-54 -79 -156 -79q-63 0 -103.5 44t-40.5 100q0 30 15 54.5t37 39.5t54 26t59 16.5t58.5 8.5t45.5 3.5t28 0.5v35q0 47 -15.5 69.5t-54.5 22.5q-91 0 -155 -67q-6 -6 -11 -6q-11 0 -13 11q-7 56 -7 73 q0 8 5 12t21 11q77 32 164 32q202 0 202 -159v-268zM338 154v87l-29 -2q-14 -1 -41 -7.5t-46.5 -17t-35 -31t-15.5 -48.5q0 -30 19.5 -52t49.5 -22q5 0 12 0.5t23.5 5.5t29 14t23 28t10.5 45zM341 550q0 -9 -6 -11t-21 -2h-37l-159 129q-11 9 -11 15q0 9 6 11t21 2h82 q15 0 19 -2t11 -10l86 -117q9 -11 9 -15z" />
<glyph unicode="&#xe1;" horiz-adv-x="525" d="M474 48q0 -27 -10 -37.5t-38 -10.5h-37q-29 0 -38.5 11t-9.5 37v20q-54 -79 -156 -79q-63 0 -103.5 44t-40.5 100q0 30 15 54.5t37 39.5t54 26t59 16.5t58.5 8.5t45.5 3.5t28 0.5v35q0 47 -15.5 69.5t-54.5 22.5q-91 0 -155 -67q-6 -6 -11 -6q-11 0 -13 11q-7 56 -7 73 q0 8 5 12t21 11q77 32 164 32q202 0 202 -159v-268zM338 154v87l-29 -2q-14 -1 -41 -7.5t-46.5 -17t-35 -31t-15.5 -48.5q0 -30 19.5 -52t49.5 -22q5 0 12 0.5t23.5 5.5t29 14t23 28t10.5 45zM419 681q0 -6 -11 -15l-159 -129h-37q-10 0 -14.5 0.5t-8.5 3.5t-4 9q0 4 9 15 l86 117q7 8 11 10t19 2h82q10 0 14.5 -0.5t8.5 -3.5t4 -9z" />
<glyph unicode="&#xe2;" horiz-adv-x="525" d="M474 48q0 -27 -10 -37.5t-38 -10.5h-37q-29 0 -38.5 11t-9.5 37v20q-54 -79 -156 -79q-63 0 -103.5 44t-40.5 100q0 30 15 54.5t37 39.5t54 26t59 16.5t58.5 8.5t45.5 3.5t28 0.5v35q0 47 -15.5 69.5t-54.5 22.5q-91 0 -155 -67q-6 -6 -11 -6q-11 0 -13 11q-7 56 -7 73 q0 8 5 12t21 11q77 32 164 32q202 0 202 -159v-268zM338 154v87l-29 -2q-14 -1 -41 -7.5t-46.5 -17t-35 -31t-15.5 -48.5q0 -30 19.5 -52t49.5 -22q5 0 12 0.5t23.5 5.5t29 14t23 28t10.5 45zM425 556q2 -3 2 -6.5t-2 -7.5q-4 -7 -11 -7h-47q-4 1 -6 2l-98 101l-98 -101 l-6 -2h-47q-7 0 -10 7q-2 3 -2 5q0 4 2 7l98 139q3 4 9 4h111q6 0 9 -4z" />
<glyph unicode="&#xe3;" horiz-adv-x="525" d="M474 48q0 -27 -10 -37.5t-38 -10.5h-37q-29 0 -38.5 11t-9.5 37v20q-54 -79 -156 -79q-63 0 -103.5 44t-40.5 100q0 30 15 54.5t37 39.5t54 26t59 16.5t58.5 8.5t45.5 3.5t28 0.5v35q0 47 -15.5 69.5t-54.5 22.5q-91 0 -155 -67q-6 -6 -11 -6q-11 0 -13 11q-7 56 -7 73 q0 8 5 12t21 11q77 32 164 32q202 0 202 -159v-268zM338 154v87l-29 -2q-14 -1 -41 -7.5t-46.5 -17t-35 -31t-15.5 -48.5q0 -30 19.5 -52t49.5 -22q5 0 12 0.5t23.5 5.5t29 14t23 28t10.5 45zM446 664q0 -41 -30.5 -77.5t-79.5 -36.5q-44 0 -98 37q-30 22 -47 22 q-33 0 -38 -44q-1 -11 -6 -13t-21 -2h-18q-16 0 -21.5 2.5t-5.5 14.5q0 41 30.5 77.5t79.5 36.5q44 0 98 -37q30 -22 47 -22q33 0 38 44q1 11 6 13t21 2h18q17 0 22 -2.5t5 -14.5z" />
<glyph unicode="&#xe4;" horiz-adv-x="525" d="M474 48q0 -27 -10 -37.5t-38 -10.5h-37q-29 0 -38.5 11t-9.5 37v20q-54 -79 -156 -79q-63 0 -103.5 44t-40.5 100q0 30 15 54.5t37 39.5t54 26t59 16.5t58.5 8.5t45.5 3.5t28 0.5v35q0 47 -15.5 69.5t-54.5 22.5q-91 0 -155 -67q-6 -6 -11 -6q-11 0 -13 11q-7 56 -7 73 q0 8 5 12t21 11q77 32 164 32q202 0 202 -159v-268zM338 154v87l-29 -2q-14 -1 -41 -7.5t-46.5 -17t-35 -31t-15.5 -48.5q0 -30 19.5 -52t49.5 -22q5 0 12 0.5t23.5 5.5t29 14t23 28t10.5 45zM208 607q0 -23 -8.5 -33t-34.5 -10h-46q-26 0 -34.5 10.5t-8.5 32.5v17 q0 24 9 33.5t34 9.5h46q26 0 34.5 -9.5t8.5 -33.5v-17zM450 607q0 -23 -8.5 -33t-34.5 -10h-46q-26 0 -34.5 10.5t-8.5 32.5v17q0 24 9 33.5t34 9.5h46q26 0 34.5 -9.5t8.5 -33.5v-17z" />
<glyph unicode="&#xe5;" horiz-adv-x="525" d="M474 48q0 -27 -10 -37.5t-38 -10.5h-37q-29 0 -38.5 11t-9.5 37v20q-54 -79 -156 -79q-63 0 -103.5 44t-40.5 100q0 30 15 54.5t37 39.5t54 26t59 16.5t58.5 8.5t45.5 3.5t28 0.5v35q0 47 -15.5 69.5t-54.5 22.5q-91 0 -155 -67q-6 -6 -11 -6q-11 0 -13 11q-7 56 -7 73 q0 8 5 12t21 11q77 32 164 32q202 0 202 -159v-268zM338 154v87l-29 -2q-14 -1 -41 -7.5t-46.5 -17t-35 -31t-15.5 -48.5q0 -30 19.5 -52t49.5 -22q5 0 12 0.5t23.5 5.5t29 14t23 28t10.5 45zM318 605q0 21 -13.5 27.5t-41.5 6.5q-30 0 -42.5 -6t-12.5 -28q0 -21 13.5 -27.5 t41.5 -6.5q30 0 42.5 6t12.5 28zM386 604q0 -78 -123 -78t-123 80q0 78 123 78t123 -80z" />
<glyph unicode="&#xe6;" horiz-adv-x="794" d="M762 261q0 -28 -11.5 -37.5t-36.5 -9.5h-249q3 -72 29 -112.5t89 -40.5q81 0 139 58q10 10 16 10q7 0 9 -4.5t5 -27.5q4 -32 4 -44q0 -8 -4 -11.5t-25 -15.5q-67 -37 -148 -37q-112 0 -179 55q-70 -55 -222 -55q-76 0 -111.5 44.5t-35.5 89.5q0 28 15 50.5t43.5 35.5 t56.5 22t68 13.5t61.5 6t53.5 2.5v64q0 45 -15 68.5t-55 23.5q-92 0 -156 -67q-6 -6 -11 -6q-11 0 -13 11q-7 56 -7 73q0 8 4.5 12t20.5 10q77 33 165 33q103 0 154 -41q57 41 149 41q100 0 148.5 -56.5t48.5 -157.5zM648 267q-1 23 -2 36.5t-6 35t-13 33.5t-23.5 21.5 t-37.5 9.5q-92 0 -100 -136h182zM346 122q-1 7 -3 12q-9 29 -13 65q-169 -9 -169 -75q0 -23 18.5 -43t52.5 -20q50 0 82 21t32 40z" />
<glyph unicode="&#xe7;" horiz-adv-x="489" d="M457 50q0 -8 -4 -11.5t-25 -14.5q-69 -35 -154 -35q-237 0 -237 241q0 245 242 245q49 0 79 -7t69 -25q24 -11 24 -21q0 -21 -12 -69q-3 -13 -13 -13q-6 0 -18 11q-30 25 -56 35.5t-72 10.5q-29 0 -50 -10t-32 -24t-17 -38.5t-7 -43.5t-1 -49q0 -27 0.5 -42.5t6 -42 t15.5 -41.5t31 -27t51 -12q83 0 146 56q10 10 16 10q12 0 12 -13q6 -39 6 -70zM332 -59q0 -3 -5 -16l-51 -121q-6 -13 -10 -15.5t-21 -2.5h-50q-10 0 -14.5 0.5t-8 3.5t-3.5 9q0 4 84 134q10 15 14.5 18t20.5 3h18q10 0 14.5 -0.5t8 -3.5t3.5 -9z" />
<glyph unicode="&#xe8;" horiz-adv-x="511" d="M479 260q0 -21 -8 -32t-16.5 -12.5t-23.5 -1.5h-272q1 -24 3.5 -41t10.5 -40t21 -37.5t37 -24.5t56 -10q84 0 151 58q11 10 17 10q7 0 9 -4.5t5 -27.5q4 -32 4 -44q0 -8 -5 -12.5t-24 -13.5q-76 -38 -161 -38q-120 0 -186 61.5t-66 182.5q0 116 60.5 179t178.5 63 q108 0 158.5 -57t50.5 -158zM368 267q-3 67 -23 101.5t-75 34.5q-103 0 -110 -136h208zM334 550q0 -9 -6 -11t-21 -2h-37l-159 129q-11 9 -11 15q0 9 6 11t21 2h82q15 0 19 -2t11 -10l86 -117q9 -11 9 -15z" />
<glyph unicode="&#xe9;" horiz-adv-x="511" d="M479 260q0 -21 -8 -32t-16.5 -12.5t-23.5 -1.5h-272q1 -24 3.5 -41t10.5 -40t21 -37.5t37 -24.5t56 -10q84 0 151 58q11 10 17 10q7 0 9 -4.5t5 -27.5q4 -32 4 -44q0 -8 -5 -12.5t-24 -13.5q-76 -38 -161 -38q-120 0 -186 61.5t-66 182.5q0 116 60.5 179t178.5 63 q108 0 158.5 -57t50.5 -158zM368 267q-3 67 -23 101.5t-75 34.5q-103 0 -110 -136h208zM412 681q0 -6 -11 -15l-159 -129h-37q-10 0 -14.5 0.5t-8.5 3.5t-4 9q0 4 9 15l86 117q7 8 11 10t19 2h82q10 0 14.5 -0.5t8.5 -3.5t4 -9z" />
<glyph unicode="&#xea;" horiz-adv-x="511" d="M479 260q0 -21 -8 -32t-16.5 -12.5t-23.5 -1.5h-272q1 -24 3.5 -41t10.5 -40t21 -37.5t37 -24.5t56 -10q84 0 151 58q11 10 17 10q7 0 9 -4.5t5 -27.5q4 -32 4 -44q0 -8 -5 -12.5t-24 -13.5q-76 -38 -161 -38q-120 0 -186 61.5t-66 182.5q0 116 60.5 179t178.5 63 q108 0 158.5 -57t50.5 -158zM368 267q-3 67 -23 101.5t-75 34.5q-103 0 -110 -136h208zM418 556q2 -3 2 -6.5t-2 -7.5q-4 -7 -11 -7h-47q-4 1 -6 2l-98 101l-98 -101l-6 -2h-47q-7 0 -11 7q-1 3 -1 5q0 4 2 7l98 139q3 4 9 4h111q6 0 9 -4z" />
<glyph unicode="&#xeb;" horiz-adv-x="511" d="M479 260q0 -21 -8 -32t-16.5 -12.5t-23.5 -1.5h-272q1 -24 3.5 -41t10.5 -40t21 -37.5t37 -24.5t56 -10q84 0 151 58q11 10 17 10q7 0 9 -4.5t5 -27.5q4 -32 4 -44q0 -8 -5 -12.5t-24 -13.5q-76 -38 -161 -38q-120 0 -186 61.5t-66 182.5q0 116 60.5 179t178.5 63 q108 0 158.5 -57t50.5 -158zM368 267q-3 67 -23 101.5t-75 34.5q-103 0 -110 -136h208zM201 607q0 -23 -8.5 -33t-34.5 -10h-46q-26 0 -34.5 10.5t-8.5 32.5v17q0 24 9 33.5t34 9.5h46q26 0 34.5 -9.5t8.5 -33.5v-17zM443 607q0 -23 -8.5 -33t-34.5 -10h-46 q-26 0 -34.5 10.5t-8.5 32.5v17q0 24 9 33.5t34 9.5h46q26 0 34.5 -9.5t8.5 -33.5v-17z" />
<glyph unicode="&#xec;" horiz-adv-x="256" d="M194 48q0 -27 -10 -37.5t-38 -10.5h-37q-28 0 -38 10.5t-10 37.5v362q0 28 10.5 38t37.5 10h37q29 0 38.5 -11t9.5 -37v-362zM194 550q0 -9 -6 -11t-21 -2h-37l-159 129q-11 9 -11 15q0 9 6 11t21 2h82q15 0 19 -2t11 -10l86 -117q9 -11 9 -15z" />
<glyph unicode="&#xed;" horiz-adv-x="256" d="M194 48q0 -27 -10 -37.5t-38 -10.5h-37q-28 0 -38 10.5t-10 37.5v362q0 28 10.5 38t37.5 10h37q29 0 38.5 -11t9.5 -37v-362zM295 681q0 -6 -11 -15l-159 -129h-37q-10 0 -14.5 0.5t-8.5 3.5t-4 9q0 4 9 15l86 117q7 8 11 10t19 2h82q10 0 14.5 -0.5t8.5 -3.5t4 -9z" />
<glyph unicode="&#xee;" horiz-adv-x="256" d="M194 48q0 -27 -10 -37.5t-38 -10.5h-37q-28 0 -38 10.5t-10 37.5v362q0 28 10.5 38t37.5 10h37q29 0 38.5 -11t9.5 -37v-362zM290 556q2 -3 2 -6.5t-2 -7.5q-4 -7 -11 -7h-47q-4 1 -6 2l-98 101l-98 -101l-6 -2h-47q-7 0 -11 7q-1 3 -1 5q0 4 2 7l98 139q3 4 9 4h111 q6 0 9 -4z" />
<glyph unicode="&#xef;" horiz-adv-x="256" d="M194 48q0 -27 -10 -37.5t-38 -10.5h-37q-28 0 -38 10.5t-10 37.5v362q0 28 10.5 38t37.5 10h37q29 0 38.5 -11t9.5 -37v-362zM73 607q0 -23 -8.5 -33t-34.5 -10h-46q-26 0 -34.5 10.5t-8.5 32.5v17q0 24 9 33.5t34 9.5h46q26 0 34.5 -9.5t8.5 -33.5v-17zM315 607 q0 -23 -8.5 -33t-34.5 -10h-46q-26 0 -34.5 10.5t-8.5 32.5v17q0 24 9 33.5t34 9.5h46q26 0 34.5 -9.5t8.5 -33.5v-17z" />
<glyph unicode="&#xf0;" d="M518 254q0 -27 -0.5 -43t-5 -47.5t-13.5 -51.5t-27 -46t-43 -41t-65 -25.5t-90 -10.5q-243 0 -243 236q0 126 62.5 188t181.5 62q26 0 52 -3q-38 64 -96 108l-97 -43q-8 -4 -16 -4q-15 0 -25.5 11.5t-10.5 26.5q0 22 22 32l51 23q-28 13 -59 21q-9 3 -9 12q0 5 20 22 l24 21q23 20 29 20q10 0 36 -9q46 -15 78 -34l90 40q8 4 16 4q15 0 25.5 -11.5t10.5 -26.5q0 -22 -22 -32l-49 -22q81 -68 127 -167t46 -210zM382 232q0 29 -1 46.5t-6.5 44t-16.5 42t-32.5 27t-51.5 11.5q-31 0 -52 -11t-32 -25t-16.5 -40.5t-6 -43t-0.5 -46.5 q0 -31 0.5 -48t6.5 -44t16.5 -41t32 -25.5t52.5 -11.5q25 0 44 7t30.5 21t18.5 27.5t10 35.5t3.5 36.5t0.5 37.5z" />
<glyph unicode="&#xf1;" horiz-adv-x="561" d="M500 48q0 -27 -10 -37.5t-38 -10.5h-40q-29 0 -38.5 11t-9.5 37v275q0 40 -12 57t-46 17q-43 0 -76.5 -33.5t-33.5 -94.5v-221q0 -27 -10 -37.5t-38 -10.5h-40q-28 0 -38 10.5t-10 37.5v368q0 28 10.5 38t37.5 10h34q29 0 38.5 -11t9.5 -37v-50h1q7 14 17 28t29 33 t49.5 30.5t67.5 11.5q77 0 111.5 -33.5t34.5 -110.5v-277zM464 664q0 -41 -30.5 -77.5t-79.5 -36.5q-44 0 -98 37q-30 22 -47 22q-33 0 -38 -44q-1 -11 -6 -13t-21 -2h-18q-16 0 -21.5 2.5t-5.5 14.5q0 41 30.5 77.5t79.5 36.5q44 0 98 -37q30 -22 47 -22q33 0 38 44 q1 11 6 13t21 2h18q17 0 22 -2.5t5 -14.5z" />
<glyph unicode="&#xf2;" d="M518 225q0 -236 -244 -236q-243 0 -243 236q0 250 244 250q243 0 243 -250zM382 237q0 26 -0.5 40t-3.5 37t-10 36t-18 27t-30.5 20t-45.5 6t-45 -6.5t-30.5 -20.5t-18 -26.5t-9.5 -36t-3.5 -37t-0.5 -39.5q0 -32 1 -49t6.5 -44t16 -41t32 -25t52.5 -11t52 11t32 25 t16.5 41t6 44t0.5 49zM353 550q0 -9 -6 -11t-21 -2h-37l-159 129q-11 9 -11 15q0 9 6 11t21 2h82q15 0 19 -2t11 -10l86 -117q9 -11 9 -15z" />
<glyph unicode="&#xf3;" d="M518 225q0 -236 -244 -236q-243 0 -243 236q0 250 244 250q243 0 243 -250zM382 237q0 26 -0.5 40t-3.5 37t-10 36t-18 27t-30.5 20t-45.5 6t-45 -6.5t-30.5 -20.5t-18 -26.5t-9.5 -36t-3.5 -37t-0.5 -39.5q0 -32 1 -49t6.5 -44t16 -41t32 -25t52.5 -11t52 11t32 25 t16.5 41t6 44t0.5 49zM431 681q0 -6 -11 -15l-159 -129h-37q-10 0 -14.5 0.5t-8.5 3.5t-4 9q0 4 9 15l86 117q7 8 11 10t19 2h82q10 0 14.5 -0.5t8.5 -3.5t4 -9z" />
<glyph unicode="&#xf4;" d="M518 225q0 -236 -244 -236q-243 0 -243 236q0 250 244 250q243 0 243 -250zM382 237q0 26 -0.5 40t-3.5 37t-10 36t-18 27t-30.5 20t-45.5 6t-45 -6.5t-30.5 -20.5t-18 -26.5t-9.5 -36t-3.5 -37t-0.5 -39.5q0 -32 1 -49t6.5 -44t16 -41t32 -25t52.5 -11t52 11t32 25 t16.5 41t6 44t0.5 49zM437 556q2 -3 2 -6.5t-2 -7.5q-4 -7 -11 -7h-47q-4 1 -6 2l-98 101l-98 -101l-6 -2h-47q-7 0 -10 7q-2 3 -2 5q0 4 2 7l98 139q3 4 9 4h111q6 0 9 -4z" />
<glyph unicode="&#xf5;" d="M518 225q0 -236 -244 -236q-243 0 -243 236q0 250 244 250q243 0 243 -250zM382 237q0 26 -0.5 40t-3.5 37t-10 36t-18 27t-30.5 20t-45.5 6t-45 -6.5t-30.5 -20.5t-18 -26.5t-9.5 -36t-3.5 -37t-0.5 -39.5q0 -32 1 -49t6.5 -44t16 -41t32 -25t52.5 -11t52 11t32 25 t16.5 41t6 44t0.5 49zM458 664q0 -41 -30.5 -77.5t-79.5 -36.5q-44 0 -98 37q-30 22 -47 22q-33 0 -38 -44q-1 -11 -6 -13t-21 -2h-18q-16 0 -21.5 2.5t-5.5 14.5q0 41 30.5 77.5t79.5 36.5q44 0 98 -37q30 -22 47 -22q33 0 38 44q1 11 6 13t21 2h18q17 0 22 -2.5t5 -14.5z " />
<glyph unicode="&#xf6;" d="M518 225q0 -236 -244 -236q-243 0 -243 236q0 250 244 250q243 0 243 -250zM382 237q0 26 -0.5 40t-3.5 37t-10 36t-18 27t-30.5 20t-45.5 6t-45 -6.5t-30.5 -20.5t-18 -26.5t-9.5 -36t-3.5 -37t-0.5 -39.5q0 -32 1 -49t6.5 -44t16 -41t32 -25t52.5 -11t52 11t32 25 t16.5 41t6 44t0.5 49zM220 607q0 -23 -8.5 -33t-34.5 -10h-46q-26 0 -34.5 10.5t-8.5 32.5v17q0 24 9 33.5t34 9.5h46q26 0 34.5 -9.5t8.5 -33.5v-17zM462 607q0 -23 -8.5 -33t-34.5 -10h-46q-26 0 -34.5 10.5t-8.5 32.5v17q0 24 9 33.5t34 9.5h46q26 0 34.5 -9.5t8.5 -33.5 v-17z" />
<glyph unicode="&#xf7;" horiz-adv-x="856" d="M794 250q0 -42 -54 -42h-625q-54 0 -54 42t53 42h627q53 0 53 -42zM493 428q0 -20 -3.5 -23.5t-23.5 -3.5h-77q-19 0 -23 3.5t-4 23.5v77q0 19 4 23t23 4h77q20 0 23.5 -4t3.5 -23v-77zM493 -6q0 -20 -3.5 -23.5t-23.5 -3.5h-77q-19 0 -23 3.5t-4 23.5v77q0 19 4 23t23 4 h77q20 0 23.5 -4t3.5 -23v-77z" />
<glyph unicode="&#xf8;" d="M518 225q0 -236 -244 -236q-49 0 -88 9l-56 -98q-6 -11 -8.5 -14.5t-7.5 -9.5t-10 -7.5t-13 -1.5q-15 0 -25.5 10.5t-10.5 25.5q0 10 14 34l50 90q-88 55 -88 198q0 250 243 250q52 0 91 -11l58 104q13 24 35 24q15 0 25.5 -10.5t10.5 -25.5q0 -11 -9 -27l-54 -95 q87 -61 87 -209zM326 395q-24 8 -51 8q-36 0 -60.5 -12.5t-37 -27.5t-18.5 -43.5t-7 -45.5t-1 -48q0 -81 17 -112zM398 226q0 83 -17 119l-156 -278q23 -6 49 -6q36 0 60.5 11t37 24.5t18.5 40t7 42.5t1 47z" />
<glyph unicode="&#xf9;" horiz-adv-x="561" d="M500 48q0 -27 -10 -37.5t-38 -10.5h-37q-29 0 -38.5 11t-9.5 37v26q-47 -85 -145 -85q-83 0 -122.5 30t-39.5 107v284q0 28 10.5 38t37.5 10h40q29 0 38.5 -11t9.5 -37v-293q0 -41 10.5 -54t51.5 -13q51 0 78.5 35t27.5 88v237q0 27 10 37.5t38 10.5h40q29 0 38.5 -11 t9.5 -37v-362zM359 550q0 -9 -6 -11t-21 -2h-37l-159 129q-11 9 -11 15q0 9 6 11t21 2h82q15 0 19 -2t11 -10l86 -117q9 -11 9 -15z" />
<glyph unicode="&#xfa;" horiz-adv-x="561" d="M500 48q0 -27 -10 -37.5t-38 -10.5h-37q-29 0 -38.5 11t-9.5 37v26q-47 -85 -145 -85q-83 0 -122.5 30t-39.5 107v284q0 28 10.5 38t37.5 10h40q29 0 38.5 -11t9.5 -37v-293q0 -41 10.5 -54t51.5 -13q51 0 78.5 35t27.5 88v237q0 27 10 37.5t38 10.5h40q29 0 38.5 -11 t9.5 -37v-362zM437 681q0 -6 -11 -15l-159 -129h-37q-10 0 -14.5 0.5t-8.5 3.5t-4 9q0 4 9 15l86 117q7 8 11 10t19 2h82q10 0 14.5 -0.5t8.5 -3.5t4 -9z" />
<glyph unicode="&#xfb;" horiz-adv-x="561" d="M500 48q0 -27 -10 -37.5t-38 -10.5h-37q-29 0 -38.5 11t-9.5 37v26q-47 -85 -145 -85q-83 0 -122.5 30t-39.5 107v284q0 28 10.5 38t37.5 10h40q29 0 38.5 -11t9.5 -37v-293q0 -41 10.5 -54t51.5 -13q51 0 78.5 35t27.5 88v237q0 27 10 37.5t38 10.5h40q29 0 38.5 -11 t9.5 -37v-362zM443 556q2 -3 2 -6.5t-2 -7.5q-4 -7 -11 -7h-47q-4 1 -6 2l-98 101l-98 -101l-6 -2h-47q-7 0 -10 7q-2 3 -2 5q0 4 2 7l98 139q3 4 9 4h111q6 0 9 -4z" />
<glyph unicode="&#xfc;" horiz-adv-x="561" d="M500 48q0 -27 -10 -37.5t-38 -10.5h-37q-29 0 -38.5 11t-9.5 37v26q-47 -85 -145 -85q-83 0 -122.5 30t-39.5 107v284q0 28 10.5 38t37.5 10h40q29 0 38.5 -11t9.5 -37v-293q0 -41 10.5 -54t51.5 -13q51 0 78.5 35t27.5 88v237q0 27 10 37.5t38 10.5h40q29 0 38.5 -11 t9.5 -37v-362zM226 607q0 -23 -8.5 -33t-34.5 -10h-46q-26 0 -34.5 10.5t-8.5 32.5v17q0 24 9 33.5t34 9.5h46q26 0 34.5 -9.5t8.5 -33.5v-17zM468 607q0 -23 -8.5 -33t-34.5 -10h-46q-26 0 -34.5 10.5t-8.5 32.5v17q0 24 9 33.5t34 9.5h46q26 0 34.5 -9.5t8.5 -33.5v-17z " />
<glyph unicode="&#xfd;" horiz-adv-x="500" d="M473 431q0 -7 -5 -20l-163 -474q-5 -15 -15 -33.5t-31 -45.5t-56.5 -45t-78.5 -18q-68 0 -79 14q-2 3 -5.5 38t-3.5 43q0 15 13 15q3 0 10 -4q33 -21 67 -21q25 0 43 14t25 27.5t15 36.5q7 25 14 42l-189 416q-5 12 -5 16q0 26 39 26h26q36 0 49 -13.5t36 -64.5 q84 -187 89 -238h1q2 30 24 102.5t42 129.5t23 61q15 23 53 23h22q40 0 40 -27zM406 681q0 -6 -11 -15l-159 -129h-37q-10 0 -14.5 0.5t-8.5 3.5t-4 9q0 4 9 15l86 117q7 8 11 10t19 2h82q10 0 14.5 -0.5t8.5 -3.5t4 -9z" />
<glyph unicode="&#xfe;" horiz-adv-x="561" d="M523 231q0 -17 -0.5 -29.5t-4.5 -40t-11.5 -47.5t-23 -45t-37.5 -41t-56.5 -27.5t-78.5 -11.5q-69 0 -114 50v-185q0 -27 -10 -37.5t-38 -10.5h-40q-28 0 -38 10.5t-10 37.5v792q0 28 10.5 38t37.5 10h37q29 0 38.5 -11t9.5 -37v-235q61 58 148 58q181 0 181 -238z M387 229q0 162 -103 162q-51 0 -87 -33v-240q0 -15 3.5 -21.5t20.5 -18.5q23 -17 53 -17q113 0 113 168z" />
<glyph unicode="&#xff;" horiz-adv-x="500" d="M473 431q0 -7 -5 -20l-163 -474q-5 -15 -15 -33.5t-31 -45.5t-56.5 -45t-78.5 -18q-68 0 -79 14q-2 3 -5.5 38t-3.5 43q0 15 13 15q3 0 10 -4q33 -21 67 -21q25 0 43 14t25 27.5t15 36.5q7 25 14 42l-189 416q-5 12 -5 16q0 26 39 26h26q36 0 49 -13.5t36 -64.5 q84 -187 89 -238h1q2 30 24 102.5t42 129.5t23 61q15 23 53 23h22q40 0 40 -27zM195 607q0 -23 -8.5 -33t-34.5 -10h-46q-26 0 -34.5 10.5t-8.5 32.5v17q0 24 9 33.5t34 9.5h46q26 0 34.5 -9.5t8.5 -33.5v-17zM437 607q0 -23 -8.5 -33t-34.5 -10h-46q-26 0 -34.5 10.5 t-8.5 32.5v17q0 24 9 33.5t34 9.5h46q26 0 34.5 -9.5t8.5 -33.5v-17z" />
<glyph unicode="&#x100;" horiz-adv-x="733" d="M690 27q0 -27 -39 -27h-54q-33 0 -44.5 12t-22.5 43l-34 96h-277l-39 -111q-14 -40 -63 -40h-36q-39 0 -39 27q0 7 5 20l211 604q7 20 19.5 30t21.5 11.5t23 1.5h88q14 0 23 -1.5t21.5 -11.5t19.5 -30l211 -604q5 -13 5 -20zM466 237l-95 281q-7 20 -13 49h-1 q-8 -36 -36 -118l-72 -212h217zM566 793q0 -19 -4 -23t-23 -4h-343q-20 0 -23.5 4t-3.5 23v31q0 20 3.5 23.5t23.5 3.5h343q19 0 23 -3.5t4 -23.5v-31z" />
<glyph unicode="&#x101;" horiz-adv-x="525" d="M474 48q0 -27 -10 -37.5t-38 -10.5h-37q-29 0 -38.5 11t-9.5 37v20q-54 -79 -156 -79q-63 0 -103.5 44t-40.5 100q0 30 15 54.5t37 39.5t54 26t59 16.5t58.5 8.5t45.5 3.5t28 0.5v35q0 47 -15.5 69.5t-54.5 22.5q-91 0 -155 -67q-6 -6 -11 -6q-11 0 -13 11q-7 56 -7 73 q0 8 5 12t21 11q77 32 164 32q202 0 202 -159v-268zM338 154v87l-29 -2q-14 -1 -41 -7.5t-46.5 -17t-35 -31t-15.5 -48.5q0 -30 19.5 -52t49.5 -22q5 0 12 0.5t23.5 5.5t29 14t23 28t10.5 45zM462 600q0 -20 -4 -23.5t-23 -3.5h-343q-20 0 -23.5 3.5t-3.5 23.5v31 q0 19 3.5 23t23.5 4h343q19 0 23 -4t4 -23v-31z" />
<glyph unicode="&#x102;" horiz-adv-x="733" d="M690 27q0 -27 -39 -27h-54q-33 0 -44.5 12t-22.5 43l-34 96h-277l-39 -111q-14 -40 -63 -40h-36q-39 0 -39 27q0 7 5 20l211 604q7 20 19.5 30t21.5 11.5t23 1.5h88q14 0 23 -1.5t21.5 -11.5t19.5 -30l211 -604q5 -13 5 -20zM466 237l-95 281q-7 20 -13 49h-1 q-8 -36 -36 -118l-72 -212h217zM556 860q0 -104 -189 -104q-188 0 -188 104q0 18 11 28t25 10q6 0 12 -1.5t14.5 -10.5t9.5 -24q26 -13 117 -13q90 0 116 13q1 15 9.5 24t14.5 10.5t12 1.5q13 0 24.5 -10t11.5 -28z" />
<glyph unicode="&#x103;" horiz-adv-x="525" d="M474 48q0 -27 -10 -37.5t-38 -10.5h-37q-29 0 -38.5 11t-9.5 37v20q-54 -79 -156 -79q-63 0 -103.5 44t-40.5 100q0 30 15 54.5t37 39.5t54 26t59 16.5t58.5 8.5t45.5 3.5t28 0.5v35q0 47 -15.5 69.5t-54.5 22.5q-91 0 -155 -67q-6 -6 -11 -6q-11 0 -13 11q-7 56 -7 73 q0 8 5 12t21 11q77 32 164 32q202 0 202 -159v-268zM338 154v87l-29 -2q-14 -1 -41 -7.5t-46.5 -17t-35 -31t-15.5 -48.5q0 -30 19.5 -52t49.5 -22q5 0 12 0.5t23.5 5.5t29 14t23 28t10.5 45zM452 649q0 -104 -189 -104q-188 0 -188 104q0 18 11 28t25 10q6 0 12 -1.5 t14.5 -10.5t9.5 -24q26 -13 117 -13q90 0 116 13q1 15 9.5 24t14.5 10.5t12 1.5q13 0 24.5 -10t11.5 -28z" />
<glyph unicode="&#x104;" horiz-adv-x="733" d="M736 -162q0 -14 -9 -19q-62 -32 -116 -32q-52 0 -80 28t-28 73q0 66 56 120q-15 7 -29 47l-34 96h-277l-39 -111q-14 -40 -63 -40h-36q-39 0 -39 27q0 7 5 20l211 604q7 20 19.5 30t21.5 11.5t23 1.5h88q14 0 23 -1.5t21.5 -11.5t19.5 -30l211 -604q5 -13 5 -20 q0 -27 -40 -27q-48 -29 -48 -88q0 -36 39 -38q11 0 64 12q5 2 12 -2.5t8 -9.5zM466 237l-95 281q-7 20 -13 49h-1q-8 -36 -36 -118l-72 -212h217z" />
<glyph unicode="&#x105;" horiz-adv-x="525" d="M512 -162q0 -14 -9 -19q-62 -32 -116 -32q-52 0 -80 28t-28 73q0 31 19.5 67t46.5 63q-4 8 -4 30v20q-54 -79 -156 -79q-63 0 -103.5 44t-40.5 100q0 30 15 54.5t37 39.5t54 26t59 16.5t58.5 8.5t45.5 3.5t28 0.5v35q0 47 -15.5 69.5t-54.5 22.5q-91 0 -155 -67 q-6 -6 -11 -6q-11 0 -13 11q-7 56 -7 73q0 8 5 12t21 11q77 32 164 32q202 0 202 -159v-268q0 -27 -10 -37.5t-38 -10.5q-48 -29 -48 -88q0 -36 39 -38q11 0 64 12q5 2 12 -2.5t8 -9.5zM338 154v87l-29 -2q-14 -1 -41 -7.5t-46.5 -17t-35 -31t-15.5 -48.5q0 -30 19.5 -52 t49.5 -22q5 0 12 0.5t23.5 5.5t29 14t23 28t10.5 45z" />
<glyph unicode="&#x106;" horiz-adv-x="703" d="M646 58q0 -8 -6 -12q-59 -34 -102 -46q-40 -11 -111 -11q-183 0 -274 90q-92 91 -92 268q0 178 92 269q93 90 274 90q56 0 101 -8t98 -28q8 -4 8 -14l-19 -107q-2 -10 -13 -10q-5 0 -8 3q-37 34 -77 49t-90 15q-110 0 -164 -64q-55 -65 -55 -195t55 -195q55 -63 164 -63 q66 0 102 12q39 13 89 52q6 2 8 2q12 0 12 -11zM586 862l-218 -106h-67q-12 0 -17 6q-1 1 -1 4q0 4 6 10l127 109h161q13 0 17 -9v-4q0 -6 -8 -10z" />
<glyph unicode="&#x107;" horiz-adv-x="489" d="M457 50q0 -8 -4 -11.5t-25 -14.5q-69 -35 -154 -35q-237 0 -237 241q0 245 242 245q49 0 79 -7t69 -25q24 -11 24 -21q0 -21 -12 -69q-3 -13 -13 -13q-6 0 -18 11q-30 25 -56 35.5t-72 10.5q-29 0 -50 -10t-32 -24t-17 -38.5t-7 -43.5t-1 -49q0 -27 0.5 -42.5t6 -42 t15.5 -41.5t31 -27t51 -12q83 0 146 56q10 10 16 10q12 0 12 -13q6 -39 6 -70zM425 681q0 -6 -11 -15l-159 -129h-37q-10 0 -14.5 0.5t-8.5 3.5t-4 9q0 4 9 15l86 117q7 8 11 10t19 2h82q10 0 14.5 -0.5t8.5 -3.5t4 -9z" />
<glyph unicode="&#x108;" horiz-adv-x="703" d="M646 58q0 -8 -6 -12q-59 -34 -102 -46q-40 -11 -111 -11q-183 0 -274 90q-92 91 -92 268q0 178 92 269q93 90 274 90q56 0 101 -8t98 -28q8 -4 8 -14l-19 -107q-2 -10 -13 -10q-5 0 -8 3q-37 34 -77 49t-90 15q-110 0 -164 -64q-55 -65 -55 -195t55 -195q55 -63 164 -63 q66 0 102 12q39 13 89 52q6 2 8 2q12 0 12 -11zM559 768q4 -3 4 -8q0 -2 -1 -6q-4 -8 -12 -8h-47l-5 1l-112 81l-112 -81l-5 -1h-47q-8 0 -11 8q-1 2 -1 4q0 5 4 8l110 104q3 3 8 3h111q5 0 8 -3z" />
<glyph unicode="&#x109;" horiz-adv-x="489" d="M457 50q0 -8 -4 -11.5t-25 -14.5q-69 -35 -154 -35q-237 0 -237 241q0 245 242 245q49 0 79 -7t69 -25q24 -11 24 -21q0 -21 -12 -69q-3 -13 -13 -13q-6 0 -18 11q-30 25 -56 35.5t-72 10.5q-29 0 -50 -10t-32 -24t-17 -38.5t-7 -43.5t-1 -49q0 -27 0.5 -42.5t6 -42 t15.5 -41.5t31 -27t51 -12q83 0 146 56q10 10 16 10q12 0 12 -13q6 -39 6 -70zM431 556q2 -3 2 -6.5t-2 -7.5q-4 -7 -11 -7h-47q-4 1 -6 2l-98 101l-98 -101l-6 -2h-47q-7 0 -10 7q-2 3 -2 5q0 4 2 7l98 139q3 4 9 4h111q6 0 9 -4z" />
<glyph unicode="&#x10a;" horiz-adv-x="703" d="M646 58q0 -8 -6 -12q-59 -34 -102 -46q-40 -11 -111 -11q-183 0 -274 90q-92 91 -92 268q0 178 92 269q93 90 274 90q56 0 101 -8t98 -28q8 -4 8 -14l-19 -107q-2 -10 -13 -10q-5 0 -8 3q-37 34 -77 49t-90 15q-110 0 -164 -64q-55 -65 -55 -195t55 -195q55 -63 164 -63 q66 0 102 12q39 13 89 52q6 2 8 2q12 0 12 -11zM460 794q0 -25 -9.5 -36.5t-38.5 -11.5h-51q-30 0 -39 11.5t-9 36.5v19q0 27 10 37.5t38 10.5h51q29 0 38.5 -11t9.5 -37v-19z" />
<glyph unicode="&#x10b;" horiz-adv-x="489" d="M457 50q0 -8 -4 -11.5t-25 -14.5q-69 -35 -154 -35q-237 0 -237 241q0 245 242 245q49 0 79 -7t69 -25q24 -11 24 -21q0 -21 -12 -69q-3 -13 -13 -13q-6 0 -18 11q-30 25 -56 35.5t-72 10.5q-29 0 -50 -10t-32 -24t-17 -38.5t-7 -43.5t-1 -49q0 -27 0.5 -42.5t6 -42 t15.5 -41.5t31 -27t51 -12q83 0 146 56q10 10 16 10q12 0 12 -13q6 -39 6 -70zM342 606q0 -25 -9.5 -36.5t-38.5 -11.5h-51q-30 0 -39 11.5t-9 36.5v19q0 27 10 37.5t38 10.5h51q29 0 38.5 -11t9.5 -37v-19z" />
<glyph unicode="&#x10c;" horiz-adv-x="703" d="M646 58q0 -8 -6 -12q-59 -34 -102 -46q-40 -11 -111 -11q-183 0 -274 90q-92 91 -92 268q0 178 92 269q93 90 274 90q56 0 101 -8t98 -28q8 -4 8 -14l-19 -107q-2 -10 -13 -10q-5 0 -8 3q-37 34 -77 49t-90 15q-110 0 -164 -64q-55 -65 -55 -195t55 -195q55 -63 164 -63 q66 0 102 12q39 13 89 52q6 2 8 2q12 0 12 -11zM559 853l-110 -104q-3 -3 -8 -3h-111q-5 0 -8 3l-108 102q-4 3 -4 8q0 2 2 5q3 9 11 9h47l5 -1l112 -81l112 81l5 1h47q8 0 11 -7q1 -3 1 -5q0 -5 -4 -8z" />
<glyph unicode="&#x10d;" horiz-adv-x="489" d="M457 50q0 -8 -4 -11.5t-25 -14.5q-69 -35 -154 -35q-237 0 -237 241q0 245 242 245q49 0 79 -7t69 -25q24 -11 24 -21q0 -21 -12 -69q-3 -13 -13 -13q-6 0 -18 11q-30 25 -56 35.5t-72 10.5q-29 0 -50 -10t-32 -24t-17 -38.5t-7 -43.5t-1 -49q0 -27 0.5 -42.5t6 -42 t15.5 -41.5t31 -27t51 -12q83 0 146 56q10 10 16 10q12 0 12 -13q6 -39 6 -70zM431 678l-98 -139q-3 -4 -9 -4h-111q-6 0 -9 4l-96 137q-2 3 -2 6.5t2 7.5q4 7 11 7h47q4 -1 6 -2l98 -101l98 101l6 2h47q7 0 11 -7q1 -3 1 -5q0 -4 -2 -7z" />
<glyph unicode="&#x10e;" horiz-adv-x="794" d="M732 342q0 -158 -78 -250t-251 -92h-264q-28 0 -38 10.5t-10 37.5v598q0 28 10.5 38t37.5 10h264q175 0 260 -105q69 -87 69 -247zM588 342q0 43 -2.5 72t-15 69t-35 64.5t-66.5 42.5t-106 18h-128v-522h129q61 0 104.5 16.5t66.5 40t35.5 61.5t15 67t2.5 71zM471 853 l-110 -104q-3 -3 -8 -3h-111q-5 0 -8 3l-108 102q-4 3 -4 8q0 2 2 5q3 9 11 9h47l5 -1l112 -81l112 81l5 1h47q8 0 11 -7q1 -3 1 -5q0 -5 -4 -8z" />
<glyph unicode="&#x10f;" horiz-adv-x="561" d="M499 48q0 -27 -10 -37.5t-38 -10.5h-40q-26 0 -37 10t-11 37q-54 -58 -128 -58q-41 0 -73.5 11.5t-52.5 27.5t-35 41t-21.5 45t-10.5 47t-4.5 39t-0.5 28q0 17 0.5 29.5t4.5 39.5t11 47t22 45t36 41t54 27.5t75 11.5q74 0 126 -50v227q0 27 10 37.5t38 10.5h37 q29 0 38.5 -11t9.5 -37v-598zM363 125v241q-32 31 -78 31q-32 0 -54.5 -11.5t-33.5 -25.5t-16.5 -41t-6.5 -43.5t-1 -47.5t0.5 -47.5t6 -43t15.5 -40.5t30 -25t49 -11q32 0 60 18q20 14 24.5 22.5t4.5 23.5zM658 600q0 -17 -8 -29l-47 -75q-7 -11 -10.5 -13t-17.5 -2h-11 q-23 0 -23 11l14 41q3 7 8 21.5t8 21.5q-22 0 -26.5 3.5t-4.5 20.5v70q0 17 3.5 20.5t20.5 3.5h70q17 0 20.5 -3.5t3.5 -20.5v-70z" />
<glyph unicode="&#x110;" horiz-adv-x="794" d="M732 342q0 -158 -78 -250t-251 -92h-264q-28 0 -38 10.5t-10 37.5v249h-32q-15 0 -25.5 10.5t-10.5 25.5v28q0 15 10.5 25.5t25.5 10.5h32v249q0 28 10.5 38t37.5 10h264q175 0 260 -105q69 -87 69 -247zM588 342q0 43 -2.5 72t-15 69t-35 64.5t-66.5 42.5t-106 18h-128 v-211h58q15 0 25.5 -10.5t10.5 -25.5v-28q0 -15 -10.5 -25.5t-25.5 -10.5h-58v-211h129q61 0 104.5 16.5t66.5 40t35.5 61.5t15 67t2.5 71z" />
<glyph unicode="&#x111;" horiz-adv-x="561" d="M590 562q0 -14 -10.5 -25t-25.5 -11h-55v-478q0 -27 -10 -37.5t-38 -10.5h-40q-26 0 -37 10t-11 37q-54 -58 -128 -58q-41 0 -73.5 11.5t-52.5 27.5t-35 41t-21.5 45t-10.5 47t-4.5 39t-0.5 28q0 17 0.5 29.5t4.5 39.5t11 47t22 45t36 41t54 27.5t75 11.5q74 0 126 -50 v107h-106q-14 0 -25 11t-11 25v28q0 15 11 25.5t25 10.5h106v20q0 27 10 37.5t38 10.5h37q29 0 38.5 -11t9.5 -37v-20h55q15 0 25.5 -10.5t10.5 -25.5v-28zM363 125v241q-32 31 -78 31q-32 0 -54.5 -11.5t-33.5 -25.5t-16.5 -41t-6.5 -43.5t-1 -47.5t0.5 -47.5t6 -43 t15.5 -40.5t30 -25t49 -11q32 0 60 18q20 14 24.5 22.5t4.5 23.5z" />
<glyph unicode="&#x112;" horiz-adv-x="642" d="M595 48q0 -27 -10 -37.5t-38 -10.5h-408q-28 0 -38 10.5t-10 37.5v595q0 28 10.5 38t37.5 10h393q29 0 38.5 -11t9.5 -37v-8q0 -17 -3.5 -27.5t-13 -14.5t-17 -5t-24.5 -1l-235 3h-49v-185h263q27 0 37.5 -10t10.5 -37q0 -28 -11.5 -37.5t-36.5 -9.5h-263v-205l146 2 l155 2q21 0 30.5 -1.5t17.5 -12.5t8 -34v-14zM520 793q0 -19 -4 -23t-23 -4h-343q-20 0 -23.5 4t-3.5 23v31q0 20 3.5 23.5t23.5 3.5h343q19 0 23 -3.5t4 -23.5v-31z" />
<glyph unicode="&#x113;" horiz-adv-x="511" d="M479 260q0 -21 -8 -32t-16.5 -12.5t-23.5 -1.5h-272q1 -24 3.5 -41t10.5 -40t21 -37.5t37 -24.5t56 -10q84 0 151 58q11 10 17 10q7 0 9 -4.5t5 -27.5q4 -32 4 -44q0 -8 -5 -12.5t-24 -13.5q-76 -38 -161 -38q-120 0 -186 61.5t-66 182.5q0 116 60.5 179t178.5 63 q108 0 158.5 -57t50.5 -158zM368 267q-3 67 -23 101.5t-75 34.5q-103 0 -110 -136h208zM455 600q0 -20 -3.5 -23.5t-23.5 -3.5h-343q-19 0 -23 3.5t-4 23.5v31q0 19 4 23t23 4h343q20 0 23.5 -4t3.5 -23v-31z" />
<glyph unicode="&#x114;" horiz-adv-x="642" d="M595 48q0 -27 -10 -37.5t-38 -10.5h-408q-28 0 -38 10.5t-10 37.5v595q0 28 10.5 38t37.5 10h393q29 0 38.5 -11t9.5 -37v-8q0 -17 -3.5 -27.5t-13 -14.5t-17 -5t-24.5 -1l-235 3h-49v-185h263q27 0 37.5 -10t10.5 -37q0 -28 -11.5 -37.5t-36.5 -9.5h-263v-205l146 2 l155 2q21 0 30.5 -1.5t17.5 -12.5t8 -34v-14zM510 860q0 -104 -189 -104q-188 0 -188 104q0 18 11 28t25 10q6 0 12 -1.5t14.5 -10.5t9.5 -24q26 -13 117 -13q90 0 116 13q1 15 9.5 24t14.5 10.5t12 1.5q13 0 24.5 -10t11.5 -28z" />
<glyph unicode="&#x115;" horiz-adv-x="511" d="M479 260q0 -21 -8 -32t-16.5 -12.5t-23.5 -1.5h-272q1 -24 3.5 -41t10.5 -40t21 -37.5t37 -24.5t56 -10q84 0 151 58q11 10 17 10q7 0 9 -4.5t5 -27.5q4 -32 4 -44q0 -8 -5 -12.5t-24 -13.5q-76 -38 -161 -38q-120 0 -186 61.5t-66 182.5q0 116 60.5 179t178.5 63 q108 0 158.5 -57t50.5 -158zM368 267q-3 67 -23 101.5t-75 34.5q-103 0 -110 -136h208zM445 649q0 -104 -189 -104q-188 0 -188 104q0 18 11 28t25 10q6 0 12 -1.5t14.5 -10.5t9.5 -24q26 -13 117 -13q90 0 116 13q1 15 9.5 24t14.5 10.5t12 1.5q13 0 24.5 -10t11.5 -28z " />
<glyph unicode="&#x116;" horiz-adv-x="642" d="M595 48q0 -27 -10 -37.5t-38 -10.5h-408q-28 0 -38 10.5t-10 37.5v595q0 28 10.5 38t37.5 10h393q29 0 38.5 -11t9.5 -37v-8q0 -17 -3.5 -27.5t-13 -14.5t-17 -5t-24.5 -1l-235 3h-49v-185h263q27 0 37.5 -10t10.5 -37q0 -28 -11.5 -37.5t-36.5 -9.5h-263v-205l146 2 l155 2q21 0 30.5 -1.5t17.5 -12.5t8 -34v-14zM394 794q0 -25 -9.5 -36.5t-38.5 -11.5h-51q-30 0 -39 11.5t-9 36.5v19q0 27 10 37.5t38 10.5h51q29 0 38.5 -11t9.5 -37v-19z" />
<glyph unicode="&#x117;" horiz-adv-x="511" d="M479 260q0 -21 -8 -32t-16.5 -12.5t-23.5 -1.5h-272q1 -24 3.5 -41t10.5 -40t21 -37.5t37 -24.5t56 -10q84 0 151 58q11 10 17 10q7 0 9 -4.5t5 -27.5q4 -32 4 -44q0 -8 -5 -12.5t-24 -13.5q-76 -38 -161 -38q-120 0 -186 61.5t-66 182.5q0 116 60.5 179t178.5 63 q108 0 158.5 -57t50.5 -158zM368 267q-3 67 -23 101.5t-75 34.5q-103 0 -110 -136h208zM329 606q0 -25 -9.5 -36.5t-38.5 -11.5h-51q-30 0 -39 11.5t-9 36.5v19q0 27 10 37.5t38 10.5h51q29 0 38.5 -11t9.5 -37v-19z" />
<glyph unicode="&#x118;" horiz-adv-x="642" d="M595 48q0 -27 -10 -37.5t-38 -10.5h-40q-47 -28 -47 -88q0 -36 39 -38q11 0 64 12q5 2 12 -2.5t8 -9.5l11 -36q0 -14 -9 -19q-62 -32 -116 -32q-52 0 -80 28t-28 73q0 66 47 112h-269q-28 0 -38 10.5t-10 37.5v595q0 28 10.5 38t37.5 10h393q29 0 38.5 -11t9.5 -37v-8 q0 -17 -3.5 -27.5t-13 -14.5t-17 -5t-24.5 -1l-235 3h-49v-185h263q27 0 37.5 -10t10.5 -37q0 -28 -11.5 -37.5t-36.5 -9.5h-263v-205l146 2l155 2q21 0 30.5 -1.5t17.5 -12.5t8 -34v-14z" />
<glyph unicode="&#x119;" horiz-adv-x="511" d="M479 260q0 -21 -8 -32t-16.5 -12.5t-23.5 -1.5h-272q1 -24 3.5 -41t10.5 -40t21 -37.5t37 -24.5t56 -10q84 0 151 58q11 10 17 10q7 0 9 -4.5t5 -27.5q4 -32 4 -44q0 -8 -5 -12.5t-24 -13.5q-39 -20 -73 -27q-49 -30 -49 -88q0 -36 39 -38q11 0 64 12q5 2 12 -2.5t8 -9.5 l11 -36q0 -14 -9 -19q-62 -32 -116 -32q-52 0 -80 28t-28 73q0 51 39 101q-110 5 -170.5 66.5t-60.5 177.5t60.5 179t178.5 63q108 0 158.5 -57t50.5 -158zM368 267q-3 67 -23 101.5t-75 34.5q-103 0 -110 -136h208z" />
<glyph unicode="&#x11a;" horiz-adv-x="642" d="M595 48q0 -27 -10 -37.5t-38 -10.5h-408q-28 0 -38 10.5t-10 37.5v595q0 28 10.5 38t37.5 10h393q29 0 38.5 -11t9.5 -37v-8q0 -17 -3.5 -27.5t-13 -14.5t-17 -5t-24.5 -1l-235 3h-49v-185h263q27 0 37.5 -10t10.5 -37q0 -28 -11.5 -37.5t-36.5 -9.5h-263v-205l146 2 l155 2q21 0 30.5 -1.5t17.5 -12.5t8 -34v-14zM493 853l-110 -104q-3 -3 -8 -3h-111q-5 0 -8 3l-108 102q-4 3 -4 8q0 2 2 5q3 9 11 9h47l5 -1l112 -81l112 81l5 1h47q8 0 11 -7q1 -3 1 -5q0 -5 -4 -8z" />
<glyph unicode="&#x11b;" horiz-adv-x="511" d="M479 260q0 -21 -8 -32t-16.5 -12.5t-23.5 -1.5h-272q1 -24 3.5 -41t10.5 -40t21 -37.5t37 -24.5t56 -10q84 0 151 58q11 10 17 10q7 0 9 -4.5t5 -27.5q4 -32 4 -44q0 -8 -5 -12.5t-24 -13.5q-76 -38 -161 -38q-120 0 -186 61.5t-66 182.5q0 116 60.5 179t178.5 63 q108 0 158.5 -57t50.5 -158zM368 267q-3 67 -23 101.5t-75 34.5q-103 0 -110 -136h208zM418 678l-98 -139q-3 -4 -9 -4h-111q-6 0 -9 4l-96 137q-2 3 -2 6.5t2 7.5q4 7 11 7h47q4 -1 6 -2l98 -101l98 101l6 2h47q7 0 10 -7q2 -3 2 -5q0 -4 -2 -7z" />
<glyph unicode="&#x11c;" horiz-adv-x="733" d="M658 50q0 -8 -7 -11q-106 -50 -224 -50q-183 0 -274 90q-92 91 -92 268q0 178 92 269q93 90 274 90q62 0 110 -12q48 -10 105 -38q7 -4 7 -14l-19 -106q-2 -11 -12 -11q-5 0 -9 4q-43 43 -83 59q-43 18 -99 18q-110 0 -164 -64q-55 -65 -55 -195t55 -195q55 -63 164 -63 q46 0 95 11v130h-83q-12 0 -12 13v69q0 13 12 13h207q12 0 12 -13v-262zM539 768q4 -3 4 -8q0 -2 -1 -6q-4 -8 -12 -8h-47l-5 1l-112 81l-112 -81l-5 -1h-47q-8 0 -11 8q-1 2 -1 4q0 5 4 8l110 104q3 3 8 3h111q5 0 8 -3z" />
<glyph unicode="&#x11d;" d="M534 405q0 -13 -13 -13q-6 0 -14 4q-41 11 -93 11q31 -38 31 -104q0 -165 -201 -165q-80 0 -127 26q-2 -12 -2 -15q0 -24 21 -45q14 -12 64 -12h48q39 0 58.5 -0.5t54 -3.5t53.5 -8.5t43 -16.5t36.5 -27.5t21.5 -41.5t9 -58q0 -142 -250 -142q-112 0 -171 27 q-42 19 -60 50.5t-18 61.5q0 61 67 88q-27 35 -27 79t27 81q-49 43 -49 123q0 165 201 165q89 0 142 -35q58 35 119 35q13 0 16 -3.5t6 -22.5q7 -35 7 -38zM317 304q0 25 -1.5 38.5t-8.5 28t-22.5 20.5t-40.5 6q-48 0 -60.5 -22t-12.5 -72q0 -25 1.5 -38.5t8.5 -28 t22.5 -20.5t40.5 -6q48 0 60.5 22t12.5 72zM421 -67q0 50 -123 50h-116q-16 0 -25 -1.5t-19 -12.5t-10 -33q0 -70 147 -70q146 0 146 67zM399 556q2 -3 2 -6.5t-2 -7.5q-4 -7 -11 -7h-47q-4 1 -6 2l-98 101l-98 -101l-6 -2h-47q-7 0 -10 7q-2 3 -2 5q0 4 2 7l98 139q3 4 9 4 h111q6 0 9 -4z" />
<glyph unicode="&#x11e;" horiz-adv-x="733" d="M658 50q0 -8 -7 -11q-106 -50 -224 -50q-183 0 -274 90q-92 91 -92 268q0 178 92 269q93 90 274 90q62 0 110 -12q48 -10 105 -38q7 -4 7 -14l-19 -106q-2 -11 -12 -11q-5 0 -9 4q-43 43 -83 59q-43 18 -99 18q-110 0 -164 -64q-55 -65 -55 -195t55 -195q55 -63 164 -63 q46 0 95 11v130h-83q-12 0 -12 13v69q0 13 12 13h207q12 0 12 -13v-262zM556 860q0 -104 -189 -104q-188 0 -188 104q0 18 11 28t25 10q6 0 12 -1.5t14.5 -10.5t9.5 -24q26 -13 117 -13q90 0 116 13q1 15 9.5 24t14.5 10.5t12 1.5q13 0 24.5 -10t11.5 -28z" />
<glyph unicode="&#x11f;" d="M534 405q0 -13 -13 -13q-6 0 -14 4q-41 11 -93 11q31 -38 31 -104q0 -165 -201 -165q-80 0 -127 26q-2 -12 -2 -15q0 -24 21 -45q14 -12 64 -12h48q39 0 58.5 -0.5t54 -3.5t53.5 -8.5t43 -16.5t36.5 -27.5t21.5 -41.5t9 -58q0 -142 -250 -142q-112 0 -171 27 q-42 19 -60 50.5t-18 61.5q0 61 67 88q-27 35 -27 79t27 81q-49 43 -49 123q0 165 201 165q89 0 142 -35q58 35 119 35q13 0 16 -3.5t6 -22.5q7 -35 7 -38zM317 304q0 25 -1.5 38.5t-8.5 28t-22.5 20.5t-40.5 6q-48 0 -60.5 -22t-12.5 -72q0 -25 1.5 -38.5t8.5 -28 t22.5 -20.5t40.5 -6q48 0 60.5 22t12.5 72zM421 -67q0 50 -123 50h-116q-16 0 -25 -1.5t-19 -12.5t-10 -33q0 -70 147 -70q146 0 146 67zM426 649q0 -104 -189 -104q-188 0 -188 104q0 18 11 28t25 10q6 0 12 -1.5t14.5 -10.5t9.5 -24q26 -13 117 -13q90 0 116 13 q1 15 9.5 24t14.5 10.5t12 1.5q13 0 24.5 -10t11.5 -28z" />
<glyph unicode="&#x120;" horiz-adv-x="733" d="M658 50q0 -8 -7 -11q-106 -50 -224 -50q-183 0 -274 90q-92 91 -92 268q0 178 92 269q93 90 274 90q62 0 110 -12q48 -10 105 -38q7 -4 7 -14l-19 -106q-2 -11 -12 -11q-5 0 -9 4q-43 43 -83 59q-43 18 -99 18q-110 0 -164 -64q-55 -65 -55 -195t55 -195q55 -63 164 -63 q46 0 95 11v130h-83q-12 0 -12 13v69q0 13 12 13h207q12 0 12 -13v-262zM440 794q0 -25 -9.5 -36.5t-38.5 -11.5h-51q-30 0 -39 11.5t-9 36.5v19q0 27 10 37.5t38 10.5h51q29 0 38.5 -11t9.5 -37v-19z" />
<glyph unicode="&#x121;" d="M534 405q0 -13 -13 -13q-6 0 -14 4q-41 11 -93 11q31 -38 31 -104q0 -165 -201 -165q-80 0 -127 26q-2 -12 -2 -15q0 -24 21 -45q14 -12 64 -12h48q39 0 58.5 -0.5t54 -3.5t53.5 -8.5t43 -16.5t36.5 -27.5t21.5 -41.5t9 -58q0 -142 -250 -142q-112 0 -171 27 q-42 19 -60 50.5t-18 61.5q0 61 67 88q-27 35 -27 79t27 81q-49 43 -49 123q0 165 201 165q89 0 142 -35q58 35 119 35q13 0 16 -3.5t6 -22.5q7 -35 7 -38zM317 304q0 25 -1.5 38.5t-8.5 28t-22.5 20.5t-40.5 6q-48 0 -60.5 -22t-12.5 -72q0 -25 1.5 -38.5t8.5 -28 t22.5 -20.5t40.5 -6q48 0 60.5 22t12.5 72zM421 -67q0 50 -123 50h-116q-16 0 -25 -1.5t-19 -12.5t-10 -33q0 -70 147 -70q146 0 146 67zM310 606q0 -25 -9.5 -36.5t-38.5 -11.5h-51q-30 0 -39 11.5t-9 36.5v19q0 27 10 37.5t38 10.5h51q29 0 38.5 -11t9.5 -37v-19z" />
<glyph unicode="&#x122;" horiz-adv-x="733" d="M658 50q0 -8 -7 -11q-106 -50 -224 -50q-183 0 -274 90q-92 91 -92 268q0 178 92 269q93 90 274 90q62 0 110 -12q48 -10 105 -38q7 -4 7 -14l-19 -106q-2 -11 -12 -11q-5 0 -9 4q-43 43 -83 59q-43 18 -99 18q-110 0 -164 -64q-55 -65 -55 -195t55 -195q55 -63 164 -63 q46 0 95 11v130h-83q-12 0 -12 13v69q0 13 12 13h207q12 0 12 -13v-262zM426 -173q0 -17 -8 -29l-47 -75q-7 -11 -10.5 -13t-17.5 -2h-11q-23 0 -23 11l14 41q3 7 8 21.5t8 21.5q-22 0 -26.5 3.5t-4.5 20.5v70q0 17 3.5 20.5t20.5 3.5h70q17 0 20.5 -3.5t3.5 -20.5v-70z" />
<glyph unicode="&#x123;" d="M296 556q0 -17 -3.5 -20.5t-20.5 -3.5h-70q-17 0 -20.5 3.5t-3.5 20.5v70q0 17 8 29l47 75q7 11 10.5 13t17.5 2h11q23 0 23 -11l-14 -41q-3 -7 -8 -21.5t-8 -21.5q22 0 26.5 -3.5t4.5 -20.5v-70zM534 405q0 -13 -13 -13q-6 0 -14 4q-41 11 -93 11q31 -38 31 -104 q0 -165 -201 -165q-80 0 -127 26q-2 -12 -2 -15q0 -24 21 -45q14 -12 64 -12h48q39 0 58.5 -0.5t54 -3.5t53.5 -8.5t43 -16.5t36.5 -27.5t21.5 -41.5t9 -58q0 -142 -250 -142q-112 0 -171 27q-42 19 -60 50.5t-18 61.5q0 61 67 88q-27 35 -27 79t27 81q-49 43 -49 123 q0 165 201 165q89 0 142 -35q58 35 119 35q13 0 16 -3.5t6 -22.5q7 -35 7 -38zM317 304q0 25 -1.5 38.5t-8.5 28t-22.5 20.5t-40.5 6q-48 0 -60.5 -22t-12.5 -72q0 -25 1.5 -38.5t8.5 -28t22.5 -20.5t40.5 -6q48 0 60.5 22t12.5 72zM421 -67q0 50 -123 50h-116 q-16 0 -25 -1.5t-19 -12.5t-10 -33q0 -70 147 -70q146 0 146 67z" />
<glyph unicode="&#x124;" horiz-adv-x="794" d="M702 48q0 -27 -10 -37.5t-38 -10.5h-51q-29 0 -38.5 11t-9.5 37v266h-317v-266q0 -27 -10 -37.5t-38 -10.5h-51q-28 0 -38 10.5t-10 37.5v598q0 28 10.5 38t37.5 10h51q29 0 38.5 -11t9.5 -37v-238h317v238q0 27 10 37.5t38 10.5h51q29 0 38.5 -11t9.5 -37v-598zM569 768 q4 -3 4 -8q0 -2 -1 -6q-4 -8 -12 -8h-47l-5 1l-112 81l-112 -81l-5 -1h-47q-8 0 -11 8q-1 2 -1 4q0 5 4 8l110 104q3 3 8 3h111q5 0 8 -3z" />
<glyph unicode="&#x125;" horiz-adv-x="561" d="M500 48q0 -27 -10 -37.5t-38 -10.5h-40q-29 0 -38.5 11t-9.5 37v275q0 40 -12 57t-46 17q-43 0 -76.5 -33.5t-33.5 -94.5v-221q0 -27 -10 -37.5t-38 -10.5h-40q-28 0 -38 10.5t-10 37.5v598q0 28 10.5 38t37.5 10h37q29 0 38.5 -11t9.5 -37v-274h1q10 20 25.5 38.5 t52 38.5t82.5 20q77 0 111.5 -33.5t34.5 -110.5v-277zM453 768q4 -3 4 -8q0 -2 -1 -6q-4 -8 -12 -8h-47l-5 1l-112 81l-112 -81l-5 -1h-47q-8 0 -11 8q-1 2 -1 4q0 5 4 8l110 104q3 3 8 3h111q5 0 8 -3z" />
<glyph unicode="&#x126;" horiz-adv-x="794" d="M793 507q0 -15 -10.5 -25.5t-25.5 -10.5h-55v-423q0 -27 -10 -37.5t-38 -10.5h-51q-29 0 -38.5 11t-9.5 37v266h-317v-266q0 -27 -10 -37.5t-38 -10.5h-51q-28 0 -38 10.5t-10 37.5v423h-55q-15 0 -25.5 10.5t-10.5 25.5v28q0 15 10.5 25.5t25.5 10.5h55v75q0 28 10.5 38 t37.5 10h51q29 0 38.5 -11t9.5 -37v-75h317v75q0 27 10 37.5t38 10.5h51q29 0 38.5 -11t9.5 -37v-75h55q15 0 25.5 -10.5t10.5 -25.5v-28zM555 408v63h-317v-63h317z" />
<glyph unicode="&#x127;" horiz-adv-x="561" d="M500 48q0 -27 -10 -37.5t-38 -10.5h-40q-29 0 -38.5 11t-9.5 37v275q0 40 -12 57t-46 17q-43 0 -76.5 -33.5t-33.5 -94.5v-221q0 -27 -10 -37.5t-38 -10.5h-40q-28 0 -38 10.5t-10 37.5v478h-55q-15 0 -25.5 11t-10.5 25v28q0 15 10.5 25.5t25.5 10.5h55v20q0 28 10.5 38 t37.5 10h37q29 0 38.5 -11t9.5 -37v-20h52q14 0 25 -10.5t11 -25.5v-28q0 -14 -11 -25t-25 -11h-52v-154h1q10 20 25.5 38.5t52 38.5t82.5 20q77 0 111.5 -33.5t34.5 -110.5v-277z" />
<glyph unicode="&#x128;" horiz-adv-x="331" d="M239 48q0 -27 -10 -37.5t-38 -10.5h-51q-28 0 -38 10.5t-10 37.5v598q0 28 10.5 38t37.5 10h51q29 0 38.5 -11t9.5 -37v-598zM348 860q0 -41 -30.5 -77.5t-79.5 -36.5q-44 0 -98 37q-30 22 -47 22q-33 0 -38 -44q-1 -11 -6 -13t-21 -2h-18q-16 0 -21.5 2.5t-5.5 14.5 q0 41 30.5 77.5t79.5 36.5q44 0 98 -37q30 -22 47 -22q33 0 38 44q1 11 6 13t21 2h18q17 0 22 -2.5t5 -14.5z" />
<glyph unicode="&#x129;" horiz-adv-x="256" d="M194 48q0 -27 -10 -37.5t-38 -10.5h-37q-28 0 -38 10.5t-10 37.5v362q0 28 10.5 38t37.5 10h37q29 0 38.5 -11t9.5 -37v-362zM311 664q0 -41 -30.5 -77.5t-79.5 -36.5q-44 0 -98 37q-30 22 -47 22q-33 0 -38 -44q-1 -11 -6 -13t-21 -2h-18q-16 0 -21.5 2.5t-5.5 14.5 q0 41 30.5 77.5t79.5 36.5q44 0 98 -37q30 -22 47 -22q33 0 38 44q1 11 6 13t21 2h18q17 0 22 -2.5t5 -14.5z" />
<glyph unicode="&#x12a;" horiz-adv-x="331" d="M239 48q0 -27 -10 -37.5t-38 -10.5h-51q-28 0 -38 10.5t-10 37.5v598q0 28 10.5 38t37.5 10h51q29 0 38.5 -11t9.5 -37v-598zM364 793q0 -19 -4 -23t-23 -4h-343q-20 0 -23.5 4t-3.5 23v31q0 20 3.5 23.5t23.5 3.5h343q19 0 23 -3.5t4 -23.5v-31z" />
<glyph unicode="&#x12b;" horiz-adv-x="256" d="M194 48q0 -27 -10 -37.5t-38 -10.5h-37q-28 0 -38 10.5t-10 37.5v362q0 28 10.5 38t37.5 10h37q29 0 38.5 -11t9.5 -37v-362zM327 600q0 -20 -3.5 -23.5t-23.5 -3.5h-343q-19 0 -23 3.5t-4 23.5v31q0 19 4 23t23 4h343q20 0 23.5 -4t3.5 -23v-31z" />
<glyph unicode="&#x12c;" horiz-adv-x="331" d="M239 48q0 -27 -10 -37.5t-38 -10.5h-51q-28 0 -38 10.5t-10 37.5v598q0 28 10.5 38t37.5 10h51q29 0 38.5 -11t9.5 -37v-598zM354 860q0 -104 -189 -104q-188 0 -188 104q0 18 11 28t25 10q6 0 12 -1.5t14.5 -10.5t9.5 -24q26 -13 117 -13q90 0 116 13q1 15 9.5 24 t14.5 10.5t12 1.5q13 0 24.5 -10t11.5 -28z" />
<glyph unicode="&#x12d;" horiz-adv-x="256" d="M194 48q0 -27 -10 -37.5t-38 -10.5h-37q-28 0 -38 10.5t-10 37.5v362q0 28 10.5 38t37.5 10h37q29 0 38.5 -11t9.5 -37v-362zM317 649q0 -104 -189 -104q-188 0 -188 104q0 18 11 28t25 10q6 0 12 -1.5t14.5 -10.5t9.5 -24q26 -13 117 -13q90 0 116 13q1 15 9.5 24 t14.5 10.5t12 1.5q13 0 24.5 -10t11.5 -28z" />
<glyph unicode="&#x12e;" horiz-adv-x="331" d="M282 -162q0 -14 -9 -19q-62 -32 -116 -32q-52 0 -80 28t-28 73q0 73 58 118q-15 10 -15 42v598q0 28 10.5 38t37.5 10h51q29 0 38.5 -11t9.5 -37v-598q0 -27 -10 -37.5t-38 -10.5h-6q-37 -37 -37 -88q0 -36 39 -38q11 0 64 12q5 2 12 -2.5t8 -9.5z" />
<glyph unicode="&#x12f;" horiz-adv-x="256" d="M201 626q0 -22 -1 -31t-5 -19.5t-14 -14t-28 -3.5h-52q-27 0 -37 10t-10 35v46q0 28 11 37t37 9h51q18 0 28 -3.5t14 -14t5 -20t1 -31.5zM244 -162q0 -14 -9 -19q-62 -32 -116 -32q-52 0 -80 28t-28 73q0 76 62 121q-12 9 -12 39v362q0 28 10.5 38t37.5 10h37 q29 0 38.5 -11t9.5 -37v-362q0 -27 -10 -37.5t-37 -10.5q-37 -39 -37 -88q0 -36 39 -38q11 0 64 12q5 2 12 -2.5t8 -9.5z" />
<glyph unicode="&#x130;" horiz-adv-x="331" d="M239 48q0 -27 -10 -37.5t-38 -10.5h-51q-28 0 -38 10.5t-10 37.5v598q0 28 10.5 38t37.5 10h51q29 0 38.5 -11t9.5 -37v-598zM239 794q0 -25 -9.5 -36.5t-38.5 -11.5h-51q-30 0 -39 11.5t-9 36.5v19q0 27 10 37.5t38 10.5h51q29 0 38.5 -11t9.5 -37v-19z" />
<glyph unicode="&#x131;" horiz-adv-x="256" d="M194 48q0 -27 -10 -37.5t-38 -10.5h-37q-28 0 -38 10.5t-10 37.5v362q0 28 10.5 38t37.5 10h37q29 0 38.5 -11t9.5 -37v-362z" />
<glyph unicode="&#x134;" horiz-adv-x="519" d="M427 149q0 -84 -53.5 -127.5t-138.5 -43.5t-164 35q-15 6 -20 10t-5 10q0 2 2 17l7 36l6 35q4 19 14 19q6 0 16 -12q39 -50 104 -50q31 0 50.5 8.5t26.5 23t9 23.5t2 22v491q0 27 10 37.5t38 10.5h48q29 0 38.5 -11t9.5 -37v-497zM527 768q4 -3 4 -8q0 -2 -1 -6 q-4 -8 -12 -8h-47l-5 1l-112 81l-112 -81l-5 -1h-47q-8 0 -11 8q-1 2 -1 4q0 5 4 8l110 104q3 3 8 3h111q5 0 8 -3z" />
<glyph unicode="&#x135;" horiz-adv-x="286" d="M224 -32q0 -173 -149 -173q-47 0 -96.5 16.5t-49.5 30.5q0 4 11 32q7 19 9.5 23t8.5 4q2 0 10 -4q28 -18 63 -18q21 0 34.5 6t18.5 18t6 20t1 21v466q0 27 10 37.5t38 10.5h37q29 0 38.5 -11t9.5 -37v-442zM313 556q2 -3 2 -6.5t-2 -7.5q-4 -7 -11 -7h-47q-4 1 -6 2 l-98 101l-98 -101l-6 -2h-47q-7 0 -10 7q-2 3 -2 5q0 4 2 7l98 139q3 4 9 4h111q6 0 9 -4z" />
<glyph unicode="&#x136;" horiz-adv-x="764" d="M701 29q0 -20 -8 -24.5t-27 -4.5h-60q-34 0 -50 21l-224 300l-111 -105v-168q0 -27 -10 -37.5t-38 -10.5h-34q-28 0 -38 10.5t-10 37.5v598q0 28 10.5 38t37.5 10h34q29 0 38.5 -11t9.5 -37v-276l322 304q21 20 58 20h61q34 0 34 -21q0 -10 -12 -21l-263 -247zM441 -173 q0 -17 -8 -29l-47 -75q-7 -11 -10.5 -13t-17.5 -2h-11q-23 0 -23 11l14 41q3 7 8 21.5t8 21.5q-22 0 -26.5 3.5t-4.5 20.5v70q0 17 3.5 20.5t20.5 3.5h70q17 0 20.5 -3.5t3.5 -20.5v-70z" />
<glyph unicode="&#x137;" horiz-adv-x="531" d="M497 22q0 -22 -36 -22h-48q-22 0 -31 4.5t-22 20.5l-130 170l-47 -43v-104q0 -27 -10 -37.5t-38 -10.5h-18q-28 0 -38 10.5t-10 37.5v598q0 28 10.5 38t37.5 10h21q29 0 38.5 -11t9.5 -37v-343l144 134q23 21 60 21h58q34 0 34 -21q0 -8 -15 -22l-154 -143l174 -228 q10 -13 10 -22zM324 -173q0 -17 -8 -29l-47 -75q-7 -11 -10.5 -13t-17.5 -2h-11q-23 0 -23 11l14 41q3 7 8 21.5t8 21.5q-22 0 -26.5 3.5t-4.5 20.5v70q0 17 3.5 20.5t20.5 3.5h70q17 0 20.5 -3.5t3.5 -20.5v-70z" />
<glyph unicode="&#x139;" horiz-adv-x="581" d="M534 48q0 -27 -10 -37.5t-38 -10.5h-347q-28 0 -38 10.5t-10 37.5v598q0 28 10.5 38t37.5 10h51q29 0 38.5 -11t9.5 -37v-545l249 4q16 0 26.5 -4t14.5 -12t5 -14.5t1 -17.5v-9zM394 862l-218 -106h-67q-12 0 -17 6q-1 1 -1 4q0 4 6 10l127 109h161q13 0 17 -9v-4 q0 -6 -8 -10z" />
<glyph unicode="&#x13a;" horiz-adv-x="256" d="M194 48q0 -27 -10 -37.5t-38 -10.5h-37q-28 0 -38 10.5t-10 37.5v598q0 28 10.5 38t37.5 10h37q29 0 38.5 -11t9.5 -37v-598zM364 862l-218 -106h-67q-12 0 -17 6q-1 1 -1 4q0 4 6 10l127 109h161q13 0 17 -9v-4q0 -6 -8 -10z" />
<glyph unicode="&#x13b;" horiz-adv-x="581" d="M534 48q0 -27 -10 -37.5t-38 -10.5h-347q-28 0 -38 10.5t-10 37.5v598q0 28 10.5 38t37.5 10h51q29 0 38.5 -11t9.5 -37v-545l249 4q16 0 26.5 -4t14.5 -12t5 -14.5t1 -17.5v-9zM349 -173q0 -17 -8 -29l-47 -75q-7 -11 -10.5 -13t-17.5 -2h-11q-23 0 -23 11l14 41 q3 7 8 21.5t8 21.5q-22 0 -26.5 3.5t-4.5 20.5v70q0 17 3.5 20.5t20.5 3.5h70q17 0 20.5 -3.5t3.5 -20.5v-70z" />
<glyph unicode="&#x13c;" horiz-adv-x="256" d="M194 48q0 -27 -10 -37.5t-38 -10.5h-37q-28 0 -38 10.5t-10 37.5v598q0 28 10.5 38t37.5 10h37q29 0 38.5 -11t9.5 -37v-598zM187 -173q0 -17 -8 -29l-47 -75q-7 -11 -10.5 -13t-17.5 -2h-11q-23 0 -23 11l14 41q3 7 8 21.5t8 21.5q-22 0 -26.5 3.5t-4.5 20.5v70 q0 17 3.5 20.5t20.5 3.5h70q17 0 20.5 -3.5t3.5 -20.5v-70z" />
<glyph unicode="&#x13d;" horiz-adv-x="581" d="M534 48q0 -27 -10 -37.5t-38 -10.5h-347q-28 0 -38 10.5t-10 37.5v598q0 28 10.5 38t37.5 10h51q29 0 38.5 -11t9.5 -37v-545l249 4q16 0 26.5 -4t14.5 -12t5 -14.5t1 -17.5v-9zM417 600q0 -17 -8 -29l-47 -75q-7 -11 -10.5 -13t-17.5 -2h-11q-23 0 -23 11l14 41 q3 7 8 21.5t8 21.5q-22 0 -26.5 3.5t-4.5 20.5v70q0 17 3.5 20.5t20.5 3.5h70q17 0 20.5 -3.5t3.5 -20.5v-70z" />
<glyph unicode="&#x13e;" horiz-adv-x="256" d="M194 48q0 -27 -10 -37.5t-38 -10.5h-37q-28 0 -38 10.5t-10 37.5v598q0 28 10.5 38t37.5 10h37q29 0 38.5 -11t9.5 -37v-598zM353 600q0 -17 -8 -29l-47 -75q-7 -11 -10.5 -13t-17.5 -2h-11q-23 0 -23 11l14 41q3 7 8 21.5t8 21.5q-22 0 -26.5 3.5t-4.5 20.5v70 q0 17 3.5 20.5t20.5 3.5h70q17 0 20.5 -3.5t3.5 -20.5v-70z" />
<glyph unicode="&#x13f;" horiz-adv-x="581" d="M534 48q0 -27 -10 -37.5t-38 -10.5h-347q-28 0 -38 10.5t-10 37.5v598q0 28 10.5 38t37.5 10h51q29 0 38.5 -11t9.5 -37v-545l249 4q16 0 26.5 -4t14.5 -12t5 -14.5t1 -17.5v-9zM528 359q0 -25 -9.5 -36.5t-38.5 -11.5h-51q-30 0 -39 11.5t-9 36.5v19q0 27 10 37.5 t38 10.5h51q29 0 38.5 -11t9.5 -37v-19z" />
<glyph unicode="&#x140;" horiz-adv-x="425" d="M194 48q0 -27 -10 -37.5t-38 -10.5h-37q-28 0 -38 10.5t-10 37.5v598q0 28 10.5 38t37.5 10h37q29 0 38.5 -11t9.5 -37v-598zM413 359q0 -25 -9.5 -36.5t-38.5 -11.5h-51q-30 0 -39 11.5t-9 36.5v19q0 27 10 37.5t38 10.5h51q29 0 38.5 -11t9.5 -37v-19z" />
<glyph unicode="&#x141;" horiz-adv-x="672" d="M626 48q0 -27 -10 -37.5t-38 -10.5h-347q-28 0 -38 10.5t-10 37.5v195l-48 -38q-8 -7 -16 -7q-11 0 -21 12l-26 34q-8 9 -8 17q0 11 12 20l107 85v280q0 28 10.5 38t37.5 10h51q29 0 38.5 -11t9.5 -37v-164l118 93q10 8 18 8q11 0 20 -12l26 -33q8 -9 8 -17 q0 -11 -12 -21l-178 -141v-258l249 4q16 0 26.5 -4t14.5 -12t5 -14.5t1 -17.5v-9z" />
<glyph unicode="&#x142;" horiz-adv-x="381" d="M367 541q8 -9 8 -22q0 -18 -14 -29l-111 -89v-353q0 -27 -10 -37.5t-38 -10.5h-37q-28 0 -38 10.5t-10 37.5v247l-42 -34q-13 -10 -28 -8t-25 14q-8 10 -8 23q0 18 14 29l89 71v256q0 28 10.5 38t37.5 10h37q29 0 38.5 -11t9.5 -37v-150l64 51q14 10 28.5 8t24.5 -14z " />
<glyph unicode="&#x143;" horiz-adv-x="794" d="M702 48q0 -27 -10 -37.5t-38 -10.5h-93q-50 0 -71 40l-275 533h-1v-525q0 -27 -10 -37.5t-38 -10.5h-27q-28 0 -38 10.5t-10 37.5v598q0 28 10.5 38t37.5 10h93q50 0 71 -40l275 -533h1v525q0 27 10 37.5t38 10.5h27q29 0 38.5 -11t9.5 -37v-598zM596 862l-218 -106h-67 q-12 0 -17 6q-1 1 -1 4q0 4 6 10l127 109h161q13 0 17 -9v-4q0 -6 -8 -10z" />
<glyph unicode="&#x144;" horiz-adv-x="561" d="M500 48q0 -27 -10 -37.5t-38 -10.5h-40q-29 0 -38.5 11t-9.5 37v275q0 40 -12 57t-46 17q-43 0 -76.5 -33.5t-33.5 -94.5v-221q0 -27 -10 -37.5t-38 -10.5h-40q-28 0 -38 10.5t-10 37.5v368q0 28 10.5 38t37.5 10h34q29 0 38.5 -11t9.5 -37v-50h1q7 14 17 28t29 33 t49.5 30.5t67.5 11.5q77 0 111.5 -33.5t34.5 -110.5v-277zM437 681q0 -6 -11 -15l-159 -129h-37q-10 0 -14.5 0.5t-8.5 3.5t-4 9q0 4 9 15l86 117q7 8 11 10t19 2h82q10 0 14.5 -0.5t8.5 -3.5t4 -9z" />
<glyph unicode="&#x145;" horiz-adv-x="794" d="M702 48q0 -27 -10 -37.5t-38 -10.5h-93q-50 0 -71 40l-275 533h-1v-525q0 -27 -10 -37.5t-38 -10.5h-27q-28 0 -38 10.5t-10 37.5v598q0 28 10.5 38t37.5 10h93q50 0 71 -40l275 -533h1v525q0 27 10 37.5t38 10.5h27q29 0 38.5 -11t9.5 -37v-598zM456 -173q0 -17 -8 -29 l-47 -75q-7 -11 -10.5 -13t-17.5 -2h-11q-23 0 -23 11l14 41q3 7 8 21.5t8 21.5q-22 0 -26.5 3.5t-4.5 20.5v70q0 17 3.5 20.5t20.5 3.5h70q17 0 20.5 -3.5t3.5 -20.5v-70z" />
<glyph unicode="&#x146;" horiz-adv-x="561" d="M500 48q0 -27 -10 -37.5t-38 -10.5h-40q-29 0 -38.5 11t-9.5 37v275q0 40 -12 57t-46 17q-43 0 -76.5 -33.5t-33.5 -94.5v-221q0 -27 -10 -37.5t-38 -10.5h-40q-28 0 -38 10.5t-10 37.5v368q0 28 10.5 38t37.5 10h34q29 0 38.5 -11t9.5 -37v-50h1q7 14 17 28t29 33 t49.5 30.5t67.5 11.5q77 0 111.5 -33.5t34.5 -110.5v-277zM340 -173q0 -17 -8 -29l-47 -75q-7 -11 -10.5 -13t-17.5 -2h-11q-23 0 -23 11l14 41q3 7 8 21.5t8 21.5q-22 0 -26.5 3.5t-4.5 20.5v70q0 17 3.5 20.5t20.5 3.5h70q17 0 20.5 -3.5t3.5 -20.5v-70z" />
<glyph unicode="&#x147;" horiz-adv-x="794" d="M702 48q0 -27 -10 -37.5t-38 -10.5h-93q-50 0 -71 40l-275 533h-1v-525q0 -27 -10 -37.5t-38 -10.5h-27q-28 0 -38 10.5t-10 37.5v598q0 28 10.5 38t37.5 10h93q50 0 71 -40l275 -533h1v525q0 27 10 37.5t38 10.5h27q29 0 38.5 -11t9.5 -37v-598zM569 853l-110 -104 q-3 -3 -8 -3h-111q-5 0 -8 3l-108 102q-4 3 -4 8q0 2 2 5q3 9 11 9h47l5 -1l112 -81l112 81l5 1h47q8 0 11 -7q1 -3 1 -5q0 -5 -4 -8z" />
<glyph unicode="&#x148;" horiz-adv-x="561" d="M500 48q0 -27 -10 -37.5t-38 -10.5h-40q-29 0 -38.5 11t-9.5 37v275q0 40 -12 57t-46 17q-43 0 -76.5 -33.5t-33.5 -94.5v-221q0 -27 -10 -37.5t-38 -10.5h-40q-28 0 -38 10.5t-10 37.5v368q0 28 10.5 38t37.5 10h34q29 0 38.5 -11t9.5 -37v-50h1q7 14 17 28t29 33 t49.5 30.5t67.5 11.5q77 0 111.5 -33.5t34.5 -110.5v-277zM443 678l-98 -139q-3 -4 -9 -4h-111q-6 0 -9 4l-96 137q-2 3 -2 6.5t2 7.5q4 7 11 7h47q4 -1 6 -2l98 -101l98 101l6 2h47q7 0 11 -7q1 -3 1 -5q0 -4 -2 -7z" />
<glyph unicode="&#x14a;" horiz-adv-x="794" d="M703 347q0 -134 -59.5 -238.5t-161.5 -125.5q-4 -1 -8 -1q-13 0 -24 10q-13 12 -13 31v46q0 31 44 56q74 39 74 222q0 233 -118 233q-70 0 -126.5 -34t-72.5 -90v-408q0 -27 -10 -37.5t-38 -10.5h-51q-28 0 -38 10.5t-10 37.5v598q0 28 10.5 38t37.5 10h51q25 0 35 -8 t12 -26q89 56 200 56q81 0 143 -53.5t92.5 -136.5t30.5 -179z" />
<glyph unicode="&#x14b;" horiz-adv-x="561" d="M500 48q0 -85 -40 -153t-106 -87q-5 -1 -10 -1q-11 0 -21 8q-14 12 -14 32v9l39 69q16 28 16 123v275q0 40 -12 57t-46 17q-43 0 -76.5 -33.5t-33.5 -94.5v-221q0 -27 -10 -37.5t-38 -10.5h-40q-28 0 -38 10.5t-10 37.5v368q0 28 10.5 38t37.5 10h34q29 0 38.5 -11 t9.5 -37v-50h1q7 14 17 28t29 33t49.5 30.5t67.5 11.5q77 0 111.5 -33.5t34.5 -110.5v-277z" />
<glyph unicode="&#x14c;" horiz-adv-x="794" d="M732 342q0 -364 -336 -364q-335 0 -335 364q0 374 336 374q335 0 335 -374zM585 358q0 28 -0.5 44.5t-4 49.5t-10 54.5t-20.5 49t-33.5 43.5t-50.5 27.5t-70 11.5t-69.5 -11.5t-50 -28t-33.5 -44t-20.5 -49t-10 -54t-4 -49.5t-0.5 -44q0 -28 0.5 -46t4 -53t10 -58 t20.5 -52.5t33.5 -47.5t50.5 -30.5t70 -12.5t69.5 12.5t50 30.5t33.5 47.5t20.5 53t10 58.5t4 52.5t0.5 45.5zM596 793q0 -19 -4 -23t-23 -4h-343q-20 0 -23.5 4t-3.5 23v31q0 20 3.5 23.5t23.5 3.5h343q19 0 23 -3.5t4 -23.5v-31z" />
<glyph unicode="&#x14d;" d="M518 225q0 -236 -244 -236q-243 0 -243 236q0 250 244 250q243 0 243 -250zM382 237q0 26 -0.5 40t-3.5 37t-10 36t-18 27t-30.5 20t-45.5 6t-45 -6.5t-30.5 -20.5t-18 -26.5t-9.5 -36t-3.5 -37t-0.5 -39.5q0 -32 1 -49t6.5 -44t16 -41t32 -25t52.5 -11t52 11t32 25 t16.5 41t6 44t0.5 49zM474 600q0 -20 -4 -23.5t-23 -3.5h-343q-20 0 -23.5 3.5t-3.5 23.5v31q0 19 3.5 23t23.5 4h343q19 0 23 -4t4 -23v-31z" />
<glyph unicode="&#x14e;" horiz-adv-x="794" d="M732 342q0 -364 -336 -364q-335 0 -335 364q0 374 336 374q335 0 335 -374zM585 358q0 28 -0.5 44.5t-4 49.5t-10 54.5t-20.5 49t-33.5 43.5t-50.5 27.5t-70 11.5t-69.5 -11.5t-50 -28t-33.5 -44t-20.5 -49t-10 -54t-4 -49.5t-0.5 -44q0 -28 0.5 -46t4 -53t10 -58 t20.5 -52.5t33.5 -47.5t50.5 -30.5t70 -12.5t69.5 12.5t50 30.5t33.5 47.5t20.5 53t10 58.5t4 52.5t0.5 45.5zM586 860q0 -104 -189 -104q-188 0 -188 104q0 18 11 28t25 10q6 0 12 -1.5t14.5 -10.5t9.5 -24q26 -13 117 -13q90 0 116 13q1 15 9.5 24t14.5 10.5t12 1.5 q13 0 24.5 -10t11.5 -28z" />
<glyph unicode="&#x14f;" d="M518 225q0 -236 -244 -236q-243 0 -243 236q0 250 244 250q243 0 243 -250zM382 237q0 26 -0.5 40t-3.5 37t-10 36t-18 27t-30.5 20t-45.5 6t-45 -6.5t-30.5 -20.5t-18 -26.5t-9.5 -36t-3.5 -37t-0.5 -39.5q0 -32 1 -49t6.5 -44t16 -41t32 -25t52.5 -11t52 11t32 25 t16.5 41t6 44t0.5 49zM464 649q0 -104 -189 -104q-188 0 -188 104q0 18 11 28t25 10q6 0 12 -1.5t14.5 -10.5t9.5 -24q26 -13 117 -13q90 0 116 13q1 15 9.5 24t14.5 10.5t12 1.5q13 0 24.5 -10t11.5 -28z" />
<glyph unicode="&#x150;" horiz-adv-x="794" d="M732 342q0 -364 -336 -364q-335 0 -335 364q0 374 336 374q335 0 335 -374zM585 358q0 28 -0.5 44.5t-4 49.5t-10 54.5t-20.5 49t-33.5 43.5t-50.5 27.5t-70 11.5t-69.5 -11.5t-50 -28t-33.5 -44t-20.5 -49t-10 -54t-4 -49.5t-0.5 -44q0 -28 0.5 -46t4 -53t10 -58 t20.5 -52.5t33.5 -47.5t50.5 -30.5t70 -12.5t69.5 12.5t50 30.5t33.5 47.5t20.5 53t10 58.5t4 52.5t0.5 45.5zM396 900q0 -4 -8 -16l-74 -114q-7 -10 -11 -12t-19 -2h-18q-10 0 -14.5 0.5t-8.5 3.5t-4 10l19 122q2 15 7 18t22 3h82q10 0 14.5 -0.5t8.5 -3.5t4 -9zM579 900 q0 -4 -8 -16l-74 -114q-7 -10 -11 -12t-19 -2h-18q-10 0 -14.5 0.5t-8.5 3.5t-4 10l19 122q2 15 6.5 18t22.5 3h82q10 0 14.5 -0.5t8.5 -3.5t4 -9z" />
<glyph unicode="&#x151;" d="M518 225q0 -236 -244 -236q-243 0 -243 236q0 250 244 250q243 0 243 -250zM382 237q0 26 -0.5 40t-3.5 37t-10 36t-18 27t-30.5 20t-45.5 6t-45 -6.5t-30.5 -20.5t-18 -26.5t-9.5 -36t-3.5 -37t-0.5 -39.5q0 -32 1 -49t6.5 -44t16 -41t32 -25t52.5 -11t52 11t32 25 t16.5 41t6 44t0.5 49zM274 681q0 -4 -8 -16l-74 -114q-7 -10 -11 -12t-19 -2h-18q-10 0 -14.5 0.5t-8.5 3.5t-4 10l19 122q2 15 7 18t22 3h82q10 0 14.5 -0.5t8.5 -3.5t4 -9zM457 681q0 -4 -8 -16l-74 -114q-7 -10 -11 -12t-19 -2h-18q-10 0 -14.5 0.5t-8.5 3.5t-4 10 l19 122q2 15 6.5 18t22.5 3h82q10 0 14.5 -0.5t8.5 -3.5t4 -9z" />
<glyph unicode="&#x152;" horiz-adv-x="1069" d="M1022 48q0 -27 -10 -37.5t-38 -10.5h-382q-35 0 -95 -11q-67 -11 -106 -11q-183 0 -272 93.5t-89 270.5q0 374 362 374q38 0 93 -10q74 -12 107 -12h367q29 0 38.5 -11t9.5 -37v-8q0 -17 -3.5 -27.5t-13 -14.5t-17 -5t-24.5 -1l-235 3h-50v-187h264q27 0 37.5 -10 t10.5 -37q0 -28 -11.5 -37.5t-36.5 -9.5h-264v-206l147 2l155 2q21 0 30.5 -1.5t17.5 -12.5t8 -34v-14zM519 235v112q0 174 -4 205q-7 54 -31 73t-84 19q-45 0 -81.5 -12t-59.5 -29.5t-40 -44.5t-25.5 -50.5t-13 -55t-5.5 -50.5t-1 -43q0 -309 227 -309q76 0 96.5 34.5 t21.5 150.5z" />
<glyph unicode="&#x153;" horiz-adv-x="856" d="M824 261q0 -28 -11.5 -37.5t-36.5 -9.5h-250q3 -70 28 -111.5t91 -41.5q81 0 139 58q10 10 16 10q7 0 9 -4.5t5 -27.5q4 -32 4 -44q0 -5 -1 -7.5t-7.5 -7t-19.5 -11.5q-69 -38 -150 -38q-112 0 -181 58q-61 -58 -181 -58q-247 0 -247 243t247 243q115 0 180 -56 q61 56 169 56q99 0 148 -56t49 -158zM710 267q-1 29 -3.5 47t-10 41.5t-25 35.5t-44.5 12q-94 0 -100 -136h183zM390 237q0 30 -1 46t-6.5 42.5t-16.5 40.5t-34 25.5t-55 11.5q-33 0 -56.5 -11.5t-34.5 -25.5t-17 -40.5t-7 -43t-1 -46.5t1 -47t7 -45t17 -43t34.5 -27.5 t56.5 -12.5q27 0 47.5 7t32 22.5t19 30t10.5 39t3.5 38.5t0.5 39z" />
<glyph unicode="&#x154;" horiz-adv-x="703" d="M653 30q0 -14 -6 -21t-12 -8t-19 -1h-59q-13 0 -19 1t-13.5 6t-14.5 17l-164 287h-111v-263q0 -27 -10 -37.5t-38 -10.5h-48q-28 0 -38 10.5t-10 37.5v598q0 28 10.5 38t37.5 10h240q16 0 29 -0.5t42 -4.5t51.5 -10.5t50 -21.5t46 -35t31 -52.5t12.5 -72.5 q0 -139 -158 -177zM502 496q0 56 -28 84t-109 28h-130v-225h130q84 0 110.5 29.5t26.5 83.5zM550 862l-218 -106h-67q-12 0 -17 6q-1 1 -1 4q0 4 6 10l127 109h161q13 0 17 -9v-4q0 -6 -8 -10z" />
<glyph unicode="&#x155;" horiz-adv-x="372" d="M356 395q0 -19 -3 -22.5t-17 -4.5q-55 -4 -98.5 -38.5t-43.5 -99.5v-182q0 -27 -10 -37.5t-38 -10.5h-37q-28 0 -38 10.5t-10 37.5v368q0 28 10.5 38t37.5 10h32q29 0 38.5 -11t9.5 -37v-65h1q16 38 38 63.5t44 36.5t37 14.5t29 3.5q13 0 15.5 -5t2.5 -22v-47zM295 681 q0 -6 -11 -15l-159 -129h-37q-10 0 -14.5 0.5t-8.5 3.5t-4 9q0 4 9 15l86 117q7 8 11 10t19 2h82q10 0 14.5 -0.5t8.5 -3.5t4 -9z" />
<glyph unicode="&#x156;" horiz-adv-x="703" d="M653 30q0 -14 -6 -21t-12 -8t-19 -1h-59q-13 0 -19 1t-13.5 6t-14.5 17l-164 287h-111v-263q0 -27 -10 -37.5t-38 -10.5h-48q-28 0 -38 10.5t-10 37.5v598q0 28 10.5 38t37.5 10h240q16 0 29 -0.5t42 -4.5t51.5 -10.5t50 -21.5t46 -35t31 -52.5t12.5 -72.5 q0 -139 -158 -177zM502 496q0 56 -28 84t-109 28h-130v-225h130q84 0 110.5 29.5t26.5 83.5zM410 -173q0 -17 -8 -29l-47 -75q-7 -11 -10.5 -13t-17.5 -2h-11q-23 0 -23 11l14 41q3 7 8 21.5t8 21.5q-22 0 -26.5 3.5t-4.5 20.5v70q0 17 3.5 20.5t20.5 3.5h70q17 0 20.5 -3.5 t3.5 -20.5v-70z" />
<glyph unicode="&#x157;" horiz-adv-x="372" d="M356 395q0 -19 -3 -22.5t-17 -4.5q-55 -4 -98.5 -38.5t-43.5 -99.5v-182q0 -27 -10 -37.5t-38 -10.5h-37q-28 0 -38 10.5t-10 37.5v368q0 28 10.5 38t37.5 10h32q29 0 38.5 -11t9.5 -37v-65h1q16 38 38 63.5t44 36.5t37 14.5t29 3.5q13 0 15.5 -5t2.5 -22v-47zM187 -173 q0 -17 -8 -29l-47 -75q-7 -11 -10.5 -13t-17.5 -2h-11q-23 0 -23 11l14 41q3 7 8 21.5t8 21.5q-22 0 -26.5 3.5t-4.5 20.5v70q0 17 3.5 20.5t20.5 3.5h70q17 0 20.5 -3.5t3.5 -20.5v-70z" />
<glyph unicode="&#x158;" horiz-adv-x="703" d="M653 30q0 -14 -6 -21t-12 -8t-19 -1h-59q-13 0 -19 1t-13.5 6t-14.5 17l-164 287h-111v-263q0 -27 -10 -37.5t-38 -10.5h-48q-28 0 -38 10.5t-10 37.5v598q0 28 10.5 38t37.5 10h240q16 0 29 -0.5t42 -4.5t51.5 -10.5t50 -21.5t46 -35t31 -52.5t12.5 -72.5 q0 -139 -158 -177zM502 496q0 56 -28 84t-109 28h-130v-225h130q84 0 110.5 29.5t26.5 83.5zM523 853l-110 -104q-3 -3 -8 -3h-111q-5 0 -8 3l-108 102q-4 3 -4 8q0 2 2 5q3 9 11 9h47l5 -1l112 -81l112 81l5 1h47q8 0 11 -7q1 -3 1 -5q0 -5 -4 -8z" />
<glyph unicode="&#x159;" horiz-adv-x="372" d="M356 395q0 -19 -3 -22.5t-17 -4.5q-55 -4 -98.5 -38.5t-43.5 -99.5v-182q0 -27 -10 -37.5t-38 -10.5h-37q-28 0 -38 10.5t-10 37.5v368q0 28 10.5 38t37.5 10h32q29 0 38.5 -11t9.5 -37v-65h1q16 38 38 63.5t44 36.5t37 14.5t29 3.5q13 0 15.5 -5t2.5 -22v-47zM348 678 l-98 -139q-3 -4 -9 -4h-111q-6 0 -9 4l-96 137q-2 3 -2 6.5t2 7.5q4 7 11 7h47q4 -1 6 -2l98 -101l98 101l6 2h47q7 0 10 -7q2 -3 2 -5q0 -4 -2 -7z" />
<glyph unicode="&#x15a;" horiz-adv-x="611" d="M549 200q0 -113 -64 -167.5t-180 -54.5q-74 0 -147 23l-6 2q-6 2 -13 5t-17.5 7t-19.5 9l-20 9q-10 5 -17 9.5t-11.5 9t-4.5 8.5q0 5 2 13l15 87q4 18 14 18q6 0 18 -12q88 -79 207 -79t119 97q0 38 -31 69q-15 14 -33.5 20.5t-66.5 17.5q-50 12 -71.5 18t-51 21.5 t-53.5 40.5q-56 59 -56 137q0 66 24.5 110.5t65.5 64t77 26.5t77 7q100 0 181 -40q19 -10 22.5 -13t3.5 -9q0 -5 -2 -13l-15 -87q-4 -18 -14 -18q-4 0 -21 16q-62 61 -155 61q-119 0 -119 -87q0 -37 28 -58t56 -27l96 -22q78 -18 130.5 -78t52.5 -141zM505 862l-218 -106 h-67q-12 0 -16 6q-2 1 -2 4q0 4 6 10l127 109h161q13 0 16 -9q1 -2 1 -4q0 -6 -8 -10z" />
<glyph unicode="&#x15b;" horiz-adv-x="422" d="M396 141q0 -152 -177 -152q-58 0 -113 17q-75 24 -75 42q0 6 6.5 41.5t7.5 39.5q3 15 13 15q6 0 14 -8q58 -69 147 -69q78 0 78 54q0 20 -15.5 33.5t-29 17t-35.5 7.5q-37 7 -53.5 11t-38.5 14t-39 25q-49 44 -49 103q0 143 179 143q54 0 98 -12q1 0 10.5 -3t17 -6 t16.5 -7t14.5 -8.5t5.5 -9.5q0 -21 -12 -69q-3 -13 -13 -13q-6 0 -16 10q-56 47 -129 47q-72 0 -72 -49q0 -18 14 -30t30.5 -16.5t50.5 -10.5q28 -5 41.5 -8.5t35 -14t40.5 -27.5q48 -43 48 -107zM367 681q0 -6 -11 -15l-159 -129h-37q-10 0 -14.5 0.5t-8.5 3.5t-4 9 q0 4 9 15l86 117q7 8 11 10t19 2h82q10 0 14.5 -0.5t8.5 -3.5t4 -9z" />
<glyph unicode="&#x15c;" horiz-adv-x="611" d="M549 200q0 -113 -64 -167.5t-180 -54.5q-74 0 -147 23l-6 2q-6 2 -13 5t-17.5 7t-19.5 9l-20 9q-10 5 -17 9.5t-11.5 9t-4.5 8.5q0 5 2 13l15 87q4 18 14 18q6 0 18 -12q88 -79 207 -79t119 97q0 38 -31 69q-15 14 -33.5 20.5t-66.5 17.5q-50 12 -71.5 18t-51 21.5 t-53.5 40.5q-56 59 -56 137q0 66 24.5 110.5t65.5 64t77 26.5t77 7q100 0 181 -40q19 -10 22.5 -13t3.5 -9q0 -5 -2 -13l-15 -87q-4 -18 -14 -18q-4 0 -21 16q-62 61 -155 61q-119 0 -119 -87q0 -37 28 -58t56 -27l96 -22q78 -18 130.5 -78t52.5 -141zM478 768q4 -3 4 -8 q0 -2 -2 -6q-3 -8 -11 -8h-47l-5 1l-112 81l-112 -81l-5 -1h-47q-8 0 -11 8q-1 2 -1 4q0 5 4 8l110 104q3 3 8 3h111q5 0 8 -3z" />
<glyph unicode="&#x15d;" horiz-adv-x="422" d="M396 141q0 -152 -177 -152q-58 0 -113 17q-75 24 -75 42q0 6 6.5 41.5t7.5 39.5q3 15 13 15q6 0 14 -8q58 -69 147 -69q78 0 78 54q0 20 -15.5 33.5t-29 17t-35.5 7.5q-37 7 -53.5 11t-38.5 14t-39 25q-49 44 -49 103q0 143 179 143q54 0 98 -12q1 0 10.5 -3t17 -6 t16.5 -7t14.5 -8.5t5.5 -9.5q0 -21 -12 -69q-3 -13 -13 -13q-6 0 -16 10q-56 47 -129 47q-72 0 -72 -49q0 -18 14 -30t30.5 -16.5t50.5 -10.5q28 -5 41.5 -8.5t35 -14t40.5 -27.5q48 -43 48 -107zM373 556q2 -3 2 -6.5t-2 -7.5q-4 -7 -11 -7h-47q-4 1 -6 2l-98 101l-98 -101 l-6 -2h-47q-7 0 -10 7q-2 3 -2 5q0 4 2 7l98 139q3 4 9 4h111q6 0 9 -4z" />
<glyph unicode="&#x15e;" horiz-adv-x="611" d="M549 200q0 -113 -64 -167.5t-180 -54.5q-74 0 -147 23l-6 2q-6 2 -13 5t-17.5 7t-19.5 9l-20 9q-10 5 -17 9.5t-11.5 9t-4.5 8.5q0 5 2 13l15 87q4 18 14 18q6 0 18 -12q88 -79 207 -79t119 97q0 38 -31 69q-15 14 -33.5 20.5t-66.5 17.5q-50 12 -71.5 18t-51 21.5 t-53.5 40.5q-56 59 -56 137q0 66 24.5 110.5t65.5 64t77 26.5t77 7q100 0 181 -40q19 -10 22.5 -13t3.5 -9q0 -5 -2 -13l-15 -87q-4 -18 -14 -18q-4 0 -21 16q-62 61 -155 61q-119 0 -119 -87q0 -37 28 -58t56 -27l96 -22q78 -18 130.5 -78t52.5 -141zM359 -59q0 -3 -5 -16 l-51 -121q-6 -13 -10 -15.5t-21 -2.5h-50q-10 0 -14.5 0.5t-8 3.5t-3.5 9q0 4 84 134q10 15 14.5 18t20.5 3h18q10 0 14.5 -0.5t8 -3.5t3.5 -9z" />
<glyph unicode="&#x15f;" horiz-adv-x="422" d="M396 141q0 -152 -177 -152q-58 0 -113 17q-75 24 -75 42q0 6 6.5 41.5t7.5 39.5q3 15 13 15q6 0 14 -8q58 -69 147 -69q78 0 78 54q0 20 -15.5 33.5t-29 17t-35.5 7.5q-37 7 -53.5 11t-38.5 14t-39 25q-49 44 -49 103q0 143 179 143q54 0 98 -12q1 0 10.5 -3t17 -6 t16.5 -7t14.5 -8.5t5.5 -9.5q0 -21 -12 -69q-3 -13 -13 -13q-6 0 -16 10q-56 47 -129 47q-72 0 -72 -49q0 -18 14 -30t30.5 -16.5t50.5 -10.5q28 -5 41.5 -8.5t35 -14t40.5 -27.5q48 -43 48 -107zM264 -59q0 -3 -5 -16l-51 -121q-6 -13 -10 -15.5t-21 -2.5h-50 q-10 0 -14.5 0.5t-8 3.5t-3.5 9q0 4 84 134q10 15 14.5 18t20.5 3h18q10 0 14.5 -0.5t8 -3.5t3.5 -9z" />
<glyph unicode="&#x160;" horiz-adv-x="611" d="M549 200q0 -113 -64 -167.5t-180 -54.5q-74 0 -147 23l-6 2q-6 2 -13 5t-17.5 7t-19.5 9l-20 9q-10 5 -17 9.5t-11.5 9t-4.5 8.5q0 5 2 13l15 87q4 18 14 18q6 0 18 -12q88 -79 207 -79t119 97q0 38 -31 69q-15 14 -33.5 20.5t-66.5 17.5q-50 12 -71.5 18t-51 21.5 t-53.5 40.5q-56 59 -56 137q0 66 24.5 110.5t65.5 64t77 26.5t77 7q100 0 181 -40q19 -10 22.5 -13t3.5 -9q0 -5 -2 -13l-15 -87q-4 -18 -14 -18q-4 0 -21 16q-62 61 -155 61q-119 0 -119 -87q0 -37 28 -58t56 -27l96 -22q78 -18 130.5 -78t52.5 -141zM478 853l-110 -104 q-3 -3 -8 -3h-111q-5 0 -8 3l-108 102q-4 3 -4 8q0 2 1 5q4 9 12 9h47l5 -1l112 -81l112 81l5 1h47q8 0 11 -7q1 -3 1 -5q0 -5 -4 -8z" />
<glyph unicode="&#x161;" horiz-adv-x="422" d="M396 141q0 -152 -177 -152q-58 0 -113 17q-75 24 -75 42q0 6 6.5 41.5t7.5 39.5q3 15 13 15q6 0 14 -8q58 -69 147 -69q78 0 78 54q0 20 -15.5 33.5t-29 17t-35.5 7.5q-37 7 -53.5 11t-38.5 14t-39 25q-49 44 -49 103q0 143 179 143q54 0 98 -12q1 0 10.5 -3t17 -6 t16.5 -7t14.5 -8.5t5.5 -9.5q0 -21 -12 -69q-3 -13 -13 -13q-6 0 -16 10q-56 47 -129 47q-72 0 -72 -49q0 -18 14 -30t30.5 -16.5t50.5 -10.5q28 -5 41.5 -8.5t35 -14t40.5 -27.5q48 -43 48 -107zM373 678l-98 -139q-3 -4 -9 -4h-111q-6 0 -9 4l-96 137q-2 3 -2 6.5t2 7.5 q4 7 11 7h47q4 -1 6 -2l98 -101l98 101l6 2h47q7 0 11 -7q1 -3 1 -5q0 -4 -2 -7z" />
<glyph unicode="&#x162;" horiz-adv-x="733" d="M692 632q0 -23 -8 -34t-17 -12.5t-27 -1.5l-200 3v-539q0 -27 -10 -37.5t-38 -10.5h-51q-28 0 -38 10.5t-10 37.5v539l-201 -3q-18 0 -27 1.5t-17 12.5t-8 34v8q0 28 10.5 38t37.5 10h556q29 0 38.5 -11t9.5 -37v-8zM402 -37q0 -3 -5 -16l-51 -121q-6 -13 -10 -15.5 t-21 -2.5h-50q-10 0 -14.5 0.5t-8 3.5t-3.5 9q0 4 84 134q10 15 14.5 18t20.5 3h18q10 0 14.5 -0.5t8 -3.5t3.5 -9z" />
<glyph unicode="&#x163;" horiz-adv-x="404" d="M373 47q0 -20 -75 -42q-52 -16 -105 -16q-105 0 -105 144v253h-20q-48 0 -48 36t48 36h23v83q0 28 10.5 38t37.5 10h31q29 0 38.5 -11t9.5 -37v-83h89q48 0 48 -36t-48 -36h-89v-236q0 -47 10 -65t29 -18q39 0 80 30q7 7 12 7q6 0 9 -5t7 -21q8 -28 8 -31zM261 -37 q0 -3 -5 -16l-51 -121q-6 -13 -10 -15.5t-21 -2.5h-50q-10 0 -14.5 0.5t-8 3.5t-3.5 9q0 4 84 134q10 15 14.5 18t20.5 3h18q10 0 14.5 -0.5t8 -3.5t3.5 -9z" />
<glyph unicode="&#x164;" horiz-adv-x="733" d="M692 632q0 -23 -8 -34t-17 -12.5t-27 -1.5l-200 3v-539q0 -27 -10 -37.5t-38 -10.5h-51q-28 0 -38 10.5t-10 37.5v539l-201 -3q-18 0 -27 1.5t-17 12.5t-8 34v8q0 28 10.5 38t37.5 10h556q29 0 38.5 -11t9.5 -37v-8zM539 853l-110 -104q-3 -3 -8 -3h-111q-5 0 -8 3 l-108 102q-4 3 -4 8q0 2 2 5q3 9 11 9h47l5 -1l112 -81l112 81l5 1h47q8 0 11 -7q1 -3 1 -5q0 -5 -4 -8z" />
<glyph unicode="&#x165;" horiz-adv-x="404" d="M373 47q0 -20 -75 -42q-52 -16 -105 -16q-105 0 -105 144v253h-20q-48 0 -48 36t48 36h23v83q0 28 10.5 38t37.5 10h31q29 0 38.5 -11t9.5 -37v-83h89q48 0 48 -36t-48 -36h-89v-236q0 -47 10 -65t29 -18q39 0 80 30q7 7 12 7q6 0 9 -5t7 -21q8 -28 8 -31zM377 618 q0 -17 -8 -29l-47 -75q-7 -11 -10.5 -13t-17.5 -2h-11q-23 0 -23 11l14 41q3 7 8 21.5t8 21.5q-22 0 -26.5 3.5t-4.5 20.5v70q0 17 3.5 20.5t20.5 3.5h70q17 0 20.5 -3.5t3.5 -20.5v-70z" />
<glyph unicode="&#x168;" horiz-adv-x="764" d="M672 229q0 -62 -19.5 -109t-48.5 -73.5t-70 -42.5t-76 -21t-74 -5q-54 0 -100.5 10.5t-92.5 36t-73 78t-27 127.5v416q0 28 10.5 38t37.5 10h51q29 0 38.5 -11t9.5 -37v-420q0 -82 32 -122t115 -40q86 0 118.5 41t32.5 122v419q0 27 10 37.5t38 10.5h40q29 0 38.5 -11 t9.5 -37v-417zM565 860q0 -41 -30.5 -77.5t-79.5 -36.5q-44 0 -98 37q-30 22 -47 22q-33 0 -38 -44q-1 -11 -6 -13t-21 -2h-18q-16 0 -21.5 2.5t-5.5 14.5q0 41 30.5 77.5t79.5 36.5q44 0 98 -37q30 -22 47 -22q33 0 38 44q1 11 6 13t21 2h18q17 0 22 -2.5t5 -14.5z" />
<glyph unicode="&#x169;" horiz-adv-x="561" d="M500 48q0 -27 -10 -37.5t-38 -10.5h-37q-29 0 -38.5 11t-9.5 37v26q-47 -85 -145 -85q-83 0 -122.5 30t-39.5 107v284q0 28 10.5 38t37.5 10h40q29 0 38.5 -11t9.5 -37v-293q0 -41 10.5 -54t51.5 -13q51 0 78.5 35t27.5 88v237q0 27 10 37.5t38 10.5h40q29 0 38.5 -11 t9.5 -37v-362zM464 664q0 -41 -30.5 -77.5t-79.5 -36.5q-44 0 -98 37q-30 22 -47 22q-33 0 -38 -44q-1 -11 -6 -13t-21 -2h-18q-16 0 -21.5 2.5t-5.5 14.5q0 41 30.5 77.5t79.5 36.5q44 0 98 -37q30 -22 47 -22q33 0 38 44q1 11 6 13t21 2h18q17 0 22 -2.5t5 -14.5z" />
<glyph unicode="&#x16a;" horiz-adv-x="764" d="M672 229q0 -62 -19.5 -109t-48.5 -73.5t-70 -42.5t-76 -21t-74 -5q-54 0 -100.5 10.5t-92.5 36t-73 78t-27 127.5v416q0 28 10.5 38t37.5 10h51q29 0 38.5 -11t9.5 -37v-420q0 -82 32 -122t115 -40q86 0 118.5 41t32.5 122v419q0 27 10 37.5t38 10.5h40q29 0 38.5 -11 t9.5 -37v-417zM581 793q0 -19 -3.5 -23t-23.5 -4h-343q-19 0 -23 4t-4 23v31q0 20 4 23.5t23 3.5h343q20 0 23.5 -3.5t3.5 -23.5v-31z" />
<glyph unicode="&#x16b;" horiz-adv-x="561" d="M500 48q0 -27 -10 -37.5t-38 -10.5h-37q-29 0 -38.5 11t-9.5 37v26q-47 -85 -145 -85q-83 0 -122.5 30t-39.5 107v284q0 28 10.5 38t37.5 10h40q29 0 38.5 -11t9.5 -37v-293q0 -41 10.5 -54t51.5 -13q51 0 78.5 35t27.5 88v237q0 27 10 37.5t38 10.5h40q29 0 38.5 -11 t9.5 -37v-362zM480 600q0 -20 -4 -23.5t-23 -3.5h-343q-20 0 -23.5 3.5t-3.5 23.5v31q0 19 3.5 23t23.5 4h343q19 0 23 -4t4 -23v-31z" />
<glyph unicode="&#x16c;" horiz-adv-x="764" d="M672 229q0 -62 -19.5 -109t-48.5 -73.5t-70 -42.5t-76 -21t-74 -5q-54 0 -100.5 10.5t-92.5 36t-73 78t-27 127.5v416q0 28 10.5 38t37.5 10h51q29 0 38.5 -11t9.5 -37v-420q0 -82 32 -122t115 -40q86 0 118.5 41t32.5 122v419q0 27 10 37.5t38 10.5h40q29 0 38.5 -11 t9.5 -37v-417zM571 860q0 -104 -189 -104q-188 0 -188 104q0 18 11 28t25 10q6 0 12 -1.5t14.5 -10.5t9.5 -24q26 -13 117 -13q90 0 116 13q1 15 9.5 24t14.5 10.5t12 1.5q13 0 24.5 -10t11.5 -28z" />
<glyph unicode="&#x16d;" horiz-adv-x="561" d="M500 48q0 -27 -10 -37.5t-38 -10.5h-37q-29 0 -38.5 11t-9.5 37v26q-47 -85 -145 -85q-83 0 -122.5 30t-39.5 107v284q0 28 10.5 38t37.5 10h40q29 0 38.5 -11t9.5 -37v-293q0 -41 10.5 -54t51.5 -13q51 0 78.5 35t27.5 88v237q0 27 10 37.5t38 10.5h40q29 0 38.5 -11 t9.5 -37v-362zM470 649q0 -104 -189 -104q-188 0 -188 104q0 18 11 28t25 10q6 0 12 -1.5t14.5 -10.5t9.5 -24q26 -13 117 -13q90 0 116 13q1 15 9.5 24t14.5 10.5t12 1.5q13 0 24.5 -10t11.5 -28z" />
<glyph unicode="&#x16e;" horiz-adv-x="764" d="M672 229q0 -62 -19.5 -109t-48.5 -73.5t-70 -42.5t-76 -21t-74 -5q-54 0 -100.5 10.5t-92.5 36t-73 78t-27 127.5v416q0 28 10.5 38t37.5 10h51q29 0 38.5 -11t9.5 -37v-420q0 -82 32 -122t115 -40q86 0 118.5 41t32.5 122v419q0 27 10 37.5t38 10.5h40q29 0 38.5 -11 t9.5 -37v-417zM437 773q0 21 -13.5 27.5t-41.5 6.5q-30 0 -42.5 -6t-12.5 -28q0 -21 13.5 -27.5t41.5 -6.5q30 0 42.5 6t12.5 28zM505 772q0 -78 -123 -78t-123 80q0 78 123 78t123 -80z" />
<glyph unicode="&#x16f;" horiz-adv-x="561" d="M500 48q0 -27 -10 -37.5t-38 -10.5h-37q-29 0 -38.5 11t-9.5 37v26q-47 -85 -145 -85q-83 0 -122.5 30t-39.5 107v284q0 28 10.5 38t37.5 10h40q29 0 38.5 -11t9.5 -37v-293q0 -41 10.5 -54t51.5 -13q51 0 78.5 35t27.5 88v237q0 27 10 37.5t38 10.5h40q29 0 38.5 -11 t9.5 -37v-362zM336 605q0 21 -13.5 27.5t-41.5 6.5q-30 0 -42.5 -6t-12.5 -28q0 -21 13.5 -27.5t41.5 -6.5q30 0 42.5 6t12.5 28zM404 604q0 -78 -123 -78t-123 80q0 78 123 78t123 -80z" />
<glyph unicode="&#x170;" horiz-adv-x="764" d="M672 229q0 -62 -19.5 -109t-48.5 -73.5t-70 -42.5t-76 -21t-74 -5q-54 0 -100.5 10.5t-92.5 36t-73 78t-27 127.5v416q0 28 10.5 38t37.5 10h51q29 0 38.5 -11t9.5 -37v-420q0 -82 32 -122t115 -40q86 0 118.5 41t32.5 122v419q0 27 10 37.5t38 10.5h40q29 0 38.5 -11 t9.5 -37v-417zM381 900q0 -4 -8 -16l-74 -114q-7 -10 -11 -12t-19 -2h-18q-10 0 -14.5 0.5t-8.5 3.5t-4 10l19 122q2 15 6.5 18t22.5 3h82q10 0 14.5 -0.5t8.5 -3.5t4 -9zM564 900q0 -4 -8 -16l-74 -114q-7 -10 -11 -12t-19 -2h-18q-10 0 -14.5 0.5t-8.5 3.5t-4 10l19 122 q2 15 7 18t22 3h82q10 0 14.5 -0.5t8.5 -3.5t4 -9z" />
<glyph unicode="&#x171;" horiz-adv-x="561" d="M500 48q0 -27 -10 -37.5t-38 -10.5h-37q-29 0 -38.5 11t-9.5 37v26q-47 -85 -145 -85q-83 0 -122.5 30t-39.5 107v284q0 28 10.5 38t37.5 10h40q29 0 38.5 -11t9.5 -37v-293q0 -41 10.5 -54t51.5 -13q51 0 78.5 35t27.5 88v237q0 27 10 37.5t38 10.5h40q29 0 38.5 -11 t9.5 -37v-362zM280 681q0 -4 -8 -16l-74 -114q-7 -10 -11 -12t-19 -2h-18q-10 0 -14.5 0.5t-8.5 3.5t-4 10l19 122q2 15 7 18t22 3h82q10 0 14.5 -0.5t8.5 -3.5t4 -9zM463 681q0 -4 -8 -16l-74 -114q-7 -10 -11 -12t-19 -2h-18q-10 0 -14.5 0.5t-8.5 3.5t-4 10l19 122 q2 15 6.5 18t22.5 3h82q10 0 14.5 -0.5t8.5 -3.5t4 -9z" />
<glyph unicode="&#x172;" horiz-adv-x="764" d="M672 229q0 -59 -17.5 -104t-44 -71.5t-64 -43.5t-71 -23.5t-71.5 -8.5q-18 -29 -20 -64q-1 -38 39 -40q11 0 64 12q5 2 12 -2.5t8 -9.5l11 -36q0 -14 -9 -19q-62 -32 -116 -32q-52 0 -80 28t-28 73q0 52 34 94q-46 6 -83.5 20.5t-71.5 42t-53.5 75t-19.5 110.5v416 q0 28 10.5 38t37.5 10h51q29 0 38.5 -11t9.5 -37v-420q0 -82 32 -122t115 -40q86 0 118.5 41t32.5 122v419q0 27 10 37.5t38 10.5h40q29 0 38.5 -11t9.5 -37v-417z" />
<glyph unicode="&#x173;" horiz-adv-x="561" d="M560 -162q0 -14 -9 -19q-62 -32 -116 -32q-52 0 -80 28t-28 73q0 73 57 117q-17 10 -17 43v26q-47 -85 -145 -85q-83 0 -122.5 30t-39.5 107v284q0 28 10.5 38t37.5 10h40q29 0 38.5 -11t9.5 -37v-293q0 -41 10.5 -54t51.5 -13q51 0 78.5 35t27.5 88v237q0 27 10 37.5 t38 10.5h40q29 0 38.5 -11t9.5 -37v-362q0 -24 -8 -35t-29 -13q-37 -37 -37 -88q0 -36 39 -38q11 0 64 12q5 2 12 -2.5t8 -9.5z" />
<glyph unicode="&#x174;" horiz-adv-x="1039" d="M1014 665q0 -5 -4 -19l-164 -604q-5 -19 -16.5 -29t-20 -11.5t-23.5 -1.5h-72q-14 0 -22.5 1.5t-20 11.5t-16.5 29l-102 377q-21 77 -36 148h-1q-12 -59 -32 -130l-105 -391q-6 -21 -17.5 -32t-20 -12.5t-23.5 -1.5h-66q-15 0 -23.5 1.5t-20 11.5t-16.5 29l-164 604 l-4 19q0 29 41 29h34q14 0 22.5 -1.5t20 -11.5t17.5 -30l86 -320q41 -153 49 -203h1q1 11 21 95l25 99l88 328q6 20 17.5 30.5t20 12t23.5 1.5h66q25 0 38.5 -8.5t21.5 -35.5l108 -405q23 -84 29 -117h1q9 45 32 128l106 394q4 16 11 25.5t16.5 13t16 4.5t16.5 1h21 q41 0 41 -29zM691 768q4 -3 4 -8q0 -2 -1 -6q-4 -8 -12 -8h-47l-5 1l-112 81l-112 -81l-5 -1h-47q-8 0 -11 8q-1 2 -1 4q0 5 4 8l110 104q3 3 8 3h111q5 0 8 -3z" />
<glyph unicode="&#x175;" horiz-adv-x="744" d="M719 430l-107 -384q-8 -27 -20 -36.5t-43 -9.5h-68q-18 0 -29.5 3t-18.5 12t-10 16t-8 24q-57 207 -63 262l-1 -1q-4 -47 -63 -261q-9 -33 -21 -44t-45 -11h-28q-17 0 -26 1.5t-20.5 12.5t-17.5 32l-106 384q1 13 9 19.5t14.5 7.5t19.5 1h20q30 0 42 -9.5t20 -35.5 l80 -283q14 46 35 124l35 126q14 48 18 55q14 23 52 23q21 0 34 -7.5t17 -15.5t8 -22l85 -300l81 290q10 37 23 46t50 9q19 0 27.5 -1t16 -7.5t8.5 -19.5zM534 556q2 -3 2 -6.5t-2 -7.5q-4 -7 -11 -7h-47q-4 1 -6 2l-98 101l-98 -101l-6 -2h-47q-7 0 -11 7q-1 3 -1 5 q0 4 2 7l98 139q3 4 9 4h111q6 0 9 -4z" />
<glyph unicode="&#x176;" horiz-adv-x="733" d="M708 671q0 -10 -9 -21l-261 -373v-230q0 -27 -10.5 -37t-37.5 -10h-48q-28 0 -38 10.5t-10 37.5v230l-261 373q-9 12 -9 20q0 23 36 23h66q28 0 46 -8.5t35 -32.5l113 -162q38 -54 55 -88q17 36 71 113l98 140q27 38 79 38h49q36 0 36 -23zM539 768q4 -3 4 -8q0 -2 -1 -6 q-4 -8 -12 -8h-47l-5 1l-112 81l-112 -81l-5 -1h-47q-8 0 -11 8q-1 2 -1 4q0 5 4 8l110 104q3 3 8 3h111q5 0 8 -3z" />
<glyph unicode="&#x177;" horiz-adv-x="500" d="M473 431q0 -7 -5 -20l-163 -474q-5 -15 -15 -33.5t-31 -45.5t-56.5 -45t-78.5 -18q-68 0 -79 14q-2 3 -5.5 38t-3.5 43q0 15 13 15q3 0 10 -4q33 -21 67 -21q25 0 43 14t25 27.5t15 36.5q7 25 14 42l-189 416q-5 12 -5 16q0 26 39 26h26q36 0 49 -13.5t36 -64.5 q84 -187 89 -238h1q2 30 24 102.5t42 129.5t23 61q15 23 53 23h22q40 0 40 -27zM412 556q2 -3 2 -6.5t-2 -7.5q-4 -7 -11 -7h-47q-4 1 -6 2l-98 101l-98 -101l-6 -2h-47q-7 0 -11 7q-1 3 -1 5q0 4 2 7l98 139q3 4 9 4h111q6 0 9 -4z" />
<glyph unicode="&#x178;" horiz-adv-x="733" d="M708 671q0 -10 -9 -21l-261 -373v-230q0 -27 -10.5 -37t-37.5 -10h-48q-28 0 -38 10.5t-10 37.5v230l-261 373q-9 12 -9 20q0 23 36 23h66q28 0 46 -8.5t35 -32.5l113 -162q38 -54 55 -88q17 36 71 113l98 140q27 38 79 38h49q36 0 36 -23zM290 789q0 -23 -8.5 -33 t-34.5 -10h-46q-26 0 -34.5 10.5t-8.5 32.5v17q0 24 9 33.5t34 9.5h46q26 0 34.5 -9.5t8.5 -33.5v-17zM576 789q0 -23 -8.5 -33t-34.5 -10h-46q-26 0 -34.5 10.5t-8.5 32.5v17q0 24 9 33.5t34 9.5h46q26 0 34.5 -9.5t8.5 -33.5v-17z" />
<glyph unicode="&#x179;" horiz-adv-x="672" d="M616 48q0 -27 -10 -37.5t-38 -10.5h-459q-28 0 -38 10.5t-10 37.5v8q0 22 10 35l362 508h-35l-261 -3q-19 0 -27 1t-17.5 5t-13 14.5t-3.5 28.5q0 26 9 37.5t39 11.5h438q32 0 40 -12t8 -38q0 -24 -10 -37l-360 -506l319 4q16 0 23.5 -1t17 -5t13 -14.5t3.5 -27.5v-9z M535 862l-218 -106h-67q-12 0 -16 6q-2 1 -2 4q0 4 6 10l127 109h161q13 0 16 -9q1 -2 1 -4q0 -6 -8 -10z" />
<glyph unicode="&#x17a;" horiz-adv-x="476" d="M441 37q0 -37 -48 -37h-314q-48 0 -48 42q0 18 12 34l244 309h-37l-145 -2q-19 0 -28.5 1t-20 10t-10.5 26q0 38 48 38h296q48 0 48 -42q0 -18 -12 -34l-244 -309h46l153 2q20 0 30 -1.5t20 -10t10 -26.5zM394 681q0 -6 -11 -15l-159 -129h-37q-10 0 -14.5 0.5t-8.5 3.5 t-4 9q0 4 9 15l86 117q7 8 11 10t19 2h82q10 0 14.5 -0.5t8.5 -3.5t4 -9z" />
<glyph unicode="&#x17b;" horiz-adv-x="672" d="M616 48q0 -27 -10 -37.5t-38 -10.5h-459q-28 0 -38 10.5t-10 37.5v8q0 22 10 35l362 508h-35l-261 -3q-19 0 -27 1t-17.5 5t-13 14.5t-3.5 28.5q0 26 9 37.5t39 11.5h438q32 0 40 -12t8 -38q0 -24 -10 -37l-360 -506l319 4q16 0 23.5 -1t17 -5t13 -14.5t3.5 -27.5v-9z M409 794q0 -25 -9.5 -36.5t-38.5 -11.5h-51q-30 0 -39 11.5t-9 36.5v19q0 27 10 37.5t38 10.5h51q29 0 38.5 -11t9.5 -37v-19z" />
<glyph unicode="&#x17c;" horiz-adv-x="476" d="M441 37q0 -37 -48 -37h-314q-48 0 -48 42q0 18 12 34l244 309h-37l-145 -2q-19 0 -28.5 1t-20 10t-10.5 26q0 38 48 38h296q48 0 48 -42q0 -18 -12 -34l-244 -309h46l153 2q20 0 30 -1.5t20 -10t10 -26.5zM311 606q0 -25 -9.5 -36.5t-38.5 -11.5h-51q-30 0 -39 11.5 t-9 36.5v19q0 27 10 37.5t38 10.5h51q29 0 38.5 -11t9.5 -37v-19z" />
<glyph unicode="&#x17d;" horiz-adv-x="672" d="M616 48q0 -27 -10 -37.5t-38 -10.5h-459q-28 0 -38 10.5t-10 37.5v8q0 22 10 35l362 508h-35l-261 -3q-19 0 -27 1t-17.5 5t-13 14.5t-3.5 28.5q0 26 9 37.5t39 11.5h438q32 0 40 -12t8 -38q0 -24 -10 -37l-360 -506l319 4q16 0 23.5 -1t17 -5t13 -14.5t3.5 -27.5v-9z M508 853l-110 -104q-3 -3 -8 -3h-111q-5 0 -8 3l-108 102q-4 3 -4 8q0 2 1 5q4 9 12 9h47l5 -1l112 -81l112 81l5 1h47q8 0 11 -7q1 -3 1 -5q0 -5 -4 -8z" />
<glyph unicode="&#x17e;" horiz-adv-x="476" d="M441 37q0 -37 -48 -37h-314q-48 0 -48 42q0 18 12 34l244 309h-37l-145 -2q-19 0 -28.5 1t-20 10t-10.5 26q0 38 48 38h296q48 0 48 -42q0 -18 -12 -34l-244 -309h46l153 2q20 0 30 -1.5t20 -10t10 -26.5zM400 678l-98 -139q-3 -4 -9 -4h-111q-6 0 -9 4l-96 137 q-2 3 -2 6.5t2 7.5q4 7 11 7h47q4 -1 6 -2l98 -101l98 101l6 2h47q7 0 10 -7q2 -3 2 -5q0 -4 -2 -7z" />
<glyph unicode="&#x17f;" horiz-adv-x="311" d="M356 621q0 -10 -0.5 -14.5t-3.5 -8t-9 -3.5q-15 2 -15 10q-29 28 -72 28q-22 0 -35.5 -6t-19 -18t-6.5 -20t-1 -22v-519q0 -27 -10 -37.5t-38 -10.5h-37q-28 0 -38 10.5t-10 37.5v490q0 167 195 167q36 0 65 -6q26 -5 30.5 -9.5t4.5 -22.5v-46z" />
<glyph unicode="&#x18e;" horiz-adv-x="642" d="M595 48q0 -27 -10 -37.5t-38 -10.5h-408q-28 0 -38 10.5t-10 37.5v14q0 23 8 34t17.5 12.5t30.5 1.5l155 -2l146 -2v205h-263q-25 0 -36.5 9.5t-11.5 37.5q0 27 10.5 37t37.5 10h263v185h-49l-235 -3q-17 0 -24.5 1t-17 5t-13 14.5t-3.5 27.5v8q0 26 9.5 37t38.5 11h393 q27 0 37.5 -10t10.5 -38v-595z" />
<glyph unicode="&#x192;" horiz-adv-x="336" d="M381 621q0 -10 -0.5 -14.5t-3.5 -8t-9 -3.5t-15 10q-29 28 -72 28q-23 0 -37.5 -6t-19.5 -18t-6.5 -20t-1.5 -22v-109h51q48 0 48 -36t-48 -36h-48v-338q0 -27 -10 -37.5t-38 -10.5h-37q-28 0 -38 10.5t-10 37.5v338q-16 0 -25.5 1t-20 9.5t-10.5 25.5q0 36 56 36v80 q0 167 195 167q36 0 65 -6q25 -5 30 -9.5t5 -22.5v-46z" />
<glyph unicode="&#x1a0;" horiz-adv-x="794" d="M755 707q0 -7 -5 -10l-99 -78q80 -92 80 -277q0 -182 -83 -273t-252 -91q-168 0 -251 91q-84 90 -84 273q0 187 84 281q84 93 251 93q130 0 211 -57l38 35h-8q-13 0 -13 13v105q0 13 13 13h105q13 0 13 -13v-105zM590 361q0 144 -46 210q-48 68 -148 68t-148 -68 q-28 -40 -36.5 -90t-8.5 -120q0 -50 2 -81.5t12.5 -74t30.5 -73.5q23 -36 62.5 -55t85.5 -19t85.5 19t62.5 55q29 45 37.5 99.5t8.5 129.5z" />
<glyph unicode="&#x1a1;" d="M590 471q0 -7 -5 -10l-103 -82q35 -58 35 -155q0 -119 -60 -176q-62 -59 -183 -59t-183 59q-61 58 -61 176q0 124 61 188q62 63 183 63q109 0 169 -51l37 34h-8q-13 0 -13 13v105q0 13 13 13h105q13 0 13 -13v-105zM381 238q0 94 -21 126q-25 39 -86 39t-86 -39 q-21 -32 -21 -126q0 -98 21 -132q25 -39 86 -39t86 39q21 34 21 132z" />
<glyph unicode="&#x1af;" horiz-adv-x="825" d="M808 707q0 -7 -5 -10l-133 -98v-368q0 -125 -75 -190q-73 -63 -212 -63q-142 0 -215 63q-77 66 -77 190v427q0 15 11 25.5t25 10.5h70q15 0 25.5 -10.5t10.5 -25.5v-427q0 -91 34 -129q35 -38 116 -38q83 0 119 39q35 38 35 128v427q0 15 10.5 25.5t25.5 10.5h61 q26 0 34 -23l27 23h-5q-12 0 -12 13v105q0 13 12 13h106q12 0 12 -13v-105z" />
<glyph unicode="&#x1b0;" horiz-adv-x="622" d="M636 471q0 -7 -5 -10l-131 -97v-328q0 -15 -10.5 -25.5t-25.5 -10.5h-61q-15 0 -26 10.5t-11 25.5v9q-53 -56 -133 -56q-51 0 -80.5 5.5t-53.5 24.5q-40 31 -40 106v297q0 15 10.5 25.5t25.5 10.5h64q15 0 25.5 -10.5t10.5 -25.5v-297q0 -51 10 -61q12 -14 59 -14 q42 0 71 34.5t29 82.5v255q0 15 10.5 25.5t25.5 10.5h64q23 0 33 -22l27 22h-6q-12 0 -12 13v105q0 13 12 13h106q12 0 12 -13v-105z" />
<glyph unicode="&#x1cd;" horiz-adv-x="733" d="M690 27q0 -27 -39 -27h-54q-33 0 -44.5 12t-22.5 43l-34 96h-277l-39 -111q-14 -40 -63 -40h-36q-39 0 -39 27q0 7 5 20l211 604q7 20 19.5 30t21.5 11.5t23 1.5h88q14 0 23 -1.5t21.5 -11.5t19.5 -30l211 -604q5 -13 5 -20zM466 237l-95 281q-7 20 -13 49h-1 q-8 -36 -36 -118l-72 -212h217zM539 853l-110 -104q-3 -3 -8 -3h-111q-5 0 -8 3l-108 102q-4 3 -4 8q0 2 2 5q3 9 11 9h47l5 -1l112 -81l112 81l5 1h47q8 0 11 -7q1 -3 1 -5q0 -5 -4 -8z" />
<glyph unicode="&#x1ce;" horiz-adv-x="525" d="M474 48q0 -27 -10 -37.5t-38 -10.5h-37q-29 0 -38.5 11t-9.5 37v20q-54 -79 -156 -79q-63 0 -103.5 44t-40.5 100q0 30 15 54.5t37 39.5t54 26t59 16.5t58.5 8.5t45.5 3.5t28 0.5v35q0 47 -15.5 69.5t-54.5 22.5q-91 0 -155 -67q-6 -6 -11 -6q-11 0 -13 11q-7 56 -7 73 q0 8 5 12t21 11q77 32 164 32q202 0 202 -159v-268zM338 154v87l-29 -2q-14 -1 -41 -7.5t-46.5 -17t-35 -31t-15.5 -48.5q0 -30 19.5 -52t49.5 -22q5 0 12 0.5t23.5 5.5t29 14t23 28t10.5 45zM425 678l-98 -139q-3 -4 -9 -4h-111q-6 0 -9 4l-96 137q-2 3 -2 6.5t2 7.5 q4 7 11 7h47q4 -1 6 -2l98 -101l98 101l6 2h47q7 0 11 -7q1 -3 1 -5q0 -4 -2 -7z" />
<glyph unicode="&#x1cf;" horiz-adv-x="331" d="M239 48q0 -27 -10 -37.5t-38 -10.5h-51q-28 0 -38 10.5t-10 37.5v598q0 28 10.5 38t37.5 10h51q29 0 38.5 -11t9.5 -37v-598zM337 853l-110 -104q-3 -3 -8 -3h-111q-5 0 -8 3l-108 102q-4 3 -4 8q0 2 2 5q3 9 11 9h47l5 -1l112 -81l112 81l5 1h47q8 0 11 -7q1 -3 1 -5 q0 -5 -4 -8z" />
<glyph unicode="&#x1d0;" horiz-adv-x="256" d="M194 48q0 -27 -10 -37.5t-38 -10.5h-37q-28 0 -38 10.5t-10 37.5v362q0 28 10.5 38t37.5 10h37q29 0 38.5 -11t9.5 -37v-362zM290 678l-98 -139q-3 -4 -9 -4h-111q-6 0 -9 4l-96 137q-2 3 -2 6.5t2 7.5q4 7 11 7h47q4 -1 6 -2l98 -101l98 101l6 2h47q7 0 10 -7q2 -3 2 -5 q0 -4 -2 -7z" />
<glyph unicode="&#x1d1;" horiz-adv-x="794" d="M732 342q0 -364 -336 -364q-335 0 -335 364q0 374 336 374q335 0 335 -374zM585 358q0 28 -0.5 44.5t-4 49.5t-10 54.5t-20.5 49t-33.5 43.5t-50.5 27.5t-70 11.5t-69.5 -11.5t-50 -28t-33.5 -44t-20.5 -49t-10 -54t-4 -49.5t-0.5 -44q0 -28 0.5 -46t4 -53t10 -58 t20.5 -52.5t33.5 -47.5t50.5 -30.5t70 -12.5t69.5 12.5t50 30.5t33.5 47.5t20.5 53t10 58.5t4 52.5t0.5 45.5zM569 853l-110 -104q-3 -3 -8 -3h-111q-5 0 -8 3l-108 102q-4 3 -4 8q0 2 2 5q3 9 11 9h47l5 -1l112 -81l112 81l5 1h47q8 0 11 -7q1 -3 1 -5q0 -5 -4 -8z" />
<glyph unicode="&#x1d2;" d="M518 225q0 -236 -244 -236q-243 0 -243 236q0 250 244 250q243 0 243 -250zM382 237q0 26 -0.5 40t-3.5 37t-10 36t-18 27t-30.5 20t-45.5 6t-45 -6.5t-30.5 -20.5t-18 -26.5t-9.5 -36t-3.5 -37t-0.5 -39.5q0 -32 1 -49t6.5 -44t16 -41t32 -25t52.5 -11t52 11t32 25 t16.5 41t6 44t0.5 49zM437 678l-98 -139q-3 -4 -9 -4h-111q-6 0 -9 4l-96 137q-2 3 -2 6.5t2 7.5q4 7 11 7h47q4 -1 6 -2l98 -101l98 101l6 2h47q7 0 11 -7q1 -3 1 -5q0 -4 -2 -7z" />
<glyph unicode="&#x1d3;" horiz-adv-x="764" d="M672 229q0 -62 -19.5 -109t-48.5 -73.5t-70 -42.5t-76 -21t-74 -5q-54 0 -100.5 10.5t-92.5 36t-73 78t-27 127.5v416q0 28 10.5 38t37.5 10h51q29 0 38.5 -11t9.5 -37v-420q0 -82 32 -122t115 -40q86 0 118.5 41t32.5 122v419q0 27 10 37.5t38 10.5h40q29 0 38.5 -11 t9.5 -37v-417zM554 853l-110 -104q-3 -3 -8 -3h-111q-5 0 -8 3l-108 102q-4 3 -4 8q0 2 1 5q4 9 12 9h47l5 -1l112 -81l112 81l5 1h47q8 0 11 -7q1 -3 1 -5q0 -5 -4 -8z" />
<glyph unicode="&#x1d4;" horiz-adv-x="561" d="M500 48q0 -27 -10 -37.5t-38 -10.5h-37q-29 0 -38.5 11t-9.5 37v26q-47 -85 -145 -85q-83 0 -122.5 30t-39.5 107v284q0 28 10.5 38t37.5 10h40q29 0 38.5 -11t9.5 -37v-293q0 -41 10.5 -54t51.5 -13q51 0 78.5 35t27.5 88v237q0 27 10 37.5t38 10.5h40q29 0 38.5 -11 t9.5 -37v-362zM443 678l-98 -139q-3 -4 -9 -4h-111q-6 0 -9 4l-96 137q-2 3 -2 6.5t2 7.5q4 7 11 7h47q4 -1 6 -2l98 -101l98 101l6 2h47q7 0 11 -7q1 -3 1 -5q0 -4 -2 -7z" />
<glyph unicode="&#x1d7;" horiz-adv-x="764" d="M672 229q0 -62 -19.5 -109t-48.5 -73.5t-70 -42.5t-76 -21t-74 -5q-54 0 -100.5 10.5t-92.5 36t-73 78t-27 127.5v416q0 28 10.5 38t37.5 10h51q29 0 38.5 -11t9.5 -37v-420q0 -82 32 -122t115 -40q86 0 118.5 41t32.5 122v419q0 27 10 37.5t38 10.5h40q29 0 38.5 -11 t9.5 -37v-417zM305 789q0 -23 -8.5 -33t-34.5 -10h-46q-26 0 -34.5 10.5t-8.5 32.5v17q0 24 9 33.5t34 9.5h46q26 0 34.5 -9.5t8.5 -33.5v-17zM591 789q0 -23 -8.5 -33t-34.5 -10h-46q-26 0 -34.5 10.5t-8.5 32.5v17q0 24 9 33.5t34 9.5h46q26 0 34.5 -9.5t8.5 -33.5v-17z M581 1017l-218 -106h-67q-12 0 -16 5q-2 2 -2 5q0 4 6 10l127 109h161q13 0 16 -9q1 -2 1 -4q0 -6 -8 -10z" />
<glyph unicode="&#x1d8;" horiz-adv-x="561" d="M500 48q0 -27 -10 -37.5t-38 -10.5h-37q-29 0 -38.5 11t-9.5 37v26q-47 -85 -145 -85q-83 0 -122.5 30t-39.5 107v284q0 28 10.5 38t37.5 10h40q29 0 38.5 -11t9.5 -37v-293q0 -41 10.5 -54t51.5 -13q51 0 78.5 35t27.5 88v237q0 27 10 37.5t38 10.5h40q29 0 38.5 -11 t9.5 -37v-362zM226 607q0 -23 -8.5 -33t-34.5 -10h-46q-26 0 -34.5 10.5t-8.5 32.5v17q0 24 9 33.5t34 9.5h46q26 0 34.5 -9.5t8.5 -33.5v-17zM468 607q0 -23 -8.5 -33t-34.5 -10h-46q-26 0 -34.5 10.5t-8.5 32.5v17q0 24 9 33.5t34 9.5h46q26 0 34.5 -9.5t8.5 -33.5v-17z M480 835l-218 -106h-67q-12 0 -17 5q-1 2 -1 5q0 4 6 10l127 109h161q13 0 17 -9v-4q0 -6 -8 -10z" />
<glyph unicode="&#x1d9;" horiz-adv-x="764" d="M672 229q0 -62 -19.5 -109t-48.5 -73.5t-70 -42.5t-76 -21t-74 -5q-54 0 -100.5 10.5t-92.5 36t-73 78t-27 127.5v416q0 28 10.5 38t37.5 10h51q29 0 38.5 -11t9.5 -37v-420q0 -82 32 -122t115 -40q86 0 118.5 41t32.5 122v419q0 27 10 37.5t38 10.5h40q29 0 38.5 -11 t9.5 -37v-417zM305 789q0 -23 -8.5 -33t-34.5 -10h-46q-26 0 -34.5 10.5t-8.5 32.5v17q0 24 9 33.5t34 9.5h46q26 0 34.5 -9.5t8.5 -33.5v-17zM591 789q0 -23 -8.5 -33t-34.5 -10h-46q-26 0 -34.5 10.5t-8.5 32.5v17q0 24 9 33.5t34 9.5h46q26 0 34.5 -9.5t8.5 -33.5v-17z M554 1008l-110 -104q-3 -3 -8 -3h-111q-5 0 -8 3l-108 102q-4 3 -4 8q0 2 1 6q4 8 12 8h47l5 -1l112 -81l112 81l5 1h47q8 0 11 -8q1 -2 1 -4q0 -5 -4 -8z" />
<glyph unicode="&#x1da;" horiz-adv-x="561" d="M500 48q0 -27 -10 -37.5t-38 -10.5h-37q-29 0 -38.5 11t-9.5 37v26q-47 -85 -145 -85q-83 0 -122.5 30t-39.5 107v284q0 28 10.5 38t37.5 10h40q29 0 38.5 -11t9.5 -37v-293q0 -41 10.5 -54t51.5 -13q51 0 78.5 35t27.5 88v237q0 27 10 37.5t38 10.5h40q29 0 38.5 -11 t9.5 -37v-362zM226 607q0 -23 -8.5 -33t-34.5 -10h-46q-26 0 -34.5 10.5t-8.5 32.5v17q0 24 9 33.5t34 9.5h46q26 0 34.5 -9.5t8.5 -33.5v-17zM468 607q0 -23 -8.5 -33t-34.5 -10h-46q-26 0 -34.5 10.5t-8.5 32.5v17q0 24 9 33.5t34 9.5h46q26 0 34.5 -9.5t8.5 -33.5v-17z M453 826l-110 -104q-3 -3 -8 -3h-111q-5 0 -8 3l-108 102q-4 3 -4 8q0 2 2 6q3 8 11 8h47l5 -1l112 -81l112 81l5 1h47q8 0 11 -8q1 -2 1 -4q0 -5 -4 -8z" />
<glyph unicode="&#x1db;" horiz-adv-x="764" d="M672 229q0 -62 -19.5 -109t-48.5 -73.5t-70 -42.5t-76 -21t-74 -5q-54 0 -100.5 10.5t-92.5 36t-73 78t-27 127.5v416q0 28 10.5 38t37.5 10h51q29 0 38.5 -11t9.5 -37v-420q0 -82 32 -122t115 -40q86 0 118.5 41t32.5 122v419q0 27 10 37.5t38 10.5h40q29 0 38.5 -11 t9.5 -37v-417zM305 789q0 -23 -8.5 -33t-34.5 -10h-46q-26 0 -34.5 10.5t-8.5 32.5v17q0 24 9 33.5t34 9.5h46q26 0 34.5 -9.5t8.5 -33.5v-17zM591 789q0 -23 -8.5 -33t-34.5 -10h-46q-26 0 -34.5 10.5t-8.5 32.5v17q0 24 9 33.5t34 9.5h46q26 0 34.5 -9.5t8.5 -33.5v-17z M480 931q6 -6 6 -10q0 -3 -2 -5q-4 -5 -16 -5h-67l-218 106q-8 4 -8 10q0 2 1 4q3 9 16 9h161z" />
<glyph unicode="&#x1dc;" horiz-adv-x="561" d="M500 48q0 -27 -10 -37.5t-38 -10.5h-37q-29 0 -38.5 11t-9.5 37v26q-47 -85 -145 -85q-83 0 -122.5 30t-39.5 107v284q0 28 10.5 38t37.5 10h40q29 0 38.5 -11t9.5 -37v-293q0 -41 10.5 -54t51.5 -13q51 0 78.5 35t27.5 88v237q0 27 10 37.5t38 10.5h40q29 0 38.5 -11 t9.5 -37v-362zM226 607q0 -23 -8.5 -33t-34.5 -10h-46q-26 0 -34.5 10.5t-8.5 32.5v17q0 24 9 33.5t34 9.5h46q26 0 34.5 -9.5t8.5 -33.5v-17zM468 607q0 -23 -8.5 -33t-34.5 -10h-46q-26 0 -34.5 10.5t-8.5 32.5v17q0 24 9 33.5t34 9.5h46q26 0 34.5 -9.5t8.5 -33.5v-17z M379 749q6 -6 6 -10q0 -3 -1 -5q-5 -5 -17 -5h-67l-218 106q-8 4 -8 10v4q4 9 17 9h161z" />
<glyph unicode="&#x1dd;" horiz-adv-x="511" d="M479 231q0 -116 -60.5 -179t-178.5 -63q-108 0 -158.5 57t-50.5 158q0 21 8 32t16.5 12.5t23.5 1.5h272q-1 24 -3.5 41t-10.5 40t-21 37.5t-37 24.5t-56 10q-84 0 -151 -58q-11 -10 -17 -10q-7 0 -9 4.5t-5 27.5q-4 32 -4 44q0 8 5 12.5t24 13.5q76 38 161 38 q120 0 186 -61.5t66 -182.5zM350 197h-208q3 -67 23 -101.5t75 -34.5q103 0 110 136z" />
<glyph unicode="&#x1e6;" horiz-adv-x="733" d="M658 50q0 -8 -7 -11q-106 -50 -224 -50q-183 0 -274 90q-92 91 -92 268q0 178 92 269q93 90 274 90q62 0 110 -12q48 -10 105 -38q7 -4 7 -14l-19 -106q-2 -11 -12 -11q-5 0 -9 4q-43 43 -83 59q-43 18 -99 18q-110 0 -164 -64q-55 -65 -55 -195t55 -195q55 -63 164 -63 q46 0 95 11v130h-83q-12 0 -12 13v69q0 13 12 13h207q12 0 12 -13v-262zM539 853l-110 -104q-3 -3 -8 -3h-111q-5 0 -8 3l-108 102q-4 3 -4 8q0 2 2 5q3 9 11 9h47l5 -1l112 -81l112 81l5 1h47q8 0 11 -7q1 -3 1 -5q0 -5 -4 -8z" />
<glyph unicode="&#x1e7;" d="M534 405q0 -13 -13 -13q-6 0 -14 4q-41 11 -93 11q31 -38 31 -104q0 -165 -201 -165q-80 0 -127 26q-2 -12 -2 -15q0 -24 21 -45q14 -12 64 -12h48q39 0 58.5 -0.5t54 -3.5t53.5 -8.5t43 -16.5t36.5 -27.5t21.5 -41.5t9 -58q0 -142 -250 -142q-112 0 -171 27 q-42 19 -60 50.5t-18 61.5q0 61 67 88q-27 35 -27 79t27 81q-49 43 -49 123q0 165 201 165q89 0 142 -35q58 35 119 35q13 0 16 -3.5t6 -22.5q7 -35 7 -38zM317 304q0 25 -1.5 38.5t-8.5 28t-22.5 20.5t-40.5 6q-48 0 -60.5 -22t-12.5 -72q0 -25 1.5 -38.5t8.5 -28 t22.5 -20.5t40.5 -6q48 0 60.5 22t12.5 72zM421 -67q0 50 -123 50h-116q-16 0 -25 -1.5t-19 -12.5t-10 -33q0 -70 147 -70q146 0 146 67zM399 678l-98 -139q-3 -4 -9 -4h-111q-6 0 -9 4l-96 137q-2 3 -2 6.5t2 7.5q4 7 11 7h47q4 -1 6 -2l98 -101l98 101l6 2h47q7 0 11 -7 q1 -3 1 -5q0 -4 -2 -7z" />
<glyph unicode="&#x1ea;" horiz-adv-x="794" d="M732 342q0 -349 -308 -363q-20 -31 -20 -67t39 -38q11 0 64 12q5 2 12 -2.5t8 -9.5l11 -36q0 -14 -9 -19q-62 -32 -116 -32q-52 0 -80 28t-28 73q0 53 32 93q-276 30 -276 361q0 374 336 374q335 0 335 -374zM585 358q0 28 -0.5 44.5t-4 49.5t-10 54.5t-20.5 49 t-33.5 43.5t-50.5 27.5t-70 11.5t-69.5 -11.5t-50 -28t-33.5 -44t-20.5 -49t-10 -54t-4 -49.5t-0.5 -44q0 -28 0.5 -46t4 -53t10 -58t20.5 -52.5t33.5 -47.5t50.5 -30.5t70 -12.5t69.5 12.5t50 30.5t33.5 47.5t20.5 53t10 58.5t4 52.5t0.5 45.5z" />
<glyph unicode="&#x1eb;" d="M518 225q0 -226 -222 -235q-27 -35 -27 -76q-1 -38 39 -40q11 0 64 12q5 2 12 -2.5t8 -9.5l11 -36q0 -14 -9 -19q-62 -32 -116 -32q-52 0 -80 28t-28 73q0 62 43 105q-182 28 -182 232q0 250 244 250q243 0 243 -250zM382 237q0 26 -0.5 40t-3.5 37t-10 36t-18 27 t-30.5 20t-45.5 6t-45 -6.5t-30.5 -20.5t-18 -26.5t-9.5 -36t-3.5 -37t-0.5 -39.5q0 -32 1 -49t6.5 -44t16 -41t32 -25t52.5 -11t52 11t32 25t16.5 41t6 44t0.5 49z" />
<glyph unicode="&#x1f0;" horiz-adv-x="286" d="M224 -32q0 -173 -149 -173q-47 0 -96.5 16.5t-49.5 30.5q0 4 11 32q7 19 9.5 23t8.5 4q2 0 10 -4q28 -18 63 -18q21 0 34.5 6t18.5 18t6 20t1 21v466q0 27 10 37.5t38 10.5h37q29 0 38.5 -11t9.5 -37v-442zM313 678l-98 -139q-3 -4 -9 -4h-111q-6 0 -9 4l-96 137 q-2 3 -2 6.5t2 7.5q4 7 11 7h47q4 -1 6 -2l98 -101l98 101l6 2h47q7 0 11 -7q1 -3 1 -5q0 -4 -2 -7z" />
<glyph unicode="&#x1f4;" horiz-adv-x="733" d="M658 50q0 -8 -7 -11q-106 -50 -224 -50q-183 0 -274 90q-92 91 -92 268q0 178 92 269q93 90 274 90q62 0 110 -12q48 -10 105 -38q7 -4 7 -14l-19 -106q-2 -11 -12 -11q-5 0 -9 4q-43 43 -83 59q-43 18 -99 18q-110 0 -164 -64q-55 -65 -55 -195t55 -195q55 -63 164 -63 q46 0 95 11v130h-83q-12 0 -12 13v69q0 13 12 13h207q12 0 12 -13v-262zM566 862l-218 -106h-67q-12 0 -17 6q-1 1 -1 4q0 4 6 10l127 109h161q13 0 17 -9v-4q0 -6 -8 -10z" />
<glyph unicode="&#x1f5;" d="M534 405q0 -13 -13 -13q-6 0 -14 4q-41 11 -93 11q31 -38 31 -104q0 -165 -201 -165q-80 0 -127 26q-2 -12 -2 -15q0 -24 21 -45q14 -12 64 -12h48q39 0 58.5 -0.5t54 -3.5t53.5 -8.5t43 -16.5t36.5 -27.5t21.5 -41.5t9 -58q0 -142 -250 -142q-112 0 -171 27 q-42 19 -60 50.5t-18 61.5q0 61 67 88q-27 35 -27 79t27 81q-49 43 -49 123q0 165 201 165q89 0 142 -35q58 35 119 35q13 0 16 -3.5t6 -22.5q7 -35 7 -38zM317 304q0 25 -1.5 38.5t-8.5 28t-22.5 20.5t-40.5 6q-48 0 -60.5 -22t-12.5 -72q0 -25 1.5 -38.5t8.5 -28 t22.5 -20.5t40.5 -6q48 0 60.5 22t12.5 72zM421 -67q0 50 -123 50h-116q-16 0 -25 -1.5t-19 -12.5t-10 -33q0 -70 147 -70q146 0 146 67zM393 681q0 -6 -11 -15l-159 -129h-37q-10 0 -14.5 0.5t-8.5 3.5t-4 9q0 4 9 15l86 117q7 8 11 10t19 2h82q10 0 14.5 -0.5t8.5 -3.5 t4 -9z" />
<glyph unicode="&#x1fa;" horiz-adv-x="733" d="M690 27q0 -27 -39 -27h-54q-33 0 -44.5 12t-22.5 43l-34 96h-277l-39 -111q-14 -40 -63 -40h-36q-39 0 -39 27q0 7 5 20l211 604q7 20 19.5 30t21.5 11.5t23 1.5h88q14 0 23 -1.5t21.5 -11.5t19.5 -30l211 -604q5 -13 5 -20zM466 237l-95 281q-7 20 -13 49h-1 q-8 -36 -36 -118l-72 -212h217zM422 773q0 21 -13.5 27.5t-41.5 6.5q-30 0 -42.5 -6t-12.5 -28q0 -21 13.5 -27.5t41.5 -6.5q30 0 42.5 6t12.5 28zM490 772q0 -78 -123 -78t-123 80q0 78 123 78t123 -80zM515 1008l-218 -106h-67q-12 0 -16 6q-2 1 -2 4q0 4 6 10l127 109 h161q13 0 16 -9q1 -2 1 -4q0 -6 -8 -10z" />
<glyph unicode="&#x1fb;" horiz-adv-x="525" d="M474 48q0 -27 -10 -37.5t-38 -10.5h-37q-29 0 -38.5 11t-9.5 37v20q-54 -79 -156 -79q-63 0 -103.5 44t-40.5 100q0 30 15 54.5t37 39.5t54 26t59 16.5t58.5 8.5t45.5 3.5t28 0.5v35q0 47 -15.5 69.5t-54.5 22.5q-91 0 -155 -67q-6 -6 -11 -6q-11 0 -13 11q-7 56 -7 73 q0 8 5 12t21 11q77 32 164 32q202 0 202 -159v-268zM338 154v87l-29 -2q-14 -1 -41 -7.5t-46.5 -17t-35 -31t-15.5 -48.5q0 -30 19.5 -52t49.5 -22q5 0 12 0.5t23.5 5.5t29 14t23 28t10.5 45zM318 605q0 21 -13.5 27.5t-41.5 6.5q-30 0 -42.5 -6t-12.5 -28q0 -21 13.5 -27.5 t41.5 -6.5q30 0 42.5 6t12.5 28zM386 604q0 -78 -123 -78t-123 80q0 78 123 78t123 -80zM411 840l-218 -106h-67q-12 0 -16 6q-2 1 -2 4q0 4 6 10l127 109h161q13 0 16 -9q1 -2 1 -4q0 -6 -8 -10z" />
<glyph unicode="&#x1fc;" horiz-adv-x="947" d="M900 48q0 -27 -10 -37.5t-38 -10.5h-343q-28 0 -38 10.5t-10 37.5v144h-213l-62 -149q-11 -27 -26 -35t-41 -8h-37q-38 0 -38 26q0 6 5 18l251 608q10 25 25 33.5t41 8.5h471q29 0 38.5 -11t9.5 -37v-8q0 -23 -8.5 -34t-17.5 -12.5t-28 -1.5l-199 3h-25v-187h199 q27 0 37.5 -10t10.5 -37q0 -28 -11.5 -37.5t-36.5 -9.5h-199v-205h51q32 0 95 1.5t94 1.5q19 0 27.5 -1.5t17 -12.5t8.5 -34v-14zM461 278v316h-47l-131 -316h178zM673 862l-218 -106h-67q-12 0 -16 6q-2 1 -2 4q0 4 6 10l127 109h161q13 0 16 -9q1 -2 1 -4q0 -6 -8 -10z " />
<glyph unicode="&#x1fd;" horiz-adv-x="794" d="M762 261q0 -28 -11.5 -37.5t-36.5 -9.5h-249q3 -72 29 -112.5t89 -40.5q81 0 139 58q10 10 16 10q7 0 9 -4.5t5 -27.5q4 -32 4 -44q0 -8 -4 -11.5t-25 -15.5q-67 -37 -148 -37q-112 0 -179 55q-70 -55 -222 -55q-76 0 -111.5 44.5t-35.5 89.5q0 28 15 50.5t43.5 35.5 t56.5 22t68 13.5t61.5 6t53.5 2.5v64q0 45 -15 68.5t-55 23.5q-92 0 -156 -67q-6 -6 -11 -6q-11 0 -13 11q-7 56 -7 73q0 8 4.5 12t20.5 10q77 33 165 33q103 0 154 -41q57 41 149 41q100 0 148.5 -56.5t48.5 -157.5zM648 267q-1 23 -2 36.5t-6 35t-13 33.5t-23.5 21.5 t-37.5 9.5q-92 0 -100 -136h182zM346 122q-1 7 -3 12q-9 29 -13 65q-169 -9 -169 -75q0 -23 18.5 -43t52.5 -20q50 0 82 21t32 40zM553 681q0 -6 -11 -15l-159 -129h-37q-10 0 -14.5 0.5t-8.5 3.5t-4 9q0 4 9 15l86 117q7 8 11 10t19 2h82q10 0 14.5 -0.5t8.5 -3.5t4 -9z " />
<glyph unicode="&#x1fe;" horiz-adv-x="856" d="M794 342q0 -364 -367 -364q-83 0 -156 21l-29 -49q-11 -20 -19 -28t-22 -8t-28 10t-14 29q0 9 18 41l11 18l11 20q-138 91 -138 310q0 374 367 374q86 0 155 -22l30 50q12 21 19.5 28.5t21.5 7.5t28 -10t14 -29q0 -9 -19 -42q-8 -12 -22 -38q139 -87 139 -319zM542 623 q-50 21 -115 21q-48 0 -86 -11.5t-62.5 -28.5t-42 -45t-26 -51.5t-13.5 -58.5t-5.5 -55t-0.5 -51q0 -78 11 -132t46 -95zM664 343q0 48 -3 82t-16.5 78t-38.5 73l-294 -506q50 -20 116 -20q48 0 86 11t62.5 27t42 43t26 49.5t13 56.5t5.5 54.5t1 51.5zM627 862l-218 -106 h-67q-12 0 -16 6q-2 1 -2 4q0 4 6 10l127 109h161q13 0 16 -9q1 -2 1 -4q0 -6 -8 -10z" />
<glyph unicode="&#x1ff;" d="M518 225q0 -236 -244 -236q-49 0 -88 9l-56 -98q-6 -11 -8.5 -14.5t-7.5 -9.5t-10 -7.5t-13 -1.5q-15 0 -25.5 10.5t-10.5 25.5q0 10 14 34l50 90q-88 55 -88 198q0 250 243 250q52 0 91 -11l58 104q13 24 35 24q15 0 25.5 -10.5t10.5 -25.5q0 -11 -9 -27l-54 -95 q87 -61 87 -209zM326 395q-24 8 -51 8q-36 0 -60.5 -12.5t-37 -27.5t-18.5 -43.5t-7 -45.5t-1 -48q0 -81 17 -112zM398 226q0 83 -17 119l-156 -278q23 -6 49 -6q36 0 60.5 11t37 24.5t18.5 40t7 42.5t1 47zM431 681q0 -6 -11 -15l-159 -129h-37q-10 0 -14.5 0.5t-8.5 3.5 t-4 9q0 4 9 15l86 117q7 8 11 10t19 2h82q10 0 14.5 -0.5t8.5 -3.5t4 -9z" />
<glyph unicode="&#x200;" horiz-adv-x="733" d="M690 27q0 -27 -39 -27h-54q-33 0 -44.5 12t-22.5 43l-34 96h-277l-39 -111q-14 -40 -63 -40h-36q-39 0 -39 27q0 7 5 20l211 604q7 20 19.5 30t21.5 11.5t23 1.5h88q14 0 23 -1.5t21.5 -11.5t19.5 -30l211 -604q5 -13 5 -20zM466 237l-95 281q-7 20 -13 49h-1 q-8 -36 -36 -118l-72 -212h217zM494 770q0 -7 -4 -10t-8.5 -3.5t-14.5 -0.5h-18q-15 0 -19 2t-11 12l-74 114l-8 16q0 9 6 11t21 2h82q18 0 22.5 -3t6.5 -18zM311 770q0 -7 -4 -10t-8.5 -3.5t-14.5 -0.5h-18q-15 0 -19 2t-11 12l-74 114l-8 16q0 9 6 11t21 2h82q17 0 22 -3 t7 -18z" />
<glyph unicode="&#x201;" horiz-adv-x="525" d="M474 48q0 -27 -10 -37.5t-38 -10.5h-37q-29 0 -38.5 11t-9.5 37v20q-54 -79 -156 -79q-63 0 -103.5 44t-40.5 100q0 30 15 54.5t37 39.5t54 26t59 16.5t58.5 8.5t45.5 3.5t28 0.5v35q0 47 -15.5 69.5t-54.5 22.5q-91 0 -155 -67q-6 -6 -11 -6q-11 0 -13 11q-7 56 -7 73 q0 8 5 12t21 11q77 32 164 32q202 0 202 -159v-268zM338 154v87l-29 -2q-14 -1 -41 -7.5t-46.5 -17t-35 -31t-15.5 -48.5q0 -30 19.5 -52t49.5 -22q5 0 12 0.5t23.5 5.5t29 14t23 28t10.5 45zM421 551q0 -7 -4 -10t-8.5 -3.5t-14.5 -0.5h-18q-15 0 -19 2t-11 12l-74 114 l-8 16q0 9 6 11t21 2h82q17 0 22 -3t7 -18zM238 551q0 -7 -4 -10t-8.5 -3.5t-14.5 -0.5h-18q-15 0 -19 2t-11 12l-74 114l-8 16q0 9 6 11t21 2h82q18 0 22.5 -3t6.5 -18z" />
<glyph unicode="&#x204;" horiz-adv-x="642" d="M595 48q0 -27 -10 -37.5t-38 -10.5h-408q-28 0 -38 10.5t-10 37.5v595q0 28 10.5 38t37.5 10h393q29 0 38.5 -11t9.5 -37v-8q0 -17 -3.5 -27.5t-13 -14.5t-17 -5t-24.5 -1l-235 3h-49v-185h263q27 0 37.5 -10t10.5 -37q0 -28 -11.5 -37.5t-36.5 -9.5h-263v-205l146 2 l155 2q21 0 30.5 -1.5t17.5 -12.5t8 -34v-14zM479 770q0 -7 -4 -10t-8.5 -3.5t-14.5 -0.5h-18q-15 0 -19 2t-11 12l-74 114l-8 16q0 9 6 11t21 2h82q17 0 22 -3t7 -18zM296 770q0 -7 -4 -10t-8.5 -3.5t-14.5 -0.5h-18q-15 0 -19 2t-11 12l-74 114l-8 16q0 9 6 11t21 2h82 q18 0 22.5 -3t6.5 -18z" />
<glyph unicode="&#x205;" horiz-adv-x="511" d="M479 260q0 -21 -8 -32t-16.5 -12.5t-23.5 -1.5h-272q1 -24 3.5 -41t10.5 -40t21 -37.5t37 -24.5t56 -10q84 0 151 58q11 10 17 10q7 0 9 -4.5t5 -27.5q4 -32 4 -44q0 -8 -5 -12.5t-24 -13.5q-76 -38 -161 -38q-120 0 -186 61.5t-66 182.5q0 116 60.5 179t178.5 63 q108 0 158.5 -57t50.5 -158zM368 267q-3 67 -23 101.5t-75 34.5q-103 0 -110 -136h208zM414 551q0 -7 -4 -10t-8.5 -3.5t-14.5 -0.5h-18q-15 0 -19 2t-11 12l-74 114l-8 16q0 9 6 11t21 2h82q18 0 22.5 -3t6.5 -18zM231 551q0 -7 -4 -10t-8.5 -3.5t-14.5 -0.5h-18 q-15 0 -19 2t-11 12l-74 114l-8 16q0 9 6 11t21 2h82q17 0 22 -3t7 -18z" />
<glyph unicode="&#x208;" horiz-adv-x="331" d="M239 48q0 -27 -10 -37.5t-38 -10.5h-51q-28 0 -38 10.5t-10 37.5v598q0 28 10.5 38t37.5 10h51q29 0 38.5 -11t9.5 -37v-598zM323 770q0 -7 -4 -10t-8.5 -3.5t-14.5 -0.5h-18q-15 0 -19 2t-11 12l-74 114l-8 16q0 9 6 11t21 2h82q17 0 22 -3t7 -18zM140 770q0 -7 -4 -10 t-8.5 -3.5t-14.5 -0.5h-18q-15 0 -19 2t-11 12l-74 114l-8 16q0 9 6 11t21 2h82q18 0 22.5 -3t6.5 -18z" />
<glyph unicode="&#x209;" horiz-adv-x="256" d="M194 48q0 -27 -10 -37.5t-38 -10.5h-37q-28 0 -38 10.5t-10 37.5v362q0 28 10.5 38t37.5 10h37q29 0 38.5 -11t9.5 -37v-362zM286 551q0 -7 -4 -10t-8.5 -3.5t-14.5 -0.5h-18q-15 0 -19 2t-11 12l-74 114l-8 16q0 9 6 11t21 2h82q18 0 22.5 -3t6.5 -18zM103 551 q0 -7 -4 -10t-8.5 -3.5t-14.5 -0.5h-18q-15 0 -19 2t-11 12l-74 114l-8 16q0 9 6 11t21 2h82q17 0 22 -3t7 -18z" />
<glyph unicode="&#x20c;" horiz-adv-x="794" d="M732 342q0 -364 -336 -364q-335 0 -335 364q0 374 336 374q335 0 335 -374zM585 358q0 28 -0.5 44.5t-4 49.5t-10 54.5t-20.5 49t-33.5 43.5t-50.5 27.5t-70 11.5t-69.5 -11.5t-50 -28t-33.5 -44t-20.5 -49t-10 -54t-4 -49.5t-0.5 -44q0 -28 0.5 -46t4 -53t10 -58 t20.5 -52.5t33.5 -47.5t50.5 -30.5t70 -12.5t69.5 12.5t50 30.5t33.5 47.5t20.5 53t10 58.5t4 52.5t0.5 45.5zM555 770q0 -7 -4 -10t-8.5 -3.5t-14.5 -0.5h-18q-15 0 -19 2t-11 12l-74 114l-8 16q0 9 6 11t21 2h82q17 0 22 -3t7 -18zM372 770q0 -7 -4 -10t-8.5 -3.5 t-14.5 -0.5h-18q-15 0 -19 2t-11 12l-74 114l-8 16q0 9 6 11t21 2h82q18 0 22.5 -3t6.5 -18z" />
<glyph unicode="&#x20d;" d="M518 225q0 -236 -244 -236q-243 0 -243 236q0 250 244 250q243 0 243 -250zM382 237q0 26 -0.5 40t-3.5 37t-10 36t-18 27t-30.5 20t-45.5 6t-45 -6.5t-30.5 -20.5t-18 -26.5t-9.5 -36t-3.5 -37t-0.5 -39.5q0 -32 1 -49t6.5 -44t16 -41t32 -25t52.5 -11t52 11t32 25 t16.5 41t6 44t0.5 49zM433 551q0 -7 -4 -10t-8.5 -3.5t-14.5 -0.5h-18q-15 0 -19 2t-11 12l-74 114l-8 16q0 9 6 11t21 2h82q17 0 22 -3t7 -18zM250 551q0 -7 -4 -10t-8.5 -3.5t-14.5 -0.5h-18q-15 0 -19 2t-11 12l-74 114l-8 16q0 9 6 11t21 2h82q18 0 22.5 -3t6.5 -18z " />
<glyph unicode="&#x210;" horiz-adv-x="703" d="M653 30q0 -14 -6 -21t-12 -8t-19 -1h-59q-13 0 -19 1t-13.5 6t-14.5 17l-164 287h-111v-263q0 -27 -10 -37.5t-38 -10.5h-48q-28 0 -38 10.5t-10 37.5v598q0 28 10.5 38t37.5 10h240q16 0 29 -0.5t42 -4.5t51.5 -10.5t50 -21.5t46 -35t31 -52.5t12.5 -72.5 q0 -139 -158 -177zM502 496q0 56 -28 84t-109 28h-130v-225h130q84 0 110.5 29.5t26.5 83.5zM479 770q0 -7 -4 -10t-8.5 -3.5t-14.5 -0.5h-18q-15 0 -19 2t-11 12l-74 114l-8 16q0 9 6 11t21 2h82q17 0 22 -3t7 -18zM296 770q0 -7 -4 -10t-8.5 -3.5t-14.5 -0.5h-18 q-15 0 -19 2t-11 12l-74 114l-8 16q0 9 6 11t21 2h82q18 0 22.5 -3t6.5 -18z" />
<glyph unicode="&#x211;" horiz-adv-x="372" d="M356 395q0 -19 -3 -22.5t-17 -4.5q-55 -4 -98.5 -38.5t-43.5 -99.5v-182q0 -27 -10 -37.5t-38 -10.5h-37q-28 0 -38 10.5t-10 37.5v368q0 28 10.5 38t37.5 10h32q29 0 38.5 -11t9.5 -37v-65h1q16 38 38 63.5t44 36.5t37 14.5t29 3.5q13 0 15.5 -5t2.5 -22v-47zM344 551 q0 -7 -4 -10t-8.5 -3.5t-14.5 -0.5h-18q-15 0 -19 2t-11 12l-74 114l-8 16q0 9 6 11t21 2h82q18 0 22.5 -3t6.5 -18zM161 551q0 -7 -4 -10t-8.5 -3.5t-14.5 -0.5h-18q-15 0 -19 2t-11 12l-74 114l-8 16q0 9 6 11t21 2h82q17 0 22 -3t7 -18z" />
<glyph unicode="&#x214;" horiz-adv-x="764" d="M672 229q0 -62 -19.5 -109t-48.5 -73.5t-70 -42.5t-76 -21t-74 -5q-54 0 -100.5 10.5t-92.5 36t-73 78t-27 127.5v416q0 28 10.5 38t37.5 10h51q29 0 38.5 -11t9.5 -37v-420q0 -82 32 -122t115 -40q86 0 118.5 41t32.5 122v419q0 27 10 37.5t38 10.5h40q29 0 38.5 -11 t9.5 -37v-417zM540 770q0 -7 -4 -10t-8.5 -3.5t-14.5 -0.5h-18q-15 0 -19 2t-11 12l-74 114l-8 16q0 9 6 11t21 2h82q18 0 22.5 -3t6.5 -18zM357 770q0 -7 -4 -10t-8.5 -3.5t-14.5 -0.5h-18q-15 0 -19 2t-11 12l-74 114l-8 16q0 9 6 11t21 2h82q17 0 22 -3t7 -18z" />
<glyph unicode="&#x215;" horiz-adv-x="561" d="M500 48q0 -27 -10 -37.5t-38 -10.5h-37q-29 0 -38.5 11t-9.5 37v26q-47 -85 -145 -85q-83 0 -122.5 30t-39.5 107v284q0 28 10.5 38t37.5 10h40q29 0 38.5 -11t9.5 -37v-293q0 -41 10.5 -54t51.5 -13q51 0 78.5 35t27.5 88v237q0 27 10 37.5t38 10.5h40q29 0 38.5 -11 t9.5 -37v-362zM439 551q0 -7 -4 -10t-8.5 -3.5t-14.5 -0.5h-18q-15 0 -19 2t-11 12l-74 114l-8 16q0 9 6 11t21 2h82q17 0 22 -3t7 -18zM256 551q0 -7 -4 -10t-8.5 -3.5t-14.5 -0.5h-18q-15 0 -19 2t-11 12l-74 114l-8 16q0 9 6 11t21 2h82q18 0 22.5 -3t6.5 -18z" />
<glyph unicode="&#x218;" horiz-adv-x="611" d="M549 200q0 -113 -64 -167.5t-180 -54.5q-74 0 -147 23l-6 2q-6 2 -13 5t-17.5 7t-19.5 9l-20 9q-10 5 -17 9.5t-11.5 9t-4.5 8.5q0 5 2 13l15 87q4 18 14 18q6 0 18 -12q88 -79 207 -79t119 97q0 38 -31 69q-15 14 -33.5 20.5t-66.5 17.5q-50 12 -71.5 18t-51 21.5 t-53.5 40.5q-56 59 -56 137q0 66 24.5 110.5t65.5 64t77 26.5t77 7q100 0 181 -40q19 -10 22.5 -13t3.5 -9q0 -5 -2 -13l-15 -87q-4 -18 -14 -18q-4 0 -21 16q-62 61 -155 61q-119 0 -119 -87q0 -37 28 -58t56 -27l96 -22q78 -18 130.5 -78t52.5 -141zM365 -173 q0 -17 -8 -29l-47 -75q-7 -11 -10.5 -13t-17.5 -2h-11q-23 0 -23 11l14 41q3 7 8 21.5t8 21.5q-22 0 -26.5 3.5t-4.5 20.5v70q0 17 3.5 20.5t20.5 3.5h70q17 0 20.5 -3.5t3.5 -20.5v-70z" />
<glyph unicode="&#x219;" horiz-adv-x="422" d="M396 141q0 -152 -177 -152q-58 0 -113 17q-75 24 -75 42q0 6 6.5 41.5t7.5 39.5q3 15 13 15q6 0 14 -8q58 -69 147 -69q78 0 78 54q0 20 -15.5 33.5t-29 17t-35.5 7.5q-37 7 -53.5 11t-38.5 14t-39 25q-49 44 -49 103q0 143 179 143q54 0 98 -12q1 0 10.5 -3t17 -6 t16.5 -7t14.5 -8.5t5.5 -9.5q0 -21 -12 -69q-3 -13 -13 -13q-6 0 -16 10q-56 47 -129 47q-72 0 -72 -49q0 -18 14 -30t30.5 -16.5t50.5 -10.5q28 -5 41.5 -8.5t35 -14t40.5 -27.5q48 -43 48 -107zM270 -173q0 -17 -8 -29l-47 -75q-7 -11 -10.5 -13t-17.5 -2h-11 q-23 0 -23 11l14 41q3 7 8 21.5t8 21.5q-22 0 -26.5 3.5t-4.5 20.5v70q0 17 3.5 20.5t20.5 3.5h70q17 0 20.5 -3.5t3.5 -20.5v-70z" />
<glyph unicode="&#x21a;" horiz-adv-x="733" d="M692 632q0 -23 -8 -34t-17 -12.5t-27 -1.5l-200 3v-539q0 -27 -10 -37.5t-38 -10.5h-51q-28 0 -38 10.5t-10 37.5v539l-201 -3q-18 0 -27 1.5t-17 12.5t-8 34v8q0 28 10.5 38t37.5 10h556q29 0 38.5 -11t9.5 -37v-8zM426 -173q0 -17 -8 -29l-47 -75q-7 -11 -10.5 -13 t-17.5 -2h-11q-23 0 -23 11l14 41q3 7 8 21.5t8 21.5q-22 0 -26.5 3.5t-4.5 20.5v70q0 17 3.5 20.5t20.5 3.5h70q17 0 20.5 -3.5t3.5 -20.5v-70z" />
<glyph unicode="&#x21b;" horiz-adv-x="404" d="M373 47q0 -20 -75 -42q-52 -16 -105 -16q-105 0 -105 144v253h-20q-48 0 -48 36t48 36h23v83q0 28 10.5 38t37.5 10h31q29 0 38.5 -11t9.5 -37v-83h89q48 0 48 -36t-48 -36h-89v-236q0 -47 10 -65t29 -18q39 0 80 30q7 7 12 7q6 0 9 -5t7 -21q8 -28 8 -31zM261 -173 q0 -17 -8 -29l-47 -75q-7 -11 -10.5 -13t-17.5 -2h-11q-23 0 -23 11l14 41q3 7 8 21.5t8 21.5q-22 0 -26.5 3.5t-4.5 20.5v70q0 17 3.5 20.5t20.5 3.5h70q17 0 20.5 -3.5t3.5 -20.5v-70z" />
<glyph unicode="&#x237;" horiz-adv-x="286" d="M224 -32q0 -173 -149 -173q-47 0 -96.5 16.5t-49.5 30.5q0 4 11 32q7 19 9.5 23t8.5 4q2 0 10 -4q28 -18 63 -18q21 0 34.5 6t18.5 18t6 20t1 21v466q0 27 10 37.5t38 10.5h37q29 0 38.5 -11t9.5 -37v-442z" />
<glyph unicode="&#x258;" horiz-adv-x="511" d="M479 233q0 -121 -66 -182.5t-186 -61.5q-85 0 -161 38q-11 5 -14.5 7t-8 5.5t-5.5 6t-1 7.5q0 12 4 44q3 23 5 27.5t9 4.5q6 0 17 -10q67 -58 151 -58q32 0 56 10t37 24.5t21 37.5t10.5 40t3.5 41h-272q-15 0 -23.5 1.5t-16.5 12.5t-8 32q0 101 50.5 158t158.5 57 q118 0 178.5 -63t60.5 -179zM350 267q-7 136 -110 136q-55 0 -75 -34.5t-23 -101.5h208z" />
<glyph unicode="&#x259;" horiz-adv-x="511" d="M479 231q0 -116 -60.5 -179t-178.5 -63q-108 0 -158.5 57t-50.5 158q0 21 8 32t16.5 12.5t23.5 1.5h272q-1 24 -3.5 41t-10.5 40t-21 37.5t-37 24.5t-56 10q-84 0 -151 -58q-11 -10 -17 -10q-7 0 -9 4.5t-5 27.5q-4 32 -4 44q0 8 5 12.5t24 13.5q76 38 161 38 q120 0 186 -61.5t66 -182.5zM350 197h-208q3 -67 23 -101.5t75 -34.5q103 0 110 136z" />
<glyph unicode="&#x2be;" horiz-adv-x="436" d="M375 449q0 -182 -180 -182q-57 0 -109 23q-20 9 -20 21q0 3 8 51q4 14 15 14q6 0 17 -10q39 -31 88 -31q25 0 40 9t21.5 27.5t8 34t1.5 41.5q0 20 -0.5 29t-3.5 28.5t-9.5 29t-20.5 18t-34 8.5q-58 0 -101 -39q-10 -9 -16 -9q-14 0 -14 15q-5 25 -5 51q0 7 3.5 11 t20.5 13q52 26 114 26q176 0 176 -179z" />
<glyph unicode="&#x2bf;" horiz-adv-x="436" d="M375 317q0 -7 -3.5 -11t-20.5 -13q-52 -26 -114 -26q-176 0 -176 179q0 182 180 182q57 0 109 -23q20 -9 20 -21q0 -3 -8 -51q-4 -14 -15 -14q-6 0 -17 10q-39 31 -88 31q-25 0 -40 -9t-21.5 -27.5t-8 -34t-1.5 -41.5q0 -20 0.5 -29t3.5 -28.5t9.5 -29t20.5 -18t34 -8.5 q58 0 101 39q10 9 16 9q14 0 14 -15q5 -25 5 -51z" />
<glyph unicode="&#x2c6;" d="M437 556q2 -3 2 -6.5t-2 -7.5q-4 -7 -11 -7h-47q-4 1 -6 2l-98 101l-98 -101l-6 -2h-47q-7 0 -10 7q-2 3 -2 5q0 4 2 7l98 139q3 4 9 4h111q6 0 9 -4z" />
<glyph unicode="&#x2c7;" d="M437 678l-98 -139q-3 -4 -9 -4h-111q-6 0 -9 4l-96 137q-2 3 -2 6.5t2 7.5q4 7 11 7h47q4 -1 6 -2l98 -101l98 101l6 2h47q7 0 11 -7q1 -3 1 -5q0 -4 -2 -7z" />
<glyph unicode="&#x2d8;" d="M464 649q0 -104 -189 -104q-188 0 -188 104q0 18 11 28t25 10q6 0 12 -1.5t14.5 -10.5t9.5 -24q26 -13 117 -13q90 0 116 13q1 15 9.5 24t14.5 10.5t12 1.5q13 0 24.5 -10t11.5 -28z" />
<glyph unicode="&#x2d9;" horiz-adv-x="306" d="M226 606q0 -25 -9.5 -36.5t-38.5 -11.5h-51q-30 0 -39 11.5t-9 36.5v19q0 27 10 37.5t38 10.5h51q29 0 38.5 -11t9.5 -37v-19z" />
<glyph unicode="&#x2da;" horiz-adv-x="733" d="M422 605q0 21 -13.5 27.5t-41.5 6.5q-30 0 -42.5 -6t-12.5 -28q0 -21 13.5 -27.5t41.5 -6.5q30 0 42.5 6t12.5 28zM490 604q0 -78 -123 -78t-123 80q0 78 123 78t123 -80z" />
<glyph unicode="&#x2db;" d="M392 -162q0 -14 -9 -19q-62 -32 -116 -32q-52 0 -80 28t-28 73q0 41 20.5 76t55.5 54l71 -8q-48 -38 -48 -98q0 -36 39 -38q11 0 64 12q5 2 12 -2.5t8 -9.5z" />
<glyph unicode="&#x2dc;" d="M458 664q0 -41 -30.5 -77.5t-79.5 -36.5q-44 0 -98 37q-30 22 -47 22q-33 0 -38 -44q-1 -11 -6 -13t-21 -2h-18q-16 0 -21.5 2.5t-5.5 14.5q0 41 30.5 77.5t79.5 36.5q44 0 98 -37q30 -22 47 -22q33 0 38 44q1 11 6 13t21 2h18q17 0 22 -2.5t5 -14.5z" />
<glyph unicode="&#x2dd;" d="M274 681q0 -4 -8 -16l-74 -114q-7 -10 -11 -12t-19 -2h-18q-10 0 -14.5 0.5t-8.5 3.5t-4 10l19 122q2 15 7 18t22 3h82q10 0 14.5 -0.5t8.5 -3.5t4 -9zM457 681q0 -4 -8 -16l-74 -114q-7 -10 -11 -12t-19 -2h-18q-10 0 -14.5 0.5t-8.5 3.5t-4 10l19 122q2 15 6.5 18 t22.5 3h82q10 0 14.5 -0.5t8.5 -3.5t4 -9z" />
<glyph unicode="&#x300;" horiz-adv-x="0" d="M-184 550q0 -9 -6 -11t-21 -2h-37l-159 129q-11 9 -11 15q0 9 6 11t21 2h82q15 0 19 -2t11 -10l86 -117q9 -11 9 -15z" />
<glyph unicode="&#x301;" horiz-adv-x="0" d="M-106 681q0 -6 -11 -15l-159 -129h-37q-10 0 -14.5 0.5t-8.5 3.5t-4 9q0 4 9 15l86 117q7 8 11 10t19 2h82q10 0 14.5 -0.5t8.5 -3.5t4 -9z" />
<glyph unicode="&#x302;" horiz-adv-x="0" d="M-100 556q2 -3 2 -6.5t-2 -7.5q-4 -7 -11 -7h-47q-4 1 -6 2l-98 101l-98 -101l-6 -2h-47q-7 0 -11 7q-1 3 -1 5q0 4 2 7l98 139q3 4 9 4h111q6 0 9 -4z" />
<glyph unicode="&#x303;" horiz-adv-x="0" d="M-79 664q0 -41 -30.5 -77.5t-79.5 -36.5q-44 0 -98 37q-30 22 -47 22q-33 0 -38 -44q-1 -11 -6 -13t-21 -2h-18q-16 0 -21.5 2.5t-5.5 14.5q0 41 30.5 77.5t79.5 36.5q44 0 98 -37q30 -22 47 -22q33 0 38 44q1 11 6 13t21 2h18q17 0 22 -2.5t5 -14.5z" />
<glyph unicode="&#x304;" horiz-adv-x="0" d="M-63 600q0 -20 -3.5 -23.5t-23.5 -3.5h-343q-19 0 -23 3.5t-4 23.5v31q0 19 4 23t23 4h343q20 0 23.5 -4t3.5 -23v-31z" />
<glyph unicode="&#x306;" horiz-adv-x="0" d="M-73 649q0 -104 -189 -104q-188 0 -188 104q0 18 11 28t25 10q6 0 12 -1.5t14.5 -10.5t9.5 -24q26 -13 117 -13q90 0 116 13q1 15 9.5 24t14.5 10.5t12 1.5q13 0 24.5 -10t11.5 -28z" />
<glyph unicode="&#x307;" horiz-adv-x="0" d="M-189 606q0 -25 -9.5 -36.5t-38.5 -11.5h-51q-30 0 -39 11.5t-9 36.5v19q0 27 10 37.5t38 10.5h51q29 0 38.5 -11t9.5 -37v-19z" />
<glyph unicode="&#x308;" horiz-adv-x="0" d="M-317 607q0 -23 -8.5 -33t-34.5 -10h-46q-26 0 -34.5 10.5t-8.5 32.5v17q0 24 9 33.5t34 9.5h46q26 0 34.5 -9.5t8.5 -33.5v-17zM-75 607q0 -23 -8.5 -33t-34.5 -10h-46q-26 0 -34.5 10.5t-8.5 32.5v17q0 24 9 33.5t34 9.5h46q26 0 34.5 -9.5t8.5 -33.5v-17z" />
<glyph unicode="&#x309;" horiz-adv-x="0" d="M-155 645q0 -36 -31 -52q-8 -4 -15 -7q-27 -14 -37 -22.5t-10 -21.5v-17q0 -12 -12 -12h-19q-5 0 -9 3.5t-4 8.5v17q0 52 44 88q5 5 5 15q0 19 -3 22q-5 5 -24 5t-35 -14.5t-23 -37.5h-1l-2 -5l-4 -3h-1l-4 -1l-4 1q-4 1 -5 3q-2 2 -3 4l-16 45l-1 4q0 5 3 8q38 43 96 43 t85 -16q30 -19 30 -58z" />
<glyph unicode="&#x30a;" horiz-adv-x="0" d="M-207 605q0 21 -13.5 27.5t-41.5 6.5q-30 0 -42.5 -6t-12.5 -28q0 -21 13.5 -27.5t41.5 -6.5q30 0 42.5 6t12.5 28zM-139 604q0 -78 -123 -78t-123 80q0 78 123 78t123 -80z" />
<glyph unicode="&#x30b;" horiz-adv-x="0" d="M-263 681q0 -4 -8 -16l-74 -114q-7 -10 -11 -12t-19 -2h-18q-10 0 -14.5 0.5t-8.5 3.5t-4 10l19 122q2 15 6.5 18t22.5 3h82q10 0 14.5 -0.5t8.5 -3.5t4 -9zM-80 681q0 -4 -8 -16l-74 -114q-7 -10 -11 -12t-19 -2h-18q-10 0 -14.5 0.5t-8.5 3.5t-4 10l19 122q2 15 7 18 t22 3h82q10 0 14.5 -0.5t8.5 -3.5t4 -9z" />
<glyph unicode="&#x30c;" horiz-adv-x="0" d="M-100 678l-98 -139q-3 -4 -9 -4h-111q-6 0 -9 4l-96 137q-2 3 -2 6.5t2 7.5q4 7 11 7h47q4 -1 6 -2l98 -101l98 101l6 2h47q7 0 10 -7q2 -3 2 -5q0 -4 -2 -7z" />
<glyph unicode="&#x30f;" horiz-adv-x="0" d="M-104 551q0 -7 -4 -10t-8.5 -3.5t-14.5 -0.5h-18q-15 0 -19 2t-11 12l-74 114l-8 16q0 9 6 11t21 2h82q18 0 22.5 -3t6.5 -18zM-287 551q0 -7 -4 -10t-8.5 -3.5t-14.5 -0.5h-18q-15 0 -19 2t-11 12l-74 114l-8 16q0 9 6 11t21 2h82q17 0 22 -3t7 -18z" />
<glyph unicode="&#x311;" horiz-adv-x="0" d="M-73 583q0 -18 -11 -28t-25 -10q-6 0 -12 1.5t-14.5 10.5t-9.5 24q-26 13 -117 13q-90 0 -116 -13q-1 -15 -9.5 -24t-14.5 -10.5t-12 -1.5q-13 0 -24.5 10t-11.5 28q0 104 189 104q188 0 188 -104z" />
<glyph unicode="&#x323;" horiz-adv-x="0" d="M-189 -152q0 -25 -9.5 -36.5t-38.5 -11.5h-51q-30 0 -39 11.5t-9 36.5v19q0 27 10 37.5t38 10.5h51q29 0 38.5 -11t9.5 -37v-19z" />
<glyph unicode="&#x326;" horiz-adv-x="0" d="M-203 -173q0 -17 -8 -29l-47 -75q-7 -11 -10.5 -13t-17.5 -2h-11q-23 0 -23 11l14 41q3 7 8 21.5t8 21.5q-22 0 -26.5 3.5t-4.5 20.5v70q0 17 3.5 20.5t20.5 3.5h70q17 0 20.5 -3.5t3.5 -20.5v-70z" />
<glyph unicode="&#x32e;" horiz-adv-x="0" d="M-73 -109q0 -104 -189 -104q-188 0 -188 104q0 18 11 28t25 10q6 0 12 -1.5t14.5 -10.5t9.5 -24q26 -13 117 -13q90 0 116 13q1 15 9.5 24t14.5 10.5t12 1.5q13 0 24.5 -10t11.5 -28z" />
<glyph unicode="&#x32f;" horiz-adv-x="0" d="M-73 -175q0 -18 -11 -28t-25 -10q-6 0 -12 1.5t-14.5 10.5t-9.5 24q-26 13 -117 13q-90 0 -116 -13q-1 -15 -9.5 -24t-14.5 -10.5t-12 -1.5q-13 0 -24.5 10t-11.5 28q0 104 189 104q188 0 188 -104z" />
<glyph unicode="&#x330;" horiz-adv-x="0" d="M-79 -93q0 -41 -30.5 -77.5t-79.5 -36.5q-44 0 -98 37q-30 22 -47 22q-33 0 -38 -44q-1 -11 -6 -13t-21 -2h-18q-16 0 -21.5 2.5t-5.5 14.5q0 41 30.5 77.5t79.5 36.5q44 0 98 -37q30 -22 47 -22q33 0 38 44q1 11 6 13t21 2h18q17 0 22 -2.5t5 -14.5z" />
<glyph unicode="&#x331;" horiz-adv-x="0" d="M-63 -157q0 -19 -3.5 -23t-23.5 -4h-343q-19 0 -23 4t-4 23v31q0 20 4 23.5t23 3.5h343q20 0 23.5 -3.5t3.5 -23.5v-31z" />
<glyph unicode="&#x332;" horiz-adv-x="0" d="M-63 -157q0 -19 -3.5 -23t-23.5 -4h-343q-19 0 -23 4t-4 23v31q0 20 4 23.5t23 3.5h343q20 0 23.5 -3.5t3.5 -23.5v-31z" />
<glyph unicode="&#x391;" horiz-adv-x="733" d="M690 27q0 -27 -39 -27h-54q-33 0 -44.5 12t-22.5 43l-34 96h-277l-39 -111q-14 -40 -63 -40h-36q-39 0 -39 27q0 7 5 20l211 604q7 20 19.5 30t21.5 11.5t23 1.5h88q14 0 23 -1.5t21.5 -11.5t19.5 -30l211 -604q5 -13 5 -20zM466 237l-95 281q-7 20 -13 49h-1 q-8 -36 -36 -118l-72 -212h217z" />
<glyph unicode="&#x392;" horiz-adv-x="733" d="M671 194q0 -51 -20.5 -89t-48.5 -57.5t-67 -31t-66 -14t-56 -2.5h-274q-28 0 -38 10.5t-10 37.5v598q0 28 10.5 38t37.5 10h246q15 0 27.5 -0.5t41 -4t50 -9.5t48.5 -19.5t45 -32t30.5 -48t12.5 -66.5q0 -58 -37.5 -96.5t-107.5 -54.5q176 -29 176 -169zM504 511 q0 97 -155 97h-117v-211h116q14 0 26.5 0.5t38.5 7t44 17t32.5 34t14.5 55.5zM532 196q0 129 -174 129h-126v-239h145q155 0 155 110z" />
<glyph unicode="&#x393;" horiz-adv-x="581" d="M534 635q0 -23 -8 -34t-17.5 -12.5t-29.5 -1.5l-209 3h-32v-542q0 -27 -10 -37.5t-38 -10.5h-51q-28 0 -38 10.5t-10 37.5v595q0 28 10.5 38t37.5 10h347q29 0 38.5 -11t9.5 -37v-8z" />
<glyph unicode="&#x394;" horiz-adv-x="917" d="M856 25q0 -25 -38 -25h-720q-38 0 -38 25q0 6 7 20l278 610q18 39 68 39h90q50 0 68 -39l279 -612q6 -12 6 -18zM648 132l-201 440l-201 -440h402z" />
<glyph unicode="&#x395;" horiz-adv-x="642" d="M595 48q0 -27 -10 -37.5t-38 -10.5h-408q-28 0 -38 10.5t-10 37.5v595q0 28 10.5 38t37.5 10h393q29 0 38.5 -11t9.5 -37v-8q0 -17 -3.5 -27.5t-13 -14.5t-17 -5t-24.5 -1l-235 3h-49v-185h263q27 0 37.5 -10t10.5 -37q0 -28 -11.5 -37.5t-36.5 -9.5h-263v-205l146 2 l155 2q21 0 30.5 -1.5t17.5 -12.5t8 -34v-14z" />
<glyph unicode="&#x396;" horiz-adv-x="672" d="M616 48q0 -27 -10 -37.5t-38 -10.5h-459q-28 0 -38 10.5t-10 37.5v8q0 22 10 35l362 508h-35l-261 -3q-19 0 -27 1t-17.5 5t-13 14.5t-3.5 28.5q0 26 9 37.5t39 11.5h438q32 0 40 -12t8 -38q0 -24 -10 -37l-360 -506l319 4q16 0 23.5 -1t17 -5t13 -14.5t3.5 -27.5v-9z " />
<glyph unicode="&#x397;" horiz-adv-x="794" d="M702 48q0 -27 -10 -37.5t-38 -10.5h-51q-29 0 -38.5 11t-9.5 37v266h-317v-266q0 -27 -10 -37.5t-38 -10.5h-51q-28 0 -38 10.5t-10 37.5v598q0 28 10.5 38t37.5 10h51q29 0 38.5 -11t9.5 -37v-238h317v238q0 27 10 37.5t38 10.5h51q29 0 38.5 -11t9.5 -37v-598z" />
<glyph unicode="&#x398;" horiz-adv-x="856" d="M794 342q0 -364 -367 -364q-366 0 -366 364q0 374 367 374q366 0 366 -374zM653 343q0 28 -0.5 45t-5 52t-12.5 59t-24.5 53.5t-39.5 47.5t-60 31t-84 13q-46 0 -83 -13t-60 -31t-40 -48t-24.5 -53.5t-12 -58.5t-5 -52.5t-0.5 -44.5t0.5 -44t5 -51t12 -56.5t24.5 -51 t40 -46t60 -29.5t83 -12t83 12t60 29t40 45t25 51t12.5 56.5t5 51.5t0.5 45zM591 330q0 -29 -11.5 -38.5t-40.5 -9.5h-223q-30 0 -41 10t-11 38v37q0 29 11.5 38.5t40.5 9.5h223q30 0 41 -10t11 -38v-37z" />
<glyph unicode="&#x399;" horiz-adv-x="331" d="M239 48q0 -27 -10 -37.5t-38 -10.5h-51q-28 0 -38 10.5t-10 37.5v598q0 28 10.5 38t37.5 10h51q29 0 38.5 -11t9.5 -37v-598z" />
<glyph unicode="&#x39a;" horiz-adv-x="764" d="M701 29q0 -20 -8 -24.5t-27 -4.5h-60q-34 0 -50 21l-224 300l-111 -105v-168q0 -27 -10 -37.5t-38 -10.5h-34q-28 0 -38 10.5t-10 37.5v598q0 28 10.5 38t37.5 10h34q29 0 38.5 -11t9.5 -37v-276l322 304q21 20 58 20h61q34 0 34 -21q0 -10 -12 -21l-263 -247z" />
<glyph unicode="&#x39b;" horiz-adv-x="672" d="M631 28q0 -28 -41 -28h-55q-16 0 -25.5 2t-19.5 12t-16 29l-112 373q-14 48 -20 75q-14 49 -17 73h-1q-2 -24 -24 -105l-38 -135l-85 -281q-8 -27 -22.5 -35t-38.5 -8h-35q-41 0 -41 28q0 2 5 18l186 605q8 27 22.5 35t38.5 8h87q25 0 39 -8t22 -35l186 -605q5 -16 5 -18 z" />
<glyph unicode="&#x39c;" horiz-adv-x="978" d="M886 48q0 -27 -10 -37.5t-38 -10.5h-27q-29 0 -38.5 11t-9.5 37v517h-1q-12 -44 -71 -186l-128 -314q-7 -16 -14.5 -25t-18.5 -12.5t-19 -4.5t-24 -1t-24 1t-19 4.5t-18.5 12.5t-14.5 25l-116 285q-69 169 -80 215h-1v-517q0 -27 -10 -37.5t-38 -10.5h-27q-28 0 -38 10.5 t-10 37.5v598q0 28 10.5 38t37.5 10h83q50 0 67 -41l128 -316q65 -164 71 -188h1q9 40 66 178l132 324q11 28 27 35.5t40 7.5h84q29 0 38.5 -11t9.5 -37v-598z" />
<glyph unicode="&#x39d;" horiz-adv-x="794" d="M702 48q0 -27 -10 -37.5t-38 -10.5h-93q-50 0 -71 40l-275 533h-1v-525q0 -27 -10 -37.5t-38 -10.5h-27q-28 0 -38 10.5t-10 37.5v598q0 28 10.5 38t37.5 10h93q50 0 71 -40l275 -533h1v525q0 27 10 37.5t38 10.5h27q29 0 38.5 -11t9.5 -37v-598z" />
<glyph unicode="&#x39e;" horiz-adv-x="733" d="M680 614q0 -18 -3 -28t-13.5 -14t-20 -5t-32.5 -1l-245 2l-245 -2q-23 0 -32.5 1t-20 5t-13.5 14t-3 28v26q0 28 10.5 38t37.5 10h532q29 0 38.5 -11t9.5 -37v-26zM686 48q0 -27 -10 -37.5t-38 -10.5h-544q-28 0 -38 10.5t-10 37.5v26q0 18 3 28t13.5 14t20 5t33.5 1 l250 -2l250 2q24 0 33.5 -1t20 -5t13.5 -14t3 -28v-26zM610 346q0 -27 -10 -37.5t-38 -10.5h-392q-29 0 -38.5 11t-9.5 37v24q0 28 10.5 38t37.5 10h392q29 0 38.5 -11t9.5 -37v-24z" />
<glyph unicode="&#x39f;" horiz-adv-x="794" d="M732 342q0 -364 -336 -364q-335 0 -335 364q0 374 336 374q335 0 335 -374zM585 358q0 28 -0.5 44.5t-4 49.5t-10 54.5t-20.5 49t-33.5 43.5t-50.5 27.5t-70 11.5t-69.5 -11.5t-50 -28t-33.5 -44t-20.5 -49t-10 -54t-4 -49.5t-0.5 -44q0 -28 0.5 -46t4 -53t10 -58 t20.5 -52.5t33.5 -47.5t50.5 -30.5t70 -12.5t69.5 12.5t50 30.5t33.5 47.5t20.5 53t10 58.5t4 52.5t0.5 45.5z" />
<glyph unicode="&#x3a0;" horiz-adv-x="794" d="M702 48q0 -27 -10 -37.5t-38 -10.5h-51q-29 0 -38.5 11t-9.5 37v549h-317v-549q0 -27 -10 -37.5t-38 -10.5h-51q-28 0 -38 10.5t-10 37.5v595q0 28 10.5 38t37.5 10h515q29 0 38.5 -11t9.5 -37v-595z" />
<glyph unicode="&#x3a1;" horiz-adv-x="703" d="M641 478q0 -106 -65 -158t-186 -52h-152v-220q0 -27 -10 -37.5t-38 -10.5h-51q-28 0 -38 10.5t-10 37.5v598q0 28 10.5 38t37.5 10h250q120 0 186 -53t66 -163zM502 478q0 64 -27.5 97t-116.5 33h-123v-261h122q39 0 66.5 7.5t42.5 19t23.5 30t10.5 34.5t2 40z" />
<glyph unicode="&#x3a3;" horiz-adv-x="794" d="M732 48q0 -27 -10 -37.5t-38 -10.5h-575q-48 0 -48 36q0 13 13 29l228 272l-229 266q-9 10 -10.5 16t-1.5 25q0 17 2 26t13 16.5t33 7.5h575q29 0 38.5 -11t9.5 -37v-8q0 -18 -3 -28t-13.5 -14t-20 -5t-32.5 -1l-331 3h-57l188 -218q13 -15 13 -28q0 -14 -13 -29 l-175 -209h58l319 3q22 0 31 -1t19.5 -5t13.5 -14t3 -28v-16z" />
<glyph unicode="&#x3a4;" horiz-adv-x="733" d="M692 632q0 -23 -8 -34t-17 -12.5t-27 -1.5l-200 3v-539q0 -27 -10 -37.5t-38 -10.5h-51q-28 0 -38 10.5t-10 37.5v539l-201 -3q-18 0 -27 1.5t-17 12.5t-8 34v8q0 28 10.5 38t37.5 10h556q29 0 38.5 -11t9.5 -37v-8z" />
<glyph unicode="&#x3a5;" horiz-adv-x="856" d="M794 558q0 -39 -49 -39h-38q-14 0 -21.5 1t-17 10.5t-10.5 27.5q-2 22 -20 35t-41 13q-51 0 -73.5 -53t-22.5 -161v-344q0 -27 -10 -37.5t-38 -10.5h-51q-28 0 -38 10.5t-10 37.5v344q0 214 -96 214q-22 0 -40.5 -12.5t-20.5 -35.5q-1 -18 -10 -27t-17 -10.5t-22 -1.5 h-38q-49 0 -49 39q0 66 58 112t136 46q134 0 172 -190h1q37 190 172 190q78 0 136 -46t58 -112z" />
<glyph unicode="&#x3a6;" horiz-adv-x="794" d="M732 347q0 -63 -22.5 -109.5t-62.5 -73t-84.5 -40.5t-98.5 -18v-58q0 -27 -10 -37.5t-38 -10.5h-45q-28 0 -38 10.5t-10 37.5v59q-53 4 -96.5 18t-82.5 40.5t-61 73t-22 108.5t22 108.5t61 73t83 40.5t96 18v59q0 28 10.5 38t37.5 10h45q29 0 38.5 -11t9.5 -37v-58 q54 -4 99 -18t84.5 -40.5t62 -73t22.5 -109.5zM323 181v332q-39 -7 -64.5 -24.5t-36 -43.5t-14 -47.5t-3.5 -50.5t3 -50t14 -47.5t36.5 -44t64.5 -24.5zM588 347q0 22 -1.5 38t-8 40t-19 40t-37 30t-58.5 19v-334q34 5 58 19t36.5 30t19.5 39.5t8.5 40t1.5 38.5z" />
<glyph unicode="&#x3a7;" horiz-adv-x="733" d="M694 22q0 -22 -36 -22h-83q-35 0 -50 22l-167 240l-161 -238q-10 -15 -18 -19.5t-31 -4.5h-75q-36 0 -36 23q0 7 10 20l236 325l-219 284q-10 12 -10 20q0 22 35 22h83q13 0 19.5 -1t15 -6t16.5 -16l135 -185l131 187q15 21 49 21h75q36 0 36 -23q0 -7 -10 -20l-206 -283 l252 -326q9 -11 9 -20z" />
<glyph unicode="&#x3a8;" horiz-adv-x="856" d="M794 583q0 -6 -1.5 -12t-10.5 -14.5t-25 -9.5q-15 -27 -15 -125q0 -23 -0.5 -39t-5.5 -49.5t-13.5 -57.5t-27 -55t-43.5 -52t-65.5 -38t-91.5 -23v-60q0 -27 -10 -37.5t-38 -10.5h-45q-28 0 -38 10.5t-10 37.5v60q-49 6 -88.5 23.5t-64.5 38t-42.5 51.5t-26 55.5 t-13.5 59t-5.5 52.5t-0.5 45q0 87 -15 114q-16 1 -25 9.5t-10.5 14.5t-1.5 12q0 36 48 36h48q56 0 76.5 -42.5t20.5 -138.5q0 -38 0.5 -59.5t6 -58t15 -58t29.5 -43.5t49 -32v459q0 28 10.5 38t37.5 10h45q29 0 38.5 -11t9.5 -37v-459q34 10 57 34t33 59t13 65t3 69 q0 35 0.5 52.5t3 46.5t8.5 44t16.5 31.5t27.5 23.5t41 7h48q48 0 48 -36z" />
<glyph unicode="&#x3a9;" horiz-adv-x="794" d="M744 48q0 -27 -10 -37.5t-38 -10.5h-198q-48 0 -48 42q0 82 75 232q60 119 60 191q0 94 -46 136.5t-143 42.5q-98 0 -143 -43t-45 -136q0 -42 14 -84.5t48 -112.5q73 -146 73 -226q0 -42 -48 -42h-198q-28 0 -38 10.5t-10 37.5v12q0 18 3.5 28t13 14t18 5t27.5 1 q8 0 24.5 -0.5t24.5 -0.5h74q15 0 22 -1q-23 49 -89 130q-52 63 -79 114.5t-27 113.5q0 53 23 109t83 93q83 50 230 50q163 0 245 -61q90 -67 90 -191q0 -44 -17.5 -88.5t-36.5 -72t-54 -71.5q-66 -80 -87 -126q6 1 22 1h74q8 0 24.5 0.5t24.5 0.5q19 0 27.5 -1t18 -5 t13 -14t3.5 -28v-12z" />
<glyph unicode="&#xe3f;" horiz-adv-x="733" d="M671 194q0 -51 -20.5 -89t-48.5 -57.5t-67 -31t-66 -14t-56 -2.5h-4v-76q0 -10 -7 -17t-17 -7h-52q-10 0 -17 7t-7 17v76h-170q-28 0 -38 10.5t-10 37.5v598q0 28 10.5 38t37.5 10h170v76q0 10 6.5 17t17.5 7h52q10 0 17 -7t7 -17v-76q35 -2 67 -8.5t73 -23.5t66 -55 t25 -93q0 -58 -37.5 -96.5t-107.5 -54.5q176 -29 176 -169zM504 511q0 75 -95 92v-200q95 22 95 108zM309 397v211h-77v-211h77zM532 196q0 107 -123 126v-235q123 12 123 109zM309 86v239h-77v-239h77z" />
<glyph unicode="&#x1e0c;" horiz-adv-x="794" d="M732 342q0 -158 -78 -250t-251 -92h-264q-28 0 -38 10.5t-10 37.5v598q0 28 10.5 38t37.5 10h264q175 0 260 -105q69 -87 69 -247zM588 342q0 43 -2.5 72t-15 69t-35 64.5t-66.5 42.5t-106 18h-128v-522h129q61 0 104.5 16.5t66.5 40t35.5 61.5t15 67t2.5 71zM372 -152 q0 -25 -9.5 -36.5t-38.5 -11.5h-51q-30 0 -39 11.5t-9 36.5v19q0 27 10 37.5t38 10.5h51q29 0 38.5 -11t9.5 -37v-19z" />
<glyph unicode="&#x1e0d;" horiz-adv-x="561" d="M499 48q0 -27 -10 -37.5t-38 -10.5h-40q-26 0 -37 10t-11 37q-54 -58 -128 -58q-41 0 -73.5 11.5t-52.5 27.5t-35 41t-21.5 45t-10.5 47t-4.5 39t-0.5 28q0 17 0.5 29.5t4.5 39.5t11 47t22 45t36 41t54 27.5t75 11.5q74 0 126 -50v227q0 27 10 37.5t38 10.5h37 q29 0 38.5 -11t9.5 -37v-598zM363 125v241q-32 31 -78 31q-32 0 -54.5 -11.5t-33.5 -25.5t-16.5 -41t-6.5 -43.5t-1 -47.5t0.5 -47.5t6 -43t15.5 -40.5t30 -25t49 -11q32 0 60 18q20 14 24.5 22.5t4.5 23.5zM354 -152q0 -25 -9.5 -36.5t-38.5 -11.5h-51q-30 0 -39 11.5 t-9 36.5v19q0 27 10 37.5t38 10.5h51q29 0 38.5 -11t9.5 -37v-19z" />
<glyph unicode="&#x1e0e;" horiz-adv-x="794" d="M732 342q0 -158 -78 -250t-251 -92h-264q-28 0 -38 10.5t-10 37.5v598q0 28 10.5 38t37.5 10h264q175 0 260 -105q69 -87 69 -247zM588 342q0 43 -2.5 72t-15 69t-35 64.5t-66.5 42.5t-106 18h-128v-522h129q61 0 104.5 16.5t66.5 40t35.5 61.5t15 67t2.5 71zM498 -157 q0 -19 -4 -23t-23 -4h-343q-20 0 -23.5 4t-3.5 23v31q0 20 3.5 23.5t23.5 3.5h343q19 0 23 -3.5t4 -23.5v-31z" />
<glyph unicode="&#x1e0f;" horiz-adv-x="561" d="M499 48q0 -27 -10 -37.5t-38 -10.5h-40q-26 0 -37 10t-11 37q-54 -58 -128 -58q-41 0 -73.5 11.5t-52.5 27.5t-35 41t-21.5 45t-10.5 47t-4.5 39t-0.5 28q0 17 0.5 29.5t4.5 39.5t11 47t22 45t36 41t54 27.5t75 11.5q74 0 126 -50v227q0 27 10 37.5t38 10.5h37 q29 0 38.5 -11t9.5 -37v-598zM363 125v241q-32 31 -78 31q-32 0 -54.5 -11.5t-33.5 -25.5t-16.5 -41t-6.5 -43.5t-1 -47.5t0.5 -47.5t6 -43t15.5 -40.5t30 -25t49 -11q32 0 60 18q20 14 24.5 22.5t4.5 23.5zM480 -157q0 -19 -4 -23t-23 -4h-343q-20 0 -23.5 4t-3.5 23v31 q0 20 3.5 23.5t23.5 3.5h343q19 0 23 -3.5t4 -23.5v-31z" />
<glyph unicode="&#x1e24;" horiz-adv-x="794" d="M702 48q0 -27 -10 -37.5t-38 -10.5h-51q-29 0 -38.5 11t-9.5 37v266h-317v-266q0 -27 -10 -37.5t-38 -10.5h-51q-28 0 -38 10.5t-10 37.5v598q0 28 10.5 38t37.5 10h51q29 0 38.5 -11t9.5 -37v-238h317v238q0 27 10 37.5t38 10.5h51q29 0 38.5 -11t9.5 -37v-598z M470 -152q0 -25 -9.5 -36.5t-38.5 -11.5h-51q-30 0 -39 11.5t-9 36.5v19q0 27 10 37.5t38 10.5h51q29 0 38.5 -11t9.5 -37v-19z" />
<glyph unicode="&#x1e25;" horiz-adv-x="561" d="M500 48q0 -27 -10 -37.5t-38 -10.5h-40q-29 0 -38.5 11t-9.5 37v275q0 40 -12 57t-46 17q-43 0 -76.5 -33.5t-33.5 -94.5v-221q0 -27 -10 -37.5t-38 -10.5h-40q-28 0 -38 10.5t-10 37.5v598q0 28 10.5 38t37.5 10h37q29 0 38.5 -11t9.5 -37v-274h1q10 20 25.5 38.5 t52 38.5t82.5 20q77 0 111.5 -33.5t34.5 -110.5v-277zM353 -152q0 -25 -9.5 -36.5t-38.5 -11.5h-51q-30 0 -39 11.5t-9 36.5v19q0 27 10 37.5t38 10.5h51q29 0 38.5 -11t9.5 -37v-19z" />
<glyph unicode="&#x1e26;" horiz-adv-x="794" d="M702 48q0 -27 -10 -37.5t-38 -10.5h-51q-29 0 -38.5 11t-9.5 37v266h-317v-266q0 -27 -10 -37.5t-38 -10.5h-51q-28 0 -38 10.5t-10 37.5v598q0 28 10.5 38t37.5 10h51q29 0 38.5 -11t9.5 -37v-238h317v238q0 27 10 37.5t38 10.5h51q29 0 38.5 -11t9.5 -37v-598zM320 789 q0 -23 -8.5 -33t-34.5 -10h-46q-26 0 -34.5 10.5t-8.5 32.5v17q0 24 9 33.5t34 9.5h46q26 0 34.5 -9.5t8.5 -33.5v-17zM606 789q0 -23 -8.5 -33t-34.5 -10h-46q-26 0 -34.5 10.5t-8.5 32.5v17q0 24 9 33.5t34 9.5h46q26 0 34.5 -9.5t8.5 -33.5v-17z" />
<glyph unicode="&#x1e27;" horiz-adv-x="561" d="M500 48q0 -27 -10 -37.5t-38 -10.5h-40q-29 0 -38.5 11t-9.5 37v275q0 40 -12 57t-46 17q-43 0 -76.5 -33.5t-33.5 -94.5v-221q0 -27 -10 -37.5t-38 -10.5h-40q-28 0 -38 10.5t-10 37.5v598q0 28 10.5 38t37.5 10h37q29 0 38.5 -11t9.5 -37v-274h1q10 20 25.5 38.5 t52 38.5t82.5 20q77 0 111.5 -33.5t34.5 -110.5v-277zM204 789q0 -23 -8.5 -33t-34.5 -10h-46q-26 0 -34.5 10.5t-8.5 32.5v17q0 24 9 33.5t34 9.5h46q26 0 34.5 -9.5t8.5 -33.5v-17zM490 789q0 -23 -8.5 -33t-34.5 -10h-46q-26 0 -34.5 10.5t-8.5 32.5v17q0 24 9 33.5 t34 9.5h46q26 0 34.5 -9.5t8.5 -33.5v-17z" />
<glyph unicode="&#x1e2a;" horiz-adv-x="794" d="M702 48q0 -27 -10 -37.5t-38 -10.5h-51q-29 0 -38.5 11t-9.5 37v266h-317v-266q0 -27 -10 -37.5t-38 -10.5h-51q-28 0 -38 10.5t-10 37.5v598q0 28 10.5 38t37.5 10h51q29 0 38.5 -11t9.5 -37v-238h317v238q0 27 10 37.5t38 10.5h51q29 0 38.5 -11t9.5 -37v-598z M586 -109q0 -104 -189 -104q-188 0 -188 104q0 18 11 28t25 10q6 0 12 -1.5t14.5 -10.5t9.5 -24q26 -13 117 -13q90 0 116 13q1 15 9.5 24t14.5 10.5t12 1.5q13 0 24.5 -10t11.5 -28z" />
<glyph unicode="&#x1e2b;" horiz-adv-x="561" d="M500 48q0 -27 -10 -37.5t-38 -10.5h-40q-29 0 -38.5 11t-9.5 37v275q0 40 -12 57t-46 17q-43 0 -76.5 -33.5t-33.5 -94.5v-221q0 -27 -10 -37.5t-38 -10.5h-40q-28 0 -38 10.5t-10 37.5v598q0 28 10.5 38t37.5 10h37q29 0 38.5 -11t9.5 -37v-274h1q10 20 25.5 38.5 t52 38.5t82.5 20q77 0 111.5 -33.5t34.5 -110.5v-277zM469 -109q0 -104 -189 -104q-188 0 -188 104q0 18 11 28t25 10q6 0 12 -1.5t14.5 -10.5t9.5 -24q26 -13 117 -13q90 0 116 13q1 15 9.5 24t14.5 10.5t12 1.5q13 0 24.5 -10t11.5 -28z" />
<glyph unicode="&#x1e2e;" horiz-adv-x="331" d="M239 48q0 -27 -10 -37.5t-38 -10.5h-51q-28 0 -38 10.5t-10 37.5v598q0 28 10.5 38t37.5 10h51q29 0 38.5 -11t9.5 -37v-598zM88 789q0 -23 -8.5 -33t-34.5 -10h-46q-26 0 -34.5 10.5t-8.5 32.5v17q0 24 9 33.5t34 9.5h46q26 0 34.5 -9.5t8.5 -33.5v-17zM374 789 q0 -23 -8.5 -33t-34.5 -10h-46q-26 0 -34.5 10.5t-8.5 32.5v17q0 24 9 33.5t34 9.5h46q26 0 34.5 -9.5t8.5 -33.5v-17zM364 1017l-218 -106h-67q-12 0 -17 5q-1 2 -1 5q0 4 6 10l127 109h161q13 0 17 -9v-4q0 -6 -8 -10z" />
<glyph unicode="&#x1e2f;" horiz-adv-x="256" d="M194 48q0 -27 -10 -37.5t-38 -10.5h-37q-28 0 -38 10.5t-10 37.5v362q0 28 10.5 38t37.5 10h37q29 0 38.5 -11t9.5 -37v-362zM73 607q0 -23 -8.5 -33t-34.5 -10h-46q-26 0 -34.5 10.5t-8.5 32.5v17q0 24 9 33.5t34 9.5h46q26 0 34.5 -9.5t8.5 -33.5v-17zM315 607 q0 -23 -8.5 -33t-34.5 -10h-46q-26 0 -34.5 10.5t-8.5 32.5v17q0 24 9 33.5t34 9.5h46q26 0 34.5 -9.5t8.5 -33.5v-17zM327 835l-218 -106h-67q-12 0 -16 5q-2 2 -2 5q0 4 6 10l127 109h161q13 0 16 -9q1 -2 1 -4q0 -6 -8 -10z" />
<glyph unicode="&#x1e36;" horiz-adv-x="581" d="M534 48q0 -27 -10 -37.5t-38 -10.5h-347q-28 0 -38 10.5t-10 37.5v598q0 28 10.5 38t37.5 10h51q29 0 38.5 -11t9.5 -37v-545l249 4q16 0 26.5 -4t14.5 -12t5 -14.5t1 -17.5v-9zM364 -152q0 -25 -9.5 -36.5t-38.5 -11.5h-51q-30 0 -39 11.5t-9 36.5v19q0 27 10 37.5 t38 10.5h51q29 0 38.5 -11t9.5 -37v-19z" />
<glyph unicode="&#x1e37;" horiz-adv-x="256" d="M194 48q0 -27 -10 -37.5t-38 -10.5h-37q-28 0 -38 10.5t-10 37.5v598q0 28 10.5 38t37.5 10h37q29 0 38.5 -11t9.5 -37v-598zM201 -152q0 -25 -9.5 -36.5t-38.5 -11.5h-51q-30 0 -39 11.5t-9 36.5v19q0 27 10 37.5t38 10.5h51q29 0 38.5 -11t9.5 -37v-19z" />
<glyph unicode="&#x1e38;" horiz-adv-x="581" d="M534 48q0 -27 -10 -37.5t-38 -10.5h-347q-28 0 -38 10.5t-10 37.5v598q0 28 10.5 38t37.5 10h51q29 0 38.5 -11t9.5 -37v-545l249 4q16 0 26.5 -4t14.5 -12t5 -14.5t1 -17.5v-9zM364 -152q0 -25 -9.5 -36.5t-38.5 -11.5h-51q-30 0 -39 11.5t-9 36.5v19q0 27 10 37.5 t38 10.5h51q29 0 38.5 -11t9.5 -37v-19zM364 793q0 -19 -4 -23t-23 -4h-343q-20 0 -23.5 4t-3.5 23v31q0 20 3.5 23.5t23.5 3.5h343q19 0 23 -3.5t4 -23.5v-31z" />
<glyph unicode="&#x1e39;" horiz-adv-x="256" d="M194 48q0 -27 -10 -37.5t-38 -10.5h-37q-28 0 -38 10.5t-10 37.5v598q0 28 10.5 38t37.5 10h37q29 0 38.5 -11t9.5 -37v-598zM201 -152q0 -25 -9.5 -36.5t-38.5 -11.5h-51q-30 0 -39 11.5t-9 36.5v19q0 27 10 37.5t38 10.5h51q29 0 38.5 -11t9.5 -37v-19zM349 793 q0 -19 -3.5 -23t-23.5 -4h-343q-19 0 -23 4t-4 23v31q0 20 4 23.5t23 3.5h343q20 0 23.5 -3.5t3.5 -23.5v-31z" />
<glyph unicode="&#x1e42;" horiz-adv-x="978" d="M886 48q0 -27 -10 -37.5t-38 -10.5h-27q-29 0 -38.5 11t-9.5 37v517h-1q-12 -44 -71 -186l-128 -314q-7 -16 -14.5 -25t-18.5 -12.5t-19 -4.5t-24 -1t-24 1t-19 4.5t-18.5 12.5t-14.5 25l-116 285q-69 169 -80 215h-1v-517q0 -27 -10 -37.5t-38 -10.5h-27q-28 0 -38 10.5 t-10 37.5v598q0 28 10.5 38t37.5 10h83q50 0 67 -41l128 -316q65 -164 71 -188h1q9 40 66 178l132 324q11 28 27 35.5t40 7.5h84q29 0 38.5 -11t9.5 -37v-598zM562 -152q0 -25 -9.5 -36.5t-38.5 -11.5h-51q-30 0 -39 11.5t-9 36.5v19q0 27 10 37.5t38 10.5h51q29 0 38.5 -11 t9.5 -37v-19z" />
<glyph unicode="&#x1e43;" horiz-adv-x="867" d="M806 48q0 -27 -10 -37.5t-38 -10.5h-40q-28 0 -38 10.5t-10 37.5v275q0 41 -12 57.5t-47 16.5q-42 0 -76 -33t-34 -95v-221q0 -27 -10 -37.5t-38 -10.5h-40q-28 0 -38 10.5t-10 37.5v275q0 41 -12 57.5t-47 16.5q-42 0 -76 -33t-34 -95v-221q0 -27 -10 -37.5t-38 -10.5 h-40q-28 0 -38 10.5t-10 37.5v368q0 28 10.5 38t37.5 10h34q29 0 38.5 -11t9.5 -37v-50h1q19 41 58 70q45 33 106 33q127 0 143 -99q54 99 162 99q77 0 111.5 -33.5t34.5 -110.5v-277zM507 -152q0 -25 -9.5 -36.5t-38.5 -11.5h-51q-30 0 -39 11.5t-9 36.5v19q0 27 10 37.5 t38 10.5h51q29 0 38.5 -11t9.5 -37v-19z" />
<glyph unicode="&#x1e44;" horiz-adv-x="794" d="M702 48q0 -27 -10 -37.5t-38 -10.5h-93q-50 0 -71 40l-275 533h-1v-525q0 -27 -10 -37.5t-38 -10.5h-27q-28 0 -38 10.5t-10 37.5v598q0 28 10.5 38t37.5 10h93q50 0 71 -40l275 -533h1v525q0 27 10 37.5t38 10.5h27q29 0 38.5 -11t9.5 -37v-598zM470 794 q0 -25 -9.5 -36.5t-38.5 -11.5h-51q-30 0 -39 11.5t-9 36.5v19q0 27 10 37.5t38 10.5h51q29 0 38.5 -11t9.5 -37v-19z" />
<glyph unicode="&#x1e45;" horiz-adv-x="561" d="M500 48q0 -27 -10 -37.5t-38 -10.5h-40q-29 0 -38.5 11t-9.5 37v275q0 40 -12 57t-46 17q-43 0 -76.5 -33.5t-33.5 -94.5v-221q0 -27 -10 -37.5t-38 -10.5h-40q-28 0 -38 10.5t-10 37.5v368q0 28 10.5 38t37.5 10h34q29 0 38.5 -11t9.5 -37v-50h1q7 14 17 28t29 33 t49.5 30.5t67.5 11.5q77 0 111.5 -33.5t34.5 -110.5v-277zM354 606q0 -25 -9.5 -36.5t-38.5 -11.5h-51q-30 0 -39 11.5t-9 36.5v19q0 27 10 37.5t38 10.5h51q29 0 38.5 -11t9.5 -37v-19z" />
<glyph unicode="&#x1e46;" horiz-adv-x="794" d="M702 48q0 -27 -10 -37.5t-38 -10.5h-93q-50 0 -71 40l-275 533h-1v-525q0 -27 -10 -37.5t-38 -10.5h-27q-28 0 -38 10.5t-10 37.5v598q0 28 10.5 38t37.5 10h93q50 0 71 -40l275 -533h1v525q0 27 10 37.5t38 10.5h27q29 0 38.5 -11t9.5 -37v-598zM470 -152 q0 -25 -9.5 -36.5t-38.5 -11.5h-51q-30 0 -39 11.5t-9 36.5v19q0 27 10 37.5t38 10.5h51q29 0 38.5 -11t9.5 -37v-19z" />
<glyph unicode="&#x1e47;" horiz-adv-x="561" d="M500 48q0 -27 -10 -37.5t-38 -10.5h-40q-29 0 -38.5 11t-9.5 37v275q0 40 -12 57t-46 17q-43 0 -76.5 -33.5t-33.5 -94.5v-221q0 -27 -10 -37.5t-38 -10.5h-40q-28 0 -38 10.5t-10 37.5v368q0 28 10.5 38t37.5 10h34q29 0 38.5 -11t9.5 -37v-50h1q7 14 17 28t29 33 t49.5 30.5t67.5 11.5q77 0 111.5 -33.5t34.5 -110.5v-277zM354 -152q0 -25 -9.5 -36.5t-38.5 -11.5h-51q-30 0 -39 11.5t-9 36.5v19q0 27 10 37.5t38 10.5h51q29 0 38.5 -11t9.5 -37v-19z" />
<glyph unicode="&#x1e58;" horiz-adv-x="703" d="M653 30q0 -14 -6 -21t-12 -8t-19 -1h-59q-13 0 -19 1t-13.5 6t-14.5 17l-164 287h-111v-263q0 -27 -10 -37.5t-38 -10.5h-48q-28 0 -38 10.5t-10 37.5v598q0 28 10.5 38t37.5 10h240q16 0 29 -0.5t42 -4.5t51.5 -10.5t50 -21.5t46 -35t31 -52.5t12.5 -72.5 q0 -139 -158 -177zM502 496q0 56 -28 84t-109 28h-130v-225h130q84 0 110.5 29.5t26.5 83.5zM425 794q0 -25 -9.5 -36.5t-38.5 -11.5h-51q-30 0 -39 11.5t-9 36.5v19q0 27 10 37.5t38 10.5h51q29 0 38.5 -11t9.5 -37v-19z" />
<glyph unicode="&#x1e59;" horiz-adv-x="372" d="M356 395q0 -19 -3 -22.5t-17 -4.5q-55 -4 -98.5 -38.5t-43.5 -99.5v-182q0 -27 -10 -37.5t-38 -10.5h-37q-28 0 -38 10.5t-10 37.5v368q0 28 10.5 38t37.5 10h32q29 0 38.5 -11t9.5 -37v-65h1q16 38 38 63.5t44 36.5t37 14.5t29 3.5q13 0 15.5 -5t2.5 -22v-47zM259 606 q0 -25 -9.5 -36.5t-38.5 -11.5h-51q-30 0 -39 11.5t-9 36.5v19q0 27 10 37.5t38 10.5h51q29 0 38.5 -11t9.5 -37v-19z" />
<glyph unicode="&#x1e5a;" horiz-adv-x="703" d="M653 30q0 -14 -6 -21t-12 -8t-19 -1h-59q-13 0 -19 1t-13.5 6t-14.5 17l-164 287h-111v-263q0 -27 -10 -37.5t-38 -10.5h-48q-28 0 -38 10.5t-10 37.5v598q0 28 10.5 38t37.5 10h240q16 0 29 -0.5t42 -4.5t51.5 -10.5t50 -21.5t46 -35t31 -52.5t12.5 -72.5 q0 -139 -158 -177zM502 496q0 56 -28 84t-109 28h-130v-225h130q84 0 110.5 29.5t26.5 83.5zM425 -152q0 -25 -9.5 -36.5t-38.5 -11.5h-51q-30 0 -39 11.5t-9 36.5v19q0 27 10 37.5t38 10.5h51q29 0 38.5 -11t9.5 -37v-19z" />
<glyph unicode="&#x1e5b;" horiz-adv-x="372" d="M356 395q0 -19 -3 -22.5t-17 -4.5q-55 -4 -98.5 -38.5t-43.5 -99.5v-182q0 -27 -10 -37.5t-38 -10.5h-37q-28 0 -38 10.5t-10 37.5v368q0 28 10.5 38t37.5 10h32q29 0 38.5 -11t9.5 -37v-65h1q16 38 38 63.5t44 36.5t37 14.5t29 3.5q13 0 15.5 -5t2.5 -22v-47zM201 -152 q0 -25 -9.5 -36.5t-38.5 -11.5h-51q-30 0 -39 11.5t-9 36.5v19q0 27 10 37.5t38 10.5h51q29 0 38.5 -11t9.5 -37v-19z" />
<glyph unicode="&#x1e5c;" horiz-adv-x="703" d="M653 30q0 -14 -6 -21t-12 -8t-19 -1h-59q-13 0 -19 1t-13.5 6t-14.5 17l-164 287h-111v-263q0 -27 -10 -37.5t-38 -10.5h-48q-28 0 -38 10.5t-10 37.5v598q0 28 10.5 38t37.5 10h240q16 0 29 -0.5t42 -4.5t51.5 -10.5t50 -21.5t46 -35t31 -52.5t12.5 -72.5 q0 -139 -158 -177zM502 496q0 56 -28 84t-109 28h-130v-225h130q84 0 110.5 29.5t26.5 83.5zM425 -152q0 -25 -9.5 -36.5t-38.5 -11.5h-51q-30 0 -39 11.5t-9 36.5v19q0 27 10 37.5t38 10.5h51q29 0 38.5 -11t9.5 -37v-19zM550 793q0 -19 -4 -23t-23 -4h-343q-20 0 -23.5 4 t-3.5 23v31q0 20 3.5 23.5t23.5 3.5h343q19 0 23 -3.5t4 -23.5v-31z" />
<glyph unicode="&#x1e5d;" horiz-adv-x="372" d="M356 395q0 -19 -3 -22.5t-17 -4.5q-55 -4 -98.5 -38.5t-43.5 -99.5v-182q0 -27 -10 -37.5t-38 -10.5h-37q-28 0 -38 10.5t-10 37.5v368q0 28 10.5 38t37.5 10h32q29 0 38.5 -11t9.5 -37v-65h1q16 38 38 63.5t44 36.5t37 14.5t29 3.5q13 0 15.5 -5t2.5 -22v-47zM201 -152 q0 -25 -9.5 -36.5t-38.5 -11.5h-51q-30 0 -39 11.5t-9 36.5v19q0 27 10 37.5t38 10.5h51q29 0 38.5 -11t9.5 -37v-19zM385 600q0 -20 -3.5 -23.5t-23.5 -3.5h-343q-19 0 -23 3.5t-4 23.5v31q0 19 4 23t23 4h343q20 0 23.5 -4t3.5 -23v-31z" />
<glyph unicode="&#x1e62;" horiz-adv-x="611" d="M549 200q0 -113 -64 -167.5t-180 -54.5q-74 0 -147 23l-6 2q-6 2 -13 5t-17.5 7t-19.5 9l-20 9q-10 5 -17 9.5t-11.5 9t-4.5 8.5q0 5 2 13l15 87q4 18 14 18q6 0 18 -12q88 -79 207 -79t119 97q0 38 -31 69q-15 14 -33.5 20.5t-66.5 17.5q-50 12 -71.5 18t-51 21.5 t-53.5 40.5q-56 59 -56 137q0 66 24.5 110.5t65.5 64t77 26.5t77 7q100 0 181 -40q19 -10 22.5 -13t3.5 -9q0 -5 -2 -13l-15 -87q-4 -18 -14 -18q-4 0 -21 16q-62 61 -155 61q-119 0 -119 -87q0 -37 28 -58t56 -27l96 -22q78 -18 130.5 -78t52.5 -141zM379 -152 q0 -25 -9.5 -36.5t-38.5 -11.5h-51q-30 0 -39 11.5t-9 36.5v19q0 27 10 37.5t38 10.5h51q29 0 38.5 -11t9.5 -37v-19z" />
<glyph unicode="&#x1e63;" horiz-adv-x="422" d="M396 141q0 -152 -177 -152q-58 0 -113 17q-75 24 -75 42q0 6 6.5 41.5t7.5 39.5q3 15 13 15q6 0 14 -8q58 -69 147 -69q78 0 78 54q0 20 -15.5 33.5t-29 17t-35.5 7.5q-37 7 -53.5 11t-38.5 14t-39 25q-49 44 -49 103q0 143 179 143q54 0 98 -12q1 0 10.5 -3t17 -6 t16.5 -7t14.5 -8.5t5.5 -9.5q0 -21 -12 -69q-3 -13 -13 -13q-6 0 -16 10q-56 47 -129 47q-72 0 -72 -49q0 -18 14 -30t30.5 -16.5t50.5 -10.5q28 -5 41.5 -8.5t35 -14t40.5 -27.5q48 -43 48 -107zM284 -152q0 -25 -9.5 -36.5t-38.5 -11.5h-51q-30 0 -39 11.5t-9 36.5v19 q0 27 10 37.5t38 10.5h51q29 0 38.5 -11t9.5 -37v-19z" />
<glyph unicode="&#x1e6c;" horiz-adv-x="733" d="M692 632q0 -23 -8 -34t-17 -12.5t-27 -1.5l-200 3v-539q0 -27 -10 -37.5t-38 -10.5h-51q-28 0 -38 10.5t-10 37.5v539l-201 -3q-18 0 -27 1.5t-17 12.5t-8 34v8q0 28 10.5 38t37.5 10h556q29 0 38.5 -11t9.5 -37v-8zM440 -152q0 -25 -9.5 -36.5t-38.5 -11.5h-51 q-30 0 -39 11.5t-9 36.5v19q0 27 10 37.5t38 10.5h51q29 0 38.5 -11t9.5 -37v-19z" />
<glyph unicode="&#x1e6d;" horiz-adv-x="404" d="M373 47q0 -20 -75 -42q-52 -16 -105 -16q-105 0 -105 144v253h-20q-48 0 -48 36t48 36h23v83q0 28 10.5 38t37.5 10h31q29 0 38.5 -11t9.5 -37v-83h89q48 0 48 -36t-48 -36h-89v-236q0 -47 10 -65t29 -18q39 0 80 30q7 7 12 7q6 0 9 -5t7 -21q8 -28 8 -31zM275 -152 q0 -25 -9.5 -36.5t-38.5 -11.5h-51q-30 0 -39 11.5t-9 36.5v19q0 27 10 37.5t38 10.5h51q29 0 38.5 -11t9.5 -37v-19z" />
<glyph unicode="&#x1e6e;" horiz-adv-x="733" d="M692 632q0 -23 -8 -34t-17 -12.5t-27 -1.5l-200 3v-539q0 -27 -10 -37.5t-38 -10.5h-51q-28 0 -38 10.5t-10 37.5v539l-201 -3q-18 0 -27 1.5t-17 12.5t-8 34v8q0 28 10.5 38t37.5 10h556q29 0 38.5 -11t9.5 -37v-8zM566 -157q0 -19 -4 -23t-23 -4h-343q-20 0 -23.5 4 t-3.5 23v31q0 20 3.5 23.5t23.5 3.5h343q19 0 23 -3.5t4 -23.5v-31z" />
<glyph unicode="&#x1e6f;" horiz-adv-x="404" d="M373 47q0 -20 -75 -42q-52 -16 -105 -16q-105 0 -105 144v253h-20q-48 0 -48 36t48 36h23v83q0 28 10.5 38t37.5 10h31q29 0 38.5 -11t9.5 -37v-83h89q48 0 48 -36t-48 -36h-89v-236q0 -47 10 -65t29 -18q39 0 80 30q7 7 12 7q6 0 9 -5t7 -21q8 -28 8 -31zM401 -157 q0 -19 -3.5 -23t-23.5 -4h-343q-19 0 -23 4t-4 23v31q0 20 4 23.5t23 3.5h343q20 0 23.5 -3.5t3.5 -23.5v-31z" />
<glyph unicode="&#x1e80;" horiz-adv-x="1039" d="M1014 665q0 -5 -4 -19l-164 -604q-5 -19 -16.5 -29t-20 -11.5t-23.5 -1.5h-72q-14 0 -22.5 1.5t-20 11.5t-16.5 29l-102 377q-21 77 -36 148h-1q-12 -59 -32 -130l-105 -391q-6 -21 -17.5 -32t-20 -12.5t-23.5 -1.5h-66q-15 0 -23.5 1.5t-20 11.5t-16.5 29l-164 604 l-4 19q0 29 41 29h34q14 0 22.5 -1.5t20 -11.5t17.5 -30l86 -320q41 -153 49 -203h1q1 11 21 95l25 99l88 328q6 20 17.5 30.5t20 12t23.5 1.5h66q25 0 38.5 -8.5t21.5 -35.5l108 -405q23 -84 29 -117h1q9 45 32 128l106 394q4 16 11 25.5t16.5 13t16 4.5t16.5 1h21 q41 0 41 -29zM617 776q6 -6 6 -10q0 -3 -1 -4q-5 -6 -17 -6h-67l-218 106q-8 4 -8 10v4q4 9 17 9h161z" />
<glyph unicode="&#x1e81;" horiz-adv-x="744" d="M719 430l-107 -384q-8 -27 -20 -36.5t-43 -9.5h-68q-18 0 -29.5 3t-18.5 12t-10 16t-8 24q-57 207 -63 262l-1 -1q-4 -47 -63 -261q-9 -33 -21 -44t-45 -11h-28q-17 0 -26 1.5t-20.5 12.5t-17.5 32l-106 384q1 13 9 19.5t14.5 7.5t19.5 1h20q30 0 42 -9.5t20 -35.5 l80 -283q14 46 35 124l35 126q14 48 18 55q14 23 52 23q21 0 34 -7.5t17 -15.5t8 -22l85 -300l81 290q10 37 23 46t50 9q19 0 27.5 -1t16 -7.5t8.5 -19.5zM450 550q0 -9 -6 -11t-21 -2h-37l-159 129q-11 9 -11 15q0 9 6 11t21 2h82q15 0 19 -2t11 -10l86 -117q9 -11 9 -15z " />
<glyph unicode="&#x1e82;" horiz-adv-x="1039" d="M1014 665q0 -5 -4 -19l-164 -604q-5 -19 -16.5 -29t-20 -11.5t-23.5 -1.5h-72q-14 0 -22.5 1.5t-20 11.5t-16.5 29l-102 377q-21 77 -36 148h-1q-12 -59 -32 -130l-105 -391q-6 -21 -17.5 -32t-20 -12.5t-23.5 -1.5h-66q-15 0 -23.5 1.5t-20 11.5t-16.5 29l-164 604 l-4 19q0 29 41 29h34q14 0 22.5 -1.5t20 -11.5t17.5 -30l86 -320q41 -153 49 -203h1q1 11 21 95l25 99l88 328q6 20 17.5 30.5t20 12t23.5 1.5h66q25 0 38.5 -8.5t21.5 -35.5l108 -405q23 -84 29 -117h1q9 45 32 128l106 394q4 16 11 25.5t16.5 13t16 4.5t16.5 1h21 q41 0 41 -29zM718 862l-218 -106h-67q-12 0 -17 6q-1 1 -1 4q0 4 6 10l127 109h161q13 0 17 -9v-4q0 -6 -8 -10z" />
<glyph unicode="&#x1e83;" horiz-adv-x="744" d="M719 430l-107 -384q-8 -27 -20 -36.5t-43 -9.5h-68q-18 0 -29.5 3t-18.5 12t-10 16t-8 24q-57 207 -63 262l-1 -1q-4 -47 -63 -261q-9 -33 -21 -44t-45 -11h-28q-17 0 -26 1.5t-20.5 12.5t-17.5 32l-106 384q1 13 9 19.5t14.5 7.5t19.5 1h20q30 0 42 -9.5t20 -35.5 l80 -283q14 46 35 124l35 126q14 48 18 55q14 23 52 23q21 0 34 -7.5t17 -15.5t8 -22l85 -300l81 290q10 37 23 46t50 9q19 0 27.5 -1t16 -7.5t8.5 -19.5zM528 681q0 -6 -11 -15l-159 -129h-37q-10 0 -14.5 0.5t-8.5 3.5t-4 9q0 4 9 15l86 117q7 8 11 10t19 2h82 q10 0 14.5 -0.5t8.5 -3.5t4 -9z" />
<glyph unicode="&#x1e84;" horiz-adv-x="1039" d="M1014 665q0 -5 -4 -19l-164 -604q-5 -19 -16.5 -29t-20 -11.5t-23.5 -1.5h-72q-14 0 -22.5 1.5t-20 11.5t-16.5 29l-102 377q-21 77 -36 148h-1q-12 -59 -32 -130l-105 -391q-6 -21 -17.5 -32t-20 -12.5t-23.5 -1.5h-66q-15 0 -23.5 1.5t-20 11.5t-16.5 29l-164 604 l-4 19q0 29 41 29h34q14 0 22.5 -1.5t20 -11.5t17.5 -30l86 -320q41 -153 49 -203h1q1 11 21 95l25 99l88 328q6 20 17.5 30.5t20 12t23.5 1.5h66q25 0 38.5 -8.5t21.5 -35.5l108 -405q23 -84 29 -117h1q9 45 32 128l106 394q4 16 11 25.5t16.5 13t16 4.5t16.5 1h21 q41 0 41 -29zM442 789q0 -23 -8.5 -33t-34.5 -10h-46q-26 0 -34.5 10.5t-8.5 32.5v17q0 24 9 33.5t34 9.5h46q26 0 34.5 -9.5t8.5 -33.5v-17zM728 789q0 -23 -8.5 -33t-34.5 -10h-46q-26 0 -34.5 10.5t-8.5 32.5v17q0 24 9 33.5t34 9.5h46q26 0 34.5 -9.5t8.5 -33.5v-17z " />
</font>
</defs>
</svg>
