<?xml version="1.0" standalone="no"?>
<!DOCTYPE svg PUBLIC "-//W3C//DTD SVG 1.1//EN" "http://www.w3.org/Graphics/SVG/1.1/DTD/svg11.dtd" >
<svg xmlns="http://www.w3.org/2000/svg">
<metadata>
This is a custom SVG webfont generated by Font Squirrel.
</metadata>
<defs>
<font id="webfontKNUyUmpj" horiz-adv-x="550" >
<font-face units-per-em="1000" ascent="806" descent="-194" />
<missing-glyph horiz-adv-x="367" />
<glyph unicode="IJ" horiz-adv-x="817" d="M249 48q-5 -27 -17.5 -37.5t-40.5 -10.5h-51q-27 0 -35 10q-5 7 -5 20q0 8 2 18l127 598q6 27 19 37.5t40 10.5h51q29 0 36 -11q4 -6 4 -16q0 -9 -3 -21zM756 149q-18 -84 -81 -127.5t-148 -43.5t-156 35q-14 6 -18 10t-3 10l34 88q8 19 18 19q6 0 13 -12q28 -50 94 -50 q31 0 52 8t31.5 23.5t14 23.5t6.5 22l104 491q6 27 18.5 37.5t40.5 10.5h48q29 0 36 -11q4 -6 4 -16q0 -9 -3 -21z" />
<glyph unicode="ij" horiz-adv-x="516" d="M330 606q-6 -25 -17.5 -36.5t-40.5 -11.5h-51q-30 0 -37 12q-3 6 -3 17q0 8 2 19l4 19q5 27 17.5 37.5t40.5 10.5h51q29 0 36 -11q5 -6 5 -17q0 -8 -3 -20zM583 606q-6 -25 -17.5 -36.5t-40.5 -11.5h-51q-30 0 -36 12q-4 6 -4 17q0 8 2 19l4 19q5 27 17.5 37.5t40.5 10.5 h51q29 0 37 -11q4 -6 4 -17q0 -8 -3 -20zM204 48q-5 -27 -17.5 -37.5t-40.5 -10.5h-37q-27 0 -35 10q-5 7 -5 20q0 8 2 18l77 362q6 28 18.5 38t39.5 10h37q29 0 37 -11q4 -6 4 -17q0 -8 -3 -20zM447 -32q-37 -173 -186 -173q-47 0 -93 17q-43 15 -43 28q0 3 16 35q4 9 6 13 l5 7q2 4 4.5 5t6.5 1q5 0 13 -7q24 -15 57 -15q22 0 37 6t22.5 18t10.5 20.5t6 21.5l99 465q6 27 18 37.5t40 10.5h37q29 0 37 -11q4 -6 4 -17q0 -8 -3 -20z" />
<glyph unicode="fk" horiz-adv-x="864" d="M414 422q-8 -36 -56 -36h-57l-72 -338q-5 -27 -17.5 -37.5t-40.5 -10.5h-37q-27 0 -35 10q-5 7 -5 20q0 8 2 18l72 338q-16 0 -25 1t-18 9.5t-5 25.5q7 36 63 36l18 82q35 165 196 165q27 0 50 -7q18 -4 20.5 -9t-1.5 -22l-10 -46q-5 -26 -19 -26q-7 0 -10 11l-2 4l-3 4 l-4 6q-2 3 -5 5t-7 4t-9.5 3t-12.5 1q-33 0 -46 -61l-25 -114h60q42 0 42 -27q0 -4 -1 -9zM822 22q-5 -22 -41 -22h-48q-22 0 -30 4.5t-18 20.5l-94 170l-56 -43l-22 -104q-5 -27 -17.5 -37.5t-40.5 -10.5h-18q-27 0 -35 10q-5 7 -5 20q0 8 2 18l127 598q6 27 19 37.5 t40 10.5h21q29 0 36 -11q4 -6 4 -16q0 -9 -3 -21l-73 -343l173 134q27 21 64 21h58q10 0 15.5 -0.5t11.5 -5.5q4 -4 4 -10q0 -2 -1 -5q-2 -9 -20 -22l-184 -143l125 -228q8 -13 6 -22z" />
<glyph unicode="&#xfb00;" horiz-adv-x="642" d="M514 621q-5 -26 -19 -26q-6 0 -12 10q-24 28 -66 28q-23 0 -39 -6t-24 -18t-11 -20.5t-6 -21.5l-24 -109h52q42 0 42 -27q0 -4 -1 -9q-8 -36 -56 -36h-49l-72 -338q-5 -27 -17.5 -37.5t-40.5 -10.5h-37q-27 0 -35 10q-5 7 -5 20q0 8 2 18l72 338q-16 0 -25 1t-18 9.5 t-5 25.5q7 36 63 36l17 80q36 167 232 167q36 0 64 -6q24 -5 28 -9.5t0 -22.5zM819 621q-5 -26 -19 -26q-6 0 -12 10q-24 28 -66 28q-23 0 -39 -6t-24 -18t-11 -20.5t-6 -21.5l-24 -109h52q42 0 42 -27q0 -4 -1 -9q-8 -36 -56 -36h-49l-72 -338q-5 -27 -17.5 -37.5 t-40.5 -10.5h-37q-29 0 -37 11q-4 6 -4 17q0 8 3 20l104 490q36 167 232 167q36 0 64 -6q24 -5 28 -9q2 -3 2 -8.5t-2 -14.5z" />
<glyph unicode="&#xfb01;" horiz-adv-x="586" d="M654 607q-5 -27 -17.5 -37.5t-40.5 -10.5h-40q-29 0 -36 11q-5 6 -5 17q0 8 3 20l9 40q5 27 17.5 37.5t40.5 10.5h40q29 0 36 -11q4 -6 4 -18q0 -8 -2 -19zM534 48q-5 -27 -17.5 -37.5t-40.5 -10.5h-37q-29 0 -37 11q-4 6 -4 17q0 8 3 20l77 362q6 27 18 37.5t40 10.5h37 q29 0 37 -11q4 -6 4 -17q0 -8 -3 -20zM414 422q-8 -36 -56 -36h-57l-72 -338q-5 -27 -17.5 -37.5t-40.5 -10.5h-37q-27 0 -35 10q-5 7 -5 20q0 8 2 18l72 338q-16 0 -25 1t-18 9.5t-5 25.5q7 36 63 36l18 82q35 165 196 165q27 0 50 -7q18 -4 21 -9v-6q0 -6 -2 -16l-11 -51 q-5 -27 -19 -27q-8 0 -10 10q-8 34 -42 34q-33 0 -46 -61l-25 -114h60q42 0 42 -27q0 -4 -1 -9z" />
<glyph unicode="&#xfb02;" horiz-adv-x="586" d="M414 422q-8 -36 -56 -36h-57l-72 -338q-5 -27 -17.5 -37.5t-40.5 -10.5h-37q-27 0 -35 10q-5 7 -5 20q0 8 2 18l72 338q-16 0 -25 1t-18 9.5t-5 25.5q7 36 63 36l18 82q35 165 196 165q27 0 50 -7q18 -4 20.5 -9t-1.5 -22l-10 -46q-5 -26 -19 -26q-7 0 -10 11l-2 4l-3 4 l-4 6q-2 3 -5 5t-7 4t-9.5 3t-12.5 1q-33 0 -46 -61l-25 -114h60q42 0 42 -27q0 -4 -1 -9zM534 48q-5 -27 -17.5 -37.5t-40.5 -10.5h-37q-29 0 -37 11q-4 6 -4 17q0 8 3 20l127 598q6 27 18.5 37.5t40.5 10.5h37q29 0 36 -11q4 -6 4 -16q0 -9 -3 -21z" />
<glyph unicode="&#xfb04;" horiz-adv-x="892" d="M483 621q-5 -26 -19 -26q-5 0 -10 7q-18 31 -54 31q-21 0 -35 -10.5t-19 -22t-9 -31.5l-24 -111h59q42 0 42 -27q0 -4 -1 -9q-8 -36 -56 -36h-56l-72 -338q-5 -27 -17.5 -37.5t-40.5 -10.5h-37q-27 0 -35 10q-5 7 -5 20q0 8 2 18l72 338q-16 0 -25 1t-18 9.5t-5 25.5 q7 36 63 36l18 81q35 166 212 166q32 0 57 -6q20 -5 23.5 -9.5t-0.5 -22.5zM840 48q-5 -27 -17.5 -37.5t-40.5 -10.5h-37q-29 0 -37 11q-4 6 -4 17q0 8 3 20l127 598q6 27 18.5 37.5t40.5 10.5h37q29 0 36 -11q4 -6 4 -16q0 -9 -3 -21zM719 422q-8 -36 -56 -36h-56l-72 -338 q-5 -27 -17.5 -37.5t-40.5 -10.5h-37q-27 0 -35 10q-5 7 -5 20q0 8 2 18l105 492q35 165 195 165q28 0 50 -7q18 -4 20 -8q1 -2 1 -6q0 -6 -2 -17l-10 -46q-5 -26 -19 -26q-6 0 -10 10q-14 28 -42 28q-34 0 -46 -61l-25 -114h59q42 0 42 -27q0 -4 -1 -9z" />
<glyph unicode=" "  horiz-adv-x="367" />
<glyph unicode="&#x09;" horiz-adv-x="367" />
<glyph unicode="&#xa0;" horiz-adv-x="367" />
<glyph unicode="!" horiz-adv-x="367" d="M392 673q-9 -41 -28 -118l-26 -107l-54 -224q-5 -20 -10 -24t-24 -4h-49q-11 0 -15 0.5t-7 2.5t-3 7q-1 3 15 88l21 110q6 31 22 124.5t27 144.5q4 15 9 18t23 3h77q18 0 22 -3q2 -1 2 -6t-2 -12zM259 48q-5 -27 -17.5 -37.5t-40.5 -10.5h-35q-27 0 -35 10q-5 7 -5 20 q0 8 2 18l8 35q5 27 17.5 37.5t40.5 10.5h35q29 0 36 -11q4 -6 4 -18q0 -8 -2 -19z" />
<glyph unicode="&#x22;" horiz-adv-x="578" d="M322 475q-4 -19 -20.5 -32t-35.5 -13h-45q-19 0 -29 13q-7 9 -7 22q0 5 1 10l42 196q4 19 19.5 32t34.5 13h45q19 0 30 -13q8 -10 8 -22q0 -5 -1 -10zM594 475q-4 -19 -20.5 -32t-35.5 -13h-45q-19 0 -29 13q-7 9 -7 22q0 5 1 10l42 196q4 19 19.5 32t34.5 13h45 q19 0 30 -13q8 -10 8 -22q0 -5 -1 -10z" />
<glyph unicode="#" horiz-adv-x="917" d="M884 135q-9 -42 -62 -42h-229l-126 -250q-20 -37 -50 -37q-18 0 -27.5 12.5t-5.5 29.5q2 15 121 245h-145l-126 -250q-20 -37 -50 -37q-18 0 -27.5 12.5t-5.5 29.5q2 15 121 245h-138q-10 0 -18.5 1t-19.5 12q-7 7 -7 19q0 5 1 10q9 42 63 42h162l72 146h-203 q-11 0 -19.5 1t-18.5 12q-8 7 -8 19q0 5 1 10q9 42 62 42h229l126 250q17 37 50 37q18 0 27 -12.5t6 -29.5q-1 -6 -27 -59l-58 -115q-32 -62 -36 -71h145l126 250q17 37 50 37q18 0 27 -12.5t6 -29.5q-1 -6 -28 -59l-58 -115q-31 -62 -35 -71h138q10 0 18.5 -1t18.5 -12 q8 -7 8 -19q0 -5 -1 -10q-9 -42 -63 -42h-162l-72 -146h203q11 0 19.5 -1t19.5 -12q7 -7 7 -19q0 -5 -1 -10zM620 323h-145l-72 -146h145z" />
<glyph unicode="$" d="M532 207q-41 -195 -223 -216q-9 -47 -46 -47q-28 0 -28 30q0 7 2 17q-89 8 -153 56q-15 12 -18 15q-2 3 -2 7q0 3 8 23l14 36l9 24q7 15 16 15q8 0 11 -5q55 -60 136 -71l43 203q-75 14 -113 71q-26 40 -26 91q0 21 5 45q21 92 75 142q57 52 146 60l1 4q1 4 2 6t2.5 6.5 t3 7.5t4.5 7t6 6.5t7 5t9 3.5t11 1q29 0 29 -29q0 -7 -2 -17q48 -3 89 -24q1 -1 3 -2t8.5 -4t11.5 -6.5t11.5 -7.5t11 -8t7.5 -8.5t2 -7.5q0 -6 -5 -13l-22 -57q-7 -22 -19 -22q-5 0 -10 5q-49 47 -110 54l-37 -175q74 -15 111 -76q25 -40 25 -92q0 -25 -6 -53zM334 445 l33 157q-64 -12 -79 -78q-2 -10 -2 -19q0 -43 48 -60zM411 184q3 12 3 23q0 18 -8 33q-11 25 -36 36l-39 -183q65 15 80 91z" />
<glyph unicode="%" horiz-adv-x="1029" d="M538 548q-42 -201 -221 -201q-147 0 -147 132q0 31 8 70q42 201 224 201q144 0 144 -131q0 -32 -8 -71zM980 708q0 -12 -18 -31l-689 -712q-21 -21 -42 -21q-17 0 -27 12q-7 9 -7 21q0 4 1 9q3 14 20 31l688 712q21 21 41 21q18 0 27.5 -12.5t5.5 -29.5zM998 145 q-19 -91 -72.5 -146t-149.5 -55q-147 0 -147 132q0 31 8 70q43 201 225 201q144 0 144 -131q0 -32 -8 -71zM425 549q7 38 7 64q0 43 -18 57q-11 8 -28 8q-18 0 -31.5 -8.5t-22 -18.5t-16 -31.5t-10.5 -33t-9 -38.5q-10 -51 -10 -80q0 -16 3 -25q10 -24 41 -24q66 0 94 130z M884 146q8 38 8 65q0 64 -47 64q-18 0 -31.5 -8.5t-22 -18.5t-16 -31t-10.5 -33.5t-8 -37.5q-3 -17 -4.5 -24t-4 -22t-2.5 -22v-20q0 -12 3.5 -18t8 -12.5t13 -9t19.5 -2.5q66 0 94 130z" />
<glyph unicode="&#x26;" horiz-adv-x="831" d="M774 25q-3 -16 -5.5 -21t-9.5 -7q-2 -2 -17.5 -6t-45.5 -8.5t-59 -4.5q-87 0 -173 55q-110 -55 -222 -55q-86 0 -133 49q-36 37 -36 87q0 16 4 33q15 68 74 114q23 17 119 74q-12 49 -12 98q0 45 10 90q18 85 85.5 139t141.5 54q72 0 109 -49q28 -36 28 -82q0 -15 -3 -32 q-11 -48 -64.5 -97t-161.5 -116q17 -48 52.5 -103t50.5 -72q51 35 108 98t103 150q8 17 11.5 21.5t10.5 4.5q6 0 69 -19q11 -3 11 -11q0 -10 -27 -57q-26 -46 -87 -121.5t-131 -128.5q38 -24 86 -24q52 0 107 20q8 4 11 4q9 0 10 -7.5t-3 -21.5zM514 552q5 15 5 30t-5 30 q-8 32 -34 32t-54 -24t-39 -74q-7 -37 -7 -75q0 -32 5 -64q113 69 129 145zM390 102q-75 98 -100 168q-57 -29 -71 -96q-2 -9 -3 -22v-5q0 -11 2 -25q2 -19 14.5 -31.5t34.5 -12.5q59 0 123 24z" />
<glyph unicode="'" horiz-adv-x="306" d="M322 475q-4 -19 -20.5 -32t-35.5 -13h-45q-19 0 -29 13q-7 9 -7 22q0 5 1 10l42 196q4 19 19.5 32t34.5 13h45q19 0 30 -13q8 -10 8 -22q0 -5 -1 -10z" />
<glyph unicode="(" horiz-adv-x="428" d="M316 -237q-3 -13 -30 -13h-18q-16 0 -21.5 2.5t-17.5 16.5q-48 53 -74.5 119.5t-30.5 133.5q-3 34 -3 64.5t3 57.5q4 53 15 106q33 155 112.5 280.5t187.5 203.5q15 12 21 14t20 2h18q10 0 14.5 -0.5t7.5 -3.5q3 -2 3 -6.5t-9 -13.5q-33 -32 -59 -63t-61.5 -87t-66 -139 t-52.5 -187q-27 -124 -27 -220q0 -100 16 -152q16 -51 43 -97q9 -12 9 -18z" />
<glyph unicode=")" horiz-adv-x="428" d="M394 250q-33 -156 -112 -281.5t-188 -202.5q-15 -12 -21 -14t-20 -2h-18h-11q-4 0 -8 1.5t-5 4.5q0 1 -0.5 2.5t0.5 4.5q0 4 8 11q34 33 59.5 64t61 87t66 138.5t52.5 186.5q26 122 26 217v7q-1 99 -16 149t-42 96q-9 14 -8 18q2 13 29 13h18q15 0 21 -2.5t18 -16.5 q48 -53 74.5 -119.5t31.5 -133.5q2 -34 2 -64.5t-2 -57.5q-5 -53 -16 -106z" />
<glyph unicode="*" d="M574 436q-5 -23 -25.5 -40.5t-40.5 -17.5q-16 0 -29 16l-81 92v-131v-19q-3 -17 -21.5 -30.5t-40.5 -13.5q-21 0 -34 13q-10 10 -10 23q0 4 1 8q7 17 8 19l56 131l-120 -92q-21 -16 -36 -16q-20 0 -33 18q-8 12 -8 27q0 6 1 13q7 32 42 43l142 42l-125 42q-25 8 -25 30 q0 6 2 13q5 23 25 40.5t40 17.5q16 0 30 -16l80 -92v131v19q4 18 22 31t40 13q21 0 34 -13q10 -10 10 -23q0 -4 -1 -8q-7 -17 -8 -19l-56 -131l121 92q21 16 35 16q20 0 33 -18q9 -12 9 -28q0 -6 -1 -12q-7 -31 -42 -43l-142 -42l125 -42q24 -8 24 -32q0 -5 -1 -11z" />
<glyph unicode="+" horiz-adv-x="856" d="M847 250q-9 -42 -62 -42h-271l-58 -272q-11 -53 -53 -53q-33 0 -33 33q0 9 2 20l58 272h-272q-10 0 -18.5 1t-19.5 11q-7 8 -7 20q0 5 1 10q9 42 62 42h272l58 272q11 53 53 53q33 0 33 -33q0 -9 -2 -20l-58 -272h271q10 0 18.5 -1t18.5 -11q8 -8 8 -20q0 -5 -1 -10z" />
<glyph unicode="," horiz-adv-x="306" d="M224 27q-5 -20 -16 -33l-70 -83q-10 -12 -15 -14.5t-20 -2.5h-12h-11q-3 0 -7 1.5t-5 4.5q-1 1 -0.5 2.5t0.5 4.5l26 45l27 48q-25 0 -29 4t1 23l16 77q5 20 9.5 23.5t23.5 3.5h77q20 0 23 -3v-6q0 -6 -2 -18z" />
<glyph unicode="-" horiz-adv-x="367" d="M354 229q-8 -36 -56 -36h-197q-11 0 -18.5 1t-16.5 10q-6 6 -6 16q0 4 1 9q7 36 55 36h197q42 0 42 -27q0 -4 -1 -9z" />
<glyph unicode="." horiz-adv-x="306" d="M224 27q-5 -20 -9.5 -23.5t-23.5 -3.5h-77q-20 0 -22 4q-1 2 -1 5q0 6 2 18l16 77q5 20 9.5 23.5t23.5 3.5h77q20 0 23 -3v-6q0 -6 -2 -18z" />
<glyph unicode="/" d="M638 708q-1 -8 -10 -23l-529 -901q-19 -34 -49 -34q-18 0 -28 12q-6 9 -6 20q0 5 1 10q1 8 11 23l528 901q19 34 49 34q18 0 27 -12q7 -9 7 -20q0 -5 -1 -10z" />
<glyph unicode="0" d="M579 343q-6 -29 -9.5 -44.5t-11.5 -46.5t-16 -50l-18 -47q-12 -29 -24 -47l-30 -41q-17 -23 -37.5 -37t-45 -27t-54.5 -19t-64 -6q-48 0 -82.5 14t-54 33.5t-29.5 54t-12 61.5q-1 8 -1 17q0 23 4 54q5 44 9 66.5t13 64.5l14 65q6 25 19.5 69t28 72t39 63t52.5 55t69 34.5 t89 14.5t82.5 -14.5t54 -34.5t29 -55.5t11.5 -63.5q1 -9 1 -20q0 -22 -3 -52q-5 -45 -9.5 -68.5t-13.5 -64.5zM446 357q28 137 32 183v13q0 91 -67 91q-76 0 -114 -115q-19 -57 -42 -172q-29 -131 -33 -188q-2 -17 -2 -32q0 -87 65 -87q77 0 113 117q20 59 48 190z" />
<glyph unicode="1" d="M481 36q-8 -36 -56 -36h-285q-11 0 -19 1t-17 10q-5 6 -5 15q0 5 1 10q7 36 55 36h78l110 516q-50 -13 -97 -13q-11 0 -19 1t-16.5 10t-4.5 25q7 36 52 36q96 2 166 55q18 14 39 14q29 0 35 -17q3 -8 3 -15q0 -8 -4 -16l-127 -596h70q10 0 18 -1t17 -10t6 -25z" />
<glyph unicode="2" d="M504 48q-5 -27 -17.5 -37.5t-40.5 -10.5h-343q-27 0 -35 10q-5 7 -5 20q0 8 2 18l2 8q2 10 3.5 13.5t4 7t8.5 8.5l234 204q120 104 140 195q4 19 4 36q0 30 -13 56q-19 40 -73 40q-86 0 -142 -111q-8 -19 -18 -19q-7 0 -13 12l-37 64q35 70 97 110q63 44 149 44 q106 0 156 -68q36 -48 36 -110q0 -25 -6 -52q-9 -42 -35.5 -80.5t-48.5 -58.5t-67 -57l-81 -58l-158 -125h162l68 1q52 0 58 -4q14 -7 14 -27q0 -8 -2 -17z" />
<glyph unicode="3" d="M546 203q-22 -105 -93 -165t-195 -60q-59 0 -108 21.5t-69.5 42.5t-19.5 30l27 69q6 11 15 11q4 0 12 -10q60 -70 158 -70q61 0 87 34.5t40 98.5q8 45 8 72q0 28 -19 45q-20 17 -63 17h-44q-20 0 -22.5 3.5t1.5 23.5l4 18q4 22 12 25q2 1 34 4q19 1 29.5 3t26.5 9t30 20 q39 38 52 100q4 19 4 34q0 17 -5 28q-11 20 -55 20q-84 0 -150 -73q-11 -11 -17 -11q-7 0 -12 12l-20 40l-3 15q0 3 10 14t30.5 26.5t46.5 30.5t63 25t76 10q14 0 27 -1t31.5 -3.5t33 -8t31 -14t26.5 -21.5t19 -30q8 -16 8 -37q0 -20 -5 -58q-23 -107 -143 -166 q106 -29 106 -127q0 -22 -5 -47z" />
<glyph unicode="4" d="M561 200q-6 -28 -19.5 -37.5t-38.5 -9.5h-42l-23 -105q-5 -27 -17.5 -37.5t-40.5 -10.5h-28q-29 0 -36 11q-5 6 -5 17q0 8 3 20l23 105h-225q-29 0 -36 11q-5 6 -5 17q0 8 3 20l5 25q5 20 16 36l309 409q17 23 51 23h73q28 0 36 -10q4 -6 4 -17q0 -9 -3 -21l-84 -399h42 q27 0 35 -10q5 -6 5 -19q0 -8 -2 -18zM363 247l72 342h-1q-20 -43 -246 -342h175z" />
<glyph unicode="5" d="M541 221q-25 -120 -102 -181.5t-199 -61.5q-40 0 -73.5 11.5t-53.5 27t-33.5 33t-18.5 29.5q-4 10 -4 14t51 66q11 13 19 13q6 0 10 -12q26 -88 120 -88q30 0 53 9.5t36 21t23.5 36t14.5 40t11 46.5q14 50 14 92v15q-3 47 -46 47q-65 0 -113 -59q-13 -17 -22.5 -20.5 t-31.5 -3.5q-13 0 -19 1t-14.5 5.5t-8.5 13.5l2 26l65 306q6 28 19 37t39 9h278q32 0 39 -15q2 -7 2 -14q0 -10 -4 -21q-3 -13 -5.5 -19.5t-8.5 -15t-17 -12t-28 -3.5h-196l-33 -156q38 13 76 13q109 0 146 -62q22 -38 22 -93q0 -34 -9 -75z" />
<glyph unicode="6" d="M553 236q-14 -66 -34 -109.5t-65 -83.5q-72 -65 -180 -65q-48 0 -83 15.5t-54 37.5t-28.5 58t-12.5 65v22q0 21 2 48q5 42 9 63t11 53q81 376 368 376q37 0 61 -10t27 -15q2 -2 2 -7q0 -6 -2 -16l-8 -37q-5 -27 -18 -27q-5 0 -13 7q-26 16 -65 16q-98 0 -148 -85 q-16 -28 -25 -53.5t-28 -98.5q60 89 141 89q154 0 154 -152q0 -40 -11 -91zM413 237l10 47q3 15 6 40q2 14 2 23q0 8 -1 13q-3 11 -8.5 24t-18.5 18t-33 5q-50 0 -82.5 -45t-46.5 -114q-8 -37 -11 -64q-2 -14 -2 -28t2 -28q3 -27 19 -41.5t44 -14.5q25 0 43.5 8.5t29.5 20.5 t20.5 36.5t14 43.5t12.5 56z" />
<glyph unicode="7" d="M640 644q-6 -26 -16 -36q-124 -123 -208.5 -264t-124.5 -316q-8 -39 -56 -39h-46q-29 0 -37 11q-4 6 -4 17q0 8 3 20q66 304 341 550h-169l-70 -1q-54 0 -61 4q-14 6 -14 25q0 8 3 19l3 13q3 14 8 23.5t9.5 14.5t15.5 7t19 2.5t26 0.5h63l284 -1q27 -1 33 -18q2 -7 2 -14 q0 -9 -4 -18z" />
<glyph unicode="8" d="M546 203q-48 -225 -277 -225q-188 0 -188 154q0 32 8 71q30 137 159 171q-81 30 -81 106q0 19 5 41q41 195 255 195q179 0 179 -137q0 -27 -7 -58q-25 -111 -140 -147q92 -28 92 -122q0 -22 -5 -49zM471 520q8 29 8 51q0 17 -5 29q-12 27 -67 27t-75 -24t-32 -83 q-5 -23 -7 -35t-1 -28.5t8 -25t22.5 -14.5t39.5 -6q30 0 50 8t31.5 26t16.5 32.5t11 42.5zM408 205q6 26 8 40t2 35t-7 31.5t-23 19t-42 8.5q-32 0 -53.5 -10.5t-34 -33.5t-18 -40.5t-11.5 -49.5q-6 -28 -8.5 -44t-2.5 -35.5t7.5 -29.5t23 -17t41.5 -7q25 0 44 7.5 t30.5 17.5t20.5 29.5t13 35t10 43.5z" />
<glyph unicode="9" d="M579 356q-80 -378 -355 -378q-44 0 -78 14t-47 28q-12 12 -12 18q0 5 46 62q11 13 18 13t11 -8q29 -33 80 -33q120 0 168 162q5 18 9 34l6 26q2 8 3 11q-58 -90 -141 -90q-51 0 -83 15t-53 52q-15 27 -19 58q-1 17 -1 32q0 13 1 24q3 25 12 63q13 62 31 102.5t56 79.5 q77 75 196 75q47 0 81 -15t52.5 -36.5t28 -57.5t11.5 -63q1 -9 1 -19q0 -22 -3 -51q-5 -43 -8.5 -63.5t-10.5 -54.5zM457 445q14 54 14 94q0 20 -3 37q-10 51 -58 51q-27 0 -46.5 -9.5t-31 -21t-22 -38t-15 -44.5t-12.5 -56q-7 -32 -10 -48t-6 -40q-1 -12 -1 -21t1 -15 q3 -11 8.5 -24t18.5 -18t33 -5q33 0 59.5 21t41 54.5t20.5 50.5t9 32z" />
<glyph unicode=":" horiz-adv-x="306" d="M293 354q-4 -20 -8.5 -23.5t-23.5 -3.5h-77q-20 0 -23 3.5t1 23.5l17 77q4 20 8.5 23.5t23.5 3.5h77q20 0 23 -4q1 -2 1 -6q0 -6 -2 -17zM224 27q-5 -20 -9.5 -23.5t-23.5 -3.5h-77q-20 0 -22 4q-1 2 -1 5q0 6 2 18l16 77q5 20 9.5 23.5t23.5 3.5h77q20 0 23 -3v-6 q0 -6 -2 -18z" />
<glyph unicode=";" horiz-adv-x="306" d="M293 354q-4 -20 -8.5 -23.5t-23.5 -3.5h-77q-20 0 -23 3.5t1 23.5l17 77q4 20 8.5 23.5t23.5 3.5h77q20 0 23 -4q1 -2 1 -6q0 -6 -2 -17zM224 27q-5 -20 -16 -33l-70 -83q-10 -12 -15 -14.5t-20 -2.5h-12h-11q-3 0 -7 1.5t-5 4.5q-1 1 -0.5 2.5t0.5 4.5l26 45l27 48 q-25 0 -29 4t1 23l16 77q5 20 9.5 23.5t23.5 3.5h77q20 0 23 -3v-6q0 -6 -2 -18z" />
<glyph unicode="&#x3c;" horiz-adv-x="894" d="M785 -56q-2 -11 -13 -20.5t-24 -9.5q-8 0 -21 7l-559 298q-22 11 -19 32q4 19 32 31l689 299q12 6 21 6q13 0 19 -9q5 -8 5 -16v-5q-3 -19 -31 -32l-634 -275l517 -274q19 -11 19 -26q0 -3 -1 -6z" />
<glyph unicode="=" horiz-adv-x="856" d="M872 365q-9 -42 -63 -42h-625q-11 0 -19.5 1t-18.5 12q-8 7 -8 19q0 5 1 10q9 42 62 42h627q10 0 18.5 -1t19.5 -12q7 -7 7 -19q0 -5 -1 -10zM823 135q-9 -42 -62 -42h-627q-10 0 -18.5 1t-19.5 12q-7 7 -7 19q0 5 1 10q9 42 63 42h625q11 0 19.5 -1t18.5 -12q8 -7 8 -19 q0 -5 -1 -10z" />
<glyph unicode="&#x3e;" horiz-adv-x="894" d="M850 251q-4 -21 -31 -32l-690 -299q-12 -6 -20 -6q-14 0 -21 10q-4 7 -4 15v5q4 20 32 32l633 275l-516 274q-20 10 -20 26q0 3 1 6q3 12 14 21t23 9q9 0 21 -7l560 -298q19 -9 19 -25q0 -3 -1 -6z" />
<glyph unicode="?" horiz-adv-x="519" d="M575 554q-16 -77 -80 -116q-124 -81 -146 -188l-6 -27q-4 -20 -8.5 -23.5t-24.5 -3.5h-49q-23 0 -26 8q0 7 7 35q29 139 151 241q16 13 22.5 20t13 21.5t11.5 37.5q4 20 4 34q0 16 -5 24q-10 16 -57 16q-82 0 -149 -64q-9 -9 -15 -9q-10 0 -11 17l-8 49l-2 16q2 9 36 25 q78 38 167 38q25 0 42 -1t49.5 -9t51.5 -22.5t30 -44.5q6 -17 6 -38q0 -17 -4 -36zM319 48q-5 -27 -17.5 -37.5t-40.5 -10.5h-35q-27 0 -35 10q-5 7 -5 20q0 8 2 18l8 35q5 27 17.5 37.5t40.5 10.5h35q29 0 36 -11q4 -6 4 -18q0 -8 -2 -19z" />
<glyph unicode="@" horiz-adv-x="733" d="M690 88q-2 -10 -41.5 -33t-71.5 -36q-78 -30 -156 -30q-176 0 -250 89q-49 59 -49 157q0 51 13 112q38 179 149 268.5t289 89.5q63 0 104.5 -17t62.5 -44.5t26 -73.5q4 -25 4 -50q0 -21 -2 -42q-5 -46 -19 -111q-5 -24 -8.5 -38t-14 -43t-22 -48.5t-32.5 -44t-46 -39.5 t-62 -25.5t-81 -10.5q-172 0 -172 151q0 35 9 78q49 229 260 229q35 0 65 -7q-12 64 -88 64q-130 0 -208 -83q-66 -71 -94 -203q-12 -57 -12 -103q0 -63 23 -106q44 -77 173 -77q77 0 163 36q7 4 25 4h38q10 0 14.5 -0.5t8 -3.5t2.5 -9zM625 347q8 41 8 71q0 86 -68 86 q-92 0 -125 -157q-10 -43 -10 -74q0 -83 69 -83q93 0 126 157z" />
<glyph unicode="A" horiz-adv-x="733" d="M651 0h-54q-23 0 -35 7.5t-15 17t-5 30.5l-14 96h-277l-62 -111q-23 -40 -72 -40h-36q-11 0 -17 1t-12 7q-5 5 -5 12q0 3 1 7q2 8 9 20l339 604q25 43 74 43h88q14 0 22.5 -1.5t19 -11.5t12.5 -30l83 -604q1 -9 1 -15q0 -12 -10.5 -22t-34.5 -10zM516 237l-35 281 q-2 17 -2 36v13h-1q-18 -41 -62 -118l-117 -212h217z" />
<glyph unicode="B" horiz-adv-x="733" d="M712 194q-13 -63 -50.5 -105.5t-87.5 -60t-86.5 -23t-74.5 -5.5h-274q-27 0 -35 10q-5 7 -5 20q0 8 2 18l127 598q6 27 19 37.5t40 10.5h246q184 0 215 -99q6 -18 6 -40q0 -19 -5 -41q-12 -58 -57.5 -96.5t-119.5 -54.5q144 -24 144 -129q0 -19 -4 -40zM613 511 q2 11 2 20q0 15 -5 26q-9 19 -24 28.5t-38.5 15t-38 6.5t-31.5 1h-117l-45 -211h116q14 0 26.5 0.5t40 7t48 17t40 34t26.5 55.5zM574 196q3 16 3 29q0 18 -5 33q-11 27 -27.5 39.5t-44 19t-41.5 7.5t-32 1h-126l-51 -239h145q156 0 179 110z" />
<glyph unicode="C" horiz-adv-x="703" d="M658 58q-1 -8 -8 -12q-66 -34 -112 -46q-42 -11 -113 -11q-183 0 -255 90q-48 59 -48 156q0 51 13 112q38 179 149 269q112 90 293 90q56 0 99 -8q44 -8 92 -28q6 -3 6 -9q0 -2 -1 -5l-41 -107q-4 -10 -15 -10q-5 0 -8 3q-28 33 -66 49q-37 15 -87 15q-110 0 -178 -64 t-96 -195q-11 -53 -11 -95q0 -61 24 -100q42 -63 151 -63q66 0 104 12q41 12 101 52q6 2 8 2q5 0 8 -3.5t2 -7.5z" />
<glyph unicode="D" horiz-adv-x="794" d="M805 342q-34 -159 -131.5 -250.5t-270.5 -91.5h-264q-27 0 -35 10q-5 7 -5 20q0 8 2 18l127 598q6 27 19 37.5t40 10.5h264q175 0 237 -105q30 -52 30 -131q0 -52 -13 -116zM661 342q7 35 11 59q4 28 4 62q0 33 -10 55q-10 23 -29 45.5t-56 33.5t-89 11h-128l-111 -522 h129q61 0 108.5 16.5t75 40t48 61.5t29.5 67t18 71z" />
<glyph unicode="E" horiz-adv-x="642" d="M605 48q-5 -27 -17.5 -37.5t-40.5 -10.5h-408q-27 0 -35 10q-5 7 -5 20q0 8 2 18l127 595q6 28 18.5 38t39.5 10h393q29 0 36 -11q4 -6 4 -18q0 -8 -2 -19l-2 -8q-5 -23 -15.5 -34t-20.5 -12.5t-32 -1.5l-235 3h-49l-39 -185h263q27 0 35 -10q5 -6 5 -18q0 -8 -2 -19 q-6 -28 -19 -37.5t-39 -9.5h-263l-43 -205l146 2l155 2q21 0 30 -1.5t15 -12.5q3 -6 3 -16q0 -8 -2 -18z" />
<glyph unicode="F" horiz-adv-x="611" d="M699 635q-5 -23 -15.5 -34t-20.5 -12.5t-31 -1.5l-226 3h-43l-41 -197h232q27 0 35 -10q5 -6 5 -19q0 -8 -2 -18q-6 -28 -19.5 -37.5t-38.5 -9.5h-232l-54 -251q-5 -27 -17.5 -37.5t-40.5 -10.5h-51q-27 0 -35 10q-5 7 -5 20q0 8 2 18l127 595q6 28 18.5 38t39.5 10h377 q29 0 36 -11q4 -6 4 -18q0 -8 -2 -19z" />
<glyph unicode="G" horiz-adv-x="733" d="M669 50q-2 -8 -10 -11q-117 -50 -234 -50q-183 0 -255 90q-48 59 -48 156q0 51 13 112q38 179 149 269q112 90 293 90q61 0 108 -12q46 -11 96 -38q5 -3 5 -9q0 -2 -1 -5l-41 -106q-4 -11 -14 -11q-5 0 -9 4q-31 42 -70 59q-39 18 -95 18q-110 0 -178 -64t-96 -195 q-11 -53 -11 -95q0 -61 24 -100q42 -63 151 -63q47 0 97 11l28 130h-83q-13 0 -9 13l14 69q4 13 15 13h207q13 0 9 -13z" />
<glyph unicode="H" horiz-adv-x="794" d="M712 48q-5 -27 -17.5 -37.5t-40.5 -10.5h-51q-29 0 -37 11q-4 6 -4 17q0 8 3 20l57 266h-317l-57 -266q-5 -27 -17.5 -37.5t-40.5 -10.5h-51q-27 0 -35 10q-5 7 -5 20q0 8 2 18l127 598q6 27 19 37.5t40 10.5h51q29 0 36 -11q4 -6 4 -16q0 -9 -3 -21l-50 -238h317l50 238 q6 27 18.5 37.5t40.5 10.5h51q29 0 36 -11q4 -6 4 -16q0 -9 -3 -21z" />
<glyph unicode="I" horiz-adv-x="331" d="M249 48q-5 -27 -17.5 -37.5t-40.5 -10.5h-51q-27 0 -35 10q-5 7 -5 20q0 8 2 18l127 598q6 27 19 37.5t40 10.5h51q29 0 36 -11q4 -6 4 -16q0 -9 -3 -21z" />
<glyph unicode="J" horiz-adv-x="519" d="M459 149q-18 -84 -81 -127.5t-148 -43.5t-156 35q-14 6 -18 10t-3 10l34 88q8 19 18 19q6 0 13 -12q28 -50 94 -50q31 0 52 8t31.5 23.5t14 23.5t6.5 22l104 491q6 27 18.5 37.5t40.5 10.5h48q29 0 36 -11q4 -6 4 -16q0 -9 -3 -21z" />
<glyph unicode="K" horiz-adv-x="764" d="M707 29q-4 -20 -13 -24.5t-28 -4.5h-60q-34 0 -46 21l-160 300l-133 -105l-36 -168q-5 -27 -17.5 -37.5t-40.5 -10.5h-34q-27 0 -35 10q-5 7 -5 20q0 8 2 18l127 598q6 27 19 37.5t40 10.5h34q29 0 36 -11q4 -6 4 -16q0 -9 -3 -21l-58 -276l386 304q26 20 63 20h61 q10 0 15.5 -0.5t10.5 -5.5q4 -4 4 -10q0 -2 -1 -5q-3 -10 -16 -21l-316 -247z" />
<glyph unicode="L" horiz-adv-x="581" d="M544 48q-5 -27 -17.5 -37.5t-40.5 -10.5h-347q-27 0 -35 10q-5 7 -5 20q0 8 2 18l127 598q6 27 19 37.5t40 10.5h51q29 0 36 -11q4 -6 4 -16q0 -9 -3 -21l-116 -545l250 4q21 0 31 -7q9 -7 9 -17q0 -5 -3 -24z" />
<glyph unicode="M" horiz-adv-x="978" d="M896 48q-5 -27 -17.5 -37.5t-40.5 -10.5h-27q-29 0 -37 11q-4 6 -4 17q0 8 3 20l110 517h-1q-18 -38 -110 -186l-195 -314q-18 -29 -35.5 -36t-49.5 -7q-22 0 -32 1.5t-20.5 11.5t-14.5 30l-56 285q-32 172 -34 215h-1l-110 -517q-5 -27 -17.5 -37.5t-40.5 -10.5h-27 q-27 0 -35 10q-5 7 -5 20q0 8 2 18l127 598q6 27 19 37.5t40 10.5h83q50 0 58 -41l61 -316q31 -180 31 -188h1q17 39 104 178l200 324q17 28 35 35.5t42 7.5h84q29 0 36 -11q4 -6 4 -16q0 -9 -3 -21z" />
<glyph unicode="N" horiz-adv-x="794" d="M712 48q-5 -27 -17.5 -37.5t-40.5 -10.5h-93q-11 0 -17 1t-16 4t-17.5 12t-11.5 23l-162 533h-1l-112 -525q-5 -27 -17.5 -37.5t-40.5 -10.5h-27q-27 0 -35 10q-5 7 -5 20q0 8 2 18l127 598q6 27 19 37.5t40 10.5h93q11 0 17 -1t16 -4t17.5 -12t11.5 -23l162 -533h1 l111 525q6 27 18.5 37.5t40.5 10.5h27q29 0 36 -11q4 -6 4 -16q0 -9 -3 -21z" />
<glyph unicode="O" horiz-adv-x="794" d="M805 342q-78 -364 -414 -364q-272 0 -272 239q0 56 15 125q80 374 415 374q271 0 271 -246q0 -57 -15 -128zM661 358q6 28 9 44.5t6 49.5q3 21 3 37q0 10 -1 17q-2 22 -10 49.5t-24 43.5t-44.5 27.5t-67.5 11.5t-72 -11.5t-56 -28t-42.5 -44t-31 -49t-22 -54.5t-14.5 -49 t-10 -44q-6 -29 -9 -46t-7 -52q-3 -26 -3 -46q0 -7 1 -13q1 -23 8.5 -53t23.5 -47.5t44 -30t67 -12.5t72.5 12.5t56.5 30.5t43 47.5t32 53t23 58.5t15 52z" />
<glyph unicode="P" horiz-adv-x="703" d="M743 478q-23 -106 -99 -158t-197 -52h-152l-47 -220q-5 -27 -17.5 -37.5t-40.5 -10.5h-51q-27 0 -35 10q-5 7 -5 20q0 8 2 18l127 598q6 27 19 37.5t40 10.5h250q120 0 175 -53q38 -37 38 -103q0 -27 -7 -60zM604 478q6 23 6 44v6q-1 23 -10 41t-37.5 28.5t-75.5 10.5 h-123l-55 -261h122q48 0 81 10t51 31t26 40.5t15 49.5z" />
<glyph unicode="Q" horiz-adv-x="794" d="M805 342q-52 -234 -201 -314l47 -84q11 -21 9 -28q-5 -22 -41 -22h-80q-24 0 -31 5t-18 30l-26 54q-33 -5 -73 -5q-272 0 -272 239q0 56 15 125q80 374 415 374q271 0 271 -246q0 -57 -15 -128zM661 343q6 28 9 45t7 52q3 23 3 40q0 9 -1 17q-2 23 -10 52t-24 46.5 t-44.5 30t-68.5 12.5q-39 0 -73 -12.5t-57.5 -30t-44 -46.5t-32 -52t-22.5 -57.5t-15 -51.5t-10 -45q-6 -27 -9 -44.5t-7 -50.5q-2 -22 -2 -38q0 -10 1 -18q2 -22 10 -50t24 -45t45 -29t68 -12l20 2q0 1 -2.5 8t-6.5 15t-4 9q-33 64 -33 79q0 10 10 17.5t31 7.5h61 q16 0 21 -1.5t11 -9.5l40 -71q71 66 105 231z" />
<glyph unicode="R" horiz-adv-x="703" d="M659 30q-3 -14 -10 -21t-13.5 -8t-19.5 -1h-59q-13 0 -19 1t-12.5 6t-10.5 17l-103 287h-111l-56 -263q-5 -27 -17.5 -37.5t-40.5 -10.5h-48q-27 0 -35 10q-5 7 -5 20q0 8 2 18l127 598q6 27 19 37.5t40 10.5h240q192 0 221 -112q4 -18 4 -38q0 -22 -5 -47 q-30 -139 -196 -177zM607 496q4 20 4 36q0 30 -14 48q-22 28 -103 28h-130l-48 -225h130q84 0 117 29.5t44 83.5z" />
<glyph unicode="S" horiz-adv-x="611" d="M592 200q-24 -113 -99.5 -167.5t-192.5 -54.5q-73 0 -142 23l-8 3l-20 8l-23 11.5t-23 12.5t-16 12t-6 11q0 4 5 14l33 87q7 18 18 18q6 0 15 -12q72 -79 190 -79q119 0 140 97q2 10 2 19q0 27 -18 50q-12 14 -29.5 20.5t-62.5 17.5q-48 12 -68 18t-46 21.5t-45 40.5 q-32 42 -32 95q0 20 5 42q44 208 288 208q100 0 173 -40q17 -10 20 -13q1 -2 1 -6q0 -5 -5 -16l-33 -87q-7 -18 -18 -18q-4 0 -18 16q-48 61 -142 61q-119 0 -137 -87q-2 -9 -2 -18q0 -24 18 -40q24 -21 50 -27l91 -22q74 -18 114 -78q28 -42 28 -95q0 -22 -5 -46z" />
<glyph unicode="T" horiz-adv-x="733" d="M826 632q-5 -23 -15.5 -34t-19.5 -12.5t-27 -1.5l-199 3l-115 -539q-5 -27 -17.5 -37.5t-40.5 -10.5h-51q-27 0 -35 10q-5 7 -5 20q0 8 2 18l115 539l-202 -3q-18 0 -26.5 1.5t-14.5 12.5q-3 6 -3 16q0 8 2 18l2 8q6 28 18.5 38t39.5 10h556q29 0 36 -11q5 -6 5 -17 q0 -8 -3 -20z" />
<glyph unicode="U" horiz-adv-x="764" d="M721 229q-13 -62 -42.5 -109t-64.5 -73.5t-79 -42.5t-80.5 -21t-75.5 -5q-29 0 -55.5 3t-55.5 10t-50.5 19.5t-42 31.5t-30 45.5t-13.5 62.5v17q0 29 8 63l88 416q6 27 19 37.5t40 10.5h51q29 0 36 -11q4 -6 4 -16q0 -9 -3 -21l-89 -420q-8 -35 -8 -63q0 -36 14 -59 q24 -40 107 -40q86 0 127 41t58 122l89 419q6 27 18.5 37.5t40.5 10.5h40q29 0 36 -11q4 -6 4 -16q0 -9 -3 -21z" />
<glyph unicode="V" horiz-adv-x="733" d="M847 667l-9 -18l-352 -605q-12 -20 -26.5 -30.5t-23.5 -12t-24 -1.5h-92q-11 0 -17 1t-15.5 4.5t-15 12.5t-7.5 24l-95 607q-1 9 -1 14q0 12 10.5 21.5t34.5 9.5h54q11 0 17 -1t15.5 -4.5t15 -13t7.5 -24.5l67 -447l6 -37l4 -30q1 -11 1 -12l84 154l214 371q9 16 19 25.5 t21.5 13t18 4.5t17.5 1h39q11 0 17 -1t13 -7q4 -5 4 -12q0 -3 -1 -7z" />
<glyph unicode="W" horiz-adv-x="1039" d="M1155 665q-1 -5 -8 -19l-292 -604q-7 -15 -15.5 -24t-19 -12.5t-17 -4.5t-17.5 -1h-72q-10 0 -16 1t-15 4.5t-13.5 12.5t-5.5 24l-22 377q-4 69 -4 126v22h-1l-60 -130l-188 -391q-10 -21 -24 -32t-23 -12.5t-24 -1.5h-66q-11 0 -17 1t-15 4.5t-13.5 12.5t-5.5 24 l-36 604v19q7 29 48 29h34q14 0 22 -1.5t17.5 -11.5t10.5 -30l18 -320q7 -109 7 -169q0 -20 -1 -34h1q8 20 41 95l46 99l158 328q10 20 24 30.5t23 12t24 1.5h66q25 0 36.5 -8.5t13.5 -35.5l22 -405q4 -74 4 -106v-11h1q14 32 59 128l190 394q10 20 24 30.5t23 12t23 1.5h21 q11 0 17.5 -1t13.5 -8q4 -5 4 -12q0 -4 -1 -8z" />
<glyph unicode="X" horiz-adv-x="733" d="M699 22q-5 -22 -41 -22h-83q-12 0 -18.5 1t-14 6t-12.5 15l-116 240l-212 -238q-13 -15 -22 -19.5t-32 -4.5h-75q-10 0 -16 0.5t-11 5.5t-5 12q0 2 1 5q1 6 14 20l305 325l-158 284q-7 11 -6 20q5 22 40 22h83q13 0 19 -1t13.5 -6t13.5 -16l95 -185l171 187q20 21 54 21 h75q10 0 16 -0.5t11 -5.5t5 -12q0 -2 -1 -5q-2 -7 -15 -20l-266 -283l183 -326q6 -11 5 -20z" />
<glyph unicode="Y" horiz-adv-x="733" d="M851 671q-3 -10 -14 -21l-340 -373l-49 -230q-6 -27 -18.5 -37t-39.5 -10h-48q-27 0 -35 10q-5 7 -5 20q0 8 2 18l49 230l-182 373q-5 9 -5 16q0 2 1 4q5 23 41 23h66q28 0 44 -8.5t28 -32.5l78 -162q27 -55 37 -88q24 35 95 113l127 140q36 38 88 38h49q10 0 16 -0.5 t12 -5.5q4 -5 4 -12q0 -2 -1 -5z" />
<glyph unicode="Z" horiz-adv-x="672" d="M626 48q-5 -27 -17.5 -37.5t-40.5 -10.5h-459q-27 0 -35 10q-5 7 -5 20q0 8 2 18l2 8q4 21 17 35l470 508h-35l-261 -3h-18q-6 0 -14.5 1.5t-12 4.5t-6.5 8.5t-2.5 14t2.5 20.5q6 26 17.5 37.5t41.5 11.5h438q32 0 38 -15q3 -7 3 -14q0 -10 -4 -21q-4 -17 -6.5 -22.5 t-11.5 -14.5l-468 -506l320 4q21 0 30.5 -1.5t15.5 -12.5q3 -6 3 -16q0 -8 -2 -18z" />
<glyph unicode="[" horiz-adv-x="343" d="M273 -214q-8 -36 -56 -36h-135q-29 0 -36 11q-5 6 -5 17q0 8 3 20l192 904q6 27 18 37.5t40 10.5h135q42 0 42 -27q0 -4 -1 -9q-8 -36 -56 -36h-53l-182 -856h53q42 0 42 -27q0 -4 -1 -9z" />
<glyph unicode="\" horiz-adv-x="575" d="M449 -242q-11 -8 -22 -8q-10 0 -16 5t-7.5 10t-3.5 15l-181 919q-2 10 -2 16v4q3 14 14 22.5t22 8.5q10 0 15.5 -4.5t7.5 -10t4 -15.5l182 -919q1 -11 1 -16q0 -15 -14 -27z" />
<glyph unicode="]" horiz-adv-x="343" d="M212 -202q-5 -27 -17.5 -37.5t-40.5 -10.5h-135q-11 0 -18.5 1t-16.5 10q-6 6 -6 16q0 4 1 9q7 36 55 36h53l182 856h-53q-11 0 -18.5 1t-16.5 10t-5 25q7 36 55 36h135q29 0 36 -11q5 -6 5 -17q0 -8 -3 -20z" />
<glyph unicode="^" horiz-adv-x="556" d="M685 584l-17 -22l-245 123l-298 -123l-6 22l317 160z" />
<glyph unicode="_" horiz-adv-x="733" d="M692 -193h-733l29 136h733z" />
<glyph unicode="`" d="M440 537h-37l-131 129q-8 7 -8 13v2q3 13 30 13h82q14 0 18 -1.5t9 -10.5l61 -117q6 -10 6 -14q0 -14 -30 -14z" />
<glyph unicode="a" horiz-adv-x="525" d="M484 48q-5 -27 -17.5 -37.5t-40.5 -10.5h-37q-29 0 -37 11q-4 6 -4 17q0 8 3 20l4 20q-70 -79 -172 -79q-63 0 -95 44q-22 32 -22 70q0 15 3 30q9 41 44 71.5t74 44.5t90 22.5t75 9.5t46 1l7 35q5 22 5 39t-5 29q-11 24 -50 24q-92 0 -169 -67q-8 -6 -13 -6q-12 0 -10 11 q0 17 8 73q2 8 7.5 12t23.5 11q83 32 171 32q173 0 173 -116q0 -10 -1 -21l-4 -22zM371 154l18 87l-29 -2q-14 -1 -42.5 -7.5t-50.5 -17t-41.5 -31t-25.5 -48.5q-2 -9 -2 -17q0 -19 10 -35q15 -22 45 -22q5 0 12 0.5t25 5.5t32.5 14t28.5 28t20 45z" />
<glyph unicode="b" horiz-adv-x="561" d="M572 231q-4 -18 -7 -29.5t-13 -39.5t-21.5 -47.5t-32.5 -45t-46.5 -41.5t-62.5 -27.5t-81 -11.5q-67 0 -103 50q-9 -39 -56 -39h-40q-27 0 -35 10q-5 7 -5 20q0 8 2 18l127 598q6 27 19 37.5t40 10.5h37q29 0 36 -11q4 -6 4 -16q0 -9 -3 -21l-49 -233q10 9 26.5 19.5 t53 23.5t73.5 13q148 0 148 -148q0 -40 -11 -90zM436 230q5 25 7.5 39t4.5 37q1 9 1 16q0 12 -2 20q-4 14 -11.5 28t-24.5 20.5t-41 6.5q-52 0 -96 -35l-56 -262q22 -39 70 -39q32 0 57 11.5t39 25.5t25.5 41.5t15.5 43.5t11 47z" />
<glyph unicode="c" horiz-adv-x="489" d="M468 50q-1 -7 -6 -11t-29 -15q-76 -35 -161 -35q-195 0 -195 163q0 35 9 78q52 245 294 245q49 0 77.5 -7t63.5 -25q9 -5 12.5 -7.5t6.5 -5.5q1 -3 1 -6t-13 -36q-11 -29 -14 -35q-6 -13 -16 -13q-6 0 -15 11q-25 25 -49 35.5t-70 10.5q-36 0 -62 -13t-41 -40.5 t-22.5 -50t-16.5 -61.5q-5 -24 -7 -35.5t-4 -34.5q-1 -9 -1 -16q0 -13 2 -21q4 -13 12 -28.5t25 -22.5t42 -7q83 0 158 56q12 10 18 10q10 0 10 -13q-3 -36 -9 -70z" />
<glyph unicode="d" horiz-adv-x="561" d="M509 48q-5 -27 -17.5 -37.5t-40.5 -10.5h-40q-26 0 -35 10q-5 6 -5 18q0 8 2 19q-67 -58 -140 -58q-157 0 -157 155q0 38 9 84q54 241 255 241q73 0 115 -50l48 227q6 27 18.5 37.5t40.5 10.5h37q29 0 36 -11q4 -6 4 -16q0 -9 -3 -21zM390 125l51 241q-27 31 -72 31 q-32 0 -57 -11.5t-39 -25.5t-25.5 -41t-15.5 -43l-11 -48q-5 -27 -7 -39.5t-4 -36.5q-2 -10 -2 -18q0 -11 2 -18q4 -13 11.5 -27.5t24.5 -21t41 -6.5q31 0 64 18q16 10 24 17.5t10.5 12.5t4.5 16z" />
<glyph unicode="e" horiz-adv-x="511" d="M534 260q-4 -21 -14.5 -32t-19.5 -12.5t-24 -1.5h-272q-4 -24 -5 -41v-9q0 -14 2 -31q3 -23 13 -37t32 -24.5t54 -10.5q83 0 163 58q13 10 19 10q7 0 8 -4.5t0 -27.5q-5 -41 -6 -44q-1 -8 -7 -12.5t-27 -13.5q-84 -38 -169 -38q-120 0 -173 61q-36 42 -36 110q0 33 9 73 q24 116 98 179t192 63q108 0 147 -57q24 -36 24 -90q0 -31 -8 -68zM425 267q6 40 6 70t-18.5 48t-56.5 18q-103 0 -139 -136h208z" />
<glyph unicode="f" horiz-adv-x="336" d="M513 621q-5 -26 -19 -26q-6 0 -12 10q-24 28 -66 28q-23 0 -38.5 -6t-23.5 -18t-11 -20.5t-6 -21.5l-24 -109h51q42 0 42 -27q0 -4 -1 -9q-8 -36 -56 -36h-48l-72 -338q-5 -27 -17.5 -37.5t-40.5 -10.5h-37q-27 0 -35 10q-5 7 -5 20q0 8 2 18l72 338q-16 0 -25 1t-18 9.5 t-5 25.5q7 36 63 36l17 80q36 167 231 167q36 0 64 -6q24 -5 28 -9q2 -3 2 -8.5t-2 -14.5z" />
<glyph unicode="g" d="M620 405q-2 -13 -16 -13q-5 0 -13 4q-38 11 -90 11q13 -25 13 -58q0 -22 -5 -46q-35 -165 -236 -165q-80 0 -121 26l-5 -15q-1 -5 -1 -11q0 -17 12 -34q12 -12 62 -12h48h41q14 0 39 -1t38.5 -3t34.5 -6t32 -10l25 -14q14 -8 20.5 -19.5t11.5 -26.5q6 -13 6 -30 q0 -21 -6 -46q-30 -142 -280 -142q-112 0 -165 27q-38 20 -49 51q-8 20 -8 39q0 11 3 22q12 61 85 88q-13 24 -13 52q0 13 3 27q8 42 44 81q-28 30 -28 77q0 21 6 46q35 165 236 165q89 0 134 -35q65 35 127 35q13 0 15 -3q1 -3 1 -12v-11q0 -34 -1 -38zM382 304q7 37 7 52 q0 18 -13 29q-15 12 -48 12q-25 0 -42 -6t-26.5 -21t-14.5 -28.5t-10 -38.5q-7 -37 -7 -52q0 -18 14 -29q14 -12 47 -12q25 0 42 6t26.5 21t14.5 28.5t10 38.5zM407 -67q1 4 1 8q0 20 -24 30q-28 12 -90 12h-116q-16 0 -25.5 -1.5t-21.5 -12.5t-17 -33q-1 -6 -1 -12 q0 -10 3 -18q5 -12 18 -19.5t26 -12t32.5 -6t29.5 -2t25 -0.5q146 0 160 67z" />
<glyph unicode="h" horiz-adv-x="561" d="M510 48q-5 -27 -17.5 -37.5t-40.5 -10.5h-40q-29 0 -36 11q-5 6 -5 17q0 8 3 20l59 275q5 19 5 33t-5 23q-9 18 -43 18q-43 0 -83.5 -33.5t-53.5 -94.5l-47 -221q-5 -27 -17.5 -37.5t-40.5 -10.5h-40q-27 0 -35 10q-5 7 -5 20q0 8 2 18l127 598q6 27 19 37.5t40 10.5h37 q29 0 36 -11q4 -6 4 -16q0 -9 -3 -21l-58 -274h1q14 20 33.5 38.5t60.5 38.5t87 20q77 0 104 -33q17 -22 17 -60q0 -22 -6 -51z" />
<glyph unicode="i" horiz-adv-x="256" d="M204 48q-5 -27 -17.5 -37.5t-40.5 -10.5h-37q-27 0 -35 10q-5 7 -5 20q0 8 2 18l77 362q6 28 18.5 38t39.5 10h37q29 0 37 -11q4 -6 4 -17q0 -8 -3 -20zM330 606q-6 -25 -17.5 -36.5t-40.5 -11.5h-51q-30 0 -37 12q-3 6 -3 17q0 8 2 19l4 19q5 27 17.5 37.5t40.5 10.5h51 q29 0 36 -11q5 -6 5 -17q0 -8 -3 -20z" />
<glyph unicode="j" horiz-adv-x="286" d="M217 -32q-37 -173 -186 -173q-47 0 -93 17q-43 15 -43 28q0 4 18 34q11 19 14.5 23t9.5 4q1 0 9 -4q24 -18 59 -18q21 0 35.5 6t22 17.5t10.5 20t6 21.5l99 466q6 27 18 37.5t40 10.5h37q29 0 37 -11q4 -6 4 -17q0 -8 -3 -20zM353 606q-6 -25 -17.5 -36.5t-40.5 -11.5 h-51q-30 0 -36 12q-4 6 -4 17q0 8 2 19l4 19q5 27 17.5 37.5t40.5 10.5h51q29 0 37 -11q4 -6 4 -17q0 -8 -3 -20z" />
<glyph unicode="k" horiz-adv-x="531" d="M502 22q-5 -22 -41 -22h-48q-22 0 -30 4.5t-18 20.5l-94 170l-56 -43l-22 -104q-5 -27 -17.5 -37.5t-40.5 -10.5h-18q-27 0 -35 10q-5 7 -5 20q0 8 2 18l127 598q6 27 19 37.5t40 10.5h21q29 0 36 -11q4 -6 4 -16q0 -9 -3 -21l-73 -343l173 134q27 21 64 21h58 q10 0 15.5 -0.5t11.5 -5.5q4 -4 4 -10q0 -2 -1 -5q-2 -9 -20 -22l-184 -143l125 -228q8 -13 6 -22z" />
<glyph unicode="l" horiz-adv-x="256" d="M204 48q-5 -27 -17.5 -37.5t-40.5 -10.5h-37q-27 0 -35 10q-5 7 -5 20q0 8 2 18l127 598q6 27 19 37.5t40 10.5h37q29 0 36 -11q4 -6 4 -16q0 -9 -3 -21z" />
<glyph unicode="m" horiz-adv-x="867" d="M816 48q-5 -27 -17.5 -37.5t-40.5 -10.5h-40q-27 0 -35 10q-5 7 -5 20q0 8 2 18l59 275q5 20 5 34.5t-5 22.5q-9 17 -44 17q-42 0 -83 -33t-54 -95l-47 -221q-5 -27 -17.5 -37.5t-40.5 -10.5h-40q-27 0 -35 10q-5 7 -5 20q0 8 2 18l59 275q4 20 4 34.5t-4 22.5 q-9 17 -44 17q-42 0 -83 -33t-54 -95l-47 -221q-5 -27 -17.5 -37.5t-40.5 -10.5h-40q-27 0 -35 10q-5 7 -5 20q0 8 2 18l78 368q6 27 19 37.5t40 10.5h34q29 0 36 -11q4 -6 4 -16q0 -9 -3 -21l-10 -50h1q27 41 73 70q52 33 113 33q22 0 38.5 -2.5t39 -11t33.5 -29.5 q11 -20 11 -51v-5q75 99 183 99q77 0 104 -33q17 -22 17 -60q0 -22 -6 -51z" />
<glyph unicode="n" horiz-adv-x="561" d="M510 48q-5 -27 -17.5 -37.5t-40.5 -10.5h-40q-29 0 -36 11q-5 6 -5 17q0 8 3 20l59 275q5 19 5 33t-5 23q-9 18 -43 18q-43 0 -83.5 -33.5t-53.5 -94.5l-47 -221q-5 -27 -17.5 -37.5t-40.5 -10.5h-40q-27 0 -35 10q-5 7 -5 20q0 8 2 18l78 368q6 27 19 37.5t40 10.5h34 q29 0 36 -11q4 -6 4 -16q0 -9 -3 -21l-10 -50h1q15 21 33.5 40t61 41t90.5 22q77 0 104 -33q17 -22 17 -60q0 -22 -6 -51z" />
<glyph unicode="o" d="M566 225q-50 -236 -294 -236q-202 0 -202 161q0 34 9 75q53 250 297 250q199 0 199 -168q0 -37 -9 -82zM432 237q7 31 10 48t3 43t-8 40t-27 24.5t-50 10.5t-54.5 -11t-37 -24.5t-25 -40t-15.5 -42.5t-11 -48q-6 -27 -8.5 -41t-4.5 -38q-1 -8 -1 -15q0 -13 3 -22 q4 -13 12.5 -27t26.5 -20.5t44 -6.5q38 0 64.5 14t42 43t22 51.5t14.5 61.5z" />
<glyph unicode="p" horiz-adv-x="561" d="M572 231q-6 -27 -11 -46t-25 -59.5t-46 -67t-73.5 -48t-107.5 -21.5q-69 0 -104 50l-39 -185q-5 -27 -17.5 -37.5t-40.5 -10.5h-40q-28 0 -36 10q-5 6 -5 18q0 8 3 20l118 556q6 28 18.5 38t39.5 10h37q26 0 35 -10q5 -6 5 -18q0 -8 -2 -19q75 58 161 58q43 0 73 -13.5 t43.5 -38t20.5 -48.5q5 -18 5 -39v-16q-3 -32 -5.5 -48t-6.5 -35zM436 229q8 40 8 70q0 92 -77 92q-51 0 -94 -33l-51 -240q-2 -8 -2 -14v-6q3 -8 18 -20q19 -17 49 -17q111 0 149 168z" />
<glyph unicode="q" horiz-adv-x="561" d="M468 -146q-5 -27 -17.5 -37.5t-40.5 -10.5h-40q-29 0 -36 11q-5 6 -5 17q0 8 3 20l41 194q-64 -59 -136 -59q-162 0 -162 154q0 38 10 85q6 30 15 56.5t29 62.5t46.5 61t71 43t99.5 18q76 0 105 -67l4 19q6 27 18.5 37.5t40.5 10.5h37q29 0 36 -11q4 -6 4 -16 q0 -9 -3 -21zM390 115l43 198q1 6 1 12q0 24 -16 43q-17 23 -50 23q-110 0 -147 -164q-9 -42 -9 -73q0 -93 76 -93q52 0 102 54z" />
<glyph unicode="r" horiz-adv-x="372" d="M440 395q-4 -19 -8 -22.5t-18 -4.5q-56 -4 -106.5 -38.5t-64.5 -99.5l-39 -182q-5 -27 -17.5 -37.5t-40.5 -10.5h-37q-27 0 -35 10q-5 7 -5 20q0 8 2 18l78 368q6 27 19 37.5t40 10.5h32q29 0 36 -11q4 -6 4 -16q0 -9 -3 -21l-13 -65h1q25 38 52 63.5t51 36.5t40 14.5 t30 3.5q12 0 14 -6q1 -2 1 -5q0 -6 -3 -16z" />
<glyph unicode="s" horiz-adv-x="422" d="M426 141q-32 -152 -209 -152q-58 0 -110 17q-1 1 -3.5 1.5t-10 3.5t-14 6t-14 7t-13 8t-8.5 8q-3 3 -3 6t7 23l14 36l10 24q8 15 17 15q6 0 12 -8q43 -69 132 -69q79 0 90 54q3 15 -2 26.5t-18.5 17.5t-23 8.5t-24.5 5.5q-35 7 -51 11t-36 14t-33 25q-30 33 -30 75 q0 14 3 28q30 143 209 143q55 0 95 -12q1 0 6.5 -2t10.5 -3.5t11 -4.5l12 -5q5 -3 9.5 -6t6.5 -6q1 -3 1 -5q0 -3 -6 -19q-6 -15 -12.5 -33t-7.5 -19q-7 -13 -16 -13q-6 0 -14 10q-45 47 -119 47q-72 0 -83 -49q-1 -5 -1 -9q0 -12 8 -21q12 -12 27.5 -16.5t48.5 -10.5 q27 -5 40 -8.5t32 -14t35 -27.5q29 -32 29 -75q0 -15 -4 -32z" />
<glyph unicode="t" horiz-adv-x="404" d="M383 47q-4 -20 -84 -42q-55 -16 -108 -16q-82 0 -82 87q0 25 7 57l54 253h-20q-11 0 -18.5 1t-16.5 10q-6 6 -6 16q0 4 1 9q7 36 55 36h23l18 83q6 28 18.5 38t39.5 10h31q29 0 37 -11q4 -6 4 -17q0 -8 -3 -20l-18 -83h89q42 0 42 -27q0 -4 -1 -9q-8 -36 -56 -36h-89 l-50 -236q-6 -31 -6 -49q0 -11 2 -17q6 -17 25 -17q38 0 87 30q8 7 13 7q10 0 11 -26q1 -30 1 -31z" />
<glyph unicode="u" horiz-adv-x="561" d="M510 48q-5 -27 -17.5 -37.5t-40.5 -10.5h-37q-29 0 -37 11q-4 6 -4 17q0 8 3 20l6 26q-65 -85 -163 -85q-83 0 -116 30q-22 20 -22 62q0 20 5 45l60 284q6 28 18.5 38t39.5 10h40q29 0 37 -11q4 -6 4 -17q0 -8 -3 -20l-62 -293q-5 -22 -5 -36q0 -11 4 -17q8 -14 49 -14 q51 0 86 35t46 88l50 237q6 27 18 37.5t40 10.5h40q29 0 37 -11q4 -6 4 -17q0 -8 -3 -20z" />
<glyph unicode="v" horiz-adv-x="500" d="M564 430q0 -3 -9 -19l-197 -369q-23 -42 -72 -42h-73q-49 0 -54 42l-41 369q-1 7 -1 19q6 28 46 28h24q22 0 34.5 -7t15 -14.5t3.5 -21.5l35 -302l163 302q12 23 26.5 33t44.5 10h21q11 0 17.5 -1t12.5 -7q5 -5 5 -12q0 -4 -1 -8z" />
<glyph unicode="w" horiz-adv-x="744" d="M810 430l-188 -384q-13 -27 -27.5 -36.5t-45.5 -9.5h-68q-18 0 -29 3t-16 11.5t-6.5 16t-2.5 24.5q-9 152 -9 221q0 27 1 41l-1 -1q-12 -40 -118 -261q-16 -33 -30.5 -44t-47.5 -11h-28q-17 0 -25.5 1.5t-18 12.5t-10.5 32l-25 384q4 13 13 19.5t16 7.5t20 1h20 q30 0 40.5 -9.5t12.5 -35.5l20 -283l61 124l62 126q24 49 29 55q19 23 57 23q16 0 26.5 -3.5t15 -11.5t6 -13.5t2.5 -16.5l21 -300l143 290q18 38 32.5 46.5t51.5 8.5q15 0 21.5 -0.5t14 -3t9.5 -8.5q1 -4 1 -10v-6z" />
<glyph unicode="x" horiz-adv-x="500" d="M479 22q-5 -22 -40 -22h-44q-13 0 -19 0.5t-12.5 5t-11.5 14.5l-71 144l-113 -128q-22 -25 -31.5 -30.5t-33.5 -5.5h-43q-10 0 -16 0.5t-12 5.5q-4 5 -4 11q0 2 1 5q1 9 14 20l199 195l-112 180q-8 11 -6 19q4 22 39 22h44q19 0 28.5 -3.5t18.5 -18.5l63 -108 q106 111 111 115q17 15 47 15h43q11 0 16.5 -0.5t11.5 -5.5q4 -5 4 -11q0 -2 -1 -5q-2 -9 -15 -21l-183 -178l121 -194q8 -14 7 -21z" />
<glyph unicode="y" horiz-adv-x="500" d="M565 431q-1 -6 -10 -20l-263 -474q-8 -15 -22.5 -33.5t-41 -45.5t-66 -45t-82.5 -18q-76 0 -76 17q0 7 3 36q4 35 6 42q3 15 16 15q4 0 9 -4q27 -21 62 -21q25 0 46 14t31 27.5t23 36.5q7 14 23 42l-101 416q-2 11 -1 16q5 26 44 26h26q36 0 46.5 -13.5t22.5 -64.5 q39 -168 39 -225q0 -7 -1 -13h1q8 30 45 102l70 130q32 57 36 61q20 23 58 23h22q7 0 12 -0.5t12 -2.5t10 -9q2 -3 2 -8q0 -3 -1 -7z" />
<glyph unicode="z" horiz-adv-x="476" d="M449 37q-8 -37 -56 -37h-314q-7 0 -11.5 0.5t-12.5 2.5t-10 6l-6 13q-2 3 -2 8t3 12q3 18 19 34l310 309h-37l-146 -2q-19 0 -28.5 1t-18 10t-4.5 26q8 38 56 38h296q7 0 11.5 -0.5t12.5 -2.5t10 -6l6 -13q2 -3 2 -8t-3 -12q-3 -18 -19 -34l-309 -309h46l153 2 q20 0 29.5 -1.5t18 -10t4.5 -26.5z" />
<glyph unicode="{" horiz-adv-x="575" d="M447 -232q-3 -12 -9.5 -15t-25.5 -3q-26 0 -50 2t-57.5 10.5t-56 22.5t-35.5 41q-8 17 -8 37q0 12 3 26l45 210q8 37 8 47q-1 32 -28.5 57.5t-88.5 28.5q-14 2 -14 12q0 3 1 6q2 8 6 12t7.5 4.5t12.5 1.5q62 3 107 37q27 20 36 39.5t21 72.5l43 206q14 58 84 92.5 t176 34.5q10 0 14.5 -0.5t8.5 -2t5 -5.5v-3.5v-6.5q-2 -8 -6 -12t-7.5 -4.5t-12.5 -1.5q-55 -3 -98 -28q-47 -30 -56 -80l-45 -210q-4 -18 -7 -29.5t-13.5 -31.5t-25 -33.5t-41.5 -28t-63 -23.5q56 -16 79 -48q17 -24 17 -51q0 -8 -2 -17l-50 -237q-4 -18 -4 -30 q0 -30 26.5 -53.5t90.5 -27.5q16 -1 13 -18z" />
<glyph unicode="|" horiz-adv-x="319" d="M146 -206q-9 -44 -40 -44q-23 0 -23 26q0 8 2 18l194 912q9 44 40 44q23 0 23 -26q0 -8 -2 -18z" />
<glyph unicode="}" horiz-adv-x="575" d="M549 250q-1 -8 -5 -12t-7.5 -4.5t-13.5 -1.5q-66 -4 -104 -36q-29 -22 -38.5 -41.5t-19.5 -71.5l-44 -206q-13 -56 -82 -91.5t-179 -35.5q-13 0 -18 0.5t-8 4.5q-2 2 -2 7q0 2 1 6q1 8 5 12t7.5 4.5t13.5 1.5q55 3 101 30q45 30 53 78l45 210q5 25 10.5 39t20.5 37.5 t44.5 41t74.5 28.5q-57 17 -79 48q-17 24 -17 51q0 8 2 17l50 237q5 21 5 35q-7 70 -118 76q-17 1 -13 18q2 12 9 15t25 3q38 0 71.5 -5t70.5 -18t54 -43q12 -20 12 -45q0 -13 -3 -28l-45 -210q-7 -36 -7 -47q0 -6 1.5 -14.5t10 -23.5t23.5 -25q30 -21 80 -23q14 -1 14 -12 q0 -3 -1 -6z" />
<glyph unicode="~" horiz-adv-x="556" d="M617 290l-64 -44q-24 -17 -64 -35q-43 -18 -77 -18q-41 0 -93 34q-55 37 -96 37q-68 0 -168 -71l-10 17l63 44q24 17 64 35q45 18 77 18q43 0 93 -34q21 -14 31 -19.5t28 -11.5t37 -6q69 0 168 71z" />
<glyph unicode="&#xa0;" />
<glyph unicode="&#xa1;" horiz-adv-x="367" d="M338 417q-6 -27 -18.5 -37.5t-40.5 -10.5h-35q-29 0 -36 11q-4 6 -4 16q0 9 3 21l7 35q6 28 18.5 38t39.5 10h35q29 0 37 -11q4 -6 4 -17q0 -8 -3 -20zM212 -173q-3 -15 -8 -18t-23 -3h-77q-18 0 -22 3q-2 2 -2 7t1 11q9 41 28 118l26 107l55 224q4 20 9 24t25 4h49 q11 0 15 -0.5t6.5 -2.5t2.5 -7q1 -4 -15 -91.5t-21 -106.5q-6 -31 -22 -124.5t-27 -144.5z" />
<glyph unicode="&#xa2;" horiz-adv-x="489" d="M468 50q-1 -7 -6 -11t-29 -15q-53 -25 -116 -33l-14 -67q-2 -10 -10.5 -17t-18.5 -7h-52q-10 0 -15.5 7t-3.5 17l15 69q-141 21 -141 159q0 35 9 78q45 212 233 241l14 63q1 10 10 17t19 7h52q19 0 19 -19v-5l-13 -60q48 -4 101 -31q9 -5 12.5 -7.5t6.5 -5.5q1 -3 1 -6 t-13 -36q-11 -29 -14 -35q-6 -13 -16 -13q-6 0 -15 11q-39 38 -80 44l-69 -324q59 10 115 52q12 10 18 10q10 0 10 -13q-3 -36 -9 -70zM236 82l64 300q-23 -13 -39.5 -39.5t-23.5 -50t-15 -60.5q-7 -36 -10 -56q-1 -8 -1 -18q0 -14 3 -32q4 -30 22 -44z" />
<glyph unicode="&#xa3;" horiz-adv-x="733" d="M693 153q-16 -73 -79 -124t-137 -51q-48 0 -103 15q-46 11 -71 16q-23 5 -55 5h-6q-36 -1 -52 -15q-24 -21 -54 -21q-28 0 -44 20q-11 14 -11 33q0 7 2 15q6 27 29 47q86 74 135 180l11 24h-86q-15 0 -23 10.5t-5 25.5l6 28q3 15 15.5 25.5t27.5 10.5h97l19 67 q27 95 92.5 162.5t144.5 67.5q85 0 120 -76q23 -47 23 -105q0 -35 -8 -73q-6 -28 -30.5 -48t-52.5 -20t-44 20q-11 14 -11 33q0 7 2 15q9 31 9 61q0 9 -1 19q-4 38 -36 38q-16 0 -28 -8.5t-21.5 -27t-13.5 -31.5l-13 -38l-15 -56h62q15 0 23.5 -10.5t5.5 -25.5l-6 -28 q-3 -15 -16 -25.5t-28 -10.5h-71q-12 -33 -24 -58q-25 -51 -52 -92q45 -6 113 -22q42 -11 73 -11q17 0 32 11.5t19 27.5q5 28 29.5 48t52.5 20t43 -20q12 -15 12 -35q0 -6 -1 -13z" />
<glyph unicode="&#xa4;" horiz-adv-x="856" d="M685 -9q-12 -10 -24 -13h-8q-7 0 -13 3q-8 5 -12.5 9.5t-7.5 8.5l-35 44q-77 -48 -158 -48t-139 47l-52 -43l-4 -3q-5 -4 -8 -6l-8 -4q-6 -4 -10 -5t-10 -2q-3 -1 -5.5 -1t-4.5 1q-5 1 -10.5 4t-9.5 8q-7 10 -7 20q0 22 29 47l54 44q-22 44 -22 94q0 26 6 54 q18 84 79 148l-35 45q-12 17 -12 32q0 19 18 35q7 5 13.5 8t11.5 4q2 1 5 1t6 -1l8 -2q4 -1 8.5 -4.5t6 -5t5.5 -4.5l3 -4l34 -44q77 47 158 47q83 0 138 -47l52 43q28 20 47 20q14 0 23 -12q7 -10 7 -20q0 -22 -29 -47l-53 -44q22 -43 22 -93q0 -27 -6 -55 q-18 -81 -78 -148l34 -44q14 -16 14 -31q0 -19 -21 -36zM652 250q4 20 4 37q0 48 -28 84q-40 50 -111 50t-131.5 -50t-75.5 -121q-4 -20 -4 -37q0 -48 28 -84q40 -50 111 -50t131.5 50t75.5 121z" />
<glyph unicode="&#xa5;" horiz-adv-x="733" d="M851 671q-3 -10 -14 -21l-239 -262h59q15 0 23.5 -11t5.5 -25l-6 -28q-3 -15 -16 -25.5t-28 -10.5h-129l-10 -11l-11 -52h137q15 0 23 -10.5t5 -25.5l-6 -28q-3 -15 -15.5 -25.5t-27.5 -10.5h-137l-17 -78q-6 -27 -18.5 -37t-39.5 -10h-48q-27 0 -35 10q-5 7 -5 20 q0 8 2 18l17 77h-136q-15 0 -23 11q-7 7 -7 17q0 4 1 8l6 28q3 15 16 25.5t28 10.5h136l11 53l-5 10h-129q-15 0 -23 10.5t-5 25.5l6 28q3 14 15.5 25t27.5 11h59l-128 263q-6 12 -4 20q5 23 41 23h66q28 0 44 -8.5t28 -32.5l78 -162q27 -55 37 -88q24 35 95 113l127 140 q36 38 88 38h49q10 0 16 -0.5t12 -5.5q4 -5 4 -12q0 -2 -1 -5z" />
<glyph unicode="&#xa6;" horiz-adv-x="319" d="M262 341q-4 -20 -14.5 -35t-25.5 -15t-20 15q-3 8 -3 18q0 8 2 17l78 365q9 44 40 44q23 0 23 -26q0 -8 -2 -18zM146 -206q-9 -44 -40 -44q-23 0 -23 26q0 8 2 18l78 365q4 20 15 35t26 15t20 -15q2 -8 2 -17t-2 -18z" />
<glyph unicode="&#xa7;" horiz-adv-x="566" d="M571 206q-16 -74 -74 -138q17 -30 17 -64q0 -14 -3 -28q-17 -82 -97 -133.5t-175 -51.5t-153 51q-45 40 -45 98q0 17 4 36h136q-1 -6 -1 -11q0 -22 20 -35q26 -17 65 -17t71 17q21 10 30 25t9 25q0 14 -16 27q-19 15 -52 31l-91 47q-62 32 -96 87q-23 39 -23 84 q0 18 4 38q16 74 74 138q-17 30 -17 63q0 14 3 29q17 82 97.5 133.5t175.5 51.5t152 -51q45 -40 45 -98q0 -17 -4 -36h-136q2 7 2 12q0 22 -20 34q-25 17 -65 17q-39 0 -72 -17q-20 -10 -29.5 -25t-9.5 -25q0 -14 16 -26q19 -15 52 -32l91 -47q63 -32 96 -87q23 -39 23 -83 q0 -19 -4 -39zM435 206q1 7 1 14q0 19 -13 34q-18 20 -51 38l-91 47l-22 12q-13 -24 -22 -57q-1 -5 -1 -11q0 -41 64 -75l91 -47l22 -13q16 29 22 58z" />
<glyph unicode="&#xa8;" d="M349 607q-5 -23 -15.5 -33t-36.5 -10h-46q-26 0 -33 10q-3 6 -3 16q0 7 2 17l4 17q5 24 16 33.5t36 9.5h46q26 0 33 -9q3 -6 3 -16q0 -8 -2 -18zM591 607q-5 -23 -15.5 -33t-36.5 -10h-46q-26 0 -33 10q-3 6 -3 16q0 7 2 17l4 17q5 24 16 33.5t36 9.5h46q26 0 33 -9 q3 -6 3 -16q0 -8 -2 -18z" />
<glyph unicode="&#xa9;" horiz-adv-x="694" d="M768 347q-31 -144 -154 -245.5t-267 -101.5t-224 102q-58 73 -58 168q0 37 9 77q31 144 154 245.5t267 101.5t224 -102q58 -73 58 -168q0 -37 -9 -77zM694 347q7 31 7 60q0 75 -46 133q-63 80 -176 80t-210 -80t-121 -193q-7 -31 -7 -60q0 -75 46 -133q63 -80 176 -80 t210 80t121 193zM519 194q-1 -4 -3 -6t-14 -8q-49 -23 -103 -23q-156 0 -156 129q0 27 7 61q39 190 230 190q50 0 88 -14q10 -4 12 -5.5t1 -4.5q0 -1 -1 -3t-1 -4l-18 -45q-3 -9 -9 -9q-3 0 -6 4q-30 30 -78 30q-114 0 -142 -139q-6 -29 -6 -51q0 -87 91 -87q52 0 98 28 q8 6 12 6q6 0 4 -9q-5 -38 -6 -40z" />
<glyph unicode="&#xaa;" horiz-adv-x="416" d="M479 418q-4 -19 -14 -26.5t-34 -7.5h-31q-24 0 -30.5 8t-2.5 26l3 14q-57 -56 -143 -56q-53 0 -81 31q-21 24 -21 53q0 8 2 17q6 29 34.5 50t61 31t75 16t62.5 6.5t39 0.5l6 25q3 13 3 24q0 15 -6 24q-10 16 -43 16q-77 0 -140 -47q-6 -4 -10 -4q-10 0 -10 8q1 3 3 26 t2 25q2 8 26 16q67 22 142 22q20 0 34.5 -0.5t41 -6.5t42.5 -16.5t26 -33.5q6 -14 6 -30q0 -11 -3 -24zM406 311q-3 -14 -20 -24.5t-37 -10.5h-164q-21 0 -33 10q-11 9 -11 20q0 2 1 5q3 15 20 25t38 10h164q20 0 32 -10q11 -8 11 -19q0 -3 -1 -6zM381 492l13 61 q-143 -6 -157 -75q-1 -5 -1 -10q0 -14 10 -26q13 -15 38 -15q4 0 10 0.5t21 4t27 9.5t23.5 19.5t15.5 31.5z" />
<glyph unicode="&#xab;" d="M361 482l-97 -235l-3 -234q0 -5 -4 -9t-9 -4h-46q-10 0 -13 10l-60 237q-1 2 -1 4q0 4 2 6l162 237q3 6 11 6h46q7 0 10.5 -5.5t1.5 -12.5zM592 482l-97 -235l-3 -234q0 -5 -4 -9t-9 -4h-46q-10 0 -13 10l-60 237q-1 2 -1 4q0 4 2 6l162 237q3 6 11 6h46q7 0 10 -6 q3 -3 3 -7q0 -2 -1 -5z" />
<glyph unicode="&#xac;" horiz-adv-x="856" d="M823 135q-4 -17 -19 -29.5t-32 -12.5t-27 12.5t-6 29.5l40 188h-607q-17 0 -27 13q-7 8 -7 20q0 4 1 9q3 17 18.5 29.5t32.5 12.5h649q17 0 27 -13q7 -9 7 -21q0 -4 -1 -8z" />
<glyph unicode="&#xad;" horiz-adv-x="367" d="M354 229q-8 -36 -56 -36h-197q-11 0 -18.5 1t-16.5 10q-6 6 -6 16q0 4 1 9q7 36 55 36h197q42 0 42 -27q0 -4 -1 -9z" />
<glyph unicode="&#xae;" horiz-adv-x="694" d="M768 347q-31 -144 -154 -245.5t-267 -101.5t-224 102q-58 73 -58 168q0 37 9 77q31 144 154 245.5t267 101.5t224 -102q58 -73 58 -168q0 -37 -9 -77zM694 347q7 31 7 60q0 75 -46 133q-63 80 -176 80t-210 -80t-121 -193q-7 -31 -7 -60q0 -75 46 -133q63 -80 176 -80 t210 80t121 193zM546 184q-3 -16 -22 -16h-30q-17 0 -23 13l-52 148h-57l-29 -136q-3 -14 -9.5 -19.5t-20.5 -5.5h-25q-14 0 -18 6q-3 3 -3 9q0 4 1 10l65 308q7 25 31 25h124q13 0 23.5 -0.5t32 -6t34.5 -15t21 -30.5q5 -12 5 -26q0 -11 -3 -23q-15 -72 -101 -92zM519 424 q2 10 2 18q0 16 -7 26q-12 14 -53 14h-67l-24 -116h67q43 0 60 15.5t22 42.5z" />
<glyph unicode="&#xaf;" d="M602 600q-5 -20 -9.5 -23.5t-23.5 -3.5h-343q-20 0 -22 3q-1 2 -1 6q0 6 2 18l6 31q5 20 9.5 23.5t23.5 3.5h343q20 0 23 -4v-5q0 -6 -2 -18z" />
<glyph unicode="&#xb0;" horiz-adv-x="413" d="M474 542q-14 -64 -67.5 -108.5t-117.5 -44.5q-63 0 -99 45q-25 32 -25 75q0 16 3 33q13 63 68 107.5t118 44.5q64 0 99 -44q25 -32 25 -74q0 -16 -4 -34zM390 542q2 8 2 15q0 19 -12 33q-15 20 -44 20t-53.5 -20t-30.5 -48q-2 -8 -2 -15q0 -19 12 -33q16 -21 45 -21 q28 0 52.5 20t30.5 49z" />
<glyph unicode="&#xb1;" horiz-adv-x="856" d="M803 42q-9 -42 -62 -42h-627q-10 0 -18.5 1t-19.5 11q-7 8 -7 20q0 5 1 10q9 42 62 42h272l47 221h-272q-10 0 -18.5 1t-18.5 12q-8 7 -8 19q0 5 1 10q9 42 62 42h272l53 252q11 53 54 53q32 0 32 -33q0 -9 -2 -20l-53 -252h271q10 0 18.5 -1t19.5 -12q7 -7 7 -19 q0 -5 -1 -10q-9 -42 -62 -42h-271l-47 -221h271q10 0 18.5 -1t18.5 -11q8 -8 8 -20q0 -5 -1 -10z" />
<glyph unicode="&#xb2;" horiz-adv-x="389" d="M423 316q-3 -16 -12 -22.5t-29 -6.5h-247q-20 0 -26 7q-4 3 -4 11q0 5 2 11l1 4q2 11 11 18l163 122q85 64 96 117q2 10 2 19q0 19 -10 36q-16 24 -55 24q-62 0 -99 -66q-5 -12 -12 -12t-10 8l-28 38q23 44 67 66q44 26 105 26q77 0 115 -40q29 -30 29 -71q0 -13 -3 -27 q-5 -25 -23.5 -48t-34.5 -35.5t-47 -33.5q-6 -5 -28 -18t-27 -17l-112 -75h117l49 1q38 0 42 -3q15 -5 10 -26z" />
<glyph unicode="&#xb3;" horiz-adv-x="395" d="M449 409q-29 -135 -202 -135q-42 0 -78 12.5t-51.5 25.5t-14.5 18l18 41q0 7 10 7q3 0 9 -6q44 -42 116 -42q44 0 61.5 21t25.5 59q5 17 5 31.5t-5 25.5q-11 23 -56 23h-32q-14 0 -16 2.5t1 13.5l2 11q3 13 8 15q1 0 5 0.5t10.5 1.5t9.5 1q39 2 60 19q28 23 36 60 q2 10 2 17q0 13 -5 20q-8 12 -40 12q-60 0 -106 -44q-8 -6 -12 -6q-5 0 -9 7l-15 24l-3 9q0 2 7 8.5t21.5 16t32.5 18t44.5 14.5t54.5 6q24 0 44 -3t44.5 -12t35.5 -31q7 -14 7 -32q0 -12 -3 -25q-13 -65 -99 -100q80 -18 80 -80q0 -11 -3 -24z" />
<glyph unicode="&#xb4;" d="M576 681q-2 -5 -14 -15l-187 -129h-37h-12q-3 0 -7 1.5t-5 3.5t-0.5 4t0.5 4q1 4 12 15l111 117q8 8 13 10t20 2h82h12q3 0 7 -1.5t5 -4.5v-2.5v-4.5z" />
<glyph unicode="&#xb5;" horiz-adv-x="561" d="M511 50q-7 -30 -19.5 -40t-41.5 -10h-33q-9 0 -13.5 0.5t-13 2.5t-10 6.5t-5.5 13t1 21.5q-68 -55 -155 -55q-14 0 -27 1l-29 -134q-6 -30 -18.5 -40t-41.5 -10h-36q-30 0 -38 10q-5 6 -5 19q0 9 3 21l118 552q6 30 18.5 40t41.5 10h36q30 0 38 -10q5 -6 5 -19 q0 -9 -3 -21l-61 -288q-6 -24 -6 -39q0 -10 3 -17q8 -14 50 -14q49 0 84.5 34t47.5 92l50 232q6 30 18.5 40t41.5 10h36q30 0 38 -10q5 -6 5 -19q0 -9 -3 -21z" />
<glyph unicode="&#xb6;" horiz-adv-x="703" d="M811 663q-6 -30 -51 -30h-51l-167 -783q-9 -44 -40 -44q-23 0 -23 26q0 8 2 18l167 783h-80l-167 -783q-9 -44 -40 -44q-23 0 -23 26q0 8 2 18l79 370q-137 8 -208 72q-55 50 -55 121q0 21 5 44q22 102 121.5 169.5t216.5 67.5h274q12 0 19.5 -1t14.5 -9q5 -5 5 -13 q0 -4 -1 -8z" />
<glyph unicode="&#xb7;" horiz-adv-x="856" d="M559 309q-5 -20 -9.5 -23.5t-23.5 -3.5h-77q-20 0 -23 4v5q0 6 2 18l16 77q5 20 9.5 23.5t23.5 3.5h77q20 0 22 -3q1 -2 1 -6q0 -6 -2 -18z" />
<glyph unicode="&#xb8;" horiz-adv-x="489" d="M302 -37q-1 -3 -8 -16l-77 -121q-9 -13 -13.5 -15.5t-21.5 -2.5h-50h-11q-3 0 -7 1.5t-5 4.5q-1 1 -1 2.5t1 4.5q0 3 25 31l54 64q29 35 33 39q14 15 19 18t21 3h18h11q3 0 7 -1.5t5 -4.5q1 -1 0.5 -2.5t-0.5 -4.5z" />
<glyph unicode="&#xb9;" horiz-adv-x="395" d="M367 287h-205q-8 0 -14 0.5t-12 5.5q-5 4 -5 11v4q5 22 40 22h56l66 310q-35 -8 -70 -8q-30 0 -30 16q0 2 1 5q5 22 35 22q71 1 119 33q13 8 28 8q28 0 28 -18q0 -5 -2 -10l-76 -358h50q7 0 13 -0.5t13 -5.5q4 -5 4 -12q0 -25 -39 -25z" />
<glyph unicode="&#xba;" horiz-adv-x="461" d="M550 541q-35 -165 -240 -165q-174 0 -174 120q0 21 5 45q37 175 242 175q173 0 173 -125q0 -23 -6 -50zM451 311q-3 -14 -19.5 -24.5t-37.5 -10.5h-209q-21 0 -33 10q-11 9 -11 20q0 2 1 5q3 15 20 25t38 10h209q21 0 33 -10q10 -8 10 -19q0 -3 -1 -6zM438 550q5 23 6 34 q2 7 2 20v9q-1 19 -8 28.5t-23.5 17t-42.5 7.5q-32 0 -54 -9.5t-34 -29.5t-17 -35t-10 -42q-5 -22 -7 -34q-1 -9 -1 -20v-12q1 -18 8 -28t23.5 -17.5t42.5 -7.5q32 0 53.5 9.5t33.5 30.5t17 35.5t11 43.5z" />
<glyph unicode="&#xbb;" d="M526 243l-161 -237q-5 -6 -11 -6h-46q-8 0 -11.5 5.5t-0.5 12.5l96 235l4 234q0 13 13 13h46q10 0 12 -10l61 -237q1 -2 1 -3q0 -4 -3 -7zM295 243l-161 -237q-4 -6 -11 -6h-46q-7 0 -11 6q-2 3 -2 6t1 6l96 235l4 234q0 13 13 13h46q10 0 12 -10l61 -237q1 -2 1 -3 q0 -4 -3 -7z" />
<glyph unicode="&#xbc;" horiz-adv-x="880" d="M406 308q-4 -21 -39 -21h-205q-8 0 -14 0.5t-12 5.5q-5 4 -5 11q0 26 40 26h56l66 310q-35 -8 -70 -8q-30 0 -30 16q0 2 1 5q5 22 35 22q71 1 119 33q13 8 28 8q28 0 28 -18q0 -5 -2 -10l-76 -358h50q7 0 13 -0.5t12.5 -6t4.5 -15.5zM851 120q-4 -17 -13 -22.5t-28 -5.5 h-30l-14 -63q-3 -16 -11.5 -22.5t-28.5 -6.5h-21q-21 0 -26 7t-2 22l14 63h-162q-22 0 -27.5 6.5t-1.5 22.5l3 15q3 13 10 21l213 246q11 13 35 13h53q20 0 26 -6t2 -22l-51 -240h30q20 0 26.5 -6t3.5 -22zM877 651l-579 -654q-16 -19 -39 -19q-25 0 -33 22q-2 7 -2 13 q0 16 14 30l579 655q18 18 39 18q26 0 33 -22q2 -6 2 -12q0 -16 -14 -31zM706 148l44 205q-16 -27 -170 -205h126z" />
<glyph unicode="&#xbd;" horiz-adv-x="978" d="M406 308q-4 -21 -39 -21h-205q-8 0 -14 0.5t-12 5.5q-5 4 -5 11q0 26 40 26h56l66 310q-35 -8 -70 -8q-30 0 -30 16q0 2 1 5q5 22 35 22q71 1 119 33q13 8 28 8q28 0 28 -18q0 -5 -2 -10l-76 -358h50q7 0 13 -0.5t12.5 -6t4.5 -15.5zM929 29q-3 -16 -11.5 -22.5 t-29.5 -6.5h-247q-20 0 -26 6.5t-2 22.5l1 5q2 10 11 17l163 122q85 64 96 117q2 10 2 20q0 20 -10 36q-15 24 -54 24q-62 0 -100 -67q-5 -11 -12 -11q-6 0 -10 7l-28 38q23 44 67 66q44 27 106 27q76 0 114 -40q29 -31 29 -72q0 -12 -3 -26q-5 -25 -23.5 -48.5t-34 -35.5 t-46.5 -34l-56 -35l-111 -75h116l49 1q38 0 42 -3q14 -5 10 -26zM882 651l-579 -654q-16 -19 -39 -19q-25 0 -32 22q-3 7 -3 13q0 16 14 30l579 655q18 18 39 18q26 0 33 -22q2 -6 2 -12q0 -16 -14 -31z" />
<glyph unicode="&#xbe;" horiz-adv-x="880" d="M482 409q-29 -135 -202 -135q-42 0 -78 12.5t-51.5 25.5t-14.5 18l18 41q4 7 10 7q3 0 9 -6q45 -42 116 -42q44 0 61.5 21t25.5 59q5 26 5 42q0 17 -15 28q-15 10 -46 10h-32q-14 0 -16 2.5t1 13.5l2 11q3 13 8 15q1 0 5 0.5t10.5 1.5t9.5 1q39 2 61 19q27 23 35 60 q2 10 2 17q0 13 -5 20q-8 12 -40 12q-60 0 -106 -44q-6 -6 -12 -6q-5 0 -9 7l-15 24l-3 9q0 2 7 8.5t21.5 16t32.5 18t44.5 14.5t54.5 6q24 0 44 -3t44.5 -12t35.5 -31q7 -14 7 -32q0 -12 -3 -25q-13 -65 -99 -100q80 -18 80 -80q0 -11 -3 -24zM851 120q-4 -17 -13 -22.5 t-28 -5.5h-30l-14 -63q-3 -16 -11.5 -22.5t-28.5 -6.5h-21q-21 0 -26 7t-2 22l14 63h-162q-22 0 -27.5 6.5t-1.5 22.5l3 15q3 13 10 21l213 246q11 13 35 13h53q20 0 26 -6t2 -22l-51 -240h30q20 0 26.5 -6t3.5 -22zM877 651l-579 -654q-16 -19 -39 -19q-25 0 -33 22 q-2 7 -2 13q0 16 14 30l579 655q18 18 39 18q26 0 33 -22q2 -6 2 -12q0 -16 -14 -31zM706 148l44 205q-16 -27 -170 -205h126z" />
<glyph unicode="&#xbf;" horiz-adv-x="519" d="M398 417q-6 -27 -18.5 -37.5t-40.5 -10.5h-35q-29 0 -36 11q-4 6 -4 16q0 9 3 21l7 35q6 28 18.5 38t39.5 10h35q29 0 37 -11q4 -6 4 -17q0 -8 -3 -20zM420 -152q-4 -3 -28 -13q-98 -40 -194 -40q-12 0 -22 0.5t-24.5 2t-26 4.5t-24.5 8.5t-22.5 13t-17.5 19t-12 26 t-4 34.5t5 43q16 77 68 114q100 72 126 188l6 29q4 19 9 23t25 4h49q23 0 25 -8q0 -7 -7 -35q-12 -58 -37.5 -109.5t-95.5 -134.5q-15 -17 -21 -30t-12 -45q-7 -29 -7 -46q0 -8 2 -14q5 -15 38 -15q91 0 177 69q7 4 11 4q8 0 11 -13q1 -3 1 -4q9 -46 9 -61q0 -9 -7 -14z" />
<glyph unicode="&#xc0;" horiz-adv-x="733" d="M651 0h-54q-23 0 -35 7.5t-15 17t-5 30.5l-14 96h-277l-62 -111q-23 -40 -72 -40h-36q-11 0 -17 1t-12 7q-5 5 -5 12q0 3 1 7q2 8 9 20l339 604q25 43 74 43h88q14 0 22.5 -1.5t19 -11.5t12.5 -30l83 -604q1 -9 1 -15q0 -12 -10.5 -22t-34.5 -10zM516 237l-35 281 q-2 17 -2 36v13h-1q-18 -41 -62 -118l-117 -212h217zM630 776q4 -5 4 -9q0 -3 -2 -5q-6 -6 -18 -6h-67l-196 106q-6 4 -6 10q0 4 5 8q6 5 15 5h161z" />
<glyph unicode="&#xc1;" horiz-adv-x="733" d="M696 27q-6 -27 -45 -27h-54q-23 0 -35 7.5t-15 17t-5 30.5l-14 96h-277l-62 -111q-23 -40 -72 -40h-36q-11 0 -17 1t-12 7q-5 5 -5 12q0 3 1 7q2 8 9 20l339 604q25 43 74 43h88q14 0 22.5 -1.5t19 -11.5t12.5 -30l83 -604q2 -14 1 -20zM516 237l-35 281q-2 17 -2 36v13 h-1q-18 -41 -62 -118l-117 -212h217zM749 862l-240 -106h-67q-12 0 -16 6v2q0 5 8 12l150 109h161q9 0 13 -5q2 -2 2 -6q0 -2 -1 -4q-2 -5 -10 -8z" />
<glyph unicode="&#xc2;" horiz-adv-x="733" d="M696 27q-6 -27 -45 -27h-54q-23 0 -35 7.5t-15 17t-5 30.5l-14 96h-277l-62 -111q-23 -40 -72 -40h-36q-11 0 -17 1t-12 7q-5 5 -5 12q0 3 1 7q2 8 9 20l339 604q25 43 74 43h88q14 0 22.5 -1.5t19 -11.5t12.5 -30l83 -604q2 -14 1 -20zM516 237l-35 281q-2 17 -2 36v13 h-1q-18 -41 -62 -118l-117 -212h217zM702 768q2 -2 2 -6q0 -3 -2 -8q-6 -8 -14 -8h-47l-4 1l-95 81l-129 -81l-6 -1h-47q-5 0 -8 4q-1 2 -1 5q0 7 6 11l132 104q3 3 8 3h111q5 0 8 -3z" />
<glyph unicode="&#xc3;" horiz-adv-x="733" d="M696 27q-6 -27 -45 -27h-54q-23 0 -35 7.5t-15 17t-5 30.5l-14 96h-277l-62 -111q-23 -40 -72 -40h-36q-11 0 -17 1t-12 7q-5 5 -5 12q0 3 1 7q2 8 9 20l339 604q25 43 74 43h88q14 0 22.5 -1.5t19 -11.5t12.5 -30l83 -604q2 -14 1 -20zM516 237l-35 281q-2 17 -2 36v13 h-1q-18 -41 -62 -118l-117 -212h217zM733 860q-9 -41 -47.5 -77.5t-87.5 -36.5q-43 0 -90 37q-24 22 -42 22q-33 0 -47 -44q-4 -11 -9.5 -13t-21.5 -2h-18q-16 0 -21 2q-3 2 -3 7q0 4 1 8q8 41 46 77.5t88 36.5q46 0 90 -37q26 -22 43 -22q33 0 47 44q4 11 9 13t21 2h18 q17 0 21 -3q4 -1 4 -8q0 -2 -1 -6z" />
<glyph unicode="&#xc4;" horiz-adv-x="733" d="M696 27q-6 -27 -45 -27h-54q-23 0 -35 7.5t-15 17t-5 30.5l-14 96h-277l-62 -111q-23 -40 -72 -40h-36q-11 0 -17 1t-12 7q-5 5 -5 12q0 3 1 7q2 8 9 20l339 604q25 43 74 43h88q14 0 22.5 -1.5t19 -11.5t12.5 -30l83 -604q2 -14 1 -20zM516 237l-35 281q-2 17 -2 36v13 h-1q-18 -41 -62 -118l-117 -212h217zM458 789q-5 -23 -15.5 -33t-37.5 -10h-46q-26 0 -32 10q-3 6 -3 15q0 8 2 18l3 17q5 24 16 33.5t36 9.5h46q26 0 33 -9q3 -6 3 -16q0 -8 -2 -18zM744 789q-5 -23 -15.5 -33t-37.5 -10h-46q-26 0 -32 10q-3 6 -3 15q0 8 2 18l3 17 q5 24 16 33.5t36 9.5h46q26 0 33 -9q3 -6 3 -16q0 -8 -2 -18z" />
<glyph unicode="&#xc5;" horiz-adv-x="733" d="M651 0h-54q-23 0 -35 7.5t-15 17t-5 30.5l-14 96h-277l-62 -111q-23 -40 -72 -40h-36q-11 0 -17 1t-12 7q-5 5 -5 12q0 3 1 7q2 8 9 20l339 604q25 43 74 43h88q14 0 22.5 -1.5t19 -11.5t12.5 -30l83 -604q1 -9 1 -15q0 -12 -10.5 -22t-34.5 -10zM516 237l-35 281 q-2 17 -2 36v13h-1q-18 -41 -62 -118l-117 -212h217zM586 773q5 21 -7.5 27.5t-40.5 6.5q-30 0 -43.5 -6t-18.5 -28q-4 -21 8 -27.5t40 -6.5q30 0 44 6t18 28zM654 772q-17 -78 -140 -78q-14 0 -24 0.5t-29.5 4.5t-31 12t-19.5 24q-4 10 -4 22q0 8 2 17q17 78 140 78 q14 0 24 -0.5t29.5 -4.5t31 -12t19.5 -24q4 -10 4 -22q0 -8 -2 -17z" />
<glyph unicode="&#xc6;" horiz-adv-x="947" d="M910 48q-5 -27 -17.5 -37.5t-40.5 -10.5h-343q-27 0 -35 10q-5 7 -5 20q0 8 2 18l31 144h-213l-94 -149q-16 -27 -33 -35t-43 -8h-37q-10 0 -16 1t-12 7q-5 4 -5 11q0 3 1 7q1 7 8 18l381 608q15 25 31.5 33.5t43.5 8.5h471q29 0 36 -11q4 -6 4 -16q0 -9 -3 -21l-1 -8 q-5 -23 -16 -34t-20.5 -12.5t-28.5 -1.5l-198 3h-25l-40 -187h199q27 0 36 -10q4 -6 4 -18q0 -8 -2 -19q-6 -28 -19 -37.5t-39 -9.5h-199l-43 -205h51q31 0 94 1.5t95 1.5q19 0 27.5 -1.5t14.5 -12.5q3 -6 3 -16q0 -8 -2 -18zM520 278l67 316h-47l-198 -316h178z" />
<glyph unicode="&#xc7;" horiz-adv-x="703" d="M657 49q-2 -8 -6.5 -11.5t-26.5 -14.5q-55 -26 -96 -35.5t-103 -9.5q-304 0 -304 250q0 54 14 119q77 369 446 369q96 0 171 -29q19 -7 23 -9q3 -2 3 -6q0 -2 -1 -4q-3 -9 -5 -13l-33 -87q-7 -18 -18 -18q-6 0 -13 7q-29 30 -62.5 44.5t-86.5 14.5q-59 0 -106 -20 t-75 -47t-49 -67.5t-30 -69.5t-17 -65q-13 -56 -13 -100q0 -48 17 -88q15 -39 56 -60t107 -21q62 0 100 12t88 44q16 11 22 11q11 0 9 -18q-1 -4 -3 -22.5t-4.5 -34.5t-3.5 -21zM427 -59q0 -3 -8 -16l-77 -121q-8 -13 -12.5 -15.5t-21.5 -2.5h-50q-10 0 -14.5 0.5t-7.5 3.5 q-2 2 -2 6q0 9 113 137q13 15 18 18t21 3h18h11q3 0 7 -1.5t5 -4.5q1 -1 1 -2.5t-1 -4.5z" />
<glyph unicode="&#xc8;" horiz-adv-x="642" d="M605 48q-5 -27 -17.5 -37.5t-40.5 -10.5h-408q-27 0 -35 10q-5 7 -5 20q0 8 2 18l127 595q6 28 18.5 38t39.5 10h393q29 0 36 -11q4 -6 4 -18q0 -8 -2 -19l-2 -8q-5 -23 -15.5 -34t-20.5 -12.5t-32 -1.5l-235 3h-49l-39 -185h263q27 0 35 -10q5 -6 5 -18q0 -8 -2 -19 q-6 -28 -19 -37.5t-39 -9.5h-263l-43 -205l146 2l155 2q21 0 30 -1.5t15 -12.5q3 -6 3 -16q0 -8 -2 -18zM584 776q4 -5 4 -9q0 -3 -2 -5q-6 -6 -18 -6h-67l-196 106q-6 4 -6 10q0 4 5 8q6 5 15 5h161z" />
<glyph unicode="&#xc9;" horiz-adv-x="642" d="M605 48q-5 -27 -17.5 -37.5t-40.5 -10.5h-408q-27 0 -35 10q-5 7 -5 20q0 8 2 18l127 595q6 28 18.5 38t39.5 10h393q29 0 36 -11q4 -6 4 -18q0 -8 -2 -19l-2 -8q-5 -23 -15.5 -34t-20.5 -12.5t-32 -1.5l-235 3h-49l-39 -185h263q27 0 35 -10q5 -6 5 -18q0 -8 -2 -19 q-6 -28 -19 -37.5t-39 -9.5h-263l-43 -205l146 2l155 2q21 0 30 -1.5t15 -12.5q3 -6 3 -16q0 -8 -2 -18zM703 862l-240 -106h-67q-12 0 -16 6v2q0 5 8 12l150 109h161q9 0 13 -5q2 -2 2 -6q0 -2 -1 -4q-2 -5 -10 -8z" />
<glyph unicode="&#xca;" horiz-adv-x="642" d="M605 48q-5 -27 -17.5 -37.5t-40.5 -10.5h-408q-27 0 -35 10q-5 7 -5 20q0 8 2 18l127 595q6 28 18.5 38t39.5 10h393q29 0 36 -11q4 -6 4 -18q0 -8 -2 -19l-2 -8q-5 -23 -15.5 -34t-20.5 -12.5t-32 -1.5l-235 3h-49l-39 -185h263q27 0 35 -10q5 -6 5 -18q0 -8 -2 -19 q-6 -28 -19 -37.5t-39 -9.5h-263l-43 -205l146 2l155 2q21 0 30 -1.5t15 -12.5q3 -6 3 -16q0 -8 -2 -18zM656 768q2 -2 2 -6q0 -3 -2 -8q-6 -8 -14 -8h-47l-4 1l-95 81l-129 -81l-6 -1h-47q-5 0 -8 4q-1 2 -1 5q0 7 6 11l132 104q3 3 8 3h111q5 0 8 -3z" />
<glyph unicode="&#xcb;" horiz-adv-x="642" d="M605 48q-5 -27 -17.5 -37.5t-40.5 -10.5h-408q-27 0 -35 10q-5 7 -5 20q0 8 2 18l127 595q6 28 18.5 38t39.5 10h393q29 0 36 -11q4 -6 4 -18q0 -8 -2 -19l-2 -8q-5 -23 -15.5 -34t-20.5 -12.5t-32 -1.5l-235 3h-49l-39 -185h263q27 0 35 -10q5 -6 5 -18q0 -8 -2 -19 q-6 -28 -19 -37.5t-39 -9.5h-263l-43 -205l146 2l155 2q21 0 30 -1.5t15 -12.5q3 -6 3 -16q0 -8 -2 -18zM412 789q-5 -23 -15.5 -33t-37.5 -10h-46q-26 0 -32 10q-3 6 -3 15q0 8 2 18l3 17q5 24 16 33.5t36 9.5h46q26 0 33 -9q3 -6 3 -16q0 -8 -2 -18zM698 789 q-5 -23 -15.5 -33t-37.5 -10h-46q-26 0 -32 10q-3 6 -3 15q0 8 2 18l3 17q5 24 16 33.5t36 9.5h46q26 0 33 -9q3 -6 3 -16q0 -8 -2 -18z" />
<glyph unicode="&#xcc;" horiz-adv-x="331" d="M249 48q-5 -27 -17.5 -37.5t-40.5 -10.5h-51q-27 0 -35 10q-5 7 -5 20q0 8 2 18l127 598q6 27 19 37.5t40 10.5h51q29 0 36 -11q4 -6 4 -16q0 -9 -3 -21zM398 776q4 -5 4 -9q0 -3 -2 -5q-6 -6 -18 -6h-67l-196 106q-6 4 -6 10q0 4 5 8q6 5 15 5h161z" />
<glyph unicode="&#xcd;" horiz-adv-x="331" d="M249 48q-5 -27 -17.5 -37.5t-40.5 -10.5h-51q-27 0 -35 10q-5 7 -5 20q0 8 2 18l127 598q6 27 19 37.5t40 10.5h51q29 0 36 -11q4 -6 4 -16q0 -9 -3 -21zM578 862l-240 -106h-67q-12 0 -15 6q-1 1 -1 2q0 5 8 12l150 109h161q9 0 12 -5q3 -2 3 -6q0 -2 -1 -4 q-2 -5 -10 -8z" />
<glyph unicode="&#xce;" horiz-adv-x="331" d="M249 48q-5 -27 -17.5 -37.5t-40.5 -10.5h-51q-27 0 -35 10q-5 7 -5 20q0 8 2 18l127 598q6 27 19 37.5t40 10.5h51q29 0 36 -11q4 -6 4 -16q0 -9 -3 -21zM500 768q2 -2 2 -6q0 -3 -2 -8q-6 -8 -14 -8h-47l-4 1l-95 81l-129 -81l-6 -1h-47q-5 0 -8 4q-1 2 -1 5q0 7 6 11 l132 104q3 3 8 3h111q5 0 8 -3z" />
<glyph unicode="&#xcf;" horiz-adv-x="331" d="M249 48q-5 -27 -17.5 -37.5t-40.5 -10.5h-51q-27 0 -35 10q-5 7 -5 20q0 8 2 18l127 598q6 27 19 37.5t40 10.5h51q29 0 36 -11q4 -6 4 -16q0 -9 -3 -21zM256 789q-5 -23 -15.5 -33t-37.5 -10h-46q-26 0 -32 10q-3 6 -3 15q0 8 2 18l3 17q5 24 16 33.5t36 9.5h46 q26 0 33 -9q3 -6 3 -16q0 -8 -2 -18zM542 789q-5 -23 -15.5 -33t-37.5 -10h-46q-26 0 -32 10q-3 6 -3 15q0 8 2 18l3 17q5 24 16 33.5t36 9.5h46q26 0 33 -9q3 -6 3 -16q0 -8 -2 -18z" />
<glyph unicode="&#xd0;" horiz-adv-x="794" d="M805 342q-34 -159 -131.5 -250.5t-270.5 -91.5h-264q-27 0 -35 10q-5 7 -5 20q0 8 2 18l53 249h-32q-15 0 -23 11q-6 7 -6 17q0 4 1 8l6 28q3 15 15.5 25.5t27.5 10.5h32l53 249q6 27 19 37.5t40 10.5h264q175 0 237 -105q30 -52 30 -131q0 -52 -13 -116zM661 342 q7 35 11 59q4 28 4 62q0 33 -10 55q-10 23 -29 45.5t-56 33.5t-89 11h-128l-45 -211h58q15 0 23.5 -10.5t5.5 -25.5l-6 -28q-3 -15 -16 -25.5t-28 -10.5h-58l-45 -211h129q61 0 108.5 16.5t75 40t48 61.5t29.5 67t18 71z" />
<glyph unicode="&#xd1;" horiz-adv-x="794" d="M712 48q-5 -27 -17.5 -37.5t-40.5 -10.5h-93q-11 0 -17 1t-16 4t-17.5 12t-11.5 23l-162 533h-1l-112 -525q-5 -27 -17.5 -37.5t-40.5 -10.5h-27q-27 0 -35 10q-5 7 -5 20q0 8 2 18l127 598q6 27 19 37.5t40 10.5h93q11 0 17 -1t16 -4t17.5 -12t11.5 -23l162 -533h1 l111 525q6 27 18.5 37.5t40.5 10.5h27q29 0 36 -11q4 -6 4 -16q0 -9 -3 -21zM763 860q-9 -41 -47.5 -77.5t-87.5 -36.5q-43 0 -90 37q-24 22 -42 22q-33 0 -47 -44q-4 -11 -9.5 -13t-21.5 -2h-18q-16 0 -21 2q-3 2 -3 7q0 4 1 8q8 41 46 77.5t88 36.5q46 0 90 -37 q26 -22 43 -22q33 0 47 44q4 11 9 13t21 2h18q17 0 21 -3q4 -1 4 -8q0 -2 -1 -6z" />
<glyph unicode="&#xd2;" horiz-adv-x="794" d="M805 342q-78 -364 -414 -364q-272 0 -272 239q0 56 15 125q80 374 415 374q271 0 271 -246q0 -57 -15 -128zM661 358q6 28 9 44.5t6 49.5q3 21 3 37q0 10 -1 17q-2 22 -10 49.5t-24 43.5t-44.5 27.5t-67.5 11.5t-72 -11.5t-56 -28t-42.5 -44t-31 -49t-22 -54.5t-14.5 -49 t-10 -44q-6 -29 -9 -46t-7 -52q-3 -26 -3 -46q0 -7 1 -13q1 -23 8.5 -53t23.5 -47.5t44 -30t67 -12.5t72.5 12.5t56.5 30.5t43 47.5t32 53t23 58.5t15 52zM660 776q4 -5 4 -9q0 -3 -2 -5q-6 -6 -18 -6h-67l-196 106q-6 4 -6 10q0 4 5 8q6 5 15 5h161z" />
<glyph unicode="&#xd3;" horiz-adv-x="794" d="M805 342q-78 -364 -414 -364q-272 0 -272 239q0 56 15 125q80 374 415 374q271 0 271 -246q0 -57 -15 -128zM661 358q6 28 9 44.5t6 49.5q3 21 3 37q0 10 -1 17q-2 22 -10 49.5t-24 43.5t-44.5 27.5t-67.5 11.5t-72 -11.5t-56 -28t-42.5 -44t-31 -49t-22 -54.5t-14.5 -49 t-10 -44q-6 -29 -9 -46t-7 -52q-3 -26 -3 -46q0 -7 1 -13q1 -23 8.5 -53t23.5 -47.5t44 -30t67 -12.5t72.5 12.5t56.5 30.5t43 47.5t32 53t23 58.5t15 52zM779 862l-240 -106h-67q-12 0 -16 6v2q0 5 8 12l150 109h161q9 0 13 -5q2 -2 2 -6q0 -2 -1 -4q-2 -5 -10 -8z" />
<glyph unicode="&#xd4;" horiz-adv-x="794" d="M805 342q-78 -364 -414 -364q-272 0 -272 239q0 56 15 125q80 374 415 374q271 0 271 -246q0 -57 -15 -128zM661 358q6 28 9 44.5t6 49.5q3 21 3 37q0 10 -1 17q-2 22 -10 49.5t-24 43.5t-44.5 27.5t-67.5 11.5t-72 -11.5t-56 -28t-42.5 -44t-31 -49t-22 -54.5t-14.5 -49 t-10 -44q-6 -29 -9 -46t-7 -52q-3 -26 -3 -46q0 -7 1 -13q1 -23 8.5 -53t23.5 -47.5t44 -30t67 -12.5t72.5 12.5t56.5 30.5t43 47.5t32 53t23 58.5t15 52zM732 768q2 -2 2 -6q0 -3 -2 -8q-6 -8 -14 -8h-47l-4 1l-95 81l-129 -81l-6 -1h-47q-5 0 -8 4q-1 2 -1 5q0 7 6 11 l132 104q3 3 8 3h111q5 0 8 -3z" />
<glyph unicode="&#xd5;" horiz-adv-x="794" d="M805 342q-78 -364 -414 -364q-272 0 -272 239q0 56 15 125q80 374 415 374q271 0 271 -246q0 -57 -15 -128zM661 358q6 28 9 44.5t6 49.5q3 21 3 37q0 10 -1 17q-2 22 -10 49.5t-24 43.5t-44.5 27.5t-67.5 11.5t-72 -11.5t-56 -28t-42.5 -44t-31 -49t-22 -54.5t-14.5 -49 t-10 -44q-6 -29 -9 -46t-7 -52q-3 -26 -3 -46q0 -7 1 -13q1 -23 8.5 -53t23.5 -47.5t44 -30t67 -12.5t72.5 12.5t56.5 30.5t43 47.5t32 53t23 58.5t15 52zM763 860q-9 -41 -47.5 -77.5t-87.5 -36.5q-43 0 -90 37q-24 22 -42 22q-33 0 -47 -44q-4 -11 -9.5 -13t-21.5 -2h-18 q-16 0 -21 2q-3 2 -3 7q0 4 1 8q8 41 46 77.5t88 36.5q46 0 90 -37q26 -22 43 -22q33 0 47 44q4 11 9 13t21 2h18q17 0 21 -3q4 -1 4 -8q0 -2 -1 -6z" />
<glyph unicode="&#xd6;" horiz-adv-x="794" d="M805 342q-78 -364 -414 -364q-272 0 -272 239q0 56 15 125q80 374 415 374q271 0 271 -246q0 -57 -15 -128zM661 358q6 28 9 44.5t6 49.5q3 21 3 37q0 10 -1 17q-2 22 -10 49.5t-24 43.5t-44.5 27.5t-67.5 11.5t-72 -11.5t-56 -28t-42.5 -44t-31 -49t-22 -54.5t-14.5 -49 t-10 -44q-6 -29 -9 -46t-7 -52q-3 -26 -3 -46q0 -7 1 -13q1 -23 8.5 -53t23.5 -47.5t44 -30t67 -12.5t72.5 12.5t56.5 30.5t43 47.5t32 53t23 58.5t15 52zM488 789q-5 -23 -15.5 -33t-37.5 -10h-46q-26 0 -32 10q-3 6 -3 15q0 8 2 18l3 17q5 24 16 33.5t36 9.5h46 q26 0 33 -9q3 -6 3 -16q0 -8 -2 -18zM774 789q-5 -23 -15.5 -33t-37.5 -10h-46q-26 0 -32 10q-3 6 -3 15q0 8 2 18l3 17q5 24 16 33.5t36 9.5h46q26 0 33 -9q3 -6 3 -16q0 -8 -2 -18z" />
<glyph unicode="&#xd7;" horiz-adv-x="856" d="M685 -9q-12 -10 -24 -13h-8q-7 0 -13 3q-8 5 -12.5 9.5t-7.5 8.5l-151 192l-233 -192l-4 -3q-5 -4 -8 -6l-8 -4q-6 -4 -10 -5t-10 -2q-3 -1 -5.5 -1t-4.5 1q-5 1 -10.5 4t-9.5 8q-7 10 -7 20q0 22 29 47l233 192l-151 193q-12 17 -12 32q0 19 18 35q7 5 13.5 8t11.5 4 q2 1 5 1t6 -1l8 -2q4 -1 8.5 -4.5t6 -5t5.5 -4.5l3 -4l151 -192l231 191q28 20 47 20q14 0 23 -12q7 -10 7 -20q0 -22 -29 -47l-233 -192l152 -192q14 -16 14 -31q0 -19 -21 -36z" />
<glyph unicode="&#xd8;" horiz-adv-x="856" d="M867 342q-77 -364 -445 -364q-83 0 -151 21l-40 -49q-15 -20 -24.5 -28t-23.5 -8t-26 10q-9 8 -9 20q0 4 1 9q2 10 27 41l14 17l16 21q-85 65 -85 196q0 52 13 114q78 374 446 374q86 0 151 -22l40 50q16 21 25.5 28.5t23.5 7.5t26 -10q9 -8 9 -22q0 -3 -1 -7 q-3 -11 -28 -42q-11 -12 -31 -38q87 -62 87 -196q0 -56 -15 -123zM674 623q-45 21 -110 21q-48 0 -88.5 -11.5t-68.5 -28.5t-51.5 -45t-37 -51.5t-25.5 -58.5t-17 -55t-12 -51q-11 -51 -15 -85q-2 -16 -2 -32q0 -21 3 -42q5 -40 23 -68zM737 343q16 74 16 128q0 68 -25 105 l-401 -506q46 -20 112 -20q48 0 88.5 11t68 27t50.5 43t36.5 49.5t25.5 56.5t17 54t12 52z" />
<glyph unicode="&#xd9;" horiz-adv-x="764" d="M721 229q-13 -62 -42.5 -109t-64.5 -73.5t-79 -42.5t-80.5 -21t-75.5 -5q-29 0 -55.5 3t-55.5 10t-50.5 19.5t-42 31.5t-30 45.5t-13.5 62.5v17q0 29 8 63l88 416q6 27 19 37.5t40 10.5h51q29 0 36 -11q4 -6 4 -16q0 -9 -3 -21l-89 -420q-8 -35 -8 -63q0 -36 14 -59 q24 -40 107 -40q86 0 127 41t58 122l89 419q6 27 18.5 37.5t40.5 10.5h40q29 0 36 -11q4 -6 4 -16q0 -9 -3 -21zM645 776q4 -5 4 -9q0 -3 -3 -5q-5 -6 -17 -6h-67l-196 106q-6 4 -6 10q0 4 6 8q5 5 14 5h161z" />
<glyph unicode="&#xda;" horiz-adv-x="764" d="M721 229q-13 -62 -42.5 -109t-64.5 -73.5t-79 -42.5t-80.5 -21t-75.5 -5q-29 0 -55.5 3t-55.5 10t-50.5 19.5t-42 31.5t-30 45.5t-13.5 62.5v17q0 29 8 63l88 416q6 27 19 37.5t40 10.5h51q29 0 36 -11q4 -6 4 -16q0 -9 -3 -21l-89 -420q-8 -35 -8 -63q0 -36 14 -59 q24 -40 107 -40q86 0 127 41t58 122l89 419q6 27 18.5 37.5t40.5 10.5h40q29 0 36 -11q4 -6 4 -16q0 -9 -3 -21zM764 862l-240 -106h-67q-12 0 -15 6q-1 1 -1 2q0 5 8 12l150 109h161q9 0 12 -5q3 -2 3 -6q0 -2 -1 -4q-2 -5 -10 -8z" />
<glyph unicode="&#xdb;" horiz-adv-x="764" d="M721 229q-13 -62 -42.5 -109t-64.5 -73.5t-79 -42.5t-80.5 -21t-75.5 -5q-29 0 -55.5 3t-55.5 10t-50.5 19.5t-42 31.5t-30 45.5t-13.5 62.5v17q0 29 8 63l88 416q6 27 19 37.5t40 10.5h51q29 0 36 -11q4 -6 4 -16q0 -9 -3 -21l-89 -420q-8 -35 -8 -63q0 -36 14 -59 q24 -40 107 -40q86 0 127 41t58 122l89 419q6 27 18.5 37.5t40.5 10.5h40q29 0 36 -11q4 -6 4 -16q0 -9 -3 -21zM717 768q2 -2 2 -6q0 -3 -3 -8q-5 -8 -13 -8h-47l-4 1l-95 81l-129 -81l-6 -1h-47q-5 0 -7 4q-2 2 -2 5q0 7 6 11l132 104q3 3 8 3h111q5 0 8 -3z" />
<glyph unicode="&#xdc;" horiz-adv-x="764" d="M721 229q-13 -62 -42.5 -109t-64.5 -73.5t-79 -42.5t-80.5 -21t-75.5 -5q-29 0 -55.5 3t-55.5 10t-50.5 19.5t-42 31.5t-30 45.5t-13.5 62.5v17q0 29 8 63l88 416q6 27 19 37.5t40 10.5h51q29 0 36 -11q4 -6 4 -16q0 -9 -3 -21l-89 -420q-8 -35 -8 -63q0 -36 14 -59 q24 -40 107 -40q86 0 127 41t58 122l89 419q6 27 18.5 37.5t40.5 10.5h40q29 0 36 -11q4 -6 4 -16q0 -9 -3 -21zM473 789q-5 -23 -15.5 -33t-37.5 -10h-46q-26 0 -32 10q-3 6 -3 15q0 8 2 18l3 17q5 24 16 33.5t36 9.5h46q26 0 32 -9q4 -6 4 -16q0 -8 -2 -18zM759 789 q-5 -23 -15.5 -33t-37.5 -10h-46q-26 0 -32 10q-3 6 -3 15q0 8 2 18l3 17q5 24 16 33.5t36 9.5h46q26 0 32 -9q4 -6 4 -16q0 -8 -2 -18z" />
<glyph unicode="&#xdd;" horiz-adv-x="733" d="M851 671q-3 -10 -14 -21l-340 -373l-49 -230q-6 -27 -18.5 -37t-39.5 -10h-48q-27 0 -35 10q-5 7 -5 20q0 8 2 18l49 230l-182 373q-5 9 -5 16q0 2 1 4q5 23 41 23h66q28 0 44 -8.5t28 -32.5l78 -162q27 -55 37 -88q24 35 95 113l127 140q36 38 88 38h49q10 0 16 -0.5 t12 -5.5q4 -5 4 -12q0 -2 -1 -5zM749 862l-240 -106h-67q-12 0 -16 6v2q0 5 8 12l150 109h161q9 0 13 -5q2 -2 2 -6q0 -2 -1 -4q-2 -5 -10 -8z" />
<glyph unicode="&#xde;" horiz-adv-x="642" d="M662 386q-12 -57 -39.5 -98t-56 -61.5t-68.5 -31.5t-63.5 -13t-54.5 -2h-115l-27 -130q-7 -30 -19.5 -40t-41.5 -10h-36q-30 0 -37 10q-5 6 -5 18q0 9 3 22l126 594q6 29 19 39.5t42 10.5h36q30 0 37 -10q5 -6 5 -18q0 -9 -3 -22l-11 -53h136q45 0 79 -9.5t62 -33 t35 -62.5q3 -17 3 -37q0 -28 -6 -63zM528 385q4 19 4 35q0 85 -114 85h-84l-50 -239h82q25 0 42 2.5t44.5 12t47 36t28.5 68.5z" />
<glyph unicode="&#xdf;" horiz-adv-x="565" d="M573 186q-42 -197 -249 -197q-21 0 -42.5 3.5t-37.5 11t-14 16.5q0 2 4 8l8 12q4 8 6 13q17 23 23 24q1 0 10 -3q24 -13 53 -13q22 0 39.5 9t27 19t18 31.5t11.5 32t8 33.5q12 61 12 103q0 40 -22 66q-23 27 -74 31q-12 1 -13.5 6t2.5 21l4 18q2 10 3.5 14.5t5 8.5t9.5 4 q32 1 51 6t40.5 28.5t30.5 67.5q4 16 4 28q0 18 -9 28q-14 17 -66 17q-54 0 -75 -18t-29 -58l-108 -509q-5 -27 -17.5 -37.5t-40.5 -10.5h-37q-27 0 -35 10q-5 7 -5 20q0 8 2 18l109 510q31 147 252 147q193 0 193 -111v-9q0 -11 -3 -23q-21 -97 -105 -142q65 -47 65 -149 q0 -39 -9 -85z" />
<glyph unicode="&#xe0;" horiz-adv-x="525" d="M484 48q-5 -27 -17.5 -37.5t-40.5 -10.5h-37q-29 0 -37 11q-4 6 -4 17q0 8 3 20l4 20q-70 -79 -172 -79q-63 0 -95 44q-22 32 -22 70q0 15 3 30q9 41 44 71.5t74 44.5t90 22.5t75 9.5t46 1l7 35q5 22 5 39t-5 29q-11 24 -50 24q-92 0 -169 -67q-8 -6 -13 -6q-12 0 -10 11 q0 17 8 73q2 8 7.5 12t23.5 11q83 32 171 32q173 0 173 -116q0 -10 -1 -21l-4 -22zM371 154l18 87l-29 -2q-14 -1 -42.5 -7.5t-50.5 -17t-41.5 -31t-25.5 -48.5q-2 -9 -2 -17q0 -19 10 -35q15 -22 45 -22q5 0 12 0.5t25 5.5t32.5 14t28.5 28t20 45zM428 537h-37l-131 129 q-8 7 -8 13v2q3 13 30 13h82q14 0 18 -1.5t9 -10.5l61 -117q6 -10 6 -14q0 -14 -30 -14z" />
<glyph unicode="&#xe1;" horiz-adv-x="525" d="M484 48q-5 -27 -17.5 -37.5t-40.5 -10.5h-37q-29 0 -37 11q-4 6 -4 17q0 8 3 20l4 20q-70 -79 -172 -79q-63 0 -95 44q-22 32 -22 70q0 15 3 30q9 41 44 71.5t74 44.5t90 22.5t75 9.5t46 1l7 35q5 22 5 39t-5 29q-11 24 -50 24q-92 0 -169 -67q-8 -6 -13 -6q-12 0 -10 11 q0 17 8 73q2 8 7.5 12t23.5 11q83 32 171 32q173 0 173 -116q0 -10 -1 -21l-4 -22zM371 154l18 87l-29 -2q-14 -1 -42.5 -7.5t-50.5 -17t-41.5 -31t-25.5 -48.5q-2 -9 -2 -17q0 -19 10 -35q15 -22 45 -22q5 0 12 0.5t25 5.5t32.5 14t28.5 28t20 45zM564 681q-2 -5 -14 -15 l-187 -129h-37h-12q-3 0 -7 1.5t-5 3.5t-0.5 4t0.5 4q1 4 12 15l111 117q8 8 13 10t20 2h82h12q3 0 7 -1.5t5 -4.5v-2.5v-4.5z" />
<glyph unicode="&#xe2;" horiz-adv-x="525" d="M484 48q-5 -27 -17.5 -37.5t-40.5 -10.5h-37q-29 0 -37 11q-4 6 -4 17q0 8 3 20l4 20q-70 -79 -172 -79q-63 0 -95 44q-22 32 -22 70q0 15 3 30q9 41 44 71.5t74 44.5t90 22.5t75 9.5t46 1l7 35q5 22 5 39t-5 29q-11 24 -50 24q-92 0 -169 -67q-8 -6 -13 -6q-12 0 -10 11 q0 17 8 73q2 8 7.5 12t23.5 11q83 32 171 32q173 0 173 -116q0 -10 -1 -21l-4 -22zM371 154l18 87l-29 -2q-14 -1 -42.5 -7.5t-50.5 -17t-41.5 -31t-25.5 -48.5q-2 -9 -2 -17q0 -19 10 -35q15 -22 45 -22q5 0 12 0.5t25 5.5t32.5 14t28.5 28t20 45zM543 556q1 -2 1 -4 q0 -4 -4 -10q-5 -7 -12 -7h-47q-4 1 -6 2l-76 101l-120 -101l-6 -2h-47q-7 0 -9 7q-1 1 -1 3q0 5 4 9l127 139q4 4 10 4h111q7 0 8 -4z" />
<glyph unicode="&#xe3;" horiz-adv-x="525" d="M484 48q-5 -27 -17.5 -37.5t-40.5 -10.5h-37q-29 0 -37 11q-4 6 -4 17q0 8 3 20l4 20q-70 -79 -172 -79q-63 0 -95 44q-22 32 -22 70q0 15 3 30q9 41 44 71.5t74 44.5t90 22.5t75 9.5t46 1l7 35q5 22 5 39t-5 29q-11 24 -50 24q-92 0 -169 -67q-8 -6 -13 -6q-12 0 -10 11 q0 17 8 73q2 8 7.5 12t23.5 11q83 32 171 32q173 0 173 -116q0 -10 -1 -21l-4 -22zM371 154l18 87l-29 -2q-14 -1 -42.5 -7.5t-50.5 -17t-41.5 -31t-25.5 -48.5q-2 -9 -2 -17q0 -19 10 -35q15 -22 45 -22q5 0 12 0.5t25 5.5t32.5 14t28.5 28t20 45zM587 664 q-8 -41 -46 -77.5t-88 -36.5q-43 0 -90 37q-26 22 -43 22q-33 0 -47 -44q-4 -11 -9 -13t-21 -2h-18q-16 0 -21 2q-3 2 -3 7q0 3 1 8q8 41 46 77.5t88 36.5q43 0 90 -37q26 -22 42 -22q33 0 48 44q4 11 9 13t21 2h18q17 0 22 -3q2 -1 2 -6q0 -3 -1 -8z" />
<glyph unicode="&#xe4;" horiz-adv-x="525" d="M484 48q-5 -27 -17.5 -37.5t-40.5 -10.5h-37q-29 0 -37 11q-4 6 -4 17q0 8 3 20l4 20q-70 -79 -172 -79q-63 0 -95 44q-22 32 -22 70q0 15 3 30q9 41 44 71.5t74 44.5t90 22.5t75 9.5t46 1l7 35q5 22 5 39t-5 29q-11 24 -50 24q-92 0 -169 -67q-8 -6 -13 -6q-12 0 -10 11 q0 17 8 73q2 8 7.5 12t23.5 11q83 32 171 32q173 0 173 -116q0 -10 -1 -21l-4 -22zM371 154l18 87l-29 -2q-14 -1 -42.5 -7.5t-50.5 -17t-41.5 -31t-25.5 -48.5q-2 -9 -2 -17q0 -19 10 -35q15 -22 45 -22q5 0 12 0.5t25 5.5t32.5 14t28.5 28t20 45zM337 607 q-5 -23 -15.5 -33t-36.5 -10h-46q-26 0 -33 10q-3 6 -3 16q0 7 2 17l4 17q5 24 16 33.5t36 9.5h46q26 0 33 -9q3 -6 3 -16q0 -8 -2 -18zM579 607q-5 -23 -15.5 -33t-36.5 -10h-46q-26 0 -33 10q-3 6 -3 16q0 7 2 17l4 17q5 24 16 33.5t36 9.5h46q26 0 33 -9q3 -6 3 -16 q0 -8 -2 -18z" />
<glyph unicode="&#xe5;" horiz-adv-x="525" d="M484 48q-5 -27 -17.5 -37.5t-40.5 -10.5h-37q-29 0 -37 11q-4 6 -4 17q0 8 3 20l4 20q-70 -79 -172 -79q-63 0 -95 44q-22 32 -22 70q0 15 3 30q9 41 44 71.5t74 44.5t90 22.5t75 9.5t46 1l7 35q5 22 5 39t-5 29q-11 24 -50 24q-92 0 -169 -67q-8 -6 -13 -6q-12 0 -10 11 q0 17 8 73q2 8 7.5 12t23.5 11q83 32 171 32q173 0 173 -116q0 -10 -1 -21l-4 -22zM371 154l18 87l-29 -2q-14 -1 -42.5 -7.5t-50.5 -17t-41.5 -31t-25.5 -48.5q-2 -9 -2 -17q0 -19 10 -35q15 -22 45 -22q5 0 12 0.5t25 5.5t32.5 14t28.5 28t20 45zM446 605q4 21 -8 27.5 t-40 6.5q-30 0 -44 -6t-18 -28q-5 -21 7 -27.5t40 -6.5q30 0 44 6t19 28zM513 604q-16 -78 -139 -78q-14 0 -24 0.5t-29.5 4.5t-31 12t-19.5 24q-4 10 -4 22q0 8 2 17q16 78 139 78q14 0 24 -0.5t29.5 -4.5t31 -12t18.5 -24q5 -10 5 -22q0 -8 -2 -17z" />
<glyph unicode="&#xe6;" horiz-adv-x="794" d="M817 261q-6 -28 -19 -37.5t-39 -9.5h-249q-5 -30 -5 -55q0 -34 10 -57q18 -41 81 -41q82 0 151 58q13 10 18 10q7 0 8 -4.5t0 -27.5q-5 -41 -6 -44q-2 -8 -6.5 -11.5t-27.5 -15.5q-76 -37 -156 -37q-112 0 -168 55q-81 -55 -233 -55q-40 0 -68 14.5t-38 35.5t-14 44 q-2 10 -2 19q0 11 3 21q7 34 36.5 59t62 37.5t82.5 20.5t77.5 10t67.5 3l13 64q6 21 6 39q0 15 -5 28q-11 25 -51 25q-93 0 -170 -67q-8 -6 -13 -6q-12 0 -10 11q0 17 8 73q2 8 7.5 12t22.5 10q84 33 172 33q103 0 145 -41q66 41 158 41q100 0 136 -57q23 -35 23 -87 q0 -32 -8 -70zM705 267q4 22 6 36q2 11 2 27q0 4 -1 8q0 22 -5.5 34t-19 21.5t-35.5 9.5q-93 0 -129 -136h182zM372 122q0 7 -1 12q-1 11 -1 23q0 19 2 42q-170 -9 -185 -75q-1 -5 -1 -10q0 -17 11 -33q14 -20 48 -20q50 0 86.5 21t40.5 40z" />
<glyph unicode="&#xe7;" horiz-adv-x="489" d="M468 50q-1 -7 -6 -11t-29 -15q-76 -35 -161 -35q-195 0 -195 163q0 35 9 78q52 245 294 245q49 0 77.5 -7t63.5 -25q9 -5 12.5 -7.5t6.5 -5.5q1 -3 1 -6t-13 -36q-11 -29 -14 -35q-6 -13 -16 -13q-6 0 -15 11q-25 25 -49 35.5t-70 10.5q-36 0 -62 -13t-41 -40.5 t-22.5 -50t-16.5 -61.5q-5 -24 -7 -35.5t-4 -34.5q-1 -9 -1 -16q0 -13 2 -21q4 -13 12 -28.5t25 -22.5t42 -7q83 0 158 56q12 10 18 10q10 0 10 -13q-3 -36 -9 -70zM319 -59q0 -3 -8 -16l-77 -121q-8 -13 -12.5 -15.5t-21.5 -2.5h-50q-10 0 -14.5 0.5t-7.5 3.5q-2 2 -2 6 q0 9 113 137q13 15 18 18t21 3h18h11q3 0 7 -1.5t5 -4.5q1 -1 1 -2.5t-1 -4.5z" />
<glyph unicode="&#xe8;" horiz-adv-x="511" d="M534 260q-4 -21 -14.5 -32t-19.5 -12.5t-24 -1.5h-272q-4 -24 -5 -41v-9q0 -14 2 -31q3 -23 13 -37t32 -24.5t54 -10.5q83 0 163 58q13 10 19 10q7 0 8 -4.5t0 -27.5q-5 -41 -6 -44q-1 -8 -7 -12.5t-27 -13.5q-84 -38 -169 -38q-120 0 -173 61q-36 42 -36 110q0 33 9 73 q24 116 98 179t192 63q108 0 147 -57q24 -36 24 -90q0 -31 -8 -68zM425 267q6 40 6 70t-18.5 48t-56.5 18q-103 0 -139 -136h208zM421 537h-37l-131 129q-8 7 -8 13v2q3 13 30 13h82q14 0 18 -1.5t9 -10.5l61 -117q6 -10 6 -14q0 -14 -30 -14z" />
<glyph unicode="&#xe9;" horiz-adv-x="511" d="M534 260q-4 -21 -14.5 -32t-19.5 -12.5t-24 -1.5h-272q-4 -24 -5 -41v-9q0 -14 2 -31q3 -23 13 -37t32 -24.5t54 -10.5q83 0 163 58q13 10 19 10q7 0 8 -4.5t0 -27.5q-5 -41 -6 -44q-1 -8 -7 -12.5t-27 -13.5q-84 -38 -169 -38q-120 0 -173 61q-36 42 -36 110q0 33 9 73 q24 116 98 179t192 63q108 0 147 -57q24 -36 24 -90q0 -31 -8 -68zM425 267q6 40 6 70t-18.5 48t-56.5 18q-103 0 -139 -136h208zM557 681q-2 -5 -14 -15l-187 -129h-37h-11q-4 0 -8 1.5t-5 3.5t-1 4t1 4q1 4 12 15l111 117q8 8 13 10t20 2h82h11q4 0 8 -1.5t5 -4.5 q0 -1 0.5 -2.5t-0.5 -4.5z" />
<glyph unicode="&#xea;" horiz-adv-x="511" d="M534 260q-4 -21 -14.5 -32t-19.5 -12.5t-24 -1.5h-272q-4 -24 -5 -41v-9q0 -14 2 -31q3 -23 13 -37t32 -24.5t54 -10.5q83 0 163 58q13 10 19 10q7 0 8 -4.5t0 -27.5q-5 -41 -6 -44q-1 -8 -7 -12.5t-27 -13.5q-84 -38 -169 -38q-120 0 -173 61q-36 42 -36 110q0 33 9 73 q24 116 98 179t192 63q108 0 147 -57q24 -36 24 -90q0 -31 -8 -68zM425 267q6 40 6 70t-18.5 48t-56.5 18q-103 0 -139 -136h208zM536 556q1 -2 1 -4q0 -4 -4 -10q-5 -7 -12 -7h-47q-4 1 -6 2l-76 101l-120 -101l-6 -2h-47q-7 0 -9 7q-1 1 -1 3q0 5 4 9l127 139q4 4 10 4 h111q7 0 8 -4z" />
<glyph unicode="&#xeb;" horiz-adv-x="511" d="M534 260q-4 -21 -14.5 -32t-19.5 -12.5t-24 -1.5h-272q-4 -24 -5 -41v-9q0 -14 2 -31q3 -23 13 -37t32 -24.5t54 -10.5q83 0 163 58q13 10 19 10q7 0 8 -4.5t0 -27.5q-5 -41 -6 -44q-1 -8 -7 -12.5t-27 -13.5q-84 -38 -169 -38q-120 0 -173 61q-36 42 -36 110q0 33 9 73 q24 116 98 179t192 63q108 0 147 -57q24 -36 24 -90q0 -31 -8 -68zM425 267q6 40 6 70t-18.5 48t-56.5 18q-103 0 -139 -136h208zM330 607q-5 -23 -15.5 -33t-36.5 -10h-46q-26 0 -32 10q-4 6 -4 16q0 7 2 17l4 17q5 24 16 33.5t36 9.5h46q26 0 32 -9q4 -6 4 -16 q0 -8 -2 -18zM572 607q-5 -23 -15.5 -33t-36.5 -10h-46q-26 0 -32 10q-4 6 -4 16q0 7 2 17l4 17q5 24 16 33.5t36 9.5h46q26 0 32 -9q4 -6 4 -16q0 -8 -2 -18z" />
<glyph unicode="&#xec;" horiz-adv-x="256" d="M204 48q-5 -27 -17.5 -37.5t-40.5 -10.5h-37q-27 0 -35 10q-5 7 -5 20q0 8 2 18l77 362q6 28 18.5 38t39.5 10h37q29 0 37 -11q4 -6 4 -17q0 -8 -3 -20zM281 537h-37l-131 129q-8 7 -8 13v2q3 13 30 13h82q14 0 18 -1.5t9 -10.5l61 -117q6 -10 6 -14q0 -14 -30 -14z" />
<glyph unicode="&#xed;" horiz-adv-x="256" d="M204 48q-5 -27 -17.5 -37.5t-40.5 -10.5h-37q-27 0 -35 10q-5 7 -5 20q0 8 2 18l77 362q6 28 18.5 38t39.5 10h37q29 0 37 -11q4 -6 4 -17q0 -8 -3 -20zM440 681q-2 -5 -14 -15l-187 -129h-37h-12q-3 0 -7 1.5t-5 3.5v4v4q1 4 12 15l111 117q8 8 13 10t20 2h82h12 q3 0 7 -1.5t5 -4.5q1 -1 0.5 -2.5t-0.5 -4.5z" />
<glyph unicode="&#xee;" horiz-adv-x="256" d="M204 48q-5 -27 -17.5 -37.5t-40.5 -10.5h-37q-27 0 -35 10q-5 7 -5 20q0 8 2 18l77 362q6 28 18.5 38t39.5 10h37q29 0 37 -11q4 -6 4 -17q0 -8 -3 -20zM408 556q1 -2 1 -4q0 -4 -4 -10q-5 -7 -12 -7h-47q-4 1 -6 2l-76 101l-120 -101l-6 -2h-47q-7 0 -9 7q-1 1 -1 3 q0 5 4 9l127 139q4 4 10 4h111q7 0 8 -4z" />
<glyph unicode="&#xef;" horiz-adv-x="256" d="M204 48q-5 -27 -17.5 -37.5t-40.5 -10.5h-37q-27 0 -35 10q-5 7 -5 20q0 8 2 18l77 362q6 28 18.5 38t39.5 10h37q29 0 37 -11q4 -6 4 -17q0 -8 -3 -20zM202 607q-5 -23 -15.5 -33t-36.5 -10h-46q-26 0 -32 10q-4 6 -4 16q0 7 2 17l4 17q5 24 16 33.5t36 9.5h46 q26 0 32 -9q4 -6 4 -16q0 -8 -2 -18zM444 607q-5 -23 -15.5 -33t-36.5 -10h-46q-26 0 -32 10q-4 6 -4 16q0 7 2 17l4 17q5 24 16 33.5t36 9.5h46q26 0 32 -9q4 -6 4 -16q0 -8 -2 -18z" />
<glyph unicode="&#xf0;" d="M572 254q-6 -27 -10 -43t-15 -47.5t-24 -51.5t-36.5 -46t-51.5 -41t-70.5 -25.5t-92.5 -10.5q-202 0 -202 162q0 34 9 74q53 250 297 250q26 0 51 -3q-24 64 -73 108l-106 -43q-8 -4 -17 -4q-15 0 -23 11.5t-5 26.5q5 21 29 32l56 23q-24 13 -54 21q-9 3 -7 12q1 5 25 22 l28 21q28 20 33 20q11 0 35 -9q41 -15 70 -34l99 40q8 4 17 4q15 0 23 -11.5t5 -26.5q-5 -21 -29 -32l-54 -22q67 -68 91 -167q13 -51 13 -105q0 -51 -11 -105zM431 232q5 23 7.5 38t4.5 38q1 7 1 14q0 13 -3 23q-4 15 -12 29.5t-25.5 21.5t-43.5 7q-31 0 -54.5 -11t-37 -25 t-25 -41t-15.5 -43l-11 -46q-5 -22 -7 -33.5t-4 -32.5q-2 -13 -2 -23v-10q2 -12 6.5 -27.5t14 -23.5t26 -14t38.5 -6q37 0 63.5 14.5t42 43t22 50t14.5 57.5z" />
<glyph unicode="&#xf1;" horiz-adv-x="561" d="M510 48q-5 -27 -17.5 -37.5t-40.5 -10.5h-40q-29 0 -36 11q-5 6 -5 17q0 8 3 20l59 275q5 19 5 33t-5 23q-9 18 -43 18q-43 0 -83.5 -33.5t-53.5 -94.5l-47 -221q-5 -27 -17.5 -37.5t-40.5 -10.5h-40q-27 0 -35 10q-5 7 -5 20q0 8 2 18l78 368q6 27 19 37.5t40 10.5h34 q29 0 36 -11q4 -6 4 -16q0 -9 -3 -21l-10 -50h1q15 21 33.5 40t61 41t90.5 22q77 0 104 -33q17 -22 17 -60q0 -22 -6 -51zM605 664q-8 -41 -46 -77.5t-88 -36.5q-43 0 -90 37q-26 22 -43 22q-33 0 -47 -44q-4 -11 -9 -13t-21 -2h-18q-16 0 -21 2q-3 2 -3 7q0 3 1 8 q8 41 46 77.5t88 36.5q43 0 90 -37q26 -22 42 -22q33 0 48 44q4 11 9 13t21 2h18q17 0 22 -3q2 -1 2 -6q0 -3 -1 -8z" />
<glyph unicode="&#xf2;" d="M566 225q-50 -236 -294 -236q-202 0 -202 161q0 34 9 75q53 250 297 250q199 0 199 -168q0 -37 -9 -82zM432 237q7 31 10 48t3 43t-8 40t-27 24.5t-50 10.5t-54.5 -11t-37 -24.5t-25 -40t-15.5 -42.5t-11 -48q-6 -27 -8.5 -41t-4.5 -38q-1 -8 -1 -15q0 -13 3 -22 q4 -13 12.5 -27t26.5 -20.5t44 -6.5q38 0 64.5 14t42 43t22 51.5t14.5 61.5zM440 537h-37l-131 129q-8 7 -8 13v2q3 13 30 13h82q14 0 18 -1.5t9 -10.5l61 -117q6 -10 6 -14q0 -14 -30 -14z" />
<glyph unicode="&#xf3;" d="M566 225q-50 -236 -294 -236q-202 0 -202 161q0 34 9 75q53 250 297 250q199 0 199 -168q0 -37 -9 -82zM432 237q7 31 10 48t3 43t-8 40t-27 24.5t-50 10.5t-54.5 -11t-37 -24.5t-25 -40t-15.5 -42.5t-11 -48q-6 -27 -8.5 -41t-4.5 -38q-1 -8 -1 -15q0 -13 3 -22 q4 -13 12.5 -27t26.5 -20.5t44 -6.5q38 0 64.5 14t42 43t22 51.5t14.5 61.5zM576 681q-2 -5 -14 -15l-187 -129h-37h-12q-3 0 -7 1.5t-5 3.5t-0.5 4t0.5 4q1 4 12 15l111 117q8 8 13 10t20 2h82h12q3 0 7 -1.5t5 -4.5v-2.5v-4.5z" />
<glyph unicode="&#xf4;" d="M566 225q-50 -236 -294 -236q-202 0 -202 161q0 34 9 75q53 250 297 250q199 0 199 -168q0 -37 -9 -82zM432 237q7 31 10 48t3 43t-8 40t-27 24.5t-50 10.5t-54.5 -11t-37 -24.5t-25 -40t-15.5 -42.5t-11 -48q-6 -27 -8.5 -41t-4.5 -38q-1 -8 -1 -15q0 -13 3 -22 q4 -13 12.5 -27t26.5 -20.5t44 -6.5q38 0 64.5 14t42 43t22 51.5t14.5 61.5zM555 556q1 -2 1 -4q0 -4 -4 -10q-5 -7 -12 -7h-47q-4 1 -6 2l-76 101l-120 -101l-6 -2h-47q-7 0 -9 7q-1 1 -1 3q0 5 4 9l127 139q4 4 10 4h111q7 0 8 -4z" />
<glyph unicode="&#xf5;" d="M566 225q-50 -236 -294 -236q-202 0 -202 161q0 34 9 75q53 250 297 250q199 0 199 -168q0 -37 -9 -82zM432 237q7 31 10 48t3 43t-8 40t-27 24.5t-50 10.5t-54.5 -11t-37 -24.5t-25 -40t-15.5 -42.5t-11 -48q-6 -27 -8.5 -41t-4.5 -38q-1 -8 -1 -15q0 -13 3 -22 q4 -13 12.5 -27t26.5 -20.5t44 -6.5q38 0 64.5 14t42 43t22 51.5t14.5 61.5zM599 664q-8 -41 -46 -77.5t-88 -36.5q-43 0 -90 37q-26 22 -43 22q-33 0 -47 -44q-4 -11 -9 -13t-21 -2h-18q-16 0 -21 2q-3 2 -3 7q0 3 1 8q8 41 46 77.5t88 36.5q43 0 90 -37q26 -22 42 -22 q33 0 48 44q4 11 9 13t21 2h18q17 0 22 -3q2 -1 2 -6q0 -3 -1 -8z" />
<glyph unicode="&#xf6;" d="M566 225q-50 -236 -294 -236q-202 0 -202 161q0 34 9 75q53 250 297 250q199 0 199 -168q0 -37 -9 -82zM432 237q7 31 10 48t3 43t-8 40t-27 24.5t-50 10.5t-54.5 -11t-37 -24.5t-25 -40t-15.5 -42.5t-11 -48q-6 -27 -8.5 -41t-4.5 -38q-1 -8 -1 -15q0 -13 3 -22 q4 -13 12.5 -27t26.5 -20.5t44 -6.5q38 0 64.5 14t42 43t22 51.5t14.5 61.5zM349 607q-5 -23 -15.5 -33t-36.5 -10h-46q-26 0 -33 10q-3 6 -3 16q0 7 2 17l4 17q5 24 16 33.5t36 9.5h46q26 0 33 -9q3 -6 3 -16q0 -8 -2 -18zM591 607q-5 -23 -15.5 -33t-36.5 -10h-46 q-26 0 -33 10q-3 6 -3 16q0 7 2 17l4 17q5 24 16 33.5t36 9.5h46q26 0 33 -9q3 -6 3 -16q0 -8 -2 -18z" />
<glyph unicode="&#xf7;" horiz-adv-x="856" d="M847 250q-9 -42 -63 -42h-625q-11 0 -19.5 1t-19.5 11q-7 8 -7 20q0 5 1 10q9 42 62 42h627q10 0 18.5 -1t18.5 -11q8 -8 8 -20q0 -5 -1 -10zM584 428q-5 -20 -9.5 -23.5t-23.5 -3.5h-77q-20 0 -22.5 3.5t1.5 23.5l16 77q5 20 9.5 23.5t23.5 3.5h77q20 0 23 -4v-5 q0 -6 -2 -18zM492 -6q-5 -20 -9.5 -23.5t-23.5 -3.5h-77q-20 0 -22 3q-1 2 -1 6q0 6 2 18l16 77q5 20 9.5 23.5t23.5 3.5h77q20 0 23 -4v-5q0 -6 -2 -18z" />
<glyph unicode="&#xf8;" d="M566 225q-50 -236 -294 -236q-49 0 -86 9l-77 -98q-22 -27 -32 -31q-6 -2 -14 -2q-15 0 -23 11q-7 7 -7 17q0 4 1 8q3 10 22 34l69 90q-55 40 -55 123q0 34 9 75q53 250 296 250q52 0 89 -11l80 104q17 24 40 24q15 0 24 -10q5 -8 5 -17q0 -4 -1 -9q-2 -11 -15 -27 l-74 -95q53 -43 53 -128q0 -37 -10 -81zM410 395q-24 8 -49 8q-36 0 -63 -12.5t-42.5 -27.5t-28 -43.5t-17 -45.5t-11.5 -48q-11 -50 -11 -82q0 -18 4 -30zM446 226q12 53 12 87q0 19 -4 32l-215 -278q22 -6 48 -6q36 0 63 11t42 24.5t27 40t16 42.5t11 47z" />
<glyph unicode="&#xf9;" horiz-adv-x="561" d="M510 48q-5 -27 -17.5 -37.5t-40.5 -10.5h-37q-29 0 -37 11q-4 6 -4 17q0 8 3 20l6 26q-65 -85 -163 -85q-83 0 -116 30q-22 20 -22 62q0 20 5 45l60 284q6 28 18.5 38t39.5 10h40q29 0 37 -11q4 -6 4 -17q0 -8 -3 -20l-62 -293q-5 -22 -5 -36q0 -11 4 -17q8 -14 49 -14 q51 0 86 35t46 88l50 237q6 27 18 37.5t40 10.5h40q29 0 37 -11q4 -6 4 -17q0 -8 -3 -20zM446 537h-37l-131 129q-8 7 -8 13v2q3 13 30 13h82q14 0 18 -1.5t9 -10.5l61 -117q6 -10 6 -14q0 -14 -30 -14z" />
<glyph unicode="&#xfa;" horiz-adv-x="561" d="M510 48q-5 -27 -17.5 -37.5t-40.5 -10.5h-37q-29 0 -37 11q-4 6 -4 17q0 8 3 20l6 26q-65 -85 -163 -85q-83 0 -116 30q-22 20 -22 62q0 20 5 45l60 284q6 28 18.5 38t39.5 10h40q29 0 37 -11q4 -6 4 -17q0 -8 -3 -20l-62 -293q-5 -22 -5 -36q0 -11 4 -17q8 -14 49 -14 q51 0 86 35t46 88l50 237q6 27 18 37.5t40 10.5h40q29 0 37 -11q4 -6 4 -17q0 -8 -3 -20zM582 681q-2 -5 -14 -15l-187 -129h-37h-12q-3 0 -7 1.5t-5 3.5t-0.5 4t0.5 4q1 4 12 15l111 117q8 8 13 10t20 2h82h12q3 0 7 -1.5t5 -4.5v-2.5v-4.5z" />
<glyph unicode="&#xfb;" horiz-adv-x="561" d="M510 48q-5 -27 -17.5 -37.5t-40.5 -10.5h-37q-29 0 -37 11q-4 6 -4 17q0 8 3 20l6 26q-65 -85 -163 -85q-83 0 -116 30q-22 20 -22 62q0 20 5 45l60 284q6 28 18.5 38t39.5 10h40q29 0 37 -11q4 -6 4 -17q0 -8 -3 -20l-62 -293q-5 -22 -5 -36q0 -11 4 -17q8 -14 49 -14 q51 0 86 35t46 88l50 237q6 27 18 37.5t40 10.5h40q29 0 37 -11q4 -6 4 -17q0 -8 -3 -20zM561 556q1 -2 1 -4q0 -4 -4 -10q-5 -7 -12 -7h-47q-4 1 -6 2l-76 101l-120 -101l-6 -2h-47q-7 0 -9 7q-1 1 -1 3q0 5 4 9l127 139q4 4 10 4h111q7 0 8 -4z" />
<glyph unicode="&#xfc;" horiz-adv-x="561" d="M510 48q-5 -27 -17.5 -37.5t-40.5 -10.5h-37q-29 0 -37 11q-4 6 -4 17q0 8 3 20l6 26q-65 -85 -163 -85q-83 0 -116 30q-22 20 -22 62q0 20 5 45l60 284q6 28 18.5 38t39.5 10h40q29 0 37 -11q4 -6 4 -17q0 -8 -3 -20l-62 -293q-5 -22 -5 -36q0 -11 4 -17q8 -14 49 -14 q51 0 86 35t46 88l50 237q6 27 18 37.5t40 10.5h40q29 0 37 -11q4 -6 4 -17q0 -8 -3 -20zM355 607q-5 -23 -15.5 -33t-36.5 -10h-46q-26 0 -33 10q-3 6 -3 16q0 7 2 17l4 17q5 24 16 33.5t36 9.5h46q26 0 33 -9q3 -6 3 -16q0 -8 -2 -18zM597 607q-5 -23 -15.5 -33t-36.5 -10 h-46q-26 0 -33 10q-3 6 -3 16q0 7 2 17l4 17q5 24 16 33.5t36 9.5h46q26 0 33 -9q3 -6 3 -16q0 -8 -2 -18z" />
<glyph unicode="&#xfd;" horiz-adv-x="500" d="M565 431q-1 -6 -10 -20l-263 -474q-8 -15 -22.5 -33.5t-41 -45.5t-66 -45t-82.5 -18q-76 0 -76 17q0 7 3 36q4 35 6 42q3 15 16 15q4 0 9 -4q27 -21 62 -21q25 0 46 14t31 27.5t23 36.5q7 14 23 42l-101 416q-2 11 -1 16q5 26 44 26h26q36 0 46.5 -13.5t22.5 -64.5 q39 -168 39 -225q0 -7 -1 -13h1q8 30 45 102l70 130q32 57 36 61q20 23 58 23h22q7 0 12 -0.5t12 -2.5t10 -9q2 -3 2 -8q0 -3 -1 -7zM551 681q-2 -5 -14 -15l-187 -129h-37h-11q-4 0 -8 1.5t-5 3.5t-1 4t1 4q1 4 12 15l111 117q8 8 13 10t20 2h82h11q4 0 8 -1.5t5 -4.5 q0 -1 0.5 -2.5t-0.5 -4.5z" />
<glyph unicode="&#xfe;" horiz-adv-x="561" d="M572 231q-6 -27 -11 -46t-25 -59.5t-46 -67t-73.5 -48t-107.5 -21.5q-69 0 -104 50l-39 -185q-5 -27 -17.5 -37.5t-40.5 -10.5h-40q-28 0 -36 10q-5 6 -5 18q0 8 3 20l168 792q6 27 19 37.5t40 10.5h37q29 0 36 -11q4 -6 4 -16q0 -9 -3 -21l-50 -235q75 58 161 58 q43 0 73 -13.5t43.5 -38t20.5 -48.5q5 -18 5 -39v-16q-3 -32 -5.5 -48t-6.5 -35zM436 229q8 40 8 70q0 92 -77 92q-51 0 -94 -33l-51 -240q-2 -8 -2 -14v-6q3 -8 18 -20q19 -17 49 -17q111 0 149 168z" />
<glyph unicode="&#xff;" horiz-adv-x="500" d="M565 431q-1 -6 -10 -20l-263 -474q-8 -15 -22.5 -33.5t-41 -45.5t-66 -45t-82.5 -18q-76 0 -76 17q0 7 3 36q4 35 6 42q3 15 16 15q4 0 9 -4q27 -21 62 -21q25 0 46 14t31 27.5t23 36.5q7 14 23 42l-101 416q-2 11 -1 16q5 26 44 26h26q36 0 46.5 -13.5t22.5 -64.5 q39 -168 39 -225q0 -7 -1 -13h1q8 30 45 102l70 130q32 57 36 61q20 23 58 23h22q7 0 12 -0.5t12 -2.5t10 -8.5t1 -15.5zM324 607q-5 -23 -15.5 -33t-36.5 -10h-46q-26 0 -32 10q-4 6 -4 16q0 7 2 17l4 17q5 24 16 33.5t36 9.5h46q26 0 32 -9q4 -6 4 -16q0 -8 -2 -18z M566 607q-5 -23 -15.5 -33t-36.5 -10h-46q-26 0 -32 10q-4 6 -4 16q0 7 2 17l4 17q5 24 16 33.5t36 9.5h46q26 0 32 -9q4 -6 4 -16q0 -8 -2 -18z" />
<glyph unicode="&#x100;" horiz-adv-x="733" d="M696 27q-6 -27 -45 -27h-54q-23 0 -35 7.5t-15 17t-5 30.5l-14 96h-277l-62 -111q-23 -40 -72 -40h-36q-11 0 -17 1t-12 7q-5 5 -5 12q0 3 1 7q2 8 9 20l339 604q25 43 74 43h88q14 0 22.5 -1.5t19 -11.5t12.5 -30l83 -604q2 -14 1 -20zM516 237l-35 281q-2 17 -2 36v13 h-1q-18 -41 -62 -118l-117 -212h217zM734 793q-4 -20 -8.5 -23.5t-23.5 -3.5h-343q-20 0 -23 4q-1 2 -1 6q0 6 2 17l7 31q5 20 9.5 23.5t23.5 3.5h343q20 0 22 -3q1 -2 1 -6q0 -6 -2 -18z" />
<glyph unicode="&#x101;" horiz-adv-x="525" d="M484 48q-5 -27 -17.5 -37.5t-40.5 -10.5h-37q-29 0 -37 11q-4 6 -4 17q0 8 3 20l4 20q-70 -79 -172 -79q-63 0 -95 44q-22 32 -22 70q0 15 3 30q9 41 44 71.5t74 44.5t90 22.5t75 9.5t46 1l7 35q5 22 5 39t-5 29q-11 24 -50 24q-92 0 -169 -67q-8 -6 -13 -6q-12 0 -10 11 q0 17 8 73q2 8 7.5 12t23.5 11q83 32 171 32q173 0 173 -116q0 -10 -1 -21l-4 -22zM371 154l18 87l-29 -2q-14 -1 -42.5 -7.5t-50.5 -17t-41.5 -31t-25.5 -48.5q-2 -9 -2 -17q0 -19 10 -35q15 -22 45 -22q5 0 12 0.5t25 5.5t32.5 14t28.5 28t20 45zM590 600 q-5 -20 -9.5 -23.5t-23.5 -3.5h-343q-20 0 -22 3q-1 2 -1 6q0 6 2 18l6 31q5 20 9.5 23.5t23.5 3.5h343q20 0 23 -4v-5q0 -6 -2 -18z" />
<glyph unicode="&#x102;" horiz-adv-x="733" d="M696 27q-6 -27 -45 -27h-54q-23 0 -35 7.5t-15 17t-5 30.5l-14 96h-277l-62 -111q-23 -40 -72 -40h-36q-11 0 -17 1t-12 7q-5 5 -5 12q0 3 1 7q2 8 9 20l339 604q25 43 74 43h88q14 0 22.5 -1.5t19 -11.5t12.5 -30l83 -604q2 -14 1 -20zM516 237l-35 281q-2 17 -2 36v13 h-1q-18 -41 -62 -118l-117 -212h217zM739 860q-22 -104 -211 -104q-18 0 -30 0.5t-37 3t-41.5 9.5t-33.5 17.5t-23 29.5q-3 10 -3 23q0 10 2 21q3 18 16.5 28t27.5 10q6 0 11.5 -1.5t12 -10.5t4.5 -24q23 -13 114 -13q90 0 119 13q11 36 44 36q13 0 22 -10q7 -7 7 -19 q0 -4 -1 -9z" />
<glyph unicode="&#x103;" horiz-adv-x="525" d="M484 48q-5 -27 -17.5 -37.5t-40.5 -10.5h-37q-29 0 -37 11q-4 6 -4 17q0 8 3 20l4 20q-70 -79 -172 -79q-63 0 -95 44q-22 32 -22 70q0 15 3 30q9 41 44 71.5t74 44.5t90 22.5t75 9.5t46 1l7 35q5 22 5 39t-5 29q-11 24 -50 24q-92 0 -169 -67q-8 -6 -13 -6q-12 0 -10 11 q0 17 8 73q2 8 7.5 12t23.5 11q83 32 171 32q173 0 173 -116q0 -10 -1 -21l-4 -22zM371 154l18 87l-29 -2q-14 -1 -42.5 -7.5t-50.5 -17t-41.5 -31t-25.5 -48.5q-2 -9 -2 -17q0 -19 10 -35q15 -22 45 -22q5 0 12 0.5t25 5.5t32.5 14t28.5 28t20 45zM590 649 q-22 -104 -211 -104q-18 0 -30 0.5t-37 3t-41.5 9.5t-33.5 17.5t-23 29.5q-3 10 -3 23q0 10 2 21q3 18 16.5 28t27.5 10q4 0 8 -1t10 -4t9 -11t1 -20q24 -13 115 -13q90 0 118 13q12 36 44 36q13 0 22 -10q7 -7 7 -18q0 -5 -1 -10z" />
<glyph unicode="&#x104;" horiz-adv-x="733" d="M702 -162q-4 -14 -13 -19q-69 -32 -123 -32q-52 0 -74 28q-16 20 -16 48q0 12 3 25q15 66 82 120q-14 7 -19 47l-14 96h-277l-62 -111q-23 -40 -72 -40h-36q-11 0 -17 1t-12 7q-5 5 -5 12q0 3 1 7q2 8 9 20l339 604q25 43 74 43h88q14 0 22.5 -1.5t19 -11.5t12.5 -30 l83 -604q2 -14 1 -20q-6 -27 -46 -27q-51 -28 -66 -86q-2 -8 -2 -14q0 -24 32 -26q12 0 67 12q5 2 11.5 -2.5t5.5 -9.5zM516 237l-35 281q-2 17 -2 36v13h-1q-18 -41 -62 -118l-117 -212h217z" />
<glyph unicode="&#x105;" horiz-adv-x="525" d="M478 -162q-4 -14 -13 -19q-69 -32 -123 -32q-52 0 -74 28q-16 20 -16 48q0 12 3 25q7 31 34 67.5t60 62.5q-2 7 2 30l4 20q-70 -79 -172 -79q-63 0 -95 44q-22 32 -22 70q0 15 3 30q9 41 44 71.5t74 44.5t90 22.5t75 9.5t46 1l7 35q5 22 5 39t-5 29q-11 24 -50 24 q-92 0 -169 -67q-8 -6 -13 -6q-12 0 -10 11q0 17 8 73q2 8 7.5 12t23.5 11q83 32 171 32q173 0 173 -116q0 -10 -1 -21l-4 -22l-57 -268q-5 -27 -17.5 -37.5t-40.5 -10.5q-51 -28 -66 -86q-2 -8 -2 -14q0 -24 32 -26q12 0 67 12q5 2 11.5 -2.5t5.5 -9.5zM371 154l18 87 l-29 -2q-14 -1 -42.5 -7.5t-50.5 -17t-41.5 -31t-25.5 -48.5q-2 -9 -2 -17q0 -19 10 -35q15 -22 45 -22q5 0 12 0.5t25 5.5t32.5 14t28.5 28t20 45z" />
<glyph unicode="&#x106;" horiz-adv-x="703" d="M658 58q-1 -8 -8 -12q-66 -34 -112 -46q-42 -11 -113 -11q-183 0 -255 90q-48 59 -48 156q0 51 13 112q38 179 149 269q112 90 293 90q56 0 99 -8q44 -8 92 -28q8 -4 5 -14l-41 -107q-4 -10 -15 -10q-5 0 -8 3q-28 33 -66 49q-37 15 -87 15q-110 0 -178 -64t-96 -195 q-11 -53 -11 -95q0 -61 24 -100q42 -63 151 -63q66 0 104 12q41 12 101 52q6 2 8 2q5 0 8 -3.5t2 -7.5zM769 862l-240 -106h-67q-12 0 -16 6v2q0 5 8 12l150 109h161q9 0 13 -5q2 -2 2 -6q0 -2 -1 -4q-2 -5 -10 -8z" />
<glyph unicode="&#x107;" horiz-adv-x="489" d="M468 50q-1 -7 -6 -11t-29 -15q-76 -35 -161 -35q-195 0 -195 163q0 35 9 78q52 245 294 245q49 0 77.5 -7t63.5 -25q9 -5 12.5 -7.5t6 -6t1.5 -7.5t-12.5 -33.5t-14.5 -35.5q-6 -13 -16 -13q-6 0 -15 11q-25 25 -49 35.5t-70 10.5q-36 0 -62 -13t-41 -40.5t-22.5 -50 t-16.5 -61.5q-5 -24 -7 -35.5t-4 -34.5q-1 -9 -1 -16q0 -13 2 -21q4 -13 12 -28.5t25 -22.5t42 -7q83 0 158 56q12 10 18 10q10 0 10 -13q-3 -36 -9 -70zM570 681q-2 -5 -14 -15l-187 -129h-37h-12q-3 0 -7 1.5t-5 3.5t-0.5 4t0.5 4q1 4 12 15l111 117q8 8 13 10t20 2h82h12 q3 0 7 -1.5t5 -4.5v-2.5v-4.5z" />
<glyph unicode="&#x108;" horiz-adv-x="703" d="M658 58q-1 -8 -8 -12q-66 -34 -112 -46q-42 -11 -113 -11q-183 0 -255 90q-48 59 -48 156q0 51 13 112q38 179 149 269q112 90 293 90q56 0 99 -8q44 -8 92 -28q6 -3 6 -9q0 -2 -1 -5l-41 -107q-4 -10 -15 -10q-5 0 -8 3q-28 33 -66 49q-37 15 -87 15q-110 0 -178 -64 t-96 -195q-11 -53 -11 -95q0 -61 24 -100q42 -63 151 -63q66 0 104 12q41 12 101 52q6 2 8 2q5 0 8 -3.5t2 -7.5zM722 768q2 -2 2 -6q0 -3 -2 -8q-6 -8 -14 -8h-47l-4 1l-95 81l-129 -81l-6 -1h-47q-5 0 -8 4q-1 2 -1 5q0 7 6 11l132 104q3 3 8 3h111q5 0 8 -3z" />
<glyph unicode="&#x109;" horiz-adv-x="489" d="M468 50q-1 -7 -6 -11t-29 -15q-76 -35 -161 -35q-195 0 -195 163q0 35 9 78q52 245 294 245q49 0 77.5 -7t63.5 -25q9 -5 12.5 -7.5t6 -6t1.5 -7.5t-12.5 -33.5t-14.5 -35.5q-6 -13 -16 -13q-6 0 -15 11q-25 25 -49 35.5t-70 10.5q-36 0 -62 -13t-41 -40.5t-22.5 -50 t-16.5 -61.5q-5 -24 -7 -35.5t-4 -34.5q-1 -9 -1 -16q0 -13 2 -21q4 -13 12 -28.5t25 -22.5t42 -7q83 0 158 56q12 10 18 10q10 0 10 -13q-3 -36 -9 -70zM549 556q1 -2 1 -4q0 -4 -4 -10q-5 -7 -12 -7h-47q-4 1 -6 2l-76 101l-120 -101l-6 -2h-47q-7 0 -9 7q-1 1 -1 3 q0 5 4 9l127 139q4 4 10 4h111q7 0 8 -4z" />
<glyph unicode="&#x10a;" horiz-adv-x="703" d="M658 58q-1 -8 -8 -12q-66 -34 -112 -46q-42 -11 -113 -11q-183 0 -255 90q-48 59 -48 156q0 51 13 112q38 179 149 269q112 90 293 90q56 0 99 -8q44 -8 92 -28q6 -3 6 -9q0 -2 -1 -5l-41 -107q-4 -10 -15 -10q-5 0 -8 3q-28 33 -66 49q-37 15 -87 15q-110 0 -178 -64 t-96 -195q-11 -53 -11 -95q0 -61 24 -100q42 -63 151 -63q66 0 104 12q41 12 101 52q6 2 8 2q5 0 8 -3.5t2 -7.5zM629 794q-6 -25 -18 -36.5t-41 -11.5h-51q-30 0 -37 13q-4 6 -4 15t4 20l4 19q5 27 17.5 37.5t40.5 10.5h51q29 0 36 -11q4 -6 4 -18q0 -8 -2 -19z" />
<glyph unicode="&#x10b;" horiz-adv-x="489" d="M468 50q-1 -7 -6 -11t-29 -15q-76 -35 -161 -35q-195 0 -195 163q0 35 9 78q52 245 294 245q49 0 77.5 -7t63.5 -25q9 -5 12.5 -7.5t6.5 -5.5q1 -3 1 -6t-13 -36q-11 -29 -14 -35q-6 -13 -16 -13q-6 0 -15 11q-25 25 -49 35.5t-70 10.5q-36 0 -62 -13t-41 -40.5 t-22.5 -50t-16.5 -61.5q-5 -24 -7 -35.5t-4 -34.5q-1 -9 -1 -16q0 -13 2 -21q4 -13 12 -28.5t25 -22.5t42 -7q83 0 158 56q12 10 18 10q10 0 10 -13q-3 -36 -9 -70zM471 606q-6 -25 -17.5 -36.5t-40.5 -11.5h-51q-30 0 -36 12q-4 6 -4 17q0 8 2 19l4 19q5 27 17.5 37.5 t40.5 10.5h51q29 0 37 -11q4 -6 4 -17q0 -8 -3 -20z" />
<glyph unicode="&#x10c;" horiz-adv-x="703" d="M658 58q-1 -8 -8 -12q-66 -34 -112 -46q-42 -11 -113 -11q-183 0 -255 90q-48 59 -48 156q0 51 13 112q38 179 149 269q112 90 293 90q56 0 99 -8q44 -8 92 -28q6 -3 6 -9q0 -2 -1 -5l-41 -107q-4 -10 -15 -10q-5 0 -8 3q-28 33 -66 49q-37 15 -87 15q-110 0 -178 -64 t-96 -195q-11 -53 -11 -95q0 -61 24 -100q42 -63 151 -63q66 0 104 12q41 12 101 52q6 2 8 2q5 0 8 -3.5t2 -7.5zM740 853l-132 -104q-3 -3 -9 -3h-111q-4 0 -7 3l-86 102q-2 3 -2.5 6t2.5 7q5 9 13 9h47l5 -1l95 -81l129 81l5 1h47q5 0 8 -3q2 -3 2 -7q0 -6 -6 -10z" />
<glyph unicode="&#x10d;" horiz-adv-x="489" d="M468 50q-1 -7 -6 -11t-29 -15q-76 -35 -161 -35q-195 0 -195 163q0 35 9 78q52 245 294 245q49 0 77.5 -7t63.5 -25q9 -5 12.5 -7.5t6 -6t1.5 -7.5t-12.5 -33.5t-14.5 -35.5q-6 -13 -16 -13q-6 0 -15 11q-25 25 -49 35.5t-70 10.5q-36 0 -62 -13t-41 -40.5t-22.5 -50 t-16.5 -61.5q-5 -24 -7 -35.5t-4 -34.5q-1 -9 -1 -16q0 -13 2 -21q4 -13 12 -28.5t25 -22.5t42 -7q83 0 158 56q12 10 18 10q10 0 10 -13q-3 -36 -9 -70zM575 678l-127 -139q-4 -4 -10 -4h-111q-7 0 -8 4l-67 137q-1 2 -1 4q0 5 3 10q6 7 13 7h47q4 -1 6 -2l76 -101l120 101 l6 2h47q7 0 9 -7q1 -1 1 -3q0 -5 -4 -9z" />
<glyph unicode="&#x10e;" horiz-adv-x="794" d="M805 342q-34 -159 -131.5 -250.5t-270.5 -91.5h-264q-27 0 -35 10q-5 7 -5 20q0 8 2 18l127 598q6 27 19 37.5t40 10.5h264q175 0 237 -105q30 -52 30 -131q0 -52 -13 -116zM661 342q7 35 11 59q4 28 4 62q0 33 -10 55q-10 23 -29 45.5t-56 33.5t-89 11h-128l-111 -522 h129q61 0 108.5 16.5t75 40t48 61.5t29.5 67t18 71zM652 853l-132 -104q-3 -3 -9 -3h-111q-4 0 -7 3l-86 102q-2 3 -2.5 6t2.5 7q5 9 13 9h47l5 -1l95 -81l129 81l5 1h47q5 0 8 -3q2 -3 2 -7q0 -6 -6 -10z" />
<glyph unicode="&#x10f;" horiz-adv-x="561" d="M509 48q-5 -27 -17.5 -37.5t-40.5 -10.5h-40q-26 0 -35 10q-5 6 -5 18q0 8 2 19q-67 -58 -140 -58q-157 0 -157 155q0 38 9 84q54 241 255 241q73 0 115 -50l48 227q6 27 18.5 37.5t40.5 10.5h37q29 0 36 -11q4 -6 4 -16q0 -9 -3 -21zM390 125l51 241q-27 31 -72 31 q-32 0 -57 -11.5t-39 -25.5t-25.5 -41t-15.5 -43l-11 -48q-5 -27 -7 -39.5t-4 -36.5q-2 -10 -2 -18q0 -11 2 -18q4 -13 11.5 -27.5t24.5 -21t41 -6.5q31 0 64 18q16 10 24 17.5t10.5 12.5t4.5 16zM786 600q-5 -18 -15 -29l-62 -75q-10 -11 -14 -13t-18 -2h-11q-20 0 -21 7 q0 2 1 4l22 41q4 7 13 21.5t13 21.5q-22 0 -26 3.5t0 20.5l15 70q3 17 7.5 20.5t21.5 3.5h70q17 0 20 -4q1 -1 1 -5q0 -6 -2 -15z" />
<glyph unicode="&#x110;" horiz-adv-x="794" d="M805 342q-34 -159 -131.5 -250.5t-270.5 -91.5h-264q-27 0 -35 10q-5 7 -5 20q0 8 2 18l53 249h-32q-15 0 -23 11q-6 7 -6 17q0 4 1 8l6 28q3 15 15.5 25.5t27.5 10.5h32l53 249q6 27 19 37.5t40 10.5h264q175 0 237 -105q30 -52 30 -131q0 -52 -13 -116zM661 342 q7 35 11 59q4 28 4 62q0 33 -10 55q-10 23 -29 45.5t-56 33.5t-89 11h-128l-45 -211h58q15 0 23.5 -10.5t5.5 -25.5l-6 -28q-3 -15 -16 -25.5t-28 -10.5h-58l-45 -211h129q61 0 108.5 16.5t75 40t48 61.5t29.5 67t18 71z" />
<glyph unicode="&#x111;" horiz-adv-x="561" d="M709 562q-3 -14 -15.5 -25t-27.5 -11h-55l-102 -478q-5 -27 -17.5 -37.5t-40.5 -10.5h-40q-26 0 -35 10q-5 6 -5 18q0 8 2 19q-67 -58 -140 -58q-157 0 -157 155q0 38 9 84q54 241 255 241q73 0 115 -50l23 107h-106q-14 0 -23 11t-6 25l6 28q4 15 17 25.5t27 10.5h106 l4 20q6 27 18.5 37.5t40.5 10.5h37q29 0 36 -11q4 -6 4 -16q0 -9 -3 -21l-4 -20h55q15 0 23 -10q6 -8 6 -17q0 -4 -1 -9zM390 125l51 241q-27 31 -72 31q-32 0 -57 -11.5t-39 -25.5t-25.5 -41t-15.5 -43l-11 -48q-5 -27 -7 -39.5t-4 -36.5q-2 -10 -2 -18q0 -11 2 -18 q4 -13 11.5 -27.5t24.5 -21t41 -6.5q31 0 64 18q16 10 24 17.5t10.5 12.5t4.5 16z" />
<glyph unicode="&#x112;" horiz-adv-x="642" d="M605 48q-5 -27 -17.5 -37.5t-40.5 -10.5h-408q-27 0 -35 10q-5 7 -5 20q0 8 2 18l127 595q6 28 18.5 38t39.5 10h393q29 0 36 -11q4 -6 4 -18q0 -8 -2 -19l-2 -8q-5 -23 -15.5 -34t-20.5 -12.5t-32 -1.5l-235 3h-49l-39 -185h263q27 0 35 -10q5 -6 5 -18q0 -8 -2 -19 q-6 -28 -19 -37.5t-39 -9.5h-263l-43 -205l146 2l155 2q21 0 30 -1.5t15 -12.5q3 -6 3 -16q0 -8 -2 -18zM688 793q-4 -20 -8.5 -23.5t-23.5 -3.5h-343q-20 0 -23 4q-1 2 -1 6q0 6 2 17l7 31q5 20 9.5 23.5t23.5 3.5h343q20 0 22 -3q1 -2 1 -6q0 -6 -2 -18z" />
<glyph unicode="&#x113;" horiz-adv-x="511" d="M534 260q-4 -21 -14.5 -32t-19.5 -12.5t-24 -1.5h-272q-4 -24 -5 -41v-9q0 -14 2 -31q3 -23 13 -37t32 -24.5t54 -10.5q83 0 163 58q13 10 19 10q7 0 8 -4.5t0 -27.5q-5 -41 -6 -44q-1 -8 -7 -12.5t-27 -13.5q-84 -38 -169 -38q-120 0 -173 61q-36 42 -36 110q0 33 9 73 q24 116 98 179t192 63q108 0 147 -57q24 -36 24 -90q0 -31 -8 -68zM425 267q6 40 6 70t-18.5 48t-56.5 18q-103 0 -139 -136h208zM583 600q-5 -20 -9.5 -23.5t-23.5 -3.5h-343q-20 0 -23 3v6q0 6 2 18l6 31q5 20 9.5 23.5t23.5 3.5h343q20 0 22 -4q1 -2 1 -5q0 -6 -2 -18z " />
<glyph unicode="&#x114;" horiz-adv-x="642" d="M605 48q-5 -27 -17.5 -37.5t-40.5 -10.5h-408q-27 0 -35 10q-5 7 -5 20q0 8 2 18l127 595q6 28 18.5 38t39.5 10h393q29 0 36 -11q4 -6 4 -18q0 -8 -2 -19l-2 -8q-5 -23 -15.5 -34t-20.5 -12.5t-32 -1.5l-235 3h-49l-39 -185h263q27 0 35 -10q5 -6 5 -18q0 -8 -2 -19 q-6 -28 -19 -37.5t-39 -9.5h-263l-43 -205l146 2l155 2q21 0 30 -1.5t15 -12.5q3 -6 3 -16q0 -8 -2 -18zM693 860q-22 -104 -211 -104q-18 0 -30 0.5t-37 3t-41.5 9.5t-33.5 17.5t-23 29.5q-3 10 -3 23q0 10 2 21q3 18 16.5 28t27.5 10q6 0 11.5 -1.5t12 -10.5t4.5 -24 q23 -13 114 -13q90 0 119 13q11 36 44 36q13 0 22 -10q7 -7 7 -19q0 -4 -1 -9z" />
<glyph unicode="&#x115;" horiz-adv-x="511" d="M534 260q-4 -21 -14.5 -32t-19.5 -12.5t-24 -1.5h-272q-4 -24 -5 -41v-9q0 -14 2 -31q3 -23 13 -37t32 -24.5t54 -10.5q83 0 163 58q13 10 19 10q7 0 8 -4.5t0 -27.5q-5 -41 -6 -44q-1 -8 -7 -12.5t-27 -13.5q-84 -38 -169 -38q-120 0 -173 61q-36 42 -36 110q0 33 9 73 q24 116 98 179t192 63q108 0 147 -57q24 -36 24 -90q0 -31 -8 -68zM425 267q6 40 6 70t-18.5 48t-56.5 18q-103 0 -139 -136h208zM583 649q-22 -104 -211 -104q-18 0 -30 0.5t-37 3t-41.5 9.5t-33.5 17.5t-23 29.5q-3 10 -3 23q0 10 2 21q3 18 16.5 28t27.5 10q4 0 8 -1 t10 -4t9 -11t1 -20q24 -13 115 -13q90 0 118 13q12 36 44 36q13 0 23 -10q6 -7 6 -18q0 -5 -1 -10z" />
<glyph unicode="&#x116;" horiz-adv-x="642" d="M605 48q-5 -27 -17.5 -37.5t-40.5 -10.5h-408q-27 0 -35 10q-5 7 -5 20q0 8 2 18l127 595q6 28 18.5 38t39.5 10h393q29 0 36 -11q4 -6 4 -18q0 -8 -2 -19l-2 -8q-5 -23 -15.5 -34t-20.5 -12.5t-32 -1.5l-235 3h-49l-39 -185h263q27 0 35 -10q5 -6 5 -18q0 -8 -2 -19 q-6 -28 -19 -37.5t-39 -9.5h-263l-43 -205l146 2l155 2q21 0 30 -1.5t15 -12.5q3 -6 3 -16q0 -8 -2 -18zM563 794q-6 -25 -18 -36.5t-41 -11.5h-51q-30 0 -37 13q-4 6 -4 15t4 20l4 19q5 27 17.5 37.5t40.5 10.5h51q29 0 36 -11q4 -6 4 -18q0 -8 -2 -19z" />
<glyph unicode="&#x117;" horiz-adv-x="511" d="M534 260q-4 -21 -14.5 -32t-19.5 -12.5t-24 -1.5h-272q-4 -24 -5 -41v-9q0 -14 2 -31q3 -23 13 -37t32 -24.5t54 -10.5q83 0 163 58q13 10 19 10q7 0 8 -4.5t0 -27.5q-5 -41 -6 -44q-1 -8 -7 -12.5t-27 -13.5q-84 -38 -169 -38q-120 0 -173 61q-36 42 -36 110q0 33 9 73 q24 116 98 179t192 63q108 0 147 -57q24 -36 24 -90q0 -31 -8 -68zM425 267q6 40 6 70t-18.5 48t-56.5 18q-103 0 -139 -136h208zM458 606q-6 -25 -17.5 -36.5t-40.5 -11.5h-51q-30 0 -37 12q-3 6 -3 17q0 8 2 19l4 19q5 27 17.5 37.5t40.5 10.5h51q29 0 36 -11q5 -6 5 -17 q0 -8 -3 -20z" />
<glyph unicode="&#x118;" horiz-adv-x="642" d="M605 48q-5 -27 -17.5 -37.5t-40.5 -10.5h-40q-50 -27 -65 -86q-2 -8 -2 -14q0 -24 32 -26q12 0 67 12q5 2 11.5 -2.5t5.5 -9.5l4 -36q-4 -14 -13 -19q-69 -32 -123 -32q-52 0 -74 28q-16 20 -16 48q0 12 3 25q15 67 71 112h-269q-27 0 -35 10q-5 7 -5 20q0 8 2 18 l127 595q6 28 18.5 38t39.5 10h393q29 0 36 -11q4 -6 4 -18q0 -8 -2 -19l-2 -8q-5 -23 -15.5 -34t-20.5 -12.5t-32 -1.5l-235 3h-49l-39 -185h263q27 0 35 -10q5 -6 5 -18q0 -8 -2 -19q-6 -28 -19 -37.5t-39 -9.5h-263l-43 -205l146 2l155 2q21 0 30 -1.5t15 -12.5 q3 -6 3 -16q0 -8 -2 -18z" />
<glyph unicode="&#x119;" horiz-adv-x="511" d="M534 260q-4 -21 -14.5 -32t-19.5 -12.5t-24 -1.5h-272q-4 -24 -5 -41v-9q0 -14 2 -31q3 -23 13 -37t32 -24.5t54 -10.5q83 0 163 58q13 10 19 10q7 0 8 -4.5t0 -27.5q-5 -41 -6 -44q-1 -8 -7 -12.5t-27 -13.5q-44 -20 -79 -27q-53 -28 -67 -86q-2 -8 -2 -14q0 -24 32 -26 q12 0 67 12q5 2 11.5 -2.5t5.5 -9.5l4 -36q-4 -14 -13 -19q-69 -32 -123 -32q-52 0 -74 28q-16 20 -16 48q0 12 3 25q11 51 61 101q-109 5 -156 67q-32 40 -32 103q0 34 9 74q24 116 98 179t192 63q108 0 147 -57q24 -36 24 -90q0 -31 -8 -68zM425 267q6 40 6 70t-18.5 48 t-56.5 18q-103 0 -139 -136h208z" />
<glyph unicode="&#x11a;" horiz-adv-x="642" d="M605 48q-5 -27 -17.5 -37.5t-40.5 -10.5h-408q-27 0 -35 10q-5 7 -5 20q0 8 2 18l127 595q6 28 18.5 38t39.5 10h393q29 0 36 -11q4 -6 4 -18q0 -8 -2 -19l-2 -8q-5 -23 -15.5 -34t-20.5 -12.5t-32 -1.5l-235 3h-49l-39 -185h263q27 0 35 -10q5 -6 5 -18q0 -8 -2 -19 q-6 -28 -19 -37.5t-39 -9.5h-263l-43 -205l146 2l155 2q21 0 30 -1.5t15 -12.5q3 -6 3 -16q0 -8 -2 -18zM674 853l-132 -104q-3 -3 -9 -3h-111q-4 0 -7 3l-86 102q-2 3 -2.5 6t2.5 7q5 9 13 9h47l5 -1l95 -81l129 81l5 1h47q5 0 8 -3q2 -3 2 -7q0 -6 -6 -10z" />
<glyph unicode="&#x11b;" horiz-adv-x="511" d="M534 260q-4 -21 -14.5 -32t-19.5 -12.5t-24 -1.5h-272q-4 -24 -5 -41v-9q0 -14 2 -31q3 -23 13 -37t32 -24.5t54 -10.5q83 0 163 58q13 10 19 10q7 0 8 -4.5t0 -27.5q-5 -41 -6 -44q-1 -8 -7 -12.5t-27 -13.5q-84 -38 -169 -38q-120 0 -173 61q-36 42 -36 110q0 33 9 73 q24 116 98 179t192 63q108 0 147 -57q24 -36 24 -90q0 -31 -8 -68zM425 267q6 40 6 70t-18.5 48t-56.5 18q-103 0 -139 -136h208zM562 678l-127 -139q-4 -4 -10 -4h-111q-7 0 -8 4l-67 137q-1 2 -1 4q0 5 4 10q5 7 12 7h47q4 -1 6 -2l76 -101l120 101l6 2h47q7 0 9 -7 q1 -1 1 -3q0 -5 -4 -9z" />
<glyph unicode="&#x11c;" horiz-adv-x="733" d="M669 50q-2 -8 -10 -11q-117 -50 -234 -50q-183 0 -255 90q-48 59 -48 156q0 51 13 112q38 179 149 269q112 90 293 90q61 0 108 -12q46 -11 96 -38q5 -3 5 -9q0 -2 -1 -5l-41 -106q-4 -11 -14 -11q-5 0 -9 4q-31 42 -70 59q-39 18 -95 18q-110 0 -178 -64t-96 -195 q-11 -53 -11 -95q0 -61 24 -100q42 -63 151 -63q47 0 97 11l28 130h-83q-13 0 -9 13l14 69q4 13 15 13h207q13 0 9 -13zM702 768q2 -2 2 -6q0 -3 -2 -8q-6 -8 -14 -8h-47l-4 1l-95 81l-129 -81l-6 -1h-47q-5 0 -8 4q-1 2 -1 5q0 7 6 11l132 104q3 3 8 3h111q5 0 8 -3z" />
<glyph unicode="&#x11d;" d="M620 405q-2 -13 -16 -13q-5 0 -13 4q-38 11 -90 11q13 -25 13 -58q0 -22 -5 -46q-35 -165 -236 -165q-80 0 -121 26l-5 -15q-1 -5 -1 -11q0 -17 12 -34q12 -12 62 -12h48h41q14 0 39 -1t38.5 -3t34.5 -6t32 -10l25 -14q14 -8 20.5 -19.5t11.5 -26.5q6 -13 6 -30 q0 -21 -6 -46q-30 -142 -280 -142q-112 0 -165 27q-38 20 -49 51q-8 20 -8 39q0 11 3 22q12 61 85 88q-13 24 -13 52q0 13 3 27q8 42 44 81q-28 30 -28 77q0 21 6 46q35 165 236 165q89 0 134 -35q65 35 127 35q13 0 15 -3q1 -3 1 -12v-11q0 -34 -1 -38zM382 304q7 37 7 52 q0 18 -13 29q-15 12 -48 12q-25 0 -42 -6t-26.5 -21t-14.5 -28.5t-10 -38.5q-7 -37 -7 -52q0 -18 14 -29q14 -12 47 -12q25 0 42 6t26.5 21t14.5 28.5t10 38.5zM407 -67q1 4 1 8q0 20 -24 30q-28 12 -90 12h-116q-16 0 -25.5 -1.5t-21.5 -12.5t-17 -33q-1 -6 -1 -12 q0 -10 3 -18q5 -12 18 -19.5t26 -12t32.5 -6t29.5 -2t25 -0.5q146 0 160 67zM517 556q1 -2 1 -4q0 -4 -4 -10q-5 -7 -12 -7h-47q-4 1 -6 2l-76 101l-120 -101l-6 -2h-47q-7 0 -9 7q-1 1 -1 3q0 5 4 9l127 139q4 4 10 4h111q7 0 8 -4z" />
<glyph unicode="&#x11e;" horiz-adv-x="733" d="M669 50q-2 -8 -10 -11q-117 -50 -234 -50q-183 0 -255 90q-48 59 -48 156q0 51 13 112q38 179 149 269q112 90 293 90q61 0 108 -12q46 -11 96 -38q5 -3 5 -9q0 -2 -1 -5l-41 -106q-4 -11 -14 -11q-5 0 -9 4q-31 42 -70 59q-39 18 -95 18q-110 0 -178 -64t-96 -195 q-11 -53 -11 -95q0 -61 24 -100q42 -63 151 -63q47 0 97 11l28 130h-83q-13 0 -9 13l14 69q4 13 15 13h207q13 0 9 -13zM739 860q-22 -104 -211 -104q-18 0 -30 0.5t-37 3t-41.5 9.5t-33.5 17.5t-23 29.5q-3 10 -3 23q0 10 2 21q3 18 16.5 28t27.5 10q6 0 11.5 -1.5 t12 -10.5t4.5 -24q23 -13 114 -13q90 0 119 13q11 36 44 36q13 0 22 -10q7 -7 7 -19q0 -4 -1 -9z" />
<glyph unicode="&#x11f;" d="M620 405q-2 -13 -16 -13q-5 0 -13 4q-38 11 -90 11q13 -25 13 -58q0 -22 -5 -46q-35 -165 -236 -165q-80 0 -121 26l-5 -15q-1 -5 -1 -11q0 -17 12 -34q12 -12 62 -12h48h41q14 0 39 -1t38.5 -3t34.5 -6t32 -10l25 -14q14 -8 20.5 -19.5t11.5 -26.5q6 -13 6 -30 q0 -21 -6 -46q-30 -142 -280 -142q-112 0 -165 27q-38 20 -49 51q-8 20 -8 39q0 11 3 22q12 61 85 88q-13 24 -13 52q0 13 3 27q8 42 44 81q-28 30 -28 77q0 21 6 46q35 165 236 165q89 0 134 -35q65 35 127 35q13 0 15 -3q1 -3 1 -12v-11q0 -34 -1 -38zM382 304q7 37 7 52 q0 18 -13 29q-15 12 -48 12q-25 0 -42 -6t-26.5 -21t-14.5 -28.5t-10 -38.5q-7 -37 -7 -52q0 -18 14 -29q14 -12 47 -12q25 0 42 6t26.5 21t14.5 28.5t10 38.5zM407 -67q1 4 1 8q0 20 -24 30q-28 12 -90 12h-116q-16 0 -25.5 -1.5t-21.5 -12.5t-17 -33q-1 -6 -1 -12 q0 -10 3 -18q5 -12 18 -19.5t26 -12t32.5 -6t29.5 -2t25 -0.5q146 0 160 67zM564 649q-22 -104 -211 -104q-18 0 -30 0.5t-37 3t-41.5 9.5t-33.5 17.5t-23 29.5q-3 10 -3 23q0 10 2 21q3 18 16.5 28t27.5 10q4 0 8 -1t10 -4t9 -11t1 -20q24 -13 115 -13q90 0 118 13 q12 36 44 36q13 0 22 -10q7 -7 7 -18q0 -5 -1 -10z" />
<glyph unicode="&#x120;" horiz-adv-x="733" d="M669 50q-2 -8 -10 -11q-117 -50 -234 -50q-183 0 -255 90q-48 59 -48 156q0 51 13 112q38 179 149 269q112 90 293 90q61 0 108 -12q46 -11 96 -38q5 -3 5 -9q0 -2 -1 -5l-41 -106q-4 -11 -14 -11q-5 0 -9 4q-31 42 -70 59q-39 18 -95 18q-110 0 -178 -64t-96 -195 q-11 -53 -11 -95q0 -61 24 -100q42 -63 151 -63q47 0 97 11l28 130h-83q-13 0 -9 13l14 69q4 13 15 13h207q13 0 9 -13zM609 794q-6 -25 -18 -36.5t-41 -11.5h-51q-30 0 -37 13q-4 6 -4 15t4 20l4 19q5 27 17.5 37.5t40.5 10.5h51q29 0 36 -11q4 -6 4 -18q0 -8 -2 -19z" />
<glyph unicode="&#x121;" d="M620 405q-2 -13 -16 -13q-5 0 -13 4q-38 11 -90 11q13 -25 13 -58q0 -22 -5 -46q-35 -165 -236 -165q-80 0 -121 26l-5 -15q-1 -5 -1 -11q0 -17 12 -34q12 -12 62 -12h48h41q14 0 39 -1t38.5 -3t34.5 -6t32 -10l25 -14q14 -8 20.5 -19.5t11.5 -26.5q6 -13 6 -30 q0 -21 -6 -46q-30 -142 -280 -142q-112 0 -165 27q-38 20 -49 51q-8 20 -8 39q0 11 3 22q12 61 85 88q-13 24 -13 52q0 13 3 27q8 42 44 81q-28 30 -28 77q0 21 6 46q35 165 236 165q89 0 134 -35q65 35 127 35q13 0 15 -3q1 -3 1 -12v-11q0 -34 -1 -38zM382 304q7 37 7 52 q0 18 -13 29q-15 12 -48 12q-25 0 -42 -6t-26.5 -21t-14.5 -28.5t-10 -38.5q-7 -37 -7 -52q0 -18 14 -29q14 -12 47 -12q25 0 42 6t26.5 21t14.5 28.5t10 38.5zM407 -67q1 4 1 8q0 20 -24 30q-28 12 -90 12h-116q-16 0 -25.5 -1.5t-21.5 -12.5t-17 -33q-1 -6 -1 -12 q0 -10 3 -18q5 -12 18 -19.5t26 -12t32.5 -6t29.5 -2t25 -0.5q146 0 160 67zM439 606q-6 -25 -17.5 -36.5t-40.5 -11.5h-51q-30 0 -36 12q-4 6 -4 17q0 8 2 19l4 19q5 27 17.5 37.5t40.5 10.5h51q29 0 37 -11q4 -6 4 -17q0 -8 -3 -20z" />
<glyph unicode="&#x122;" horiz-adv-x="733" d="M669 50q-2 -8 -10 -11q-117 -50 -234 -50q-183 0 -255 90q-48 59 -48 156q0 51 13 112q38 179 149 269q112 90 293 90q61 0 108 -12q46 -11 96 -38q5 -3 5 -9q0 -2 -1 -5l-41 -106q-4 -11 -14 -11q-5 0 -9 4q-31 42 -70 59q-39 18 -95 18q-110 0 -178 -64t-96 -195 q-11 -53 -11 -95q0 -61 24 -100q42 -63 151 -63q47 0 97 11l28 130h-83q-13 0 -9 13l14 69q4 13 15 13h207q13 0 9 -13zM389 -173q-4 -18 -14 -29l-63 -75q-9 -11 -13 -13t-18 -2h-11q-9 0 -12.5 0.5t-6.5 3t-2 7.5l23 41l12 22q8 14 13 21q-22 0 -26 3.5t0 20.5l15 70 q4 17 8 20.5t21 3.5h70q17 0 20 -3q1 -2 1 -6q0 -5 -2 -15z" />
<glyph unicode="&#x123;" d="M414 556q-4 -17 -8 -20.5t-21 -3.5h-70q-17 0 -20 3.5t1 20.5l15 70q3 16 14 29l63 75q9 11 13 13t18 2h11q9 0 12.5 -0.5t6.5 -3t2 -7.5l-23 -41l-12 -21q-8 -15 -13 -22q22 0 26 -3.5t0 -20.5zM620 405q-2 -13 -16 -13q-5 0 -13 4q-38 11 -90 11q13 -25 13 -58 q0 -22 -5 -46q-35 -165 -236 -165q-80 0 -121 26l-5 -15q-1 -5 -1 -11q0 -17 12 -34q12 -12 62 -12h48h41q14 0 39 -1t38.5 -3t34.5 -6t32 -10l25 -14q14 -8 20.5 -19.5t11.5 -26.5q6 -13 6 -30q0 -21 -6 -46q-30 -142 -280 -142q-112 0 -165 27q-38 20 -49 51q-8 20 -8 39 q0 11 3 22q12 61 85 88q-13 24 -13 52q0 13 3 27q8 42 44 81q-28 30 -28 77q0 21 6 46q35 165 236 165q89 0 134 -35q65 35 127 35q13 0 15 -3q1 -3 1 -12v-11q0 -34 -1 -38zM382 304q7 37 7 52q0 18 -13 29q-15 12 -48 12q-25 0 -42 -6t-26.5 -21t-14.5 -28.5t-10 -38.5 q-7 -37 -7 -52q0 -18 14 -29q14 -12 47 -12q25 0 42 6t26.5 21t14.5 28.5t10 38.5zM407 -67q1 4 1 8q0 20 -24 30q-28 12 -90 12h-116q-16 0 -25.5 -1.5t-21.5 -12.5t-17 -33q-1 -6 -1 -12q0 -10 3 -18q5 -12 18 -19.5t26 -12t32.5 -6t29.5 -2t25 -0.5q146 0 160 67z" />
<glyph unicode="&#x124;" horiz-adv-x="794" d="M712 48q-5 -27 -17.5 -37.5t-40.5 -10.5h-51q-29 0 -37 11q-4 6 -4 17q0 8 3 20l57 266h-317l-57 -266q-5 -27 -17.5 -37.5t-40.5 -10.5h-51q-27 0 -35 10q-5 7 -5 20q0 8 2 18l127 598q6 27 19 37.5t40 10.5h51q29 0 36 -11q4 -6 4 -16q0 -9 -3 -21l-50 -238h317l50 238 q6 27 18.5 37.5t40.5 10.5h51q29 0 36 -11q4 -6 4 -16q0 -9 -3 -21zM732 768q2 -2 2 -6q0 -3 -2 -8q-6 -8 -14 -8h-47l-4 1l-95 81l-129 -81l-6 -1h-47q-5 0 -8 4q-1 2 -1 5q0 7 6 11l132 104q3 3 8 3h111q5 0 8 -3z" />
<glyph unicode="&#x125;" horiz-adv-x="561" d="M510 48q-5 -27 -17.5 -37.5t-40.5 -10.5h-40q-29 0 -36 11q-5 6 -5 17q0 8 3 20l59 275q5 19 5 33t-5 23q-9 18 -43 18q-43 0 -83.5 -33.5t-53.5 -94.5l-47 -221q-5 -27 -17.5 -37.5t-40.5 -10.5h-40q-27 0 -35 10q-5 7 -5 20q0 8 2 18l127 598q6 27 19 37.5t40 10.5h37 q29 0 36 -11q4 -6 4 -16q0 -9 -3 -21l-58 -274h1q14 20 33.5 38.5t60.5 38.5t87 20q77 0 104 -33q17 -22 17 -60q0 -22 -6 -51zM616 768q2 -2 2 -6q0 -3 -2 -8q-6 -8 -14 -8h-47l-4 1l-95 81l-129 -81l-6 -1h-47q-5 0 -8 4q-1 2 -1 5q0 7 6 11l132 104q3 3 8 3h111q5 0 8 -3 z" />
<glyph unicode="&#x126;" horiz-adv-x="794" d="M901 507q-3 -15 -16 -25.5t-28 -10.5h-55l-90 -423q-5 -27 -17.5 -37.5t-40.5 -10.5h-51q-29 0 -37 11q-4 6 -4 17q0 8 3 20l57 266h-317l-57 -266q-5 -27 -17.5 -37.5t-40.5 -10.5h-51q-27 0 -35 10q-5 7 -5 20q0 8 2 18l90 423h-55q-15 0 -23 10.5t-5 25.5l6 28 q3 15 15.5 25.5t27.5 10.5h55l16 75q6 27 19 37.5t40 10.5h51q29 0 36 -11q4 -6 4 -16q0 -9 -3 -21l-16 -75h317l16 75q6 27 18.5 37.5t40.5 10.5h51q29 0 36 -11q4 -6 4 -16q0 -9 -3 -21l-16 -75h55q15 0 24 -11q6 -7 6 -17q0 -4 -1 -8zM642 408l13 63h-317l-13 -63h317z " />
<glyph unicode="&#x127;" horiz-adv-x="561" d="M510 48q-5 -27 -17.5 -37.5t-40.5 -10.5h-40q-29 0 -36 11q-5 6 -5 17q0 8 3 20l59 275q5 19 5 33t-5 23q-9 18 -43 18q-43 0 -83.5 -33.5t-53.5 -94.5l-47 -221q-5 -27 -17.5 -37.5t-40.5 -10.5h-40q-27 0 -35 10q-5 7 -5 20q0 8 2 18l102 478h-55q-15 0 -23.5 11 t-5.5 25l6 28q4 15 16.5 25.5t27.5 10.5h55l4 20q6 27 19 37.5t40 10.5h37q29 0 36 -11q4 -6 4 -16q0 -9 -3 -21l-4 -20h52q15 0 23.5 -10.5t4.5 -25.5l-6 -28q-3 -14 -16 -25t-27 -11h-52l-33 -154h1q14 20 33.5 38.5t60.5 38.5t87 20q77 0 104 -33q17 -22 17 -60 q0 -22 -6 -51z" />
<glyph unicode="&#x128;" horiz-adv-x="331" d="M249 48q-5 -27 -17.5 -37.5t-40.5 -10.5h-51q-27 0 -35 10q-5 7 -5 20q0 8 2 18l127 598q6 27 19 37.5t40 10.5h51q29 0 36 -11q4 -6 4 -16q0 -9 -3 -21zM531 860q-9 -41 -47.5 -77.5t-87.5 -36.5q-43 0 -90 37q-24 22 -42 22q-33 0 -47 -44q-4 -11 -9.5 -13t-21.5 -2 h-18q-16 0 -21 2q-3 2 -3 7q0 3 1 8q8 41 46 77.5t88 36.5q46 0 90 -37q26 -22 43 -22q33 0 47 44q4 11 9 13t21 2h18q17 0 21 -3q4 -1 4 -8q0 -2 -1 -6z" />
<glyph unicode="&#x129;" horiz-adv-x="256" d="M204 48q-5 -27 -17.5 -37.5t-40.5 -10.5h-37q-27 0 -35 10q-5 7 -5 20q0 8 2 18l77 362q6 28 18.5 38t39.5 10h37q29 0 37 -11q4 -6 4 -17q0 -8 -3 -20zM452 664q-8 -41 -46 -77.5t-88 -36.5q-43 0 -90 37q-26 22 -43 22q-33 0 -47 -44q-4 -11 -9 -13t-21 -2h-18 q-16 0 -21 2q-3 2 -3 7q0 4 1 8q8 41 46 77.5t88 36.5q43 0 90 -37q26 -22 42 -22q33 0 48 44q4 11 9 13t21 2h18q17 0 21 -3q3 -1 3 -6q0 -3 -1 -8z" />
<glyph unicode="&#x12a;" horiz-adv-x="331" d="M249 48q-5 -27 -17.5 -37.5t-40.5 -10.5h-51q-27 0 -35 10q-5 7 -5 20q0 8 2 18l127 598q6 27 19 37.5t40 10.5h51q29 0 36 -11q4 -6 4 -16q0 -9 -3 -21zM532 793q-4 -20 -8.5 -23.5t-23.5 -3.5h-343q-20 0 -23 4q-1 2 -1 6q0 6 2 17l7 31q5 20 9.5 23.5t23.5 3.5h343 q20 0 22 -3q1 -2 1 -6q0 -6 -2 -18z" />
<glyph unicode="&#x12b;" horiz-adv-x="256" d="M204 48q-5 -27 -17.5 -37.5t-40.5 -10.5h-37q-27 0 -35 10q-5 7 -5 20q0 8 2 18l77 362q6 28 18.5 38t39.5 10h37q29 0 37 -11q4 -6 4 -17q0 -8 -3 -20zM455 600q-5 -20 -9.5 -23.5t-23.5 -3.5h-343q-20 0 -23 3v6q0 6 2 18l6 31q5 20 9.5 23.5t23.5 3.5h343q20 0 22 -4 q1 -2 1 -5q0 -6 -2 -18z" />
<glyph unicode="&#x12c;" horiz-adv-x="331" d="M249 48q-5 -27 -17.5 -37.5t-40.5 -10.5h-51q-27 0 -35 10q-5 7 -5 20q0 8 2 18l127 598q6 27 19 37.5t40 10.5h51q29 0 36 -11q4 -6 4 -16q0 -9 -3 -21zM537 860q-22 -104 -211 -104q-18 0 -30 0.5t-37 3t-41.5 9.5t-33.5 17.5t-23 29.5q-3 10 -3 23q0 10 2 21 q3 18 16.5 28t27.5 10q6 0 11.5 -1.5t12 -10.5t4.5 -24q23 -13 114 -13q90 0 119 13q11 36 44 36q13 0 22 -10q7 -7 7 -19q0 -4 -1 -9z" />
<glyph unicode="&#x12d;" horiz-adv-x="256" d="M204 48q-5 -27 -17.5 -37.5t-40.5 -10.5h-37q-27 0 -35 10q-5 7 -5 20q0 8 2 18l77 362q6 28 18.5 38t39.5 10h37q29 0 37 -11q4 -6 4 -17q0 -8 -3 -20zM455 649q-22 -104 -211 -104q-18 0 -30 0.5t-37 3t-41.5 9.5t-33.5 17.5t-23 29.5q-3 10 -3 23q0 10 2 21 q3 18 16.5 28t27.5 10q4 0 8 -1t10 -4t9 -11t1 -20q24 -13 115 -13q90 0 118 13q12 36 44 36q13 0 23 -10q6 -7 6 -18q0 -5 -1 -10z" />
<glyph unicode="&#x12e;" horiz-adv-x="331" d="M248 -162q-4 -14 -13 -19q-69 -32 -123 -32q-52 0 -74 28q-16 20 -16 48q0 12 3 25q16 73 83 118q-8 6 -8 23q0 8 2 19l127 598q6 27 19 37.5t40 10.5h51q29 0 36 -11q4 -6 4 -16q0 -9 -3 -21l-127 -598q-5 -27 -17.5 -37.5t-40.5 -10.5h-6q-42 -35 -55 -86q-2 -8 -2 -14 q0 -24 32 -26q12 0 67 12q5 2 11.5 -2.5t5.5 -9.5z" />
<glyph unicode="&#x12f;" horiz-adv-x="256" d="M334 626q-5 -22 -7.5 -31t-9 -20t-17 -14t-28.5 -3h-52q-27 0 -35 10q-5 6 -5 18q0 7 2 17l10 46q6 28 19 37t39 9h51q33 0 38 -17q2 -5 2 -13q0 -15 -7 -39zM210 -162q-4 -14 -13 -19q-69 -32 -123 -32q-52 0 -74 28q-16 20 -16 48q0 12 3 25q16 76 88 121q-6 6 -6 19 q0 9 2 20l77 362q6 28 18.5 38t39.5 10h37q29 0 37 -11q4 -6 4 -17q0 -8 -3 -20l-77 -362q-5 -27 -17.5 -37.5t-39.5 -10.5q-43 -36 -55 -86q-2 -8 -2 -14q0 -24 32 -26q12 0 67 12q5 2 11.5 -2.5t5.5 -9.5z" />
<glyph unicode="&#x130;" horiz-adv-x="331" d="M249 48q-5 -27 -17.5 -37.5t-40.5 -10.5h-51q-27 0 -35 10q-5 7 -5 20q0 8 2 18l127 598q6 27 19 37.5t40 10.5h51q29 0 36 -11q4 -6 4 -16q0 -9 -3 -21zM408 794q-6 -25 -18 -36.5t-41 -11.5h-51q-30 0 -38 13q-3 6 -3 15t4 20l4 19q5 27 17.5 37.5t40.5 10.5h51 q29 0 36 -11q4 -6 4 -18q0 -8 -2 -19z" />
<glyph unicode="&#x131;" horiz-adv-x="256" d="M204 48q-5 -27 -17.5 -37.5t-40.5 -10.5h-37q-27 0 -35 10q-5 7 -5 20q0 8 2 18l77 362q6 28 18.5 38t39.5 10h37q29 0 37 -11q4 -6 4 -17q0 -8 -3 -20z" />
<glyph unicode="&#x134;" horiz-adv-x="519" d="M459 149q-18 -84 -81 -127.5t-148 -43.5t-156 35q-14 6 -18 10t-3 10l34 88q8 19 18 19q6 0 13 -12q28 -50 94 -50q31 0 52 8t31.5 23.5t14 23.5t6.5 22l104 491q6 27 18.5 37.5t40.5 10.5h48q29 0 36 -11q4 -6 4 -16q0 -9 -3 -21zM690 768q2 -2 2 -6q0 -3 -2 -8 q-6 -8 -14 -8h-47l-4 1l-95 81l-129 -81l-6 -1h-47q-5 0 -8 4q-1 2 -1 5q0 7 6 11l132 104q3 3 8 3h111q5 0 8 -3z" />
<glyph unicode="&#x135;" horiz-adv-x="286" d="M217 -32q-37 -173 -186 -173q-47 0 -93 17q-43 15 -43 28q0 4 18 34q11 19 14.5 23t9.5 4q1 0 9 -4q24 -18 59 -18q21 0 35.5 6t22 17.5t10.5 20t6 21.5l99 466q6 27 18 37.5t40 10.5h37q29 0 37 -11q4 -6 4 -17q0 -8 -3 -20zM431 556q1 -2 1 -4q0 -4 -4 -10 q-5 -7 -12 -7h-47q-4 1 -6 2l-76 101l-120 -101l-6 -2h-47q-7 0 -9 7q-1 1 -1 3q0 5 4 9l127 139q4 4 10 4h111q7 0 8 -4z" />
<glyph unicode="&#x136;" horiz-adv-x="764" d="M707 29q-4 -20 -13 -24.5t-28 -4.5h-60q-34 0 -46 21l-160 300l-133 -105l-36 -168q-5 -27 -17.5 -37.5t-40.5 -10.5h-34q-27 0 -35 10q-5 7 -5 20q0 8 2 18l127 598q6 27 19 37.5t40 10.5h34q29 0 36 -11q4 -6 4 -16q0 -9 -3 -21l-58 -276l386 304q26 20 63 20h61 q10 0 15.5 -0.5t10.5 -5.5q4 -4 4 -10q0 -2 -1 -5q-3 -10 -16 -21l-316 -247zM404 -173q-4 -18 -14 -29l-63 -75q-9 -11 -13 -13t-18 -2h-11q-9 0 -12.5 0.5t-6.5 3t-2 7.5l23 41q5 7 13 22l12 21q-22 0 -26 3.5t0 20.5l15 70q4 17 8 20.5t21 3.5h70q17 0 20 -3q1 -2 1 -6 q0 -5 -2 -15z" />
<glyph unicode="&#x137;" horiz-adv-x="531" d="M502 22q-5 -22 -41 -22h-48q-22 0 -30 4.5t-18 20.5l-94 170l-56 -43l-22 -104q-5 -27 -17.5 -37.5t-40.5 -10.5h-18q-27 0 -35 10q-5 7 -5 20q0 8 2 18l127 598q6 27 19 37.5t40 10.5h21q29 0 36 -11q4 -6 4 -16q0 -9 -3 -21l-73 -343l173 134q27 21 64 21h58 q10 0 15.5 -0.5t11.5 -5.5q4 -4 4 -10q0 -2 -1 -5q-2 -9 -20 -22l-184 -143l125 -228q8 -13 6 -22zM287 -173q-4 -18 -14 -29l-63 -75q-9 -11 -13 -13t-18 -2h-11q-9 0 -12.5 0.5t-6.5 3t-2 7.5l23 41l12 22q8 14 13 21q-22 0 -26 3.5t0 20.5l15 70q4 17 8 20.5t21 3.5h70 q17 0 20 -3q1 -2 1 -6q0 -5 -2 -15z" />
<glyph unicode="&#x139;" horiz-adv-x="581" d="M544 48q-5 -27 -17.5 -37.5t-40.5 -10.5h-347q-27 0 -35 10q-5 7 -5 20q0 8 2 18l127 598q6 27 19 37.5t40 10.5h51q29 0 36 -11q4 -6 4 -16q0 -9 -3 -21l-116 -545l250 4q21 0 31 -7.5t9 -18t-3 -22.5zM577 862l-240 -106h-67q-12 0 -16 6v2q0 5 8 12l150 109h161 q9 0 13 -5q2 -2 2 -6q0 -2 -1 -4q-2 -5 -10 -8z" />
<glyph unicode="&#x13a;" horiz-adv-x="256" d="M204 48q-5 -27 -17.5 -37.5t-40.5 -10.5h-37q-27 0 -35 10q-5 7 -5 20q0 8 2 18l127 598q6 27 19 37.5t40 10.5h37q29 0 36 -11q4 -6 4 -16q0 -9 -3 -21zM547 862l-240 -106h-67q-12 0 -16 6v2q0 5 8 12l150 109h161q9 0 13 -5q2 -2 2 -6q0 -2 -1 -4q-2 -5 -10 -8z" />
<glyph unicode="&#x13b;" horiz-adv-x="581" d="M544 48q-5 -27 -17.5 -37.5t-40.5 -10.5h-347q-27 0 -35 10q-5 7 -5 20q0 8 2 18l127 598q6 27 19 37.5t40 10.5h51q29 0 36 -11q4 -6 4 -16q0 -9 -3 -21l-116 -545l250 4q21 0 31 -7q9 -7 9 -17q0 -5 -3 -24zM312 -173q-4 -18 -14 -29l-63 -75q-9 -11 -13 -13t-18 -2 h-11q-9 0 -12.5 0.5t-6.5 3t-2 7.5l23 41q5 7 13 22l12 21q-22 0 -26 3.5t0 20.5l15 70q4 17 8 20.5t21 3.5h70q17 0 20 -3q1 -2 1 -6q0 -5 -2 -15z" />
<glyph unicode="&#x13c;" horiz-adv-x="256" d="M204 48q-5 -27 -17.5 -37.5t-40.5 -10.5h-37q-27 0 -35 10q-5 7 -5 20q0 8 2 18l127 598q6 27 19 37.5t40 10.5h37q29 0 36 -11q4 -6 4 -16q0 -9 -3 -21zM150 -173q-4 -18 -14 -29l-63 -75q-9 -11 -13 -13t-18 -2h-11q-9 0 -12.5 0.5t-6.5 3t-2 7.5l23 41q5 7 13 22 l12 21q-22 0 -26 3.5t0 20.5l15 70q4 17 8 20.5t21 3.5h70q17 0 20 -3q1 -2 1 -6q0 -5 -2 -15z" />
<glyph unicode="&#x13d;" horiz-adv-x="581" d="M544 48q-5 -27 -17.5 -37.5t-40.5 -10.5h-347q-27 0 -35 10q-5 7 -5 20q0 8 2 18l127 598q6 27 19 37.5t40 10.5h51q29 0 36 -11q4 -6 4 -16q0 -9 -3 -21l-116 -545l250 4q21 0 31 -7.5t9 -18t-3 -22.5zM545 600q-5 -18 -15 -29l-62 -75q-10 -11 -14 -13t-18 -2h-11 q-20 0 -21 7q0 2 1 4l22 41q5 7 13 21.5t13 21.5q-22 0 -26 3.5t0 20.5l15 70q3 17 7.5 20.5t21.5 3.5h70q17 0 19 -4q2 -1 2 -5q0 -6 -2 -15z" />
<glyph unicode="&#x13e;" horiz-adv-x="256" d="M204 48q-5 -27 -17.5 -37.5t-40.5 -10.5h-37q-27 0 -35 10q-5 7 -5 20q0 8 2 18l127 598q6 27 19 37.5t40 10.5h37q29 0 36 -11q4 -6 4 -16q0 -9 -3 -21zM481 600q-5 -18 -15 -29l-62 -75q-10 -11 -14 -13t-18 -2h-11q-20 0 -21 7q0 2 1 4l22 41q5 7 13 21.5t13 21.5 q-22 0 -26 3.5t0 20.5l15 70q3 17 7.5 20.5t21.5 3.5h70q17 0 19 -4q2 -1 2 -5q0 -6 -2 -15z" />
<glyph unicode="&#x13f;" horiz-adv-x="581" d="M544 48q-5 -27 -17.5 -37.5t-40.5 -10.5h-347q-27 0 -35 10q-5 7 -5 20q0 8 2 18l127 598q6 27 19 37.5t40 10.5h51q29 0 36 -11q4 -6 4 -16q0 -9 -3 -21l-116 -545l250 4q21 0 31 -7.5t9 -18t-3 -22.5zM604 359q-5 -25 -17 -36.5t-41 -11.5h-51q-30 0 -37 11q-3 7 -3 18 q0 8 2 19l4 19q6 27 18.5 37.5t40.5 10.5h51q29 0 36 -11q4 -6 4 -16q0 -9 -3 -21z" />
<glyph unicode="&#x140;" horiz-adv-x="425" d="M204 48q-5 -27 -17.5 -37.5t-40.5 -10.5h-37q-27 0 -35 10q-5 7 -5 20q0 8 2 18l127 598q6 27 19 37.5t40 10.5h37q29 0 36 -11q4 -6 4 -16q0 -9 -3 -21zM489 359q-5 -25 -17 -36.5t-41 -11.5h-51q-30 0 -36 11q-4 7 -4 18q0 8 2 19l4 19q6 27 18.5 37.5t40.5 10.5h51 q29 0 36 -11q4 -6 4 -16q0 -9 -3 -21z" />
<glyph unicode="&#x141;" horiz-adv-x="672" d="M636 48q-5 -27 -17.5 -37.5t-40.5 -10.5h-347q-27 0 -35 10q-5 7 -5 20q0 8 2 18l42 195l-56 -38q-10 -7 -19 -7q-10 0 -17 12l-19 34q-4 6 -4 13q0 12 16 24l125 85l59 280q6 27 19 37.5t40 10.5h51q29 0 36 -11q4 -6 4 -16q0 -9 -3 -21l-35 -164l138 93q12 8 20 8 q11 0 17 -12l19 -33q4 -7 4 -13q0 -13 -16 -25l-208 -141l-55 -258l250 4q21 0 31 -7q9 -7 9 -17q0 -5 -3 -24z" />
<glyph unicode="&#x142;" horiz-adv-x="381" d="M482 541q4 -6 4 -14q0 -6 -2 -12q-5 -15 -19 -25l-130 -89l-75 -353q-5 -27 -17.5 -37.5t-40.5 -10.5h-37q-27 0 -35 10q-5 7 -5 20q0 8 2 18l53 247l-50 -34q-14 -10 -29 -8t-22 14q-4 7 -4 15q0 6 2 12q5 15 19 25l104 71l54 256q6 27 19 37.5t40 10.5h37q29 0 36 -11 q4 -6 4 -16q0 -9 -3 -21l-32 -150l75 51q13 8 25 8h5q14 -2 22 -14z" />
<glyph unicode="&#x143;" horiz-adv-x="794" d="M712 48q-5 -27 -17.5 -37.5t-40.5 -10.5h-93q-11 0 -17 1t-16 4t-17.5 12t-11.5 23l-162 533h-1l-112 -525q-5 -27 -17.5 -37.5t-40.5 -10.5h-27q-27 0 -35 10q-5 7 -5 20q0 8 2 18l127 598q6 27 19 37.5t40 10.5h93q11 0 17 -1t16 -4t17.5 -12t11.5 -23l162 -533h1 l111 525q6 27 18.5 37.5t40.5 10.5h27q29 0 36 -11q4 -6 4 -16q0 -9 -3 -21zM779 862l-240 -106h-67q-12 0 -16 6v2q0 5 8 12l150 109h161q9 0 13 -5q2 -2 2 -6q0 -2 -1 -4q-2 -5 -10 -8z" />
<glyph unicode="&#x144;" horiz-adv-x="561" d="M510 48q-5 -27 -17.5 -37.5t-40.5 -10.5h-40q-29 0 -36 11q-5 6 -5 17q0 8 3 20l59 275q5 19 5 33t-5 23q-9 18 -43 18q-43 0 -83.5 -33.5t-53.5 -94.5l-47 -221q-5 -27 -17.5 -37.5t-40.5 -10.5h-40q-27 0 -35 10q-5 7 -5 20q0 8 2 18l78 368q6 27 19 37.5t40 10.5h34 q29 0 36 -11q4 -6 4 -16q0 -9 -3 -21l-10 -50h1q15 21 33.5 40t61 41t90.5 22q77 0 104 -33q17 -22 17 -60q0 -22 -6 -51zM582 681q-2 -5 -14 -15l-187 -129h-37h-12q-3 0 -7 1.5t-5 3.5t-0.5 4t0.5 4q1 4 12 15l111 117q8 8 13 10t20 2h82h12q3 0 7 -1.5t5 -4.5v-2.5v-4.5z " />
<glyph unicode="&#x145;" horiz-adv-x="794" d="M712 48q-5 -27 -17.5 -37.5t-40.5 -10.5h-93q-11 0 -17 1t-16 4t-17.5 12t-11.5 23l-162 533h-1l-112 -525q-5 -27 -17.5 -37.5t-40.5 -10.5h-27q-27 0 -35 10q-5 7 -5 20q0 8 2 18l127 598q6 27 19 37.5t40 10.5h93q11 0 17 -1t16 -4t17.5 -12t11.5 -23l162 -533h1 l111 525q6 27 18.5 37.5t40.5 10.5h27q29 0 36 -11q4 -6 4 -16q0 -9 -3 -21zM419 -173q-4 -18 -14 -29l-63 -75q-9 -11 -13 -13t-18 -2h-11q-9 0 -12.5 0.5t-6.5 3t-2 7.5l23 41l12 22q8 14 13 21q-22 0 -26 3.5t0 20.5l15 70q4 17 8 20.5t21 3.5h70q17 0 20 -3q1 -2 1 -6 q0 -5 -2 -15z" />
<glyph unicode="&#x146;" horiz-adv-x="561" d="M510 48q-5 -27 -17.5 -37.5t-40.5 -10.5h-40q-29 0 -36 11q-5 6 -5 17q0 8 3 20l59 275q5 19 5 33t-5 23q-9 18 -43 18q-43 0 -83.5 -33.5t-53.5 -94.5l-47 -221q-5 -27 -17.5 -37.5t-40.5 -10.5h-40q-27 0 -35 10q-5 7 -5 20q0 8 2 18l78 368q6 27 19 37.5t40 10.5h34 q29 0 36 -11q4 -6 4 -16q0 -9 -3 -21l-10 -50h1q15 21 33.5 40t61 41t90.5 22q77 0 104 -33q17 -22 17 -60q0 -22 -6 -51zM303 -173q-4 -18 -14 -29l-63 -75q-9 -11 -13 -13t-18 -2h-11q-9 0 -12.5 0.5t-6.5 3t-2 7.5l23 41l12 22q8 14 13 21q-22 0 -26 3.5t0 20.5l15 70 q4 17 8 20.5t21 3.5h70q17 0 20 -3q1 -2 1 -6q0 -5 -2 -15z" />
<glyph unicode="&#x147;" horiz-adv-x="794" d="M712 48q-5 -27 -17.5 -37.5t-40.5 -10.5h-93q-11 0 -17 1t-16 4t-17.5 12t-11.5 23l-162 533h-1l-112 -525q-5 -27 -17.5 -37.5t-40.5 -10.5h-27q-27 0 -35 10q-5 7 -5 20q0 8 2 18l127 598q6 27 19 37.5t40 10.5h93q11 0 17 -1t16 -4t17.5 -12t11.5 -23l162 -533h1 l111 525q6 27 18.5 37.5t40.5 10.5h27q29 0 36 -11q4 -6 4 -16q0 -9 -3 -21zM750 853l-132 -104q-3 -3 -9 -3h-111q-4 0 -7 3l-86 102q-2 3 -2.5 6t2.5 7q5 9 13 9h47l5 -1l95 -81l129 81l5 1h47q5 0 8 -3q2 -3 2 -7q0 -6 -6 -10z" />
<glyph unicode="&#x148;" horiz-adv-x="561" d="M510 48q-5 -27 -17.5 -37.5t-40.5 -10.5h-40q-29 0 -36 11q-5 6 -5 17q0 8 3 20l59 275q5 19 5 33t-5 23q-9 18 -43 18q-43 0 -83.5 -33.5t-53.5 -94.5l-47 -221q-5 -27 -17.5 -37.5t-40.5 -10.5h-40q-27 0 -35 10q-5 7 -5 20q0 8 2 18l78 368q6 27 19 37.5t40 10.5h34 q29 0 36 -11q4 -6 4 -16q0 -9 -3 -21l-10 -50h1q15 21 33.5 40t61 41t90.5 22q77 0 104 -33q17 -22 17 -60q0 -22 -6 -51zM587 678l-127 -139q-4 -4 -10 -4h-111q-7 0 -8 4l-67 137q-1 2 -1 4q0 5 3 10q6 7 13 7h47q4 -1 6 -2l76 -101l120 101l6 2h47q7 0 9 -7q1 -1 1 -3 q0 -5 -4 -9z" />
<glyph unicode="&#x14a;" horiz-adv-x="794" d="M777 347q-28 -134 -110 -238.5t-189 -125.5q-4 -1 -8 -1q-13 0 -21 10q-8 9 -8 21q0 5 1 10l10 46q6 31 56 56q81 39 121 222q15 69 15 117q0 116 -84 116q-70 0 -133.5 -34t-91.5 -90l-87 -408q-5 -27 -17.5 -37.5t-40.5 -10.5h-51q-27 0 -35 10q-5 7 -5 20q0 8 2 18 l127 598q6 27 19 37.5t40 10.5h51q25 0 33 -8t6 -26q101 56 212 56q61 0 106 -31t66 -83t27 -118q2 -17 2 -35q0 -50 -13 -102z" />
<glyph unicode="&#x14b;" horiz-adv-x="561" d="M510 48q-18 -85 -72.5 -153t-124.5 -87q-5 -1 -10 -1q-11 0 -19 8q-9 9 -9 22q0 5 1 10l2 9l54 69q23 30 42 123l59 275q5 19 5 33t-5 23q-9 18 -43 18q-43 0 -83.5 -33.5t-53.5 -94.5l-47 -221q-5 -27 -17.5 -37.5t-40.5 -10.5h-40q-27 0 -35 10q-5 7 -5 20q0 8 2 18 l78 368q6 27 19 37.5t40 10.5h34q29 0 36 -11q4 -6 4 -16q0 -9 -3 -21l-10 -50h1q15 21 33.5 40t61 41t90.5 22q77 0 104 -33q17 -22 17 -60q0 -22 -6 -51z" />
<glyph unicode="&#x14c;" horiz-adv-x="794" d="M805 342q-78 -364 -414 -364q-272 0 -272 239q0 56 15 125q80 374 415 374q271 0 271 -246q0 -57 -15 -128zM661 358q6 28 9 44.5t6 49.5q3 21 3 37q0 10 -1 17q-2 22 -10 49.5t-24 43.5t-44.5 27.5t-67.5 11.5t-72 -11.5t-56 -28t-42.5 -44t-31 -49t-22 -54.5t-14.5 -49 t-10 -44q-6 -29 -9 -46t-7 -52q-3 -26 -3 -46q0 -7 1 -13q1 -23 8.5 -53t23.5 -47.5t44 -30t67 -12.5t72.5 12.5t56.5 30.5t43 47.5t32 53t23 58.5t15 52zM764 793q-4 -20 -8.5 -23.5t-23.5 -3.5h-343q-20 0 -23 4q-1 2 -1 6q0 6 2 17l7 31q5 20 9.5 23.5t23.5 3.5h343 q20 0 22 -3q1 -2 1 -6q0 -6 -2 -18z" />
<glyph unicode="&#x14d;" d="M566 225q-50 -236 -294 -236q-202 0 -202 161q0 34 9 75q53 250 297 250q199 0 199 -168q0 -37 -9 -82zM432 237q7 31 10 48t3 43t-8 40t-27 24.5t-50 10.5t-54.5 -11t-37 -24.5t-25 -40t-15.5 -42.5t-11 -48q-6 -27 -8.5 -41t-4.5 -38q-1 -8 -1 -15q0 -13 3 -22 q4 -13 12.5 -27t26.5 -20.5t44 -6.5q38 0 64.5 14t42 43t22 51.5t14.5 61.5zM602 600q-5 -20 -9.5 -23.5t-23.5 -3.5h-343q-20 0 -22 3q-1 2 -1 6q0 6 2 18l6 31q5 20 9.5 23.5t23.5 3.5h343q20 0 23 -4v-5q0 -6 -2 -18z" />
<glyph unicode="&#x14e;" horiz-adv-x="794" d="M805 342q-78 -364 -414 -364q-272 0 -272 239q0 56 15 125q80 374 415 374q271 0 271 -246q0 -57 -15 -128zM661 358q6 28 9 44.5t6 49.5q3 21 3 37q0 10 -1 17q-2 22 -10 49.5t-24 43.5t-44.5 27.5t-67.5 11.5t-72 -11.5t-56 -28t-42.5 -44t-31 -49t-22 -54.5t-14.5 -49 t-10 -44q-6 -29 -9 -46t-7 -52q-3 -26 -3 -46q0 -7 1 -13q1 -23 8.5 -53t23.5 -47.5t44 -30t67 -12.5t72.5 12.5t56.5 30.5t43 47.5t32 53t23 58.5t15 52zM769 860q-22 -104 -211 -104q-18 0 -30 0.5t-37 3t-41.5 9.5t-33.5 17.5t-23 29.5q-3 10 -3 23q0 10 2 21 q3 18 16.5 28t27.5 10q6 0 11.5 -1.5t12 -10.5t4.5 -24q23 -13 114 -13q90 0 119 13q11 36 44 36q13 0 22 -10q7 -7 7 -19q0 -4 -1 -9z" />
<glyph unicode="&#x14f;" d="M566 225q-50 -236 -294 -236q-202 0 -202 161q0 34 9 75q53 250 297 250q199 0 199 -168q0 -37 -9 -82zM432 237q7 31 10 48t3 43t-8 40t-27 24.5t-50 10.5t-54.5 -11t-37 -24.5t-25 -40t-15.5 -42.5t-11 -48q-6 -27 -8.5 -41t-4.5 -38q-1 -8 -1 -15q0 -13 3 -22 q4 -13 12.5 -27t26.5 -20.5t44 -6.5q38 0 64.5 14t42 43t22 51.5t14.5 61.5zM602 649q-22 -104 -211 -104q-18 0 -30 0.5t-37 3t-41.5 9.5t-33.5 17.5t-23 29.5q-3 10 -3 23q0 10 2 21q3 18 16.5 28t27.5 10q4 0 8 -1t10 -4t9 -11t1 -20q24 -13 115 -13q90 0 118 13 q12 36 44 36q13 0 22 -10q7 -7 7 -18q0 -5 -1 -10z" />
<glyph unicode="&#x150;" horiz-adv-x="794" d="M805 342q-78 -364 -414 -364q-272 0 -272 239q0 56 15 125q80 374 415 374q271 0 271 -246q0 -57 -15 -128zM661 358q6 28 9 44.5t6 49.5q3 21 3 37q0 10 -1 17q-2 22 -10 49.5t-24 43.5t-44.5 27.5t-67.5 11.5t-72 -11.5t-56 -28t-42.5 -44t-31 -49t-22 -54.5t-14.5 -49 t-10 -44q-6 -29 -9 -46t-7 -52q-3 -26 -3 -46q0 -7 1 -13q1 -23 8.5 -53t23.5 -47.5t44 -30t67 -12.5t72.5 12.5t56.5 30.5t43 47.5t32 53t23 58.5t15 52zM587 900q-1 -4 -11 -16l-98 -114q-9 -10 -13.5 -12t-19.5 -2h-18q-10 0 -14.5 0.5t-7.5 3.5t-2 10l44 122 q6 15 11.5 18t22.5 3h82h11q4 0 8 -1.5t5 -4t0 -7.5zM770 900q-1 -4 -11 -16l-98 -114q-9 -10 -13.5 -12t-19.5 -2h-18q-10 0 -14.5 0.5t-7.5 3.5t-2 10l44 122q6 15 11 18t23 3h82h12q3 0 7 -1.5t5 -3.5v-4v-4z" />
<glyph unicode="&#x151;" d="M566 225q-50 -236 -294 -236q-202 0 -202 161q0 34 9 75q53 250 297 250q199 0 199 -168q0 -37 -9 -82zM432 237q7 31 10 48t3 43t-8 40t-27 24.5t-50 10.5t-54.5 -11t-37 -24.5t-25 -40t-15.5 -42.5t-11 -48q-6 -27 -8.5 -41t-4.5 -38q-1 -8 -1 -15q0 -13 3 -22 q4 -13 12.5 -27t26.5 -20.5t44 -6.5q38 0 64.5 14t42 43t22 51.5t14.5 61.5zM419 681q-1 -4 -12 -16l-98 -114q-9 -10 -13.5 -12t-19.5 -2h-18q-10 0 -14.5 0.5t-7.5 3.5t-2 10l45 122q6 15 11.5 18t22.5 3h82h11q4 0 8 -1.5t5 -4t0 -7.5zM602 681q-1 -4 -12 -16l-98 -114 q-9 -10 -13.5 -12t-19.5 -2h-18q-10 0 -14.5 0.5t-7.5 3.5t-2 10l45 122q6 15 11 18t23 3h82h12q3 0 7 -1.5t5 -4.5v-2.5v-4.5z" />
<glyph unicode="&#x152;" horiz-adv-x="1069" d="M1032 48q-5 -27 -17.5 -37.5t-40.5 -10.5h-382q-36 0 -97 -11q-70 -11 -109 -11q-183 0 -252 94q-44 60 -44 155q0 52 13 115q78 374 441 374q38 0 91 -10q72 -12 105 -12h367q29 0 36 -11q4 -6 4 -16q0 -9 -3 -21l-1 -8q-5 -23 -16 -34t-21 -12.5t-32 -1.5l-234 3h-50 l-40 -187h264q27 0 36 -10q4 -6 4 -18q0 -8 -2 -19q-6 -28 -19 -37.5t-39 -9.5h-264l-43 -206l147 2l155 2q21 0 30 -1.5t15 -12.5q3 -6 3 -16q0 -8 -2 -18zM569 235l24 112q37 174 39 205q1 9 1 17q0 40 -17 56q-19 19 -79 19q-63 0 -113 -22.5t-78 -52t-50 -74.5 t-30 -72.5t-16 -63.5q-15 -69 -15 -123q0 -186 177 -186q76 0 103.5 34.5t53.5 150.5z" />
<glyph unicode="&#x153;" horiz-adv-x="856" d="M879 261q-6 -28 -19 -37.5t-39 -9.5h-250q-5 -37 -5 -69v-6q1 -34 24 -56t68 -22q82 0 151 58q13 10 18 10q7 0 8 -4.5t0 -27.5q-5 -41 -6 -44q0 -3 -0.5 -4.5t-2.5 -4t-6 -4.5l-9 -6q-6 -3 -15 -7q-77 -38 -158 -38q-113 0 -169 58q-74 -58 -193 -58q-121 0 -172 61 q-33 39 -33 106q0 35 9 76q52 243 299 243q116 0 168 -56q72 56 181 56q99 0 136 -56q23 -35 23 -88q0 -32 -8 -70zM767 267q3 20 4.5 31t2.5 30q1 6 1 11q0 11 -2 18q-3 11 -9.5 23t-19 17.5t-31.5 5.5q-94 0 -129 -136h183zM440 237q5 24 7.5 38t4.5 37q1 6 1 12 q0 14 -3 24q-5 13 -13.5 27.5t-27.5 21t-46 6.5q-33 0 -59 -11.5t-40 -25.5t-26 -41t-16 -43l-11 -46q-4 -22 -6.5 -33t-4.5 -33q-1 -12 -1 -21q0 -7 1 -13q1 -12 6 -28.5t15 -25t27.5 -15t41.5 -6.5q32 0 57.5 12t40 27.5t26 43.5t16 45.5t10.5 47.5z" />
<glyph unicode="&#x154;" horiz-adv-x="703" d="M659 30q-3 -14 -10 -21t-13.5 -8t-19.5 -1h-59q-13 0 -19 1t-12.5 6t-10.5 17l-103 287h-111l-56 -263q-5 -27 -17.5 -37.5t-40.5 -10.5h-48q-27 0 -35 10q-5 7 -5 20q0 8 2 18l127 598q6 27 19 37.5t40 10.5h240q192 0 221 -112q4 -18 4 -38q0 -22 -5 -47 q-30 -139 -196 -177zM607 496q4 20 4 36q0 30 -14 48q-22 28 -103 28h-130l-48 -225h130q84 0 117 29.5t44 83.5zM734 862l-240 -106h-67q-12 0 -15 6q-1 1 -1 2q0 5 8 12l150 109h161q9 0 12 -5q3 -2 3 -6q0 -2 -1 -4q-2 -5 -10 -8z" />
<glyph unicode="&#x155;" horiz-adv-x="372" d="M440 395q-4 -19 -8 -22.5t-18 -4.5q-56 -4 -106.5 -38.5t-64.5 -99.5l-39 -182q-5 -27 -17.5 -37.5t-40.5 -10.5h-37q-27 0 -35 10q-5 7 -5 20q0 8 2 18l78 368q6 27 19 37.5t40 10.5h32q29 0 36 -11q4 -6 4 -16q0 -9 -3 -21l-13 -65h1q25 38 52 63.5t51 36.5t40 14.5 t30 3.5q12 0 14 -6q1 -2 1 -5q0 -6 -3 -16zM440 681q-2 -5 -14 -15l-187 -129h-37h-12q-3 0 -7 1.5t-5 3.5v4v4q1 4 12 15l111 117q8 8 13 10t20 2h82h12q3 0 7 -1.5t5 -4.5q1 -1 0.5 -2.5t-0.5 -4.5z" />
<glyph unicode="&#x156;" horiz-adv-x="703" d="M659 30q-3 -14 -10 -21t-13.5 -8t-19.5 -1h-59q-13 0 -19 1t-12.5 6t-10.5 17l-103 287h-111l-56 -263q-5 -27 -17.5 -37.5t-40.5 -10.5h-48q-27 0 -35 10q-5 7 -5 20q0 8 2 18l127 598q6 27 19 37.5t40 10.5h240q192 0 221 -112q4 -18 4 -38q0 -22 -5 -47 q-30 -139 -196 -177zM607 496q4 20 4 36q0 30 -14 48q-22 28 -103 28h-130l-48 -225h130q84 0 117 29.5t44 83.5zM373 -173q-4 -18 -14 -29l-63 -75q-9 -11 -13 -13t-18 -2h-11q-9 0 -12.5 0.5t-6.5 3t-2 7.5l23 41l12 22q8 14 13 21q-22 0 -26 3.5t0 20.5l15 70 q4 17 8 20.5t21 3.5h70q17 0 20 -3q1 -2 1 -6q0 -5 -2 -15z" />
<glyph unicode="&#x157;" horiz-adv-x="372" d="M440 395q-4 -19 -8 -22.5t-18 -4.5q-56 -4 -106.5 -38.5t-64.5 -99.5l-39 -182q-5 -27 -17.5 -37.5t-40.5 -10.5h-37q-27 0 -35 10q-5 7 -5 20q0 8 2 18l78 368q6 27 19 37.5t40 10.5h32q29 0 36 -11q4 -6 4 -16q0 -9 -3 -21l-13 -65h1q25 38 52 63.5t51 36.5t40 14.5 t30 3.5q12 0 14 -6q1 -2 1 -5q0 -6 -3 -16zM150 -173q-4 -18 -14 -29l-63 -75q-9 -11 -13 -13t-18 -2h-11q-9 0 -12.5 0.5t-6.5 3t-2 7.5l23 41q5 7 13 22l12 21q-22 0 -26 3.5t0 20.5l15 70q4 17 8 20.5t21 3.5h70q17 0 20 -3q1 -2 1 -6q0 -5 -2 -15z" />
<glyph unicode="&#x158;" horiz-adv-x="703" d="M659 30q-3 -14 -10 -21t-13.5 -8t-19.5 -1h-59q-13 0 -19 1t-12.5 6t-10.5 17l-103 287h-111l-56 -263q-5 -27 -17.5 -37.5t-40.5 -10.5h-48q-27 0 -35 10q-5 7 -5 20q0 8 2 18l127 598q6 27 19 37.5t40 10.5h240q192 0 221 -112q4 -18 4 -38q0 -22 -5 -47 q-30 -139 -196 -177zM607 496q4 20 4 36q0 30 -14 48q-22 28 -103 28h-130l-48 -225h130q84 0 117 29.5t44 83.5zM705 853l-132 -104q-3 -3 -9 -3h-111q-4 0 -7 3l-86 102q-2 3 -2 6t2 7q5 9 13 9h47l5 -1l95 -81l129 81l5 1h47q5 0 8 -3q2 -3 2 -7q0 -6 -6 -10z" />
<glyph unicode="&#x159;" horiz-adv-x="372" d="M440 395q-4 -19 -8 -22.5t-18 -4.5q-56 -4 -106.5 -38.5t-64.5 -99.5l-39 -182q-5 -27 -17.5 -37.5t-40.5 -10.5h-37q-27 0 -35 10q-5 7 -5 20q0 8 2 18l78 368q6 27 19 37.5t40 10.5h32q29 0 36 -11q4 -6 4 -16q0 -9 -3 -21l-13 -65h1q25 38 52 63.5t51 36.5t40 14.5 t30 3.5q12 0 14 -6t-2 -21zM492 678l-127 -139q-4 -4 -10 -4h-111q-7 0 -8 4l-67 137q-1 2 -1 4q0 5 4 10q5 7 12 7h47q4 -1 6 -2l76 -101l120 101l6 2h47q7 0 9 -7q1 -1 1 -3q0 -5 -4 -9z" />
<glyph unicode="&#x15a;" horiz-adv-x="611" d="M592 200q-24 -113 -99.5 -167.5t-192.5 -54.5q-73 0 -142 23l-8 3l-20 8l-23 11.5t-23 12.5t-16 12t-6 11q0 4 5 14l33 87q7 18 18 18q6 0 15 -12q72 -79 190 -79q119 0 140 97q2 10 2 19q0 27 -18 50q-12 14 -29.5 20.5t-62.5 17.5q-48 12 -68 18t-46 21.5t-45 40.5 q-32 42 -32 95q0 20 5 42q44 208 288 208q100 0 173 -40q17 -10 19.5 -13t1.5 -9q-3 -9 -5 -13l-33 -87q-7 -18 -18 -18q-4 0 -18 16q-48 61 -142 61q-119 0 -137 -87q-2 -9 -2 -18q0 -24 18 -40q24 -21 50 -27l91 -22q74 -18 114 -78q28 -42 28 -95q0 -22 -5 -46zM688 862 l-240 -106h-67q-12 0 -15 6q-1 1 -1 2q0 5 8 12l150 109h161q9 0 12 -5q3 -2 3 -6q0 -2 -1 -4q-2 -5 -10 -8z" />
<glyph unicode="&#x15b;" horiz-adv-x="422" d="M426 141q-32 -152 -209 -152q-58 0 -110 17q-1 1 -3.5 1.5t-10 3.5t-14 6t-14 7t-13 8t-8.5 8q-3 3 -3 6t7 23l14 36l10 24q8 15 17 15q6 0 12 -8q43 -69 132 -69q79 0 90 54q3 15 -2 26.5t-18.5 17.5t-23 8.5t-24.5 5.5q-35 7 -51 11t-36 14t-33 25q-30 33 -30 75 q0 14 3 28q30 143 209 143q55 0 95 -12q1 0 6.5 -2t10.5 -3.5t11 -4.5l12 -5q5 -3 9.5 -6t6.5 -6.5t1 -6.5q0 -2 -6 -17t-12.5 -33t-7.5 -19q-7 -13 -16 -13q-6 0 -14 10q-45 47 -119 47q-72 0 -83 -49q-1 -5 -1 -9q0 -12 8 -21q12 -12 27.5 -16.5t48.5 -10.5q27 -5 40 -8.5 t32 -14t35 -27.5q29 -32 29 -75q0 -15 -4 -32zM512 681q-2 -5 -14 -15l-187 -129h-37h-12q-3 0 -7 1.5t-5 3.5v4v4q1 4 12 15l111 117q8 8 13 10t20 2h82h12q3 0 7 -1.5t5 -4.5v-2.5v-4.5z" />
<glyph unicode="&#x15c;" horiz-adv-x="611" d="M592 200q-24 -113 -99.5 -167.5t-192.5 -54.5q-73 0 -142 23l-8 3l-20 8l-23 11.5t-23 12.5t-16 12t-6 11q0 4 5 14l33 87q7 18 18 18q6 0 15 -12q72 -79 190 -79q119 0 140 97q2 10 2 19q0 27 -18 50q-12 14 -29.5 20.5t-62.5 17.5q-48 12 -68 18t-46 21.5t-45 40.5 q-32 42 -32 95q0 20 5 42q44 208 288 208q100 0 173 -40q17 -10 20 -13q1 -2 1 -6q0 -5 -5 -16l-33 -87q-7 -18 -18 -18q-4 0 -18 16q-48 61 -142 61q-119 0 -137 -87q-2 -9 -2 -18q0 -24 18 -40q24 -21 50 -27l91 -22q74 -18 114 -78q28 -42 28 -95q0 -22 -5 -46zM641 768 q2 -2 2 -6q0 -3 -3 -8q-5 -8 -13 -8h-47l-4 1l-95 81l-129 -81l-6 -1h-47q-5 0 -7 4q-2 2 -2 5q0 7 6 11l132 104q3 3 8 3h111q5 0 8 -3z" />
<glyph unicode="&#x15d;" horiz-adv-x="422" d="M426 141q-32 -152 -209 -152q-58 0 -110 17q-1 1 -3.5 1.5t-10 3.5t-14 6t-14 7t-13 8t-8.5 8q-3 3 -3 6t7 23l14 36l10 24q8 15 17 15q6 0 12 -8q43 -69 132 -69q79 0 90 54q3 15 -2 26.5t-18.5 17.5t-23 8.5t-24.5 5.5q-35 7 -51 11t-36 14t-33 25q-30 33 -30 75 q0 14 3 28q30 143 209 143q55 0 95 -12q1 0 6.5 -2t10.5 -3.5t11 -4.5l12 -5q5 -3 9.5 -6t6.5 -6.5t1 -6.5q0 -2 -6 -17t-12.5 -33t-7.5 -19q-7 -13 -16 -13q-6 0 -14 10q-45 47 -119 47q-72 0 -83 -49q-1 -5 -1 -9q0 -12 8 -21q12 -12 27.5 -16.5t48.5 -10.5q27 -5 40 -8.5 t32 -14t35 -27.5q29 -32 29 -75q0 -15 -4 -32zM491 556q1 -2 1 -4q0 -4 -4 -10q-5 -7 -12 -7h-47q-4 1 -6 2l-76 101l-120 -101l-6 -2h-47q-7 0 -9 7q-1 1 -1 3q0 5 4 9l127 139q4 4 10 4h111q7 0 8 -4z" />
<glyph unicode="&#x15e;" horiz-adv-x="611" d="M592 200q-24 -113 -99.5 -167.5t-192.5 -54.5q-73 0 -142 23l-8 3l-20 8l-23 11.5t-23 12.5t-16 12t-6 11q0 4 5 14l33 87q7 18 18 18q6 0 15 -12q72 -79 190 -79q119 0 140 97q2 10 2 19q0 27 -18 50q-12 14 -29.5 20.5t-62.5 17.5q-48 12 -68 18t-46 21.5t-45 40.5 q-32 42 -32 95q0 20 5 42q44 208 288 208q100 0 173 -40q17 -10 20 -13q1 -2 1 -6q0 -5 -5 -16l-33 -87q-7 -18 -18 -18q-4 0 -18 16q-48 61 -142 61q-119 0 -137 -87q-2 -9 -2 -18q0 -24 18 -40q24 -21 50 -27l91 -22q74 -18 114 -78q28 -42 28 -95q0 -22 -5 -46zM346 -59 q0 -3 -8 -16l-77 -121q-8 -13 -12.5 -15.5t-21.5 -2.5h-50q-10 0 -14.5 0.5t-7.5 3.5q-2 2 -2 6q0 9 113 137q13 15 18 18t21 3h18h11q3 0 7 -1.5t5 -4.5q1 -1 0.5 -2.5t-0.5 -4.5z" />
<glyph unicode="&#x15f;" horiz-adv-x="422" d="M426 141q-32 -152 -209 -152q-58 0 -110 17q-1 1 -3.5 1.5t-10 3.5t-14 6t-14 7t-13 8t-8.5 8q-3 3 -3 6t7 23l14 36l10 24q8 15 17 15q6 0 12 -8q43 -69 132 -69q79 0 90 54q3 15 -2 26.5t-18.5 17.5t-23 8.5t-24.5 5.5q-35 7 -51 11t-36 14t-33 25q-30 33 -30 75 q0 14 3 28q30 143 209 143q55 0 95 -12q1 0 6.5 -2t10.5 -3.5t11 -4.5l12 -5q5 -3 9.5 -6t6.5 -6q1 -3 1 -5q0 -3 -6 -19q-6 -15 -12.5 -33t-7.5 -19q-7 -13 -16 -13q-6 0 -14 10q-45 47 -119 47q-72 0 -83 -49q-1 -5 -1 -9q0 -12 8 -21q12 -12 27.5 -16.5t48.5 -10.5 q27 -5 40 -8.5t32 -14t35 -27.5q29 -32 29 -75q0 -15 -4 -32zM251 -59q0 -3 -8 -16l-77 -121q-8 -13 -12.5 -15.5t-21.5 -2.5h-50q-10 0 -14.5 0.5t-7.5 3.5q-2 2 -2 6q0 9 113 137q13 15 18 18t21 3h18h11q3 0 7 -1.5t5 -4.5q0 -1 0.5 -2.5t-0.5 -4.5z" />
<glyph unicode="&#x160;" horiz-adv-x="611" d="M592 200q-24 -113 -99.5 -167.5t-192.5 -54.5q-73 0 -142 23l-8 3l-20 8l-23 11.5t-23 12.5t-16 12t-6 11q0 4 5 14l33 87q7 18 18 18q6 0 15 -12q72 -79 190 -79q119 0 140 97q2 10 2 19q0 27 -18 50q-12 14 -29.5 20.5t-62.5 17.5q-48 12 -68 18t-46 21.5t-45 40.5 q-32 42 -32 95q0 20 5 42q44 208 288 208q100 0 173 -40q17 -10 19.5 -13t1.5 -9q-3 -9 -5 -13l-33 -87q-7 -18 -18 -18q-4 0 -18 16q-48 61 -142 61q-119 0 -137 -87q-2 -9 -2 -18q0 -24 18 -40q24 -21 50 -27l91 -22q74 -18 114 -78q28 -42 28 -95q0 -22 -5 -46zM659 853 l-132 -104q-3 -3 -9 -3h-111q-4 0 -7 3l-86 102q-2 3 -2 6t2 7q5 9 13 9h47l5 -1l95 -81l129 81l5 1h47q5 0 8 -3q2 -3 2 -7q0 -6 -6 -10z" />
<glyph unicode="&#x161;" horiz-adv-x="422" d="M426 141q-32 -152 -209 -152q-58 0 -110 17q-1 1 -3.5 1.5t-10 3.5t-14 6t-14 7t-13 8t-8.5 8q-3 3 -3 6t7 23l14 36l10 24q8 15 17 15q6 0 12 -8q43 -69 132 -69q79 0 90 54q3 15 -2 26.5t-18.5 17.5t-23 8.5t-24.5 5.5q-35 7 -51 11t-36 14t-33 25q-30 33 -30 75 q0 14 3 28q30 143 209 143q55 0 95 -12q1 0 6.5 -2t10.5 -3.5t11 -4.5l12 -5q5 -3 9.5 -6t6.5 -6.5t1 -6.5q0 -2 -6 -17t-12.5 -33t-7.5 -19q-7 -13 -16 -13q-6 0 -14 10q-45 47 -119 47q-72 0 -83 -49q-1 -5 -1 -9q0 -12 8 -21q12 -12 27.5 -16.5t48.5 -10.5q27 -5 40 -8.5 t32 -14t35 -27.5q29 -32 29 -75q0 -15 -4 -32zM517 678l-127 -139q-4 -4 -10 -4h-111q-7 0 -8 4l-67 137q-1 2 -1 4q0 5 3 10q6 7 13 7h47q4 -1 6 -2l76 -101l120 101l6 2h47q7 0 9 -7q1 -1 1 -3q0 -5 -4 -9z" />
<glyph unicode="&#x162;" horiz-adv-x="733" d="M826 632q-5 -23 -15.5 -34t-19.5 -12.5t-27 -1.5l-199 3l-115 -539q-5 -27 -17.5 -37.5t-40.5 -10.5h-51q-27 0 -35 10q-5 7 -5 20q0 8 2 18l115 539l-202 -3q-18 0 -26.5 1.5t-14.5 12.5q-3 6 -3 16q0 8 2 18l2 8q6 28 18.5 38t39.5 10h556q29 0 36 -11q5 -6 5 -17 q0 -8 -3 -20zM385 -53l-76 -121q-9 -13 -13.5 -15.5t-21.5 -2.5h-50q-10 0 -14.5 0.5t-7.5 3.5q-2 2 -2 6v3q3 10 113 134q13 15 18 18t21 3h18q10 0 14.5 -0.5t7.5 -3.5q2 -2 2 -6t-9 -19z" />
<glyph unicode="&#x163;" horiz-adv-x="404" d="M383 47q-4 -20 -84 -42q-55 -16 -108 -16q-82 0 -82 87q0 25 7 57l54 253h-20q-11 0 -18.5 1t-16.5 10t-5 25q7 36 55 36h23l18 83q6 28 18.5 38t39.5 10h31q29 0 37 -11q4 -6 4 -17q0 -8 -3 -20l-18 -83h89q42 0 42 -27q0 -4 -1 -9q-8 -36 -56 -36h-89l-50 -236 q-6 -31 -6 -49q0 -11 2 -17q6 -17 25 -17q38 0 87 30q8 7 13 7q10 0 11 -26q1 -30 1 -31zM244 -53l-76 -121q-9 -13 -13.5 -15.5t-21.5 -2.5h-50q-10 0 -14.5 0.5t-7.5 3.5q-2 2 -2 6v3q3 10 113 134q13 15 18 18t21 3h18q10 0 14.5 -0.5t7.5 -3.5q2 -2 2 -6t-9 -19z" />
<glyph unicode="&#x164;" horiz-adv-x="733" d="M826 632q-5 -23 -15.5 -34t-19.5 -12.5t-27 -1.5l-199 3l-115 -539q-5 -27 -17.5 -37.5t-40.5 -10.5h-51q-27 0 -35 10q-5 7 -5 20q0 8 2 18l115 539l-202 -3q-18 0 -26.5 1.5t-14.5 12.5q-3 6 -3 16q0 8 2 18l2 8q6 28 18.5 38t39.5 10h556q29 0 36 -11q5 -6 5 -17 q0 -8 -3 -20zM720 853l-132 -104q-3 -3 -9 -3h-111q-4 0 -7 3l-86 102q-2 3 -2.5 6t2.5 7q5 9 13 9h47l5 -1l95 -81l129 81l5 1h47q5 0 8 -3q2 -3 2 -7q0 -6 -6 -10z" />
<glyph unicode="&#x165;" horiz-adv-x="404" d="M383 47q-4 -20 -84 -42q-55 -16 -108 -16q-82 0 -82 87q0 25 7 57l54 253h-20q-11 0 -18.5 1t-16.5 10q-6 6 -6 16q0 4 1 9q7 36 55 36h23l18 83q6 28 18.5 38t39.5 10h31q29 0 37 -11q4 -6 4 -17q0 -8 -3 -20l-18 -83h89q42 0 42 -27q0 -4 -1 -9q-8 -36 -56 -36h-89 l-50 -236q-6 -31 -6 -49q0 -11 2 -17q6 -17 25 -17q38 0 87 30q8 7 13 7q10 0 11 -26q1 -30 1 -31zM508 618q-4 -18 -14 -29l-63 -75q-9 -11 -13 -13t-18 -2h-11q-9 0 -12.5 0.5t-6.5 3t-2 7.5l23 41q5 7 13 21l12 22q-22 0 -26 3.5t0 20.5l15 70q4 17 8 20.5t21 3.5h70 q17 0 20 -4q1 -1 1 -5q0 -5 -2 -15z" />
<glyph unicode="&#x168;" horiz-adv-x="764" d="M721 229q-13 -62 -42.5 -109t-64.5 -73.5t-79 -42.5t-80.5 -21t-75.5 -5q-29 0 -55.5 3t-55.5 10t-50.5 19.5t-42 31.5t-30 45.5t-13.5 62.5v17q0 29 8 63l88 416q6 27 19 37.5t40 10.5h51q29 0 36 -11q4 -6 4 -16q0 -9 -3 -21l-89 -420q-8 -35 -8 -63q0 -36 14 -59 q24 -40 107 -40q86 0 127 41t58 122l89 419q6 27 18.5 37.5t40.5 10.5h40q29 0 36 -11q4 -6 4 -16q0 -9 -3 -21zM748 860q-9 -41 -47.5 -77.5t-87.5 -36.5q-43 0 -90 37q-24 22 -42 22q-33 0 -47 -44q-4 -11 -9.5 -13t-21.5 -2h-18q-16 0 -21 2q-3 2 -3 7q0 4 1 8 q8 41 46 77.5t88 36.5q46 0 90 -37q26 -22 43 -22q33 0 47 44q4 11 9 13t21 2h18q17 0 22 -3q3 -1 3 -8q0 -2 -1 -6z" />
<glyph unicode="&#x169;" horiz-adv-x="561" d="M510 48q-5 -27 -17.5 -37.5t-40.5 -10.5h-37q-29 0 -37 11q-4 6 -4 17q0 8 3 20l6 26q-65 -85 -163 -85q-83 0 -116 30q-22 20 -22 62q0 20 5 45l60 284q6 28 18.5 38t39.5 10h40q29 0 37 -11q4 -6 4 -17q0 -8 -3 -20l-62 -293q-5 -22 -5 -36q0 -11 4 -17q8 -14 49 -14 q51 0 86 35t46 88l50 237q6 27 18 37.5t40 10.5h40q29 0 37 -11q4 -6 4 -17q0 -8 -3 -20zM605 664q-8 -41 -46 -77.5t-88 -36.5q-43 0 -90 37q-26 22 -43 22q-33 0 -47 -44q-4 -11 -9 -13t-21 -2h-18q-16 0 -21 2q-3 2 -3 7q0 3 1 8q8 41 46 77.5t88 36.5q43 0 90 -37 q26 -22 42 -22q33 0 48 44q4 11 9 13t21 2h18q17 0 22 -3q2 -1 2 -6q0 -3 -1 -8z" />
<glyph unicode="&#x16a;" horiz-adv-x="764" d="M721 229q-13 -62 -42.5 -109t-64.5 -73.5t-79 -42.5t-80.5 -21t-75.5 -5q-29 0 -55.5 3t-55.5 10t-50.5 19.5t-42 31.5t-30 45.5t-13.5 62.5v17q0 29 8 63l88 416q6 27 19 37.5t40 10.5h51q29 0 36 -11q4 -6 4 -16q0 -9 -3 -21l-89 -420q-8 -35 -8 -63q0 -36 14 -59 q24 -40 107 -40q86 0 127 41t58 122l89 419q6 27 18.5 37.5t40.5 10.5h40q29 0 36 -11q4 -6 4 -16q0 -9 -3 -21zM749 793q-4 -20 -8.5 -23.5t-23.5 -3.5h-343q-20 0 -23 4q-1 2 -1 6q0 6 2 17l7 31q5 20 9.5 23.5t23.5 3.5h343q20 0 23 -3v-6q0 -6 -2 -18z" />
<glyph unicode="&#x16b;" horiz-adv-x="561" d="M510 48q-5 -27 -17.5 -37.5t-40.5 -10.5h-37q-29 0 -37 11q-4 6 -4 17q0 8 3 20l6 26q-65 -85 -163 -85q-83 0 -116 30q-22 20 -22 62q0 20 5 45l60 284q6 28 18.5 38t39.5 10h40q29 0 37 -11q4 -6 4 -17q0 -8 -3 -20l-62 -293q-5 -22 -5 -36q0 -11 4 -17q8 -14 49 -14 q51 0 86 35t46 88l50 237q6 27 18 37.5t40 10.5h40q29 0 37 -11q4 -6 4 -17q0 -8 -3 -20zM608 600q-5 -20 -9.5 -23.5t-23.5 -3.5h-343q-20 0 -22 3q-1 2 -1 6q0 6 2 18l6 31q5 20 9.5 23.5t23.5 3.5h343q20 0 23 -4v-5q0 -6 -2 -18z" />
<glyph unicode="&#x16c;" horiz-adv-x="764" d="M721 229q-13 -62 -42.5 -109t-64.5 -73.5t-79 -42.5t-80.5 -21t-75.5 -5q-29 0 -55.5 3t-55.5 10t-50.5 19.5t-42 31.5t-30 45.5t-13.5 62.5v17q0 29 8 63l88 416q6 27 19 37.5t40 10.5h51q29 0 36 -11q4 -6 4 -16q0 -9 -3 -21l-89 -420q-8 -35 -8 -63q0 -36 14 -59 q24 -40 107 -40q86 0 127 41t58 122l89 419q6 27 18.5 37.5t40.5 10.5h40q29 0 36 -11q4 -6 4 -16q0 -9 -3 -21zM754 860q-22 -104 -211 -104q-18 0 -30 0.5t-37 3t-41.5 9.5t-33.5 17.5t-23 29.5q-3 10 -3 23q0 10 2 21q3 18 16.5 28t27.5 10q6 0 11.5 -1.5t12 -10.5 t4.5 -24q23 -13 114 -13q90 0 119 13q11 36 44 36q13 0 22 -10q7 -7 7 -19q0 -4 -1 -9z" />
<glyph unicode="&#x16d;" horiz-adv-x="561" d="M510 48q-5 -27 -17.5 -37.5t-40.5 -10.5h-37q-29 0 -37 11q-4 6 -4 17q0 8 3 20l6 26q-65 -85 -163 -85q-83 0 -116 30q-22 20 -22 62q0 20 5 45l60 284q6 28 18.5 38t39.5 10h40q29 0 37 -11q4 -6 4 -17q0 -8 -3 -20l-62 -293q-5 -22 -5 -36q0 -11 4 -17q8 -14 49 -14 q51 0 86 35t46 88l50 237q6 27 18 37.5t40 10.5h40q29 0 37 -11q4 -6 4 -17q0 -8 -3 -20zM608 649q-22 -104 -211 -104q-18 0 -30 0.5t-37 3t-41.5 9.5t-33.5 17.5t-23 29.5q-3 10 -3 23q0 10 2 21q3 18 16.5 28t27.5 10q4 0 8 -1t10 -4t9 -11t1 -20q24 -13 115 -13 q90 0 118 13q12 36 44 36q13 0 22 -10q7 -7 7 -18q0 -5 -1 -10z" />
<glyph unicode="&#x16e;" horiz-adv-x="764" d="M721 229q-13 -62 -42.5 -109t-64.5 -73.5t-79 -42.5t-80.5 -21t-75.5 -5q-29 0 -55.5 3t-55.5 10t-50.5 19.5t-42 31.5t-30 45.5t-13.5 62.5v17q0 29 8 63l88 416q6 27 19 37.5t40 10.5h51q29 0 36 -11q4 -6 4 -16q0 -9 -3 -21l-89 -420q-8 -35 -8 -63q0 -36 14 -59 q24 -40 107 -40q86 0 127 41t58 122l89 419q6 27 18.5 37.5t40.5 10.5h40q29 0 36 -11q4 -6 4 -16q0 -9 -3 -21zM601 773q5 21 -7.5 27.5t-40.5 6.5q-30 0 -43.5 -6t-18.5 -28q-4 -21 8 -27.5t40 -6.5q30 0 44 6t18 28zM669 772q-17 -78 -140 -78q-14 0 -24 0.5t-29.5 4.5 t-31 12t-18.5 24q-5 10 -5 22q0 8 2 17q17 78 140 78q14 0 24 -0.5t29.5 -4.5t31 -12t18.5 -24q5 -10 5 -22q0 -8 -2 -17z" />
<glyph unicode="&#x16f;" horiz-adv-x="561" d="M510 48q-5 -27 -17.5 -37.5t-40.5 -10.5h-37q-29 0 -37 11q-4 6 -4 17q0 8 3 20l6 26q-65 -85 -163 -85q-83 0 -116 30q-22 20 -22 62q0 20 5 45l60 284q6 28 18.5 38t39.5 10h40q29 0 37 -11q4 -6 4 -17q0 -8 -3 -20l-62 -293q-5 -22 -5 -36q0 -11 4 -17q8 -14 49 -14 q51 0 86 35t46 88l50 237q6 27 18 37.5t40 10.5h40q29 0 37 -11q4 -6 4 -17q0 -8 -3 -20zM464 605q4 21 -8 27.5t-40 6.5q-30 0 -44 -6t-18 -28q-5 -21 7 -27.5t40 -6.5q30 0 44 6t19 28zM531 604q-16 -78 -139 -78q-14 0 -24 0.5t-29.5 4.5t-31 12t-19.5 24q-4 10 -4 22 q0 8 2 17q16 78 139 78q14 0 24 -0.5t29.5 -4.5t31 -12t18.5 -24q5 -10 5 -22q0 -8 -2 -17z" />
<glyph unicode="&#x170;" horiz-adv-x="764" d="M721 229q-13 -62 -42.5 -109t-64.5 -73.5t-79 -42.5t-80.5 -21t-75.5 -5q-29 0 -55.5 3t-55.5 10t-50.5 19.5t-42 31.5t-30 45.5t-13.5 62.5v17q0 29 8 63l88 416q6 27 19 37.5t40 10.5h51q29 0 36 -11q4 -6 4 -16q0 -9 -3 -21l-89 -420q-8 -35 -8 -63q0 -36 14 -59 q24 -40 107 -40q86 0 127 41t58 122l89 419q6 27 18.5 37.5t40.5 10.5h40q29 0 36 -11q4 -6 4 -16q0 -9 -3 -21zM572 900q-1 -4 -11 -16l-98 -114q-9 -10 -13.5 -12t-19.5 -2h-18q-10 0 -14.5 0.5t-7.5 3.5t-2 10l44 122q6 15 11 18t23 3h82h12q3 0 7 -1.5t5 -4t0 -7.5z M755 900q-1 -4 -11 -16l-98 -114q-9 -10 -13.5 -12t-19.5 -2h-18q-10 0 -14.5 0.5t-7.5 3.5t-2 10l44 122q6 15 11.5 18t22.5 3h82h11q4 0 8 -1.5t5 -3.5q0 -2 0.5 -4t-0.5 -4z" />
<glyph unicode="&#x171;" horiz-adv-x="561" d="M510 48q-5 -27 -17.5 -37.5t-40.5 -10.5h-37q-29 0 -37 11q-4 6 -4 17q0 8 3 20l6 26q-65 -85 -163 -85q-83 0 -116 30q-22 20 -22 62q0 20 5 45l60 284q6 28 18.5 38t39.5 10h40q29 0 37 -11q4 -6 4 -17q0 -8 -3 -20l-62 -293q-5 -22 -5 -36q0 -11 4 -17q8 -14 49 -14 q51 0 86 35t46 88l50 237q6 27 18 37.5t40 10.5h40q29 0 37 -11q4 -6 4 -17q0 -8 -3 -20zM425 681q-1 -4 -12 -16l-98 -114q-9 -10 -13.5 -12t-19.5 -2h-18q-10 0 -14.5 0.5t-7.5 3.5t-2 10l45 122q6 15 11.5 18t22.5 3h82h11q4 0 8 -1.5t5 -4t0 -7.5zM608 681 q-1 -4 -12 -16l-98 -114q-9 -10 -13.5 -12t-19.5 -2h-18q-10 0 -14.5 0.5t-7.5 3.5t-2 10l45 122q6 15 11 18t23 3h82h12q3 0 7 -1.5t5 -4.5v-2.5v-4.5z" />
<glyph unicode="&#x172;" horiz-adv-x="764" d="M721 229q-16 -73 -52 -124.5t-84 -77t-92.5 -36.5t-93.5 -13q-24 -28 -33 -64q-2 -8 -2 -14q0 -24 32 -26q12 0 67 12q5 2 11.5 -2.5t5.5 -9.5l4 -36q-4 -14 -13 -19q-69 -32 -123 -32q-52 0 -74 28q-16 20 -16 48q0 12 3 25q12 52 54 94q-44 6 -78.5 20t-64 43t-36.5 74 q-3 18 -3 38q0 33 7 73l88 416q6 27 19 37.5t40 10.5h51q29 0 36 -11q4 -6 4 -16q0 -9 -3 -21l-89 -420q-8 -35 -8 -63q0 -36 14 -59q24 -40 107 -40q86 0 127 41t58 122l89 419q6 27 18.5 37.5t40.5 10.5h40q29 0 36 -11q4 -6 4 -16q0 -9 -3 -21z" />
<glyph unicode="&#x173;" horiz-adv-x="561" d="M526 -162q-4 -14 -13 -19q-69 -32 -123 -32q-52 0 -74 28q-16 20 -16 48q0 12 3 25q16 73 82 117q-10 7 -10 25q0 8 2 18l6 26q-65 -85 -163 -85q-83 0 -116 30q-22 20 -22 62q0 20 5 45l60 284q6 28 18.5 38t39.5 10h40q29 0 37 -11q4 -6 4 -17q0 -8 -3 -20l-62 -293 q-5 -22 -5 -36q0 -11 4 -17q8 -14 49 -14q51 0 86 35t46 88l50 237q6 27 18 37.5t40 10.5h40q29 0 37 -11q4 -6 4 -17q0 -8 -3 -20l-77 -362q-5 -24 -15 -35t-32 -13q-43 -35 -55 -86q-2 -8 -2 -14q0 -24 32 -26q12 0 67 12q5 2 11.5 -2.5t5.5 -9.5z" />
<glyph unicode="&#x174;" horiz-adv-x="1039" d="M1155 665q-1 -5 -8 -19l-292 -604q-7 -15 -15.5 -24t-19 -12.5t-17 -4.5t-17.5 -1h-72q-10 0 -16 1t-15 4.5t-13.5 12.5t-5.5 24l-22 377q-4 69 -4 126v22h-1l-60 -130l-188 -391q-10 -21 -24 -32t-23 -12.5t-24 -1.5h-66q-11 0 -17 1t-15 4.5t-13.5 12.5t-5.5 24 l-36 604v19q7 29 48 29h34q14 0 22 -1.5t17.5 -11.5t10.5 -30l18 -320q7 -109 7 -169q0 -20 -1 -34h1q8 20 41 95l46 99l158 328q10 20 24 30.5t23 12t24 1.5h66q25 0 36.5 -8.5t13.5 -35.5l22 -405q4 -74 4 -106v-11h1q14 32 59 128l190 394q10 20 24 30.5t23 12t23 1.5h21 q11 0 17.5 -1t13.5 -8q4 -5 4 -12q0 -4 -1 -8zM855 768q2 -2 2 -6q0 -3 -3 -8q-5 -8 -13 -8h-47l-4 1l-95 81l-129 -81l-6 -1h-47q-5 0 -7 4q-2 2 -2 5q0 7 6 11l132 104q3 3 8 3h111q5 0 8 -3z" />
<glyph unicode="&#x175;" horiz-adv-x="744" d="M810 430l-188 -384q-13 -27 -27.5 -36.5t-45.5 -9.5h-68q-18 0 -29 3t-16 11.5t-6.5 16t-2.5 24.5q-9 152 -9 221q0 27 1 41l-1 -1q-12 -40 -118 -261q-16 -33 -30.5 -44t-47.5 -11h-28q-17 0 -25.5 1.5t-18 12.5t-10.5 32l-25 384q4 13 13 19.5t16 7.5t20 1h20 q30 0 40.5 -9.5t12.5 -35.5l20 -283l61 124l62 126q24 49 29 55q19 23 57 23q16 0 26.5 -3.5t15 -11.5t6 -13.5t2.5 -16.5l21 -300l143 290q18 38 32.5 46.5t51.5 8.5q15 0 21.5 -0.5t14 -3t9.5 -8.5q1 -4 1 -10v-6zM652 556q1 -2 1 -4q0 -4 -4 -10q-5 -7 -12 -7h-47 q-4 1 -6 2l-76 101l-120 -101l-6 -2h-47q-7 0 -9 7q-1 1 -1 3q0 5 4 9l127 139q4 4 10 4h111q7 0 8 -4z" />
<glyph unicode="&#x176;" horiz-adv-x="733" d="M851 671q-3 -10 -14 -21l-340 -373l-49 -230q-6 -27 -18.5 -37t-39.5 -10h-48q-27 0 -35 10q-5 7 -5 20q0 8 2 18l49 230l-182 373q-5 9 -5 16q0 2 1 4q5 23 41 23h66q28 0 44 -8.5t28 -32.5l78 -162q27 -55 37 -88q24 35 95 113l127 140q36 38 88 38h49q10 0 16 -0.5 t12 -5.5q4 -5 4 -12q0 -2 -1 -5zM702 768q2 -2 2 -6q0 -3 -2 -8q-6 -8 -14 -8h-47l-4 1l-95 81l-129 -81l-6 -1h-47q-5 0 -8 4q-1 2 -1 5q0 7 6 11l132 104q3 3 8 3h111q5 0 8 -3z" />
<glyph unicode="&#x177;" horiz-adv-x="500" d="M565 431q-1 -6 -10 -20l-263 -474q-8 -15 -22.5 -33.5t-41 -45.5t-66 -45t-82.5 -18q-76 0 -76 17q0 7 3 36q4 35 6 42q3 15 16 15q4 0 9 -4q27 -21 62 -21q25 0 46 14t31 27.5t23 36.5q7 14 23 42l-101 416q-2 11 -1 16q5 26 44 26h26q36 0 46.5 -13.5t22.5 -64.5 q39 -168 39 -225q0 -7 -1 -13h1q8 30 45 102l70 130q32 57 36 61q20 23 58 23h22q7 0 12 -0.5t12 -2.5t10 -9q2 -3 2 -8q0 -3 -1 -7zM530 556q1 -2 1 -4q0 -4 -4 -10q-5 -7 -12 -7h-47q-4 1 -6 2l-76 101l-120 -101l-6 -2h-47q-7 0 -9 7q-1 1 -1 3q0 5 4 9l127 139q4 4 10 4 h111q7 0 8 -4z" />
<glyph unicode="&#x178;" horiz-adv-x="733" d="M851 671q-3 -10 -14 -21l-340 -373l-49 -230q-6 -27 -18.5 -37t-39.5 -10h-48q-27 0 -35 10q-5 7 -5 20q0 8 2 18l49 230l-182 373q-5 9 -5 16q0 2 1 4q5 23 41 23h66q28 0 44 -8.5t28 -32.5l78 -162q27 -55 37 -88q24 35 95 113l127 140q36 38 88 38h49q10 0 16 -0.5 t12 -5.5q4 -5 4 -12q0 -2 -1 -5zM458 789q-5 -23 -15.5 -33t-37.5 -10h-46q-26 0 -32 10q-3 6 -3 15q0 8 2 18l3 17q5 24 16 33.5t36 9.5h46q26 0 33 -9q3 -6 3 -16q0 -8 -2 -18zM744 789q-5 -23 -15.5 -33t-37.5 -10h-46q-26 0 -32 10q-3 6 -3 15q0 8 2 18l3 17 q5 24 16 33.5t36 9.5h46q26 0 33 -9q3 -6 3 -16q0 -8 -2 -18z" />
<glyph unicode="&#x179;" horiz-adv-x="672" d="M626 48q-5 -27 -17.5 -37.5t-40.5 -10.5h-459q-27 0 -35 10q-5 7 -5 20q0 8 2 18l2 8q4 21 17 35l470 508h-35l-261 -3h-18q-6 0 -14.5 1.5t-12 4.5t-6.5 8.5t-2.5 14t2.5 20.5q6 26 17.5 37.5t41.5 11.5h438q32 0 38 -15q3 -7 3 -14q0 -10 -4 -21q-4 -17 -6.5 -22.5 t-11.5 -14.5l-468 -506l320 4q21 0 30.5 -1.5t15.5 -12.5q3 -6 3 -16q0 -8 -2 -18zM718 862l-240 -106h-67q-12 0 -15 6q-1 1 -1 2q0 5 8 12l150 109h161q9 0 12 -5q3 -2 3 -6q0 -2 -1 -4q-2 -5 -10 -8z" />
<glyph unicode="&#x17a;" horiz-adv-x="476" d="M449 37q-8 -37 -56 -37h-314q-7 0 -11.5 0.5t-12.5 2.5t-10 6l-6 13q-2 3 -2 8t3 12q3 18 19 34l310 309h-37l-146 -2q-19 0 -28.5 1t-18 10t-4.5 26q8 38 56 38h296q7 0 11.5 -0.5t12.5 -2.5t10 -6l6 -13q4 -8 -1 -20q-3 -18 -19 -34l-309 -309h46l153 2q20 0 29.5 -1.5 t18 -10t4.5 -26.5zM539 681q-2 -5 -14 -15l-187 -129h-37h-11q-4 0 -8 1.5t-5 3.5t-1 4t1 4q1 4 12 15l111 117q8 8 13 10t20 2h82h11q4 0 8 -1.5t5 -4.5q0 -1 0.5 -2.5t-0.5 -4.5z" />
<glyph unicode="&#x17b;" horiz-adv-x="672" d="M626 48q-5 -27 -17.5 -37.5t-40.5 -10.5h-459q-27 0 -35 10q-5 7 -5 20q0 8 2 18l2 8q4 21 17 35l470 508h-35l-261 -3h-18q-6 0 -14.5 1.5t-12 4.5t-6.5 8.5t-2.5 14t2.5 20.5q6 26 17.5 37.5t41.5 11.5h438q32 0 38 -15q3 -7 3 -14q0 -10 -4 -21q-4 -17 -6.5 -22.5 t-11.5 -14.5l-468 -506l320 4q21 0 30.5 -1.5t15.5 -12.5q3 -6 3 -16q0 -8 -2 -18zM579 794q-6 -25 -18 -36.5t-41 -11.5h-51q-30 0 -37 13q-4 6 -4 15t4 20l4 19q5 27 17.5 37.5t40.5 10.5h51q29 0 36 -11q4 -6 4 -18q0 -8 -2 -19z" />
<glyph unicode="&#x17c;" horiz-adv-x="476" d="M449 37q-8 -37 -56 -37h-314q-7 0 -11.5 0.5t-12.5 2.5t-10 6l-6 13q-2 3 -2 8t3 12q3 18 19 34l310 309h-37l-146 -2q-19 0 -28.5 1t-18 10t-4.5 26q8 38 56 38h296q7 0 11.5 -0.5t12.5 -2.5t10 -6l6 -13q2 -3 2 -8t-3 -12q-3 -18 -19 -34l-309 -309h46l153 2 q20 0 29.5 -1.5t18 -10t4.5 -26.5zM440 606q-6 -25 -17.5 -36.5t-40.5 -11.5h-51q-30 0 -37 12q-3 6 -3 17q0 8 2 19l4 19q5 27 17.5 37.5t40.5 10.5h51q29 0 36 -11q5 -6 5 -17q0 -8 -3 -20z" />
<glyph unicode="&#x17d;" horiz-adv-x="672" d="M626 48q-5 -27 -17.5 -37.5t-40.5 -10.5h-459q-27 0 -35 10q-5 7 -5 20q0 8 2 18l2 8q4 21 17 35l470 508h-35l-261 -3h-18q-6 0 -14.5 1.5t-12 4.5t-6.5 8.5t-2.5 14t2.5 20.5q6 26 17.5 37.5t41.5 11.5h438q32 0 38 -15q3 -7 3 -14q0 -10 -4 -21q-4 -17 -6.5 -22.5 t-11.5 -14.5l-468 -506l320 4q21 0 30.5 -1.5t15.5 -12.5q3 -6 3 -16q0 -8 -2 -18zM689 853l-132 -104q-3 -3 -9 -3h-111q-4 0 -7 3l-86 102q-2 3 -2 6t2 7q5 9 13 9h47l5 -1l95 -81l129 81l5 1h47q5 0 8 -3q2 -3 2 -7q0 -6 -6 -10z" />
<glyph unicode="&#x17e;" horiz-adv-x="476" d="M449 37q-8 -37 -56 -37h-314q-7 0 -11.5 0.5t-12.5 2.5t-10 6l-6 13q-2 3 -2 8t3 12q3 18 19 34l310 309h-37l-146 -2q-19 0 -28.5 1t-18 10t-4.5 26q8 38 56 38h296q7 0 11.5 -0.5t12.5 -2.5t10 -6l6 -13q4 -8 -1 -20q-3 -18 -19 -34l-309 -309h46l153 2q20 0 29.5 -1.5 t18 -10t4.5 -26.5zM544 678l-127 -139q-4 -4 -10 -4h-111q-7 0 -8 4l-67 137q-1 2 -1 4q0 5 4 10q5 7 12 7h47q4 -1 6 -2l76 -101l120 101l6 2h47q7 0 9 -7q1 -1 1 -3q0 -5 -4 -9z" />
<glyph unicode="&#x17f;" horiz-adv-x="311" d="M488 621q-5 -26 -19 -26l-10 4q-3 2 -2 6q-24 28 -66 28q-22 0 -37 -6t-22.5 -18t-10.5 -20.5t-6 -21.5l-111 -519q-5 -27 -17.5 -37.5t-40.5 -10.5h-37q-27 0 -35 10q-5 7 -5 20q0 8 2 18l104 490q36 167 231 167q36 0 64 -6q24 -5 28 -9q2 -3 2 -8.5t-2 -14.5z" />
<glyph unicode="&#x18e;" horiz-adv-x="642" d="M605 48q-5 -27 -17.5 -37.5t-40.5 -10.5h-408q-28 0 -35 10q-5 7 -5 19q0 8 2 19l3 14q5 23 15.5 34t20 12.5t30.5 1.5l155 -2l146 -2l43 205h-263q-25 0 -35 9q-5 6 -5 19q0 8 2 19q6 27 18.5 37t39.5 10h263l39 185h-49l-235 -3q-22 0 -31.5 1.5t-15.5 12.5q-3 6 -3 16 q0 8 2 18l2 8q5 26 17 37t41 11h393q27 0 36 -11q4 -6 4 -17q0 -9 -2 -20z" />
<glyph unicode="&#x192;" horiz-adv-x="336" d="M513 621q-5 -26 -19 -26q-6 0 -12 10q-24 28 -66 28q-23 0 -38.5 -6t-23.5 -18t-11 -20.5t-6 -21.5l-24 -109h51q42 0 42 -27q0 -4 -1 -9q-8 -36 -56 -36h-48l-72 -338q-5 -27 -17.5 -37.5t-40.5 -10.5h-37q-27 0 -35 10q-5 7 -5 20q0 8 2 18l72 338q-16 0 -25 1t-18 9.5 t-5 25.5q7 36 63 36l17 80q36 167 231 167q36 0 64 -6q24 -5 28 -9q2 -3 2 -8.5t-2 -14.5z" />
<glyph unicode="&#x1a0;" horiz-adv-x="794" d="M905 707q-2 -7 -7 -10l-115 -78q36 -56 36 -146q0 -58 -15 -131q-39 -182 -141 -273q-103 -91 -272 -91q-168 0 -231 91q-41 56 -41 149q0 55 15 124q39 187 143 281q104 93 271 93q130 0 199 -57l46 35h-8q-13 0 -11 13l23 105q2 13 15 13h105q13 0 11 -13zM667 361 q9 45 13 75q2 18 2 40v28q-3 39 -17 67q-33 68 -133 68q-101 0 -163 -68q-37 -41 -56 -91.5t-33 -118.5q-11 -50 -16 -81q-3 -26 -3 -59v-15q1 -43 15 -74q16 -36 51.5 -55t80.5 -19q46 0 90 19t74 55q38 45 58.5 99.5t36.5 129.5z" />
<glyph unicode="&#x1a1;" d="M690 471q-2 -6 -7 -10l-120 -82q12 -30 12 -71q0 -38 -10 -84q-26 -119 -98 -176q-74 -59 -195 -59q-122 0 -171 59q-32 39 -32 103q0 33 9 73q26 124 101 188q75 63 196 63q108 0 158 -51l44 34h-8q-12 0 -10 13l22 105q4 13 16 13h105q5 0 8 -4t2 -9zM432 238 q7 32 9.5 47t2.5 39.5t-7 39.5q-17 39 -77 39q-62 0 -95 -39q-28 -33 -47 -126q-13 -58 -13 -93q0 -25 6 -39q17 -39 77 -39q62 0 95 39q27 33 49 132z" />
<glyph unicode="&#x1af;" horiz-adv-x="825" d="M958 707q-2 -7 -7 -10l-154 -98l-78 -368q-27 -125 -115 -190q-87 -63 -226 -63q-142 0 -201 63q-45 46 -45 121q0 32 8 69l91 427q3 15 16 25.5t28 10.5h70q15 0 23 -10.5t5 -25.5l-91 -427q-8 -38 -8 -67q0 -40 15 -62q26 -38 108 -38t127 39q43 38 62 128l91 427 q3 15 16 25.5t28 10.5h61q26 0 29 -23l32 23h-5q-12 0 -10 13l23 105q2 13 14 13h106q12 0 10 -13z" />
<glyph unicode="&#x1b0;" horiz-adv-x="622" d="M736 471q-2 -6 -7 -10l-152 -97l-69 -328q-4 -15 -16.5 -25.5t-27.5 -10.5h-61q-15 0 -24 10.5t-5 25.5l2 9q-66 -56 -145 -56q-51 0 -79.5 5.5t-48.5 24.5q-23 21 -23 61q0 20 6 45l63 297q3 15 15.5 25.5t27.5 10.5h64q15 0 23.5 -10.5t5.5 -25.5l-63 -297 q-7 -29 -7 -45q0 -12 4 -16q8 -14 56 -14q42 0 78 34.5t46 82.5l55 255q3 15 15.5 25.5t27.5 10.5h64q22 0 29 -22l31 22h-6q-11 0 -9 13l22 105q4 13 15 13h106q10 0 10 -8q0 -2 -1 -5z" />
<glyph unicode="&#x1cd;" horiz-adv-x="733" d="M696 27q-6 -27 -45 -27h-54q-23 0 -35 7.5t-15 17t-5 30.5l-14 96h-277l-62 -111q-23 -40 -72 -40h-36q-11 0 -17 1t-12 7q-5 5 -5 12q0 3 1 7q2 8 9 20l339 604q25 43 74 43h88q14 0 22.5 -1.5t19 -11.5t12.5 -30l83 -604q2 -14 1 -20zM516 237l-35 281q-2 17 -2 36v13 h-1q-18 -41 -62 -118l-117 -212h217zM720 853l-132 -104q-3 -3 -9 -3h-111q-4 0 -7 3l-86 102q-2 3 -2.5 6t2.5 7q5 9 13 9h47l5 -1l95 -81l129 81l5 1h47q5 0 8 -3q2 -3 2 -7q0 -6 -6 -10z" />
<glyph unicode="&#x1ce;" horiz-adv-x="525" d="M484 48q-5 -27 -17.5 -37.5t-40.5 -10.5h-37q-29 0 -37 11q-4 6 -4 17q0 8 3 20l4 20q-70 -79 -172 -79q-63 0 -95 44q-22 32 -22 70q0 15 3 30q9 41 44 71.5t74 44.5t90 22.5t75 9.5t46 1l7 35q5 22 5 39t-5 29q-11 24 -50 24q-92 0 -169 -67q-8 -6 -13 -6q-12 0 -10 11 q0 17 8 73q2 8 7.5 12t23.5 11q83 32 171 32q173 0 173 -116q0 -10 -1 -21l-4 -22zM371 154l18 87l-29 -2q-14 -1 -42.5 -7.5t-50.5 -17t-41.5 -31t-25.5 -48.5q-2 -9 -2 -17q0 -19 10 -35q15 -22 45 -22q5 0 12 0.5t25 5.5t32.5 14t28.5 28t20 45zM569 678l-127 -139 q-4 -4 -10 -4h-111q-7 0 -8 4l-67 137q-1 2 -1 4q0 5 3 10q6 7 13 7h47q4 -1 6 -2l76 -101l120 101l6 2h47q7 0 9 -7q1 -1 1 -3q0 -5 -4 -9z" />
<glyph unicode="&#x1cf;" horiz-adv-x="331" d="M249 48q-5 -27 -17.5 -37.5t-40.5 -10.5h-51q-27 0 -35 10q-5 7 -5 20q0 8 2 18l127 598q6 27 19 37.5t40 10.5h51q29 0 36 -11q4 -6 4 -16q0 -9 -3 -21zM518 853l-132 -104q-3 -3 -9 -3h-111q-4 0 -7 3l-86 102q-3 3 -3 6t3 7q5 9 13 9h47l5 -1l95 -81l129 81l5 1h47 q5 0 8 -3q2 -3 2 -7q0 -6 -6 -10z" />
<glyph unicode="&#x1d0;" horiz-adv-x="256" d="M204 48q-5 -27 -17.5 -37.5t-40.5 -10.5h-37q-27 0 -35 10q-5 7 -5 20q0 8 2 18l77 362q6 28 18.5 38t39.5 10h37q29 0 37 -11q4 -6 4 -17q0 -8 -3 -20zM434 678l-127 -139q-4 -4 -10 -4h-111q-7 0 -8 4l-67 137q-1 2 -1 4q0 5 4 10q5 7 12 7h47q4 -1 6 -2l76 -101 l120 101l6 2h47q7 0 9 -7q1 -1 1 -3q0 -5 -4 -9z" />
<glyph unicode="&#x1d1;" horiz-adv-x="794" d="M805 342q-78 -364 -414 -364q-272 0 -272 239q0 56 15 125q80 374 415 374q271 0 271 -246q0 -57 -15 -128zM661 358q6 28 9 44.5t6 49.5q3 21 3 37q0 10 -1 17q-2 22 -10 49.5t-24 43.5t-44.5 27.5t-67.5 11.5t-72 -11.5t-56 -28t-42.5 -44t-31 -49t-22 -54.5t-14.5 -49 t-10 -44q-6 -29 -9 -46t-7 -52q-3 -26 -3 -46q0 -7 1 -13q1 -23 8.5 -53t23.5 -47.5t44 -30t67 -12.5t72.5 12.5t56.5 30.5t43 47.5t32 53t23 58.5t15 52zM750 853l-132 -104q-3 -3 -9 -3h-111q-4 0 -7 3l-86 102q-2 3 -2.5 6t2.5 7q5 9 13 9h47l5 -1l95 -81l129 81l5 1h47 q5 0 8 -3q2 -3 2 -7q0 -6 -6 -10z" />
<glyph unicode="&#x1d2;" d="M566 225q-50 -236 -294 -236q-202 0 -202 161q0 34 9 75q53 250 297 250q199 0 199 -168q0 -37 -9 -82zM432 237q7 31 10 48t3 43t-8 40t-27 24.5t-50 10.5t-54.5 -11t-37 -24.5t-25 -40t-15.5 -42.5t-11 -48q-6 -27 -8.5 -41t-4.5 -38q-1 -8 -1 -15q0 -13 3 -22 q4 -13 12.5 -27t26.5 -20.5t44 -6.5q38 0 64.5 14t42 43t22 51.5t14.5 61.5zM581 678l-127 -139q-4 -4 -10 -4h-111q-7 0 -8 4l-67 137q-1 2 -1 4q0 5 3 10q6 7 13 7h47q4 -1 6 -2l76 -101l120 101l6 2h47q7 0 9 -7q1 -1 1 -3q0 -5 -4 -9z" />
<glyph unicode="&#x1d3;" horiz-adv-x="764" d="M721 229q-13 -62 -42.5 -109t-64.5 -73.5t-79 -42.5t-80.5 -21t-75.5 -5q-29 0 -55.5 3t-55.5 10t-50.5 19.5t-42 31.5t-30 45.5t-13.5 62.5v17q0 29 8 63l88 416q6 27 19 37.5t40 10.5h51q29 0 36 -11q4 -6 4 -16q0 -9 -3 -21l-89 -420q-8 -35 -8 -63q0 -36 14 -59 q24 -40 107 -40q86 0 127 41t58 122l89 419q6 27 18.5 37.5t40.5 10.5h40q29 0 36 -11q4 -6 4 -16q0 -9 -3 -21zM735 853l-132 -104q-3 -3 -9 -3h-111q-4 0 -7 3l-86 102q-2 3 -2 6t2 7q5 9 13 9h47l5 -1l95 -81l129 81l5 1h47q5 0 8 -3q2 -3 2 -7q0 -6 -6 -10z" />
<glyph unicode="&#x1d4;" horiz-adv-x="561" d="M510 48q-5 -27 -17.5 -37.5t-40.5 -10.5h-37q-29 0 -37 11q-4 6 -4 17q0 8 3 20l6 26q-65 -85 -163 -85q-83 0 -116 30q-22 20 -22 62q0 20 5 45l60 284q6 28 18.5 38t39.5 10h40q29 0 37 -11q4 -6 4 -17q0 -8 -3 -20l-62 -293q-5 -22 -5 -36q0 -11 4 -17q8 -14 49 -14 q51 0 86 35t46 88l50 237q6 27 18 37.5t40 10.5h40q29 0 37 -11q4 -6 4 -17q0 -8 -3 -20zM587 678l-127 -139q-4 -4 -10 -4h-111q-7 0 -8 4l-67 137q-1 2 -1 4q0 5 3 10q6 7 13 7h47q4 -1 6 -2l76 -101l120 101l6 2h47q7 0 9 -7q1 -1 1 -3q0 -5 -4 -9z" />
<glyph unicode="&#x1d7;" horiz-adv-x="764" d="M721 229q-13 -62 -42.5 -109t-64.5 -73.5t-79 -42.5t-80.5 -21t-75.5 -5q-29 0 -55.5 3t-55.5 10t-50.5 19.5t-42 31.5t-30 45.5t-13.5 62.5v17q0 29 8 63l88 416q6 27 19 37.5t40 10.5h51q29 0 36 -11q4 -6 4 -16q0 -9 -3 -21l-89 -420q-8 -35 -8 -63q0 -36 14 -59 q24 -40 107 -40q86 0 127 41t58 122l89 419q6 27 18.5 37.5t40.5 10.5h40q29 0 36 -11q4 -6 4 -16q0 -9 -3 -21zM473 789q-5 -23 -15.5 -33t-37.5 -10h-46q-26 0 -32 10q-3 6 -3 15q0 8 2 18l3 17q5 24 16 33.5t36 9.5h46q26 0 32 -9q4 -6 4 -16q0 -8 -2 -18zM759 789 q-5 -23 -15.5 -33t-37.5 -10h-46q-26 0 -32 10q-3 6 -3 15q0 8 2 18l3 17q5 24 16 33.5t36 9.5h46q26 0 32 -9q4 -6 4 -16q0 -8 -2 -18zM797 1017l-240 -106h-67q-12 0 -16 5v3q0 5 8 12l150 109h161q9 0 13 -4q2 -3 2 -7q0 -1 -1 -3q-2 -6 -10 -9z" />
<glyph unicode="&#x1d8;" horiz-adv-x="561" d="M510 48q-5 -27 -17.5 -37.5t-40.5 -10.5h-37q-29 0 -37 11q-4 6 -4 17q0 8 3 20l6 26q-65 -85 -163 -85q-83 0 -116 30q-22 20 -22 62q0 20 5 45l60 284q6 28 18.5 38t39.5 10h40q29 0 37 -11q4 -6 4 -17q0 -8 -3 -20l-62 -293q-5 -22 -5 -36q0 -11 4 -17q8 -14 49 -14 q51 0 86 35t46 88l50 237q6 27 18 37.5t40 10.5h40q29 0 37 -11q4 -6 4 -17q0 -8 -3 -20zM355 607q-5 -23 -15.5 -33t-36.5 -10h-46q-26 0 -33 10q-3 6 -3 16q0 7 2 17l4 17q5 24 16 33.5t36 9.5h46q26 0 33 -9q3 -6 3 -16q0 -8 -2 -18zM597 607q-5 -23 -15.5 -33t-36.5 -10 h-46q-26 0 -33 10q-3 6 -3 16q0 7 2 17l4 17q5 24 16 33.5t36 9.5h46q26 0 33 -9q3 -6 3 -16q0 -8 -2 -18zM657 835l-240 -106h-67q-12 0 -16 5v3q0 5 8 12l150 109h161q9 0 13 -4q2 -3 2 -7q0 -1 -1 -3q-2 -6 -10 -9z" />
<glyph unicode="&#x1d9;" horiz-adv-x="764" d="M721 229q-13 -62 -42.5 -109t-64.5 -73.5t-79 -42.5t-80.5 -21t-75.5 -5q-29 0 -55.5 3t-55.5 10t-50.5 19.5t-42 31.5t-30 45.5t-13.5 62.5v17q0 29 8 63l88 416q6 27 19 37.5t40 10.5h51q29 0 36 -11q4 -6 4 -16q0 -9 -3 -21l-89 -420q-8 -35 -8 -63q0 -36 14 -59 q24 -40 107 -40q86 0 127 41t58 122l89 419q6 27 18.5 37.5t40.5 10.5h40q29 0 36 -11q4 -6 4 -16q0 -9 -3 -21zM473 789q-5 -23 -15.5 -33t-37.5 -10h-46q-26 0 -32 10q-3 6 -3 15q0 8 2 18l3 17q5 24 16 33.5t36 9.5h46q26 0 32 -9q4 -6 4 -16q0 -8 -2 -18zM759 789 q-5 -23 -15.5 -33t-37.5 -10h-46q-26 0 -32 10q-3 6 -3 15q0 8 2 18l3 17q5 24 16 33.5t36 9.5h46q26 0 32 -9q4 -6 4 -16q0 -8 -2 -18zM768 1008l-132 -104q-3 -3 -9 -3h-111q-4 0 -7 3l-86 102q-2 3 -2.5 6t2.5 8q5 8 13 8h47l5 -1l95 -81l129 81l5 1h47q5 0 8 -4 q2 -2 2 -6q0 -6 -6 -10z" />
<glyph unicode="&#x1da;" horiz-adv-x="561" d="M510 48q-5 -27 -17.5 -37.5t-40.5 -10.5h-37q-29 0 -37 11q-4 6 -4 17q0 8 3 20l6 26q-65 -85 -163 -85q-83 0 -116 30q-22 20 -22 62q0 20 5 45l60 284q6 28 18.5 38t39.5 10h40q29 0 37 -11q4 -6 4 -17q0 -8 -3 -20l-62 -293q-5 -22 -5 -36q0 -11 4 -17q8 -14 49 -14 q51 0 86 35t46 88l50 237q6 27 18 37.5t40 10.5h40q29 0 37 -11q4 -6 4 -17q0 -8 -3 -20zM355 607q-5 -23 -15.5 -33t-36.5 -10h-46q-26 0 -33 10q-3 6 -3 16q0 7 2 17l4 17q5 24 16 33.5t36 9.5h46q26 0 33 -9q3 -6 3 -16q0 -8 -2 -18zM597 607q-5 -23 -15.5 -33t-36.5 -10 h-46q-26 0 -33 10q-3 6 -3 16q0 7 2 17l4 17q5 24 16 33.5t36 9.5h46q26 0 33 -9q3 -6 3 -16q0 -8 -2 -18zM628 826l-132 -104q-3 -3 -9 -3h-111q-4 0 -7 3l-86 102q-2 3 -2.5 6t2.5 8q5 8 13 8h47l5 -1l95 -81l129 81l5 1h47q5 0 8 -4q2 -2 2 -6q0 -6 -6 -10z" />
<glyph unicode="&#x1db;" horiz-adv-x="764" d="M721 229q-13 -62 -42.5 -109t-64.5 -73.5t-79 -42.5t-80.5 -21t-75.5 -5q-29 0 -55.5 3t-55.5 10t-50.5 19.5t-42 31.5t-30 45.5t-13.5 62.5v17q0 29 8 63l88 416q6 27 19 37.5t40 10.5h51q29 0 36 -11q4 -6 4 -16q0 -9 -3 -21l-89 -420q-8 -35 -8 -63q0 -36 14 -59 q24 -40 107 -40q86 0 127 41t58 122l89 419q6 27 18.5 37.5t40.5 10.5h40q29 0 36 -11q4 -6 4 -16q0 -9 -3 -21zM473 789q-5 -23 -15.5 -33t-37.5 -10h-46q-26 0 -32 10q-3 6 -3 15q0 8 2 18l3 17q5 24 16 33.5t36 9.5h46q26 0 32 -9q4 -6 4 -16q0 -8 -2 -18zM759 789 q-5 -23 -15.5 -33t-37.5 -10h-46q-26 0 -32 10q-3 6 -3 15q0 8 2 18l3 17q5 24 16 33.5t36 9.5h46q26 0 32 -9q4 -6 4 -16q0 -8 -2 -18zM678 931q4 -5 4 -9q0 -3 -2 -6q-6 -5 -18 -5h-67l-196 106q-6 4 -6 10q0 4 5 9q6 4 15 4h161z" />
<glyph unicode="&#x1dc;" horiz-adv-x="561" d="M510 48q-5 -27 -17.5 -37.5t-40.5 -10.5h-37q-29 0 -37 11q-4 6 -4 17q0 8 3 20l6 26q-65 -85 -163 -85q-83 0 -116 30q-22 20 -22 62q0 20 5 45l60 284q6 28 18.5 38t39.5 10h40q29 0 37 -11q4 -6 4 -17q0 -8 -3 -20l-62 -293q-5 -22 -5 -36q0 -11 4 -17q8 -14 49 -14 q51 0 86 35t46 88l50 237q6 27 18 37.5t40 10.5h40q29 0 37 -11q4 -6 4 -17q0 -8 -3 -20zM355 607q-5 -23 -15.5 -33t-36.5 -10h-46q-26 0 -33 10q-3 6 -3 16q0 7 2 17l4 17q5 24 16 33.5t36 9.5h46q26 0 33 -9q3 -6 3 -16q0 -8 -2 -18zM597 607q-5 -23 -15.5 -33t-36.5 -10 h-46q-26 0 -33 10q-3 6 -3 16q0 7 2 17l4 17q5 24 16 33.5t36 9.5h46q26 0 33 -9q3 -6 3 -16q0 -8 -2 -18zM538 749q4 -5 4 -9q0 -3 -2 -6q-6 -5 -18 -5h-67l-196 106q-6 4 -6 10q0 4 5 9q6 4 15 4h161z" />
<glyph unicode="&#x1dd;" horiz-adv-x="511" d="M528 231q-24 -116 -98 -179t-192 -63q-108 0 -146 57q-25 37 -25 92q0 30 7 66q5 21 15.5 32t19 12.5t23.5 1.5h272q4 23 6 41v11q0 14 -2 30q-4 22 -13.5 36.5t-31.5 24.5t-54 10q-84 0 -164 -58q-13 -10 -19 -10q-7 0 -8 4.5t1 27.5q0 3 2 21.5t3 22.5q1 6 5.5 10 t9.5 6.5t20 9.5q84 38 169 38q120 0 173 -61q36 -42 36 -110q0 -33 -9 -73zM392 197h-208q-8 -30 -8 -55q0 -24 8 -42q14 -39 69 -39q103 0 139 136z" />
<glyph unicode="&#x1e6;" horiz-adv-x="733" d="M669 50q-2 -8 -10 -11q-117 -50 -234 -50q-183 0 -255 90q-48 59 -48 156q0 51 13 112q38 179 149 269q112 90 293 90q61 0 108 -12q46 -11 96 -38q5 -3 5 -9q0 -2 -1 -5l-41 -106q-4 -11 -14 -11q-5 0 -9 4q-31 42 -70 59q-39 18 -95 18q-110 0 -178 -64t-96 -195 q-11 -53 -11 -95q0 -61 24 -100q42 -63 151 -63q47 0 97 11l28 130h-83q-13 0 -9 13l14 69q4 13 15 13h207q13 0 9 -13zM720 853l-132 -104q-3 -3 -9 -3h-111q-4 0 -7 3l-86 102q-2 3 -2.5 6t2.5 7q5 9 13 9h47l5 -1l95 -81l129 81l5 1h47q5 0 8 -3q2 -3 2 -7q0 -6 -6 -10z " />
<glyph unicode="&#x1e7;" d="M620 405q-2 -13 -16 -13q-5 0 -13 4q-38 11 -90 11q13 -25 13 -58q0 -22 -5 -46q-35 -165 -236 -165q-80 0 -121 26l-5 -15q-1 -5 -1 -11q0 -17 12 -34q12 -12 62 -12h48h41q14 0 39 -1t38.5 -3t34.5 -6t32 -10l25 -14q14 -8 20.5 -19.5t11.5 -26.5q6 -13 6 -30 q0 -21 -6 -46q-30 -142 -280 -142q-112 0 -165 27q-38 20 -49 51q-8 20 -8 39q0 11 3 22q12 61 85 88q-13 24 -13 52q0 13 3 27q8 42 44 81q-28 30 -28 77q0 21 6 46q35 165 236 165q89 0 134 -35q65 35 127 35q13 0 15 -3q1 -3 1 -12v-11q0 -34 -1 -38zM382 304q7 37 7 52 q0 18 -13 29q-15 12 -48 12q-25 0 -42 -6t-26.5 -21t-14.5 -28.5t-10 -38.5q-7 -37 -7 -52q0 -18 14 -29q14 -12 47 -12q25 0 42 6t26.5 21t14.5 28.5t10 38.5zM407 -67q1 4 1 8q0 20 -24 30q-28 12 -90 12h-116q-16 0 -25.5 -1.5t-21.5 -12.5t-17 -33q-1 -6 -1 -12 q0 -10 3 -18q5 -12 18 -19.5t26 -12t32.5 -6t29.5 -2t25 -0.5q146 0 160 67zM543 678l-127 -139q-4 -4 -10 -4h-111q-7 0 -8 4l-67 137q-1 2 -1 4q0 5 3 10q6 7 13 7h47q4 -1 6 -2l76 -101l120 101l6 2h47q7 0 9 -7q1 -1 1 -3q0 -5 -4 -9z" />
<glyph unicode="&#x1ea;" horiz-adv-x="794" d="M805 342q-74 -349 -385 -363q-26 -29 -34 -65q-2 -8 -2 -14q0 -24 32 -26q12 0 67 12q5 2 11.5 -2.5t5.5 -9.5l4 -36q-4 -14 -13 -19q-69 -32 -123 -32q-52 0 -74 28q-16 20 -16 48q0 12 3 25q11 54 52 93q-214 24 -214 236q0 56 15 125q80 374 415 374q271 0 271 -246 q0 -57 -15 -128zM661 358q6 28 9 44.5t6 49.5q3 21 3 37q0 10 -1 17q-2 22 -10 49.5t-24 43.5t-44.5 27.5t-67.5 11.5t-72 -11.5t-56 -28t-42.5 -44t-31 -49t-22 -54.5t-14.5 -49t-10 -44q-6 -29 -9 -46t-7 -52q-3 -26 -3 -46q0 -7 1 -13q1 -23 8.5 -53t23.5 -47.5t44 -30 t67 -12.5t72.5 12.5t56.5 30.5t43 47.5t32 53t23 58.5t15 52z" />
<glyph unicode="&#x1eb;" d="M566 225q-48 -226 -272 -235q-34 -34 -43 -76q-2 -8 -2 -14q0 -24 32 -26q12 0 67 12q5 2 11.5 -2.5t5.5 -9.5l4 -36q-4 -14 -13 -19q-69 -32 -123 -32q-52 0 -74 28q-16 20 -16 48q0 12 3 25q14 63 66 105q-142 22 -142 158q0 33 9 74q53 250 297 250q199 0 199 -168 q0 -37 -9 -82zM432 237q7 31 10 48t3 43t-8 40t-27 24.5t-50 10.5t-54.5 -11t-37 -24.5t-25 -40t-15.5 -42.5t-11 -48q-6 -27 -8.5 -41t-4.5 -38q-1 -8 -1 -15q0 -13 3 -22q4 -13 12.5 -27t26.5 -20.5t44 -6.5q38 0 64.5 14t42 43t22 51.5t14.5 61.5z" />
<glyph unicode="&#x1f0;" horiz-adv-x="286" d="M217 -32q-37 -173 -186 -173q-47 0 -93 17q-43 15 -43 28q0 4 18 34q11 19 14.5 23t9.5 4q1 0 9 -4q24 -18 59 -18q21 0 35.5 6t22 17.5t10.5 20t6 21.5l99 466q6 27 18 37.5t40 10.5h37q29 0 37 -11q4 -6 4 -17q0 -8 -3 -20zM457 678l-127 -139q-4 -4 -10 -4h-111 q-7 0 -8 4l-67 137q-1 2 -1 4q0 5 3 10q6 7 13 7h47q4 -1 6 -2l76 -101l120 101l6 2h47q7 0 9 -7q1 -1 1 -3q0 -5 -4 -9z" />
<glyph unicode="&#x1f4;" horiz-adv-x="733" d="M669 50q-2 -8 -10 -11q-117 -50 -234 -50q-183 0 -255 90q-48 59 -48 156q0 51 13 112q38 179 149 269q112 90 293 90q61 0 108 -12q46 -11 96 -38q5 -3 5 -9q0 -2 -1 -5l-41 -106q-4 -11 -14 -11q-5 0 -9 4q-31 42 -70 59q-39 18 -95 18q-110 0 -178 -64t-96 -195 q-11 -53 -11 -95q0 -61 24 -100q42 -63 151 -63q47 0 97 11l28 130h-83q-13 0 -9 13l14 69q4 13 15 13h207q13 0 9 -13zM749 862l-240 -106h-67q-12 0 -16 6v2q0 5 8 12l150 109h161q9 0 13 -5q2 -2 2 -6q0 -2 -1 -4q-2 -5 -10 -8z" />
<glyph unicode="&#x1f5;" d="M620 405q-2 -13 -16 -13q-5 0 -13 4q-38 11 -90 11q13 -25 13 -58q0 -22 -5 -46q-35 -165 -236 -165q-80 0 -121 26l-5 -15q-1 -5 -1 -11q0 -17 12 -34q12 -12 62 -12h48h41q14 0 39 -1t38.5 -3t34.5 -6t32 -10l25 -14q14 -8 20.5 -19.5t11.5 -26.5q6 -13 6 -30 q0 -21 -6 -46q-30 -142 -280 -142q-112 0 -165 27q-38 20 -49 51q-8 20 -8 39q0 11 3 22q12 61 85 88q-13 24 -13 52q0 13 3 27q8 42 44 81q-28 30 -28 77q0 21 6 46q35 165 236 165q89 0 134 -35q65 35 127 35q13 0 15 -3q1 -3 1 -12v-11q0 -34 -1 -38zM382 304q7 37 7 52 q0 18 -13 29q-15 12 -48 12q-25 0 -42 -6t-26.5 -21t-14.5 -28.5t-10 -38.5q-7 -37 -7 -52q0 -18 14 -29q14 -12 47 -12q25 0 42 6t26.5 21t14.5 28.5t10 38.5zM407 -67q1 4 1 8q0 20 -24 30q-28 12 -90 12h-116q-16 0 -25.5 -1.5t-21.5 -12.5t-17 -33q-1 -6 -1 -12 q0 -10 3 -18q5 -12 18 -19.5t26 -12t32.5 -6t29.5 -2t25 -0.5q146 0 160 67zM538 681q-2 -5 -14 -15l-187 -129h-37h-12q-3 0 -7 1.5t-5 3.5t-0.5 4t0.5 4q1 4 12 15l111 117q8 8 13 10t20 2h82h12q3 0 7 -1.5t5 -4.5v-2.5v-4.5z" />
<glyph unicode="&#x1fa;" horiz-adv-x="733" d="M696 27q-6 -27 -45 -27h-54q-23 0 -35 7.5t-15 17t-5 30.5l-14 96h-277l-62 -111q-23 -40 -72 -40h-36q-11 0 -17 1t-12 7q-5 5 -5 12q0 3 1 7q2 8 9 20l339 604q25 43 74 43h88q14 0 22.5 -1.5t19 -11.5t12.5 -30l83 -604q2 -14 1 -20zM516 237l-35 281q-2 17 -2 36v13 h-1q-18 -41 -62 -118l-117 -212h217zM586 773q5 21 -7.5 27.5t-40.5 6.5q-30 0 -43.5 -6t-18.5 -28q-4 -21 8 -27.5t40 -6.5q30 0 44 6t18 28zM654 772q-17 -78 -140 -78q-14 0 -24 0.5t-29.5 4.5t-31 12t-19.5 24q-4 10 -4 22q0 8 2 17q17 78 140 78q14 0 24 -0.5 t29.5 -4.5t31 -12t19.5 -24q4 -10 4 -22q0 -8 -2 -17zM729 1008l-240 -106h-67q-12 0 -16 6v2q0 5 8 12l150 109h161q9 0 13 -5q2 -2 2 -6q0 -2 -1 -4q-2 -5 -10 -8z" />
<glyph unicode="&#x1fb;" horiz-adv-x="525" d="M484 48q-5 -27 -17.5 -37.5t-40.5 -10.5h-37q-29 0 -37 11q-4 6 -4 17q0 8 3 20l4 20q-70 -79 -172 -79q-63 0 -95 44q-22 32 -22 70q0 15 3 30q9 41 44 71.5t74 44.5t90 22.5t75 9.5t46 1l7 35q5 22 5 39t-5 29q-11 24 -50 24q-92 0 -169 -67q-8 -6 -13 -6q-12 0 -10 11 q0 17 8 73q2 8 7.5 12t23.5 11q83 32 171 32q173 0 173 -116q0 -10 -1 -21l-4 -22zM371 154l18 87l-29 -2q-14 -1 -42.5 -7.5t-50.5 -17t-41.5 -31t-25.5 -48.5q-2 -9 -2 -17q0 -19 10 -35q15 -22 45 -22q5 0 12 0.5t25 5.5t32.5 14t28.5 28t20 45zM446 605q4 21 -8 27.5 t-40 6.5q-30 0 -44 -6t-18 -28q-5 -21 7 -27.5t40 -6.5q30 0 44 6t19 28zM513 604q-16 -78 -139 -78q-14 0 -24 0.5t-29.5 4.5t-31 12t-19.5 24q-4 10 -4 22q0 8 2 17q16 78 139 78q14 0 24 -0.5t29.5 -4.5t31 -12t18.5 -24q5 -10 5 -22q0 -8 -2 -17zM589 840l-241 -106h-67 q-12 0 -15 6q-1 1 -1 2q0 5 8 12l150 109h161q9 0 13 -5q2 -2 2 -5q0 -2 -1 -5q-2 -5 -9 -8z" />
<glyph unicode="&#x1fc;" horiz-adv-x="947" d="M910 48q-5 -27 -17.5 -37.5t-40.5 -10.5h-343q-27 0 -35 10q-5 7 -5 20q0 8 2 18l31 144h-213l-94 -149q-16 -27 -33 -35t-43 -8h-37q-10 0 -16 1t-12 7q-5 4 -5 11q0 3 1 7q1 7 8 18l381 608q15 25 31.5 33.5t43.5 8.5h471q29 0 36 -11q4 -6 4 -16q0 -9 -3 -21l-1 -8 q-5 -23 -16 -34t-20.5 -12.5t-28.5 -1.5l-198 3h-25l-40 -187h199q27 0 36 -10q4 -6 4 -18q0 -8 -2 -19q-6 -28 -19 -37.5t-39 -9.5h-199l-43 -205h51q31 0 94 1.5t95 1.5q19 0 27.5 -1.5t14.5 -12.5q3 -6 3 -16q0 -8 -2 -18zM520 278l67 316h-47l-198 -316h178zM856 862 l-240 -106h-67q-12 0 -15 6q-1 1 -1 2q0 5 8 12l150 109h161q9 0 12 -5q3 -2 3 -6q0 -2 -1 -4q-2 -5 -10 -8z" />
<glyph unicode="&#x1fd;" horiz-adv-x="794" d="M817 261q-6 -28 -19 -37.5t-39 -9.5h-249q-5 -30 -5 -55q0 -34 10 -57q18 -41 81 -41q82 0 151 58q13 10 18 10q7 0 8 -4.5t0 -27.5q-5 -41 -6 -44q-2 -8 -6.5 -11.5t-27.5 -15.5q-76 -37 -156 -37q-112 0 -168 55q-81 -55 -233 -55q-40 0 -68 14.5t-38 35.5t-14 44 q-2 10 -2 19q0 11 3 21q7 34 36.5 59t62 37.5t82.5 20.5t77.5 10t67.5 3l13 64q6 21 6 39q0 15 -5 28q-11 25 -51 25q-93 0 -170 -67q-8 -6 -13 -6q-12 0 -10 11q0 17 8 73q2 8 7.5 12t22.5 10q84 33 172 33q103 0 145 -41q66 41 158 41q100 0 136 -57q23 -35 23 -87 q0 -32 -8 -70zM705 267q4 22 6 36q2 11 2 27q0 4 -1 8q0 22 -5.5 34t-19 21.5t-35.5 9.5q-93 0 -129 -136h182zM372 122q0 7 -1 12q-1 11 -1 23q0 19 2 42q-170 -9 -185 -75q-1 -5 -1 -10q0 -17 11 -33q14 -20 48 -20q50 0 86.5 21t40.5 40zM698 681q-2 -5 -14 -15 l-187 -129h-37h-12q-3 0 -7 1.5t-5 3.5t-0.5 4t0.5 4q1 4 12 15l111 117q8 8 13 10t20 2h82h12q3 0 7 -1.5t5 -4.5v-2.5v-4.5z" />
<glyph unicode="&#x1fe;" horiz-adv-x="856" d="M867 342q-77 -364 -445 -364q-83 0 -151 21l-40 -49q-15 -20 -24.5 -28t-23.5 -8t-26 10q-9 8 -9 20q0 4 1 9q2 10 27 41l14 17l16 21q-85 65 -85 196q0 52 13 114q78 374 446 374q86 0 151 -22l40 50q16 21 25.5 28.5t23.5 7.5t26 -10q9 -8 9 -22q0 -3 -1 -7 q-3 -11 -28 -42q-11 -12 -31 -38q87 -62 87 -196q0 -56 -15 -123zM674 623q-45 21 -110 21q-48 0 -88.5 -11.5t-68.5 -28.5t-51.5 -45t-37 -51.5t-25.5 -58.5t-17 -55t-12 -51q-11 -51 -15 -85q-2 -16 -2 -32q0 -21 3 -42q5 -40 23 -68zM737 343q16 74 16 128q0 68 -25 105 l-401 -506q46 -20 112 -20q48 0 88.5 11t68 27t50.5 43t36.5 49.5t25.5 56.5t17 54t12 52zM810 862l-240 -106h-67q-12 0 -15 6q-1 1 -1 2q0 5 8 12l150 109h161q9 0 12 -5q3 -2 3 -6q0 -2 -1 -4q-2 -5 -10 -8z" />
<glyph unicode="&#x1ff;" d="M566 225q-50 -236 -294 -236q-49 0 -86 9l-77 -98q-22 -27 -32 -31q-6 -2 -14 -2q-15 0 -23 11q-7 7 -7 17q0 4 1 8q3 10 22 34l69 90q-55 40 -55 123q0 34 9 75q53 250 296 250q52 0 89 -11l80 104q17 24 40 24q15 0 24 -10q5 -8 5 -17q0 -4 -1 -9q-2 -11 -15 -27 l-74 -95q53 -43 53 -128q0 -37 -10 -81zM410 395q-24 8 -49 8q-36 0 -63 -12.5t-42.5 -27.5t-28 -43.5t-17 -45.5t-11.5 -48q-11 -50 -11 -82q0 -18 4 -30zM446 226q12 53 12 87q0 19 -4 32l-215 -278q22 -6 48 -6q36 0 63 11t42 24.5t27 40t16 42.5t11 47zM576 681 q-2 -5 -14 -15l-187 -129h-37h-12q-3 0 -7 1.5t-5 3.5t-0.5 4t0.5 4q1 4 12 15l111 117q8 8 13 10t20 2h82h12q3 0 7 -1.5t5 -4.5v-2.5v-4.5z" />
<glyph unicode="&#x200;" horiz-adv-x="733" d="M651 0h-54q-23 0 -35 7.5t-15 17t-5 30.5l-14 96h-277l-62 -111q-23 -40 -72 -40h-36q-11 0 -17 1t-12 7q-5 5 -5 12q0 3 1 7q2 8 9 20l339 604q25 43 74 43h88q14 0 22.5 -1.5t19 -11.5t12.5 -30l83 -604q1 -9 1 -15q0 -12 -10.5 -22t-34.5 -10zM516 237l-35 281 q-2 17 -2 36v13h-1q-18 -41 -62 -118l-117 -212h217zM658 770q-3 -14 -30 -14h-18q-15 0 -18.5 2t-8.5 12l-50 114l-5 16q3 13 30 13h82q18 0 22 -3q2 -2 2 -12v-6zM475 770q-3 -14 -30 -14h-18q-15 0 -18.5 2t-8.5 12l-50 114l-5 16q3 13 30 13h82q17 0 21 -3q3 -2 3 -12 v-6z" />
<glyph unicode="&#x201;" horiz-adv-x="525" d="M484 48q-5 -27 -17.5 -37.5t-40.5 -10.5h-37q-29 0 -37 11q-4 6 -4 17q0 8 3 20l4 20q-70 -79 -172 -79q-63 0 -95 44q-22 32 -22 70q0 15 3 30q9 41 44 71.5t74 44.5t90 22.5t75 9.5t46 1l7 35q5 22 5 39t-5 29q-11 24 -50 24q-92 0 -169 -67q-8 -6 -13 -6q-12 0 -10 11 q0 17 8 73q2 8 7.5 12t23.5 11q83 32 171 32q173 0 173 -116q0 -10 -1 -21l-4 -22zM371 154l18 87l-29 -2q-14 -1 -42.5 -7.5t-50.5 -17t-41.5 -31t-25.5 -48.5q-2 -9 -2 -17q0 -19 10 -35q15 -22 45 -22q5 0 12 0.5t25 5.5t32.5 14t28.5 28t20 45zM538 551q-3 -14 -30 -14 h-18q-15 0 -18.5 2t-8.5 12l-50 114l-4 16q3 13 30 13h82q17 0 21 -3q3 -2 3 -12v-6zM355 551q-3 -14 -30 -14h-18q-15 0 -18.5 2t-8.5 12l-50 114l-4 16q3 13 30 13h82q18 0 22 -3q2 -2 2 -12v-6z" />
<glyph unicode="&#x204;" horiz-adv-x="642" d="M605 48q-5 -27 -17.5 -37.5t-40.5 -10.5h-408q-27 0 -35 10q-5 7 -5 20q0 8 2 18l127 595q6 28 18.5 38t39.5 10h393q29 0 36 -11q4 -6 4 -18q0 -8 -2 -19l-2 -8q-5 -23 -15.5 -34t-20.5 -12.5t-32 -1.5l-235 3h-49l-39 -185h263q27 0 35 -10q5 -6 5 -18q0 -8 -2 -19 q-6 -28 -19 -37.5t-39 -9.5h-263l-43 -205l146 2l155 2q21 0 30 -1.5t15 -12.5q3 -6 3 -16q0 -8 -2 -18zM643 770q-3 -14 -30 -14h-18q-15 0 -18.5 2t-8.5 12l-50 114l-5 16q3 13 30 13h82q17 0 21 -3q3 -2 3 -12v-6zM460 770q-3 -14 -30 -14h-18q-15 0 -18.5 2t-8.5 12 l-50 114l-5 16q3 13 30 13h82q18 0 22 -3q2 -2 2 -12v-6z" />
<glyph unicode="&#x205;" horiz-adv-x="511" d="M534 260q-4 -21 -14.5 -32t-19.5 -12.5t-24 -1.5h-272q-4 -24 -5 -41v-9q0 -14 2 -31q3 -23 13 -37t32 -24.5t54 -10.5q83 0 163 58q13 10 19 10q7 0 8 -4.5t0 -27.5q-5 -41 -6 -44q-1 -8 -7 -12.5t-27 -13.5q-84 -38 -169 -38q-120 0 -173 61q-36 42 -36 110q0 33 9 73 q24 116 98 179t192 63q108 0 147 -57q24 -36 24 -90q0 -31 -8 -68zM425 267q6 40 6 70t-18.5 48t-56.5 18q-103 0 -139 -136h208zM531 551q-3 -14 -30 -14h-18q-15 0 -18.5 2t-8.5 12l-50 114l-4 16q3 13 30 13h82q18 0 22 -3q2 -2 2 -12v-6zM348 551q-3 -14 -30 -14h-18 q-15 0 -18.5 2t-8.5 12l-50 114l-4 16q3 13 30 13h82q17 0 21 -3q3 -2 3 -12v-6z" />
<glyph unicode="&#x208;" horiz-adv-x="331" d="M249 48q-5 -27 -17.5 -37.5t-40.5 -10.5h-51q-27 0 -35 10q-5 7 -5 20q0 8 2 18l127 598q6 27 19 37.5t40 10.5h51q29 0 36 -11q4 -6 4 -16q0 -9 -3 -21zM487 770q-3 -14 -30 -14h-18q-15 0 -18.5 2t-8.5 12l-50 114l-5 16q3 13 30 13h82q17 0 21 -3q3 -2 3 -12v-6z M304 770q-3 -14 -30 -14h-18q-15 0 -18.5 2t-8.5 12l-50 114l-5 16q3 13 30 13h82q18 0 22 -3q2 -2 2 -12v-6z" />
<glyph unicode="&#x209;" horiz-adv-x="256" d="M204 48q-5 -27 -17.5 -37.5t-40.5 -10.5h-37q-27 0 -35 10q-5 7 -5 20q0 8 2 18l77 362q6 28 18.5 38t39.5 10h37q29 0 37 -11q4 -6 4 -17q0 -8 -3 -20zM403 551q-3 -14 -30 -14h-18q-15 0 -18.5 2t-8.5 12l-50 114l-4 16q3 13 30 13h82q18 0 22 -3q2 -2 2 -12v-6z M220 551q-3 -14 -30 -14h-18q-15 0 -18.5 2t-8.5 12l-50 114l-4 16q3 13 30 13h82q17 0 21 -3q3 -2 3 -12v-6z" />
<glyph unicode="&#x20c;" horiz-adv-x="794" d="M805 342q-78 -364 -414 -364q-272 0 -272 239q0 56 15 125q80 374 415 374q271 0 271 -246q0 -57 -15 -128zM661 358q6 28 9 44.5t6 49.5q3 21 3 37q0 10 -1 17q-2 22 -10 49.5t-24 43.5t-44.5 27.5t-67.5 11.5t-72 -11.5t-56 -28t-42.5 -44t-31 -49t-22 -54.5t-14.5 -49 t-10 -44q-6 -29 -9 -46t-7 -52q-3 -26 -3 -46q0 -7 1 -13q1 -23 8.5 -53t23.5 -47.5t44 -30t67 -12.5t72.5 12.5t56.5 30.5t43 47.5t32 53t23 58.5t15 52zM719 770q-3 -14 -30 -14h-18q-15 0 -18.5 2t-8.5 12l-50 114l-5 16q3 13 30 13h82q17 0 21 -3q3 -2 3 -12v-6z M536 770q-3 -14 -30 -14h-18q-15 0 -18.5 2t-8.5 12l-50 114l-5 16q3 13 30 13h82q18 0 22 -3q2 -2 2 -12v-6z" />
<glyph unicode="&#x20d;" d="M566 225q-50 -236 -294 -236q-202 0 -202 161q0 34 9 75q53 250 297 250q199 0 199 -168q0 -37 -9 -82zM432 237q7 31 10 48t3 43t-8 40t-27 24.5t-50 10.5t-54.5 -11t-37 -24.5t-25 -40t-15.5 -42.5t-11 -48q-6 -27 -8.5 -41t-4.5 -38q-1 -8 -1 -15q0 -13 3 -22 q4 -13 12.5 -27t26.5 -20.5t44 -6.5q38 0 64.5 14t42 43t22 51.5t14.5 61.5zM550 551q-3 -14 -30 -14h-18q-15 0 -18.5 2t-8.5 12l-50 114l-4 16q3 13 30 13h82q17 0 21 -3q3 -2 3 -12v-6zM367 551q-3 -14 -30 -14h-18q-15 0 -18.5 2t-8.5 12l-50 114l-4 16q3 13 30 13h82 q18 0 22 -3q2 -2 2 -12v-6z" />
<glyph unicode="&#x210;" horiz-adv-x="703" d="M659 30q-3 -14 -10 -21t-13.5 -8t-19.5 -1h-59q-13 0 -19 1t-12.5 6t-10.5 17l-103 287h-111l-56 -263q-5 -27 -17.5 -37.5t-40.5 -10.5h-48q-27 0 -35 10q-5 7 -5 20q0 8 2 18l127 598q6 27 19 37.5t40 10.5h240q192 0 221 -112q4 -18 4 -38q0 -22 -5 -47 q-30 -139 -196 -177zM607 496q4 20 4 36q0 30 -14 48q-22 28 -103 28h-130l-48 -225h130q84 0 117 29.5t44 83.5zM643 770q-3 -14 -30 -14h-18q-15 0 -18.5 2t-8.5 12l-50 114l-5 16q3 13 30 13h82q17 0 21 -3q3 -2 3 -12v-6zM460 770q-3 -14 -30 -14h-18q-15 0 -18.5 2 t-8.5 12l-50 114l-5 16q3 13 30 13h82q18 0 22 -3q2 -2 2 -12v-6z" />
<glyph unicode="&#x211;" horiz-adv-x="372" d="M440 395q-4 -19 -8 -22.5t-18 -4.5q-56 -4 -106.5 -38.5t-64.5 -99.5l-39 -182q-5 -27 -17.5 -37.5t-40.5 -10.5h-37q-27 0 -35 10q-5 7 -5 20q0 8 2 18l78 368q6 27 19 37.5t40 10.5h32q29 0 36 -11q4 -6 4 -16q0 -9 -3 -21l-13 -65h1q25 38 52 63.5t51 36.5t40 14.5 t30 3.5q12 0 14 -6t-2 -21zM461 551q-3 -14 -30 -14h-18q-15 0 -18.5 2t-8.5 12l-50 114l-4 16q3 13 30 13h82q18 0 22 -3q2 -2 2 -12v-6zM278 551q-3 -14 -30 -14h-18q-15 0 -18.5 2t-8.5 12l-50 114l-4 16q3 13 30 13h82q17 0 21 -3q3 -2 3 -12v-6z" />
<glyph unicode="&#x214;" horiz-adv-x="764" d="M721 229q-13 -62 -42.5 -109t-64.5 -73.5t-79 -42.5t-80.5 -21t-75.5 -5q-29 0 -55.5 3t-55.5 10t-50.5 19.5t-42 31.5t-30 45.5t-13.5 62.5v17q0 29 8 63l88 416q6 27 19 37.5t40 10.5h51q29 0 36 -11q4 -6 4 -16q0 -9 -3 -21l-89 -420q-8 -35 -8 -63q0 -36 14 -59 q24 -40 107 -40q86 0 127 41t58 122l89 419q6 27 18.5 37.5t40.5 10.5h40q29 0 36 -11q4 -6 4 -16q0 -9 -3 -21zM704 770q-3 -14 -30 -14h-18q-15 0 -18.5 2t-8.5 12l-50 114l-5 16q3 13 30 13h82q18 0 22 -3q2 -2 2 -12v-6zM521 770q-3 -14 -30 -14h-18q-15 0 -18.5 2 t-8.5 12l-50 114l-5 16q3 13 30 13h82q17 0 21 -3q3 -2 3 -12v-6z" />
<glyph unicode="&#x215;" horiz-adv-x="561" d="M510 48q-5 -27 -17.5 -37.5t-40.5 -10.5h-37q-29 0 -37 11q-4 6 -4 17q0 8 3 20l6 26q-65 -85 -163 -85q-83 0 -116 30q-22 20 -22 62q0 20 5 45l60 284q6 28 18.5 38t39.5 10h40q29 0 37 -11q4 -6 4 -17q0 -8 -3 -20l-62 -293q-5 -22 -5 -36q0 -11 4 -17q8 -14 49 -14 q51 0 86 35t46 88l50 237q6 27 18 37.5t40 10.5h40q29 0 37 -11q4 -6 4 -17q0 -8 -3 -20zM556 551q-3 -14 -30 -14h-18q-15 0 -18.5 2t-8.5 12l-50 114l-4 16q3 13 30 13h82q17 0 21 -3q3 -2 3 -12v-6zM373 551q-3 -14 -30 -14h-18q-15 0 -18.5 2t-8.5 12l-50 114l-4 16 q3 13 30 13h82q18 0 22 -3q2 -2 2 -12v-6z" />
<glyph unicode="&#x218;" horiz-adv-x="611" d="M592 200q-24 -113 -99.5 -167.5t-192.5 -54.5q-73 0 -142 23l-8 3l-20 8l-23 11.5t-23 12.5t-16 12t-6 11q0 4 5 14l33 87q7 18 18 18q6 0 15 -12q72 -79 190 -79q119 0 140 97q2 10 2 19q0 27 -18 50q-12 14 -29.5 20.5t-62.5 17.5q-48 12 -68 18t-46 21.5t-45 40.5 q-32 42 -32 95q0 20 5 42q44 208 288 208q100 0 173 -40q17 -10 20 -13q1 -2 1 -6q0 -5 -5 -16l-33 -87q-7 -18 -18 -18q-4 0 -18 16q-48 61 -142 61q-119 0 -137 -87q-2 -9 -2 -18q0 -24 18 -40q24 -21 50 -27l91 -22q74 -18 114 -78q28 -42 28 -95q0 -22 -5 -46zM328 -173 q-4 -18 -14 -29l-63 -75q-9 -11 -13 -13t-18 -2h-11q-9 0 -12.5 0.5t-6.5 3t-2 7.5l23 41q5 7 13 22l12 21q-22 0 -26 3.5t0 20.5l15 70q4 17 8 20.5t21 3.5h70q17 0 20 -3q1 -2 1 -6q0 -5 -2 -15z" />
<glyph unicode="&#x219;" horiz-adv-x="422" d="M426 141q-32 -152 -209 -152q-58 0 -110 17q-1 1 -3.5 1.5t-10 3.5t-14 6t-14 7t-13 8t-8.5 8q-3 3 -3 6t7 23l14 36l10 24q8 15 17 15q6 0 12 -8q43 -69 132 -69q79 0 90 54q3 15 -2 26.5t-18.5 17.5t-23 8.5t-24.5 5.5q-35 7 -51 11t-36 14t-33 25q-30 33 -30 75 q0 14 3 28q30 143 209 143q55 0 95 -12q1 0 6.5 -2t10.5 -3.5t11 -4.5l12 -5q5 -3 9.5 -6t6.5 -6q1 -3 1 -5q0 -3 -6 -19q-6 -15 -12.5 -33t-7.5 -19q-7 -13 -16 -13q-6 0 -14 10q-45 47 -119 47q-72 0 -83 -49q-1 -5 -1 -9q0 -12 8 -21q12 -12 27.5 -16.5t48.5 -10.5 q27 -5 40 -8.5t32 -14t35 -27.5q29 -32 29 -75q0 -15 -4 -32zM233 -173q-4 -18 -14 -29l-63 -75q-9 -11 -13 -13t-18 -2h-11q-9 0 -12.5 0.5t-6.5 3t-2 7.5l23 41l12 22q8 14 13 21q-22 0 -26 3.5t0 20.5l15 70q4 17 8 20.5t21 3.5h70q17 0 20 -3q1 -2 1 -6q0 -5 -2 -15z " />
<glyph unicode="&#x21a;" horiz-adv-x="733" d="M826 632q-5 -23 -15.5 -34t-19.5 -12.5t-27 -1.5l-199 3l-115 -539q-5 -27 -17.5 -37.5t-40.5 -10.5h-51q-27 0 -35 10q-5 7 -5 20q0 8 2 18l115 539l-202 -3q-18 0 -26.5 1.5t-14.5 12.5q-3 6 -3 16q0 8 2 18l2 8q6 28 18.5 38t39.5 10h556q29 0 36 -11q5 -6 5 -17 q0 -8 -3 -20zM389 -173q-4 -18 -14 -29l-63 -75q-9 -11 -13 -13t-18 -2h-11q-9 0 -12.5 0.5t-6.5 3t-2 7.5l23 41l12 22q8 14 13 21q-22 0 -26 3.5t0 20.5l15 70q4 17 8 20.5t21 3.5h70q17 0 20 -3q1 -2 1 -6q0 -5 -2 -15z" />
<glyph unicode="&#x21b;" horiz-adv-x="404" d="M383 47q-4 -20 -84 -42q-55 -16 -108 -16q-82 0 -82 87q0 25 7 57l54 253h-20q-11 0 -18.5 1t-16.5 10t-5 25q7 36 55 36h23l18 83q6 28 18.5 38t39.5 10h31q29 0 37 -11q4 -6 4 -17q0 -8 -3 -20l-18 -83h89q42 0 42 -27q0 -4 -1 -9q-8 -36 -56 -36h-89l-50 -236 q-6 -31 -6 -49q0 -11 2 -17q6 -17 25 -17q38 0 87 30q8 7 13 7q10 0 11 -26q1 -30 1 -31zM224 -173q-4 -18 -14 -29l-63 -75q-9 -11 -13 -13t-18 -2h-11q-9 0 -12.5 0.5t-6.5 3t-2 7.5l23 41q5 7 13 22l12 21q-22 0 -26 3.5t0 20.5l15 70q4 17 8 20.5t21 3.5h70q17 0 20 -3 q1 -2 1 -6q0 -5 -2 -15z" />
<glyph unicode="&#x237;" horiz-adv-x="286" d="M217 -32q-37 -173 -186 -173q-47 0 -93 17q-43 15 -43 28q0 4 18 34q11 19 14.5 23t9.5 4q1 0 9 -4q24 -18 59 -18q21 0 35.5 6t22 17.5t10.5 20t6 21.5l99 466q6 27 18 37.5t40 10.5h37q29 0 37 -11q4 -6 4 -17q0 -8 -3 -20z" />
<glyph unicode="&#x258;" horiz-adv-x="511" d="M529 233q-26 -121 -105 -182.5t-199 -61.5q-85 0 -153 38q-12 7 -16 9.5t-6 6.5q-2 3 -2 7q0 9 14 47q7 23 10 27.5t10 4.5q6 0 15 -10q55 -58 139 -58q40 0 70 14t47 39.5t26.5 47.5t16.5 52h-272q-11 0 -17 1t-14 5.5t-8 13.5t1 26q47 215 255 215q118 0 165 -63 q31 -42 31 -107q0 -33 -8 -72zM407 267q4 24 4 44q0 92 -85 92q-55 0 -83 -34.5t-44 -101.5h208z" />
<glyph unicode="&#x259;" horiz-adv-x="511" d="M528 231q-24 -116 -98 -179t-192 -63q-108 0 -146 57q-25 37 -25 92q0 30 7 66q5 21 15.5 32t19 12.5t23.5 1.5h272q4 23 6 41v11q0 14 -2 30q-4 22 -13.5 36.5t-31.5 24.5t-54 10q-84 0 -164 -58q-13 -10 -19 -10q-7 0 -8 4.5t1 27.5q0 3 2 21.5t3 22.5q1 6 5.5 10 t9.5 6.5t20 9.5q84 38 169 38q120 0 173 -61q36 -42 36 -110q0 -33 -9 -73zM392 197h-208q-8 -30 -8 -55q0 -24 8 -42q14 -39 69 -39q103 0 139 136z" />
<glyph unicode="&#x2be;" horiz-adv-x="436" d="M470 447q-38 -180 -217 -180q-59 0 -104 23q-18 10 -18 20q0 1 10 27q9 23 10 26q7 13 17 13q6 0 16 -10q15 -17 32 -24t48 -7q25 0 42.5 9t28 27.5t15.5 34.5t10 42q4 18 5 24t3 23.5t-0.5 25.5t-7 19t-15.5 15.5t-28 4.5q-55 0 -110 -39q-11 -9 -17 -9q-13 0 -13 16 q4 38 7 51q2 7 5.5 10.5t22.5 12.5q56 26 118 26q147 0 147 -122q0 -27 -7 -59z" />
<glyph unicode="&#x2bf;" horiz-adv-x="436" d="M442 316q-2 -7 -5.5 -10.5t-22.5 -12.5q-56 -26 -118 -26q-147 0 -147 123q0 26 7 58q39 180 217 180q59 0 105 -23q17 -10 17 -20q0 -1 -10 -27q-9 -23 -10 -26q-7 -13 -17 -13q-6 0 -16 10q-15 17 -32 24t-48 7q-25 0 -42.5 -9t-28 -28t-15 -34t-10.5 -42 q-4 -18 -5 -24t-3 -23.5t0.5 -25.5t7 -19t15.5 -15.5t28 -4.5q55 0 110 39q11 9 17 9q13 0 13 -16q-4 -38 -7 -51z" />
<glyph unicode="&#x2c6;" d="M555 556q1 -2 1 -4q0 -4 -4 -10q-5 -7 -12 -7h-47q-4 1 -6 2l-76 101l-120 -101l-6 -2h-47q-7 0 -9 7q-1 1 -1 3q0 5 4 9l127 139q4 4 10 4h111q7 0 8 -4z" />
<glyph unicode="&#x2c7;" d="M581 678l-127 -139q-4 -4 -10 -4h-111q-7 0 -8 4l-67 137q-1 2 -1 4q0 5 3 10q6 7 13 7h47q4 -1 6 -2l76 -101l120 101l6 2h47q7 0 9 -7q1 -1 1 -3q0 -5 -4 -9z" />
<glyph unicode="&#x2d8;" d="M602 649q-22 -104 -211 -104q-18 0 -30 0.5t-37 3t-41.5 9.5t-33.5 17.5t-23 29.5q-3 10 -3 23q0 10 2 21q3 18 16.5 28t27.5 10q4 0 8 -1t10 -4t9 -11t1 -20q24 -13 115 -13q90 0 118 13q12 36 44 36q13 0 22 -10q7 -7 7 -18q0 -5 -1 -10z" />
<glyph unicode="&#x2d9;" horiz-adv-x="306" d="M355 606q-6 -25 -17.5 -36.5t-40.5 -11.5h-51q-30 0 -36 12q-4 6 -4 17q0 8 2 19l4 19q5 27 17.5 37.5t40.5 10.5h51q29 0 37 -11q4 -6 4 -17q0 -8 -3 -20z" />
<glyph unicode="&#x2da;" horiz-adv-x="800" d="M584 605q4 21 -8 27.5t-40 6.5q-30 0 -44 -6t-18 -28q-5 -21 7 -27.5t40 -6.5q30 0 44 6t19 28zM651 604q-16 -78 -139 -78q-14 0 -24 0.5t-29.5 4.5t-31 12t-19.5 24q-4 10 -4 22q0 8 2 17q16 78 139 78q14 0 24 -0.5t29.5 -4.5t31 -12t18.5 -24q5 -10 5 -22 q0 -8 -2 -17z" />
<glyph unicode="&#x2db;" d="M358 -162q-4 -14 -13 -19q-69 -32 -123 -32q-52 0 -74 28q-16 20 -16 48q0 12 3 25q9 41 37 76t67 54l69 -8q-53 -35 -68 -96q-2 -8 -2 -14q0 -24 32 -26q12 0 67 12q5 2 11.5 -2.5t5.5 -9.5z" />
<glyph unicode="&#x2dc;" d="M599 664q-8 -41 -46 -77.5t-88 -36.5q-43 0 -90 37q-26 22 -43 22q-33 0 -47 -44q-4 -11 -9 -13t-21 -2h-18q-16 0 -21 2q-3 2 -3 7q0 3 1 8q8 41 46 77.5t88 36.5q43 0 90 -37q26 -22 42 -22q33 0 48 44q4 11 9 13t21 2h18q17 0 22 -3q2 -1 2 -6q0 -3 -1 -8z" />
<glyph unicode="&#x2dd;" d="M419 681q-1 -4 -12 -16l-98 -114q-9 -10 -13.5 -12t-19.5 -2h-18q-10 0 -14.5 0.5t-7.5 3.5t-2 10l45 122q6 15 11.5 18t22.5 3h82h11q4 0 8 -1.5t5 -4t0 -7.5zM602 681q-1 -4 -12 -16l-98 -114q-9 -10 -13.5 -12t-19.5 -2h-18q-10 0 -14.5 0.5t-7.5 3.5t-2 10l45 122 q6 15 11 18t23 3h82h12q3 0 7 -1.5t5 -4.5v-2.5v-4.5z" />
<glyph unicode="&#x300;" horiz-adv-x="0" d="M-97 537h-37l-131 129q-8 7 -8 13v2q3 13 30 13h82q14 0 18 -1.5t9 -10.5l61 -117q6 -10 6 -14q0 -14 -30 -14z" />
<glyph unicode="&#x301;" horiz-adv-x="0" d="M39 681q-2 -5 -14 -15l-187 -129h-37h-11q-4 0 -8 1.5t-5 3.5q0 2 -0.5 4t0.5 4q1 4 12 15l111 117q8 8 13 10t20 2h82h11q4 0 8 -1.5t5 -4.5q0 -1 0.5 -2.5t-0.5 -4.5z" />
<glyph unicode="&#x302;" horiz-adv-x="0" d="M18 556q1 -2 1 -4q0 -4 -4 -10q-5 -7 -12 -7h-47q-4 1 -6 2l-76 101l-120 -101l-6 -2h-47q-7 0 -9 7q-1 1 -1 3q0 5 4 9l127 139q4 4 10 4h111q7 0 8 -4z" />
<glyph unicode="&#x303;" horiz-adv-x="0" d="M62 664q-8 -41 -46 -77.5t-88 -36.5q-43 0 -90 37q-26 22 -43 22q-33 0 -47 -44q-4 -11 -9 -13t-21 -2h-18q-16 0 -21 2q-3 2 -3 7q0 4 1 8q8 41 46 77.5t88 36.5q43 0 90 -37q26 -22 42 -22q33 0 48 44q4 11 9 13t21 2h18q17 0 21 -3q3 -1 3 -6q0 -3 -1 -8z" />
<glyph unicode="&#x304;" horiz-adv-x="0" d="M65 600q-5 -20 -9.5 -23.5t-23.5 -3.5h-343q-20 0 -23 3v6q0 6 2 18l6 31q5 20 9.5 23.5t23.5 3.5h343q20 0 22 -4q1 -2 1 -5q0 -6 -2 -18z" />
<glyph unicode="&#x306;" horiz-adv-x="0" d="M65 649q-22 -104 -211 -104q-18 0 -30 0.5t-37 3t-41.5 9.5t-33.5 17.5t-23 29.5q-3 10 -3 23q0 10 2 21q3 18 16.5 28t27.5 10q4 0 8 -1t10 -4t9 -11t1 -20q24 -13 115 -13q90 0 118 13q12 36 44 36q13 0 23 -10q6 -7 6 -18q0 -5 -1 -10z" />
<glyph unicode="&#x307;" horiz-adv-x="0" d="M-60 606q-6 -25 -17.5 -36.5t-40.5 -11.5h-51q-30 0 -37 12q-3 6 -3 17q0 8 2 19l4 19q5 27 17.5 37.5t40.5 10.5h51q29 0 36 -11q5 -6 5 -17q0 -8 -3 -20z" />
<glyph unicode="&#x308;" horiz-adv-x="0" d="M-188 607q-5 -23 -15.5 -33t-36.5 -10h-46q-26 0 -32 10q-4 6 -4 16q0 7 2 17l4 17q5 24 16 33.5t36 9.5h46q26 0 32 -9q4 -6 4 -16q0 -8 -2 -18zM54 607q-5 -23 -15.5 -33t-36.5 -10h-46q-26 0 -32 10q-4 6 -4 16q0 7 2 17l4 17q5 24 16 33.5t36 9.5h46q26 0 32 -9 q4 -6 4 -16q0 -8 -2 -18z" />
<glyph unicode="&#x309;" horiz-adv-x="0" d="M-18 645q-8 -36 -42 -52q-2 -1 -16 -7q-30 -14 -42 -22.5t-15 -21.5l-3 -17q-4 -12 -15 -12h-19q-5 0 -8.5 3.5t-1.5 8.5l3 17q11 52 63 88q7 5 8 15q4 18 2 22q-4 5 -23 5q-20 0 -39 -14.5t-30 -37.5h-1l-3 -5l-5 -3h-1l-4 -1l-4 1q-4 1 -4 3q-2 2 -2 4l-7 45v4q2 6 5 8 q48 43 105 43t81 -16q20 -14 20 -40q0 -8 -2 -18z" />
<glyph unicode="&#x30a;" horiz-adv-x="0" d="M-79 605q4 21 -8 27.5t-40 6.5q-30 0 -44 -6t-18 -28q-5 -21 7 -27.5t40 -6.5q30 0 44 6t19 28zM-12 604q-16 -78 -139 -78q-14 0 -24 0.5t-29.5 4.5t-31 12t-18.5 24q-5 10 -5 22q0 8 2 17q16 78 139 78q14 0 24 -0.5t29.5 -4.5t31 -12t19.5 -24q4 -10 4 -22 q0 -8 -2 -17z" />
<glyph unicode="&#x30b;" horiz-adv-x="0" d="M-118 681q-1 -4 -12 -16l-98 -114q-9 -10 -13.5 -12t-19.5 -2h-18q-10 0 -14.5 0.5t-7.5 3.5t-2 10l45 122q6 15 11 18t23 3h82h12q3 0 7 -1.5t5 -4t0 -7.5zM65 681q-1 -4 -12 -16l-98 -114q-9 -10 -13.5 -12t-19.5 -2h-18q-10 0 -14.5 0.5t-7.5 3.5t-2 10l45 122 q6 15 11.5 18t22.5 3h82h11q4 0 8 -1.5t5 -4.5q1 -1 1 -2.5t-1 -4.5z" />
<glyph unicode="&#x30c;" horiz-adv-x="0" d="M44 678l-127 -139q-4 -4 -10 -4h-111q-7 0 -8 4l-67 137q-1 2 -1 4q0 5 4 10q5 7 12 7h47q4 -1 6 -2l76 -101l120 101l6 2h47q7 0 9 -7q1 -1 1 -3q0 -5 -4 -9z" />
<glyph unicode="&#x30f;" horiz-adv-x="0" d="M13 551q-3 -14 -30 -14h-18q-15 0 -18.5 2t-8.5 12l-50 114l-4 16q3 13 30 13h82q18 0 22 -3q2 -2 2 -12v-6zM-170 551q-3 -14 -30 -14h-18q-15 0 -18.5 2t-8.5 12l-50 114l-4 16q3 13 30 13h82q17 0 21 -3q3 -2 3 -12v-6z" />
<glyph unicode="&#x311;" horiz-adv-x="0" d="M51 583q-4 -18 -17 -28t-27 -10q-6 0 -11.5 1.5t-12.5 10.5t-5 24q-23 13 -114 13q-90 0 -119 -13q-11 -36 -43 -36q-13 0 -22 10q-7 7 -7 18q0 5 1 10q22 104 211 104q18 0 30 -0.5t37 -3t41.5 -9.5t33.5 -17.5t23 -29.5q3 -10 3 -23q0 -10 -2 -21z" />
<glyph unicode="&#x323;" horiz-adv-x="0" d="M-221 -152q-6 -25 -18 -36.5t-41 -11.5h-51q-30 0 -36 12q-3 6 -3 16q0 9 2 20l4 19q5 27 17.5 37.5t40.5 10.5h51q29 0 37 -11q4 -6 4 -17q0 -8 -3 -20z" />
<glyph unicode="&#x326;" horiz-adv-x="0" d="M-240 -173q-4 -18 -14 -29l-63 -75q-9 -11 -13 -13t-18 -2h-11q-9 0 -12.5 0.5t-6.5 3t-2 7.5l23 41q5 7 13 22l12 21q-22 0 -26 3.5t0 20.5l15 70q4 17 8 20.5t21 3.5h70q17 0 20 -3q1 -2 1 -6q0 -5 -2 -15z" />
<glyph unicode="&#x32e;" horiz-adv-x="0" d="M-96 -109q-22 -104 -211 -104q-18 0 -30 0.5t-37 3t-41.5 9.5t-33.5 17.5t-23 29.5q-3 10 -3 23q0 10 2 21q3 18 16.5 28t27.5 10q6 0 11.5 -1.5t12 -10.5t4.5 -24q23 -13 114 -13q90 0 119 13q11 36 44 36q13 0 22 -10q7 -7 7 -18q0 -5 -1 -10z" />
<glyph unicode="&#x32f;" horiz-adv-x="0" d="M-110 -175q-4 -18 -17 -28t-27 -10q-6 0 -11.5 1.5t-12.5 10.5t-5 24q-23 13 -114 13q-90 0 -119 -13q-11 -36 -43 -36q-13 0 -23 10q-6 7 -6 18q0 5 1 10q22 104 211 104q18 0 30 -0.5t37 -3t41.5 -9.5t33.5 -17.5t23 -29.5q3 -10 3 -23q0 -10 -2 -21z" />
<glyph unicode="&#x330;" horiz-adv-x="0" d="M-99 -93q-8 -41 -46 -77.5t-88 -36.5q-43 0 -90 37q-26 22 -42 22q-34 0 -48 -44q-4 -11 -9 -13t-21 -2h-18q-16 0 -21 3q-3 1 -3 6q0 4 1 8q8 41 46 77.5t88 36.5q43 0 90 -37q26 -22 42 -22q33 0 48 44q4 11 9 13t21 2h18q17 0 22 -2q2 -2 2 -7q0 -3 -1 -8z" />
<glyph unicode="&#x331;" horiz-adv-x="0" d="M-96 -157q-5 -20 -9.5 -23.5t-23.5 -3.5h-343q-20 0 -22 4q-1 2 -1 5q0 6 2 18l6 31q5 20 9.5 23.5t23.5 3.5h343q20 0 23 -3v-6q0 -6 -2 -18z" />
<glyph unicode="&#x332;" horiz-adv-x="0" d="M-96 -157q-5 -20 -9.5 -23.5t-23.5 -3.5h-343q-20 0 -22 4q-1 2 -1 5q0 6 2 18l6 31q5 20 9.5 23.5t23.5 3.5h343q20 0 23 -3v-6q0 -6 -2 -18z" />
<glyph unicode="&#x391;" horiz-adv-x="733" d="M651 0h-54q-23 0 -35 7.5t-15 17t-5 30.5l-14 96h-277l-62 -111q-23 -40 -72 -40h-36q-11 0 -17 1t-12 7q-5 5 -5 12q0 3 1 7q2 8 9 20l339 604q25 43 74 43h88q14 0 22.5 -1.5t19 -11.5t12.5 -30l83 -604q1 -9 1 -15q0 -12 -10.5 -22t-34.5 -10zM516 237l-35 281 q-2 17 -2 36v13h-1q-18 -41 -62 -118l-117 -212h217z" />
<glyph unicode="&#x392;" horiz-adv-x="733" d="M712 194q-13 -63 -50.5 -105.5t-87.5 -60t-86.5 -23t-74.5 -5.5h-274q-27 0 -35 10q-5 7 -5 20q0 8 2 18l127 598q6 27 19 37.5t40 10.5h246q184 0 215 -99q6 -18 6 -40q0 -19 -5 -41q-12 -58 -57.5 -96.5t-119.5 -54.5q144 -24 144 -129q0 -19 -4 -40zM613 511 q2 11 2 20q0 15 -5 26q-9 19 -24 28.5t-38.5 15t-38 6.5t-31.5 1h-117l-45 -211h116q14 0 26.5 0.5t40 7t48 17t40 34t26.5 55.5zM574 196q3 16 3 29q0 18 -5 33q-11 27 -27.5 39.5t-44 19t-41.5 7.5t-32 1h-126l-51 -239h145q156 0 179 110z" />
<glyph unicode="&#x393;" horiz-adv-x="581" d="M669 635q-5 -23 -15.5 -34t-20 -12.5t-29.5 -1.5l-209 3h-32l-115 -542q-5 -27 -17.5 -37.5t-40.5 -10.5h-51q-27 0 -35 10q-5 7 -5 20q0 8 2 18l127 595q6 28 18.5 38t39.5 10h347q29 0 36 -11q4 -6 4 -18q0 -8 -2 -19z" />
<glyph unicode="&#x394;" horiz-adv-x="917" d="M861 25q-5 -25 -43 -25h-720q-7 0 -11.5 0.5t-11.5 2.5t-9 7q-2 4 -2 8q0 3 1 7q1 5 12 20l407 610q27 39 77 39h90q50 0 59 -39l149 -612q3 -7 3 -13q0 -3 -1 -5zM676 132l-107 440l-295 -440h402z" />
<glyph unicode="&#x395;" horiz-adv-x="642" d="M605 48q-5 -27 -17.5 -37.5t-40.5 -10.5h-408q-27 0 -35 10q-5 7 -5 20q0 8 2 18l127 595q6 28 18.5 38t39.5 10h393q29 0 36 -11q4 -6 4 -18q0 -8 -2 -19l-2 -8q-5 -23 -15.5 -34t-20.5 -12.5t-32 -1.5l-235 3h-49l-39 -185h263q27 0 35 -10q5 -6 5 -18q0 -8 -2 -19 q-6 -28 -19 -37.5t-39 -9.5h-263l-43 -205l146 2l155 2q21 0 30 -1.5t15 -12.5q3 -6 3 -16q0 -8 -2 -18z" />
<glyph unicode="&#x396;" horiz-adv-x="672" d="M626 48q-5 -27 -17.5 -37.5t-40.5 -10.5h-459q-27 0 -35 10q-5 7 -5 20q0 8 2 18l2 8q4 21 17 35l470 508h-35l-261 -3h-18q-6 0 -14.5 1.5t-12 4.5t-6.5 8.5t-2.5 14t2.5 20.5q6 26 17.5 37.5t41.5 11.5h438q32 0 38 -15q3 -7 3 -14q0 -10 -4 -21q-4 -17 -6.5 -22.5 t-11.5 -14.5l-468 -506l320 4q21 0 30.5 -1.5t15.5 -12.5q3 -6 3 -16q0 -8 -2 -18z" />
</font>
</defs>
</svg>
