<?xml version="1.0" standalone="no"?>
<!DOCTYPE svg PUBLIC "-//W3C//DTD SVG 1.1//EN" "http://www.w3.org/Graphics/SVG/1.1/DTD/svg11.dtd" >
<svg xmlns="http://www.w3.org/2000/svg">
<metadata>
This is a custom SVG webfont generated by Font Squirrel.
Designer    : Hirwen HARENDAL
Foundry     : Arkandis Digital Foundry
Foundry URL : httparkandistuxfamilyorg
</metadata>
<defs>
<font id="webfontEdFCH07G" horiz-adv-x="617" >
<font-face units-per-em="1000" ascent="800" descent="-200" />
<missing-glyph horiz-adv-x="349" />
<glyph unicode="AE" horiz-adv-x="984" d="M1087 721l-22 -100h-353l-39 -188h339l-22 -100h-339l-50 -235h363l-20 -98h-511l37 176h-205l-112 -176h-149l460 721h623zM549 624l-218 -348h160l72 345z" />
<glyph unicode="ae" horiz-adv-x="962" d="M78 175q0 55 19 110t56 105.5t102.5 82t149.5 31.5q34 0 55 -7t35 -29l1 23h129l-5 -21q68 34 153 34h7q93 0 146.5 -36.5t53.5 -105.5q0 -16 -3 -34q-5 -18 -14 -34t-17 -27t-22 -23l-23 -17q-8 -6 -26 -14.5t-23 -10.5l-23 -9l-18 -7q-73 -26 -241 -26q-1 -3 -1 -8 q0 -27 37 -50.5t93 -23.5h3q103 0 223 42l-16 -91q-110 -41 -230 -41h-5q-103 0 -145 53l-8 -41h-129l20 66q-10 -20 -50.5 -48t-65.5 -30q-104 0 -161 49t-57 138zM754 412q-73 0 -125.5 -50t-53.5 -126h19q127 0 162 23q18 9 27 15t19 19t14 31q2 16 2 24q0 63 -64 64z M385 412q-47 0 -83 -41t-51.5 -93t-15.5 -99t20.5 -74t58.5 -27h1q29 0 65 24.5t40 49.5l43 201q-19 59 -78 59z" />
<glyph unicode="OE" horiz-adv-x="1060" d="M1159 721l-22 -103h-352l-39 -185h337l-22 -99h-337l-49 -234h361l-21 -100h-531q-192 0 -291 67.5t-99 200.5q0 45 10 92q37 177 173 269t360 92h522zM637 618h-35q-267 0 -322 -258q-9 -45 -9 -81q0 -179 221 -179h35z" />
<glyph unicode="oe" horiz-adv-x="1034" d="M82 178q0 55 19.5 110t58.5 104.5t107.5 80.5t155.5 31q62 0 115 -31t62 -75q86 106 242 106h7q93 0 146.5 -36.5t53.5 -105.5q0 -16 -3 -34q-5 -16 -11.5 -30t-16.5 -26l-17 -20q-8 -10 -21 -18l-22 -14q-7 -5 -22.5 -11.5t-20.5 -9t-20 -8t-16 -5.5q-71 -26 -240 -26 q-1 -3 -1 -8q0 -27 37 -50.5t93 -23.5h3q103 0 223 42l-16 -91q-110 -41 -230 -41h-8q-135 0 -207 90q-85 -90 -220 -90q-110 0 -170.5 49.5t-60.5 140.5zM332 78q48 0 85.5 38t54.5 88.5t17 99.5q0 51 -22 79.5t-64 28.5q-50 0 -87 -41t-53 -91.5t-16 -97.5q0 -49 22 -76.5 t63 -27.5zM823 412q-73 0 -125.5 -50t-53.5 -126h19q127 0 161 23q18 9 27.5 15t19.5 19t14 31q2 16 2 24q0 63 -64 64z" />
<glyph unicode="&#xfb00;" horiz-adv-x="722" d="M547 414h-227l-141 -639h-134l141 639h-76l18 82h76l20 102q19 91 77.5 146t154.5 56h101l-20 -90h-102q-49 0 -72 -103l-25 -111h227l24 102q19 92 76 146.5t152 55.5h101l-20 -90h-102q-50 0 -73 -103l-24 -111h89l-18 -82h-89l-141 -639h-134z" />
<glyph unicode="&#xfb01;" horiz-adv-x="633" d="M657 495l-105 -495h-123l88 414h-197l-137 -639h-134l137 639h-76l18 82h76l22 102q19 91 77 146t153 56h101l-20 -90h-102q-50 0 -73 -103l-24 -111zM582 721h123l-26 -120h-123z" />
<glyph unicode="&#xfb02;" horiz-adv-x="636" d="M728 800l-170 -800h-129l151 711l-145 -1q-50 0 -73 -103l-24 -111h89l-18 -82h-89l-140 -639h-134l140 639h-76l18 82h76l22 102q19 91 77 146t153 56h272z" />
<glyph unicode="&#xfb03;" horiz-adv-x="994" d="M1018 495l-105 -495h-123l88 414h-197l-137 -639h-134l137 639h-227l-137 -639h-134l137 639h-76l18 82h76l22 102q19 91 77 146t153 56h101l-20 -90h-102q-50 0 -73 -103l-24 -111h227l22 102q19 91 77 146t153 56h101l-20 -90h-102q-50 0 -73 -103l-24 -111zM943 721 h123l-26 -120h-123z" />
<glyph unicode="&#xfb04;" horiz-adv-x="997" d="M1089 800l-170 -800h-129l151 711l-145 -1q-49 0 -72 -103l-25 -111h89l-18 -82h-89l-143 -639h-134l143 639h-227l-143 -639h-134l143 639h-76l18 82h76l22 102q19 91 77 146t153 56h101l-20 -90h-102q-50 0 -73 -103l-24 -111h227l22 102q19 91 77 146t153 56h272z" />
<glyph unicode=" "  horiz-adv-x="349" />
<glyph unicode="&#x09;" horiz-adv-x="349" />
<glyph unicode="&#xa0;" horiz-adv-x="349" />
<glyph unicode="!" horiz-adv-x="328" d="M134 139h113l-29 -139h-113zM258 721h113l-64 -318l-41 -177h-113l33 177z" />
<glyph unicode="&#x22;" horiz-adv-x="422" d="M315 656l-52 -244h-118l52 244h118zM476 656l-52 -244h-118l52 244h118z" />
<glyph unicode="#" horiz-adv-x="750" d="M509 422h-86l-34 -138h87zM496 710l-49 -196h87l49 196h126l-48 -196h144v-92h-169l-32 -138h145v-92h-171l-49 -192h-127l49 192h-82l-51 -192h-128l48 192h-145l1 92h169l33 138h-148l1 92h172l49 196h126z" />
<glyph unicode="$" horiz-adv-x="552" d="M283 -145h-93l30 143q-97 0 -181 45l26 103q74 -62 173 -63l41 197q-81 15 -120 47.5t-39 87.5q0 22 5 46t20.5 55t40 56t69 44t101.5 24l24 112h93l-23 -111q74 0 150 -30l-26 -103q-60 39 -143 45l-38 -182q88 -16 130 -50.5t42 -92.5q0 -23 -5.5 -48t-22 -57t-43 -57 t-73.5 -44.5t-107 -23.5zM338 553q-25 -6 -42 -32.5t-22 -49.5t-5 -40q0 -37 33 -50zM332 85q41 11 59.5 50t18.5 74q0 45 -41 59z" />
<glyph unicode="%" horiz-adv-x="917" d="M701 69q34 0 57.5 61.5t23.5 114.5q0 58 -31 58q-35 0 -59 -59t-24 -116q0 -59 33 -59zM523 132q0 43 15 86.5t43.5 82.5t77.5 64t111 26q75 0 116.5 -39.5t41.5 -109.5q0 -62 -26.5 -119t-84 -96.5t-133.5 -39.5q-77 0 -119 38.5t-42 106.5zM296 415q35 0 59 60t24 117 q0 58 -33 58q-34 0 -58 -62t-24 -118q0 -55 32 -55zM763 733h123l-604 -746h-122zM119 474q0 100 66 179.5t178 79.5q74 0 117 -38.5t43 -108.5q0 -41 -14.5 -84.5t-42.5 -83t-77.5 -65t-111.5 -25.5q-75 0 -116.5 38.5t-41.5 107.5z" />
<glyph unicode="&#x26;" horiz-adv-x="741" d="M305 373q-79 -86 -79 -175q0 -48 29.5 -78.5t78.5 -30.5q68 0 128 45zM464 633q-36 0 -63 -29t-27 -70q0 -32 37 -85l153 -238q53 80 78 184h137q-40 -134 -138 -248l94 -141h-164l-39 62q-112 -81 -228 -81q-109 0 -174 52.5t-65 138.5q0 150 172 263q-24 43 -24 85 q0 33 16.5 68.5t47 67t83 51.5t116.5 20q90 0 171 -39l-26 -103q-86 42 -157 42z" />
<glyph unicode="'" horiz-adv-x="235" d="M304 735l-52 -243h-91l52 243h91z" />
<glyph unicode="(" horiz-adv-x="305" d="M83 155q0 289 244 596h105q-215 -335 -215 -651q0 -116 28 -229h-105q-57 143 -57 284z" />
<glyph unicode=")" horiz-adv-x="312" d="M-8 -129q214 322 214 651q0 114 -27 229h106q55 -151 55 -290q0 -294 -242 -590h-106z" />
<glyph unicode="*" horiz-adv-x="517" d="M601 595l-174 -87l137 -87l-63 -62l-115 96l-35 -173h-93l39 173l-154 -96l-38 62l173 87l-136 87l64 62l114 -95l34 171h93l-38 -171l155 95z" />
<glyph unicode="+" horiz-adv-x="672" d="M463 620l1 -262h260v-98h-260l-1 -260h-128l1 260h-259v98h259l-1 262h128z" />
<glyph unicode="," horiz-adv-x="274" d="M111 111h123l-14 -79l-100 -136h-84l54 136z" />
<glyph unicode="-" horiz-adv-x="419" d="M125 282h273l-15 -72h-273z" />
<glyph unicode="." horiz-adv-x="254" d="M92 111h108l-23 -111h-108z" />
<glyph unicode="/" horiz-adv-x="396" d="M398 721h122l-406 -812h-122z" />
<glyph unicode="0" horiz-adv-x="677" d="M468 632q-105 0 -162 -273q-21 -97 -21 -160q0 -111 67 -111q103 0 160 271q21 99 21 162q0 111 -65 111zM690 503q0 -39 -7 -87.5t-22 -108.5t-43 -115t-66 -102t-95 -75t-126 -28q-201 0 -201 224q0 65 18 148q39 184 125.5 279t215.5 95q98 0 149.5 -58.5t51.5 -171.5 z" />
<glyph unicode="1" horiz-adv-x="437" d="M86 98h99l111 513l-117 -65l18 105l132 70h122l-133 -623h91l-20 -98h-323z" />
<glyph unicode="2" horiz-adv-x="618" d="M253 94h308l-19 -94h-477l16 94q38 35 172 150l143 123q32 32 50.5 54t35.5 56.5t17 67.5q0 37 -20.5 59.5t-58.5 22.5q-56 -1 -131.5 -54.5t-110.5 -111.5l19 134q26 52 104.5 94.5t138.5 43.5q104 0 164 -44t60 -121q0 -48 -21.5 -95t-43.5 -73.5t-57 -60.5z" />
<glyph unicode="3" horiz-adv-x="625" d="M652 581q0 -61 -39 -117t-119 -76q51 -13 78.5 -46.5t27.5 -83.5q0 -44 -18.5 -88.5t-56.5 -87t-110 -69t-166 -26.5q-87 0 -196 38l27 111q83 -43 188 -43q52 0 88.5 17.5t52.5 44.5t22.5 50t6.5 44q0 40 -26 63t-75 23h-93l21 100h97q67 0 96.5 39.5t29.5 83.5 q0 70 -89 70q-101 0 -206 -53l17 101q136 57 220 57q104 0 163 -40t59 -112z" />
<glyph unicode="4" horiz-adv-x="643" d="M492 614l-279 -353h199zM490 721h159l-98 -460h98l-21 -97h-98l-34 -164h-139l34 164h-313l19 107z" />
<glyph unicode="5" horiz-adv-x="620" d="M273 94q45 0 79.5 19t53.5 48.5t28 59.5t9 58q0 48 -28.5 75.5t-79.5 27.5q-78 0 -174 -32l124 371h408l-45 -98h-273l-61 -150q31 15 59 16q108 0 171 -50t63 -140q0 -36 -9 -74.5t-34.5 -82t-63.5 -77t-102 -56t-145 -22.5q-99 0 -195 34l28 115q82 -42 187 -42z" />
<glyph unicode="6" horiz-adv-x="660" d="M355 88q60 0 97 66t37 137q0 45 -18.5 69.5t-52.5 24.5q-58 0 -95 -67t-37 -141q0 -89 69 -89zM650 303q0 -79 -35.5 -150t-109.5 -118.5t-171 -47.5q-101 0 -154 58.5t-53 170.5q0 61 17 143q36 171 141 272.5t246 101.5q78 0 158 -32l-26 -105q-75 32 -151 32 q-163 0 -225 -225q68 81 159 83q97 0 150.5 -48.5t53.5 -134.5z" />
<glyph unicode="7" horiz-adv-x="567" d="M185 721h484l-7 -52l-397 -669h-145l362 622h-318z" />
<glyph unicode="8" horiz-adv-x="667" d="M347 88q61 0 96 49.5t35 109.5q0 39 -20 61t-59 22q-47 0 -79 -30.5t-42.5 -64t-10.5 -65.5q0 -39 20.5 -60.5t59.5 -21.5zM105 150q0 77 44 144t136 89q-44 12 -68 43t-24 76q0 29 9.5 59.5t31.5 61.5t54.5 55t83 39.5t112.5 15.5q97 0 153 -39t56 -110q0 -62 -39 -121 t-120 -80q104 -29 104 -133q0 -43 -16.5 -86t-51 -84t-98 -67t-146.5 -26q-107 0 -164 41.5t-57 121.5zM463 632q-32 0 -55.5 -14.5t-35 -37t-16.5 -43t-5 -38.5q0 -68 69 -68q52 0 82 41t30 91q0 33 -18 51t-51 18z" />
<glyph unicode="9" horiz-adv-x="660" d="M676 502q0 -70 -15.5 -141t-48.5 -138.5t-79.5 -120t-114.5 -84t-147 -31.5q-75 0 -156 33l26 105q69 -32 150 -32q82 0 136.5 54.5t87.5 170.5q-65 -80 -158 -83q-97 0 -150.5 48t-53.5 134q0 125 86.5 220.5t228.5 95.5q102 0 155 -58.5t53 -172.5zM447 632 q-41 0 -73 -34.5t-46 -80t-14 -89.5t18 -68t52 -24q42 0 74 36.5t45.5 82t13.5 86.5q0 91 -70 91z" />
<glyph unicode=":" horiz-adv-x="260" d="M92 126h114l-26 -126h-114zM164 465h114l-27 -127h-114z" />
<glyph unicode=";" horiz-adv-x="279" d="M180 465h125l-27 -127h-125zM108 124h125l-14 -84l-103 -144h-88l58 144z" />
<glyph unicode="&#x3c;" horiz-adv-x="739" d="M735 426l-472 -145l472 -144l-4 -96l-649 197v87l650 197z" />
<glyph unicode="=" horiz-adv-x="797" d="M132 408h648v-87h-648v87zM131 243h648v-89h-648v89z" />
<glyph unicode="&#x3e;" horiz-adv-x="741" d="M123 426l3 96l649 -197v-87l-650 -197l-2 96l468 144z" />
<glyph unicode="?" horiz-adv-x="498" d="M167 116h136l-24 -116h-136zM321 188l-140 -1l13 81q12 53 31 83t73 76l49 42q42 38 55 82q2 14 2 21q0 26 -14.5 41.5t-41.5 15.5q-78 0 -188 -62l18 107q100 59 207 59q82 0 129.5 -37.5t47.5 -101.5q0 -20 -4 -39q-7 -38 -31.5 -71t-78.5 -78l-47 -41 q-59 -58 -68 -111z" />
<glyph unicode="@" horiz-adv-x="930" d="M431 258q1 -64 26.5 -100.5t72.5 -36.5q45 0 71.5 36.5t26.5 100.5v3q0 61 -27 97.5t-71 36.5t-71 -35.5t-28 -101.5zM544 613q-147 0 -241 -104.5t-94 -249.5q0 -150 94.5 -248t229.5 -98q128 0 225 80l63 -62q-128 -99 -289 -102q-129 0 -229.5 60.5t-153 158 t-52.5 211.5v2q0 124 61 224.5t162.5 155.5t221.5 55q110 0 205 -49t152.5 -136.5t57.5 -192.5v-3q0 -127 -82.5 -200.5t-227.5 -77.5l1 72q-48 -72 -136 -72t-145 61.5t-57 159.5q1 97 57.5 159.5t146.5 62.5q89 0 134 -71v59h93l-1 -347q49 11 76.5 61t28.5 132 q0 134 -89.5 215t-211.5 84z" />
<glyph unicode="A" horiz-adv-x="708" d="M466 562l-152 -285h193zM431 721h148l120 -721h-149l-26 176h-270l-98 -176h-150z" />
<glyph unicode="B" horiz-adv-x="654" d="M277 333l-49 -233h122q108 0 134 117q4 19 4 39q0 77 -89 77h-122zM409 433q37 0 62.5 13.5t37 35t16 39t4.5 34.5q0 62 -81 65h-110l-39 -187h110zM654 254q0 -32 -9 -65t-32 -67.5t-58 -61t-92.5 -43.5t-129.5 -17h-267l153 721h258q105 0 162 -37.5t57 -105.5 q0 -21 -6 -46.5t-21 -57t-47 -55.5t-77 -31q52 -12 80.5 -47t28.5 -87z" />
<glyph unicode="C" horiz-adv-x="688" d="M95 257q0 61 16 125t52 127.5t88 113t131 80t173 30.5q141 0 229 -72l-31 -117q-82 85 -214 85q-63 0 -113 -28.5t-79.5 -70t-49 -94t-26.5 -96t-7 -80.5q0 -82 40.5 -125.5t120.5 -43.5q128 0 250 86l-19 -117q-121 -73 -259 -73q-143 0 -222.5 71t-79.5 199z" />
<glyph unicode="D" horiz-adv-x="756" d="M340 620l-110 -520h88q123 0 193 63t99 197q11 50 11 96q0 84 -47 124t-146 40h-88zM219 721h216q183 0 270.5 -60.5t87.5 -189.5q0 -52 -13 -111q-39 -185 -159.5 -272.5t-338.5 -87.5h-216z" />
<glyph unicode="E" horiz-adv-x="597" d="M219 721h481l-21 -99h-340l-40 -189h325l-22 -100h-325l-49 -234h349l-21 -99h-490z" />
<glyph unicode="F" horiz-adv-x="539" d="M219 721h438l-21 -99h-296l-40 -189h268l-22 -99h-268l-70 -334h-142z" />
<glyph unicode="G" horiz-adv-x="751" d="M95 255q0 52 12 109.5t45.5 125t83.5 120t135 88t192 35.5q159 0 248 -72l-31 -118q-91 86 -232 86q-215 0 -272 -270q-12 -55 -12 -100q0 -168 170 -168q82 0 132 28l39 171h-149l21 96h295l-64 -314q-136 -85 -303 -85q-150 0 -230 69.5t-80 198.5z" />
<glyph unicode="H" horiz-adv-x="729" d="M219 721h144l-61 -288h291l61 288h145l-153 -721h-145l70 333h-291l-70 -333h-144z" />
<glyph unicode="I" horiz-adv-x="282" d="M219 721h133l-153 -721h-133z" />
<glyph unicode="J" horiz-adv-x="292" d="M222 721h138l-138 -667q-27 -130 -90 -191t-174 -61h-56l23 105h49q39 0 62 32.5t40 114.5z" />
<glyph unicode="K" horiz-adv-x="674" d="M219 721h138l-67 -295l341 295h166l-410 -337l281 -384h-169l-229 333l-66 -333h-138z" />
<glyph unicode="L" horiz-adv-x="551" d="M219 721h141l-132 -622h330l-21 -99h-471z" />
<glyph unicode="M" horiz-adv-x="842" d="M219 721h188l58 -475l259 475h188l-153 -721h-135l130 612l-245 -479h-137l-42 479l-130 -612h-134z" />
<glyph unicode="N" horiz-adv-x="724" d="M219 721h171l149 -583l123 583h132l-153 -721h-171l-149 583l-123 -583h-132z" />
<glyph unicode="O" horiz-adv-x="783" d="M398 89q79 0 138.5 63.5t86 145.5t26.5 161q0 81 -35 126t-101 45q-61 0 -111.5 -38.5t-79 -96.5t-44 -120t-15.5 -116q0 -80 35 -125t100 -45zM95 257q0 65 17.5 131.5t54 128.5t87.5 110t124 77t157 29q133 0 208 -72t75 -200q0 -65 -17.5 -131t-54 -127.5 t-87.5 -109.5t-124.5 -77t-157.5 -29q-133 0 -207.5 72t-74.5 198z" />
<glyph unicode="P" horiz-adv-x="601" d="M376 379q42 0 72.5 27t43 62.5t12.5 71.5q0 77 -77 80h-90l-51 -241h90zM672 558q0 -31 -6.5 -63t-27.5 -72.5t-53.5 -71t-92.5 -51.5t-137 -21h-90l-59 -279h-140l153 721h230q223 0 223 -163z" />
<glyph unicode="Q" horiz-adv-x="786" d="M399 81q60 0 110 37.5t80 95.5t46 121.5t16 120.5q0 81 -35 126.5t-101 45.5q-61 0 -111 -38t-79.5 -96t-45.5 -121t-16 -119q0 -82 35 -127.5t101 -45.5zM820 458q0 -32 -5.5 -71t-23.5 -95.5t-46 -106t-79.5 -97t-117.5 -74.5l91 -141h-159l-76 108q-1 -1 -3.5 -1.5 t-3.5 -1.5q-143 0 -223 71t-80 201q0 66 17.5 133t54.5 130t88.5 112t125 78.5t157.5 29.5q132 0 207.5 -73.5t75.5 -201.5z" />
<glyph unicode="R" horiz-adv-x="644" d="M681 567q0 -44 -12.5 -86t-50.5 -85t-97 -60q51 -18 83 -132l12 -204h-149l-25 183q-12 65 -32 87t-64 22h-76l-62 -292h-142l153 721h233q229 0 229 -154zM382 395q38 0 65 17t40 42.5t18.5 48.5t5.5 43q0 71 -81 74h-91l-48 -225h91z" />
<glyph unicode="S" horiz-adv-x="610" d="M134 472q0 34 9.5 68.5t33.5 69.5t59.5 62t91.5 44t125 17q110 0 213 -40l-27 -110q-113 47 -197 47q-45 0 -76 -15t-44.5 -38.5t-18.5 -41.5t-5 -33q0 -26 19 -40t65 -26l51 -12q185 -37 185 -167q0 -31 -7 -62.5t-30 -70.5t-58.5 -68t-99.5 -49t-147 -20 q-108 0 -227 48l29 118q110 -64 219 -64q43 0 75 14.5t47.5 37t22.5 44t7 42.5q0 60 -81 80l-52 12q-94 18 -138 54.5t-44 98.5z" />
<glyph unicode="T" horiz-adv-x="668" d="M153 721h639l-21 -99h-247l-132 -622h-145l132 622h-247z" />
<glyph unicode="U" horiz-adv-x="716" d="M213 721h149l-88 -434q-12 -54 -12 -92q0 -55 25.5 -80t80.5 -25q72 0 114 46t64 151l96 434h148l-91 -446q-61 -288 -353 -288q-242 0 -242 199q0 42 10 89z" />
<glyph unicode="V" horiz-adv-x="717" d="M270 0l-119 721h148l89 -527l306 527h149l-425 -721h-148z" />
<glyph unicode="W" horiz-adv-x="1001" d="M161 721h150l25 -525l227 525h154l1 -519l251 519h150l-338 -721h-167l1 606l-255 -606h-167z" />
<glyph unicode="X" horiz-adv-x="674" d="M188 721h149l98 -256l210 256h148l-291 -346l153 -375h-150l-113 294l-238 -294h-150l321 385z" />
<glyph unicode="Y" horiz-adv-x="648" d="M143 721h149l110 -284l232 284h149l-323 -381l-76 -340h-149l68 340z" />
<glyph unicode="Z" horiz-adv-x="685" d="M192 721h598l-16 -88l-549 -536h440l-20 -97h-619l15 86l551 537h-421z" />
<glyph unicode="[" horiz-adv-x="326" d="M227 752h221l-18 -87h-99l-150 -707h99l-19 -87h-221z" />
<glyph unicode="\" horiz-adv-x="354" d="M254 656l65 -739h-115l-64 739h114z" />
<glyph unicode="]" horiz-adv-x="327" d="M404 752l-187 -881h-222l19 87h99l150 707h-99l18 87h222z" />
<glyph unicode="^" horiz-adv-x="683" d="M490 656l266 -245h-137l-186 155l-191 -155h-136l268 245h116z" />
<glyph unicode="_" horiz-adv-x="510" d="M510 -149l-14 -63h-539l14 63h539z" />
<glyph unicode="`" horiz-adv-x="299" d="M280 720l125 -165h-101l-139 165h115z" />
<glyph unicode="a" horiz-adv-x="606" d="M389 412q-47 0 -83 -41t-51.5 -93t-15.5 -99t20.5 -74t58.5 -27h1q29 0 65 24.5t40 49.5l43 201q-19 59 -78 59zM82 175q0 55 19 110t56 105.5t102.5 82t149.5 31.5q34 0 55 -7t35 -29l1 23h129l-104 -491h-129l20 66q-10 -20 -50.5 -48t-65.5 -30q-104 0 -161 49 t-57 138z" />
<glyph unicode="b" horiz-adv-x="636" d="M334 80q47 0 83 42t51.5 94.5t15.5 101.5q0 50 -20 77.5t-58 27.5q-51 0 -89 -42t-54 -94t-16 -101q0 -50 22 -78t65 -28zM640 322q0 -129 -86.5 -231.5t-219.5 -102.5q-96 0 -126 83l-10 -67h-129l170 796h129l-84 -368q64 84 162 84q90 0 142 -52.5t52 -141.5z" />
<glyph unicode="c" horiz-adv-x="537" d="M82 181q0 55 20 109.5t59.5 103.5t108.5 79.5t157 30.5q95 0 160 -36l-23 -91q-65 32 -154 35q-48 0 -84.5 -25.5t-54.5 -64t-26 -72.5t-8 -62q0 -52 26 -81t76 -29q82 0 169 35l-15 -89q-84 -36 -182 -36q-107 0 -168 51.5t-61 141.5z" />
<glyph unicode="d" horiz-adv-x="629" d="M84 181q0 82 36.5 157.5t108.5 126.5t161 51q100 0 126 -84l74 368h129l-170 -796h-129l20 67q-63 -83 -162 -83q-89 0 -141.5 52t-52.5 141zM390 423q-37 0 -67 -25t-47.5 -63.5t-26.5 -78t-9 -73.5q0 -49 20 -76t58 -27q51 0 89 41.5t53.5 93t15.5 99.5q0 52 -22 80.5 t-64 28.5z" />
<glyph unicode="e" horiz-adv-x="601" d="M81 181q0 55 21.5 110.5t61.5 103.5t107 78.5t150 30.5h6q88 0 138 -36t50 -104q0 -16 -3 -36q-4 -16 -10.5 -30t-15.5 -26l-18 -20q-7 -9 -20 -17.5t-20 -13.5t-21.5 -11.5t-19.5 -9t-19.5 -7.5t-15.5 -6q-67 -27 -226 -27q-1 -3 -1 -9q0 -27 34 -50t87 -23h3 q98 0 211 42l-16 -91q-104 -41 -218 -41q-116 0 -180.5 51t-64.5 142zM402 412q-68 0 -118 -50.5t-52 -125.5h18q119 0 151 23l25 15q8 5 18.5 18.5t14.5 31.5q2 9 2 25q0 62 -59 63z" />
<glyph unicode="f" horiz-adv-x="361" d="M557 800l-20 -90h-102q-26 0 -45 -29.5t-29 -73.5l-23 -111h89l-18 -82h-89l-138 -639h-134l138 639h-76l18 82h76l23 102q19 91 76.5 146t152.5 56h101z" />
<glyph unicode="g" horiz-adv-x="631" d="M316 83q50 0 86.5 39.5t52 89.5t15.5 97q0 102 -84 102q-38 0 -68 -25t-46 -62t-24.5 -74.5t-8.5 -68.5q0 -98 77 -98zM84 180q0 78 35.5 151t106.5 123t161 50q95 0 122 -84l9 68h134l-95 -469q-27 -126 -103 -185t-211 -59q-96 0 -177 30l23 96q81 -35 161 -35 q132 0 161 138l24 70q-59 -83 -157 -83q-89 0 -141.5 50.5t-52.5 138.5z" />
<glyph unicode="h" horiz-adv-x="618" d="M609 299l-67 -299h-130l62 296q7 37 7 54q0 32 -20.5 49.5t-52.5 18.5q-55 0 -95.5 -37t-55.5 -101l-60 -280h-129l170 800h131l-81 -372q73 87 159 87q170 0 170 -148q0 -28 -8 -68z" />
<glyph unicode="i" horiz-adv-x="272" d="M173 495h123l-105 -495h-123zM221 721h123l-26 -120h-123z" />
<glyph unicode="j" horiz-adv-x="286" d="M183 497h125l-112 -537q-21 -96 -69 -140.5t-137 -44.5h-51l19 91h44q26 0 40 18t26 76zM231 721h125l-26 -120h-125z" />
<glyph unicode="k" horiz-adv-x="589" d="M238 800h129l-111 -507l261 205h151l-316 -235l221 -263h-154l-177 230l-45 -230h-129z" />
<glyph unicode="l" horiz-adv-x="275" d="M238 800h129l-170 -800h-129z" />
<glyph unicode="m" horiz-adv-x="968" d="M597 402q83 102 202 102q82 0 124.5 -38t42.5 -110q0 -31 -7 -63l-66 -293h-145l57 290q7 29 7 55q0 65 -56 65q-53 0 -90.5 -36t-52.5 -99l-62 -275h-145l57 290q7 37 7 55q0 65 -58 65q-53 0 -92 -37t-53 -98l-62 -275h-137l103 489h137l-19 -69q69 84 168 84 q119 0 140 -102z" />
<glyph unicode="n" d="M608 293l-66 -293h-139l57 290q6 30 6 52q0 66 -59 68q-54 0 -92.5 -36t-53.5 -99l-62 -275h-131l103 489h131l-19 -69q71 84 162 84q170 0 170 -146q0 -33 -7 -65z" />
<glyph unicode="o" d="M315 79q47 0 82.5 41.5t51 93t15.5 98.5q0 48 -19.5 75.5t-57.5 27.5q-46 0 -81.5 -39t-52 -91.5t-16.5 -102.5q0 -49 20 -76t58 -27zM83 176q0 55 18.5 111t55.5 107t102 83t148 32q102 0 158 -50t56 -140q0 -54 -18.5 -109.5t-55.5 -106.5t-102.5 -83t-148.5 -32 q-102 0 -157.5 49t-55.5 139z" />
<glyph unicode="p" horiz-adv-x="637" d="M639 310q0 -81 -37 -156.5t-108.5 -126t-161.5 -50.5q-49 0 -79.5 19.5t-46.5 63.5l-55 -285h-130l151 713h130l-19 -68q65 84 161 84q91 0 143 -52.5t52 -141.5zM331 69q47 0 83.5 41.5t52.5 94t16 101.5q0 50 -20.5 77.5t-58.5 27.5q-50 0 -88 -41.5t-54 -94 t-16 -101.5q0 -50 21.5 -77.5t63.5 -27.5z" />
<glyph unicode="q" horiz-adv-x="627" d="M386 411q-49 0 -85 -44.5t-50.5 -97t-14.5 -99.5q0 -48 20 -74.5t57 -26.5q51 0 89.5 40.5t55 92t16.5 100.5q0 51 -23 80t-65 29zM82 169q0 81 36 157t107.5 127t161.5 51q99 0 127 -84l9 68h127l-151 -713h-127l65 285q-61 -83 -162 -83q-89 0 -141 51.5t-52 140.5z " />
<glyph unicode="r" horiz-adv-x="436" d="M483 395q-37 14 -81 14q-56 0 -93 -39t-54 -113l-58 -257h-129l103 489h129l-19 -69q62 84 165 84q26 0 61 -10z" />
<glyph unicode="s" horiz-adv-x="527" d="M113 320q0 31 12.5 60.5t39.5 58.5t80.5 47t125.5 18q105 0 174 -31l-23 -92q-71 29 -160 32q-56 0 -78 -21t-22 -48q0 -15 15 -25t55 -20l27 -7q80 -16 117.5 -43.5t37.5 -73.5q0 -84 -74.5 -135.5t-198.5 -51.5q-90 0 -189 34l24 98q94 -40 186 -43q53 0 76 22.5 t23 50.5q0 18 -16.5 28.5t-64.5 23.5l-25 6q-75 16 -108.5 41.5t-33.5 70.5z" />
<glyph unicode="t" horiz-adv-x="408" d="M346 640l-30 -145h134l-17 -79h-134l-49 -248q-7 -31 -7 -49t9.5 -24.5t32.5 -6.5h106l-18 -88h-106q-88 0 -126 22.5t-38 80.5q0 25 8 65l57 248h-55l17 79h55l22 114z" />
<glyph unicode="u" d="M102 198l66 294h138l-58 -291q-6 -29 -6 -51q0 -69 61 -69q53 0 91.5 36t51.5 99l63 276h132l-104 -492h-132l20 71q-69 -83 -160 -83q-171 0 -171 144q0 28 8 66z" />
<glyph unicode="v" horiz-adv-x="603" d="M113 492h139l60 -391q65 75 126 188.5t88 202.5h139q-34 -109 -122.5 -252.5t-183.5 -239.5h-149z" />
<glyph unicode="w" horiz-adv-x="826" d="M122 492h138l11 -364q39 68 84 175t73 189h149l10 -364q37 61 83 167.5t76 196.5h137q-31 -104 -103 -242t-146 -250h-143l-8 384q-21 -71 -74.5 -187t-102.5 -197h-143z" />
<glyph unicode="x" horiz-adv-x="591" d="M660 492l-230 -240l135 -252h-145l-93 181l-168 -181h-146l246 257l-125 235h145l83 -164l153 164h145z" />
<glyph unicode="y" horiz-adv-x="592" d="M320 -64q-63 -89 -108 -116.5t-116 -27.5h-65l-13 89h79q23 0 39 14.5t42 67.5l32 50l-98 479h139l60 -370l218 370h138z" />
<glyph unicode="z" horiz-adv-x="543" d="M154 492h442l-15 -86l-377 -328h304l-16 -78h-457l15 85l378 327h-291z" />
<glyph unicode="{" horiz-adv-x="442" d="M394 -70l-20 -90h-51q-109 0 -151.5 22t-42.5 83q0 26 10 78l24 113q8 37 8 58q0 29 -14 41.5t-46 12.5h-52l20 92h52q43 0 64.5 24t35.5 88l24 114q23 111 75 148.5t187 37.5h51l-19 -91h-54q-41 0 -57 -17.5t-31 -79.5l-24 -117q-16 -75 -43 -108t-79 -44 q34 -10 49.5 -29.5t15.5 -55.5q0 -27 -9 -69l-24 -116q-8 -37 -8 -54q0 -23 12.5 -32t42.5 -9h54z" />
<glyph unicode="|" horiz-adv-x="317" d="M258 722v-930h-96v930h96z" />
<glyph unicode="}" horiz-adv-x="444" d="M5 -70h56q40 0 56 18t29 77l24 116q16 73 43 106.5t80 47.5q-35 8 -50.5 27t-15.5 55q0 28 9 70l24 117q8 38 8 57q0 23 -12 31.5t-40 8.5h-56l19 91h53q108 0 150.5 -23t42.5 -85q0 -26 -10 -78l-24 -114q-8 -40 -8 -60q0 -29 14 -40.5t46 -11.5h51l-20 -92h-51 q-43 0 -64.5 -23t-35.5 -89l-24 -113q-23 -111 -75 -147t-186 -36h-53z" />
<glyph unicode="~" horiz-adv-x="761" d="M316 350q70 0 144 -25.5t112 -25.5q86 0 190 60l5 -86q-104 -60 -206 -61q-69 0 -142 25.5t-114 25.5q-88 0 -192 -58l-3 83q108 62 206 62z" />
<glyph unicode="&#xa1;" horiz-adv-x="322" d="M214 0h-110l105 498h110zM337 582h-110l30 139h110z" />
<glyph unicode="&#xa2;" horiz-adv-x="513" d="M343 418q-54 -10 -88.5 -93t-34.5 -159q0 -81 50 -93zM573 475l-23 -93q-53 36 -111 39l-75 -351q59 3 128 39l-16 -91q-59 -27 -128 -32l-28 -123h-95l26 125q-89 6 -136.5 54t-47.5 130q0 28 5.5 62t24.5 81.5t49.5 85.5t86 68.5t128.5 36.5l27 123h95l-25 -123 q69 -3 115 -31z" />
<glyph unicode="&#xa3;" horiz-adv-x="567" d="M668 700l-26 -104q-73 35 -138 35q-51 0 -78.5 -33t-47.5 -124l-23 -90h178l-19 -88h-178l-42 -198h255l-20 -98h-504l20 98h105l42 198h-89l19 88h89l17 100q28 129 96.5 189t191.5 60q75 0 152 -33z" />
<glyph unicode="&#xa4;" horiz-adv-x="600" d="M451 482l96 98l74 -62l-93 -97q32 -54 33 -112q-1 -58 -35 -110l92 -98l-74 -61l-93 97q-48 -36 -104 -36t-104 34l-95 -96l-74 61l94 98q-33 58 -33 111q0 60 35 110l-94 98l75 61l95 -97q44 35 102 35q56 0 103 -34zM443 310v2q0 47 -27.5 81t-67.5 34q-39 0 -68.5 -34 t-30.5 -83q0 -50 28.5 -84.5t69.5 -34.5t68.5 34.5t27.5 84.5z" />
<glyph unicode="&#xa5;" horiz-adv-x="624" d="M604 213h-188l-45 -213h-142l45 213h-188l16 78h188l-1 11l-13 64h-158l17 77h115l-86 278h136l84 -325l224 325h135l-204 -278h114l-17 -77h-157l-38 -64l-7 -11h186z" />
<glyph unicode="&#xa6;" horiz-adv-x="298" d="M246 190l-2 -343h-95l2 343h95zM246 629v-344h-95v344h95z" />
<glyph unicode="&#xa7;" horiz-adv-x="494" d="M335 216q42 45 42 92q0 24 -21 51.5t-79 75.5q-42 -50 -42 -95q0 -24 20.5 -50t79.5 -74zM172 556q0 78 66 127.5t160 49.5q86 0 151 -32l-24 -96q-82 34 -136 35q-36 0 -52.5 -23t-16.5 -42q0 -34 59 -76q88 -69 114.5 -97t26.5 -65q0 -108 -112 -170q32 -36 32 -76 q0 -70 -61.5 -127t-170.5 -57q-76 0 -155 32l23 96q75 -31 142 -34q37 0 54 24t17 45q0 36 -61 84l-9 8q-73 51 -100.5 82t-27.5 67q0 24 7.5 50.5t34.5 62t71 57.5q-32 30 -32 75z" />
<glyph unicode="&#xa8;" horiz-adv-x="447" d="M209 682h109l-18 -89h-109zM404 682h109l-18 -89h-109z" />
<glyph unicode="&#xa9;" horiz-adv-x="800" d="M475 717q153 0 256.5 -107t103.5 -251v-2q0 -147 -107 -252t-255 -105q-151 0 -255.5 105.5t-104.5 251.5q0 102 51.5 185.5t134 129t176.5 45.5zM474 653q-110 0 -189 -87.5t-79 -210.5q0 -121 80 -206t187 -85q113 0 190.5 86.5t78.5 206.5v2q0 131 -80.5 211 t-187.5 83zM626 548v-71q-54 25 -136 30q-56 0 -87.5 -38.5t-31.5 -111.5q0 -72 32.5 -110.5t91.5 -38.5q68 0 131 29l-1 -70q-59 -29 -140 -32q-108 0 -172 59.5t-64 162.5q0 102 63.5 161.5t173.5 59.5q72 0 140 -30z" />
<glyph unicode="&#xaa;" horiz-adv-x="471" d="M116 302h340l-16 -76h-340zM124 428q0 26 9 50.5t31 52t70.5 44.5t116.5 17l53 -2q2 12 2 17q0 46 -64 46q-59 0 -143 -29l14 78q83 31 155 31q153 0 153 -121q0 -25 -6 -55l-50 -217h-114l15 48q-43 -61 -113 -61q-61 0 -95 26.5t-34 74.5zM358 515q-47 0 -74 -14.5 t-27 -56.5q0 -35 33 -35t59.5 30t36.5 76h-28z" />
<glyph unicode="&#xab;" horiz-adv-x="548" d="M576 465l-14 -96l-149 -106l104 -107l-26 -94l-226 178l9 45zM380 465l-14 -96l-148 -106l103 -107l-26 -94l-224 178l9 45z" />
<glyph unicode="&#xac;" horiz-adv-x="771" d="M101 378h649l1 -253h-130l-1 165h-519v88z" />
<glyph unicode="&#xad;" horiz-adv-x="419" d="M125 282h273l-15 -72h-273z" />
<glyph unicode="&#xae;" horiz-adv-x="800" d="M475 717q152 0 256 -107t104 -251v-2q0 -147 -107 -252t-255 -105q-151 0 -255 105.5t-104 251.5q0 154 107.5 257t253.5 103zM474 653q-111 0 -190 -87.5t-79 -210.5q0 -121 80 -206t188 -85q119 0 200 97h-106l-69 101q-19 42 -31 53.5t-33 13.5h-13l1 -168h-104v407 h146q183 0 183 -117v-2q0 -40 -23.5 -67t-67.5 -36q16 -2 58 -70l62 -111q65 82 65 192v2q0 131 -80 211t-187 83zM460 507h-38v-118h38q37 0 52.5 12.5t16.5 45.5q-1 34 -15.5 46t-53.5 14z" />
<glyph unicode="&#xaf;" horiz-adv-x="449" d="M200 670h304l-14 -65h-304z" />
<glyph unicode="&#xb0;" horiz-adv-x="421" d="M332 651q-18 0 -31.5 -20t-13.5 -49v-3v-3q0 -27 13 -47t31 -20t30.5 20t13.5 50q-1 28 -13 50t-30 22zM333 733q76 0 116 -46.5t43 -107.5q-1 -61 -48.5 -107t-115.5 -46t-113 43t-45 106v4q0 64 47.5 109t115.5 45z" />
<glyph unicode="&#xb1;" horiz-adv-x="757" d="M487 620l1 -181h262v-100h-262l-1 -181h-129l1 181h-260v100h260l-1 181h129zM98 98h651v-98h-651v98z" />
<glyph unicode="&#xb2;" horiz-adv-x="399" d="M469 630q0 -42 -40.5 -86t-185.5 -154h169l-14 -68h-298l11 66q150 122 188.5 162.5t38.5 69.5q0 17 -10 27.5t-27 10.5q-56 0 -132 -53l10 68q82 60 148 60t104 -28.5t38 -74.5z" />
<glyph unicode="&#xb3;" horiz-adv-x="404" d="M465 643q0 -34 -23 -63t-69 -40q64 -16 64 -72q0 -22 -9.5 -45.5t-31.5 -49t-68 -42t-109 -16.5q-61 0 -123 25l19 73q42 -20 115 -23q41 0 58 23.5t17 50.5q0 37 -48 37h-59l15 72h62q29 0 43.5 17t14.5 38q0 31 -40 31q-61 0 -122 -40l10 69q81 45 141 45 q66 0 104.5 -24t38.5 -66z" />
<glyph unicode="&#xb4;" horiz-adv-x="321" d="M297 720h121l-142 -166h-103z" />
<glyph unicode="&#xb5;" horiz-adv-x="650" d="M30 -187l144 679h134l-61 -306q-5 -25 -5 -40q0 -72 78 -72q104 0 132 130l65 288h143l-76 -377q-2 -9 -3.5 -18t-2.5 -12.5t-1 -4.5v-1q13 0 57 8l-14 -82q-49 -26 -102 -26q-68 0 -69 66q-61 -66 -142 -66q-78 0 -99 65l-44 -231h-134z" />
<glyph unicode="&#xb6;" horiz-adv-x="560" d="M111 458q0 106 83 184.5t215 78.5h222l-173 -815h-111l156 736h-36l-156 -736h-112l83 397q-82 6 -126.5 46.5t-44.5 108.5z" />
<glyph unicode="&#xb7;" horiz-adv-x="248" d="M142 368h103l-24 -112h-103z" />
<glyph unicode="&#xb8;" horiz-adv-x="320" d="M112 -102q8 0 14 11t6 27q0 24 -13 64h85q39 -48 39 -79q0 -13 -5.5 -27t-18.5 -30.5t-43 -26.5t-72 -10q-49 0 -86 14l16 68q24 -8 78 -11z" />
<glyph unicode="&#xb9;" horiz-adv-x="312" d="M125 389h62l57 258l-74 -37l11 71l93 41h86l-71 -333h53l-15 -71h-217z" />
<glyph unicode="&#xba;" horiz-adv-x="491" d="M127 302h339l-16 -76h-339zM141 475q0 30 7.5 63t26.5 68.5t46 63t70.5 45.5t96.5 18q75 0 118 -38.5t43 -107.5q0 -39 -13.5 -81.5t-40.5 -84t-77.5 -68t-115.5 -26.5q-76 0 -118.5 39t-42.5 109zM319 408q40 0 67.5 59.5t27.5 118.5q0 67 -43 67q-42 0 -69 -59 t-27 -117q0 -69 44 -69z" />
<glyph unicode="&#xbb;" horiz-adv-x="547" d="M153 465l227 -180l-9 -45l-303 -178l14 94l149 107l-104 106zM349 465l224 -180l-9 -45l-300 -178l14 94l148 107l-103 106z" />
<glyph unicode="&#xbc;" horiz-adv-x="888" d="M721 733h126l-613 -746h-126zM754 306l-150 -152h114zM769 413h121l-55 -259h64l-14 -68h-64l-19 -87h-117l19 87h-201l12 71zM105 382h73l58 266l-86 -38l12 73l107 42h99l-73 -343h62l-16 -72h-252z" />
<glyph unicode="&#xbd;" horiz-adv-x="872" d="M716 733h124l-609 -746h-125zM653 69h189l-15 -70h-334l11 66q113 80 178.5 140.5t70.5 83.5q2 12 2 16q0 39 -41 39q-69 0 -149 -54l9 70q32 28 80.5 46t85.5 18q74 0 117 -30t43 -79q0 -11 -3 -25q-7 -34 -70 -92.5t-174 -128.5zM105 382h72l58 266l-85 -38l12 73 l105 42h99l-73 -343h62l-16 -72h-250z" />
<glyph unicode="&#xbe;" horiz-adv-x="931" d="M763 733h126l-614 -746h-126zM800 312l-158 -158h118zM811 412h121l-55 -258h65l-14 -68h-65l-19 -87h-117l19 87h-202l12 71zM489 640q0 -35 -25.5 -64t-77.5 -40q74 -16 74 -78q0 -26 -12 -51t-38 -49.5t-75.5 -39.5t-116.5 -15q-68 0 -141 24l19 77q45 -20 132 -23 q47 0 66.5 23t19.5 51q0 42 -57 42h-66l16 74h69q36 0 50.5 17.5t14.5 38.5q0 33 -47 33q-67 0 -137 -42l10 73q91 42 158 42q75 0 119.5 -25t44.5 -68z" />
<glyph unicode="&#xbf;" horiz-adv-x="500" d="M324 533h133l-13 -81q-12 -54 -31 -85.5t-70 -73.5l-48 -41q-30 -29 -44 -52t-14 -53q0 -27 14.5 -42t41.5 -15q76 0 187 61l-18 -107q-98 -57 -207 -57q-81 0 -129 36.5t-48 101.5q0 17 5 40q7 38 32 71.5t78 77.5l48 40q38 35 50 52t20 60zM472 606h-133l25 115h133z " />
<glyph unicode="&#xc0;" horiz-adv-x="708" d="M478 958l125 -165h-101l-139 165h115zM466 562l-152 -285h193zM431 721h148l120 -721h-149l-26 176h-270l-98 -176h-150z" />
<glyph unicode="&#xc1;" horiz-adv-x="708" d="M553 959h121l-142 -166h-103zM466 562l-152 -285h193zM431 721h148l120 -721h-149l-26 176h-270l-98 -176h-150z" />
<glyph unicode="&#xc2;" horiz-adv-x="708" d="M509 959h93l79 -166h-103l-38 92l-80 -92h-102zM466 562l-152 -285h193zM431 721h148l120 -721h-149l-26 176h-270l-98 -176h-150z" />
<glyph unicode="&#xc3;" horiz-adv-x="708" d="M713 917q-3 -16 -9 -30.5t-20 -39t-42.5 -39.5t-67.5 -15q-43 0 -73 24l-22 21q-1 6 -8 11q-4 0 -15 -56h-102q12 58 47 90.5t87 33.5q44 0 79 -21l20 -21q0 -13 3 -13q9 0 21 55h102zM466 562l-152 -285h193zM431 721h148l120 -721h-149l-26 176h-270l-98 -176h-150z " />
<glyph unicode="&#xc4;" horiz-adv-x="708" d="M386 882h109l-18 -89h-109zM581 882h109l-18 -89h-109zM466 562l-152 -285h193zM431 721h148l120 -721h-149l-26 176h-270l-98 -176h-150z" />
<glyph unicode="&#xc5;" horiz-adv-x="708" d="M518 778q14 0 27 18t13 42q0 33 -20 33q-13 0 -26.5 -20t-13.5 -44q0 -29 20 -29zM479 602l-165 -325h193zM670 844q0 -42 -28 -74t-63 -49l120 -721h-149l-26 176h-270l-98 -176h-150l425 721h2q-46 29 -46 80q0 53 49 98t117 45q51 0 84 -28t33 -72z" />
<glyph unicode="&#xc7;" horiz-adv-x="688" d="M96 257q0 62 16 126t52 127.5t88 112.5t130.5 79.5t172.5 30.5q141 0 229 -72l-31 -117q-82 85 -214 85q-63 0 -113 -28.5t-79.5 -70t-49 -94t-26.5 -96t-7 -80.5q0 -82 40.5 -125.5t120.5 -43.5q128 0 250 86l-19 -117q-100 -61 -214 -71q30 -37 30 -67q0 -14 -5.5 -28 t-18.5 -30t-43 -26t-72 -10q-49 0 -86 14l16 68q24 -8 78 -11q8 0 14 10.5t6 27.5q0 21 -10 52q-122 11 -188.5 81t-66.5 187z" />
<glyph unicode="&#xc8;" horiz-adv-x="597" d="M510 958l125 -165h-101l-139 165h115zM219 721h481l-21 -99h-340l-40 -189h325l-22 -100h-325l-49 -234h349l-21 -99h-490z" />
<glyph unicode="&#xc9;" horiz-adv-x="597" d="M511 959h121l-142 -166h-103zM219 721h481l-21 -99h-340l-40 -189h325l-22 -100h-325l-49 -234h349l-21 -99h-490z" />
<glyph unicode="&#xca;" horiz-adv-x="597" d="M468 959h93l79 -166h-103l-38 92l-80 -92h-102zM219 721h481l-21 -99h-340l-40 -189h325l-22 -100h-325l-49 -234h349l-21 -99h-490z" />
<glyph unicode="&#xcb;" horiz-adv-x="597" d="M345 882h109l-18 -89h-109zM540 882h109l-18 -89h-109zM219 721h481l-21 -99h-340l-40 -189h325l-22 -100h-325l-49 -234h349l-21 -99h-490z" />
<glyph unicode="&#xcc;" horiz-adv-x="282" d="M331 958l125 -165h-101l-139 165h115zM219 721h133l-153 -721h-133z" />
<glyph unicode="&#xcd;" horiz-adv-x="282" d="M332 959h121l-142 -166h-103zM219 721h133l-153 -721h-133z" />
<glyph unicode="&#xce;" horiz-adv-x="282" d="M289 959h93l79 -166h-103l-38 92l-80 -92h-102zM219 721h133l-153 -721h-133z" />
<glyph unicode="&#xcf;" horiz-adv-x="282" d="M166 882h109l-18 -89h-109zM361 882h109l-18 -89h-109zM219 721h133l-153 -721h-133z" />
<glyph unicode="&#xd0;" horiz-adv-x="778" d="M100 376h66l74 345h216q183 0 271 -61t88 -190q0 -52 -13 -110q-39 -185 -160 -272.5t-339 -87.5h-216l63 297h-66zM360 620l-52 -244h74l-16 -79h-74l-42 -197h89q123 0 193.5 63t99.5 197q11 50 11 95q0 85 -47.5 125t-146.5 40h-89z" />
<glyph unicode="&#xd1;" horiz-adv-x="724" d="M714 917q-3 -16 -9 -30.5t-20 -39t-42.5 -39.5t-67.5 -15q-45 0 -73 24l-22 21q-1 6 -8 11q-4 0 -15 -56h-102q12 58 47 90.5t87 33.5q44 0 79 -21l20 -21q0 -13 3 -13q9 0 21 55h102zM219 721h171l149 -583l123 583h132l-153 -721h-171l-149 583l-123 -583h-132z" />
<glyph unicode="&#xd2;" horiz-adv-x="783" d="M581 958l125 -165h-101l-139 165h115zM398 89q79 0 138.5 63.5t86 145.5t26.5 161q0 81 -35 126t-101 45q-61 0 -111.5 -38.5t-79 -96.5t-44 -120t-15.5 -116q0 -80 35 -125t100 -45zM95 257q0 65 17.5 131.5t54 128.5t87.5 110t124 77t157 29q133 0 208 -72t75 -200 q0 -65 -17.5 -131t-54 -127.5t-87.5 -109.5t-124.5 -77t-157.5 -29q-133 0 -207.5 72t-74.5 198z" />
<glyph unicode="&#xd3;" horiz-adv-x="783" d="M582 959h121l-142 -166h-103zM398 89q79 0 138.5 63.5t86 145.5t26.5 161q0 81 -35 126t-101 45q-61 0 -111.5 -38.5t-79 -96.5t-44 -120t-15.5 -116q0 -80 35 -125t100 -45zM95 257q0 65 17.5 131.5t54 128.5t87.5 110t124 77t157 29q133 0 208 -72t75 -200 q0 -65 -17.5 -131t-54 -127.5t-87.5 -109.5t-124.5 -77t-157.5 -29q-133 0 -207.5 72t-74.5 198z" />
<glyph unicode="&#xd4;" horiz-adv-x="783" d="M538 959h93l79 -166h-103l-38 92l-80 -92h-102zM398 89q79 0 138.5 63.5t86 145.5t26.5 161q0 81 -35 126t-101 45q-61 0 -111.5 -38.5t-79 -96.5t-44 -120t-15.5 -116q0 -80 35 -125t100 -45zM95 257q0 65 17.5 131.5t54 128.5t87.5 110t124 77t157 29q133 0 208 -72 t75 -200q0 -65 -17.5 -131t-54 -127.5t-87.5 -109.5t-124.5 -77t-157.5 -29q-133 0 -207.5 72t-74.5 198z" />
<glyph unicode="&#xd5;" horiz-adv-x="783" d="M742 917q-3 -16 -9 -30.5t-20 -39t-42.5 -39.5t-67.5 -15q-45 0 -73 24l-22 21q-1 6 -8 11q-4 0 -15 -56h-102q12 58 47 90.5t87 33.5q44 0 79 -21l20 -21q0 -13 3 -13q9 0 21 55h102zM398 89q79 0 138.5 63.5t86 145.5t26.5 161q0 81 -35 126t-101 45 q-61 0 -111.5 -38.5t-79 -96.5t-44 -120t-15.5 -116q0 -80 35 -125t100 -45zM95 257q0 65 17.5 131.5t54 128.5t87.5 110t124 77t157 29q133 0 208 -72t75 -200q0 -65 -17.5 -131t-54 -127.5t-87.5 -109.5t-124.5 -77t-157.5 -29q-133 0 -207.5 72t-74.5 198z" />
<glyph unicode="&#xd6;" horiz-adv-x="783" d="M415 882h109l-18 -89h-109zM610 882h109l-18 -89h-109zM398 89q79 0 138.5 63.5t86 145.5t26.5 161q0 81 -35 126t-101 45q-61 0 -111.5 -38.5t-79 -96.5t-44 -120t-15.5 -116q0 -80 35 -125t100 -45zM95 257q0 65 17.5 131.5t54 128.5t87.5 110t124 77t157 29 q133 0 208 -72t75 -200q0 -65 -17.5 -131t-54 -127.5t-87.5 -109.5t-124.5 -77t-157.5 -29q-133 0 -207.5 72t-74.5 198z" />
<glyph unicode="&#xd7;" horiz-adv-x="695" d="M707 520l-206 -211l205 -209l-89 -71l-205 211l-206 -211l-89 71l206 209l-205 211l90 69l204 -211l207 211z" />
<glyph unicode="&#xd8;" horiz-adv-x="810" d="M684 515l-369 -380q32 -47 100 -47q83 0 147.5 72.5t91.5 198.5q23 107 30 156zM629 582q-31 47 -99 47q-85 0 -150 -72t-92 -198q-21 -94 -29 -159zM835 464q0 -90 -30.5 -175t-85.5 -153t-140 -109.5t-186 -41.5q-122 0 -184 69l-93 -87l-76 51l100 95q-33 59 -33 140 q0 66 17.5 133t54.5 129.5t88.5 111t125.5 77.5t159 29q123 0 183 -69l91 88l76 -53l-98 -95q31 -58 31 -140z" />
<glyph unicode="&#xd9;" horiz-adv-x="716" d="M547 958l125 -165h-101l-139 165h115zM213 721h149l-88 -434q-12 -54 -12 -92q0 -55 25.5 -80t80.5 -25q72 0 114 46t64 151l96 434h148l-91 -446q-61 -288 -353 -288q-242 0 -242 199q0 42 10 89z" />
<glyph unicode="&#xda;" horiz-adv-x="716" d="M548 959h121l-142 -166h-103zM213 721h149l-88 -434q-12 -54 -12 -92q0 -55 25.5 -80t80.5 -25q72 0 114 46t64 151l96 434h148l-91 -446q-61 -288 -353 -288q-242 0 -242 199q0 42 10 89z" />
<glyph unicode="&#xdb;" horiz-adv-x="716" d="M505 959h93l79 -166h-103l-38 92l-80 -92h-102zM213 721h149l-88 -434q-12 -54 -12 -92q0 -55 25.5 -80t80.5 -25q72 0 114 46t64 151l96 434h148l-91 -446q-61 -288 -353 -288q-242 0 -242 199q0 42 10 89z" />
<glyph unicode="&#xdc;" horiz-adv-x="716" d="M382 882h109l-18 -89h-109zM577 882h109l-18 -89h-109zM213 721h149l-88 -434q-12 -54 -12 -92q0 -55 25.5 -80t80.5 -25q72 0 114 46t64 151l96 434h148l-91 -446q-61 -288 -353 -288q-242 0 -242 199q0 42 10 89z" />
<glyph unicode="&#xdd;" horiz-adv-x="648" d="M510 959h121l-142 -166h-103zM143 721h149l110 -284l232 284h149l-323 -381l-76 -340h-149l68 340z" />
<glyph unicode="&#xde;" horiz-adv-x="597" d="M219 721h139l-26 -122h90q222 0 222 -162q0 -22 -7 -59q-46 -218 -310 -223h-90l-32 -155h-139zM349 258q62 0 94.5 51t32.5 108q0 81 -76 81h-90l-51 -240h90z" />
<glyph unicode="&#xdf;" horiz-adv-x="631" d="M176 513q21 99 94.5 154t186.5 55q177 0 177 -162q0 -30 -8 -73q-70 -3 -114.5 -44t-44.5 -75q0 -5 2.5 -8.5t5.5 -6t11 -7t14 -9.5l21 -18q59 -43 80.5 -70t21.5 -60q0 -18 -4 -37q-19 -85 -84.5 -125t-181.5 -40q-11 0 -21.5 1t-17.5 2t-19.5 4.5t-16.5 5.5l-22 6 l-23 8l23 97q75 -24 125 -26q35 0 54.5 12.5t26.5 46.5q3 12 3 21q0 24 -42 58l-33 27l-18 12l-16 10l-12 9q-9 6 -12 9l-8 10q-5 6 -7 10.5t-3.5 11.5t-1.5 14q0 59 50.5 125.5t139.5 84.5q1 5 1 14q0 29 -17.5 46t-51.5 17q-84 0 -111 -112l-112 -507h-140z" />
<glyph unicode="&#xe0;" horiz-adv-x="606" d="M434 734l125 -165h-101l-139 165h115zM389 412q-47 0 -83 -41t-51.5 -93t-15.5 -99t20.5 -74t58.5 -27h1q29 0 65 24.5t40 49.5l43 201q-19 59 -78 59zM82 175q0 55 19 110t56 105.5t102.5 82t149.5 31.5q34 0 55 -7t35 -29l1 23h129l-104 -491h-129l20 66 q-10 -20 -50.5 -48t-65.5 -30q-104 0 -161 49t-57 138z" />
<glyph unicode="&#xe1;" horiz-adv-x="606" d="M435 735h121l-142 -166h-103zM389 412q-47 0 -83 -41t-51.5 -93t-15.5 -99t20.5 -74t58.5 -27h1q29 0 65 24.5t40 49.5l43 201q-19 59 -78 59zM82 175q0 55 19 110t56 105.5t102.5 82t149.5 31.5q34 0 55 -7t35 -29l1 23h129l-104 -491h-129l20 66q-10 -20 -50.5 -48 t-65.5 -30q-104 0 -161 49t-57 138z" />
<glyph unicode="&#xe2;" horiz-adv-x="606" d="M392 735h93l79 -166h-103l-38 92l-80 -92h-102zM389 412q-47 0 -83 -41t-51.5 -93t-15.5 -99t20.5 -74t58.5 -27h1q29 0 65 24.5t40 49.5l43 201q-19 59 -78 59zM82 175q0 55 19 110t56 105.5t102.5 82t149.5 31.5q34 0 55 -7t35 -29l1 23h129l-104 -491h-129l20 66 q-10 -20 -50.5 -48t-65.5 -30q-104 0 -161 49t-57 138z" />
<glyph unicode="&#xe3;" horiz-adv-x="606" d="M595 693q-3 -16 -9 -30.5t-20 -39t-42.5 -39.5t-67.5 -15q-43 0 -73 24l-22 21q-1 6 -8 11q-4 0 -15 -56h-102q12 58 47 90.5t87 33.5q44 0 79 -21l20 -21q0 -13 3 -13q9 0 21 55h102zM389 412q-47 0 -83 -41t-51.5 -93t-15.5 -99t20.5 -74t58.5 -27h1q29 0 65 24.5 t40 49.5l43 201q-19 59 -78 59zM82 175q0 55 19 110t56 105.5t102.5 82t149.5 31.5q34 0 55 -7t35 -29l1 23h129l-104 -491h-129l20 66q-10 -20 -50.5 -48t-65.5 -30q-104 0 -161 49t-57 138z" />
<glyph unicode="&#xe4;" horiz-adv-x="606" d="M269 658h109l-18 -89h-109zM464 658h109l-18 -89h-109zM389 412q-47 0 -83 -41t-51.5 -93t-15.5 -99t20.5 -74t58.5 -27h1q29 0 65 24.5t40 49.5l43 201q-19 59 -78 59zM82 175q0 55 19 110t56 105.5t102.5 82t149.5 31.5q34 0 55 -7t35 -29l1 23h129l-104 -491h-129 l20 66q-10 -20 -50.5 -48t-65.5 -30q-104 0 -161 49t-57 138z" />
<glyph unicode="&#xe5;" horiz-adv-x="606" d="M417 644q14 0 27 18t13 42q0 33 -20 33q-13 0 -26.5 -20t-13.5 -44q0 -29 20 -29zM569 710q0 -54 -51.5 -97.5t-116.5 -43.5q-50 0 -82.5 28t-32.5 70q0 53 49 98t117 45q51 0 84 -28t33 -72zM389 412q-47 0 -83 -41t-51.5 -93t-15.5 -99t20.5 -74t58.5 -27h1 q29 0 65 24.5t40 49.5l43 201q-19 59 -78 59zM82 175q0 55 19 110t56 105.5t102.5 82t149.5 31.5q34 0 55 -7t35 -29l1 23h129l-104 -491h-129l20 66q-10 -20 -50.5 -48t-65.5 -30q-104 0 -161 49t-57 138z" />
<glyph unicode="&#xe7;" horiz-adv-x="537" d="M82 182q0 55 20.5 109.5t60 103t108.5 79t156 30.5q95 0 160 -36l-23 -91q-65 32 -154 35q-48 0 -84.5 -25.5t-54.5 -64t-26 -72.5t-8 -62q0 -52 26 -81t76 -29q82 0 169 35l-15 -89q-73 -32 -156 -35q30 -41 30 -68q0 -14 -5.5 -28t-18.5 -30t-43 -26t-72 -10 q-49 0 -86 14l16 68q24 -8 78 -11q8 0 14 10.5t6 27.5q0 19 -11 58q-77 14 -120 63t-43 125z" />
<glyph unicode="&#xe8;" horiz-adv-x="601" d="M442 734l125 -165h-101l-139 165h115zM81 181q0 55 21.5 110.5t61.5 103.5t107 78.5t150 30.5h6q88 0 138 -36t50 -104q0 -16 -3 -36q-4 -16 -10.5 -30t-15.5 -26l-18 -20q-7 -9 -20 -17.5t-20 -13.5t-21.5 -11.5t-19.5 -9t-19.5 -7.5t-15.5 -6q-67 -27 -226 -27 q-1 -3 -1 -9q0 -27 34 -50t87 -23h3q98 0 211 42l-16 -91q-104 -41 -218 -41q-116 0 -180.5 51t-64.5 142zM402 412q-68 0 -118 -50.5t-52 -125.5h18q119 0 151 23l25 15q8 5 18.5 18.5t14.5 31.5q2 9 2 25q0 62 -59 63z" />
<glyph unicode="&#xe9;" horiz-adv-x="601" d="M443 735h121l-142 -166h-103zM81 181q0 55 21.5 110.5t61.5 103.5t107 78.5t150 30.5h6q88 0 138 -36t50 -104q0 -16 -3 -36q-4 -16 -10.5 -30t-15.5 -26l-18 -20q-7 -9 -20 -17.5t-20 -13.5t-21.5 -11.5t-19.5 -9t-19.5 -7.5t-15.5 -6q-67 -27 -226 -27q-1 -3 -1 -9 q0 -27 34 -50t87 -23h3q98 0 211 42l-16 -91q-104 -41 -218 -41q-116 0 -180.5 51t-64.5 142zM402 412q-68 0 -118 -50.5t-52 -125.5h18q119 0 151 23l25 15q8 5 18.5 18.5t14.5 31.5q2 9 2 25q0 62 -59 63z" />
<glyph unicode="&#xea;" horiz-adv-x="601" d="M400 735h93l79 -166h-103l-38 92l-80 -92h-102zM81 181q0 55 21.5 110.5t61.5 103.5t107 78.5t150 30.5h6q88 0 138 -36t50 -104q0 -16 -3 -36q-4 -16 -10.5 -30t-15.5 -26l-18 -20q-7 -9 -20 -17.5t-20 -13.5t-21.5 -11.5t-19.5 -9t-19.5 -7.5t-15.5 -6 q-67 -27 -226 -27q-1 -3 -1 -9q0 -27 34 -50t87 -23h3q98 0 211 42l-16 -91q-104 -41 -218 -41q-116 0 -180.5 51t-64.5 142zM402 412q-68 0 -118 -50.5t-52 -125.5h18q119 0 151 23l25 15q8 5 18.5 18.5t14.5 31.5q2 9 2 25q0 62 -59 63z" />
<glyph unicode="&#xeb;" horiz-adv-x="601" d="M277 658h109l-18 -89h-109zM472 658h109l-18 -89h-109zM81 181q0 55 21.5 110.5t61.5 103.5t107 78.5t150 30.5h6q88 0 138 -36t50 -104q0 -16 -3 -36q-4 -16 -10.5 -30t-15.5 -26l-18 -20q-7 -9 -20 -17.5t-20 -13.5t-21.5 -11.5t-19.5 -9t-19.5 -7.5t-15.5 -6 q-67 -27 -226 -27q-1 -3 -1 -9q0 -27 34 -50t87 -23h3q98 0 211 42l-16 -91q-104 -41 -218 -41q-116 0 -180.5 51t-64.5 142zM402 412q-68 0 -118 -50.5t-52 -125.5h18q119 0 151 23l25 15q8 5 18.5 18.5t14.5 31.5q2 9 2 25q0 62 -59 63z" />
<glyph unicode="&#xec;" horiz-adv-x="272" d="M262 734l125 -165h-101l-139 165h115zM173 495h123l-105 -495h-123z" />
<glyph unicode="&#xed;" horiz-adv-x="272" d="M268 735h121l-142 -166h-103zM173 495h123l-105 -495h-123z" />
<glyph unicode="&#xee;" horiz-adv-x="272" d="M239 735h93l79 -166h-103l-38 92l-80 -92h-102zM173 495h123l-105 -495h-123z" />
<glyph unicode="&#xef;" horiz-adv-x="272" d="M116 658h109l-18 -89h-109zM311 658h109l-18 -89h-109zM173 495h123l-105 -495h-123z" />
<glyph unicode="&#xf0;" horiz-adv-x="619" d="M397 404q-45 0 -78.5 -25.5t-50 -63.5t-24 -72t-7.5 -61q0 -47 20.5 -74t58.5 -27q49 0 87.5 44.5t53.5 116.5q10 46 10 84q0 40 -11 66q-25 8 -59 12zM82 180q0 123 90 219t225 96q6 0 17 -11l-38 56l-156 -43l-18 59l130 37l-59 91h146l39 -56l164 45l17 -58l-135 -40 l51 -66q67 -91 67 -187q0 -139 -91 -236.5t-235 -97.5q-99 0 -156.5 51.5t-57.5 140.5z" />
<glyph unicode="&#xf1;" d="M620 693q-3 -16 -9 -30.5t-20 -39t-42.5 -39.5t-67.5 -15q-43 0 -73 24l-22 21q-1 6 -8 11q-4 0 -15 -56h-102q12 58 47 90.5t87 33.5q44 0 79 -21l20 -21q0 -13 3 -13q9 0 21 55h102zM608 293l-66 -293h-139l57 290q6 30 6 52q0 66 -59 68q-54 0 -92.5 -36t-53.5 -99 l-62 -275h-131l103 489h131l-19 -69q71 84 162 84q170 0 170 -146q0 -33 -7 -65z" />
<glyph unicode="&#xf2;" d="M452 734l125 -165h-101l-139 165h115zM315 79q47 0 82.5 41.5t51 93t15.5 98.5q0 48 -19.5 75.5t-57.5 27.5q-46 0 -81.5 -39t-52 -91.5t-16.5 -102.5q0 -49 20 -76t58 -27zM83 176q0 55 18.5 111t55.5 107t102 83t148 32q102 0 158 -50t56 -140q0 -54 -18.5 -109.5 t-55.5 -106.5t-102.5 -83t-148.5 -32q-102 0 -157.5 49t-55.5 139z" />
<glyph unicode="&#xf3;" d="M453 735h121l-142 -166h-103zM315 79q47 0 82.5 41.5t51 93t15.5 98.5q0 48 -19.5 75.5t-57.5 27.5q-46 0 -81.5 -39t-52 -91.5t-16.5 -102.5q0 -49 20 -76t58 -27zM83 176q0 55 18.5 111t55.5 107t102 83t148 32q102 0 158 -50t56 -140q0 -54 -18.5 -109.5t-55.5 -106.5 t-102.5 -83t-148.5 -32q-102 0 -157.5 49t-55.5 139z" />
<glyph unicode="&#xf4;" d="M410 735h93l79 -166h-103l-38 92l-80 -92h-102zM315 79q47 0 82.5 41.5t51 93t15.5 98.5q0 48 -19.5 75.5t-57.5 27.5q-46 0 -81.5 -39t-52 -91.5t-16.5 -102.5q0 -49 20 -76t58 -27zM83 176q0 55 18.5 111t55.5 107t102 83t148 32q102 0 158 -50t56 -140 q0 -54 -18.5 -109.5t-55.5 -106.5t-102.5 -83t-148.5 -32q-102 0 -157.5 49t-55.5 139z" />
<glyph unicode="&#xf5;" d="M613 693q-26 -124 -138 -124q-44 0 -74 24l-22 21q-1 6 -8 11q-4 0 -15 -56h-102q12 58 47 90.5t87 33.5q44 0 79 -21l20 -21q0 -13 3 -13q9 0 21 55h102zM315 79q47 0 82.5 41.5t51 93t15.5 98.5q0 48 -19.5 75.5t-57.5 27.5q-46 0 -81.5 -39t-52 -91.5t-16.5 -102.5 q0 -49 20 -76t58 -27zM83 176q0 55 18.5 111t55.5 107t102 83t148 32q102 0 158 -50t56 -140q0 -54 -18.5 -109.5t-55.5 -106.5t-102.5 -83t-148.5 -32q-102 0 -157.5 49t-55.5 139z" />
<glyph unicode="&#xf6;" d="M287 658h109l-18 -89h-109zM482 658h109l-18 -89h-109zM315 79q47 0 82.5 41.5t51 93t15.5 98.5q0 48 -19.5 75.5t-57.5 27.5q-46 0 -81.5 -39t-52 -91.5t-16.5 -102.5q0 -49 20 -76t58 -27zM83 176q0 55 18.5 111t55.5 107t102 83t148 32q102 0 158 -50t56 -140 q0 -54 -18.5 -109.5t-55.5 -106.5t-102.5 -83t-148.5 -32q-102 0 -157.5 49t-55.5 139z" />
<glyph unicode="&#xf7;" horiz-adv-x="706" d="M327 498h165v-122h-165v122zM326 188h165v-123h-165v123zM86 327h650v-90h-650v90z" />
<glyph unicode="&#xf8;" horiz-adv-x="650" d="M506 333l-225 -234q14 -19 53 -22q53 0 94.5 45t58.5 123q6 30 19 88zM458 392q-16 20 -53 20q-55 0 -96 -45t-58 -127q-16 -67 -21 -82zM643 315q0 -57 -19.5 -112.5t-57.5 -105t-103 -80t-148 -30.5q-81 0 -122 42l-85 -70l-74 44l85 77q-22 40 -22 94q0 42 10.5 85.5 t36 88.5t62 79.5t93.5 56.5t126 22q72 0 119 -44l89 70l70 -45l-81 -76q21 -44 21 -96z" />
<glyph unicode="&#xf9;" d="M449 734l125 -165h-101l-139 165h115zM102 198l66 294h138l-58 -291q-6 -29 -6 -51q0 -69 61 -69q53 0 91.5 36t51.5 99l63 276h132l-104 -492h-132l20 71q-69 -83 -160 -83q-171 0 -171 144q0 28 8 66z" />
<glyph unicode="&#xfa;" d="M450 735h121l-142 -166h-103zM102 198l66 294h138l-58 -291q-6 -29 -6 -51q0 -69 61 -69q53 0 91.5 36t51.5 99l63 276h132l-104 -492h-132l20 71q-69 -83 -160 -83q-171 0 -171 144q0 28 8 66z" />
<glyph unicode="&#xfb;" d="M407 735h93l79 -166h-103l-38 92l-80 -92h-102zM102 198l66 294h138l-58 -291q-6 -29 -6 -51q0 -69 61 -69q53 0 91.5 36t51.5 99l63 276h132l-104 -492h-132l20 71q-69 -83 -160 -83q-171 0 -171 144q0 28 8 66z" />
<glyph unicode="&#xfc;" d="M284 658h109l-18 -89h-109zM479 658h109l-18 -89h-109zM102 198l66 294h138l-58 -291q-6 -29 -6 -51q0 -69 61 -69q53 0 91.5 36t51.5 99l63 276h132l-104 -492h-132l20 71q-69 -83 -160 -83q-171 0 -171 144q0 28 8 66z" />
<glyph unicode="&#xfd;" horiz-adv-x="592" d="M437 735h121l-142 -166h-103zM320 -64q-63 -89 -108 -116.5t-116 -27.5h-65l-13 89h79q23 0 39 14.5t42 67.5l32 50l-98 479h139l60 -370l218 370h138z" />
<glyph unicode="&#xfe;" horiz-adv-x="636" d="M639 317q0 -82 -36.5 -158.5t-109 -128t-162.5 -51.5q-96 0 -125 84l-56 -288h-130l218 1025h130l-85 -372q65 84 161 84q90 0 142.5 -52.5t52.5 -142.5zM331 71q50 0 86.5 45.5t51 98.5t14.5 98q0 50 -20 78t-58 28q-51 0 -89 -43t-54 -96t-16 -102q0 -51 21.5 -79 t63.5 -28z" />
<glyph unicode="&#xff;" horiz-adv-x="592" d="M271 658h109l-18 -89h-109zM466 658h109l-18 -89h-109zM320 -64q-63 -89 -108 -116.5t-116 -27.5h-65l-13 89h79q23 0 39 14.5t42 67.5l32 50l-98 479h139l60 -370l218 370h138z" />
<glyph unicode="&#x106;" horiz-adv-x="688" d="M568 959h121l-142 -166h-103zM95 257q0 61 16 125t52 127.5t88 113t131 80t173 30.5q141 0 229 -72l-31 -117q-82 85 -214 85q-63 0 -113 -28.5t-79.5 -70t-49 -94t-26.5 -96t-7 -80.5q0 -82 40.5 -125.5t120.5 -43.5q128 0 250 86l-19 -117q-121 -73 -259 -73 q-143 0 -222.5 71t-79.5 199z" />
<glyph unicode="&#x107;" horiz-adv-x="537" d="M459 735h121l-142 -166h-103zM82 181q0 55 20 109.5t59.5 103.5t108.5 79.5t157 30.5q95 0 160 -36l-23 -91q-65 32 -154 35q-48 0 -84.5 -25.5t-54.5 -64t-26 -72.5t-8 -62q0 -52 26 -81t76 -29q82 0 169 35l-15 -89q-84 -36 -182 -36q-107 0 -168 51.5t-61 141.5z" />
<glyph unicode="&#x10c;" horiz-adv-x="688" d="M506 793l-80 166h102l39 -91l79 91h103l-152 -166h-91zM95 257q0 61 16 125t52 127.5t88 113t131 80t173 30.5q141 0 229 -72l-31 -117q-82 85 -214 85q-63 0 -113 -28.5t-79.5 -70t-49 -94t-26.5 -96t-7 -80.5q0 -82 40.5 -125.5t120.5 -43.5q128 0 250 86l-19 -117 q-121 -73 -259 -73q-143 0 -222.5 71t-79.5 199z" />
<glyph unicode="&#x10d;" horiz-adv-x="537" d="M373 569l-80 166h102l39 -91l79 91h103l-152 -166h-91zM82 181q0 55 20 109.5t59.5 103.5t108.5 79.5t157 30.5q95 0 160 -36l-23 -91q-65 32 -154 35q-48 0 -84.5 -25.5t-54.5 -64t-26 -72.5t-8 -62q0 -52 26 -81t76 -29q82 0 169 35l-15 -89q-84 -36 -182 -36 q-107 0 -168 51.5t-61 141.5z" />
<glyph unicode="&#x111;" horiz-adv-x="646" d="M68 181q0 60 22 119.5t61 107.5t98 77.5t128 29.5q99 0 127 -84l28 155h-150l16 73h150l13 62h132l-13 -62h70l-16 -73h-70l-124 -582h-132l20 67q-63 -83 -163 -83q-91 0 -144 52t-53 141zM377 422q-47 0 -83.5 -42t-52 -95t-15.5 -101q0 -49 20 -76.5t59 -27.5 q52 0 90 42t53.5 93.5t15.5 98.5q0 51 -22.5 79.5t-64.5 28.5z" />
<glyph unicode="&#x11e;" horiz-adv-x="751" d="M399 919h98q-1 -3 -1 -8q0 -44 50 -44q53 0 71 52h99q-36 -126 -186 -126q-133 0 -133 101q0 16 2 25zM95 255q0 52 12 109.5t45.5 125t83.5 120t135 88t192 35.5q159 0 248 -72l-31 -118q-91 86 -232 86q-215 0 -272 -270q-12 -55 -12 -100q0 -168 170 -168q82 0 132 28 l39 171h-149l21 96h295l-64 -314q-136 -85 -303 -85q-150 0 -230 69.5t-80 198.5z" />
<glyph unicode="&#x11f;" horiz-adv-x="631" d="M285 695h98v-8q0 -44 49 -44q53 0 71 52h99q-36 -126 -186 -126q-133 0 -133 101q0 7 2 25zM316 83q50 0 86.5 39.5t52 89.5t15.5 97q0 102 -84 102q-38 0 -68 -25t-46 -62t-24.5 -74.5t-8.5 -68.5q0 -98 77 -98zM84 180q0 78 35.5 151t106.5 123t161 50q95 0 122 -84 l9 68h134l-95 -469q-27 -126 -103 -185t-211 -59q-96 0 -177 30l23 96q81 -35 161 -35q132 0 161 138l24 70q-59 -83 -157 -83q-89 0 -141.5 50.5t-52.5 138.5z" />
<glyph unicode="&#x130;" horiz-adv-x="262" d="M220 723h112l-153 -723h-112zM259 904h113l-25 -116h-113z" />
<glyph unicode="&#x131;" horiz-adv-x="272" d="M173 495h123l-105 -495h-123z" />
<glyph unicode="&#x141;" horiz-adv-x="601" d="M268 721h140l-64 -288l149 105l52 -68l-216 -134l-53 -237h331l-21 -99h-471l59 266l-59 -52l-53 67l126 80z" />
<glyph unicode="&#x142;" horiz-adv-x="344" d="M273 800h127l-80 -359l41 29l46 -61l-101 -65l-76 -344h-127l62 281l-42 -38l-46 61l102 71z" />
<glyph unicode="&#x15e;" horiz-adv-x="610" d="M134 473q0 43 16.5 85.5t51.5 83t100 66t151 25.5q110 0 213 -40l-27 -110q-113 47 -197 47q-36 0 -64 -11t-42.5 -25.5t-23.5 -34t-11.5 -33t-2.5 -24.5q0 -26 19 -40t65 -26l51 -12q185 -37 185 -167q0 -25 -5 -51.5t-22 -63t-44.5 -65.5t-79 -53.5t-119.5 -32.5 q32 -40 32 -69q0 -14 -5.5 -28t-19 -30t-43.5 -26t-72 -10q-49 0 -86 14l16 68q24 -8 78 -11q9 0 15 10.5t6 27.5q0 20 -10 50q-96 3 -210 48l29 118q110 -64 219 -64q43 0 75 14.5t47.5 37t22.5 44t7 42.5q0 60 -81 80l-52 12q-94 18 -138 54.5t-44 99.5z" />
<glyph unicode="&#x15f;" horiz-adv-x="527" d="M113 320q0 31 12.5 60.5t39.5 58.5t80.5 47t125.5 18q105 0 174 -31l-23 -92q-71 29 -160 32q-56 0 -78 -21t-22 -48q0 -15 15 -25t55 -20l27 -7q81 -16 118 -43.5t37 -73.5q0 -20 -6.5 -41.5t-24.5 -52t-62 -55t-109 -33.5q34 -42 34 -72q0 -14 -5.5 -28t-19 -30 t-43.5 -26t-72 -10q-49 0 -86 14l16 68q24 -8 78 -11q21 0 21 38q0 21 -10 52q-85 3 -173 34l24 98q94 -40 186 -43q53 0 76 22.5t23 50.5q0 18 -16.5 28.5t-64.5 23.5l-25 6q-75 16 -108.5 41.5t-33.5 70.5z" />
<glyph unicode="&#x160;" horiz-adv-x="610" d="M421 793l-80 166h102l39 -91l79 91h103l-152 -166h-91zM134 472q0 34 9.5 68.5t33.5 69.5t59.5 62t91.5 44t125 17q110 0 213 -40l-27 -110q-113 47 -197 47q-45 0 -76 -15t-44.5 -38.5t-18.5 -41.5t-5 -33q0 -26 19 -40t65 -26l51 -12q185 -37 185 -167q0 -31 -7 -62.5 t-30 -70.5t-58.5 -68t-99.5 -49t-147 -20q-108 0 -227 48l29 118q110 -64 219 -64q43 0 75 14.5t47.5 37t22.5 44t7 42.5q0 60 -81 80l-52 12q-94 18 -138 54.5t-44 98.5z" />
<glyph unicode="&#x161;" horiz-adv-x="527" d="M335 569l-80 166h102l39 -91l79 91h103l-152 -166h-91zM113 320q0 31 12.5 60.5t39.5 58.5t80.5 47t125.5 18q105 0 174 -31l-23 -92q-71 29 -160 32q-56 0 -78 -21t-22 -48q0 -15 15 -25t55 -20l27 -7q80 -16 117.5 -43.5t37.5 -73.5q0 -84 -74.5 -135.5t-198.5 -51.5 q-90 0 -189 34l24 98q94 -40 186 -43q53 0 76 22.5t23 50.5q0 18 -16.5 28.5t-64.5 23.5l-25 6q-75 16 -108.5 41.5t-33.5 70.5z" />
<glyph unicode="&#x178;" horiz-adv-x="648" d="M344 882h109l-18 -89h-109zM539 882h109l-18 -89h-109zM143 721h149l110 -284l232 284h149l-323 -381l-76 -340h-149l68 340z" />
<glyph unicode="&#x17d;" horiz-adv-x="685" d="M455 793l-80 166h102l39 -91l79 91h103l-152 -166h-91zM192 721h598l-16 -88l-549 -536h440l-20 -97h-619l15 86l551 537h-421z" />
<glyph unicode="&#x17e;" horiz-adv-x="543" d="M336 569l-80 166h102l39 -91l79 91h103l-152 -166h-91zM154 492h442l-15 -86l-377 -328h304l-16 -78h-457l15 85l378 327h-291z" />
<glyph unicode="&#x17f;" horiz-adv-x="322" d="M366 607l-188 -832h-134l142 639h-76l18 82h76l18 102q19 91 78.5 146t155.5 56h101l-20 -90h-102q-46 0 -69 -103z" />
<glyph unicode="&#x192;" horiz-adv-x="668" d="M784 661l-23 -90q-38 21 -93 24q-68 0 -104 -98l-52 -121h132l-17 -80h-152l-102 -263q-57 -126 -119 -173t-166 -47q-72 0 -116 24l23 90q51 -27 107 -27q73 0 121 119l112 277h-113l17 80h133l57 135q75 173 242 173q62 0 113 -23z" />
<glyph unicode="&#x2c6;" horiz-adv-x="399" d="M294 720h93l79 -166h-103l-38 92l-80 -92h-102z" />
<glyph unicode="&#x2c7;" horiz-adv-x="362" d="M217 554l-80 166h102l39 -91l79 91h103l-152 -166h-91z" />
<glyph unicode="&#x2d8;" horiz-adv-x="433" d="M193 706h98v-8q0 -44 49 -44q53 0 71 52h99q-36 -126 -186 -126q-133 0 -133 101q0 7 2 25z" />
<glyph unicode="&#x2d9;" horiz-adv-x="251" d="M202 682h105l-19 -90h-105z" />
<glyph unicode="&#x2da;" horiz-adv-x="382" d="M301 624q14 0 26.5 18t12.5 42q0 33 -19 33q-13 0 -26.5 -20t-13.5 -44q0 -29 20 -29zM453 690q0 -54 -51.5 -97.5t-116.5 -43.5q-50 0 -82.5 28t-32.5 70q0 53 49 98t117 45q51 0 84 -28t33 -72z" />
<glyph unicode="&#x2db;" horiz-adv-x="300" d="M34 -113q0 30 18 54t64 59h83q-49 -59 -49 -91q0 -9 6 -9q37 0 68 9l-13 -70q-26 -8 -71 -12q-106 0 -106 60z" />
<glyph unicode="&#x2dc;" horiz-adv-x="448" d="M523 699q-3 -16 -9 -30.5t-20 -39t-42.5 -39.5t-67.5 -15q-43 0 -73 24l-22 21q-1 6 -8 11q-4 0 -15 -56h-102q12 58 47 90.5t87 33.5q44 0 79 -21l20 -21q0 -13 3 -13q9 0 21 55h102z" />
<glyph unicode="&#x2dd;" horiz-adv-x="442" d="M419 720h121l-155 -166h-101zM277 720h119l-144 -166h-105z" />
<glyph unicode="&#x3c0;" horiz-adv-x="670" d="M701 398h-84l-50 -210l-3 -11q-2 -11 -4.5 -27t-2.5 -29q0 -35 19 -35h1q39 0 73 2l-14 -83q-8 -1 -77 -12h-11q-68 0 -95.5 28t-27.5 80q0 36 15 107l43 190h-99l-90 -393h-135l91 393q-21 0 -24 -59h-124q16 88 54.5 120.5t127.5 32.5h437z" />
<glyph unicode="&#x2000;" horiz-adv-x="500" />
<glyph unicode="&#x2001;" horiz-adv-x="1000" />
<glyph unicode="&#x2002;" horiz-adv-x="500" />
<glyph unicode="&#x2003;" horiz-adv-x="1000" />
<glyph unicode="&#x2004;" horiz-adv-x="333" />
<glyph unicode="&#x2005;" horiz-adv-x="250" />
<glyph unicode="&#x2006;" horiz-adv-x="166" />
<glyph unicode="&#x2007;" horiz-adv-x="677" />
<glyph unicode="&#x2008;" horiz-adv-x="254" />
<glyph unicode="&#x2009;" horiz-adv-x="100" />
<glyph unicode="&#x200a;" horiz-adv-x="10" />
<glyph unicode="&#x200b;" horiz-adv-x="0" />
<glyph unicode="&#x2010;" horiz-adv-x="419" d="M110 210v72h288v-72h-288z" />
<glyph unicode="&#x2011;" horiz-adv-x="419" d="M110 210v72h288v-72h-288z" />
<glyph unicode="&#x2012;" horiz-adv-x="677" d="M110 210v72h546v-72h-546z" />
<glyph unicode="&#x2013;" horiz-adv-x="500" d="M110 210v72h369v-72h-369z" />
<glyph unicode="&#x2014;" horiz-adv-x="1000" d="M110 210v72h869v-72h-869z" />
<glyph unicode="&#x2015;" horiz-adv-x="2000" d="M110 210v72h1869v-72h-1869z" />
<glyph unicode="&#x2016;" horiz-adv-x="634" d="M575 722v-930h-96v930h96zM258 722v-930h-96v930h96z" />
<glyph unicode="&#x2018;" horiz-adv-x="272" d="M264 440h-121l14 79l99 137h84l-55 -137z" />
<glyph unicode="&#x2019;" horiz-adv-x="267" d="M211 656h121l-11 -70l-99 -137h-84l55 137z" />
<glyph unicode="&#x201a;" horiz-adv-x="274" d="M111 111h123l-14 -79l-100 -136h-84l54 136z" />
<glyph unicode="&#x201b;" horiz-adv-x="262" d="M316 656l-14 -70l-3 -137h-83l-36 137l14 70h122z" />
<glyph unicode="&#x201c;" horiz-adv-x="475" d="M287 440h-143l13 79l112 137h100l-61 -137zM464 440h-144l13 79l112 137h101l-61 -137z" />
<glyph unicode="&#x201d;" horiz-adv-x="469" d="M212 656h145l-13 -80l-113 -136h-99l59 136zM389 656h145l-13 -80l-114 -136h-99l60 136z" />
<glyph unicode="&#x201e;" horiz-adv-x="475" d="M291 111h145l-13 -80l-114 -135h-99l60 135zM114 111h145l-13 -80l-113 -135h-99l59 135z" />
<glyph unicode="&#x201f;" horiz-adv-x="470" d="M518 656l-17 -80l5 -136h-99l-55 136l17 80h149zM341 656l-17 -80l5 -136h-99l-55 136l17 80h149z" />
<glyph unicode="&#x2020;" horiz-adv-x="485" d="M307 656h129l-38 -180h165l-18 -84h-165l-102 -478h-129l102 478h-165l18 84h165z" />
<glyph unicode="&#x2021;" horiz-adv-x="518" d="M501 94h-166l-38 -180h-130l38 180h-166l18 84h166l46 214h-166l18 84h166l38 180h130l-38 -180h166l-18 -84h-166l-46 -214h166z" />
<glyph unicode="&#x2022;" horiz-adv-x="330" d="M115 378q0 55 38.5 93.5t91.5 38.5q54 0 92 -38.5t38 -93.5t-38 -93.5t-92 -38.5q-53 0 -91.5 38.5t-38.5 93.5z" />
<glyph unicode="&#x2023;" horiz-adv-x="449" d="M182 200v402l299 -201z" />
<glyph unicode="&#x2024;" horiz-adv-x="254" d="M92 111h108l-23 -111h-108z" />
<glyph unicode="&#x2025;" horiz-adv-x="508" d="M346 111h108l-23 -111h-108zM92 111h108l-23 -111h-108z" />
<glyph unicode="&#x2026;" horiz-adv-x="762" d="M600 111h108l-23 -111h-108zM346 111h108l-23 -111h-108zM92 111h108l-23 -111h-108z" />
<glyph unicode="&#x202f;" horiz-adv-x="191" />
<glyph unicode="&#x2030;" horiz-adv-x="1320" d="M1101 70q35 0 59 59.5t24 117.5q0 57 -33 57q-35 0 -60 -59t-25 -115q0 -60 35 -60zM932 126q0 35 10.5 75.5t35 85t74.5 74.5t118 31q77 0 120 -39.5t43 -110.5q0 -100 -67 -177.5t-182 -77.5q-76 0 -114 36t-38 103zM119 476q0 100 67 178.5t182 78.5q76 0 120.5 -39 t44.5 -109q0 -39 -14 -81.5t-42 -82.5t-79 -66t-116 -26q-78 0 -120.5 39t-42.5 108zM779 733h126l-616 -746h-126zM301 415q35 0 59.5 59.5t24.5 115.5q0 60 -34 60q-36 0 -60 -62t-24 -117q0 -56 34 -56zM536 134q0 42 15 85.5t44 82.5t79 64t113 26q75 0 114.5 -37.5 t39.5 -106.5q0 -28 -6 -59.5t-23.5 -68.5t-43 -65.5t-69 -48t-98.5 -19.5q-79 0 -122 39t-43 108zM718 70q34 0 58.5 60.5t24.5 114.5q0 59 -33 59q-35 0 -59.5 -59.5t-24.5 -115.5q0 -59 34 -59z" />
<glyph unicode="&#x2039;" horiz-adv-x="332" d="M359 465l-14 -96l-137 -106l92 -107l-26 -94l-201 178l9 45z" />
<glyph unicode="&#x203a;" horiz-adv-x="331" d="M154 465l202 -180l-9 -45l-278 -178l14 94l137 107l-92 106z" />
<glyph unicode="&#x2044;" horiz-adv-x="571" d="M574 667h122l-579 -679h-121z" />
<glyph unicode="&#x205f;" horiz-adv-x="239" />
<glyph unicode="&#x2074;" horiz-adv-x="423" d="M349 646l-158 -171h116zM357 726h113l-54 -251h58l-14 -68h-58l-18 -85h-109l18 85h-183l12 69z" />
<glyph unicode="&#x20ac;" horiz-adv-x="648" d="M742 660l-32 -118q-35 48 -74 69t-93 21q-126 0 -188 -158h269l-50 -74h-243l-18 -79h212l-53 -77h-166v-13q0 -69 31.5 -106t89.5 -37q54 0 101.5 21t104.5 70l-19 -118q-109 -74 -212 -74q-113 0 -176 63t-63 179v15h-104l54 77h58l16 79h-94l52 74h67 q46 122 138 190.5t210 68.5q106 0 182 -73z" />
<glyph unicode="&#x2122;" horiz-adv-x="780" d="M592 721l64 -112l59 112h122l-1 -279h-93l2 215l-60 -136h-61l-60 136v-215h-96l1 279h123zM462 721v-64h-90l-1 -215h-104l1 215h-88v64h282z" />
<glyph unicode="&#x2126;" horiz-adv-x="815" d="M794 99l-1 -99h-335l-1 99q80 44 124.5 120t44.5 169v3q0 104 -51 167.5t-136 63.5t-138 -64.5t-53 -169.5q0 -93 44 -169t126 -120l-3 -99h-334l1 99h142q-76 63 -110.5 129.5t-34.5 151.5v4q0 153 100 249.5t260 96.5q156 0 257 -95t101 -245v-2q0 -89 -34 -156 t-112 -133h143z" />
<glyph unicode="&#x2202;" horiz-adv-x="520" d="M396 287q-12 66 -15 123q0 96 -29 96q-15 0 -53.5 -24.5t-46.5 -24.5q-28 0 -49.5 13t-21.5 33q0 31 42 54.5t97 24.5q92 0 148 -68t56 -183v-3q0 -143 -72.5 -240.5t-179.5 -97.5q-78 0 -131.5 48.5t-53.5 123.5q1 88 58 146t141 58q41 0 67 -18.5t43 -60.5zM346 220 q0 89 -37 89q-32 0 -53 -51t-21 -131q2 -85 37 -88q31 0 52.5 51.5t21.5 129.5z" />
<glyph unicode="&#x2206;" horiz-adv-x="720" d="M370 587l-164 -488h328zM299 721h145l276 -721h-701z" />
<glyph unicode="&#x220f;" horiz-adv-x="780" d="M119 711h630l-1 -900h-163l1 783h-303v-783h-164v900z" />
<glyph unicode="&#x2211;" horiz-adv-x="720" d="M37 711h647l-1 -109h-441l318 -332l-330 -351h461v-108h-670v84l335 372l-318 345z" />
<glyph unicode="&#x2212;" horiz-adv-x="419" d="M125 282h273l-15 -72h-273z" />
<glyph unicode="&#x221a;" horiz-adv-x="720" d="M637 801h213v-66h-136l-281 -754h-73l-140 414l-59 -21l-29 55l181 53l103 -332z" />
<glyph unicode="&#x221e;" horiz-adv-x="740" d="M490 247q31 -59 84 -59q29 0 48.5 23t19.5 59v2v3q0 33 -16.5 56.5t-40.5 23.5q-27 0 -48.5 -24t-46.5 -84zM363 290q-27 58 -85 58q-30 0 -48.5 -23t-18.5 -60v-3q0 -34 16 -56.5t41 -22.5q26 0 47.5 24t47.5 83zM433 203q-65 -106 -148 -106q-75 0 -127.5 49t-52.5 122 q1 75 48 123.5t124 48.5q42 0 76 -25t69 -82q59 108 145 108q74 0 127 -49.5t53 -121.5q-1 -77 -47.5 -124t-122.5 -47q-43 0 -76.5 23.5t-67.5 80.5z" />
<glyph unicode="&#x222b;" horiz-adv-x="464" d="M395 635q-2 -52 -4 -240q-7 -318 -52.5 -445.5t-165.5 -127.5q-50 0 -82 23t-33 60q0 31 22.5 50.5t69.5 19.5q44 0 66 -25q10 82 14 258q4 154 15.5 251t36 165t64 96.5t100.5 28.5q48 0 80.5 -22.5t32.5 -61.5q-1 -31 -23.5 -49.5t-64.5 -18.5q-57 0 -76 38z" />
<glyph unicode="&#x2248;" horiz-adv-x="768" d="M316 277q70 0 144.5 -28t112.5 -28q86 0 192 63l5 -90q-108 -67 -207 -67q-43 0 -143 28q-63 28 -113 28q-93 0 -190 -64l-7 92q105 66 206 66zM323 436q61 0 136 -27.5t114 -27.5q91 0 192 63l5 -91q-108 -67 -207 -67q-51 0 -135.5 27.5t-119.5 27.5q-94 0 -191 -63 l-6 92q104 66 212 66z" />
<glyph unicode="&#x2260;" horiz-adv-x="734" d="M99 409h371l132 138l97 -55l-84 -83h134v-88h-216l-72 -81h288v-89h-373l-133 -134l-96 54l83 80h-131v89h214l73 81h-287v88z" />
<glyph unicode="&#x2264;" horiz-adv-x="765" d="M746 430l-440 -108l440 -108l-3 -94l-651 158v89l653 156zM92 91h652v-91h-652v91z" />
<glyph unicode="&#x2265;" horiz-adv-x="784" d="M123 430l5 93l645 -156v-89l-647 -158l-2 94l437 108zM771 91v-91h-647v91h647z" />
<glyph unicode="&#x25ca;" horiz-adv-x="530" d="M321 509l-135 -249l132 -267l136 267zM321 726l252 -466l-256 -469l-251 469z" />
<glyph unicode="&#xefed;" horiz-adv-x="252" d="M198 658h106l-19 -90h-106z" />
<glyph unicode="&#xefee;" horiz-adv-x="432" d="M184 671h100v-2q0 -34 52 -34t71 36h96q-33 -106 -181 -106q-138 0 -138 96v10z" />
<glyph unicode="&#xeff4;" horiz-adv-x="354" d="M210 554l-77 117h99l41 -61l68 61h100l-128 -117h-103z" />
<glyph unicode="&#xeff5;" horiz-adv-x="445" d="M157 568q9 45 44 71t90 26q26 0 68 -14l22 -11q9 -7 14 -7v1q0 1 0.5 3.5t1.5 7t2 9.5l6 11h106q-9 -43 -44 -70t-82 -27q-39 0 -76 15l-23 13q-8 6 -12 6q-1 0 -6 -21l-7 -13h-104z" />
<glyph unicode="&#xeff6;" horiz-adv-x="448" d="M366 657h134l-19 -89h-134zM198 657h134l-19 -89h-134z" />
<glyph unicode="&#xeff7;" horiz-adv-x="386" d="M265 671h104l78 -117h-100l-42 61l-68 -61h-99z" />
<glyph unicode="&#xeff8;" horiz-adv-x="265" d="M263 670l60 -116h-94l-73 116h107z" />
<glyph unicode="&#xeff9;" horiz-adv-x="275" d="M253 670h108l-123 -116h-96z" />
<glyph unicode="&#xf6c3;" horiz-adv-x="275" d="M70 -59h123l-13 -79l-100 -137h-84l53 137z" />
<glyph unicode="&#xfb05;" horiz-adv-x="730" d="M668 640l-30 -145h134l-17 -79h-134l-49 -248q-7 -31 -7 -49t9.5 -24.5t32.5 -6.5h106l-18 -88h-106q-88 0 -126 22.5t-38 80.5q0 25 8 65l57 248h-55l17 79h55l22 114zM366 607l-188 -832h-134l142 639h-76l18 82h76l18 102q19 91 78.5 146t155.5 56h101l-20 -90h-102 q-46 0 -69 -103z" />
<glyph unicode="&#xfb06;" horiz-adv-x="935" d="M113 320q0 31 12.5 60.5t39.5 58.5t80.5 47t125.5 18h22q32 109 120 171t212 62q95 0 160 -36l-42 -206h134l-17 -79h-134l-49 -248q-7 -31 -7 -49t9.5 -24.5t32.5 -6.5h106l-18 -88h-106q-88 0 -126 22.5t-38 80.5q0 25 8 65l57 248h-55l17 79h55l33 147q-18 3 -37 3 q-62 0 -116 -45t-72 -120q2 -1 12 -3t13 -4l-23 -92q-71 29 -160 32q-56 0 -78 -21t-22 -48q0 -15 15 -25t55 -20l27 -7q81 -16 118 -43.5t37 -73.5q0 -84 -75 -135.5t-198 -51.5q-90 0 -189 34l24 98q94 -40 186 -43q53 0 76 22.5t23 50.5q0 18 -16.5 28.5t-64.5 23.5 l-25 6q-75 16 -108.5 41.5t-33.5 70.5z" />
<glyph horiz-adv-x="1000" />
</font>
</defs>
</svg>
