<?xml version="1.0" standalone="no"?>
<!DOCTYPE svg PUBLIC "-//W3C//DTD SVG 1.1//EN" "http://www.w3.org/Graphics/SVG/1.1/DTD/svg11.dtd" >
<svg xmlns="http://www.w3.org/2000/svg">
<metadata>
This is a custom SVG webfont generated by Font Squirrel.
Designer    : Hirwen HARENDAL
Foundry     : Arkandis Digital Foundry
Foundry URL : httparkandistuxfamilyorg
</metadata>
<defs>
<font id="webfontYpe8V6BV" horiz-adv-x="550" >
<font-face units-per-em="1000" ascent="800" descent="-200" />
<missing-glyph horiz-adv-x="325" />
<glyph unicode="AE" horiz-adv-x="886" d="M998 721l-18 -83h-339l-45 -213h325l-18 -82h-325l-55 -261h349l-17 -82h-443l39 184h-238l-110 -184h-97l436 721h556zM491 643l-229 -377h206l79 372z" />
<glyph unicode="ae" horiz-adv-x="892" d="M74 168q0 41 10 84.5t33 89t56.5 81.5t85.5 58.5t115 22.5q82 0 108 -39l6 27h87l-8 -40q76 52 177 52h6q76 0 119.5 -34t43.5 -99q0 -11 -4 -39q-9 -33 -26 -57.5t-42 -40.5t-37.5 -22t-36.5 -15q-72 -31 -245 -31q-2 -8 -2 -13q0 -35 41 -65.5t106 -30.5h2q98 0 194 46 l-16 -76q-92 -39 -198 -39q-88 0 -122 16.5t-44 55.5l-12 -59h-87l14 69q-10 -20 -57 -49.5t-77 -32.5q-91 0 -140.5 47t-49.5 133zM730 434q-81 0 -141 -59.5t-64 -149.5h23q155 0 192 24q26 12 41 22.5t28 32t13 51.5q0 37 -23 57.5t-69 21.5zM359 434q-48 0 -86 -25.5 t-59.5 -65t-33 -82t-11.5 -81.5q0 -58 28 -90.5t82 -32.5h1q38 0 84 30t51 60l45 215q-22 72 -101 72z" />
<glyph unicode="OE" horiz-adv-x="959" d="M1073 721l-18 -83h-339l-45 -213h324l-18 -82h-324l-55 -262h347l-17 -81h-488q-167 0 -254 65.5t-87 194.5q0 46 12 101q37 176 160.5 268t321.5 92h480zM621 638h-58q-290 0 -349 -277q-10 -44 -10 -86q0 -194 241 -194h58z" />
<glyph unicode="oe" horiz-adv-x="943" d="M88 168q0 41 10 84.5t33 89t56.5 81.5t85.5 58.5t115 22.5q60 0 110 -32.5t58 -78.5q87 111 239 111h6q76 0 119.5 -33.5t43.5 -97.5q0 -22 -4 -41q-7 -26 -21.5 -48.5t-27 -35t-34.5 -24.5t-31 -16l-28 -11q-72 -31 -244 -31q-2 -8 -2 -13q0 -36 40.5 -66t105.5 -30h2 q98 0 194 46l-16 -76q-92 -39 -196 -39h-7q-137 0 -204 95q-84 -95 -213 -95q-91 0 -140.5 47t-49.5 133zM293 57q60 0 105.5 42t65.5 97.5t20 110.5q0 60 -29 93.5t-82 33.5q-46 0 -83.5 -25t-59.5 -64t-34 -81.5t-12 -82.5q0 -59 28 -91.5t81 -32.5zM781 434 q-81 0 -140.5 -59.5t-63.5 -149.5h23q154 0 191 24q34 15 54 32t26 47q2 9 2 25q0 80 -92 81z" />
<glyph unicode="&#xfb00;" horiz-adv-x="616" d="M503 429h-223l-144 -654h-85l144 654h-79l13 63h79l24 113q19 88 71.5 141t137.5 54h79l-15 -69h-80q-77 0 -106 -116l-26 -123h223l24 113q19 88 71.5 141t137.5 54h79l-15 -69h-80q-77 0 -106 -116l-26 -123h95l-13 -63h-95l-144 -654h-85z" />
<glyph unicode="&#xfb01;" horiz-adv-x="542" d="M570 492l-104 -492h-85l91 429h-192l-145 -654h-85l145 654h-79l13 63h79l24 113q19 88 71.5 141t137.5 54h79l-15 -69h-80q-77 0 -106 -116l-26 -123h277zM526 684h85l-22 -103h-85z" />
<glyph unicode="&#xfb02;" horiz-adv-x="542" d="M636 800l-170 -800h-85l155 732l-111 -1q-77 0 -106 -116l-26 -123h95l-13 -63h-95l-144 -654h-85l144 654h-79l13 63h79l24 113q19 88 71.5 141t137.5 54h195z" />
<glyph unicode="&#xfb03;" horiz-adv-x="850" d="M878 492l-104 -492h-85l91 429h-192l-139 -654h-85l139 654h-223l-139 -654h-85l139 654h-79l13 63h79l24 113q19 88 71.5 141t137.5 54h79l-15 -69h-80q-77 0 -106 -116l-26 -123h223l24 113q19 88 71.5 141t137.5 54h79l-15 -69h-80q-77 0 -106 -116l-26 -123h277z M834 684h85l-22 -103h-85z" />
<glyph unicode="&#xfb04;" horiz-adv-x="850" d="M844 732l-111 -1q-77 0 -106 -116l-26 -123h95l-13 -63h-95l-145 -653h-85l145 653h-223l-145 -653h-85l145 653h-79l13 63h79l24 113q19 88 71.5 141t137.5 54h79l-15 -69h-80q-77 0 -106 -116l-26 -123h223l24 113q19 88 71.5 141t137.5 54h195l-170 -800h-85z" />
<glyph unicode=" "  horiz-adv-x="325" />
<glyph unicode="&#x09;" horiz-adv-x="325" />
<glyph unicode="&#xa0;" horiz-adv-x="325" />
<glyph unicode="!" horiz-adv-x="305" d="M128 122h94l-25 -122h-94zM256 721h94l-104 -489h-94z" />
<glyph unicode="&#x22;" horiz-adv-x="394" d="M287 656l-52 -244h-80l52 244h80zM459 656l-52 -244h-80l52 244h80z" />
<glyph unicode="#" horiz-adv-x="680" d="M497 433h-129l-39 -159h130zM433 710l-48 -201h131l47 201h76l-47 -201h143v-76h-161l-37 -159h144v-76h-163l-49 -198h-77l49 198h-132l-52 -198h-71l49 198h-144v76h167l32 159h-145v76h165l48 201h75z" />
<glyph unicode="$" horiz-adv-x="497" d="M238 -145h-48l30 144q-99 0 -182 45l18 87q77 -62 179 -63l47 219q-82 15 -121 46.5t-39 85.5q0 28 9 58.5t32 67t73 62.5t120 32l24 113h48l-24 -113q72 0 152 -30l-18 -86q-63 40 -149 46l-43 -205q167 -28 167 -138q0 -23 -5.5 -47.5t-21.5 -56t-42 -56.5t-71.5 -44 t-104.5 -23zM341 569q-39 -4 -66.5 -19.5t-39.5 -36.5t-17 -37.5t-5 -30.5q0 -29 21 -46t66 -27zM283 69q43 6 72.5 22t42.5 37t18 37.5t5 31.5q0 61 -93 81z" />
<glyph unicode="%" horiz-adv-x="805" d="M624 47q53 0 85 61.5t32 123.5q0 82 -60 82q-38 0 -65.5 -34t-39 -75.5t-11.5 -78.5q0 -79 59 -79zM487 120q0 57 21.5 114t70.5 100.5t116 43.5q58 0 91 -36t33 -99q0 -42 -13 -86t-38 -82.5t-65.5 -63t-90.5 -24.5q-60 0 -92.5 35t-32.5 98zM230 402q53 0 85.5 61.5 t32.5 125.5q0 82 -61 82q-39 0 -67 -35.5t-39 -77t-11 -77.5q0 -79 60 -79zM710 733h76l-584 -746h-76zM92 472q0 58 22 116t71 101.5t115 43.5q58 0 92 -36t34 -101q0 -56 -21.5 -112.5t-71 -100t-116.5 -43.5q-60 0 -92.5 34.5t-32.5 97.5z" />
<glyph unicode="&#x26;" horiz-adv-x="675" d="M280 386q-117 -92 -117 -194q0 -55 37 -91t99 -36q84 0 164 61zM440 656q-58 0 -93 -36.5t-35 -80.5q0 -31 44 -96l176 -251q70 82 101 194h87q-39 -128 -147 -248l97 -137h-118l-50 69q-109 -83 -228 -83q-94 0 -150 49.5t-56 132.5q0 152 174 272q-23 43 -23 86 q0 76 61 141t166 65q75 0 145 -35l-19 -89q-70 47 -132 47z" />
<glyph unicode="'" horiz-adv-x="220" d="M302 735l-52 -243h-78l52 243h78z" />
<glyph unicode="(" horiz-adv-x="267" d="M87 158q0 285 246 593h74q-106 -146 -168.5 -296t-62.5 -320q0 -129 44 -264h-74q-59 145 -59 287z" />
<glyph unicode=")" horiz-adv-x="273" d="M-12 -129q230 305 230 615q0 133 -43 265h74q58 -153 58 -294q0 -292 -245 -586h-74z" />
<glyph unicode="*" horiz-adv-x="467" d="M563 601l-184 -93l145 -93l-39 -49l-131 98l-39 -182h-55l39 182l-173 -98l-15 49l181 93l-142 93l37 51l131 -99l38 180h55l-38 -180l173 99z" />
<glyph unicode="+" horiz-adv-x="613" d="M411 620v-269h254v-82h-254l-1 -269h-79l1 269h-255v82h255v269h79z" />
<glyph unicode="," horiz-adv-x="244" d="M112 111h97l-16 -75l-104 -140h-60l67 140z" />
<glyph unicode="-" horiz-adv-x="390" d="M129 282h246l-15 -72h-246z" />
<glyph unicode="." horiz-adv-x="241" d="M92 111h97l-23 -111h-97z" />
<glyph unicode="/" horiz-adv-x="342" d="M399 721h80l-409 -812h-80z" />
<glyph unicode="0" horiz-adv-x="633" d="M327 64q50 0 90.5 40t64 97t40 123.5t22 114.5t5.5 76q0 140 -96 140q-50 0 -91 -40t-64.5 -97t-39.5 -123.5t-21.5 -114.5t-5.5 -76q0 -140 96 -140zM645 514q0 -36 -6.5 -84t-20.5 -109.5t-40 -119t-61 -106.5t-88.5 -78.5t-117.5 -29.5q-86 0 -131 54.5t-45 160.5 q0 71 19 157q39 183 119 278.5t196 95.5q86 0 131 -55.5t45 -163.5z" />
<glyph unicode="1" horiz-adv-x="400" d="M80 81h102l117 550l-123 -67l20 91l121 66h94l-136 -640h95l-17 -81h-290z" />
<glyph unicode="2" horiz-adv-x="568" d="M196 80h319l-17 -80h-435l17 80l315 280l43 44q15 16 34.5 42t29 52.5t9.5 53.5q0 44 -29 71t-81 27q-53 -1 -125.5 -56.5t-106.5 -114.5l26 122q25 50 95.5 90.5t125.5 41.5q91 0 143.5 -41.5t52.5 -115.5q0 -48 -21 -95.5t-42 -73.5t-53 -60z" />
<glyph unicode="3" horiz-adv-x="571" d="M598 588q0 -29 -8.5 -58t-26.5 -57.5t-50.5 -51t-75.5 -33.5q51 -13 79 -48t28 -86q0 -32 -9 -65.5t-32.5 -70.5t-58 -65.5t-92 -47t-128.5 -18.5q-79 0 -176 33l20 97q72 -47 170 -47q50 0 89 13t61 32t35.5 44t18 45.5t4.5 39.5q0 47 -34 74t-97 27h-71l17 80h75 q87 0 125 43t38 95q0 88 -119 88q-93 0 -189 -58l18 86q119 54 197 54q90 0 141 -38t51 -107z" />
<glyph unicode="4" horiz-adv-x="587" d="M484 634l-311 -385h229zM478 721h119l-101 -472h96l-17 -80h-96l-35 -169h-94l35 169h-309l21 96z" />
<glyph unicode="5" horiz-adv-x="569" d="M246 70q100 0 154.5 63.5t54.5 139.5q0 56 -37 88.5t-103 32.5q-71 0 -157 -37l125 364h366l-39 -83h-276l-66 -175q42 14 81 15q95 0 149 -47.5t54 -133.5q0 -35 -8.5 -73t-31 -81.5t-57 -77t-93 -56t-132.5 -22.5q-91 0 -174 29l21 100q73 -46 169 -46z" />
<glyph unicode="6" horiz-adv-x="609" d="M327 64q79 0 126.5 69.5t47.5 151.5q0 54 -26.5 83.5t-76.5 29.5q-56 0 -97 -38t-59 -87t-18 -98q0 -52 26.5 -81.5t76.5 -29.5zM599 302q0 -76 -32 -146.5t-99.5 -119.5t-156.5 -49q-90 0 -136.5 56t-46.5 164q0 67 18 152q36 171 134.5 272.5t227.5 101.5q68 0 137 -28 l-19 -91q-62 37 -131 37q-181 0 -248 -261q69 84 174 86q84 0 131 -46t47 -128z" />
<glyph unicode="7" horiz-adv-x="517" d="M184 721h439l-9 -41l-390 -680h-100l367 638h-325z" />
<glyph unicode="8" horiz-adv-x="614" d="M315 64q81 0 126.5 54t45.5 123q0 47 -28.5 74t-84.5 27q-85 0 -129 -56t-44 -122q0 -47 30 -73.5t84 -26.5zM103 141q0 80 45 150t140 92q-44 12 -69 44.5t-25 78.5q0 37 14.5 74.5t44 72.5t83 57.5t121.5 22.5q86 0 135 -37t49 -106q0 -64 -39.5 -124t-123.5 -83 q51 -14 78.5 -49t27.5 -87q0 -27 -7 -57.5t-27 -67.5t-50.5 -66.5t-82.5 -49t-118 -19.5q-196 0 -196 154zM441 655q-72 0 -112.5 -45.5t-40.5 -103.5q0 -41 27 -63.5t76 -22.5q73 0 112 45t39 104q0 41 -26 63.5t-75 22.5z" />
<glyph unicode="9" horiz-adv-x="610" d="M154 418q0 121 79.5 218t208.5 97q90 0 136.5 -56t46.5 -165q0 -68 -18 -153q-36 -169 -134 -270.5t-228 -101.5q-69 0 -138 28l19 89q59 -34 133 -34q91 0 151.5 63t97.5 197q-72 -84 -174 -87q-86 0 -133 46t-47 129zM426 655q-54 0 -95 -36.5t-59.5 -86t-18.5 -98.5 q0 -53 27 -83t75 -30q82 0 128 71t46 150q0 53 -26 83t-77 30z" />
<glyph unicode=":" horiz-adv-x="240" d="M92 111h97l-23 -111h-97zM167 465h97l-23 -112h-97z" />
<glyph unicode=";" horiz-adv-x="249" d="M184 465h97l-23 -112h-97zM109 111h97l-16 -75l-104 -140h-61l68 140z" />
<glyph unicode="&#x3c;" horiz-adv-x="671" d="M668 442l-472 -161l471 -159v-81l-588 204v73l589 204v-80z" />
<glyph unicode="=" horiz-adv-x="737" d="M133 408h587v-73h-587v73zM132 229h587v-75h-587v75z" />
<glyph unicode="&#x3e;" horiz-adv-x="672" d="M122 442v80l588 -204v-73l-589 -204v81l469 159z" />
<glyph unicode="?" horiz-adv-x="449" d="M159 100h95l-21 -100h-95zM270 192h-90l16 74q11 51 29.5 80.5t71.5 74.5l49 43q70 53 70 114q0 34 -23.5 54t-64.5 20q-74 0 -177 -66l20 93q92 54 190 54q72 0 113 -35t41 -96q0 -20 -4 -39q-7 -37 -30 -69.5t-75 -76.5l-48 -40q-41 -35 -52.5 -53t-20.5 -71z" />
<glyph unicode="@" horiz-adv-x="880" d="M385 258q1 -67 32 -106.5t88 -39.5q54 0 86 39t32 107v3q0 65 -32 104t-86 39q-53 0 -85.5 -38t-34.5 -108zM631 113q-54 -72 -143 -72q-79 0 -129 60t-51 157q1 95 51.5 156.5t130.5 61.5q88 0 139 -72l1 62h68v-354q65 10 101.5 63t37.5 141q0 93 -46.5 164.5t-118 107 t-154.5 37.5q-153 0 -253 -106.5t-100 -257.5v-2q0 -156 100 -257.5t243 -101.5q123 0 220 82l44 -55q-116 -95 -265 -98q-120 0 -215.5 61t-145 158.5t-49.5 210.5v2q0 124 58 224.5t153.5 155.5t208.5 55q158 0 274 -109.5t116 -267.5v-2q-1 -126 -74.5 -199.5 t-202.5 -77.5z" />
<glyph unicode="A" horiz-adv-x="642" d="M452 622l-199 -355h247zM419 721h107l107 -721h-98l-23 184h-306l-99 -184h-99z" />
<glyph unicode="B" horiz-adv-x="602" d="M239 343l-55 -263h147q142 0 171 133q5 23 5 39q0 91 -121 91h-147zM391 423q40 0 70 10.5t46 26t26 36t13 36t3 31.5q0 74 -111 77h-135l-47 -217h135zM607 252q0 -28 -7 -58.5t-26.5 -66t-50.5 -63t-84 -46t-121 -18.5h-246l153 721h237q90 0 139 -35t49 -100 q0 -23 -6.5 -50t-22 -59t-47.5 -56.5t-77 -31.5q53 -12 81.5 -47.5t28.5 -89.5z" />
<glyph unicode="C" horiz-adv-x="624" d="M100 248q0 56 13.5 117.5t45.5 128t79 119t122 86.5t166 34q126 0 204 -68l-22 -103q-74 90 -193 90q-71 0 -128 -30t-90.5 -74.5t-56 -100.5t-30.5 -103t-8 -87q0 -92 47.5 -140.5t141.5 -48.5q120 0 231 91l-22 -104q-109 -68 -232 -68q-128 0 -198 68.5t-70 192.5z " />
<glyph unicode="D" horiz-adv-x="694" d="M302 640l-119 -560h111q139 0 218 67.5t110 213.5q12 55 12 99q0 92 -54 136t-167 44h-111zM225 721h190q165 0 244 -58.5t79 -182.5q0 -51 -14 -119q-39 -186 -151 -273.5t-311 -87.5h-190z" />
<glyph unicode="E" horiz-adv-x="545" d="M225 721h433l-18 -82h-338l-45 -214h324l-18 -82h-324l-55 -262h347l-17 -81h-442z" />
<glyph unicode="F" horiz-adv-x="486" d="M225 721h393l-18 -82h-298l-45 -214h270l-17 -81h-270l-73 -344h-95z" />
<glyph unicode="G" horiz-adv-x="690" d="M105 246q0 41 8.5 88.5t26.5 104.5t52 107.5t80 93.5t115 68t152 25q142 0 224 -68l-22 -104q-83 91 -212 91q-248 0 -309 -293q-12 -59 -12 -104q0 -187 197 -187q95 0 161 35l42 194h-150l16 79h244l-65 -309q-121 -80 -272 -80q-133 0 -204.5 67t-71.5 192z" />
<glyph unicode="H" horiz-adv-x="668" d="M225 721h95l-63 -296h333l63 296h94l-153 -721h-94l72 343h-333l-72 -343h-95z" />
<glyph unicode="I" horiz-adv-x="236" d="M224 721h92l-153 -721h-92z" />
<glyph unicode="J" horiz-adv-x="306" d="M291 721h94l-143 -673q-27 -128 -86 -187.5t-163 -59.5h-36l18 84h29q60 0 92.5 36t51.5 127z" />
<glyph unicode="K" horiz-adv-x="614" d="M225 721h93l-65 -305l369 305h122l-409 -335l279 -386h-124l-252 345l-73 -345h-93z" />
<glyph unicode="L" horiz-adv-x="510" d="M225 721h95l-136 -640h333l-17 -81h-428z" />
<glyph unicode="M" horiz-adv-x="773" d="M225 721h140l69 -491l278 491h140l-153 -721h-93l134 632l-278 -494h-95l-68 494l-134 -632h-93z" />
<glyph unicode="N" horiz-adv-x="665" d="M225 721h127l172 -603l128 603h92l-153 -721h-128l-172 602l-127 -602h-92z" />
<glyph unicode="O" horiz-adv-x="723" d="M374 66q68 0 125 38.5t91.5 98.5t53 127t18.5 129q0 91 -42.5 142.5t-121.5 51.5q-57 0 -106 -26.5t-81.5 -68.5t-56.5 -94.5t-34.5 -105t-10.5 -100.5q0 -90 43 -141t122 -51zM107 248q0 81 26.5 164.5t75.5 156t129 118.5t177 46q118 0 184 -70t66 -194 q0 -64 -16 -130.5t-50 -129.5t-81.5 -112.5t-115 -79.5t-145.5 -30q-119 0 -184.5 69.5t-65.5 191.5z" />
<glyph unicode="P" horiz-adv-x="546" d="M359 369q47 0 81.5 18.5t52 47.5t25 56.5t7.5 52.5q0 93 -108 96h-114l-58 -271h114zM629 566q0 -28 -5.5 -59.5t-24.5 -72t-48.5 -71.5t-84 -53t-124.5 -22h-114l-61 -288h-95l153 721h209q195 0 195 -155z" />
<glyph unicode="Q" horiz-adv-x="722" d="M372 64q69 0 126 38.5t91.5 98.5t53 127.5t18.5 129.5q0 92 -42.5 143t-121.5 51q-57 0 -106.5 -26.5t-82 -69t-56 -95.5t-34 -105.5t-10.5 -99.5q0 -90 42.5 -141t121.5 -51zM764 468q0 -31 -5 -70.5t-23 -97.5t-45.5 -109t-79.5 -101t-119 -79l92 -138h-114l-76 114 q-5 0 -13 -0.5t-12 -1.5q-126 0 -195 66.5t-69 191.5q0 82 26.5 166t75.5 157.5t129.5 120t177.5 46.5q118 0 184 -70.5t66 -194.5z" />
<glyph unicode="R" horiz-adv-x="591" d="M630 575q0 -44 -12.5 -88t-51 -88t-98.5 -61q54 -19 84 -141l18 -197h-103l-14 185q-17 71 -42.5 94.5t-81.5 23.5h-99l-64 -303h-94l153 721h208q197 0 197 -146zM361 385q40 0 71 13t48 32t27.5 43t14 42.5t3.5 35.5q0 86 -109 89h-114l-55 -255h114z" />
<glyph unicode="S" horiz-adv-x="554" d="M142 476q0 37 13.5 77t43.5 82.5t90 70t141 27.5q100 0 193 -37l-20 -96q-100 53 -179 53q-51 0 -89 -14.5t-57.5 -38.5t-28.5 -48t-9 -49q0 -31 24 -48t84 -30l53 -12q166 -36 166 -161q0 -29 -6 -59t-26.5 -68.5t-53 -67.5t-92 -49.5t-137.5 -20.5q-102 0 -210 44 l22 103q101 -68 205 -68q54 0 93.5 15.5t59.5 40.5t29.5 50.5t9.5 51.5q0 36 -25 58.5t-81 35.5l-53 13q-83 17 -121.5 51.5t-38.5 93.5z" />
<glyph unicode="T" horiz-adv-x="606" d="M165 721h579l-18 -82h-241l-135 -639h-95l135 639h-243z" />
<glyph unicode="U" horiz-adv-x="657" d="M217 721h96l-93 -438q-12 -54 -12 -95q0 -63 32 -92.5t101 -29.5q88 0 137.5 51t74.5 166l93 438h95l-96 -451q-60 -283 -321 -283q-214 0 -214 190q0 40 11 93z" />
<glyph unicode="V" horiz-adv-x="631" d="M251 0l-107 721h99l85 -606l344 606h98l-412 -721h-107z" />
<glyph unicode="W" horiz-adv-x="913" d="M174 721h97l12 -608l272 608h105l14 -608l270 608h97l-325 -721h-118l-11 624l-275 -624h-118z" />
<glyph unicode="X" horiz-adv-x="602" d="M189 721h102l111 -267l226 267h101l-292 -346l154 -375h-102l-125 306l-256 -306h-102l323 385z" />
<glyph unicode="Y" horiz-adv-x="585" d="M156 721h102l124 -297l249 297h102l-323 -380l-72 -341h-95l72 341z" />
<glyph unicode="Z" horiz-adv-x="616" d="M191 721h539l-16 -75l-550 -565h440l-17 -81h-559l15 73l550 565h-420z" />
<glyph unicode="[" horiz-adv-x="292" d="M232 752h194l-14 -69h-108l-158 -743h108l-15 -69h-194z" />
<glyph unicode="\" horiz-adv-x="334" d="M221 656l80 -739h-80l-79 739h79z" />
<glyph unicode="]" horiz-adv-x="291" d="M376 752l-187 -881h-194l15 69h109l158 743h-109l14 69h194z" />
<glyph unicode="^" horiz-adv-x="629" d="M499 656l197 -245h-95l-163 173l-236 -173h-95l301 245h91z" />
<glyph unicode="_" horiz-adv-x="476" d="M445 -149l-14 -63h-487l14 63h487z" />
<glyph unicode="`" horiz-adv-x="276" d="M255 720l128 -165h-71l-148 165h91z" />
<glyph unicode="a" horiz-adv-x="562" d="M375 434q-48 0 -86 -25.5t-59.5 -65t-33 -82t-11.5 -81.5q0 -58 28 -90.5t82 -32.5h1q38 0 84 30t51 60l45 215q-22 72 -101 72zM90 168q0 41 10 84.5t33 89t56.5 81.5t85.5 58.5t115 22.5q82 0 108 -39l6 27h87l-104 -491h-87l14 69q-10 -20 -57 -49.5t-77 -32.5 q-91 0 -140.5 47t-49.5 133z" />
<glyph unicode="b" horiz-adv-x="584" d="M311 56q62 0 107.5 44t64 99.5t18.5 110.5q0 60 -28 93t-81 33q-47 0 -84.5 -25.5t-60 -65t-34 -83t-11.5 -83.5q0 -58 28 -90.5t81 -32.5zM593 322q0 -77 -32 -152.5t-97 -128.5t-147 -53q-109 0 -144 85l-15 -72h-86l170 799h86l-81 -381q72 87 180 87 q77 0 121.5 -49.5t44.5 -134.5z" />
<glyph unicode="c" horiz-adv-x="491" d="M87 177q0 54 19 109.5t56 105t101.5 81t145.5 31.5q85 0 141 -32l-16 -76q-63 35 -136 38q-49 0 -88.5 -18.5t-63 -46t-39 -62.5t-21 -64.5t-5.5 -54.5q0 -62 34.5 -96.5t102.5 -34.5q73 0 152 38l-16 -76q-77 -31 -161 -31q-97 0 -151.5 50t-54.5 139z" />
<glyph unicode="d" horiz-adv-x="579" d="M88 170q0 78 32.5 154t97.5 129t145 53q109 0 143 -87l81 381h87l-170 -799h-87l15 72q-68 -85 -179 -85q-76 0 -120.5 49t-44.5 133zM367 436q-62 0 -107 -45.5t-63 -102t-18 -110.5q0 -58 27 -90t80 -32q46 0 83.5 25t60 63.5t34.5 81.5t12 83q0 60 -28.5 93.5 t-80.5 33.5z" />
<glyph unicode="e" d="M87 176q0 55 20 111t57 105.5t99.5 80.5t138.5 31h6q76 0 119.5 -34t43.5 -99q0 -11 -4 -39q-7 -26 -22 -48.5t-27.5 -35t-34.5 -24.5t-31 -16l-28 -11q-72 -31 -244 -31q-2 -8 -2 -13q0 -35 41 -65.5t106 -30.5h2q96 0 194 46l-16 -76q-94 -39 -197 -39 q-104 0 -162.5 49.5t-58.5 138.5zM388 434q-81 0 -141 -59.5t-64 -149.5h23q153 0 192 24q26 12 41 22.5t27.5 32t12.5 51.5q0 37 -23 57.5t-68 21.5z" />
<glyph unicode="f" horiz-adv-x="308" d="M520 800l-15 -69h-80q-77 0 -106 -116l-26 -123h95l-13 -63h-95l-148 -654h-85l148 654h-79l13 63h79l24 113q19 88 71.5 141t137.5 54h79z" />
<glyph unicode="g" horiz-adv-x="579" d="M291 68q48 0 86 25.5t58.5 65.5t31 80t10.5 76q0 57 -27.5 88t-80.5 31q-49 0 -87 -25.5t-58.5 -65t-31 -80t-10.5 -77.5q0 -118 109 -118zM91 177q0 77 32 151t96 125t145 51q109 0 141 -87l16 74h88l-101 -476q-26 -124 -95.5 -182t-191.5 -58q-89 0 -157 26l17 80 q64 -37 141 -37q80 0 128.5 36.5t65.5 118.5l19 86q-67 -86 -179 -86q-77 0 -121 47.5t-44 130.5z" />
<glyph unicode="h" horiz-adv-x="573" d="M567 297l-63 -297h-88l62 294q6 28 6 52q0 85 -88 86q-68 0 -114.5 -41t-63.5 -113l-59 -278h-87l170 800h87l-82 -384q78 89 183 89q145 0 145 -138q0 -28 -8 -70z" />
<glyph unicode="i" horiz-adv-x="234" d="M177 492h85l-104 -492h-85zM218 684h85l-22 -103h-85z" />
<glyph unicode="j" horiz-adv-x="235" d="M177 492h86l-114 -539q-20 -92 -66.5 -135t-129.5 -43h-32l15 70h24q46 0 67 21t36 87zM218 684h86l-22 -103h-86z" />
<glyph unicode="k" horiz-adv-x="538" d="M242 800h86l-111 -521l295 213h108l-318 -231l226 -261h-113l-206 241l-51 -241h-86z" />
<glyph unicode="l" horiz-adv-x="234" d="M243 800h85l-170 -800h-85z" />
<glyph unicode="m" horiz-adv-x="891" d="M560 397q83 107 201 107q65 0 98.5 -34.5t33.5 -100.5q0 -33 -9 -73l-62 -296h-88l62 293q7 37 7 55q0 84 -81 84q-64 0 -109.5 -41t-62.5 -113l-59 -278h-88l62 293q6 31 6 55q0 84 -82 84q-63 0 -109 -42t-62 -112l-59 -278h-87l104 491h87l-16 -76q76 89 183 89 q112 0 130 -107z" />
<glyph unicode="n" horiz-adv-x="573" d="M566 296l-62 -296h-88l62 293q6 29 6 51q0 87 -88 88q-68 0 -114.5 -41t-63.5 -113l-59 -278h-87l104 491h87l-16 -76q77 89 183 89q145 0 145 -136q0 -33 -9 -72z" />
<glyph unicode="o" horiz-adv-x="570" d="M294 57q61 0 106 43t64 98.5t19 109.5q0 59 -28 92.5t-81 33.5q-62 0 -107 -44t-64 -99.5t-19 -109.5q0 -58 28 -91t82 -33zM90 168q0 38 9 80.5t31.5 88.5t55.5 82.5t86 60.5t117 24q91 0 140.5 -48t49.5 -135q0 -43 -10.5 -87.5t-34.5 -89t-57.5 -79t-85 -56 t-112.5 -21.5q-90 0 -139.5 47t-49.5 133z" />
<glyph unicode="p" horiz-adv-x="584" d="M593 322q0 -78 -32 -153.5t-97 -128.5t-147 -53q-108 0 -143 85l-63 -297h-87l152 716h87l-16 -74q71 87 180 87q78 0 122 -49t44 -133zM311 55q61 0 106.5 43.5t64.5 99.5t19 111q0 60 -28 93t-81 33q-60 0 -105 -44t-64.5 -101t-19.5 -112q0 -58 27.5 -90.5t80.5 -32.5 z" />
<glyph unicode="q" horiz-adv-x="581" d="M370 435q-62 0 -107 -45.5t-63 -102t-18 -110.5q0 -58 27.5 -90t79.5 -32q60 0 105 42.5t65 98.5t20 112q0 60 -28.5 93.5t-80.5 33.5zM91 168q0 77 31.5 152.5t96.5 129.5t147 54q110 0 142 -87l16 74h87l-152 -716h-87l63 297q-68 -85 -179 -85q-77 0 -121 48.5 t-44 132.5z" />
<glyph unicode="r" horiz-adv-x="393" d="M460 415q-26 16 -63 16q-71 0 -118 -44.5t-66 -127.5l-55 -259h-86l104 491h86l-16 -76q70 89 191 89q8 0 41 -5z" />
<glyph unicode="s" horiz-adv-x="478" d="M120 326q0 30 11 58.5t35.5 56.5t72 45.5t112.5 17.5q96 0 156 -28l-16 -76q-71 32 -145 35q-80 0 -110.5 -26t-30.5 -61q0 -21 21 -34t76 -25l27 -7q72 -16 105 -41.5t33 -69.5q0 -79 -65.5 -131t-181.5 -52q-83 0 -174 30l18 85q80 -44 172 -47q75 0 107 28.5t32 64.5 q0 22 -22 36t-84 28l-28 6q-64 15 -92.5 40t-28.5 67z" />
<glyph unicode="t" horiz-adv-x="367" d="M306 640l-32 -149h143l-14 -63h-143l-56 -265q-7 -37 -7 -51q0 -26 16 -35t57 -9h87l-14 -68h-87q-79 0 -112.5 21t-33.5 75q0 32 8 67l56 265h-60l14 63h60l25 119z" />
<glyph unicode="u" d="M86 195l63 297h86l-62 -294q-6 -30 -6 -53q0 -86 88 -86q66 0 113.5 41.5t63.5 113.5l59 278h88l-104 -491h-88l15 74q-75 -87 -180 -87q-144 0 -144 136q0 36 8 71z" />
<glyph unicode="v" horiz-adv-x="551" d="M121 492h91l72 -411q76 79 145.5 198t99.5 213h92q-34 -110 -119.5 -253t-175.5 -239h-117z" />
<glyph unicode="w" horiz-adv-x="756" d="M131 492h87l23 -382q47 71 99.5 183.5t83.5 198.5h103l22 -382q44 63 96 173.5t88 208.5h87q-58 -196 -236 -492h-103l-24 403q-23 -74 -82 -196t-113 -207h-100z" />
<glyph unicode="x" horiz-adv-x="532" d="M608 492l-235 -240l140 -252h-101l-107 192l-189 -192h-101l252 257l-130 235h100l99 -175l172 175h100z" />
<glyph unicode="y" horiz-adv-x="535" d="M268 -66q-58 -90 -90.5 -116t-89.5 -26h-45l-9 69h51q32 0 48 14.5t52 75.5l37 57l-103 484h94l75 -384l239 384h92z" />
<glyph unicode="z" horiz-adv-x="487" d="M149 492h399l-16 -74l-388 -354h313l-13 -64h-412l15 73l391 354h-303z" />
<glyph unicode="{" horiz-adv-x="386" d="M347 -90l-15 -70h-28q-92 0 -128.5 20t-36.5 76q0 34 10 80l25 116q7 31 7 57q0 38 -21.5 54t-70.5 16h-29l15 71h29q63 0 93 27.5t46 99.5l25 117q22 106 68 142t162 36h28l-14 -69h-31q-62 0 -86 -21t-40 -90l-25 -120q-16 -77 -43.5 -111t-81.5 -46q35 -10 51 -30 t16 -57q0 -28 -9 -69l-26 -121q-7 -32 -7 -55q0 -31 18.5 -42t67.5 -11h31z" />
<glyph unicode="|" horiz-adv-x="301" d="M245 722l-4 -930h-79l4 930h79z" />
<glyph unicode="}" horiz-adv-x="386" d="M-5 -90h33q63 0 86 20t37 88l26 121q16 74 43.5 108t80.5 48q-34 9 -50 28.5t-16 57.5q0 29 9 71l25 120q8 38 8 58q0 30 -18.5 41.5t-65.5 11.5h-33l14 69h30q92 0 128.5 -21t36.5 -77q0 -34 -10 -80l-25 -117q-8 -37 -8 -59q0 -38 21.5 -53t71.5 -15h28l-15 -71h-28 q-64 0 -93.5 -27t-45.5 -100l-25 -116q-23 -106 -68.5 -141t-161.5 -35h-30z" />
<glyph unicode="~" horiz-adv-x="691" d="M285 348q56 0 128 -29.5t121 -29.5q76 0 163 70v-79q-87 -63 -176 -64q-58 0 -127.5 29t-117.5 29q-79 0 -167 -69l1 79q93 64 175 64z" />
<glyph unicode="&#xa1;" horiz-adv-x="303" d="M195 0h-91l104 491h91zM322 598h-91l26 123h91z" />
<glyph unicode="&#xa2;" horiz-adv-x="467" d="M350 434q-62 -7 -106.5 -52t-61.5 -96.5t-17 -100.5q0 -55 26.5 -88t78.5 -40zM534 473l-16 -77q-60 38 -118 39l-81 -380q64 3 134 39l-16 -76q-60 -26 -132 -31l-27 -124h-50l27 126q-89 6 -136.5 53.5t-47.5 129.5q0 38 8 73q23 113 97.5 181t188.5 78l26 125h50 l-26 -125q71 -3 119 -31z" />
<glyph unicode="&#xa3;" horiz-adv-x="508" d="M618 704l-19 -88q-58 38 -115 38q-67 0 -101.5 -36.5t-56.5 -138.5l-22 -103h179l-14 -70h-179l-48 -225h255l-17 -81h-456l17 81h107l48 225h-90l14 70h90l24 113q27 127 88 185.5t170 58.5q63 0 126 -29z" />
<glyph unicode="&#xa4;" horiz-adv-x="615" d="M481 480l94 100l53 -56l-94 -99q33 -55 33 -116q-1 -61 -36 -112l95 -101l-54 -56l-94 100q-50 -37 -107 -37q-56 0 -108 35l-95 -99l-53 56l94 100q-33 61 -33 114q0 61 34 113l-93 101l54 55l94 -99q49 36 107 36q56 0 109 -35zM491 310v2q0 52 -34 88t-85 36 q-48 0 -84.5 -36t-37.5 -90q1 -55 36 -92.5t86 -37.5q49 0 84 37t35 91v2z" />
<glyph unicode="&#xa5;" horiz-adv-x="565" d="M563 218h-189l-46 -218h-94l46 218h-188l13 60h188l5 25l-21 74h-151l12 59h120l-85 285h90l99 -338l243 338h90l-205 -285h119l-12 -59h-152l-54 -74l-5 -25h190z" />
<glyph unicode="&#xa6;" horiz-adv-x="281" d="M229 179l-2 -332h-77l2 332h77zM229 629l-1 -333h-77l1 333h77z" />
<glyph unicode="&#xa7;" horiz-adv-x="444" d="M319 199q77 54 77 107q0 28 -29.5 59.5t-111.5 86.5q-77 -54 -77 -111q0 -27 29 -56.5t112 -85.5zM178 563q0 67 55 118.5t146 51.5q77 0 134 -27l-17 -80q-69 35 -122 36q-32 0 -55 -10t-33.5 -24.5t-14.5 -26t-4 -20.5q0 -39 73 -88q86 -66 112 -93.5t26 -62.5 q0 -43 -26 -91t-91 -83q34 -38 34 -79q0 -65 -55 -121t-153 -56q-69 0 -139 28l16 79q68 -33 127 -36q58 0 85.5 27t27.5 58q0 41 -77 97l-10 8q-69 48 -95 78.5t-26 65.5q0 19 5 39.5t16.5 45t36 48t59.5 40.5q-35 32 -35 78z" />
<glyph unicode="&#xa8;" horiz-adv-x="419" d="M393 682h95l-18 -89h-95zM214 682h95l-18 -89h-95z" />
<glyph unicode="&#xa9;" horiz-adv-x="750" d="M451 717q143 0 240.5 -107t97.5 -251v-2q-1 -148 -100.5 -252.5t-239.5 -104.5q-142 0 -240.5 105.5t-98.5 251.5q1 153 103 256.5t238 103.5zM451 666q-118 0 -204 -91.5t-86 -217.5q0 -128 86 -217t202 -89q123 0 206.5 90.5t83.5 215.5q0 137 -86 221t-202 88z M586 548l1 -63q-49 28 -121 31q-66 0 -103.5 -41t-37.5 -118q0 -76 38.5 -117.5t107.5 -41.5q58 0 115 30l-1 -61q-53 -26 -124 -29q-97 0 -156 58.5t-59 160.5q0 101 58.5 159.5t157.5 58.5q67 0 124 -27z" />
<glyph unicode="&#xaa;" horiz-adv-x="431" d="M111 286h314l-12 -60h-314zM418 588q4 10 4 25q0 63 -89 63q-59 0 -131 -33l14 63q71 27 137 27q137 0 137 -114q0 -28 -7 -57l-46 -217h-70l11 53q-53 -63 -138 -63q-51 0 -79 24t-28 68q0 23 8 47t27.5 51.5t63 45t104.5 17.5h82zM350 531q-69 0 -106.5 -18t-37.5 -67 q0 -24 17 -38t50 -14q47 0 83 34.5t48 89.5l2 13h-56z" />
<glyph unicode="&#xab;" horiz-adv-x="497" d="M538 465l-18 -84l-161 -118l111 -118l-17 -83l-179 182l8 36zM341 465l-18 -84l-161 -118l111 -118l-17 -83l-179 182l8 36z" />
<glyph unicode="&#xac;" horiz-adv-x="706" d="M97 378h588l-1 -252h-79v179h-509z" />
<glyph unicode="&#xad;" horiz-adv-x="390" d="M129 282h246l-15 -72h-246z" />
<glyph unicode="&#xae;" horiz-adv-x="750" d="M450 666q-119 0 -205 -91.5t-86 -217.5q0 -128 86 -217t203 -89q123 0 206 90.5t83 215.5q0 92 -42 163.5t-106.5 107t-138.5 38.5zM450 717q143 0 240.5 -107t97.5 -251v-2q-1 -148 -101 -252.5t-239 -104.5q-142 0 -240 105.5t-98 251.5q1 153 102 256.5t238 103.5z M436 515h-54v-132h54q48 0 68 14t20 52q0 37 -19 50.5t-69 15.5zM440 566q162 0 162 -115q0 -41 -24 -68.5t-68 -36.5q17 -4 60 -78l65 -107h-83l-60 107q-25 42 -40 53.5t-41 13.5h-29v-174h-74l1 405h131z" />
<glyph unicode="&#xaf;" horiz-adv-x="422" d="M213 670h276l-14 -65h-276z" />
<glyph unicode="&#xb0;" horiz-adv-x="395" d="M317 489q35 0 60 25.5t25 65.5q0 35 -24 63t-59 28q-34 0 -59.5 -27.5t-25.5 -67.5q0 -35 24.5 -61t58.5 -26zM173 576q0 65 42.5 111t104.5 46q69 0 105 -46.5t38 -108.5q-1 -61 -43.5 -106.5t-104.5 -45.5q-60 0 -101 43.5t-41 106.5z" />
<glyph unicode="&#xb1;" horiz-adv-x="691" d="M430 620l1 -187h254l-1 -82h-254l-1 -188h-79l1 188h-254l1 82h254l-1 187h79zM96 81h587v-81h-587v81z" />
<glyph unicode="&#xb2;" horiz-adv-x="348" d="M431 640q0 -46 -48 -96t-196 -168h192l-11 -54h-274l11 54q162 131 206.5 175t44.5 74q0 26 -18.5 41t-51.5 15q-53 0 -125 -64l13 61q71 55 133 55q58 0 91 -25.5t33 -67.5z" />
<glyph unicode="&#xb3;" horiz-adv-x="363" d="M436 649q0 -36 -24 -65.5t-76 -42.5q69 -16 69 -77q0 -56 -47.5 -102.5t-149.5 -46.5q-51 0 -110 20l12 60q37 -23 103 -26q64 0 91.5 28t27.5 62q0 53 -84 53h-40l11 52h43q54 0 76.5 22t22.5 49q0 46 -75 46q-55 0 -112 -45l12 57q76 40 126 40q57 0 90.5 -22.5 t33.5 -61.5z" />
<glyph unicode="&#xb4;" horiz-adv-x="288" d="M297 720h92l-147 -166h-72z" />
<glyph unicode="&#xb5;" horiz-adv-x="591" d="M32 -187l144 679h86l-65 -306q-5 -25 -5 -41q0 -87 101 -87q136 0 167 147l61 287h86l-80 -379q-3 -15 -3 -25q0 -25 23 -25q7 0 35 10l-14 -67q-39 -19 -73 -19q-67 0 -67 65v3q-59 -68 -143 -68q-93 0 -116 67l-51 -241h-86z" />
<glyph unicode="&#xb6;" horiz-adv-x="516" d="M122 466q0 100 75 177.5t194 77.5h204l-173 -815h-67l160 756h-83l-160 -756h-67l86 407q-82 6 -125.5 45.5t-43.5 107.5z" />
<glyph unicode="&#xb7;" horiz-adv-x="241" d="M148 368h97l-24 -112h-97z" />
<glyph unicode="&#xb8;" horiz-adv-x="293" d="M88 -118q34 0 48 15.5t14 34.5q0 22 -23 68h55q32 -46 32 -78q0 -36 -29.5 -65.5t-98.5 -29.5q-46 0 -79 10l12 59q18 -11 69 -14z" />
<glyph unicode="&#xb9;" horiz-adv-x="269" d="M118 372h69l62 294l-84 -40l12 57l84 39h65l-74 -350h59l-12 -54h-193z" />
<glyph unicode="&#xba;" horiz-adv-x="453" d="M126 286h314l-12 -60h-314zM152 475q0 29 7 61.5t24 68t42 63.5t65 46.5t88 18.5q67 0 104.5 -36.5t37.5 -103.5q0 -38 -12.5 -80.5t-37.5 -83.5t-71 -67.5t-105 -26.5q-67 0 -104.5 36.5t-37.5 103.5zM306 393q61 0 99 61t38 130q0 43 -20 67.5t-57 24.5 q-63 0 -100.5 -61.5t-37.5 -127.5q0 -44 20 -69t58 -25z" />
<glyph unicode="&#xbb;" horiz-adv-x="495" d="M150 465l178 -185l-8 -36l-255 -182l17 83l162 118l-112 118zM347 465l178 -185l-8 -36l-255 -182l17 83l161 118l-111 118z" />
<glyph unicode="&#xbc;" horiz-adv-x="806" d="M694 733h76l-584 -746h-76zM732 344l-183 -203h139zM733 403h79l-56 -262h61l-10 -51h-61l-19 -89h-68l19 89h-191l12 58zM104 372h69l62 293l-85 -40l13 58l84 38h66l-74 -349h60l-12 -53h-195z" />
<glyph unicode="&#xbd;" horiz-adv-x="787" d="M693 733h77l-584 -746h-76zM577 55h193l-11 -54h-277l11 51q112 82 178.5 146t72.5 89q2 10 2 15q0 26 -19 40.5t-52 14.5q-54 0 -127 -63l13 61q26 24 66 40.5t69 16.5q59 0 92.5 -25.5t33.5 -68.5q0 -12 -3 -24q-8 -37 -70.5 -99.5t-171.5 -139.5zM104 372h69l62 293 l-85 -40l13 58l84 38h67l-74 -349h59l-12 -53h-195z" />
<glyph unicode="&#xbe;" horiz-adv-x="847" d="M734 733h77l-592 -746h-69zM772 344l-182 -203h138zM774 404h77l-56 -263h63l-10 -51h-63l-19 -89h-67l19 89h-190l12 58zM423 650q0 -36 -25 -67t-75 -42q69 -16 69 -78q0 -24 -10 -48t-31 -47.5t-62 -38t-95 -14.5q-51 0 -114 19l13 61q40 -24 105 -27q64 0 92 28 t28 62q0 54 -84 54h-40l11 52h43q58 0 82.5 21.5t24.5 49.5q0 47 -83 47q-55 0 -114 -46l12 58q74 39 128 39q57 0 91 -22t34 -61z" />
<glyph unicode="&#xbf;" horiz-adv-x="455" d="M319 526h90l-15 -73q-11 -51 -30.5 -82t-69.5 -72l-50 -42q-61 -53 -68 -96q-2 -7 -2 -22q0 -33 23.5 -53t65.5 -20q71 0 175 66l-20 -92q-89 -53 -188 -53q-71 0 -113.5 34.5t-42.5 94.5t28.5 100.5t81.5 84.5l48 42q41 36 53 55.5t22 69.5zM430 623h-90l21 98h90z" />
<glyph unicode="&#xc0;" horiz-adv-x="642" d="M487 958l128 -165h-71l-148 165h91zM452 622l-199 -355h247zM419 721h107l107 -721h-98l-23 184h-306l-99 -184h-99z" />
<glyph unicode="&#xc1;" horiz-adv-x="642" d="M523 959h92l-147 -166h-72zM452 622l-199 -355h247zM419 721h107l107 -721h-98l-23 184h-306l-99 -184h-99z" />
<glyph unicode="&#xc2;" horiz-adv-x="642" d="M452 623l-199 -356h247zM419 721h107l107 -721h-98l-24 183h-306l-98 -183h-99zM488 949h68l79 -167h-67l-58 108l-106 -108h-65z" />
<glyph unicode="&#xc3;" horiz-adv-x="642" d="M452 624l-199 -357h247zM419 723h107l107 -723h-98l-23 184h-306l-99 -184h-99zM670 928q-11 -52 -41 -88t-80 -36q-35 0 -56 28l-22 24q-5 9 -25 17q-16 0 -26.5 -16t-20.5 -53h-60q13 58 43 90.5t74 33.5q34 0 60 -26l20 -24q16 -17 27 -17q16 0 26.5 15t20.5 52h60z " />
<glyph unicode="&#xc4;" horiz-adv-x="642" d="M452 624l-199 -357h247zM419 723h107l107 -723h-98l-24 183h-306l-98 -183h-99zM556 911h95l-19 -89h-95zM376 911h95l-19 -89h-95z" />
<glyph unicode="&#xc5;" horiz-adv-x="642" d="M482 766q34 0 58 24t24 55q0 23 -15 37.5t-39 14.5q-32 0 -57 -24t-25 -57q0 -22 15 -36t39 -14zM452 622l-199 -355h247zM625 853q0 -46 -32 -82t-70 -50h3l107 -721h-98l-23 184h-306l-99 -184h-99l411 721h3q-54 24 -54 85q0 56 46.5 101t106.5 45q46 0 75 -27.5 t29 -71.5z" />
<glyph unicode="&#xc7;" horiz-adv-x="624" d="M100 248q0 55 13.5 116.5t45.5 128t79 119.5t122 87t166 34q126 0 204 -68l-22 -103q-73 89 -193 89q-71 0 -128 -29.5t-90.5 -73.5t-56 -99.5t-30.5 -102.5t-8 -87q0 -93 47.5 -142t141.5 -49q120 0 231 91l-22 -104q-97 -59 -197 -66q23 -35 23 -67q0 -36 -29 -65.5 t-99 -29.5q-48 0 -81 11l13 59q20 -10 70 -13q61 0 61 50q0 22 -17 55q-117 6 -180.5 73.5t-63.5 185.5z" />
<glyph unicode="&#xc8;" horiz-adv-x="545" d="M459 958l128 -165h-71l-148 165h91zM225 721h433l-18 -82h-338l-45 -214h324l-18 -82h-324l-55 -262h347l-17 -81h-442z" />
<glyph unicode="&#xc9;" horiz-adv-x="545" d="M496 959h92l-147 -166h-72zM225 721h433l-18 -82h-338l-45 -214h324l-18 -82h-324l-55 -262h347l-17 -81h-442z" />
<glyph unicode="&#xca;" horiz-adv-x="545" d="M225 720h433l-18 -82h-338l-45 -213h324l-18 -82h-324l-55 -262h347l-17 -81h-442zM440 949h69l78 -167h-67l-58 108l-105 -108h-65z" />
<glyph unicode="&#xcb;" horiz-adv-x="545" d="M225 721h433l-18 -82h-338l-45 -214h324l-18 -82h-324l-55 -262h347l-17 -81h-442zM508 911h95l-19 -89h-95zM330 911h95l-19 -89h-95z" />
<glyph unicode="&#xcc;" horiz-adv-x="236" d="M283 958l128 -165h-71l-148 165h91zM224 721h92l-153 -721h-92z" />
<glyph unicode="&#xcd;" horiz-adv-x="236" d="M320 959h92l-147 -166h-72zM224 721h92l-153 -721h-92z" />
<glyph unicode="&#xce;" horiz-adv-x="238" d="M225 720h93l-153 -720h-93zM286 949h69l76 -167h-65l-58 108l-105 -108h-64z" />
<glyph unicode="&#xcf;" horiz-adv-x="239" d="M224 721h95l-153 -721h-95zM355 911h94l-19 -89h-94zM176 911h95l-19 -89h-95z" />
<glyph unicode="&#xd0;" horiz-adv-x="694" d="M79 374h72l74 347h190q165 0 244 -58.5t79 -182.5q0 -51 -14 -119q-39 -186 -151 -273.5t-311 -87.5h-190l64 302h-72zM302 640l-57 -266h82l-15 -72h-82l-47 -222h111q140 0 218.5 67.5t109.5 213.5q12 55 12 100q0 92 -54 135.5t-167 43.5h-111z" />
<glyph unicode="&#xd1;" horiz-adv-x="665" d="M225 722h127l172 -604l128 604h92l-153 -722h-128l-171 603l-128 -603h-92zM680 928q-11 -52 -41 -88t-80 -36q-34 0 -55 28l-23 24q-5 10 -24 17q-16 0 -27 -16t-21 -53h-59q13 58 43.5 90.5t72.5 33.5q34 0 61 -26l20 -24q14 -17 26 -17q17 0 27.5 15t20.5 52h59z" />
<glyph unicode="&#xd2;" horiz-adv-x="723" d="M527 958l128 -165h-71l-148 165h91zM374 66q68 0 125 38.5t91.5 98.5t53 127t18.5 129q0 91 -42.5 142.5t-121.5 51.5q-57 0 -106 -26.5t-81.5 -68.5t-56.5 -94.5t-34.5 -105t-10.5 -100.5q0 -90 43 -141t122 -51zM107 248q0 81 26.5 164.5t75.5 156t129 118.5t177 46 q118 0 184 -70t66 -194q0 -64 -16 -130.5t-50 -129.5t-81.5 -112.5t-115 -79.5t-145.5 -30q-119 0 -184.5 69.5t-65.5 191.5z" />
<glyph unicode="&#xd3;" horiz-adv-x="723" d="M564 959h92l-147 -166h-72zM374 66q68 0 125 38.5t91.5 98.5t53 127t18.5 129q0 91 -42.5 142.5t-121.5 51.5q-57 0 -106 -26.5t-81.5 -68.5t-56.5 -94.5t-34.5 -105t-10.5 -100.5q0 -90 43 -141t122 -51zM107 248q0 81 26.5 164.5t75.5 156t129 118.5t177 46 q118 0 184 -70t66 -194q0 -64 -16 -130.5t-50 -129.5t-81.5 -112.5t-115 -79.5t-145.5 -30q-119 0 -184.5 69.5t-65.5 191.5z" />
<glyph unicode="&#xd4;" horiz-adv-x="723" d="M374 66q68 0 125 38.5t91.5 98.5t53 127t18.5 129q0 92 -42.5 143t-121.5 51q-71 0 -128.5 -39.5t-91 -101t-51.5 -127.5t-18 -127q0 -90 43 -141t122 -51zM107 248q0 65 16.5 132t50.5 130.5t81.5 113.5t115 80t145.5 30q117 0 183 -70.5t66 -193.5q0 -82 -26.5 -165 t-75.5 -155t-129 -117.5t-177 -45.5q-119 0 -184.5 69.5t-65.5 191.5zM527 949h70l77 -168h-66l-59 108l-104 -108h-66z" />
<glyph unicode="&#xd5;" horiz-adv-x="723" d="M374 66q55 0 103.5 25.5t81.5 67t57 94t35.5 106t11.5 102.5q0 91 -42.5 142t-121.5 51q-71 0 -129 -39.5t-91.5 -101t-51.5 -127.5t-18 -127q0 -91 43 -142t122 -51zM107 249q0 65 16.5 132.5t50.5 131t81.5 113t115 79.5t145.5 30q117 0 183.5 -70t66.5 -193 q0 -80 -26 -163t-75 -156t-129.5 -119.5t-178.5 -46.5q-119 0 -184.5 69.5t-65.5 192.5zM709 928q-28 -123 -120 -123q-34 0 -56 27l-22 24q-5 9 -24 16q-30 0 -47 -67h-60q11 56 42.5 89t73.5 34q34 0 60 -26l21 -24q14 -17 26 -17q16 0 26.5 15t20.5 52h59z" />
<glyph unicode="&#xd6;" horiz-adv-x="723" d="M374 66q69 0 126 39t91 99.5t52.5 127t18.5 128.5q0 91 -42.5 142t-121.5 51q-70 0 -127.5 -39.5t-91.5 -100t-52 -127t-18 -127.5q0 -91 43 -142t122 -51zM107 249q0 65 16.5 132t50.5 130.5t81.5 113t115 79.5t145.5 30q117 0 183.5 -69.5t66.5 -192.5q0 -63 -16 -129 t-49.5 -130t-80.5 -114t-115.5 -81t-147.5 -31q-119 0 -184.5 69.5t-65.5 192.5zM596 911h94l-19 -89h-94zM417 911h95l-19 -89h-95z" />
<glyph unicode="&#xd7;" horiz-adv-x="640" d="M649 530l-207 -221l206 -220l-56 -60l-207 221l-210 -221l-56 60l209 220l-208 221l57 59l208 -222l209 222z" />
<glyph unicode="&#xd8;" horiz-adv-x="734" d="M377 65q50 0 94 20t74.5 54t55 75.5t39 88t21.5 88.5t7 79q0 36 -9 64l-410 -406q41 -63 128 -63zM502 652q-70 0 -128 -39.5t-92.5 -101t-53 -129.5t-18.5 -132q0 -39 9 -69l412 409q-47 62 -129 62zM768 471q0 -86 -28 -171.5t-78 -155.5t-129 -114t-172 -44 q-122 0 -185 71l-94 -90l-40 41l99 96q-32 55 -32 137q0 64 15.5 130.5t49.5 131.5t81 116t115.5 82t148.5 31q122 0 184 -72l93 92l40 -44l-98 -96q30 -60 30 -141z" />
<glyph unicode="&#xd9;" horiz-adv-x="657" d="M492 958l128 -165h-71l-148 165h91zM217 721h96l-93 -438q-12 -54 -12 -95q0 -63 32 -92.5t101 -29.5q88 0 137.5 51t74.5 166l93 438h95l-96 -451q-60 -283 -321 -283q-214 0 -214 190q0 40 11 93z" />
<glyph unicode="&#xda;" horiz-adv-x="657" d="M528 959h92l-147 -166h-72zM217 721h96l-93 -438q-12 -54 -12 -95q0 -63 32 -92.5t101 -29.5q88 0 137.5 51t74.5 166l93 438h95l-96 -451q-60 -283 -321 -283q-214 0 -214 190q0 40 11 93z" />
<glyph unicode="&#xdb;" horiz-adv-x="657" d="M217 721h96l-93 -438q-12 -54 -12 -95q0 -63 32 -92.5t101 -29.5q88 0 137.5 51t74.5 166l93 438h95l-96 -450q-60 -284 -321 -284q-214 0 -214 190q0 41 11 94zM496 949h68l79 -168h-67l-59 108l-105 -108h-65z" />
<glyph unicode="&#xdc;" horiz-adv-x="657" d="M217 721h96l-93 -438q-12 -54 -12 -95q0 -63 32 -92.5t101 -29.5q88 0 137.5 51t74.5 166l93 438h95l-96 -450q-60 -284 -321 -284q-214 0 -214 190q0 41 11 94zM564 911h95l-19 -89h-95zM385 911h95l-19 -89h-95z" />
<glyph unicode="&#xdd;" horiz-adv-x="585" d="M156 722h102l124 -297l249 297h102l-323 -379l-72 -343h-95l72 343zM511 949h94l-184 -167h-74z" />
<glyph unicode="&#xde;" horiz-adv-x="547" d="M225 721h95l-27 -127h114q195 0 195 -154q0 -30 -7 -62q-45 -213 -280 -217h-114l-34 -161h-95zM332 243q47 0 81.5 18.5t52 47t25 55.5t7.5 51q0 46 -27.5 71.5t-81.5 25.5h-114l-57 -269h114z" />
<glyph unicode="&#xdf;" horiz-adv-x="575" d="M182 518q20 97 86 150.5t166 53.5q157 0 157 -152q0 -35 -7 -70q-76 -4 -124 -50t-48 -85q0 -8 4 -12.5t18 -13t24 -15.5l22 -18q51 -41 70.5 -66.5t19.5 -56.5q0 -14 -5 -39q-33 -157 -234 -157q-54 0 -122 22l18 82q61 -27 125 -30q53 0 82 16.5t38 58.5q3 14 3 24 q0 17 -11.5 31.5t-43.5 37.5l-35 28q-5 3 -15 11l-14 10q-3 2 -10 8t-10 9l-6 9q-5 5 -6 9l-2 10q-2 6 -2 13q0 56 49 123t137 85q2 14 2 21q0 38 -23.5 59.5t-68.5 21.5q-116 0 -147 -130l-109 -515h-88z" />
<glyph unicode="&#xe0;" horiz-adv-x="562" d="M390 729l128 -165h-71l-148 165h91zM375 434q-48 0 -86 -25.5t-59.5 -65t-33 -82t-11.5 -81.5q0 -58 28 -90.5t82 -32.5h1q38 0 84 30t51 60l45 215q-22 72 -101 72zM90 168q0 41 10 84.5t33 89t56.5 81.5t85.5 58.5t115 22.5q82 0 108 -39l6 27h87l-104 -491h-87l14 69 q-10 -20 -57 -49.5t-77 -32.5q-91 0 -140.5 47t-49.5 133z" />
<glyph unicode="&#xe1;" horiz-adv-x="562" d="M426 730h92l-147 -166h-72zM375 434q-48 0 -86 -25.5t-59.5 -65t-33 -82t-11.5 -81.5q0 -58 28 -90.5t82 -32.5h1q38 0 84 30t51 60l45 215q-22 72 -101 72zM90 168q0 41 10 84.5t33 89t56.5 81.5t85.5 58.5t115 22.5q82 0 108 -39l6 27h87l-104 -491h-87l14 69 q-10 -20 -57 -49.5t-77 -32.5q-91 0 -140.5 47t-49.5 133z" />
<glyph unicode="&#xe2;" horiz-adv-x="562" d="M375 434q-48 0 -86 -25.5t-60 -65.5t-33 -82t-11 -81q0 -58 28 -90.5t82 -32.5h1q38 0 84 30t51 60l46 216q-24 71 -102 71zM90 168q0 37 8.5 79t31 88.5t55 83.5t86 61.5t119.5 24.5q81 0 109 -39l5 26h87l-104 -491h-87l14 69q-10 -20 -57 -49.5t-77 -32.5 q-91 0 -140.5 47t-49.5 133zM400 720h69l77 -167h-66l-58 107l-106 -107h-65z" />
<glyph unicode="&#xe3;" horiz-adv-x="562" d="M375 435q-62 0 -107 -43.5t-64 -99.5t-19 -111q0 -59 28 -91.5t82 -32.5h1q38 0 84 30t51 60l46 216q-23 72 -102 72zM90 169q0 38 9 80t31.5 88.5t55 83.5t86 61t118.5 24q80 0 109 -38l5 25h87l-104 -492h-87l14 69q-10 -20 -57 -49.5t-77 -32.5q-91 0 -140.5 47 t-49.5 134zM581 699q-10 -52 -40 -88t-80 -36q-36 0 -55 29l-22 23q-7 9 -25 16q-17 0 -28 -16t-20 -52h-59q12 57 43 90t73 34q33 0 61 -25l19 -25q14 -17 26 -17q17 0 27.5 15t20.5 52h59z" />
<glyph unicode="&#xe4;" horiz-adv-x="562" d="M375 435q-62 0 -107 -43.5t-64 -99.5t-19 -111q0 -59 28 -91.5t82 -32.5h1q38 0 84 30t51 60l46 216q-24 72 -102 72zM90 169q0 53 17 108.5t51 108.5t94.5 86.5t137.5 33.5q80 0 109 -40l5 26h87l-104 -491h-87l14 69q-10 -20 -57 -49.5t-77 -32.5q-91 0 -140.5 47 t-49.5 134zM468 682h94l-18 -88h-94zM289 682h95l-18 -88h-95z" />
<glyph unicode="&#xe5;" horiz-adv-x="562" d="M375 435q-48 0 -86 -26t-59.5 -65.5t-33 -82t-11.5 -81.5q0 -58 28 -90.5t82 -32.5h1q38 0 84 30t51 60l46 216q-24 72 -102 72zM90 168q0 37 8.5 79t31 88.5t55 83.5t86 61.5t119.5 24.5q81 0 109 -39l5 26h87l-104 -491h-87l14 69q-10 -20 -57 -49.5t-77 -32.5 q-91 0 -140.5 47t-49.5 133zM409 604q34 0 58 23.5t24 56.5q0 22 -15 36t-39 14q-31 0 -57 -23.5t-26 -55.5q0 -23 14.5 -37t40.5 -14zM551 691q0 -55 -47 -99t-107 -44q-46 0 -75.5 27.5t-29.5 68.5q0 54 47 100t109 46q46 0 74.5 -27.5t28.5 -71.5z" />
<glyph unicode="&#xe7;" horiz-adv-x="491" d="M87 176q0 44 11.5 88.5t37.5 88t62.5 77t91.5 54t120 20.5q81 0 140 -31l-16 -77q-61 35 -139 38q-49 0 -88 -18.5t-61.5 -46t-38 -62.5t-21 -64.5t-5.5 -55.5q0 -61 34 -95.5t100 -34.5q74 0 154 37l-15 -75q-59 -25 -129 -30q23 -37 23 -66q0 -37 -30 -66.5t-98 -29.5 q-39 0 -81 12l13 58q20 -11 70 -14q35 0 50 15t15 34t-22 57q-84 7 -131 56t-47 131z" />
<glyph unicode="&#xe8;" d="M393 729l128 -165h-71l-148 165h91zM87 176q0 55 20 111t57 105.5t99.5 80.5t138.5 31h6q76 0 119.5 -34t43.5 -99q0 -11 -4 -39q-7 -26 -22 -48.5t-27.5 -35t-34.5 -24.5t-31 -16l-28 -11q-72 -31 -244 -31q-2 -8 -2 -13q0 -35 41 -65.5t106 -30.5h2q96 0 194 46 l-16 -76q-94 -39 -197 -39q-104 0 -162.5 49.5t-58.5 138.5zM388 434q-81 0 -141 -59.5t-64 -149.5h23q153 0 192 24q26 12 41 22.5t27.5 32t12.5 51.5q0 37 -23 57.5t-68 21.5z" />
<glyph unicode="&#xe9;" d="M429 730h92l-147 -166h-72zM87 176q0 55 20 111t57 105.5t99.5 80.5t138.5 31h6q76 0 119.5 -34t43.5 -99q0 -11 -4 -39q-7 -26 -22 -48.5t-27.5 -35t-34.5 -24.5t-31 -16l-28 -11q-72 -31 -244 -31q-2 -8 -2 -13q0 -35 41 -65.5t106 -30.5h2q96 0 194 46l-16 -76 q-94 -39 -197 -39q-104 0 -162.5 49.5t-58.5 138.5zM388 434q-81 0 -141 -59.5t-64 -149.5h23q153 0 192 24q26 12 41 22.5t27.5 32t12.5 51.5q0 37 -23 57.5t-68 21.5z" />
<glyph unicode="&#xea;" d="M87 176q0 54 19.5 110t56.5 105.5t99.5 81.5t139.5 32h3q78 0 122 -34t44 -100q0 -11 -4 -39q-12 -44 -44 -75.5t-69.5 -48.5t-90 -26.5t-92.5 -12t-91 -2.5q-2 -8 -2 -13q0 -36 41 -66.5t106 -30.5h2q93 0 194 46l-16 -77q-95 -38 -197 -38q-104 0 -162.5 49.5 t-58.5 138.5zM388 434q-81 0 -141 -59.5t-63 -148.5h23q152 0 191 23q41 19 61 41t20 65q0 37 -23 57.5t-68 21.5zM395 720h69l76 -167h-65l-59 107l-105 -107h-66z" />
<glyph unicode="&#xeb;" d="M87 176q0 55 20 111t57.5 106t99.5 81.5t138 31.5h6q76 0 119.5 -34.5t43.5 -99.5q0 -12 -4 -40q-14 -49 -49.5 -82.5t-89.5 -51t-113 -24.5t-135 -7q-2 -8 -2 -13q0 -36 41 -66.5t106 -30.5h2q93 0 194 46l-16 -77q-95 -38 -197 -38q-104 0 -162.5 49.5t-58.5 138.5z M388 435q-82 0 -141.5 -60t-62.5 -149h23q152 0 191 23q26 12 41 22.5t27.5 32t12.5 51.5q0 37 -23 58t-68 22zM462 682h95l-18 -88h-95zM283 682h95l-18 -88h-95z" />
<glyph unicode="&#xec;" horiz-adv-x="234" d="M233 729l128 -165h-71l-148 165h91zM177 492h85l-104 -492h-85z" />
<glyph unicode="&#xed;" horiz-adv-x="234" d="M269 730h92l-147 -166h-72zM177 492h85l-104 -492h-85z" />
<glyph unicode="&#xee;" horiz-adv-x="233" d="M176 491h86l-104 -491h-86zM236 720h69l75 -168h-65l-58 108l-105 -108h-64z" />
<glyph unicode="&#xef;" horiz-adv-x="232" d="M175 492h87l-104 -492h-87zM303 682h94l-18 -89h-94zM124 682h95l-18 -89h-95z" />
<glyph unicode="&#xf0;" horiz-adv-x="568" d="M292 57q59 0 104 39.5t65.5 95.5t20.5 117q0 56 -23 93q-23 8 -74 15q-47 0 -84 -18t-59 -44.5t-36.5 -60t-19.5 -62t-5 -52.5q0 -58 29 -90.5t82 -32.5zM88 170q0 121 82 217.5t205 96.5q24 0 48 -5l-54 78l-154 -47l-9 45l137 40l-62 89h105l43 -62l163 48l7 -44 l-142 -42l56 -80q63 -88 63 -183q0 -137 -84 -235t-215 -98q-88 0 -138.5 49t-50.5 133z" />
<glyph unicode="&#xf1;" horiz-adv-x="573" d="M567 298l-63 -298h-88l62 295q6 29 6 52q0 85 -87 86q-68 0 -115 -41t-64 -113l-59 -279h-87l104 492h87l-16 -76q79 90 183 90q145 0 145 -138q0 -28 -8 -70zM586 699q-10 -52 -40 -88t-80 -36q-35 0 -56 28l-22 24q-6 10 -25 16q-30 0 -47 -68h-60q12 57 42.5 90 t73.5 34q34 0 61 -26l20 -24q13 -17 26 -17q16 0 26.5 15t20.5 52h60z" />
<glyph unicode="&#xf2;" horiz-adv-x="570" d="M401 729l128 -165h-71l-148 165h91zM294 57q61 0 106 43t64 98.5t19 109.5q0 59 -28 92.5t-81 33.5q-62 0 -107 -44t-64 -99.5t-19 -109.5q0 -58 28 -91t82 -33zM90 168q0 38 9 80.5t31.5 88.5t55.5 82.5t86 60.5t117 24q91 0 140.5 -48t49.5 -135q0 -43 -10.5 -87.5 t-34.5 -89t-57.5 -79t-85 -56t-112.5 -21.5q-90 0 -139.5 47t-49.5 133z" />
<glyph unicode="&#xf3;" horiz-adv-x="570" d="M438 730h92l-147 -166h-72zM294 57q61 0 106 43t64 98.5t19 109.5q0 59 -28 92.5t-81 33.5q-62 0 -107 -44t-64 -99.5t-19 -109.5q0 -58 28 -91t82 -33zM90 168q0 38 9 80.5t31.5 88.5t55.5 82.5t86 60.5t117 24q91 0 140.5 -48t49.5 -135q0 -43 -10.5 -87.5t-34.5 -89 t-57.5 -79t-85 -56t-112.5 -21.5q-90 0 -139.5 47t-49.5 133z" />
<glyph unicode="&#xf4;" horiz-adv-x="570" d="M294 57q60 0 105 42.5t64.5 98.5t19.5 111q0 59 -28 92t-81 33q-47 0 -85 -25.5t-60 -64.5t-33.5 -81.5t-11.5 -81.5q0 -58 28 -91t82 -33zM90 168q0 41 10 85.5t33.5 90t57 81t85 58t113.5 22.5q91 0 140.5 -48.5t49.5 -135.5q0 -43 -10.5 -87.5t-34.5 -89t-57.5 -79 t-85 -56t-112.5 -21.5q-90 0 -139.5 47t-49.5 133zM404 720h69l76 -167h-65l-59 107l-105 -107h-66z" />
<glyph unicode="&#xf5;" horiz-adv-x="570" d="M295 57q59 0 104 43t64.5 99t19.5 110q0 59 -28 92.5t-80 33.5q-61 0 -106.5 -43t-65 -99t-19.5 -111q0 -59 28.5 -92t82.5 -33zM90 169q0 50 16 104.5t49 108.5t94 89t141 35q90 0 139.5 -48t49.5 -135q0 -38 -9 -80.5t-31.5 -88.5t-55.5 -82.5t-85.5 -60t-117.5 -23.5 q-91 0 -140.5 47t-49.5 134zM584 699q-10 -52 -40 -88t-79 -36q-35 0 -56 29l-21 23q-7 10 -26 16q-30 0 -47 -68h-58q12 57 41.5 90t72.5 34q30 0 55 -25l26 -25q13 -17 26 -17q16 0 26.5 15t20.5 52h59z" />
<glyph unicode="&#xf6;" horiz-adv-x="570" d="M294 57q61 0 106 43.5t64 99t19 109.5q0 59 -28 92.5t-81 33.5q-61 0 -106 -43.5t-64.5 -99.5t-19.5 -111q0 -58 28 -91t82 -33zM90 169q0 40 9.5 83t32.5 89t56 82t85.5 59.5t115.5 23.5q91 0 140.5 -48.5t49.5 -135.5q0 -38 -9 -80.5t-31.5 -88.5t-55.5 -82t-86 -59.5 t-118 -23.5q-90 0 -139.5 47t-49.5 134zM471 682h94l-18 -88h-94zM292 682h95l-18 -88h-95z" />
<glyph unicode="&#xf7;" horiz-adv-x="633" d="M317 498h114v-108h-114v108zM316 173h114v-108h-114v108zM80 319h588v-74h-588v74z" />
<glyph unicode="&#xf8;" horiz-adv-x="584" d="M301 57q62 0 107.5 44.5t65 102t19.5 114.5q0 17 -3 32l-275 -258q25 -32 86 -35zM381 434q-54 0 -95.5 -31.5t-61.5 -77t-29 -84t-9 -65.5q0 -21 5 -36l274 259q-29 35 -84 35zM586 321q0 -39 -9 -81t-32 -87t-56 -80.5t-85.5 -58.5t-116.5 -23q-92 0 -137 41l-79 -73 l-39 32l86 82q-22 40 -22 96q0 52 17 107.5t50.5 108t94.5 86.5t138 34q84 0 133 -46l82 73l35 -35l-81 -79q21 -40 21 -97z" />
<glyph unicode="&#xf9;" d="M377 729l128 -165h-71l-148 165h91zM86 195l63 297h86l-62 -294q-6 -30 -6 -53q0 -86 88 -86q66 0 113.5 41.5t63.5 113.5l59 278h88l-104 -491h-88l15 74q-75 -87 -180 -87q-144 0 -144 136q0 36 8 71z" />
<glyph unicode="&#xfa;" d="M414 730h92l-147 -166h-72zM86 195l63 297h86l-62 -294q-6 -30 -6 -53q0 -86 88 -86q66 0 113.5 41.5t63.5 113.5l59 278h88l-104 -491h-88l15 74q-75 -87 -180 -87q-144 0 -144 136q0 36 8 71z" />
<glyph unicode="&#xfb;" d="M86 194l63 298h84l-63 -295q-6 -29 -6 -50q0 -88 91 -88q66 0 113.5 41t63.5 114l59 278h88l-104 -491h-88l15 74q-75 -87 -180 -87q-144 0 -144 135q0 36 8 71zM394 720h69l76 -167h-66l-58 107l-105 -107h-64z" />
<glyph unicode="&#xfc;" d="M86 195l63 297h86l-62 -294q-6 -30 -6 -53q0 -86 88 -86q66 0 113.5 41t63.5 114l59 278h88l-104 -491h-88l15 74q-75 -87 -180 -87q-144 0 -144 136q0 36 8 71zM461 682h94l-18 -88h-94zM283 682h94l-18 -88h-94z" />
<glyph unicode="&#xfd;" horiz-adv-x="535" d="M418 730h92l-147 -166h-72zM268 -66q-58 -90 -90.5 -116t-89.5 -26h-45l-9 69h51q32 0 48 14.5t52 75.5l37 57l-103 484h94l75 -384l239 384h92z" />
<glyph unicode="&#xfe;" horiz-adv-x="584" d="M593 322q0 -78 -32 -153.5t-97 -128.5t-147 -53q-108 0 -143 85l-63 -297h-87l218 1025h87l-82 -382q72 87 180 87q78 0 122 -49.5t44 -133.5zM311 55q61 0 106.5 43.5t64.5 99.5t19 111q0 60 -28 93t-81 33q-60 0 -105 -44t-64.5 -101t-19.5 -112q0 -58 27.5 -90.5 t80.5 -32.5z" />
<glyph unicode="&#xff;" horiz-adv-x="535" d="M268 -66q-58 -90 -90.5 -116t-89.5 -26h-45l-9 69h51q36 0 53 14t57 76l27 57l-103 484h94l75 -384l239 384h92zM441 682h94l-18 -89h-94zM262 682h88l-18 -89h-88z" />
<glyph unicode="&#x106;" horiz-adv-x="624" d="M522 959h92l-147 -166h-72zM100 248q0 56 13.5 117.5t45.5 128t79 119t122 86.5t166 34q126 0 204 -68l-22 -103q-74 90 -193 90q-71 0 -128 -30t-90.5 -74.5t-56 -100.5t-30.5 -103t-8 -87q0 -92 47.5 -140.5t141.5 -48.5q120 0 231 91l-22 -104q-109 -68 -232 -68 q-128 0 -198 68.5t-70 192.5z" />
<glyph unicode="&#x107;" horiz-adv-x="491" d="M405 730h92l-147 -166h-72zM87 177q0 54 19 109.5t56 105t101.5 81t145.5 31.5q85 0 141 -32l-16 -76q-63 35 -136 38q-49 0 -88.5 -18.5t-63 -46t-39 -62.5t-21 -64.5t-5.5 -54.5q0 -62 34.5 -96.5t102.5 -34.5q73 0 152 38l-16 -76q-77 -31 -161 -31q-97 0 -151.5 50 t-54.5 139z" />
<glyph unicode="&#x10c;" horiz-adv-x="622" d="M99 248q0 56 13.5 118t46 128.5t79.5 119t122 86.5t166 34q123 0 203 -68l-22 -103q-74 89 -193 89q-71 0 -128 -30t-90.5 -74t-56 -99.5t-30.5 -102.5t-8 -87q0 -93 47.5 -142t141.5 -49q119 0 231 90l-22 -103q-109 -68 -232 -68q-128 0 -198 68.5t-70 192.5zM480 789 l-70 129h67l55 -86l94 86h67l-126 -129h-87z" />
<glyph unicode="&#x10d;" horiz-adv-x="473" d="M73 177q0 56 19.5 111.5t57 105t101.5 80.5t144 31q82 0 141 -32l-16 -77q-59 35 -136 38q-50 0 -89.5 -18.5t-62.5 -46.5t-38.5 -63t-21 -64.5t-5.5 -54.5q0 -62 35 -96t102 -34q75 0 152 38l-16 -76q-75 -31 -161 -31q-97 0 -151.5 50t-54.5 139zM359 553l-77 167h66 l59 -107l105 107h66l-149 -167h-70z" />
<glyph unicode="&#x111;" horiz-adv-x="580" d="M73 171q0 79 32.5 154.5t97 127.5t144.5 52q112 0 142 -87l39 184h-143l12 54h143l14 65h88l-14 -65h69l-12 -54h-69l-127 -601h-88l15 72q-68 -85 -179 -85q-76 0 -120 49t-44 134zM350 435q-62 0 -106 -46t-61.5 -102.5t-17.5 -109.5q0 -58 26.5 -89.5t77.5 -31.5 q60 0 105.5 42.5t65.5 98.5t20 112q0 60 -28.5 93t-81.5 33z" />
<glyph unicode="&#x11e;" horiz-adv-x="688" d="M104 247q0 41 8.5 88.5t26.5 104t52 107.5t80 93.5t115.5 68t152.5 25.5q137 0 223 -68l-22 -103q-86 89 -212 89q-248 0 -309 -292q-12 -58 -12 -104q0 -188 197 -188q96 0 162 36l41 194h-149l17 79h243l-66 -310q-121 -80 -272 -80q-133 0 -204.5 67.5t-71.5 192.5z M404 918h56v-2q0 -51 76 -51q72 0 100 53h56q-35 -118 -169 -118q-120 0 -120 98q0 13 1 20z" />
<glyph unicode="&#x11f;" horiz-adv-x="549" d="M274 69q48 0 86 25.5t58.5 64.5t31 79.5t10.5 77.5q0 57 -27.5 88t-80.5 31q-49 0 -87 -26t-58.5 -66t-30.5 -80t-10 -76q0 -118 108 -118zM74 179q0 77 32 150.5t96 125t145 51.5q109 0 142 -87l15 74h88l-100 -471q-26 -125 -96.5 -186t-191.5 -61q-89 0 -157 27l17 80 q70 -38 141 -38q162 0 196 163l17 79q-67 -86 -178 -86q-77 0 -121.5 48t-44.5 131zM286 706h56v-8q0 -57 72 -57q78 0 103 65h56q-36 -126 -172 -126q-117 0 -117 99q0 9 2 27z" />
<glyph unicode="&#x130;" horiz-adv-x="236" d="M224 721h93l-153 -721h-93zM263 904h93l-21 -99h-93z" />
<glyph unicode="&#x131;" horiz-adv-x="234" d="M177 492h85l-104 -492h-85z" />
<glyph unicode="&#x141;" horiz-adv-x="549" d="M264 721h95l-63 -297l165 106l26 -55l-209 -133l-55 -261h332l-17 -81h-427l58 275l-77 -51l-25 53l119 78z" />
<glyph unicode="&#x142;" horiz-adv-x="304" d="M278 800h86l-81 -380l64 40l26 -48l-105 -62l-74 -350h-86l61 291l-62 -38l-25 47l103 63z" />
<glyph unicode="&#x15e;" horiz-adv-x="540" d="M134 475q0 28 7.5 59.5t28 68t51 64.5t83 47t118.5 19q100 0 193 -37l-20 -96q-101 52 -179 52q-55 0 -94.5 -16.5t-57.5 -42t-25 -48t-7 -43.5q0 -31 24 -48t84 -29l54 -13q164 -36 164 -160q0 -20 -3.5 -43.5t-18 -60.5t-38 -66.5t-69 -55.5t-105.5 -34q25 -44 25 -76 q0 -40 -31 -73t-101 -33q-51 0 -80 11l14 66q20 -12 71 -15q33 0 47 16.5t14 37.5q0 15 -15 60q-120 0 -234 44l22 102q102 -67 205 -67q53 0 92.5 15.5t60 40.5t30 50.5t9.5 51.5q0 37 -25 59.5t-81 35.5l-53 12q-83 17 -121.5 52t-38.5 93z" />
<glyph unicode="&#x15f;" horiz-adv-x="457" d="M109 326q0 30 11 58.5t35.5 56.5t72 45.5t112.5 17.5q92 0 156 -27l-16 -77q-67 32 -144 35q-80 0 -110.5 -26t-30.5 -61q0 -21 20.5 -34t75.5 -25l27 -7q72 -16 105 -41.5t33 -69.5q0 -58 -39.5 -107t-122.5 -68q25 -47 25 -72q0 -36 -30 -66.5t-97 -30.5q-40 0 -80 12 l13 58q20 -11 70 -14q33 0 47 15.5t14 35.5q0 19 -16 54q-118 0 -205 30l18 84q82 -43 172 -46q77 0 109 29t32 65q0 22 -22.5 35.5t-85.5 27.5l-27 6q-65 15 -93.5 39.5t-28.5 67.5z" />
<glyph unicode="&#x160;" horiz-adv-x="554" d="M142 476q0 28 7.5 59.5t28 68t51.5 64.5t83.5 47t118.5 19q98 0 193 -36l-21 -96q-102 51 -179 51q-55 0 -94.5 -16t-57 -41.5t-25 -48t-7.5 -43.5q0 -31 24.5 -48.5t83.5 -30.5l53 -11q166 -36 166 -161q0 -27 -5.5 -56t-25.5 -68.5t-52 -69t-92.5 -51t-139.5 -21.5 q-102 0 -210 44l22 103q101 -68 205 -68q53 0 92.5 15.5t60 40.5t30 50.5t9.5 51.5q0 37 -25 59.5t-81 35.5l-53 12q-83 17 -121.5 52t-38.5 93zM396 789l-71 129h67l56 -86l94 86h66l-127 -129h-85z" />
<glyph unicode="&#x161;" horiz-adv-x="478" d="M120 326q0 30 11 58.5t35.5 57t72 46t112.5 17.5q89 0 156 -28l-16 -77q-67 32 -145 35q-80 0 -110.5 -26t-30.5 -61q0 -21 21 -34t76 -25l27 -7q72 -15 105 -41.5t33 -70.5q0 -82 -68 -132t-179 -50q-83 0 -174 30l18 85q81 -44 172 -47q76 0 107.5 28.5t31.5 64.5 q0 23 -21.5 36t-84.5 28l-28 6q-64 15 -92.5 39.5t-28.5 67.5zM329 553l-76 167h64l60 -107l104 107h65l-148 -167h-69z" />
<glyph unicode="&#x178;" horiz-adv-x="585" d="M156 722h102l124 -297l249 297h102l-323 -380l-72 -342h-95l72 342zM525 903h95l-20 -98h-95zM347 903h94l-20 -98h-94z" />
<glyph unicode="&#x17d;" horiz-adv-x="616" d="M191 721h539l-16 -75l-550 -565h440l-17 -81h-559l15 73l550 565h-420zM432 788l-71 130h68l54 -86l94 86h68l-127 -130h-86z" />
<glyph unicode="&#x17e;" horiz-adv-x="487" d="M149 492h397l-16 -75l-387 -353h312l-13 -64h-410l15 73l389 353h-301zM339 552l-76 168h66l58 -108l105 108h66l-149 -168h-70z" />
<glyph unicode="&#x17f;" horiz-adv-x="269" d="M293 492l-159 -717h-85l146 654h-79l13 63h79l24 113q19 88 71.5 141t137.5 54h79l-15 -69h-80q-77 0 -106 -116z" />
<glyph unicode="&#x192;" horiz-adv-x="586" d="M717 666l-15 -73q-27 23 -69 26q-83 0 -129 -111l-57 -137h131l-13 -64h-146l-116 -277q-54 -125 -106 -171t-139 -46q-57 0 -91 19l16 74q37 -28 85 -28q43 0 72 28t61 103l128 298h-112l13 64h127l59 145q33 79 88.5 123.5t124.5 44.5q52 0 88 -18z" />
<glyph unicode="&#x2c6;" horiz-adv-x="369" d="M304 720h67l77 -166h-66l-58 106l-104 -106h-65z" />
<glyph unicode="&#x2c7;" horiz-adv-x="351" d="M246 554l-76 166h64l59 -107l104 107h65l-148 -166h-68z" />
<glyph unicode="&#x2d8;" horiz-adv-x="404" d="M206 706h57v-8q0 -57 72 -57q77 0 100 65h59q-36 -126 -172 -126q-118 0 -118 97q0 19 2 29z" />
<glyph unicode="&#x2d9;" horiz-adv-x="238" d="M214 682h94l-19 -90h-94z" />
<glyph unicode="&#x2da;" horiz-adv-x="345" d="M285 604q35 0 59 24t24 55q0 23 -15 37.5t-40 14.5q-32 0 -57 -24t-25 -57q0 -22 15 -36t39 -14zM428 691q0 -56 -48.5 -99t-106.5 -43q-45 0 -73.5 27t-28.5 69q0 55 46.5 100t106.5 45q46 0 75 -27.5t29 -71.5z" />
<glyph unicode="&#x2db;" horiz-adv-x="270" d="M30 -115q0 53 73 115h56q-59 -59 -59 -91q0 -27 41 -27q34 0 59 13l-13 -60q-13 -3 -34 -5t-27 -3q-96 0 -96 58z" />
<glyph unicode="&#x2dc;" horiz-adv-x="391" d="M478 699q-11 -53 -40.5 -88.5t-78.5 -35.5q-33 0 -55 28l-22 25q-7 10 -26 16q-16 0 -27 -16t-20 -53h-58q12 58 42 90.5t73 33.5q36 0 61 -26l19 -24q14 -17 26 -17q17 0 27.5 15t20.5 52h58z" />
<glyph unicode="&#x2dd;" horiz-adv-x="397" d="M425 720h83l-149 -166h-63zM274 720h81l-140 -166h-64z" />
<glyph unicode="&#x3c0;" horiz-adv-x="600" d="M640 414h-81l-48 -234l-9 -40q-4 -18 -5 -25q0 -29 9.5 -40t34.5 -11q21 0 47 5l-14 -69q-43 -6 -53 -7q-109 0 -109 95v2v8q0 16 25 135l37 181h-145l-89 -414h-85l93 414h-21q-45 0 -54 -65h-77q12 83 44.5 113t107.5 30h410z" />
<glyph unicode="&#x2000;" horiz-adv-x="500" />
<glyph unicode="&#x2001;" horiz-adv-x="1000" />
<glyph unicode="&#x2002;" horiz-adv-x="500" />
<glyph unicode="&#x2003;" horiz-adv-x="1000" />
<glyph unicode="&#x2004;" horiz-adv-x="333" />
<glyph unicode="&#x2005;" horiz-adv-x="250" />
<glyph unicode="&#x2006;" horiz-adv-x="166" />
<glyph unicode="&#x2007;" horiz-adv-x="633" />
<glyph unicode="&#x2008;" horiz-adv-x="241" />
<glyph unicode="&#x2009;" horiz-adv-x="100" />
<glyph unicode="&#x200a;" horiz-adv-x="10" />
<glyph unicode="&#x200b;" horiz-adv-x="0" />
<glyph unicode="&#x2010;" horiz-adv-x="390" d="M114 210v72h261v-72h-261z" />
<glyph unicode="&#x2011;" horiz-adv-x="390" d="M114 210v72h261v-72h-261z" />
<glyph unicode="&#x2012;" horiz-adv-x="633" d="M114 210v72h504v-72h-504z" />
<glyph unicode="&#x2013;" horiz-adv-x="500" d="M114 210v72h371v-72h-371z" />
<glyph unicode="&#x2014;" horiz-adv-x="1000" d="M114 210v72h871v-72h-871z" />
<glyph unicode="&#x2015;" horiz-adv-x="2000" d="M114 210v72h1871v-72h-1871z" />
<glyph unicode="&#x2016;" horiz-adv-x="602" d="M546 722l-4 -930h-79l4 930h79zM245 722l-4 -930h-79l4 930h79z" />
<glyph unicode="&#x2018;" horiz-adv-x="156" d="M157 440h-96l16 76l103 140h61l-68 -140z" />
<glyph unicode="&#x2019;" horiz-adv-x="238" d="M223 656h96l-14 -66l-104 -141h-59l67 141z" />
<glyph unicode="&#x201a;" horiz-adv-x="244" d="M112 111h97l-16 -75l-104 -140h-60l67 140z" />
<glyph unicode="&#x201b;" horiz-adv-x="250" d="M294 656l-14 -67l8 -140h-59l-46 140l14 67h97z" />
<glyph unicode="&#x201c;" horiz-adv-x="345" d="M159 440h-98l16 76l106 140h61l-69 -140zM345 440h-99l16 76l107 140h61l-69 -140z" />
<glyph unicode="&#x201d;" horiz-adv-x="428" d="M222 656h99l-16 -76l-104 -140h-62l67 140zM408 656h99l-16 -76l-104 -140h-62l67 140z" />
<glyph unicode="&#x201e;" horiz-adv-x="432" d="M298 111h99l-16 -75l-104 -140h-63l68 140zM112 111h99l-16 -75l-104 -140h-62l67 140z" />
<glyph unicode="&#x201f;" horiz-adv-x="445" d="M486 656l-16 -76l9 -140h-60l-47 140l16 76h98zM296 656l-16 -76l9 -140h-60l-47 140l16 76h98z" />
<glyph unicode="&#x2020;" horiz-adv-x="433" d="M312 656h82l-39 -185h168l-15 -67h-168l-104 -490h-82l104 490h-167l15 67h167z" />
<glyph unicode="&#x2021;" horiz-adv-x="466" d="M459 98h-167l-39 -184h-82l39 184h-168l15 67h168l50 239h-168l15 67h168l39 185h82l-39 -185h167l-15 -67h-167l-50 -239h167z" />
<glyph unicode="&#x2022;" horiz-adv-x="330" d="M35 378q0 55 38 93.5t92 38.5t92 -38.5t38 -93.5t-38 -93.5t-92 -38.5t-92 38.5t-38 93.5z" />
<glyph unicode="&#x2023;" horiz-adv-x="449" d="M100 200v402l299 -201z" />
<glyph unicode="&#x2024;" horiz-adv-x="241" d="M92 111h97l-23 -111h-97z" />
<glyph unicode="&#x2025;" horiz-adv-x="482" d="M333 111h97l-23 -111h-97zM92 111h97l-23 -111h-97z" />
<glyph unicode="&#x2026;" horiz-adv-x="723" d="M574 111h97l-23 -111h-97zM333 111h97l-23 -111h-97zM92 111h97l-23 -111h-97z" />
<glyph unicode="&#x202f;" horiz-adv-x="191" />
<glyph unicode="&#x2030;" horiz-adv-x="1210" d="M1031 48q38 0 65.5 36t38.5 77t11 75q0 79 -59 79q-55 0 -86 -62t-31 -124q0 -81 61 -81zM892 120q0 42 13 85.5t37 82.5t66 64.5t93 26.5q58 0 91 -36t33 -99q0 -58 -22 -115t-71 -99.5t-114 -42.5q-61 0 -93.5 35t-32.5 98zM131 474q0 96 57 177.5t150 81.5 q59 0 93 -36t34 -101q0 -40 -13 -83t-37.5 -82.5t-66.5 -64.5t-93 -25q-59 0 -91.5 35t-32.5 98zM749 733h76l-585 -746h-76zM268 403q38 0 66 33.5t40 74.5t12 79q0 81 -61 81q-54 0 -85 -63.5t-31 -125.5q0 -79 59 -79zM525 120q0 58 21.5 114.5t71 100t117.5 44.5 q58 0 91 -36t33 -99q0 -57 -21.5 -114t-70.5 -100t-115 -43q-61 0 -94 35t-33 98zM665 48q37 0 65 35.5t39 76.5t11 75q0 38 -15.5 59t-43.5 21q-54 0 -85.5 -62t-31.5 -125q0 -80 61 -80z" />
<glyph unicode="&#x2039;" horiz-adv-x="297" d="M338 465l-18 -84l-159 -118l109 -118l-17 -83l-176 182l8 36z" />
<glyph unicode="&#x203a;" horiz-adv-x="296" d="M150 465l176 -185l-8 -36l-253 -182l18 84l160 117l-111 117z" />
<glyph unicode="&#x2044;" horiz-adv-x="431" d="M493 667h75l-569 -679h-74z" />
<glyph unicode="&#x205f;" horiz-adv-x="239" />
<glyph unicode="&#x2074;" horiz-adv-x="371" d="M347 666l-181 -203h138zM350 726h77l-56 -263h62l-11 -52h-62l-19 -89h-67l19 89h-188l12 58z" />
<glyph unicode="&#x20ac;" horiz-adv-x="581" d="M685 664l-22 -102q-55 93 -146 93q-145 0 -218 -186h264l-37 -59h-246l-5 -23l-17 -77h204l-39 -62h-171v-17q0 -82 35 -126.5t103 -44.5q88 0 187 99l-21 -99q-94 -73 -186 -73q-102 0 -158 62.5t-56 178.5v20h-95l37 62h64q4 12 4 23q15 69 18 77h-88l36 59h71 q45 124 131.5 194t193.5 70q95 0 157 -69z" />
<glyph unicode="&#x2122;" horiz-adv-x="700" d="M538 721l77 -124l75 124h79l-1 -279h-52l1 232l-88 -146h-27l-90 146l-1 -232h-55l1 279h81zM408 721v-47h-92l-1 -232h-55l1 232h-92v47h239z" />
<glyph unicode="&#x2126;" horiz-adv-x="740" d="M720 85l-1 -85h-278l1 85q81 47 126.5 127.5t45.5 177.5q0 115 -59.5 184.5t-157.5 69.5q-97 0 -157.5 -69.5t-60.5 -184.5q0 -98 44.5 -178t126.5 -127l-1 -85h-276l1 85h145q-72 65 -105 136t-33 161v4q0 152 88 248t229 96q137 0 226 -95t89 -243v-2q0 -94 -32 -165 t-106 -140h145z" />
<glyph unicode="&#x2202;" horiz-adv-x="470" d="M381 274q7 51 11 141q0 113 -63 113q-16 0 -57 -26t-50 -26q-16 0 -28 10.5t-12 25.5q0 27 34 47.5t79 22.5q81 0 131 -67.5t50 -181.5v-3q0 -144 -67 -242t-165 -98q-68 0 -114 46t-46 118v2q0 86 50 143t125 57q45 0 74 -19.5t48 -62.5zM356 217q0 50 -19 78t-54 28 q-48 0 -79.5 -56t-31.5 -144v-4q0 -101 72 -104q48 0 80 57t32 145z" />
<glyph unicode="&#x2206;" horiz-adv-x="650" d="M336 607l-191 -522h380zM284 721h104l263 -721h-633z" />
<glyph unicode="&#x220f;" horiz-adv-x="710" d="M118 711h567l-4 -900h-112l4 802h-343l-4 -802h-112z" />
<glyph unicode="&#x2211;" horiz-adv-x="648" d="M188 711h577l-20 -93h-436l232 -347l-394 -366h458l-20 -94h-603l16 72l412 385l-241 357z" />
<glyph unicode="&#x2212;" horiz-adv-x="390" d="M129 282h246l-15 -72h-246z" />
<glyph unicode="&#x221a;" horiz-adv-x="530" d="M571 801h166v-47h-129l-276 -773h-31l-142 424l-58 -20l-12 39l133 47l113 -341z" />
<glyph unicode="&#x221e;" horiz-adv-x="660" d="M416 245q42 -77 119 -77q44 0 72.5 29t28.5 75q0 43 -25.5 72.5t-64.5 29.5q-36 0 -66 -29t-64 -100zM356 292q-41 75 -118 75q-46 0 -74.5 -28.5t-28.5 -73.5q0 -43 25 -72t66 -29q37 0 67 28.5t63 99.5zM390 211q-62 -114 -146 -114q-63 0 -106 48.5t-43 122.5 q1 75 39.5 123.5t101.5 48.5q43 0 77 -27.5t68 -87.5q59 116 147 116q60 0 104 -49.5t44 -121.5q-1 -77 -39 -124t-99 -47q-43 0 -77.5 25.5t-70.5 86.5z" />
<glyph unicode="&#x222b;" horiz-adv-x="450" d="M122 -47q26 0 37.5 -19t14 -38t8.5 -19q46 0 54 328q10 307 48.5 425.5t140.5 118.5q36 0 59.5 -20t23.5 -54q-1 -25 -15 -40.5t-41 -15.5q-24 0 -37 12t-15 26.5t-4.5 26.5t-7.5 12q-47 0 -53 -298q-7 -321 -46 -448.5t-144 -127.5q-37 0 -60.5 20t-23.5 52 q0 26 15 42.5t46 16.5z" />
<glyph unicode="&#x2248;" horiz-adv-x="691" d="M284 261q57 0 128 -29t120 -29q77 0 163 70v-80q-89 -65 -174 -65q-36 0 -126 29q-66 30 -122 30q-83 0 -164 -68v79q84 63 175 63zM289 432q49 0 121 -29t122 -29q78 0 163 70v-81q-88 -64 -174 -64q-34 0 -126 29q-62 29 -121 29q-85 0 -165 -70v81q88 64 180 64z" />
<glyph unicode="&#x2260;" horiz-adv-x="668" d="M99 408h353l117 139l59 -45l-79 -94h137v-75h-201l-88 -104h288v-75h-353l-120 -137l-58 45l79 92h-135v75h200l89 104h-288v75z" />
<glyph unicode="&#x2264;" horiz-adv-x="696" d="M679 444l-438 -120l437 -119v-80l-587 162v76l589 160zM90 74h588v-74h-588v74z" />
<glyph unicode="&#x2265;" horiz-adv-x="720" d="M124 444l1 79l586 -160v-76l-588 -162v80l437 119zM710 74v-74h-587v74h587z" />
<glyph unicode="&#x25ca;" horiz-adv-x="480" d="M295 617l-173 -357l170 -361l175 361zM295 726l228 -466l-232 -469l-226 469z" />
<glyph unicode="&#xefed;" horiz-adv-x="237" d="M208 658h94l-19 -90h-94z" />
<glyph unicode="&#xefee;" horiz-adv-x="401" d="M196 671h57q2 -49 77 -49q70 0 97 49h57q-15 -51 -58 -78.5t-108 -27.5q-123 0 -123 90q0 10 1 16z" />
<glyph unicode="&#xeff4;" horiz-adv-x="348" d="M238 554l-70 117h65l57 -78l90 78h66l-121 -117h-87z" />
<glyph unicode="&#xeff5;" horiz-adv-x="412" d="M166 568q8 41 37 69t77 28q24 0 58 -17l22 -14q18 -11 30 -11q14 0 26 11.5t16 30.5h57q-9 -42 -39 -69.5t-68 -27.5q-30 0 -63 19l-23 15q-15 10 -28 10q-16 0 -28 -11.5t-16 -32.5h-58z" />
<glyph unicode="&#xeff6;" horiz-adv-x="419" d="M388 657h95l-19 -89h-95zM209 657h95l-19 -89h-95z" />
<glyph unicode="&#xeff7;" horiz-adv-x="358" d="M271 671h87l71 -117h-66l-57 78l-91 -78h-66z" />
<glyph unicode="&#xeff8;" horiz-adv-x="246" d="M253 670l64 -116h-72l-78 116h86z" />
<glyph unicode="&#xeff9;" horiz-adv-x="249" d="M265 670h85l-127 -116h-72z" />
<glyph unicode="&#xf6c3;" horiz-adv-x="247" d="M65 -59h98l-16 -76l-104 -140h-61l67 140z" />
<glyph unicode="&#xfb05;" horiz-adv-x="636" d="M319 615l-184 -840h-85l145 654h-79l13 63h79l24 113q19 88 71.5 141t137.5 54h79l-15 -69h-80q-77 0 -106 -116zM575 640l-32 -149h143l-14 -63h-143l-56 -265q-7 -37 -7 -51q0 -26 16 -35t57 -9h87l-14 -68h-87q-79 0 -112.5 21t-33.5 75q0 32 8 67l56 265h-60l14 63 h60l25 119z" />
<glyph unicode="&#xfb06;" horiz-adv-x="878" d="M120 326q0 30 11 58.5t35.5 56.5t72 45.5t112.5 17.5h25q56 112 153.5 171.5t223.5 59.5q41 0 78 -6l-50 -237h145l-14 -63h-145l-57 -267q-7 -37 -7 -50q0 -27 16 -36t59 -9h88l-14 -67h-88q-80 0 -114 21t-34 75q0 26 8 66l57 267h-62l14 63h62l34 163 q-180 -6 -259 -165q13 -4 37 -14l-16 -76q-71 32 -145 35q-80 0 -110.5 -26t-30.5 -61q0 -21 21 -34t76 -25l27 -7q72 -16 105 -41.5t33 -69.5q0 -79 -65.5 -131t-181.5 -52q-83 0 -174 30l18 85q80 -44 172 -47q75 0 107 28.5t32 64.5q0 22 -22 36t-84 28l-28 6 q-64 15 -92.5 40t-28.5 67z" />
<glyph horiz-adv-x="1000" />
</font>
</defs>
</svg>
