<?xml version="1.0" encoding="UTF-8" standalone="no"?>
<!-- Created with Inkscape (http://www.inkscape.org/) -->

<svg
   xmlns:dc="http://purl.org/dc/elements/1.1/"
   xmlns:cc="http://creativecommons.org/ns#"
   xmlns:rdf="http://www.w3.org/1999/02/22-rdf-syntax-ns#"
   xmlns:svg="http://www.w3.org/2000/svg"
   xmlns="http://www.w3.org/2000/svg"
   version="1.1"
   width="90.099998"
   height="90.099998"
   id="svg3515"
   xml:space="preserve"><metadata
     id="metadata3521"><rdf:RDF><cc:Work
         rdf:about=""><dc:format>image/svg+xml</dc:format><dc:type
           rdf:resource="http://purl.org/dc/dcmitype/StillImage" /><dc:title></dc:title></cc:Work></rdf:RDF></metadata><defs
     id="defs3519"><clipPath
       id="clipPath3531"><path
         d="M 0,720.754 0,0 l 720.754,0 0,720.754 -720.754,0 z"
         id="path3533" /></clipPath></defs><g
     transform="matrix(1.25,0,0,-1.25,0,90.1)"
     id="g3523"><g
       transform="scale(0.1,0.1)"
       id="g3525"><g
         id="g3527"><g
           clip-path="url(#clipPath3531)"
           id="g3529"><path
             d="m 0,720.754 720.754,0 L 720.754,0 0,0 0,720.754"
             id="path3535"
             style="fill:#ce0f3e;fill-opacity:1;fill-rule:nonzero;stroke:none" /><path
             d="m 579.988,346.445 0,-76.379 57.207,0 c 9.524,1.477 8.774,13.293 9.836,18.579 0.774,3.828 5.672,2.71 5.672,-0.215 l 0,-47.051 c -0.301,-2.5 -6.043,-2.414 -6.219,0 -0.398,5.484 1.27,18.562 -11.394,18.562 -0.168,0 -53.281,0 -53.281,0 0,0 -1.821,-0.207 -1.821,-1.894 0,-4.121 0,-71.953 0,-71.953 0,-9.715 -1.011,-13.711 4.043,-13.711 6.692,0 57.934,-0.215 58.75,-0.215 10.356,0 12.309,18.555 15.395,26.594 1.414,3.687 7.09,1.922 6.687,-0.637 -0.73,-4.52 -3.203,-25.32 -3.742,-28.66 -0.523,-3.332 -1.726,-7.004 -5.984,-7.004 -4.27,0 -78.742,0.066 -83.528,0.066 -4.8,0 -32.507,-0.269 -35.171,-0.269 l 0,4.43 c 5.859,0.324 12.351,1.32 15.398,3.585 4.414,3.282 7.285,6.946 7.285,17.508 0,17.207 0,138.203 0,138.203 -0.801,12.485 0.41,20.254 -21.875,20.254 l -9.336,10.34 c 65.215,-1.055 111.016,-0.422 122.57,0 4.657,0.172 7.489,-2.531 7.489,-5.699 0,0 -0.403,-22.149 0.097,-30.067 l -6.472,0 c 0,25.719 -15.344,25.633 -18.535,25.633 -15.762,0 -53.071,0 -53.071,0 l 0,0"
             id="path3537"
             style="fill:#ffffff;fill-opacity:1;fill-rule:nonzero;stroke:none" /><path
             d="m 68.8672,263.215 c -1.4453,1.094 -2.7539,2.254 -3.8828,3.484 -12.9532,14.141 -24.0469,56.121 19.414,81.863 15.2735,9.043 32.2856,7.594 40.3046,7.594 0,0 165.84,0 168.793,0 2.949,0 3.375,0 3.375,-2.953 l 0,-27.219 -4.855,0 c 0,17.309 -9.493,19.414 -13.711,20.254 l -50.434,0 c -2.949,0 -3.367,-1.687 -3.586,-4.215 l 0,-78.808 -22.152,0 c 0,37.32 0,76.844 0,78.172 0,2.531 0,4.636 -2.953,4.636 l -81.02,0 c -16.246,0 -22.453,-2.8 -29.9608,-7.168 -23.2148,-13.503 -15.3906,-44.644 -10.5508,-51.902 8.3243,-12.488 30.5936,-15.996 60.3636,-23.738 l -69.1448,0 0,0"
             id="path3539"
             style="fill:#ffffff;fill-opacity:1;fill-rule:nonzero;stroke:none" /><path
             d="m 291.938,263.215 c 24.109,48.062 49.839,99.406 50.507,100.746 1.266,2.531 3.375,1.687 4.008,-0.207 l 41.711,-100.539 -24.059,0 c -0.136,0.437 -0.328,0.973 -0.558,1.582 l -26.379,63.086 -31.438,-64.36 c -0.046,-0.105 -0.089,-0.222 -0.128,-0.308 l -13.664,0 0,0"
             id="path3541"
             style="fill:#ffffff;fill-opacity:1;fill-rule:nonzero;stroke:none" /><path
             d="m 462.395,263.215 0,83.133 -52.122,0 c -8.64,0 -11.914,-8.973 -12.128,-13.614 l 0,-4.851 -5.059,0 0,25.742 c 0,2.316 0.312,2.953 3.476,2.953 l 136.204,0 19.199,-10.34 -67.735,0 0,-83.023 -21.835,0 0,0"
             id="path3543"
             style="fill:#ffffff;fill-opacity:1;fill-rule:nonzero;stroke:none" /><path
             d="m 138.012,263.215 c 0.418,-0.102 0.832,-0.207 1.246,-0.324 35.449,-9.278 36.289,-40.633 36.289,-40.926 0,-27.031 -8.711,-39.223 -28.692,-55.285 -23.632,-18.985 -62.0308,-16.875 -91.148,-3.368 l 0,40.926 5.2735,0 c 0,-6.328 2.3203,-15.926 3.164,-18.039 0.8399,-2.105 1.375,-3.094 5.9102,-8.543 18.3047,-21.972 51.8983,-19.414 72.1563,-0.422 13.934,13.059 18.781,40.618 4.644,55.278 -11.394,11.812 -29.96,13.504 -40.511,16.043 -9.2698,2.218 -27.0081,6.726 -37.4768,14.66 l 69.1448,0 0,0"
             id="path3545"
             style="fill:#ffffff;fill-opacity:1;fill-rule:nonzero;stroke:none" /><path
             d="m 305.602,263.215 c -0.844,-2.285 0.003,-3.059 1.82,-3.059 l 10.129,0 -0.848,-11.816 -14.769,0 c -2.954,0 -4.008,-0.418 -5.274,-3.379 -1.265,-2.949 -26.797,-54.856 -26.797,-54.856 -8.652,-17.515 7.387,-22.793 11.606,-22.793 l 0,-4.851 -101.278,0 0,5.066 c 0,0 7.7,-0.332 14.344,0.84 7.18,1.274 6.754,10.551 6.754,13.508 0,2.961 0.844,11.816 0.844,15.195 0,0 0,32.16 0,66.145 l 22.152,0 0,-65.512 c 0,0 0.637,-6.758 1.063,-15.613 0.418,-8.867 5.48,-12.871 10.547,-12.871 5.062,0 11.605,7.383 14.343,10.761 0,0 20.207,40.313 41.7,83.235 l 13.664,0 0,0"
             id="path3547"
             style="fill:#ffffff;fill-opacity:1;fill-rule:nonzero;stroke:none" /><path
             d="m 484.23,263.215 0,-77.336 c 0,-15.606 14.356,-18.77 18.563,-18.567 l 4.863,0 0,-4.851 -125.332,0 0,5.066 8.653,0 c 5.898,0 9.074,10.547 6.961,15.188 l -26.161,62.246 c -0.847,2.324 -1.269,3.379 -4.011,3.379 l -52.328,0 1.265,11.816 45.996,0 c 1.594,0 2.149,0.598 1.406,3.059 l 24.059,0 31.289,-75.434 c 3.379,-8.015 12.344,-17.926 16.777,-19.508 4.434,-1.593 4.637,-1.269 12.981,-1.269 8.328,0 12.867,9.285 13.184,12.019 l 0,84.192 21.835,0 0,0"
             id="path3549"
             style="fill:#ffffff;fill-opacity:1;fill-rule:nonzero;stroke:none" /><path
             d="m 140.523,394.449 c 5.954,-0.469 13.051,-0.379 19.832,0.531 36.25,4.832 63.301,49.793 48.883,104.317 -12.644,47.793 -56.179,77.402 -96.226,66.394 -36.0237,-9.89 -57.2308,-58.921 -48.0276,-97.707 5.25,-22.121 26.4844,-69.214 75.5386,-73.535 l -2.636,-14.133 c -0.387,-0.004 -0.774,-0.004 -1.157,-0.004 -55.3745,0 -100.2652,44.352 -100.2652,99.063 0,54.711 45.1016,100.012 100.4732,100.012 55.371,0 100.042,-45.301 100.042,-100.012 0,-53.98 -44.75,-97.891 -99.093,-99.059 l 2.636,14.133 0,0"
             id="path3551"
             style="fill:#ffffff;fill-opacity:1;fill-rule:nonzero;stroke:none" /><path
             d="m 232.73,383.375 60.766,0 0,5.063 -8.441,0 c -3.375,0 -12.028,3.589 -12.028,18.566 0,14.984 0,75.961 0,75.961 l 93.051,0 0,-75.961 c 0,-9.492 -6.348,-18.059 -11.394,-18.566 -4.219,-0.418 -7.172,0 -7.172,0 l 0,-5.063 60.758,0 0,5.063 -8.434,0 c -5.063,1.48 -11.816,5.273 -11.816,18.566 0,13.293 0,150.019 0,150.019 0,14.981 8.015,15.399 11.609,15.399 l 8.641,0 0,5.066 -62.45,0 0,-5.066 8.653,0 c 3.164,0 11.605,-0.211 11.605,-15.192 l 0,-62.457 -92.84,0 0,62.457 c 0,14.981 6.543,15.192 10.125,15.192 l 8.446,0 0,5.066 -60.77,0 0,-5.066 8.438,0 c 3.589,0 11.824,-0.211 11.824,-15.192 l 0,-150.226 c 0,-18.356 -6.965,-18.566 -10.133,-18.566 l -8.438,0 0,-5.063"
             id="path3553"
             style="fill:#ffffff;fill-opacity:1;fill-rule:nonzero;stroke:none" /><path
             d="m 580.438,394.254 c 5.07,-0.211 11.457,-0.024 17.101,0.726 36.238,4.832 63.289,49.793 48.867,104.317 -12.636,47.793 -56.172,77.402 -96.211,66.394 -36.035,-9.89 -57.234,-58.921 -48.027,-97.707 5.344,-22.523 27.266,-70.961 78.27,-73.73 l -4.11,-13.91 c -0.422,-0.008 -2.004,-0.032 -2.422,-0.032 -55.371,0 -100.261,44.352 -100.261,99.063 0,54.711 45.093,100.012 100.464,100.012 55.371,0 100.051,-45.301 100.051,-100.012 0,-53.906 -43.586,-97.766 -97.832,-99.031 l 4.11,13.91 0,0"
             id="path3555"
             style="fill:#ffffff;fill-opacity:1;fill-rule:nonzero;stroke:none" /><path
             d="m 458.918,494.773 0,62.457 c 0,14.981 6.531,15.192 10.125,15.192 l 8.437,0 0,5.066 -60.761,0 0,-5.066 8.437,0 c 3.582,0 11.817,-0.211 11.817,-15.192 l 0,-150.226 c 0,-18.356 -4.856,-17.086 -10.125,-18.566 l -8.45,0 0,-5.063 59.082,0 0,5.063 -6.75,0 c -4.851,1.48 -12.031,3.589 -12.031,18.566 0,14.984 0,75.961 0,75.961 l 0.219,11.808 0,0"
             id="path3557"
             style="fill:#ffffff;fill-opacity:1;fill-rule:nonzero;stroke:none" /><path
             d="m 238.699,113.176 c 0,7.918 -0.101,8.621 9.645,9.129 l 0,3.047 c -4.871,-0.301 -9.645,-0.508 -14.614,-0.508 -4.976,0 -9.742,0.207 -14.312,0.508 l 0,-3.047 c 9.742,-0.508 9.641,-1.211 9.641,-9.129 l 0,-46.5822 c 0,-7.9102 0.101,-8.625 -9.641,-9.1329 l 0,-3.0468 c 4.57,0.3047 9.336,0.5078 14.312,0.5078 4.969,0 9.743,-0.2031 14.614,-0.5078 l 0,3.0468 c -9.746,0.5079 -9.645,1.2227 -9.645,9.1329 l 0,46.5822"
             id="path3559"
             style="fill:#ffffff;fill-opacity:1;fill-rule:nonzero;stroke:none" /><path
             d="m 238.699,113.176 c 0,7.918 -0.101,8.621 9.645,9.129 l 0,3.047 c -4.871,-0.301 -9.645,-0.508 -14.614,-0.508 -4.976,0 -9.742,0.207 -14.312,0.508 l 0,-3.047 c 9.742,-0.508 9.641,-1.211 9.641,-9.129 l 0,-46.5822 c 0,-7.9102 0.101,-8.625 -9.641,-9.1329 l 0,-3.0468 c 4.57,0.3047 9.336,0.5078 14.312,0.5078 4.969,0 9.743,-0.2031 14.614,-0.5078 l 0,3.0468 c -9.746,0.5079 -9.645,1.2227 -9.645,9.1329 l 0,46.5822 z"
             id="path3561"
             style="fill:none;stroke:#ffffff;stroke-width:1.49457002;stroke-linecap:butt;stroke-linejoin:miter;stroke-miterlimit:3.8636899;stroke-opacity:1;stroke-dasharray:none" /><path
             d="m 345.891,87.9688 c 22.957,0.8085 23.671,1.4257 23.671,-10.0469 l 3.348,0 0,23.4571 -3.348,0 c -0.109,-9.9532 -1.527,-8.7306 -23.671,-8.5274 l 0,18.9964 c 0,3.55 0.101,5.886 0.511,8.425 3.344,0.508 8.125,0.508 12.59,0.508 5.078,0 10.266,-0.207 15.141,-1.726 0.703,-3.149 1.316,-5.996 1.414,-9.953 l 3.152,0 c 0,2.128 0.305,3.859 0.305,5.988 0.098,3.25 0.508,6.504 1.621,9.851 -3.445,0.508 -10.457,0.411 -16.859,0.508 -6.094,-0.301 -12.289,-0.508 -18.586,-0.508 -6.297,0 -12.391,0.207 -18.586,0.508 l 0,-3.047 c 9.75,-0.507 9.644,-1.218 9.644,-9.14 l 0,-46.6214 c 0,-6.8047 -3.656,-8.9375 -8.734,-9.1406 l 0,-3.0469 c 6.195,0.3047 12.187,0.5078 18.387,0.5078 6.195,0 12.293,-0.2031 18.281,-0.5078 6.297,0.1094 13.101,0 16.863,0.5078 l 0,8.4297 c 0,3.25 0.606,6.1016 1.016,8.2305 l -3.352,0 -0.918,-5.5859 c -0.203,-1.8243 -0.711,-3.6602 -1.219,-5.1836 -5.285,-1.5274 -10.863,-1.7188 -16.351,-1.7188 -4.875,0 -10.055,0 -13.809,0.5078 -0.41,2.6328 -0.511,5.0782 -0.511,8.7266 l 0,19.6016"
             id="path3563"
             style="fill:#ffffff;fill-opacity:1;fill-rule:nonzero;stroke:none" /><path
             d="m 345.891,87.9688 c 22.957,0.8085 23.671,1.4257 23.671,-10.0469 l 3.348,0 0,23.4571 -3.348,0 c -0.109,-9.9532 -1.527,-8.7306 -23.671,-8.5274 l 0,18.9964 c 0,3.55 0.101,5.886 0.511,8.425 3.344,0.508 8.125,0.508 12.59,0.508 5.078,0 10.266,-0.207 15.141,-1.726 0.703,-3.149 1.316,-5.996 1.414,-9.953 l 3.152,0 c 0,2.128 0.305,3.859 0.305,5.988 0.098,3.25 0.508,6.504 1.621,9.851 -3.445,0.508 -10.457,0.411 -16.859,0.508 -6.094,-0.301 -12.289,-0.508 -18.586,-0.508 -6.297,0 -12.391,0.207 -18.586,0.508 l 0,-3.047 c 9.75,-0.507 9.644,-1.218 9.644,-9.14 l 0,-46.6214 c 0,-6.8047 -3.656,-8.9375 -8.734,-9.1406 l 0,-3.0469 c 6.195,0.3047 12.187,0.5078 18.387,0.5078 6.195,0 12.293,-0.2031 18.281,-0.5078 6.297,0.1094 13.101,0 16.863,0.5078 l 0,8.4297 c 0,3.25 0.606,6.1016 1.016,8.2305 l -3.352,0 -0.918,-5.5859 c -0.203,-1.8243 -0.711,-3.6602 -1.219,-5.1836 -5.285,-1.5274 -10.863,-1.7188 -16.351,-1.7188 -4.875,0 -10.055,0 -13.809,0.5078 -0.41,2.6328 -0.511,5.0782 -0.511,8.7266 l 0,19.6016 z"
             id="path3565"
             style="fill:none;stroke:#ffffff;stroke-width:1.49457002;stroke-linecap:butt;stroke-linejoin:miter;stroke-miterlimit:3.8636899;stroke-opacity:1;stroke-dasharray:none" /><path
             d="m 398.145,66.6016 c 0,-7.918 0.097,-8.6328 -9.649,-9.1407 l 0,-3.0468 c 4.57,0.3047 9.336,0.5078 14.316,0.5078 4.981,0 9.754,-0.2031 14.629,-0.5078 l 0,3.0468 c -9.753,0.5079 -9.648,1.2227 -9.648,9.1407 l 0,46.6214 c 0,3.156 0,5.285 0.605,7.011 2.747,0.813 6.602,1.321 10.157,1.321 7.519,0 15.644,-3.254 15.644,-14.219 0,-7.5235 -6.094,-13.0001 -13.203,-14.2227 -3.047,-0.5078 -6.199,-0.6133 -9.348,-0.4102 l -0.41,-1.5195 24.184,-31.0781 c 1.414,-1.7266 2.539,-3.5508 4.156,-5.6914 2.336,0.3047 4.57,0.5078 6.906,0.5078 2.344,0 4.676,-0.2031 6.914,-0.5078 l 0,3.0468 c -2.031,0.3047 -4.168,0.918 -5.793,2.8438 l -23.054,30.0664 c 9.851,1.9258 19.804,8.5351 19.804,19.6089 0,8.528 -6.503,16.145 -20.515,15.43 -5.891,-0.305 -11.778,-0.508 -17.778,-0.508 -5.996,0 -11.882,0.203 -17.566,0.508 l 0,-3.047 c 9.746,-0.508 9.649,-1.218 9.649,-9.14 l 0,-46.6214"
             id="path3567"
             style="fill:#ffffff;fill-opacity:1;fill-rule:nonzero;stroke:none" /><path
             d="m 398.145,66.6016 c 0,-7.918 0.097,-8.6328 -9.649,-9.1407 l 0,-3.0468 c 4.57,0.3047 9.336,0.5078 14.316,0.5078 4.981,0 9.754,-0.2031 14.629,-0.5078 l 0,3.0468 c -9.753,0.5079 -9.648,1.2227 -9.648,9.1407 l 0,46.6214 c 0,3.156 0,5.285 0.605,7.011 2.747,0.813 6.602,1.321 10.157,1.321 7.519,0 15.644,-3.254 15.644,-14.219 0,-7.5235 -6.094,-13.0001 -13.203,-14.2227 -3.047,-0.5078 -6.199,-0.6133 -9.348,-0.4102 l -0.41,-1.5195 24.184,-31.0781 c 1.414,-1.7266 2.539,-3.5508 4.156,-5.6914 2.336,0.3047 4.57,0.5078 6.906,0.5078 2.344,0 4.676,-0.2031 6.914,-0.5078 l 0,3.0468 c -2.031,0.3047 -4.168,0.918 -5.793,2.8438 l -23.054,30.0664 c 9.851,1.9258 19.804,8.5351 19.804,19.6089 0,8.528 -6.503,16.145 -20.515,15.43 -5.891,-0.305 -11.778,-0.508 -17.778,-0.508 -5.996,0 -11.882,0.203 -17.566,0.508 l 0,-3.047 c 9.746,-0.508 9.649,-1.218 9.649,-9.14 l 0,-46.6214 z"
             id="path3569"
             style="fill:none;stroke:#ffffff;stroke-width:1.49457002;stroke-linecap:butt;stroke-linejoin:miter;stroke-miterlimit:3.8636899;stroke-opacity:1;stroke-dasharray:none" /><path
             d="m 498.828,108.391 c 0.098,3.047 0.508,5.996 0.715,9.043 0.098,1.621 0.508,3.25 0.809,4.871 -6.399,2.441 -12.793,4.675 -19.707,4.675 -13.094,0 -24.883,-8.835 -24.883,-22.75 0,-29.562 40.222,-6.6011 40.222,-31.1831 0,-10.0586 -8.933,-15.4414 -18.074,-15.4414 -5.183,0 -11.68,1.1172 -15.742,4.6679 -1.223,1.125 -1.426,3.0469 -1.426,5.2852 l 0,4.7773 -3.457,0 0,-2.8437 c -0.097,-3.9649 -0.305,-8.8399 -0.715,-12.6953 5.598,-2.3438 11.282,-3.8672 17.375,-3.8672 15.137,0 30.672,8.332 30.672,25.7031 0,25.4882 -40.429,7.207 -40.429,29.2502 0,8.738 7.121,14.527 15.453,14.527 4.761,0 11.98,-1.629 14.714,-5.894 1.016,-1.621 1.016,-4.27 1.016,-8.125 l 3.457,0 0,0"
             id="path3571"
             style="fill:#ffffff;fill-opacity:1;fill-rule:nonzero;stroke:none" /><path
             d="m 498.828,108.391 c 0.098,3.047 0.508,5.996 0.715,9.043 0.098,1.621 0.508,3.25 0.809,4.871 -6.399,2.441 -12.793,4.675 -19.707,4.675 -13.094,0 -24.883,-8.835 -24.883,-22.75 0,-29.562 40.222,-6.6011 40.222,-31.1831 0,-10.0586 -8.933,-15.4414 -18.074,-15.4414 -5.183,0 -11.68,1.1172 -15.742,4.6679 -1.223,1.125 -1.426,3.0469 -1.426,5.2852 l 0,4.7773 -3.457,0 0,-2.8437 c -0.097,-3.9649 -0.305,-8.8399 -0.715,-12.6953 5.598,-2.3438 11.282,-3.8672 17.375,-3.8672 15.137,0 30.672,8.332 30.672,25.7031 0,25.4882 -40.429,7.207 -40.429,29.2502 0,8.738 7.121,14.527 15.453,14.527 4.761,0 11.98,-1.629 14.714,-5.894 1.016,-1.621 1.016,-4.27 1.016,-8.125 l 3.457,0 0,0 z"
             id="path3573"
             style="fill:none;stroke:#ffffff;stroke-width:1.49457002;stroke-linecap:butt;stroke-linejoin:miter;stroke-miterlimit:3.8636899;stroke-opacity:1;stroke-dasharray:none" /><path
             d="m 529.562,113.254 c 0,7.918 -0.109,8.633 9.649,9.141 l 0,3.043 c -4.887,-0.301 -9.649,-0.504 -14.633,-0.504 -4.976,0 -9.754,0.203 -14.324,0.504 l 0,-3.043 c 9.758,-0.508 9.648,-1.223 9.648,-9.141 l 0,-46.6212 c 0,-7.9219 0.11,-8.6328 -9.648,-9.1445 l 0,-3.0469 c 4.57,0.3047 9.348,0.5078 14.324,0.5078 4.984,0 9.746,-0.2031 14.633,-0.5078 l 0,3.0469 c -9.758,0.5117 -9.649,1.2226 -9.649,9.1445 l 0,46.6212"
             id="path3575"
             style="fill:#ffffff;fill-opacity:1;fill-rule:nonzero;stroke:none" /><path
             d="m 529.562,113.254 c 0,7.918 -0.109,8.633 9.649,9.141 l 0,3.043 c -4.887,-0.301 -9.649,-0.504 -14.633,-0.504 -4.976,0 -9.754,0.203 -14.324,0.504 l 0,-3.043 c 9.758,-0.508 9.648,-1.223 9.648,-9.141 l 0,-46.6212 c 0,-7.9219 0.11,-8.6328 -9.648,-9.1445 l 0,-3.0469 c 4.57,0.3047 9.348,0.5078 14.324,0.5078 4.984,0 9.746,-0.2031 14.633,-0.5078 l 0,3.0469 c -9.758,0.5117 -9.649,1.2226 -9.649,9.1445 l 0,46.6212 z"
             id="path3577"
             style="fill:none;stroke:#ffffff;stroke-width:1.49457002;stroke-linecap:butt;stroke-linejoin:miter;stroke-miterlimit:3.8636899;stroke-opacity:1;stroke-dasharray:none" /><path
             d="m 568.918,66.6016 c 0,-7.918 0.098,-8.6328 -9.648,-9.1407 l 0,-3.0468 c 4.57,0.3047 9.335,0.5078 14.316,0.5078 4.976,0 9.754,-0.2031 14.629,-0.5078 l 0,3.0468 c -9.758,0.5079 -9.653,1.2227 -9.653,9.1407 l 0,43.4764 c 0.098,3.86 0.098,7.11 0.403,10.156 l 15.847,-0.515 c 2.129,-0.102 3.352,-0.403 3.555,-3.039 0.403,-2.442 1.02,-5.078 1.113,-7.825 l 3.047,0 c 0,1.926 0,3.762 0.11,5.688 0.097,3.555 0.207,7.105 0.508,10.867 -9.852,-0.305 -19.5,-0.508 -29.356,-0.508 -9.949,0 -19.609,0.203 -29.258,0.508 0.313,-3.762 0.41,-7.312 0.508,-10.867 0.106,-1.926 0.106,-3.762 0.106,-5.688 l 3.046,0 c 0.102,2.747 0.715,5.383 1.118,7.825 0.203,2.636 1.421,2.937 3.562,3.039 l 15.637,0.515 c 0.301,-3.046 0.301,-6.296 0.41,-10.156 l 0,-43.4764"
             id="path3579"
             style="fill:#ffffff;fill-opacity:1;fill-rule:nonzero;stroke:none" /><path
             d="m 568.918,66.6016 c 0,-7.918 0.098,-8.6328 -9.648,-9.1407 l 0,-3.0468 c 4.57,0.3047 9.335,0.5078 14.316,0.5078 4.976,0 9.754,-0.2031 14.629,-0.5078 l 0,3.0468 c -9.758,0.5079 -9.653,1.2227 -9.653,9.1407 l 0,43.4764 c 0.098,3.86 0.098,7.11 0.403,10.156 l 15.847,-0.515 c 2.129,-0.102 3.352,-0.403 3.555,-3.039 0.403,-2.442 1.02,-5.078 1.113,-7.825 l 3.047,0 c 0,1.926 0,3.762 0.11,5.688 0.097,3.555 0.207,7.105 0.508,10.867 -9.852,-0.305 -19.5,-0.508 -29.356,-0.508 -9.949,0 -19.609,0.203 -29.258,0.508 0.313,-3.762 0.41,-7.312 0.508,-10.867 0.106,-1.926 0.106,-3.762 0.106,-5.688 l 3.046,0 c 0.102,2.747 0.715,5.383 1.118,7.825 0.203,2.636 1.421,2.937 3.562,3.039 l 15.637,0.515 c 0.301,-3.046 0.301,-6.296 0.41,-10.156 l 0,-43.4764 z"
             id="path3581"
             style="fill:none;stroke:#ffffff;stroke-width:1.49457002;stroke-linecap:butt;stroke-linejoin:miter;stroke-miterlimit:3.8636899;stroke-opacity:1;stroke-dasharray:none" /><path
             d="m 151.918,125.461 c -2.996,-0.305 -5.887,-0.512 -8.887,-0.512 -3.093,0 -5.992,0.207 -8.984,0.512 l 0,-3.051 1.445,0 c 5.781,-0.105 7.438,-1.012 7.438,-6.91 l 0,-51.0859 c 0,-5.8907 -1.86,-6.8086 -8.164,-6.8086 l -1.653,-0.0938 0,-3.0586 c 4.133,0.3125 8.27,0.5196 12.399,0.5196 4.136,0 8.265,-0.2071 12.297,-0.5196 l 0,3.0586 -1.657,0.0938 c -6.504,0 -8.472,0.9179 -8.472,6.8086 l 0,49.5629 49.898,-59.6215 8.164,-1.4258 -0.312,3.7578 0,58.8125 c 0,5.898 1.965,6.805 8.472,6.805 l 1.657,0.105 0,3.051 c -4.036,-0.305 -8.164,-0.512 -12.297,-0.512 -4.129,0 -8.266,0.207 -12.399,0.512 l 0,-3.051 1.657,-0.105 c 6.296,0 8.16,-0.907 8.16,-6.805 l 0,-50.4805 -48.762,60.4415 0,0"
             id="path3583"
             style="fill:#ffffff;fill-opacity:1;fill-rule:nonzero;stroke:none" /><path
             d="m 151.918,125.461 c -2.996,-0.305 -5.887,-0.512 -8.887,-0.512 -3.093,0 -5.992,0.207 -8.984,0.512 l 0,-3.051 1.445,0 c 5.781,-0.105 7.438,-1.012 7.438,-6.91 l 0,-51.0859 c 0,-5.8907 -1.86,-6.8086 -8.164,-6.8086 l -1.653,-0.0938 0,-3.0586 c 4.133,0.3125 8.27,0.5196 12.399,0.5196 4.136,0 8.265,-0.2071 12.297,-0.5196 l 0,3.0586 -1.657,0.0938 c -6.504,0 -8.472,0.9179 -8.472,6.8086 l 0,49.5629 49.898,-59.6215 8.164,-1.4258 -0.312,3.7578 0,58.8125 c 0,5.898 1.965,6.805 8.472,6.805 l 1.657,0.105 0,3.051 c -4.036,-0.305 -8.164,-0.512 -12.297,-0.512 -4.129,0 -8.266,0.207 -12.399,0.512 l 0,-3.051 1.657,-0.105 c 6.296,0 8.16,-0.907 8.16,-6.805 l 0,-50.4805 -48.762,60.4415 0,0 z"
             id="path3585"
             style="fill:none;stroke:#ffffff;stroke-width:1.49457002;stroke-linecap:butt;stroke-linejoin:miter;stroke-miterlimit:3.8636899;stroke-opacity:1;stroke-dasharray:none" /><path
             d="m 70.0195,113.273 c 0,7.918 -0.1133,8.629 10.336,9.137 l 0,3.051 c -5.2188,-0.305 -10.336,-0.512 -15.668,-0.512 -5.332,0 -10.4453,0.207 -15.3477,0.512 l 0,-3.051 c 10.4493,-0.508 10.3438,-1.219 10.3438,-9.137 l 0,-36.5621 c 0,-5.0898 0,-8.7421 2.7187,-13.3125 5.2266,-9.0429 17.086,-10.4687 26.9883,-10.4687 4.3555,0 10.5547,0.8203 14.6914,2.1367 3.914,1.2227 9.141,4.875 11.316,8.125 3.27,4.875 4.793,9.25 4.793,14.8359 l 0,37.4727 c 0,5.898 2.071,6.805 8.918,6.805 l 1.746,0.105 0,3.051 c -4.246,-0.305 -8.593,-0.512 -12.949,-0.512 -4.355,0 -8.707,0.207 -13.062,0.512 l 0,-3.051 1.742,-0.105 c 6.637,0 8.602,-0.907 8.602,-6.805 l 0,-32.2969 c 0,-6.1914 -0.985,-12.3906 -4.36,-16.9648 -3.914,-5.3789 -11.8632,-7 -18.4999,-7 -14.2578,0 -22.9648,4.1601 -22.3086,18.582 l 0,35.4527"
             id="path3587"
             style="fill:#ffffff;fill-opacity:1;fill-rule:nonzero;stroke:none" /><path
             d="m 70.0195,113.273 c 0,7.918 -0.1133,8.629 10.336,9.137 l 0,3.051 c -5.2188,-0.305 -10.336,-0.512 -15.668,-0.512 -5.332,0 -10.4453,0.207 -15.3477,0.512 l 0,-3.051 c 10.4493,-0.508 10.3438,-1.219 10.3438,-9.137 l 0,-36.5621 c 0,-5.0898 0,-8.7421 2.7187,-13.3125 5.2266,-9.0429 17.086,-10.4687 26.9883,-10.4687 4.3555,0 10.5547,0.8203 14.6914,2.1367 3.914,1.2227 9.141,4.875 11.316,8.125 3.27,4.875 4.793,9.25 4.793,14.8359 l 0,37.4727 c 0,5.898 2.071,6.805 8.918,6.805 l 1.746,0.105 0,3.051 c -4.246,-0.305 -8.593,-0.512 -12.949,-0.512 -4.355,0 -8.707,0.207 -13.062,0.512 l 0,-3.051 1.742,-0.105 c 6.637,0 8.602,-0.907 8.602,-6.805 l 0,-32.2969 c 0,-6.1914 -0.985,-12.3906 -4.36,-16.9648 -3.914,-5.3789 -11.8632,-7 -18.4999,-7 -14.2578,0 -22.9648,4.1601 -22.3086,18.582 l 0,35.4527 z"
             id="path3589"
             style="fill:none;stroke:#ffffff;stroke-width:1.49457002;stroke-linecap:butt;stroke-linejoin:miter;stroke-miterlimit:3.8636899;stroke-opacity:1;stroke-dasharray:none" /><path
             d="m 280.367,69.8945 3.918,-9.2422 2.469,-6.6093 5.605,0 7.957,18.8008 18.723,41.7462 c 2.016,4.465 2.238,8.222 9.418,7.812 l 0,3.047 c -4.031,-0.301 -7.961,-0.508 -12.109,-0.508 -4.145,0 -8.071,0.207 -12.106,0.508 l 0,-3.047 c 13.453,0.41 9.977,-4.062 7.735,-9.746 l -4.825,-12.297 -14.679,-33.1012 -17.489,40.1172 -4.261,11.277 c -0.782,2.032 -1.461,3.953 9.3,3.75 l 0,3.047 c -4.925,-0.301 -9.863,-0.508 -14.906,-0.508 -5.043,0 -9.976,0.207 -14.914,0.508 l 0,-3.047 2.133,-0.097 c 6.172,-0.821 5.269,-1.219 7.738,-6.7 l 20.293,-45.7105 0,0"
             id="path3591"
             style="fill:#ffffff;fill-opacity:1;fill-rule:nonzero;stroke:none" /><path
             d="m 280.367,69.8945 3.918,-9.2422 2.469,-6.6093 5.605,0 7.957,18.8008 18.723,41.7462 c 2.016,4.465 2.238,8.222 9.418,7.812 l 0,3.047 c -4.031,-0.301 -7.961,-0.508 -12.109,-0.508 -4.145,0 -8.071,0.207 -12.106,0.508 l 0,-3.047 c 13.453,0.41 9.977,-4.062 7.735,-9.746 l -4.825,-12.297 -14.679,-33.1012 -17.489,40.1172 -4.261,11.277 c -0.782,2.032 -1.461,3.953 9.3,3.75 l 0,3.047 c -4.925,-0.301 -9.863,-0.508 -14.906,-0.508 -5.043,0 -9.976,0.207 -14.914,0.508 l 0,-3.047 2.133,-0.097 c 6.172,-0.821 5.269,-1.219 7.738,-6.7 l 20.293,-45.7105 0,0 z"
             id="path3593"
             style="fill:none;stroke:#ffffff;stroke-width:1.49457002;stroke-linecap:butt;stroke-linejoin:miter;stroke-miterlimit:3.8636899;stroke-opacity:1;stroke-dasharray:none" /><path
             d="m 627.559,116.023 c -1.426,2.336 -2.84,4.465 -4.473,6.606 -1.731,2.129 -3.25,3.855 -6.191,3.348 l -10.774,-2.129 0,-2.95 c 7.219,0.813 13.41,-9.14 16.762,-14.929 l 12.183,-21.3284 c 0.508,-1.1172 0.508,-2.3359 0.508,-3.1562 l 0,-14.9219 c 0,-7.918 0.11,-8.6328 -9.644,-9.1406 l 0,-3.0469 c 4.566,0.3047 9.343,0.5078 14.324,0.5078 4.973,0 9.746,-0.2031 14.617,-0.5078 l 0,3.0469 c -9.742,0.5078 -9.644,1.2226 -9.644,9.1406 l 0,13.6055 c 0,2.4375 0.203,4.9804 1.421,7.6132 4.164,9.043 16.457,26.2108 24.993,36.0668 l 0,1.523 -8.125,0 c -3.36,-6.504 -7.121,-12.805 -10.977,-19.309 l -10.461,-16.5503 -14.519,26.5113 0,0"
             id="path3595"
             style="fill:#ffffff;fill-opacity:1;fill-rule:nonzero;stroke:none" /><path
             d="m 627.559,116.023 c -1.426,2.336 -2.84,4.465 -4.473,6.606 -1.731,2.129 -3.25,3.855 -6.191,3.348 l -10.774,-2.129 0,-2.95 c 7.219,0.813 13.41,-9.14 16.762,-14.929 l 12.183,-21.3284 c 0.508,-1.1172 0.508,-2.3359 0.508,-3.1562 l 0,-14.9219 c 0,-7.918 0.11,-8.6328 -9.644,-9.1406 l 0,-3.0469 c 4.566,0.3047 9.343,0.5078 14.324,0.5078 4.973,0 9.746,-0.2031 14.617,-0.5078 l 0,3.0469 c -9.742,0.5078 -9.644,1.2226 -9.644,9.1406 l 0,13.6055 c 0,2.4375 0.203,4.9804 1.421,7.6132 4.164,9.043 16.457,26.2108 24.993,36.0668 l 0,1.523 -8.125,0 c -3.36,-6.504 -7.121,-12.805 -10.977,-19.309 l -10.461,-16.5503 -14.519,26.5113 0,0 z"
             id="path3597"
             style="fill:none;stroke:#ffffff;stroke-width:1.49457002;stroke-linecap:butt;stroke-linejoin:miter;stroke-miterlimit:3.8636899;stroke-opacity:1;stroke-dasharray:none" /><path
             d="m 75.875,614.453 c 0,-7.754 0.0977,-8.453 -9.4492,-8.945 l 0,-2.985 c 4.4726,0.297 9.1523,0.497 14.0195,0.497 4.8711,0 9.543,-0.2 14.3164,-0.497 l 0,2.985 c -9.5469,0.492 -9.4453,1.191 -9.4453,8.945 l 0,42.559 c 0.0977,3.781 0.0977,6.957 0.4024,9.941 l 15.5082,-0.496 c 2.089,-0.098 3.281,-0.398 3.48,-2.98 0.395,-2.387 0.996,-4.977 1.094,-7.661 l 2.976,0 c 0,1.895 0,3.68 0.106,5.571 0.097,3.48 0.199,6.957 0.496,10.64 -9.6485,-0.297 -19.0899,-0.5 -28.7345,-0.5 -9.7461,0 -19.1875,0.203 -28.6367,0.5 0.2969,-3.683 0.3945,-7.16 0.4922,-10.64 0.1016,-1.891 0.1016,-3.676 0.1016,-5.571 l 2.9843,0 c 0.0977,2.684 0.6993,5.274 1.0938,7.661 0.1992,2.582 1.3906,2.882 3.4805,2.98 l 15.3125,0.496 c 0.3007,-2.984 0.3007,-6.16 0.4023,-9.941 l 0,-42.559"
             id="path3599"
             style="fill:#ffffff;fill-opacity:1;fill-rule:nonzero;stroke:none" /><path
             d="m 75.875,614.453 c 0,-7.754 0.0977,-8.453 -9.4492,-8.945 l 0,-2.985 c 4.4726,0.297 9.1523,0.497 14.0195,0.497 4.8711,0 9.543,-0.2 14.3164,-0.497 l 0,2.985 c -9.5469,0.492 -9.4453,1.191 -9.4453,8.945 l 0,42.559 c 0.0977,3.781 0.0977,6.957 0.4024,9.941 l 15.5082,-0.496 c 2.089,-0.098 3.281,-0.398 3.48,-2.98 0.395,-2.387 0.996,-4.977 1.094,-7.661 l 2.976,0 c 0,1.895 0,3.68 0.106,5.571 0.097,3.48 0.199,6.957 0.496,10.64 -9.6485,-0.297 -19.0899,-0.5 -28.7345,-0.5 -9.7461,0 -19.1875,0.203 -28.6367,0.5 0.2969,-3.683 0.3945,-7.16 0.4922,-10.64 0.1016,-1.891 0.1016,-3.676 0.1016,-5.571 l 2.9843,0 c 0.0977,2.684 0.6993,5.274 1.0938,7.661 0.1992,2.582 1.3906,2.882 3.4805,2.98 l 15.3125,0.496 c 0.3007,-2.984 0.3007,-6.16 0.4023,-9.941 l 0,-42.559 z"
             id="path3601"
             style="fill:none;stroke:#ffffff;stroke-width:1.49457002;stroke-linecap:butt;stroke-linejoin:miter;stroke-miterlimit:3.8636899;stroke-opacity:1;stroke-dasharray:none" /><path
             d="m 386.895,660.094 c 0,7.758 -0.086,8.453 8.503,8.949 l 0,2.984 c -4.293,-0.297 -8.503,-0.5 -12.886,-0.5 -4.387,0 -8.586,0.203 -12.61,0.5 l 0,-2.984 c 8.582,-0.496 8.496,-1.191 8.496,-8.949 l 0,-18.395 -35.796,0 0,18.395 c 0,7.758 -0.086,8.453 8.507,8.949 l 0,2.984 c -4.297,-0.297 -8.507,-0.5 -12.886,-0.5 -4.383,0 -8.59,0.203 -12.618,0.5 l 0,-2.984 c 8.59,-0.496 8.5,-1.191 8.5,-8.949 l 0,-45.641 c 0,-7.754 0.09,-8.453 -8.5,-8.945 l 0,-2.985 c 4.028,0.297 8.235,0.497 12.618,0.497 4.379,0 8.589,-0.2 12.886,-0.497 l 0,2.985 c -8.593,0.492 -8.507,1.191 -8.507,8.945 l 0,23.067 35.796,0 0,-23.067 c 0,-7.754 0.086,-8.453 -8.496,-8.945 l 0,-2.985 c 4.024,0.297 8.223,0.497 12.61,0.497 4.383,0 8.593,-0.2 12.886,-0.497 l 0,2.985 c -8.589,0.492 -8.503,1.191 -8.503,8.945 l 0,45.641"
             id="path3603"
             style="fill:#ffffff;fill-opacity:1;fill-rule:nonzero;stroke:none" /><path
             d="m 386.895,660.094 c 0,7.758 -0.086,8.453 8.503,8.949 l 0,2.984 c -4.293,-0.297 -8.503,-0.5 -12.886,-0.5 -4.387,0 -8.586,0.203 -12.61,0.5 l 0,-2.984 c 8.582,-0.496 8.496,-1.191 8.496,-8.949 l 0,-18.395 -35.796,0 0,18.395 c 0,7.758 -0.086,8.453 8.507,8.949 l 0,2.984 c -4.297,-0.297 -8.507,-0.5 -12.886,-0.5 -4.383,0 -8.59,0.203 -12.618,0.5 l 0,-2.984 c 8.59,-0.496 8.5,-1.191 8.5,-8.949 l 0,-45.641 c 0,-7.754 0.09,-8.453 -8.5,-8.945 l 0,-2.985 c 4.028,0.297 8.235,0.497 12.618,0.497 4.379,0 8.589,-0.2 12.886,-0.497 l 0,2.985 c -8.593,0.492 -8.507,1.191 -8.507,8.945 l 0,23.067 35.796,0 0,-23.067 c 0,-7.754 0.086,-8.453 -8.496,-8.945 l 0,-2.985 c 4.024,0.297 8.223,0.497 12.61,0.497 4.383,0 8.593,-0.2 12.886,-0.497 l 0,2.985 c -8.589,0.492 -8.503,1.191 -8.503,8.945 l 0,45.641 z"
             id="path3605"
             style="fill:none;stroke:#ffffff;stroke-width:1.49457002;stroke-linecap:butt;stroke-linejoin:miter;stroke-miterlimit:3.8636899;stroke-opacity:1;stroke-dasharray:none" /><path
             d="m 621.777,635.336 c 20.227,0.793 20.852,1.394 20.852,-9.844 l 2.945,0 0,22.969 -2.945,0 c -0.102,-9.746 -1.352,-8.555 -20.852,-8.352 l 0,18.594 c 0,3.477 0.086,5.77 0.442,8.25 2.957,0.5 7.168,0.5 11.101,0.5 4.473,0 9.035,-0.203 13.328,-1.691 0.625,-3.086 1.164,-5.867 1.25,-9.746 l 2.778,0 c 0,2.089 0.269,3.781 0.269,5.871 0.09,3.175 0.442,6.359 1.438,9.64 -3.047,0.5 -9.219,0.399 -14.863,0.5 -5.364,-0.297 -10.821,-0.5 -16.368,-0.5 -5.554,0 -10.918,0.203 -16.379,0.5 l 0,-2.984 c 8.586,-0.496 8.497,-1.191 8.497,-8.949 l 0,-45.641 c 0,-6.66 -3.219,-8.75 -7.696,-8.945 l 0,-2.985 c 5.461,0.297 10.742,0.497 16.203,0.497 5.457,0 10.821,-0.2 16.106,-0.497 5.547,0.098 11.543,0 14.851,0.497 l 0,8.25 c 0,3.183 0.536,5.964 0.899,8.054 l -2.957,0 -0.805,-5.469 c -0.183,-1.785 -0.625,-3.578 -1.07,-5.066 -4.653,-1.492 -9.582,-1.687 -14.406,-1.687 -4.297,0 -8.86,0 -12.176,0.492 -0.356,2.582 -0.442,4.968 -0.442,8.551 l 0,19.191"
             id="path3607"
             style="fill:#ffffff;fill-opacity:1;fill-rule:evenodd;stroke:none" /><path
             d="m 621.777,635.336 c 20.227,0.793 20.852,1.394 20.852,-9.844 l 2.945,0 0,22.969 -2.945,0 c -0.102,-9.746 -1.352,-8.555 -20.852,-8.352 l 0,18.594 c 0,3.477 0.086,5.77 0.442,8.25 2.957,0.5 7.168,0.5 11.101,0.5 4.473,0 9.035,-0.203 13.328,-1.691 0.625,-3.086 1.164,-5.867 1.25,-9.746 l 2.778,0 c 0,2.089 0.269,3.781 0.269,5.871 0.09,3.175 0.442,6.359 1.438,9.64 -3.047,0.5 -9.219,0.399 -14.863,0.5 -5.364,-0.297 -10.821,-0.5 -16.368,-0.5 -5.554,0 -10.918,0.203 -16.379,0.5 l 0,-2.984 c 8.586,-0.496 8.497,-1.191 8.497,-8.949 l 0,-45.641 c 0,-6.66 -3.219,-8.75 -7.696,-8.945 l 0,-2.985 c 5.461,0.297 10.742,0.497 16.203,0.497 5.457,0 10.821,-0.2 16.106,-0.497 5.547,0.098 11.543,0 14.851,0.497 l 0,8.25 c 0,3.183 0.536,5.964 0.899,8.054 l -2.957,0 -0.805,-5.469 c -0.183,-1.785 -0.625,-3.578 -1.07,-5.066 -4.653,-1.492 -9.582,-1.687 -14.406,-1.687 -4.297,0 -8.86,0 -12.176,0.492 -0.356,2.582 -0.442,4.968 -0.442,8.551 l 0,19.191 z"
             id="path3609"
             style="fill:none;stroke:#ffffff;stroke-width:1.49457002;stroke-linecap:butt;stroke-linejoin:miter;stroke-miterlimit:3.8636899;stroke-opacity:1;stroke-dasharray:none" /><path
             d="m 503.02,635.695 c 3.613,0 6.558,2.942 6.558,6.571 0,3.625 -2.945,6.562 -6.558,6.562 -3.633,0 -6.575,-2.937 -6.575,-6.562 0,-3.629 2.942,-6.571 6.575,-6.571 l 0,0"
             id="path3611"
             style="fill:#ffffff;fill-opacity:1;fill-rule:nonzero;stroke:none" /><path
             d="m 503.02,635.695 c 3.613,0 6.558,2.942 6.558,6.571 0,3.625 -2.945,6.562 -6.558,6.562 -3.633,0 -6.575,-2.937 -6.575,-6.562 0,-3.629 2.942,-6.571 6.575,-6.571 l 0,0 z"
             id="path3613"
             style="fill:none;stroke:#ffffff;stroke-width:3.73641992;stroke-linecap:butt;stroke-linejoin:miter;stroke-miterlimit:3.8636899;stroke-opacity:1;stroke-dasharray:none" /><path
             d="m 218.59,635.695 c 3.629,0 6.566,2.942 6.566,6.571 0,3.625 -2.937,6.562 -6.566,6.562 -3.617,0 -6.563,-2.937 -6.563,-6.562 0,-3.629 2.946,-6.571 6.563,-6.571 l 0,0"
             id="path3615"
             style="fill:#ffffff;fill-opacity:1;fill-rule:nonzero;stroke:none" /><path
             d="m 218.59,635.695 c 3.629,0 6.566,2.942 6.566,6.571 0,3.625 -2.937,6.562 -6.566,6.562 -3.617,0 -6.563,-2.937 -6.563,-6.562 0,-3.629 2.946,-6.571 6.563,-6.571 l 0,0 z"
             id="path3617"
             style="fill:none;stroke:#ffffff;stroke-width:3.73641992;stroke-linecap:butt;stroke-linejoin:miter;stroke-miterlimit:3.8636899;stroke-opacity:1;stroke-dasharray:none" /></g></g></g></g></svg>